<?xml version="1.0" encoding="UTF-8" standalone="no"?>
<!DOCTYPE svg PUBLIC "-//W3C//DTD SVG 1.1//EN"
 "http://www.w3.org/Graphics/SVG/1.1/DTD/svg11.dtd">
<!-- Generated by graphviz version 2.40.1 (20161225.0304)
 -->
<!-- Title: include/enfield/Support/uRefCast.h Pages: 1 -->
<svg width="428pt" height="151pt"
 viewBox="0.00 0.00 428.00 151.00" xmlns="http://www.w3.org/2000/svg" xmlns:xlink="http://www.w3.org/1999/xlink">
<g id="graph0" class="graph" transform="scale(1 1) rotate(0) translate(4 147)">
<title>include/enfield/Support/uRefCast.h</title>
<!-- Node0 -->
<g id="node1" class="node">
<title>Node0</title>
<polygon fill="#bfbfbf" stroke="#000000" points="196,-112.5 196,-142.5 325,-142.5 325,-112.5 196,-112.5"/>
<text text-anchor="start" x="204" y="-130.5" font-family="Helvetica,sans-Serif" font-size="10.00" fill="#000000">include/enfield/Support</text>
<text text-anchor="middle" x="260.5" y="-119.5" font-family="Helvetica,sans-Serif" font-size="10.00" fill="#000000">/uRefCast.h</text>
</g>
<!-- Node1 -->
<g id="node2" class="node">
<title>Node1</title>
<g id="a_node2"><a xlink:href="../../d5/dfc/RTTI_8h.xhtml" target="_top" xlink:title="enfield/Support/RTTI.h">
<polygon fill="none" stroke="#000000" points="0,-56.5 0,-75.5 125,-75.5 125,-56.5 0,-56.5"/>
<text text-anchor="middle" x="62.5" y="-63.5" font-family="Helvetica,sans-Serif" font-size="10.00" fill="#000000">enfield/Support/RTTI.h</text>
</a>
</g>
</g>
<!-- Node0&#45;&gt;Node1 -->
<g id="edge1" class="edge">
<title>Node0&#45;&gt;Node1</title>
<path fill="none" stroke="#191970" d="M212.0638,-112.4554C178.5922,-102.059 134.5798,-88.3884 102.9781,-78.5727"/>
<polygon fill="#191970" stroke="#191970" points="103.7711,-75.1542 93.183,-75.5303 101.6947,-81.8391 103.7711,-75.1542"/>
</g>
<!-- Node2 -->
<g id="node3" class="node">
<title>Node2</title>
<g id="a_node3"><a xlink:href="../../d1/d73/Defs_8h.xhtml" target="_top" xlink:title="enfield/Support/Defs.h">
<polygon fill="none" stroke="#000000" points="143,-56.5 143,-75.5 268,-75.5 268,-56.5 143,-56.5"/>
<text text-anchor="middle" x="205.5" y="-63.5" font-family="Helvetica,sans-Serif" font-size="10.00" fill="#000000">enfield/Support/Defs.h</text>
</a>
</g>
</g>
<!-- Node0&#45;&gt;Node2 -->
<g id="edge2" class="edge">
<title>Node0&#45;&gt;Node2</title>
<path fill="none" stroke="#191970" d="M246.9045,-112.2977C239.1109,-103.5831 229.2953,-92.6075 221.1774,-83.5302"/>
<polygon fill="#191970" stroke="#191970" points="223.5813,-80.9678 214.3062,-75.8469 218.3635,-85.6341 223.5813,-80.9678"/>
</g>
<!-- Node7 -->
<g id="node8" class="node">
<title>Node7</title>
<polygon fill="none" stroke="#bfbfbf" points="286.5,-56.5 286.5,-75.5 344.5,-75.5 344.5,-56.5 286.5,-56.5"/>
<text text-anchor="middle" x="315.5" y="-63.5" font-family="Helvetica,sans-Serif" font-size="10.00" fill="#000000">memory</text>
</g>
<!-- Node0&#45;&gt;Node7 -->
<g id="edge7" class="edge">
<title>Node0&#45;&gt;Node7</title>
<path fill="none" stroke="#191970" d="M274.0955,-112.2977C281.8891,-103.5831 291.7047,-92.6075 299.8226,-83.5302"/>
<polygon fill="#191970" stroke="#191970" points="302.6365,-85.6341 306.6938,-75.8469 297.4187,-80.9678 302.6365,-85.6341"/>
</g>
<!-- Node8 -->
<g id="node9" class="node">
<title>Node8</title>
<polygon fill="none" stroke="#bfbfbf" points="363,-56.5 363,-75.5 420,-75.5 420,-56.5 363,-56.5"/>
<text text-anchor="middle" x="391.5" y="-63.5" font-family="Helvetica,sans-Serif" font-size="10.00" fill="#000000">typeinfo</text>
</g>
<!-- Node0&#45;&gt;Node8 -->
<g id="edge8" class="edge">
<title>Node0&#45;&gt;Node8</title>
<path fill="none" stroke="#191970" d="M292.5462,-112.4554C313.7328,-102.509 341.3028,-89.5659 361.9588,-79.8686"/>
<polygon fill="#191970" stroke="#191970" points="363.6349,-82.9483 371.1996,-75.5303 360.6601,-76.6118 363.6349,-82.9483"/>
</g>
<!-- Node3 -->
<g id="node4" class="node">
<title>Node3</title>
<polygon fill="none" stroke="#bfbfbf" points="82,-.5 82,-19.5 129,-19.5 129,-.5 82,-.5"/>
<text text-anchor="middle" x="105.5" y="-7.5" font-family="Helvetica,sans-Serif" font-size="10.00" fill="#000000">vector</text>
</g>
<!-- Node2&#45;&gt;Node3 -->
<g id="edge3" class="edge">
<title>Node2&#45;&gt;Node3</title>
<path fill="none" stroke="#191970" d="M188.0813,-56.2455C172.4515,-47.4928 149.2981,-34.527 131.4815,-24.5496"/>
<polygon fill="#191970" stroke="#191970" points="133.1543,-21.475 122.7191,-19.6427 129.734,-27.5825 133.1543,-21.475"/>
</g>
<!-- Node4 -->
<g id="node5" class="node">
<title>Node4</title>
<polygon fill="none" stroke="#bfbfbf" points="147.5,-.5 147.5,-19.5 197.5,-19.5 197.5,-.5 147.5,-.5"/>
<text text-anchor="middle" x="172.5" y="-7.5" font-family="Helvetica,sans-Serif" font-size="10.00" fill="#000000">cstdint</text>
</g>
<!-- Node2&#45;&gt;Node4 -->
<g id="edge4" class="edge">
<title>Node2&#45;&gt;Node4</title>
<path fill="none" stroke="#191970" d="M199.7518,-56.2455C195.2565,-48.617 188.8752,-37.7881 183.4175,-28.5267"/>
<polygon fill="#191970" stroke="#191970" points="186.2747,-26.4811 178.1823,-19.6427 180.2439,-30.035 186.2747,-26.4811"/>
</g>
<!-- Node5 -->
<g id="node6" class="node">
<title>Node5</title>
<polygon fill="none" stroke="#bfbfbf" points="215.5,-.5 215.5,-19.5 259.5,-19.5 259.5,-.5 215.5,-.5"/>
<text text-anchor="middle" x="237.5" y="-7.5" font-family="Helvetica,sans-Serif" font-size="10.00" fill="#000000">limits</text>
</g>
<!-- Node2&#45;&gt;Node5 -->
<g id="edge5" class="edge">
<title>Node2&#45;&gt;Node5</title>
<path fill="none" stroke="#191970" d="M211.074,-56.2455C215.4331,-48.617 221.6211,-37.7881 226.9133,-28.5267"/>
<polygon fill="#191970" stroke="#191970" points="230.0673,-30.0616 231.9899,-19.6427 223.9896,-26.5886 230.0673,-30.0616"/>
</g>
<!-- Node6 -->
<g id="node7" class="node">
<title>Node6</title>
<polygon fill="none" stroke="#bfbfbf" points="278,-.5 278,-19.5 335,-19.5 335,-.5 278,-.5"/>
<text text-anchor="middle" x="306.5" y="-7.5" font-family="Helvetica,sans-Serif" font-size="10.00" fill="#000000">ostream</text>
</g>
<!-- Node2&#45;&gt;Node6 -->
<g id="edge6" class="edge">
<title>Node2&#45;&gt;Node6</title>
<path fill="none" stroke="#191970" d="M223.0929,-56.2455C238.879,-47.4928 262.2639,-34.527 280.2587,-24.5496"/>
<polygon fill="#191970" stroke="#191970" points="282.0603,-27.5528 289.1087,-19.6427 278.6659,-21.4308 282.0603,-27.5528"/>
</g>
</g>
</svg>
