<?xml version="1.0" encoding="UTF-8" standalone="no"?>
<!DOCTYPE svg PUBLIC "-//W3C//DTD SVG 1.1//EN"
 "http://www.w3.org/Graphics/SVG/1.1/DTD/svg11.dtd">
<!-- Generated by graphviz version 2.38.0 (20140413.2041)
 -->
<!-- Title: include/enfield/Support/uRefCast.h Pages: 1 -->
<svg width="262pt" height="95pt"
 viewBox="0.00 0.00 262.00 95.00" xmlns="http://www.w3.org/2000/svg" xmlns:xlink="http://www.w3.org/1999/xlink">
<g id="graph0" class="graph" transform="scale(1 1) rotate(0) translate(4 91)">
<title>include/enfield/Support/uRefCast.h</title>
<!-- Node0 -->
<g id="node1" class="node"><title>Node0</title>
<polygon fill="#bfbfbf" stroke="black" points="101,-56.5 101,-86.5 217,-86.5 217,-56.5 101,-56.5"/>
<text text-anchor="start" x="109" y="-74.5" font-family="Helvetica,sans-Serif" font-size="10.00">include/enfield/Support</text>
<text text-anchor="middle" x="159" y="-63.5" font-family="Helvetica,sans-Serif" font-size="10.00">/uRefCast.h</text>
</g>
<!-- Node1 -->
<g id="node2" class="node"><title>Node1</title>
<g id="a_node2"><a xlink:href="../../d5/dfc/RTTI_8h.xhtml" target="_top" xlink:title="enfield/Support/RTTI.h">
<polygon fill="none" stroke="black" points="0,-0.5 0,-19.5 116,-19.5 116,-0.5 0,-0.5"/>
<text text-anchor="middle" x="58" y="-7.5" font-family="Helvetica,sans-Serif" font-size="10.00">enfield/Support/RTTI.h</text>
</a>
</g>
</g>
<!-- Node0&#45;&gt;Node1 -->
<g id="edge1" class="edge"><title>Node0&#45;&gt;Node1</title>
<path fill="none" stroke="midnightblue" d="M135.064,-56.3993C118.875,-46.8619 97.5933,-34.3248 81.4969,-24.8422"/>
<polygon fill="midnightblue" stroke="midnightblue" points="83.089,-21.718 72.6964,-19.6578 79.5359,-27.7492 83.089,-21.718"/>
</g>
<!-- Node2 -->
<g id="node3" class="node"><title>Node2</title>
<polygon fill="none" stroke="#bfbfbf" points="134.5,-0.5 134.5,-19.5 183.5,-19.5 183.5,-0.5 134.5,-0.5"/>
<text text-anchor="middle" x="159" y="-7.5" font-family="Helvetica,sans-Serif" font-size="10.00">cassert</text>
</g>
<!-- Node0&#45;&gt;Node2 -->
<g id="edge2" class="edge"><title>Node0&#45;&gt;Node2</title>
<path fill="none" stroke="midnightblue" d="M159,-56.3993C159,-48.4664 159,-38.458 159,-29.8583"/>
<polygon fill="midnightblue" stroke="midnightblue" points="162.5,-29.6577 159,-19.6578 155.5,-29.6578 162.5,-29.6577"/>
</g>
<!-- Node3 -->
<g id="node4" class="node"><title>Node3</title>
<polygon fill="none" stroke="#bfbfbf" points="202,-0.5 202,-19.5 254,-19.5 254,-0.5 202,-0.5"/>
<text text-anchor="middle" x="228" y="-7.5" font-family="Helvetica,sans-Serif" font-size="10.00">memory</text>
</g>
<!-- Node0&#45;&gt;Node3 -->
<g id="edge3" class="edge"><title>Node0&#45;&gt;Node3</title>
<path fill="none" stroke="midnightblue" d="M175.352,-56.3993C185.895,-47.3076 199.6,-35.4899 210.384,-26.1909"/>
<polygon fill="midnightblue" stroke="midnightblue" points="212.672,-28.8389 217.96,-19.6578 208.101,-23.5377 212.672,-28.8389"/>
</g>
</g>
</svg>
