<?xml version="1.0" encoding="UTF-8" standalone="no"?>
<!DOCTYPE svg PUBLIC "-//W3C//DTD SVG 1.1//EN"
 "http://www.w3.org/Graphics/SVG/1.1/DTD/svg11.dtd">
<!-- Generated by graphviz version 2.38.0 (20140413.2041)
 -->
<!-- Title: efd::ArchVerifierPass Pages: 1 -->
<svg width="165pt" height="209pt"
 viewBox="0.00 0.00 164.50 209.00" xmlns="http://www.w3.org/2000/svg" xmlns:xlink="http://www.w3.org/1999/xlink">
<g id="graph0" class="graph" transform="scale(1 1) rotate(0) translate(4 205)">
<title>efd::ArchVerifierPass</title>
<!-- Node0 -->
<g id="node1" class="node"><title>Node0</title>
<polygon fill="#bfbfbf" stroke="black" points="0,-0.5 0,-19.5 110,-19.5 110,-0.5 0,-0.5"/>
<text text-anchor="middle" x="55" y="-7.5" font-family="Helvetica,sans-Serif" font-size="10.00">efd::ArchVerifierPass</text>
</g>
<!-- Node1 -->
<g id="node2" class="node"><title>Node1</title>
<g id="a_node2"><a xlink:href="../../db/d56/classefd_1_1PassT.xhtml" target="_top" xlink:title="efd::PassT\&lt; bool \&gt;">
<polygon fill="none" stroke="black" points="4.5,-57.5 4.5,-76.5 105.5,-76.5 105.5,-57.5 4.5,-57.5"/>
<text text-anchor="middle" x="55" y="-64.5" font-family="Helvetica,sans-Serif" font-size="10.00">efd::PassT&lt; bool &gt;</text>
</a>
</g>
</g>
<!-- Node1&#45;&gt;Node0 -->
<g id="edge1" class="edge"><title>Node1&#45;&gt;Node0</title>
<path fill="none" stroke="midnightblue" d="M55,-47.1166C55,-37.8173 55,-27.0557 55,-19.7149"/>
<polygon fill="midnightblue" stroke="midnightblue" points="51.5001,-47.4062 55,-57.4062 58.5001,-47.4063 51.5001,-47.4062"/>
</g>
<!-- Node2 -->
<g id="node3" class="node"><title>Node2</title>
<g id="a_node3"><a xlink:href="../../d0/d98/classefd_1_1Pass.xhtml" target="_top" xlink:title="Base class for implementation of QModule passes. This information will be used when the QModule&#39;s fun...">
<polygon fill="none" stroke="black" points="33.5,-181.5 33.5,-200.5 92.5,-200.5 92.5,-181.5 33.5,-181.5"/>
<text text-anchor="middle" x="63" y="-188.5" font-family="Helvetica,sans-Serif" font-size="10.00">efd::Pass</text>
</a>
</g>
</g>
<!-- Node2&#45;&gt;Node1 -->
<g id="edge2" class="edge"><title>Node2&#45;&gt;Node1</title>
<path fill="none" stroke="midnightblue" d="M61.2076,-171.072C60.4593,-162.77 59.6214,-152.906 59,-144 57.3078,-119.748 55.9817,-91.0963 55.3697,-76.8984"/>
<polygon fill="midnightblue" stroke="midnightblue" points="57.7371,-171.554 62.1437,-181.189 64.7073,-170.909 57.7371,-171.554"/>
</g>
<!-- Node3 -->
<g id="node4" class="node"><title>Node3</title>
<g id="a_node4"><a xlink:href="../../db/d56/classefd_1_1PassT.xhtml" target="_top" xlink:title="Should serve as base class for classes that produces some data of type T. ">
<polygon fill="none" stroke="black" points="67.5,-124.5 67.5,-143.5 156.5,-143.5 156.5,-124.5 67.5,-124.5"/>
<text text-anchor="middle" x="112" y="-131.5" font-family="Helvetica,sans-Serif" font-size="10.00">efd::PassT&lt; T &gt;</text>
</a>
</g>
</g>
<!-- Node2&#45;&gt;Node3 -->
<g id="edge4" class="edge"><title>Node2&#45;&gt;Node3</title>
<path fill="none" stroke="midnightblue" d="M77.4077,-173.828C86.182,-163.979 97.049,-151.782 104.236,-143.715"/>
<polygon fill="midnightblue" stroke="midnightblue" points="74.695,-171.611 70.6562,-181.406 79.9217,-176.268 74.695,-171.611"/>
</g>
<!-- Node3&#45;&gt;Node1 -->
<g id="edge3" class="edge"><title>Node3&#45;&gt;Node1</title>
<path fill="none" stroke="orange" stroke-dasharray="5,2" d="M97.649,-116.635C86.5015,-103.923 71.4842,-86.7978 62.5655,-76.6273"/>
<polygon fill="orange" stroke="orange" points="95.0879,-119.023 104.313,-124.234 100.351,-114.408 95.0879,-119.023"/>
<text text-anchor="middle" x="107" y="-98" font-family="Helvetica,sans-Serif" font-size="10.00"> &lt; bool &gt;</text>
</g>
</g>
</svg>
