<?xml version="1.0" encoding="UTF-8" standalone="no"?>
<!DOCTYPE svg PUBLIC "-//W3C//DTD SVG 1.1//EN"
 "http://www.w3.org/Graphics/SVG/1.1/DTD/svg11.dtd">
<!-- Generated by graphviz version 2.40.1 (20161225.0304)
 -->
<!-- Title: include/enfield/Arch/Architectures.h Pages: 1 -->
<!--zoomable 263 -->
<svg id="main" version="1.1" xmlns="http://www.w3.org/2000/svg" xmlns:xlink="http://www.w3.org/1999/xlink" xml:space="preserve" onload="init(evt)">
<style type="text/css"><![CDATA[
.edge:hover path { stroke: red; }
.edge:hover polygon { stroke: red; fill: red; }
]]></style>
<script type="text/javascript"><![CDATA[
var edges = document.getElementsByTagName('g');
if (edges && edges.length) {
  for (var i=0;i<edges.length;i++) {
    if (edges[i].id.substr(0,4)=='edge') {
      edges[i].setAttribute('class','edge');
    }
  }
}
]]></script>
        <defs>
                <circle id="rim" cx="0" cy="0" r="7"/>
                <circle id="rim2" cx="0" cy="0" r="3.5"/>
                <g id="zoomPlus">
                        <use xlink:href="#rim" fill="#404040">
                                <set attributeName="fill" to="#808080" begin="zoomplus.mouseover" end="zoomplus.mouseout"/>
                        </use>
                        <path d="M-4,0h8M0,-4v8" fill="none" stroke="white" stroke-width="1.5" pointer-events="none"/>
                </g>
                <g id="zoomMin">
                        <use xlink:href="#rim" fill="#404040">
                                <set attributeName="fill" to="#808080" begin="zoomminus.mouseover" end="zoomminus.mouseout"/>
                        </use>
                        <path d="M-4,0h8" fill="none" stroke="white" stroke-width="1.5" pointer-events="none"/>
                </g>
                <g id="dirArrow">
                        <path fill="none" stroke="white" stroke-width="1.5" d="M0,-3.0v7 M-2.5,-0.5L0,-3.0L2.5,-0.5"/>
                </g>
               <g id="resetDef">
                       <use xlink:href="#rim2" fill="#404040">
                               <set attributeName="fill" to="#808080" begin="reset.mouseover" end="reset.mouseout"/>
                       </use>
               </g>
        </defs>

<script type="text/javascript">
var viewWidth = 1197;
var viewHeight = 263;
var sectionId = 'dynsection-0';
</script>
<script xlink:href="../../svgpan.js"/>
<svg id="graph" class="graph">
<g id="viewport">
<title>include/enfield/Arch/Architectures.h</title>
<!-- Node0 -->
<g id="node1" class="node">
<title>Node0</title>
<polygon fill="#bfbfbf" stroke="#000000" points="810.1653,-224.5 810.1653,-254.5 923.1653,-254.5 923.1653,-224.5 810.1653,-224.5"/>
<text text-anchor="start" x="818.1653" y="-242.5" font-family="Helvetica,sans-Serif" font-size="10.00" fill="#000000">include/enfield/Arch</text>
<text text-anchor="middle" x="866.6653" y="-231.5" font-family="Helvetica,sans-Serif" font-size="10.00" fill="#000000">/Architectures.h</text>
</g>
<!-- Node1 -->
<g id="node2" class="node">
<title>Node1</title>
<g id="a_node2"><a xlink:href="../../d7/d9d/ArchGraph_8h.xhtml" target="_top" xlink:title="enfield/Arch/ArchGraph.h">
<polygon fill="none" stroke="#000000" points="342.6653,-168.5 342.6653,-187.5 480.6653,-187.5 480.6653,-168.5 342.6653,-168.5"/>
<text text-anchor="middle" x="411.6653" y="-175.5" font-family="Helvetica,sans-Serif" font-size="10.00" fill="#000000">enfield/Arch/ArchGraph.h</text>
</a>
</g>
</g>
<!-- Node0&#45;&gt;Node1 -->
<g id="edge1" class="edge">
<title>Node0&#45;&gt;Node1</title>
<path fill="none" stroke="#191970" d="M809.9592,-231.8353C729.5935,-220.9727 582.2171,-201.0526 491.0258,-188.7267"/>
<polygon fill="#191970" stroke="#191970" points="491.3924,-185.2445 481.0136,-187.3735 490.4547,-192.1815 491.3924,-185.2445"/>
</g>
<!-- Node13 -->
<g id="node14" class="node">
<title>Node13</title>
<g id="a_node14"><a xlink:href="../../da/d66/Registry_8h.xhtml" target="_top" xlink:title="enfield/Support/Registry.h">
<polygon fill="none" stroke="#000000" points="860.1653,-168.5 860.1653,-187.5 1003.1653,-187.5 1003.1653,-168.5 860.1653,-168.5"/>
<text text-anchor="middle" x="931.6653" y="-175.5" font-family="Helvetica,sans-Serif" font-size="10.00" fill="#000000">enfield/Support/Registry.h</text>
</a>
</g>
</g>
<!-- Node0&#45;&gt;Node13 -->
<g id="edge15" class="edge">
<title>Node0&#45;&gt;Node13</title>
<path fill="none" stroke="#191970" d="M882.7327,-224.2977C892.1313,-215.4052 904.0181,-204.1586 913.7223,-194.9769"/>
<polygon fill="#191970" stroke="#191970" points="916.3995,-197.2621 921.258,-187.8469 911.5885,-192.1774 916.3995,-197.2621"/>
</g>
<!-- Node14 -->
<g id="node15" class="node">
<title>Node14</title>
<g id="a_node15"><a xlink:href="../../dd/d62/EnumString_8h.xhtml" target="_top" xlink:title="enfield/Support/EnumString.h">
<polygon fill="none" stroke="#000000" points="730.1653,-112.5 730.1653,-131.5 889.1653,-131.5 889.1653,-112.5 730.1653,-112.5"/>
<text text-anchor="middle" x="809.6653" y="-119.5" font-family="Helvetica,sans-Serif" font-size="10.00" fill="#000000">enfield/Support/EnumString.h</text>
</a>
</g>
</g>
<!-- Node0&#45;&gt;Node14 -->
<g id="edge30" class="edge">
<title>Node0&#45;&gt;Node14</title>
<path fill="none" stroke="#191970" d="M859.2136,-224.1389C848.804,-202.6806 829.93,-163.7738 818.7224,-140.6702"/>
<polygon fill="#191970" stroke="#191970" points="821.8164,-139.0291 814.3027,-131.5595 815.5183,-142.0844 821.8164,-139.0291"/>
</g>
<!-- Node23 -->
<g id="node24" class="node">
<title>Node23</title>
<g id="a_node24"><a xlink:href="../../d4/d7d/Architectures_8def.xhtml" target="_top" xlink:title="enfield/Arch/Architectures.def">
<polygon fill="none" stroke="#000000" points="1021.1653,-168.5 1021.1653,-187.5 1182.1653,-187.5 1182.1653,-168.5 1021.1653,-168.5"/>
<text text-anchor="middle" x="1101.6653" y="-175.5" font-family="Helvetica,sans-Serif" font-size="10.00" fill="#000000">enfield/Arch/Architectures.def</text>
</a>
</g>
</g>
<!-- Node0&#45;&gt;Node23 -->
<g id="edge31" class="edge">
<title>Node0&#45;&gt;Node23</title>
<path fill="none" stroke="#191970" d="M923.2527,-224.691C963.7711,-214.0872 1017.6468,-199.9878 1055.556,-190.0669"/>
<polygon fill="#191970" stroke="#191970" points="1056.5274,-193.4306 1065.3155,-187.5128 1054.7551,-186.6587 1056.5274,-193.4306"/>
</g>
<!-- Node2 -->
<g id="node3" class="node">
<title>Node2</title>
<g id="a_node3"><a xlink:href="../../d7/d16/Graph_8h.xhtml" target="_top" xlink:title="enfield/Support/Graph.h">
<polygon fill="none" stroke="#000000" points="78.6653,-112.5 78.6653,-131.5 210.6653,-131.5 210.6653,-112.5 78.6653,-112.5"/>
<text text-anchor="middle" x="144.6653" y="-119.5" font-family="Helvetica,sans-Serif" font-size="10.00" fill="#000000">enfield/Support/Graph.h</text>
</a>
</g>
</g>
<!-- Node1&#45;&gt;Node2 -->
<g id="edge2" class="edge">
<title>Node1&#45;&gt;Node2</title>
<path fill="none" stroke="#191970" d="M366.0697,-168.4369C320.0868,-158.7925 249.0565,-143.8948 199.9047,-133.5858"/>
<polygon fill="#191970" stroke="#191970" points="200.5783,-130.151 190.0728,-131.5237 199.1414,-137.0019 200.5783,-130.151"/>
</g>
<!-- Node7 -->
<g id="node8" class="node">
<title>Node7</title>
<g id="a_node8"><a xlink:href="../../d4/daf/Nodes_8h.xhtml" target="_top" xlink:title="enfield/Analysis/Nodes.h">
<polygon fill="none" stroke="#000000" points="343.1653,-112.5 343.1653,-131.5 480.1653,-131.5 480.1653,-112.5 343.1653,-112.5"/>
<text text-anchor="middle" x="411.6653" y="-119.5" font-family="Helvetica,sans-Serif" font-size="10.00" fill="#000000">enfield/Analysis/Nodes.h</text>
</a>
</g>
</g>
<!-- Node1&#45;&gt;Node7 -->
<g id="edge7" class="edge">
<title>Node1&#45;&gt;Node7</title>
<path fill="none" stroke="#191970" d="M411.6653,-168.2455C411.6653,-160.9382 411.6653,-150.6944 411.6653,-141.7046"/>
<polygon fill="#191970" stroke="#191970" points="415.1654,-141.6426 411.6653,-131.6427 408.1654,-141.6427 415.1654,-141.6426"/>
</g>
<!-- Node3 -->
<g id="node4" class="node">
<title>Node3</title>
<polygon fill="none" stroke="#bfbfbf" points="128.6653,-56.5 128.6653,-75.5 160.6653,-75.5 160.6653,-56.5 128.6653,-56.5"/>
<text text-anchor="middle" x="144.6653" y="-63.5" font-family="Helvetica,sans-Serif" font-size="10.00" fill="#000000">set</text>
</g>
<!-- Node2&#45;&gt;Node3 -->
<g id="edge3" class="edge">
<title>Node2&#45;&gt;Node3</title>
<path fill="none" stroke="#191970" d="M144.6653,-112.2455C144.6653,-104.9382 144.6653,-94.6944 144.6653,-85.7046"/>
<polygon fill="#191970" stroke="#191970" points="148.1654,-85.6426 144.6653,-75.6427 141.1654,-85.6427 148.1654,-85.6426"/>
</g>
<!-- Node4 -->
<g id="node5" class="node">
<title>Node4</title>
<polygon fill="none" stroke="#bfbfbf" points="608.1653,-.5 608.1653,-19.5 655.1653,-19.5 655.1653,-.5 608.1653,-.5"/>
<text text-anchor="middle" x="631.6653" y="-7.5" font-family="Helvetica,sans-Serif" font-size="10.00" fill="#000000">vector</text>
</g>
<!-- Node2&#45;&gt;Node4 -->
<g id="edge4" class="edge">
<title>Node2&#45;&gt;Node4</title>
<path fill="none" stroke="#191970" d="M80.2622,-112.4433C32.7251,-102.8038 -19.3779,-85.1102 7.6653,-56 27.9152,-34.2024 470.6353,-16.0195 597.7952,-11.2322"/>
<polygon fill="#191970" stroke="#191970" points="598.2287,-14.7185 608.0912,-10.848 597.9676,-7.7234 598.2287,-14.7185"/>
</g>
<!-- Node5 -->
<g id="node6" class="node">
<title>Node5</title>
<polygon fill="none" stroke="#bfbfbf" points="17.1653,-56.5 17.1653,-75.5 110.1653,-75.5 110.1653,-56.5 17.1653,-56.5"/>
<text text-anchor="middle" x="63.6653" y="-63.5" font-family="Helvetica,sans-Serif" font-size="10.00" fill="#000000">unordered_map</text>
</g>
<!-- Node2&#45;&gt;Node5 -->
<g id="edge5" class="edge">
<title>Node2&#45;&gt;Node5</title>
<path fill="none" stroke="#191970" d="M130.5562,-112.2455C118.2444,-103.7337 100.1695,-91.2375 85.9115,-81.3801"/>
<polygon fill="#191970" stroke="#191970" points="87.8287,-78.4506 77.6127,-75.6427 83.8479,-84.2085 87.8287,-78.4506"/>
</g>
<!-- Node6 -->
<g id="node7" class="node">
<title>Node6</title>
<polygon fill="none" stroke="#bfbfbf" points="178.6653,-56.5 178.6653,-75.5 236.6653,-75.5 236.6653,-56.5 178.6653,-56.5"/>
<text text-anchor="middle" x="207.6653" y="-63.5" font-family="Helvetica,sans-Serif" font-size="10.00" fill="#000000">memory</text>
</g>
<!-- Node2&#45;&gt;Node6 -->
<g id="edge6" class="edge">
<title>Node2&#45;&gt;Node6</title>
<path fill="none" stroke="#191970" d="M155.6391,-112.2455C164.8535,-104.0549 178.2185,-92.1749 189.095,-82.5069"/>
<polygon fill="#191970" stroke="#191970" points="191.6685,-84.9023 196.8173,-75.6427 187.0179,-79.6704 191.6685,-84.9023"/>
</g>
<!-- Node7&#45;&gt;Node4 -->
<g id="edge13" class="edge">
<title>Node7&#45;&gt;Node4</title>
<path fill="none" stroke="#191970" d="M401.9949,-112.0495C389.7016,-98.1856 371.6614,-72.8653 385.6653,-56 412.242,-23.9931 536.7151,-14.1311 597.749,-11.1934"/>
<polygon fill="#191970" stroke="#191970" points="598.1873,-14.6774 608.0217,-10.7358 597.8758,-7.6843 598.1873,-14.6774"/>
</g>
<!-- Node7&#45;&gt;Node6 -->
<g id="edge14" class="edge">
<title>Node7&#45;&gt;Node6</title>
<path fill="none" stroke="#191970" d="M376.5965,-112.3733C340.4636,-102.4544 284.2681,-87.0282 246.7339,-76.7247"/>
<polygon fill="#191970" stroke="#191970" points="247.2442,-73.2354 236.6744,-73.9633 245.3911,-79.9856 247.2442,-73.2354"/>
</g>
<!-- Node8 -->
<g id="node9" class="node">
<title>Node8</title>
<g id="a_node9"><a xlink:href="../../d1/d2e/WrapperVal_8h.xhtml" target="_top" xlink:title="enfield/Support/WrapperVal.h">
<polygon fill="none" stroke="#000000" points="538.6653,-56.5 538.6653,-75.5 698.6653,-75.5 698.6653,-56.5 538.6653,-56.5"/>
<text text-anchor="middle" x="618.6653" y="-63.5" font-family="Helvetica,sans-Serif" font-size="10.00" fill="#000000">enfield/Support/WrapperVal.h</text>
</a>
</g>
</g>
<!-- Node7&#45;&gt;Node8 -->
<g id="edge8" class="edge">
<title>Node7&#45;&gt;Node8</title>
<path fill="none" stroke="#191970" d="M447.2499,-112.3733C482.2669,-102.9001 535.8534,-88.4032 573.7778,-78.1435"/>
<polygon fill="#191970" stroke="#191970" points="574.8061,-81.4912 583.5451,-75.5011 572.9781,-74.7341 574.8061,-81.4912"/>
</g>
<!-- Node10 -->
<g id="node11" class="node">
<title>Node10</title>
<g id="a_node11"><a xlink:href="../../d5/dfc/RTTI_8h.xhtml" target="_top" xlink:title="enfield/Support/RTTI.h">
<polygon fill="none" stroke="#000000" points="395.1653,-56.5 395.1653,-75.5 520.1653,-75.5 520.1653,-56.5 395.1653,-56.5"/>
<text text-anchor="middle" x="457.6653" y="-63.5" font-family="Helvetica,sans-Serif" font-size="10.00" fill="#000000">enfield/Support/RTTI.h</text>
</a>
</g>
</g>
<!-- Node7&#45;&gt;Node10 -->
<g id="edge10" class="edge">
<title>Node7&#45;&gt;Node10</title>
<path fill="none" stroke="#191970" d="M419.6779,-112.2455C426.1421,-104.3761 435.4038,-93.101 443.1637,-83.6542"/>
<polygon fill="#191970" stroke="#191970" points="446.1017,-85.5916 449.7445,-75.6427 440.6926,-81.1484 446.1017,-85.5916"/>
</g>
<!-- Node11 -->
<g id="node12" class="node">
<title>Node11</title>
<polygon fill="none" stroke="#bfbfbf" points="255.1653,-56.5 255.1653,-75.5 338.1653,-75.5 338.1653,-56.5 255.1653,-56.5"/>
<text text-anchor="middle" x="296.6653" y="-63.5" font-family="Helvetica,sans-Serif" font-size="10.00" fill="#000000">initializer_list</text>
</g>
<!-- Node7&#45;&gt;Node11 -->
<g id="edge11" class="edge">
<title>Node7&#45;&gt;Node11</title>
<path fill="none" stroke="#191970" d="M391.8961,-112.3733C373.5184,-103.4241 345.9341,-89.9917 325.1761,-79.8835"/>
<polygon fill="#191970" stroke="#191970" points="326.6996,-76.7325 316.1765,-75.5011 323.6349,-83.026 326.6996,-76.7325"/>
</g>
<!-- Node12 -->
<g id="node13" class="node">
<title>Node12</title>
<polygon fill="none" stroke="#bfbfbf" points="716.6653,-56.5 716.6653,-75.5 776.6653,-75.5 776.6653,-56.5 716.6653,-56.5"/>
<text text-anchor="middle" x="746.6653" y="-63.5" font-family="Helvetica,sans-Serif" font-size="10.00" fill="#000000">iostream</text>
</g>
<!-- Node7&#45;&gt;Node12 -->
<g id="edge12" class="edge">
<title>Node7&#45;&gt;Node12</title>
<path fill="none" stroke="#191970" d="M480.1901,-113.2678C538.107,-105.4491 623.4334,-92.9057 706.6285,-76.0633"/>
<polygon fill="#191970" stroke="#191970" points="707.4039,-79.4772 716.4987,-74.0425 705.9998,-72.6195 707.4039,-79.4772"/>
</g>
<!-- Node9 -->
<g id="node10" class="node">
<title>Node9</title>
<polygon fill="none" stroke="#bfbfbf" points="767.6653,-.5 767.6653,-19.5 811.6653,-19.5 811.6653,-.5 767.6653,-.5"/>
<text text-anchor="middle" x="789.6653" y="-7.5" font-family="Helvetica,sans-Serif" font-size="10.00" fill="#000000">string</text>
</g>
<!-- Node8&#45;&gt;Node9 -->
<g id="edge9" class="edge">
<title>Node8&#45;&gt;Node9</title>
<path fill="none" stroke="#191970" d="M648.0613,-56.3733C678.6501,-46.3559 726.3921,-30.721 757.8501,-20.419"/>
<polygon fill="#191970" stroke="#191970" points="759.035,-23.7139 767.4491,-17.2755 756.8564,-17.0616 759.035,-23.7139"/>
</g>
<!-- Node13&#45;&gt;Node9 -->
<g id="edge29" class="edge">
<title>Node13&#45;&gt;Node9</title>
<path fill="none" stroke="#191970" d="M947.2061,-168.4453C958.7928,-160.3447 973.7592,-147.5729 980.6653,-132 994.3598,-101.1197 1002.585,-82.5237 981.6653,-56 962.1368,-31.2401 871.4939,-18.309 822.0514,-12.9937"/>
<polygon fill="#191970" stroke="#191970" points="822.1838,-9.4889 811.8776,-11.945 821.466,-16.452 822.1838,-9.4889"/>
</g>
<!-- Node13&#45;&gt;Node12 -->
<g id="edge26" class="edge">
<title>Node13&#45;&gt;Node12</title>
<path fill="none" stroke="#191970" d="M859.9832,-171.8834C805.872,-165.6053 738.0692,-153.6068 720.6653,-132 709.2777,-117.8623 719.6245,-98.1233 730.4518,-83.9209"/>
<polygon fill="#191970" stroke="#191970" points="733.4083,-85.8366 737.0653,-75.8929 728.0055,-81.3857 733.4083,-85.8366"/>
</g>
<!-- Node13&#45;&gt;Node14 -->
<g id="edge16" class="edge">
<title>Node13&#45;&gt;Node14</title>
<path fill="none" stroke="#191970" d="M910.6928,-168.3733C891.1086,-159.3838 861.6692,-145.8706 839.6143,-135.7471"/>
<polygon fill="#191970" stroke="#191970" points="840.9126,-132.4919 830.3642,-131.5011 837.9924,-138.8538 840.9126,-132.4919"/>
</g>
<!-- Node15 -->
<g id="node16" class="node">
<title>Node15</title>
<g id="a_node16"><a xlink:href="../../d1/d73/Defs_8h.xhtml" target="_top" xlink:title="enfield/Support/Defs.h">
<polygon fill="none" stroke="#000000" points="1029.1653,-56.5 1029.1653,-75.5 1154.1653,-75.5 1154.1653,-56.5 1029.1653,-56.5"/>
<text text-anchor="middle" x="1091.6653" y="-63.5" font-family="Helvetica,sans-Serif" font-size="10.00" fill="#000000">enfield/Support/Defs.h</text>
</a>
</g>
</g>
<!-- Node13&#45;&gt;Node15 -->
<g id="edge25" class="edge">
<title>Node13&#45;&gt;Node15</title>
<path fill="none" stroke="#191970" d="M951.449,-168.4687C968.6969,-159.8283 994.102,-146.2911 1014.6653,-132 1036.3795,-116.909 1059.1175,-96.8089 1074.2045,-82.7711"/>
<polygon fill="#191970" stroke="#191970" points="1076.8665,-85.0718 1081.7439,-75.6663 1072.0657,-79.9773 1076.8665,-85.0718"/>
</g>
<!-- Node21 -->
<g id="node22" class="node">
<title>Node21</title>
<polygon fill="none" stroke="#bfbfbf" points="1066.6653,-112.5 1066.6653,-131.5 1104.6653,-131.5 1104.6653,-112.5 1066.6653,-112.5"/>
<text text-anchor="middle" x="1085.6653" y="-119.5" font-family="Helvetica,sans-Serif" font-size="10.00" fill="#000000">map</text>
</g>
<!-- Node13&#45;&gt;Node21 -->
<g id="edge27" class="edge">
<title>Node13&#45;&gt;Node21</title>
<path fill="none" stroke="#191970" d="M958.1389,-168.3733C985.5587,-158.4024 1028.2833,-142.8662 1056.6172,-132.563"/>
<polygon fill="#191970" stroke="#191970" points="1058.148,-135.7306 1066.3499,-129.0238 1055.7558,-129.152 1058.148,-135.7306"/>
</g>
<!-- Node22 -->
<g id="node23" class="node">
<title>Node22</title>
<polygon fill="none" stroke="#bfbfbf" points="907.1653,-112.5 907.1653,-131.5 972.1653,-131.5 972.1653,-112.5 907.1653,-112.5"/>
<text text-anchor="middle" x="939.6653" y="-119.5" font-family="Helvetica,sans-Serif" font-size="10.00" fill="#000000">functional</text>
</g>
<!-- Node13&#45;&gt;Node22 -->
<g id="edge28" class="edge">
<title>Node13&#45;&gt;Node22</title>
<path fill="none" stroke="#191970" d="M933.0588,-168.2455C934.1027,-160.9382 935.5661,-150.6944 936.8504,-141.7046"/>
<polygon fill="#191970" stroke="#191970" points="940.3383,-142.0372 938.2878,-131.6427 933.4087,-141.0472 940.3383,-142.0372"/>
</g>
<!-- Node14&#45;&gt;Node4 -->
<g id="edge22" class="edge">
<title>Node14&#45;&gt;Node4</title>
<path fill="none" stroke="#191970" d="M808.8551,-112.4604C807.1284,-98.1606 801.8083,-71.2252 785.6653,-56 768.252,-39.5768 705.0115,-24.5062 665.1895,-16.3515"/>
<polygon fill="#191970" stroke="#191970" points="665.861,-12.9165 655.3681,-14.3828 664.4851,-19.78 665.861,-12.9165"/>
</g>
<!-- Node14&#45;&gt;Node15 -->
<g id="edge17" class="edge">
<title>Node14&#45;&gt;Node15</title>
<path fill="none" stroke="#191970" d="M857.8224,-112.4369C906.4901,-102.7724 981.7228,-87.8326 1033.6474,-77.5213"/>
<polygon fill="#191970" stroke="#191970" points="1034.5801,-80.9045 1043.7068,-75.5237 1033.2166,-74.0386 1034.5801,-80.9045"/>
</g>
<!-- Node19 -->
<g id="node20" class="node">
<title>Node19</title>
<polygon fill="none" stroke="#bfbfbf" points="908.6653,-56.5 908.6653,-75.5 972.6653,-75.5 972.6653,-56.5 908.6653,-56.5"/>
<text text-anchor="middle" x="940.6653" y="-63.5" font-family="Helvetica,sans-Serif" font-size="10.00" fill="#000000">algorithm</text>
</g>
<!-- Node14&#45;&gt;Node19 -->
<g id="edge23" class="edge">
<title>Node14&#45;&gt;Node19</title>
<path fill="none" stroke="#191970" d="M832.185,-112.3733C853.4025,-103.3032 885.3929,-89.6279 909.1422,-79.4755"/>
<polygon fill="#191970" stroke="#191970" points="910.6202,-82.6502 918.4395,-75.5011 907.8686,-76.2136 910.6202,-82.6502"/>
</g>
<!-- Node20 -->
<g id="node21" class="node">
<title>Node20</title>
<polygon fill="none" stroke="#bfbfbf" points="833.1653,-56.5 833.1653,-75.5 890.1653,-75.5 890.1653,-56.5 833.1653,-56.5"/>
<text text-anchor="middle" x="861.6653" y="-63.5" font-family="Helvetica,sans-Serif" font-size="10.00" fill="#000000">typeinfo</text>
</g>
<!-- Node14&#45;&gt;Node20 -->
<g id="edge24" class="edge">
<title>Node14&#45;&gt;Node20</title>
<path fill="none" stroke="#191970" d="M818.723,-112.2455C826.1795,-104.2155 836.9287,-92.6394 845.807,-83.0781"/>
<polygon fill="#191970" stroke="#191970" points="848.4716,-85.3522 852.7114,-75.6427 843.3421,-80.589 848.4716,-85.3522"/>
</g>
<!-- Node15&#45;&gt;Node4 -->
<g id="edge18" class="edge">
<title>Node15&#45;&gt;Node4</title>
<path fill="none" stroke="#191970" d="M1029.1489,-58.3893C930.6109,-46.3934 742.4937,-23.4922 665.6452,-14.1367"/>
<polygon fill="#191970" stroke="#191970" points="665.9106,-10.6432 655.5609,-12.909 665.0647,-17.5919 665.9106,-10.6432"/>
</g>
<!-- Node16 -->
<g id="node17" class="node">
<title>Node16</title>
<polygon fill="none" stroke="#bfbfbf" points="1001.6653,-.5 1001.6653,-19.5 1051.6653,-19.5 1051.6653,-.5 1001.6653,-.5"/>
<text text-anchor="middle" x="1026.6653" y="-7.5" font-family="Helvetica,sans-Serif" font-size="10.00" fill="#000000">cstdint</text>
</g>
<!-- Node15&#45;&gt;Node16 -->
<g id="edge19" class="edge">
<title>Node15&#45;&gt;Node16</title>
<path fill="none" stroke="#191970" d="M1080.3432,-56.2455C1070.743,-47.9746 1056.7761,-35.9416 1045.4958,-26.2232"/>
<polygon fill="#191970" stroke="#191970" points="1047.7183,-23.5182 1037.8577,-19.6427 1043.1493,-28.8214 1047.7183,-23.5182"/>
</g>
<!-- Node17 -->
<g id="node18" class="node">
<title>Node17</title>
<polygon fill="none" stroke="#bfbfbf" points="1069.6653,-.5 1069.6653,-19.5 1113.6653,-19.5 1113.6653,-.5 1069.6653,-.5"/>
<text text-anchor="middle" x="1091.6653" y="-7.5" font-family="Helvetica,sans-Serif" font-size="10.00" fill="#000000">limits</text>
</g>
<!-- Node15&#45;&gt;Node17 -->
<g id="edge20" class="edge">
<title>Node15&#45;&gt;Node17</title>
<path fill="none" stroke="#191970" d="M1091.6653,-56.2455C1091.6653,-48.9382 1091.6653,-38.6944 1091.6653,-29.7046"/>
<polygon fill="#191970" stroke="#191970" points="1095.1654,-29.6426 1091.6653,-19.6427 1088.1654,-29.6427 1095.1654,-29.6426"/>
</g>
<!-- Node18 -->
<g id="node19" class="node">
<title>Node18</title>
<polygon fill="none" stroke="#bfbfbf" points="1132.1653,-.5 1132.1653,-19.5 1189.1653,-19.5 1189.1653,-.5 1132.1653,-.5"/>
<text text-anchor="middle" x="1160.6653" y="-7.5" font-family="Helvetica,sans-Serif" font-size="10.00" fill="#000000">ostream</text>
</g>
<!-- Node15&#45;&gt;Node18 -->
<g id="edge21" class="edge">
<title>Node15&#45;&gt;Node18</title>
<path fill="none" stroke="#191970" d="M1103.6842,-56.2455C1113.8751,-47.9746 1128.7015,-35.9416 1140.676,-26.2232"/>
<polygon fill="#191970" stroke="#191970" points="1143.2252,-28.662 1148.7842,-19.6427 1138.814,-23.2268 1143.2252,-28.662"/>
</g>
</g>
</svg>
        <g id="navigator" transform="translate(0 0)" fill="#404254">
                <rect fill="#f2f5e9" fill-opacity="0.5" stroke="#606060" stroke-width=".5" x="0" y="0" width="60" height="60"/>
                <use id="zoomplus" xlink:href="#zoomPlus" x="17" y="9" onmousedown="handleZoom(evt,'in')"/>
                <use id="zoomminus" xlink:href="#zoomMin" x="42" y="9" onmousedown="handleZoom(evt,'out')"/>
                <use id="reset" xlink:href="#resetDef" x="30" y="36" onmousedown="handleReset()"/>
                <g id="arrowUp" xlink:href="#dirArrow" transform="translate(30 24)" onmousedown="handlePan(0,-1)">
                  <use xlink:href="#rim" fill="#404040">
                        <set attributeName="fill" to="#808080" begin="arrowUp.mouseover" end="arrowUp.mouseout"/>
                  </use>
                  <path fill="none" stroke="white" stroke-width="1.5" d="M0,-3.0v7 M-2.5,-0.5L0,-3.0L2.5,-0.5"/>
                </g>
                <g id="arrowRight" xlink:href="#dirArrow" transform="rotate(90) translate(36 -43)" onmousedown="handlePan(1,0)">
                  <use xlink:href="#rim" fill="#404040">
                        <set attributeName="fill" to="#808080" begin="arrowRight.mouseover" end="arrowRight.mouseout"/>
                  </use>
                  <path fill="none" stroke="white" stroke-width="1.5" d="M0,-3.0v7 M-2.5,-0.5L0,-3.0L2.5,-0.5"/>
                </g>
                <g id="arrowDown" xlink:href="#dirArrow" transform="rotate(180) translate(-30 -48)" onmousedown="handlePan(0,1)">
                  <use xlink:href="#rim" fill="#404040">
                        <set attributeName="fill" to="#808080" begin="arrowDown.mouseover" end="arrowDown.mouseout"/>
                  </use>
                  <path fill="none" stroke="white" stroke-width="1.5" d="M0,-3.0v7 M-2.5,-0.5L0,-3.0L2.5,-0.5"/>
                </g>
                <g id="arrowLeft" xlink:href="#dirArrow" transform="rotate(270) translate(-36 17)" onmousedown="handlePan(-1,0)">
                  <use xlink:href="#rim" fill="#404040">
                        <set attributeName="fill" to="#808080" begin="arrowLeft.mouseover" end="arrowLeft.mouseout"/>
                  </use>
                  <path fill="none" stroke="white" stroke-width="1.5" d="M0,-3.0v7 M-2.5,-0.5L0,-3.0L2.5,-0.5"/>
                </g>
        </g>
        <svg viewBox="0 0 15 15" width="100%" height="30px" preserveAspectRatio="xMaxYMin meet">
         <g id="arrow_out" transform="scale(0.3 0.3)">
          <a xlink:href="Architectures_8h__incl_org.svg" target="_base">
           <rect id="button" ry="5" rx="5" y="6" x="6" height="38" width="38"
                fill="#f2f5e9" fill-opacity="0.5" stroke="#606060" stroke-width="1.0"/>
           <path id="arrow"
             d="M 11.500037,31.436501 C 11.940474,20.09759 22.043105,11.32322 32.158766,21.979434 L 37.068811,17.246167 C 37.068811,17.246167 37.088388,32 37.088388,32 L 22.160133,31.978069 C 22.160133,31.978069 26.997745,27.140456 26.997745,27.140456 C 18.528582,18.264221 13.291696,25.230495 11.500037,31.436501 z"
             style="fill:#404040;"/>
          </a>
         </g>
        </svg>
</svg>
