<?xml version="1.0" encoding="UTF-8" standalone="no"?>
<!DOCTYPE svg PUBLIC "-//W3C//DTD SVG 1.1//EN"
 "http://www.w3.org/Graphics/SVG/1.1/DTD/svg11.dtd">
<!-- Generated by graphviz version 2.38.0 (20140413.2041)
 -->
<!-- Title: include/enfield/Arch/Architectures.h Pages: 1 -->
<svg width="1175pt" height="263pt"
 viewBox="0.00 0.00 1175.19 263.00" xmlns="http://www.w3.org/2000/svg" xmlns:xlink="http://www.w3.org/1999/xlink">
<g id="graph0" class="graph" transform="scale(1 1) rotate(0) translate(4 259)">
<title>include/enfield/Arch/Architectures.h</title>
<!-- Node0 -->
<g id="node1" class="node"><title>Node0</title>
<polygon fill="#bfbfbf" stroke="black" points="750.188,-224.5 750.188,-254.5 852.188,-254.5 852.188,-224.5 750.188,-224.5"/>
<text text-anchor="start" x="758.188" y="-242.5" font-family="Helvetica,sans-Serif" font-size="10.00">include/enfield/Arch</text>
<text text-anchor="middle" x="801.188" y="-231.5" font-family="Helvetica,sans-Serif" font-size="10.00">/Architectures.h</text>
</g>
<!-- Node1 -->
<g id="node2" class="node"><title>Node1</title>
<g id="a_node2"><a xlink:href="../../d7/d9d/ArchGraph_8h.xhtml" target="_top" xlink:title="enfield/Arch/ArchGraph.h">
<polygon fill="none" stroke="black" points="489.188,-168.5 489.188,-187.5 615.188,-187.5 615.188,-168.5 489.188,-168.5"/>
<text text-anchor="middle" x="552.188" y="-175.5" font-family="Helvetica,sans-Serif" font-size="10.00">enfield/Arch/ArchGraph.h</text>
</a>
</g>
</g>
<!-- Node0&#45;&gt;Node1 -->
<g id="edge1" class="edge"><title>Node0&#45;&gt;Node1</title>
<path fill="none" stroke="midnightblue" d="M749.897,-226.244C705.217,-215.567 641.027,-200.228 598.032,-189.955"/>
<polygon fill="midnightblue" stroke="midnightblue" points="598.661,-186.506 588.122,-187.586 597.034,-193.315 598.661,-186.506"/>
</g>
<!-- Node13 -->
<g id="node14" class="node"><title>Node13</title>
<g id="a_node14"><a xlink:href="../../da/d66/Registry_8h.xhtml" target="_top" xlink:title="enfield/Support/Registry.h">
<polygon fill="none" stroke="black" points="690.188,-168.5 690.188,-187.5 820.188,-187.5 820.188,-168.5 690.188,-168.5"/>
<text text-anchor="middle" x="755.188" y="-175.5" font-family="Helvetica,sans-Serif" font-size="10.00">enfield/Support/Registry.h</text>
</a>
</g>
</g>
<!-- Node0&#45;&gt;Node13 -->
<g id="edge15" class="edge"><title>Node0&#45;&gt;Node13</title>
<path fill="none" stroke="midnightblue" d="M790.287,-224.399C783.603,-215.753 775.013,-204.642 768.004,-195.576"/>
<polygon fill="midnightblue" stroke="midnightblue" points="770.767,-193.428 761.882,-187.658 765.229,-197.71 770.767,-193.428"/>
</g>
<!-- Node14 -->
<g id="node15" class="node"><title>Node14</title>
<g id="a_node15"><a xlink:href="../../dd/d62/EnumString_8h.xhtml" target="_top" xlink:title="enfield/Support/EnumString.h">
<polygon fill="none" stroke="black" points="837.188,-112.5 837.188,-131.5 981.188,-131.5 981.188,-112.5 837.188,-112.5"/>
<text text-anchor="middle" x="909.188" y="-119.5" font-family="Helvetica,sans-Serif" font-size="10.00">enfield/Support/EnumString.h</text>
</a>
</g>
</g>
<!-- Node0&#45;&gt;Node14 -->
<g id="edge32" class="edge"><title>Node0&#45;&gt;Node14</title>
<path fill="none" stroke="midnightblue" d="M814.431,-224.337C834.598,-202.77 872.896,-161.813 894.106,-139.13"/>
<polygon fill="midnightblue" stroke="midnightblue" points="896.809,-141.364 901.082,-131.669 891.696,-136.583 896.809,-141.364"/>
</g>
<!-- Node24 -->
<g id="node25" class="node"><title>Node24</title>
<g id="a_node25"><a xlink:href="../../d4/d7d/Architectures_8def.xhtml" target="_top" xlink:title="enfield/Arch/Architectures.def">
<polygon fill="none" stroke="black" points="876.188,-168.5 876.188,-187.5 1022.19,-187.5 1022.19,-168.5 876.188,-168.5"/>
<text text-anchor="middle" x="949.188" y="-175.5" font-family="Helvetica,sans-Serif" font-size="10.00">enfield/Arch/Architectures.def</text>
</a>
</g>
</g>
<!-- Node0&#45;&gt;Node24 -->
<g id="edge33" class="edge"><title>Node0&#45;&gt;Node24</title>
<path fill="none" stroke="midnightblue" d="M836.262,-224.399C861.205,-214.372 894.396,-201.028 918.332,-191.405"/>
<polygon fill="midnightblue" stroke="midnightblue" points="919.68,-194.635 927.653,-187.658 917.069,-188.141 919.68,-194.635"/>
</g>
<!-- Node2 -->
<g id="node3" class="node"><title>Node2</title>
<g id="a_node3"><a xlink:href="../../d7/d16/Graph_8h.xhtml" target="_top" xlink:title="enfield/Support/Graph.h">
<polygon fill="none" stroke="black" points="492.688,-112.5 492.688,-131.5 611.688,-131.5 611.688,-112.5 492.688,-112.5"/>
<text text-anchor="middle" x="552.188" y="-119.5" font-family="Helvetica,sans-Serif" font-size="10.00">enfield/Support/Graph.h</text>
</a>
</g>
</g>
<!-- Node1&#45;&gt;Node2 -->
<g id="edge2" class="edge"><title>Node1&#45;&gt;Node2</title>
<path fill="none" stroke="midnightblue" d="M552.188,-168.083C552.188,-161.006 552.188,-150.861 552.188,-141.986"/>
<polygon fill="midnightblue" stroke="midnightblue" points="555.689,-141.751 552.188,-131.751 548.689,-141.751 555.689,-141.751"/>
</g>
<!-- Node7 -->
<g id="node8" class="node"><title>Node7</title>
<g id="a_node8"><a xlink:href="../../d4/daf/Nodes_8h.xhtml" target="_top" xlink:title="enfield/Analysis/Nodes.h">
<polygon fill="none" stroke="black" points="349.688,-112.5 349.688,-131.5 474.688,-131.5 474.688,-112.5 349.688,-112.5"/>
<text text-anchor="middle" x="412.188" y="-119.5" font-family="Helvetica,sans-Serif" font-size="10.00">enfield/Analysis/Nodes.h</text>
</a>
</g>
</g>
<!-- Node1&#45;&gt;Node7 -->
<g id="edge7" class="edge"><title>Node1&#45;&gt;Node7</title>
<path fill="none" stroke="midnightblue" d="M530.005,-168.444C506.76,-159.478 470.04,-145.314 443.773,-135.183"/>
<polygon fill="midnightblue" stroke="midnightblue" points="444.858,-131.85 434.268,-131.516 442.339,-138.381 444.858,-131.85"/>
</g>
<!-- Node3 -->
<g id="node4" class="node"><title>Node3</title>
<polygon fill="none" stroke="#bfbfbf" points="612.188,-56.5 612.188,-75.5 642.188,-75.5 642.188,-56.5 612.188,-56.5"/>
<text text-anchor="middle" x="627.188" y="-63.5" font-family="Helvetica,sans-Serif" font-size="10.00">set</text>
</g>
<!-- Node2&#45;&gt;Node3 -->
<g id="edge3" class="edge"><title>Node2&#45;&gt;Node3</title>
<path fill="none" stroke="midnightblue" d="M564.239,-112.324C575.652,-104.107 593.019,-91.6017 606.623,-81.8069"/>
<polygon fill="midnightblue" stroke="midnightblue" points="608.849,-84.5174 614.919,-75.8339 604.759,-78.8366 608.849,-84.5174"/>
</g>
<!-- Node4 -->
<g id="node5" class="node"><title>Node4</title>
<polygon fill="none" stroke="#bfbfbf" points="773.188,-0.5 773.188,-19.5 817.188,-19.5 817.188,-0.5 773.188,-0.5"/>
<text text-anchor="middle" x="795.188" y="-7.5" font-family="Helvetica,sans-Serif" font-size="10.00">vector</text>
</g>
<!-- Node2&#45;&gt;Node4 -->
<g id="edge4" class="edge"><title>Node2&#45;&gt;Node4</title>
<path fill="none" stroke="midnightblue" d="M611.767,-112.521C645.877,-105.945 688.627,-94.6947 723.188,-76 746.219,-63.5425 767.834,-42.2397 781.257,-27.4316"/>
<polygon fill="midnightblue" stroke="midnightblue" points="784.187,-29.4 788.162,-19.5793 778.93,-24.7773 784.187,-29.4"/>
</g>
<!-- Node5 -->
<g id="node6" class="node"><title>Node5</title>
<polygon fill="none" stroke="#bfbfbf" points="510.688,-56.5 510.688,-75.5 593.688,-75.5 593.688,-56.5 510.688,-56.5"/>
<text text-anchor="middle" x="552.188" y="-63.5" font-family="Helvetica,sans-Serif" font-size="10.00">unordered_map</text>
</g>
<!-- Node2&#45;&gt;Node5 -->
<g id="edge5" class="edge"><title>Node2&#45;&gt;Node5</title>
<path fill="none" stroke="midnightblue" d="M552.188,-112.083C552.188,-105.006 552.188,-94.8611 552.188,-85.9865"/>
<polygon fill="midnightblue" stroke="midnightblue" points="555.689,-85.751 552.188,-75.7511 548.689,-85.7511 555.689,-85.751"/>
</g>
<!-- Node6 -->
<g id="node7" class="node"><title>Node6</title>
<polygon fill="none" stroke="#bfbfbf" points="440.188,-56.5 440.188,-75.5 492.188,-75.5 492.188,-56.5 440.188,-56.5"/>
<text text-anchor="middle" x="466.188" y="-63.5" font-family="Helvetica,sans-Serif" font-size="10.00">memory</text>
</g>
<!-- Node2&#45;&gt;Node6 -->
<g id="edge6" class="edge"><title>Node2&#45;&gt;Node6</title>
<path fill="none" stroke="midnightblue" d="M538.371,-112.324C524.956,-103.9 504.364,-90.9709 488.603,-81.0741"/>
<polygon fill="midnightblue" stroke="midnightblue" points="490.302,-78.0081 479.972,-75.6545 486.579,-83.9364 490.302,-78.0081"/>
</g>
<!-- Node7&#45;&gt;Node4 -->
<g id="edge13" class="edge"><title>Node7&#45;&gt;Node4</title>
<path fill="none" stroke="midnightblue" d="M411.937,-112.256C412.048,-98.0602 414.529,-70.1663 431.188,-56 480.703,-13.8948 682.725,-10.3265 762.532,-10.6084"/>
<polygon fill="midnightblue" stroke="midnightblue" points="762.933,-14.1108 772.954,-10.6701 762.975,-7.11088 762.933,-14.1108"/>
</g>
<!-- Node7&#45;&gt;Node6 -->
<g id="edge14" class="edge"><title>Node7&#45;&gt;Node6</title>
<path fill="none" stroke="midnightblue" d="M421.105,-112.083C428.969,-104.22 440.62,-92.5688 450.107,-83.0813"/>
<polygon fill="midnightblue" stroke="midnightblue" points="452.841,-85.2971 457.437,-75.7511 447.891,-80.3473 452.841,-85.2971"/>
</g>
<!-- Node8 -->
<g id="node9" class="node"><title>Node8</title>
<g id="a_node9"><a xlink:href="../../d1/d2e/WrapperVal_8h.xhtml" target="_top" xlink:title="enfield/Support/WrapperVal.h">
<polygon fill="none" stroke="black" points="106.188,-56.5 106.188,-75.5 250.188,-75.5 250.188,-56.5 106.188,-56.5"/>
<text text-anchor="middle" x="178.188" y="-63.5" font-family="Helvetica,sans-Serif" font-size="10.00">enfield/Support/WrapperVal.h</text>
</a>
</g>
</g>
<!-- Node7&#45;&gt;Node8 -->
<g id="edge8" class="edge"><title>Node7&#45;&gt;Node8</title>
<path fill="none" stroke="midnightblue" d="M375.11,-112.444C334.461,-103.063 269.157,-87.9926 225.004,-77.8036"/>
<polygon fill="midnightblue" stroke="midnightblue" points="225.624,-74.3547 215.093,-75.5164 224.05,-81.1755 225.624,-74.3547"/>
</g>
<!-- Node10 -->
<g id="node11" class="node"><title>Node10</title>
<g id="a_node11"><a xlink:href="../../d5/dfc/RTTI_8h.xhtml" target="_top" xlink:title="enfield/Support/RTTI.h">
<polygon fill="none" stroke="black" points="268.188,-56.5 268.188,-75.5 384.188,-75.5 384.188,-56.5 268.188,-56.5"/>
<text text-anchor="middle" x="326.188" y="-63.5" font-family="Helvetica,sans-Serif" font-size="10.00">enfield/Support/RTTI.h</text>
</a>
</g>
</g>
<!-- Node7&#45;&gt;Node10 -->
<g id="edge10" class="edge"><title>Node7&#45;&gt;Node10</title>
<path fill="none" stroke="midnightblue" d="M398.371,-112.324C384.956,-103.9 364.364,-90.9709 348.603,-81.0741"/>
<polygon fill="midnightblue" stroke="midnightblue" points="350.302,-78.0081 339.972,-75.6545 346.579,-83.9364 350.302,-78.0081"/>
</g>
<!-- Node11 -->
<g id="node12" class="node"><title>Node11</title>
<polygon fill="none" stroke="#bfbfbf" points="14.6885,-56.5 14.6885,-75.5 87.6885,-75.5 87.6885,-56.5 14.6885,-56.5"/>
<text text-anchor="middle" x="51.1885" y="-63.5" font-family="Helvetica,sans-Serif" font-size="10.00">initializer_list</text>
</g>
<!-- Node7&#45;&gt;Node11 -->
<g id="edge11" class="edge"><title>Node7&#45;&gt;Node11</title>
<path fill="none" stroke="midnightblue" d="M349.585,-113.02C288.091,-104.962 191.365,-91.7083 97.7422,-76.017"/>
<polygon fill="midnightblue" stroke="midnightblue" points="98.2588,-72.5548 87.8158,-74.3421 97.094,-79.4572 98.2588,-72.5548"/>
</g>
<!-- Node12 -->
<g id="node13" class="node"><title>Node12</title>
<polygon fill="none" stroke="#bfbfbf" points="660.188,-56.5 660.188,-75.5 714.188,-75.5 714.188,-56.5 660.188,-56.5"/>
<text text-anchor="middle" x="687.188" y="-63.5" font-family="Helvetica,sans-Serif" font-size="10.00">iostream</text>
</g>
<!-- Node7&#45;&gt;Node12 -->
<g id="edge12" class="edge"><title>Node7&#45;&gt;Node12</title>
<path fill="none" stroke="midnightblue" d="M462.257,-112.457C508.557,-104.359 579.499,-91.448 650.139,-76.1303"/>
<polygon fill="midnightblue" stroke="midnightblue" points="651.08,-79.5074 660.102,-73.9531 649.585,-72.6687 651.08,-79.5074"/>
</g>
<!-- Node9 -->
<g id="node10" class="node"><title>Node9</title>
<polygon fill="none" stroke="#bfbfbf" points="61.6885,-0.5 61.6885,-19.5 102.688,-19.5 102.688,-0.5 61.6885,-0.5"/>
<text text-anchor="middle" x="82.1885" y="-7.5" font-family="Helvetica,sans-Serif" font-size="10.00">string</text>
</g>
<!-- Node8&#45;&gt;Node9 -->
<g id="edge9" class="edge"><title>Node8&#45;&gt;Node9</title>
<path fill="none" stroke="midnightblue" d="M162.764,-56.324C147.649,-47.8215 124.373,-34.7288 106.717,-24.7975"/>
<polygon fill="midnightblue" stroke="midnightblue" points="108.006,-21.5066 97.5743,-19.6545 104.574,-27.6077 108.006,-21.5066"/>
</g>
<!-- Node13&#45;&gt;Node9 -->
<g id="edge30" class="edge"><title>Node13&#45;&gt;Node9</title>
<path fill="none" stroke="midnightblue" d="M689.915,-170.59C511.48,-152.755 27.3285,-102.148 5.18848,-76 -13.2964,-54.1687 23.247,-33.7074 52.0633,-21.7728"/>
<polygon fill="midnightblue" stroke="midnightblue" points="53.4359,-24.9938 61.449,-18.0626 50.8625,-18.484 53.4359,-24.9938"/>
</g>
<!-- Node13&#45;&gt;Node12 -->
<g id="edge27" class="edge"><title>Node13&#45;&gt;Node12</title>
<path fill="none" stroke="midnightblue" d="M749.853,-168.368C738.68,-150.296 712.643,-108.176 697.888,-84.3074"/>
<polygon fill="midnightblue" stroke="midnightblue" points="700.735,-82.257 692.5,-75.5914 694.781,-85.9378 700.735,-82.257"/>
</g>
<!-- Node13&#45;&gt;Node14 -->
<g id="edge16" class="edge"><title>Node13&#45;&gt;Node14</title>
<path fill="none" stroke="midnightblue" d="M779.59,-168.444C805.385,-159.399 846.265,-145.064 875.206,-134.916"/>
<polygon fill="midnightblue" stroke="midnightblue" points="876.622,-138.128 884.901,-131.516 874.306,-131.523 876.622,-138.128"/>
</g>
<!-- Node15 -->
<g id="node16" class="node"><title>Node15</title>
<g id="a_node16"><a xlink:href="../../d1/d73/Defs_8h.xhtml" target="_top" xlink:title="enfield/Support/Defs.h">
<polygon fill="none" stroke="black" points="1020.19,-56.5 1020.19,-75.5 1134.19,-75.5 1134.19,-56.5 1020.19,-56.5"/>
<text text-anchor="middle" x="1077.19" y="-63.5" font-family="Helvetica,sans-Serif" font-size="10.00">enfield/Support/Defs.h</text>
</a>
</g>
</g>
<!-- Node13&#45;&gt;Node15 -->
<g id="edge26" class="edge"><title>Node13&#45;&gt;Node15</title>
<path fill="none" stroke="midnightblue" d="M820.36,-172.45C868.882,-167.205 935.839,-155.974 990.188,-132 1017.51,-119.948 1044.33,-97.9268 1060.81,-82.8865"/>
<polygon fill="midnightblue" stroke="midnightblue" points="1063.52,-85.1379 1068.43,-75.7474 1058.74,-80.0289 1063.52,-85.1379"/>
</g>
<!-- Node21 -->
<g id="node22" class="node"><title>Node21</title>
<polygon fill="none" stroke="#bfbfbf" points="770.688,-56.5 770.688,-75.5 819.688,-75.5 819.688,-56.5 770.688,-56.5"/>
<text text-anchor="middle" x="795.188" y="-63.5" font-family="Helvetica,sans-Serif" font-size="10.00">cassert</text>
</g>
<!-- Node13&#45;&gt;Node21 -->
<g id="edge31" class="edge"><title>Node13&#45;&gt;Node21</title>
<path fill="none" stroke="midnightblue" d="M757.244,-168.451C760.363,-155.893 766.723,-131.802 774.188,-112 777.61,-102.924 782.08,-93.1351 786.016,-85.012"/>
<polygon fill="midnightblue" stroke="midnightblue" points="789.281,-86.3058 790.597,-75.793 783.012,-83.1907 789.281,-86.3058"/>
</g>
<!-- Node22 -->
<g id="node23" class="node"><title>Node22</title>
<polygon fill="none" stroke="#bfbfbf" points="783.688,-112.5 783.688,-131.5 818.688,-131.5 818.688,-112.5 783.688,-112.5"/>
<text text-anchor="middle" x="801.188" y="-119.5" font-family="Helvetica,sans-Serif" font-size="10.00">map</text>
</g>
<!-- Node13&#45;&gt;Node22 -->
<g id="edge28" class="edge"><title>Node13&#45;&gt;Node22</title>
<path fill="none" stroke="midnightblue" d="M762.784,-168.083C769.416,-160.298 779.209,-148.801 787.247,-139.367"/>
<polygon fill="midnightblue" stroke="midnightblue" points="789.914,-141.633 793.734,-131.751 784.585,-137.094 789.914,-141.633"/>
</g>
<!-- Node23 -->
<g id="node24" class="node"><title>Node23</title>
<polygon fill="none" stroke="#bfbfbf" points="629.688,-112.5 629.688,-131.5 688.688,-131.5 688.688,-112.5 629.688,-112.5"/>
<text text-anchor="middle" x="659.188" y="-119.5" font-family="Helvetica,sans-Serif" font-size="10.00">functional</text>
</g>
<!-- Node13&#45;&gt;Node23 -->
<g id="edge29" class="edge"><title>Node13&#45;&gt;Node23</title>
<path fill="none" stroke="midnightblue" d="M739.764,-168.324C724.649,-159.822 701.373,-146.729 683.717,-136.797"/>
<polygon fill="midnightblue" stroke="midnightblue" points="685.006,-133.507 674.574,-131.655 681.574,-139.608 685.006,-133.507"/>
</g>
<!-- Node14&#45;&gt;Node4 -->
<g id="edge22" class="edge"><title>Node14&#45;&gt;Node4</title>
<path fill="none" stroke="midnightblue" d="M900.243,-112.368C881.097,-93.8941 835.91,-50.2926 811.505,-26.7436"/>
<polygon fill="midnightblue" stroke="midnightblue" points="813.719,-24.0165 804.092,-19.5914 808.858,-29.0538 813.719,-24.0165"/>
</g>
<!-- Node14&#45;&gt;Node15 -->
<g id="edge17" class="edge"><title>Node14&#45;&gt;Node15</title>
<path fill="none" stroke="midnightblue" d="M935.809,-112.444C964.194,-103.32 1009.33,-88.8133 1040.94,-78.6509"/>
<polygon fill="midnightblue" stroke="midnightblue" points="1042.24,-81.9087 1050.69,-75.5164 1040.1,-75.2445 1042.24,-81.9087"/>
</g>
<!-- Node19 -->
<g id="node20" class="node"><title>Node19</title>
<polygon fill="none" stroke="#bfbfbf" points="876.188,-56.5 876.188,-75.5 932.188,-75.5 932.188,-56.5 876.188,-56.5"/>
<text text-anchor="middle" x="904.188" y="-63.5" font-family="Helvetica,sans-Serif" font-size="10.00">algorithm</text>
</g>
<!-- Node14&#45;&gt;Node19 -->
<g id="edge23" class="edge"><title>Node14&#45;&gt;Node19</title>
<path fill="none" stroke="midnightblue" d="M908.363,-112.083C907.708,-105.006 906.768,-94.8611 905.946,-85.9865"/>
<polygon fill="midnightblue" stroke="midnightblue" points="909.406,-85.3858 904.999,-75.7511 902.436,-86.0312 909.406,-85.3858"/>
</g>
<!-- Node20 -->
<g id="node21" class="node"><title>Node20</title>
<polygon fill="none" stroke="#bfbfbf" points="950.688,-56.5 950.688,-75.5 1001.69,-75.5 1001.69,-56.5 950.688,-56.5"/>
<text text-anchor="middle" x="976.188" y="-63.5" font-family="Helvetica,sans-Serif" font-size="10.00">typeinfo</text>
</g>
<!-- Node14&#45;&gt;Node20 -->
<g id="edge24" class="edge"><title>Node14&#45;&gt;Node20</title>
<path fill="none" stroke="midnightblue" d="M919.953,-112.324C929.955,-104.263 945.075,-92.0765 957.119,-82.3695"/>
<polygon fill="midnightblue" stroke="midnightblue" points="959.638,-84.8343 965.228,-75.8339 955.246,-79.3841 959.638,-84.8343"/>
</g>
<!-- Node14&#45;&gt;Node21 -->
<g id="edge25" class="edge"><title>Node14&#45;&gt;Node21</title>
<path fill="none" stroke="midnightblue" d="M891.125,-112.444C872.614,-103.675 843.608,-89.9355 822.333,-79.8579"/>
<polygon fill="midnightblue" stroke="midnightblue" points="823.703,-76.6343 813.168,-75.5164 820.707,-82.9604 823.703,-76.6343"/>
</g>
<!-- Node15&#45;&gt;Node4 -->
<g id="edge18" class="edge"><title>Node15&#45;&gt;Node4</title>
<path fill="none" stroke="midnightblue" d="M1032.5,-56.4435C975.378,-45.5043 877.846,-26.828 827.45,-17.1778"/>
<polygon fill="midnightblue" stroke="midnightblue" points="827.923,-13.7049 817.443,-15.2616 826.607,-20.5799 827.923,-13.7049"/>
</g>
<!-- Node16 -->
<g id="node17" class="node"><title>Node16</title>
<polygon fill="none" stroke="#bfbfbf" points="1121.19,-0.5 1121.19,-19.5 1167.19,-19.5 1167.19,-0.5 1121.19,-0.5"/>
<text text-anchor="middle" x="1144.19" y="-7.5" font-family="Helvetica,sans-Serif" font-size="10.00">cstdint</text>
</g>
<!-- Node15&#45;&gt;Node16 -->
<g id="edge19" class="edge"><title>Node15&#45;&gt;Node16</title>
<path fill="none" stroke="midnightblue" d="M1087.95,-56.324C1097.95,-48.2631 1113.08,-36.0765 1125.12,-26.3695"/>
<polygon fill="midnightblue" stroke="midnightblue" points="1127.64,-28.8343 1133.23,-19.8339 1123.25,-23.3841 1127.64,-28.8343"/>
</g>
<!-- Node17 -->
<g id="node18" class="node"><title>Node17</title>
<polygon fill="none" stroke="#bfbfbf" points="993.188,-0.5 993.188,-19.5 1033.19,-19.5 1033.19,-0.5 993.188,-0.5"/>
<text text-anchor="middle" x="1013.19" y="-7.5" font-family="Helvetica,sans-Serif" font-size="10.00">limits</text>
</g>
<!-- Node15&#45;&gt;Node17 -->
<g id="edge20" class="edge"><title>Node15&#45;&gt;Node17</title>
<path fill="none" stroke="midnightblue" d="M1066.91,-56.324C1057.35,-48.2631 1042.91,-36.0765 1031.4,-26.3695"/>
<polygon fill="midnightblue" stroke="midnightblue" points="1033.56,-23.6076 1023.66,-19.8339 1029.04,-28.9577 1033.56,-23.6076"/>
</g>
<!-- Node18 -->
<g id="node19" class="node"><title>Node18</title>
<polygon fill="none" stroke="#bfbfbf" points="1051.19,-0.5 1051.19,-19.5 1103.19,-19.5 1103.19,-0.5 1051.19,-0.5"/>
<text text-anchor="middle" x="1077.19" y="-7.5" font-family="Helvetica,sans-Serif" font-size="10.00">ostream</text>
</g>
<!-- Node15&#45;&gt;Node18 -->
<g id="edge21" class="edge"><title>Node15&#45;&gt;Node18</title>
<path fill="none" stroke="midnightblue" d="M1077.19,-56.083C1077.19,-49.0059 1077.19,-38.8611 1077.19,-29.9865"/>
<polygon fill="midnightblue" stroke="midnightblue" points="1080.69,-29.751 1077.19,-19.7511 1073.69,-29.7511 1080.69,-29.751"/>
</g>
</g>
</svg>
