<?xml version="1.0" encoding="UTF-8" standalone="no"?>
<!DOCTYPE svg PUBLIC "-//W3C//DTD SVG 1.1//EN"
 "http://www.w3.org/Graphics/SVG/1.1/DTD/svg11.dtd">
<!-- Generated by graphviz version 2.38.0 (20140413.2041)
 -->
<!-- Title: include/enfield/Support/WeightedGraph.h Pages: 1 -->
<svg width="1039pt" height="173pt"
 viewBox="0.00 0.00 1038.50 173.00" xmlns="http://www.w3.org/2000/svg" xmlns:xlink="http://www.w3.org/1999/xlink">
<g id="graph0" class="graph" transform="scale(1 1) rotate(0) translate(4 169)">
<title>include/enfield/Support/WeightedGraph.h</title>
<!-- Node14 -->
<g id="node1" class="node"><title>Node14</title>
<polygon fill="#bfbfbf" stroke="black" points="444.5,-134.5 444.5,-164.5 560.5,-164.5 560.5,-134.5 444.5,-134.5"/>
<text text-anchor="start" x="452.5" y="-152.5" font-family="Helvetica,sans-Serif" font-size="10.00">include/enfield/Support</text>
<text text-anchor="middle" x="502.5" y="-141.5" font-family="Helvetica,sans-Serif" font-size="10.00">/WeightedGraph.h</text>
</g>
<!-- Node15 -->
<g id="node2" class="node"><title>Node15</title>
<g id="a_node2"><a xlink:href="../../dd/d0b/ApproxTSFinder_8cpp.xhtml" target="_top" xlink:title="lib/Support/ApproxTSFinder.cpp">
<polygon fill="none" stroke="black" points="0,-73 0,-92 155,-92 155,-73 0,-73"/>
<text text-anchor="middle" x="77.5" y="-80" font-family="Helvetica,sans-Serif" font-size="10.00">lib/Support/ApproxTSFinder.cpp</text>
</a>
</g>
</g>
<!-- Node14&#45;&gt;Node15 -->
<g id="edge1" class="edge"><title>Node14&#45;&gt;Node15</title>
<path fill="none" stroke="midnightblue" d="M434.242,-138.646C365.936,-128.704 257.87,-112.755 164.5,-98 152.551,-96.1118 139.692,-94.0081 127.623,-92.0018"/>
<polygon fill="midnightblue" stroke="midnightblue" points="434.04,-142.153 444.44,-140.129 435.047,-135.226 434.04,-142.153"/>
</g>
<!-- Node16 -->
<g id="node3" class="node"><title>Node16</title>
<g id="a_node3"><a xlink:href="../../d3/d1b/WeightedSIMappingFinder_8h.xhtml" target="_top" xlink:title="include/enfield/Transform\l/Allocators/WeightedSIMappingFinder.h">
<polygon fill="none" stroke="black" points="308,-67.5 308,-97.5 497,-97.5 497,-67.5 308,-67.5"/>
<text text-anchor="start" x="316" y="-85.5" font-family="Helvetica,sans-Serif" font-size="10.00">include/enfield/Transform</text>
<text text-anchor="middle" x="402.5" y="-74.5" font-family="Helvetica,sans-Serif" font-size="10.00">/Allocators/WeightedSIMappingFinder.h</text>
</a>
</g>
</g>
<!-- Node14&#45;&gt;Node16 -->
<g id="edge2" class="edge"><title>Node14&#45;&gt;Node16</title>
<path fill="none" stroke="midnightblue" d="M472.09,-128.734C456.616,-118.676 438.169,-106.685 424.156,-97.5765"/>
<polygon fill="midnightblue" stroke="midnightblue" points="470.51,-131.881 480.801,-134.396 474.325,-126.011 470.51,-131.881"/>
</g>
<!-- Node20 -->
<g id="node7" class="node"><title>Node20</title>
<g id="a_node7"><a xlink:href="../../da/d43/RandomMappingFinder_8h.xhtml" target="_top" xlink:title="include/enfield/Transform\l/Allocators/RandomMappingFinder.h">
<polygon fill="none" stroke="black" points="515,-67.5 515,-97.5 690,-97.5 690,-67.5 515,-67.5"/>
<text text-anchor="start" x="523" y="-85.5" font-family="Helvetica,sans-Serif" font-size="10.00">include/enfield/Transform</text>
<text text-anchor="middle" x="602.5" y="-74.5" font-family="Helvetica,sans-Serif" font-size="10.00">/Allocators/RandomMappingFinder.h</text>
</a>
</g>
</g>
<!-- Node14&#45;&gt;Node20 -->
<g id="edge6" class="edge"><title>Node14&#45;&gt;Node20</title>
<path fill="none" stroke="midnightblue" d="M532.91,-128.734C548.384,-118.676 566.831,-106.685 580.844,-97.5765"/>
<polygon fill="midnightblue" stroke="midnightblue" points="530.675,-126.011 524.199,-134.396 534.49,-131.881 530.675,-126.011"/>
</g>
<!-- Node22 -->
<g id="node9" class="node"><title>Node22</title>
<g id="a_node9"><a xlink:href="../../da/dd9/WeightedSIFinder_8h.xhtml" target="_top" xlink:title="include/enfield/Support\l/WeightedSIFinder.h">
<polygon fill="none" stroke="black" points="173.5,-67.5 173.5,-97.5 289.5,-97.5 289.5,-67.5 173.5,-67.5"/>
<text text-anchor="start" x="181.5" y="-85.5" font-family="Helvetica,sans-Serif" font-size="10.00">include/enfield/Support</text>
<text text-anchor="middle" x="231.5" y="-74.5" font-family="Helvetica,sans-Serif" font-size="10.00">/WeightedSIFinder.h</text>
</a>
</g>
</g>
<!-- Node14&#45;&gt;Node22 -->
<g id="edge9" class="edge"><title>Node14&#45;&gt;Node22</title>
<path fill="none" stroke="midnightblue" d="M434.469,-132.183C389.811,-121.471 332.026,-107.611 289.54,-97.4211"/>
<polygon fill="midnightblue" stroke="midnightblue" points="433.823,-135.627 444.364,-134.556 435.456,-128.82 433.823,-135.627"/>
</g>
<!-- Node23 -->
<g id="node10" class="node"><title>Node23</title>
<g id="a_node10"><a xlink:href="../../d9/d58/DependencyGraphBuilderPass_8h.xhtml" target="_top" xlink:title="include/enfield/Transform\l/DependencyGraphBuilderPass.h">
<polygon fill="none" stroke="black" points="732,-67.5 732,-97.5 893,-97.5 893,-67.5 732,-67.5"/>
<text text-anchor="start" x="740" y="-85.5" font-family="Helvetica,sans-Serif" font-size="10.00">include/enfield/Transform</text>
<text text-anchor="middle" x="812.5" y="-74.5" font-family="Helvetica,sans-Serif" font-size="10.00">/DependencyGraphBuilderPass.h</text>
</a>
</g>
</g>
<!-- Node14&#45;&gt;Node23 -->
<g id="edge11" class="edge"><title>Node14&#45;&gt;Node23</title>
<path fill="none" stroke="midnightblue" d="M570.611,-134.219C622.605,-123.317 693.868,-108.375 745.567,-97.5343"/>
<polygon fill="midnightblue" stroke="midnightblue" points="569.878,-130.796 560.809,-136.274 571.314,-137.647 569.878,-130.796"/>
</g>
<!-- Node26 -->
<g id="node13" class="node"><title>Node26</title>
<g id="a_node13"><a xlink:href="../../d4/dd0/DijkstraPathFinder_8h.xhtml" target="_top" xlink:title="include/enfield/Support\l/DijkstraPathFinder.h">
<polygon fill="none" stroke="black" points="911.5,-67.5 911.5,-97.5 1027.5,-97.5 1027.5,-67.5 911.5,-67.5"/>
<text text-anchor="start" x="919.5" y="-85.5" font-family="Helvetica,sans-Serif" font-size="10.00">include/enfield/Support</text>
<text text-anchor="middle" x="969.5" y="-74.5" font-family="Helvetica,sans-Serif" font-size="10.00">/DijkstraPathFinder.h</text>
</a>
</g>
</g>
<!-- Node14&#45;&gt;Node26 -->
<g id="edge14" class="edge"><title>Node14&#45;&gt;Node26</title>
<path fill="none" stroke="midnightblue" d="M571.112,-141.685C651,-133.323 786.783,-117.787 902.5,-98 905.433,-97.4985 908.432,-96.9567 911.456,-96.3872"/>
<polygon fill="midnightblue" stroke="midnightblue" points="570.282,-138.252 560.697,-142.768 571.005,-145.215 570.282,-138.252"/>
</g>
<!-- Node17 -->
<g id="node4" class="node"><title>Node17</title>
<g id="a_node4"><a xlink:href="../../dc/dea/Allocators_8cpp.xhtml" target="_top" xlink:title="lib/Transform/Allocators\l/Allocators.cpp">
<polygon fill="none" stroke="black" points="463.5,-0.5 463.5,-30.5 583.5,-30.5 583.5,-0.5 463.5,-0.5"/>
<text text-anchor="start" x="471.5" y="-18.5" font-family="Helvetica,sans-Serif" font-size="10.00">lib/Transform/Allocators</text>
<text text-anchor="middle" x="523.5" y="-7.5" font-family="Helvetica,sans-Serif" font-size="10.00">/Allocators.cpp</text>
</a>
</g>
</g>
<!-- Node16&#45;&gt;Node17 -->
<g id="edge3" class="edge"><title>Node16&#45;&gt;Node17</title>
<path fill="none" stroke="midnightblue" d="M437.73,-62.575C456.763,-52.3502 479.865,-39.94 497.296,-30.5765"/>
<polygon fill="midnightblue" stroke="midnightblue" points="435.908,-59.5803 428.755,-67.396 439.221,-65.7469 435.908,-59.5803"/>
</g>
<!-- Node18 -->
<g id="node5" class="node"><title>Node18</title>
<g id="a_node5"><a xlink:href="../../d4/dd0/GreedyCktQAllocator_8cpp.xhtml" target="_top" xlink:title="lib/Transform/Allocators\l/GreedyCktQAllocator.cpp">
<polygon fill="none" stroke="black" points="314,-0.5 314,-30.5 445,-30.5 445,-0.5 314,-0.5"/>
<text text-anchor="start" x="322" y="-18.5" font-family="Helvetica,sans-Serif" font-size="10.00">lib/Transform/Allocators</text>
<text text-anchor="middle" x="379.5" y="-7.5" font-family="Helvetica,sans-Serif" font-size="10.00">/GreedyCktQAllocator.cpp</text>
</a>
</g>
</g>
<!-- Node16&#45;&gt;Node18 -->
<g id="edge4" class="edge"><title>Node16&#45;&gt;Node18</title>
<path fill="none" stroke="midnightblue" d="M394.077,-57.6971C390.854,-48.5871 387.282,-38.4929 384.481,-30.5765"/>
<polygon fill="midnightblue" stroke="midnightblue" points="390.874,-59.1363 397.509,-67.396 397.473,-56.8012 390.874,-59.1363"/>
</g>
<!-- Node19 -->
<g id="node6" class="node"><title>Node19</title>
<g id="a_node6"><a xlink:href="../../d9/ddd/WeightedSIMappingFinder_8cpp.xhtml" target="_top" xlink:title="lib/Transform/Allocators\l/WeightedSIMappingFinder.cpp">
<polygon fill="none" stroke="black" points="143,-0.5 143,-30.5 296,-30.5 296,-0.5 143,-0.5"/>
<text text-anchor="start" x="151" y="-18.5" font-family="Helvetica,sans-Serif" font-size="10.00">lib/Transform/Allocators</text>
<text text-anchor="middle" x="219.5" y="-7.5" font-family="Helvetica,sans-Serif" font-size="10.00">/WeightedSIMappingFinder.cpp</text>
</a>
</g>
</g>
<!-- Node16&#45;&gt;Node19 -->
<g id="edge5" class="edge"><title>Node16&#45;&gt;Node19</title>
<path fill="none" stroke="midnightblue" d="M353.105,-63.9553C323.626,-53.4847 286.691,-40.3656 259.131,-30.5765"/>
<polygon fill="midnightblue" stroke="midnightblue" points="352.197,-67.347 362.792,-67.396 354.54,-60.7507 352.197,-67.347"/>
</g>
<!-- Node20&#45;&gt;Node17 -->
<g id="edge7" class="edge"><title>Node20&#45;&gt;Node17</title>
<path fill="none" stroke="midnightblue" d="M577.443,-60.8832C565.437,-51.0054 551.368,-39.4293 540.608,-30.5765"/>
<polygon fill="midnightblue" stroke="midnightblue" points="575.412,-63.745 585.358,-67.396 579.86,-58.3395 575.412,-63.745"/>
</g>
<!-- Node21 -->
<g id="node8" class="node"><title>Node21</title>
<g id="a_node8"><a xlink:href="../../d2/dd0/RandomMappingFinder_8cpp.xhtml" target="_top" xlink:title="lib/Transform/Allocators\l/RandomMappingFinder.cpp">
<polygon fill="none" stroke="black" points="602,-0.5 602,-30.5 741,-30.5 741,-0.5 602,-0.5"/>
<text text-anchor="start" x="610" y="-18.5" font-family="Helvetica,sans-Serif" font-size="10.00">lib/Transform/Allocators</text>
<text text-anchor="middle" x="671.5" y="-7.5" font-family="Helvetica,sans-Serif" font-size="10.00">/RandomMappingFinder.cpp</text>
</a>
</g>
</g>
<!-- Node20&#45;&gt;Node21 -->
<g id="edge8" class="edge"><title>Node20&#45;&gt;Node21</title>
<path fill="none" stroke="midnightblue" d="M624.992,-60.3115C635.343,-50.5612 647.34,-39.259 656.557,-30.5765"/>
<polygon fill="midnightblue" stroke="midnightblue" points="622.351,-57.9914 617.472,-67.396 627.151,-63.0866 622.351,-57.9914"/>
</g>
<!-- Node22&#45;&gt;Node19 -->
<g id="edge10" class="edge"><title>Node22&#45;&gt;Node19</title>
<path fill="none" stroke="midnightblue" d="M227.051,-57.4029C225.384,-48.3703 223.545,-38.4078 222.099,-30.5765"/>
<polygon fill="midnightblue" stroke="midnightblue" points="223.639,-58.1976 228.896,-67.396 230.522,-56.9267 223.639,-58.1976"/>
</g>
<!-- Node24 -->
<g id="node11" class="node"><title>Node24</title>
<g id="a_node11"><a xlink:href="../../dd/dcb/DependencyGraphBuilderPass_8cpp.xhtml" target="_top" xlink:title="lib/Transform/Dependency\lGraphBuilderPass.cpp">
<polygon fill="none" stroke="black" points="759,-0.5 759,-30.5 890,-30.5 890,-0.5 759,-0.5"/>
<text text-anchor="start" x="767" y="-18.5" font-family="Helvetica,sans-Serif" font-size="10.00">lib/Transform/Dependency</text>
<text text-anchor="middle" x="824.5" y="-7.5" font-family="Helvetica,sans-Serif" font-size="10.00">GraphBuilderPass.cpp</text>
</a>
</g>
</g>
<!-- Node23&#45;&gt;Node24 -->
<g id="edge12" class="edge"><title>Node23&#45;&gt;Node24</title>
<path fill="none" stroke="midnightblue" d="M816.949,-57.4029C818.616,-48.3703 820.455,-38.4078 821.901,-30.5765"/>
<polygon fill="midnightblue" stroke="midnightblue" points="813.478,-56.9267 815.104,-67.396 820.361,-58.1976 813.478,-56.9267"/>
</g>
<!-- Node25 -->
<g id="node12" class="node"><title>Node25</title>
<g id="a_node12"><a xlink:href="../../df/dd9/Driver_8cpp.xhtml" target="_top" xlink:title="lib/Transform/Driver.cpp">
<polygon fill="none" stroke="black" points="908.5,-6 908.5,-25 1030.5,-25 1030.5,-6 908.5,-6"/>
<text text-anchor="middle" x="969.5" y="-13" font-family="Helvetica,sans-Serif" font-size="10.00">lib/Transform/Driver.cpp</text>
</a>
</g>
</g>
<!-- Node23&#45;&gt;Node25 -->
<g id="edge13" class="edge"><title>Node23&#45;&gt;Node25</title>
<path fill="none" stroke="midnightblue" d="M856.077,-63.4585C886.411,-50.9001 925.482,-34.724 948.952,-25.007"/>
<polygon fill="midnightblue" stroke="midnightblue" points="854.467,-60.3368 846.567,-67.396 857.145,-66.8045 854.467,-60.3368"/>
</g>
</g>
</svg>
