<?xml version="1.0" encoding="UTF-8" standalone="no"?>
<!DOCTYPE svg PUBLIC "-//W3C//DTD SVG 1.1//EN"
 "http://www.w3.org/Graphics/SVG/1.1/DTD/svg11.dtd">
<!-- Generated by graphviz version 2.40.1 (20161225.0304)
 -->
<!-- Title: include/enfield/Support/WeightedGraph.h Pages: 1 -->
<!--zoomable 184 -->
<svg id="main" version="1.1" xmlns="http://www.w3.org/2000/svg" xmlns:xlink="http://www.w3.org/1999/xlink" xml:space="preserve" onload="init(evt)">
<style type="text/css"><![CDATA[
.edge:hover path { stroke: red; }
.edge:hover polygon { stroke: red; fill: red; }
]]></style>
<script type="text/javascript"><![CDATA[
var edges = document.getElementsByTagName('g');
if (edges && edges.length) {
  for (var i=0;i<edges.length;i++) {
    if (edges[i].id.substr(0,4)=='edge') {
      edges[i].setAttribute('class','edge');
    }
  }
}
]]></script>
        <defs>
                <circle id="rim" cx="0" cy="0" r="7"/>
                <circle id="rim2" cx="0" cy="0" r="3.5"/>
                <g id="zoomPlus">
                        <use xlink:href="#rim" fill="#404040">
                                <set attributeName="fill" to="#808080" begin="zoomplus.mouseover" end="zoomplus.mouseout"/>
                        </use>
                        <path d="M-4,0h8M0,-4v8" fill="none" stroke="white" stroke-width="1.5" pointer-events="none"/>
                </g>
                <g id="zoomMin">
                        <use xlink:href="#rim" fill="#404040">
                                <set attributeName="fill" to="#808080" begin="zoomminus.mouseover" end="zoomminus.mouseout"/>
                        </use>
                        <path d="M-4,0h8" fill="none" stroke="white" stroke-width="1.5" pointer-events="none"/>
                </g>
                <g id="dirArrow">
                        <path fill="none" stroke="white" stroke-width="1.5" d="M0,-3.0v7 M-2.5,-0.5L0,-3.0L2.5,-0.5"/>
                </g>
               <g id="resetDef">
                       <use xlink:href="#rim2" fill="#404040">
                               <set attributeName="fill" to="#808080" begin="reset.mouseover" end="reset.mouseout"/>
                       </use>
               </g>
        </defs>

<script type="text/javascript">
var viewWidth = 1166;
var viewHeight = 184;
var sectionId = 'dynsection-1';
</script>
<script xlink:href="../../svgpan.js"/>
<svg id="graph" class="graph">
<g id="viewport">
<title>include/enfield/Support/WeightedGraph.h</title>
<!-- Node13 -->
<g id="node1" class="node">
<title>Node13</title>
<polygon fill="#bfbfbf" stroke="#000000" points="480,-145.5 480,-175.5 609,-175.5 609,-145.5 480,-145.5"/>
<text text-anchor="start" x="488" y="-163.5" font-family="Helvetica,sans-Serif" font-size="10.00" fill="#000000">include/enfield/Support</text>
<text text-anchor="middle" x="544.5" y="-152.5" font-family="Helvetica,sans-Serif" font-size="10.00" fill="#000000">/WeightedGraph.h</text>
</g>
<!-- Node14 -->
<g id="node2" class="node">
<title>Node14</title>
<g id="a_node2"><a xlink:href="../../dd/d0b/ApproxTSFinder_8cpp.xhtml" target="_top" xlink:title="lib/Support/ApproxTSFinder.cpp">
<polygon fill="none" stroke="#000000" points="0,-78.5 0,-97.5 169,-97.5 169,-78.5 0,-78.5"/>
<text text-anchor="middle" x="84.5" y="-85.5" font-family="Helvetica,sans-Serif" font-size="10.00" fill="#000000">lib/Support/ApproxTSFinder.cpp</text>
</a>
</g>
</g>
<!-- Node13&#45;&gt;Node14 -->
<g id="edge1" class="edge">
<title>Node13&#45;&gt;Node14</title>
<path fill="none" stroke="#191970" d="M469.7313,-151.8459C395.3644,-142.8067 278.1463,-127.3925 177.5,-109 159.589,-105.7269 139.8996,-101.3893 123.267,-97.5064"/>
<polygon fill="#191970" stroke="#191970" points="469.5865,-155.3538 479.9342,-153.0787 470.4263,-148.4043 469.5865,-155.3538"/>
</g>
<!-- Node15 -->
<g id="node3" class="node">
<title>Node15</title>
<g id="a_node3"><a xlink:href="../../d3/d1b/WeightedSIMappingFinder_8h.xhtml" target="_top" xlink:title="include/enfield/Transform\l/Allocators/Simple/WeightedSIMapping\lFinder.h">
<polygon fill="none" stroke="#000000" points="334,-67.5 334,-108.5 539,-108.5 539,-67.5 334,-67.5"/>
<text text-anchor="start" x="342" y="-96.5" font-family="Helvetica,sans-Serif" font-size="10.00" fill="#000000">include/enfield/Transform</text>
<text text-anchor="start" x="342" y="-85.5" font-family="Helvetica,sans-Serif" font-size="10.00" fill="#000000">/Allocators/Simple/WeightedSIMapping</text>
<text text-anchor="middle" x="436.5" y="-74.5" font-family="Helvetica,sans-Serif" font-size="10.00" fill="#000000">Finder.h</text>
</a>
</g>
</g>
<!-- Node13&#45;&gt;Node15 -->
<g id="edge2" class="edge">
<title>Node13&#45;&gt;Node15</title>
<path fill="none" stroke="#191970" d="M513.4496,-139.656C498.8719,-129.87 481.5529,-118.2439 467.0402,-108.5015"/>
<polygon fill="#191970" stroke="#191970" points="511.8688,-142.8103 522.1223,-145.478 515.7704,-136.9984 511.8688,-142.8103"/>
</g>
<!-- Node19 -->
<g id="node7" class="node">
<title>Node19</title>
<g id="a_node7"><a xlink:href="../../da/d43/RandomMappingFinder_8h.xhtml" target="_top" xlink:title="include/enfield/Transform\l/Allocators/Simple/RandomMapping\lFinder.h">
<polygon fill="none" stroke="#000000" points="557.5,-67.5 557.5,-108.5 747.5,-108.5 747.5,-67.5 557.5,-67.5"/>
<text text-anchor="start" x="565.5" y="-96.5" font-family="Helvetica,sans-Serif" font-size="10.00" fill="#000000">include/enfield/Transform</text>
<text text-anchor="start" x="565.5" y="-85.5" font-family="Helvetica,sans-Serif" font-size="10.00" fill="#000000">/Allocators/Simple/RandomMapping</text>
<text text-anchor="middle" x="652.5" y="-74.5" font-family="Helvetica,sans-Serif" font-size="10.00" fill="#000000">Finder.h</text>
</a>
</g>
</g>
<!-- Node13&#45;&gt;Node19 -->
<g id="edge6" class="edge">
<title>Node13&#45;&gt;Node19</title>
<path fill="none" stroke="#191970" d="M575.5504,-139.656C590.1281,-129.87 607.4471,-118.2439 621.9598,-108.5015"/>
<polygon fill="#191970" stroke="#191970" points="573.2296,-136.9984 566.8777,-145.478 577.1312,-142.8103 573.2296,-136.9984"/>
</g>
<!-- Node21 -->
<g id="node9" class="node">
<title>Node21</title>
<g id="a_node9"><a xlink:href="../../da/dd9/WeightedSIFinder_8h.xhtml" target="_top" xlink:title="include/enfield/Support\l/WeightedSIFinder.h">
<polygon fill="none" stroke="#000000" points="187,-73 187,-103 316,-103 316,-73 187,-73"/>
<text text-anchor="start" x="195" y="-91" font-family="Helvetica,sans-Serif" font-size="10.00" fill="#000000">include/enfield/Support</text>
<text text-anchor="middle" x="251.5" y="-80" font-family="Helvetica,sans-Serif" font-size="10.00" fill="#000000">/WeightedSIFinder.h</text>
</a>
</g>
</g>
<!-- Node13&#45;&gt;Node21 -->
<g id="edge9" class="edge">
<title>Node13&#45;&gt;Node21</title>
<path fill="none" stroke="#191970" d="M470.0338,-144.0448C427.3131,-134.3607 372.7448,-121.5777 324.5,-109 317.3538,-107.1369 309.8409,-105.0841 302.4637,-103.0136"/>
<polygon fill="#191970" stroke="#191970" points="469.2672,-147.4597 479.7927,-146.2498 470.81,-140.6318 469.2672,-147.4597"/>
</g>
<!-- Node22 -->
<g id="node10" class="node">
<title>Node22</title>
<g id="a_node10"><a xlink:href="../../d9/d58/DependencyGraphBuilderPass_8h.xhtml" target="_top" xlink:title="include/enfield/Transform\l/DependencyGraphBuilderPass.h">
<polygon fill="none" stroke="#000000" points="817.5,-73 817.5,-103 993.5,-103 993.5,-73 817.5,-73"/>
<text text-anchor="start" x="825.5" y="-91" font-family="Helvetica,sans-Serif" font-size="10.00" fill="#000000">include/enfield/Transform</text>
<text text-anchor="middle" x="905.5" y="-80" font-family="Helvetica,sans-Serif" font-size="10.00" fill="#000000">/DependencyGraphBuilderPass.h</text>
</a>
</g>
</g>
<!-- Node13&#45;&gt;Node22 -->
<g id="edge11" class="edge">
<title>Node13&#45;&gt;Node22</title>
<path fill="none" stroke="#191970" d="M619.13,-145.512C681.0318,-133.0802 768.6275,-115.4882 830.603,-103.0416"/>
<polygon fill="#191970" stroke="#191970" points="618.1546,-142.1379 609.0396,-147.5385 619.533,-149.0009 618.1546,-142.1379"/>
</g>
<!-- Node25 -->
<g id="node13" class="node">
<title>Node25</title>
<g id="a_node13"><a xlink:href="../../d4/dd0/DijkstraPathFinder_8h.xhtml" target="_top" xlink:title="include/enfield/Support\l/DijkstraPathFinder.h">
<polygon fill="none" stroke="#000000" points="1012,-73 1012,-103 1141,-103 1141,-73 1012,-73"/>
<text text-anchor="start" x="1020" y="-91" font-family="Helvetica,sans-Serif" font-size="10.00" fill="#000000">include/enfield/Support</text>
<text text-anchor="middle" x="1076.5" y="-80" font-family="Helvetica,sans-Serif" font-size="10.00" fill="#000000">/DijkstraPathFinder.h</text>
</a>
</g>
</g>
<!-- Node13&#45;&gt;Node25 -->
<g id="edge14" class="edge">
<title>Node13&#45;&gt;Node25</title>
<path fill="none" stroke="#191970" d="M619.3401,-155.8803C710.5029,-149.3831 868.8827,-135.2858 1002.5,-109 1010.7551,-107.376 1019.4288,-105.2795 1027.815,-103.0414"/>
<polygon fill="#191970" stroke="#191970" points="618.8354,-152.407 609.1047,-156.5979 619.3251,-159.3898 618.8354,-152.407"/>
</g>
<!-- Node16 -->
<g id="node4" class="node">
<title>Node16</title>
<g id="a_node4"><a xlink:href="../../dc/dea/Allocators_8cpp.xhtml" target="_top" xlink:title="lib/Transform/Allocators\l/Allocators.cpp">
<polygon fill="none" stroke="#000000" points="500.5,-.5 500.5,-30.5 634.5,-30.5 634.5,-.5 500.5,-.5"/>
<text text-anchor="start" x="508.5" y="-18.5" font-family="Helvetica,sans-Serif" font-size="10.00" fill="#000000">lib/Transform/Allocators</text>
<text text-anchor="middle" x="567.5" y="-7.5" font-family="Helvetica,sans-Serif" font-size="10.00" fill="#000000">/Allocators.cpp</text>
</a>
</g>
</g>
<!-- Node15&#45;&gt;Node16 -->
<g id="edge3" class="edge">
<title>Node15&#45;&gt;Node16</title>
<path fill="none" stroke="#191970" d="M482.6205,-62.4753C501.8708,-51.8215 523.5753,-39.8095 540.2175,-30.5991"/>
<polygon fill="#191970" stroke="#191970" points="480.7436,-59.5137 473.6889,-67.4183 484.1332,-65.6383 480.7436,-59.5137"/>
</g>
<!-- Node17 -->
<g id="node5" class="node">
<title>Node17</title>
<g id="a_node5"><a xlink:href="../../d4/dd0/GreedyCktQAllocator_8cpp.xhtml" target="_top" xlink:title="lib/Transform/Allocators\l/GreedyCktQAllocator.cpp">
<polygon fill="none" stroke="#000000" points="339,-.5 339,-30.5 482,-30.5 482,-.5 339,-.5"/>
<text text-anchor="start" x="347" y="-18.5" font-family="Helvetica,sans-Serif" font-size="10.00" fill="#000000">lib/Transform/Allocators</text>
<text text-anchor="middle" x="410.5" y="-7.5" font-family="Helvetica,sans-Serif" font-size="10.00" fill="#000000">/GreedyCktQAllocator.cpp</text>
</a>
</g>
</g>
<!-- Node15&#45;&gt;Node17 -->
<g id="edge4" class="edge">
<title>Node15&#45;&gt;Node17</title>
<path fill="none" stroke="#191970" d="M425.7139,-57.9233C422.3369,-48.5067 418.7546,-38.5175 415.9149,-30.5991"/>
<polygon fill="#191970" stroke="#191970" points="422.4487,-59.1868 429.119,-67.4183 429.0378,-56.8238 422.4487,-59.1868"/>
</g>
<!-- Node18 -->
<g id="node6" class="node">
<title>Node18</title>
<g id="a_node6"><a xlink:href="../../d9/ddd/WeightedSIMappingFinder_8cpp.xhtml" target="_top" xlink:title="lib/Transform/Allocators\l/Simple/WeightedSIMappingFinder.cpp">
<polygon fill="none" stroke="#000000" points="118,-.5 118,-30.5 321,-30.5 321,-.5 118,-.5"/>
<text text-anchor="start" x="126" y="-18.5" font-family="Helvetica,sans-Serif" font-size="10.00" fill="#000000">lib/Transform/Allocators</text>
<text text-anchor="middle" x="219.5" y="-7.5" font-family="Helvetica,sans-Serif" font-size="10.00" fill="#000000">/Simple/WeightedSIMappingFinder.cpp</text>
</a>
</g>
</g>
<!-- Node15&#45;&gt;Node18 -->
<g id="edge5" class="edge">
<title>Node15&#45;&gt;Node18</title>
<path fill="none" stroke="#191970" d="M365.2584,-64.1981C332.1432,-53.1343 293.7576,-40.3096 264.6932,-30.5991"/>
<polygon fill="#191970" stroke="#191970" points="364.3032,-67.5691 374.897,-67.4183 366.5214,-60.9298 364.3032,-67.5691"/>
</g>
<!-- Node19&#45;&gt;Node16 -->
<g id="edge7" class="edge">
<title>Node19&#45;&gt;Node16</title>
<path fill="none" stroke="#191970" d="M620.6981,-60.8749C608.6901,-50.6327 595.4633,-39.351 585.2024,-30.5991"/>
<polygon fill="#191970" stroke="#191970" points="618.4901,-63.5918 628.3698,-67.4183 623.0327,-58.2659 618.4901,-63.5918"/>
</g>
<!-- Node20 -->
<g id="node8" class="node">
<title>Node20</title>
<g id="a_node8"><a xlink:href="../../d2/dd0/RandomMappingFinder_8cpp.xhtml" target="_top" xlink:title="lib/Transform/Allocators\l/Simple/RandomMappingFinder.cpp">
<polygon fill="none" stroke="#000000" points="652.5,-.5 652.5,-30.5 840.5,-30.5 840.5,-.5 652.5,-.5"/>
<text text-anchor="start" x="660.5" y="-18.5" font-family="Helvetica,sans-Serif" font-size="10.00" fill="#000000">lib/Transform/Allocators</text>
<text text-anchor="middle" x="746.5" y="-7.5" font-family="Helvetica,sans-Serif" font-size="10.00" fill="#000000">/Simple/RandomMappingFinder.cpp</text>
</a>
</g>
</g>
<!-- Node19&#45;&gt;Node20 -->
<g id="edge8" class="edge">
<title>Node19&#45;&gt;Node20</title>
<path fill="none" stroke="#191970" d="M687.2901,-61.1672C700.6697,-50.8478 715.4678,-39.4344 726.9232,-30.5991"/>
<polygon fill="#191970" stroke="#191970" points="684.9661,-58.5396 679.1852,-67.4183 689.2412,-64.0825 684.9661,-58.5396"/>
</g>
<!-- Node21&#45;&gt;Node18 -->
<g id="edge10" class="edge">
<title>Node21&#45;&gt;Node18</title>
<path fill="none" stroke="#191970" d="M240.6919,-63.5128C235.8623,-52.5709 230.3249,-40.0252 226.1219,-30.5028"/>
<polygon fill="#191970" stroke="#191970" points="237.6296,-65.2428 244.8696,-72.978 244.0335,-62.4161 237.6296,-65.2428"/>
</g>
<!-- Node23 -->
<g id="node11" class="node">
<title>Node23</title>
<g id="a_node11"><a xlink:href="../../dd/dcb/DependencyGraphBuilderPass_8cpp.xhtml" target="_top" xlink:title="lib/Transform/Dependency\lGraphBuilderPass.cpp">
<polygon fill="none" stroke="#000000" points="858.5,-.5 858.5,-30.5 1004.5,-30.5 1004.5,-.5 858.5,-.5"/>
<text text-anchor="start" x="866.5" y="-18.5" font-family="Helvetica,sans-Serif" font-size="10.00" fill="#000000">lib/Transform/Dependency</text>
<text text-anchor="middle" x="931.5" y="-7.5" font-family="Helvetica,sans-Serif" font-size="10.00" fill="#000000">GraphBuilderPass.cpp</text>
</a>
</g>
</g>
<!-- Node22&#45;&gt;Node23 -->
<g id="edge12" class="edge">
<title>Node22&#45;&gt;Node23</title>
<path fill="none" stroke="#191970" d="M914.2816,-63.5128C918.2056,-52.5709 922.7047,-40.0252 926.1197,-30.5028"/>
<polygon fill="#191970" stroke="#191970" points="910.9684,-62.3834 910.8872,-72.978 917.5575,-64.7465 910.9684,-62.3834"/>
</g>
<!-- Node24 -->
<g id="node12" class="node">
<title>Node24</title>
<g id="a_node12"><a xlink:href="../../df/dd9/Driver_8cpp.xhtml" target="_top" xlink:title="lib/Transform/Driver.cpp">
<polygon fill="none" stroke="#000000" points="1023,-6 1023,-25 1158,-25 1158,-6 1023,-6"/>
<text text-anchor="middle" x="1090.5" y="-13" font-family="Helvetica,sans-Serif" font-size="10.00" fill="#000000">lib/Transform/Driver.cpp</text>
</a>
</g>
</g>
<!-- Node22&#45;&gt;Node24 -->
<g id="edge13" class="edge">
<title>Node22&#45;&gt;Node24</title>
<path fill="none" stroke="#191970" d="M953.2025,-69.3058C989.3122,-55.1547 1037.4293,-36.298 1066.0632,-25.0766"/>
<polygon fill="#191970" stroke="#191970" points="951.8656,-66.0705 943.8321,-72.978 954.4198,-72.5879 951.8656,-66.0705"/>
</g>
</g>
</svg>
        <g id="navigator" transform="translate(0 0)" fill="#404254">
                <rect fill="#f2f5e9" fill-opacity="0.5" stroke="#606060" stroke-width=".5" x="0" y="0" width="60" height="60"/>
                <use id="zoomplus" xlink:href="#zoomPlus" x="17" y="9" onmousedown="handleZoom(evt,'in')"/>
                <use id="zoomminus" xlink:href="#zoomMin" x="42" y="9" onmousedown="handleZoom(evt,'out')"/>
                <use id="reset" xlink:href="#resetDef" x="30" y="36" onmousedown="handleReset()"/>
                <g id="arrowUp" xlink:href="#dirArrow" transform="translate(30 24)" onmousedown="handlePan(0,-1)">
                  <use xlink:href="#rim" fill="#404040">
                        <set attributeName="fill" to="#808080" begin="arrowUp.mouseover" end="arrowUp.mouseout"/>
                  </use>
                  <path fill="none" stroke="white" stroke-width="1.5" d="M0,-3.0v7 M-2.5,-0.5L0,-3.0L2.5,-0.5"/>
                </g>
                <g id="arrowRight" xlink:href="#dirArrow" transform="rotate(90) translate(36 -43)" onmousedown="handlePan(1,0)">
                  <use xlink:href="#rim" fill="#404040">
                        <set attributeName="fill" to="#808080" begin="arrowRight.mouseover" end="arrowRight.mouseout"/>
                  </use>
                  <path fill="none" stroke="white" stroke-width="1.5" d="M0,-3.0v7 M-2.5,-0.5L0,-3.0L2.5,-0.5"/>
                </g>
                <g id="arrowDown" xlink:href="#dirArrow" transform="rotate(180) translate(-30 -48)" onmousedown="handlePan(0,1)">
                  <use xlink:href="#rim" fill="#404040">
                        <set attributeName="fill" to="#808080" begin="arrowDown.mouseover" end="arrowDown.mouseout"/>
                  </use>
                  <path fill="none" stroke="white" stroke-width="1.5" d="M0,-3.0v7 M-2.5,-0.5L0,-3.0L2.5,-0.5"/>
                </g>
                <g id="arrowLeft" xlink:href="#dirArrow" transform="rotate(270) translate(-36 17)" onmousedown="handlePan(-1,0)">
                  <use xlink:href="#rim" fill="#404040">
                        <set attributeName="fill" to="#808080" begin="arrowLeft.mouseover" end="arrowLeft.mouseout"/>
                  </use>
                  <path fill="none" stroke="white" stroke-width="1.5" d="M0,-3.0v7 M-2.5,-0.5L0,-3.0L2.5,-0.5"/>
                </g>
        </g>
        <svg viewBox="0 0 15 15" width="100%" height="30px" preserveAspectRatio="xMaxYMin meet">
         <g id="arrow_out" transform="scale(0.3 0.3)">
          <a xlink:href="WeightedGraph_8h__dep__incl_org.svg" target="_base">
           <rect id="button" ry="5" rx="5" y="6" x="6" height="38" width="38"
                fill="#f2f5e9" fill-opacity="0.5" stroke="#606060" stroke-width="1.0"/>
           <path id="arrow"
             d="M 11.500037,31.436501 C 11.940474,20.09759 22.043105,11.32322 32.158766,21.979434 L 37.068811,17.246167 C 37.068811,17.246167 37.088388,32 37.088388,32 L 22.160133,31.978069 C 22.160133,31.978069 26.997745,27.140456 26.997745,27.140456 C 18.528582,18.264221 13.291696,25.230495 11.500037,31.436501 z"
             style="fill:#404040;"/>
          </a>
         </g>
        </svg>
</svg>
