<?xml version="1.0" encoding="UTF-8" standalone="no"?>
<!DOCTYPE svg PUBLIC "-//W3C//DTD SVG 1.1//EN"
 "http://www.w3.org/Graphics/SVG/1.1/DTD/svg11.dtd">
<!-- Generated by graphviz version 2.40.1 (20161225.0304)
 -->
<!-- Title: efd::LayersBuilderPass::run Pages: 1 -->
<svg width="326pt" height="78pt"
 viewBox="0.00 0.00 326.00 77.50" xmlns="http://www.w3.org/2000/svg" xmlns:xlink="http://www.w3.org/1999/xlink">
<g id="graph0" class="graph" transform="scale(1 1) rotate(0) translate(4 73.5)">
<title>efd::LayersBuilderPass::run</title>
<!-- Node1 -->
<g id="node1" class="node">
<title>Node1</title>
<polygon fill="#bfbfbf" stroke="#000000" points="0,-22.5 0,-41.5 149,-41.5 149,-22.5 0,-22.5"/>
<text text-anchor="middle" x="74.5" y="-29.5" font-family="Helvetica,sans-Serif" font-size="10.00" fill="#000000">efd::LayersBuilderPass::run</text>
</g>
<!-- Node2 -->
<g id="node2" class="node">
<title>Node2</title>
<g id="a_node2"><a xlink:href="../../dd/d52/classefd_1_1QModule.xhtml#ac00e1eb93f94c00db1e6a661d8f95d9d" target="_top" xlink:title="Iterator to the beginning of the statement node vector. ">
<polygon fill="none" stroke="#000000" points="196.5,-39 196.5,-69 306.5,-69 306.5,-39 196.5,-39"/>
<text text-anchor="start" x="204.5" y="-57" font-family="Helvetica,sans-Serif" font-size="10.00" fill="#000000">efd::QModule::stmt</text>
<text text-anchor="middle" x="251.5" y="-46" font-family="Helvetica,sans-Serif" font-size="10.00" fill="#000000">_begin</text>
</a>
</g>
</g>
<!-- Node1&#45;&gt;Node2 -->
<g id="edge1" class="edge">
<title>Node1&#45;&gt;Node2</title>
<path fill="none" stroke="#191970" d="M149.0509,-41.2662C161.4512,-42.8075 174.2263,-44.3954 186.3691,-45.9046"/>
<polygon fill="#191970" stroke="#191970" points="186.0429,-49.3909 196.3983,-47.1512 186.9063,-42.4444 186.0429,-49.3909"/>
</g>
<!-- Node3 -->
<g id="node3" class="node">
<title>Node3</title>
<g id="a_node3"><a xlink:href="../../dd/d52/classefd_1_1QModule.xhtml#a23d45e3b6c65d5fa14b199da8b0617c7" target="_top" xlink:title="Iterator to the end of the statement node vector. ">
<polygon fill="none" stroke="#000000" points="185,-.5 185,-19.5 318,-19.5 318,-.5 185,-.5"/>
<text text-anchor="middle" x="251.5" y="-7.5" font-family="Helvetica,sans-Serif" font-size="10.00" fill="#000000">efd::QModule::stmt_end</text>
</a>
</g>
</g>
<!-- Node1&#45;&gt;Node3 -->
<g id="edge2" class="edge">
<title>Node1&#45;&gt;Node3</title>
<path fill="none" stroke="#191970" d="M149.0509,-22.7338C157.6071,-21.6703 166.3417,-20.5846 174.924,-19.5179"/>
<polygon fill="#191970" stroke="#191970" points="175.4171,-22.9837 184.909,-18.2769 174.5536,-16.0371 175.4171,-22.9837"/>
</g>
</g>
</svg>
