<?xml version="1.0" encoding="UTF-8" standalone="no"?>
<!DOCTYPE svg PUBLIC "-//W3C//DTD SVG 1.1//EN"
 "http://www.w3.org/Graphics/SVG/1.1/DTD/svg11.dtd">
<!-- Generated by graphviz version 2.38.0 (20140413.2041)
 -->
<!-- Title: efd::NDUnaryOp::CreateTan Pages: 1 -->
<svg width="641pt" height="66pt"
 viewBox="0.00 0.00 641.00 66.00" xmlns="http://www.w3.org/2000/svg" xmlns:xlink="http://www.w3.org/1999/xlink">
<g id="graph0" class="graph" transform="scale(1 1) rotate(0) translate(4 62)">
<title>efd::NDUnaryOp::CreateTan</title>
<!-- Node52 -->
<g id="node1" class="node"><title>Node52</title>
<polygon fill="#bfbfbf" stroke="black" points="0,-19.5 0,-38.5 142,-38.5 142,-19.5 0,-19.5"/>
<text text-anchor="middle" x="71" y="-26.5" font-family="Helvetica,sans-Serif" font-size="10.00">efd::NDUnaryOp::CreateTan</text>
</g>
<!-- Node53 -->
<g id="node2" class="node"><title>Node53</title>
<g id="a_node2"><a xlink:href="../../de/dd3/classefd_1_1NDUnaryOp.xhtml#a535ceee9c756aaf0b2695979b54e5c6f" target="_top" xlink:title="efd::NDUnaryOp::NDUnaryOp">
<polygon fill="none" stroke="black" points="178,-19.5 178,-38.5 328,-38.5 328,-19.5 178,-19.5"/>
<text text-anchor="middle" x="253" y="-26.5" font-family="Helvetica,sans-Serif" font-size="10.00">efd::NDUnaryOp::NDUnaryOp</text>
</a>
</g>
</g>
<!-- Node52&#45;&gt;Node53 -->
<g id="edge1" class="edge"><title>Node52&#45;&gt;Node53</title>
<path fill="none" stroke="midnightblue" d="M142.108,-29C150.551,-29 159.24,-29 167.857,-29"/>
<polygon fill="midnightblue" stroke="midnightblue" points="167.921,-32.5001 177.921,-29 167.921,-25.5001 167.921,-32.5001"/>
</g>
<!-- Node54 -->
<g id="node3" class="node"><title>Node54</title>
<g id="a_node3"><a xlink:href="../../d6/d6a/classefd_1_1Node.xhtml#a8ac8c3206c6f6817a8c8e515ac830f61" target="_top" xlink:title="Adds a child to this node. It should be used only for construction of each derived class...">
<polygon fill="none" stroke="black" points="364,-38.5 364,-57.5 490,-57.5 490,-38.5 364,-38.5"/>
<text text-anchor="middle" x="427" y="-45.5" font-family="Helvetica,sans-Serif" font-size="10.00">efd::Node::innerAddChild</text>
</a>
</g>
</g>
<!-- Node53&#45;&gt;Node54 -->
<g id="edge2" class="edge"><title>Node53&#45;&gt;Node54</title>
<path fill="none" stroke="midnightblue" d="M328.191,-37.1956C336.659,-38.131 345.283,-39.0835 353.725,-40.0161"/>
<polygon fill="midnightblue" stroke="midnightblue" points="353.586,-43.522 363.91,-41.1412 354.355,-36.5643 353.586,-43.522"/>
</g>
<!-- Node56 -->
<g id="node5" class="node"><title>Node56</title>
<g id="a_node5"><a xlink:href="../../d6/d6a/classefd_1_1Node.xhtml#a09ac8cdf7898a3d17293d92ae956eece" target="_top" xlink:title="Constructs the node, initially empty (with no information). ">
<polygon fill="none" stroke="black" points="382.5,-0.5 382.5,-19.5 471.5,-19.5 471.5,-0.5 382.5,-0.5"/>
<text text-anchor="middle" x="427" y="-7.5" font-family="Helvetica,sans-Serif" font-size="10.00">efd::Node::Node</text>
</a>
</g>
</g>
<!-- Node53&#45;&gt;Node56 -->
<g id="edge4" class="edge"><title>Node53&#45;&gt;Node56</title>
<path fill="none" stroke="midnightblue" d="M328.191,-20.8044C342.827,-19.1877 357.927,-17.5196 371.754,-15.9923"/>
<polygon fill="midnightblue" stroke="midnightblue" points="372.495,-19.4318 382.05,-14.8549 371.726,-12.4741 372.495,-19.4318"/>
</g>
<!-- Node55 -->
<g id="node4" class="node"><title>Node55</title>
<g id="a_node4"><a xlink:href="../../d6/d6a/classefd_1_1Node.xhtml#a48e9d49d994b9023b8400316e2782e2b" target="_top" xlink:title="Sets the parent node of the current node. ">
<polygon fill="none" stroke="black" points="526,-38.5 526,-57.5 633,-57.5 633,-38.5 526,-38.5"/>
<text text-anchor="middle" x="579.5" y="-45.5" font-family="Helvetica,sans-Serif" font-size="10.00">efd::Node::setParent</text>
</a>
</g>
</g>
<!-- Node54&#45;&gt;Node55 -->
<g id="edge3" class="edge"><title>Node54&#45;&gt;Node55</title>
<path fill="none" stroke="midnightblue" d="M490.083,-48C498.488,-48 507.118,-48 515.538,-48"/>
<polygon fill="midnightblue" stroke="midnightblue" points="515.674,-51.5001 525.674,-48 515.674,-44.5001 515.674,-51.5001"/>
</g>
</g>
</svg>
