<?xml version="1.0" encoding="UTF-8" standalone="no"?>
<!DOCTYPE svg PUBLIC "-//W3C//DTD SVG 1.1//EN"
 "http://www.w3.org/Graphics/SVG/1.1/DTD/svg11.dtd">
<!-- Generated by graphviz version 2.38.0 (20140413.2041)
 -->
<!-- Title: efd::NDUnaryOp::CreateLn Pages: 1 -->
<svg width="635pt" height="66pt"
 viewBox="0.00 0.00 635.00 66.00" xmlns="http://www.w3.org/2000/svg" xmlns:xlink="http://www.w3.org/1999/xlink">
<g id="graph0" class="graph" transform="scale(1 1) rotate(0) translate(4 62)">
<title>efd::NDUnaryOp::CreateLn</title>
<!-- Node32 -->
<g id="node1" class="node"><title>Node32</title>
<polygon fill="#bfbfbf" stroke="black" points="0,-19.5 0,-38.5 136,-38.5 136,-19.5 0,-19.5"/>
<text text-anchor="middle" x="68" y="-26.5" font-family="Helvetica,sans-Serif" font-size="10.00">efd::NDUnaryOp::CreateLn</text>
</g>
<!-- Node33 -->
<g id="node2" class="node"><title>Node33</title>
<g id="a_node2"><a xlink:href="../../de/dd3/classefd_1_1NDUnaryOp.xhtml#a535ceee9c756aaf0b2695979b54e5c6f" target="_top" xlink:title="efd::NDUnaryOp::NDUnaryOp">
<polygon fill="none" stroke="black" points="172,-19.5 172,-38.5 322,-38.5 322,-19.5 172,-19.5"/>
<text text-anchor="middle" x="247" y="-26.5" font-family="Helvetica,sans-Serif" font-size="10.00">efd::NDUnaryOp::NDUnaryOp</text>
</a>
</g>
</g>
<!-- Node32&#45;&gt;Node33 -->
<g id="edge1" class="edge"><title>Node32&#45;&gt;Node33</title>
<path fill="none" stroke="midnightblue" d="M136.168,-29C144.533,-29 153.168,-29 161.75,-29"/>
<polygon fill="midnightblue" stroke="midnightblue" points="161.78,-32.5001 171.78,-29 161.78,-25.5001 161.78,-32.5001"/>
</g>
<!-- Node34 -->
<g id="node3" class="node"><title>Node34</title>
<g id="a_node3"><a xlink:href="../../d6/d6a/classefd_1_1Node.xhtml#a8ac8c3206c6f6817a8c8e515ac830f61" target="_top" xlink:title="Adds a child to this node. It should be used only for construction of each derived class...">
<polygon fill="none" stroke="black" points="358,-38.5 358,-57.5 484,-57.5 484,-38.5 358,-38.5"/>
<text text-anchor="middle" x="421" y="-45.5" font-family="Helvetica,sans-Serif" font-size="10.00">efd::Node::innerAddChild</text>
</a>
</g>
</g>
<!-- Node33&#45;&gt;Node34 -->
<g id="edge2" class="edge"><title>Node33&#45;&gt;Node34</title>
<path fill="none" stroke="midnightblue" d="M322.191,-37.1956C330.659,-38.131 339.283,-39.0835 347.725,-40.0161"/>
<polygon fill="midnightblue" stroke="midnightblue" points="347.586,-43.522 357.91,-41.1412 348.355,-36.5643 347.586,-43.522"/>
</g>
<!-- Node36 -->
<g id="node5" class="node"><title>Node36</title>
<g id="a_node5"><a xlink:href="../../d6/d6a/classefd_1_1Node.xhtml#a09ac8cdf7898a3d17293d92ae956eece" target="_top" xlink:title="Constructs the node, initially empty (with no information). ">
<polygon fill="none" stroke="black" points="376.5,-0.5 376.5,-19.5 465.5,-19.5 465.5,-0.5 376.5,-0.5"/>
<text text-anchor="middle" x="421" y="-7.5" font-family="Helvetica,sans-Serif" font-size="10.00">efd::Node::Node</text>
</a>
</g>
</g>
<!-- Node33&#45;&gt;Node36 -->
<g id="edge4" class="edge"><title>Node33&#45;&gt;Node36</title>
<path fill="none" stroke="midnightblue" d="M322.191,-20.8044C336.827,-19.1877 351.927,-17.5196 365.754,-15.9923"/>
<polygon fill="midnightblue" stroke="midnightblue" points="366.495,-19.4318 376.05,-14.8549 365.726,-12.4741 366.495,-19.4318"/>
</g>
<!-- Node35 -->
<g id="node4" class="node"><title>Node35</title>
<g id="a_node4"><a xlink:href="../../d6/d6a/classefd_1_1Node.xhtml#a48e9d49d994b9023b8400316e2782e2b" target="_top" xlink:title="Sets the parent node of the current node. ">
<polygon fill="none" stroke="black" points="520,-38.5 520,-57.5 627,-57.5 627,-38.5 520,-38.5"/>
<text text-anchor="middle" x="573.5" y="-45.5" font-family="Helvetica,sans-Serif" font-size="10.00">efd::Node::setParent</text>
</a>
</g>
</g>
<!-- Node34&#45;&gt;Node35 -->
<g id="edge3" class="edge"><title>Node34&#45;&gt;Node35</title>
<path fill="none" stroke="midnightblue" d="M484.083,-48C492.488,-48 501.118,-48 509.538,-48"/>
<polygon fill="midnightblue" stroke="midnightblue" points="509.674,-51.5001 519.674,-48 509.674,-44.5001 509.674,-51.5001"/>
</g>
</g>
</svg>
