<?xml version="1.0" encoding="UTF-8" standalone="no"?>
<!DOCTYPE svg PUBLIC "-//W3C//DTD SVG 1.1//EN"
 "http://www.w3.org/Graphics/SVG/1.1/DTD/svg11.dtd">
<!-- Generated by graphviz version 2.38.0 (20140413.2041)
 -->
<!-- Title: efd::NDUnaryOp::cloneImpl Pages: 1 -->
<svg width="819pt" height="104pt"
 viewBox="0.00 0.00 819.00 104.00" xmlns="http://www.w3.org/2000/svg" xmlns:xlink="http://www.w3.org/1999/xlink">
<g id="graph0" class="graph" transform="scale(1 1) rotate(0) translate(4 100)">
<title>efd::NDUnaryOp::cloneImpl</title>
<!-- Node8 -->
<g id="node1" class="node"><title>Node8</title>
<polygon fill="#bfbfbf" stroke="black" points="0,-38.5 0,-57.5 138,-57.5 138,-38.5 0,-38.5"/>
<text text-anchor="middle" x="69" y="-45.5" font-family="Helvetica,sans-Serif" font-size="10.00">efd::NDUnaryOp::cloneImpl</text>
</g>
<!-- Node9 -->
<g id="node2" class="node"><title>Node9</title>
<g id="a_node2"><a xlink:href="../../d6/d6a/classefd_1_1Node.xhtml#a6c85c9bd21014b73497de741cc75f706" target="_top" xlink:title="Clones the current node (deep copy). ">
<polygon fill="none" stroke="black" points="202.5,-76.5 202.5,-95.5 291.5,-95.5 291.5,-76.5 202.5,-76.5"/>
<text text-anchor="middle" x="247" y="-83.5" font-family="Helvetica,sans-Serif" font-size="10.00">efd::Node::clone</text>
</a>
</g>
</g>
<!-- Node8&#45;&gt;Node9 -->
<g id="edge1" class="edge"><title>Node8&#45;&gt;Node9</title>
<path fill="none" stroke="midnightblue" d="M114.412,-57.589C138.041,-62.6906 167.278,-69.0032 192.188,-74.3815"/>
<polygon fill="midnightblue" stroke="midnightblue" points="191.698,-77.8563 202.212,-76.5457 193.176,-71.014 191.698,-77.8563"/>
</g>
<!-- Node11 -->
<g id="node4" class="node"><title>Node11</title>
<g id="a_node4"><a xlink:href="../../de/dd3/classefd_1_1NDUnaryOp.xhtml#a9c638d16bea31baeb3c4b303f3b76591" target="_top" xlink:title="Creates a new instance of this node. ">
<polygon fill="none" stroke="black" points="184.5,-38.5 184.5,-57.5 309.5,-57.5 309.5,-38.5 184.5,-38.5"/>
<text text-anchor="middle" x="247" y="-45.5" font-family="Helvetica,sans-Serif" font-size="10.00">efd::NDUnaryOp::Create</text>
</a>
</g>
</g>
<!-- Node8&#45;&gt;Node11 -->
<g id="edge3" class="edge"><title>Node8&#45;&gt;Node11</title>
<path fill="none" stroke="midnightblue" d="M138.046,-48C149.867,-48 162.195,-48 174.115,-48"/>
<polygon fill="midnightblue" stroke="midnightblue" points="174.461,-51.5001 184.461,-48 174.461,-44.5001 174.461,-51.5001"/>
</g>
<!-- Node16 -->
<g id="node9" class="node"><title>Node16</title>
<g id="a_node9"><a xlink:href="../../de/dd3/classefd_1_1NDUnaryOp.xhtml#a49458be3821071e4a2b9b06f360269d7" target="_top" xlink:title="Gets the only operand. ">
<polygon fill="none" stroke="black" points="174,-0.5 174,-19.5 320,-19.5 320,-0.5 174,-0.5"/>
<text text-anchor="middle" x="247" y="-7.5" font-family="Helvetica,sans-Serif" font-size="10.00">efd::NDUnaryOp::getOperand</text>
</a>
</g>
</g>
<!-- Node8&#45;&gt;Node16 -->
<g id="edge8" class="edge"><title>Node8&#45;&gt;Node16</title>
<path fill="none" stroke="midnightblue" d="M114.412,-38.411C137.951,-33.3287 167.057,-27.0446 191.905,-21.6797"/>
<polygon fill="midnightblue" stroke="midnightblue" points="192.871,-25.0518 201.907,-19.5201 191.394,-18.2094 192.871,-25.0518"/>
</g>
<!-- Node10 -->
<g id="node3" class="node"><title>Node10</title>
<g id="a_node3"><a xlink:href="../../d6/d6a/classefd_1_1Node.xhtml#ac078ce64eb404cfdc24b9288908536e4" target="_top" xlink:title="Clones the current node (deep copy). ">
<polygon fill="none" stroke="black" points="377.5,-76.5 377.5,-95.5 484.5,-95.5 484.5,-76.5 377.5,-76.5"/>
<text text-anchor="middle" x="431" y="-83.5" font-family="Helvetica,sans-Serif" font-size="10.00">efd::Node::cloneImpl</text>
</a>
</g>
</g>
<!-- Node9&#45;&gt;Node10 -->
<g id="edge2" class="edge"><title>Node9&#45;&gt;Node10</title>
<path fill="none" stroke="midnightblue" d="M291.594,-86C314.238,-86 342.317,-86 367.253,-86"/>
<polygon fill="midnightblue" stroke="midnightblue" points="367.359,-89.5001 377.359,-86 367.359,-82.5001 367.359,-89.5001"/>
</g>
<!-- Node12 -->
<g id="node5" class="node"><title>Node12</title>
<g id="a_node5"><a xlink:href="../../de/dd3/classefd_1_1NDUnaryOp.xhtml#a535ceee9c756aaf0b2695979b54e5c6f" target="_top" xlink:title="efd::NDUnaryOp::NDUnaryOp">
<polygon fill="none" stroke="black" points="356,-38.5 356,-57.5 506,-57.5 506,-38.5 356,-38.5"/>
<text text-anchor="middle" x="431" y="-45.5" font-family="Helvetica,sans-Serif" font-size="10.00">efd::NDUnaryOp::NDUnaryOp</text>
</a>
</g>
</g>
<!-- Node11&#45;&gt;Node12 -->
<g id="edge4" class="edge"><title>Node11&#45;&gt;Node12</title>
<path fill="none" stroke="midnightblue" d="M309.617,-48C321.218,-48 333.534,-48 345.689,-48"/>
<polygon fill="midnightblue" stroke="midnightblue" points="345.842,-51.5001 355.842,-48 345.842,-44.5001 345.842,-51.5001"/>
</g>
<!-- Node13 -->
<g id="node6" class="node"><title>Node13</title>
<g id="a_node6"><a xlink:href="../../d6/d6a/classefd_1_1Node.xhtml#a8ac8c3206c6f6817a8c8e515ac830f61" target="_top" xlink:title="Adds a child to this node. It should be used only for construction of each derived class...">
<polygon fill="none" stroke="black" points="542,-57.5 542,-76.5 668,-76.5 668,-57.5 542,-57.5"/>
<text text-anchor="middle" x="605" y="-64.5" font-family="Helvetica,sans-Serif" font-size="10.00">efd::Node::innerAddChild</text>
</a>
</g>
</g>
<!-- Node12&#45;&gt;Node13 -->
<g id="edge5" class="edge"><title>Node12&#45;&gt;Node13</title>
<path fill="none" stroke="midnightblue" d="M506.191,-56.1956C514.659,-57.131 523.283,-58.0835 531.725,-59.0161"/>
<polygon fill="midnightblue" stroke="midnightblue" points="531.586,-62.522 541.91,-60.1412 532.355,-55.5643 531.586,-62.522"/>
</g>
<!-- Node15 -->
<g id="node8" class="node"><title>Node15</title>
<g id="a_node8"><a xlink:href="../../d6/d6a/classefd_1_1Node.xhtml#a09ac8cdf7898a3d17293d92ae956eece" target="_top" xlink:title="Constructs the node, initially empty (with no information). ">
<polygon fill="none" stroke="black" points="560.5,-19.5 560.5,-38.5 649.5,-38.5 649.5,-19.5 560.5,-19.5"/>
<text text-anchor="middle" x="605" y="-26.5" font-family="Helvetica,sans-Serif" font-size="10.00">efd::Node::Node</text>
</a>
</g>
</g>
<!-- Node12&#45;&gt;Node15 -->
<g id="edge7" class="edge"><title>Node12&#45;&gt;Node15</title>
<path fill="none" stroke="midnightblue" d="M506.191,-39.8044C520.827,-38.1877 535.927,-36.5196 549.754,-34.9923"/>
<polygon fill="midnightblue" stroke="midnightblue" points="550.495,-38.4318 560.05,-33.8549 549.726,-31.4741 550.495,-38.4318"/>
</g>
<!-- Node14 -->
<g id="node7" class="node"><title>Node14</title>
<g id="a_node7"><a xlink:href="../../d6/d6a/classefd_1_1Node.xhtml#a48e9d49d994b9023b8400316e2782e2b" target="_top" xlink:title="Sets the parent node of the current node. ">
<polygon fill="none" stroke="black" points="704,-57.5 704,-76.5 811,-76.5 811,-57.5 704,-57.5"/>
<text text-anchor="middle" x="757.5" y="-64.5" font-family="Helvetica,sans-Serif" font-size="10.00">efd::Node::setParent</text>
</a>
</g>
</g>
<!-- Node13&#45;&gt;Node14 -->
<g id="edge6" class="edge"><title>Node13&#45;&gt;Node14</title>
<path fill="none" stroke="midnightblue" d="M668.083,-67C676.488,-67 685.118,-67 693.538,-67"/>
<polygon fill="midnightblue" stroke="midnightblue" points="693.674,-70.5001 703.674,-67 693.674,-63.5001 693.674,-70.5001"/>
</g>
</g>
</svg>
