<?xml version="1.0" encoding="UTF-8" standalone="no"?>
<!DOCTYPE svg PUBLIC "-//W3C//DTD SVG 1.1//EN"
 "http://www.w3.org/Graphics/SVG/1.1/DTD/svg11.dtd">
<!-- Generated by graphviz version 2.38.0 (20140413.2041)
 -->
<!-- Title: efd::NDUnaryOp::toString Pages: 1 -->
<svg width="326pt" height="104pt"
 viewBox="0.00 0.00 326.00 104.00" xmlns="http://www.w3.org/2000/svg" xmlns:xlink="http://www.w3.org/1999/xlink">
<g id="graph0" class="graph" transform="scale(1 1) rotate(0) translate(4 100)">
<title>efd::NDUnaryOp::toString</title>
<!-- Node71 -->
<g id="node1" class="node"><title>Node71</title>
<polygon fill="#bfbfbf" stroke="black" points="0,-38.5 0,-57.5 130,-57.5 130,-38.5 0,-38.5"/>
<text text-anchor="middle" x="65" y="-45.5" font-family="Helvetica,sans-Serif" font-size="10.00">efd::NDUnaryOp::toString</text>
</g>
<!-- Node72 -->
<g id="node2" class="node"><title>Node72</title>
<g id="a_node2"><a xlink:href="../../de/dd3/classefd_1_1NDUnaryOp.xhtml#a49458be3821071e4a2b9b06f360269d7" target="_top" xlink:title="Gets the only operand. ">
<polygon fill="none" stroke="black" points="169,-76.5 169,-95.5 315,-95.5 315,-76.5 169,-76.5"/>
<text text-anchor="middle" x="242" y="-83.5" font-family="Helvetica,sans-Serif" font-size="10.00">efd::NDUnaryOp::getOperand</text>
</a>
</g>
</g>
<!-- Node71&#45;&gt;Node72 -->
<g id="edge1" class="edge"><title>Node71&#45;&gt;Node72</title>
<path fill="none" stroke="midnightblue" d="M110.16,-57.589C133.565,-62.6713 162.505,-68.9554 187.212,-74.3203"/>
<polygon fill="midnightblue" stroke="midnightblue" points="186.643,-77.7782 197.158,-76.4799 188.128,-70.9376 186.643,-77.7782"/>
</g>
<!-- Node73 -->
<g id="node3" class="node"><title>Node73</title>
<g id="a_node3"><a xlink:href="../../de/dd3/classefd_1_1NDUnaryOp.xhtml#a0f0a6031794efd079f9feabd3158d8ec" target="_top" xlink:title="Returns a std::string representation of the operation. ">
<polygon fill="none" stroke="black" points="166,-38.5 166,-57.5 318,-57.5 318,-38.5 166,-38.5"/>
<text text-anchor="middle" x="242" y="-45.5" font-family="Helvetica,sans-Serif" font-size="10.00">efd::NDUnaryOp::getOperation</text>
</a>
</g>
</g>
<!-- Node71&#45;&gt;Node73 -->
<g id="edge2" class="edge"><title>Node71&#45;&gt;Node73</title>
<path fill="none" stroke="midnightblue" d="M130.17,-48C138.513,-48 147.162,-48 155.781,-48"/>
<polygon fill="midnightblue" stroke="midnightblue" points="155.866,-51.5001 165.866,-48 155.866,-44.5001 155.866,-51.5001"/>
</g>
<!-- Node74 -->
<g id="node4" class="node"><title>Node74</title>
<g id="a_node4"><a xlink:href="../../d6/d6a/classefd_1_1Node.xhtml#a96ca13a5c2b971b68619ce4a34be0f66" target="_top" xlink:title="Returns a std::string representation of this Node and its childrem. ">
<polygon fill="none" stroke="black" points="192.5,-0.5 192.5,-19.5 291.5,-19.5 291.5,-0.5 192.5,-0.5"/>
<text text-anchor="middle" x="242" y="-7.5" font-family="Helvetica,sans-Serif" font-size="10.00">efd::Node::toString</text>
</a>
</g>
</g>
<!-- Node71&#45;&gt;Node74 -->
<g id="edge3" class="edge"><title>Node71&#45;&gt;Node74</title>
<path fill="none" stroke="midnightblue" d="M110.16,-38.411C133.565,-33.3287 162.505,-27.0446 187.212,-21.6797"/>
<polygon fill="midnightblue" stroke="midnightblue" points="188.128,-25.0624 197.158,-19.5201 186.643,-18.2218 188.128,-25.0624"/>
</g>
</g>
</svg>
