<?xml version="1.0" encoding="UTF-8" standalone="no"?>
<!DOCTYPE svg PUBLIC "-//W3C//DTD SVG 1.1//EN"
 "http://www.w3.org/Graphics/SVG/1.1/DTD/svg11.dtd">
<!-- Generated by graphviz version 2.38.0 (20140413.2041)
 -->
<!-- Title: efd::LayerBasedOrderingWrapperPass::run Pages: 1 -->
<svg width="491pt" height="242pt"
 viewBox="0.00 0.00 491.00 241.50" xmlns="http://www.w3.org/2000/svg" xmlns:xlink="http://www.w3.org/1999/xlink">
<g id="graph0" class="graph" transform="scale(1 1) rotate(0) translate(4 237.5)">
<title>efd::LayerBasedOrderingWrapperPass::run</title>
<!-- Node2 -->
<g id="node1" class="node"><title>Node2</title>
<polygon fill="#bfbfbf" stroke="black" points="0,-102 0,-132 161,-132 161,-102 0,-102"/>
<text text-anchor="start" x="8" y="-120" font-family="Helvetica,sans-Serif" font-size="10.00">efd::LayerBasedOrderingWrapper</text>
<text text-anchor="middle" x="80.5" y="-109" font-family="Helvetica,sans-Serif" font-size="10.00">Pass::run</text>
</g>
<!-- Node3 -->
<g id="node2" class="node"><title>Node3</title>
<g id="a_node2"><a xlink:href="../../d6/de0/classefd_1_1LayerBasedOrderingWrapperPass.xhtml#ac7c73fd1b104c44c04c9e33f1b3756c1" target="_top" xlink:title="efd::LayerBasedOrderingWrapper\lPass::generate">
<polygon fill="none" stroke="black" points="197,-203 197,-233 358,-233 358,-203 197,-203"/>
<text text-anchor="start" x="205" y="-221" font-family="Helvetica,sans-Serif" font-size="10.00">efd::LayerBasedOrderingWrapper</text>
<text text-anchor="middle" x="277.5" y="-210" font-family="Helvetica,sans-Serif" font-size="10.00">Pass::generate</text>
</a>
</g>
</g>
<!-- Node2&#45;&gt;Node3 -->
<g id="edge1" class="edge"><title>Node2&#45;&gt;Node3</title>
<path fill="none" stroke="midnightblue" d="M100.942,-132.238C123.127,-149.026 161.006,-175.908 197,-193 201.699,-195.231 206.646,-197.329 211.679,-199.287"/>
<polygon fill="midnightblue" stroke="midnightblue" points="210.827,-202.703 221.421,-202.877 213.248,-196.135 210.827,-202.703"/>
</g>
<!-- Node4 -->
<g id="node3" class="node"><title>Node4</title>
<g id="a_node3"><a xlink:href="../../d1/df9/classefd_1_1PassCache.xhtml#a8c54d0a438f35de5629ae78c886687a8" target="_top" xlink:title="Gets a shared pointer to the pass T run in qmod. If it does not exist, it tries to run...">
<polygon fill="none" stroke="black" points="223,-164.5 223,-183.5 332,-183.5 332,-164.5 223,-164.5"/>
<text text-anchor="middle" x="277.5" y="-171.5" font-family="Helvetica,sans-Serif" font-size="10.00">efd::PassCache::Get</text>
</a>
</g>
</g>
<!-- Node2&#45;&gt;Node4 -->
<g id="edge2" class="edge"><title>Node2&#45;&gt;Node4</title>
<path fill="none" stroke="midnightblue" d="M124.294,-132.022C145.951,-139.383 172.73,-148.12 197,-155 205.63,-157.446 214.845,-159.843 223.831,-162.065"/>
<polygon fill="midnightblue" stroke="midnightblue" points="223.291,-165.536 233.834,-164.494 224.942,-158.733 223.291,-165.536"/>
</g>
<!-- Node5 -->
<g id="node4" class="node"><title>Node5</title>
<g id="a_node4"><a xlink:href="../../db/d56/classefd_1_1PassT.xhtml#aae3442c1486bcec7622a64451262d684" target="_top" xlink:title="efd::PassT::getData">
<polygon fill="none" stroke="black" points="225,-126.5 225,-145.5 330,-145.5 330,-126.5 225,-126.5"/>
<text text-anchor="middle" x="277.5" y="-133.5" font-family="Helvetica,sans-Serif" font-size="10.00">efd::PassT::getData</text>
</a>
</g>
</g>
<!-- Node2&#45;&gt;Node5 -->
<g id="edge3" class="edge"><title>Node2&#45;&gt;Node5</title>
<path fill="none" stroke="midnightblue" d="M161.095,-124.755C178.886,-126.489 197.501,-128.303 214.459,-129.955"/>
<polygon fill="midnightblue" stroke="midnightblue" points="214.489,-133.474 224.781,-130.961 215.168,-126.507 214.489,-133.474"/>
</g>
<!-- Node6 -->
<g id="node5" class="node"><title>Node6</title>
<g id="a_node5"><a xlink:href="../../dd/d52/classefd_1_1QModule.xhtml#aca36bf9a785d42ecd4135a5d88c2e431" target="_top" xlink:title="Order the statements according to order. ">
<polygon fill="none" stroke="black" points="221,-88.5 221,-107.5 334,-107.5 334,-88.5 221,-88.5"/>
<text text-anchor="middle" x="277.5" y="-95.5" font-family="Helvetica,sans-Serif" font-size="10.00">efd::QModule::orderby</text>
</a>
</g>
</g>
<!-- Node2&#45;&gt;Node6 -->
<g id="edge4" class="edge"><title>Node2&#45;&gt;Node6</title>
<path fill="none" stroke="midnightblue" d="M161.095,-109.245C177.509,-107.645 194.624,-105.978 210.492,-104.432"/>
<polygon fill="midnightblue" stroke="midnightblue" points="211.106,-107.888 220.72,-103.435 210.427,-100.921 211.106,-107.888"/>
</g>
<!-- Node7 -->
<g id="node6" class="node"><title>Node7</title>
<g id="a_node6"><a xlink:href="../../dd/d52/classefd_1_1QModule.xhtml#ac00e1eb93f94c00db1e6a661d8f95d9d" target="_top" xlink:title="Iterator to the beginning of the statement node vector. ">
<polygon fill="none" stroke="black" points="227,-39 227,-69 328,-69 328,-39 227,-39"/>
<text text-anchor="start" x="235" y="-57" font-family="Helvetica,sans-Serif" font-size="10.00">efd::QModule::stmt</text>
<text text-anchor="middle" x="277.5" y="-46" font-family="Helvetica,sans-Serif" font-size="10.00">_begin</text>
</a>
</g>
</g>
<!-- Node2&#45;&gt;Node7 -->
<g id="edge5" class="edge"><title>Node2&#45;&gt;Node7</title>
<path fill="none" stroke="midnightblue" d="M126.709,-101.973C148.013,-94.9314 173.79,-86.4671 197,-79 203.912,-76.7761 211.17,-74.4634 218.372,-72.1821"/>
<polygon fill="midnightblue" stroke="midnightblue" points="219.639,-75.4522 228.12,-69.102 217.53,-68.7775 219.639,-75.4522"/>
</g>
<!-- Node9 -->
<g id="node8" class="node"><title>Node9</title>
<g id="a_node8"><a xlink:href="../../dd/d52/classefd_1_1QModule.xhtml#a23d45e3b6c65d5fa14b199da8b0617c7" target="_top" xlink:title="Iterator to the end of the statement node vector. ">
<polygon fill="none" stroke="black" points="216.5,-0.5 216.5,-19.5 338.5,-19.5 338.5,-0.5 216.5,-0.5"/>
<text text-anchor="middle" x="277.5" y="-7.5" font-family="Helvetica,sans-Serif" font-size="10.00">efd::QModule::stmt_end</text>
</a>
</g>
</g>
<!-- Node2&#45;&gt;Node9 -->
<g id="edge7" class="edge"><title>Node2&#45;&gt;Node9</title>
<path fill="none" stroke="midnightblue" d="M96.9002,-101.823C117.803,-82.085 157.14,-47.9038 197,-29 202.049,-26.6057 207.425,-24.4984 212.909,-22.6465"/>
<polygon fill="midnightblue" stroke="midnightblue" points="214.323,-25.8731 222.848,-19.5822 212.261,-19.1838 214.323,-25.8731"/>
</g>
<!-- Node8 -->
<g id="node7" class="node"><title>Node8</title>
<g id="a_node7"><a xlink:href="../../d6/d6a/classefd_1_1Node.xhtml#ae890d36b0dcb332d82616b3180da1886" target="_top" xlink:title="Returns a iterator to the beginning of the vector. ">
<polygon fill="none" stroke="black" points="394,-44.5 394,-63.5 483,-63.5 483,-44.5 394,-44.5"/>
<text text-anchor="middle" x="438.5" y="-51.5" font-family="Helvetica,sans-Serif" font-size="10.00">efd::Node::begin</text>
</a>
</g>
</g>
<!-- Node7&#45;&gt;Node8 -->
<g id="edge6" class="edge"><title>Node7&#45;&gt;Node8</title>
<path fill="none" stroke="midnightblue" d="M328.372,-54C346.041,-54 365.988,-54 383.95,-54"/>
<polygon fill="midnightblue" stroke="midnightblue" points="383.98,-57.5001 393.979,-54 383.979,-50.5001 383.98,-57.5001"/>
</g>
<!-- Node10 -->
<g id="node9" class="node"><title>Node10</title>
<g id="a_node9"><a xlink:href="../../d6/d6a/classefd_1_1Node.xhtml#a335606078a1d727de214982453c9dd1b" target="_top" xlink:title="Returns a iterator to the end of the vector. ">
<polygon fill="none" stroke="black" points="398,-0.5 398,-19.5 479,-19.5 479,-0.5 398,-0.5"/>
<text text-anchor="middle" x="438.5" y="-7.5" font-family="Helvetica,sans-Serif" font-size="10.00">efd::Node::end</text>
</a>
</g>
</g>
<!-- Node9&#45;&gt;Node10 -->
<g id="edge8" class="edge"><title>Node9&#45;&gt;Node10</title>
<path fill="none" stroke="midnightblue" d="M338.611,-10C354.616,-10 371.738,-10 387.161,-10"/>
<polygon fill="midnightblue" stroke="midnightblue" points="387.532,-13.5001 397.532,-10 387.532,-6.5001 387.532,-13.5001"/>
</g>
</g>
</svg>
