<?xml version="1.0" encoding="UTF-8" standalone="no"?>
<!DOCTYPE svg PUBLIC "-//W3C//DTD SVG 1.1//EN"
 "http://www.w3.org/Graphics/SVG/1.1/DTD/svg11.dtd">
<!-- Generated by graphviz version 2.40.1 (20161225.0304)
 -->
<!-- Title: efd::QModuleQualityEvalPass Pages: 1 -->
<svg width="229pt" height="209pt"
 viewBox="0.00 0.00 228.50 209.00" xmlns="http://www.w3.org/2000/svg" xmlns:xlink="http://www.w3.org/1999/xlink">
<g id="graph0" class="graph" transform="scale(1 1) rotate(0) translate(4 205)">
<title>efd::QModuleQualityEvalPass</title>
<!-- Node0 -->
<g id="node1" class="node">
<title>Node0</title>
<polygon fill="#bfbfbf" stroke="#000000" points="3.5,-.5 3.5,-19.5 163.5,-19.5 163.5,-.5 3.5,-.5"/>
<text text-anchor="middle" x="83.5" y="-7.5" font-family="Helvetica,sans-Serif" font-size="10.00" fill="#000000">efd::QModuleQualityEvalPass</text>
</g>
<!-- Node1 -->
<g id="node2" class="node">
<title>Node1</title>
<g id="a_node2"><a xlink:href="../../db/d56/classefd_1_1PassT.xhtml" target="_top" xlink:title="efd::PassT\&lt; QModuleQuality \&gt;">
<polygon fill="none" stroke="#000000" points="0,-57.5 0,-76.5 167,-76.5 167,-57.5 0,-57.5"/>
<text text-anchor="middle" x="83.5" y="-64.5" font-family="Helvetica,sans-Serif" font-size="10.00" fill="#000000">efd::PassT&lt; QModuleQuality &gt;</text>
</a>
</g>
</g>
<!-- Node1&#45;&gt;Node0 -->
<g id="edge1" class="edge">
<title>Node1&#45;&gt;Node0</title>
<path fill="none" stroke="#191970" d="M83.5,-47.2342C83.5,-37.8491 83.5,-27.0651 83.5,-19.5265"/>
<polygon fill="#191970" stroke="#191970" points="80.0001,-47.3307 83.5,-57.3307 87.0001,-47.3308 80.0001,-47.3307"/>
</g>
<!-- Node2 -->
<g id="node3" class="node">
<title>Node2</title>
<g id="a_node3"><a xlink:href="../../d0/d98/classefd_1_1Pass.xhtml" target="_top" xlink:title="Base class for implementation of QModule passes. This information will be used when the QModule&#39;s fun...">
<polygon fill="none" stroke="#000000" points="49,-181.5 49,-200.5 110,-200.5 110,-181.5 49,-181.5"/>
<text text-anchor="middle" x="79.5" y="-188.5" font-family="Helvetica,sans-Serif" font-size="10.00" fill="#000000">efd::Pass</text>
</a>
</g>
</g>
<!-- Node2&#45;&gt;Node1 -->
<g id="edge2" class="edge">
<title>Node2&#45;&gt;Node1</title>
<path fill="none" stroke="#191970" d="M80.1429,-171.0697C81.0138,-144.0713 82.5346,-96.9273 83.1876,-76.6849"/>
<polygon fill="#191970" stroke="#191970" points="76.6382,-171.1622 79.8139,-181.2699 83.6346,-171.388 76.6382,-171.1622"/>
</g>
<!-- Node3 -->
<g id="node4" class="node">
<title>Node3</title>
<g id="a_node4"><a xlink:href="../../db/d56/classefd_1_1PassT.xhtml" target="_top" xlink:title="Should serve as base class for classes that produces some data of type T. ">
<polygon fill="none" stroke="#000000" points="96,-124.5 96,-143.5 191,-143.5 191,-124.5 96,-124.5"/>
<text text-anchor="middle" x="143.5" y="-131.5" font-family="Helvetica,sans-Serif" font-size="10.00" fill="#000000">efd::PassT&lt; T &gt;</text>
</a>
</g>
</g>
<!-- Node2&#45;&gt;Node3 -->
<g id="edge4" class="edge">
<title>Node2&#45;&gt;Node3</title>
<path fill="none" stroke="#191970" d="M97.9896,-174.5327C109.2833,-164.4742 123.3271,-151.9664 132.8036,-143.5265"/>
<polygon fill="#191970" stroke="#191970" points="95.4966,-172.0661 90.3567,-181.3307 100.1522,-177.2935 95.4966,-172.0661"/>
</g>
<!-- Node3&#45;&gt;Node1 -->
<g id="edge3" class="edge">
<title>Node3&#45;&gt;Node1</title>
<path fill="none" stroke="#ffa500" stroke-dasharray="5,2" d="M128.0206,-116.7147C116.5815,-103.941 101.4305,-87.0224 92.0806,-76.5817"/>
<polygon fill="#ffa500" stroke="#ffa500" points="125.6249,-119.2859 134.9035,-124.4005 130.8396,-114.6161 125.6249,-119.2859"/>
<text text-anchor="middle" x="168.5" y="-98" font-family="Helvetica,sans-Serif" font-size="10.00" fill="#000000"> &lt; QModuleQuality &gt;</text>
</g>
</g>
</svg>
