<?xml version="1.0" encoding="UTF-8" standalone="no"?>
<!DOCTYPE svg PUBLIC "-//W3C//DTD SVG 1.1//EN"
 "http://www.w3.org/Graphics/SVG/1.1/DTD/svg11.dtd">
<!-- Generated by graphviz version 2.38.0 (20140413.2041)
 -->
<!-- Title: lib/Transform/XbitToNumberPass.cpp Pages: 1 -->
<svg width="613pt" height="330pt"
 viewBox="0.00 0.00 613.00 330.00" xmlns="http://www.w3.org/2000/svg" xmlns:xlink="http://www.w3.org/1999/xlink">
<g id="graph0" class="graph" transform="scale(1 1) rotate(0) translate(4 326)">
<title>lib/Transform/XbitToNumberPass.cpp</title>
<!-- Node0 -->
<g id="node1" class="node"><title>Node0</title>
<polygon fill="#bfbfbf" stroke="black" points="187,-291.5 187,-321.5 327,-321.5 327,-291.5 187,-291.5"/>
<text text-anchor="start" x="195" y="-309.5" font-family="Helvetica,sans-Serif" font-size="10.00">lib/Transform/XbitToNumber</text>
<text text-anchor="middle" x="257" y="-298.5" font-family="Helvetica,sans-Serif" font-size="10.00">Pass.cpp</text>
</g>
<!-- Node1 -->
<g id="node2" class="node"><title>Node1</title>
<g id="a_node2"><a xlink:href="../../d6/d94/XbitToNumberPass_8h.xhtml" target="_top" xlink:title="enfield/Transform/XbitTo\lNumberPass.h">
<polygon fill="none" stroke="black" points="240,-224.5 240,-254.5 364,-254.5 364,-224.5 240,-224.5"/>
<text text-anchor="start" x="248" y="-242.5" font-family="Helvetica,sans-Serif" font-size="10.00">enfield/Transform/XbitTo</text>
<text text-anchor="middle" x="302" y="-231.5" font-family="Helvetica,sans-Serif" font-size="10.00">NumberPass.h</text>
</a>
</g>
</g>
<!-- Node0&#45;&gt;Node1 -->
<g id="edge1" class="edge"><title>Node0&#45;&gt;Node1</title>
<path fill="none" stroke="midnightblue" d="M266.764,-291.396C272.543,-283.049 279.994,-272.287 286.554,-262.811"/>
<polygon fill="midnightblue" stroke="midnightblue" points="289.44,-264.791 292.255,-254.577 283.685,-260.806 289.44,-264.791"/>
</g>
<!-- Node8 -->
<g id="node9" class="node"><title>Node8</title>
<g id="a_node9"><a xlink:href="../../d5/dfc/RTTI_8h.xhtml" target="_top" xlink:title="enfield/Support/RTTI.h">
<polygon fill="none" stroke="black" points="0,-56.5 0,-75.5 116,-75.5 116,-56.5 0,-56.5"/>
<text text-anchor="middle" x="58" y="-63.5" font-family="Helvetica,sans-Serif" font-size="10.00">enfield/Support/RTTI.h</text>
</a>
</g>
</g>
<!-- Node0&#45;&gt;Node8 -->
<g id="edge22" class="edge"><title>Node0&#45;&gt;Node8</title>
<path fill="none" stroke="midnightblue" d="M186.834,-298.642C130.298,-291.494 57.3111,-278.038 39,-255 -0.943213,-204.746 31.2794,-121.473 48.6808,-85.0221"/>
<polygon fill="midnightblue" stroke="midnightblue" points="52.0097,-86.1871 53.317,-75.6732 45.7385,-83.0771 52.0097,-86.1871"/>
</g>
<!-- Node15 -->
<g id="node16" class="node"><title>Node15</title>
<g id="a_node16"><a xlink:href="../../d0/d8d/NodeVisitor_8h.xhtml" target="_top" xlink:title="enfield/Analysis/NodeVisitor.h">
<polygon fill="none" stroke="black" points="382,-230 382,-249 530,-249 530,-230 382,-230"/>
<text text-anchor="middle" x="456" y="-237" font-family="Helvetica,sans-Serif" font-size="10.00">enfield/Analysis/NodeVisitor.h</text>
</a>
</g>
</g>
<!-- Node0&#45;&gt;Node15 -->
<g id="edge20" class="edge"><title>Node0&#45;&gt;Node15</title>
<path fill="none" stroke="midnightblue" d="M300.18,-291.396C336.024,-279.688 386.407,-263.231 420.077,-252.234"/>
<polygon fill="midnightblue" stroke="midnightblue" points="421.536,-255.439 429.955,-249.007 419.363,-248.785 421.536,-255.439"/>
</g>
<!-- Node16 -->
<g id="node17" class="node"><title>Node16</title>
<g id="a_node17"><a xlink:href="../../dc/d09/uRefCast_8h.xhtml" target="_top" xlink:title="enfield/Support/uRefCast.h">
<polygon fill="none" stroke="black" points="48.5,-230 48.5,-249 183.5,-249 183.5,-230 48.5,-230"/>
<text text-anchor="middle" x="116" y="-237" font-family="Helvetica,sans-Serif" font-size="10.00">enfield/Support/uRefCast.h</text>
</a>
</g>
</g>
<!-- Node0&#45;&gt;Node16 -->
<g id="edge23" class="edge"><title>Node0&#45;&gt;Node16</title>
<path fill="none" stroke="midnightblue" d="M226.405,-291.396C201.775,-280.041 167.454,-264.22 143.644,-253.244"/>
<polygon fill="midnightblue" stroke="midnightblue" points="145,-250.015 134.454,-249.007 142.07,-256.372 145,-250.015"/>
</g>
<!-- Node17 -->
<g id="node18" class="node"><title>Node17</title>
<polygon fill="none" stroke="#bfbfbf" points="124.5,-168.5 124.5,-187.5 173.5,-187.5 173.5,-168.5 124.5,-168.5"/>
<text text-anchor="middle" x="149" y="-175.5" font-family="Helvetica,sans-Serif" font-size="10.00">cassert</text>
</g>
<!-- Node0&#45;&gt;Node17 -->
<g id="edge27" class="edge"><title>Node0&#45;&gt;Node17</title>
<path fill="none" stroke="midnightblue" d="M246.329,-291.348C233.745,-274.843 212.002,-246.9 192,-224 183.381,-214.132 173.28,-203.517 165.035,-195.076"/>
<polygon fill="midnightblue" stroke="midnightblue" points="167.32,-192.409 157.807,-187.745 162.335,-197.323 167.32,-192.409"/>
</g>
<!-- Node18 -->
<g id="node19" class="node"><title>Node18</title>
<polygon fill="none" stroke="#bfbfbf" points="548,-230 548,-249 604,-249 604,-230 548,-230"/>
<text text-anchor="middle" x="576" y="-237" font-family="Helvetica,sans-Serif" font-size="10.00">algorithm</text>
</g>
<!-- Node0&#45;&gt;Node18 -->
<g id="edge28" class="edge"><title>Node0&#45;&gt;Node18</title>
<path fill="none" stroke="midnightblue" d="M327.108,-296.846C384.697,-288.811 468.042,-275.047 539,-255 541.587,-254.269 544.244,-253.425 546.89,-252.518"/>
<polygon fill="midnightblue" stroke="midnightblue" points="548.104,-255.801 556.275,-249.056 545.682,-249.233 548.104,-255.801"/>
</g>
<!-- Node2 -->
<g id="node3" class="node"><title>Node2</title>
<g id="a_node3"><a xlink:href="../../df/d29/Pass_8h.xhtml" target="_top" xlink:title="enfield/Transform/Pass.h">
<polygon fill="none" stroke="black" points="132,-112.5 132,-131.5 258,-131.5 258,-112.5 132,-112.5"/>
<text text-anchor="middle" x="195" y="-119.5" font-family="Helvetica,sans-Serif" font-size="10.00">enfield/Transform/Pass.h</text>
</a>
</g>
</g>
<!-- Node1&#45;&gt;Node2 -->
<g id="edge2" class="edge"><title>Node1&#45;&gt;Node2</title>
<path fill="none" stroke="midnightblue" d="M269.722,-224.428C253.293,-215.899 234.083,-203.63 221,-188 209.797,-174.615 202.981,-155.793 199.156,-141.845"/>
<polygon fill="midnightblue" stroke="midnightblue" points="202.496,-140.772 196.702,-131.902 195.7,-142.449 202.496,-140.772"/>
</g>
<!-- Node4 -->
<g id="node5" class="node"><title>Node4</title>
<g id="a_node5"><a xlink:href="../../d4/d73/QModule_8h.xhtml" target="_top" xlink:title="enfield/Transform/QModule.h">
<polygon fill="none" stroke="black" points="322.5,-168.5 322.5,-187.5 465.5,-187.5 465.5,-168.5 322.5,-168.5"/>
<text text-anchor="middle" x="394" y="-175.5" font-family="Helvetica,sans-Serif" font-size="10.00">enfield/Transform/QModule.h</text>
</a>
</g>
</g>
<!-- Node1&#45;&gt;Node4 -->
<g id="edge4" class="edge"><title>Node1&#45;&gt;Node4</title>
<path fill="none" stroke="midnightblue" d="M323.803,-224.399C338.412,-214.951 357.573,-202.559 372.185,-193.109"/>
<polygon fill="midnightblue" stroke="midnightblue" points="374.117,-196.027 380.613,-187.658 370.316,-190.15 374.117,-196.027"/>
</g>
<!-- Node5 -->
<g id="node6" class="node"><title>Node5</title>
<g id="a_node6"><a xlink:href="../../d4/daf/Nodes_8h.xhtml" target="_top" xlink:title="enfield/Analysis/Nodes.h">
<polygon fill="none" stroke="black" points="377.5,-112.5 377.5,-131.5 502.5,-131.5 502.5,-112.5 377.5,-112.5"/>
<text text-anchor="middle" x="440" y="-119.5" font-family="Helvetica,sans-Serif" font-size="10.00">enfield/Analysis/Nodes.h</text>
</a>
</g>
</g>
<!-- Node1&#45;&gt;Node5 -->
<g id="edge15" class="edge"><title>Node1&#45;&gt;Node5</title>
<path fill="none" stroke="midnightblue" d="M362.917,-224.387C409.542,-212.97 467.029,-197.312 474,-188 485.611,-172.489 471.413,-152.457 457.981,-138.756"/>
<polygon fill="midnightblue" stroke="midnightblue" points="460.018,-135.863 450.362,-131.503 455.192,-140.933 460.018,-135.863"/>
</g>
<!-- Node11 -->
<g id="node12" class="node"><title>Node11</title>
<polygon fill="none" stroke="#bfbfbf" points="561,-56.5 561,-75.5 605,-75.5 605,-56.5 561,-56.5"/>
<text text-anchor="middle" x="583" y="-63.5" font-family="Helvetica,sans-Serif" font-size="10.00">vector</text>
</g>
<!-- Node1&#45;&gt;Node11 -->
<g id="edge17" class="edge"><title>Node1&#45;&gt;Node11</title>
<path fill="none" stroke="midnightblue" d="M364.329,-225.726C367.26,-225.139 370.161,-224.562 373,-224 456.456,-207.488 501.126,-248.437 561,-188 587.834,-160.914 587.937,-112.739 585.544,-86.0766"/>
<polygon fill="midnightblue" stroke="midnightblue" points="588.984,-85.3413 584.396,-75.7911 582.027,-86.1176 588.984,-85.3413"/>
</g>
<!-- Node12 -->
<g id="node13" class="node"><title>Node12</title>
<polygon fill="none" stroke="#bfbfbf" points="276.5,-112.5 276.5,-131.5 359.5,-131.5 359.5,-112.5 276.5,-112.5"/>
<text text-anchor="middle" x="318" y="-119.5" font-family="Helvetica,sans-Serif" font-size="10.00">unordered_map</text>
</g>
<!-- Node1&#45;&gt;Node12 -->
<g id="edge16" class="edge"><title>Node1&#45;&gt;Node12</title>
<path fill="none" stroke="midnightblue" d="M303.962,-224.337C306.845,-203.527 312.228,-164.663 315.426,-141.583"/>
<polygon fill="midnightblue" stroke="midnightblue" points="318.894,-142.055 316.799,-131.669 311.96,-141.095 318.894,-142.055"/>
</g>
<!-- Node13 -->
<g id="node14" class="node"><title>Node13</title>
<polygon fill="none" stroke="#bfbfbf" points="522,-168.5 522,-187.5 552,-187.5 552,-168.5 522,-168.5"/>
<text text-anchor="middle" x="537" y="-175.5" font-family="Helvetica,sans-Serif" font-size="10.00">set</text>
</g>
<!-- Node1&#45;&gt;Node13 -->
<g id="edge18" class="edge"><title>Node1&#45;&gt;Node13</title>
<path fill="none" stroke="midnightblue" d="M363.547,-224.44C404.621,-214.805 459.744,-201.39 508,-188 509.429,-187.604 510.893,-187.186 512.369,-186.756"/>
<polygon fill="midnightblue" stroke="midnightblue" points="513.44,-190.089 521.999,-183.845 511.415,-183.388 513.44,-190.089"/>
</g>
<!-- Node14 -->
<g id="node15" class="node"><title>Node14</title>
<polygon fill="none" stroke="#bfbfbf" points="230.5,-168.5 230.5,-187.5 265.5,-187.5 265.5,-168.5 230.5,-168.5"/>
<text text-anchor="middle" x="248" y="-175.5" font-family="Helvetica,sans-Serif" font-size="10.00">map</text>
</g>
<!-- Node1&#45;&gt;Node14 -->
<g id="edge19" class="edge"><title>Node1&#45;&gt;Node14</title>
<path fill="none" stroke="midnightblue" d="M289.203,-224.399C281.275,-215.664 271.064,-204.413 262.79,-195.296"/>
<polygon fill="midnightblue" stroke="midnightblue" points="265.17,-192.711 255.857,-187.658 259.986,-197.415 265.17,-192.711"/>
</g>
<!-- Node3 -->
<g id="node4" class="node"><title>Node3</title>
<polygon fill="none" stroke="#bfbfbf" points="165,-56.5 165,-75.5 217,-75.5 217,-56.5 165,-56.5"/>
<text text-anchor="middle" x="191" y="-63.5" font-family="Helvetica,sans-Serif" font-size="10.00">memory</text>
</g>
<!-- Node2&#45;&gt;Node3 -->
<g id="edge3" class="edge"><title>Node2&#45;&gt;Node3</title>
<path fill="none" stroke="midnightblue" d="M194.339,-112.083C193.815,-105.006 193.064,-94.8611 192.406,-85.9865"/>
<polygon fill="midnightblue" stroke="midnightblue" points="195.877,-85.4652 191.648,-75.7511 188.897,-85.9823 195.877,-85.4652"/>
</g>
<!-- Node4&#45;&gt;Node2 -->
<g id="edge13" class="edge"><title>Node4&#45;&gt;Node2</title>
<path fill="none" stroke="midnightblue" d="M362.468,-168.444C328.408,-159.201 273.994,-144.436 236.485,-134.257"/>
<polygon fill="midnightblue" stroke="midnightblue" points="236.952,-130.758 226.385,-131.516 235.119,-137.513 236.952,-130.758"/>
</g>
<!-- Node4&#45;&gt;Node5 -->
<g id="edge5" class="edge"><title>Node4&#45;&gt;Node5</title>
<path fill="none" stroke="midnightblue" d="M401.596,-168.083C408.227,-160.298 418.021,-148.801 426.058,-139.367"/>
<polygon fill="midnightblue" stroke="midnightblue" points="428.725,-141.633 432.545,-131.751 423.396,-137.094 428.725,-141.633"/>
</g>
<!-- Node4&#45;&gt;Node12 -->
<g id="edge14" class="edge"><title>Node4&#45;&gt;Node12</title>
<path fill="none" stroke="midnightblue" d="M381.789,-168.324C370.224,-160.107 352.625,-147.602 338.839,-137.807"/>
<polygon fill="midnightblue" stroke="midnightblue" points="340.612,-134.773 330.433,-131.834 336.557,-140.479 340.612,-134.773"/>
</g>
<!-- Node5&#45;&gt;Node3 -->
<g id="edge12" class="edge"><title>Node5&#45;&gt;Node3</title>
<path fill="none" stroke="midnightblue" d="M396.429,-112.428C355.214,-104.188 291.394,-91.0887 227.225,-76.2121"/>
<polygon fill="midnightblue" stroke="midnightblue" points="227.876,-72.7702 217.342,-73.9074 226.286,-79.5872 227.876,-72.7702"/>
</g>
<!-- Node6 -->
<g id="node7" class="node"><title>Node6</title>
<g id="a_node7"><a xlink:href="../../d1/d2e/WrapperVal_8h.xhtml" target="_top" xlink:title="enfield/Support/WrapperVal.h">
<polygon fill="none" stroke="black" points="307,-56.5 307,-75.5 451,-75.5 451,-56.5 307,-56.5"/>
<text text-anchor="middle" x="379" y="-63.5" font-family="Helvetica,sans-Serif" font-size="10.00">enfield/Support/WrapperVal.h</text>
</a>
</g>
</g>
<!-- Node5&#45;&gt;Node6 -->
<g id="edge6" class="edge"><title>Node5&#45;&gt;Node6</title>
<path fill="none" stroke="midnightblue" d="M430.199,-112.324C421.182,-104.341 407.594,-92.3128 396.682,-82.6529"/>
<polygon fill="midnightblue" stroke="midnightblue" points="398.787,-79.8416 388.979,-75.8339 394.147,-85.083 398.787,-79.8416"/>
</g>
<!-- Node5&#45;&gt;Node8 -->
<g id="edge8" class="edge"><title>Node5&#45;&gt;Node8</title>
<path fill="none" stroke="midnightblue" d="M379.471,-112.444C310.593,-102.707 198.355,-86.8408 126.374,-76.6654"/>
<polygon fill="midnightblue" stroke="midnightblue" points="126.447,-73.1411 116.056,-75.2068 125.467,-80.0722 126.447,-73.1411"/>
</g>
<!-- Node9 -->
<g id="node10" class="node"><title>Node9</title>
<polygon fill="none" stroke="#bfbfbf" points="469.5,-56.5 469.5,-75.5 542.5,-75.5 542.5,-56.5 469.5,-56.5"/>
<text text-anchor="middle" x="506" y="-63.5" font-family="Helvetica,sans-Serif" font-size="10.00">initializer_list</text>
</g>
<!-- Node5&#45;&gt;Node9 -->
<g id="edge9" class="edge"><title>Node5&#45;&gt;Node9</title>
<path fill="none" stroke="midnightblue" d="M450.604,-112.324C460.456,-104.263 475.351,-92.0765 487.215,-82.3695"/>
<polygon fill="midnightblue" stroke="midnightblue" points="489.68,-84.8752 495.203,-75.8339 485.247,-79.4575 489.68,-84.8752"/>
</g>
<!-- Node10 -->
<g id="node11" class="node"><title>Node10</title>
<polygon fill="none" stroke="#bfbfbf" points="235,-56.5 235,-75.5 289,-75.5 289,-56.5 235,-56.5"/>
<text text-anchor="middle" x="262" y="-63.5" font-family="Helvetica,sans-Serif" font-size="10.00">iostream</text>
</g>
<!-- Node5&#45;&gt;Node10 -->
<g id="edge10" class="edge"><title>Node5&#45;&gt;Node10</title>
<path fill="none" stroke="midnightblue" d="M411.795,-112.444C381.323,-103.199 332.638,-88.4296 299.087,-78.2511"/>
<polygon fill="midnightblue" stroke="midnightblue" points="299.783,-74.8047 289.197,-75.2508 297.75,-81.5032 299.783,-74.8047"/>
</g>
<!-- Node5&#45;&gt;Node11 -->
<g id="edge11" class="edge"><title>Node5&#45;&gt;Node11</title>
<path fill="none" stroke="midnightblue" d="M462.659,-112.444C486.542,-103.425 524.351,-89.1472 551.211,-79.0043"/>
<polygon fill="midnightblue" stroke="midnightblue" points="552.798,-82.1461 560.917,-75.339 550.325,-75.5975 552.798,-82.1461"/>
</g>
<!-- Node7 -->
<g id="node8" class="node"><title>Node7</title>
<polygon fill="none" stroke="#bfbfbf" points="358.5,-0.5 358.5,-19.5 399.5,-19.5 399.5,-0.5 358.5,-0.5"/>
<text text-anchor="middle" x="379" y="-7.5" font-family="Helvetica,sans-Serif" font-size="10.00">string</text>
</g>
<!-- Node6&#45;&gt;Node7 -->
<g id="edge7" class="edge"><title>Node6&#45;&gt;Node7</title>
<path fill="none" stroke="midnightblue" d="M379,-56.083C379,-49.0059 379,-38.8611 379,-29.9865"/>
<polygon fill="midnightblue" stroke="midnightblue" points="382.5,-29.751 379,-19.7511 375.5,-29.7511 382.5,-29.751"/>
</g>
<!-- Node15&#45;&gt;Node5 -->
<g id="edge21" class="edge"><title>Node15&#45;&gt;Node5</title>
<path fill="none" stroke="midnightblue" d="M492.155,-229.973C530.254,-219.186 582.052,-198.29 561,-168 549.51,-151.469 531.187,-140.998 512.24,-134.37"/>
<polygon fill="midnightblue" stroke="midnightblue" points="513.203,-131.004 502.613,-131.329 511.094,-137.679 513.203,-131.004"/>
</g>
<!-- Node16&#45;&gt;Node3 -->
<g id="edge26" class="edge"><title>Node16&#45;&gt;Node3</title>
<path fill="none" stroke="midnightblue" d="M113.853,-229.976C108.907,-208.301 98.8941,-150.106 123,-112 131.793,-98.0997 146.612,-87.5476 160.175,-80.1676"/>
<polygon fill="midnightblue" stroke="midnightblue" points="161.933,-83.201 169.275,-75.5631 158.772,-76.955 161.933,-83.201"/>
</g>
<!-- Node16&#45;&gt;Node8 -->
<g id="edge24" class="edge"><title>Node16&#45;&gt;Node8</title>
<path fill="none" stroke="midnightblue" d="M108.562,-229.822C100.738,-220.228 88.657,-204.004 82,-188 67.6571,-153.518 61.7182,-109.868 59.3893,-85.5399"/>
<polygon fill="midnightblue" stroke="midnightblue" points="62.8743,-85.2141 58.5354,-75.5485 55.8997,-85.8102 62.8743,-85.2141"/>
</g>
<!-- Node16&#45;&gt;Node17 -->
<g id="edge25" class="edge"><title>Node16&#45;&gt;Node17</title>
<path fill="none" stroke="midnightblue" d="M120.728,-229.975C125.58,-221.227 133.266,-207.369 139.4,-196.309"/>
<polygon fill="midnightblue" stroke="midnightblue" points="142.491,-197.952 144.281,-187.509 136.37,-194.557 142.491,-197.952"/>
</g>
</g>
</svg>
