<?xml version="1.0" encoding="UTF-8" standalone="no"?>
<!DOCTYPE svg PUBLIC "-//W3C//DTD SVG 1.1//EN"
 "http://www.w3.org/Graphics/SVG/1.1/DTD/svg11.dtd">
<!-- Generated by graphviz version 2.40.1 (20161225.0304)
 -->
<!-- Title: lib/Transform/XbitToNumberPass.cpp Pages: 1 -->
<!--zoomable 330 -->
<svg id="main" version="1.1" xmlns="http://www.w3.org/2000/svg" xmlns:xlink="http://www.w3.org/1999/xlink" xml:space="preserve" onload="init(evt)">
<style type="text/css"><![CDATA[
.edge:hover path { stroke: red; }
.edge:hover polygon { stroke: red; fill: red; }
]]></style>
<script type="text/javascript"><![CDATA[
var edges = document.getElementsByTagName('g');
if (edges && edges.length) {
  for (var i=0;i<edges.length;i++) {
    if (edges[i].id.substr(0,4)=='edge') {
      edges[i].setAttribute('class','edge');
    }
  }
}
]]></script>
        <defs>
                <circle id="rim" cx="0" cy="0" r="7"/>
                <circle id="rim2" cx="0" cy="0" r="3.5"/>
                <g id="zoomPlus">
                        <use xlink:href="#rim" fill="#404040">
                                <set attributeName="fill" to="#808080" begin="zoomplus.mouseover" end="zoomplus.mouseout"/>
                        </use>
                        <path d="M-4,0h8M0,-4v8" fill="none" stroke="white" stroke-width="1.5" pointer-events="none"/>
                </g>
                <g id="zoomMin">
                        <use xlink:href="#rim" fill="#404040">
                                <set attributeName="fill" to="#808080" begin="zoomminus.mouseover" end="zoomminus.mouseout"/>
                        </use>
                        <path d="M-4,0h8" fill="none" stroke="white" stroke-width="1.5" pointer-events="none"/>
                </g>
                <g id="dirArrow">
                        <path fill="none" stroke="white" stroke-width="1.5" d="M0,-3.0v7 M-2.5,-0.5L0,-3.0L2.5,-0.5"/>
                </g>
               <g id="resetDef">
                       <use xlink:href="#rim2" fill="#404040">
                               <set attributeName="fill" to="#808080" begin="reset.mouseover" end="reset.mouseout"/>
                       </use>
               </g>
        </defs>

<script type="text/javascript">
var viewWidth = 892;
var viewHeight = 330;
var sectionId = 'dynsection-0';
</script>
<script xlink:href="../../svgpan.js"/>
<svg id="graph" class="graph">
<g id="viewport">
<title>lib/Transform/XbitToNumberPass.cpp</title>
<!-- Node0 -->
<g id="node1" class="node">
<title>Node0</title>
<polygon fill="#bfbfbf" stroke="#000000" points="509.5,-291.5 509.5,-321.5 664.5,-321.5 664.5,-291.5 509.5,-291.5"/>
<text text-anchor="start" x="517.5" y="-309.5" font-family="Helvetica,sans-Serif" font-size="10.00" fill="#000000">lib/Transform/XbitToNumber</text>
<text text-anchor="middle" x="587" y="-298.5" font-family="Helvetica,sans-Serif" font-size="10.00" fill="#000000">Pass.cpp</text>
</g>
<!-- Node1 -->
<g id="node2" class="node">
<title>Node1</title>
<g id="a_node2"><a xlink:href="../../d6/d94/XbitToNumberPass_8h.xhtml" target="_top" xlink:title="enfield/Transform/XbitTo\lNumberPass.h">
<polygon fill="none" stroke="#000000" points="168,-224.5 168,-254.5 306,-254.5 306,-224.5 168,-224.5"/>
<text text-anchor="start" x="176" y="-242.5" font-family="Helvetica,sans-Serif" font-size="10.00" fill="#000000">enfield/Transform/XbitTo</text>
<text text-anchor="middle" x="237" y="-231.5" font-family="Helvetica,sans-Serif" font-size="10.00" fill="#000000">NumberPass.h</text>
</a>
</g>
</g>
<!-- Node0&#45;&gt;Node1 -->
<g id="edge1" class="edge">
<title>Node0&#45;&gt;Node1</title>
<path fill="none" stroke="#191970" d="M509.3237,-291.6305C451.9481,-280.6472 374.1073,-265.7463 316.341,-254.6881"/>
<polygon fill="#191970" stroke="#191970" points="316.6415,-251.1822 306.1618,-252.7395 315.3254,-258.0574 316.6415,-251.1822"/>
</g>
<!-- Node8 -->
<g id="node9" class="node">
<title>Node8</title>
<g id="a_node9"><a xlink:href="../../d5/dfc/RTTI_8h.xhtml" target="_top" xlink:title="enfield/Support/RTTI.h">
<polygon fill="none" stroke="#000000" points="487.5,-56.5 487.5,-75.5 612.5,-75.5 612.5,-56.5 487.5,-56.5"/>
<text text-anchor="middle" x="550" y="-63.5" font-family="Helvetica,sans-Serif" font-size="10.00" fill="#000000">enfield/Support/RTTI.h</text>
</a>
</g>
</g>
<!-- Node0&#45;&gt;Node8 -->
<g id="edge22" class="edge">
<title>Node0&#45;&gt;Node8</title>
<path fill="none" stroke="#191970" d="M581.7528,-291.3937C574.2768,-269.0957 560.8214,-225.9134 555,-188 549.5008,-152.1855 549.1161,-109.8078 549.4677,-85.5979"/>
<polygon fill="#191970" stroke="#191970" points="552.9677,-85.6302 549.6727,-75.5608 545.9691,-85.4872 552.9677,-85.6302"/>
</g>
<!-- Node15 -->
<g id="node16" class="node">
<title>Node15</title>
<g id="a_node16"><a xlink:href="../../d0/d8d/NodeVisitor_8h.xhtml" target="_top" xlink:title="enfield/Analysis/NodeVisitor.h">
<polygon fill="none" stroke="#000000" points="344,-230 344,-249 508,-249 508,-230 344,-230"/>
<text text-anchor="middle" x="426" y="-237" font-family="Helvetica,sans-Serif" font-size="10.00" fill="#000000">enfield/Analysis/NodeVisitor.h</text>
</a>
</g>
</g>
<!-- Node0&#45;&gt;Node15 -->
<g id="edge20" class="edge">
<title>Node0&#45;&gt;Node15</title>
<path fill="none" stroke="#191970" d="M550.8685,-291.4639C523.1246,-279.9183 485.1557,-264.1176 458.3918,-252.9798"/>
<polygon fill="#191970" stroke="#191970" points="459.6553,-249.7147 449.0781,-249.1039 456.9658,-256.1774 459.6553,-249.7147"/>
</g>
<!-- Node16 -->
<g id="node17" class="node">
<title>Node16</title>
<g id="a_node17"><a xlink:href="../../d1/d73/Defs_8h.xhtml" target="_top" xlink:title="enfield/Support/Defs.h">
<polygon fill="none" stroke="#000000" points="677.5,-112.5 677.5,-131.5 802.5,-131.5 802.5,-112.5 677.5,-112.5"/>
<text text-anchor="middle" x="740" y="-119.5" font-family="Helvetica,sans-Serif" font-size="10.00" fill="#000000">enfield/Support/Defs.h</text>
</a>
</g>
</g>
<!-- Node0&#45;&gt;Node16 -->
<g id="edge23" class="edge">
<title>Node0&#45;&gt;Node16</title>
<path fill="none" stroke="#191970" d="M611.3353,-291.3575C641.4912,-271.3478 692.385,-233.2883 721,-188 729.9455,-173.8421 734.7944,-155.3528 737.3492,-141.5465"/>
<polygon fill="#191970" stroke="#191970" points="740.8084,-142.0793 738.9407,-131.6504 733.8972,-140.9678 740.8084,-142.0793"/>
</g>
<!-- Node20 -->
<g id="node21" class="node">
<title>Node20</title>
<g id="a_node21"><a xlink:href="../../dc/d09/uRefCast_8h.xhtml" target="_top" xlink:title="enfield/Support/uRefCast.h">
<polygon fill="none" stroke="#000000" points="564.5,-168.5 564.5,-187.5 711.5,-187.5 711.5,-168.5 564.5,-168.5"/>
<text text-anchor="middle" x="638" y="-175.5" font-family="Helvetica,sans-Serif" font-size="10.00" fill="#000000">enfield/Support/uRefCast.h</text>
</a>
</g>
</g>
<!-- Node0&#45;&gt;Node20 -->
<g id="edge28" class="edge">
<title>Node0&#45;&gt;Node20</title>
<path fill="none" stroke="#191970" d="M593.0506,-291.2548C602.3732,-267.7656 620.2344,-222.7623 630.4101,-197.1235"/>
<polygon fill="#191970" stroke="#191970" points="633.7001,-198.3217 634.136,-187.7358 627.1938,-195.7394 633.7001,-198.3217"/>
</g>
<!-- Node22 -->
<g id="node23" class="node">
<title>Node22</title>
<polygon fill="none" stroke="#bfbfbf" points="768,-230 768,-249 832,-249 832,-230 768,-230"/>
<text text-anchor="middle" x="800" y="-237" font-family="Helvetica,sans-Serif" font-size="10.00" fill="#000000">algorithm</text>
</g>
<!-- Node0&#45;&gt;Node22 -->
<g id="edge33" class="edge">
<title>Node0&#45;&gt;Node22</title>
<path fill="none" stroke="#191970" d="M637.1634,-291.4004C670.381,-281.3107 714.8744,-267.6223 754,-255 756.7068,-254.1267 759.4995,-253.2143 762.3082,-252.2883"/>
<polygon fill="#191970" stroke="#191970" points="763.435,-255.6021 771.8187,-249.1242 761.2252,-248.9601 763.435,-255.6021"/>
</g>
<!-- Node2 -->
<g id="node3" class="node">
<title>Node2</title>
<g id="a_node3"><a xlink:href="../../df/d29/Pass_8h.xhtml" target="_top" xlink:title="enfield/Transform/Pass.h">
<polygon fill="none" stroke="#000000" points="13,-112.5 13,-131.5 151,-131.5 151,-112.5 13,-112.5"/>
<text text-anchor="middle" x="82" y="-119.5" font-family="Helvetica,sans-Serif" font-size="10.00" fill="#000000">enfield/Transform/Pass.h</text>
</a>
</g>
</g>
<!-- Node1&#45;&gt;Node2 -->
<g id="edge2" class="edge">
<title>Node1&#45;&gt;Node2</title>
<path fill="none" stroke="#191970" d="M197.8738,-224.463C177.852,-215.6449 153.8051,-203.2346 135,-188 118.1396,-174.3409 103.0969,-154.4818 93.384,-140.1188"/>
<polygon fill="#191970" stroke="#191970" points="96.21,-138.0453 87.8055,-131.5943 90.3527,-141.8784 96.21,-138.0453"/>
</g>
<!-- Node4 -->
<g id="node5" class="node">
<title>Node4</title>
<g id="a_node5"><a xlink:href="../../d4/d73/QModule_8h.xhtml" target="_top" xlink:title="enfield/Transform/QModule.h">
<polygon fill="none" stroke="#000000" points="144,-168.5 144,-187.5 302,-187.5 302,-168.5 144,-168.5"/>
<text text-anchor="middle" x="223" y="-175.5" font-family="Helvetica,sans-Serif" font-size="10.00" fill="#000000">enfield/Transform/QModule.h</text>
</a>
</g>
</g>
<!-- Node1&#45;&gt;Node4 -->
<g id="edge4" class="edge">
<title>Node1&#45;&gt;Node4</title>
<path fill="none" stroke="#191970" d="M233.5393,-224.2977C231.7174,-216.2945 229.4615,-206.3843 227.5048,-197.7889"/>
<polygon fill="#191970" stroke="#191970" points="230.874,-196.8206 225.2416,-187.8469 224.0486,-198.3744 230.874,-196.8206"/>
</g>
<!-- Node5 -->
<g id="node6" class="node">
<title>Node5</title>
<g id="a_node6"><a xlink:href="../../d4/daf/Nodes_8h.xhtml" target="_top" xlink:title="enfield/Analysis/Nodes.h">
<polygon fill="none" stroke="#000000" points="319.5,-112.5 319.5,-131.5 456.5,-131.5 456.5,-112.5 319.5,-112.5"/>
<text text-anchor="middle" x="388" y="-119.5" font-family="Helvetica,sans-Serif" font-size="10.00" fill="#000000">enfield/Analysis/Nodes.h</text>
</a>
</g>
</g>
<!-- Node1&#45;&gt;Node5 -->
<g id="edge15" class="edge">
<title>Node1&#45;&gt;Node5</title>
<path fill="none" stroke="#191970" d="M268.9005,-224.2941C286.8219,-215.0236 309.1115,-202.2377 327,-188 344.9954,-173.6772 362.4918,-153.9662 374.0974,-139.821"/>
<polygon fill="#191970" stroke="#191970" points="376.9815,-141.8193 380.5141,-131.8307 371.5236,-137.4362 376.9815,-141.8193"/>
</g>
<!-- Node11 -->
<g id="node12" class="node">
<title>Node11</title>
<polygon fill="none" stroke="#bfbfbf" points="630.5,-56.5 630.5,-75.5 677.5,-75.5 677.5,-56.5 630.5,-56.5"/>
<text text-anchor="middle" x="654" y="-63.5" font-family="Helvetica,sans-Serif" font-size="10.00" fill="#000000">vector</text>
</g>
<!-- Node1&#45;&gt;Node11 -->
<g id="edge17" class="edge">
<title>Node1&#45;&gt;Node11</title>
<path fill="none" stroke="#191970" d="M273.2765,-224.4065C353.493,-191.0311 544.8737,-111.4039 621.4813,-79.53"/>
<polygon fill="#191970" stroke="#191970" points="623.1972,-82.607 631.0854,-75.534 620.5081,-76.1441 623.1972,-82.607"/>
</g>
<!-- Node12 -->
<g id="node13" class="node">
<title>Node12</title>
<polygon fill="none" stroke="#bfbfbf" points="169.5,-112.5 169.5,-131.5 262.5,-131.5 262.5,-112.5 169.5,-112.5"/>
<text text-anchor="middle" x="216" y="-119.5" font-family="Helvetica,sans-Serif" font-size="10.00" fill="#000000">unordered_map</text>
</g>
<!-- Node1&#45;&gt;Node12 -->
<g id="edge16" class="edge">
<title>Node1&#45;&gt;Node12</title>
<path fill="none" stroke="#191970" d="M272.1304,-224.4217C297.5656,-211.2122 325.185,-190.6289 311,-168 301.3181,-152.5548 284.8162,-142.1672 268.2563,-135.2389"/>
<polygon fill="#191970" stroke="#191970" points="269.1415,-131.831 258.5505,-131.5472 266.6529,-138.3737 269.1415,-131.831"/>
</g>
<!-- Node13 -->
<g id="node14" class="node">
<title>Node13</title>
<polygon fill="none" stroke="#bfbfbf" points="0,-168.5 0,-187.5 32,-187.5 32,-168.5 0,-168.5"/>
<text text-anchor="middle" x="16" y="-175.5" font-family="Helvetica,sans-Serif" font-size="10.00" fill="#000000">set</text>
</g>
<!-- Node1&#45;&gt;Node13 -->
<g id="edge18" class="edge">
<title>Node1&#45;&gt;Node13</title>
<path fill="none" stroke="#191970" d="M171.5228,-224.4432C135.5472,-215.6721 90.0426,-203.768 41.7284,-187.9641"/>
<polygon fill="#191970" stroke="#191970" points="42.6234,-184.5736 32.0301,-184.7511 40.422,-191.2184 42.6234,-184.5736"/>
</g>
<!-- Node14 -->
<g id="node15" class="node">
<title>Node14</title>
<polygon fill="none" stroke="#bfbfbf" points="50,-168.5 50,-187.5 88,-187.5 88,-168.5 50,-168.5"/>
<text text-anchor="middle" x="69" y="-175.5" font-family="Helvetica,sans-Serif" font-size="10.00" fill="#000000">map</text>
</g>
<!-- Node1&#45;&gt;Node14 -->
<g id="edge19" class="edge">
<title>Node1&#45;&gt;Node14</title>
<path fill="none" stroke="#191970" d="M195.9026,-224.4554C165.5825,-213.3561 125.0683,-198.525 98.0571,-188.637"/>
<polygon fill="#191970" stroke="#191970" points="99.0091,-185.2584 88.4153,-185.1074 96.6027,-191.8318 99.0091,-185.2584"/>
</g>
<!-- Node3 -->
<g id="node4" class="node">
<title>Node3</title>
<polygon fill="none" stroke="#bfbfbf" points="53,-56.5 53,-75.5 111,-75.5 111,-56.5 53,-56.5"/>
<text text-anchor="middle" x="82" y="-63.5" font-family="Helvetica,sans-Serif" font-size="10.00" fill="#000000">memory</text>
</g>
<!-- Node2&#45;&gt;Node3 -->
<g id="edge3" class="edge">
<title>Node2&#45;&gt;Node3</title>
<path fill="none" stroke="#191970" d="M82,-112.2455C82,-104.9382 82,-94.6944 82,-85.7046"/>
<polygon fill="#191970" stroke="#191970" points="85.5001,-85.6426 82,-75.6427 78.5001,-85.6427 85.5001,-85.6426"/>
</g>
<!-- Node4&#45;&gt;Node2 -->
<g id="edge13" class="edge">
<title>Node4&#45;&gt;Node2</title>
<path fill="none" stroke="#191970" d="M198.7612,-168.3733C175.7211,-159.2226 140.8786,-145.3844 115.2499,-135.2057"/>
<polygon fill="#191970" stroke="#191970" points="116.5082,-131.9395 105.9225,-131.5011 113.9244,-138.4452 116.5082,-131.9395"/>
</g>
<!-- Node4&#45;&gt;Node5 -->
<g id="edge5" class="edge">
<title>Node4&#45;&gt;Node5</title>
<path fill="none" stroke="#191970" d="M251.3645,-168.3733C278.6827,-159.1016 320.1796,-145.0178 350.2738,-134.804"/>
<polygon fill="#191970" stroke="#191970" points="351.661,-138.0294 360.0056,-131.5011 349.4113,-131.4008 351.661,-138.0294"/>
</g>
<!-- Node4&#45;&gt;Node12 -->
<g id="edge14" class="edge">
<title>Node4&#45;&gt;Node12</title>
<path fill="none" stroke="#191970" d="M221.7807,-168.2455C220.8673,-160.9382 219.5868,-150.6944 218.4631,-141.7046"/>
<polygon fill="#191970" stroke="#191970" points="221.9187,-141.1313 217.2053,-131.6427 214.9728,-141.9996 221.9187,-141.1313"/>
</g>
<!-- Node5&#45;&gt;Node3 -->
<g id="edge12" class="edge">
<title>Node5&#45;&gt;Node3</title>
<path fill="none" stroke="#191970" d="M322.9812,-112.468C270.8579,-104.4544 195.6556,-92.0611 121.3922,-76.1689"/>
<polygon fill="#191970" stroke="#191970" points="121.9111,-72.7003 111.3972,-74.0073 120.4314,-79.5421 121.9111,-72.7003"/>
</g>
<!-- Node6 -->
<g id="node7" class="node">
<title>Node6</title>
<g id="a_node7"><a xlink:href="../../d1/d2e/WrapperVal_8h.xhtml" target="_top" xlink:title="enfield/Support/WrapperVal.h">
<polygon fill="none" stroke="#000000" points="129,-56.5 129,-75.5 289,-75.5 289,-56.5 129,-56.5"/>
<text text-anchor="middle" x="209" y="-63.5" font-family="Helvetica,sans-Serif" font-size="10.00" fill="#000000">enfield/Support/WrapperVal.h</text>
</a>
</g>
</g>
<!-- Node5&#45;&gt;Node6 -->
<g id="edge6" class="edge">
<title>Node5&#45;&gt;Node6</title>
<path fill="none" stroke="#191970" d="M357.2288,-112.3733C327.335,-103.021 281.7907,-88.7725 249.0783,-78.5385"/>
<polygon fill="#191970" stroke="#191970" points="249.9586,-75.1466 239.3697,-75.5011 247.8685,-81.8273 249.9586,-75.1466"/>
</g>
<!-- Node5&#45;&gt;Node8 -->
<g id="edge8" class="edge">
<title>Node5&#45;&gt;Node8</title>
<path fill="none" stroke="#191970" d="M415.8488,-112.3733C442.6703,-103.1016 483.4127,-89.0178 512.9598,-78.804"/>
<polygon fill="#191970" stroke="#191970" points="514.2069,-82.0762 522.5146,-75.5011 511.9198,-75.4603 514.2069,-82.0762"/>
</g>
<!-- Node9 -->
<g id="node10" class="node">
<title>Node9</title>
<polygon fill="none" stroke="#bfbfbf" points="307.5,-56.5 307.5,-75.5 390.5,-75.5 390.5,-56.5 307.5,-56.5"/>
<text text-anchor="middle" x="349" y="-63.5" font-family="Helvetica,sans-Serif" font-size="10.00" fill="#000000">initializer_list</text>
</g>
<!-- Node5&#45;&gt;Node9 -->
<g id="edge9" class="edge">
<title>Node5&#45;&gt;Node9</title>
<path fill="none" stroke="#191970" d="M381.2067,-112.2455C375.7822,-104.4564 368.0339,-93.3308 361.4967,-83.9439"/>
<polygon fill="#191970" stroke="#191970" points="364.3025,-81.8485 355.7154,-75.6427 358.5583,-85.849 364.3025,-81.8485"/>
</g>
<!-- Node10 -->
<g id="node11" class="node">
<title>Node10</title>
<polygon fill="none" stroke="#bfbfbf" points="409,-56.5 409,-75.5 469,-75.5 469,-56.5 409,-56.5"/>
<text text-anchor="middle" x="439" y="-63.5" font-family="Helvetica,sans-Serif" font-size="10.00" fill="#000000">iostream</text>
</g>
<!-- Node5&#45;&gt;Node10 -->
<g id="edge10" class="edge">
<title>Node5&#45;&gt;Node10</title>
<path fill="none" stroke="#191970" d="M396.8835,-112.2455C404.1966,-104.2155 414.7391,-92.6394 423.4467,-83.0781"/>
<polygon fill="#191970" stroke="#191970" points="426.0727,-85.3928 430.2183,-75.6427 420.8972,-80.6795 426.0727,-85.3928"/>
</g>
<!-- Node5&#45;&gt;Node11 -->
<g id="edge11" class="edge">
<title>Node5&#45;&gt;Node11</title>
<path fill="none" stroke="#191970" d="M444.371,-112.4903C489.5542,-104.4999 554.733,-92.1515 620.5693,-75.9172"/>
<polygon fill="#191970" stroke="#191970" points="621.4296,-79.3099 630.2853,-73.4938 619.7356,-72.518 621.4296,-79.3099"/>
</g>
<!-- Node7 -->
<g id="node8" class="node">
<title>Node7</title>
<polygon fill="none" stroke="#bfbfbf" points="187,-.5 187,-19.5 231,-19.5 231,-.5 187,-.5"/>
<text text-anchor="middle" x="209" y="-7.5" font-family="Helvetica,sans-Serif" font-size="10.00" fill="#000000">string</text>
</g>
<!-- Node6&#45;&gt;Node7 -->
<g id="edge7" class="edge">
<title>Node6&#45;&gt;Node7</title>
<path fill="none" stroke="#191970" d="M209,-56.2455C209,-48.9382 209,-38.6944 209,-29.7046"/>
<polygon fill="#191970" stroke="#191970" points="212.5001,-29.6426 209,-19.6427 205.5001,-29.6427 212.5001,-29.6426"/>
</g>
<!-- Node15&#45;&gt;Node5 -->
<g id="edge21" class="edge">
<title>Node15&#45;&gt;Node5</title>
<path fill="none" stroke="#191970" d="M422.8903,-229.8845C416.6553,-210.6053 402.5196,-166.8963 394.2818,-141.4241"/>
<polygon fill="#191970" stroke="#191970" points="397.56,-140.1862 391.1527,-131.7484 390.8997,-142.3402 397.56,-140.1862"/>
</g>
<!-- Node16&#45;&gt;Node11 -->
<g id="edge24" class="edge">
<title>Node16&#45;&gt;Node11</title>
<path fill="none" stroke="#191970" d="M725.0199,-112.2455C711.8249,-103.6534 692.3949,-91.0014 677.1921,-81.1018"/>
<polygon fill="#191970" stroke="#191970" points="679.0983,-78.1665 668.8084,-75.6427 675.2785,-84.0325 679.0983,-78.1665"/>
</g>
<!-- Node17 -->
<g id="node18" class="node">
<title>Node17</title>
<polygon fill="none" stroke="#bfbfbf" points="696,-56.5 696,-75.5 746,-75.5 746,-56.5 696,-56.5"/>
<text text-anchor="middle" x="721" y="-63.5" font-family="Helvetica,sans-Serif" font-size="10.00" fill="#000000">cstdint</text>
</g>
<!-- Node16&#45;&gt;Node17 -->
<g id="edge25" class="edge">
<title>Node16&#45;&gt;Node17</title>
<path fill="none" stroke="#191970" d="M736.6905,-112.2455C734.1567,-104.7776 730.5823,-94.2427 727.485,-85.1137"/>
<polygon fill="#191970" stroke="#191970" points="730.7991,-83.9879 724.2716,-75.6427 724.1702,-86.237 730.7991,-83.9879"/>
</g>
<!-- Node18 -->
<g id="node19" class="node">
<title>Node18</title>
<polygon fill="none" stroke="#bfbfbf" points="764,-56.5 764,-75.5 808,-75.5 808,-56.5 764,-56.5"/>
<text text-anchor="middle" x="786" y="-63.5" font-family="Helvetica,sans-Serif" font-size="10.00" fill="#000000">limits</text>
</g>
<!-- Node16&#45;&gt;Node18 -->
<g id="edge26" class="edge">
<title>Node16&#45;&gt;Node18</title>
<path fill="none" stroke="#191970" d="M748.0126,-112.2455C754.4768,-104.3761 763.7385,-93.101 771.4983,-83.6542"/>
<polygon fill="#191970" stroke="#191970" points="774.4364,-85.5916 778.0792,-75.6427 769.0273,-81.1484 774.4364,-85.5916"/>
</g>
<!-- Node19 -->
<g id="node20" class="node">
<title>Node19</title>
<polygon fill="none" stroke="#bfbfbf" points="826.5,-56.5 826.5,-75.5 883.5,-75.5 883.5,-56.5 826.5,-56.5"/>
<text text-anchor="middle" x="855" y="-63.5" font-family="Helvetica,sans-Serif" font-size="10.00" fill="#000000">ostream</text>
</g>
<!-- Node16&#45;&gt;Node19 -->
<g id="edge27" class="edge">
<title>Node16&#45;&gt;Node19</title>
<path fill="none" stroke="#191970" d="M759.7692,-112.3733C778.1469,-103.4241 805.7312,-89.9917 826.4893,-79.8835"/>
<polygon fill="#191970" stroke="#191970" points="828.0304,-83.026 835.4888,-75.5011 824.9657,-76.7325 828.0304,-83.026"/>
</g>
<!-- Node20&#45;&gt;Node3 -->
<g id="edge31" class="edge">
<title>Node20&#45;&gt;Node3</title>
<path fill="none" stroke="#191970" d="M564.4727,-174.7082C496.96,-170.0528 394.8344,-158.8565 310,-132 291.4287,-126.1208 289.2721,-118.7517 271,-112 209.1918,-89.1614 188.7516,-92.4162 120.9229,-76.1438"/>
<polygon fill="#191970" stroke="#191970" points="121.5745,-72.6999 111.0282,-73.7133 119.9046,-79.4978 121.5745,-72.6999"/>
</g>
<!-- Node20&#45;&gt;Node8 -->
<g id="edge29" class="edge">
<title>Node20&#45;&gt;Node8</title>
<path fill="none" stroke="#191970" d="M627.3875,-168.3038C617.8618,-159.342 603.7637,-145.422 593,-132 580.8829,-116.8903 569.0123,-98.299 560.824,-84.7027"/>
<polygon fill="#191970" stroke="#191970" points="563.6654,-82.6315 555.5616,-75.8065 557.6405,-86.1954 563.6654,-82.6315"/>
</g>
<!-- Node20&#45;&gt;Node16 -->
<g id="edge30" class="edge">
<title>Node20&#45;&gt;Node16</title>
<path fill="none" stroke="#191970" d="M655.767,-168.2455C671.7095,-159.4928 695.3259,-146.527 713.4989,-136.5496"/>
<polygon fill="#191970" stroke="#191970" points="715.3552,-139.5233 722.4366,-131.6427 711.9863,-133.3873 715.3552,-139.5233"/>
</g>
<!-- Node21 -->
<g id="node22" class="node">
<title>Node21</title>
<polygon fill="none" stroke="#bfbfbf" points="602.5,-112.5 602.5,-131.5 659.5,-131.5 659.5,-112.5 602.5,-112.5"/>
<text text-anchor="middle" x="631" y="-119.5" font-family="Helvetica,sans-Serif" font-size="10.00" fill="#000000">typeinfo</text>
</g>
<!-- Node20&#45;&gt;Node21 -->
<g id="edge32" class="edge">
<title>Node20&#45;&gt;Node21</title>
<path fill="none" stroke="#191970" d="M636.7807,-168.2455C635.8673,-160.9382 634.5868,-150.6944 633.4631,-141.7046"/>
<polygon fill="#191970" stroke="#191970" points="636.9187,-141.1313 632.2053,-131.6427 629.9728,-141.9996 636.9187,-141.1313"/>
</g>
</g>
</svg>
        <g id="navigator" transform="translate(0 0)" fill="#404254">
                <rect fill="#f2f5e9" fill-opacity="0.5" stroke="#606060" stroke-width=".5" x="0" y="0" width="60" height="60"/>
                <use id="zoomplus" xlink:href="#zoomPlus" x="17" y="9" onmousedown="handleZoom(evt,'in')"/>
                <use id="zoomminus" xlink:href="#zoomMin" x="42" y="9" onmousedown="handleZoom(evt,'out')"/>
                <use id="reset" xlink:href="#resetDef" x="30" y="36" onmousedown="handleReset()"/>
                <g id="arrowUp" xlink:href="#dirArrow" transform="translate(30 24)" onmousedown="handlePan(0,-1)">
                  <use xlink:href="#rim" fill="#404040">
                        <set attributeName="fill" to="#808080" begin="arrowUp.mouseover" end="arrowUp.mouseout"/>
                  </use>
                  <path fill="none" stroke="white" stroke-width="1.5" d="M0,-3.0v7 M-2.5,-0.5L0,-3.0L2.5,-0.5"/>
                </g>
                <g id="arrowRight" xlink:href="#dirArrow" transform="rotate(90) translate(36 -43)" onmousedown="handlePan(1,0)">
                  <use xlink:href="#rim" fill="#404040">
                        <set attributeName="fill" to="#808080" begin="arrowRight.mouseover" end="arrowRight.mouseout"/>
                  </use>
                  <path fill="none" stroke="white" stroke-width="1.5" d="M0,-3.0v7 M-2.5,-0.5L0,-3.0L2.5,-0.5"/>
                </g>
                <g id="arrowDown" xlink:href="#dirArrow" transform="rotate(180) translate(-30 -48)" onmousedown="handlePan(0,1)">
                  <use xlink:href="#rim" fill="#404040">
                        <set attributeName="fill" to="#808080" begin="arrowDown.mouseover" end="arrowDown.mouseout"/>
                  </use>
                  <path fill="none" stroke="white" stroke-width="1.5" d="M0,-3.0v7 M-2.5,-0.5L0,-3.0L2.5,-0.5"/>
                </g>
                <g id="arrowLeft" xlink:href="#dirArrow" transform="rotate(270) translate(-36 17)" onmousedown="handlePan(-1,0)">
                  <use xlink:href="#rim" fill="#404040">
                        <set attributeName="fill" to="#808080" begin="arrowLeft.mouseover" end="arrowLeft.mouseout"/>
                  </use>
                  <path fill="none" stroke="white" stroke-width="1.5" d="M0,-3.0v7 M-2.5,-0.5L0,-3.0L2.5,-0.5"/>
                </g>
        </g>
        <svg viewBox="0 0 15 15" width="100%" height="30px" preserveAspectRatio="xMaxYMin meet">
         <g id="arrow_out" transform="scale(0.3 0.3)">
          <a xlink:href="XbitToNumberPass_8cpp__incl_org.svg" target="_base">
           <rect id="button" ry="5" rx="5" y="6" x="6" height="38" width="38"
                fill="#f2f5e9" fill-opacity="0.5" stroke="#606060" stroke-width="1.0"/>
           <path id="arrow"
             d="M 11.500037,31.436501 C 11.940474,20.09759 22.043105,11.32322 32.158766,21.979434 L 37.068811,17.246167 C 37.068811,17.246167 37.088388,32 37.088388,32 L 22.160133,31.978069 C 22.160133,31.978069 26.997745,27.140456 26.997745,27.140456 C 18.528582,18.264221 13.291696,25.230495 11.500037,31.436501 z"
             style="fill:#404040;"/>
          </a>
         </g>
        </svg>
</svg>
