<?xml version="1.0" encoding="UTF-8" standalone="no"?>
<!DOCTYPE svg PUBLIC "-//W3C//DTD SVG 1.1//EN"
 "http://www.w3.org/Graphics/SVG/1.1/DTD/svg11.dtd">
<!-- Generated by graphviz version 2.40.1 (20161225.0304)
 -->
<!-- Title: efd::SwapCostEstimator::estimate Pages: 1 -->
<svg width="428pt" height="88pt"
 viewBox="0.00 0.00 428.00 88.00" xmlns="http://www.w3.org/2000/svg" xmlns:xlink="http://www.w3.org/1999/xlink">
<g id="graph0" class="graph" transform="scale(1 1) rotate(0) translate(4 84)">
<title>efd::SwapCostEstimator::estimate</title>
<!-- Node3 -->
<g id="node1" class="node">
<title>Node3</title>
<polygon fill="#bfbfbf" stroke="#000000" points="0,-24.5 0,-54.5 134,-54.5 134,-24.5 0,-24.5"/>
<text text-anchor="start" x="8" y="-42.5" font-family="Helvetica,sans-Serif" font-size="10.00" fill="#000000">efd::SwapCostEstimator</text>
<text text-anchor="middle" x="67" y="-31.5" font-family="Helvetica,sans-Serif" font-size="10.00" fill="#000000">::estimate</text>
</g>
<!-- Node4 -->
<g id="node2" class="node">
<title>Node4</title>
<g id="a_node2"><a xlink:href="../../db/d43/structefd_1_1SwapCostEstimator.xhtml#af213c604a655aedee2ca67fefb2992c8" target="_top" xlink:title="efd::SwapCostEstimator\l::checkGraphSet">
<polygon fill="none" stroke="#000000" points="170,-49.5 170,-79.5 304,-79.5 304,-49.5 170,-49.5"/>
<text text-anchor="start" x="178" y="-67.5" font-family="Helvetica,sans-Serif" font-size="10.00" fill="#000000">efd::SwapCostEstimator</text>
<text text-anchor="middle" x="237" y="-56.5" font-family="Helvetica,sans-Serif" font-size="10.00" fill="#000000">::checkGraphSet</text>
</a>
</g>
</g>
<!-- Node3&#45;&gt;Node4 -->
<g id="edge1" class="edge">
<title>Node3&#45;&gt;Node4</title>
<path fill="none" stroke="#191970" d="M134.1885,-49.3807C142.5935,-50.6167 151.2417,-51.8885 159.7842,-53.1447"/>
<polygon fill="#191970" stroke="#191970" points="159.34,-56.617 169.7428,-54.6092 160.3585,-49.6915 159.34,-56.617"/>
</g>
<!-- Node6 -->
<g id="node4" class="node">
<title>Node6</title>
<g id="a_node4"><a xlink:href="../../db/d43/structefd_1_1SwapCostEstimator.xhtml#a63bbfd0654a51eb98a47188b05b778c3" target="_top" xlink:title="efd::SwapCostEstimator\l::estimateImpl">
<polygon fill="none" stroke="#000000" points="170,-.5 170,-30.5 304,-30.5 304,-.5 170,-.5"/>
<text text-anchor="start" x="178" y="-18.5" font-family="Helvetica,sans-Serif" font-size="10.00" fill="#000000">efd::SwapCostEstimator</text>
<text text-anchor="middle" x="237" y="-7.5" font-family="Helvetica,sans-Serif" font-size="10.00" fill="#000000">::estimateImpl</text>
</a>
</g>
</g>
<!-- Node3&#45;&gt;Node6 -->
<g id="edge3" class="edge">
<title>Node3&#45;&gt;Node6</title>
<path fill="none" stroke="#191970" d="M134.1885,-30.0146C142.5935,-28.828 151.2417,-27.6071 159.7842,-26.4011"/>
<polygon fill="#191970" stroke="#191970" points="160.3303,-29.8588 169.7428,-24.9951 159.3517,-22.9275 160.3303,-29.8588"/>
</g>
<!-- Node5 -->
<g id="node3" class="node">
<title>Node5</title>
<g id="a_node3"><a xlink:href="../../d4/deb/namespaceefd.xhtml#af3487901a239a99750dc5dcdc3a8c868" target="_top" xlink:title="efd::ExitWith">
<polygon fill="none" stroke="#000000" points="340,-55 340,-74 420,-74 420,-55 340,-55"/>
<text text-anchor="middle" x="380" y="-62" font-family="Helvetica,sans-Serif" font-size="10.00" fill="#000000">efd::ExitWith</text>
</a>
</g>
</g>
<!-- Node4&#45;&gt;Node5 -->
<g id="edge2" class="edge">
<title>Node4&#45;&gt;Node5</title>
<path fill="none" stroke="#191970" d="M304.3127,-64.5C312.8698,-64.5 321.5071,-64.5 329.7322,-64.5"/>
<polygon fill="#191970" stroke="#191970" points="329.8931,-68.0001 339.8931,-64.5 329.8931,-61.0001 329.8931,-68.0001"/>
</g>
</g>
</svg>
