<?xml version="1.0" encoding="UTF-8" standalone="no"?>
<!DOCTYPE svg PUBLIC "-//W3C//DTD SVG 1.1//EN"
 "http://www.w3.org/Graphics/SVG/1.1/DTD/svg11.dtd">
<!-- Generated by graphviz version 2.38.0 (20140413.2041)
 -->
<!-- Title: efd::NDGateDecl::cloneImpl Pages: 1 -->
<svg width="1166pt" height="256pt"
 viewBox="0.00 0.00 1166.00 256.00" xmlns="http://www.w3.org/2000/svg" xmlns:xlink="http://www.w3.org/1999/xlink">
<g id="graph0" class="graph" transform="scale(1 1) rotate(0) translate(4 252)">
<title>efd::NDGateDecl::cloneImpl</title>
<!-- Node10 -->
<g id="node1" class="node"><title>Node10</title>
<polygon fill="#bfbfbf" stroke="black" points="0,-114.5 0,-133.5 140,-133.5 140,-114.5 0,-114.5"/>
<text text-anchor="middle" x="70" y="-121.5" font-family="Helvetica,sans-Serif" font-size="10.00">efd::NDGateDecl::cloneImpl</text>
</g>
<!-- Node11 -->
<g id="node2" class="node"><title>Node11</title>
<g id="a_node2"><a xlink:href="../../d6/d6a/classefd_1_1Node.xhtml#a6c85c9bd21014b73497de741cc75f706" target="_top" xlink:title="Clones the current node (deep copy). ">
<polygon fill="none" stroke="black" points="205.5,-228.5 205.5,-247.5 294.5,-247.5 294.5,-228.5 205.5,-228.5"/>
<text text-anchor="middle" x="250" y="-235.5" font-family="Helvetica,sans-Serif" font-size="10.00">efd::Node::clone</text>
</a>
</g>
</g>
<!-- Node10&#45;&gt;Node11 -->
<g id="edge1" class="edge"><title>Node10&#45;&gt;Node11</title>
<path fill="none" stroke="midnightblue" d="M78.8589,-133.732C94.9749,-153.027 133.818,-196.227 176,-219 182.039,-222.26 188.665,-224.982 195.384,-227.249"/>
<polygon fill="midnightblue" stroke="midnightblue" points="194.652,-230.685 205.238,-230.255 196.694,-223.989 194.652,-230.685"/>
</g>
<!-- Node13 -->
<g id="node4" class="node"><title>Node13</title>
<g id="a_node4"><a xlink:href="../../d1/d4b/classefd_1_1NDGateDecl.xhtml#a7a7d18846b03a9ddd85b0d876a867c17" target="_top" xlink:title="Creates a new instance of this node. ">
<polygon fill="none" stroke="black" points="186,-190.5 186,-209.5 314,-209.5 314,-190.5 186,-190.5"/>
<text text-anchor="middle" x="250" y="-197.5" font-family="Helvetica,sans-Serif" font-size="10.00">efd::NDGateDecl::Create</text>
</a>
</g>
</g>
<!-- Node10&#45;&gt;Node13 -->
<g id="edge3" class="edge"><title>Node10&#45;&gt;Node13</title>
<path fill="none" stroke="midnightblue" d="M85.7432,-133.505C105.568,-145.93 142.237,-167.672 176,-181 182.22,-183.455 188.863,-185.687 195.513,-187.687"/>
<polygon fill="midnightblue" stroke="midnightblue" points="194.636,-191.076 205.212,-190.45 196.553,-184.344 194.636,-191.076"/>
</g>
<!-- Node20 -->
<g id="node11" class="node"><title>Node20</title>
<g id="a_node11"><a xlink:href="../../db/d1f/classefd_1_1NDGateSign.xhtml#a0be5984f118128bc3e2bf64a8a390071" target="_top" xlink:title="Gets the args node. ">
<polygon fill="none" stroke="black" points="184.5,-152.5 184.5,-171.5 315.5,-171.5 315.5,-152.5 184.5,-152.5"/>
<text text-anchor="middle" x="250" y="-159.5" font-family="Helvetica,sans-Serif" font-size="10.00">efd::NDGateSign::getArgs</text>
</a>
</g>
</g>
<!-- Node10&#45;&gt;Node20 -->
<g id="edge12" class="edge"><title>Node10&#45;&gt;Node20</title>
<path fill="none" stroke="midnightblue" d="M115.917,-133.589C139.829,-138.694 169.421,-145.011 194.625,-150.392"/>
<polygon fill="midnightblue" stroke="midnightblue" points="193.896,-153.815 204.406,-152.48 195.357,-146.969 193.896,-153.815"/>
</g>
<!-- Node22 -->
<g id="node13" class="node"><title>Node22</title>
<g id="a_node13"><a xlink:href="../../d1/d4b/classefd_1_1NDGateDecl.xhtml#aa45195dbaf1b921fcece3cac5caaceac" target="_top" xlink:title="Gets the goplist node. ">
<polygon fill="none" stroke="black" points="176,-114.5 176,-133.5 324,-133.5 324,-114.5 176,-114.5"/>
<text text-anchor="middle" x="250" y="-121.5" font-family="Helvetica,sans-Serif" font-size="10.00">efd::NDGateDecl::getGOpList</text>
</a>
</g>
</g>
<!-- Node10&#45;&gt;Node22 -->
<g id="edge14" class="edge"><title>Node10&#45;&gt;Node22</title>
<path fill="none" stroke="midnightblue" d="M140.074,-124C148.503,-124 157.183,-124 165.79,-124"/>
<polygon fill="midnightblue" stroke="midnightblue" points="165.842,-127.5 175.842,-124 165.842,-120.5 165.842,-127.5"/>
</g>
<!-- Node23 -->
<g id="node14" class="node"><title>Node23</title>
<g id="a_node14"><a xlink:href="../../d0/d9e/classefd_1_1NDDecl.xhtml#a34957c2122c38cebf80a264d5fa3863f" target="_top" xlink:title="Gets the id node. ">
<polygon fill="none" stroke="black" points="200.5,-76.5 200.5,-95.5 299.5,-95.5 299.5,-76.5 200.5,-76.5"/>
<text text-anchor="middle" x="250" y="-83.5" font-family="Helvetica,sans-Serif" font-size="10.00">efd::NDDecl::getId</text>
</a>
</g>
</g>
<!-- Node10&#45;&gt;Node23 -->
<g id="edge16" class="edge"><title>Node10&#45;&gt;Node23</title>
<path fill="none" stroke="midnightblue" d="M115.917,-114.411C139.829,-109.306 169.421,-102.989 194.625,-97.6082"/>
<polygon fill="midnightblue" stroke="midnightblue" points="195.357,-101.031 204.406,-95.5201 193.896,-94.185 195.357,-101.031"/>
</g>
<!-- Node24 -->
<g id="node15" class="node"><title>Node24</title>
<g id="a_node15"><a xlink:href="../../db/d1f/classefd_1_1NDGateSign.xhtml#a081605b4c294930734e9d93b34ef85d0" target="_top" xlink:title="Gets the qargs node. ">
<polygon fill="none" stroke="black" points="180.5,-38.5 180.5,-57.5 319.5,-57.5 319.5,-38.5 180.5,-38.5"/>
<text text-anchor="middle" x="250" y="-45.5" font-family="Helvetica,sans-Serif" font-size="10.00">efd::NDGateSign::getQArgs</text>
</a>
</g>
</g>
<!-- Node10&#45;&gt;Node24 -->
<g id="edge18" class="edge"><title>Node10&#45;&gt;Node24</title>
<path fill="none" stroke="midnightblue" d="M85.7432,-114.495C105.568,-102.07 142.237,-80.3284 176,-67 182.22,-64.5446 188.863,-62.3128 195.513,-60.3131"/>
<polygon fill="midnightblue" stroke="midnightblue" points="196.553,-63.656 205.212,-57.5503 194.636,-56.9238 196.553,-63.656"/>
</g>
<!-- Node25 -->
<g id="node16" class="node"><title>Node25</title>
<g id="a_node16"><a xlink:href="../../d4/deb/namespaceefd.xhtml#ad7adca0e4de58074aa3f91827469a491" target="_top" xlink:title="Uses the RTTI framework to cast forwardly an unique_ptr. ">
<polygon fill="none" stroke="black" points="189.5,-0.5 189.5,-19.5 310.5,-19.5 310.5,-0.5 189.5,-0.5"/>
<text text-anchor="middle" x="250" y="-7.5" font-family="Helvetica,sans-Serif" font-size="10.00">efd::uniqueCastForward</text>
</a>
</g>
</g>
<!-- Node10&#45;&gt;Node25 -->
<g id="edge20" class="edge"><title>Node10&#45;&gt;Node25</title>
<path fill="none" stroke="midnightblue" d="M78.8589,-114.268C94.9749,-94.9732 133.818,-51.7729 176,-29 180.242,-26.7098 184.774,-24.6853 189.424,-22.8976"/>
<polygon fill="midnightblue" stroke="midnightblue" points="190.778,-26.1326 199.081,-19.5511 188.486,-19.5185 190.778,-26.1326"/>
</g>
<!-- Node12 -->
<g id="node3" class="node"><title>Node12</title>
<g id="a_node3"><a xlink:href="../../d6/d6a/classefd_1_1Node.xhtml#ac078ce64eb404cfdc24b9288908536e4" target="_top" xlink:title="Clones the current node (deep copy). ">
<polygon fill="none" stroke="black" points="384,-228.5 384,-247.5 491,-247.5 491,-228.5 384,-228.5"/>
<text text-anchor="middle" x="437.5" y="-235.5" font-family="Helvetica,sans-Serif" font-size="10.00">efd::Node::cloneImpl</text>
</a>
</g>
</g>
<!-- Node11&#45;&gt;Node12 -->
<g id="edge2" class="edge"><title>Node11&#45;&gt;Node12</title>
<path fill="none" stroke="midnightblue" d="M294.961,-238C318.512,-238 347.93,-238 373.837,-238"/>
<polygon fill="midnightblue" stroke="midnightblue" points="373.946,-241.5 383.946,-238 373.946,-234.5 373.946,-241.5"/>
</g>
<!-- Node14 -->
<g id="node5" class="node"><title>Node14</title>
<g id="a_node5"><a xlink:href="../../d1/d4b/classefd_1_1NDGateDecl.xhtml#a03dc5a5c5c62ace6c468f2932fd368ea" target="_top" xlink:title="efd::NDGateDecl::NDGateDecl">
<polygon fill="none" stroke="black" points="360,-190.5 360,-209.5 515,-209.5 515,-190.5 360,-190.5"/>
<text text-anchor="middle" x="437.5" y="-197.5" font-family="Helvetica,sans-Serif" font-size="10.00">efd::NDGateDecl::NDGateDecl</text>
</a>
</g>
</g>
<!-- Node13&#45;&gt;Node14 -->
<g id="edge4" class="edge"><title>Node13&#45;&gt;Node14</title>
<path fill="none" stroke="midnightblue" d="M314.061,-200C325.549,-200 337.716,-200 349.748,-200"/>
<polygon fill="midnightblue" stroke="midnightblue" points="349.805,-203.5 359.805,-200 349.805,-196.5 349.805,-203.5"/>
</g>
<!-- Node15 -->
<g id="node6" class="node"><title>Node15</title>
<g id="a_node6"><a xlink:href="../../d6/d6a/classefd_1_1Node.xhtml#a8ac8c3206c6f6817a8c8e515ac830f61" target="_top" xlink:title="Adds a child to this node. It should be used only for construction of each derived class...">
<polygon fill="none" stroke="black" points="889,-171.5 889,-190.5 1015,-190.5 1015,-171.5 889,-171.5"/>
<text text-anchor="middle" x="952" y="-178.5" font-family="Helvetica,sans-Serif" font-size="10.00">efd::Node::innerAddChild</text>
</a>
</g>
</g>
<!-- Node14&#45;&gt;Node15 -->
<g id="edge5" class="edge"><title>Node14&#45;&gt;Node15</title>
<path fill="none" stroke="midnightblue" d="M515.068,-202.533C598.384,-204.484 735.428,-205.34 853,-195 862.339,-194.179 872.148,-193.072 881.803,-191.838"/>
<polygon fill="midnightblue" stroke="midnightblue" points="882.329,-195.299 891.782,-190.513 881.408,-188.36 882.329,-195.299"/>
</g>
<!-- Node17 -->
<g id="node8" class="node"><title>Node17</title>
<g id="a_node8"><a xlink:href="../../db/d1f/classefd_1_1NDGateSign.xhtml#a07f33e853f4198482dc66fb1b8910664" target="_top" xlink:title="efd::NDGateSign::NDGateSign">
<polygon fill="none" stroke="black" points="551,-171.5 551,-190.5 704,-190.5 704,-171.5 551,-171.5"/>
<text text-anchor="middle" x="627.5" y="-178.5" font-family="Helvetica,sans-Serif" font-size="10.00">efd::NDGateSign::NDGateSign</text>
</a>
</g>
</g>
<!-- Node14&#45;&gt;Node17 -->
<g id="edge7" class="edge"><title>Node14&#45;&gt;Node17</title>
<path fill="none" stroke="midnightblue" d="M515.238,-192.245C523.703,-191.389 532.362,-190.514 540.926,-189.648"/>
<polygon fill="midnightblue" stroke="midnightblue" points="541.323,-193.126 550.92,-188.638 540.619,-186.162 541.323,-193.126"/>
</g>
<!-- Node16 -->
<g id="node7" class="node"><title>Node16</title>
<g id="a_node7"><a xlink:href="../../d6/d6a/classefd_1_1Node.xhtml#a48e9d49d994b9023b8400316e2782e2b" target="_top" xlink:title="Sets the parent node of the current node. ">
<polygon fill="none" stroke="black" points="1051,-171.5 1051,-190.5 1158,-190.5 1158,-171.5 1051,-171.5"/>
<text text-anchor="middle" x="1104.5" y="-178.5" font-family="Helvetica,sans-Serif" font-size="10.00">efd::Node::setParent</text>
</a>
</g>
</g>
<!-- Node15&#45;&gt;Node16 -->
<g id="edge6" class="edge"><title>Node15&#45;&gt;Node16</title>
<path fill="none" stroke="midnightblue" d="M1015.08,-181C1023.49,-181 1032.12,-181 1040.54,-181"/>
<polygon fill="midnightblue" stroke="midnightblue" points="1040.67,-184.5 1050.67,-181 1040.67,-177.5 1040.67,-184.5"/>
</g>
<!-- Node17&#45;&gt;Node15 -->
<g id="edge11" class="edge"><title>Node17&#45;&gt;Node15</title>
<path fill="none" stroke="midnightblue" d="M704.112,-181C756.823,-181 826.732,-181 878.701,-181"/>
<polygon fill="midnightblue" stroke="midnightblue" points="878.846,-184.5 888.846,-181 878.846,-177.5 878.846,-184.5"/>
</g>
<!-- Node18 -->
<g id="node9" class="node"><title>Node18</title>
<g id="a_node9"><a xlink:href="../../d0/d9e/classefd_1_1NDDecl.xhtml#a1d2cdd96c460f6968ecd4ae2b4a5181c" target="_top" xlink:title="efd::NDDecl::NDDecl">
<polygon fill="none" stroke="black" points="740,-133.5 740,-152.5 853,-152.5 853,-133.5 740,-133.5"/>
<text text-anchor="middle" x="796.5" y="-140.5" font-family="Helvetica,sans-Serif" font-size="10.00">efd::NDDecl::NDDecl</text>
</a>
</g>
</g>
<!-- Node17&#45;&gt;Node18 -->
<g id="edge8" class="edge"><title>Node17&#45;&gt;Node18</title>
<path fill="none" stroke="midnightblue" d="M670.641,-171.411C692.877,-166.351 720.348,-160.1 743.856,-154.751"/>
<polygon fill="midnightblue" stroke="midnightblue" points="744.688,-158.152 753.662,-152.52 743.135,-151.326 744.688,-158.152"/>
</g>
<!-- Node18&#45;&gt;Node15 -->
<g id="edge9" class="edge"><title>Node18&#45;&gt;Node15</title>
<path fill="none" stroke="midnightblue" d="M836.235,-152.589C856.399,-157.581 881.248,-163.732 902.661,-169.033"/>
<polygon fill="midnightblue" stroke="midnightblue" points="901.996,-172.474 912.544,-171.48 903.678,-165.679 901.996,-172.474"/>
</g>
<!-- Node19 -->
<g id="node10" class="node"><title>Node19</title>
<g id="a_node10"><a xlink:href="../../d6/d6a/classefd_1_1Node.xhtml#a09ac8cdf7898a3d17293d92ae956eece" target="_top" xlink:title="Constructs the node, initially empty (with no information). ">
<polygon fill="none" stroke="black" points="907.5,-133.5 907.5,-152.5 996.5,-152.5 996.5,-133.5 907.5,-133.5"/>
<text text-anchor="middle" x="952" y="-140.5" font-family="Helvetica,sans-Serif" font-size="10.00">efd::Node::Node</text>
</a>
</g>
</g>
<!-- Node18&#45;&gt;Node19 -->
<g id="edge10" class="edge"><title>Node18&#45;&gt;Node19</title>
<path fill="none" stroke="midnightblue" d="M853.351,-143C867.699,-143 883.101,-143 897.336,-143"/>
<polygon fill="midnightblue" stroke="midnightblue" points="897.462,-146.5 907.462,-143 897.462,-139.5 897.462,-146.5"/>
</g>
<!-- Node21 -->
<g id="node12" class="node"><title>Node21</title>
<g id="a_node12"><a xlink:href="../../d4/deb/namespaceefd.xhtml#a2cef687225e13315fc282dc40b5a6909" target="_top" xlink:title="Returns src cast to TargetTy, iff it is of class TargetTy, otherwise it will return nullptr...">
<polygon fill="none" stroke="black" points="401,-95.5 401,-114.5 474,-114.5 474,-95.5 401,-95.5"/>
<text text-anchor="middle" x="437.5" y="-102.5" font-family="Helvetica,sans-Serif" font-size="10.00">efd::dynCast</text>
</a>
</g>
</g>
<!-- Node20&#45;&gt;Node21 -->
<g id="edge13" class="edge"><title>Node20&#45;&gt;Node21</title>
<path fill="none" stroke="midnightblue" d="M289.786,-152.452C300.881,-149.573 312.957,-146.297 324,-143 349.695,-135.327 378.323,-125.641 400.27,-117.968"/>
<polygon fill="midnightblue" stroke="midnightblue" points="401.577,-121.219 409.849,-114.599 399.254,-114.615 401.577,-121.219"/>
</g>
<!-- Node22&#45;&gt;Node21 -->
<g id="edge15" class="edge"><title>Node22&#45;&gt;Node21</title>
<path fill="none" stroke="midnightblue" d="M324.048,-116.518C346.582,-114.21 370.743,-111.735 390.871,-109.674"/>
<polygon fill="midnightblue" stroke="midnightblue" points="391.409,-113.137 401,-108.636 390.695,-106.173 391.409,-113.137"/>
</g>
<!-- Node23&#45;&gt;Node21 -->
<g id="edge17" class="edge"><title>Node23&#45;&gt;Node21</title>
<path fill="none" stroke="midnightblue" d="M299.738,-90.992C327.913,-93.8778 363.141,-97.4861 390.787,-100.318"/>
<polygon fill="midnightblue" stroke="midnightblue" points="390.676,-103.825 400.981,-101.362 391.389,-96.8611 390.676,-103.825"/>
</g>
<!-- Node24&#45;&gt;Node21 -->
<g id="edge19" class="edge"><title>Node24&#45;&gt;Node21</title>
<path fill="none" stroke="midnightblue" d="M289.786,-57.5479C300.881,-60.427 312.957,-63.7025 324,-67 349.695,-74.6729 378.323,-84.3593 400.27,-92.032"/>
<polygon fill="midnightblue" stroke="midnightblue" points="399.254,-95.3848 409.849,-95.4011 401.577,-88.7813 399.254,-95.3848"/>
</g>
</g>
</svg>
