<?xml version="1.0" encoding="UTF-8" standalone="no"?>
<!DOCTYPE svg PUBLIC "-//W3C//DTD SVG 1.1//EN"
 "http://www.w3.org/Graphics/SVG/1.1/DTD/svg11.dtd">
<!-- Generated by graphviz version 2.38.0 (20140413.2041)
 -->
<!-- Title: include/enfield/Transform/Allocators/Allocators.h Pages: 1 -->
<svg width="368pt" height="162pt"
 viewBox="0.00 0.00 367.50 162.00" xmlns="http://www.w3.org/2000/svg" xmlns:xlink="http://www.w3.org/1999/xlink">
<g id="graph0" class="graph" transform="scale(1 1) rotate(0) translate(4 158)">
<title>include/enfield/Transform/Allocators/Allocators.h</title>
<!-- Node33 -->
<g id="node1" class="node"><title>Node33</title>
<polygon fill="#bfbfbf" stroke="black" points="130,-123.5 130,-153.5 256,-153.5 256,-123.5 130,-123.5"/>
<text text-anchor="start" x="138" y="-141.5" font-family="Helvetica,sans-Serif" font-size="10.00">include/enfield/Transform</text>
<text text-anchor="middle" x="193" y="-130.5" font-family="Helvetica,sans-Serif" font-size="10.00">/Allocators/Allocators.h</text>
</g>
<!-- Node34 -->
<g id="node2" class="node"><title>Node34</title>
<g id="a_node2"><a xlink:href="../../dc/dea/Allocators_8cpp.xhtml" target="_top" xlink:title="lib/Transform/Allocators\l/Allocators.cpp">
<polygon fill="none" stroke="black" points="0,-56.5 0,-86.5 120,-86.5 120,-56.5 0,-56.5"/>
<text text-anchor="start" x="8" y="-74.5" font-family="Helvetica,sans-Serif" font-size="10.00">lib/Transform/Allocators</text>
<text text-anchor="middle" x="60" y="-63.5" font-family="Helvetica,sans-Serif" font-size="10.00">/Allocators.cpp</text>
</a>
</g>
</g>
<!-- Node33&#45;&gt;Node34 -->
<g id="edge1" class="edge"><title>Node33&#45;&gt;Node34</title>
<path fill="none" stroke="midnightblue" d="M155.13,-118.992C134.049,-108.689 108.223,-96.0677 88.8027,-86.5765"/>
<polygon fill="midnightblue" stroke="midnightblue" points="153.62,-122.15 164.141,-123.396 156.693,-115.86 153.62,-122.15"/>
</g>
<!-- Node35 -->
<g id="node3" class="node"><title>Node35</title>
<g id="a_node3"><a xlink:href="../../d6/d91/Transform_2Driver_8h.xhtml" target="_top" xlink:title="include/enfield/Transform\l/Driver.h">
<polygon fill="none" stroke="black" points="176,-56.5 176,-86.5 302,-86.5 302,-56.5 176,-56.5"/>
<text text-anchor="start" x="184" y="-74.5" font-family="Helvetica,sans-Serif" font-size="10.00">include/enfield/Transform</text>
<text text-anchor="middle" x="239" y="-63.5" font-family="Helvetica,sans-Serif" font-size="10.00">/Driver.h</text>
</a>
</g>
</g>
<!-- Node33&#45;&gt;Node35 -->
<g id="edge2" class="edge"><title>Node33&#45;&gt;Node35</title>
<path fill="none" stroke="midnightblue" d="M208.812,-115.157C215.52,-105.679 223.135,-94.9186 229.038,-86.5765"/>
<polygon fill="midnightblue" stroke="midnightblue" points="205.901,-113.211 202.981,-123.396 211.615,-117.255 205.901,-113.211"/>
</g>
<!-- Node36 -->
<g id="node4" class="node"><title>Node36</title>
<g id="a_node4"><a xlink:href="../../df/dd9/Driver_8cpp.xhtml" target="_top" xlink:title="lib/Transform/Driver.cpp">
<polygon fill="none" stroke="black" points="101,-0.5 101,-19.5 223,-19.5 223,-0.5 101,-0.5"/>
<text text-anchor="middle" x="162" y="-7.5" font-family="Helvetica,sans-Serif" font-size="10.00">lib/Transform/Driver.cpp</text>
</a>
</g>
</g>
<!-- Node33&#45;&gt;Node36 -->
<g id="edge5" class="edge"><title>Node33&#45;&gt;Node36</title>
<path fill="none" stroke="midnightblue" d="M178.576,-114.383C174.072,-106.054 169.604,-96.3895 167,-87 160.426,-63.3001 160.765,-33.9192 161.443,-19.6236"/>
<polygon fill="midnightblue" stroke="midnightblue" points="175.577,-116.19 183.58,-123.133 181.654,-112.715 175.577,-116.19"/>
</g>
<!-- Node37 -->
<g id="node5" class="node"><title>Node37</title>
<g id="a_node5"><a xlink:href="../../de/d8e/Enfield_8cpp.xhtml" target="_top" xlink:title="tools/Enfield.cpp">
<polygon fill="none" stroke="black" points="270.5,-0.5 270.5,-19.5 359.5,-19.5 359.5,-0.5 270.5,-0.5"/>
<text text-anchor="middle" x="315" y="-7.5" font-family="Helvetica,sans-Serif" font-size="10.00">tools/Enfield.cpp</text>
</a>
</g>
</g>
<!-- Node33&#45;&gt;Node37 -->
<g id="edge6" class="edge"><title>Node33&#45;&gt;Node37</title>
<path fill="none" stroke="midnightblue" d="M265.964,-120.851C283.42,-113.37 300.129,-102.57 311,-87 325.22,-66.6329 320.711,-35.1927 317.313,-19.9271"/>
<polygon fill="midnightblue" stroke="midnightblue" points="264.252,-117.763 256.222,-124.674 266.809,-124.279 264.252,-117.763"/>
</g>
<!-- Node35&#45;&gt;Node36 -->
<g id="edge3" class="edge"><title>Node35&#45;&gt;Node36</title>
<path fill="none" stroke="midnightblue" d="M212.715,-50.1886C199.234,-39.7719 183.525,-27.6329 173.204,-19.6578"/>
<polygon fill="midnightblue" stroke="midnightblue" points="210.699,-53.0543 220.752,-56.3993 214.979,-47.5153 210.699,-53.0543"/>
</g>
<!-- Node35&#45;&gt;Node37 -->
<g id="edge4" class="edge"><title>Node35&#45;&gt;Node37</title>
<path fill="none" stroke="midnightblue" d="M264.944,-50.1886C278.249,-39.7719 293.755,-27.6329 303.941,-19.6578"/>
<polygon fill="midnightblue" stroke="midnightblue" points="262.727,-47.4789 257.011,-56.3993 267.042,-52.9907 262.727,-47.4789"/>
</g>
</g>
</svg>
