<?xml version="1.0" encoding="UTF-8" standalone="no"?>
<!DOCTYPE svg PUBLIC "-//W3C//DTD SVG 1.1//EN"
 "http://www.w3.org/Graphics/SVG/1.1/DTD/svg11.dtd">
<!-- Generated by graphviz version 2.40.1 (20161225.0304)
 -->
<!-- Title: include/enfield/Transform/Allocators/Allocators.h Pages: 1 -->
<svg width="401pt" height="162pt"
 viewBox="0.00 0.00 401.00 162.00" xmlns="http://www.w3.org/2000/svg" xmlns:xlink="http://www.w3.org/1999/xlink">
<g id="graph0" class="graph" transform="scale(1 1) rotate(0) translate(4 158)">
<title>include/enfield/Transform/Allocators/Allocators.h</title>
<!-- Node32 -->
<g id="node1" class="node">
<title>Node32</title>
<polygon fill="#bfbfbf" stroke="#000000" points="140,-123.5 140,-153.5 282,-153.5 282,-123.5 140,-123.5"/>
<text text-anchor="start" x="148" y="-141.5" font-family="Helvetica,sans-Serif" font-size="10.00" fill="#000000">include/enfield/Transform</text>
<text text-anchor="middle" x="211" y="-130.5" font-family="Helvetica,sans-Serif" font-size="10.00" fill="#000000">/Allocators/Allocators.h</text>
</g>
<!-- Node33 -->
<g id="node2" class="node">
<title>Node33</title>
<g id="a_node2"><a xlink:href="../../dc/dea/Allocators_8cpp.xhtml" target="_top" xlink:title="lib/Transform/Allocators\l/Allocators.cpp">
<polygon fill="none" stroke="#000000" points="0,-56.5 0,-86.5 134,-86.5 134,-56.5 0,-56.5"/>
<text text-anchor="start" x="8" y="-74.5" font-family="Helvetica,sans-Serif" font-size="10.00" fill="#000000">lib/Transform/Allocators</text>
<text text-anchor="middle" x="67" y="-63.5" font-family="Helvetica,sans-Serif" font-size="10.00" fill="#000000">/Allocators.cpp</text>
</a>
</g>
</g>
<!-- Node32&#45;&gt;Node33 -->
<g id="edge1" class="edge">
<title>Node32&#45;&gt;Node33</title>
<path fill="none" stroke="#191970" d="M169.4983,-119.1902C147.3144,-108.8685 120.3919,-96.3421 99.7068,-86.7177"/>
<polygon fill="#191970" stroke="#191970" points="168.1404,-122.4187 178.6836,-123.4639 171.0934,-116.072 168.1404,-122.4187"/>
</g>
<!-- Node34 -->
<g id="node3" class="node">
<title>Node34</title>
<g id="a_node3"><a xlink:href="../../d6/d91/Transform_2Driver_8h.xhtml" target="_top" xlink:title="include/enfield/Transform\l/Driver.h">
<polygon fill="none" stroke="#000000" points="190,-56.5 190,-86.5 332,-86.5 332,-56.5 190,-56.5"/>
<text text-anchor="start" x="198" y="-74.5" font-family="Helvetica,sans-Serif" font-size="10.00" fill="#000000">include/enfield/Transform</text>
<text text-anchor="middle" x="261" y="-63.5" font-family="Helvetica,sans-Serif" font-size="10.00" fill="#000000">/Driver.h</text>
</a>
</g>
</g>
<!-- Node32&#45;&gt;Node34 -->
<g id="edge2" class="edge">
<title>Node32&#45;&gt;Node34</title>
<path fill="none" stroke="#191970" d="M228.4906,-115.0626C235.5287,-105.6315 243.4421,-95.0276 249.6991,-86.6432"/>
<polygon fill="#191970" stroke="#191970" points="225.5216,-113.189 222.3458,-123.2967 231.1317,-117.3756 225.5216,-113.189"/>
</g>
<!-- Node35 -->
<g id="node4" class="node">
<title>Node35</title>
<g id="a_node4"><a xlink:href="../../df/dd9/Driver_8cpp.xhtml" target="_top" xlink:title="lib/Transform/Driver.cpp">
<polygon fill="none" stroke="#000000" points="125.5,-.5 125.5,-19.5 260.5,-19.5 260.5,-.5 125.5,-.5"/>
<text text-anchor="middle" x="193" y="-7.5" font-family="Helvetica,sans-Serif" font-size="10.00" fill="#000000">lib/Transform/Driver.cpp</text>
</a>
</g>
</g>
<!-- Node32&#45;&gt;Node35 -->
<g id="edge5" class="edge">
<title>Node32&#45;&gt;Node35</title>
<path fill="none" stroke="#191970" d="M193.6754,-114.7761C188.5509,-106.418 183.6148,-96.6836 181,-87 174.5809,-63.2279 183.3542,-34.3385 188.9625,-19.6231"/>
<polygon fill="#191970" stroke="#191970" points="190.8066,-116.7842 199.2091,-123.2379 196.6651,-112.953 190.8066,-116.7842"/>
</g>
<!-- Node36 -->
<g id="node5" class="node">
<title>Node36</title>
<g id="a_node5"><a xlink:href="../../de/d8e/Enfield_8cpp.xhtml" target="_top" xlink:title="tools/Enfield.cpp">
<polygon fill="none" stroke="#000000" points="295,-.5 295,-19.5 393,-19.5 393,-.5 295,-.5"/>
<text text-anchor="middle" x="344" y="-7.5" font-family="Helvetica,sans-Serif" font-size="10.00" fill="#000000">tools/Enfield.cpp</text>
</a>
</g>
</g>
<!-- Node32&#45;&gt;Node36 -->
<g id="edge6" class="edge">
<title>Node32&#45;&gt;Node36</title>
<path fill="none" stroke="#191970" d="M291.5044,-122.8227C310.7011,-115.1937 329.0623,-103.854 341,-87 355.3826,-66.6942 350.4492,-35.2475 346.6758,-19.5683"/>
<polygon fill="#191970" stroke="#191970" points="290.2318,-119.5613 282.0379,-126.2777 292.6318,-126.137 290.2318,-119.5613"/>
</g>
<!-- Node34&#45;&gt;Node35 -->
<g id="edge3" class="edge">
<title>Node34&#45;&gt;Node35</title>
<path fill="none" stroke="#191970" d="M236.7294,-49.5494C225.4971,-39.3907 212.7177,-27.8329 203.8877,-19.8469"/>
<polygon fill="#191970" stroke="#191970" points="234.4266,-52.1858 244.191,-56.2977 239.122,-46.9942 234.4266,-52.1858"/>
</g>
<!-- Node34&#45;&gt;Node36 -->
<g id="edge4" class="edge">
<title>Node34&#45;&gt;Node36</title>
<path fill="none" stroke="#191970" d="M289.8355,-50.1339C303.7327,-39.8366 319.7255,-27.9865 330.7106,-19.8469"/>
<polygon fill="#191970" stroke="#191970" points="287.4679,-47.5321 281.5169,-56.2977 291.6353,-53.1564 287.4679,-47.5321"/>
</g>
</g>
</svg>
