<?xml version="1.0" encoding="UTF-8" standalone="no"?>
<!DOCTYPE svg PUBLIC "-//W3C//DTD SVG 1.1//EN"
 "http://www.w3.org/Graphics/SVG/1.1/DTD/svg11.dtd">
<!-- Generated by graphviz version 2.38.0 (20140413.2041)
 -->
<!-- Title: efd::SolutionBuilder Pages: 1 -->
<svg width="199pt" height="207pt"
 viewBox="0.00 0.00 199.00 207.00" xmlns="http://www.w3.org/2000/svg" xmlns:xlink="http://www.w3.org/1999/xlink">
<g id="graph0" class="graph" transform="scale(1 1) rotate(0) translate(4 203)">
<title>efd::SolutionBuilder</title>
<!-- Node5 -->
<g id="node1" class="node"><title>Node5</title>
<polygon fill="#bfbfbf" stroke="black" points="25.5,-0.5 25.5,-19.5 126.5,-19.5 126.5,-0.5 25.5,-0.5"/>
<text text-anchor="middle" x="76" y="-7.5" font-family="Helvetica,sans-Serif" font-size="10.00">efd::SolutionBuilder</text>
</g>
<!-- Node6 -->
<g id="node2" class="node"><title>Node6</title>
<g id="a_node2"><a xlink:href="../../d8/db9/classefd_1_1BitOptions.xhtml" target="_top" xlink:title="efd::BitOptions\&lt; Solution\lBuilderOptions, SolutionBuilder\lOptions::KeepStats \&gt;">
<polygon fill="none" stroke="black" points="0,-57.5 0,-98.5 152,-98.5 152,-57.5 0,-57.5"/>
<text text-anchor="start" x="8" y="-86.5" font-family="Helvetica,sans-Serif" font-size="10.00">efd::BitOptions&lt; Solution</text>
<text text-anchor="start" x="8" y="-75.5" font-family="Helvetica,sans-Serif" font-size="10.00">BuilderOptions, SolutionBuilder</text>
<text text-anchor="middle" x="76" y="-64.5" font-family="Helvetica,sans-Serif" font-size="10.00">Options::KeepStats &gt;</text>
</a>
</g>
</g>
<!-- Node6&#45;&gt;Node5 -->
<g id="edge1" class="edge"><title>Node6&#45;&gt;Node5</title>
<path fill="none" stroke="midnightblue" d="M76,-47.1201C76,-37.1695 76,-26.8372 76,-19.7856"/>
<polygon fill="midnightblue" stroke="midnightblue" points="72.5001,-47.1978 76,-57.1978 79.5001,-47.1979 72.5001,-47.1978"/>
</g>
<!-- Node7 -->
<g id="node3" class="node"><title>Node7</title>
<g id="a_node3"><a xlink:href="../../d8/db9/classefd_1_1BitOptions.xhtml" target="_top" xlink:title="Implements bit options for size last. ">
<polygon fill="none" stroke="black" points="20,-168.5 20,-198.5 132,-198.5 132,-168.5 20,-168.5"/>
<text text-anchor="start" x="28" y="-186.5" font-family="Helvetica,sans-Serif" font-size="10.00">efd::BitOptions&lt; ETy,</text>
<text text-anchor="middle" x="76" y="-175.5" font-family="Helvetica,sans-Serif" font-size="10.00"> last &gt;</text>
</a>
</g>
</g>
<!-- Node7&#45;&gt;Node6 -->
<g id="edge2" class="edge"><title>Node7&#45;&gt;Node6</title>
<path fill="none" stroke="orange" stroke-dasharray="5,2" d="M76,-157.992C76,-139.836 76,-115.424 76,-98.5664"/>
<polygon fill="orange" stroke="orange" points="72.5001,-158.109 76,-168.109 79.5001,-158.109 72.5001,-158.109"/>
<text text-anchor="start" x="76" y="-142" font-family="Helvetica,sans-Serif" font-size="10.00"> &lt; SolutionBuilderOptions,</text>
<text text-anchor="start" x="76" y="-131" font-family="Helvetica,sans-Serif" font-size="10.00"> SolutionBuilderOptions</text>
<text text-anchor="middle" x="133.5" y="-120" font-family="Helvetica,sans-Serif" font-size="10.00">::KeepStats &gt;</text>
</g>
</g>
</svg>
