<?xml version="1.0" encoding="UTF-8" standalone="no"?>
<!DOCTYPE svg PUBLIC "-//W3C//DTD SVG 1.1//EN"
 "http://www.w3.org/Graphics/SVG/1.1/DTD/svg11.dtd">
<!-- Generated by graphviz version 2.40.1 (20161225.0304)
 -->
<!-- Title: efd::StdSolutionQAllocator::allocate Pages: 1 -->
<svg width="334pt" height="78pt"
 viewBox="0.00 0.00 334.00 77.50" xmlns="http://www.w3.org/2000/svg" xmlns:xlink="http://www.w3.org/1999/xlink">
<g id="graph0" class="graph" transform="scale(1 1) rotate(0) translate(4 73.5)">
<title>efd::StdSolutionQAllocator::allocate</title>
<!-- Node1 -->
<g id="node1" class="node">
<title>Node1</title>
<polygon fill="#bfbfbf" stroke="#000000" points="0,-17 0,-47 145,-47 145,-17 0,-17"/>
<text text-anchor="start" x="8" y="-35" font-family="Helvetica,sans-Serif" font-size="10.00" fill="#000000">efd::StdSolutionQAllocator</text>
<text text-anchor="middle" x="72.5" y="-24" font-family="Helvetica,sans-Serif" font-size="10.00" fill="#000000">::allocate</text>
</g>
<!-- Node2 -->
<g id="node2" class="node">
<title>Node2</title>
<g id="a_node2"><a xlink:href="../../d6/d8e/classefd_1_1StdSolutionQAllocator.xhtml#aa1042f6f04230141a91642fa70cd8129" target="_top" xlink:title="Executes the allocation algorithm after the preprocessing. ">
<polygon fill="none" stroke="#000000" points="181,-39 181,-69 326,-69 326,-39 181,-39"/>
<text text-anchor="start" x="189" y="-57" font-family="Helvetica,sans-Serif" font-size="10.00" fill="#000000">efd::StdSolutionQAllocator</text>
<text text-anchor="middle" x="253.5" y="-46" font-family="Helvetica,sans-Serif" font-size="10.00" fill="#000000">::buildStdSolution</text>
</a>
</g>
</g>
<!-- Node1&#45;&gt;Node2 -->
<g id="edge1" class="edge">
<title>Node1&#45;&gt;Node2</title>
<path fill="none" stroke="#191970" d="M145.0767,-40.8215C153.5595,-41.8525 162.2611,-42.9102 170.8671,-43.9562"/>
<polygon fill="#191970" stroke="#191970" points="170.5577,-47.4443 180.907,-45.1765 171.4024,-40.4954 170.5577,-47.4443"/>
</g>
<!-- Node3 -->
<g id="node3" class="node">
<title>Node3</title>
<g id="a_node3"><a xlink:href="../../d1/df9/classefd_1_1PassCache.xhtml#acb82213b8e43f26fdca8266be3cc4c7c" target="_top" xlink:title="Runs the pass T in qmod. ">
<polygon fill="none" stroke="#000000" points="195.5,-.5 195.5,-19.5 311.5,-19.5 311.5,-.5 195.5,-.5"/>
<text text-anchor="middle" x="253.5" y="-7.5" font-family="Helvetica,sans-Serif" font-size="10.00" fill="#000000">efd::PassCache::Run</text>
</a>
</g>
</g>
<!-- Node1&#45;&gt;Node3 -->
<g id="edge2" class="edge">
<title>Node1&#45;&gt;Node3</title>
<path fill="none" stroke="#191970" d="M145.0767,-23.1785C158.4002,-21.5591 172.2635,-19.874 185.4483,-18.2715"/>
<polygon fill="#191970" stroke="#191970" points="185.8738,-21.7456 195.3784,-17.0645 185.0291,-14.7968 185.8738,-21.7456"/>
</g>
</g>
</svg>
