<?xml version="1.0" encoding="UTF-8" standalone="no"?>
<!DOCTYPE svg PUBLIC "-//W3C//DTD SVG 1.1//EN"
 "http://www.w3.org/Graphics/SVG/1.1/DTD/svg11.dtd">
<!-- Generated by graphviz version 2.38.0 (20140413.2041)
 -->
<!-- Title: lib/Transform/Pass.cpp Pages: 1 -->
<svg width="134pt" height="140pt"
 viewBox="0.00 0.00 134.00 140.00" xmlns="http://www.w3.org/2000/svg" xmlns:xlink="http://www.w3.org/1999/xlink">
<g id="graph0" class="graph" transform="scale(1 1) rotate(0) translate(4 136)">
<title>lib/Transform/Pass.cpp</title>
<!-- Node0 -->
<g id="node1" class="node"><title>Node0</title>
<polygon fill="#bfbfbf" stroke="black" points="4,-112.5 4,-131.5 122,-131.5 122,-112.5 4,-112.5"/>
<text text-anchor="middle" x="63" y="-119.5" font-family="Helvetica,sans-Serif" font-size="10.00">lib/Transform/Pass.cpp</text>
</g>
<!-- Node1 -->
<g id="node2" class="node"><title>Node1</title>
<g id="a_node2"><a xlink:href="../../df/d29/Pass_8h.xhtml" target="_top" xlink:title="enfield/Transform/Pass.h">
<polygon fill="none" stroke="black" points="0,-56.5 0,-75.5 126,-75.5 126,-56.5 0,-56.5"/>
<text text-anchor="middle" x="63" y="-63.5" font-family="Helvetica,sans-Serif" font-size="10.00">enfield/Transform/Pass.h</text>
</a>
</g>
</g>
<!-- Node0&#45;&gt;Node1 -->
<g id="edge1" class="edge"><title>Node0&#45;&gt;Node1</title>
<path fill="none" stroke="midnightblue" d="M63,-112.083C63,-105.006 63,-94.8611 63,-85.9865"/>
<polygon fill="midnightblue" stroke="midnightblue" points="66.5001,-85.751 63,-75.7511 59.5001,-85.7511 66.5001,-85.751"/>
</g>
<!-- Node2 -->
<g id="node3" class="node"><title>Node2</title>
<polygon fill="none" stroke="#bfbfbf" points="37,-0.5 37,-19.5 89,-19.5 89,-0.5 37,-0.5"/>
<text text-anchor="middle" x="63" y="-7.5" font-family="Helvetica,sans-Serif" font-size="10.00">memory</text>
</g>
<!-- Node1&#45;&gt;Node2 -->
<g id="edge2" class="edge"><title>Node1&#45;&gt;Node2</title>
<path fill="none" stroke="midnightblue" d="M63,-56.083C63,-49.0059 63,-38.8611 63,-29.9865"/>
<polygon fill="midnightblue" stroke="midnightblue" points="66.5001,-29.751 63,-19.7511 59.5001,-29.7511 66.5001,-29.751"/>
</g>
</g>
</svg>
