<?xml version="1.0" encoding="UTF-8" standalone="no"?>
<!DOCTYPE svg PUBLIC "-//W3C//DTD SVG 1.1//EN"
 "http://www.w3.org/Graphics/SVG/1.1/DTD/svg11.dtd">
<!-- Generated by graphviz version 2.38.0 (20140413.2041)
 -->
<!-- Title: include/enfield/Support/PossibleValuesListTrait.h Pages: 1 -->
<svg width="383pt" height="207pt"
 viewBox="0.00 0.00 382.50 207.00" xmlns="http://www.w3.org/2000/svg" xmlns:xlink="http://www.w3.org/1999/xlink">
<g id="graph0" class="graph" transform="scale(1 1) rotate(0) translate(4 203)">
<title>include/enfield/Support/PossibleValuesListTrait.h</title>
<!-- Node0 -->
<g id="node1" class="node"><title>Node0</title>
<polygon fill="#bfbfbf" stroke="black" points="144.5,-168.5 144.5,-198.5 275.5,-198.5 275.5,-168.5 144.5,-168.5"/>
<text text-anchor="start" x="152.5" y="-186.5" font-family="Helvetica,sans-Serif" font-size="10.00">include/enfield/Support</text>
<text text-anchor="middle" x="210" y="-175.5" font-family="Helvetica,sans-Serif" font-size="10.00">/PossibleValuesListTrait.h</text>
</g>
<!-- Node1 -->
<g id="node2" class="node"><title>Node1</title>
<g id="a_node2"><a xlink:href="../../dd/d62/EnumString_8h.xhtml" target="_top" xlink:title="enfield/Support/EnumString.h">
<polygon fill="none" stroke="black" points="138,-112.5 138,-131.5 282,-131.5 282,-112.5 138,-112.5"/>
<text text-anchor="middle" x="210" y="-119.5" font-family="Helvetica,sans-Serif" font-size="10.00">enfield/Support/EnumString.h</text>
</a>
</g>
</g>
<!-- Node0&#45;&gt;Node1 -->
<g id="edge1" class="edge"><title>Node0&#45;&gt;Node1</title>
<path fill="none" stroke="midnightblue" d="M210,-168.399C210,-160.466 210,-150.458 210,-141.858"/>
<polygon fill="midnightblue" stroke="midnightblue" points="213.5,-141.658 210,-131.658 206.5,-141.658 213.5,-141.658"/>
</g>
<!-- Node2 -->
<g id="node3" class="node"><title>Node2</title>
<g id="a_node3"><a xlink:href="../../d1/d73/Defs_8h.xhtml" target="_top" xlink:title="enfield/Support/Defs.h">
<polygon fill="none" stroke="black" points="50,-56.5 50,-75.5 164,-75.5 164,-56.5 50,-56.5"/>
<text text-anchor="middle" x="107" y="-63.5" font-family="Helvetica,sans-Serif" font-size="10.00">enfield/Support/Defs.h</text>
</a>
</g>
</g>
<!-- Node1&#45;&gt;Node2 -->
<g id="edge2" class="edge"><title>Node1&#45;&gt;Node2</title>
<path fill="none" stroke="midnightblue" d="M193.451,-112.324C177.008,-103.703 151.565,-90.3643 132.532,-80.3855"/>
<polygon fill="midnightblue" stroke="midnightblue" points="133.989,-77.198 123.508,-75.6545 130.739,-83.3977 133.989,-77.198"/>
</g>
<!-- Node3 -->
<g id="node4" class="node"><title>Node3</title>
<polygon fill="none" stroke="#bfbfbf" points="0,-0.5 0,-19.5 44,-19.5 44,-0.5 0,-0.5"/>
<text text-anchor="middle" x="22" y="-7.5" font-family="Helvetica,sans-Serif" font-size="10.00">vector</text>
</g>
<!-- Node1&#45;&gt;Node3 -->
<g id="edge7" class="edge"><title>Node1&#45;&gt;Node3</title>
<path fill="none" stroke="midnightblue" d="M137.968,-117.686C104.547,-112.542 66.6382,-101.026 41,-76 28.7851,-64.0766 24.314,-44.7706 22.732,-30.2911"/>
<polygon fill="midnightblue" stroke="midnightblue" points="26.1965,-29.6707 21.9898,-19.9468 19.2145,-30.1716 26.1965,-29.6707"/>
</g>
<!-- Node7 -->
<g id="node8" class="node"><title>Node7</title>
<polygon fill="none" stroke="#bfbfbf" points="182,-56.5 182,-75.5 238,-75.5 238,-56.5 182,-56.5"/>
<text text-anchor="middle" x="210" y="-63.5" font-family="Helvetica,sans-Serif" font-size="10.00">algorithm</text>
</g>
<!-- Node1&#45;&gt;Node7 -->
<g id="edge8" class="edge"><title>Node1&#45;&gt;Node7</title>
<path fill="none" stroke="midnightblue" d="M210,-112.083C210,-105.006 210,-94.8611 210,-85.9865"/>
<polygon fill="midnightblue" stroke="midnightblue" points="213.5,-85.751 210,-75.7511 206.5,-85.7511 213.5,-85.751"/>
</g>
<!-- Node8 -->
<g id="node9" class="node"><title>Node8</title>
<polygon fill="none" stroke="#bfbfbf" points="256.5,-56.5 256.5,-75.5 307.5,-75.5 307.5,-56.5 256.5,-56.5"/>
<text text-anchor="middle" x="282" y="-63.5" font-family="Helvetica,sans-Serif" font-size="10.00">typeinfo</text>
</g>
<!-- Node1&#45;&gt;Node8 -->
<g id="edge9" class="edge"><title>Node1&#45;&gt;Node8</title>
<path fill="none" stroke="midnightblue" d="M221.568,-112.324C232.42,-104.185 248.881,-91.8395 261.883,-82.0874"/>
<polygon fill="midnightblue" stroke="midnightblue" points="264.321,-84.6339 270.221,-75.8339 260.121,-79.0339 264.321,-84.6339"/>
</g>
<!-- Node9 -->
<g id="node10" class="node"><title>Node9</title>
<polygon fill="none" stroke="#bfbfbf" points="325.5,-56.5 325.5,-75.5 374.5,-75.5 374.5,-56.5 325.5,-56.5"/>
<text text-anchor="middle" x="350" y="-63.5" font-family="Helvetica,sans-Serif" font-size="10.00">cassert</text>
</g>
<!-- Node1&#45;&gt;Node9 -->
<g id="edge10" class="edge"><title>Node1&#45;&gt;Node9</title>
<path fill="none" stroke="midnightblue" d="M232.183,-112.444C255.428,-103.478 292.149,-89.314 318.415,-79.1827"/>
<polygon fill="midnightblue" stroke="midnightblue" points="319.85,-82.3807 327.92,-75.5164 317.331,-75.8497 319.85,-82.3807"/>
</g>
<!-- Node2&#45;&gt;Node3 -->
<g id="edge3" class="edge"><title>Node2&#45;&gt;Node3</title>
<path fill="none" stroke="midnightblue" d="M93.3433,-56.324C80.0837,-47.9002 59.732,-34.9709 44.1538,-25.0741"/>
<polygon fill="midnightblue" stroke="midnightblue" points="45.9404,-22.0626 35.6228,-19.6545 42.1867,-27.9711 45.9404,-22.0626"/>
</g>
<!-- Node4 -->
<g id="node5" class="node"><title>Node4</title>
<polygon fill="none" stroke="#bfbfbf" points="62,-0.5 62,-19.5 108,-19.5 108,-0.5 62,-0.5"/>
<text text-anchor="middle" x="85" y="-7.5" font-family="Helvetica,sans-Serif" font-size="10.00">cstdint</text>
</g>
<!-- Node2&#45;&gt;Node4 -->
<g id="edge4" class="edge"><title>Node2&#45;&gt;Node4</title>
<path fill="none" stroke="midnightblue" d="M103.367,-56.083C100.388,-48.77 96.0739,-38.1814 92.3755,-29.1034"/>
<polygon fill="midnightblue" stroke="midnightblue" points="95.5796,-27.6914 88.5653,-19.7511 89.097,-30.3326 95.5796,-27.6914"/>
</g>
<!-- Node5 -->
<g id="node6" class="node"><title>Node5</title>
<polygon fill="none" stroke="#bfbfbf" points="126,-0.5 126,-19.5 166,-19.5 166,-0.5 126,-0.5"/>
<text text-anchor="middle" x="146" y="-7.5" font-family="Helvetica,sans-Serif" font-size="10.00">limits</text>
</g>
<!-- Node2&#45;&gt;Node5 -->
<g id="edge5" class="edge"><title>Node2&#45;&gt;Node5</title>
<path fill="none" stroke="midnightblue" d="M113.44,-56.083C118.949,-48.4554 127.031,-37.2645 133.765,-27.9408"/>
<polygon fill="midnightblue" stroke="midnightblue" points="136.662,-29.9071 139.68,-19.7511 130.987,-25.8087 136.662,-29.9071"/>
</g>
<!-- Node6 -->
<g id="node7" class="node"><title>Node6</title>
<polygon fill="none" stroke="#bfbfbf" points="184,-0.5 184,-19.5 236,-19.5 236,-0.5 184,-0.5"/>
<text text-anchor="middle" x="210" y="-7.5" font-family="Helvetica,sans-Serif" font-size="10.00">ostream</text>
</g>
<!-- Node2&#45;&gt;Node6 -->
<g id="edge6" class="edge"><title>Node2&#45;&gt;Node6</title>
<path fill="none" stroke="midnightblue" d="M123.549,-56.324C139.992,-47.7034 165.435,-34.3643 184.468,-24.3855"/>
<polygon fill="midnightblue" stroke="midnightblue" points="186.261,-27.3977 193.492,-19.6545 183.011,-21.198 186.261,-27.3977"/>
</g>
</g>
</svg>
