<?xml version="1.0" encoding="UTF-8" standalone="no"?>
<!DOCTYPE svg PUBLIC "-//W3C//DTD SVG 1.1//EN"
 "http://www.w3.org/Graphics/SVG/1.1/DTD/svg11.dtd">
<!-- Generated by graphviz version 2.40.1 (20161225.0304)
 -->
<!-- Title: include/enfield/Support/PossibleValuesListTrait.h Pages: 1 -->
<svg width="343pt" height="207pt"
 viewBox="0.00 0.00 343.00 207.00" xmlns="http://www.w3.org/2000/svg" xmlns:xlink="http://www.w3.org/1999/xlink">
<g id="graph0" class="graph" transform="scale(1 1) rotate(0) translate(4 203)">
<title>include/enfield/Support/PossibleValuesListTrait.h</title>
<!-- Node0 -->
<g id="node1" class="node">
<title>Node0</title>
<polygon fill="#bfbfbf" stroke="#000000" points="99.5,-168.5 99.5,-198.5 241.5,-198.5 241.5,-168.5 99.5,-168.5"/>
<text text-anchor="start" x="107.5" y="-186.5" font-family="Helvetica,sans-Serif" font-size="10.00" fill="#000000">include/enfield/Support</text>
<text text-anchor="middle" x="170.5" y="-175.5" font-family="Helvetica,sans-Serif" font-size="10.00" fill="#000000">/PossibleValuesListTrait.h</text>
</g>
<!-- Node1 -->
<g id="node2" class="node">
<title>Node1</title>
<g id="a_node2"><a xlink:href="../../dd/d62/EnumString_8h.xhtml" target="_top" xlink:title="enfield/Support/EnumString.h">
<polygon fill="none" stroke="#000000" points="91,-112.5 91,-131.5 250,-131.5 250,-112.5 91,-112.5"/>
<text text-anchor="middle" x="170.5" y="-119.5" font-family="Helvetica,sans-Serif" font-size="10.00" fill="#000000">enfield/Support/EnumString.h</text>
</a>
</g>
</g>
<!-- Node0&#45;&gt;Node1 -->
<g id="edge1" class="edge">
<title>Node0&#45;&gt;Node1</title>
<path fill="none" stroke="#191970" d="M170.5,-168.2977C170.5,-160.3834 170.5,-150.6043 170.5,-142.0759"/>
<polygon fill="#191970" stroke="#191970" points="174.0001,-141.8469 170.5,-131.8469 167.0001,-141.847 174.0001,-141.8469"/>
</g>
<!-- Node2 -->
<g id="node3" class="node">
<title>Node2</title>
<g id="a_node3"><a xlink:href="../../d1/d73/Defs_8h.xhtml" target="_top" xlink:title="enfield/Support/Defs.h">
<polygon fill="none" stroke="#000000" points="52,-56.5 52,-75.5 177,-75.5 177,-56.5 52,-56.5"/>
<text text-anchor="middle" x="114.5" y="-63.5" font-family="Helvetica,sans-Serif" font-size="10.00" fill="#000000">enfield/Support/Defs.h</text>
</a>
</g>
</g>
<!-- Node1&#45;&gt;Node2 -->
<g id="edge2" class="edge">
<title>Node1&#45;&gt;Node2</title>
<path fill="none" stroke="#191970" d="M160.7455,-112.2455C152.6352,-104.1352 140.9075,-92.4075 131.2919,-82.7919"/>
<polygon fill="#191970" stroke="#191970" points="133.6887,-80.2389 124.1427,-75.6427 128.7389,-85.1887 133.6887,-80.2389"/>
</g>
<!-- Node3 -->
<g id="node4" class="node">
<title>Node3</title>
<polygon fill="none" stroke="#bfbfbf" points="0,-.5 0,-19.5 47,-19.5 47,-.5 0,-.5"/>
<text text-anchor="middle" x="23.5" y="-7.5" font-family="Helvetica,sans-Serif" font-size="10.00" fill="#000000">vector</text>
</g>
<!-- Node1&#45;&gt;Node3 -->
<g id="edge7" class="edge">
<title>Node1&#45;&gt;Node3</title>
<path fill="none" stroke="#191970" d="M109.7662,-112.4927C85.9198,-105.9062 60.1019,-94.7793 42.5,-76 30.8038,-63.5215 26.2496,-44.3065 24.5059,-29.8214"/>
<polygon fill="#191970" stroke="#191970" points="27.993,-29.5197 23.6486,-19.8565 21.0187,-30.1197 27.993,-29.5197"/>
</g>
<!-- Node7 -->
<g id="node8" class="node">
<title>Node7</title>
<polygon fill="none" stroke="#bfbfbf" points="195.5,-56.5 195.5,-75.5 259.5,-75.5 259.5,-56.5 195.5,-56.5"/>
<text text-anchor="middle" x="227.5" y="-63.5" font-family="Helvetica,sans-Serif" font-size="10.00" fill="#000000">algorithm</text>
</g>
<!-- Node1&#45;&gt;Node7 -->
<g id="edge8" class="edge">
<title>Node1&#45;&gt;Node7</title>
<path fill="none" stroke="#191970" d="M180.4286,-112.2455C188.6838,-104.1352 200.6209,-92.4075 210.4082,-82.7919"/>
<polygon fill="#191970" stroke="#191970" points="213.0046,-85.1476 217.6851,-75.6427 208.0989,-80.1542 213.0046,-85.1476"/>
</g>
<!-- Node8 -->
<g id="node9" class="node">
<title>Node8</title>
<polygon fill="none" stroke="#bfbfbf" points="278,-56.5 278,-75.5 335,-75.5 335,-56.5 278,-56.5"/>
<text text-anchor="middle" x="306.5" y="-63.5" font-family="Helvetica,sans-Serif" font-size="10.00" fill="#000000">typeinfo</text>
</g>
<!-- Node1&#45;&gt;Node8 -->
<g id="edge9" class="edge">
<title>Node1&#45;&gt;Node8</title>
<path fill="none" stroke="#191970" d="M193.8792,-112.3733C216.0045,-103.2629 249.4134,-89.5062 274.1019,-79.3404"/>
<polygon fill="#191970" stroke="#191970" points="275.5117,-82.5451 283.4258,-75.5011 272.8464,-76.0723 275.5117,-82.5451"/>
</g>
<!-- Node2&#45;&gt;Node3 -->
<g id="edge3" class="edge">
<title>Node2&#45;&gt;Node3</title>
<path fill="none" stroke="#191970" d="M98.649,-56.2455C84.6868,-47.6534 64.1272,-35.0014 48.0404,-25.1018"/>
<polygon fill="#191970" stroke="#191970" points="49.5203,-21.9029 39.1693,-19.6427 45.8516,-27.8645 49.5203,-21.9029"/>
</g>
<!-- Node4 -->
<g id="node5" class="node">
<title>Node4</title>
<polygon fill="none" stroke="#bfbfbf" points="65.5,-.5 65.5,-19.5 115.5,-19.5 115.5,-.5 65.5,-.5"/>
<text text-anchor="middle" x="90.5" y="-7.5" font-family="Helvetica,sans-Serif" font-size="10.00" fill="#000000">cstdint</text>
</g>
<!-- Node2&#45;&gt;Node4 -->
<g id="edge4" class="edge">
<title>Node2&#45;&gt;Node4</title>
<path fill="none" stroke="#191970" d="M110.3195,-56.2455C107.119,-48.7776 102.604,-38.2427 98.6916,-29.1137"/>
<polygon fill="#191970" stroke="#191970" points="101.7888,-27.4554 94.6326,-19.6427 95.3548,-30.2129 101.7888,-27.4554"/>
</g>
<!-- Node5 -->
<g id="node6" class="node">
<title>Node5</title>
<polygon fill="none" stroke="#bfbfbf" points="133.5,-.5 133.5,-19.5 177.5,-19.5 177.5,-.5 133.5,-.5"/>
<text text-anchor="middle" x="155.5" y="-7.5" font-family="Helvetica,sans-Serif" font-size="10.00" fill="#000000">limits</text>
</g>
<!-- Node2&#45;&gt;Node5 -->
<g id="edge5" class="edge">
<title>Node2&#45;&gt;Node5</title>
<path fill="none" stroke="#191970" d="M121.6417,-56.2455C127.3444,-48.4564 135.49,-37.3308 142.3625,-27.9439"/>
<polygon fill="#191970" stroke="#191970" points="145.3568,-29.7789 148.4402,-19.6427 139.7087,-25.6437 145.3568,-29.7789"/>
</g>
<!-- Node6 -->
<g id="node7" class="node">
<title>Node6</title>
<polygon fill="none" stroke="#bfbfbf" points="196,-.5 196,-19.5 253,-19.5 253,-.5 196,-.5"/>
<text text-anchor="middle" x="224.5" y="-7.5" font-family="Helvetica,sans-Serif" font-size="10.00" fill="#000000">ostream</text>
</g>
<!-- Node2&#45;&gt;Node6 -->
<g id="edge6" class="edge">
<title>Node2&#45;&gt;Node6</title>
<path fill="none" stroke="#191970" d="M133.6605,-56.2455C151.0111,-47.4125 176.7901,-34.2887 196.4583,-24.2758"/>
<polygon fill="#191970" stroke="#191970" points="198.2353,-27.2986 205.559,-19.6427 195.0595,-21.0605 198.2353,-27.2986"/>
</g>
</g>
</svg>
