<?xml version="1.0" encoding="UTF-8" standalone="no"?>
<!DOCTYPE svg PUBLIC "-//W3C//DTD SVG 1.1//EN"
 "http://www.w3.org/Graphics/SVG/1.1/DTD/svg11.dtd">
<!-- Generated by graphviz version 2.38.0 (20140413.2041)
 -->
<!-- Title: include/enfield/Support/Timer.h Pages: 1 -->
<svg width="124pt" height="95pt"
 viewBox="0.00 0.00 124.00 95.00" xmlns="http://www.w3.org/2000/svg" xmlns:xlink="http://www.w3.org/1999/xlink">
<g id="graph0" class="graph" transform="scale(1 1) rotate(0) translate(4 91)">
<title>include/enfield/Support/Timer.h</title>
<!-- Node0 -->
<g id="node1" class="node"><title>Node0</title>
<polygon fill="#bfbfbf" stroke="black" points="-7.10543e-15,-56.5 -7.10543e-15,-86.5 116,-86.5 116,-56.5 -7.10543e-15,-56.5"/>
<text text-anchor="start" x="8" y="-74.5" font-family="Helvetica,sans-Serif" font-size="10.00">include/enfield/Support</text>
<text text-anchor="middle" x="58" y="-63.5" font-family="Helvetica,sans-Serif" font-size="10.00">/Timer.h</text>
</g>
<!-- Node1 -->
<g id="node2" class="node"><title>Node1</title>
<polygon fill="none" stroke="#bfbfbf" points="3,-0.5 3,-19.5 49,-19.5 49,-0.5 3,-0.5"/>
<text text-anchor="middle" x="26" y="-7.5" font-family="Helvetica,sans-Serif" font-size="10.00">chrono</text>
</g>
<!-- Node0&#45;&gt;Node1 -->
<g id="edge1" class="edge"><title>Node0&#45;&gt;Node1</title>
<path fill="none" stroke="midnightblue" d="M50.4164,-56.3993C45.9582,-48.1098 40.2812,-37.5542 35.5234,-28.7077"/>
<polygon fill="midnightblue" stroke="midnightblue" points="38.4754,-26.8071 30.6563,-19.6578 32.3104,-30.1227 38.4754,-26.8071"/>
</g>
<!-- Node2 -->
<g id="node3" class="node"><title>Node2</title>
<polygon fill="none" stroke="#bfbfbf" points="67,-0.5 67,-19.5 113,-19.5 113,-0.5 67,-0.5"/>
<text text-anchor="middle" x="90" y="-7.5" font-family="Helvetica,sans-Serif" font-size="10.00">cstdint</text>
</g>
<!-- Node0&#45;&gt;Node2 -->
<g id="edge2" class="edge"><title>Node0&#45;&gt;Node2</title>
<path fill="none" stroke="midnightblue" d="M65.5836,-56.3993C70.0418,-48.1098 75.7188,-37.5542 80.4766,-28.7077"/>
<polygon fill="midnightblue" stroke="midnightblue" points="83.6896,-30.1227 85.3437,-19.6578 77.5246,-26.8071 83.6896,-30.1227"/>
</g>
</g>
</svg>
