<?xml version="1.0" encoding="UTF-8" standalone="no"?>
<!DOCTYPE svg PUBLIC "-//W3C//DTD SVG 1.1//EN"
 "http://www.w3.org/Graphics/SVG/1.1/DTD/svg11.dtd">
<!-- Generated by graphviz version 2.38.0 (20140413.2041)
 -->
<!-- Title: efd::CircuitGraphBuilderPass::run Pages: 1 -->
<svg width="449pt" height="941pt"
 viewBox="0.00 0.00 449.00 940.50" xmlns="http://www.w3.org/2000/svg" xmlns:xlink="http://www.w3.org/1999/xlink">
<g id="graph0" class="graph" transform="scale(1 1) rotate(0) translate(4 936.5)">
<title>efd::CircuitGraphBuilderPass::run</title>
<!-- Node1 -->
<g id="node1" class="node"><title>Node1</title>
<polygon fill="#bfbfbf" stroke="black" points="0,-440 0,-470 121,-470 121,-440 0,-440"/>
<text text-anchor="start" x="8" y="-458" font-family="Helvetica,sans-Serif" font-size="10.00">efd::CircuitGraphBuilder</text>
<text text-anchor="middle" x="60.5" y="-447" font-family="Helvetica,sans-Serif" font-size="10.00">Pass::run</text>
</g>
<!-- Node2 -->
<g id="node2" class="node"><title>Node2</title>
<g id="a_node2"><a xlink:href="../../d0/d54/classefd_1_1CircuitGraph.xhtml#a55b28f16e4da779c944ca4ab5ef07d95" target="_top" xlink:title="Appends a node to the bits xbits. ">
<polygon fill="none" stroke="black" points="180,-880 180,-910 277,-910 277,-880 180,-880"/>
<text text-anchor="start" x="188" y="-898" font-family="Helvetica,sans-Serif" font-size="10.00">efd::CircuitGraph::</text>
<text text-anchor="middle" x="228.5" y="-887" font-family="Helvetica,sans-Serif" font-size="10.00">append</text>
</a>
</g>
</g>
<!-- Node1&#45;&gt;Node2 -->
<g id="edge1" class="edge"><title>Node1&#45;&gt;Node2</title>
<path fill="none" stroke="midnightblue" d="M63.0684,-470.386C70.2494,-538.024 102.021,-808.33 157,-870 160.931,-874.409 165.69,-878.041 170.86,-881.032"/>
<polygon fill="midnightblue" stroke="midnightblue" points="169.357,-884.193 179.873,-885.485 172.458,-877.917 169.357,-884.193"/>
</g>
<!-- Node5 -->
<g id="node5" class="node"><title>Node5</title>
<g id="a_node5"><a xlink:href="../../d9/d6b/classefd_1_1Xbit.xhtml#a4cddd18c9e4ec4f08b28d1c3a81f67cc" target="_top" xlink:title="Creates a classical Xbit with id. ">
<polygon fill="none" stroke="black" points="195,-841.5 195,-860.5 262,-860.5 262,-841.5 195,-841.5"/>
<text text-anchor="middle" x="228.5" y="-848.5" font-family="Helvetica,sans-Serif" font-size="10.00">efd::Xbit::C</text>
</a>
</g>
</g>
<!-- Node1&#45;&gt;Node5 -->
<g id="edge4" class="edge"><title>Node1&#45;&gt;Node5</title>
<path fill="none" stroke="midnightblue" d="M63.4452,-470.069C71.8254,-532.826 106.714,-772.694 157,-827 164.389,-834.98 174.534,-840.307 184.826,-843.863"/>
<polygon fill="midnightblue" stroke="midnightblue" points="184.072,-847.289 194.654,-846.758 186.05,-840.575 184.072,-847.289"/>
</g>
<!-- Node6 -->
<g id="node6" class="node"><title>Node6</title>
<g id="a_node6"><a xlink:href="../../d4/deb/namespaceefd.xhtml#a2cef687225e13315fc282dc40b5a6909" target="_top" xlink:title="Returns src cast to TargetTy, iff it is of class TargetTy, otherwise it will return nullptr...">
<polygon fill="none" stroke="black" points="352,-513.5 352,-532.5 425,-532.5 425,-513.5 352,-513.5"/>
<text text-anchor="middle" x="388.5" y="-520.5" font-family="Helvetica,sans-Serif" font-size="10.00">efd::dynCast</text>
</a>
</g>
</g>
<!-- Node1&#45;&gt;Node6 -->
<g id="edge5" class="edge"><title>Node1&#45;&gt;Node6</title>
<path fill="none" stroke="midnightblue" d="M63.3996,-470.401C71.2445,-531.214 103.257,-753.305 157,-794 207.669,-832.367 248.617,-831.405 300,-794 382.497,-733.946 388.847,-594.58 388.21,-542.821"/>
<polygon fill="midnightblue" stroke="midnightblue" points="391.705,-542.569 387.975,-532.653 384.707,-542.731 391.705,-542.569"/>
</g>
<!-- Node7 -->
<g id="node7" class="node"><title>Node7</title>
<g id="a_node7"><a xlink:href="../../d1/df9/classefd_1_1PassCache.xhtml#a8c54d0a438f35de5629ae78c886687a8" target="_top" xlink:title="Gets a shared pointer to the pass T run in qmod. If it does not exist, it tries to run...">
<polygon fill="none" stroke="black" points="174,-765.5 174,-784.5 283,-784.5 283,-765.5 174,-765.5"/>
<text text-anchor="middle" x="228.5" y="-772.5" font-family="Helvetica,sans-Serif" font-size="10.00">efd::PassCache::Get</text>
</a>
</g>
</g>
<!-- Node1&#45;&gt;Node7 -->
<g id="edge6" class="edge"><title>Node1&#45;&gt;Node7</title>
<path fill="none" stroke="midnightblue" d="M61.5234,-470.097C62.4521,-519.048 72.2356,-674.884 157,-756 159.427,-758.323 162.107,-760.368 164.962,-762.168"/>
<polygon fill="midnightblue" stroke="midnightblue" points="163.486,-765.346 173.971,-766.868 166.723,-759.14 163.486,-765.346"/>
</g>
<!-- Node8 -->
<g id="node8" class="node"><title>Node8</title>
<g id="a_node8"><a xlink:href="../../d4/d64/classefd_1_1NDQOpMeasure.xhtml#addcc5fd8d95d5790f75b643e88e76c7e" target="_top" xlink:title="Gets the cbit node. ">
<polygon fill="none" stroke="black" points="171,-716 171,-746 286,-746 286,-716 171,-716"/>
<text text-anchor="start" x="179" y="-734" font-family="Helvetica,sans-Serif" font-size="10.00">efd::NDQOpMeasure::</text>
<text text-anchor="middle" x="228.5" y="-723" font-family="Helvetica,sans-Serif" font-size="10.00">getCBit</text>
</a>
</g>
</g>
<!-- Node1&#45;&gt;Node8 -->
<g id="edge7" class="edge"><title>Node1&#45;&gt;Node8</title>
<path fill="none" stroke="midnightblue" d="M62.8941,-470.077C67.667,-513.099 87.1493,-637.723 157,-706 158.66,-707.623 160.432,-709.141 162.292,-710.56"/>
<polygon fill="midnightblue" stroke="midnightblue" points="160.647,-713.665 170.939,-716.179 164.461,-707.796 160.647,-713.665"/>
</g>
<!-- Node9 -->
<g id="node9" class="node"><title>Node9</title>
<g id="a_node9"><a xlink:href="../../d6/d6a/classefd_1_1Node.xhtml#a63e30243eca03b0c85d8c4856e91c79d" target="_top" xlink:title="Gets the i&#45;th child. ">
<polygon fill="none" stroke="black" points="178,-677.5 178,-696.5 279,-696.5 279,-677.5 178,-677.5"/>
<text text-anchor="middle" x="228.5" y="-684.5" font-family="Helvetica,sans-Serif" font-size="10.00">efd::Node::getChild</text>
</a>
</g>
</g>
<!-- Node1&#45;&gt;Node9 -->
<g id="edge8" class="edge"><title>Node1&#45;&gt;Node9</title>
<path fill="none" stroke="midnightblue" d="M63.7376,-470.001C70.352,-508.913 93.4873,-613.819 157,-668 160.457,-670.949 164.328,-673.444 168.429,-675.556"/>
<polygon fill="midnightblue" stroke="midnightblue" points="167.138,-678.811 177.704,-679.591 169.93,-672.392 167.138,-678.811"/>
</g>
<!-- Node10 -->
<g id="node10" class="node"><title>Node10</title>
<g id="a_node10"><a xlink:href="../../da/ddd/classefd_1_1NDList.xhtml#a7d1b691a45689241a8138539a2be8596" target="_top" xlink:title="Returns the number of childrem of this node. ">
<polygon fill="none" stroke="black" points="157,-639.5 157,-658.5 300,-658.5 300,-639.5 157,-639.5"/>
<text text-anchor="middle" x="228.5" y="-646.5" font-family="Helvetica,sans-Serif" font-size="10.00">efd::NDList::getChildNumber</text>
</a>
</g>
</g>
<!-- Node1&#45;&gt;Node10 -->
<g id="edge9" class="edge"><title>Node1&#45;&gt;Node10</title>
<path fill="none" stroke="midnightblue" d="M65.3331,-470.054C74.7834,-504.033 102.488,-587.056 157,-630 159.287,-631.802 161.731,-633.433 164.286,-634.91"/>
<polygon fill="midnightblue" stroke="midnightblue" points="162.812,-638.086 173.33,-639.361 165.903,-631.805 162.812,-638.086"/>
</g>
<!-- Node11 -->
<g id="node11" class="node"><title>Node11</title>
<g id="a_node11"><a xlink:href="../../dc/d9d/classefd_1_1NDIfStmt.xhtml#a5ec6f243aee6d4fe8988885ea9c449de" target="_top" xlink:title="Gets the id inside the conditional. ">
<polygon fill="none" stroke="black" points="164,-601.5 164,-620.5 293,-620.5 293,-601.5 164,-601.5"/>
<text text-anchor="middle" x="228.5" y="-608.5" font-family="Helvetica,sans-Serif" font-size="10.00">efd::NDIfStmt::getCondId</text>
</a>
</g>
</g>
<!-- Node1&#45;&gt;Node11 -->
<g id="edge10" class="edge"><title>Node1&#45;&gt;Node11</title>
<path fill="none" stroke="midnightblue" d="M67.8826,-470.404C80.5098,-498.932 111.457,-559.99 157,-592 159.834,-593.992 162.867,-595.775 166.023,-597.372"/>
<polygon fill="midnightblue" stroke="midnightblue" points="164.619,-600.578 175.183,-601.394 167.434,-594.169 164.619,-600.578"/>
</g>
<!-- Node12 -->
<g id="node12" class="node"><title>Node12</title>
<g id="a_node12"><a xlink:href="../../db/d0c/structefd_1_1XbitToNumber.xhtml#aee01f34943dd3c3afa794cb45815268f" target="_top" xlink:title="Returns the number of cbits in a given gate (if any). ">
<polygon fill="none" stroke="black" points="176,-552 176,-582 281,-582 281,-552 176,-552"/>
<text text-anchor="start" x="184" y="-570" font-family="Helvetica,sans-Serif" font-size="10.00">efd::XbitToNumber::</text>
<text text-anchor="middle" x="228.5" y="-559" font-family="Helvetica,sans-Serif" font-size="10.00">getCSize</text>
</a>
</g>
</g>
<!-- Node1&#45;&gt;Node12 -->
<g id="edge12" class="edge"><title>Node1&#45;&gt;Node12</title>
<path fill="none" stroke="midnightblue" d="M74.2386,-470.132C91.2789,-489.504 123.279,-522.954 157,-543 160.037,-544.806 163.229,-546.499 166.509,-548.084"/>
<polygon fill="midnightblue" stroke="midnightblue" points="165.366,-551.406 175.926,-552.265 168.207,-545.008 165.366,-551.406"/>
</g>
<!-- Node13 -->
<g id="node13" class="node"><title>Node13</title>
<g id="a_node13"><a xlink:href="../../db/d0c/structefd_1_1XbitToNumber.xhtml#ae9f84f1119a80e918cc3b3fd916a5922" target="_top" xlink:title="Returns an uint32_t number representing the classic bit;. ">
<polygon fill="none" stroke="black" points="176,-503 176,-533 281,-533 281,-503 176,-503"/>
<text text-anchor="start" x="184" y="-521" font-family="Helvetica,sans-Serif" font-size="10.00">efd::XbitToNumber::</text>
<text text-anchor="middle" x="228.5" y="-510" font-family="Helvetica,sans-Serif" font-size="10.00">getCUId</text>
</a>
</g>
</g>
<!-- Node1&#45;&gt;Node13 -->
<g id="edge13" class="edge"><title>Node1&#45;&gt;Node13</title>
<path fill="none" stroke="midnightblue" d="M98.5622,-470.126C116.201,-477.228 137.626,-485.713 157,-493 162.607,-495.109 168.481,-497.269 174.346,-499.394"/>
<polygon fill="midnightblue" stroke="midnightblue" points="173.562,-502.831 184.156,-502.921 175.931,-496.244 173.562,-502.831"/>
</g>
<!-- Node14 -->
<g id="node14" class="node"><title>Node14</title>
<g id="a_node14"><a xlink:href="../../db/d56/classefd_1_1PassT.xhtml#aae3442c1486bcec7622a64451262d684" target="_top" xlink:title="efd::PassT::getData">
<polygon fill="none" stroke="black" points="176,-464.5 176,-483.5 281,-483.5 281,-464.5 176,-464.5"/>
<text text-anchor="middle" x="228.5" y="-471.5" font-family="Helvetica,sans-Serif" font-size="10.00">efd::PassT::getData</text>
</a>
</g>
</g>
<!-- Node1&#45;&gt;Node14 -->
<g id="edge14" class="edge"><title>Node1&#45;&gt;Node14</title>
<path fill="none" stroke="midnightblue" d="M121.43,-461.859C135.778,-463.502 151.125,-465.258 165.562,-466.911"/>
<polygon fill="midnightblue" stroke="midnightblue" points="165.553,-470.432 175.887,-468.092 166.349,-463.478 165.553,-470.432"/>
</g>
<!-- Node15 -->
<g id="node15" class="node"><title>Node15</title>
<g id="a_node15"><a xlink:href="../../dd/d94/classefd_1_1NDQOp.xhtml#af7ef43289355c5bb047a46419177c8ed" target="_top" xlink:title="Gets the quantum arguments. ">
<polygon fill="none" stroke="black" points="169,-426.5 169,-445.5 288,-445.5 288,-426.5 169,-426.5"/>
<text text-anchor="middle" x="228.5" y="-433.5" font-family="Helvetica,sans-Serif" font-size="10.00">efd::NDQOp::getQArgs</text>
</a>
</g>
</g>
<!-- Node1&#45;&gt;Node15 -->
<g id="edge15" class="edge"><title>Node1&#45;&gt;Node15</title>
<path fill="none" stroke="midnightblue" d="M121.43,-448.141C133.474,-446.762 146.222,-445.303 158.544,-443.893"/>
<polygon fill="midnightblue" stroke="midnightblue" points="159.233,-447.337 168.77,-442.722 158.437,-440.382 159.233,-447.337"/>
</g>
<!-- Node16 -->
<g id="node16" class="node"><title>Node16</title>
<g id="a_node16"><a xlink:href="../../dc/d9d/classefd_1_1NDIfStmt.xhtml#ae5c408d49862e644f1d299ab5b2f121d" target="_top" xlink:title="Gets the qop. ">
<polygon fill="none" stroke="black" points="169.5,-388.5 169.5,-407.5 287.5,-407.5 287.5,-388.5 169.5,-388.5"/>
<text text-anchor="middle" x="228.5" y="-395.5" font-family="Helvetica,sans-Serif" font-size="10.00">efd::NDIfStmt::getQOp</text>
</a>
</g>
</g>
<!-- Node1&#45;&gt;Node16 -->
<g id="edge17" class="edge"><title>Node1&#45;&gt;Node16</title>
<path fill="none" stroke="midnightblue" d="M96.5167,-439.941C114.427,-432.527 136.681,-423.756 157,-417 164.109,-414.636 171.694,-412.351 179.155,-410.235"/>
<polygon fill="midnightblue" stroke="midnightblue" points="180.136,-413.595 188.842,-407.557 178.27,-406.848 180.136,-413.595"/>
</g>
<!-- Node17 -->
<g id="node17" class="node"><title>Node17</title>
<g id="a_node17"><a xlink:href="../../db/d0c/structefd_1_1XbitToNumber.xhtml#ab395508705fe60ed3bd0cfb28eb5ffc6" target="_top" xlink:title="Returns the number of qbits in a given gate (if any). ">
<polygon fill="none" stroke="black" points="176,-339 176,-369 281,-369 281,-339 176,-339"/>
<text text-anchor="start" x="184" y="-357" font-family="Helvetica,sans-Serif" font-size="10.00">efd::XbitToNumber::</text>
<text text-anchor="middle" x="228.5" y="-346" font-family="Helvetica,sans-Serif" font-size="10.00">getQSize</text>
</a>
</g>
</g>
<!-- Node1&#45;&gt;Node17 -->
<g id="edge19" class="edge"><title>Node1&#45;&gt;Node17</title>
<path fill="none" stroke="midnightblue" d="M77.2062,-439.752C95.218,-422.953 126.242,-396.063 157,-379 160.873,-376.851 164.966,-374.831 169.151,-372.944"/>
<polygon fill="midnightblue" stroke="midnightblue" points="170.566,-376.146 178.411,-369.025 167.837,-369.699 170.566,-376.146"/>
</g>
<!-- Node19 -->
<g id="node19" class="node"><title>Node19</title>
<g id="a_node19"><a xlink:href="../../db/d0c/structefd_1_1XbitToNumber.xhtml#ae645e4b0ccb9c25c534883843484f06a" target="_top" xlink:title="Returns an uint32_t number representing the qubit in this specific gate (if any). ...">
<polygon fill="none" stroke="black" points="176,-290 176,-320 281,-320 281,-290 176,-290"/>
<text text-anchor="start" x="184" y="-308" font-family="Helvetica,sans-Serif" font-size="10.00">efd::XbitToNumber::</text>
<text text-anchor="middle" x="228.5" y="-297" font-family="Helvetica,sans-Serif" font-size="10.00">getQUId</text>
</a>
</g>
</g>
<!-- Node1&#45;&gt;Node19 -->
<g id="edge21" class="edge"><title>Node1&#45;&gt;Node19</title>
<path fill="none" stroke="midnightblue" d="M69.3507,-439.626C83.4498,-413.474 115.501,-360.231 157,-330 160.011,-327.806 163.233,-325.791 166.58,-323.94"/>
<polygon fill="midnightblue" stroke="midnightblue" points="168.278,-327.005 175.674,-319.42 165.162,-320.736 168.278,-327.005"/>
</g>
<!-- Node20 -->
<g id="node20" class="node"><title>Node20</title>
<g id="a_node20"><a xlink:href="../../db/d0c/structefd_1_1XbitToNumber.xhtml#aa3dc820bf243cb3f06c6e6155e853888" target="_top" xlink:title="Returns a list of uids that relate to a given register. ">
<polygon fill="none" stroke="black" points="176,-241 176,-271 281,-271 281,-241 176,-241"/>
<text text-anchor="start" x="184" y="-259" font-family="Helvetica,sans-Serif" font-size="10.00">efd::XbitToNumber::</text>
<text text-anchor="middle" x="228.5" y="-248" font-family="Helvetica,sans-Serif" font-size="10.00">getRegUIds</text>
</a>
</g>
</g>
<!-- Node1&#45;&gt;Node20 -->
<g id="edge23" class="edge"><title>Node1&#45;&gt;Node20</title>
<path fill="none" stroke="midnightblue" d="M65.7498,-439.823C75.8876,-406.331 104.634,-325.54 157,-281 160.029,-278.423 163.343,-276.105 166.829,-274.021"/>
<polygon fill="midnightblue" stroke="midnightblue" points="168.568,-277.061 175.788,-269.307 165.309,-270.866 168.568,-277.061"/>
</g>
<!-- Node21 -->
<g id="node21" class="node"><title>Node21</title>
<g id="a_node21"><a xlink:href="../../df/d1b/classefd_1_1NDValue.xhtml#a53ee724a8db3429bf30bb1936ad548b2" target="_top" xlink:title="Returns a copy to the setted value. ">
<polygon fill="none" stroke="black" points="173.5,-202.5 173.5,-221.5 283.5,-221.5 283.5,-202.5 173.5,-202.5"/>
<text text-anchor="middle" x="228.5" y="-209.5" font-family="Helvetica,sans-Serif" font-size="10.00">efd::NDValue::getVal</text>
</a>
</g>
</g>
<!-- Node1&#45;&gt;Node21 -->
<g id="edge24" class="edge"><title>Node1&#45;&gt;Node21</title>
<path fill="none" stroke="midnightblue" d="M63.3976,-439.832C69.2755,-399.433 90.9511,-288.408 157,-231 159.242,-229.051 161.665,-227.3 164.216,-225.726"/>
<polygon fill="midnightblue" stroke="midnightblue" points="166.03,-228.729 173.31,-221.032 162.819,-222.509 166.03,-228.729"/>
</g>
<!-- Node22 -->
<g id="node22" class="node"><title>Node22</title>
<g id="a_node22"><a xlink:href="../../d0/d54/classefd_1_1CircuitGraph.xhtml#aacac1809d4af7ea1b82d9dd24661360c" target="_top" xlink:title="Initializes the CircuitGraph. ">
<polygon fill="none" stroke="black" points="173.5,-164.5 173.5,-183.5 283.5,-183.5 283.5,-164.5 173.5,-164.5"/>
<text text-anchor="middle" x="228.5" y="-171.5" font-family="Helvetica,sans-Serif" font-size="10.00">efd::CircuitGraph::init</text>
</a>
</g>
</g>
<!-- Node1&#45;&gt;Node22 -->
<g id="edge25" class="edge"><title>Node1&#45;&gt;Node22</title>
<path fill="none" stroke="midnightblue" d="M62.3368,-439.96C65.6573,-395.262 81.7189,-262.05 157,-193 159.308,-190.883 161.827,-188.998 164.494,-187.32"/>
<polygon fill="midnightblue" stroke="midnightblue" points="166.21,-190.372 173.445,-182.632 162.962,-184.171 166.21,-190.372"/>
</g>
<!-- Node23 -->
<g id="node23" class="node"><title>Node23</title>
<g id="a_node23"><a xlink:href="../../d9/d6b/classefd_1_1Xbit.xhtml#a9bc4937fc867235e1e7867529aee20e3" target="_top" xlink:title="Creates a quantum Xbit with id. ">
<polygon fill="none" stroke="black" points="195,-126.5 195,-145.5 262,-145.5 262,-126.5 195,-126.5"/>
<text text-anchor="middle" x="228.5" y="-133.5" font-family="Helvetica,sans-Serif" font-size="10.00">efd::Xbit::Q</text>
</a>
</g>
</g>
<!-- Node1&#45;&gt;Node23 -->
<g id="edge26" class="edge"><title>Node1&#45;&gt;Node23</title>
<path fill="none" stroke="midnightblue" d="M61.541,-439.952C62.5233,-391.16 72.4526,-235.831 157,-155 164.559,-147.773 174.568,-143.231 184.663,-140.394"/>
<polygon fill="midnightblue" stroke="midnightblue" points="185.736,-143.738 194.698,-138.088 184.168,-136.916 185.736,-143.738"/>
</g>
<!-- Node24 -->
<g id="node24" class="node"><title>Node24</title>
<g id="a_node24"><a xlink:href="../../dd/d52/classefd_1_1QModule.xhtml#ac00e1eb93f94c00db1e6a661d8f95d9d" target="_top" xlink:title="Iterator to the beginning of the statement node vector. ">
<polygon fill="none" stroke="black" points="178,-77 178,-107 279,-107 279,-77 178,-77"/>
<text text-anchor="start" x="186" y="-95" font-family="Helvetica,sans-Serif" font-size="10.00">efd::QModule::stmt</text>
<text text-anchor="middle" x="228.5" y="-84" font-family="Helvetica,sans-Serif" font-size="10.00">_begin</text>
</a>
</g>
</g>
<!-- Node1&#45;&gt;Node24 -->
<g id="edge27" class="edge"><title>Node1&#45;&gt;Node24</title>
<path fill="none" stroke="midnightblue" d="M61.1713,-439.864C60.8749,-387.668 66.9606,-213.13 157,-117 160.516,-113.246 164.632,-110.055 169.078,-107.343"/>
<polygon fill="midnightblue" stroke="midnightblue" points="170.725,-110.431 177.963,-102.695 167.48,-104.229 170.725,-110.431"/>
</g>
<!-- Node26 -->
<g id="node26" class="node"><title>Node26</title>
<g id="a_node26"><a xlink:href="../../dd/d52/classefd_1_1QModule.xhtml#a23d45e3b6c65d5fa14b199da8b0617c7" target="_top" xlink:title="Iterator to the end of the statement node vector. ">
<polygon fill="none" stroke="black" points="167.5,-38.5 167.5,-57.5 289.5,-57.5 289.5,-38.5 167.5,-38.5"/>
<text text-anchor="middle" x="228.5" y="-45.5" font-family="Helvetica,sans-Serif" font-size="10.00">efd::QModule::stmt_end</text>
</a>
</g>
</g>
<!-- Node1&#45;&gt;Node26 -->
<g id="edge29" class="edge"><title>Node1&#45;&gt;Node26</title>
<path fill="none" stroke="midnightblue" d="M63.2055,-439.64C70.7337,-374.535 103.03,-122.166 157,-67 158.28,-65.6918 159.64,-64.4707 161.066,-63.3311"/>
<polygon fill="midnightblue" stroke="midnightblue" points="163.365,-66.0137 169.875,-57.6554 159.573,-60.1293 163.365,-66.0137"/>
</g>
<!-- Node28 -->
<g id="node28" class="node"><title>Node28</title>
<g id="a_node28"><a xlink:href="../../d6/d6a/classefd_1_1Node.xhtml#a96ca13a5c2b971b68619ce4a34be0f66" target="_top" xlink:title="Returns a std::string representation of this Node and its childrem. ">
<polygon fill="none" stroke="black" points="179,-0.5 179,-19.5 278,-19.5 278,-0.5 179,-0.5"/>
<text text-anchor="middle" x="228.5" y="-7.5" font-family="Helvetica,sans-Serif" font-size="10.00">efd::Node::toString</text>
</a>
</g>
</g>
<!-- Node1&#45;&gt;Node28 -->
<g id="edge31" class="edge"><title>Node1&#45;&gt;Node28</title>
<path fill="none" stroke="midnightblue" d="M62.8505,-439.568C69.2003,-370.48 98.2699,-90.294 157,-29 160.634,-25.2073 164.939,-22.1446 169.602,-19.6749"/>
<polygon fill="midnightblue" stroke="midnightblue" points="171.153,-22.8171 178.929,-15.6206 168.362,-16.3973 171.153,-22.8171"/>
</g>
<!-- Node3 -->
<g id="node3" class="node"><title>Node3</title>
<g id="a_node3"><a xlink:href="../../d0/d54/classefd_1_1CircuitGraph.xhtml#a3b7cd29688c62411a7e561599a1dcbcb" target="_top" xlink:title="Checks if the CircuitGraph is initialized. Exits with error if not. ">
<polygon fill="none" stroke="black" points="340,-902 340,-932 437,-932 437,-902 340,-902"/>
<text text-anchor="start" x="348" y="-920" font-family="Helvetica,sans-Serif" font-size="10.00">efd::CircuitGraph::</text>
<text text-anchor="middle" x="388.5" y="-909" font-family="Helvetica,sans-Serif" font-size="10.00">checkInitialized</text>
</a>
</g>
</g>
<!-- Node2&#45;&gt;Node3 -->
<g id="edge2" class="edge"><title>Node2&#45;&gt;Node3</title>
<path fill="none" stroke="midnightblue" d="M277.334,-901.66C293.886,-903.965 312.611,-906.572 329.867,-908.975"/>
<polygon fill="midnightblue" stroke="midnightblue" points="329.441,-912.45 339.829,-910.362 330.407,-905.516 329.441,-912.45"/>
</g>
<!-- Node4 -->
<g id="node4" class="node"><title>Node4</title>
<g id="a_node4"><a xlink:href="../../d9/d6b/classefd_1_1Xbit.xhtml#ad18f73714ed4aa4fe239a210280e7519" target="_top" xlink:title="Gets the real id for this bit. ">
<polygon fill="none" stroke="black" points="338,-863.5 338,-882.5 439,-882.5 439,-863.5 338,-863.5"/>
<text text-anchor="middle" x="388.5" y="-870.5" font-family="Helvetica,sans-Serif" font-size="10.00">efd::Xbit::getRealId</text>
</a>
</g>
</g>
<!-- Node2&#45;&gt;Node4 -->
<g id="edge3" class="edge"><title>Node2&#45;&gt;Node4</title>
<path fill="none" stroke="midnightblue" d="M277.334,-888.34C293.205,-886.13 311.074,-883.642 327.729,-881.323"/>
<polygon fill="midnightblue" stroke="midnightblue" points="328.492,-884.75 337.913,-879.904 327.526,-877.817 328.492,-884.75"/>
</g>
<!-- Node11&#45;&gt;Node6 -->
<g id="edge11" class="edge"><title>Node11&#45;&gt;Node6</title>
<path fill="none" stroke="midnightblue" d="M275.631,-601.457C283.965,-598.93 292.411,-595.812 300,-592 327.336,-578.269 354.286,-555.175 370.897,-539.524"/>
<polygon fill="midnightblue" stroke="midnightblue" points="373.403,-541.97 378.178,-532.512 368.547,-536.928 373.403,-541.97"/>
</g>
<!-- Node15&#45;&gt;Node6 -->
<g id="edge16" class="edge"><title>Node15&#45;&gt;Node6</title>
<path fill="none" stroke="midnightblue" d="M275.609,-445.587C283.945,-448.109 292.397,-451.215 300,-455 327.085,-468.485 353.914,-491.064 370.58,-506.475"/>
<polygon fill="midnightblue" stroke="midnightblue" points="368.229,-509.069 377.901,-513.393 373.036,-503.981 368.229,-509.069"/>
</g>
<!-- Node16&#45;&gt;Node6 -->
<g id="edge18" class="edge"><title>Node16&#45;&gt;Node6</title>
<path fill="none" stroke="midnightblue" d="M280.058,-407.504C287.06,-409.977 293.925,-413.089 300,-417 335.093,-439.592 363.077,-480.792 377.286,-504.629"/>
<polygon fill="midnightblue" stroke="midnightblue" points="374.321,-506.493 382.356,-513.398 380.381,-502.989 374.321,-506.493"/>
</g>
<!-- Node18 -->
<g id="node18" class="node"><title>Node18</title>
<g id="a_node18"><a xlink:href="../../db/d0c/structefd_1_1XbitToNumber.xhtml#a7d9474b325920d98f5832d5f1923ba2b" target="_top" xlink:title="Gets a constant reference to the mapping of qubtis of a gate. ">
<polygon fill="none" stroke="black" points="336,-314 336,-344 441,-344 441,-314 336,-314"/>
<text text-anchor="start" x="344" y="-332" font-family="Helvetica,sans-Serif" font-size="10.00">efd::XbitToNumber::</text>
<text text-anchor="middle" x="388.5" y="-321" font-family="Helvetica,sans-Serif" font-size="10.00">getQbitMap</text>
</a>
</g>
</g>
<!-- Node17&#45;&gt;Node18 -->
<g id="edge20" class="edge"><title>Node17&#45;&gt;Node18</title>
<path fill="none" stroke="midnightblue" d="M281.235,-345.814C295.494,-343.558 311.104,-341.088 325.864,-338.753"/>
<polygon fill="midnightblue" stroke="midnightblue" points="326.589,-342.182 335.919,-337.162 325.494,-335.268 326.589,-342.182"/>
</g>
<!-- Node19&#45;&gt;Node18 -->
<g id="edge22" class="edge"><title>Node19&#45;&gt;Node18</title>
<path fill="none" stroke="midnightblue" d="M281.235,-312.858C295.494,-315.024 311.104,-317.396 325.864,-319.638"/>
<polygon fill="midnightblue" stroke="midnightblue" points="325.506,-323.123 335.919,-321.165 326.558,-316.203 325.506,-323.123"/>
</g>
<!-- Node25 -->
<g id="node25" class="node"><title>Node25</title>
<g id="a_node25"><a xlink:href="../../d6/d6a/classefd_1_1Node.xhtml#ae890d36b0dcb332d82616b3180da1886" target="_top" xlink:title="Returns a iterator to the beginning of the vector. ">
<polygon fill="none" stroke="black" points="344,-82.5 344,-101.5 433,-101.5 433,-82.5 344,-82.5"/>
<text text-anchor="middle" x="388.5" y="-89.5" font-family="Helvetica,sans-Serif" font-size="10.00">efd::Node::begin</text>
</a>
</g>
</g>
<!-- Node24&#45;&gt;Node25 -->
<g id="edge28" class="edge"><title>Node24&#45;&gt;Node25</title>
<path fill="none" stroke="midnightblue" d="M279.059,-92C296.459,-92 316.083,-92 333.806,-92"/>
<polygon fill="midnightblue" stroke="midnightblue" points="333.991,-95.5001 343.991,-92 333.991,-88.5001 333.991,-95.5001"/>
</g>
<!-- Node27 -->
<g id="node27" class="node"><title>Node27</title>
<g id="a_node27"><a xlink:href="../../d6/d6a/classefd_1_1Node.xhtml#a335606078a1d727de214982453c9dd1b" target="_top" xlink:title="Returns a iterator to the end of the vector. ">
<polygon fill="none" stroke="black" points="348,-38.5 348,-57.5 429,-57.5 429,-38.5 348,-38.5"/>
<text text-anchor="middle" x="388.5" y="-45.5" font-family="Helvetica,sans-Serif" font-size="10.00">efd::Node::end</text>
</a>
</g>
</g>
<!-- Node26&#45;&gt;Node27 -->
<g id="edge30" class="edge"><title>Node26&#45;&gt;Node27</title>
<path fill="none" stroke="midnightblue" d="M289.684,-48C305.414,-48 322.201,-48 337.348,-48"/>
<polygon fill="midnightblue" stroke="midnightblue" points="337.539,-51.5001 347.539,-48 337.539,-44.5001 337.539,-51.5001"/>
</g>
</g>
</svg>
