<?xml version="1.0" encoding="UTF-8" standalone="no"?>
<!DOCTYPE svg PUBLIC "-//W3C//DTD SVG 1.1//EN"
 "http://www.w3.org/Graphics/SVG/1.1/DTD/svg11.dtd">
<!-- Generated by graphviz version 2.40.1 (20161225.0304)
 -->
<!-- Title: include/enfield/Transform/Allocators/SimpleQAllocator.h Pages: 1 -->
<svg width="1378pt" height="531pt"
 viewBox="0.00 0.00 1378.00 531.00" xmlns="http://www.w3.org/2000/svg" xmlns:xlink="http://www.w3.org/1999/xlink">
<g id="graph0" class="graph" transform="scale(1 1) rotate(0) translate(4 527)">
<title>include/enfield/Transform/Allocators/SimpleQAllocator.h</title>
<!-- Node0 -->
<g id="node1" class="node">
<title>Node0</title>
<polygon fill="#bfbfbf" stroke="#000000" points="843.5,-492.5 843.5,-522.5 1008.5,-522.5 1008.5,-492.5 843.5,-492.5"/>
<text text-anchor="start" x="851.5" y="-510.5" font-family="Helvetica,sans-Serif" font-size="10.00" fill="#000000">include/enfield/Transform</text>
<text text-anchor="middle" x="926" y="-499.5" font-family="Helvetica,sans-Serif" font-size="10.00" fill="#000000">/Allocators/SimpleQAllocator.h</text>
</g>
<!-- Node1 -->
<g id="node2" class="node">
<title>Node1</title>
<g id="a_node2"><a xlink:href="../../d2/dc7/StdSolutionQAllocator_8h.xhtml" target="_top" xlink:title="enfield/Transform/Allocators\l/StdSolutionQAllocator.h">
<polygon fill="none" stroke="#000000" points="762.5,-425.5 762.5,-455.5 917.5,-455.5 917.5,-425.5 762.5,-425.5"/>
<text text-anchor="start" x="770.5" y="-443.5" font-family="Helvetica,sans-Serif" font-size="10.00" fill="#000000">enfield/Transform/Allocators</text>
<text text-anchor="middle" x="840" y="-432.5" font-family="Helvetica,sans-Serif" font-size="10.00" fill="#000000">/StdSolutionQAllocator.h</text>
</a>
</g>
</g>
<!-- Node0&#45;&gt;Node1 -->
<g id="edge1" class="edge">
<title>Node0&#45;&gt;Node1</title>
<path fill="none" stroke="#191970" d="M906.4853,-492.2967C894.9398,-483.302 880.136,-471.7687 867.4294,-461.8694"/>
<polygon fill="#191970" stroke="#191970" points="869.4771,-459.028 859.4375,-455.6432 865.1751,-464.55 869.4771,-459.028"/>
</g>
<!-- Node30 -->
<g id="node31" class="node">
<title>Node30</title>
<g id="a_node31"><a xlink:href="../../d0/d86/BitOptions_8h.xhtml" target="_top" xlink:title="enfield/Support/BitOptions.h">
<polygon fill="none" stroke="#000000" points="1215,-431 1215,-450 1369,-450 1369,-431 1215,-431"/>
<text text-anchor="middle" x="1292" y="-438" font-family="Helvetica,sans-Serif" font-size="10.00" fill="#000000">enfield/Support/BitOptions.h</text>
</a>
</g>
</g>
<!-- Node0&#45;&gt;Node30 -->
<g id="edge54" class="edge">
<title>Node0&#45;&gt;Node30</title>
<path fill="none" stroke="#191970" d="M1008.1375,-492.4639C1075.4181,-480.1475 1169.1504,-462.9889 1230.1947,-451.8141"/>
<polygon fill="#191970" stroke="#191970" points="1230.8693,-455.2488 1240.0756,-450.0053 1229.6088,-448.3633 1230.8693,-455.2488"/>
</g>
<!-- Node2 -->
<g id="node3" class="node">
<title>Node2</title>
<g id="a_node3"><a xlink:href="../../dd/d3b/QbitAllocator_8h.xhtml" target="_top" xlink:title="enfield/Transform/Allocators\l/QbitAllocator.h">
<polygon fill="none" stroke="#000000" points="569.5,-358.5 569.5,-388.5 724.5,-388.5 724.5,-358.5 569.5,-358.5"/>
<text text-anchor="start" x="577.5" y="-376.5" font-family="Helvetica,sans-Serif" font-size="10.00" fill="#000000">enfield/Transform/Allocators</text>
<text text-anchor="middle" x="647" y="-365.5" font-family="Helvetica,sans-Serif" font-size="10.00" fill="#000000">/QbitAllocator.h</text>
</a>
</g>
</g>
<!-- Node1&#45;&gt;Node2 -->
<g id="edge2" class="edge">
<title>Node1&#45;&gt;Node2</title>
<path fill="none" stroke="#191970" d="M796.687,-425.4639C768.1058,-415.5419 730.4722,-402.4774 700.0906,-391.9304"/>
<polygon fill="#191970" stroke="#191970" points="701.0967,-388.5748 690.5019,-388.6017 698.801,-395.1877 701.0967,-388.5748"/>
</g>
<!-- Node3 -->
<g id="node4" class="node">
<title>Node3</title>
<g id="a_node4"><a xlink:href="../../d7/d9d/ArchGraph_8h.xhtml" target="_top" xlink:title="enfield/Arch/ArchGraph.h">
<polygon fill="none" stroke="#000000" points="88,-230 88,-249 226,-249 226,-230 88,-230"/>
<text text-anchor="middle" x="157" y="-237" font-family="Helvetica,sans-Serif" font-size="10.00" fill="#000000">enfield/Arch/ArchGraph.h</text>
</a>
</g>
</g>
<!-- Node2&#45;&gt;Node3 -->
<g id="edge3" class="edge">
<title>Node2&#45;&gt;Node3</title>
<path fill="none" stroke="#191970" d="M591.7433,-358.389C493.7768,-331.5981 291.5191,-276.2869 201.6827,-251.7194"/>
<polygon fill="#191970" stroke="#191970" points="202.3784,-248.2811 191.8093,-249.0193 200.5318,-255.0332 202.3784,-248.2811"/>
</g>
<!-- Node15 -->
<g id="node16" class="node">
<title>Node15</title>
<g id="a_node16"><a xlink:href="../../d9/dcf/DependencyBuilderPass_8h.xhtml" target="_top" xlink:title="enfield/Transform/Dependency\lBuilderPass.h">
<polygon fill="none" stroke="#000000" points="563.5,-291.5 563.5,-321.5 730.5,-321.5 730.5,-291.5 563.5,-291.5"/>
<text text-anchor="start" x="571.5" y="-309.5" font-family="Helvetica,sans-Serif" font-size="10.00" fill="#000000">enfield/Transform/Dependency</text>
<text text-anchor="middle" x="647" y="-298.5" font-family="Helvetica,sans-Serif" font-size="10.00" fill="#000000">BuilderPass.h</text>
</a>
</g>
</g>
<!-- Node2&#45;&gt;Node15 -->
<g id="edge17" class="edge">
<title>Node2&#45;&gt;Node15</title>
<path fill="none" stroke="#191970" d="M647,-358.2967C647,-350.5013 647,-340.7991 647,-331.9064"/>
<polygon fill="#191970" stroke="#191970" points="650.5001,-331.6431 647,-321.6432 643.5001,-331.6432 650.5001,-331.6431"/>
</g>
<!-- Node20 -->
<g id="node21" class="node">
<title>Node20</title>
<g id="a_node21"><a xlink:href="../../d9/d41/CommandLine_8h.xhtml" target="_top" xlink:title="enfield/Support/CommandLine.h">
<polygon fill="none" stroke="#000000" points="973.5,-297 973.5,-316 1146.5,-316 1146.5,-297 973.5,-297"/>
<text text-anchor="middle" x="1060" y="-304" font-family="Helvetica,sans-Serif" font-size="10.00" fill="#000000">enfield/Support/CommandLine.h</text>
</a>
</g>
</g>
<!-- Node2&#45;&gt;Node20 -->
<g id="edge37" class="edge">
<title>Node2&#45;&gt;Node20</title>
<path fill="none" stroke="#191970" d="M724.6821,-360.8978C801.4518,-348.4437 917.7702,-329.5736 991.2695,-317.65"/>
<polygon fill="#191970" stroke="#191970" points="992.0374,-321.0713 1001.3479,-316.015 990.9164,-314.1616 992.0374,-321.0713"/>
</g>
<!-- Node29 -->
<g id="node30" class="node">
<title>Node29</title>
<g id="a_node30"><a xlink:href="../../dc/d09/Stats_8h.xhtml" target="_top" xlink:title="enfield/Support/Stats.h">
<polygon fill="none" stroke="#000000" points="0,-112.5 0,-131.5 128,-131.5 128,-112.5 0,-112.5"/>
<text text-anchor="middle" x="64" y="-119.5" font-family="Helvetica,sans-Serif" font-size="10.00" fill="#000000">enfield/Support/Stats.h</text>
</a>
</g>
</g>
<!-- Node2&#45;&gt;Node29 -->
<g id="edge51" class="edge">
<title>Node2&#45;&gt;Node29</title>
<path fill="none" stroke="#191970" d="M569.4135,-368.5289C429.3354,-357.8233 142.7907,-327.43 79,-255 51.3414,-223.5956 55.1745,-170.5549 59.8792,-141.8619"/>
<polygon fill="#191970" stroke="#191970" points="63.3576,-142.2987 61.7272,-131.8301 56.4734,-141.0305 63.3576,-142.2987"/>
</g>
<!-- Node4 -->
<g id="node5" class="node">
<title>Node4</title>
<g id="a_node5"><a xlink:href="../../d7/d16/Graph_8h.xhtml" target="_top" xlink:title="enfield/Support/Graph.h">
<polygon fill="none" stroke="#000000" points="256,-168.5 256,-187.5 388,-187.5 388,-168.5 256,-168.5"/>
<text text-anchor="middle" x="322" y="-175.5" font-family="Helvetica,sans-Serif" font-size="10.00" fill="#000000">enfield/Support/Graph.h</text>
</a>
</g>
</g>
<!-- Node3&#45;&gt;Node4 -->
<g id="edge4" class="edge">
<title>Node3&#45;&gt;Node4</title>
<path fill="none" stroke="#191970" d="M182.7813,-229.8906C210.752,-219.4652 255.5819,-202.7559 286.786,-191.1252"/>
<polygon fill="#191970" stroke="#191970" points="288.2519,-194.3141 296.3998,-187.5419 285.8071,-187.7549 288.2519,-194.3141"/>
</g>
<!-- Node9 -->
<g id="node10" class="node">
<title>Node9</title>
<g id="a_node10"><a xlink:href="../../d4/daf/Nodes_8h.xhtml" target="_top" xlink:title="enfield/Analysis/Nodes.h">
<polygon fill="none" stroke="#000000" points="161.5,-112.5 161.5,-131.5 298.5,-131.5 298.5,-112.5 161.5,-112.5"/>
<text text-anchor="middle" x="230" y="-119.5" font-family="Helvetica,sans-Serif" font-size="10.00" fill="#000000">enfield/Analysis/Nodes.h</text>
</a>
</g>
</g>
<!-- Node3&#45;&gt;Node9 -->
<g id="edge9" class="edge">
<title>Node3&#45;&gt;Node9</title>
<path fill="none" stroke="#191970" d="M157.72,-229.9878C159.1898,-215.5706 163.5339,-187.7746 176,-168 183.4912,-156.117 195.027,-145.6911 205.5161,-137.7829"/>
<polygon fill="#191970" stroke="#191970" points="207.8589,-140.4111 213.9689,-131.7555 203.7948,-134.7116 207.8589,-140.4111"/>
</g>
<!-- Node5 -->
<g id="node6" class="node">
<title>Node5</title>
<polygon fill="none" stroke="#bfbfbf" points="400,-112.5 400,-131.5 432,-131.5 432,-112.5 400,-112.5"/>
<text text-anchor="middle" x="416" y="-119.5" font-family="Helvetica,sans-Serif" font-size="10.00" fill="#000000">set</text>
</g>
<!-- Node4&#45;&gt;Node5 -->
<g id="edge5" class="edge">
<title>Node4&#45;&gt;Node5</title>
<path fill="none" stroke="#191970" d="M338.3736,-168.2455C352.9308,-159.5731 374.431,-146.7645 391.1152,-136.825"/>
<polygon fill="#191970" stroke="#191970" points="393.0144,-139.7676 399.8141,-131.6427 389.4317,-133.7539 393.0144,-139.7676"/>
</g>
<!-- Node6 -->
<g id="node7" class="node">
<title>Node6</title>
<polygon fill="none" stroke="#bfbfbf" points="890.5,-56.5 890.5,-75.5 937.5,-75.5 937.5,-56.5 890.5,-56.5"/>
<text text-anchor="middle" x="914" y="-63.5" font-family="Helvetica,sans-Serif" font-size="10.00" fill="#000000">vector</text>
</g>
<!-- Node4&#45;&gt;Node6 -->
<g id="edge6" class="edge">
<title>Node4&#45;&gt;Node6</title>
<path fill="none" stroke="#191970" d="M328.711,-168.262C339.7269,-153.177 363.2177,-124.589 391,-112 435.4424,-91.8618 771.4185,-73.2306 880.1567,-67.6736"/>
<polygon fill="#191970" stroke="#191970" points="880.4344,-71.1641 890.2444,-67.1624 880.0801,-64.1731 880.4344,-71.1641"/>
</g>
<!-- Node7 -->
<g id="node8" class="node">
<title>Node7</title>
<polygon fill="none" stroke="#bfbfbf" points="482.5,-112.5 482.5,-131.5 575.5,-131.5 575.5,-112.5 482.5,-112.5"/>
<text text-anchor="middle" x="529" y="-119.5" font-family="Helvetica,sans-Serif" font-size="10.00" fill="#000000">unordered_map</text>
</g>
<!-- Node4&#45;&gt;Node7 -->
<g id="edge7" class="edge">
<title>Node4&#45;&gt;Node7</title>
<path fill="none" stroke="#191970" d="M357.5846,-168.3733C392.6016,-158.9001 446.1881,-144.4032 484.1125,-134.1435"/>
<polygon fill="#191970" stroke="#191970" points="485.1408,-137.4912 493.8798,-131.5011 483.3127,-130.7341 485.1408,-137.4912"/>
</g>
<!-- Node8 -->
<g id="node9" class="node">
<title>Node8</title>
<polygon fill="none" stroke="#bfbfbf" points="536,-56.5 536,-75.5 594,-75.5 594,-56.5 536,-56.5"/>
<text text-anchor="middle" x="565" y="-63.5" font-family="Helvetica,sans-Serif" font-size="10.00" fill="#000000">memory</text>
</g>
<!-- Node4&#45;&gt;Node8 -->
<g id="edge8" class="edge">
<title>Node4&#45;&gt;Node8</title>
<path fill="none" stroke="#191970" d="M324.3578,-168.2057C328.4126,-153.5731 338.1506,-126.2091 357,-112 416.1421,-67.4175 449.0858,-91.6352 525.8895,-76.0201"/>
<polygon fill="#191970" stroke="#191970" points="526.9804,-79.3636 535.9903,-73.7894 525.4708,-72.5283 526.9804,-79.3636"/>
</g>
<!-- Node9&#45;&gt;Node6 -->
<g id="edge15" class="edge">
<title>Node9&#45;&gt;Node6</title>
<path fill="none" stroke="#191970" d="M298.7163,-116.3741C443.1557,-104.5487 773.6984,-77.4867 880.2373,-68.7642"/>
<polygon fill="#191970" stroke="#191970" points="880.7238,-72.2362 890.4048,-67.9318 880.1525,-65.2595 880.7238,-72.2362"/>
</g>
<!-- Node9&#45;&gt;Node8 -->
<g id="edge16" class="edge">
<title>Node9&#45;&gt;Node8</title>
<path fill="none" stroke="#191970" d="M298.7825,-113.4054C356.9112,-105.6717 442.5356,-93.1797 525.7427,-76.1049"/>
<polygon fill="#191970" stroke="#191970" points="526.5335,-79.5155 535.613,-74.0552 525.1102,-72.6617 526.5335,-79.5155"/>
</g>
<!-- Node10 -->
<g id="node11" class="node">
<title>Node10</title>
<g id="a_node11"><a xlink:href="../../d1/d2e/WrapperVal_8h.xhtml" target="_top" xlink:title="enfield/Support/WrapperVal.h">
<polygon fill="none" stroke="#000000" points="214,-56.5 214,-75.5 374,-75.5 374,-56.5 214,-56.5"/>
<text text-anchor="middle" x="294" y="-63.5" font-family="Helvetica,sans-Serif" font-size="10.00" fill="#000000">enfield/Support/WrapperVal.h</text>
</a>
</g>
</g>
<!-- Node9&#45;&gt;Node10 -->
<g id="edge10" class="edge">
<title>Node9&#45;&gt;Node10</title>
<path fill="none" stroke="#191970" d="M241.1479,-112.2455C250.5087,-104.0549 264.0858,-92.1749 275.1349,-82.5069"/>
<polygon fill="#191970" stroke="#191970" points="277.7588,-84.8618 282.9798,-75.6427 273.1492,-79.5937 277.7588,-84.8618"/>
</g>
<!-- Node12 -->
<g id="node13" class="node">
<title>Node12</title>
<g id="a_node13"><a xlink:href="../../d5/dfc/RTTI_8h.xhtml" target="_top" xlink:title="enfield/Support/RTTI.h">
<polygon fill="none" stroke="#000000" points="392.5,-56.5 392.5,-75.5 517.5,-75.5 517.5,-56.5 392.5,-56.5"/>
<text text-anchor="middle" x="455" y="-63.5" font-family="Helvetica,sans-Serif" font-size="10.00" fill="#000000">enfield/Support/RTTI.h</text>
</a>
</g>
</g>
<!-- Node9&#45;&gt;Node12 -->
<g id="edge12" class="edge">
<title>Node9&#45;&gt;Node12</title>
<path fill="none" stroke="#191970" d="M268.4232,-112.4369C306.6875,-102.9133 365.5337,-88.2672 406.8849,-77.9753"/>
<polygon fill="#191970" stroke="#191970" points="407.8766,-81.3353 416.7353,-75.5237 406.1859,-74.5426 407.8766,-81.3353"/>
</g>
<!-- Node13 -->
<g id="node14" class="node">
<title>Node13</title>
<polygon fill="none" stroke="#bfbfbf" points="112.5,-56.5 112.5,-75.5 195.5,-75.5 195.5,-56.5 112.5,-56.5"/>
<text text-anchor="middle" x="154" y="-63.5" font-family="Helvetica,sans-Serif" font-size="10.00" fill="#000000">initializer_list</text>
</g>
<!-- Node9&#45;&gt;Node13 -->
<g id="edge13" class="edge">
<title>Node9&#45;&gt;Node13</title>
<path fill="none" stroke="#191970" d="M216.7618,-112.2455C205.319,-103.814 188.5704,-91.4729 175.2525,-81.6598"/>
<polygon fill="#191970" stroke="#191970" points="177.2133,-78.757 167.0865,-75.6427 173.0609,-84.3924 177.2133,-78.757"/>
</g>
<!-- Node14 -->
<g id="node15" class="node">
<title>Node14</title>
<polygon fill="none" stroke="#bfbfbf" points="34,-56.5 34,-75.5 94,-75.5 94,-56.5 34,-56.5"/>
<text text-anchor="middle" x="64" y="-63.5" font-family="Helvetica,sans-Serif" font-size="10.00" fill="#000000">iostream</text>
</g>
<!-- Node9&#45;&gt;Node14 -->
<g id="edge14" class="edge">
<title>Node9&#45;&gt;Node14</title>
<path fill="none" stroke="#191970" d="M201.4636,-112.3733C173.9798,-103.1016 132.2314,-89.0178 101.9548,-78.804"/>
<polygon fill="#191970" stroke="#191970" points="102.7582,-75.3813 92.164,-75.5011 100.5206,-82.0141 102.7582,-75.3813"/>
</g>
<!-- Node11 -->
<g id="node12" class="node">
<title>Node11</title>
<polygon fill="none" stroke="#bfbfbf" points="790,-.5 790,-19.5 834,-19.5 834,-.5 790,-.5"/>
<text text-anchor="middle" x="812" y="-7.5" font-family="Helvetica,sans-Serif" font-size="10.00" fill="#000000">string</text>
</g>
<!-- Node10&#45;&gt;Node11 -->
<g id="edge11" class="edge">
<title>Node10&#45;&gt;Node11</title>
<path fill="none" stroke="#191970" d="M374.4689,-57.0445C377.6878,-56.6909 380.8744,-56.3416 384,-56 531.6869,-39.8588 708.0954,-21.0474 779.5604,-13.4463"/>
<polygon fill="#191970" stroke="#191970" points="780.1447,-16.904 789.7186,-12.3662 779.4046,-9.9432 780.1447,-16.904"/>
</g>
<!-- Node15&#45;&gt;Node5 -->
<g id="edge36" class="edge">
<title>Node15&#45;&gt;Node5</title>
<path fill="none" stroke="#191970" d="M571.8559,-291.3846C546.4922,-283.6008 519.2516,-272.0292 498,-255 459.5207,-224.1659 434.3431,-170.0623 422.9782,-141.2815"/>
<polygon fill="#191970" stroke="#191970" points="426.1211,-139.6989 419.2998,-131.5921 419.5769,-142.1834 426.1211,-139.6989"/>
</g>
<!-- Node15&#45;&gt;Node6 -->
<g id="edge35" class="edge">
<title>Node15&#45;&gt;Node6</title>
<path fill="none" stroke="#191970" d="M730.802,-296.6264C764.5172,-289.3765 802.156,-276.8036 831,-255 886.802,-212.8185 905.7622,-125.0848 911.621,-85.7854"/>
<polygon fill="#191970" stroke="#191970" points="915.0916,-86.2385 912.971,-75.8581 908.1554,-85.2952 915.0916,-86.2385"/>
</g>
<!-- Node15&#45;&gt;Node7 -->
<g id="edge33" class="edge">
<title>Node15&#45;&gt;Node7</title>
<path fill="none" stroke="#191970" d="M605.0447,-291.4727C563.0059,-273.8907 500.6797,-240.34 473,-188 462.6434,-168.4166 482.7857,-149.501 501.7348,-136.9783"/>
<polygon fill="#191970" stroke="#191970" points="503.5941,-139.9437 510.2433,-131.6951 499.9015,-133.9968 503.5941,-139.9437"/>
</g>
<!-- Node15&#45;&gt;Node9 -->
<g id="edge18" class="edge">
<title>Node15&#45;&gt;Node9</title>
<path fill="none" stroke="#191970" d="M563.3657,-294.732C453.5707,-277.3718 270.0388,-241.1119 230,-188 220.1063,-174.8759 221.2995,-155.7388 224.2616,-141.447"/>
<polygon fill="#191970" stroke="#191970" points="227.6828,-142.1931 226.7173,-131.6423 220.8925,-140.4924 227.6828,-142.1931"/>
</g>
<!-- Node16 -->
<g id="node17" class="node">
<title>Node16</title>
<g id="a_node17"><a xlink:href="../../df/d29/Pass_8h.xhtml" target="_top" xlink:title="enfield/Transform/Pass.h">
<polygon fill="none" stroke="#000000" points="614,-112.5 614,-131.5 752,-131.5 752,-112.5 614,-112.5"/>
<text text-anchor="middle" x="683" y="-119.5" font-family="Helvetica,sans-Serif" font-size="10.00" fill="#000000">enfield/Transform/Pass.h</text>
</a>
</g>
</g>
<!-- Node15&#45;&gt;Node16 -->
<g id="edge19" class="edge">
<title>Node15&#45;&gt;Node16</title>
<path fill="none" stroke="#191970" d="M716.462,-291.4596C768.4504,-275.7895 834.3277,-245.2088 857,-188 860.2749,-179.7364 862.423,-175.043 857,-168 844.8926,-152.2758 801.9597,-140.8305 761.7734,-133.2892"/>
<polygon fill="#191970" stroke="#191970" points="762.3714,-129.8406 751.9078,-131.5032 761.1244,-136.7287 762.3714,-129.8406"/>
</g>
<!-- Node17 -->
<g id="node18" class="node">
<title>Node17</title>
<g id="a_node18"><a xlink:href="../../d4/d73/QModule_8h.xhtml" target="_top" xlink:title="enfield/Transform/QModule.h">
<polygon fill="none" stroke="#000000" points="482,-168.5 482,-187.5 640,-187.5 640,-168.5 482,-168.5"/>
<text text-anchor="middle" x="561" y="-175.5" font-family="Helvetica,sans-Serif" font-size="10.00" fill="#000000">enfield/Transform/QModule.h</text>
</a>
</g>
</g>
<!-- Node15&#45;&gt;Node17 -->
<g id="edge21" class="edge">
<title>Node15&#45;&gt;Node17</title>
<path fill="none" stroke="#191970" d="M635.3752,-291.4016C627.6837,-281.2547 617.4897,-267.5014 609,-255 595.6615,-235.3586 581.3912,-212.1549 571.9096,-196.3917"/>
<polygon fill="#191970" stroke="#191970" points="574.8112,-194.4241 566.676,-187.6367 568.8029,-198.0159 574.8112,-194.4241"/>
</g>
<!-- Node18 -->
<g id="node19" class="node">
<title>Node18</title>
<g id="a_node19"><a xlink:href="../../d6/d94/XbitToNumberPass_8h.xhtml" target="_top" xlink:title="enfield/Transform/XbitTo\lNumberPass.h">
<polygon fill="none" stroke="#000000" points="618,-224.5 618,-254.5 756,-254.5 756,-224.5 618,-224.5"/>
<text text-anchor="start" x="626" y="-242.5" font-family="Helvetica,sans-Serif" font-size="10.00" fill="#000000">enfield/Transform/XbitTo</text>
<text text-anchor="middle" x="687" y="-231.5" font-family="Helvetica,sans-Serif" font-size="10.00" fill="#000000">NumberPass.h</text>
</a>
</g>
</g>
<!-- Node15&#45;&gt;Node18 -->
<g id="edge25" class="edge">
<title>Node15&#45;&gt;Node18</title>
<path fill="none" stroke="#191970" d="M656.0766,-291.2967C660.9863,-283.0729 667.1629,-272.7272 672.7025,-263.4483"/>
<polygon fill="#191970" stroke="#191970" points="675.8383,-265.0236 677.9593,-254.6432 669.828,-261.4352 675.8383,-265.0236"/>
</g>
<!-- Node19 -->
<g id="node20" class="node">
<title>Node19</title>
<polygon fill="none" stroke="#bfbfbf" points="810,-168.5 810,-187.5 848,-187.5 848,-168.5 810,-168.5"/>
<text text-anchor="middle" x="829" y="-175.5" font-family="Helvetica,sans-Serif" font-size="10.00" fill="#000000">map</text>
</g>
<!-- Node15&#45;&gt;Node19 -->
<g id="edge34" class="edge">
<title>Node15&#45;&gt;Node19</title>
<path fill="none" stroke="#191970" d="M694.8066,-291.443C717.4225,-282.9214 744.0035,-270.7778 765,-255 786.9262,-238.5236 806.1361,-213.1074 817.6491,-196.03"/>
<polygon fill="#191970" stroke="#191970" points="820.6769,-197.7949 823.2216,-187.5102 814.8187,-193.9632 820.6769,-197.7949"/>
</g>
<!-- Node16&#45;&gt;Node8 -->
<g id="edge20" class="edge">
<title>Node16&#45;&gt;Node8</title>
<path fill="none" stroke="#191970" d="M662.7151,-112.3733C643.8579,-103.4241 615.554,-89.9917 594.2545,-79.8835"/>
<polygon fill="#191970" stroke="#191970" points="595.5551,-76.6266 585.0202,-75.5011 592.5539,-82.9506 595.5551,-76.6266"/>
</g>
<!-- Node17&#45;&gt;Node7 -->
<g id="edge24" class="edge">
<title>Node17&#45;&gt;Node7</title>
<path fill="none" stroke="#191970" d="M555.426,-168.2455C551.0669,-160.617 544.8789,-149.7881 539.5867,-140.5267"/>
<polygon fill="#191970" stroke="#191970" points="542.5104,-138.5886 534.5101,-131.6427 536.4327,-142.0616 542.5104,-138.5886"/>
</g>
<!-- Node17&#45;&gt;Node9 -->
<g id="edge22" class="edge">
<title>Node17&#45;&gt;Node9</title>
<path fill="none" stroke="#191970" d="M504.4752,-168.4369C446.756,-158.6717 357.2029,-143.5207 296.2034,-133.2006"/>
<polygon fill="#191970" stroke="#191970" points="296.7355,-129.7409 286.2917,-131.5237 295.5677,-136.6429 296.7355,-129.7409"/>
</g>
<!-- Node17&#45;&gt;Node16 -->
<g id="edge23" class="edge">
<title>Node17&#45;&gt;Node16</title>
<path fill="none" stroke="#191970" d="M581.9725,-168.3733C601.5567,-159.3838 630.9961,-145.8706 653.051,-135.7471"/>
<polygon fill="#191970" stroke="#191970" points="654.6729,-138.8538 662.3011,-131.5011 651.7527,-132.4919 654.6729,-138.8538"/>
</g>
<!-- Node18&#45;&gt;Node5 -->
<g id="edge31" class="edge">
<title>Node18&#45;&gt;Node5</title>
<path fill="none" stroke="#191970" d="M683.1597,-224.3597C678.1521,-207.8439 667.7366,-181.9096 649,-168 640.6629,-161.8107 501.1506,-136.875 442.0846,-126.5311"/>
<polygon fill="#191970" stroke="#191970" points="442.4947,-123.0498 432.0417,-124.7773 441.2905,-129.9455 442.4947,-123.0498"/>
</g>
<!-- Node18&#45;&gt;Node6 -->
<g id="edge30" class="edge">
<title>Node18&#45;&gt;Node6</title>
<path fill="none" stroke="#191970" d="M706.7477,-224.4065C749.4344,-191.7803 849.9485,-114.9557 893.3964,-81.7477"/>
<polygon fill="#191970" stroke="#191970" points="895.7064,-84.3874 901.5261,-75.534 891.4556,-78.8258 895.7064,-84.3874"/>
</g>
<!-- Node18&#45;&gt;Node7 -->
<g id="edge29" class="edge">
<title>Node18&#45;&gt;Node7</title>
<path fill="none" stroke="#191970" d="M690.5135,-224.3207C693.2277,-208.4986 694.6633,-183.8442 682,-168 669.7199,-152.6352 624.0867,-140.1763 585.8254,-132.1194"/>
<polygon fill="#191970" stroke="#191970" points="586.272,-128.6384 575.7738,-130.0659 584.8708,-135.4967 586.272,-128.6384"/>
</g>
<!-- Node18&#45;&gt;Node9 -->
<g id="edge28" class="edge">
<title>Node18&#45;&gt;Node9</title>
<path fill="none" stroke="#191970" d="M617.9859,-235.6743C501.1567,-228.579 274.378,-211.8967 247,-188 234.0715,-176.7155 230.3355,-157.034 229.5259,-142.0916"/>
<polygon fill="#191970" stroke="#191970" points="233.0213,-141.7533 229.3733,-131.8063 226.0221,-141.8572 233.0213,-141.7533"/>
</g>
<!-- Node18&#45;&gt;Node16 -->
<g id="edge26" class="edge">
<title>Node18&#45;&gt;Node16</title>
<path fill="none" stroke="#191970" d="M701.6445,-224.227C713.4581,-209.9824 727.0408,-187.987 720,-168 716.1691,-157.125 708.5598,-146.9246 701.2328,-138.9061"/>
<polygon fill="#191970" stroke="#191970" points="703.6466,-136.3686 694.1502,-131.6707 698.6443,-141.2652 703.6466,-136.3686"/>
</g>
<!-- Node18&#45;&gt;Node17 -->
<g id="edge27" class="edge">
<title>Node18&#45;&gt;Node17</title>
<path fill="none" stroke="#191970" d="M656.1769,-224.4554C635.8912,-214.554 609.5212,-201.683 589.6838,-192.0004"/>
<polygon fill="#191970" stroke="#191970" points="591.0474,-188.7714 580.5255,-187.5303 587.977,-195.062 591.0474,-188.7714"/>
</g>
<!-- Node18&#45;&gt;Node19 -->
<g id="edge32" class="edge">
<title>Node18&#45;&gt;Node19</title>
<path fill="none" stroke="#191970" d="M721.7371,-224.4554C745.9119,-213.9853 777.7538,-200.1946 800.4504,-190.3648"/>
<polygon fill="#191970" stroke="#191970" points="802.0858,-193.4707 809.8711,-186.2847 799.3038,-187.0473 802.0858,-193.4707"/>
</g>
<!-- Node20&#45;&gt;Node6 -->
<g id="edge49" class="edge">
<title>Node20&#45;&gt;Node6</title>
<path fill="none" stroke="#191970" d="M1082.9365,-296.9028C1100.2637,-288.4402 1123.1804,-274.4206 1136,-255 1157.538,-222.3717 1161.3632,-205.0897 1149,-168 1139.1618,-138.4854 1133.0124,-129.0662 1107,-112 1080.9733,-94.9245 995.4962,-79.0313 947.4867,-71.1622"/>
<polygon fill="#191970" stroke="#191970" points="947.9916,-67.6985 937.562,-69.5623 946.8775,-74.6093 947.9916,-67.6985"/>
</g>
<!-- Node20&#45;&gt;Node8 -->
<g id="edge50" class="edge">
<title>Node20&#45;&gt;Node8</title>
<path fill="none" stroke="#191970" d="M1045.2358,-296.9044C1029.7784,-286.7637 1004.894,-270.1699 984,-255 932.9945,-217.9679 925.2748,-201.6859 872,-168 825.2969,-138.4694 812.9272,-130.8892 761,-112 708.1214,-92.7647 644.2391,-79.5308 604.1038,-72.357"/>
<polygon fill="#191970" stroke="#191970" points="604.6389,-68.8975 594.1853,-70.6214 603.4323,-75.7927 604.6389,-68.8975"/>
</g>
<!-- Node20&#45;&gt;Node11 -->
<g id="edge48" class="edge">
<title>Node20&#45;&gt;Node11</title>
<path fill="none" stroke="#191970" d="M1083.843,-296.9217C1161.978,-264.2691 1400.3005,-153.9112 1311,-56 1279.5073,-21.4707 949.3408,-12.4984 844.0634,-10.5067"/>
<polygon fill="#191970" stroke="#191970" points="844.0953,-7.0068 834.0336,-10.3255 843.9687,-14.0057 844.0953,-7.0068"/>
</g>
<!-- Node21 -->
<g id="node22" class="node">
<title>Node21</title>
<g id="a_node22"><a xlink:href="../../d1/d5e/PossibleValuesListTrait_8h.xhtml" target="_top" xlink:title="enfield/Support/Possible\lValuesListTrait.h">
<polygon fill="none" stroke="#000000" points="993,-224.5 993,-254.5 1127,-254.5 1127,-224.5 993,-224.5"/>
<text text-anchor="start" x="1001" y="-242.5" font-family="Helvetica,sans-Serif" font-size="10.00" fill="#000000">enfield/Support/Possible</text>
<text text-anchor="middle" x="1060" y="-231.5" font-family="Helvetica,sans-Serif" font-size="10.00" fill="#000000">ValuesListTrait.h</text>
</a>
</g>
</g>
<!-- Node20&#45;&gt;Node21 -->
<g id="edge38" class="edge">
<title>Node20&#45;&gt;Node21</title>
<path fill="none" stroke="#191970" d="M1060,-296.9005C1060,-288.5099 1060,-275.9451 1060,-264.7085"/>
<polygon fill="#191970" stroke="#191970" points="1063.5001,-264.5217 1060,-254.5218 1056.5001,-264.5218 1063.5001,-264.5217"/>
</g>
<!-- Node22 -->
<g id="node23" class="node">
<title>Node22</title>
<g id="a_node23"><a xlink:href="../../dd/d62/EnumString_8h.xhtml" target="_top" xlink:title="enfield/Support/EnumString.h">
<polygon fill="none" stroke="#000000" points="980.5,-168.5 980.5,-187.5 1139.5,-187.5 1139.5,-168.5 980.5,-168.5"/>
<text text-anchor="middle" x="1060" y="-175.5" font-family="Helvetica,sans-Serif" font-size="10.00" fill="#000000">enfield/Support/EnumString.h</text>
</a>
</g>
</g>
<!-- Node21&#45;&gt;Node22 -->
<g id="edge39" class="edge">
<title>Node21&#45;&gt;Node22</title>
<path fill="none" stroke="#191970" d="M1060,-224.2977C1060,-216.3834 1060,-206.6043 1060,-198.0759"/>
<polygon fill="#191970" stroke="#191970" points="1063.5001,-197.8469 1060,-187.8469 1056.5001,-197.847 1063.5001,-197.8469"/>
</g>
<!-- Node22&#45;&gt;Node6 -->
<g id="edge45" class="edge">
<title>Node22&#45;&gt;Node6</title>
<path fill="none" stroke="#191970" d="M1070.719,-168.3169C1084.4129,-154.7706 1104.7849,-129.8253 1091,-112 1073.6564,-89.5729 994.3716,-76.0501 948.008,-69.9226"/>
<polygon fill="#191970" stroke="#191970" points="948.1798,-66.4163 937.8177,-68.6246 947.2953,-73.3602 948.1798,-66.4163"/>
</g>
<!-- Node23 -->
<g id="node24" class="node">
<title>Node23</title>
<g id="a_node24"><a xlink:href="../../d1/d73/Defs_8h.xhtml" target="_top" xlink:title="enfield/Support/Defs.h">
<polygon fill="none" stroke="#000000" points="1176.5,-112.5 1176.5,-131.5 1301.5,-131.5 1301.5,-112.5 1176.5,-112.5"/>
<text text-anchor="middle" x="1239" y="-119.5" font-family="Helvetica,sans-Serif" font-size="10.00" fill="#000000">enfield/Support/Defs.h</text>
</a>
</g>
</g>
<!-- Node22&#45;&gt;Node23 -->
<g id="edge40" class="edge">
<title>Node22&#45;&gt;Node23</title>
<path fill="none" stroke="#191970" d="M1090.7712,-168.3733C1120.665,-159.021 1166.2093,-144.7725 1198.9217,-134.5385"/>
<polygon fill="#191970" stroke="#191970" points="1200.1315,-137.8273 1208.6303,-131.5011 1198.0414,-131.1466 1200.1315,-137.8273"/>
</g>
<!-- Node27 -->
<g id="node28" class="node">
<title>Node27</title>
<polygon fill="none" stroke="#bfbfbf" points="942,-112.5 942,-131.5 1006,-131.5 1006,-112.5 942,-112.5"/>
<text text-anchor="middle" x="974" y="-119.5" font-family="Helvetica,sans-Serif" font-size="10.00" fill="#000000">algorithm</text>
</g>
<!-- Node22&#45;&gt;Node27 -->
<g id="edge46" class="edge">
<title>Node22&#45;&gt;Node27</title>
<path fill="none" stroke="#191970" d="M1045.0199,-168.2455C1031.8249,-159.6534 1012.3949,-147.0014 997.1921,-137.1018"/>
<polygon fill="#191970" stroke="#191970" points="999.0983,-134.1665 988.8084,-131.6427 995.2785,-140.0325 999.0983,-134.1665"/>
</g>
<!-- Node28 -->
<g id="node29" class="node">
<title>Node28</title>
<polygon fill="none" stroke="#bfbfbf" points="1024.5,-112.5 1024.5,-131.5 1081.5,-131.5 1081.5,-112.5 1024.5,-112.5"/>
<text text-anchor="middle" x="1053" y="-119.5" font-family="Helvetica,sans-Serif" font-size="10.00" fill="#000000">typeinfo</text>
</g>
<!-- Node22&#45;&gt;Node28 -->
<g id="edge47" class="edge">
<title>Node22&#45;&gt;Node28</title>
<path fill="none" stroke="#191970" d="M1058.7807,-168.2455C1057.8673,-160.9382 1056.5868,-150.6944 1055.4631,-141.7046"/>
<polygon fill="#191970" stroke="#191970" points="1058.9187,-141.1313 1054.2053,-131.6427 1051.9728,-141.9996 1058.9187,-141.1313"/>
</g>
<!-- Node23&#45;&gt;Node6 -->
<g id="edge41" class="edge">
<title>Node23&#45;&gt;Node6</title>
<path fill="none" stroke="#191970" d="M1183.4998,-112.4369C1115.8829,-100.786 1003.7716,-81.4683 947.8687,-71.8358"/>
<polygon fill="#191970" stroke="#191970" points="948.2365,-68.3477 937.7874,-70.0988 947.0479,-75.2461 948.2365,-68.3477"/>
</g>
<!-- Node24 -->
<g id="node25" class="node">
<title>Node24</title>
<polygon fill="none" stroke="#bfbfbf" points="1252,-56.5 1252,-75.5 1302,-75.5 1302,-56.5 1252,-56.5"/>
<text text-anchor="middle" x="1277" y="-63.5" font-family="Helvetica,sans-Serif" font-size="10.00" fill="#000000">cstdint</text>
</g>
<!-- Node23&#45;&gt;Node24 -->
<g id="edge42" class="edge">
<title>Node23&#45;&gt;Node24</title>
<path fill="none" stroke="#191970" d="M1245.6191,-112.2455C1250.9046,-104.4564 1258.4541,-93.3308 1264.8238,-83.9439"/>
<polygon fill="#191970" stroke="#191970" points="1267.7379,-85.8827 1270.4568,-75.6427 1261.9455,-81.9522 1267.7379,-85.8827"/>
</g>
<!-- Node25 -->
<g id="node26" class="node">
<title>Node25</title>
<polygon fill="none" stroke="#bfbfbf" points="1114,-56.5 1114,-75.5 1158,-75.5 1158,-56.5 1114,-56.5"/>
<text text-anchor="middle" x="1136" y="-63.5" font-family="Helvetica,sans-Serif" font-size="10.00" fill="#000000">limits</text>
</g>
<!-- Node23&#45;&gt;Node25 -->
<g id="edge43" class="edge">
<title>Node23&#45;&gt;Node25</title>
<path fill="none" stroke="#191970" d="M1221.0588,-112.2455C1204.96,-103.4928 1181.1121,-90.527 1162.7609,-80.5496"/>
<polygon fill="#191970" stroke="#191970" points="1164.1929,-77.3444 1153.7356,-75.6427 1160.8493,-83.4942 1164.1929,-77.3444"/>
</g>
<!-- Node26 -->
<g id="node27" class="node">
<title>Node26</title>
<polygon fill="none" stroke="#bfbfbf" points="1176.5,-56.5 1176.5,-75.5 1233.5,-75.5 1233.5,-56.5 1176.5,-56.5"/>
<text text-anchor="middle" x="1205" y="-63.5" font-family="Helvetica,sans-Serif" font-size="10.00" fill="#000000">ostream</text>
</g>
<!-- Node23&#45;&gt;Node26 -->
<g id="edge44" class="edge">
<title>Node23&#45;&gt;Node26</title>
<path fill="none" stroke="#191970" d="M1233.0777,-112.2455C1228.3973,-104.5367 1221.7327,-93.5598 1216.0711,-84.2348"/>
<polygon fill="#191970" stroke="#191970" points="1219.0361,-82.3741 1210.8545,-75.6427 1213.0525,-86.007 1219.0361,-82.3741"/>
</g>
<!-- Node29&#45;&gt;Node8 -->
<g id="edge53" class="edge">
<title>Node29&#45;&gt;Node8</title>
<path fill="none" stroke="#191970" d="M128.3873,-114.5522C136.3375,-113.6712 144.3538,-112.8014 152,-112 315.2684,-94.8878 360.4169,-104.988 525.628,-76.0052"/>
<polygon fill="#191970" stroke="#191970" points="526.4121,-79.4208 535.646,-74.2261 525.188,-72.5286 526.4121,-79.4208"/>
</g>
<!-- Node29&#45;&gt;Node14 -->
<g id="edge52" class="edge">
<title>Node29&#45;&gt;Node14</title>
<path fill="none" stroke="#191970" d="M64,-112.2455C64,-104.9382 64,-94.6944 64,-85.7046"/>
<polygon fill="#191970" stroke="#191970" points="67.5001,-85.6426 64,-75.6427 60.5001,-85.6427 67.5001,-85.6426"/>
</g>
<!-- Node30&#45;&gt;Node23 -->
<g id="edge55" class="edge">
<title>Node30&#45;&gt;Node23</title>
<path fill="none" stroke="#191970" d="M1292,-430.7483C1292,-408.643 1292,-353.0278 1292,-306.5 1292,-306.5 1292,-306.5 1292,-239.5 1292,-201.3429 1268.4883,-161.8895 1252.7846,-139.7938"/>
<polygon fill="#191970" stroke="#191970" points="1255.5696,-137.6732 1246.8203,-131.6982 1249.9339,-141.8252 1255.5696,-137.6732"/>
</g>
<!-- Node31 -->
<g id="node32" class="node">
<title>Node31</title>
<polygon fill="none" stroke="#bfbfbf" points="1320,-364 1320,-383 1370,-383 1370,-364 1320,-364"/>
<text text-anchor="middle" x="1345" y="-371" font-family="Helvetica,sans-Serif" font-size="10.00" fill="#000000">cstring</text>
</g>
<!-- Node30&#45;&gt;Node31 -->
<g id="edge56" class="edge">
<title>Node30&#45;&gt;Node31</title>
<path fill="none" stroke="#191970" d="M1299.5936,-430.9005C1307.7798,-420.552 1320.9885,-403.8542 1331.0543,-391.1295"/>
<polygon fill="#191970" stroke="#191970" points="1333.9614,-393.0959 1337.4205,-383.0817 1328.4714,-388.7531 1333.9614,-393.0959"/>
</g>
</g>
</svg>
