<?xml version="1.0" encoding="UTF-8" standalone="no"?>
<!DOCTYPE svg PUBLIC "-//W3C//DTD SVG 1.1//EN"
 "http://www.w3.org/Graphics/SVG/1.1/DTD/svg11.dtd">
<!-- Generated by graphviz version 2.38.0 (20140413.2041)
 -->
<!-- Title: efd::GreedyCktQAllocator Pages: 1 -->
<svg width="174pt" height="266pt"
 viewBox="0.00 0.00 174.00 266.00" xmlns="http://www.w3.org/2000/svg" xmlns:xlink="http://www.w3.org/1999/xlink">
<g id="graph0" class="graph" transform="scale(1 1) rotate(0) translate(4 262)">
<title>efd::GreedyCktQAllocator</title>
<!-- Node0 -->
<g id="node1" class="node"><title>Node0</title>
<polygon fill="#bfbfbf" stroke="black" points="0,-0.5 0,-19.5 129,-19.5 129,-0.5 0,-0.5"/>
<text text-anchor="middle" x="64.5" y="-7.5" font-family="Helvetica,sans-Serif" font-size="10.00">efd::GreedyCktQAllocator</text>
</g>
<!-- Node1 -->
<g id="node2" class="node"><title>Node1</title>
<g id="a_node2"><a xlink:href="../../de/d5a/classefd_1_1QbitAllocator.xhtml" target="_top" xlink:title="Base abstract class that allocates the qbits used in the program to the qbits that are in the physica...">
<polygon fill="none" stroke="black" points="18.5,-57.5 18.5,-76.5 110.5,-76.5 110.5,-57.5 18.5,-57.5"/>
<text text-anchor="middle" x="64.5" y="-64.5" font-family="Helvetica,sans-Serif" font-size="10.00">efd::QbitAllocator</text>
</a>
</g>
</g>
<!-- Node1&#45;&gt;Node0 -->
<g id="edge1" class="edge"><title>Node1&#45;&gt;Node0</title>
<path fill="none" stroke="midnightblue" d="M64.5,-47.1166C64.5,-37.8173 64.5,-27.0557 64.5,-19.7149"/>
<polygon fill="midnightblue" stroke="midnightblue" points="61.0001,-47.4062 64.5,-57.4062 68.0001,-47.4063 61.0001,-47.4062"/>
</g>
<!-- Node2 -->
<g id="node3" class="node"><title>Node2</title>
<g id="a_node3"><a xlink:href="../../db/d56/classefd_1_1PassT.xhtml" target="_top" xlink:title="efd::PassT\&lt; Solution \&gt;">
<polygon fill="none" stroke="black" points="5.5,-114.5 5.5,-133.5 123.5,-133.5 123.5,-114.5 5.5,-114.5"/>
<text text-anchor="middle" x="64.5" y="-121.5" font-family="Helvetica,sans-Serif" font-size="10.00">efd::PassT&lt; Solution &gt;</text>
</a>
</g>
</g>
<!-- Node2&#45;&gt;Node1 -->
<g id="edge2" class="edge"><title>Node2&#45;&gt;Node1</title>
<path fill="none" stroke="midnightblue" d="M64.5,-104.117C64.5,-94.8173 64.5,-84.0557 64.5,-76.7149"/>
<polygon fill="midnightblue" stroke="midnightblue" points="61.0001,-104.406 64.5,-114.406 68.0001,-104.406 61.0001,-104.406"/>
</g>
<!-- Node3 -->
<g id="node4" class="node"><title>Node3</title>
<g id="a_node4"><a xlink:href="../../d0/d98/classefd_1_1Pass.xhtml" target="_top" xlink:title="Base class for implementation of QModule passes. This information will be used when the QModule&#39;s fun...">
<polygon fill="none" stroke="black" points="43,-238.5 43,-257.5 102,-257.5 102,-238.5 43,-238.5"/>
<text text-anchor="middle" x="72.5" y="-245.5" font-family="Helvetica,sans-Serif" font-size="10.00">efd::Pass</text>
</a>
</g>
</g>
<!-- Node3&#45;&gt;Node2 -->
<g id="edge3" class="edge"><title>Node3&#45;&gt;Node2</title>
<path fill="none" stroke="midnightblue" d="M70.7076,-228.072C69.9593,-219.77 69.1214,-209.906 68.5,-201 66.8078,-176.748 65.4817,-148.096 64.8697,-133.898"/>
<polygon fill="midnightblue" stroke="midnightblue" points="67.2371,-228.554 71.6437,-238.189 74.2073,-227.909 67.2371,-228.554"/>
</g>
<!-- Node4 -->
<g id="node5" class="node"><title>Node4</title>
<g id="a_node5"><a xlink:href="../../db/d56/classefd_1_1PassT.xhtml" target="_top" xlink:title="Should serve as base class for classes that produces some data of type T. ">
<polygon fill="none" stroke="black" points="77,-181.5 77,-200.5 166,-200.5 166,-181.5 77,-181.5"/>
<text text-anchor="middle" x="121.5" y="-188.5" font-family="Helvetica,sans-Serif" font-size="10.00">efd::PassT&lt; T &gt;</text>
</a>
</g>
</g>
<!-- Node3&#45;&gt;Node4 -->
<g id="edge5" class="edge"><title>Node3&#45;&gt;Node4</title>
<path fill="none" stroke="midnightblue" d="M86.9077,-230.828C95.682,-220.979 106.549,-208.782 113.736,-200.715"/>
<polygon fill="midnightblue" stroke="midnightblue" points="84.195,-228.611 80.1562,-238.406 89.4217,-233.268 84.195,-228.611"/>
</g>
<!-- Node4&#45;&gt;Node2 -->
<g id="edge4" class="edge"><title>Node4&#45;&gt;Node2</title>
<path fill="none" stroke="orange" stroke-dasharray="5,2" d="M107.149,-173.635C96.0015,-160.923 80.9842,-143.798 72.0655,-133.627"/>
<polygon fill="orange" stroke="orange" points="104.588,-176.023 113.813,-181.234 109.851,-171.408 104.588,-176.023"/>
<text text-anchor="middle" x="125" y="-155" font-family="Helvetica,sans-Serif" font-size="10.00"> &lt; Solution &gt;</text>
</g>
</g>
</svg>
