<?xml version="1.0" encoding="UTF-8" standalone="no"?>
<!DOCTYPE svg PUBLIC "-//W3C//DTD SVG 1.1//EN"
 "http://www.w3.org/Graphics/SVG/1.1/DTD/svg11.dtd">
<!-- Generated by graphviz version 2.40.1 (20161225.0304)
 -->
<!-- Title: lib/Support/Timer.cpp Pages: 1 -->
<svg width="344pt" height="140pt"
 viewBox="0.00 0.00 344.00 140.00" xmlns="http://www.w3.org/2000/svg" xmlns:xlink="http://www.w3.org/1999/xlink">
<g id="graph0" class="graph" transform="scale(1 1) rotate(0) translate(4 136)">
<title>lib/Support/Timer.cpp</title>
<!-- Node0 -->
<g id="node1" class="node">
<title>Node0</title>
<polygon fill="#bfbfbf" stroke="#000000" points="78,-112.5 78,-131.5 199,-131.5 199,-112.5 78,-112.5"/>
<text text-anchor="middle" x="138.5" y="-119.5" font-family="Helvetica,sans-Serif" font-size="10.00" fill="#000000">lib/Support/Timer.cpp</text>
</g>
<!-- Node1 -->
<g id="node2" class="node">
<title>Node1</title>
<g id="a_node2"><a xlink:href="../../dd/d27/Timer_8h.xhtml" target="_top" xlink:title="enfield/Support/Timer.h">
<polygon fill="none" stroke="#000000" points="0,-56.5 0,-75.5 131,-75.5 131,-56.5 0,-56.5"/>
<text text-anchor="middle" x="65.5" y="-63.5" font-family="Helvetica,sans-Serif" font-size="10.00" fill="#000000">enfield/Support/Timer.h</text>
</a>
</g>
</g>
<!-- Node0&#45;&gt;Node1 -->
<g id="edge1" class="edge">
<title>Node0&#45;&gt;Node1</title>
<path fill="none" stroke="#191970" d="M125.7844,-112.2455C114.898,-103.8943 99.0117,-91.7076 86.28,-81.9408"/>
<polygon fill="#191970" stroke="#191970" points="88.1346,-78.9523 78.0699,-75.6427 83.8739,-84.5063 88.1346,-78.9523"/>
</g>
<!-- Node4 -->
<g id="node5" class="node">
<title>Node4</title>
<g id="a_node5"><a xlink:href="../../d1/d73/Defs_8h.xhtml" target="_top" xlink:title="enfield/Support/Defs.h">
<polygon fill="none" stroke="#000000" points="149,-56.5 149,-75.5 274,-75.5 274,-56.5 149,-56.5"/>
<text text-anchor="middle" x="211.5" y="-63.5" font-family="Helvetica,sans-Serif" font-size="10.00" fill="#000000">enfield/Support/Defs.h</text>
</a>
</g>
</g>
<!-- Node0&#45;&gt;Node4 -->
<g id="edge4" class="edge">
<title>Node0&#45;&gt;Node4</title>
<path fill="none" stroke="#191970" d="M151.2156,-112.2455C162.102,-103.8943 177.9883,-91.7076 190.72,-81.9408"/>
<polygon fill="#191970" stroke="#191970" points="193.1261,-84.5063 198.9301,-75.6427 188.8654,-78.9523 193.1261,-84.5063"/>
</g>
<!-- Node2 -->
<g id="node3" class="node">
<title>Node2</title>
<polygon fill="none" stroke="#bfbfbf" points="14.5,-.5 14.5,-19.5 64.5,-19.5 64.5,-.5 14.5,-.5"/>
<text text-anchor="middle" x="39.5" y="-7.5" font-family="Helvetica,sans-Serif" font-size="10.00" fill="#000000">chrono</text>
</g>
<!-- Node1&#45;&gt;Node2 -->
<g id="edge2" class="edge">
<title>Node1&#45;&gt;Node2</title>
<path fill="none" stroke="#191970" d="M60.9711,-56.2455C57.4666,-48.6973 52.5073,-38.0158 48.2377,-28.8197"/>
<polygon fill="#191970" stroke="#191970" points="51.3627,-27.2389 43.977,-19.6427 45.0136,-30.1867 51.3627,-27.2389"/>
</g>
<!-- Node3 -->
<g id="node4" class="node">
<title>Node3</title>
<polygon fill="none" stroke="#bfbfbf" points="82.5,-.5 82.5,-19.5 132.5,-19.5 132.5,-.5 82.5,-.5"/>
<text text-anchor="middle" x="107.5" y="-7.5" font-family="Helvetica,sans-Serif" font-size="10.00" fill="#000000">cstdint</text>
</g>
<!-- Node1&#45;&gt;Node3 -->
<g id="edge3" class="edge">
<title>Node1&#45;&gt;Node3</title>
<path fill="none" stroke="#191970" d="M72.8158,-56.2455C78.7179,-48.3761 87.1742,-37.101 94.2594,-27.6542"/>
<polygon fill="#191970" stroke="#191970" points="97.068,-29.7427 100.268,-19.6427 91.4679,-25.5427 97.068,-29.7427"/>
</g>
<!-- Node4&#45;&gt;Node3 -->
<g id="edge6" class="edge">
<title>Node4&#45;&gt;Node3</title>
<path fill="none" stroke="#191970" d="M193.3846,-56.2455C177.055,-47.4527 152.829,-34.4079 134.2661,-24.4125"/>
<polygon fill="#191970" stroke="#191970" points="135.8719,-21.3021 125.4078,-19.6427 132.5532,-27.4654 135.8719,-21.3021"/>
</g>
<!-- Node5 -->
<g id="node6" class="node">
<title>Node5</title>
<polygon fill="none" stroke="#bfbfbf" points="151,-.5 151,-19.5 198,-19.5 198,-.5 151,-.5"/>
<text text-anchor="middle" x="174.5" y="-7.5" font-family="Helvetica,sans-Serif" font-size="10.00" fill="#000000">vector</text>
</g>
<!-- Node4&#45;&gt;Node5 -->
<g id="edge5" class="edge">
<title>Node4&#45;&gt;Node5</title>
<path fill="none" stroke="#191970" d="M205.0551,-56.2455C199.9618,-48.5367 192.7092,-37.5598 186.548,-28.2348"/>
<polygon fill="#191970" stroke="#191970" points="189.3038,-26.0566 180.8711,-19.6427 183.4635,-29.9155 189.3038,-26.0566"/>
</g>
<!-- Node6 -->
<g id="node7" class="node">
<title>Node6</title>
<polygon fill="none" stroke="#bfbfbf" points="216.5,-.5 216.5,-19.5 260.5,-19.5 260.5,-.5 216.5,-.5"/>
<text text-anchor="middle" x="238.5" y="-7.5" font-family="Helvetica,sans-Serif" font-size="10.00" fill="#000000">limits</text>
</g>
<!-- Node4&#45;&gt;Node6 -->
<g id="edge7" class="edge">
<title>Node4&#45;&gt;Node6</title>
<path fill="none" stroke="#191970" d="M216.203,-56.2455C219.8424,-48.6973 224.9924,-38.0158 229.4262,-28.8197"/>
<polygon fill="#191970" stroke="#191970" points="232.6605,-30.1704 233.8509,-19.6427 226.3551,-27.1303 232.6605,-30.1704"/>
</g>
<!-- Node7 -->
<g id="node8" class="node">
<title>Node7</title>
<polygon fill="none" stroke="#bfbfbf" points="279,-.5 279,-19.5 336,-19.5 336,-.5 279,-.5"/>
<text text-anchor="middle" x="307.5" y="-7.5" font-family="Helvetica,sans-Serif" font-size="10.00" fill="#000000">ostream</text>
</g>
<!-- Node4&#45;&gt;Node7 -->
<g id="edge8" class="edge">
<title>Node4&#45;&gt;Node7</title>
<path fill="none" stroke="#191970" d="M228.2219,-56.2455C243.0889,-47.5731 265.0466,-34.7645 282.0858,-24.825"/>
<polygon fill="#191970" stroke="#191970" points="284.0955,-27.7047 290.9697,-19.6427 280.5683,-21.6582 284.0955,-27.7047"/>
</g>
</g>
</svg>
