<?xml version="1.0" encoding="UTF-8" standalone="no"?>
<!DOCTYPE svg PUBLIC "-//W3C//DTD SVG 1.1//EN"
 "http://www.w3.org/Graphics/SVG/1.1/DTD/svg11.dtd">
<!-- Generated by graphviz version 2.40.1 (20161225.0304)
 -->
<!-- Title: lib/Transform/QModule.cpp Pages: 1 -->
<!--zoomable 308 -->
<svg id="main" version="1.1" xmlns="http://www.w3.org/2000/svg" xmlns:xlink="http://www.w3.org/1999/xlink" xml:space="preserve" onload="init(evt)">
<style type="text/css"><![CDATA[
.edge:hover path { stroke: red; }
.edge:hover polygon { stroke: red; fill: red; }
]]></style>
<script type="text/javascript"><![CDATA[
var edges = document.getElementsByTagName('g');
if (edges && edges.length) {
  for (var i=0;i<edges.length;i++) {
    if (edges[i].id.substr(0,4)=='edge') {
      edges[i].setAttribute('class','edge');
    }
  }
}
]]></script>
        <defs>
                <circle id="rim" cx="0" cy="0" r="7"/>
                <circle id="rim2" cx="0" cy="0" r="3.5"/>
                <g id="zoomPlus">
                        <use xlink:href="#rim" fill="#404040">
                                <set attributeName="fill" to="#808080" begin="zoomplus.mouseover" end="zoomplus.mouseout"/>
                        </use>
                        <path d="M-4,0h8M0,-4v8" fill="none" stroke="white" stroke-width="1.5" pointer-events="none"/>
                </g>
                <g id="zoomMin">
                        <use xlink:href="#rim" fill="#404040">
                                <set attributeName="fill" to="#808080" begin="zoomminus.mouseover" end="zoomminus.mouseout"/>
                        </use>
                        <path d="M-4,0h8" fill="none" stroke="white" stroke-width="1.5" pointer-events="none"/>
                </g>
                <g id="dirArrow">
                        <path fill="none" stroke="white" stroke-width="1.5" d="M0,-3.0v7 M-2.5,-0.5L0,-3.0L2.5,-0.5"/>
                </g>
               <g id="resetDef">
                       <use xlink:href="#rim2" fill="#404040">
                               <set attributeName="fill" to="#808080" begin="reset.mouseover" end="reset.mouseout"/>
                       </use>
               </g>
        </defs>

<script type="text/javascript">
var viewWidth = 928;
var viewHeight = 308;
var sectionId = 'dynsection-0';
</script>
<script xlink:href="../../svgpan.js"/>
<svg id="graph" class="graph">
<g id="viewport">
<title>lib/Transform/QModule.cpp</title>
<!-- Node0 -->
<g id="node1" class="node">
<title>Node0</title>
<polygon fill="#bfbfbf" stroke="#000000" points="432.5,-280.5 432.5,-299.5 580.5,-299.5 580.5,-280.5 432.5,-280.5"/>
<text text-anchor="middle" x="506.5" y="-287.5" font-family="Helvetica,sans-Serif" font-size="10.00" fill="#000000">lib/Transform/QModule.cpp</text>
</g>
<!-- Node1 -->
<g id="node2" class="node">
<title>Node1</title>
<g id="a_node2"><a xlink:href="../../d0/d5c/Analysis_2Driver_8h.xhtml" target="_top" xlink:title="enfield/Analysis/Driver.h">
<polygon fill="none" stroke="#000000" points="0,-168.5 0,-187.5 137,-187.5 137,-168.5 0,-168.5"/>
<text text-anchor="middle" x="68.5" y="-175.5" font-family="Helvetica,sans-Serif" font-size="10.00" fill="#000000">enfield/Analysis/Driver.h</text>
</a>
</g>
</g>
<!-- Node0&#45;&gt;Node1 -->
<g id="edge1" class="edge">
<title>Node0&#45;&gt;Node1</title>
<path fill="none" stroke="#191970" d="M432.2659,-282.8526C351.0548,-274.4408 226.4442,-259.6266 181.5,-244 146.9852,-231.9996 111.2351,-209.0258 89.4262,-193.6044"/>
<polygon fill="#191970" stroke="#191970" points="91.4046,-190.716 81.2455,-187.7087 87.3119,-196.3949 91.4046,-190.716"/>
</g>
<!-- Node5 -->
<g id="node6" class="node">
<title>Node5</title>
<g id="a_node6"><a xlink:href="../../d5/dfc/RTTI_8h.xhtml" target="_top" xlink:title="enfield/Support/RTTI.h">
<polygon fill="none" stroke="#000000" points="380,-56.5 380,-75.5 505,-75.5 505,-56.5 380,-56.5"/>
<text text-anchor="middle" x="442.5" y="-63.5" font-family="Helvetica,sans-Serif" font-size="10.00" fill="#000000">enfield/Support/RTTI.h</text>
</a>
</g>
</g>
<!-- Node0&#45;&gt;Node5 -->
<g id="edge24" class="edge">
<title>Node0&#45;&gt;Node5</title>
<path fill="none" stroke="#191970" d="M466.6695,-280.4685C447.2771,-273.6593 425.589,-262.3519 413.5,-244 381.1939,-194.9571 388.7361,-167.649 407.5,-112 411.0695,-101.4138 418.1535,-91.3356 425.0202,-83.3256"/>
<polygon fill="#191970" stroke="#191970" points="427.753,-85.5244 431.941,-75.7924 422.5981,-80.7886 427.753,-85.5244"/>
</g>
<!-- Node10 -->
<g id="node11" class="node">
<title>Node10</title>
<g id="a_node11"><a xlink:href="../../d4/d73/QModule_8h.xhtml" target="_top" xlink:title="enfield/Transform/QModule.h">
<polygon fill="none" stroke="#000000" points="208.5,-168.5 208.5,-187.5 366.5,-187.5 366.5,-168.5 208.5,-168.5"/>
<text text-anchor="middle" x="287.5" y="-175.5" font-family="Helvetica,sans-Serif" font-size="10.00" fill="#000000">enfield/Transform/QModule.h</text>
</a>
</g>
</g>
<!-- Node0&#45;&gt;Node10 -->
<g id="edge12" class="edge">
<title>Node0&#45;&gt;Node10</title>
<path fill="none" stroke="#191970" d="M473.106,-280.4935C447.098,-272.4605 410.4971,-259.755 380.5,-244 353.3864,-229.7594 325.0837,-208.6309 306.9286,-194.1379"/>
<polygon fill="#191970" stroke="#191970" points="308.8535,-191.1929 298.8809,-187.6155 304.446,-196.6311 308.8535,-191.1929"/>
</g>
<!-- Node13 -->
<g id="node14" class="node">
<title>Node13</title>
<g id="a_node14"><a xlink:href="../../d9/ded/Utils_8h.xhtml" target="_top" xlink:title="enfield/Transform/Utils.h">
<polygon fill="none" stroke="#000000" points="190.5,-224.5 190.5,-243.5 328.5,-243.5 328.5,-224.5 190.5,-224.5"/>
<text text-anchor="middle" x="259.5" y="-231.5" font-family="Helvetica,sans-Serif" font-size="10.00" fill="#000000">enfield/Transform/Utils.h</text>
</a>
</g>
</g>
<!-- Node0&#45;&gt;Node13 -->
<g id="edge17" class="edge">
<title>Node0&#45;&gt;Node13</title>
<path fill="none" stroke="#191970" d="M464.3198,-280.4369C422.0477,-270.8529 356.8938,-256.0812 311.4583,-245.78"/>
<polygon fill="#191970" stroke="#191970" points="312.0326,-242.3215 301.5062,-243.5237 310.4848,-249.1482 312.0326,-242.3215"/>
</g>
<!-- Node14 -->
<g id="node15" class="node">
<title>Node14</title>
<g id="a_node15"><a xlink:href="../../db/d82/PassCache_8h.xhtml" target="_top" xlink:title="enfield/Transform/PassCache.h">
<polygon fill="none" stroke="#000000" points="422.5,-224.5 422.5,-243.5 590.5,-243.5 590.5,-224.5 422.5,-224.5"/>
<text text-anchor="middle" x="506.5" y="-231.5" font-family="Helvetica,sans-Serif" font-size="10.00" fill="#000000">enfield/Transform/PassCache.h</text>
</a>
</g>
</g>
<!-- Node0&#45;&gt;Node14 -->
<g id="edge20" class="edge">
<title>Node0&#45;&gt;Node14</title>
<path fill="none" stroke="#191970" d="M506.5,-280.2455C506.5,-272.9382 506.5,-262.6944 506.5,-253.7046"/>
<polygon fill="#191970" stroke="#191970" points="510.0001,-253.6426 506.5,-243.6427 503.0001,-253.6427 510.0001,-253.6426"/>
</g>
<!-- Node16 -->
<g id="node17" class="node">
<title>Node16</title>
<g id="a_node17"><a xlink:href="../../dc/d09/uRefCast_8h.xhtml" target="_top" xlink:title="enfield/Support/uRefCast.h">
<polygon fill="none" stroke="#000000" points="559,-168.5 559,-187.5 706,-187.5 706,-168.5 559,-168.5"/>
<text text-anchor="middle" x="632.5" y="-175.5" font-family="Helvetica,sans-Serif" font-size="10.00" fill="#000000">enfield/Support/uRefCast.h</text>
</a>
</g>
</g>
<!-- Node0&#45;&gt;Node16 -->
<g id="edge25" class="edge">
<title>Node0&#45;&gt;Node16</title>
<path fill="none" stroke="#191970" d="M537.6402,-280.3843C557.3478,-273.0118 582.2679,-261.1579 599.5,-244 612.5214,-231.0346 621.311,-211.8783 626.5229,-197.539"/>
<polygon fill="#191970" stroke="#191970" points="629.9629,-198.2889 629.8221,-187.695 623.3257,-196.0644 629.9629,-198.2889"/>
</g>
<!-- Node17 -->
<g id="node18" class="node">
<title>Node17</title>
<g id="a_node18"><a xlink:href="../../d1/d73/Defs_8h.xhtml" target="_top" xlink:title="enfield/Support/Defs.h">
<polygon fill="none" stroke="#000000" points="725,-112.5 725,-131.5 850,-131.5 850,-112.5 725,-112.5"/>
<text text-anchor="middle" x="787.5" y="-119.5" font-family="Helvetica,sans-Serif" font-size="10.00" fill="#000000">enfield/Support/Defs.h</text>
</a>
</g>
</g>
<!-- Node0&#45;&gt;Node17 -->
<g id="edge34" class="edge">
<title>Node0&#45;&gt;Node17</title>
<path fill="none" stroke="#191970" d="M533.2509,-280.4959C556.6704,-271.873 591.4045,-258.346 620.5,-244 664.4589,-222.3253 676.1087,-217.1633 715.5,-188 735.7789,-172.9866 756.8083,-153.1286 770.8649,-139.1299"/>
<polygon fill="#191970" stroke="#191970" points="773.7271,-141.2137 778.277,-131.6456 768.7534,-136.288 773.7271,-141.2137"/>
</g>
<!-- Node22 -->
<g id="node23" class="node">
<title>Node22</title>
<polygon fill="none" stroke="#bfbfbf" points="762.5,-224.5 762.5,-243.5 848.5,-243.5 848.5,-224.5 762.5,-224.5"/>
<text text-anchor="middle" x="805.5" y="-231.5" font-family="Helvetica,sans-Serif" font-size="10.00" fill="#000000">unordered_set</text>
</g>
<!-- Node0&#45;&gt;Node22 -->
<g id="edge35" class="edge">
<title>Node0&#45;&gt;Node22</title>
<path fill="none" stroke="#191970" d="M557.5602,-280.4369C611.8891,-270.2616 697.4405,-254.2386 752.4992,-243.9266"/>
<polygon fill="#191970" stroke="#191970" points="753.2259,-247.3514 762.4106,-242.0702 751.9372,-240.471 753.2259,-247.3514"/>
</g>
<!-- Node23 -->
<g id="node24" class="node">
<title>Node23</title>
<polygon fill="none" stroke="#bfbfbf" points="867,-224.5 867,-243.5 920,-243.5 920,-224.5 867,-224.5"/>
<text text-anchor="middle" x="893.5" y="-231.5" font-family="Helvetica,sans-Serif" font-size="10.00" fill="#000000">iterator</text>
</g>
<!-- Node0&#45;&gt;Node23 -->
<g id="edge36" class="edge">
<title>Node0&#45;&gt;Node23</title>
<path fill="none" stroke="#191970" d="M580.6149,-283.3439C649.6993,-276.4447 755.6948,-264.0887 856.7841,-243.8921"/>
<polygon fill="#191970" stroke="#191970" points="857.7598,-247.2655 866.8649,-241.8483 856.3689,-240.4051 857.7598,-247.2655"/>
</g>
<!-- Node2 -->
<g id="node3" class="node">
<title>Node2</title>
<g id="a_node3"><a xlink:href="../../d4/daf/Nodes_8h.xhtml" target="_top" xlink:title="enfield/Analysis/Nodes.h">
<polygon fill="none" stroke="#000000" points="112,-112.5 112,-131.5 249,-131.5 249,-112.5 112,-112.5"/>
<text text-anchor="middle" x="180.5" y="-119.5" font-family="Helvetica,sans-Serif" font-size="10.00" fill="#000000">enfield/Analysis/Nodes.h</text>
</a>
</g>
</g>
<!-- Node1&#45;&gt;Node2 -->
<g id="edge2" class="edge">
<title>Node1&#45;&gt;Node2</title>
<path fill="none" stroke="#191970" d="M87.7535,-168.3733C105.5712,-159.4644 132.2747,-146.1127 152.4594,-136.0203"/>
<polygon fill="#191970" stroke="#191970" points="154.1187,-139.1038 161.4978,-131.5011 150.9882,-132.8428 154.1187,-139.1038"/>
</g>
<!-- Node4 -->
<g id="node5" class="node">
<title>Node4</title>
<polygon fill="none" stroke="#bfbfbf" points="65.5,-.5 65.5,-19.5 109.5,-19.5 109.5,-.5 65.5,-.5"/>
<text text-anchor="middle" x="87.5" y="-7.5" font-family="Helvetica,sans-Serif" font-size="10.00" fill="#000000">string</text>
</g>
<!-- Node1&#45;&gt;Node4 -->
<g id="edge11" class="edge">
<title>Node1&#45;&gt;Node4</title>
<path fill="none" stroke="#191970" d="M57.8681,-168.2424C36.2743,-147.2005 -8.8493,-96.2083 13.5,-56 22.5683,-39.6855 40.0864,-28.4113 55.8021,-21.1088"/>
<polygon fill="#191970" stroke="#191970" points="57.4428,-24.2139 65.2628,-17.0657 54.6919,-17.7771 57.4428,-24.2139"/>
</g>
<!-- Node7 -->
<g id="node8" class="node">
<title>Node7</title>
<polygon fill="none" stroke="#bfbfbf" points="22.5,-56.5 22.5,-75.5 82.5,-75.5 82.5,-56.5 22.5,-56.5"/>
<text text-anchor="middle" x="52.5" y="-63.5" font-family="Helvetica,sans-Serif" font-size="10.00" fill="#000000">iostream</text>
</g>
<!-- Node1&#45;&gt;Node7 -->
<g id="edge10" class="edge">
<title>Node1&#45;&gt;Node7</title>
<path fill="none" stroke="#191970" d="M67.1358,-168.4509C64.5263,-150.184 58.7793,-109.9553 55.3139,-85.6976"/>
<polygon fill="#191970" stroke="#191970" points="58.7398,-84.9294 53.8607,-75.5249 51.8102,-85.9194 58.7398,-84.9294"/>
</g>
<!-- Node3 -->
<g id="node4" class="node">
<title>Node3</title>
<g id="a_node4"><a xlink:href="../../d1/d2e/WrapperVal_8h.xhtml" target="_top" xlink:title="enfield/Support/WrapperVal.h">
<polygon fill="none" stroke="#000000" points="100.5,-56.5 100.5,-75.5 260.5,-75.5 260.5,-56.5 100.5,-56.5"/>
<text text-anchor="middle" x="180.5" y="-63.5" font-family="Helvetica,sans-Serif" font-size="10.00" fill="#000000">enfield/Support/WrapperVal.h</text>
</a>
</g>
</g>
<!-- Node2&#45;&gt;Node3 -->
<g id="edge3" class="edge">
<title>Node2&#45;&gt;Node3</title>
<path fill="none" stroke="#191970" d="M180.5,-112.2455C180.5,-104.9382 180.5,-94.6944 180.5,-85.7046"/>
<polygon fill="#191970" stroke="#191970" points="184.0001,-85.6426 180.5,-75.6427 177.0001,-85.6427 184.0001,-85.6426"/>
</g>
<!-- Node2&#45;&gt;Node5 -->
<g id="edge5" class="edge">
<title>Node2&#45;&gt;Node5</title>
<path fill="none" stroke="#191970" d="M225.2417,-112.4369C270.2694,-102.8127 339.7728,-87.957 387.9927,-77.6504"/>
<polygon fill="#191970" stroke="#191970" points="388.8953,-81.0366 397.9428,-75.5237 387.4321,-74.1912 388.8953,-81.0366"/>
</g>
<!-- Node6 -->
<g id="node7" class="node">
<title>Node6</title>
<polygon fill="none" stroke="#bfbfbf" points="279,-56.5 279,-75.5 362,-75.5 362,-56.5 279,-56.5"/>
<text text-anchor="middle" x="320.5" y="-63.5" font-family="Helvetica,sans-Serif" font-size="10.00" fill="#000000">initializer_list</text>
</g>
<!-- Node2&#45;&gt;Node6 -->
<g id="edge6" class="edge">
<title>Node2&#45;&gt;Node6</title>
<path fill="none" stroke="#191970" d="M204.5669,-112.3733C227.3428,-103.2629 261.7344,-89.5062 287.149,-79.3404"/>
<polygon fill="#191970" stroke="#191970" points="288.7623,-82.4648 296.7472,-75.5011 286.1625,-75.9654 288.7623,-82.4648"/>
</g>
<!-- Node2&#45;&gt;Node7 -->
<g id="edge7" class="edge">
<title>Node2&#45;&gt;Node7</title>
<path fill="none" stroke="#191970" d="M158.496,-112.3733C137.8565,-103.3435 106.7842,-89.7494 83.6111,-79.6111"/>
<polygon fill="#191970" stroke="#191970" points="84.7813,-76.3028 74.2169,-75.5011 81.9755,-82.7159 84.7813,-76.3028"/>
</g>
<!-- Node8 -->
<g id="node9" class="node">
<title>Node8</title>
<polygon fill="none" stroke="#bfbfbf" points="616,-56.5 616,-75.5 663,-75.5 663,-56.5 616,-56.5"/>
<text text-anchor="middle" x="639.5" y="-63.5" font-family="Helvetica,sans-Serif" font-size="10.00" fill="#000000">vector</text>
</g>
<!-- Node2&#45;&gt;Node8 -->
<g id="edge8" class="edge">
<title>Node2&#45;&gt;Node8</title>
<path fill="none" stroke="#191970" d="M249.3379,-112.9857C252.094,-112.6483 254.8228,-112.3185 257.5,-112 405.3198,-94.4131 443.4109,-98.9084 590.5,-76 595.39,-75.2384 600.5316,-74.3202 605.5703,-73.3529"/>
<polygon fill="#191970" stroke="#191970" points="606.5374,-76.7288 615.6551,-71.3328 605.1625,-69.8651 606.5374,-76.7288"/>
</g>
<!-- Node9 -->
<g id="node10" class="node">
<title>Node9</title>
<polygon fill="none" stroke="#bfbfbf" points="523.5,-56.5 523.5,-75.5 581.5,-75.5 581.5,-56.5 523.5,-56.5"/>
<text text-anchor="middle" x="552.5" y="-63.5" font-family="Helvetica,sans-Serif" font-size="10.00" fill="#000000">memory</text>
</g>
<!-- Node2&#45;&gt;Node9 -->
<g id="edge9" class="edge">
<title>Node2&#45;&gt;Node9</title>
<path fill="none" stroke="#191970" d="M249.0333,-113.0109C332.1165,-102.0493 466.0369,-84.1547 513.1102,-75.967"/>
<polygon fill="#191970" stroke="#191970" points="513.9317,-79.3743 523.1231,-74.1046 512.6516,-72.4923 513.9317,-79.3743"/>
</g>
<!-- Node3&#45;&gt;Node4 -->
<g id="edge4" class="edge">
<title>Node3&#45;&gt;Node4</title>
<path fill="none" stroke="#191970" d="M164.3006,-56.2455C149.8982,-47.5731 128.6268,-34.7645 112.1201,-24.825"/>
<polygon fill="#191970" stroke="#191970" points="113.886,-21.8028 103.5137,-19.6427 110.275,-27.7996 113.886,-21.8028"/>
</g>
<!-- Node10&#45;&gt;Node2 -->
<g id="edge13" class="edge">
<title>Node10&#45;&gt;Node2</title>
<path fill="none" stroke="#191970" d="M268.862,-168.2455C252.0614,-159.4527 227.1366,-146.4079 208.0382,-136.4125"/>
<polygon fill="#191970" stroke="#191970" points="209.4073,-133.1787 198.9244,-131.6427 206.1614,-139.3807 209.4073,-133.1787"/>
</g>
<!-- Node11 -->
<g id="node12" class="node">
<title>Node11</title>
<g id="a_node12"><a xlink:href="../../df/d29/Pass_8h.xhtml" target="_top" xlink:title="enfield/Transform/Pass.h">
<polygon fill="none" stroke="#000000" points="416.5,-112.5 416.5,-131.5 554.5,-131.5 554.5,-112.5 416.5,-112.5"/>
<text text-anchor="middle" x="485.5" y="-119.5" font-family="Helvetica,sans-Serif" font-size="10.00" fill="#000000">enfield/Transform/Pass.h</text>
</a>
</g>
</g>
<!-- Node10&#45;&gt;Node11 -->
<g id="edge14" class="edge">
<title>Node10&#45;&gt;Node11</title>
<path fill="none" stroke="#191970" d="M321.5374,-168.3733C354.8894,-158.9404 405.8527,-144.5265 442.1002,-134.2747"/>
<polygon fill="#191970" stroke="#191970" points="443.2368,-137.5906 451.9067,-131.5011 441.3316,-130.8548 443.2368,-137.5906"/>
</g>
<!-- Node12 -->
<g id="node13" class="node">
<title>Node12</title>
<polygon fill="none" stroke="#bfbfbf" points="267,-112.5 267,-131.5 360,-131.5 360,-112.5 267,-112.5"/>
<text text-anchor="middle" x="313.5" y="-119.5" font-family="Helvetica,sans-Serif" font-size="10.00" fill="#000000">unordered_map</text>
</g>
<!-- Node10&#45;&gt;Node12 -->
<g id="edge16" class="edge">
<title>Node10&#45;&gt;Node12</title>
<path fill="none" stroke="#191970" d="M292.0289,-168.2455C295.5334,-160.6973 300.4927,-150.0158 304.7623,-140.8197"/>
<polygon fill="#191970" stroke="#191970" points="307.9864,-142.1867 309.023,-131.6427 301.6373,-139.2389 307.9864,-142.1867"/>
</g>
<!-- Node11&#45;&gt;Node9 -->
<g id="edge15" class="edge">
<title>Node11&#45;&gt;Node9</title>
<path fill="none" stroke="#191970" d="M497.1705,-112.2455C507.0661,-103.9746 521.4627,-91.9416 533.0901,-82.2232"/>
<polygon fill="#191970" stroke="#191970" points="535.535,-84.7413 540.9632,-75.6427 531.0458,-79.3703 535.535,-84.7413"/>
</g>
<!-- Node13&#45;&gt;Node2 -->
<g id="edge18" class="edge">
<title>Node13&#45;&gt;Node2</title>
<path fill="none" stroke="#191970" d="M241.4893,-224.4236C228.0478,-216.3933 210.223,-203.7241 199.5,-188 190.0645,-174.1638 185.2632,-155.6432 182.8513,-141.7432"/>
<polygon fill="#191970" stroke="#191970" points="186.3018,-141.1496 181.3864,-131.764 179.376,-142.1663 186.3018,-141.1496"/>
</g>
<!-- Node13&#45;&gt;Node10 -->
<g id="edge19" class="edge">
<title>Node13&#45;&gt;Node10</title>
<path fill="none" stroke="#191970" d="M264.3772,-224.2455C268.1513,-216.6973 273.4921,-206.0158 278.0901,-196.8197"/>
<polygon fill="#191970" stroke="#191970" points="281.337,-198.1522 282.6787,-187.6427 275.076,-195.0217 281.337,-198.1522"/>
</g>
<!-- Node14&#45;&gt;Node10 -->
<g id="edge22" class="edge">
<title>Node14&#45;&gt;Node10</title>
<path fill="none" stroke="#191970" d="M468.8526,-224.3733C431.648,-214.8598 374.6297,-200.2797 334.4784,-190.0127"/>
<polygon fill="#191970" stroke="#191970" points="335.2116,-186.5877 324.6562,-187.5011 333.4773,-193.3695 335.2116,-186.5877"/>
</g>
<!-- Node14&#45;&gt;Node11 -->
<g id="edge21" class="edge">
<title>Node14&#45;&gt;Node11</title>
<path fill="none" stroke="#191970" d="M504.7096,-224.4509C501.269,-206.1013 493.6733,-165.5908 489.1317,-141.3693"/>
<polygon fill="#191970" stroke="#191970" points="492.5689,-140.7086 487.2859,-131.5249 485.6888,-141.9986 492.5689,-140.7086"/>
</g>
<!-- Node15 -->
<g id="node16" class="node">
<title>Node15</title>
<polygon fill="none" stroke="#bfbfbf" points="508.5,-168.5 508.5,-187.5 540.5,-187.5 540.5,-168.5 508.5,-168.5"/>
<text text-anchor="middle" x="524.5" y="-175.5" font-family="Helvetica,sans-Serif" font-size="10.00" fill="#000000">set</text>
</g>
<!-- Node14&#45;&gt;Node15 -->
<g id="edge23" class="edge">
<title>Node14&#45;&gt;Node15</title>
<path fill="none" stroke="#191970" d="M509.6354,-224.2455C512.01,-216.8579 515.3493,-206.4689 518.2615,-197.4087"/>
<polygon fill="#191970" stroke="#191970" points="521.6725,-198.234 521.4006,-187.6427 515.0083,-196.0919 521.6725,-198.234"/>
</g>
<!-- Node16&#45;&gt;Node5 -->
<g id="edge26" class="edge">
<title>Node16&#45;&gt;Node5</title>
<path fill="none" stroke="#191970" d="M624.5376,-168.2154C612.5925,-154.0887 588.7293,-127.9315 563.5,-112 540.3053,-97.3534 511.7207,-86.2161 488.1593,-78.5715"/>
<polygon fill="#191970" stroke="#191970" points="488.9886,-75.1635 478.3994,-75.509 486.8928,-81.8424 488.9886,-75.1635"/>
</g>
<!-- Node16&#45;&gt;Node9 -->
<g id="edge32" class="edge">
<title>Node16&#45;&gt;Node9</title>
<path fill="none" stroke="#191970" d="M647.3346,-168.3372C665.2581,-155.438 691.385,-131.9051 677.5,-112 667.3089,-97.3904 624.1125,-83.7053 591.3274,-75.123"/>
<polygon fill="#191970" stroke="#191970" points="592.0896,-71.7055 581.535,-72.628 590.3613,-78.4888 592.0896,-71.7055"/>
</g>
<!-- Node16&#45;&gt;Node17 -->
<g id="edge27" class="edge">
<title>Node16&#45;&gt;Node17</title>
<path fill="none" stroke="#191970" d="M659.1454,-168.3733C684.6964,-159.1419 723.4512,-145.1402 751.6909,-134.9375"/>
<polygon fill="#191970" stroke="#191970" points="752.9865,-138.1909 761.2022,-131.5011 750.6079,-131.6074 752.9865,-138.1909"/>
</g>
<!-- Node21 -->
<g id="node22" class="node">
<title>Node21</title>
<polygon fill="none" stroke="#bfbfbf" points="611,-112.5 611,-131.5 668,-131.5 668,-112.5 611,-112.5"/>
<text text-anchor="middle" x="639.5" y="-119.5" font-family="Helvetica,sans-Serif" font-size="10.00" fill="#000000">typeinfo</text>
</g>
<!-- Node16&#45;&gt;Node21 -->
<g id="edge33" class="edge">
<title>Node16&#45;&gt;Node21</title>
<path fill="none" stroke="#191970" d="M633.7193,-168.2455C634.6327,-160.9382 635.9132,-150.6944 637.0369,-141.7046"/>
<polygon fill="#191970" stroke="#191970" points="640.5272,-141.9996 638.2947,-131.6427 633.5813,-141.1313 640.5272,-141.9996"/>
</g>
<!-- Node17&#45;&gt;Node8 -->
<g id="edge28" class="edge">
<title>Node17&#45;&gt;Node8</title>
<path fill="none" stroke="#191970" d="M762.0579,-112.3733C737.3257,-103.0151 699.6373,-88.7547 672.5865,-78.5192"/>
<polygon fill="#191970" stroke="#191970" points="673.7369,-75.2124 663.1454,-74.9469 671.2596,-81.7594 673.7369,-75.2124"/>
</g>
<!-- Node18 -->
<g id="node19" class="node">
<title>Node18</title>
<polygon fill="none" stroke="#bfbfbf" points="697.5,-56.5 697.5,-75.5 747.5,-75.5 747.5,-56.5 697.5,-56.5"/>
<text text-anchor="middle" x="722.5" y="-63.5" font-family="Helvetica,sans-Serif" font-size="10.00" fill="#000000">cstdint</text>
</g>
<!-- Node17&#45;&gt;Node18 -->
<g id="edge29" class="edge">
<title>Node17&#45;&gt;Node18</title>
<path fill="none" stroke="#191970" d="M776.1779,-112.2455C766.5777,-103.9746 752.6108,-91.9416 741.3305,-82.2232"/>
<polygon fill="#191970" stroke="#191970" points="743.553,-79.5182 733.6924,-75.6427 738.984,-84.8214 743.553,-79.5182"/>
</g>
<!-- Node19 -->
<g id="node20" class="node">
<title>Node19</title>
<polygon fill="none" stroke="#bfbfbf" points="765.5,-56.5 765.5,-75.5 809.5,-75.5 809.5,-56.5 765.5,-56.5"/>
<text text-anchor="middle" x="787.5" y="-63.5" font-family="Helvetica,sans-Serif" font-size="10.00" fill="#000000">limits</text>
</g>
<!-- Node17&#45;&gt;Node19 -->
<g id="edge30" class="edge">
<title>Node17&#45;&gt;Node19</title>
<path fill="none" stroke="#191970" d="M787.5,-112.2455C787.5,-104.9382 787.5,-94.6944 787.5,-85.7046"/>
<polygon fill="#191970" stroke="#191970" points="791.0001,-85.6426 787.5,-75.6427 784.0001,-85.6427 791.0001,-85.6426"/>
</g>
<!-- Node20 -->
<g id="node21" class="node">
<title>Node20</title>
<polygon fill="none" stroke="#bfbfbf" points="828,-56.5 828,-75.5 885,-75.5 885,-56.5 828,-56.5"/>
<text text-anchor="middle" x="856.5" y="-63.5" font-family="Helvetica,sans-Serif" font-size="10.00" fill="#000000">ostream</text>
</g>
<!-- Node17&#45;&gt;Node20 -->
<g id="edge31" class="edge">
<title>Node17&#45;&gt;Node20</title>
<path fill="none" stroke="#191970" d="M799.5189,-112.2455C809.7098,-103.9746 824.5362,-91.9416 836.5107,-82.2232"/>
<polygon fill="#191970" stroke="#191970" points="839.0598,-84.662 844.6188,-75.6427 834.6486,-79.2268 839.0598,-84.662"/>
</g>
</g>
</svg>
        <g id="navigator" transform="translate(0 0)" fill="#404254">
                <rect fill="#f2f5e9" fill-opacity="0.5" stroke="#606060" stroke-width=".5" x="0" y="0" width="60" height="60"/>
                <use id="zoomplus" xlink:href="#zoomPlus" x="17" y="9" onmousedown="handleZoom(evt,'in')"/>
                <use id="zoomminus" xlink:href="#zoomMin" x="42" y="9" onmousedown="handleZoom(evt,'out')"/>
                <use id="reset" xlink:href="#resetDef" x="30" y="36" onmousedown="handleReset()"/>
                <g id="arrowUp" xlink:href="#dirArrow" transform="translate(30 24)" onmousedown="handlePan(0,-1)">
                  <use xlink:href="#rim" fill="#404040">
                        <set attributeName="fill" to="#808080" begin="arrowUp.mouseover" end="arrowUp.mouseout"/>
                  </use>
                  <path fill="none" stroke="white" stroke-width="1.5" d="M0,-3.0v7 M-2.5,-0.5L0,-3.0L2.5,-0.5"/>
                </g>
                <g id="arrowRight" xlink:href="#dirArrow" transform="rotate(90) translate(36 -43)" onmousedown="handlePan(1,0)">
                  <use xlink:href="#rim" fill="#404040">
                        <set attributeName="fill" to="#808080" begin="arrowRight.mouseover" end="arrowRight.mouseout"/>
                  </use>
                  <path fill="none" stroke="white" stroke-width="1.5" d="M0,-3.0v7 M-2.5,-0.5L0,-3.0L2.5,-0.5"/>
                </g>
                <g id="arrowDown" xlink:href="#dirArrow" transform="rotate(180) translate(-30 -48)" onmousedown="handlePan(0,1)">
                  <use xlink:href="#rim" fill="#404040">
                        <set attributeName="fill" to="#808080" begin="arrowDown.mouseover" end="arrowDown.mouseout"/>
                  </use>
                  <path fill="none" stroke="white" stroke-width="1.5" d="M0,-3.0v7 M-2.5,-0.5L0,-3.0L2.5,-0.5"/>
                </g>
                <g id="arrowLeft" xlink:href="#dirArrow" transform="rotate(270) translate(-36 17)" onmousedown="handlePan(-1,0)">
                  <use xlink:href="#rim" fill="#404040">
                        <set attributeName="fill" to="#808080" begin="arrowLeft.mouseover" end="arrowLeft.mouseout"/>
                  </use>
                  <path fill="none" stroke="white" stroke-width="1.5" d="M0,-3.0v7 M-2.5,-0.5L0,-3.0L2.5,-0.5"/>
                </g>
        </g>
        <svg viewBox="0 0 15 15" width="100%" height="30px" preserveAspectRatio="xMaxYMin meet">
         <g id="arrow_out" transform="scale(0.3 0.3)">
          <a xlink:href="QModule_8cpp__incl_org.svg" target="_base">
           <rect id="button" ry="5" rx="5" y="6" x="6" height="38" width="38"
                fill="#f2f5e9" fill-opacity="0.5" stroke="#606060" stroke-width="1.0"/>
           <path id="arrow"
             d="M 11.500037,31.436501 C 11.940474,20.09759 22.043105,11.32322 32.158766,21.979434 L 37.068811,17.246167 C 37.068811,17.246167 37.088388,32 37.088388,32 L 22.160133,31.978069 C 22.160133,31.978069 26.997745,27.140456 26.997745,27.140456 C 18.528582,18.264221 13.291696,25.230495 11.500037,31.436501 z"
             style="fill:#404040;"/>
          </a>
         </g>
        </svg>
</svg>
