<?xml version="1.0" encoding="UTF-8" standalone="no"?>
<!DOCTYPE svg PUBLIC "-//W3C//DTD SVG 1.1//EN"
 "http://www.w3.org/Graphics/SVG/1.1/DTD/svg11.dtd">
<!-- Generated by graphviz version 2.38.0 (20140413.2041)
 -->
<!-- Title: lib/Transform/QModule.cpp Pages: 1 -->
<svg width="873pt" height="308pt"
 viewBox="0.00 0.00 873.27 308.00" xmlns="http://www.w3.org/2000/svg" xmlns:xlink="http://www.w3.org/1999/xlink">
<g id="graph0" class="graph" transform="scale(1 1) rotate(0) translate(4 304)">
<title>lib/Transform/QModule.cpp</title>
<!-- Node0 -->
<g id="node1" class="node"><title>Node0</title>
<polygon fill="#bfbfbf" stroke="black" points="434.768,-280.5 434.768,-299.5 568.768,-299.5 568.768,-280.5 434.768,-280.5"/>
<text text-anchor="middle" x="501.768" y="-287.5" font-family="Helvetica,sans-Serif" font-size="10.00">lib/Transform/QModule.cpp</text>
</g>
<!-- Node1 -->
<g id="node2" class="node"><title>Node1</title>
<g id="a_node2"><a xlink:href="../../d0/d5c/Analysis_2Driver_8h.xhtml" target="_top" xlink:title="enfield/Analysis/Driver.h">
<polygon fill="none" stroke="black" points="13.2676,-168.5 13.2676,-187.5 136.268,-187.5 136.268,-168.5 13.2676,-168.5"/>
<text text-anchor="middle" x="74.7676" y="-175.5" font-family="Helvetica,sans-Serif" font-size="10.00">enfield/Analysis/Driver.h</text>
</a>
</g>
</g>
<!-- Node0&#45;&gt;Node1 -->
<g id="edge1" class="edge"><title>Node0&#45;&gt;Node1</title>
<path fill="none" stroke="midnightblue" d="M434.746,-286.815C341.969,-282.801 180.032,-271.927 128.768,-244 108.899,-233.176 93.372,-211.804 84.1659,-196.521"/>
<polygon fill="midnightblue" stroke="midnightblue" points="87.036,-194.488 79.0469,-187.529 80.9526,-197.951 87.036,-194.488"/>
</g>
<!-- Node5 -->
<g id="node6" class="node"><title>Node5</title>
<g id="a_node6"><a xlink:href="../../d5/dfc/RTTI_8h.xhtml" target="_top" xlink:title="enfield/Support/RTTI.h">
<polygon fill="none" stroke="black" points="469.768,-56.5 469.768,-75.5 585.768,-75.5 585.768,-56.5 469.768,-56.5"/>
<text text-anchor="middle" x="527.768" y="-63.5" font-family="Helvetica,sans-Serif" font-size="10.00">enfield/Support/RTTI.h</text>
</a>
</g>
</g>
<!-- Node0&#45;&gt;Node5 -->
<g id="edge24" class="edge"><title>Node0&#45;&gt;Node5</title>
<path fill="none" stroke="midnightblue" d="M502.787,-280.297C506.612,-247.633 520.171,-131.866 525.547,-85.9573"/>
<polygon fill="midnightblue" stroke="midnightblue" points="529.04,-86.223 526.727,-75.8837 522.088,-85.4087 529.04,-86.223"/>
</g>
<!-- Node10 -->
<g id="node11" class="node"><title>Node10</title>
<g id="a_node11"><a xlink:href="../../d4/d73/QModule_8h.xhtml" target="_top" xlink:title="enfield/Transform/QModule.h">
<polygon fill="none" stroke="black" points="218.268,-168.5 218.268,-187.5 361.268,-187.5 361.268,-168.5 218.268,-168.5"/>
<text text-anchor="middle" x="289.768" y="-175.5" font-family="Helvetica,sans-Serif" font-size="10.00">enfield/Transform/QModule.h</text>
</a>
</g>
</g>
<!-- Node0&#45;&gt;Node10 -->
<g id="edge12" class="edge"><title>Node0&#45;&gt;Node10</title>
<path fill="none" stroke="midnightblue" d="M434.599,-280.625C386.398,-273.303 326.887,-261.144 308.768,-244 296.234,-232.141 291.826,-212.516 290.347,-197.927"/>
<polygon fill="midnightblue" stroke="midnightblue" points="293.815,-197.309 289.689,-187.551 286.829,-197.752 293.815,-197.309"/>
</g>
<!-- Node13 -->
<g id="node14" class="node"><title>Node13</title>
<g id="a_node14"><a xlink:href="../../d9/ded/Utils_8h.xhtml" target="_top" xlink:title="enfield/Transform/Utils.h">
<polygon fill="none" stroke="black" points="137.768,-224.5 137.768,-243.5 261.768,-243.5 261.768,-224.5 137.768,-224.5"/>
<text text-anchor="middle" x="199.768" y="-231.5" font-family="Helvetica,sans-Serif" font-size="10.00">enfield/Transform/Utils.h</text>
</a>
</g>
</g>
<!-- Node0&#45;&gt;Node13 -->
<g id="edge17" class="edge"><title>Node0&#45;&gt;Node13</title>
<path fill="none" stroke="midnightblue" d="M453.915,-280.444C400.569,-270.905 314.323,-255.483 257.332,-245.293"/>
<polygon fill="midnightblue" stroke="midnightblue" points="257.856,-241.831 247.397,-243.516 256.624,-248.722 257.856,-241.831"/>
</g>
<!-- Node14 -->
<g id="node15" class="node"><title>Node14</title>
<g id="a_node15"><a xlink:href="../../db/d82/PassCache_8h.xhtml" target="_top" xlink:title="enfield/Transform/PassCache.h">
<polygon fill="none" stroke="black" points="318.268,-224.5 318.268,-243.5 473.268,-243.5 473.268,-224.5 318.268,-224.5"/>
<text text-anchor="middle" x="395.768" y="-231.5" font-family="Helvetica,sans-Serif" font-size="10.00">enfield/Transform/PassCache.h</text>
</a>
</g>
</g>
<!-- Node0&#45;&gt;Node14 -->
<g id="edge20" class="edge"><title>Node0&#45;&gt;Node14</title>
<path fill="none" stroke="midnightblue" d="M484.737,-280.324C467.738,-271.664 441.391,-258.242 421.775,-248.249"/>
<polygon fill="midnightblue" stroke="midnightblue" points="423.255,-245.075 412.756,-243.655 420.078,-251.312 423.255,-245.075"/>
</g>
<!-- Node16 -->
<g id="node17" class="node"><title>Node16</title>
<g id="a_node17"><a xlink:href="../../dc/d09/uRefCast_8h.xhtml" target="_top" xlink:title="enfield/Support/uRefCast.h">
<polygon fill="none" stroke="black" points="530.268,-224.5 530.268,-243.5 665.268,-243.5 665.268,-224.5 530.268,-224.5"/>
<text text-anchor="middle" x="597.768" y="-231.5" font-family="Helvetica,sans-Serif" font-size="10.00">enfield/Support/uRefCast.h</text>
</a>
</g>
</g>
<!-- Node0&#45;&gt;Node16 -->
<g id="edge25" class="edge"><title>Node0&#45;&gt;Node16</title>
<path fill="none" stroke="midnightblue" d="M517.192,-280.324C532.307,-271.822 555.583,-258.729 573.239,-248.797"/>
<polygon fill="midnightblue" stroke="midnightblue" points="575.382,-251.608 582.382,-243.655 571.95,-245.507 575.382,-251.608"/>
</g>
<!-- Node17 -->
<g id="node18" class="node"><title>Node17</title>
<polygon fill="none" stroke="#bfbfbf" points="645.268,-168.5 645.268,-187.5 694.268,-187.5 694.268,-168.5 645.268,-168.5"/>
<text text-anchor="middle" x="669.768" y="-175.5" font-family="Helvetica,sans-Serif" font-size="10.00">cassert</text>
</g>
<!-- Node0&#45;&gt;Node17 -->
<g id="edge29" class="edge"><title>Node0&#45;&gt;Node17</title>
<path fill="none" stroke="midnightblue" d="M566.574,-280.471C609.9,-273.287 661.338,-261.37 674.768,-244 684.918,-230.871 681.801,-211.459 677.284,-197.267"/>
<polygon fill="midnightblue" stroke="midnightblue" points="680.479,-195.811 673.754,-187.623 673.905,-198.217 680.479,-195.811"/>
</g>
<!-- Node18 -->
<g id="node19" class="node"><title>Node18</title>
<polygon fill="none" stroke="#bfbfbf" points="721.768,-224.5 721.768,-243.5 799.768,-243.5 799.768,-224.5 721.768,-224.5"/>
<text text-anchor="middle" x="760.768" y="-231.5" font-family="Helvetica,sans-Serif" font-size="10.00">unordered_set</text>
</g>
<!-- Node0&#45;&gt;Node18 -->
<g id="edge30" class="edge"><title>Node0&#45;&gt;Node18</title>
<path fill="none" stroke="midnightblue" d="M542.807,-280.444C588.616,-270.893 662.714,-255.444 711.589,-245.254"/>
<polygon fill="midnightblue" stroke="midnightblue" points="712.541,-248.63 721.616,-243.163 711.112,-241.778 712.541,-248.63"/>
</g>
<!-- Node19 -->
<g id="node20" class="node"><title>Node19</title>
<polygon fill="none" stroke="#bfbfbf" points="818.268,-224.5 818.268,-243.5 865.268,-243.5 865.268,-224.5 818.268,-224.5"/>
<text text-anchor="middle" x="841.768" y="-231.5" font-family="Helvetica,sans-Serif" font-size="10.00">iterator</text>
</g>
<!-- Node0&#45;&gt;Node19 -->
<g id="edge31" class="edge"><title>Node0&#45;&gt;Node19</title>
<path fill="none" stroke="midnightblue" d="M568.952,-281.521C629.167,-274.279 720.047,-262.024 808.161,-243.897"/>
<polygon fill="midnightblue" stroke="midnightblue" points="808.983,-247.302 818.058,-241.834 807.554,-240.449 808.983,-247.302"/>
</g>
<!-- Node2 -->
<g id="node3" class="node"><title>Node2</title>
<g id="a_node3"><a xlink:href="../../d4/daf/Nodes_8h.xhtml" target="_top" xlink:title="enfield/Analysis/Nodes.h">
<polygon fill="none" stroke="black" points="105.268,-112.5 105.268,-131.5 230.268,-131.5 230.268,-112.5 105.268,-112.5"/>
<text text-anchor="middle" x="167.768" y="-119.5" font-family="Helvetica,sans-Serif" font-size="10.00">enfield/Analysis/Nodes.h</text>
</a>
</g>
</g>
<!-- Node1&#45;&gt;Node2 -->
<g id="edge2" class="edge"><title>Node1&#45;&gt;Node2</title>
<path fill="none" stroke="midnightblue" d="M89.7096,-168.324C104.353,-159.822 126.901,-146.729 144.005,-136.797"/>
<polygon fill="midnightblue" stroke="midnightblue" points="145.972,-139.703 152.863,-131.655 142.457,-133.649 145.972,-139.703"/>
</g>
<!-- Node4 -->
<g id="node5" class="node"><title>Node4</title>
<polygon fill="none" stroke="#bfbfbf" points="49.2676,-0.5 49.2676,-19.5 90.2676,-19.5 90.2676,-0.5 49.2676,-0.5"/>
<text text-anchor="middle" x="69.7676" y="-7.5" font-family="Helvetica,sans-Serif" font-size="10.00">string</text>
</g>
<!-- Node1&#45;&gt;Node4 -->
<g id="edge11" class="edge"><title>Node1&#45;&gt;Node4</title>
<path fill="none" stroke="midnightblue" d="M65.6236,-168.349C49.2115,-152.115 15.3012,-115.174 2.76759,-76 0.0588694,-67.5339 -1.41323,-63.8443 2.76759,-56 10.6926,-41.1306 25.9555,-30.3014 39.9141,-22.9976"/>
<polygon fill="midnightblue" stroke="midnightblue" points="41.7703,-25.9886 49.2632,-18.498 38.7346,-19.681 41.7703,-25.9886"/>
</g>
<!-- Node7 -->
<g id="node8" class="node"><title>Node7</title>
<polygon fill="none" stroke="#bfbfbf" points="11.7676,-56.5 11.7676,-75.5 65.7676,-75.5 65.7676,-56.5 11.7676,-56.5"/>
<text text-anchor="middle" x="38.7676" y="-63.5" font-family="Helvetica,sans-Serif" font-size="10.00">iostream</text>
</g>
<!-- Node1&#45;&gt;Node7 -->
<g id="edge10" class="edge"><title>Node1&#45;&gt;Node7</title>
<path fill="none" stroke="midnightblue" d="M71.9427,-168.368C66.1069,-150.537 52.6097,-109.295 44.7474,-85.2717"/>
<polygon fill="midnightblue" stroke="midnightblue" points="48.0162,-84.0067 41.5793,-75.5914 41.3634,-86.1841 48.0162,-84.0067"/>
</g>
<!-- Node3 -->
<g id="node4" class="node"><title>Node3</title>
<g id="a_node4"><a xlink:href="../../d1/d2e/WrapperVal_8h.xhtml" target="_top" xlink:title="enfield/Support/WrapperVal.h">
<polygon fill="none" stroke="black" points="83.7676,-56.5 83.7676,-75.5 227.768,-75.5 227.768,-56.5 83.7676,-56.5"/>
<text text-anchor="middle" x="155.768" y="-63.5" font-family="Helvetica,sans-Serif" font-size="10.00">enfield/Support/WrapperVal.h</text>
</a>
</g>
</g>
<!-- Node2&#45;&gt;Node3 -->
<g id="edge3" class="edge"><title>Node2&#45;&gt;Node3</title>
<path fill="none" stroke="midnightblue" d="M165.786,-112.083C164.196,-104.927 161.909,-94.6353 159.921,-85.6911"/>
<polygon fill="midnightblue" stroke="midnightblue" points="163.298,-84.7537 157.712,-75.7511 156.465,-86.2722 163.298,-84.7537"/>
</g>
<!-- Node2&#45;&gt;Node5 -->
<g id="edge5" class="edge"><title>Node2&#45;&gt;Node5</title>
<path fill="none" stroke="midnightblue" d="M224.811,-112.444C288.928,-102.826 392.917,-87.2275 460.828,-77.0409"/>
<polygon fill="midnightblue" stroke="midnightblue" points="461.621,-80.4612 470.991,-75.5164 460.583,-73.5386 461.621,-80.4612"/>
</g>
<!-- Node6 -->
<g id="node7" class="node"><title>Node6</title>
<polygon fill="none" stroke="#bfbfbf" points="246.268,-56.5 246.268,-75.5 319.268,-75.5 319.268,-56.5 246.268,-56.5"/>
<text text-anchor="middle" x="282.768" y="-63.5" font-family="Helvetica,sans-Serif" font-size="10.00">initializer_list</text>
</g>
<!-- Node2&#45;&gt;Node6 -->
<g id="edge6" class="edge"><title>Node2&#45;&gt;Node6</title>
<path fill="none" stroke="midnightblue" d="M185.99,-112.444C204.663,-103.675 233.924,-89.9355 255.385,-79.8579"/>
<polygon fill="midnightblue" stroke="midnightblue" points="257.067,-82.935 264.631,-75.5164 254.091,-76.5988 257.067,-82.935"/>
</g>
<!-- Node2&#45;&gt;Node7 -->
<g id="edge7" class="edge"><title>Node2&#45;&gt;Node7</title>
<path fill="none" stroke="midnightblue" d="M147.327,-112.444C126.097,-103.557 92.6686,-89.5632 68.5126,-79.4514"/>
<polygon fill="midnightblue" stroke="midnightblue" points="69.6883,-76.1493 59.1124,-75.5164 66.9853,-82.6064 69.6883,-76.1493"/>
</g>
<!-- Node8 -->
<g id="node9" class="node"><title>Node8</title>
<polygon fill="none" stroke="#bfbfbf" points="337.768,-56.5 337.768,-75.5 381.768,-75.5 381.768,-56.5 337.768,-56.5"/>
<text text-anchor="middle" x="359.768" y="-63.5" font-family="Helvetica,sans-Serif" font-size="10.00">vector</text>
</g>
<!-- Node2&#45;&gt;Node8 -->
<g id="edge8" class="edge"><title>Node2&#45;&gt;Node8</title>
<path fill="none" stroke="midnightblue" d="M198.191,-112.444C233.511,-102.51 291.516,-86.1958 327.574,-76.0544"/>
<polygon fill="midnightblue" stroke="midnightblue" points="328.889,-79.3205 337.568,-73.2437 326.994,-72.582 328.889,-79.3205"/>
</g>
<!-- Node9 -->
<g id="node10" class="node"><title>Node9</title>
<polygon fill="none" stroke="#bfbfbf" points="399.768,-56.5 399.768,-75.5 451.768,-75.5 451.768,-56.5 399.768,-56.5"/>
<text text-anchor="middle" x="425.768" y="-63.5" font-family="Helvetica,sans-Serif" font-size="10.00">memory</text>
</g>
<!-- Node2&#45;&gt;Node9 -->
<g id="edge9" class="edge"><title>Node2&#45;&gt;Node9</title>
<path fill="none" stroke="midnightblue" d="M213.617,-112.478C256.688,-104.309 323.156,-91.2842 389.626,-76.1746"/>
<polygon fill="midnightblue" stroke="midnightblue" points="390.464,-79.5735 399.431,-73.9305 388.902,-72.75 390.464,-79.5735"/>
</g>
<!-- Node3&#45;&gt;Node4 -->
<g id="edge4" class="edge"><title>Node3&#45;&gt;Node4</title>
<path fill="none" stroke="midnightblue" d="M141.95,-56.324C128.535,-47.9002 107.943,-34.9709 92.182,-25.0741"/>
<polygon fill="midnightblue" stroke="midnightblue" points="93.8808,-22.0081 83.5507,-19.6545 90.1584,-27.9364 93.8808,-22.0081"/>
</g>
<!-- Node10&#45;&gt;Node2 -->
<g id="edge13" class="edge"><title>Node10&#45;&gt;Node2</title>
<path fill="none" stroke="midnightblue" d="M270.436,-168.444C250.448,-159.596 219.025,-145.687 196.204,-135.586"/>
<polygon fill="midnightblue" stroke="midnightblue" points="197.569,-132.363 187.008,-131.516 194.736,-138.764 197.569,-132.363"/>
</g>
<!-- Node11 -->
<g id="node12" class="node"><title>Node11</title>
<g id="a_node12"><a xlink:href="../../df/d29/Pass_8h.xhtml" target="_top" xlink:title="enfield/Transform/Pass.h">
<polygon fill="none" stroke="black" points="349.768,-112.5 349.768,-131.5 475.768,-131.5 475.768,-112.5 349.768,-112.5"/>
<text text-anchor="middle" x="412.768" y="-119.5" font-family="Helvetica,sans-Serif" font-size="10.00">enfield/Transform/Pass.h</text>
</a>
</g>
</g>
<!-- Node10&#45;&gt;Node11 -->
<g id="edge14" class="edge"><title>Node10&#45;&gt;Node11</title>
<path fill="none" stroke="midnightblue" d="M309.257,-168.444C329.41,-159.596 361.091,-145.687 384.098,-135.586"/>
<polygon fill="midnightblue" stroke="midnightblue" points="385.62,-138.741 393.369,-131.516 382.806,-132.332 385.62,-138.741"/>
</g>
<!-- Node12 -->
<g id="node13" class="node"><title>Node12</title>
<polygon fill="none" stroke="#bfbfbf" points="248.268,-112.5 248.268,-131.5 331.268,-131.5 331.268,-112.5 248.268,-112.5"/>
<text text-anchor="middle" x="289.768" y="-119.5" font-family="Helvetica,sans-Serif" font-size="10.00">unordered_map</text>
</g>
<!-- Node10&#45;&gt;Node12 -->
<g id="edge16" class="edge"><title>Node10&#45;&gt;Node12</title>
<path fill="none" stroke="midnightblue" d="M289.768,-168.083C289.768,-161.006 289.768,-150.861 289.768,-141.986"/>
<polygon fill="midnightblue" stroke="midnightblue" points="293.268,-141.751 289.768,-131.751 286.268,-141.751 293.268,-141.751"/>
</g>
<!-- Node11&#45;&gt;Node9 -->
<g id="edge15" class="edge"><title>Node11&#45;&gt;Node9</title>
<path fill="none" stroke="midnightblue" d="M414.914,-112.083C416.637,-104.927 419.115,-94.6353 421.268,-85.6911"/>
<polygon fill="midnightblue" stroke="midnightblue" points="424.723,-86.2925 423.661,-75.7511 417.917,-84.6541 424.723,-86.2925"/>
</g>
<!-- Node13&#45;&gt;Node2 -->
<g id="edge18" class="edge"><title>Node13&#45;&gt;Node2</title>
<path fill="none" stroke="midnightblue" d="M197.257,-224.368C192.069,-206.537 180.072,-165.295 173.083,-141.272"/>
<polygon fill="midnightblue" stroke="midnightblue" points="176.421,-140.216 170.267,-131.591 169.7,-142.171 176.421,-140.216"/>
</g>
<!-- Node13&#45;&gt;Node10 -->
<g id="edge19" class="edge"><title>Node13&#45;&gt;Node10</title>
<path fill="none" stroke="midnightblue" d="M214.228,-224.324C228.267,-215.9 249.816,-202.971 266.311,-193.074"/>
<polygon fill="midnightblue" stroke="midnightblue" points="268.569,-195.801 275.343,-187.655 264.968,-189.798 268.569,-195.801"/>
</g>
<!-- Node14&#45;&gt;Node10 -->
<g id="edge22" class="edge"><title>Node14&#45;&gt;Node10</title>
<path fill="none" stroke="midnightblue" d="M378.737,-224.324C361.738,-215.664 335.391,-202.242 315.775,-192.249"/>
<polygon fill="midnightblue" stroke="midnightblue" points="317.255,-189.075 306.756,-187.655 314.078,-195.312 317.255,-189.075"/>
</g>
<!-- Node14&#45;&gt;Node11 -->
<g id="edge21" class="edge"><title>Node14&#45;&gt;Node11</title>
<path fill="none" stroke="midnightblue" d="M397.102,-224.368C399.845,-206.617 406.174,-165.666 409.893,-141.597"/>
<polygon fill="midnightblue" stroke="midnightblue" points="413.371,-142.009 411.44,-131.591 406.453,-140.94 413.371,-142.009"/>
</g>
<!-- Node15 -->
<g id="node16" class="node"><title>Node15</title>
<polygon fill="none" stroke="#bfbfbf" points="423.768,-168.5 423.768,-187.5 453.768,-187.5 453.768,-168.5 423.768,-168.5"/>
<text text-anchor="middle" x="438.768" y="-175.5" font-family="Helvetica,sans-Serif" font-size="10.00">set</text>
</g>
<!-- Node14&#45;&gt;Node15 -->
<g id="edge23" class="edge"><title>Node14&#45;&gt;Node15</title>
<path fill="none" stroke="midnightblue" d="M402.868,-224.083C409.005,-216.377 418.037,-205.033 425.507,-195.653"/>
<polygon fill="midnightblue" stroke="midnightblue" points="428.308,-197.754 431.799,-187.751 422.832,-193.394 428.308,-197.754"/>
</g>
<!-- Node16&#45;&gt;Node5 -->
<g id="edge26" class="edge"><title>Node16&#45;&gt;Node5</title>
<path fill="none" stroke="midnightblue" d="M596.679,-224.335C593.837,-203.82 584.969,-151.07 564.768,-112 559.332,-101.488 551.137,-91.1855 543.839,-83.0963"/>
<polygon fill="midnightblue" stroke="midnightblue" points="546.384,-80.6931 536.977,-75.8191 541.291,-85.4957 546.384,-80.6931"/>
</g>
<!-- Node16&#45;&gt;Node9 -->
<g id="edge28" class="edge"><title>Node16&#45;&gt;Node9</title>
<path fill="none" stroke="midnightblue" d="M590.551,-224.32C573.285,-203.773 527.816,-150.96 484.768,-112 472.742,-101.116 458.274,-90.0533 446.674,-81.62"/>
<polygon fill="midnightblue" stroke="midnightblue" points="448.619,-78.708 438.452,-75.7301 444.543,-84.3987 448.619,-78.708"/>
</g>
<!-- Node16&#45;&gt;Node17 -->
<g id="edge27" class="edge"><title>Node16&#45;&gt;Node17</title>
<path fill="none" stroke="midnightblue" d="M609.336,-224.324C620.188,-216.185 636.648,-203.839 649.651,-194.087"/>
<polygon fill="midnightblue" stroke="midnightblue" points="652.089,-196.634 657.989,-187.834 647.889,-191.034 652.089,-196.634"/>
</g>
</g>
</svg>
