<?xml version="1.0" encoding="UTF-8" standalone="no"?>
<!DOCTYPE svg PUBLIC "-//W3C//DTD SVG 1.1//EN"
 "http://www.w3.org/Graphics/SVG/1.1/DTD/svg11.dtd">
<!-- Generated by graphviz version 2.40.1 (20161225.0304)
 -->
<!-- Title: include/enfield/Transform/Allocators/BMT/ImprovedBMTQAllocatorImpl.h Pages: 1 -->
<!--zoomable 553 -->
<svg id="main" version="1.1" xmlns="http://www.w3.org/2000/svg" xmlns:xlink="http://www.w3.org/1999/xlink" xml:space="preserve" onload="init(evt)">
<style type="text/css"><![CDATA[
.edge:hover path { stroke: red; }
.edge:hover polygon { stroke: red; fill: red; }
]]></style>
<script type="text/javascript"><![CDATA[
var edges = document.getElementsByTagName('g');
if (edges && edges.length) {
  for (var i=0;i<edges.length;i++) {
    if (edges[i].id.substr(0,4)=='edge') {
      edges[i].setAttribute('class','edge');
    }
  }
}
]]></script>
        <defs>
                <circle id="rim" cx="0" cy="0" r="7"/>
                <circle id="rim2" cx="0" cy="0" r="3.5"/>
                <g id="zoomPlus">
                        <use xlink:href="#rim" fill="#404040">
                                <set attributeName="fill" to="#808080" begin="zoomplus.mouseover" end="zoomplus.mouseout"/>
                        </use>
                        <path d="M-4,0h8M0,-4v8" fill="none" stroke="white" stroke-width="1.5" pointer-events="none"/>
                </g>
                <g id="zoomMin">
                        <use xlink:href="#rim" fill="#404040">
                                <set attributeName="fill" to="#808080" begin="zoomminus.mouseover" end="zoomminus.mouseout"/>
                        </use>
                        <path d="M-4,0h8" fill="none" stroke="white" stroke-width="1.5" pointer-events="none"/>
                </g>
                <g id="dirArrow">
                        <path fill="none" stroke="white" stroke-width="1.5" d="M0,-3.0v7 M-2.5,-0.5L0,-3.0L2.5,-0.5"/>
                </g>
               <g id="resetDef">
                       <use xlink:href="#rim2" fill="#404040">
                               <set attributeName="fill" to="#808080" begin="reset.mouseover" end="reset.mouseout"/>
                       </use>
               </g>
        </defs>

<script type="text/javascript">
var viewWidth = 1487;
var viewHeight = 553;
var sectionId = 'dynsection-0';
</script>
<script xlink:href="../../svgpan.js"/>
<svg id="graph" class="graph">
<g id="viewport">
<title>include/enfield/Transform/Allocators/BMT/ImprovedBMTQAllocatorImpl.h</title>
<!-- Node0 -->
<g id="node1" class="node">
<title>Node0</title>
<polygon fill="#bfbfbf" stroke="#000000" points="401,-503.5 401,-544.5 615,-544.5 615,-503.5 401,-503.5"/>
<text text-anchor="start" x="409" y="-532.5" font-family="Helvetica,sans-Serif" font-size="10.00" fill="#000000">include/enfield/Transform</text>
<text text-anchor="start" x="409" y="-521.5" font-family="Helvetica,sans-Serif" font-size="10.00" fill="#000000">/Allocators/BMT/ImprovedBMTQAllocator</text>
<text text-anchor="middle" x="508" y="-510.5" font-family="Helvetica,sans-Serif" font-size="10.00" fill="#000000">Impl.h</text>
</g>
<!-- Node1 -->
<g id="node2" class="node">
<title>Node1</title>
<g id="a_node2"><a xlink:href="../../d6/daf/BoundedMappingTreeQAllocator_8h.xhtml" target="_top" xlink:title="enfield/Transform/Allocators\l/BoundedMappingTreeQAllocator.h">
<polygon fill="none" stroke="#000000" points="415.5,-436.5 415.5,-466.5 600.5,-466.5 600.5,-436.5 415.5,-436.5"/>
<text text-anchor="start" x="423.5" y="-454.5" font-family="Helvetica,sans-Serif" font-size="10.00" fill="#000000">enfield/Transform/Allocators</text>
<text text-anchor="middle" x="508" y="-443.5" font-family="Helvetica,sans-Serif" font-size="10.00" fill="#000000">/BoundedMappingTreeQAllocator.h</text>
</a>
</g>
</g>
<!-- Node0&#45;&gt;Node1 -->
<g id="edge1" class="edge">
<title>Node0&#45;&gt;Node1</title>
<path fill="none" stroke="#191970" d="M508,-503.4183C508,-495.0849 508,-485.3834 508,-476.6373"/>
<polygon fill="#191970" stroke="#191970" points="511.5001,-476.5991 508,-466.5991 504.5001,-476.5991 511.5001,-476.5991"/>
</g>
<!-- Node5 -->
<g id="node6" class="node">
<title>Node5</title>
<polygon fill="none" stroke="#bfbfbf" points="361,-174 361,-193 393,-193 393,-174 361,-174"/>
<text text-anchor="middle" x="377" y="-181" font-family="Helvetica,sans-Serif" font-size="10.00" fill="#000000">set</text>
</g>
<!-- Node0&#45;&gt;Node5 -->
<g id="edge62" class="edge">
<title>Node0&#45;&gt;Node5</title>
<path fill="none" stroke="#191970" d="M456.5822,-503.3692C438.818,-494.29 419.9049,-482.1857 406,-467 378.862,-437.3623 369,-424.6854 369,-384.5 369,-384.5 369,-384.5 369,-317.5 369,-276.8978 372.7051,-229.4982 375.0723,-203.3574"/>
<polygon fill="#191970" stroke="#191970" points="378.5721,-203.5225 376.019,-193.2399 371.6025,-202.8703 378.5721,-203.5225"/>
</g>
<!-- Node7 -->
<g id="node8" class="node">
<title>Node7</title>
<polygon fill="none" stroke="#bfbfbf" points="375.5,-112.5 375.5,-131.5 468.5,-131.5 468.5,-112.5 375.5,-112.5"/>
<text text-anchor="middle" x="422" y="-119.5" font-family="Helvetica,sans-Serif" font-size="10.00" fill="#000000">unordered_map</text>
</g>
<!-- Node0&#45;&gt;Node7 -->
<g id="edge63" class="edge">
<title>Node0&#45;&gt;Node7</title>
<path fill="none" stroke="#191970" d="M400.7972,-508.4293C281.4102,-487.9987 105,-447.2013 105,-384.5 105,-384.5 105,-384.5 105,-317.5 105,-196.5936 274.1287,-148.0098 365.3125,-130.6023"/>
<polygon fill="#191970" stroke="#191970" points="366.0263,-134.0298 375.2256,-128.7739 364.7566,-127.1459 366.0263,-134.0298"/>
</g>
<!-- Node32 -->
<g id="node33" class="node">
<title>Node32</title>
<g id="a_node33"><a xlink:href="../../df/da6/CircuitGraph_8h.xhtml" target="_top" xlink:title="enfield/Transform/Circuit\lGraph.h">
<polygon fill="none" stroke="#000000" points="871,-168.5 871,-198.5 1009,-198.5 1009,-168.5 871,-168.5"/>
<text text-anchor="start" x="879" y="-186.5" font-family="Helvetica,sans-Serif" font-size="10.00" fill="#000000">enfield/Transform/Circuit</text>
<text text-anchor="middle" x="940" y="-175.5" font-family="Helvetica,sans-Serif" font-size="10.00" fill="#000000">Graph.h</text>
</a>
</g>
</g>
<!-- Node0&#45;&gt;Node32 -->
<g id="edge59" class="edge">
<title>Node0&#45;&gt;Node32</title>
<path fill="none" stroke="#191970" d="M615.2028,-508.4293C734.5898,-487.9987 911,-447.2013 911,-384.5 911,-384.5 911,-384.5 911,-317.5 911,-278.6258 922.8032,-234.8139 931.3494,-208.1867"/>
<polygon fill="#191970" stroke="#191970" points="934.7218,-209.1364 934.5453,-198.543 928.0771,-206.9343 934.7218,-209.1364"/>
</g>
<!-- Node33 -->
<g id="node34" class="node">
<title>Node33</title>
<polygon fill="none" stroke="#bfbfbf" points="939,-442 939,-461 993,-461 993,-442 939,-442"/>
<text text-anchor="middle" x="966" y="-449" font-family="Helvetica,sans-Serif" font-size="10.00" fill="#000000">random</text>
</g>
<!-- Node0&#45;&gt;Node33 -->
<g id="edge64" class="edge">
<title>Node0&#45;&gt;Node33</title>
<path fill="none" stroke="#191970" d="M615.1006,-516.0541C700.094,-508.1517 821.4229,-493.2981 925,-467 927.835,-466.2802 930.743,-465.4271 933.6382,-464.497"/>
<polygon fill="#191970" stroke="#191970" points="935.0207,-467.7215 943.3071,-461.1197 932.7123,-461.1131 935.0207,-467.7215"/>
</g>
<!-- Node2 -->
<g id="node3" class="node">
<title>Node2</title>
<g id="a_node3"><a xlink:href="../../dd/d3b/QbitAllocator_8h.xhtml" target="_top" xlink:title="enfield/Transform/Allocators\l/QbitAllocator.h">
<polygon fill="none" stroke="#000000" points="727.5,-369.5 727.5,-399.5 882.5,-399.5 882.5,-369.5 727.5,-369.5"/>
<text text-anchor="start" x="735.5" y="-387.5" font-family="Helvetica,sans-Serif" font-size="10.00" fill="#000000">enfield/Transform/Allocators</text>
<text text-anchor="middle" x="805" y="-376.5" font-family="Helvetica,sans-Serif" font-size="10.00" fill="#000000">/QbitAllocator.h</text>
</a>
</g>
</g>
<!-- Node1&#45;&gt;Node2 -->
<g id="edge2" class="edge">
<title>Node1&#45;&gt;Node2</title>
<path fill="none" stroke="#191970" d="M574.6526,-436.4639C620.2381,-426.1803 680.788,-412.5209 728.3674,-401.7875"/>
<polygon fill="#191970" stroke="#191970" points="729.3288,-405.1586 738.3134,-399.5438 727.7883,-398.3302 729.3288,-405.1586"/>
</g>
<!-- Node18 -->
<g id="node19" class="node">
<title>Node18</title>
<g id="a_node19"><a xlink:href="../../d6/d94/XbitToNumberPass_8h.xhtml" target="_top" xlink:title="enfield/Transform/XbitTo\lNumberPass.h">
<polygon fill="none" stroke="#000000" points="473,-235.5 473,-265.5 611,-265.5 611,-235.5 473,-235.5"/>
<text text-anchor="start" x="481" y="-253.5" font-family="Helvetica,sans-Serif" font-size="10.00" fill="#000000">enfield/Transform/XbitTo</text>
<text text-anchor="middle" x="542" y="-242.5" font-family="Helvetica,sans-Serif" font-size="10.00" fill="#000000">NumberPass.h</text>
</a>
</g>
</g>
<!-- Node1&#45;&gt;Node18 -->
<g id="edge54" class="edge">
<title>Node1&#45;&gt;Node18</title>
<path fill="none" stroke="#191970" d="M510.5555,-436.3923C516.3661,-402.0414 530.6174,-317.7914 537.7661,-275.5301"/>
<polygon fill="#191970" stroke="#191970" points="541.2442,-275.9525 539.4612,-265.5088 534.3423,-274.785 541.2442,-275.9525"/>
</g>
<!-- Node30 -->
<g id="node31" class="node">
<title>Node30</title>
<g id="a_node31"><a xlink:href="../../dc/d2d/TokenSwapFinder_8h.xhtml" target="_top" xlink:title="enfield/Support/TokenSwap\lFinder.h">
<polygon fill="none" stroke="#000000" points="191,-302.5 191,-332.5 341,-332.5 341,-302.5 191,-302.5"/>
<text text-anchor="start" x="199" y="-320.5" font-family="Helvetica,sans-Serif" font-size="10.00" fill="#000000">enfield/Support/TokenSwap</text>
<text text-anchor="middle" x="266" y="-309.5" font-family="Helvetica,sans-Serif" font-size="10.00" fill="#000000">Finder.h</text>
</a>
</g>
</g>
<!-- Node1&#45;&gt;Node30 -->
<g id="edge55" class="edge">
<title>Node1&#45;&gt;Node30</title>
<path fill="none" stroke="#191970" d="M480.7099,-436.389C436.9299,-412.1472 350.9779,-364.5539 302.1477,-337.5157"/>
<polygon fill="#191970" stroke="#191970" points="303.6342,-334.3381 293.1903,-332.5558 300.2433,-340.4619 303.6342,-334.3381"/>
</g>
<!-- Node31 -->
<g id="node32" class="node">
<title>Node31</title>
<polygon fill="none" stroke="#bfbfbf" points="451.5,-375 451.5,-394 498.5,-394 498.5,-375 451.5,-375"/>
<text text-anchor="middle" x="475" y="-382" font-family="Helvetica,sans-Serif" font-size="10.00" fill="#000000">queue</text>
</g>
<!-- Node1&#45;&gt;Node31 -->
<g id="edge58" class="edge">
<title>Node1&#45;&gt;Node31</title>
<path fill="none" stroke="#191970" d="M500.5118,-436.2967C495.6697,-426.4658 489.3341,-413.6026 484.188,-403.1545"/>
<polygon fill="#191970" stroke="#191970" points="487.2645,-401.4794 479.7062,-394.055 480.9849,-404.5724 487.2645,-401.4794"/>
</g>
<!-- Node3 -->
<g id="node4" class="node">
<title>Node3</title>
<g id="a_node4"><a xlink:href="../../d7/d9d/ArchGraph_8h.xhtml" target="_top" xlink:title="enfield/Arch/ArchGraph.h">
<polygon fill="none" stroke="#000000" points="741,-308 741,-327 879,-327 879,-308 741,-308"/>
<text text-anchor="middle" x="810" y="-315" font-family="Helvetica,sans-Serif" font-size="10.00" fill="#000000">enfield/Arch/ArchGraph.h</text>
</a>
</g>
</g>
<!-- Node2&#45;&gt;Node3 -->
<g id="edge3" class="edge">
<title>Node2&#45;&gt;Node3</title>
<path fill="none" stroke="#191970" d="M806.1346,-369.2967C806.8455,-359.7699 807.769,-347.3954 808.535,-337.1306"/>
<polygon fill="#191970" stroke="#191970" points="812.0329,-337.2877 809.2869,-327.055 805.0524,-336.7667 812.0329,-337.2877"/>
</g>
<!-- Node15 -->
<g id="node16" class="node">
<title>Node15</title>
<g id="a_node16"><a xlink:href="../../d9/dcf/DependencyBuilderPass_8h.xhtml" target="_top" xlink:title="enfield/Transform/Dependency\lBuilderPass.h">
<polygon fill="none" stroke="#000000" points="555.5,-302.5 555.5,-332.5 722.5,-332.5 722.5,-302.5 555.5,-302.5"/>
<text text-anchor="start" x="563.5" y="-320.5" font-family="Helvetica,sans-Serif" font-size="10.00" fill="#000000">enfield/Transform/Dependency</text>
<text text-anchor="middle" x="639" y="-309.5" font-family="Helvetica,sans-Serif" font-size="10.00" fill="#000000">BuilderPass.h</text>
</a>
</g>
</g>
<!-- Node2&#45;&gt;Node15 -->
<g id="edge17" class="edge">
<title>Node2&#45;&gt;Node15</title>
<path fill="none" stroke="#191970" d="M767.7464,-369.4639C743.5892,-359.7137 711.9134,-346.9289 686.0264,-336.4805"/>
<polygon fill="#191970" stroke="#191970" points="686.9993,-333.0989 676.4161,-332.6017 684.3793,-339.5901 686.9993,-333.0989"/>
</g>
<!-- Node20 -->
<g id="node21" class="node">
<title>Node20</title>
<g id="a_node21"><a xlink:href="../../d9/d41/CommandLine_8h.xhtml" target="_top" xlink:title="enfield/Support/CommandLine.h">
<polygon fill="none" stroke="#000000" points="1064.5,-308 1064.5,-327 1237.5,-327 1237.5,-308 1064.5,-308"/>
<text text-anchor="middle" x="1151" y="-315" font-family="Helvetica,sans-Serif" font-size="10.00" fill="#000000">enfield/Support/CommandLine.h</text>
</a>
</g>
</g>
<!-- Node2&#45;&gt;Node20 -->
<g id="edge37" class="edge">
<title>Node2&#45;&gt;Node20</title>
<path fill="none" stroke="#191970" d="M882.6492,-369.4639C945.9908,-357.1983 1034.1332,-340.1303 1091.8565,-328.9526"/>
<polygon fill="#191970" stroke="#191970" points="1092.7608,-332.3426 1101.913,-327.0053 1091.43,-325.4703 1092.7608,-332.3426"/>
</g>
<!-- Node29 -->
<g id="node30" class="node">
<title>Node29</title>
<g id="a_node30"><a xlink:href="../../dc/d09/Stats_8h.xhtml" target="_top" xlink:title="enfield/Support/Stats.h">
<polygon fill="none" stroke="#000000" points="1337,-112.5 1337,-131.5 1465,-131.5 1465,-112.5 1337,-112.5"/>
<text text-anchor="middle" x="1401" y="-119.5" font-family="Helvetica,sans-Serif" font-size="10.00" fill="#000000">enfield/Support/Stats.h</text>
</a>
</g>
</g>
<!-- Node2&#45;&gt;Node29 -->
<g id="edge51" class="edge">
<title>Node2&#45;&gt;Node29</title>
<path fill="none" stroke="#191970" d="M882.7153,-380.6944C991.5345,-374.477 1183.1511,-360.0347 1247,-333 1290.3381,-314.6499 1299.602,-302.7514 1329,-266 1360.7377,-226.3237 1383.7057,-170.3889 1394.3561,-141.2895"/>
<polygon fill="#191970" stroke="#191970" points="1397.7701,-142.1353 1397.8275,-131.5406 1391.1757,-139.7871 1397.7701,-142.1353"/>
</g>
<!-- Node4 -->
<g id="node5" class="node">
<title>Node4</title>
<g id="a_node5"><a xlink:href="../../d7/d16/Graph_8h.xhtml" target="_top" xlink:title="enfield/Support/Graph.h">
<polygon fill="none" stroke="#000000" points="209,-241 209,-260 341,-260 341,-241 209,-241"/>
<text text-anchor="middle" x="275" y="-248" font-family="Helvetica,sans-Serif" font-size="10.00" fill="#000000">enfield/Support/Graph.h</text>
</a>
</g>
</g>
<!-- Node3&#45;&gt;Node4 -->
<g id="edge4" class="edge">
<title>Node3&#45;&gt;Node4</title>
<path fill="none" stroke="#191970" d="M764.5762,-307.9321C753.6131,-305.8046 741.9125,-303.6839 731,-302 598.1322,-281.4973 442.2963,-265.6472 351.5029,-257.2245"/>
<polygon fill="#191970" stroke="#191970" points="351.5795,-253.7168 341.3004,-256.2839 350.9368,-260.6872 351.5795,-253.7168"/>
</g>
<!-- Node9 -->
<g id="node10" class="node">
<title>Node9</title>
<g id="a_node10"><a xlink:href="../../d4/daf/Nodes_8h.xhtml" target="_top" xlink:title="enfield/Analysis/Nodes.h">
<polygon fill="none" stroke="#000000" points="985.5,-112.5 985.5,-131.5 1122.5,-131.5 1122.5,-112.5 985.5,-112.5"/>
<text text-anchor="middle" x="1054" y="-119.5" font-family="Helvetica,sans-Serif" font-size="10.00" fill="#000000">enfield/Analysis/Nodes.h</text>
</a>
</g>
</g>
<!-- Node3&#45;&gt;Node9 -->
<g id="edge9" class="edge">
<title>Node3&#45;&gt;Node9</title>
<path fill="none" stroke="#191970" d="M837.7995,-307.9898C881.3795,-291.8329 966.1469,-255.2055 1018,-199 1033.2675,-182.451 1043.124,-158.2763 1048.5961,-141.4445"/>
<polygon fill="#191970" stroke="#191970" points="1052.0293,-142.1828 1051.5717,-131.5979 1045.3285,-140.1578 1052.0293,-142.1828"/>
</g>
<!-- Node4&#45;&gt;Node5 -->
<g id="edge5" class="edge">
<title>Node4&#45;&gt;Node5</title>
<path fill="none" stroke="#191970" d="M289.6141,-240.9005C306.429,-229.8554 334.2549,-211.5776 353.9858,-198.6172"/>
<polygon fill="#191970" stroke="#191970" points="355.9764,-201.4972 362.413,-193.0817 352.1333,-195.6465 355.9764,-201.4972"/>
</g>
<!-- Node6 -->
<g id="node7" class="node">
<title>Node6</title>
<polygon fill="none" stroke="#bfbfbf" points="473.5,-56.5 473.5,-75.5 520.5,-75.5 520.5,-56.5 473.5,-56.5"/>
<text text-anchor="middle" x="497" y="-63.5" font-family="Helvetica,sans-Serif" font-size="10.00" fill="#000000">vector</text>
</g>
<!-- Node4&#45;&gt;Node6 -->
<g id="edge6" class="edge">
<title>Node4&#45;&gt;Node6</title>
<path fill="none" stroke="#191970" d="M266.5286,-240.6682C258.6838,-230.8622 247.5641,-214.9932 243,-199 232.389,-161.8178 218.2141,-141.6778 243,-112 270.6988,-78.8343 400.8003,-69.5328 463.3076,-66.962"/>
<polygon fill="#191970" stroke="#191970" points="463.5833,-70.4542 473.4444,-66.5801 463.3197,-63.4592 463.5833,-70.4542"/>
</g>
<!-- Node4&#45;&gt;Node7 -->
<g id="edge7" class="edge">
<title>Node4&#45;&gt;Node7</title>
<path fill="none" stroke="#191970" d="M282.6622,-240.8984C295.8165,-224.7533 323.993,-191.6198 352,-168 365.7288,-156.4217 382.5026,-145.3091 396.1884,-136.9074"/>
<polygon fill="#191970" stroke="#191970" points="398.3284,-139.7046 405.0944,-131.5516 394.7209,-133.7058 398.3284,-139.7046"/>
</g>
<!-- Node8 -->
<g id="node9" class="node">
<title>Node8</title>
<polygon fill="none" stroke="#bfbfbf" points="973,-56.5 973,-75.5 1031,-75.5 1031,-56.5 973,-56.5"/>
<text text-anchor="middle" x="1002" y="-63.5" font-family="Helvetica,sans-Serif" font-size="10.00" fill="#000000">memory</text>
</g>
<!-- Node4&#45;&gt;Node8 -->
<g id="edge8" class="edge">
<title>Node4&#45;&gt;Node8</title>
<path fill="none" stroke="#191970" d="M277.6167,-240.8872C285.5243,-214.0377 312.0155,-138.4847 366,-112 482.525,-54.8331 815.5867,-94.6329 962.488,-75.6145"/>
<polygon fill="#191970" stroke="#191970" points="963.3373,-79.0285 972.7376,-74.1414 962.3414,-72.0997 963.3373,-79.0285"/>
</g>
<!-- Node9&#45;&gt;Node6 -->
<g id="edge15" class="edge">
<title>Node9&#45;&gt;Node6</title>
<path fill="none" stroke="#191970" d="M985.1716,-113.583C980.377,-113.035 975.6172,-112.5021 971,-112 806.1471,-94.0723 608.6587,-76.0006 530.8612,-69.0147"/>
<polygon fill="#191970" stroke="#191970" points="530.9663,-65.5102 520.6938,-68.1037 530.3415,-72.4823 530.9663,-65.5102"/>
</g>
<!-- Node9&#45;&gt;Node8 -->
<g id="edge16" class="edge">
<title>Node9&#45;&gt;Node8</title>
<path fill="none" stroke="#191970" d="M1044.9423,-112.2455C1037.4858,-104.2155 1026.7366,-92.6394 1017.8583,-83.0781"/>
<polygon fill="#191970" stroke="#191970" points="1020.3232,-80.589 1010.9539,-75.6427 1015.1937,-85.3522 1020.3232,-80.589"/>
</g>
<!-- Node10 -->
<g id="node11" class="node">
<title>Node10</title>
<g id="a_node11"><a xlink:href="../../d1/d2e/WrapperVal_8h.xhtml" target="_top" xlink:title="enfield/Support/WrapperVal.h">
<polygon fill="none" stroke="#000000" points="1049,-56.5 1049,-75.5 1209,-75.5 1209,-56.5 1049,-56.5"/>
<text text-anchor="middle" x="1129" y="-63.5" font-family="Helvetica,sans-Serif" font-size="10.00" fill="#000000">enfield/Support/WrapperVal.h</text>
</a>
</g>
</g>
<!-- Node9&#45;&gt;Node10 -->
<g id="edge10" class="edge">
<title>Node9&#45;&gt;Node10</title>
<path fill="none" stroke="#191970" d="M1067.064,-112.2455C1078.3562,-103.814 1094.8845,-91.4729 1108.0271,-81.6598"/>
<polygon fill="#191970" stroke="#191970" points="1110.1669,-84.4301 1116.0857,-75.6427 1105.9789,-78.8211 1110.1669,-84.4301"/>
</g>
<!-- Node12 -->
<g id="node13" class="node">
<title>Node12</title>
<g id="a_node13"><a xlink:href="../../d5/dfc/RTTI_8h.xhtml" target="_top" xlink:title="enfield/Support/RTTI.h">
<polygon fill="none" stroke="#000000" points="1227.5,-56.5 1227.5,-75.5 1352.5,-75.5 1352.5,-56.5 1227.5,-56.5"/>
<text text-anchor="middle" x="1290" y="-63.5" font-family="Helvetica,sans-Serif" font-size="10.00" fill="#000000">enfield/Support/RTTI.h</text>
</a>
</g>
</g>
<!-- Node9&#45;&gt;Node12 -->
<g id="edge12" class="edge">
<title>Node9&#45;&gt;Node12</title>
<path fill="none" stroke="#191970" d="M1094.3017,-112.4369C1134.6064,-102.8731 1196.6821,-88.1432 1240.0818,-77.845"/>
<polygon fill="#191970" stroke="#191970" points="1240.9428,-81.238 1249.8645,-75.5237 1239.3266,-74.4271 1240.9428,-81.238"/>
</g>
<!-- Node13 -->
<g id="node14" class="node">
<title>Node13</title>
<polygon fill="none" stroke="#bfbfbf" points="871.5,-56.5 871.5,-75.5 954.5,-75.5 954.5,-56.5 871.5,-56.5"/>
<text text-anchor="middle" x="913" y="-63.5" font-family="Helvetica,sans-Serif" font-size="10.00" fill="#000000">initializer_list</text>
</g>
<!-- Node9&#45;&gt;Node13 -->
<g id="edge13" class="edge">
<title>Node9&#45;&gt;Node13</title>
<path fill="none" stroke="#191970" d="M1029.7612,-112.3733C1006.7211,-103.2226 971.8786,-89.3844 946.2499,-79.2057"/>
<polygon fill="#191970" stroke="#191970" points="947.5082,-75.9395 936.9225,-75.5011 944.9244,-82.4452 947.5082,-75.9395"/>
</g>
<!-- Node14 -->
<g id="node15" class="node">
<title>Node14</title>
<polygon fill="none" stroke="#bfbfbf" points="1371,-56.5 1371,-75.5 1431,-75.5 1431,-56.5 1371,-56.5"/>
<text text-anchor="middle" x="1401" y="-63.5" font-family="Helvetica,sans-Serif" font-size="10.00" fill="#000000">iostream</text>
</g>
<!-- Node9&#45;&gt;Node14 -->
<g id="edge14" class="edge">
<title>Node9&#45;&gt;Node14</title>
<path fill="none" stroke="#191970" d="M1122.5526,-113.8137C1182.9393,-106.1346 1273.4334,-93.4926 1361.0028,-76.043"/>
<polygon fill="#191970" stroke="#191970" points="1361.726,-79.4678 1370.837,-74.0604 1360.3425,-72.6058 1361.726,-79.4678"/>
</g>
<!-- Node11 -->
<g id="node12" class="node">
<title>Node11</title>
<polygon fill="none" stroke="#bfbfbf" points="1289,-.5 1289,-19.5 1333,-19.5 1333,-.5 1289,-.5"/>
<text text-anchor="middle" x="1311" y="-7.5" font-family="Helvetica,sans-Serif" font-size="10.00" fill="#000000">string</text>
</g>
<!-- Node10&#45;&gt;Node11 -->
<g id="edge11" class="edge">
<title>Node10&#45;&gt;Node11</title>
<path fill="none" stroke="#191970" d="M1160.2869,-56.3733C1193.537,-46.1425 1245.8299,-30.0523 1279.2541,-19.768"/>
<polygon fill="#191970" stroke="#191970" points="1280.4508,-23.0618 1288.9793,-16.7756 1278.3922,-16.3713 1280.4508,-23.0618"/>
</g>
<!-- Node15&#45;&gt;Node5 -->
<g id="edge36" class="edge">
<title>Node15&#45;&gt;Node5</title>
<path fill="none" stroke="#191970" d="M555.3385,-303.2243C506.7398,-293.7048 451.2159,-280.3401 431,-266 408.4989,-250.0389 392.9277,-221.4793 384.4784,-202.5084"/>
<polygon fill="#191970" stroke="#191970" points="387.6227,-200.9564 380.5183,-193.0964 381.1705,-203.6712 387.6227,-200.9564"/>
</g>
<!-- Node15&#45;&gt;Node6 -->
<g id="edge35" class="edge">
<title>Node15&#45;&gt;Node6</title>
<path fill="none" stroke="#191970" d="M555.4811,-313.5908C434.7185,-307.0705 223.1745,-292.052 200,-266 169.488,-231.6993 144.2306,-191.327 228,-112 261.4025,-80.3689 398.913,-70.257 463.3689,-67.218"/>
<polygon fill="#191970" stroke="#191970" points="463.5882,-70.7118 473.4239,-66.7737 463.2791,-63.7187 463.5882,-70.7118"/>
</g>
<!-- Node15&#45;&gt;Node7 -->
<g id="edge33" class="edge">
<title>Node15&#45;&gt;Node7</title>
<path fill="none" stroke="#191970" d="M561.7653,-302.4032C521.7237,-293.124 478.2591,-280.2935 464,-266 430.2413,-232.1598 423.3008,-172.8183 422.0762,-141.9407"/>
<polygon fill="#191970" stroke="#191970" points="425.5679,-141.5311 421.8427,-131.6128 418.5697,-141.6894 425.5679,-141.5311"/>
</g>
<!-- Node15&#45;&gt;Node9 -->
<g id="edge18" class="edge">
<title>Node15&#45;&gt;Node9</title>
<path fill="none" stroke="#191970" d="M710.2458,-302.446C806.6163,-280.8944 971.801,-239.3766 1018,-199 1035.1359,-184.0238 1044.6905,-159.1476 1049.5793,-141.7343"/>
<polygon fill="#191970" stroke="#191970" points="1053.0966,-142.1005 1052.1509,-131.548 1046.3095,-140.387 1053.0966,-142.1005"/>
</g>
<!-- Node16 -->
<g id="node17" class="node">
<title>Node16</title>
<g id="a_node17"><a xlink:href="../../df/d29/Pass_8h.xhtml" target="_top" xlink:title="enfield/Transform/Pass.h">
<polygon fill="none" stroke="#000000" points="691,-112.5 691,-131.5 829,-131.5 829,-112.5 691,-112.5"/>
<text text-anchor="middle" x="760" y="-119.5" font-family="Helvetica,sans-Serif" font-size="10.00" fill="#000000">enfield/Transform/Pass.h</text>
</a>
</g>
</g>
<!-- Node15&#45;&gt;Node16 -->
<g id="edge19" class="edge">
<title>Node15&#45;&gt;Node16</title>
<path fill="none" stroke="#191970" d="M671.3824,-302.3977C707.0189,-283.7656 762.3777,-248.3844 786,-199 795.263,-179.635 784.333,-156.0915 773.9398,-140.1755"/>
<polygon fill="#191970" stroke="#191970" points="776.6512,-137.9464 768.0392,-131.7751 770.9231,-141.9699 776.6512,-137.9464"/>
</g>
<!-- Node17 -->
<g id="node18" class="node">
<title>Node17</title>
<g id="a_node18"><a xlink:href="../../d4/d73/QModule_8h.xhtml" target="_top" xlink:title="enfield/Transform/QModule.h">
<polygon fill="none" stroke="#000000" points="619,-174 619,-193 777,-193 777,-174 619,-174"/>
<text text-anchor="middle" x="698" y="-181" font-family="Helvetica,sans-Serif" font-size="10.00" fill="#000000">enfield/Transform/QModule.h</text>
</a>
</g>
</g>
<!-- Node15&#45;&gt;Node17 -->
<g id="edge21" class="edge">
<title>Node15&#45;&gt;Node17</title>
<path fill="none" stroke="#191970" d="M645.6534,-302.389C656.455,-277.8564 677.7864,-229.4088 689.6116,-202.5517"/>
<polygon fill="#191970" stroke="#191970" points="692.9448,-203.6667 693.7713,-193.1042 686.5383,-200.8459 692.9448,-203.6667"/>
</g>
<!-- Node15&#45;&gt;Node18 -->
<g id="edge25" class="edge">
<title>Node15&#45;&gt;Node18</title>
<path fill="none" stroke="#191970" d="M616.9892,-302.2967C603.843,-293.2163 586.9513,-281.5488 572.529,-271.587"/>
<polygon fill="#191970" stroke="#191970" points="574.1409,-268.4467 563.9237,-265.6432 570.1626,-274.2063 574.1409,-268.4467"/>
</g>
<!-- Node19 -->
<g id="node20" class="node">
<title>Node19</title>
<polygon fill="none" stroke="#bfbfbf" points="563,-174 563,-193 601,-193 601,-174 563,-174"/>
<text text-anchor="middle" x="582" y="-181" font-family="Helvetica,sans-Serif" font-size="10.00" fill="#000000">map</text>
</g>
<!-- Node15&#45;&gt;Node19 -->
<g id="edge34" class="edge">
<title>Node15&#45;&gt;Node19</title>
<path fill="none" stroke="#191970" d="M637.3859,-302.2987C635.1564,-285.275 630.1937,-257.1669 620,-235 614.3842,-222.788 605.5907,-210.6178 597.8767,-201.1767"/>
<polygon fill="#191970" stroke="#191970" points="600.3639,-198.6988 591.2179,-193.3507 595.0325,-203.235 600.3639,-198.6988"/>
</g>
<!-- Node16&#45;&gt;Node8 -->
<g id="edge20" class="edge">
<title>Node16&#45;&gt;Node8</title>
<path fill="none" stroke="#191970" d="M803.6419,-112.4833C842.7168,-103.8788 901.8205,-90.659 962.8296,-75.9901"/>
<polygon fill="#191970" stroke="#191970" points="963.7349,-79.3722 972.6347,-73.6239 962.0927,-72.5676 963.7349,-79.3722"/>
</g>
<!-- Node17&#45;&gt;Node7 -->
<g id="edge24" class="edge">
<title>Node17&#45;&gt;Node7</title>
<path fill="none" stroke="#191970" d="M655.1778,-173.9581C606.53,-163.1181 527.115,-145.4224 474.7042,-133.7439"/>
<polygon fill="#191970" stroke="#191970" points="475.4445,-130.3231 464.9226,-131.5643 473.922,-137.1555 475.4445,-130.3231"/>
</g>
<!-- Node17&#45;&gt;Node9 -->
<g id="edge22" class="edge">
<title>Node17&#45;&gt;Node9</title>
<path fill="none" stroke="#191970" d="M753.2344,-173.9581C816.8586,-162.9668 921.2833,-144.9272 988.8287,-133.2585"/>
<polygon fill="#191970" stroke="#191970" points="989.6707,-136.665 998.9289,-131.5137 988.4791,-129.7672 989.6707,-136.665"/>
</g>
<!-- Node17&#45;&gt;Node16 -->
<g id="edge23" class="edge">
<title>Node17&#45;&gt;Node16</title>
<path fill="none" stroke="#191970" d="M707.6875,-173.8906C717.0959,-164.5581 731.5807,-150.1902 742.9249,-138.9374"/>
<polygon fill="#191970" stroke="#191970" points="745.5411,-141.2722 750.1759,-131.7449 740.6114,-136.3024 745.5411,-141.2722"/>
</g>
<!-- Node18&#45;&gt;Node5 -->
<g id="edge31" class="edge">
<title>Node18&#45;&gt;Node5</title>
<path fill="none" stroke="#191970" d="M504.9708,-235.4639C473.8297,-222.8187 430.1185,-205.0693 402.6912,-193.9322"/>
<polygon fill="#191970" stroke="#191970" points="403.9587,-190.6694 393.3766,-190.1499 401.3251,-197.1551 403.9587,-190.6694"/>
</g>
<!-- Node18&#45;&gt;Node6 -->
<g id="edge30" class="edge">
<title>Node18&#45;&gt;Node6</title>
<path fill="none" stroke="#191970" d="M538.3175,-235.4016C530.2137,-202.1761 510.8395,-122.7418 501.7987,-85.6748"/>
<polygon fill="#191970" stroke="#191970" points="505.1186,-84.5153 499.3487,-75.6295 498.318,-86.1741 505.1186,-84.5153"/>
</g>
<!-- Node18&#45;&gt;Node7 -->
<g id="edge29" class="edge">
<title>Node18&#45;&gt;Node7</title>
<path fill="none" stroke="#191970" d="M522.8696,-235.322C510.9158,-225.477 495.4784,-212.0878 483,-199 464.9967,-180.1176 446.7276,-156.3067 434.939,-140.2001"/>
<polygon fill="#191970" stroke="#191970" points="437.4921,-137.7574 428.7979,-131.7025 431.8186,-141.8576 437.4921,-137.7574"/>
</g>
<!-- Node18&#45;&gt;Node9 -->
<g id="edge28" class="edge">
<title>Node18&#45;&gt;Node9</title>
<path fill="none" stroke="#191970" d="M611.2007,-239.31C660.512,-230.5119 728.0531,-216.7762 786,-199 820.8756,-188.3013 827.2728,-179.1709 862,-168 906.0314,-153.8362 956.9908,-141.8232 995.3404,-133.6289"/>
<polygon fill="#191970" stroke="#191970" points="996.2441,-137.0154 1005.3053,-131.5249 994.7979,-130.1664 996.2441,-137.0154"/>
</g>
<!-- Node18&#45;&gt;Node16 -->
<g id="edge26" class="edge">
<title>Node18&#45;&gt;Node16</title>
<path fill="none" stroke="#191970" d="M539.524,-235.256C537.4696,-216.8607 537.1699,-186.1468 554,-168 571.2873,-149.3602 630.3491,-137.4129 680.8242,-130.3791"/>
<polygon fill="#191970" stroke="#191970" points="681.3463,-133.8405 690.7898,-129.0373 680.4122,-126.9031 681.3463,-133.8405"/>
</g>
<!-- Node18&#45;&gt;Node17 -->
<g id="edge27" class="edge">
<title>Node18&#45;&gt;Node17</title>
<path fill="none" stroke="#191970" d="M577.0094,-235.4639C603.7738,-223.969 640.3589,-208.2561 666.2723,-197.1266"/>
<polygon fill="#191970" stroke="#191970" points="667.8315,-200.2662 675.6386,-193.1039 665.069,-193.8343 667.8315,-200.2662"/>
</g>
<!-- Node18&#45;&gt;Node19 -->
<g id="edge32" class="edge">
<title>Node18&#45;&gt;Node19</title>
<path fill="none" stroke="#191970" d="M551.0766,-235.2967C557.0063,-225.3645 564.7838,-212.3371 571.0555,-201.8321"/>
<polygon fill="#191970" stroke="#191970" points="574.1746,-203.4354 576.2955,-193.055 568.1642,-199.8471 574.1746,-203.4354"/>
</g>
<!-- Node20&#45;&gt;Node6 -->
<g id="edge49" class="edge">
<title>Node20&#45;&gt;Node6</title>
<path fill="none" stroke="#191970" d="M1145.1311,-307.833C1128.5742,-281.3766 1078.7291,-207.1554 1018,-168 982.7925,-145.2998 878.9009,-121.0541 838,-112 727.1306,-87.4572 592.8991,-73.9999 531.127,-68.697"/>
<polygon fill="#191970" stroke="#191970" points="531.0627,-65.1794 520.8047,-67.8294 530.4764,-72.1548 531.0627,-65.1794"/>
</g>
<!-- Node20&#45;&gt;Node8 -->
<g id="edge50" class="edge">
<title>Node20&#45;&gt;Node8</title>
<path fill="none" stroke="#191970" d="M1153.4367,-307.6066C1160.7311,-275.4546 1179.0981,-172.5042 1132,-112 1126.1359,-104.4667 1077.1124,-88.4634 1040.9879,-77.4691"/>
<polygon fill="#191970" stroke="#191970" points="1041.7723,-74.05 1031.1876,-74.5122 1039.7503,-80.7517 1041.7723,-74.05"/>
</g>
<!-- Node20&#45;&gt;Node11 -->
<g id="edge48" class="edge">
<title>Node20&#45;&gt;Node11</title>
<path fill="none" stroke="#191970" d="M1208.1682,-307.9952C1244.4483,-300.3049 1291.4582,-287.1877 1329,-266 1405.4188,-222.871 1438.8291,-212.3925 1474,-132 1488.8316,-98.0985 1468.6837,-79.378 1440,-56 1411.8899,-33.0895 1371.4872,-21.1505 1343.4161,-15.2419"/>
<polygon fill="#191970" stroke="#191970" points="1343.7991,-11.7505 1333.3127,-13.2623 1342.4531,-18.6199 1343.7991,-11.7505"/>
</g>
<!-- Node21 -->
<g id="node22" class="node">
<title>Node21</title>
<g id="a_node22"><a xlink:href="../../d1/d5e/PossibleValuesListTrait_8h.xhtml" target="_top" xlink:title="enfield/Support/Possible\lValuesListTrait.h">
<polygon fill="none" stroke="#000000" points="1186,-235.5 1186,-265.5 1320,-265.5 1320,-235.5 1186,-235.5"/>
<text text-anchor="start" x="1194" y="-253.5" font-family="Helvetica,sans-Serif" font-size="10.00" fill="#000000">enfield/Support/Possible</text>
<text text-anchor="middle" x="1253" y="-242.5" font-family="Helvetica,sans-Serif" font-size="10.00" fill="#000000">ValuesListTrait.h</text>
</a>
</g>
</g>
<!-- Node20&#45;&gt;Node21 -->
<g id="edge38" class="edge">
<title>Node20&#45;&gt;Node21</title>
<path fill="none" stroke="#191970" d="M1165.6141,-307.9005C1180.1658,-298.3421 1202.9638,-283.3669 1221.6252,-271.1089"/>
<polygon fill="#191970" stroke="#191970" points="1223.6945,-273.9373 1230.131,-265.5218 1219.8513,-268.0866 1223.6945,-273.9373"/>
</g>
<!-- Node22 -->
<g id="node23" class="node">
<title>Node22</title>
<g id="a_node23"><a xlink:href="../../dd/d62/EnumString_8h.xhtml" target="_top" xlink:title="enfield/Support/EnumString.h">
<polygon fill="none" stroke="#000000" points="1179.5,-174 1179.5,-193 1338.5,-193 1338.5,-174 1179.5,-174"/>
<text text-anchor="middle" x="1259" y="-181" font-family="Helvetica,sans-Serif" font-size="10.00" fill="#000000">enfield/Support/EnumString.h</text>
</a>
</g>
</g>
<!-- Node21&#45;&gt;Node22 -->
<g id="edge39" class="edge">
<title>Node21&#45;&gt;Node22</title>
<path fill="none" stroke="#191970" d="M1254.3615,-235.2967C1255.2146,-225.7699 1256.3228,-213.3954 1257.242,-203.1306"/>
<polygon fill="#191970" stroke="#191970" points="1260.7383,-203.3273 1258.1443,-193.055 1253.7662,-202.7029 1260.7383,-203.3273"/>
</g>
<!-- Node22&#45;&gt;Node6 -->
<g id="edge45" class="edge">
<title>Node22&#45;&gt;Node6</title>
<path fill="none" stroke="#191970" d="M1179.3358,-174.2768C1122.1513,-166.3772 1043.7256,-152.9064 977,-132 956.5016,-125.5775 953.7262,-117.6441 933,-112 857.0475,-91.3167 619.1989,-74.0267 530.6542,-68.1491"/>
<polygon fill="#191970" stroke="#191970" points="530.8251,-64.6529 520.6171,-67.4895 530.366,-71.6378 530.8251,-64.6529"/>
</g>
<!-- Node23 -->
<g id="node24" class="node">
<title>Node23</title>
<g id="a_node24"><a xlink:href="../../d1/d73/Defs_8h.xhtml" target="_top" xlink:title="enfield/Support/Defs.h">
<polygon fill="none" stroke="#000000" points="27.5,-112.5 27.5,-131.5 152.5,-131.5 152.5,-112.5 27.5,-112.5"/>
<text text-anchor="middle" x="90" y="-119.5" font-family="Helvetica,sans-Serif" font-size="10.00" fill="#000000">enfield/Support/Defs.h</text>
</a>
</g>
</g>
<!-- Node22&#45;&gt;Node23 -->
<g id="edge40" class="edge">
<title>Node22&#45;&gt;Node23</title>
<path fill="none" stroke="#191970" d="M1179.233,-178.0745C1132.3002,-174.956 1071.7887,-171.0627 1018,-168 699.793,-149.8816 319.9704,-132.3291 163.2003,-125.2621"/>
<polygon fill="#191970" stroke="#191970" points="162.8981,-121.7451 152.7507,-124.7917 162.5832,-128.738 162.8981,-121.7451"/>
</g>
<!-- Node27 -->
<g id="node28" class="node">
<title>Node27</title>
<polygon fill="none" stroke="#bfbfbf" points="1179,-112.5 1179,-131.5 1243,-131.5 1243,-112.5 1179,-112.5"/>
<text text-anchor="middle" x="1211" y="-119.5" font-family="Helvetica,sans-Serif" font-size="10.00" fill="#000000">algorithm</text>
</g>
<!-- Node22&#45;&gt;Node27 -->
<g id="edge46" class="edge">
<title>Node22&#45;&gt;Node27</title>
<path fill="none" stroke="#191970" d="M1251.5,-173.8906C1244.4262,-164.8273 1233.6458,-151.0149 1224.9854,-139.9188"/>
<polygon fill="#191970" stroke="#191970" points="1227.5176,-137.4746 1218.6057,-131.7449 1221.9994,-141.7815 1227.5176,-137.4746"/>
</g>
<!-- Node28 -->
<g id="node29" class="node">
<title>Node28</title>
<polygon fill="none" stroke="#bfbfbf" points="1261.5,-112.5 1261.5,-131.5 1318.5,-131.5 1318.5,-112.5 1261.5,-112.5"/>
<text text-anchor="middle" x="1290" y="-119.5" font-family="Helvetica,sans-Serif" font-size="10.00" fill="#000000">typeinfo</text>
</g>
<!-- Node22&#45;&gt;Node28 -->
<g id="edge47" class="edge">
<title>Node22&#45;&gt;Node28</title>
<path fill="none" stroke="#191970" d="M1263.8438,-173.8906C1268.2766,-165.0965 1274.9631,-151.8312 1280.4659,-140.9145"/>
<polygon fill="#191970" stroke="#191970" points="1283.7122,-142.25 1285.088,-131.7449 1277.4614,-139.0992 1283.7122,-142.25"/>
</g>
<!-- Node23&#45;&gt;Node6 -->
<g id="edge41" class="edge">
<title>Node23&#45;&gt;Node6</title>
<path fill="none" stroke="#191970" d="M152.7018,-113.3727C239.9052,-101.3742 394.7655,-80.0667 463.0499,-70.6713"/>
<polygon fill="#191970" stroke="#191970" points="463.8126,-74.0994 473.2422,-69.2689 462.8584,-67.1647 463.8126,-74.0994"/>
</g>
<!-- Node24 -->
<g id="node25" class="node">
<title>Node24</title>
<polygon fill="none" stroke="#bfbfbf" points="0,-56.5 0,-75.5 50,-75.5 50,-56.5 0,-56.5"/>
<text text-anchor="middle" x="25" y="-63.5" font-family="Helvetica,sans-Serif" font-size="10.00" fill="#000000">cstdint</text>
</g>
<!-- Node23&#45;&gt;Node24 -->
<g id="edge42" class="edge">
<title>Node23&#45;&gt;Node24</title>
<path fill="none" stroke="#191970" d="M78.6779,-112.2455C69.0777,-103.9746 55.1108,-91.9416 43.8305,-82.2232"/>
<polygon fill="#191970" stroke="#191970" points="46.053,-79.5182 36.1924,-75.6427 41.484,-84.8214 46.053,-79.5182"/>
</g>
<!-- Node25 -->
<g id="node26" class="node">
<title>Node25</title>
<polygon fill="none" stroke="#bfbfbf" points="68,-56.5 68,-75.5 112,-75.5 112,-56.5 68,-56.5"/>
<text text-anchor="middle" x="90" y="-63.5" font-family="Helvetica,sans-Serif" font-size="10.00" fill="#000000">limits</text>
</g>
<!-- Node23&#45;&gt;Node25 -->
<g id="edge43" class="edge">
<title>Node23&#45;&gt;Node25</title>
<path fill="none" stroke="#191970" d="M90,-112.2455C90,-104.9382 90,-94.6944 90,-85.7046"/>
<polygon fill="#191970" stroke="#191970" points="93.5001,-85.6426 90,-75.6427 86.5001,-85.6427 93.5001,-85.6426"/>
</g>
<!-- Node26 -->
<g id="node27" class="node">
<title>Node26</title>
<polygon fill="none" stroke="#bfbfbf" points="130.5,-56.5 130.5,-75.5 187.5,-75.5 187.5,-56.5 130.5,-56.5"/>
<text text-anchor="middle" x="159" y="-63.5" font-family="Helvetica,sans-Serif" font-size="10.00" fill="#000000">ostream</text>
</g>
<!-- Node23&#45;&gt;Node26 -->
<g id="edge44" class="edge">
<title>Node23&#45;&gt;Node26</title>
<path fill="none" stroke="#191970" d="M102.0189,-112.2455C112.2098,-103.9746 127.0362,-91.9416 139.0107,-82.2232"/>
<polygon fill="#191970" stroke="#191970" points="141.5598,-84.662 147.1188,-75.6427 137.1486,-79.2268 141.5598,-84.662"/>
</g>
<!-- Node29&#45;&gt;Node8 -->
<g id="edge53" class="edge">
<title>Node29&#45;&gt;Node8</title>
<path fill="none" stroke="#191970" d="M1336.9116,-113.1773C1333.8995,-112.7763 1330.9172,-112.3821 1328,-112 1203.344,-95.6715 1168.4134,-100.2174 1041.4808,-76.0867"/>
<polygon fill="#191970" stroke="#191970" points="1041.8509,-72.5938 1031.3697,-74.1415 1040.5284,-79.4678 1041.8509,-72.5938"/>
</g>
<!-- Node29&#45;&gt;Node14 -->
<g id="edge52" class="edge">
<title>Node29&#45;&gt;Node14</title>
<path fill="none" stroke="#191970" d="M1401,-112.2455C1401,-104.9382 1401,-94.6944 1401,-85.7046"/>
<polygon fill="#191970" stroke="#191970" points="1404.5001,-85.6426 1401,-75.6427 1397.5001,-85.6427 1404.5001,-85.6426"/>
</g>
<!-- Node30&#45;&gt;Node4 -->
<g id="edge56" class="edge">
<title>Node30&#45;&gt;Node4</title>
<path fill="none" stroke="#191970" d="M268.0422,-302.2967C269.322,-292.7699 270.9842,-280.3954 272.363,-270.1306"/>
<polygon fill="#191970" stroke="#191970" points="275.8539,-270.4319 273.7165,-260.055 268.9162,-269.5 275.8539,-270.4319"/>
</g>
<!-- Node30&#45;&gt;Node23 -->
<g id="edge57" class="edge">
<title>Node30&#45;&gt;Node23</title>
<path fill="none" stroke="#191970" d="M223.8982,-302.3163C204.8066,-293.8563 182.9814,-281.8009 167,-266 130.0131,-229.4309 106.4924,-171.3164 96.1334,-141.3213"/>
<polygon fill="#191970" stroke="#191970" points="99.3889,-140.0192 92.9119,-131.6348 92.7467,-142.2283 99.3889,-140.0192"/>
</g>
<!-- Node32&#45;&gt;Node7 -->
<g id="edge61" class="edge">
<title>Node32&#45;&gt;Node7</title>
<path fill="none" stroke="#191970" d="M870.9459,-175.3015C767.5642,-163.0274 574.5015,-140.1059 478.7942,-128.7429"/>
<polygon fill="#191970" stroke="#191970" points="479.072,-125.2514 468.7291,-127.548 478.2467,-132.2026 479.072,-125.2514"/>
</g>
<!-- Node32&#45;&gt;Node9 -->
<g id="edge60" class="edge">
<title>Node32&#45;&gt;Node9</title>
<path fill="none" stroke="#191970" d="M967.8875,-168.4554C985.9076,-158.734 1009.2341,-146.15 1027.0632,-136.5317"/>
<polygon fill="#191970" stroke="#191970" points="1029.1948,-139.3586 1036.334,-131.5303 1025.8713,-133.1979 1029.1948,-139.3586"/>
</g>
</g>
</svg>
        <g id="navigator" transform="translate(0 0)" fill="#404254">
                <rect fill="#f2f5e9" fill-opacity="0.5" stroke="#606060" stroke-width=".5" x="0" y="0" width="60" height="60"/>
                <use id="zoomplus" xlink:href="#zoomPlus" x="17" y="9" onmousedown="handleZoom(evt,'in')"/>
                <use id="zoomminus" xlink:href="#zoomMin" x="42" y="9" onmousedown="handleZoom(evt,'out')"/>
                <use id="reset" xlink:href="#resetDef" x="30" y="36" onmousedown="handleReset()"/>
                <g id="arrowUp" xlink:href="#dirArrow" transform="translate(30 24)" onmousedown="handlePan(0,-1)">
                  <use xlink:href="#rim" fill="#404040">
                        <set attributeName="fill" to="#808080" begin="arrowUp.mouseover" end="arrowUp.mouseout"/>
                  </use>
                  <path fill="none" stroke="white" stroke-width="1.5" d="M0,-3.0v7 M-2.5,-0.5L0,-3.0L2.5,-0.5"/>
                </g>
                <g id="arrowRight" xlink:href="#dirArrow" transform="rotate(90) translate(36 -43)" onmousedown="handlePan(1,0)">
                  <use xlink:href="#rim" fill="#404040">
                        <set attributeName="fill" to="#808080" begin="arrowRight.mouseover" end="arrowRight.mouseout"/>
                  </use>
                  <path fill="none" stroke="white" stroke-width="1.5" d="M0,-3.0v7 M-2.5,-0.5L0,-3.0L2.5,-0.5"/>
                </g>
                <g id="arrowDown" xlink:href="#dirArrow" transform="rotate(180) translate(-30 -48)" onmousedown="handlePan(0,1)">
                  <use xlink:href="#rim" fill="#404040">
                        <set attributeName="fill" to="#808080" begin="arrowDown.mouseover" end="arrowDown.mouseout"/>
                  </use>
                  <path fill="none" stroke="white" stroke-width="1.5" d="M0,-3.0v7 M-2.5,-0.5L0,-3.0L2.5,-0.5"/>
                </g>
                <g id="arrowLeft" xlink:href="#dirArrow" transform="rotate(270) translate(-36 17)" onmousedown="handlePan(-1,0)">
                  <use xlink:href="#rim" fill="#404040">
                        <set attributeName="fill" to="#808080" begin="arrowLeft.mouseover" end="arrowLeft.mouseout"/>
                  </use>
                  <path fill="none" stroke="white" stroke-width="1.5" d="M0,-3.0v7 M-2.5,-0.5L0,-3.0L2.5,-0.5"/>
                </g>
        </g>
        <svg viewBox="0 0 15 15" width="100%" height="30px" preserveAspectRatio="xMaxYMin meet">
         <g id="arrow_out" transform="scale(0.3 0.3)">
          <a xlink:href="ImprovedBMTQAllocatorImpl_8h__incl_org.svg" target="_base">
           <rect id="button" ry="5" rx="5" y="6" x="6" height="38" width="38"
                fill="#f2f5e9" fill-opacity="0.5" stroke="#606060" stroke-width="1.0"/>
           <path id="arrow"
             d="M 11.500037,31.436501 C 11.940474,20.09759 22.043105,11.32322 32.158766,21.979434 L 37.068811,17.246167 C 37.068811,17.246167 37.088388,32 37.088388,32 L 22.160133,31.978069 C 22.160133,31.978069 26.997745,27.140456 26.997745,27.140456 C 18.528582,18.264221 13.291696,25.230495 11.500037,31.436501 z"
             style="fill:#404040;"/>
          </a>
         </g>
        </svg>
</svg>
