<?xml version="1.0" encoding="UTF-8" standalone="no"?>
<!DOCTYPE svg PUBLIC "-//W3C//DTD SVG 1.1//EN"
 "http://www.w3.org/Graphics/SVG/1.1/DTD/svg11.dtd">
<!-- Generated by graphviz version 2.38.0 (20140413.2041)
 -->
<!-- Title: efd::QModulefyVisitor::visit Pages: 1 -->
<svg width="533pt" height="104pt"
 viewBox="0.00 0.00 533.00 104.00" xmlns="http://www.w3.org/2000/svg" xmlns:xlink="http://www.w3.org/1999/xlink">
<g id="graph0" class="graph" transform="scale(1 1) rotate(0) translate(4 100)">
<title>efd::QModulefyVisitor::visit</title>
<!-- Node36 -->
<g id="node1" class="node"><title>Node36</title>
<polygon fill="#bfbfbf" stroke="black" points="0,-33 0,-63 111,-63 111,-33 0,-33"/>
<text text-anchor="start" x="8" y="-51" font-family="Helvetica,sans-Serif" font-size="10.00">efd::QModulefyVisitor</text>
<text text-anchor="middle" x="55.5" y="-40" font-family="Helvetica,sans-Serif" font-size="10.00">::visit</text>
</g>
<!-- Node37 -->
<g id="node2" class="node"><title>Node37</title>
<g id="a_node2"><a xlink:href="../../d6/d6a/classefd_1_1Node.xhtml#a6c85c9bd21014b73497de741cc75f706" target="_top" xlink:title="Clones the current node (deep copy). ">
<polygon fill="none" stroke="black" points="164,-76.5 164,-95.5 253,-95.5 253,-76.5 164,-76.5"/>
<text text-anchor="middle" x="208.5" y="-83.5" font-family="Helvetica,sans-Serif" font-size="10.00">efd::Node::clone</text>
</a>
</g>
</g>
<!-- Node36&#45;&gt;Node37 -->
<g id="edge1" class="edge"><title>Node36&#45;&gt;Node37</title>
<path fill="none" stroke="midnightblue" d="M111.014,-61.7189C126.953,-65.7299 144.247,-70.0819 159.733,-73.9791"/>
<polygon fill="midnightblue" stroke="midnightblue" points="159.064,-77.4198 169.616,-76.4662 160.772,-70.6315 159.064,-77.4198"/>
</g>
<!-- Node39 -->
<g id="node4" class="node"><title>Node39</title>
<g id="a_node4"><a xlink:href="../../dd/d52/classefd_1_1QModule.xhtml#a13a3c3e6d3455ff05f837fbd5fc4a06e" target="_top" xlink:title="Inserts a register declaration node. ">
<polygon fill="none" stroke="black" points="147,-38.5 147,-57.5 270,-57.5 270,-38.5 147,-38.5"/>
<text text-anchor="middle" x="208.5" y="-45.5" font-family="Helvetica,sans-Serif" font-size="10.00">efd::QModule::insertReg</text>
</a>
</g>
</g>
<!-- Node36&#45;&gt;Node39 -->
<g id="edge3" class="edge"><title>Node36&#45;&gt;Node39</title>
<path fill="none" stroke="midnightblue" d="M111.014,-48C119.394,-48 128.147,-48 136.816,-48"/>
<polygon fill="midnightblue" stroke="midnightblue" points="136.925,-51.5001 146.925,-48 136.925,-44.5001 136.925,-51.5001"/>
</g>
<!-- Node43 -->
<g id="node8" class="node"><title>Node43</title>
<g id="a_node8"><a xlink:href="../../d4/deb/namespaceefd.xhtml#ad7adca0e4de58074aa3f91827469a491" target="_top" xlink:title="Uses the RTTI framework to cast forwardly an unique_ptr. ">
<polygon fill="none" stroke="black" points="148,-0.5 148,-19.5 269,-19.5 269,-0.5 148,-0.5"/>
<text text-anchor="middle" x="208.5" y="-7.5" font-family="Helvetica,sans-Serif" font-size="10.00">efd::uniqueCastForward</text>
</a>
</g>
</g>
<!-- Node36&#45;&gt;Node43 -->
<g id="edge7" class="edge"><title>Node36&#45;&gt;Node43</title>
<path fill="none" stroke="midnightblue" d="M111.014,-34.2811C126.953,-30.2701 144.247,-25.9181 159.733,-22.0209"/>
<polygon fill="midnightblue" stroke="midnightblue" points="160.772,-25.3685 169.616,-19.5338 159.064,-18.5802 160.772,-25.3685"/>
</g>
<!-- Node38 -->
<g id="node3" class="node"><title>Node38</title>
<g id="a_node3"><a xlink:href="../../d6/d6a/classefd_1_1Node.xhtml#ac078ce64eb404cfdc24b9288908536e4" target="_top" xlink:title="Clones the current node (deep copy). ">
<polygon fill="none" stroke="black" points="307.5,-76.5 307.5,-95.5 414.5,-95.5 414.5,-76.5 307.5,-76.5"/>
<text text-anchor="middle" x="361" y="-83.5" font-family="Helvetica,sans-Serif" font-size="10.00">efd::Node::cloneImpl</text>
</a>
</g>
</g>
<!-- Node37&#45;&gt;Node38 -->
<g id="edge2" class="edge"><title>Node37&#45;&gt;Node38</title>
<path fill="none" stroke="midnightblue" d="M253.031,-86C266.785,-86 282.27,-86 297.098,-86"/>
<polygon fill="midnightblue" stroke="midnightblue" points="297.229,-89.5001 307.229,-86 297.229,-82.5001 297.229,-89.5001"/>
</g>
<!-- Node40 -->
<g id="node5" class="node"><title>Node40</title>
<g id="a_node5"><a xlink:href="../../d0/d9e/classefd_1_1NDDecl.xhtml#a34957c2122c38cebf80a264d5fa3863f" target="_top" xlink:title="Gets the id node. ">
<polygon fill="none" stroke="black" points="311.5,-38.5 311.5,-57.5 410.5,-57.5 410.5,-38.5 311.5,-38.5"/>
<text text-anchor="middle" x="361" y="-45.5" font-family="Helvetica,sans-Serif" font-size="10.00">efd::NDDecl::getId</text>
</a>
</g>
</g>
<!-- Node39&#45;&gt;Node40 -->
<g id="edge4" class="edge"><title>Node39&#45;&gt;Node40</title>
<path fill="none" stroke="midnightblue" d="M270.28,-48C280.559,-48 291.213,-48 301.434,-48"/>
<polygon fill="midnightblue" stroke="midnightblue" points="301.481,-51.5001 311.481,-48 301.481,-44.5001 301.481,-51.5001"/>
</g>
<!-- Node42 -->
<g id="node7" class="node"><title>Node42</title>
<g id="a_node7"><a xlink:href="../../df/d1b/classefd_1_1NDValue.xhtml#a53ee724a8db3429bf30bb1936ad548b2" target="_top" xlink:title="Returns a copy to the setted value. ">
<polygon fill="none" stroke="black" points="306,-0.5 306,-19.5 416,-19.5 416,-0.5 306,-0.5"/>
<text text-anchor="middle" x="361" y="-7.5" font-family="Helvetica,sans-Serif" font-size="10.00">efd::NDValue::getVal</text>
</a>
</g>
</g>
<!-- Node39&#45;&gt;Node42 -->
<g id="edge6" class="edge"><title>Node39&#45;&gt;Node42</title>
<path fill="none" stroke="midnightblue" d="M247.478,-38.411C267.159,-33.4417 291.391,-27.3233 312.321,-22.0387"/>
<polygon fill="midnightblue" stroke="midnightblue" points="313.457,-25.3617 322.296,-19.5201 311.743,-18.5747 313.457,-25.3617"/>
</g>
<!-- Node41 -->
<g id="node6" class="node"><title>Node41</title>
<g id="a_node6"><a xlink:href="../../d4/deb/namespaceefd.xhtml#a2cef687225e13315fc282dc40b5a6909" target="_top" xlink:title="Returns src cast to TargetTy, iff it is of class TargetTy, otherwise it will return nullptr...">
<polygon fill="none" stroke="black" points="452,-38.5 452,-57.5 525,-57.5 525,-38.5 452,-38.5"/>
<text text-anchor="middle" x="488.5" y="-45.5" font-family="Helvetica,sans-Serif" font-size="10.00">efd::dynCast</text>
</a>
</g>
</g>
<!-- Node40&#45;&gt;Node41 -->
<g id="edge5" class="edge"><title>Node40&#45;&gt;Node41</title>
<path fill="none" stroke="midnightblue" d="M410.522,-48C420.76,-48 431.532,-48 441.668,-48"/>
<polygon fill="midnightblue" stroke="midnightblue" points="441.951,-51.5001 451.951,-48 441.951,-44.5001 441.951,-51.5001"/>
</g>
</g>
</svg>
