<?xml version="1.0" encoding="UTF-8" standalone="no"?>
<!DOCTYPE svg PUBLIC "-//W3C//DTD SVG 1.1//EN"
 "http://www.w3.org/Graphics/SVG/1.1/DTD/svg11.dtd">
<!-- Generated by graphviz version 2.40.1 (20161225.0304)
 -->
<!-- Title: efd::QModulefyVisitor::visit Pages: 1 -->
<svg width="298pt" height="165pt"
 viewBox="0.00 0.00 298.00 164.50" xmlns="http://www.w3.org/2000/svg" xmlns:xlink="http://www.w3.org/1999/xlink">
<g id="graph0" class="graph" transform="scale(1 1) rotate(0) translate(4 160.5)">
<title>efd::QModulefyVisitor::visit</title>
<!-- Node1 -->
<g id="node1" class="node">
<title>Node1</title>
<polygon fill="#bfbfbf" stroke="#000000" points="0,-71.5 0,-101.5 122,-101.5 122,-71.5 0,-71.5"/>
<text text-anchor="start" x="8" y="-89.5" font-family="Helvetica,sans-Serif" font-size="10.00" fill="#000000">efd::QModulefyVisitor</text>
<text text-anchor="middle" x="61" y="-78.5" font-family="Helvetica,sans-Serif" font-size="10.00" fill="#000000">::visit</text>
</g>
<!-- Node2 -->
<g id="node2" class="node">
<title>Node2</title>
<g id="a_node2"><a xlink:href="../../d6/d6a/classefd_1_1Node.xhtml#a6c85c9bd21014b73497de741cc75f706" target="_top" xlink:title="Clones the current node (deep copy). ">
<polygon fill="none" stroke="#000000" points="176,-137 176,-156 272,-156 272,-137 176,-137"/>
<text text-anchor="middle" x="224" y="-144" font-family="Helvetica,sans-Serif" font-size="10.00" fill="#000000">efd::Node::clone</text>
</a>
</g>
</g>
<!-- Node1&#45;&gt;Node2 -->
<g id="edge1" class="edge">
<title>Node1&#45;&gt;Node2</title>
<path fill="none" stroke="#191970" d="M93.836,-101.5355C112.4457,-109.7632 136.2831,-119.8155 158,-127.5 164.4195,-129.7715 171.2594,-131.9752 178.0127,-134.0281"/>
<polygon fill="#191970" stroke="#191970" points="177.2039,-137.4387 187.7859,-136.9185 179.1891,-130.7261 177.2039,-137.4387"/>
</g>
<!-- Node3 -->
<g id="node3" class="node">
<title>Node3</title>
<g id="a_node3"><a xlink:href="../../da/d7f/classefd_1_1NDStmtList.xhtml#a015cefabf53b2666c442b01b86c2b7cd" target="_top" xlink:title="Creates a new instance of this node. ">
<polygon fill="none" stroke="#000000" points="158,-99 158,-118 290,-118 290,-99 158,-99"/>
<text text-anchor="middle" x="224" y="-106" font-family="Helvetica,sans-Serif" font-size="10.00" fill="#000000">efd::NDStmtList::Create</text>
</a>
</g>
</g>
<!-- Node1&#45;&gt;Node3 -->
<g id="edge2" class="edge">
<title>Node1&#45;&gt;Node3</title>
<path fill="none" stroke="#191970" d="M122.1589,-94.7546C130.5348,-95.8851 139.2168,-97.0569 147.8194,-98.218"/>
<polygon fill="#191970" stroke="#191970" points="147.4803,-101.7038 157.8586,-99.5729 148.4167,-94.7667 147.4803,-101.7038"/>
</g>
<!-- Node4 -->
<g id="node4" class="node">
<title>Node4</title>
<g id="a_node4"><a xlink:href="../../d9/dcb/classefd_1_1NDQasmVersion.xhtml#a797ca00ee47d3e341eea1be65f0c8615" target="_top" xlink:title="Creates a new instance of this node. ">
<polygon fill="none" stroke="#000000" points="164.5,-49.5 164.5,-79.5 283.5,-79.5 283.5,-49.5 164.5,-49.5"/>
<text text-anchor="start" x="172.5" y="-67.5" font-family="Helvetica,sans-Serif" font-size="10.00" fill="#000000">efd::NDQasmVersion</text>
<text text-anchor="middle" x="224" y="-56.5" font-family="Helvetica,sans-Serif" font-size="10.00" fill="#000000">::Create</text>
</a>
</g>
</g>
<!-- Node1&#45;&gt;Node4 -->
<g id="edge3" class="edge">
<title>Node1&#45;&gt;Node4</title>
<path fill="none" stroke="#191970" d="M122.1589,-78.2454C132.6329,-76.8318 143.5858,-75.3535 154.2635,-73.9123"/>
<polygon fill="#191970" stroke="#191970" points="154.9499,-77.3515 164.3919,-72.5453 154.0136,-70.4144 154.9499,-77.3515"/>
</g>
<!-- Node5 -->
<g id="node5" class="node">
<title>Node5</title>
<g id="a_node5"><a xlink:href="../../d9/dcb/classefd_1_1NDQasmVersion.xhtml#adb0f8cedefb3c43a5e8346f31feaa9c0" target="_top" xlink:title="Gets the node that holds the version. ">
<polygon fill="none" stroke="#000000" points="164.5,-.5 164.5,-30.5 283.5,-30.5 283.5,-.5 164.5,-.5"/>
<text text-anchor="start" x="172.5" y="-18.5" font-family="Helvetica,sans-Serif" font-size="10.00" fill="#000000">efd::NDQasmVersion</text>
<text text-anchor="middle" x="224" y="-7.5" font-family="Helvetica,sans-Serif" font-size="10.00" fill="#000000">::getVersion</text>
</a>
</g>
</g>
<!-- Node1&#45;&gt;Node5 -->
<g id="edge4" class="edge">
<title>Node1&#45;&gt;Node5</title>
<path fill="none" stroke="#191970" d="M91.2945,-71.3602C110.2816,-62.0649 135.3635,-50.136 158,-40.5 162.809,-38.4529 167.8478,-36.3938 172.9064,-34.3837"/>
<polygon fill="#191970" stroke="#191970" points="174.5631,-37.4941 182.6033,-30.5944 172.0153,-30.9742 174.5631,-37.4941"/>
</g>
</g>
</svg>
