<?xml version="1.0" encoding="UTF-8" standalone="no"?>
<!DOCTYPE svg PUBLIC "-//W3C//DTD SVG 1.1//EN"
 "http://www.w3.org/Graphics/SVG/1.1/DTD/svg11.dtd">
<!-- Generated by graphviz version 2.38.0 (20140413.2041)
 -->
<!-- Title: efd::QModulefyVisitor::visit Pages: 1 -->
<svg width="646pt" height="104pt"
 viewBox="0.00 0.00 646.00 104.00" xmlns="http://www.w3.org/2000/svg" xmlns:xlink="http://www.w3.org/1999/xlink">
<g id="graph0" class="graph" transform="scale(1 1) rotate(0) translate(4 100)">
<title>efd::QModulefyVisitor::visit</title>
<!-- Node107 -->
<g id="node1" class="node"><title>Node107</title>
<polygon fill="#bfbfbf" stroke="black" points="0,-33 0,-63 111,-63 111,-33 0,-33"/>
<text text-anchor="start" x="8" y="-51" font-family="Helvetica,sans-Serif" font-size="10.00">efd::QModulefyVisitor</text>
<text text-anchor="middle" x="55.5" y="-40" font-family="Helvetica,sans-Serif" font-size="10.00">::visit</text>
</g>
<!-- Node108 -->
<g id="node2" class="node"><title>Node108</title>
<g id="a_node2"><a xlink:href="../../dd/d52/classefd_1_1QModule.xhtml#ae5c8859117a0d6ea5aeddd1a3fb060ec" target="_top" xlink:title="Inserts ref at the back, and returns a iterator to this node. ">
<polygon fill="none" stroke="black" points="147,-38.5 147,-57.5 316,-57.5 316,-38.5 147,-38.5"/>
<text text-anchor="middle" x="231.5" y="-45.5" font-family="Helvetica,sans-Serif" font-size="10.00">efd::QModule::insertStatementLast</text>
</a>
</g>
</g>
<!-- Node107&#45;&gt;Node108 -->
<g id="edge1" class="edge"><title>Node107&#45;&gt;Node108</title>
<path fill="none" stroke="midnightblue" d="M111.077,-48C119.244,-48 127.855,-48 136.559,-48"/>
<polygon fill="midnightblue" stroke="midnightblue" points="136.799,-51.5001 146.799,-48 136.799,-44.5001 136.799,-51.5001"/>
</g>
<!-- Node109 -->
<g id="node3" class="node"><title>Node109</title>
<g id="a_node3"><a xlink:href="../../da/ddd/classefd_1_1NDList.xhtml#a664c2f4a60746612062d7b112ff9842e" target="_top" xlink:title="Appends a child to the end of the list. ">
<polygon fill="none" stroke="black" points="368,-76.5 368,-95.5 479,-95.5 479,-76.5 368,-76.5"/>
<text text-anchor="middle" x="423.5" y="-83.5" font-family="Helvetica,sans-Serif" font-size="10.00">efd::NDList::addChild</text>
</a>
</g>
</g>
<!-- Node108&#45;&gt;Node109 -->
<g id="edge2" class="edge"><title>Node108&#45;&gt;Node109</title>
<path fill="none" stroke="midnightblue" d="M280.445,-57.589C306.082,-62.7165 337.836,-69.0672 364.816,-74.4632"/>
<polygon fill="midnightblue" stroke="midnightblue" points="364.408,-77.9507 374.9,-76.4799 365.78,-71.0867 364.408,-77.9507"/>
</g>
<!-- Node111 -->
<g id="node5" class="node"><title>Node111</title>
<g id="a_node5"><a xlink:href="../../d6/d6a/classefd_1_1Node.xhtml#ae890d36b0dcb332d82616b3180da1886" target="_top" xlink:title="Returns a iterator to the beginning of the vector. ">
<polygon fill="none" stroke="black" points="379,-38.5 379,-57.5 468,-57.5 468,-38.5 379,-38.5"/>
<text text-anchor="middle" x="423.5" y="-45.5" font-family="Helvetica,sans-Serif" font-size="10.00">efd::Node::begin</text>
</a>
</g>
</g>
<!-- Node108&#45;&gt;Node111 -->
<g id="edge4" class="edge"><title>Node108&#45;&gt;Node111</title>
<path fill="none" stroke="midnightblue" d="M316.113,-48C333.836,-48 352.095,-48 368.375,-48"/>
<polygon fill="midnightblue" stroke="midnightblue" points="368.762,-51.5001 378.762,-48 368.762,-44.5001 368.762,-51.5001"/>
</g>
<!-- Node112 -->
<g id="node6" class="node"><title>Node112</title>
<g id="a_node6"><a xlink:href="../../da/ddd/classefd_1_1NDList.xhtml#a7d1b691a45689241a8138539a2be8596" target="_top" xlink:title="Returns the number of childrem of this node. ">
<polygon fill="none" stroke="black" points="352,-0.5 352,-19.5 495,-19.5 495,-0.5 352,-0.5"/>
<text text-anchor="middle" x="423.5" y="-7.5" font-family="Helvetica,sans-Serif" font-size="10.00">efd::NDList::getChildNumber</text>
</a>
</g>
</g>
<!-- Node108&#45;&gt;Node112 -->
<g id="edge5" class="edge"><title>Node108&#45;&gt;Node112</title>
<path fill="none" stroke="midnightblue" d="M280.445,-38.411C306.082,-33.2835 337.836,-26.9328 364.816,-21.5368"/>
<polygon fill="midnightblue" stroke="midnightblue" points="365.78,-24.9133 374.9,-19.5201 364.408,-18.0493 365.78,-24.9133"/>
</g>
<!-- Node110 -->
<g id="node4" class="node"><title>Node110</title>
<g id="a_node4"><a xlink:href="../../d6/d6a/classefd_1_1Node.xhtml#a48e9d49d994b9023b8400316e2782e2b" target="_top" xlink:title="Sets the parent node of the current node. ">
<polygon fill="none" stroke="black" points="531,-76.5 531,-95.5 638,-95.5 638,-76.5 531,-76.5"/>
<text text-anchor="middle" x="584.5" y="-83.5" font-family="Helvetica,sans-Serif" font-size="10.00">efd::Node::setParent</text>
</a>
</g>
</g>
<!-- Node109&#45;&gt;Node110 -->
<g id="edge3" class="edge"><title>Node109&#45;&gt;Node110</title>
<path fill="none" stroke="midnightblue" d="M479.219,-86C492.533,-86 506.878,-86 520.541,-86"/>
<polygon fill="midnightblue" stroke="midnightblue" points="520.828,-89.5001 530.828,-86 520.828,-82.5001 520.828,-89.5001"/>
</g>
</g>
</svg>
