<?xml version="1.0" encoding="UTF-8" standalone="no"?>
<!DOCTYPE svg PUBLIC "-//W3C//DTD SVG 1.1//EN"
 "http://www.w3.org/Graphics/SVG/1.1/DTD/svg11.dtd">
<!-- Generated by graphviz version 2.38.0 (20140413.2041)
 -->
<!-- Title: efd::QModulefyVisitor::visit Pages: 1 -->
<svg width="789pt" height="294pt"
 viewBox="0.00 0.00 789.00 294.00" xmlns="http://www.w3.org/2000/svg" xmlns:xlink="http://www.w3.org/1999/xlink">
<g id="graph0" class="graph" transform="scale(1 1) rotate(0) translate(4 290)">
<title>efd::QModulefyVisitor::visit</title>
<!-- Node18 -->
<g id="node1" class="node"><title>Node18</title>
<polygon fill="#bfbfbf" stroke="black" points="0,-128 0,-158 111,-158 111,-128 0,-128"/>
<text text-anchor="start" x="8" y="-146" font-family="Helvetica,sans-Serif" font-size="10.00">efd::QModulefyVisitor</text>
<text text-anchor="middle" x="55.5" y="-135" font-family="Helvetica,sans-Serif" font-size="10.00">::visit</text>
</g>
<!-- Node19 -->
<g id="node2" class="node"><title>Node19</title>
<g id="a_node2"><a xlink:href="../../d6/d6a/classefd_1_1Node.xhtml#a6c85c9bd21014b73497de741cc75f706" target="_top" xlink:title="Clones the current node (deep copy). ">
<polygon fill="none" stroke="black" points="176,-266.5 176,-285.5 265,-285.5 265,-266.5 176,-266.5"/>
<text text-anchor="middle" x="220.5" y="-273.5" font-family="Helvetica,sans-Serif" font-size="10.00">efd::Node::clone</text>
</a>
</g>
</g>
<!-- Node18&#45;&gt;Node19 -->
<g id="edge1" class="edge"><title>Node18&#45;&gt;Node19</title>
<path fill="none" stroke="midnightblue" d="M64.2693,-158.149C77.6977,-182.775 107.635,-231.318 147,-257 152.784,-260.774 159.287,-263.799 165.961,-266.225"/>
<polygon fill="midnightblue" stroke="midnightblue" points="165.207,-269.658 175.798,-269.366 167.337,-262.99 165.207,-269.658"/>
</g>
<!-- Node21 -->
<g id="node4" class="node"><title>Node21</title>
<g id="a_node4"><a xlink:href="../../da/d7f/classefd_1_1NDStmtList.xhtml#a015cefabf53b2666c442b01b86c2b7cd" target="_top" xlink:title="Creates a new instance of this node. ">
<polygon fill="none" stroke="black" points="159,-228.5 159,-247.5 282,-247.5 282,-228.5 159,-228.5"/>
<text text-anchor="middle" x="220.5" y="-235.5" font-family="Helvetica,sans-Serif" font-size="10.00">efd::NDStmtList::Create</text>
</a>
</g>
</g>
<!-- Node18&#45;&gt;Node21 -->
<g id="edge3" class="edge"><title>Node18&#45;&gt;Node21</title>
<path fill="none" stroke="midnightblue" d="M70.3769,-158.153C86.9773,-175.381 116.385,-203.162 147,-219 151.507,-221.332 156.324,-223.394 161.251,-225.215"/>
<polygon fill="midnightblue" stroke="midnightblue" points="160.216,-228.559 170.81,-228.426 162.445,-221.924 160.216,-228.559"/>
</g>
<!-- Node25 -->
<g id="node8" class="node"><title>Node25</title>
<g id="a_node8"><a xlink:href="../../d3/d29/classefd_1_1NDInclude.xhtml#a81d54827a61c546040dad4f57e34c318" target="_top" xlink:title="Creates a new instance of this node. ">
<polygon fill="none" stroke="black" points="161.5,-190.5 161.5,-209.5 279.5,-209.5 279.5,-190.5 161.5,-190.5"/>
<text text-anchor="middle" x="220.5" y="-197.5" font-family="Helvetica,sans-Serif" font-size="10.00">efd::NDInclude::Create</text>
</a>
</g>
</g>
<!-- Node18&#45;&gt;Node25 -->
<g id="edge7" class="edge"><title>Node18&#45;&gt;Node25</title>
<path fill="none" stroke="midnightblue" d="M89.1672,-158.033C106.187,-165.527 127.473,-174.379 147,-181 154.112,-183.411 161.701,-185.701 169.192,-187.802"/>
<polygon fill="midnightblue" stroke="midnightblue" points="168.366,-191.204 178.934,-190.448 170.201,-184.449 168.366,-191.204"/>
</g>
<!-- Node29 -->
<g id="node12" class="node"><title>Node29</title>
<g id="a_node12"><a xlink:href="../../d3/d29/classefd_1_1NDInclude.xhtml#a08ec207974cdeaf086c7978dc23b9a30" target="_top" xlink:title="Gets the node that holds the filename. ">
<polygon fill="none" stroke="black" points="149.5,-152.5 149.5,-171.5 291.5,-171.5 291.5,-152.5 149.5,-152.5"/>
<text text-anchor="middle" x="220.5" y="-159.5" font-family="Helvetica,sans-Serif" font-size="10.00">efd::NDInclude::getFilename</text>
</a>
</g>
</g>
<!-- Node18&#45;&gt;Node29 -->
<g id="edge12" class="edge"><title>Node18&#45;&gt;Node29</title>
<path fill="none" stroke="midnightblue" d="M111.23,-149.38C120.196,-150.425 129.647,-151.526 139.08,-152.626"/>
<polygon fill="midnightblue" stroke="midnightblue" points="138.945,-156.134 149.283,-153.815 139.756,-149.181 138.945,-156.134"/>
</g>
<!-- Node31 -->
<g id="node14" class="node"><title>Node31</title>
<g id="a_node14"><a xlink:href="../../dd/d52/classefd_1_1QModule.xhtml#a02a5efc8ed6d6e6645576b948a18fe19" target="_top" xlink:title="Inserts an include node. ">
<polygon fill="none" stroke="black" points="152,-114.5 152,-133.5 289,-133.5 289,-114.5 152,-114.5"/>
<text text-anchor="middle" x="220.5" y="-121.5" font-family="Helvetica,sans-Serif" font-size="10.00">efd::QModule::insertInclude</text>
</a>
</g>
</g>
<!-- Node18&#45;&gt;Node31 -->
<g id="edge14" class="edge"><title>Node18&#45;&gt;Node31</title>
<path fill="none" stroke="midnightblue" d="M111.23,-136.62C121.011,-135.48 131.37,-134.273 141.651,-133.074"/>
<polygon fill="midnightblue" stroke="midnightblue" points="142.355,-136.516 151.882,-131.882 141.544,-129.563 142.355,-136.516"/>
</g>
<!-- Node32 -->
<g id="node15" class="node"><title>Node32</title>
<g id="a_node15"><a xlink:href="../../d4/deb/namespaceefd.xhtml#aa119fd70b5ec5d99dd8682d63d2e9a92" target="_top" xlink:title="Uses the RTTI framework to cast backwardly an unique_ptr. ">
<polygon fill="none" stroke="black" points="156,-76.5 156,-95.5 285,-95.5 285,-76.5 156,-76.5"/>
<text text-anchor="middle" x="220.5" y="-83.5" font-family="Helvetica,sans-Serif" font-size="10.00">efd::uniqueCastBackward</text>
</a>
</g>
</g>
<!-- Node18&#45;&gt;Node32 -->
<g id="edge15" class="edge"><title>Node18&#45;&gt;Node32</title>
<path fill="none" stroke="midnightblue" d="M89.1672,-127.967C106.187,-120.473 127.473,-111.621 147,-105 154.112,-102.589 161.701,-100.299 169.192,-98.1984"/>
<polygon fill="midnightblue" stroke="midnightblue" points="170.201,-101.551 178.934,-95.5519 168.366,-94.7959 170.201,-101.551"/>
</g>
<!-- Node33 -->
<g id="node16" class="node"><title>Node33</title>
<g id="a_node16"><a xlink:href="../../d4/deb/namespaceefd.xhtml#ad7adca0e4de58074aa3f91827469a491" target="_top" xlink:title="Uses the RTTI framework to cast forwardly an unique_ptr. ">
<polygon fill="none" stroke="black" points="160,-38.5 160,-57.5 281,-57.5 281,-38.5 160,-38.5"/>
<text text-anchor="middle" x="220.5" y="-45.5" font-family="Helvetica,sans-Serif" font-size="10.00">efd::uniqueCastForward</text>
</a>
</g>
</g>
<!-- Node18&#45;&gt;Node33 -->
<g id="edge16" class="edge"><title>Node18&#45;&gt;Node33</title>
<path fill="none" stroke="midnightblue" d="M70.3769,-127.847C86.9773,-110.619 116.385,-82.838 147,-67 151.507,-64.6683 156.324,-62.606 161.251,-60.7853"/>
<polygon fill="midnightblue" stroke="midnightblue" points="162.445,-64.0765 170.81,-57.5742 160.216,-57.4409 162.445,-64.0765"/>
</g>
<!-- Node34 -->
<g id="node17" class="node"><title>Node34</title>
<g id="a_node17"><a xlink:href="../../d8/d5d/classefd_1_1NodeVisitor.xhtml#ab909f7961825bd91e6382911632a5ef8" target="_top" xlink:title="Visits the children of ref. ">
<polygon fill="none" stroke="black" points="147,-0.5 147,-19.5 294,-19.5 294,-0.5 147,-0.5"/>
<text text-anchor="middle" x="220.5" y="-7.5" font-family="Helvetica,sans-Serif" font-size="10.00">efd::NodeVisitor::visitChildren</text>
</a>
</g>
</g>
<!-- Node18&#45;&gt;Node34 -->
<g id="edge17" class="edge"><title>Node18&#45;&gt;Node34</title>
<path fill="none" stroke="midnightblue" d="M64.2693,-127.851C77.6977,-103.225 107.635,-54.6819 147,-29 150.184,-26.9226 153.586,-25.072 157.114,-23.4233"/>
<polygon fill="midnightblue" stroke="midnightblue" points="158.752,-26.5352 166.686,-19.5141 156.105,-20.0548 158.752,-26.5352"/>
</g>
<!-- Node20 -->
<g id="node3" class="node"><title>Node20</title>
<g id="a_node3"><a xlink:href="../../d6/d6a/classefd_1_1Node.xhtml#ac078ce64eb404cfdc24b9288908536e4" target="_top" xlink:title="Clones the current node (deep copy). ">
<polygon fill="none" stroke="black" points="349.5,-266.5 349.5,-285.5 456.5,-285.5 456.5,-266.5 349.5,-266.5"/>
<text text-anchor="middle" x="403" y="-273.5" font-family="Helvetica,sans-Serif" font-size="10.00">efd::Node::cloneImpl</text>
</a>
</g>
</g>
<!-- Node19&#45;&gt;Node20 -->
<g id="edge2" class="edge"><title>Node19&#45;&gt;Node20</title>
<path fill="none" stroke="midnightblue" d="M265.194,-276C287.378,-276 314.731,-276 339.133,-276"/>
<polygon fill="midnightblue" stroke="midnightblue" points="339.386,-279.5 349.386,-276 339.386,-272.5 339.386,-279.5"/>
</g>
<!-- Node22 -->
<g id="node5" class="node"><title>Node22</title>
<g id="a_node5"><a xlink:href="../../da/d7f/classefd_1_1NDStmtList.xhtml#a7d05021fdea4c254514856a9f126ce7a" target="_top" xlink:title="efd::NDStmtList::NDStmtList">
<polygon fill="none" stroke="black" points="330,-228.5 330,-247.5 476,-247.5 476,-228.5 330,-228.5"/>
<text text-anchor="middle" x="403" y="-235.5" font-family="Helvetica,sans-Serif" font-size="10.00">efd::NDStmtList::NDStmtList</text>
</a>
</g>
</g>
<!-- Node21&#45;&gt;Node22 -->
<g id="edge4" class="edge"><title>Node21&#45;&gt;Node22</title>
<path fill="none" stroke="midnightblue" d="M282.106,-238C294.228,-238 307.153,-238 319.861,-238"/>
<polygon fill="midnightblue" stroke="midnightblue" points="319.987,-241.5 329.987,-238 319.987,-234.5 319.987,-241.5"/>
</g>
<!-- Node23 -->
<g id="node6" class="node"><title>Node23</title>
<g id="a_node6"><a xlink:href="../../da/ddd/classefd_1_1NDList.xhtml#a2642c91fda9d33512d1aa1aa7851b6bd" target="_top" xlink:title="efd::NDList::NDList">
<polygon fill="none" stroke="black" points="523,-228.5 523,-247.5 627,-247.5 627,-228.5 523,-228.5"/>
<text text-anchor="middle" x="575" y="-235.5" font-family="Helvetica,sans-Serif" font-size="10.00">efd::NDList::NDList</text>
</a>
</g>
</g>
<!-- Node22&#45;&gt;Node23 -->
<g id="edge5" class="edge"><title>Node22&#45;&gt;Node23</title>
<path fill="none" stroke="midnightblue" d="M476.095,-238C488.274,-238 500.814,-238 512.685,-238"/>
<polygon fill="midnightblue" stroke="midnightblue" points="512.919,-241.5 522.919,-238 512.919,-234.5 512.919,-241.5"/>
</g>
<!-- Node24 -->
<g id="node7" class="node"><title>Node24</title>
<g id="a_node7"><a xlink:href="../../d6/d6a/classefd_1_1Node.xhtml#a09ac8cdf7898a3d17293d92ae956eece" target="_top" xlink:title="Constructs the node, initially empty (with no information). ">
<polygon fill="none" stroke="black" points="683,-209.5 683,-228.5 772,-228.5 772,-209.5 683,-209.5"/>
<text text-anchor="middle" x="727.5" y="-216.5" font-family="Helvetica,sans-Serif" font-size="10.00">efd::Node::Node</text>
</a>
</g>
</g>
<!-- Node23&#45;&gt;Node24 -->
<g id="edge6" class="edge"><title>Node23&#45;&gt;Node24</title>
<path fill="none" stroke="midnightblue" d="M627.373,-231.514C642.04,-229.663 658.058,-227.64 672.858,-225.772"/>
<polygon fill="midnightblue" stroke="midnightblue" points="673.395,-229.232 682.878,-224.507 672.518,-222.287 673.395,-229.232"/>
</g>
<!-- Node26 -->
<g id="node9" class="node"><title>Node26</title>
<g id="a_node9"><a xlink:href="../../d3/d29/classefd_1_1NDInclude.xhtml#aeadcf3e4d57fbd7ffb56dab4b8c34e5b" target="_top" xlink:title="efd::NDInclude::NDInclude">
<polygon fill="none" stroke="black" points="335.5,-190.5 335.5,-209.5 470.5,-209.5 470.5,-190.5 335.5,-190.5"/>
<text text-anchor="middle" x="403" y="-197.5" font-family="Helvetica,sans-Serif" font-size="10.00">efd::NDInclude::NDInclude</text>
</a>
</g>
</g>
<!-- Node25&#45;&gt;Node26 -->
<g id="edge8" class="edge"><title>Node25&#45;&gt;Node26</title>
<path fill="none" stroke="midnightblue" d="M279.605,-200C294.007,-200 309.666,-200 324.822,-200"/>
<polygon fill="midnightblue" stroke="midnightblue" points="325.213,-203.5 335.213,-200 325.213,-196.5 325.213,-203.5"/>
</g>
<!-- Node26&#45;&gt;Node24 -->
<g id="edge11" class="edge"><title>Node26&#45;&gt;Node24</title>
<path fill="none" stroke="midnightblue" d="M470.822,-203.937C530.62,-207.46 617.167,-212.559 672.635,-215.827"/>
<polygon fill="midnightblue" stroke="midnightblue" points="672.768,-219.34 682.956,-216.435 673.18,-212.352 672.768,-219.34"/>
</g>
<!-- Node27 -->
<g id="node10" class="node"><title>Node27</title>
<g id="a_node10"><a xlink:href="../../d6/d6a/classefd_1_1Node.xhtml#a8ac8c3206c6f6817a8c8e515ac830f61" target="_top" xlink:title="Adds a child to this node. It should be used only for construction of each derived class...">
<polygon fill="none" stroke="black" points="512,-152.5 512,-171.5 638,-171.5 638,-152.5 512,-152.5"/>
<text text-anchor="middle" x="575" y="-159.5" font-family="Helvetica,sans-Serif" font-size="10.00">efd::Node::innerAddChild</text>
</a>
</g>
</g>
<!-- Node26&#45;&gt;Node27 -->
<g id="edge9" class="edge"><title>Node26&#45;&gt;Node27</title>
<path fill="none" stroke="midnightblue" d="M446.898,-190.411C469.534,-185.351 497.498,-179.1 521.429,-173.751"/>
<polygon fill="midnightblue" stroke="midnightblue" points="522.415,-177.117 531.41,-171.52 520.888,-170.286 522.415,-177.117"/>
</g>
<!-- Node28 -->
<g id="node11" class="node"><title>Node28</title>
<g id="a_node11"><a xlink:href="../../d6/d6a/classefd_1_1Node.xhtml#a48e9d49d994b9023b8400316e2782e2b" target="_top" xlink:title="Sets the parent node of the current node. ">
<polygon fill="none" stroke="black" points="674,-152.5 674,-171.5 781,-171.5 781,-152.5 674,-152.5"/>
<text text-anchor="middle" x="727.5" y="-159.5" font-family="Helvetica,sans-Serif" font-size="10.00">efd::Node::setParent</text>
</a>
</g>
</g>
<!-- Node27&#45;&gt;Node28 -->
<g id="edge10" class="edge"><title>Node27&#45;&gt;Node28</title>
<path fill="none" stroke="midnightblue" d="M638.083,-162C646.488,-162 655.118,-162 663.538,-162"/>
<polygon fill="midnightblue" stroke="midnightblue" points="663.674,-165.5 673.674,-162 663.674,-158.5 663.674,-165.5"/>
</g>
<!-- Node30 -->
<g id="node13" class="node"><title>Node30</title>
<g id="a_node13"><a xlink:href="../../d4/deb/namespaceefd.xhtml#a2cef687225e13315fc282dc40b5a6909" target="_top" xlink:title="Returns src cast to TargetTy, iff it is of class TargetTy, otherwise it will return nullptr...">
<polygon fill="none" stroke="black" points="366.5,-152.5 366.5,-171.5 439.5,-171.5 439.5,-152.5 366.5,-152.5"/>
<text text-anchor="middle" x="403" y="-159.5" font-family="Helvetica,sans-Serif" font-size="10.00">efd::dynCast</text>
</a>
</g>
</g>
<!-- Node29&#45;&gt;Node30 -->
<g id="edge13" class="edge"><title>Node29&#45;&gt;Node30</title>
<path fill="none" stroke="midnightblue" d="M291.544,-162C313.216,-162 336.527,-162 356.122,-162"/>
<polygon fill="midnightblue" stroke="midnightblue" points="356.296,-165.5 366.296,-162 356.296,-158.5 356.296,-165.5"/>
</g>
<!-- Node35 -->
<g id="node18" class="node"><title>Node35</title>
<g id="a_node18"><a xlink:href="../../d6/d6a/classefd_1_1Node.xhtml#ab813c60af1717cf50e92a28b274c24ef" target="_top" xlink:title="Used by visitor classes. ">
<polygon fill="none" stroke="black" points="358.5,-0.5 358.5,-19.5 447.5,-19.5 447.5,-0.5 358.5,-0.5"/>
<text text-anchor="middle" x="403" y="-7.5" font-family="Helvetica,sans-Serif" font-size="10.00">efd::Node::apply</text>
</a>
</g>
</g>
<!-- Node34&#45;&gt;Node35 -->
<g id="edge18" class="edge"><title>Node34&#45;&gt;Node35</title>
<path fill="none" stroke="midnightblue" d="M294.136,-10C312.146,-10 331.129,-10 348.064,-10"/>
<polygon fill="midnightblue" stroke="midnightblue" points="348.318,-13.5001 358.318,-10 348.318,-6.5001 348.318,-13.5001"/>
</g>
</g>
</svg>
