<?xml version="1.0" encoding="UTF-8" standalone="no"?>
<!DOCTYPE svg PUBLIC "-//W3C//DTD SVG 1.1//EN"
 "http://www.w3.org/Graphics/SVG/1.1/DTD/svg11.dtd">
<!-- Generated by graphviz version 2.38.0 (20140413.2041)
 -->
<!-- Title: efd::QModulefyVisitor::visit Pages: 1 -->
<svg width="789pt" height="279pt"
 viewBox="0.00 0.00 789.00 279.00" xmlns="http://www.w3.org/2000/svg" xmlns:xlink="http://www.w3.org/1999/xlink">
<g id="graph0" class="graph" transform="scale(1 1) rotate(0) translate(4 275)">
<title>efd::QModulefyVisitor::visit</title>
<!-- Node1 -->
<g id="node1" class="node"><title>Node1</title>
<polygon fill="#bfbfbf" stroke="black" points="0,-115 0,-145 111,-145 111,-115 0,-115"/>
<text text-anchor="start" x="8" y="-133" font-family="Helvetica,sans-Serif" font-size="10.00">efd::QModulefyVisitor</text>
<text text-anchor="middle" x="55.5" y="-122" font-family="Helvetica,sans-Serif" font-size="10.00">::visit</text>
</g>
<!-- Node2 -->
<g id="node2" class="node"><title>Node2</title>
<g id="a_node2"><a xlink:href="../../d6/d6a/classefd_1_1Node.xhtml#a6c85c9bd21014b73497de741cc75f706" target="_top" xlink:title="Clones the current node (deep copy). ">
<polygon fill="none" stroke="black" points="176,-251.5 176,-270.5 265,-270.5 265,-251.5 176,-251.5"/>
<text text-anchor="middle" x="220.5" y="-258.5" font-family="Helvetica,sans-Serif" font-size="10.00">efd::Node::clone</text>
</a>
</g>
</g>
<!-- Node1&#45;&gt;Node2 -->
<g id="edge1" class="edge"><title>Node1&#45;&gt;Node2</title>
<path fill="none" stroke="midnightblue" d="M64.5591,-145.274C78.1925,-169.586 108.157,-216.898 147,-242 152.801,-245.749 159.312,-248.76 165.991,-251.178"/>
<polygon fill="midnightblue" stroke="midnightblue" points="165.242,-254.612 175.833,-254.313 167.367,-247.943 165.242,-254.612"/>
</g>
<!-- Node4 -->
<g id="node4" class="node"><title>Node4</title>
<g id="a_node4"><a xlink:href="../../da/d7f/classefd_1_1NDStmtList.xhtml#a015cefabf53b2666c442b01b86c2b7cd" target="_top" xlink:title="Creates a new instance of this node. ">
<polygon fill="none" stroke="black" points="159,-213.5 159,-232.5 282,-232.5 282,-213.5 159,-213.5"/>
<text text-anchor="middle" x="220.5" y="-220.5" font-family="Helvetica,sans-Serif" font-size="10.00">efd::NDStmtList::Create</text>
</a>
</g>
</g>
<!-- Node1&#45;&gt;Node4 -->
<g id="edge3" class="edge"><title>Node1&#45;&gt;Node4</title>
<path fill="none" stroke="midnightblue" d="M70.757,-145.038C87.4855,-161.818 116.795,-188.624 147,-204 151.593,-206.338 156.5,-208.408 161.515,-210.236"/>
<polygon fill="midnightblue" stroke="midnightblue" points="160.642,-213.633 171.235,-213.46 162.846,-206.99 160.642,-213.633"/>
</g>
<!-- Node8 -->
<g id="node8" class="node"><title>Node8</title>
<g id="a_node8"><a xlink:href="../../d9/dcb/classefd_1_1NDQasmVersion.xhtml#a797ca00ee47d3e341eea1be65f0c8615" target="_top" xlink:title="Creates a new instance of this node. ">
<polygon fill="none" stroke="black" points="165.5,-164 165.5,-194 275.5,-194 275.5,-164 165.5,-164"/>
<text text-anchor="start" x="173.5" y="-182" font-family="Helvetica,sans-Serif" font-size="10.00">efd::NDQasmVersion</text>
<text text-anchor="middle" x="220.5" y="-171" font-family="Helvetica,sans-Serif" font-size="10.00">::Create</text>
</a>
</g>
</g>
<!-- Node1&#45;&gt;Node8 -->
<g id="edge7" class="edge"><title>Node1&#45;&gt;Node8</title>
<path fill="none" stroke="midnightblue" d="M106.735,-145.101C123.391,-150.108 142.1,-155.732 159.419,-160.939"/>
<polygon fill="midnightblue" stroke="midnightblue" points="158.846,-164.421 169.43,-163.948 160.861,-157.718 158.846,-164.421"/>
</g>
<!-- Node12 -->
<g id="node12" class="node"><title>Node12</title>
<g id="a_node12"><a xlink:href="../../d9/dcb/classefd_1_1NDQasmVersion.xhtml#adb0f8cedefb3c43a5e8346f31feaa9c0" target="_top" xlink:title="Gets the node that holds the version. ">
<polygon fill="none" stroke="black" points="165.5,-115 165.5,-145 275.5,-145 275.5,-115 165.5,-115"/>
<text text-anchor="start" x="173.5" y="-133" font-family="Helvetica,sans-Serif" font-size="10.00">efd::NDQasmVersion</text>
<text text-anchor="middle" x="220.5" y="-122" font-family="Helvetica,sans-Serif" font-size="10.00">::getVersion</text>
</a>
</g>
</g>
<!-- Node1&#45;&gt;Node12 -->
<g id="edge12" class="edge"><title>Node1&#45;&gt;Node12</title>
<path fill="none" stroke="midnightblue" d="M111.23,-130C125.296,-130 140.559,-130 155.066,-130"/>
<polygon fill="midnightblue" stroke="midnightblue" points="155.468,-133.5 165.468,-130 155.468,-126.5 155.468,-133.5"/>
</g>
<!-- Node14 -->
<g id="node14" class="node"><title>Node14</title>
<g id="a_node14"><a xlink:href="../../dd/d52/classefd_1_1QModule.xhtml#a722ba745d16ae9040cea870f5479982a" target="_top" xlink:title="Sets the qasm version. ">
<polygon fill="none" stroke="black" points="156.5,-76.5 156.5,-95.5 284.5,-95.5 284.5,-76.5 156.5,-76.5"/>
<text text-anchor="middle" x="220.5" y="-83.5" font-family="Helvetica,sans-Serif" font-size="10.00">efd::QModule::setVersion</text>
</a>
</g>
</g>
<!-- Node1&#45;&gt;Node14 -->
<g id="edge14" class="edge"><title>Node1&#45;&gt;Node14</title>
<path fill="none" stroke="midnightblue" d="M110.544,-114.945C122.539,-111.639 135.195,-108.177 147,-105 155.308,-102.764 164.162,-100.415 172.724,-98.1614"/>
<polygon fill="midnightblue" stroke="midnightblue" points="173.808,-101.496 182.592,-95.5717 172.031,-94.7248 173.808,-101.496"/>
</g>
<!-- Node15 -->
<g id="node15" class="node"><title>Node15</title>
<g id="a_node15"><a xlink:href="../../d4/deb/namespaceefd.xhtml#ad7adca0e4de58074aa3f91827469a491" target="_top" xlink:title="Uses the RTTI framework to cast forwardly an unique_ptr. ">
<polygon fill="none" stroke="black" points="160,-38.5 160,-57.5 281,-57.5 281,-38.5 160,-38.5"/>
<text text-anchor="middle" x="220.5" y="-45.5" font-family="Helvetica,sans-Serif" font-size="10.00">efd::uniqueCastForward</text>
</a>
</g>
</g>
<!-- Node1&#45;&gt;Node15 -->
<g id="edge15" class="edge"><title>Node1&#45;&gt;Node15</title>
<path fill="none" stroke="midnightblue" d="M74.0581,-114.942C91.4982,-100.699 119.534,-79.6701 147,-67 152.095,-64.6495 157.531,-62.5517 163.049,-60.6883"/>
<polygon fill="midnightblue" stroke="midnightblue" points="164.506,-63.9001 173.012,-57.583 162.423,-57.2172 164.506,-63.9001"/>
</g>
<!-- Node16 -->
<g id="node16" class="node"><title>Node16</title>
<g id="a_node16"><a xlink:href="../../d8/d5d/classefd_1_1NodeVisitor.xhtml#ab909f7961825bd91e6382911632a5ef8" target="_top" xlink:title="Visits the children of ref. ">
<polygon fill="none" stroke="black" points="147,-0.5 147,-19.5 294,-19.5 294,-0.5 147,-0.5"/>
<text text-anchor="middle" x="220.5" y="-7.5" font-family="Helvetica,sans-Serif" font-size="10.00">efd::NodeVisitor::visitChildren</text>
</a>
</g>
</g>
<!-- Node1&#45;&gt;Node16 -->
<g id="edge16" class="edge"><title>Node1&#45;&gt;Node16</title>
<path fill="none" stroke="midnightblue" d="M65.8868,-114.792C80.4495,-92.503 110.631,-51.2103 147,-29 150.561,-26.8257 154.366,-24.8979 158.3,-23.1891"/>
<polygon fill="midnightblue" stroke="midnightblue" points="159.582,-26.446 167.657,-19.5863 157.067,-19.9136 159.582,-26.446"/>
</g>
<!-- Node3 -->
<g id="node3" class="node"><title>Node3</title>
<g id="a_node3"><a xlink:href="../../d6/d6a/classefd_1_1Node.xhtml#ac078ce64eb404cfdc24b9288908536e4" target="_top" xlink:title="Clones the current node (deep copy). ">
<polygon fill="none" stroke="black" points="349.5,-251.5 349.5,-270.5 456.5,-270.5 456.5,-251.5 349.5,-251.5"/>
<text text-anchor="middle" x="403" y="-258.5" font-family="Helvetica,sans-Serif" font-size="10.00">efd::Node::cloneImpl</text>
</a>
</g>
</g>
<!-- Node2&#45;&gt;Node3 -->
<g id="edge2" class="edge"><title>Node2&#45;&gt;Node3</title>
<path fill="none" stroke="midnightblue" d="M265.194,-261C287.378,-261 314.731,-261 339.133,-261"/>
<polygon fill="midnightblue" stroke="midnightblue" points="339.386,-264.5 349.386,-261 339.386,-257.5 339.386,-264.5"/>
</g>
<!-- Node5 -->
<g id="node5" class="node"><title>Node5</title>
<g id="a_node5"><a xlink:href="../../da/d7f/classefd_1_1NDStmtList.xhtml#a7d05021fdea4c254514856a9f126ce7a" target="_top" xlink:title="efd::NDStmtList::NDStmtList">
<polygon fill="none" stroke="black" points="330,-213.5 330,-232.5 476,-232.5 476,-213.5 330,-213.5"/>
<text text-anchor="middle" x="403" y="-220.5" font-family="Helvetica,sans-Serif" font-size="10.00">efd::NDStmtList::NDStmtList</text>
</a>
</g>
</g>
<!-- Node4&#45;&gt;Node5 -->
<g id="edge4" class="edge"><title>Node4&#45;&gt;Node5</title>
<path fill="none" stroke="midnightblue" d="M282.106,-223C294.228,-223 307.153,-223 319.861,-223"/>
<polygon fill="midnightblue" stroke="midnightblue" points="319.987,-226.5 329.987,-223 319.987,-219.5 319.987,-226.5"/>
</g>
<!-- Node6 -->
<g id="node6" class="node"><title>Node6</title>
<g id="a_node6"><a xlink:href="../../da/ddd/classefd_1_1NDList.xhtml#a2642c91fda9d33512d1aa1aa7851b6bd" target="_top" xlink:title="efd::NDList::NDList">
<polygon fill="none" stroke="black" points="523,-213.5 523,-232.5 627,-232.5 627,-213.5 523,-213.5"/>
<text text-anchor="middle" x="575" y="-220.5" font-family="Helvetica,sans-Serif" font-size="10.00">efd::NDList::NDList</text>
</a>
</g>
</g>
<!-- Node5&#45;&gt;Node6 -->
<g id="edge5" class="edge"><title>Node5&#45;&gt;Node6</title>
<path fill="none" stroke="midnightblue" d="M476.095,-223C488.274,-223 500.814,-223 512.685,-223"/>
<polygon fill="midnightblue" stroke="midnightblue" points="512.919,-226.5 522.919,-223 512.919,-219.5 512.919,-226.5"/>
</g>
<!-- Node7 -->
<g id="node7" class="node"><title>Node7</title>
<g id="a_node7"><a xlink:href="../../d6/d6a/classefd_1_1Node.xhtml#a09ac8cdf7898a3d17293d92ae956eece" target="_top" xlink:title="Constructs the node, initially empty (with no information). ">
<polygon fill="none" stroke="black" points="683,-194.5 683,-213.5 772,-213.5 772,-194.5 683,-194.5"/>
<text text-anchor="middle" x="727.5" y="-201.5" font-family="Helvetica,sans-Serif" font-size="10.00">efd::Node::Node</text>
</a>
</g>
</g>
<!-- Node6&#45;&gt;Node7 -->
<g id="edge6" class="edge"><title>Node6&#45;&gt;Node7</title>
<path fill="none" stroke="midnightblue" d="M627.373,-216.514C642.04,-214.663 658.058,-212.64 672.858,-210.772"/>
<polygon fill="midnightblue" stroke="midnightblue" points="673.395,-214.232 682.878,-209.507 672.518,-207.287 673.395,-214.232"/>
</g>
<!-- Node9 -->
<g id="node9" class="node"><title>Node9</title>
<g id="a_node9"><a xlink:href="../../d9/dcb/classefd_1_1NDQasmVersion.xhtml#aaff201c726ac39af5cda849e3e0d27c1" target="_top" xlink:title="efd::NDQasmVersion\l::NDQasmVersion">
<polygon fill="none" stroke="black" points="348,-164 348,-194 458,-194 458,-164 348,-164"/>
<text text-anchor="start" x="356" y="-182" font-family="Helvetica,sans-Serif" font-size="10.00">efd::NDQasmVersion</text>
<text text-anchor="middle" x="403" y="-171" font-family="Helvetica,sans-Serif" font-size="10.00">::NDQasmVersion</text>
</a>
</g>
</g>
<!-- Node8&#45;&gt;Node9 -->
<g id="edge8" class="edge"><title>Node8&#45;&gt;Node9</title>
<path fill="none" stroke="midnightblue" d="M275.656,-179C295.199,-179 317.447,-179 337.769,-179"/>
<polygon fill="midnightblue" stroke="midnightblue" points="337.882,-182.5 347.882,-179 337.882,-175.5 337.882,-182.5"/>
</g>
<!-- Node9&#45;&gt;Node7 -->
<g id="edge11" class="edge"><title>Node9&#45;&gt;Node7</title>
<path fill="none" stroke="midnightblue" d="M458.343,-183.213C517.952,-187.834 613.036,-195.204 672.506,-199.814"/>
<polygon fill="midnightblue" stroke="midnightblue" points="672.577,-203.33 682.818,-200.614 673.118,-196.351 672.577,-203.33"/>
</g>
<!-- Node10 -->
<g id="node10" class="node"><title>Node10</title>
<g id="a_node10"><a xlink:href="../../d6/d6a/classefd_1_1Node.xhtml#a8ac8c3206c6f6817a8c8e515ac830f61" target="_top" xlink:title="Adds a child to this node. It should be used only for construction of each derived class...">
<polygon fill="none" stroke="black" points="512,-137.5 512,-156.5 638,-156.5 638,-137.5 512,-137.5"/>
<text text-anchor="middle" x="575" y="-144.5" font-family="Helvetica,sans-Serif" font-size="10.00">efd::Node::innerAddChild</text>
</a>
</g>
</g>
<!-- Node9&#45;&gt;Node10 -->
<g id="edge9" class="edge"><title>Node9&#45;&gt;Node10</title>
<path fill="none" stroke="midnightblue" d="M458.256,-168.787C475.884,-165.469 495.55,-161.767 513.597,-158.37"/>
<polygon fill="midnightblue" stroke="midnightblue" points="514.254,-161.808 523.434,-156.518 512.959,-154.929 514.254,-161.808"/>
</g>
<!-- Node11 -->
<g id="node11" class="node"><title>Node11</title>
<g id="a_node11"><a xlink:href="../../d6/d6a/classefd_1_1Node.xhtml#a48e9d49d994b9023b8400316e2782e2b" target="_top" xlink:title="Sets the parent node of the current node. ">
<polygon fill="none" stroke="black" points="674,-137.5 674,-156.5 781,-156.5 781,-137.5 674,-137.5"/>
<text text-anchor="middle" x="727.5" y="-144.5" font-family="Helvetica,sans-Serif" font-size="10.00">efd::Node::setParent</text>
</a>
</g>
</g>
<!-- Node10&#45;&gt;Node11 -->
<g id="edge10" class="edge"><title>Node10&#45;&gt;Node11</title>
<path fill="none" stroke="midnightblue" d="M638.083,-147C646.488,-147 655.118,-147 663.538,-147"/>
<polygon fill="midnightblue" stroke="midnightblue" points="663.674,-150.5 673.674,-147 663.674,-143.5 663.674,-150.5"/>
</g>
<!-- Node13 -->
<g id="node13" class="node"><title>Node13</title>
<g id="a_node13"><a xlink:href="../../d4/deb/namespaceefd.xhtml#a2cef687225e13315fc282dc40b5a6909" target="_top" xlink:title="Returns src cast to TargetTy, iff it is of class TargetTy, otherwise it will return nullptr...">
<polygon fill="none" stroke="black" points="366.5,-120.5 366.5,-139.5 439.5,-139.5 439.5,-120.5 366.5,-120.5"/>
<text text-anchor="middle" x="403" y="-127.5" font-family="Helvetica,sans-Serif" font-size="10.00">efd::dynCast</text>
</a>
</g>
</g>
<!-- Node12&#45;&gt;Node13 -->
<g id="edge13" class="edge"><title>Node12&#45;&gt;Node13</title>
<path fill="none" stroke="midnightblue" d="M275.656,-130C301.37,-130 331.764,-130 356.297,-130"/>
<polygon fill="midnightblue" stroke="midnightblue" points="356.422,-133.5 366.422,-130 356.421,-126.5 356.422,-133.5"/>
</g>
<!-- Node17 -->
<g id="node17" class="node"><title>Node17</title>
<g id="a_node17"><a xlink:href="../../d6/d6a/classefd_1_1Node.xhtml#ab813c60af1717cf50e92a28b274c24ef" target="_top" xlink:title="Used by visitor classes. ">
<polygon fill="none" stroke="black" points="358.5,-0.5 358.5,-19.5 447.5,-19.5 447.5,-0.5 358.5,-0.5"/>
<text text-anchor="middle" x="403" y="-7.5" font-family="Helvetica,sans-Serif" font-size="10.00">efd::Node::apply</text>
</a>
</g>
</g>
<!-- Node16&#45;&gt;Node17 -->
<g id="edge17" class="edge"><title>Node16&#45;&gt;Node17</title>
<path fill="none" stroke="midnightblue" d="M294.136,-10C312.146,-10 331.129,-10 348.064,-10"/>
<polygon fill="midnightblue" stroke="midnightblue" points="348.318,-13.5001 358.318,-10 348.318,-6.5001 348.318,-13.5001"/>
</g>
</g>
</svg>
