<?xml version="1.0" encoding="UTF-8" standalone="no"?>
<!DOCTYPE svg PUBLIC "-//W3C//DTD SVG 1.1//EN"
 "http://www.w3.org/Graphics/SVG/1.1/DTD/svg11.dtd">
<!-- Generated by graphviz version 2.38.0 (20140413.2041)
 -->
<!-- Title: efd::QModulefyVisitor::visit Pages: 1 -->
<svg width="427pt" height="39pt"
 viewBox="0.00 0.00 427.00 39.00" xmlns="http://www.w3.org/2000/svg" xmlns:xlink="http://www.w3.org/1999/xlink">
<g id="graph0" class="graph" transform="scale(1 1) rotate(0) translate(4 35)">
<title>efd::QModulefyVisitor::visit</title>
<!-- Node113 -->
<g id="node1" class="node"><title>Node113</title>
<polygon fill="#bfbfbf" stroke="black" points="0,-0.5 0,-30.5 111,-30.5 111,-0.5 0,-0.5"/>
<text text-anchor="start" x="8" y="-18.5" font-family="Helvetica,sans-Serif" font-size="10.00">efd::QModulefyVisitor</text>
<text text-anchor="middle" x="55.5" y="-7.5" font-family="Helvetica,sans-Serif" font-size="10.00">::visit</text>
</g>
<!-- Node114 -->
<g id="node2" class="node"><title>Node114</title>
<g id="a_node2"><a xlink:href="../../d8/d5d/classefd_1_1NodeVisitor.xhtml#ab909f7961825bd91e6382911632a5ef8" target="_top" xlink:title="Visits the children of ref. ">
<polygon fill="none" stroke="black" points="147,-6 147,-25 294,-25 294,-6 147,-6"/>
<text text-anchor="middle" x="220.5" y="-13" font-family="Helvetica,sans-Serif" font-size="10.00">efd::NodeVisitor::visitChildren</text>
</a>
</g>
</g>
<!-- Node113&#45;&gt;Node114 -->
<g id="edge1" class="edge"><title>Node113&#45;&gt;Node114</title>
<path fill="none" stroke="midnightblue" d="M111.23,-15.5C119.473,-15.5 128.127,-15.5 136.799,-15.5"/>
<polygon fill="midnightblue" stroke="midnightblue" points="136.964,-19.0001 146.964,-15.5 136.964,-12.0001 136.964,-19.0001"/>
</g>
<!-- Node115 -->
<g id="node3" class="node"><title>Node115</title>
<g id="a_node3"><a xlink:href="../../d6/d6a/classefd_1_1Node.xhtml#ab813c60af1717cf50e92a28b274c24ef" target="_top" xlink:title="Used by visitor classes. ">
<polygon fill="none" stroke="black" points="330,-6 330,-25 419,-25 419,-6 330,-6"/>
<text text-anchor="middle" x="374.5" y="-13" font-family="Helvetica,sans-Serif" font-size="10.00">efd::Node::apply</text>
</a>
</g>
</g>
<!-- Node114&#45;&gt;Node115 -->
<g id="edge2" class="edge"><title>Node114&#45;&gt;Node115</title>
<path fill="none" stroke="midnightblue" d="M294.384,-15.5C302.848,-15.5 311.364,-15.5 319.511,-15.5"/>
<polygon fill="midnightblue" stroke="midnightblue" points="319.601,-19.0001 329.601,-15.5 319.601,-12.0001 319.601,-19.0001"/>
</g>
</g>
</svg>
