<?xml version="1.0" encoding="UTF-8" standalone="no"?>
<!DOCTYPE svg PUBLIC "-//W3C//DTD SVG 1.1//EN"
 "http://www.w3.org/Graphics/SVG/1.1/DTD/svg11.dtd">
<!-- Generated by graphviz version 2.38.0 (20140413.2041)
 -->
<!-- Title: efd::QModulefyVisitor::visit Pages: 1 -->
<svg width="536pt" height="104pt"
 viewBox="0.00 0.00 536.00 104.00" xmlns="http://www.w3.org/2000/svg" xmlns:xlink="http://www.w3.org/1999/xlink">
<g id="graph0" class="graph" transform="scale(1 1) rotate(0) translate(4 100)">
<title>efd::QModulefyVisitor::visit</title>
<!-- Node53 -->
<g id="node1" class="node"><title>Node53</title>
<polygon fill="#bfbfbf" stroke="black" points="0,-33 0,-63 111,-63 111,-33 0,-33"/>
<text text-anchor="start" x="8" y="-51" font-family="Helvetica,sans-Serif" font-size="10.00">efd::QModulefyVisitor</text>
<text text-anchor="middle" x="55.5" y="-40" font-family="Helvetica,sans-Serif" font-size="10.00">::visit</text>
</g>
<!-- Node54 -->
<g id="node2" class="node"><title>Node54</title>
<g id="a_node2"><a xlink:href="../../d6/d6a/classefd_1_1Node.xhtml#a6c85c9bd21014b73497de741cc75f706" target="_top" xlink:title="Clones the current node (deep copy). ">
<polygon fill="none" stroke="black" points="165.5,-76.5 165.5,-95.5 254.5,-95.5 254.5,-76.5 165.5,-76.5"/>
<text text-anchor="middle" x="210" y="-83.5" font-family="Helvetica,sans-Serif" font-size="10.00">efd::Node::clone</text>
</a>
</g>
</g>
<!-- Node53&#45;&gt;Node54 -->
<g id="edge1" class="edge"><title>Node53&#45;&gt;Node54</title>
<path fill="none" stroke="midnightblue" d="M111.125,-61.6115C127.25,-65.6295 144.782,-69.998 160.493,-73.9131"/>
<polygon fill="midnightblue" stroke="midnightblue" points="159.973,-77.3904 170.522,-76.4121 161.665,-70.598 159.973,-77.3904"/>
</g>
<!-- Node56 -->
<g id="node4" class="node"><title>Node56</title>
<g id="a_node4"><a xlink:href="../../dd/d52/classefd_1_1QModule.xhtml#a7a0b91ad23bdaf49e197692f453808b8" target="_top" xlink:title="Inserts a gate to the QModule. ">
<polygon fill="none" stroke="black" points="147,-38.5 147,-57.5 273,-57.5 273,-38.5 147,-38.5"/>
<text text-anchor="middle" x="210" y="-45.5" font-family="Helvetica,sans-Serif" font-size="10.00">efd::QModule::insertGate</text>
</a>
</g>
</g>
<!-- Node53&#45;&gt;Node56 -->
<g id="edge3" class="edge"><title>Node53&#45;&gt;Node56</title>
<path fill="none" stroke="midnightblue" d="M111.125,-48C119.479,-48 128.211,-48 136.872,-48"/>
<polygon fill="midnightblue" stroke="midnightblue" points="136.979,-51.5001 146.979,-48 136.979,-44.5001 136.979,-51.5001"/>
</g>
<!-- Node60 -->
<g id="node8" class="node"><title>Node60</title>
<g id="a_node8"><a xlink:href="../../d4/deb/namespaceefd.xhtml#ad7adca0e4de58074aa3f91827469a491" target="_top" xlink:title="Uses the RTTI framework to cast forwardly an unique_ptr. ">
<polygon fill="none" stroke="black" points="149.5,-0.5 149.5,-19.5 270.5,-19.5 270.5,-0.5 149.5,-0.5"/>
<text text-anchor="middle" x="210" y="-7.5" font-family="Helvetica,sans-Serif" font-size="10.00">efd::uniqueCastForward</text>
</a>
</g>
</g>
<!-- Node53&#45;&gt;Node60 -->
<g id="edge7" class="edge"><title>Node53&#45;&gt;Node60</title>
<path fill="none" stroke="midnightblue" d="M111.125,-34.3885C127.25,-30.3705 144.782,-26.002 160.493,-22.0869"/>
<polygon fill="midnightblue" stroke="midnightblue" points="161.665,-25.402 170.522,-19.5879 159.973,-18.6096 161.665,-25.402"/>
</g>
<!-- Node55 -->
<g id="node3" class="node"><title>Node55</title>
<g id="a_node3"><a xlink:href="../../d6/d6a/classefd_1_1Node.xhtml#ac078ce64eb404cfdc24b9288908536e4" target="_top" xlink:title="Clones the current node (deep copy). ">
<polygon fill="none" stroke="black" points="310.5,-76.5 310.5,-95.5 417.5,-95.5 417.5,-76.5 310.5,-76.5"/>
<text text-anchor="middle" x="364" y="-83.5" font-family="Helvetica,sans-Serif" font-size="10.00">efd::Node::cloneImpl</text>
</a>
</g>
</g>
<!-- Node54&#45;&gt;Node55 -->
<g id="edge2" class="edge"><title>Node54&#45;&gt;Node55</title>
<path fill="none" stroke="midnightblue" d="M254.557,-86C268.67,-86 284.62,-86 299.86,-86"/>
<polygon fill="midnightblue" stroke="midnightblue" points="300.266,-89.5001 310.266,-86 300.266,-82.5001 300.266,-89.5001"/>
</g>
<!-- Node57 -->
<g id="node5" class="node"><title>Node57</title>
<g id="a_node5"><a xlink:href="../../d0/d9e/classefd_1_1NDDecl.xhtml#a34957c2122c38cebf80a264d5fa3863f" target="_top" xlink:title="Gets the id node. ">
<polygon fill="none" stroke="black" points="314.5,-38.5 314.5,-57.5 413.5,-57.5 413.5,-38.5 314.5,-38.5"/>
<text text-anchor="middle" x="364" y="-45.5" font-family="Helvetica,sans-Serif" font-size="10.00">efd::NDDecl::getId</text>
</a>
</g>
</g>
<!-- Node56&#45;&gt;Node57 -->
<g id="edge4" class="edge"><title>Node56&#45;&gt;Node57</title>
<path fill="none" stroke="midnightblue" d="M273.263,-48C283.364,-48 293.8,-48 303.824,-48"/>
<polygon fill="midnightblue" stroke="midnightblue" points="304.091,-51.5001 314.091,-48 304.091,-44.5001 304.091,-51.5001"/>
</g>
<!-- Node59 -->
<g id="node7" class="node"><title>Node59</title>
<g id="a_node7"><a xlink:href="../../df/d1b/classefd_1_1NDValue.xhtml#a53ee724a8db3429bf30bb1936ad548b2" target="_top" xlink:title="Returns a copy to the setted value. ">
<polygon fill="none" stroke="black" points="309,-0.5 309,-19.5 419,-19.5 419,-0.5 309,-0.5"/>
<text text-anchor="middle" x="364" y="-7.5" font-family="Helvetica,sans-Serif" font-size="10.00">efd::NDValue::getVal</text>
</a>
</g>
</g>
<!-- Node56&#45;&gt;Node59 -->
<g id="edge6" class="edge"><title>Node56&#45;&gt;Node59</title>
<path fill="none" stroke="midnightblue" d="M249.356,-38.411C269.324,-33.4191 293.93,-27.2676 315.133,-21.9666"/>
<polygon fill="midnightblue" stroke="midnightblue" points="316.067,-25.341 324.92,-19.5201 314.369,-18.55 316.067,-25.341"/>
</g>
<!-- Node58 -->
<g id="node6" class="node"><title>Node58</title>
<g id="a_node6"><a xlink:href="../../d4/deb/namespaceefd.xhtml#a2cef687225e13315fc282dc40b5a6909" target="_top" xlink:title="Returns src cast to TargetTy, iff it is of class TargetTy, otherwise it will return nullptr...">
<polygon fill="none" stroke="black" points="455,-38.5 455,-57.5 528,-57.5 528,-38.5 455,-38.5"/>
<text text-anchor="middle" x="491.5" y="-45.5" font-family="Helvetica,sans-Serif" font-size="10.00">efd::dynCast</text>
</a>
</g>
</g>
<!-- Node57&#45;&gt;Node58 -->
<g id="edge5" class="edge"><title>Node57&#45;&gt;Node58</title>
<path fill="none" stroke="midnightblue" d="M413.522,-48C423.76,-48 434.532,-48 444.668,-48"/>
<polygon fill="midnightblue" stroke="midnightblue" points="444.951,-51.5001 454.951,-48 444.951,-44.5001 444.951,-51.5001"/>
</g>
</g>
</svg>
