<?xml version="1.0" encoding="UTF-8" standalone="no"?>
<!DOCTYPE svg PUBLIC "-//W3C//DTD SVG 1.1//EN"
 "http://www.w3.org/Graphics/SVG/1.1/DTD/svg11.dtd">
<!-- Generated by graphviz version 2.40.1 (20161225.0304)
 -->
<!-- Title: main Pages: 1 -->
<svg width="243pt" height="66pt"
 viewBox="0.00 0.00 243.00 66.00" xmlns="http://www.w3.org/2000/svg" xmlns:xlink="http://www.w3.org/1999/xlink">
<g id="graph0" class="graph" transform="scale(1 1) rotate(0) translate(4 62)">
<title>main</title>
<!-- Node0 -->
<g id="node1" class="node">
<title>Node0</title>
<polygon fill="#bfbfbf" stroke="#000000" points="0,-19.5 0,-38.5 41,-38.5 41,-19.5 0,-19.5"/>
<text text-anchor="middle" x="20.5" y="-26.5" font-family="Helvetica,sans-Serif" font-size="10.00" fill="#000000">main</text>
</g>
<!-- Node1 -->
<g id="node2" class="node">
<title>Node1</title>
<g id="a_node2"><a xlink:href="../../d4/deb/namespaceefd.xhtml#a033a77baa1aa02f207c7a918246aeb59" target="_top" xlink:title="Registers all available architectures in the register. ">
<polygon fill="none" stroke="#000000" points="77,-38.5 77,-57.5 235,-57.5 235,-38.5 77,-38.5"/>
<text text-anchor="middle" x="156" y="-45.5" font-family="Helvetica,sans-Serif" font-size="10.00" fill="#000000">efd::InitializeAllArchitectures</text>
</a>
</g>
</g>
<!-- Node0&#45;&gt;Node1 -->
<g id="edge1" class="edge">
<title>Node0&#45;&gt;Node1</title>
<path fill="none" stroke="#191970" d="M41.0795,-31.8857C51.3264,-33.3225 64.4311,-35.1601 78.0999,-37.0767"/>
<polygon fill="#191970" stroke="#191970" points="77.7306,-40.5591 88.1197,-38.4817 78.7027,-33.6269 77.7306,-40.5591"/>
</g>
<!-- Node2 -->
<g id="node3" class="node">
<title>Node2</title>
<g id="a_node3"><a xlink:href="../../d4/deb/namespaceefd.xhtml#a6bbed132b341f48d4aad4f970e3822bc" target="_top" xlink:title="Parses the command line arguments (this function should be used in the main function). ">
<polygon fill="none" stroke="#000000" points="96.5,-.5 96.5,-19.5 215.5,-19.5 215.5,-.5 96.5,-.5"/>
<text text-anchor="middle" x="156" y="-7.5" font-family="Helvetica,sans-Serif" font-size="10.00" fill="#000000">efd::ParseArguments</text>
</a>
</g>
</g>
<!-- Node0&#45;&gt;Node2 -->
<g id="edge2" class="edge">
<title>Node0&#45;&gt;Node2</title>
<path fill="none" stroke="#191970" d="M41.0795,-26.1143C53.3415,-24.3949 69.696,-22.1017 86.2121,-19.7858"/>
<polygon fill="#191970" stroke="#191970" points="87.0644,-23.2006 96.4815,-18.3458 86.0923,-16.2684 87.0644,-23.2006"/>
</g>
</g>
</svg>
