<?xml version="1.0" encoding="UTF-8" standalone="no"?>
<!DOCTYPE svg PUBLIC "-//W3C//DTD SVG 1.1//EN"
 "http://www.w3.org/Graphics/SVG/1.1/DTD/svg11.dtd">
<!-- Generated by graphviz version 2.38.0 (20140413.2041)
 -->
<!-- Title: include/enfield/Transform/Allocators/RandomMappingFinder.h Pages: 1 -->
<svg width="286pt" height="106pt"
 viewBox="0.00 0.00 285.50 106.00" xmlns="http://www.w3.org/2000/svg" xmlns:xlink="http://www.w3.org/1999/xlink">
<g id="graph0" class="graph" transform="scale(1 1) rotate(0) translate(4 102)">
<title>include/enfield/Transform/Allocators/RandomMappingFinder.h</title>
<!-- Node34 -->
<g id="node1" class="node"><title>Node34</title>
<polygon fill="#bfbfbf" stroke="black" points="46.5,-67.5 46.5,-97.5 221.5,-97.5 221.5,-67.5 46.5,-67.5"/>
<text text-anchor="start" x="54.5" y="-85.5" font-family="Helvetica,sans-Serif" font-size="10.00">include/enfield/Transform</text>
<text text-anchor="middle" x="134" y="-74.5" font-family="Helvetica,sans-Serif" font-size="10.00">/Allocators/RandomMappingFinder.h</text>
</g>
<!-- Node35 -->
<g id="node2" class="node"><title>Node35</title>
<g id="a_node2"><a xlink:href="../../dc/dea/Allocators_8cpp.xhtml" target="_top" xlink:title="lib/Transform/Allocators\l/Allocators.cpp">
<polygon fill="none" stroke="black" points="0,-0.5 0,-30.5 120,-30.5 120,-0.5 0,-0.5"/>
<text text-anchor="start" x="8" y="-18.5" font-family="Helvetica,sans-Serif" font-size="10.00">lib/Transform/Allocators</text>
<text text-anchor="middle" x="60" y="-7.5" font-family="Helvetica,sans-Serif" font-size="10.00">/Allocators.cpp</text>
</a>
</g>
</g>
<!-- Node34&#45;&gt;Node35 -->
<g id="edge1" class="edge"><title>Node34&#45;&gt;Node35</title>
<path fill="none" stroke="midnightblue" d="M110.204,-60.5978C99.0299,-50.7831 86.0072,-39.3442 76.0256,-30.5765"/>
<polygon fill="midnightblue" stroke="midnightblue" points="108.12,-63.4261 117.943,-67.396 112.74,-58.1669 108.12,-63.4261"/>
</g>
<!-- Node36 -->
<g id="node3" class="node"><title>Node36</title>
<g id="a_node3"><a xlink:href="../../d2/dd0/RandomMappingFinder_8cpp.xhtml" target="_top" xlink:title="lib/Transform/Allocators\l/RandomMappingFinder.cpp">
<polygon fill="none" stroke="black" points="138.5,-0.5 138.5,-30.5 277.5,-30.5 277.5,-0.5 138.5,-0.5"/>
<text text-anchor="start" x="146.5" y="-18.5" font-family="Helvetica,sans-Serif" font-size="10.00">lib/Transform/Allocators</text>
<text text-anchor="middle" x="208" y="-7.5" font-family="Helvetica,sans-Serif" font-size="10.00">/RandomMappingFinder.cpp</text>
</a>
</g>
</g>
<!-- Node34&#45;&gt;Node36 -->
<g id="edge2" class="edge"><title>Node34&#45;&gt;Node36</title>
<path fill="none" stroke="midnightblue" d="M157.796,-60.5978C168.97,-50.7831 181.993,-39.3442 191.974,-30.5765"/>
<polygon fill="midnightblue" stroke="midnightblue" points="155.26,-58.1669 150.057,-67.396 159.88,-63.4261 155.26,-58.1669"/>
</g>
</g>
</svg>
