<?xml version="1.0" encoding="UTF-8" standalone="no"?>
<!DOCTYPE svg PUBLIC "-//W3C//DTD SVG 1.1//EN"
 "http://www.w3.org/Graphics/SVG/1.1/DTD/svg11.dtd">
<!-- Generated by graphviz version 2.40.1 (20161225.0304)
 -->
<!-- Title: efd::ApproxTSFinder Pages: 1 -->
<svg width="133pt" height="152pt"
 viewBox="0.00 0.00 133.00 152.00" xmlns="http://www.w3.org/2000/svg" xmlns:xlink="http://www.w3.org/1999/xlink">
<g id="graph0" class="graph" transform="scale(1 1) rotate(0) translate(4 148)">
<title>efd::ApproxTSFinder</title>
<!-- Node2 -->
<g id="node1" class="node">
<title>Node2</title>
<polygon fill="#bfbfbf" stroke="#000000" points="5,-.5 5,-19.5 120,-19.5 120,-.5 5,-.5"/>
<text text-anchor="middle" x="62.5" y="-7.5" font-family="Helvetica,sans-Serif" font-size="10.00" fill="#000000">efd::ApproxTSFinder</text>
</g>
<!-- Node3 -->
<g id="node2" class="node">
<title>Node3</title>
<g id="a_node2"><a xlink:href="../../d1/dad/classefd_1_1TokenSwapFinder.xhtml" target="_top" xlink:title="Interface for solving the Token Swap Problem. ">
<polygon fill="none" stroke="#000000" points="0,-57.5 0,-76.5 125,-76.5 125,-57.5 0,-57.5"/>
<text text-anchor="middle" x="62.5" y="-64.5" font-family="Helvetica,sans-Serif" font-size="10.00" fill="#000000">efd::TokenSwapFinder</text>
</a>
</g>
</g>
<!-- Node3&#45;&gt;Node2 -->
<g id="edge1" class="edge">
<title>Node3&#45;&gt;Node2</title>
<path fill="none" stroke="#191970" d="M62.5,-47.2342C62.5,-37.8491 62.5,-27.0651 62.5,-19.5265"/>
<polygon fill="#191970" stroke="#191970" points="59.0001,-47.3307 62.5,-57.3307 66.0001,-47.3308 59.0001,-47.3307"/>
</g>
<!-- Node4 -->
<g id="node3" class="node">
<title>Node4</title>
<g id="a_node3"><a xlink:href="../../db/db3/classefd_1_1Graph.xhtml" target="_top" xlink:title="Graph representation. ">
<polygon fill="none" stroke="#000000" points="28.5,-124.5 28.5,-143.5 96.5,-143.5 96.5,-124.5 28.5,-124.5"/>
<text text-anchor="middle" x="62.5" y="-131.5" font-family="Helvetica,sans-Serif" font-size="10.00" fill="#000000">efd::Graph</text>
</a>
</g>
</g>
<!-- Node4&#45;&gt;Node3 -->
<g id="edge2" class="edge">
<title>Node4&#45;&gt;Node3</title>
<path fill="none" stroke="#9a32cd" stroke-dasharray="5,2" d="M62.5,-114.1079C62.5,-101.714 62.5,-86.3263 62.5,-76.5817"/>
<polygon fill="#9a32cd" stroke="#9a32cd" points="59.0001,-114.4005 62.5,-124.4005 66.0001,-114.4006 59.0001,-114.4005"/>
<text text-anchor="middle" x="73" y="-98" font-family="Helvetica,sans-Serif" font-size="10.00" fill="#000000"> mG</text>
</g>
</g>
</svg>
