<?xml version="1.0" encoding="UTF-8" standalone="no"?>
<!DOCTYPE svg PUBLIC "-//W3C//DTD SVG 1.1//EN"
 "http://www.w3.org/Graphics/SVG/1.1/DTD/svg11.dtd">
<!-- Generated by graphviz version 2.40.1 (20161225.0304)
 -->
<!-- Title: include/enfield/Transform/Allocators/BMT/DefaultBMTQAllocatorImpl.h Pages: 1 -->
<svg width="570pt" height="117pt"
 viewBox="0.00 0.00 569.50 117.00" xmlns="http://www.w3.org/2000/svg" xmlns:xlink="http://www.w3.org/1999/xlink">
<g id="graph0" class="graph" transform="scale(1 1) rotate(0) translate(4 113)">
<title>include/enfield/Transform/Allocators/BMT/DefaultBMTQAllocatorImpl.h</title>
<!-- Node32 -->
<g id="node1" class="node">
<title>Node32</title>
<polygon fill="#bfbfbf" stroke="#000000" points="147.5,-67.5 147.5,-108.5 350.5,-108.5 350.5,-67.5 147.5,-67.5"/>
<text text-anchor="start" x="155.5" y="-96.5" font-family="Helvetica,sans-Serif" font-size="10.00" fill="#000000">include/enfield/Transform</text>
<text text-anchor="start" x="155.5" y="-85.5" font-family="Helvetica,sans-Serif" font-size="10.00" fill="#000000">/Allocators/BMT/DefaultBMTQAllocator</text>
<text text-anchor="middle" x="249" y="-74.5" font-family="Helvetica,sans-Serif" font-size="10.00" fill="#000000">Impl.h</text>
</g>
<!-- Node33 -->
<g id="node2" class="node">
<title>Node33</title>
<g id="a_node2"><a xlink:href="../../dc/dea/Allocators_8cpp.xhtml" target="_top" xlink:title="lib/Transform/Allocators\l/Allocators.cpp">
<polygon fill="none" stroke="#000000" points="0,-.5 0,-30.5 134,-30.5 134,-.5 0,-.5"/>
<text text-anchor="start" x="8" y="-18.5" font-family="Helvetica,sans-Serif" font-size="10.00" fill="#000000">lib/Transform/Allocators</text>
<text text-anchor="middle" x="67" y="-7.5" font-family="Helvetica,sans-Serif" font-size="10.00" fill="#000000">/Allocators.cpp</text>
</a>
</g>
</g>
<!-- Node32&#45;&gt;Node33 -->
<g id="edge1" class="edge">
<title>Node32&#45;&gt;Node33</title>
<path fill="none" stroke="#191970" d="M187.8147,-63.6267C160.3719,-52.6948 128.8621,-40.1429 104.904,-30.5991"/>
<polygon fill="#191970" stroke="#191970" points="186.7476,-66.9691 197.3329,-67.4183 189.3382,-60.4661 186.7476,-66.9691"/>
</g>
<!-- Node34 -->
<g id="node3" class="node">
<title>Node34</title>
<g id="a_node3"><a xlink:href="../../d3/d95/DefaultBMTQAllocatorImpl_8cpp.xhtml" target="_top" xlink:title="lib/Transform/Allocators\l/BMT/DefaultBMTQAllocatorImpl.cpp">
<polygon fill="none" stroke="#000000" points="152,-.5 152,-30.5 346,-30.5 346,-.5 152,-.5"/>
<text text-anchor="start" x="160" y="-18.5" font-family="Helvetica,sans-Serif" font-size="10.00" fill="#000000">lib/Transform/Allocators</text>
<text text-anchor="middle" x="249" y="-7.5" font-family="Helvetica,sans-Serif" font-size="10.00" fill="#000000">/BMT/DefaultBMTQAllocatorImpl.cpp</text>
</a>
</g>
</g>
<!-- Node32&#45;&gt;Node34 -->
<g id="edge2" class="edge">
<title>Node32&#45;&gt;Node34</title>
<path fill="none" stroke="#191970" d="M249,-57.3279C249,-48.0871 249,-38.3508 249,-30.5991"/>
<polygon fill="#191970" stroke="#191970" points="245.5001,-57.4183 249,-67.4183 252.5001,-57.4184 245.5001,-57.4183"/>
</g>
<!-- Node35 -->
<g id="node4" class="node">
<title>Node35</title>
<g id="a_node4"><a xlink:href="../../d6/dab/BoundedMappingTreeQAllocator_8cpp.xhtml" target="_top" xlink:title="lib/Transform/Allocators\l/BoundedMappingTreeQAllocator.cpp">
<polygon fill="none" stroke="#000000" points="364.5,-.5 364.5,-30.5 561.5,-30.5 561.5,-.5 364.5,-.5"/>
<text text-anchor="start" x="372.5" y="-18.5" font-family="Helvetica,sans-Serif" font-size="10.00" fill="#000000">lib/Transform/Allocators</text>
<text text-anchor="middle" x="463" y="-7.5" font-family="Helvetica,sans-Serif" font-size="10.00" fill="#000000">/BoundedMappingTreeQAllocator.cpp</text>
</a>
</g>
</g>
<!-- Node32&#45;&gt;Node35 -->
<g id="edge3" class="edge">
<title>Node32&#45;&gt;Node35</title>
<path fill="none" stroke="#191970" d="M319.2567,-64.1981C351.914,-53.1343 389.769,-40.3096 418.4316,-30.5991"/>
<polygon fill="#191970" stroke="#191970" points="318.0996,-60.8946 309.7514,-67.4183 320.3457,-67.5245 318.0996,-60.8946"/>
</g>
</g>
</svg>
