<?xml version="1.0" encoding="UTF-8" standalone="no"?>
<!DOCTYPE svg PUBLIC "-//W3C//DTD SVG 1.1//EN"
 "http://www.w3.org/Graphics/SVG/1.1/DTD/svg11.dtd">
<!-- Generated by graphviz version 2.38.0 (20140413.2041)
 -->
<!-- Title: efd::NDIfStmt::cloneImpl Pages: 1 -->
<svg width="766pt" height="218pt"
 viewBox="0.00 0.00 766.00 218.00" xmlns="http://www.w3.org/2000/svg" xmlns:xlink="http://www.w3.org/1999/xlink">
<g id="graph0" class="graph" transform="scale(1 1) rotate(0) translate(4 214)">
<title>efd::NDIfStmt::cloneImpl</title>
<!-- Node8 -->
<g id="node1" class="node"><title>Node8</title>
<polygon fill="#bfbfbf" stroke="black" points="0,-95.5 0,-114.5 126,-114.5 126,-95.5 0,-95.5"/>
<text text-anchor="middle" x="63" y="-102.5" font-family="Helvetica,sans-Serif" font-size="10.00">efd::NDIfStmt::cloneImpl</text>
</g>
<!-- Node9 -->
<g id="node2" class="node"><title>Node9</title>
<g id="a_node2"><a xlink:href="../../d6/d6a/classefd_1_1Node.xhtml#a6c85c9bd21014b73497de741cc75f706" target="_top" xlink:title="Clones the current node (deep copy). ">
<polygon fill="none" stroke="black" points="182,-190.5 182,-209.5 271,-209.5 271,-190.5 182,-190.5"/>
<text text-anchor="middle" x="226.5" y="-197.5" font-family="Helvetica,sans-Serif" font-size="10.00">efd::Node::clone</text>
</a>
</g>
</g>
<!-- Node8&#45;&gt;Node9 -->
<g id="edge1" class="edge"><title>Node8&#45;&gt;Node9</title>
<path fill="none" stroke="midnightblue" d="M73.7178,-114.573C90.4095,-130.518 126.198,-162.58 162,-181 166.314,-183.219 170.928,-185.223 175.628,-187.022"/>
<polygon fill="midnightblue" stroke="midnightblue" points="174.731,-190.416 185.326,-190.43 177.052,-183.812 174.731,-190.416"/>
</g>
<!-- Node11 -->
<g id="node4" class="node"><title>Node11</title>
<g id="a_node4"><a xlink:href="../../dc/d9d/classefd_1_1NDIfStmt.xhtml#ac9549080de280c8c2181c64a7179a33b" target="_top" xlink:title="Creates a new instance of this node. ">
<polygon fill="none" stroke="black" points="170,-152.5 170,-171.5 283,-171.5 283,-152.5 170,-152.5"/>
<text text-anchor="middle" x="226.5" y="-159.5" font-family="Helvetica,sans-Serif" font-size="10.00">efd::NDIfStmt::Create</text>
</a>
</g>
</g>
<!-- Node8&#45;&gt;Node11 -->
<g id="edge3" class="edge"><title>Node8&#45;&gt;Node11</title>
<path fill="none" stroke="midnightblue" d="M87.174,-114.583C106.912,-122.602 136.108,-134.122 162,-143 168.436,-145.207 175.286,-147.408 182.016,-149.488"/>
<polygon fill="midnightblue" stroke="midnightblue" points="181.142,-152.88 191.728,-152.435 183.175,-146.182 181.142,-152.88"/>
</g>
<!-- Node16 -->
<g id="node9" class="node"><title>Node16</title>
<g id="a_node9"><a xlink:href="../../dc/d9d/classefd_1_1NDIfStmt.xhtml#a5ec6f243aee6d4fe8988885ea9c449de" target="_top" xlink:title="Gets the id inside the conditional. ">
<polygon fill="none" stroke="black" points="162,-114.5 162,-133.5 291,-133.5 291,-114.5 162,-114.5"/>
<text text-anchor="middle" x="226.5" y="-121.5" font-family="Helvetica,sans-Serif" font-size="10.00">efd::NDIfStmt::getCondId</text>
</a>
</g>
</g>
<!-- Node8&#45;&gt;Node16 -->
<g id="edge8" class="edge"><title>Node8&#45;&gt;Node16</title>
<path fill="none" stroke="midnightblue" d="M126.44,-112.346C134.798,-113.329 143.431,-114.345 151.957,-115.348"/>
<polygon fill="midnightblue" stroke="midnightblue" points="151.552,-118.824 161.893,-116.517 152.37,-111.872 151.552,-118.824"/>
</g>
<!-- Node18 -->
<g id="node11" class="node"><title>Node18</title>
<g id="a_node11"><a xlink:href="../../dc/d9d/classefd_1_1NDIfStmt.xhtml#a051a5c3f07d0d9d6177def933a4d71e6" target="_top" xlink:title="Gets the int inside the conditional. ">
<polygon fill="none" stroke="black" points="162.5,-76.5 162.5,-95.5 290.5,-95.5 290.5,-76.5 162.5,-76.5"/>
<text text-anchor="middle" x="226.5" y="-83.5" font-family="Helvetica,sans-Serif" font-size="10.00">efd::NDIfStmt::getCondN</text>
</a>
</g>
</g>
<!-- Node8&#45;&gt;Node18 -->
<g id="edge10" class="edge"><title>Node8&#45;&gt;Node18</title>
<path fill="none" stroke="midnightblue" d="M126.44,-97.6541C134.925,-96.6559 143.695,-95.6241 152.347,-94.6062"/>
<polygon fill="midnightblue" stroke="midnightblue" points="152.904,-98.0649 162.427,-93.4204 152.086,-91.1129 152.904,-98.0649"/>
</g>
<!-- Node19 -->
<g id="node12" class="node"><title>Node19</title>
<g id="a_node12"><a xlink:href="../../dc/d9d/classefd_1_1NDIfStmt.xhtml#ae5c408d49862e644f1d299ab5b2f121d" target="_top" xlink:title="Gets the qop. ">
<polygon fill="none" stroke="black" points="167.5,-38.5 167.5,-57.5 285.5,-57.5 285.5,-38.5 167.5,-38.5"/>
<text text-anchor="middle" x="226.5" y="-45.5" font-family="Helvetica,sans-Serif" font-size="10.00">efd::NDIfStmt::getQOp</text>
</a>
</g>
</g>
<!-- Node8&#45;&gt;Node19 -->
<g id="edge12" class="edge"><title>Node8&#45;&gt;Node19</title>
<path fill="none" stroke="midnightblue" d="M87.174,-95.4166C106.912,-87.3984 136.108,-75.8781 162,-67 168.436,-64.7933 175.286,-62.5924 182.016,-60.5123"/>
<polygon fill="midnightblue" stroke="midnightblue" points="183.175,-63.8182 191.728,-57.5647 181.142,-57.12 183.175,-63.8182"/>
</g>
<!-- Node20 -->
<g id="node13" class="node"><title>Node20</title>
<g id="a_node13"><a xlink:href="../../d4/deb/namespaceefd.xhtml#ad7adca0e4de58074aa3f91827469a491" target="_top" xlink:title="Uses the RTTI framework to cast forwardly an unique_ptr. ">
<polygon fill="none" stroke="black" points="166,-0.5 166,-19.5 287,-19.5 287,-0.5 166,-0.5"/>
<text text-anchor="middle" x="226.5" y="-7.5" font-family="Helvetica,sans-Serif" font-size="10.00">efd::uniqueCastForward</text>
</a>
</g>
</g>
<!-- Node8&#45;&gt;Node20 -->
<g id="edge14" class="edge"><title>Node8&#45;&gt;Node20</title>
<path fill="none" stroke="midnightblue" d="M73.7178,-95.4272C90.4095,-79.4819 126.198,-47.4199 162,-29 166.314,-26.7807 170.928,-24.777 175.628,-22.9782"/>
<polygon fill="midnightblue" stroke="midnightblue" points="177.052,-26.1879 185.326,-19.5702 174.731,-19.5838 177.052,-26.1879"/>
</g>
<!-- Node10 -->
<g id="node3" class="node"><title>Node10</title>
<g id="a_node3"><a xlink:href="../../d6/d6a/classefd_1_1Node.xhtml#ac078ce64eb404cfdc24b9288908536e4" target="_top" xlink:title="Clones the current node (deep copy). ">
<polygon fill="none" stroke="black" points="336.5,-190.5 336.5,-209.5 443.5,-209.5 443.5,-190.5 336.5,-190.5"/>
<text text-anchor="middle" x="390" y="-197.5" font-family="Helvetica,sans-Serif" font-size="10.00">efd::Node::cloneImpl</text>
</a>
</g>
</g>
<!-- Node9&#45;&gt;Node10 -->
<g id="edge2" class="edge"><title>Node9&#45;&gt;Node10</title>
<path fill="none" stroke="midnightblue" d="M271.204,-200C288.15,-200 307.876,-200 326.283,-200"/>
<polygon fill="midnightblue" stroke="midnightblue" points="326.348,-203.5 336.348,-200 326.348,-196.5 326.348,-203.5"/>
</g>
<!-- Node12 -->
<g id="node5" class="node"><title>Node12</title>
<g id="a_node5"><a xlink:href="../../dc/d9d/classefd_1_1NDIfStmt.xhtml#ab3189e49254cadc7f06b27a001c444e6" target="_top" xlink:title="efd::NDIfStmt::NDIfStmt">
<polygon fill="none" stroke="black" points="327,-152.5 327,-171.5 453,-171.5 453,-152.5 327,-152.5"/>
<text text-anchor="middle" x="390" y="-159.5" font-family="Helvetica,sans-Serif" font-size="10.00">efd::NDIfStmt::NDIfStmt</text>
</a>
</g>
</g>
<!-- Node11&#45;&gt;Node12 -->
<g id="edge4" class="edge"><title>Node11&#45;&gt;Node12</title>
<path fill="none" stroke="midnightblue" d="M283.079,-162C293.907,-162 305.406,-162 316.683,-162"/>
<polygon fill="midnightblue" stroke="midnightblue" points="316.951,-165.5 326.951,-162 316.951,-158.5 316.951,-165.5"/>
</g>
<!-- Node13 -->
<g id="node6" class="node"><title>Node13</title>
<g id="a_node6"><a xlink:href="../../d6/d6a/classefd_1_1Node.xhtml#a8ac8c3206c6f6817a8c8e515ac830f61" target="_top" xlink:title="Adds a child to this node. It should be used only for construction of each derived class...">
<polygon fill="none" stroke="black" points="489,-171.5 489,-190.5 615,-190.5 615,-171.5 489,-171.5"/>
<text text-anchor="middle" x="552" y="-178.5" font-family="Helvetica,sans-Serif" font-size="10.00">efd::Node::innerAddChild</text>
</a>
</g>
</g>
<!-- Node12&#45;&gt;Node13 -->
<g id="edge5" class="edge"><title>Node12&#45;&gt;Node13</title>
<path fill="none" stroke="midnightblue" d="M453.318,-169.4C461.706,-170.396 470.367,-171.425 478.907,-172.439"/>
<polygon fill="midnightblue" stroke="midnightblue" points="478.509,-175.916 488.852,-173.62 479.334,-168.965 478.509,-175.916"/>
</g>
<!-- Node15 -->
<g id="node8" class="node"><title>Node15</title>
<g id="a_node8"><a xlink:href="../../d6/d6a/classefd_1_1Node.xhtml#a09ac8cdf7898a3d17293d92ae956eece" target="_top" xlink:title="Constructs the node, initially empty (with no information). ">
<polygon fill="none" stroke="black" points="507.5,-133.5 507.5,-152.5 596.5,-152.5 596.5,-133.5 507.5,-133.5"/>
<text text-anchor="middle" x="552" y="-140.5" font-family="Helvetica,sans-Serif" font-size="10.00">efd::Node::Node</text>
</a>
</g>
</g>
<!-- Node12&#45;&gt;Node15 -->
<g id="edge7" class="edge"><title>Node12&#45;&gt;Node15</title>
<path fill="none" stroke="midnightblue" d="M453.318,-154.6C467.863,-152.872 483.229,-151.048 497.36,-149.37"/>
<polygon fill="midnightblue" stroke="midnightblue" points="497.884,-152.832 507.402,-148.177 497.059,-145.881 497.884,-152.832"/>
</g>
<!-- Node14 -->
<g id="node7" class="node"><title>Node14</title>
<g id="a_node7"><a xlink:href="../../d6/d6a/classefd_1_1Node.xhtml#a48e9d49d994b9023b8400316e2782e2b" target="_top" xlink:title="Sets the parent node of the current node. ">
<polygon fill="none" stroke="black" points="651,-171.5 651,-190.5 758,-190.5 758,-171.5 651,-171.5"/>
<text text-anchor="middle" x="704.5" y="-178.5" font-family="Helvetica,sans-Serif" font-size="10.00">efd::Node::setParent</text>
</a>
</g>
</g>
<!-- Node13&#45;&gt;Node14 -->
<g id="edge6" class="edge"><title>Node13&#45;&gt;Node14</title>
<path fill="none" stroke="midnightblue" d="M615.083,-181C623.488,-181 632.118,-181 640.538,-181"/>
<polygon fill="midnightblue" stroke="midnightblue" points="640.674,-184.5 650.674,-181 640.674,-177.5 640.674,-184.5"/>
</g>
<!-- Node17 -->
<g id="node10" class="node"><title>Node17</title>
<g id="a_node10"><a xlink:href="../../d4/deb/namespaceefd.xhtml#a2cef687225e13315fc282dc40b5a6909" target="_top" xlink:title="Returns src cast to TargetTy, iff it is of class TargetTy, otherwise it will return nullptr...">
<polygon fill="none" stroke="black" points="353.5,-76.5 353.5,-95.5 426.5,-95.5 426.5,-76.5 353.5,-76.5"/>
<text text-anchor="middle" x="390" y="-83.5" font-family="Helvetica,sans-Serif" font-size="10.00">efd::dynCast</text>
</a>
</g>
</g>
<!-- Node16&#45;&gt;Node17 -->
<g id="edge9" class="edge"><title>Node16&#45;&gt;Node17</title>
<path fill="none" stroke="midnightblue" d="M268.253,-114.411C291.229,-109.005 319.983,-102.239 343.668,-96.6663"/>
<polygon fill="midnightblue" stroke="midnightblue" points="344.544,-100.056 353.477,-94.3584 342.941,-93.2419 344.544,-100.056"/>
</g>
<!-- Node18&#45;&gt;Node17 -->
<g id="edge11" class="edge"><title>Node18&#45;&gt;Node17</title>
<path fill="none" stroke="midnightblue" d="M290.866,-86C308.263,-86 326.791,-86 343.008,-86"/>
<polygon fill="midnightblue" stroke="midnightblue" points="343.296,-89.5001 353.296,-86 343.296,-82.5001 343.296,-89.5001"/>
</g>
<!-- Node19&#45;&gt;Node17 -->
<g id="edge13" class="edge"><title>Node19&#45;&gt;Node17</title>
<path fill="none" stroke="midnightblue" d="M268.253,-57.589C291.229,-62.995 319.983,-69.7608 343.668,-75.3337"/>
<polygon fill="midnightblue" stroke="midnightblue" points="342.941,-78.7581 353.477,-77.6416 344.544,-71.9442 342.941,-78.7581"/>
</g>
</g>
</svg>
