<?xml version="1.0" encoding="UTF-8" standalone="no"?>
<!DOCTYPE svg PUBLIC "-//W3C//DTD SVG 1.1//EN"
 "http://www.w3.org/Graphics/SVG/1.1/DTD/svg11.dtd">
<!-- Generated by graphviz version 2.38.0 (20140413.2041)
 -->
<!-- Title: efd::NDIfStmt::toString Pages: 1 -->
<svg width="745pt" height="405pt"
 viewBox="0.00 0.00 745.00 405.00" xmlns="http://www.w3.org/2000/svg" xmlns:xlink="http://www.w3.org/1999/xlink">
<g id="graph0" class="graph" transform="scale(1 1) rotate(0) translate(4 401)">
<title>efd::NDIfStmt::toString</title>
<!-- Node43 -->
<g id="node1" class="node"><title>Node43</title>
<polygon fill="#bfbfbf" stroke="black" points="0,-95.5 0,-114.5 118,-114.5 118,-95.5 0,-95.5"/>
<text text-anchor="middle" x="59" y="-102.5" font-family="Helvetica,sans-Serif" font-size="10.00">efd::NDIfStmt::toString</text>
</g>
<!-- Node44 -->
<g id="node2" class="node"><title>Node44</title>
<g id="a_node2"><a xlink:href="../../dc/d9d/classefd_1_1NDIfStmt.xhtml#a5ec6f243aee6d4fe8988885ea9c449de" target="_top" xlink:title="Gets the id inside the conditional. ">
<polygon fill="none" stroke="black" points="499,-377.5 499,-396.5 628,-396.5 628,-377.5 499,-377.5"/>
<text text-anchor="middle" x="563.5" y="-384.5" font-family="Helvetica,sans-Serif" font-size="10.00">efd::NDIfStmt::getCondId</text>
</a>
</g>
</g>
<!-- Node43&#45;&gt;Node44 -->
<g id="edge1" class="edge"><title>Node43&#45;&gt;Node44</title>
<path fill="none" stroke="midnightblue" d="M64.0741,-114.531C75.3379,-140.052 109.062,-211.112 154,-257 219.208,-323.587 241.585,-341.529 330,-371 381.137,-388.045 442.016,-391.683 488.649,-391.251"/>
<polygon fill="midnightblue" stroke="midnightblue" points="488.731,-394.75 498.675,-391.094 488.621,-387.751 488.731,-394.75"/>
</g>
<!-- Node46 -->
<g id="node4" class="node"><title>Node46</title>
<g id="a_node4"><a xlink:href="../../dc/d9d/classefd_1_1NDIfStmt.xhtml#a051a5c3f07d0d9d6177def933a4d71e6" target="_top" xlink:title="Gets the int inside the conditional. ">
<polygon fill="none" stroke="black" points="160,-76.5 160,-95.5 288,-95.5 288,-76.5 160,-76.5"/>
<text text-anchor="middle" x="224" y="-83.5" font-family="Helvetica,sans-Serif" font-size="10.00">efd::NDIfStmt::getCondN</text>
</a>
</g>
</g>
<!-- Node43&#45;&gt;Node46 -->
<g id="edge3" class="edge"><title>Node43&#45;&gt;Node46</title>
<path fill="none" stroke="midnightblue" d="M118.386,-98.1942C128.563,-97.008 139.263,-95.7608 149.778,-94.5351"/>
<polygon fill="midnightblue" stroke="midnightblue" points="150.251,-98.0037 159.779,-93.3694 149.441,-91.0508 150.251,-98.0037"/>
</g>
<!-- Node47 -->
<g id="node5" class="node"><title>Node47</title>
<g id="a_node5"><a xlink:href="../../dc/d9d/classefd_1_1NDIfStmt.xhtml#addff40c34428c793195bdd6bbc7e8679" target="_top" xlink:title="Returns a std::string representation of the operation. ">
<polygon fill="none" stroke="black" points="154,-0.5 154,-19.5 294,-19.5 294,-0.5 154,-0.5"/>
<text text-anchor="middle" x="224" y="-7.5" font-family="Helvetica,sans-Serif" font-size="10.00">efd::NDIfStmt::getOperation</text>
</a>
</g>
</g>
<!-- Node43&#45;&gt;Node47 -->
<g id="edge5" class="edge"><title>Node43&#45;&gt;Node47</title>
<path fill="none" stroke="midnightblue" d="M69.1966,-95.319C85.0233,-79.2144 119.088,-46.9236 154,-29 158.513,-26.6831 163.341,-24.6219 168.27,-22.7939"/>
<polygon fill="midnightblue" stroke="midnightblue" points="169.467,-26.0839 177.815,-19.5598 167.22,-19.4541 169.467,-26.0839"/>
</g>
<!-- Node48 -->
<g id="node6" class="node"><title>Node48</title>
<g id="a_node6"><a xlink:href="../../dc/d9d/classefd_1_1NDIfStmt.xhtml#ae5c408d49862e644f1d299ab5b2f121d" target="_top" xlink:title="Gets the qop. ">
<polygon fill="none" stroke="black" points="165,-38.5 165,-57.5 283,-57.5 283,-38.5 165,-38.5"/>
<text text-anchor="middle" x="224" y="-45.5" font-family="Helvetica,sans-Serif" font-size="10.00">efd::NDIfStmt::getQOp</text>
</a>
</g>
</g>
<!-- Node43&#45;&gt;Node48 -->
<g id="edge6" class="edge"><title>Node43&#45;&gt;Node48</title>
<path fill="none" stroke="midnightblue" d="M81.7624,-95.3676C100.644,-87.2126 128.824,-75.5233 154,-67 160.877,-64.6717 168.21,-62.4163 175.433,-60.3218"/>
<polygon fill="midnightblue" stroke="midnightblue" points="176.488,-63.6608 185.159,-57.5738 174.585,-56.9245 176.488,-63.6608"/>
</g>
<!-- Node49 -->
<g id="node7" class="node"><title>Node49</title>
<g id="a_node7"><a xlink:href="../../df/d1b/classefd_1_1NDValue.xhtml#a9ded6b0d00e7ea4d748be60c5cc3632b" target="_top" xlink:title="Returns a std::string representation of this Node and its childrem. ">
<polygon fill="none" stroke="black" points="505.5,-114.5 505.5,-133.5 621.5,-133.5 621.5,-114.5 505.5,-114.5"/>
<text text-anchor="middle" x="563.5" y="-121.5" font-family="Helvetica,sans-Serif" font-size="10.00">efd::NDValue::toString</text>
</a>
</g>
</g>
<!-- Node43&#45;&gt;Node49 -->
<g id="edge8" class="edge"><title>Node43&#45;&gt;Node49</title>
<path fill="none" stroke="midnightblue" d="M118.134,-107.198C211.828,-110.741 395.742,-117.695 495.056,-121.45"/>
<polygon fill="midnightblue" stroke="midnightblue" points="495.149,-124.956 505.274,-121.836 495.413,-117.961 495.149,-124.956"/>
</g>
<!-- Node50 -->
<g id="node8" class="node"><title>Node50</title>
<g id="a_node8"><a xlink:href="../../dd/d94/classefd_1_1NDQOp.xhtml#ad05708f36f7c1c126e9f0fbba80a4b0f" target="_top" xlink:title="Returns a std::string representation of this Node and its childrem. ">
<polygon fill="none" stroke="black" points="168.5,-228.5 168.5,-247.5 279.5,-247.5 279.5,-228.5 168.5,-228.5"/>
<text text-anchor="middle" x="224" y="-235.5" font-family="Helvetica,sans-Serif" font-size="10.00">efd::NDQOp::toString</text>
</a>
</g>
</g>
<!-- Node43&#45;&gt;Node50 -->
<g id="edge9" class="edge"><title>Node43&#45;&gt;Node50</title>
<path fill="none" stroke="midnightblue" d="M71.7226,-114.565C99.3131,-137.078 168.609,-193.62 202.999,-221.68"/>
<polygon fill="midnightblue" stroke="midnightblue" points="200.983,-224.553 210.944,-228.163 205.409,-219.129 200.983,-224.553"/>
</g>
<!-- Node45 -->
<g id="node3" class="node"><title>Node45</title>
<g id="a_node3"><a xlink:href="../../d4/deb/namespaceefd.xhtml#a2cef687225e13315fc282dc40b5a6909" target="_top" xlink:title="Returns src cast to TargetTy, iff it is of class TargetTy, otherwise it will return nullptr...">
<polygon fill="none" stroke="black" points="664,-223.5 664,-242.5 737,-242.5 737,-223.5 664,-223.5"/>
<text text-anchor="middle" x="700.5" y="-230.5" font-family="Helvetica,sans-Serif" font-size="10.00">efd::dynCast</text>
</a>
</g>
</g>
<!-- Node44&#45;&gt;Node45 -->
<g id="edge2" class="edge"><title>Node44&#45;&gt;Node45</title>
<path fill="none" stroke="midnightblue" d="M599.521,-377.479C609.517,-373.552 619.886,-368.189 628,-361 662.144,-330.75 683.523,-280.125 693.276,-252.476"/>
<polygon fill="midnightblue" stroke="midnightblue" points="696.666,-253.375 696.548,-242.781 690.034,-251.137 696.666,-253.375"/>
</g>
<!-- Node46&#45;&gt;Node45 -->
<g id="edge4" class="edge"><title>Node46&#45;&gt;Node45</title>
<path fill="none" stroke="midnightblue" d="M288.089,-81.7051C386.982,-76.1633 572.909,-70.901 628,-105 667.535,-129.471 687.054,-184.188 694.992,-213.53"/>
<polygon fill="midnightblue" stroke="midnightblue" points="691.646,-214.576 697.485,-223.417 698.434,-212.865 691.646,-214.576"/>
</g>
<!-- Node48&#45;&gt;Node45 -->
<g id="edge7" class="edge"><title>Node48&#45;&gt;Node45</title>
<path fill="none" stroke="midnightblue" d="M264.791,-38.4867C342.412,-22.3602 516.2,1.54322 628,-76 674.654,-108.358 691.42,-178.885 696.98,-213.308"/>
<polygon fill="midnightblue" stroke="midnightblue" points="693.558,-214.099 698.462,-223.491 700.485,-213.091 693.558,-214.099"/>
</g>
<!-- Node51 -->
<g id="node9" class="node"><title>Node51</title>
<g id="a_node9"><a xlink:href="../../dd/d94/classefd_1_1NDQOp.xhtml#a7b6a0fcfa45267ae4a005d44e6e52102" target="_top" xlink:title="Returns a std::string representation of the operation. ">
<polygon fill="none" stroke="black" points="330,-152.5 330,-171.5 463,-171.5 463,-152.5 330,-152.5"/>
<text text-anchor="middle" x="396.5" y="-159.5" font-family="Helvetica,sans-Serif" font-size="10.00">efd::NDQOp::getOperation</text>
</a>
</g>
</g>
<!-- Node50&#45;&gt;Node51 -->
<g id="edge10" class="edge"><title>Node50&#45;&gt;Node51</title>
<path fill="none" stroke="midnightblue" d="M240.142,-228.424C260.106,-216.119 296.617,-194.716 330,-181 335.543,-178.723 341.454,-176.603 347.371,-174.668"/>
<polygon fill="midnightblue" stroke="midnightblue" points="348.761,-177.901 357.271,-171.591 346.683,-171.217 348.761,-177.901"/>
</g>
<!-- Node53 -->
<g id="node11" class="node"><title>Node53</title>
<g id="a_node11"><a xlink:href="../../dd/d94/classefd_1_1NDQOp.xhtml#a38dbbb3a5ca8faaeb9973512f04c6f64" target="_top" xlink:title="Gets the arguments. ">
<polygon fill="none" stroke="black" points="341,-304.5 341,-323.5 452,-323.5 452,-304.5 341,-304.5"/>
<text text-anchor="middle" x="396.5" y="-311.5" font-family="Helvetica,sans-Serif" font-size="10.00">efd::NDQOp::getArgs</text>
</a>
</g>
</g>
<!-- Node50&#45;&gt;Node53 -->
<g id="edge14" class="edge"><title>Node50&#45;&gt;Node53</title>
<path fill="none" stroke="midnightblue" d="M242.93,-247.625C263.612,-258.553 298.784,-276.598 330,-290 338.908,-293.824 348.649,-297.604 357.832,-300.992"/>
<polygon fill="midnightblue" stroke="midnightblue" points="356.916,-304.383 367.511,-304.499 359.301,-297.802 356.916,-304.383"/>
</g>
<!-- Node54 -->
<g id="node12" class="node"><title>Node54</title>
<g id="a_node12"><a xlink:href="../../d6/d6a/classefd_1_1Node.xhtml#a3f8e26eafae005e4befadedeab9b6df4" target="_top" xlink:title="Returns whether this node has any information. ">
<polygon fill="none" stroke="black" points="346,-228.5 346,-247.5 447,-247.5 447,-228.5 346,-228.5"/>
<text text-anchor="middle" x="396.5" y="-235.5" font-family="Helvetica,sans-Serif" font-size="10.00">efd::Node::isEmpty</text>
</a>
</g>
</g>
<!-- Node50&#45;&gt;Node54 -->
<g id="edge16" class="edge"><title>Node50&#45;&gt;Node54</title>
<path fill="none" stroke="midnightblue" d="M279.886,-238C297.709,-238 317.569,-238 335.73,-238"/>
<polygon fill="midnightblue" stroke="midnightblue" points="335.909,-241.5 345.909,-238 335.909,-234.5 335.909,-241.5"/>
</g>
<!-- Node55 -->
<g id="node13" class="node"><title>Node55</title>
<g id="a_node13"><a xlink:href="../../d6/d6a/classefd_1_1Node.xhtml#a96ca13a5c2b971b68619ce4a34be0f66" target="_top" xlink:title="Returns a std::string representation of this Node and its childrem. ">
<polygon fill="none" stroke="black" points="514,-247.5 514,-266.5 613,-266.5 613,-247.5 514,-247.5"/>
<text text-anchor="middle" x="563.5" y="-254.5" font-family="Helvetica,sans-Serif" font-size="10.00">efd::Node::toString</text>
</a>
</g>
</g>
<!-- Node50&#45;&gt;Node55 -->
<g id="edge17" class="edge"><title>Node50&#45;&gt;Node55</title>
<path fill="none" stroke="midnightblue" d="M267.677,-247.512C286.654,-251.277 309.335,-255.145 330,-257 388.991,-262.294 456.741,-261.519 503.829,-259.894"/>
<polygon fill="midnightblue" stroke="midnightblue" points="503.985,-263.39 513.849,-259.524 503.727,-256.395 503.985,-263.39"/>
</g>
<!-- Node56 -->
<g id="node14" class="node"><title>Node56</title>
<g id="a_node14"><a xlink:href="../../dd/d94/classefd_1_1NDQOp.xhtml#af7ef43289355c5bb047a46419177c8ed" target="_top" xlink:title="Gets the quantum arguments. ">
<polygon fill="none" stroke="black" points="337,-342.5 337,-361.5 456,-361.5 456,-342.5 337,-342.5"/>
<text text-anchor="middle" x="396.5" y="-349.5" font-family="Helvetica,sans-Serif" font-size="10.00">efd::NDQOp::getQArgs</text>
</a>
</g>
</g>
<!-- Node50&#45;&gt;Node56 -->
<g id="edge18" class="edge"><title>Node50&#45;&gt;Node56</title>
<path fill="none" stroke="midnightblue" d="M232.913,-247.633C249.127,-266.749 288.137,-309.645 330,-333 333.945,-335.201 338.17,-337.168 342.502,-338.922"/>
<polygon fill="midnightblue" stroke="midnightblue" points="341.5,-342.282 352.093,-342.429 343.904,-335.708 341.5,-342.282"/>
</g>
<!-- Node57 -->
<g id="node15" class="node"><title>Node57</title>
<g id="a_node15"><a xlink:href="../../da/ddd/classefd_1_1NDList.xhtml#acfa25f299fc8d811fcada96273aa8550" target="_top" xlink:title="Returns a std::string representation of this Node and its childrem. ">
<polygon fill="none" stroke="black" points="343,-190.5 343,-209.5 450,-209.5 450,-190.5 343,-190.5"/>
<text text-anchor="middle" x="396.5" y="-197.5" font-family="Helvetica,sans-Serif" font-size="10.00">efd::NDList::toString</text>
</a>
</g>
</g>
<!-- Node50&#45;&gt;Node57 -->
<g id="edge20" class="edge"><title>Node50&#45;&gt;Node57</title>
<path fill="none" stroke="midnightblue" d="M268.024,-228.411C290.726,-223.351 318.773,-217.1 342.774,-211.751"/>
<polygon fill="midnightblue" stroke="midnightblue" points="343.786,-215.112 352.785,-209.52 342.263,-208.279 343.786,-215.112"/>
</g>
<!-- Node51&#45;&gt;Node49 -->
<g id="edge13" class="edge"><title>Node51&#45;&gt;Node49</title>
<path fill="none" stroke="midnightblue" d="M439.136,-152.411C461.008,-147.374 488.006,-141.156 511.164,-135.823"/>
<polygon fill="midnightblue" stroke="midnightblue" points="512.204,-139.175 521.163,-133.52 510.633,-132.354 512.204,-139.175"/>
</g>
<!-- Node52 -->
<g id="node10" class="node"><title>Node52</title>
<g id="a_node10"><a xlink:href="../../dd/d94/classefd_1_1NDQOp.xhtml#aa9d90f493865fe9cdc3fecd468eaa33b" target="_top" xlink:title="Gets the id. ">
<polygon fill="none" stroke="black" points="514,-152.5 514,-171.5 613,-171.5 613,-152.5 514,-152.5"/>
<text text-anchor="middle" x="563.5" y="-159.5" font-family="Helvetica,sans-Serif" font-size="10.00">efd::NDQOp::getId</text>
</a>
</g>
</g>
<!-- Node51&#45;&gt;Node52 -->
<g id="edge11" class="edge"><title>Node51&#45;&gt;Node52</title>
<path fill="none" stroke="midnightblue" d="M463.186,-162C476.518,-162 490.461,-162 503.543,-162"/>
<polygon fill="midnightblue" stroke="midnightblue" points="503.821,-165.5 513.821,-162 503.821,-158.5 503.821,-165.5"/>
</g>
<!-- Node52&#45;&gt;Node45 -->
<g id="edge12" class="edge"><title>Node52&#45;&gt;Node45</title>
<path fill="none" stroke="midnightblue" d="M603.914,-171.532C612.074,-174.126 620.472,-177.272 628,-181 647.364,-190.588 667.054,-205.357 680.855,-216.708"/>
<polygon fill="midnightblue" stroke="midnightblue" points="678.728,-219.493 688.631,-223.258 683.237,-214.139 678.728,-219.493"/>
</g>
<!-- Node53&#45;&gt;Node45 -->
<g id="edge15" class="edge"><title>Node53&#45;&gt;Node45</title>
<path fill="none" stroke="midnightblue" d="M452.069,-310.817C499.73,-306.685 570.141,-297.279 628,-276 646.178,-269.315 664.872,-257.882 678.585,-248.486"/>
<polygon fill="midnightblue" stroke="midnightblue" points="680.668,-251.3 686.821,-242.675 676.632,-245.58 680.668,-251.3"/>
</g>
<!-- Node56&#45;&gt;Node45 -->
<g id="edge19" class="edge"><title>Node56&#45;&gt;Node45</title>
<path fill="none" stroke="midnightblue" d="M456.044,-349.023C504.615,-344.46 574.185,-332.954 628,-304 652.177,-290.992 673.582,-267.25 686.527,-250.823"/>
<polygon fill="midnightblue" stroke="midnightblue" points="689.542,-252.642 692.813,-242.565 683.972,-248.402 689.542,-252.642"/>
</g>
<!-- Node57&#45;&gt;Node55 -->
<g id="edge22" class="edge"><title>Node57&#45;&gt;Node55</title>
<path fill="none" stroke="midnightblue" d="M432.339,-209.528C442.294,-212.407 453.121,-215.687 463,-219 485.394,-226.51 510.212,-235.986 529.46,-243.597"/>
<polygon fill="midnightblue" stroke="midnightblue" points="528.39,-246.938 538.976,-247.386 530.98,-240.435 528.39,-246.938"/>
</g>
<!-- Node58 -->
<g id="node16" class="node"><title>Node58</title>
<g id="a_node16"><a xlink:href="../../d6/d6a/classefd_1_1Node.xhtml#a63e30243eca03b0c85d8c4856e91c79d" target="_top" xlink:title="Gets the i&#45;th child. ">
<polygon fill="none" stroke="black" points="513,-190.5 513,-209.5 614,-209.5 614,-190.5 513,-190.5"/>
<text text-anchor="middle" x="563.5" y="-197.5" font-family="Helvetica,sans-Serif" font-size="10.00">efd::Node::getChild</text>
</a>
</g>
</g>
<!-- Node57&#45;&gt;Node58 -->
<g id="edge21" class="edge"><title>Node57&#45;&gt;Node58</title>
<path fill="none" stroke="midnightblue" d="M450.161,-200C466.797,-200 485.303,-200 502.418,-200"/>
<polygon fill="midnightblue" stroke="midnightblue" points="502.864,-203.5 512.864,-200 502.864,-196.5 502.864,-203.5"/>
</g>
</g>
</svg>
