<?xml version="1.0" encoding="UTF-8" standalone="no"?>
<!DOCTYPE svg PUBLIC "-//W3C//DTD SVG 1.1//EN"
 "http://www.w3.org/Graphics/SVG/1.1/DTD/svg11.dtd">
<!-- Generated by graphviz version 2.38.0 (20140413.2041)
 -->
<!-- Title: lib/Analysis/ParserHelper.cpp Pages: 1 -->
<svg width="592pt" height="319pt"
 viewBox="0.00 0.00 591.64 319.00" xmlns="http://www.w3.org/2000/svg" xmlns:xlink="http://www.w3.org/1999/xlink">
<g id="graph0" class="graph" transform="scale(1 1) rotate(0) translate(4 315)">
<title>lib/Analysis/ParserHelper.cpp</title>
<!-- Node0 -->
<g id="node1" class="node"><title>Node0</title>
<polygon fill="#bfbfbf" stroke="black" points="330.636,-291.5 330.636,-310.5 476.636,-310.5 476.636,-291.5 330.636,-291.5"/>
<text text-anchor="middle" x="403.636" y="-298.5" font-family="Helvetica,sans-Serif" font-size="10.00">lib/Analysis/ParserHelper.cpp</text>
</g>
<!-- Node1 -->
<g id="node2" class="node"><title>Node1</title>
<g id="a_node2"><a xlink:href="../../d9/d41/CommandLine_8h.xhtml" target="_top" xlink:title="enfield/Support/CommandLine.h">
<polygon fill="none" stroke="black" points="187.636,-235.5 187.636,-254.5 343.636,-254.5 343.636,-235.5 187.636,-235.5"/>
<text text-anchor="middle" x="265.636" y="-242.5" font-family="Helvetica,sans-Serif" font-size="10.00">enfield/Support/CommandLine.h</text>
</a>
</g>
</g>
<!-- Node0&#45;&gt;Node1 -->
<g id="edge1" class="edge"><title>Node0&#45;&gt;Node1</title>
<path fill="none" stroke="midnightblue" d="M381.769,-291.444C358.856,-282.478 322.661,-268.314 296.769,-258.183"/>
<polygon fill="midnightblue" stroke="midnightblue" points="297.988,-254.901 287.4,-254.516 295.437,-261.42 297.988,-254.901"/>
</g>
<!-- Node14 -->
<g id="node15" class="node"><title>Node14</title>
<polygon fill="none" stroke="#bfbfbf" points="362.136,-235.5 362.136,-254.5 445.136,-254.5 445.136,-235.5 362.136,-235.5"/>
<text text-anchor="middle" x="403.636" y="-242.5" font-family="Helvetica,sans-Serif" font-size="10.00">unordered_map</text>
</g>
<!-- Node0&#45;&gt;Node14 -->
<g id="edge17" class="edge"><title>Node0&#45;&gt;Node14</title>
<path fill="none" stroke="midnightblue" d="M403.636,-291.083C403.636,-284.006 403.636,-273.861 403.636,-264.986"/>
<polygon fill="midnightblue" stroke="midnightblue" points="407.136,-264.751 403.636,-254.751 400.136,-264.751 407.136,-264.751"/>
</g>
<!-- Node15 -->
<g id="node16" class="node"><title>Node15</title>
<g id="a_node16"><a xlink:href="../../d1/d27/qelib1_8inc.xhtml" target="_top" xlink:title="enfield/StdLib/qelib1.inc">
<polygon fill="none" stroke="black" points="463.636,-235.5 463.636,-254.5 583.636,-254.5 583.636,-235.5 463.636,-235.5"/>
<text text-anchor="middle" x="523.636" y="-242.5" font-family="Helvetica,sans-Serif" font-size="10.00">enfield/StdLib/qelib1.inc</text>
</a>
</g>
</g>
<!-- Node0&#45;&gt;Node15 -->
<g id="edge18" class="edge"><title>Node0&#45;&gt;Node15</title>
<path fill="none" stroke="midnightblue" d="M422.65,-291.444C442.223,-282.636 472.943,-268.812 495.365,-258.722"/>
<polygon fill="midnightblue" stroke="midnightblue" points="497.027,-261.812 504.71,-254.516 494.155,-255.428 497.027,-261.812"/>
</g>
<!-- Node2 -->
<g id="node3" class="node"><title>Node2</title>
<g id="a_node3"><a xlink:href="../../d1/d5e/PossibleValuesListTrait_8h.xhtml" target="_top" xlink:title="enfield/Support/Possible\lValuesListTrait.h">
<polygon fill="none" stroke="black" points="110.636,-168.5 110.636,-198.5 232.636,-198.5 232.636,-168.5 110.636,-168.5"/>
<text text-anchor="start" x="118.636" y="-186.5" font-family="Helvetica,sans-Serif" font-size="10.00">enfield/Support/Possible</text>
<text text-anchor="middle" x="171.636" y="-175.5" font-family="Helvetica,sans-Serif" font-size="10.00">ValuesListTrait.h</text>
</a>
</g>
</g>
<!-- Node1&#45;&gt;Node2 -->
<g id="edge2" class="edge"><title>Node1&#45;&gt;Node2</title>
<path fill="none" stroke="midnightblue" d="M252.168,-235.475C239.199,-227.266 219.122,-214.558 202.26,-203.885"/>
<polygon fill="midnightblue" stroke="midnightblue" points="204.111,-200.914 193.79,-198.523 200.367,-206.829 204.111,-200.914"/>
</g>
<!-- Node5 -->
<g id="node6" class="node"><title>Node5</title>
<polygon fill="none" stroke="#bfbfbf" points="123.636,-0.5 123.636,-19.5 167.636,-19.5 167.636,-0.5 123.636,-0.5"/>
<text text-anchor="middle" x="145.636" y="-7.5" font-family="Helvetica,sans-Serif" font-size="10.00">vector</text>
</g>
<!-- Node1&#45;&gt;Node5 -->
<g id="edge14" class="edge"><title>Node1&#45;&gt;Node5</title>
<path fill="none" stroke="midnightblue" d="M199.042,-235.443C167.574,-229.065 130.645,-218.025 101.636,-199 42.9546,-160.517 25.9622,-142.184 2.63579,-76 -13.9666,-28.8941 66.3783,-15.9206 113.451,-12.3514"/>
<polygon fill="midnightblue" stroke="midnightblue" points="113.755,-15.8391 123.505,-11.6923 113.297,-8.85412 113.755,-15.8391"/>
</g>
<!-- Node11 -->
<g id="node12" class="node"><title>Node11</title>
<polygon fill="none" stroke="#bfbfbf" points="326.136,-56.5 326.136,-75.5 375.136,-75.5 375.136,-56.5 326.136,-56.5"/>
<text text-anchor="middle" x="350.636" y="-63.5" font-family="Helvetica,sans-Serif" font-size="10.00">cassert</text>
</g>
<!-- Node1&#45;&gt;Node11 -->
<g id="edge15" class="edge"><title>Node1&#45;&gt;Node11</title>
<path fill="none" stroke="midnightblue" d="M266.849,-235.26C269.067,-220.797 274.508,-191.181 284.636,-168 298.608,-136.019 322.349,-102.885 337.226,-83.6448"/>
<polygon fill="midnightblue" stroke="midnightblue" points="340.116,-85.6312 343.552,-75.609 334.616,-81.301 340.116,-85.6312"/>
</g>
<!-- Node12 -->
<g id="node13" class="node"><title>Node12</title>
<polygon fill="none" stroke="#bfbfbf" points="294.136,-174 294.136,-193 335.136,-193 335.136,-174 294.136,-174"/>
<text text-anchor="middle" x="314.636" y="-181" font-family="Helvetica,sans-Serif" font-size="10.00">string</text>
</g>
<!-- Node1&#45;&gt;Node12 -->
<g id="edge13" class="edge"><title>Node1&#45;&gt;Node12</title>
<path fill="none" stroke="midnightblue" d="M272.656,-235.475C280.079,-226.462 291.968,-212.025 301.203,-200.812"/>
<polygon fill="midnightblue" stroke="midnightblue" points="303.973,-202.953 307.628,-193.009 298.569,-198.503 303.973,-202.953"/>
</g>
<!-- Node13 -->
<g id="node14" class="node"><title>Node13</title>
<polygon fill="none" stroke="#bfbfbf" points="353.636,-174 353.636,-193 405.636,-193 405.636,-174 353.636,-174"/>
<text text-anchor="middle" x="379.636" y="-181" font-family="Helvetica,sans-Serif" font-size="10.00">memory</text>
</g>
<!-- Node1&#45;&gt;Node13 -->
<g id="edge16" class="edge"><title>Node1&#45;&gt;Node13</title>
<path fill="none" stroke="midnightblue" d="M281.969,-235.475C300.847,-225.622 332.142,-209.288 354.211,-197.77"/>
<polygon fill="midnightblue" stroke="midnightblue" points="356.087,-200.739 363.333,-193.009 352.848,-194.533 356.087,-200.739"/>
</g>
<!-- Node3 -->
<g id="node4" class="node"><title>Node3</title>
<g id="a_node4"><a xlink:href="../../dd/d62/EnumString_8h.xhtml" target="_top" xlink:title="enfield/Support/EnumString.h">
<polygon fill="none" stroke="black" points="93.6358,-112.5 93.6358,-131.5 237.636,-131.5 237.636,-112.5 93.6358,-112.5"/>
<text text-anchor="middle" x="165.636" y="-119.5" font-family="Helvetica,sans-Serif" font-size="10.00">enfield/Support/EnumString.h</text>
</a>
</g>
</g>
<!-- Node2&#45;&gt;Node3 -->
<g id="edge3" class="edge"><title>Node2&#45;&gt;Node3</title>
<path fill="none" stroke="midnightblue" d="M170.214,-168.399C169.414,-160.466 168.405,-150.458 167.537,-141.858"/>
<polygon fill="midnightblue" stroke="midnightblue" points="170.995,-141.256 166.509,-131.658 164.03,-141.959 170.995,-141.256"/>
</g>
<!-- Node4 -->
<g id="node5" class="node"><title>Node4</title>
<g id="a_node5"><a xlink:href="../../d1/d73/Defs_8h.xhtml" target="_top" xlink:title="enfield/Support/Defs.h">
<polygon fill="none" stroke="black" points="193.636,-56.5 193.636,-75.5 307.636,-75.5 307.636,-56.5 193.636,-56.5"/>
<text text-anchor="middle" x="250.636" y="-63.5" font-family="Helvetica,sans-Serif" font-size="10.00">enfield/Support/Defs.h</text>
</a>
</g>
</g>
<!-- Node3&#45;&gt;Node4 -->
<g id="edge4" class="edge"><title>Node3&#45;&gt;Node4</title>
<path fill="none" stroke="midnightblue" d="M179.293,-112.324C192.552,-103.9 212.904,-90.9709 228.482,-81.0741"/>
<polygon fill="midnightblue" stroke="midnightblue" points="230.449,-83.9711 237.013,-75.6545 226.695,-78.0626 230.449,-83.9711"/>
</g>
<!-- Node3&#45;&gt;Node5 -->
<g id="edge9" class="edge"><title>Node3&#45;&gt;Node5</title>
<path fill="none" stroke="midnightblue" d="M164.066,-112.368C160.839,-94.617 153.393,-53.6664 149.017,-29.5974"/>
<polygon fill="midnightblue" stroke="midnightblue" points="152.43,-28.804 147.198,-19.5914 145.543,-30.0562 152.43,-28.804"/>
</g>
<!-- Node9 -->
<g id="node10" class="node"><title>Node9</title>
<polygon fill="none" stroke="#bfbfbf" points="11.6358,-56.5 11.6358,-75.5 67.6358,-75.5 67.6358,-56.5 11.6358,-56.5"/>
<text text-anchor="middle" x="39.6358" y="-63.5" font-family="Helvetica,sans-Serif" font-size="10.00">algorithm</text>
</g>
<!-- Node3&#45;&gt;Node9 -->
<g id="edge10" class="edge"><title>Node3&#45;&gt;Node9</title>
<path fill="none" stroke="midnightblue" d="M145.671,-112.444C125.027,-103.596 92.5733,-89.6875 69.0042,-79.5865"/>
<polygon fill="midnightblue" stroke="midnightblue" points="70.0777,-76.2387 59.5075,-75.5164 67.3202,-82.6727 70.0777,-76.2387"/>
</g>
<!-- Node10 -->
<g id="node11" class="node"><title>Node10</title>
<polygon fill="none" stroke="#bfbfbf" points="86.1358,-56.5 86.1358,-75.5 137.136,-75.5 137.136,-56.5 86.1358,-56.5"/>
<text text-anchor="middle" x="111.636" y="-63.5" font-family="Helvetica,sans-Serif" font-size="10.00">typeinfo</text>
</g>
<!-- Node3&#45;&gt;Node10 -->
<g id="edge11" class="edge"><title>Node3&#45;&gt;Node10</title>
<path fill="none" stroke="midnightblue" d="M156.719,-112.083C148.855,-104.22 137.205,-92.5688 127.717,-83.0813"/>
<polygon fill="midnightblue" stroke="midnightblue" points="129.933,-80.3473 120.387,-75.7511 124.983,-85.2971 129.933,-80.3473"/>
</g>
<!-- Node3&#45;&gt;Node11 -->
<g id="edge12" class="edge"><title>Node3&#45;&gt;Node11</title>
<path fill="none" stroke="midnightblue" d="M194.95,-112.444C227.869,-102.835 281.241,-87.2558 316.142,-77.0686"/>
<polygon fill="midnightblue" stroke="midnightblue" points="317.281,-80.3822 325.9,-74.2203 315.319,-73.6626 317.281,-80.3822"/>
</g>
<!-- Node4&#45;&gt;Node5 -->
<g id="edge5" class="edge"><title>Node4&#45;&gt;Node5</title>
<path fill="none" stroke="midnightblue" d="M233.766,-56.324C216.927,-47.6641 190.829,-34.2424 171.398,-24.249"/>
<polygon fill="midnightblue" stroke="midnightblue" points="172.958,-21.1155 162.464,-19.6545 169.756,-27.3405 172.958,-21.1155"/>
</g>
<!-- Node6 -->
<g id="node7" class="node"><title>Node6</title>
<polygon fill="none" stroke="#bfbfbf" points="185.636,-0.5 185.636,-19.5 231.636,-19.5 231.636,-0.5 185.636,-0.5"/>
<text text-anchor="middle" x="208.636" y="-7.5" font-family="Helvetica,sans-Serif" font-size="10.00">cstdint</text>
</g>
<!-- Node4&#45;&gt;Node6 -->
<g id="edge6" class="edge"><title>Node4&#45;&gt;Node6</title>
<path fill="none" stroke="midnightblue" d="M243.7,-56.083C237.707,-48.3768 228.884,-37.0333 221.588,-27.6531"/>
<polygon fill="midnightblue" stroke="midnightblue" points="224.344,-25.4958 215.442,-19.7511 218.819,-29.7934 224.344,-25.4958"/>
</g>
<!-- Node7 -->
<g id="node8" class="node"><title>Node7</title>
<polygon fill="none" stroke="#bfbfbf" points="249.636,-0.5 249.636,-19.5 289.636,-19.5 289.636,-0.5 249.636,-0.5"/>
<text text-anchor="middle" x="269.636" y="-7.5" font-family="Helvetica,sans-Serif" font-size="10.00">limits</text>
</g>
<!-- Node4&#45;&gt;Node7 -->
<g id="edge7" class="edge"><title>Node4&#45;&gt;Node7</title>
<path fill="none" stroke="midnightblue" d="M253.773,-56.083C256.319,-48.8486 259.992,-38.4087 263.163,-29.3968"/>
<polygon fill="midnightblue" stroke="midnightblue" points="266.539,-30.3459 266.557,-19.7511 259.936,-28.0225 266.539,-30.3459"/>
</g>
<!-- Node8 -->
<g id="node9" class="node"><title>Node8</title>
<polygon fill="none" stroke="#bfbfbf" points="307.636,-0.5 307.636,-19.5 359.636,-19.5 359.636,-0.5 307.636,-0.5"/>
<text text-anchor="middle" x="333.636" y="-7.5" font-family="Helvetica,sans-Serif" font-size="10.00">ostream</text>
</g>
<!-- Node4&#45;&gt;Node8 -->
<g id="edge8" class="edge"><title>Node4&#45;&gt;Node8</title>
<path fill="none" stroke="midnightblue" d="M263.971,-56.324C276.798,-47.979 296.421,-35.2122 311.576,-25.3524"/>
<polygon fill="midnightblue" stroke="midnightblue" points="313.86,-28.0417 320.333,-19.6545 310.043,-22.1742 313.86,-28.0417"/>
</g>
</g>
</svg>
