<?xml version="1.0" encoding="UTF-8" standalone="no"?>
<!DOCTYPE svg PUBLIC "-//W3C//DTD SVG 1.1//EN"
 "http://www.w3.org/Graphics/SVG/1.1/DTD/svg11.dtd">
<!-- Generated by graphviz version 2.38.0 (20140413.2041)
 -->
<!-- Title: efd::ArchVerifierPass::run Pages: 1 -->
<svg width="420pt" height="165pt"
 viewBox="0.00 0.00 420.00 165.00" xmlns="http://www.w3.org/2000/svg" xmlns:xlink="http://www.w3.org/1999/xlink">
<g id="graph0" class="graph" transform="scale(1 1) rotate(0) translate(4 161)">
<title>efd::ArchVerifierPass::run</title>
<!-- Node3 -->
<g id="node1" class="node"><title>Node3</title>
<polygon fill="#bfbfbf" stroke="black" points="0,-68.5 0,-87.5 129,-87.5 129,-68.5 0,-68.5"/>
<text text-anchor="middle" x="64.5" y="-75.5" font-family="Helvetica,sans-Serif" font-size="10.00">efd::ArchVerifierPass::run</text>
</g>
<!-- Node4 -->
<g id="node2" class="node"><title>Node4</title>
<g id="a_node2"><a xlink:href="../../d6/d6a/classefd_1_1Node.xhtml#ab813c60af1717cf50e92a28b274c24ef" target="_top" xlink:title="Used by visitor classes. ">
<polygon fill="none" stroke="black" points="181.5,-137.5 181.5,-156.5 270.5,-156.5 270.5,-137.5 181.5,-137.5"/>
<text text-anchor="middle" x="226" y="-144.5" font-family="Helvetica,sans-Serif" font-size="10.00">efd::Node::apply</text>
</a>
</g>
</g>
<!-- Node3&#45;&gt;Node4 -->
<g id="edge1" class="edge"><title>Node3&#45;&gt;Node4</title>
<path fill="none" stroke="midnightblue" d="M82.3718,-87.5186C101.862,-98.2674 135.092,-115.84 165,-128 170.447,-130.215 176.255,-132.338 182.032,-134.31"/>
<polygon fill="midnightblue" stroke="midnightblue" points="181.062,-137.675 191.655,-137.476 183.25,-131.026 181.062,-137.675"/>
</g>
<!-- Node5 -->
<g id="node3" class="node"><title>Node5</title>
<g id="a_node3"><a xlink:href="../../de/d7d/classefd_1_1ArchVerifierVisitor.xhtml#a0ed5cf77366dd36b20372b83e23e85da" target="_top" xlink:title="efd::ArchVerifierVisitor\l::ArchVerifierVisitor">
<polygon fill="none" stroke="black" points="168.5,-88 168.5,-118 283.5,-118 283.5,-88 168.5,-88"/>
<text text-anchor="start" x="176.5" y="-106" font-family="Helvetica,sans-Serif" font-size="10.00">efd::ArchVerifierVisitor</text>
<text text-anchor="middle" x="226" y="-95" font-family="Helvetica,sans-Serif" font-size="10.00">::ArchVerifierVisitor</text>
</a>
</g>
</g>
<!-- Node3&#45;&gt;Node5 -->
<g id="edge2" class="edge"><title>Node3&#45;&gt;Node5</title>
<path fill="none" stroke="midnightblue" d="M126.255,-87.5227C136.729,-89.1645 147.668,-90.879 158.289,-92.5437"/>
<polygon fill="midnightblue" stroke="midnightblue" points="157.928,-96.0298 168.35,-94.1206 159.012,-89.1143 157.928,-96.0298"/>
</g>
<!-- Node6 -->
<g id="node4" class="node"><title>Node6</title>
<g id="a_node4"><a xlink:href="../../dd/d52/classefd_1_1QModule.xhtml#ac00e1eb93f94c00db1e6a661d8f95d9d" target="_top" xlink:title="Iterator to the beginning of the statement node vector. ">
<polygon fill="none" stroke="black" points="175.5,-39 175.5,-69 276.5,-69 276.5,-39 175.5,-39"/>
<text text-anchor="start" x="183.5" y="-57" font-family="Helvetica,sans-Serif" font-size="10.00">efd::QModule::stmt</text>
<text text-anchor="middle" x="226" y="-46" font-family="Helvetica,sans-Serif" font-size="10.00">_begin</text>
</a>
</g>
</g>
<!-- Node3&#45;&gt;Node6 -->
<g id="edge3" class="edge"><title>Node3&#45;&gt;Node6</title>
<path fill="none" stroke="midnightblue" d="M128.997,-68.4456C140.957,-66.646 153.426,-64.7697 165.266,-62.9881"/>
<polygon fill="midnightblue" stroke="midnightblue" points="166.113,-66.4002 175.481,-61.4512 165.071,-59.4782 166.113,-66.4002"/>
</g>
<!-- Node8 -->
<g id="node6" class="node"><title>Node8</title>
<g id="a_node6"><a xlink:href="../../dd/d52/classefd_1_1QModule.xhtml#a23d45e3b6c65d5fa14b199da8b0617c7" target="_top" xlink:title="Iterator to the end of the statement node vector. ">
<polygon fill="none" stroke="black" points="165,-0.5 165,-19.5 287,-19.5 287,-0.5 165,-0.5"/>
<text text-anchor="middle" x="226" y="-7.5" font-family="Helvetica,sans-Serif" font-size="10.00">efd::QModule::stmt_end</text>
</a>
</g>
</g>
<!-- Node3&#45;&gt;Node8 -->
<g id="edge5" class="edge"><title>Node3&#45;&gt;Node8</title>
<path fill="none" stroke="midnightblue" d="M83.1045,-68.3183C102.707,-57.7786 135.52,-40.8477 165,-29 170.456,-26.8074 176.269,-24.697 182.048,-22.7312"/>
<polygon fill="midnightblue" stroke="midnightblue" points="183.265,-26.0157 191.674,-19.5704 181.081,-19.3652 183.265,-26.0157"/>
</g>
<!-- Node7 -->
<g id="node5" class="node"><title>Node7</title>
<g id="a_node5"><a xlink:href="../../d6/d6a/classefd_1_1Node.xhtml#ae890d36b0dcb332d82616b3180da1886" target="_top" xlink:title="Returns a iterator to the beginning of the vector. ">
<polygon fill="none" stroke="black" points="323,-44.5 323,-63.5 412,-63.5 412,-44.5 323,-44.5"/>
<text text-anchor="middle" x="367.5" y="-51.5" font-family="Helvetica,sans-Serif" font-size="10.00">efd::Node::begin</text>
</a>
</g>
</g>
<!-- Node6&#45;&gt;Node7 -->
<g id="edge4" class="edge"><title>Node6&#45;&gt;Node7</title>
<path fill="none" stroke="midnightblue" d="M276.575,-54C288.205,-54 300.653,-54 312.467,-54"/>
<polygon fill="midnightblue" stroke="midnightblue" points="312.648,-57.5001 322.648,-54 312.648,-50.5001 312.648,-57.5001"/>
</g>
<!-- Node9 -->
<g id="node7" class="node"><title>Node9</title>
<g id="a_node7"><a xlink:href="../../d6/d6a/classefd_1_1Node.xhtml#a335606078a1d727de214982453c9dd1b" target="_top" xlink:title="Returns a iterator to the end of the vector. ">
<polygon fill="none" stroke="black" points="327,-0.5 327,-19.5 408,-19.5 408,-0.5 327,-0.5"/>
<text text-anchor="middle" x="367.5" y="-7.5" font-family="Helvetica,sans-Serif" font-size="10.00">efd::Node::end</text>
</a>
</g>
</g>
<!-- Node8&#45;&gt;Node9 -->
<g id="edge6" class="edge"><title>Node8&#45;&gt;Node9</title>
<path fill="none" stroke="midnightblue" d="M287.375,-10C297.217,-10 307.313,-10 316.859,-10"/>
<polygon fill="midnightblue" stroke="midnightblue" points="316.964,-13.5001 326.964,-10 316.964,-6.5001 316.964,-13.5001"/>
</g>
</g>
</svg>
