<?xml version="1.0" encoding="UTF-8" standalone="no"?>
<!DOCTYPE svg PUBLIC "-//W3C//DTD SVG 1.1//EN"
 "http://www.w3.org/Graphics/SVG/1.1/DTD/svg11.dtd">
<!-- Generated by graphviz version 2.40.1 (20161225.0304)
 -->
<!-- Title: include/enfield/Transform/Allocators/Simple/RandomMappingFinder.h Pages: 1 -->
<svg width="1573pt" height="609pt"
 viewBox="0.00 0.00 1572.50 609.00" xmlns="http://www.w3.org/2000/svg" xmlns:xlink="http://www.w3.org/1999/xlink">
<g id="graph0" class="graph" transform="scale(1 1) rotate(0) translate(4 605)">
<title>include/enfield/Transform/Allocators/Simple/RandomMappingFinder.h</title>
<!-- Node0 -->
<g id="node1" class="node">
<title>Node0</title>
<polygon fill="#bfbfbf" stroke="#000000" points="1266,-559.5 1266,-600.5 1456,-600.5 1456,-559.5 1266,-559.5"/>
<text text-anchor="start" x="1274" y="-588.5" font-family="Helvetica,sans-Serif" font-size="10.00" fill="#000000">include/enfield/Transform</text>
<text text-anchor="start" x="1274" y="-577.5" font-family="Helvetica,sans-Serif" font-size="10.00" fill="#000000">/Allocators/Simple/RandomMapping</text>
<text text-anchor="middle" x="1361" y="-566.5" font-family="Helvetica,sans-Serif" font-size="10.00" fill="#000000">Finder.h</text>
</g>
<!-- Node1 -->
<g id="node2" class="node">
<title>Node1</title>
<g id="a_node2"><a xlink:href="../../d1/d5d/SimpleQAllocator_8h.xhtml" target="_top" xlink:title="enfield/Transform/Allocators\l/SimpleQAllocator.h">
<polygon fill="none" stroke="#000000" points="1230.5,-492.5 1230.5,-522.5 1385.5,-522.5 1385.5,-492.5 1230.5,-492.5"/>
<text text-anchor="start" x="1238.5" y="-510.5" font-family="Helvetica,sans-Serif" font-size="10.00" fill="#000000">enfield/Transform/Allocators</text>
<text text-anchor="middle" x="1308" y="-499.5" font-family="Helvetica,sans-Serif" font-size="10.00" fill="#000000">/SimpleQAllocator.h</text>
</a>
</g>
</g>
<!-- Node0&#45;&gt;Node1 -->
<g id="edge1" class="edge">
<title>Node0&#45;&gt;Node1</title>
<path fill="none" stroke="#191970" d="M1345.9541,-559.4183C1339.4604,-550.5354 1331.8303,-540.0981 1325.1212,-530.9205"/>
<polygon fill="#191970" stroke="#191970" points="1327.7651,-528.6065 1319.038,-522.5991 1322.1141,-532.7376 1327.7651,-528.6065"/>
</g>
<!-- Node33 -->
<g id="node34" class="node">
<title>Node33</title>
<g id="a_node34"><a xlink:href="../../d6/df7/WeightedGraph_8h.xhtml" target="_top" xlink:title="enfield/Support/Weighted\lGraph.h">
<polygon fill="none" stroke="#000000" points="1378,-224.5 1378,-254.5 1518,-254.5 1518,-224.5 1378,-224.5"/>
<text text-anchor="start" x="1386" y="-242.5" font-family="Helvetica,sans-Serif" font-size="10.00" fill="#000000">enfield/Support/Weighted</text>
<text text-anchor="middle" x="1448" y="-231.5" font-family="Helvetica,sans-Serif" font-size="10.00" fill="#000000">Graph.h</text>
</a>
</g>
</g>
<!-- Node0&#45;&gt;Node33 -->
<g id="edge58" class="edge">
<title>Node0&#45;&gt;Node33</title>
<path fill="none" stroke="#191970" d="M1380.7054,-559.1741C1402.9266,-533.4234 1436,-487.2451 1436,-440.5 1436,-440.5 1436,-440.5 1436,-373.5 1436,-335.5221 1440.8409,-291.7301 1444.3734,-264.8304"/>
<polygon fill="#191970" stroke="#191970" points="1447.8671,-265.1129 1445.7429,-254.7332 1440.9306,-264.172 1447.8671,-265.1129"/>
</g>
<!-- Node2 -->
<g id="node3" class="node">
<title>Node2</title>
<g id="a_node3"><a xlink:href="../../d2/dc7/StdSolutionQAllocator_8h.xhtml" target="_top" xlink:title="enfield/Transform/Allocators\l/StdSolutionQAllocator.h">
<polygon fill="none" stroke="#000000" points="797.5,-425.5 797.5,-455.5 952.5,-455.5 952.5,-425.5 797.5,-425.5"/>
<text text-anchor="start" x="805.5" y="-443.5" font-family="Helvetica,sans-Serif" font-size="10.00" fill="#000000">enfield/Transform/Allocators</text>
<text text-anchor="middle" x="875" y="-432.5" font-family="Helvetica,sans-Serif" font-size="10.00" fill="#000000">/StdSolutionQAllocator.h</text>
</a>
</g>
</g>
<!-- Node1&#45;&gt;Node2 -->
<g id="edge2" class="edge">
<title>Node1&#45;&gt;Node2</title>
<path fill="none" stroke="#191970" d="M1230.3384,-495.4831C1155.2243,-483.8603 1041.5443,-466.2701 963.0905,-454.1306"/>
<polygon fill="#191970" stroke="#191970" points="963.1606,-450.5999 952.743,-452.5295 962.0901,-457.5176 963.1606,-450.5999"/>
</g>
<!-- Node31 -->
<g id="node32" class="node">
<title>Node31</title>
<g id="a_node32"><a xlink:href="../../d0/d86/BitOptions_8h.xhtml" target="_top" xlink:title="enfield/Support/BitOptions.h">
<polygon fill="none" stroke="#000000" points="1231,-431 1231,-450 1385,-450 1385,-431 1231,-431"/>
<text text-anchor="middle" x="1308" y="-438" font-family="Helvetica,sans-Serif" font-size="10.00" fill="#000000">enfield/Support/BitOptions.h</text>
</a>
</g>
</g>
<!-- Node1&#45;&gt;Node31 -->
<g id="edge55" class="edge">
<title>Node1&#45;&gt;Node31</title>
<path fill="none" stroke="#191970" d="M1308,-492.2967C1308,-482.7699 1308,-470.3954 1308,-460.1306"/>
<polygon fill="#191970" stroke="#191970" points="1311.5001,-460.0549 1308,-450.055 1304.5001,-460.055 1311.5001,-460.0549"/>
</g>
<!-- Node3 -->
<g id="node4" class="node">
<title>Node3</title>
<g id="a_node4"><a xlink:href="../../dd/d3b/QbitAllocator_8h.xhtml" target="_top" xlink:title="enfield/Transform/Allocators\l/QbitAllocator.h">
<polygon fill="none" stroke="#000000" points="573.5,-358.5 573.5,-388.5 728.5,-388.5 728.5,-358.5 573.5,-358.5"/>
<text text-anchor="start" x="581.5" y="-376.5" font-family="Helvetica,sans-Serif" font-size="10.00" fill="#000000">enfield/Transform/Allocators</text>
<text text-anchor="middle" x="651" y="-365.5" font-family="Helvetica,sans-Serif" font-size="10.00" fill="#000000">/QbitAllocator.h</text>
</a>
</g>
</g>
<!-- Node2&#45;&gt;Node3 -->
<g id="edge3" class="edge">
<title>Node2&#45;&gt;Node3</title>
<path fill="none" stroke="#191970" d="M824.73,-425.4639C791.1272,-415.4131 746.7434,-402.1375 711.2485,-391.5208"/>
<polygon fill="#191970" stroke="#191970" points="712.0728,-388.1142 701.4892,-388.6017 710.0668,-394.8206 712.0728,-388.1142"/>
</g>
<!-- Node4 -->
<g id="node5" class="node">
<title>Node4</title>
<g id="a_node5"><a xlink:href="../../d7/d9d/ArchGraph_8h.xhtml" target="_top" xlink:title="enfield/Arch/ArchGraph.h">
<polygon fill="none" stroke="#000000" points="130,-230 130,-249 268,-249 268,-230 130,-230"/>
<text text-anchor="middle" x="199" y="-237" font-family="Helvetica,sans-Serif" font-size="10.00" fill="#000000">enfield/Arch/ArchGraph.h</text>
</a>
</g>
</g>
<!-- Node3&#45;&gt;Node4 -->
<g id="edge4" class="edge">
<title>Node3&#45;&gt;Node4</title>
<path fill="none" stroke="#191970" d="M573.3042,-365.4163C490.3611,-356.0799 364.8235,-339.7155 320,-322 279.7438,-306.0896 239.516,-274.8535 217.0832,-255.7128"/>
<polygon fill="#191970" stroke="#191970" points="219.2366,-252.9471 209.3939,-249.0263 214.6433,-258.2293 219.2366,-252.9471"/>
</g>
<!-- Node16 -->
<g id="node17" class="node">
<title>Node16</title>
<g id="a_node17"><a xlink:href="../../d9/dcf/DependencyBuilderPass_8h.xhtml" target="_top" xlink:title="enfield/Transform/Dependency\lBuilderPass.h">
<polygon fill="none" stroke="#000000" points="567.5,-291.5 567.5,-321.5 734.5,-321.5 734.5,-291.5 567.5,-291.5"/>
<text text-anchor="start" x="575.5" y="-309.5" font-family="Helvetica,sans-Serif" font-size="10.00" fill="#000000">enfield/Transform/Dependency</text>
<text text-anchor="middle" x="651" y="-298.5" font-family="Helvetica,sans-Serif" font-size="10.00" fill="#000000">BuilderPass.h</text>
</a>
</g>
</g>
<!-- Node3&#45;&gt;Node16 -->
<g id="edge18" class="edge">
<title>Node3&#45;&gt;Node16</title>
<path fill="none" stroke="#191970" d="M651,-358.2967C651,-350.5013 651,-340.7991 651,-331.9064"/>
<polygon fill="#191970" stroke="#191970" points="654.5001,-331.6431 651,-321.6432 647.5001,-331.6432 654.5001,-331.6431"/>
</g>
<!-- Node21 -->
<g id="node22" class="node">
<title>Node21</title>
<g id="a_node22"><a xlink:href="../../d9/d41/CommandLine_8h.xhtml" target="_top" xlink:title="enfield/Support/CommandLine.h">
<polygon fill="none" stroke="#000000" points="1009.5,-297 1009.5,-316 1182.5,-316 1182.5,-297 1009.5,-297"/>
<text text-anchor="middle" x="1096" y="-304" font-family="Helvetica,sans-Serif" font-size="10.00" fill="#000000">enfield/Support/CommandLine.h</text>
</a>
</g>
</g>
<!-- Node3&#45;&gt;Node21 -->
<g id="edge38" class="edge">
<title>Node3&#45;&gt;Node21</title>
<path fill="none" stroke="#191970" d="M728.5131,-361.8295C811.2577,-349.3713 941.3857,-329.779 1022.5413,-317.5601"/>
<polygon fill="#191970" stroke="#191970" points="1023.3106,-320.9838 1032.6781,-316.0339 1022.2684,-314.0618 1023.3106,-320.9838"/>
</g>
<!-- Node30 -->
<g id="node31" class="node">
<title>Node30</title>
<g id="a_node31"><a xlink:href="../../dc/d09/Stats_8h.xhtml" target="_top" xlink:title="enfield/Support/Stats.h">
<polygon fill="none" stroke="#000000" points="358,-112.5 358,-131.5 486,-131.5 486,-112.5 358,-112.5"/>
<text text-anchor="middle" x="422" y="-119.5" font-family="Helvetica,sans-Serif" font-size="10.00" fill="#000000">enfield/Support/Stats.h</text>
</a>
</g>
</g>
<!-- Node3&#45;&gt;Node30 -->
<g id="edge52" class="edge">
<title>Node3&#45;&gt;Node30</title>
<path fill="none" stroke="#191970" d="M608.5956,-358.4504C546.7947,-333.8673 434.6024,-278.5517 391,-188 383.0861,-171.5648 393.9025,-152.7212 404.8712,-139.3874"/>
<polygon fill="#191970" stroke="#191970" points="407.5271,-141.6677 411.5543,-131.8681 402.295,-137.0174 407.5271,-141.6677"/>
</g>
<!-- Node5 -->
<g id="node6" class="node">
<title>Node5</title>
<g id="a_node6"><a xlink:href="../../d7/d16/Graph_8h.xhtml" target="_top" xlink:title="enfield/Support/Graph.h">
<polygon fill="none" stroke="#000000" points="766,-168.5 766,-187.5 898,-187.5 898,-168.5 766,-168.5"/>
<text text-anchor="middle" x="832" y="-175.5" font-family="Helvetica,sans-Serif" font-size="10.00" fill="#000000">enfield/Support/Graph.h</text>
</a>
</g>
</g>
<!-- Node4&#45;&gt;Node5 -->
<g id="edge5" class="edge">
<title>Node4&#45;&gt;Node5</title>
<path fill="none" stroke="#191970" d="M268.2497,-232.772C387.5995,-221.1763 631.1655,-197.5124 755.4083,-185.4414"/>
<polygon fill="#191970" stroke="#191970" points="755.9837,-188.902 765.5983,-184.4513 755.3067,-181.9349 755.9837,-188.902"/>
</g>
<!-- Node10 -->
<g id="node11" class="node">
<title>Node10</title>
<g id="a_node11"><a xlink:href="../../d4/daf/Nodes_8h.xhtml" target="_top" xlink:title="enfield/Analysis/Nodes.h">
<polygon fill="none" stroke="#000000" points="202.5,-112.5 202.5,-131.5 339.5,-131.5 339.5,-112.5 202.5,-112.5"/>
<text text-anchor="middle" x="271" y="-119.5" font-family="Helvetica,sans-Serif" font-size="10.00" fill="#000000">enfield/Analysis/Nodes.h</text>
</a>
</g>
</g>
<!-- Node4&#45;&gt;Node10 -->
<g id="edge10" class="edge">
<title>Node4&#45;&gt;Node10</title>
<path fill="none" stroke="#191970" d="M204.8921,-229.8845C216.8639,-210.3471 244.2092,-165.7211 259.7186,-140.4106"/>
<polygon fill="#191970" stroke="#191970" points="262.786,-142.1036 265.0265,-131.7484 256.8174,-138.4462 262.786,-142.1036"/>
</g>
<!-- Node6 -->
<g id="node7" class="node">
<title>Node6</title>
<polygon fill="none" stroke="#bfbfbf" points="772,-112.5 772,-131.5 804,-131.5 804,-112.5 772,-112.5"/>
<text text-anchor="middle" x="788" y="-119.5" font-family="Helvetica,sans-Serif" font-size="10.00" fill="#000000">set</text>
</g>
<!-- Node5&#45;&gt;Node6 -->
<g id="edge6" class="edge">
<title>Node5&#45;&gt;Node6</title>
<path fill="none" stroke="#191970" d="M824.3358,-168.2455C818.1527,-160.3761 809.2937,-149.101 801.8711,-139.6542"/>
<polygon fill="#191970" stroke="#191970" points="804.5068,-137.3435 795.5764,-131.6427 799.0025,-141.6683 804.5068,-137.3435"/>
</g>
<!-- Node7 -->
<g id="node8" class="node">
<title>Node7</title>
<polygon fill="none" stroke="#bfbfbf" points="1034.5,-56.5 1034.5,-75.5 1081.5,-75.5 1081.5,-56.5 1034.5,-56.5"/>
<text text-anchor="middle" x="1058" y="-63.5" font-family="Helvetica,sans-Serif" font-size="10.00" fill="#000000">vector</text>
</g>
<!-- Node5&#45;&gt;Node7 -->
<g id="edge7" class="edge">
<title>Node5&#45;&gt;Node7</title>
<path fill="none" stroke="#191970" d="M851.2686,-168.4509C891.131,-148.6961 982.8216,-103.2565 1029.5305,-80.1088"/>
<polygon fill="#191970" stroke="#191970" points="1031.3742,-83.1014 1038.7801,-75.5249 1028.2659,-76.8293 1031.3742,-83.1014"/>
</g>
<!-- Node8 -->
<g id="node9" class="node">
<title>Node8</title>
<polygon fill="none" stroke="#bfbfbf" points="504.5,-112.5 504.5,-131.5 597.5,-131.5 597.5,-112.5 504.5,-112.5"/>
<text text-anchor="middle" x="551" y="-119.5" font-family="Helvetica,sans-Serif" font-size="10.00" fill="#000000">unordered_map</text>
</g>
<!-- Node5&#45;&gt;Node8 -->
<g id="edge8" class="edge">
<title>Node5&#45;&gt;Node8</title>
<path fill="none" stroke="#191970" d="M784.0137,-168.4369C735.2246,-158.7138 659.643,-143.6513 607.874,-133.3343"/>
<polygon fill="#191970" stroke="#191970" points="608.3439,-129.8592 597.8526,-131.3372 606.9757,-136.7242 608.3439,-129.8592"/>
</g>
<!-- Node9 -->
<g id="node10" class="node">
<title>Node9</title>
<polygon fill="none" stroke="#bfbfbf" points="656,-56.5 656,-75.5 714,-75.5 714,-56.5 656,-56.5"/>
<text text-anchor="middle" x="685" y="-63.5" font-family="Helvetica,sans-Serif" font-size="10.00" fill="#000000">memory</text>
</g>
<!-- Node5&#45;&gt;Node9 -->
<g id="edge9" class="edge">
<title>Node5&#45;&gt;Node9</title>
<path fill="none" stroke="#191970" d="M831.8514,-168.1435C831.1081,-153.9271 827.6775,-127.6593 813,-112 789.8445,-87.2956 752.4707,-75.8343 724.0712,-70.5312"/>
<polygon fill="#191970" stroke="#191970" points="724.5,-67.0542 714.0573,-68.843 723.3362,-73.9568 724.5,-67.0542"/>
</g>
<!-- Node10&#45;&gt;Node7 -->
<g id="edge16" class="edge">
<title>Node10&#45;&gt;Node7</title>
<path fill="none" stroke="#191970" d="M339.8771,-112.9316C342.9584,-112.601 346.0103,-112.2883 349,-112 608.3999,-86.9817 922.5393,-71.9274 1024.3903,-67.4308"/>
<polygon fill="#191970" stroke="#191970" points="1024.5567,-70.9269 1034.3941,-66.993 1024.2506,-63.9336 1024.5567,-70.9269"/>
</g>
<!-- Node10&#45;&gt;Node9 -->
<g id="edge17" class="edge">
<title>Node10&#45;&gt;Node9</title>
<path fill="none" stroke="#191970" d="M339.8284,-112.6899C427.3084,-100.8568 575.3796,-80.8279 645.6843,-71.3181"/>
<polygon fill="#191970" stroke="#191970" points="646.4375,-74.7482 655.878,-69.9392 645.4991,-67.8113 646.4375,-74.7482"/>
</g>
<!-- Node11 -->
<g id="node12" class="node">
<title>Node11</title>
<g id="a_node12"><a xlink:href="../../d1/d2e/WrapperVal_8h.xhtml" target="_top" xlink:title="enfield/Support/WrapperVal.h">
<polygon fill="none" stroke="#000000" points="0,-56.5 0,-75.5 160,-75.5 160,-56.5 0,-56.5"/>
<text text-anchor="middle" x="80" y="-63.5" font-family="Helvetica,sans-Serif" font-size="10.00" fill="#000000">enfield/Support/WrapperVal.h</text>
</a>
</g>
</g>
<!-- Node10&#45;&gt;Node11 -->
<g id="edge11" class="edge">
<title>Node10&#45;&gt;Node11</title>
<path fill="none" stroke="#191970" d="M238.1659,-112.3733C206.1305,-102.9807 157.2513,-88.6496 122.3145,-78.4064"/>
<polygon fill="#191970" stroke="#191970" points="122.9864,-74.9561 112.4056,-75.5011 121.0169,-81.6733 122.9864,-74.9561"/>
</g>
<!-- Node13 -->
<g id="node14" class="node">
<title>Node13</title>
<g id="a_node14"><a xlink:href="../../d5/dfc/RTTI_8h.xhtml" target="_top" xlink:title="enfield/Support/RTTI.h">
<polygon fill="none" stroke="#000000" points="178.5,-56.5 178.5,-75.5 303.5,-75.5 303.5,-56.5 178.5,-56.5"/>
<text text-anchor="middle" x="241" y="-63.5" font-family="Helvetica,sans-Serif" font-size="10.00" fill="#000000">enfield/Support/RTTI.h</text>
</a>
</g>
</g>
<!-- Node10&#45;&gt;Node13 -->
<g id="edge13" class="edge">
<title>Node10&#45;&gt;Node13</title>
<path fill="none" stroke="#191970" d="M265.7744,-112.2455C261.6877,-104.617 255.8865,-93.7881 250.925,-84.5267"/>
<polygon fill="#191970" stroke="#191970" points="253.9732,-82.8047 246.1657,-75.6427 247.8028,-86.1103 253.9732,-82.8047"/>
</g>
<!-- Node14 -->
<g id="node15" class="node">
<title>Node14</title>
<polygon fill="none" stroke="#bfbfbf" points="321.5,-56.5 321.5,-75.5 404.5,-75.5 404.5,-56.5 321.5,-56.5"/>
<text text-anchor="middle" x="363" y="-63.5" font-family="Helvetica,sans-Serif" font-size="10.00" fill="#000000">initializer_list</text>
</g>
<!-- Node10&#45;&gt;Node14 -->
<g id="edge14" class="edge">
<title>Node10&#45;&gt;Node14</title>
<path fill="none" stroke="#191970" d="M287.0252,-112.2455C301.1408,-103.6534 321.9263,-91.0014 338.1899,-81.1018"/>
<polygon fill="#191970" stroke="#191970" points="340.4363,-83.8319 347.1585,-75.6427 336.7966,-77.8525 340.4363,-83.8319"/>
</g>
<!-- Node15 -->
<g id="node16" class="node">
<title>Node15</title>
<polygon fill="none" stroke="#bfbfbf" points="423,-56.5 423,-75.5 483,-75.5 483,-56.5 423,-56.5"/>
<text text-anchor="middle" x="453" y="-63.5" font-family="Helvetica,sans-Serif" font-size="10.00" fill="#000000">iostream</text>
</g>
<!-- Node10&#45;&gt;Node15 -->
<g id="edge15" class="edge">
<title>Node10&#45;&gt;Node15</title>
<path fill="none" stroke="#191970" d="M302.2869,-112.3733C332.866,-102.9643 379.5512,-88.5996 412.8533,-78.3528"/>
<polygon fill="#191970" stroke="#191970" points="414.1976,-81.6012 422.7261,-75.315 412.139,-74.9107 414.1976,-81.6012"/>
</g>
<!-- Node12 -->
<g id="node13" class="node">
<title>Node12</title>
<polygon fill="none" stroke="#bfbfbf" points="570,-.5 570,-19.5 614,-19.5 614,-.5 570,-.5"/>
<text text-anchor="middle" x="592" y="-7.5" font-family="Helvetica,sans-Serif" font-size="10.00" fill="#000000">string</text>
</g>
<!-- Node11&#45;&gt;Node12 -->
<g id="edge12" class="edge">
<title>Node11&#45;&gt;Node12</title>
<path fill="none" stroke="#191970" d="M160.052,-56.9917C163.0729,-56.6561 166.0637,-56.3246 169,-56 314.9615,-39.8635 489.3091,-21.0495 559.9394,-13.447"/>
<polygon fill="#191970" stroke="#191970" points="560.4108,-16.9166 569.9789,-12.3667 559.6618,-9.9568 560.4108,-16.9166"/>
</g>
<!-- Node16&#45;&gt;Node6 -->
<g id="edge37" class="edge">
<title>Node16&#45;&gt;Node6</title>
<path fill="none" stroke="#191970" d="M666.0093,-291.2399C675.5547,-281.2537 687.9615,-267.7406 698,-255 700.1086,-252.3238 751.4984,-176.1491 775.6595,-140.3102"/>
<polygon fill="#191970" stroke="#191970" points="778.7425,-141.9982 781.4298,-131.7499 772.9381,-138.0856 778.7425,-141.9982"/>
</g>
<!-- Node16&#45;&gt;Node7 -->
<g id="edge36" class="edge">
<title>Node16&#45;&gt;Node7</title>
<path fill="none" stroke="#191970" d="M734.5917,-297.961C812.5519,-285.8724 927.551,-256.9169 1001,-188 1031.1333,-159.726 1046.8283,-112.3379 1053.6579,-85.7075"/>
<polygon fill="#191970" stroke="#191970" points="1057.1336,-86.2218 1056.0583,-75.6817 1050.326,-84.5918 1057.1336,-86.2218"/>
</g>
<!-- Node16&#45;&gt;Node8 -->
<g id="edge34" class="edge">
<title>Node16&#45;&gt;Node8</title>
<path fill="none" stroke="#191970" d="M567.2047,-294.7726C505.2109,-281.0199 425.7528,-251.4008 391,-188 386.7274,-180.2053 385.653,-175.1008 391,-168 397.708,-159.0918 454.4756,-144.2067 498.5087,-133.7885"/>
<polygon fill="#191970" stroke="#191970" points="499.3155,-137.1943 508.2537,-131.5058 497.719,-130.3788 499.3155,-137.1943"/>
</g>
<!-- Node16&#45;&gt;Node10 -->
<g id="edge19" class="edge">
<title>Node16&#45;&gt;Node10</title>
<path fill="none" stroke="#191970" d="M567.4064,-304.4194C425.611,-300.0187 150.3752,-287.3679 121,-255 77.2207,-206.7604 177.6439,-157.9634 234.808,-135.2113"/>
<polygon fill="#191970" stroke="#191970" points="236.2113,-138.4208 244.2585,-131.5292 233.67,-131.8984 236.2113,-138.4208"/>
</g>
<!-- Node17 -->
<g id="node18" class="node">
<title>Node17</title>
<g id="a_node18"><a xlink:href="../../df/d29/Pass_8h.xhtml" target="_top" xlink:title="enfield/Transform/Pass.h">
<polygon fill="none" stroke="#000000" points="616,-112.5 616,-131.5 754,-131.5 754,-112.5 616,-112.5"/>
<text text-anchor="middle" x="685" y="-119.5" font-family="Helvetica,sans-Serif" font-size="10.00" fill="#000000">enfield/Transform/Pass.h</text>
</a>
</g>
</g>
<!-- Node16&#45;&gt;Node17 -->
<g id="edge20" class="edge">
<title>Node16&#45;&gt;Node17</title>
<path fill="none" stroke="#191970" d="M662.6517,-291.1991C669.3829,-281.4131 677.2416,-268.1312 681,-255 692.1299,-216.1144 689.9064,-168.2052 687.3892,-141.8056"/>
<polygon fill="#191970" stroke="#191970" points="690.8409,-141.1675 686.2947,-131.5977 683.8808,-141.9139 690.8409,-141.1675"/>
</g>
<!-- Node18 -->
<g id="node19" class="node">
<title>Node18</title>
<g id="a_node19"><a xlink:href="../../d4/d73/QModule_8h.xhtml" target="_top" xlink:title="enfield/Transform/QModule.h">
<polygon fill="none" stroke="#000000" points="400,-168.5 400,-187.5 558,-187.5 558,-168.5 400,-168.5"/>
<text text-anchor="middle" x="479" y="-175.5" font-family="Helvetica,sans-Serif" font-size="10.00" fill="#000000">enfield/Transform/QModule.h</text>
</a>
</g>
</g>
<!-- Node16&#45;&gt;Node18 -->
<g id="edge22" class="edge">
<title>Node16&#45;&gt;Node18</title>
<path fill="none" stroke="#191970" d="M592.7591,-291.4478C569.8017,-283.4049 544.3526,-271.6391 525,-255 506.7148,-239.2786 493.7191,-214.4012 486.3045,-197.1979"/>
<polygon fill="#191970" stroke="#191970" points="489.4219,-195.5726 482.4117,-187.6286 482.9379,-198.2104 489.4219,-195.5726"/>
</g>
<!-- Node19 -->
<g id="node20" class="node">
<title>Node19</title>
<g id="a_node20"><a xlink:href="../../d6/d94/XbitToNumberPass_8h.xhtml" target="_top" xlink:title="enfield/Transform/XbitTo\lNumberPass.h">
<polygon fill="none" stroke="#000000" points="534,-224.5 534,-254.5 672,-254.5 672,-224.5 534,-224.5"/>
<text text-anchor="start" x="542" y="-242.5" font-family="Helvetica,sans-Serif" font-size="10.00" fill="#000000">enfield/Transform/XbitTo</text>
<text text-anchor="middle" x="603" y="-231.5" font-family="Helvetica,sans-Serif" font-size="10.00" fill="#000000">NumberPass.h</text>
</a>
</g>
</g>
<!-- Node16&#45;&gt;Node19 -->
<g id="edge26" class="edge">
<title>Node16&#45;&gt;Node19</title>
<path fill="none" stroke="#191970" d="M640.1081,-291.2967C634.0937,-282.9016 626.4951,-272.2952 619.7426,-262.8698"/>
<polygon fill="#191970" stroke="#191970" points="622.5179,-260.734 613.8488,-254.6432 616.8275,-264.8107 622.5179,-260.734"/>
</g>
<!-- Node20 -->
<g id="node21" class="node">
<title>Node20</title>
<polygon fill="none" stroke="#bfbfbf" points="954,-168.5 954,-187.5 992,-187.5 992,-168.5 954,-168.5"/>
<text text-anchor="middle" x="973" y="-175.5" font-family="Helvetica,sans-Serif" font-size="10.00" fill="#000000">map</text>
</g>
<!-- Node16&#45;&gt;Node20 -->
<g id="edge35" class="edge">
<title>Node16&#45;&gt;Node20</title>
<path fill="none" stroke="#191970" d="M688.8844,-291.3816C754.1036,-265.3546 886.1806,-212.6469 944.3701,-189.4253"/>
<polygon fill="#191970" stroke="#191970" points="945.7095,-192.6592 953.7,-185.702 943.115,-186.1578 945.7095,-192.6592"/>
</g>
<!-- Node17&#45;&gt;Node9 -->
<g id="edge21" class="edge">
<title>Node17&#45;&gt;Node9</title>
<path fill="none" stroke="#191970" d="M685,-112.2455C685,-104.9382 685,-94.6944 685,-85.7046"/>
<polygon fill="#191970" stroke="#191970" points="688.5001,-85.6426 685,-75.6427 681.5001,-85.6427 688.5001,-85.6426"/>
</g>
<!-- Node18&#45;&gt;Node8 -->
<g id="edge25" class="edge">
<title>Node18&#45;&gt;Node8</title>
<path fill="none" stroke="#191970" d="M491.5414,-168.2455C502.2787,-159.8943 517.9473,-147.7076 530.5047,-137.9408"/>
<polygon fill="#191970" stroke="#191970" points="532.8575,-140.5449 538.6023,-131.6427 528.5599,-135.0194 532.8575,-140.5449"/>
</g>
<!-- Node18&#45;&gt;Node10 -->
<g id="edge23" class="edge">
<title>Node18&#45;&gt;Node10</title>
<path fill="none" stroke="#191970" d="M443.2435,-168.3733C408.0574,-158.9001 354.2119,-144.4032 316.1044,-134.1435"/>
<polygon fill="#191970" stroke="#191970" points="316.856,-130.7213 306.2899,-131.5011 315.0361,-137.4806 316.856,-130.7213"/>
</g>
<!-- Node18&#45;&gt;Node17 -->
<g id="edge24" class="edge">
<title>Node18&#45;&gt;Node17</title>
<path fill="none" stroke="#191970" d="M514.4127,-168.3733C549.2605,-158.9001 602.5882,-144.4032 640.3293,-134.1435"/>
<polygon fill="#191970" stroke="#191970" points="641.3178,-137.5019 650.0494,-131.5011 639.4815,-130.747 641.3178,-137.5019"/>
</g>
<!-- Node19&#45;&gt;Node6 -->
<g id="edge32" class="edge">
<title>Node19&#45;&gt;Node6</title>
<path fill="none" stroke="#191970" d="M626.8068,-224.3795C662.2819,-201.848 728.6385,-159.7026 764.1428,-137.1525"/>
<polygon fill="#191970" stroke="#191970" points="766.313,-139.9205 772.8778,-131.6046 762.56,-134.0116 766.313,-139.9205"/>
</g>
<!-- Node19&#45;&gt;Node7 -->
<g id="edge31" class="edge">
<title>Node19&#45;&gt;Node7</title>
<path fill="none" stroke="#191970" d="M672.2219,-231.8993C748.6005,-222.7909 866.1329,-206.4314 907,-188 963.7981,-162.3837 1017.3112,-110.1397 1042.6622,-83.0869"/>
<polygon fill="#191970" stroke="#191970" points="1045.3972,-85.2838 1049.5981,-75.5574 1040.2486,-80.5411 1045.3972,-85.2838"/>
</g>
<!-- Node19&#45;&gt;Node8 -->
<g id="edge30" class="edge">
<title>Node19&#45;&gt;Node8</title>
<path fill="none" stroke="#191970" d="M596.2019,-224.1389C586.748,-202.7768 569.6414,-164.1224 559.4005,-140.982"/>
<polygon fill="#191970" stroke="#191970" points="562.4782,-139.2876 555.2306,-131.5595 556.077,-142.1205 562.4782,-139.2876"/>
</g>
<!-- Node19&#45;&gt;Node10 -->
<g id="edge29" class="edge">
<title>Node19&#45;&gt;Node10</title>
<path fill="none" stroke="#191970" d="M533.8061,-227.5076C491.679,-219.0335 437.2494,-205.9691 391,-188 355.5867,-174.241 317.6302,-151.9448 294.1022,-137.1292"/>
<polygon fill="#191970" stroke="#191970" points="295.8476,-134.0912 285.535,-131.6621 292.082,-139.9921 295.8476,-134.0912"/>
</g>
<!-- Node19&#45;&gt;Node17 -->
<g id="edge27" class="edge">
<title>Node19&#45;&gt;Node17</title>
<path fill="none" stroke="#191970" d="M611.8187,-224.3827C620.5559,-209.6806 634.5434,-186.8667 648,-168 654.9631,-158.2375 663.2899,-147.7902 670.2796,-139.3232"/>
<polygon fill="#191970" stroke="#191970" points="672.9949,-141.5321 676.7234,-131.615 667.6243,-137.0424 672.9949,-141.5321"/>
</g>
<!-- Node19&#45;&gt;Node18 -->
<g id="edge28" class="edge">
<title>Node19&#45;&gt;Node18</title>
<path fill="none" stroke="#191970" d="M572.6662,-224.4554C552.7024,-214.554 526.751,-201.683 507.2285,-192.0004"/>
<polygon fill="#191970" stroke="#191970" points="508.7294,-188.838 498.2156,-187.5303 505.6191,-195.1091 508.7294,-188.838"/>
</g>
<!-- Node19&#45;&gt;Node20 -->
<g id="edge33" class="edge">
<title>Node19&#45;&gt;Node20</title>
<path fill="none" stroke="#191970" d="M672.278,-231.8443C740.7888,-223.5874 848.3673,-208.7739 940,-188 941.2808,-187.7096 942.5844,-187.3956 943.8975,-187.0641"/>
<polygon fill="#191970" stroke="#191970" points="945.227,-190.3276 953.9286,-184.2833 943.357,-183.582 945.227,-190.3276"/>
</g>
<!-- Node21&#45;&gt;Node7 -->
<g id="edge50" class="edge">
<title>Node21&#45;&gt;Node7</title>
<path fill="none" stroke="#191970" d="M1095.3904,-296.6871C1093.4801,-267.9992 1086.8319,-181.8929 1072,-112 1070.1204,-103.1425 1067.3202,-93.5327 1064.717,-85.3983"/>
<polygon fill="#191970" stroke="#191970" points="1067.9819,-84.1246 1061.5023,-75.7421 1061.3402,-86.3357 1067.9819,-84.1246"/>
</g>
<!-- Node21&#45;&gt;Node9 -->
<g id="edge51" class="edge">
<title>Node21&#45;&gt;Node9</title>
<path fill="none" stroke="#191970" d="M1092.0376,-296.8451C1081.2671,-271.7836 1049.0063,-204.1006 1001,-168 915.4563,-103.6714 787.7816,-79.0007 724.0819,-70.3002"/>
<polygon fill="#191970" stroke="#191970" points="724.4254,-66.8154 714.0565,-68.9915 723.5193,-73.7565 724.4254,-66.8154"/>
</g>
<!-- Node21&#45;&gt;Node12 -->
<g id="edge49" class="edge">
<title>Node21&#45;&gt;Node12</title>
<path fill="none" stroke="#191970" d="M1100.9678,-296.7942C1111.2682,-275.7416 1134,-224.0628 1134,-178 1134,-178 1134,-178 1134,-122 1134,-86.9903 1120.9805,-74.079 1091,-56 1051.1098,-31.9452 728.7109,-15.9434 624.4186,-11.3564"/>
<polygon fill="#191970" stroke="#191970" points="624.3301,-7.8493 614.1878,-10.9124 624.0266,-14.8427 624.3301,-7.8493"/>
</g>
<!-- Node22 -->
<g id="node23" class="node">
<title>Node22</title>
<g id="a_node23"><a xlink:href="../../d1/d5e/PossibleValuesListTrait_8h.xhtml" target="_top" xlink:title="enfield/Support/Possible\lValuesListTrait.h">
<polygon fill="none" stroke="#000000" points="1169,-224.5 1169,-254.5 1303,-254.5 1303,-224.5 1169,-224.5"/>
<text text-anchor="start" x="1177" y="-242.5" font-family="Helvetica,sans-Serif" font-size="10.00" fill="#000000">enfield/Support/Possible</text>
<text text-anchor="middle" x="1236" y="-231.5" font-family="Helvetica,sans-Serif" font-size="10.00" fill="#000000">ValuesListTrait.h</text>
</a>
</g>
</g>
<!-- Node21&#45;&gt;Node22 -->
<g id="edge39" class="edge">
<title>Node21&#45;&gt;Node22</title>
<path fill="none" stroke="#191970" d="M1116.0586,-296.9005C1136.6641,-287.0393 1169.3165,-271.4128 1195.3528,-258.9526"/>
<polygon fill="#191970" stroke="#191970" points="1197.1019,-261.9957 1204.6112,-254.5218 1194.0801,-255.6816 1197.1019,-261.9957"/>
</g>
<!-- Node23 -->
<g id="node24" class="node">
<title>Node23</title>
<g id="a_node24"><a xlink:href="../../dd/d62/EnumString_8h.xhtml" target="_top" xlink:title="enfield/Support/EnumString.h">
<polygon fill="none" stroke="#000000" points="1162.5,-168.5 1162.5,-187.5 1321.5,-187.5 1321.5,-168.5 1162.5,-168.5"/>
<text text-anchor="middle" x="1242" y="-175.5" font-family="Helvetica,sans-Serif" font-size="10.00" fill="#000000">enfield/Support/EnumString.h</text>
</a>
</g>
</g>
<!-- Node22&#45;&gt;Node23 -->
<g id="edge40" class="edge">
<title>Node22&#45;&gt;Node23</title>
<path fill="none" stroke="#191970" d="M1237.4831,-224.2977C1238.2553,-216.3834 1239.2093,-206.6043 1240.0414,-198.0759"/>
<polygon fill="#191970" stroke="#191970" points="1243.5517,-198.1396 1241.0393,-187.8469 1236.5848,-197.4598 1243.5517,-198.1396"/>
</g>
<!-- Node23&#45;&gt;Node7 -->
<g id="edge46" class="edge">
<title>Node23&#45;&gt;Node7</title>
<path fill="none" stroke="#191970" d="M1226.3123,-168.4509C1194.2653,-148.9441 1121.0746,-104.3932 1082.6279,-80.9909"/>
<polygon fill="#191970" stroke="#191970" points="1084.0099,-77.7347 1073.648,-75.5249 1080.3702,-83.7141 1084.0099,-77.7347"/>
</g>
<!-- Node24 -->
<g id="node25" class="node">
<title>Node24</title>
<g id="a_node25"><a xlink:href="../../d1/d73/Defs_8h.xhtml" target="_top" xlink:title="enfield/Support/Defs.h">
<polygon fill="none" stroke="#000000" points="1358.5,-112.5 1358.5,-131.5 1483.5,-131.5 1483.5,-112.5 1358.5,-112.5"/>
<text text-anchor="middle" x="1421" y="-119.5" font-family="Helvetica,sans-Serif" font-size="10.00" fill="#000000">enfield/Support/Defs.h</text>
</a>
</g>
</g>
<!-- Node23&#45;&gt;Node24 -->
<g id="edge41" class="edge">
<title>Node23&#45;&gt;Node24</title>
<path fill="none" stroke="#191970" d="M1272.7712,-168.3733C1302.665,-159.021 1348.2093,-144.7725 1380.9217,-134.5385"/>
<polygon fill="#191970" stroke="#191970" points="1382.1315,-137.8273 1390.6303,-131.5011 1380.0414,-131.1466 1382.1315,-137.8273"/>
</g>
<!-- Node28 -->
<g id="node29" class="node">
<title>Node28</title>
<polygon fill="none" stroke="#bfbfbf" points="1276,-112.5 1276,-131.5 1340,-131.5 1340,-112.5 1276,-112.5"/>
<text text-anchor="middle" x="1308" y="-119.5" font-family="Helvetica,sans-Serif" font-size="10.00" fill="#000000">algorithm</text>
</g>
<!-- Node23&#45;&gt;Node28 -->
<g id="edge47" class="edge">
<title>Node23&#45;&gt;Node28</title>
<path fill="none" stroke="#191970" d="M1253.4963,-168.2455C1263.2442,-159.9746 1277.4259,-147.9416 1288.8798,-138.2232"/>
<polygon fill="#191970" stroke="#191970" points="1291.2747,-140.7813 1296.6354,-131.6427 1286.7459,-135.4437 1291.2747,-140.7813"/>
</g>
<!-- Node29 -->
<g id="node30" class="node">
<title>Node29</title>
<polygon fill="none" stroke="#bfbfbf" points="1200.5,-112.5 1200.5,-131.5 1257.5,-131.5 1257.5,-112.5 1200.5,-112.5"/>
<text text-anchor="middle" x="1229" y="-119.5" font-family="Helvetica,sans-Serif" font-size="10.00" fill="#000000">typeinfo</text>
</g>
<!-- Node23&#45;&gt;Node29 -->
<g id="edge48" class="edge">
<title>Node23&#45;&gt;Node29</title>
<path fill="none" stroke="#191970" d="M1239.7356,-168.2455C1238.0206,-160.8579 1235.6088,-150.4689 1233.5056,-141.4087"/>
<polygon fill="#191970" stroke="#191970" points="1236.9092,-140.5922 1231.2385,-131.6427 1230.0905,-142.1751 1236.9092,-140.5922"/>
</g>
<!-- Node24&#45;&gt;Node7 -->
<g id="edge42" class="edge">
<title>Node24&#45;&gt;Node7</title>
<path fill="none" stroke="#191970" d="M1359.0105,-112.4369C1281.8364,-100.5312 1152.7687,-80.62 1091.8245,-71.2181"/>
<polygon fill="#191970" stroke="#191970" points="1092.0265,-67.7079 1081.6097,-69.6423 1090.9591,-74.6261 1092.0265,-67.7079"/>
</g>
<!-- Node25 -->
<g id="node26" class="node">
<title>Node25</title>
<polygon fill="none" stroke="#bfbfbf" points="1396,-56.5 1396,-75.5 1446,-75.5 1446,-56.5 1396,-56.5"/>
<text text-anchor="middle" x="1421" y="-63.5" font-family="Helvetica,sans-Serif" font-size="10.00" fill="#000000">cstdint</text>
</g>
<!-- Node24&#45;&gt;Node25 -->
<g id="edge43" class="edge">
<title>Node24&#45;&gt;Node25</title>
<path fill="none" stroke="#191970" d="M1421,-112.2455C1421,-104.9382 1421,-94.6944 1421,-85.7046"/>
<polygon fill="#191970" stroke="#191970" points="1424.5001,-85.6426 1421,-75.6427 1417.5001,-85.6427 1424.5001,-85.6426"/>
</g>
<!-- Node26 -->
<g id="node27" class="node">
<title>Node26</title>
<polygon fill="none" stroke="#bfbfbf" points="1464,-56.5 1464,-75.5 1508,-75.5 1508,-56.5 1464,-56.5"/>
<text text-anchor="middle" x="1486" y="-63.5" font-family="Helvetica,sans-Serif" font-size="10.00" fill="#000000">limits</text>
</g>
<!-- Node24&#45;&gt;Node26 -->
<g id="edge44" class="edge">
<title>Node24&#45;&gt;Node26</title>
<path fill="none" stroke="#191970" d="M1432.3221,-112.2455C1441.9223,-103.9746 1455.8892,-91.9416 1467.1695,-82.2232"/>
<polygon fill="#191970" stroke="#191970" points="1469.516,-84.8214 1474.8076,-75.6427 1464.947,-79.5182 1469.516,-84.8214"/>
</g>
<!-- Node27 -->
<g id="node28" class="node">
<title>Node27</title>
<polygon fill="none" stroke="#bfbfbf" points="1320.5,-56.5 1320.5,-75.5 1377.5,-75.5 1377.5,-56.5 1320.5,-56.5"/>
<text text-anchor="middle" x="1349" y="-63.5" font-family="Helvetica,sans-Serif" font-size="10.00" fill="#000000">ostream</text>
</g>
<!-- Node24&#45;&gt;Node27 -->
<g id="edge45" class="edge">
<title>Node24&#45;&gt;Node27</title>
<path fill="none" stroke="#191970" d="M1408.4586,-112.2455C1397.7213,-103.8943 1382.0527,-91.7076 1369.4953,-81.9408"/>
<polygon fill="#191970" stroke="#191970" points="1371.4401,-79.0194 1361.3977,-75.6427 1367.1425,-84.5449 1371.4401,-79.0194"/>
</g>
<!-- Node30&#45;&gt;Node9 -->
<g id="edge54" class="edge">
<title>Node30&#45;&gt;Node9</title>
<path fill="none" stroke="#191970" d="M466.9125,-112.4369C517.2114,-101.7269 597.9358,-84.5384 645.7855,-74.3498"/>
<polygon fill="#191970" stroke="#191970" points="646.7107,-77.7314 655.7625,-72.2255 645.2528,-70.8849 646.7107,-77.7314"/>
</g>
<!-- Node30&#45;&gt;Node15 -->
<g id="edge53" class="edge">
<title>Node30&#45;&gt;Node15</title>
<path fill="none" stroke="#191970" d="M427.3998,-112.2455C431.6227,-104.617 437.6173,-93.7881 442.7441,-84.5267"/>
<polygon fill="#191970" stroke="#191970" points="445.881,-86.0867 447.6621,-75.6427 439.7568,-82.6965 445.881,-86.0867"/>
</g>
<!-- Node31&#45;&gt;Node24 -->
<g id="edge56" class="edge">
<title>Node31&#45;&gt;Node24</title>
<path fill="none" stroke="#191970" d="M1313.3193,-430.7445C1324.6209,-409.076 1350,-355.0159 1350,-306.5 1350,-306.5 1350,-306.5 1350,-239.5 1350,-198.7434 1381.6789,-160.0087 1402.7157,-138.7796"/>
<polygon fill="#191970" stroke="#191970" points="1405.1827,-141.2626 1409.9063,-131.779 1400.2996,-136.2471 1405.1827,-141.2626"/>
</g>
<!-- Node32 -->
<g id="node33" class="node">
<title>Node32</title>
<polygon fill="none" stroke="#bfbfbf" points="1272,-364 1272,-383 1322,-383 1322,-364 1272,-364"/>
<text text-anchor="middle" x="1297" y="-371" font-family="Helvetica,sans-Serif" font-size="10.00" fill="#000000">cstring</text>
</g>
<!-- Node31&#45;&gt;Node32 -->
<g id="edge57" class="edge">
<title>Node31&#45;&gt;Node32</title>
<path fill="none" stroke="#191970" d="M1306.424,-430.9005C1304.8066,-421.0495 1302.2447,-405.4451 1300.2,-392.9912"/>
<polygon fill="#191970" stroke="#191970" points="1303.6471,-392.3825 1298.5731,-383.0817 1296.7395,-393.5166 1303.6471,-392.3825"/>
</g>
<!-- Node33&#45;&gt;Node5 -->
<g id="edge59" class="edge">
<title>Node33&#45;&gt;Node5</title>
<path fill="none" stroke="#191970" d="M1377.7903,-231.2547C1356.6517,-228.838 1333.389,-226.2436 1312,-224 1169.4119,-209.0435 1002.7833,-193.5115 908.0933,-184.8676"/>
<polygon fill="#191970" stroke="#191970" points="908.3103,-181.373 898.0338,-183.9505 907.6747,-188.3441 908.3103,-181.373"/>
</g>
<!-- Node33&#45;&gt;Node20 -->
<g id="edge61" class="edge">
<title>Node33&#45;&gt;Node20</title>
<path fill="none" stroke="#191970" d="M1377.9121,-230.4255C1272.1458,-216.7315 1076.254,-191.3687 1002.2944,-181.7928"/>
<polygon fill="#191970" stroke="#191970" points="1002.6589,-178.3109 992.2923,-180.4978 1001.76,-185.253 1002.6589,-178.3109"/>
</g>
<!-- Node33&#45;&gt;Node24 -->
<g id="edge60" class="edge">
<title>Node33&#45;&gt;Node24</title>
<path fill="none" stroke="#191970" d="M1439.88,-224.1821C1434.9754,-214.173 1429.0926,-200.6559 1426,-188 1422.2868,-172.8048 1421.1088,-155.1081 1420.8197,-141.8666"/>
<polygon fill="#191970" stroke="#191970" points="1424.3177,-141.529 1420.7532,-131.5518 1417.3179,-141.5743 1424.3177,-141.529"/>
</g>
<!-- Node34 -->
<g id="node35" class="node">
<title>Node34</title>
<polygon fill="none" stroke="#bfbfbf" points="1509.5,-168.5 1509.5,-187.5 1564.5,-187.5 1564.5,-168.5 1509.5,-168.5"/>
<text text-anchor="middle" x="1537" y="-175.5" font-family="Helvetica,sans-Serif" font-size="10.00" fill="#000000">fstream</text>
</g>
<!-- Node33&#45;&gt;Node34 -->
<g id="edge62" class="edge">
<title>Node33&#45;&gt;Node34</title>
<path fill="none" stroke="#191970" d="M1470,-224.2977C1483.5968,-214.9022 1500.9966,-202.8787 1514.6567,-193.4395"/>
<polygon fill="#191970" stroke="#191970" points="1516.7785,-196.2276 1523.0158,-187.6633 1512.7991,-190.4688 1516.7785,-196.2276"/>
</g>
<!-- Node35 -->
<g id="node36" class="node">
<title>Node35</title>
<polygon fill="none" stroke="#bfbfbf" points="1435,-168.5 1435,-187.5 1491,-187.5 1491,-168.5 1435,-168.5"/>
<text text-anchor="middle" x="1463" y="-175.5" font-family="Helvetica,sans-Serif" font-size="10.00" fill="#000000">sstream</text>
</g>
<!-- Node33&#45;&gt;Node35 -->
<g id="edge63" class="edge">
<title>Node33&#45;&gt;Node35</title>
<path fill="none" stroke="#191970" d="M1451.7079,-224.2977C1453.6599,-216.2945 1456.077,-206.3843 1458.1734,-197.7889"/>
<polygon fill="#191970" stroke="#191970" points="1461.629,-198.3915 1460.5983,-187.8469 1454.8284,-196.7328 1461.629,-198.3915"/>
</g>
</g>
</svg>
