<?xml version="1.0" encoding="UTF-8" standalone="no"?>
<!DOCTYPE svg PUBLIC "-//W3C//DTD SVG 1.1//EN"
 "http://www.w3.org/Graphics/SVG/1.1/DTD/svg11.dtd">
<!-- Generated by graphviz version 2.38.0 (20140413.2041)
 -->
<!-- Title: lib/Transform/DependencyBuilderPass.cpp Pages: 1 -->
<svg width="933pt" height="397pt"
 viewBox="0.00 0.00 932.57 397.00" xmlns="http://www.w3.org/2000/svg" xmlns:xlink="http://www.w3.org/1999/xlink">
<g id="graph0" class="graph" transform="scale(1 1) rotate(0) translate(4 393)">
<title>lib/Transform/DependencyBuilderPass.cpp</title>
<!-- Node0 -->
<g id="node1" class="node"><title>Node0</title>
<polygon fill="#bfbfbf" stroke="black" points="672.069,-358.5 672.069,-388.5 803.069,-388.5 803.069,-358.5 672.069,-358.5"/>
<text text-anchor="start" x="680.069" y="-376.5" font-family="Helvetica,sans-Serif" font-size="10.00">lib/Transform/Dependency</text>
<text text-anchor="middle" x="737.569" y="-365.5" font-family="Helvetica,sans-Serif" font-size="10.00">BuilderPass.cpp</text>
</g>
<!-- Node1 -->
<g id="node2" class="node"><title>Node1</title>
<g id="a_node2"><a xlink:href="../../d9/dcf/DependencyBuilderPass_8h.xhtml" target="_top" xlink:title="enfield/Transform/Dependency\lBuilderPass.h">
<polygon fill="none" stroke="black" points="144.569,-291.5 144.569,-321.5 294.569,-321.5 294.569,-291.5 144.569,-291.5"/>
<text text-anchor="start" x="152.569" y="-309.5" font-family="Helvetica,sans-Serif" font-size="10.00">enfield/Transform/Dependency</text>
<text text-anchor="middle" x="219.569" y="-298.5" font-family="Helvetica,sans-Serif" font-size="10.00">BuilderPass.h</text>
</a>
</g>
</g>
<!-- Node0&#45;&gt;Node1 -->
<g id="edge1" class="edge"><title>Node0&#45;&gt;Node1</title>
<path fill="none" stroke="midnightblue" d="M671.964,-364.268C578.697,-352.564 407.695,-331.107 304.745,-318.188"/>
<polygon fill="midnightblue" stroke="midnightblue" points="305.05,-314.699 294.692,-316.927 304.179,-321.645 305.05,-314.699"/>
</g>
<!-- Node5 -->
<g id="node6" class="node"><title>Node5</title>
<g id="a_node6"><a xlink:href="../../d5/dfc/RTTI_8h.xhtml" target="_top" xlink:title="enfield/Support/RTTI.h">
<polygon fill="none" stroke="black" points="653.569,-56.5 653.569,-75.5 769.569,-75.5 769.569,-56.5 653.569,-56.5"/>
<text text-anchor="middle" x="711.569" y="-63.5" font-family="Helvetica,sans-Serif" font-size="10.00">enfield/Support/RTTI.h</text>
</a>
</g>
</g>
<!-- Node0&#45;&gt;Node5 -->
<g id="edge34" class="edge"><title>Node0&#45;&gt;Node5</title>
<path fill="none" stroke="midnightblue" d="M743.989,-358.181C754.093,-334.298 772.569,-284.598 772.569,-240.5 772.569,-240.5 772.569,-240.5 772.569,-177 772.569,-139.574 745.229,-102.958 727.156,-82.8412"/>
<polygon fill="midnightblue" stroke="midnightblue" points="729.692,-80.4285 720.309,-75.5071 724.575,-85.2053 729.692,-80.4285"/>
</g>
<!-- Node16 -->
<g id="node17" class="node"><title>Node16</title>
<g id="a_node17"><a xlink:href="../../db/d82/PassCache_8h.xhtml" target="_top" xlink:title="enfield/Transform/PassCache.h">
<polygon fill="none" stroke="black" points="385.069,-230 385.069,-249 540.069,-249 540.069,-230 385.069,-230"/>
<text text-anchor="middle" x="462.569" y="-237" font-family="Helvetica,sans-Serif" font-size="10.00">enfield/Transform/PassCache.h</text>
</a>
</g>
</g>
<!-- Node0&#45;&gt;Node16 -->
<g id="edge28" class="edge"><title>Node0&#45;&gt;Node16</title>
<path fill="none" stroke="midnightblue" d="M708.4,-358.499C654.897,-332.817 541.798,-278.53 489.785,-253.563"/>
<polygon fill="midnightblue" stroke="midnightblue" points="491.052,-250.289 480.522,-249.117 488.022,-256.6 491.052,-250.289"/>
</g>
<!-- Node17 -->
<g id="node18" class="node"><title>Node17</title>
<g id="a_node18"><a xlink:href="../../d0/d8d/NodeVisitor_8h.xhtml" target="_top" xlink:title="enfield/Analysis/NodeVisitor.h">
<polygon fill="none" stroke="black" points="596.569,-230 596.569,-249 744.569,-249 744.569,-230 596.569,-230"/>
<text text-anchor="middle" x="670.569" y="-237" font-family="Helvetica,sans-Serif" font-size="10.00">enfield/Analysis/NodeVisitor.h</text>
</a>
</g>
</g>
<!-- Node0&#45;&gt;Node17 -->
<g id="edge32" class="edge"><title>Node0&#45;&gt;Node17</title>
<path fill="none" stroke="midnightblue" d="M730.399,-358.374C718.121,-334.183 693.094,-284.877 679.628,-258.346"/>
<polygon fill="midnightblue" stroke="midnightblue" points="682.58,-256.43 674.933,-249.097 676.338,-259.599 682.58,-256.43"/>
</g>
<!-- Node18 -->
<g id="node19" class="node"><title>Node18</title>
<polygon fill="none" stroke="#bfbfbf" points="801.069,-297 801.069,-316 850.069,-316 850.069,-297 801.069,-297"/>
<text text-anchor="middle" x="825.569" y="-304" font-family="Helvetica,sans-Serif" font-size="10.00">cassert</text>
</g>
<!-- Node0&#45;&gt;Node18 -->
<g id="edge35" class="edge"><title>Node0&#45;&gt;Node18</title>
<path fill="none" stroke="midnightblue" d="M756.664,-358.396C771.148,-347.697 791.001,-333.033 805.677,-322.193"/>
<polygon fill="midnightblue" stroke="midnightblue" points="808.088,-324.764 814.052,-316.007 803.929,-319.133 808.088,-324.764"/>
</g>
<!-- Node19 -->
<g id="node20" class="node"><title>Node19</title>
<polygon fill="none" stroke="#bfbfbf" points="868.569,-297 868.569,-316 924.569,-316 924.569,-297 868.569,-297"/>
<text text-anchor="middle" x="896.569" y="-304" font-family="Helvetica,sans-Serif" font-size="10.00">algorithm</text>
</g>
<!-- Node0&#45;&gt;Node19 -->
<g id="edge36" class="edge"><title>Node0&#45;&gt;Node19</title>
<path fill="none" stroke="midnightblue" d="M772.07,-358.396C800.215,-346.89 839.58,-330.797 866.464,-319.807"/>
<polygon fill="midnightblue" stroke="midnightblue" points="867.828,-323.031 875.76,-316.007 865.179,-316.551 867.828,-323.031"/>
</g>
<!-- Node2 -->
<g id="node3" class="node"><title>Node2</title>
<g id="a_node3"><a xlink:href="../../d4/daf/Nodes_8h.xhtml" target="_top" xlink:title="enfield/Analysis/Nodes.h">
<polygon fill="none" stroke="black" points="284.069,-112.5 284.069,-131.5 409.069,-131.5 409.069,-112.5 284.069,-112.5"/>
<text text-anchor="middle" x="346.569" y="-119.5" font-family="Helvetica,sans-Serif" font-size="10.00">enfield/Analysis/Nodes.h</text>
</a>
</g>
</g>
<!-- Node1&#45;&gt;Node2 -->
<g id="edge2" class="edge"><title>Node1&#45;&gt;Node2</title>
<path fill="none" stroke="midnightblue" d="M182.729,-291.469C126.034,-267.864 28.1625,-217.881 70.5695,-168 96.2108,-137.839 201.186,-127.844 274.014,-124.561"/>
<polygon fill="midnightblue" stroke="midnightblue" points="274.22,-128.056 284.065,-124.141 273.928,-121.062 274.22,-128.056"/>
</g>
<!-- Node8 -->
<g id="node9" class="node"><title>Node8</title>
<polygon fill="none" stroke="#bfbfbf" points="134.569,-56.5 134.569,-75.5 178.569,-75.5 178.569,-56.5 134.569,-56.5"/>
<text text-anchor="middle" x="156.569" y="-63.5" font-family="Helvetica,sans-Serif" font-size="10.00">vector</text>
</g>
<!-- Node1&#45;&gt;Node8 -->
<g id="edge26" class="edge"><title>Node1&#45;&gt;Node8</title>
<path fill="none" stroke="midnightblue" d="M144.305,-296.277C93.9813,-288.385 34.2237,-275.074 18.5695,-255 -22.165,-202.765 10.7217,-155.623 60.5695,-112 79.1736,-95.7192 104.681,-84.1353 124.727,-76.8013"/>
<polygon fill="midnightblue" stroke="midnightblue" points="126.068,-80.0405 134.36,-73.4458 123.765,-73.4301 126.068,-80.0405"/>
</g>
<!-- Node10 -->
<g id="node11" class="node"><title>Node10</title>
<g id="a_node11"><a xlink:href="../../df/d29/Pass_8h.xhtml" target="_top" xlink:title="enfield/Transform/Pass.h">
<polygon fill="none" stroke="black" points="480.569,-112.5 480.569,-131.5 606.569,-131.5 606.569,-112.5 480.569,-112.5"/>
<text text-anchor="middle" x="543.569" y="-119.5" font-family="Helvetica,sans-Serif" font-size="10.00">enfield/Transform/Pass.h</text>
</a>
</g>
</g>
<!-- Node1&#45;&gt;Node10 -->
<g id="edge10" class="edge"><title>Node1&#45;&gt;Node10</title>
<path fill="none" stroke="midnightblue" d="M294.797,-304.862C381.599,-302.342 516.533,-292.329 548.569,-255 575.984,-223.057 561.516,-169.061 551.131,-141.057"/>
<polygon fill="midnightblue" stroke="midnightblue" points="554.366,-139.721 547.447,-131.697 547.853,-142.284 554.366,-139.721"/>
</g>
<!-- Node11 -->
<g id="node12" class="node"><title>Node11</title>
<g id="a_node12"><a xlink:href="../../d4/d73/QModule_8h.xhtml" target="_top" xlink:title="enfield/Transform/QModule.h">
<polygon fill="none" stroke="black" points="286.069,-168.5 286.069,-187.5 429.069,-187.5 429.069,-168.5 286.069,-168.5"/>
<text text-anchor="middle" x="357.569" y="-175.5" font-family="Helvetica,sans-Serif" font-size="10.00">enfield/Transform/QModule.h</text>
</a>
</g>
</g>
<!-- Node1&#45;&gt;Node11 -->
<g id="edge12" class="edge"><title>Node1&#45;&gt;Node11</title>
<path fill="none" stroke="midnightblue" d="M241.991,-291.479C256.482,-281.963 275.397,-268.667 290.569,-255 311.3,-236.326 332.064,-211.614 344.861,-195.517"/>
<polygon fill="midnightblue" stroke="midnightblue" points="347.688,-197.584 351.1,-187.553 342.177,-193.267 347.688,-197.584"/>
</g>
<!-- Node12 -->
<g id="node13" class="node"><title>Node12</title>
<polygon fill="none" stroke="#bfbfbf" points="70.0695,-112.5 70.0695,-131.5 153.069,-131.5 153.069,-112.5 70.0695,-112.5"/>
<text text-anchor="middle" x="111.569" y="-119.5" font-family="Helvetica,sans-Serif" font-size="10.00">unordered_map</text>
</g>
<!-- Node1&#45;&gt;Node12 -->
<g id="edge24" class="edge"><title>Node1&#45;&gt;Node12</title>
<path fill="none" stroke="midnightblue" d="M144.514,-294.034C100.477,-285.603 50.9162,-272.554 37.5695,-255 14.1669,-224.22 18.6185,-201.704 37.5695,-168 45.791,-153.378 60.9004,-142.954 75.3329,-135.846"/>
<polygon fill="midnightblue" stroke="midnightblue" points="76.9668,-138.949 84.6403,-131.644 74.0859,-132.569 76.9668,-138.949"/>
</g>
<!-- Node13 -->
<g id="node14" class="node"><title>Node13</title>
<g id="a_node14"><a xlink:href="../../d6/d94/XbitToNumberPass_8h.xhtml" target="_top" xlink:title="enfield/Transform/XbitTo\lNumberPass.h">
<polygon fill="none" stroke="black" points="157.569,-224.5 157.569,-254.5 281.569,-254.5 281.569,-224.5 157.569,-224.5"/>
<text text-anchor="start" x="165.569" y="-242.5" font-family="Helvetica,sans-Serif" font-size="10.00">enfield/Transform/XbitTo</text>
<text text-anchor="middle" x="219.569" y="-231.5" font-family="Helvetica,sans-Serif" font-size="10.00">NumberPass.h</text>
</a>
</g>
</g>
<!-- Node1&#45;&gt;Node13 -->
<g id="edge16" class="edge"><title>Node1&#45;&gt;Node13</title>
<path fill="none" stroke="midnightblue" d="M219.569,-291.396C219.569,-283.645 219.569,-273.812 219.569,-264.86"/>
<polygon fill="midnightblue" stroke="midnightblue" points="223.07,-264.576 219.569,-254.577 216.07,-264.577 223.07,-264.576"/>
</g>
<!-- Node14 -->
<g id="node15" class="node"><title>Node14</title>
<polygon fill="none" stroke="#bfbfbf" points="447.569,-168.5 447.569,-187.5 477.569,-187.5 477.569,-168.5 447.569,-168.5"/>
<text text-anchor="middle" x="462.569" y="-175.5" font-family="Helvetica,sans-Serif" font-size="10.00">set</text>
</g>
<!-- Node1&#45;&gt;Node14 -->
<g id="edge27" class="edge"><title>Node1&#45;&gt;Node14</title>
<path fill="none" stroke="midnightblue" d="M248.166,-291.419C268.245,-281.444 295.673,-267.642 319.569,-255 344.715,-241.697 350.489,-237.425 375.569,-224 396.695,-212.692 420.922,-200.199 438.436,-191.252"/>
<polygon fill="midnightblue" stroke="midnightblue" points="440.094,-194.335 447.413,-186.676 436.915,-188.099 440.094,-194.335"/>
</g>
<!-- Node15 -->
<g id="node16" class="node"><title>Node15</title>
<polygon fill="none" stroke="#bfbfbf" points="80.0695,-168.5 80.0695,-187.5 115.069,-187.5 115.069,-168.5 80.0695,-168.5"/>
<text text-anchor="middle" x="97.5695" y="-175.5" font-family="Helvetica,sans-Serif" font-size="10.00">map</text>
</g>
<!-- Node1&#45;&gt;Node15 -->
<g id="edge25" class="edge"><title>Node1&#45;&gt;Node15</title>
<path fill="none" stroke="midnightblue" d="M195.202,-291.295C180.657,-282.092 162.389,-269.201 148.569,-255 131.316,-237.271 116.186,-212.997 106.977,-196.696"/>
<polygon fill="midnightblue" stroke="midnightblue" points="109.923,-194.789 102.043,-187.707 103.787,-198.157 109.923,-194.789"/>
</g>
<!-- Node3 -->
<g id="node4" class="node"><title>Node3</title>
<g id="a_node4"><a xlink:href="../../d1/d2e/WrapperVal_8h.xhtml" target="_top" xlink:title="enfield/Support/WrapperVal.h">
<polygon fill="none" stroke="black" points="268.569,-56.5 268.569,-75.5 412.569,-75.5 412.569,-56.5 268.569,-56.5"/>
<text text-anchor="middle" x="340.569" y="-63.5" font-family="Helvetica,sans-Serif" font-size="10.00">enfield/Support/WrapperVal.h</text>
</a>
</g>
</g>
<!-- Node2&#45;&gt;Node3 -->
<g id="edge3" class="edge"><title>Node2&#45;&gt;Node3</title>
<path fill="none" stroke="midnightblue" d="M345.579,-112.083C344.784,-104.927 343.64,-94.6353 342.646,-85.6911"/>
<polygon fill="midnightblue" stroke="midnightblue" points="346.125,-85.3034 341.542,-75.7511 339.168,-86.0765 346.125,-85.3034"/>
</g>
<!-- Node2&#45;&gt;Node5 -->
<g id="edge5" class="edge"><title>Node2&#45;&gt;Node5</title>
<path fill="none" stroke="midnightblue" d="M404.405,-112.444C469.413,-102.826 574.846,-87.2275 643.7,-77.0409"/>
<polygon fill="midnightblue" stroke="midnightblue" points="644.625,-80.4423 654.005,-75.5164 643.6,-73.5177 644.625,-80.4423"/>
</g>
<!-- Node6 -->
<g id="node7" class="node"><title>Node6</title>
<polygon fill="none" stroke="#bfbfbf" points="431.069,-56.5 431.069,-75.5 504.069,-75.5 504.069,-56.5 431.069,-56.5"/>
<text text-anchor="middle" x="467.569" y="-63.5" font-family="Helvetica,sans-Serif" font-size="10.00">initializer_list</text>
</g>
<!-- Node2&#45;&gt;Node6 -->
<g id="edge6" class="edge"><title>Node2&#45;&gt;Node6</title>
<path fill="none" stroke="midnightblue" d="M365.742,-112.444C385.479,-103.636 416.455,-89.8116 439.063,-79.722"/>
<polygon fill="midnightblue" stroke="midnightblue" points="440.781,-82.788 448.486,-75.5164 437.928,-76.3957 440.781,-82.788"/>
</g>
<!-- Node7 -->
<g id="node8" class="node"><title>Node7</title>
<polygon fill="none" stroke="#bfbfbf" points="196.569,-56.5 196.569,-75.5 250.569,-75.5 250.569,-56.5 196.569,-56.5"/>
<text text-anchor="middle" x="223.569" y="-63.5" font-family="Helvetica,sans-Serif" font-size="10.00">iostream</text>
</g>
<!-- Node2&#45;&gt;Node7 -->
<g id="edge7" class="edge"><title>Node2&#45;&gt;Node7</title>
<path fill="none" stroke="midnightblue" d="M327.08,-112.444C306.927,-103.596 275.247,-89.6875 252.239,-79.5865"/>
<polygon fill="midnightblue" stroke="midnightblue" points="253.531,-76.3316 242.968,-75.5164 250.717,-82.7411 253.531,-76.3316"/>
</g>
<!-- Node2&#45;&gt;Node8 -->
<g id="edge8" class="edge"><title>Node2&#45;&gt;Node8</title>
<path fill="none" stroke="midnightblue" d="M316.071,-112.434C285.989,-103.971 238.446,-90.5567 188.303,-76.197"/>
<polygon fill="midnightblue" stroke="midnightblue" points="189.157,-72.8009 178.58,-73.4099 187.228,-79.5299 189.157,-72.8009"/>
</g>
<!-- Node9 -->
<g id="node10" class="node"><title>Node9</title>
<polygon fill="none" stroke="#bfbfbf" points="522.569,-56.5 522.569,-75.5 574.569,-75.5 574.569,-56.5 522.569,-56.5"/>
<text text-anchor="middle" x="548.569" y="-63.5" font-family="Helvetica,sans-Serif" font-size="10.00">memory</text>
</g>
<!-- Node2&#45;&gt;Node9 -->
<g id="edge9" class="edge"><title>Node2&#45;&gt;Node9</title>
<path fill="none" stroke="midnightblue" d="M378.577,-112.444C414.981,-102.712 474.291,-86.8567 512.356,-76.6807"/>
<polygon fill="midnightblue" stroke="midnightblue" points="513.736,-79.9349 522.493,-73.971 511.928,-73.1724 513.736,-79.9349"/>
</g>
<!-- Node4 -->
<g id="node5" class="node"><title>Node4</title>
<polygon fill="none" stroke="#bfbfbf" points="320.069,-0.5 320.069,-19.5 361.069,-19.5 361.069,-0.5 320.069,-0.5"/>
<text text-anchor="middle" x="340.569" y="-7.5" font-family="Helvetica,sans-Serif" font-size="10.00">string</text>
</g>
<!-- Node3&#45;&gt;Node4 -->
<g id="edge4" class="edge"><title>Node3&#45;&gt;Node4</title>
<path fill="none" stroke="midnightblue" d="M340.569,-56.083C340.569,-49.0059 340.569,-38.8611 340.569,-29.9865"/>
<polygon fill="midnightblue" stroke="midnightblue" points="344.07,-29.751 340.569,-19.7511 337.07,-29.7511 344.07,-29.751"/>
</g>
<!-- Node10&#45;&gt;Node9 -->
<g id="edge11" class="edge"><title>Node10&#45;&gt;Node9</title>
<path fill="none" stroke="midnightblue" d="M544.395,-112.083C545.05,-105.006 545.99,-94.8611 546.811,-85.9865"/>
<polygon fill="midnightblue" stroke="midnightblue" points="550.322,-86.0312 547.759,-75.7511 543.352,-85.3858 550.322,-86.0312"/>
</g>
<!-- Node11&#45;&gt;Node2 -->
<g id="edge13" class="edge"><title>Node11&#45;&gt;Node2</title>
<path fill="none" stroke="midnightblue" d="M355.753,-168.083C354.295,-160.927 352.199,-150.635 350.377,-141.691"/>
<polygon fill="midnightblue" stroke="midnightblue" points="353.778,-140.851 348.352,-131.751 346.919,-142.248 353.778,-140.851"/>
</g>
<!-- Node11&#45;&gt;Node10 -->
<g id="edge14" class="edge"><title>Node11&#45;&gt;Node10</title>
<path fill="none" stroke="midnightblue" d="M387.042,-168.444C418.741,-159.241 469.302,-144.562 504.344,-134.388"/>
<polygon fill="midnightblue" stroke="midnightblue" points="505.607,-137.666 514.235,-131.516 503.656,-130.943 505.607,-137.666"/>
</g>
<!-- Node11&#45;&gt;Node12 -->
<g id="edge15" class="edge"><title>Node11&#45;&gt;Node12</title>
<path fill="none" stroke="midnightblue" d="M318.59,-168.444C275.676,-159.023 206.624,-143.866 160.201,-133.675"/>
<polygon fill="midnightblue" stroke="midnightblue" points="160.884,-130.242 150.367,-131.516 159.384,-137.079 160.884,-130.242"/>
</g>
<!-- Node13&#45;&gt;Node2 -->
<g id="edge19" class="edge"><title>Node13&#45;&gt;Node2</title>
<path fill="none" stroke="midnightblue" d="M220.996,-224.344C223.263,-208.752 229.042,-183.799 243.569,-168 258.146,-152.148 279.295,-141.601 298.642,-134.73"/>
<polygon fill="midnightblue" stroke="midnightblue" points="299.856,-138.016 308.253,-131.555 297.66,-131.369 299.856,-138.016"/>
</g>
<!-- Node13&#45;&gt;Node8 -->
<g id="edge21" class="edge"><title>Node13&#45;&gt;Node8</title>
<path fill="none" stroke="midnightblue" d="M214.414,-224.465C203.064,-193.57 175.925,-119.69 163.274,-85.2509"/>
<polygon fill="midnightblue" stroke="midnightblue" points="166.447,-83.7395 159.714,-75.5597 159.877,-86.1533 166.447,-83.7395"/>
</g>
<!-- Node13&#45;&gt;Node10 -->
<g id="edge17" class="edge"><title>Node13&#45;&gt;Node10</title>
<path fill="none" stroke="midnightblue" d="M226.887,-224.258C236.119,-207.847 253.604,-181.423 276.569,-168 308.658,-149.245 402.98,-136.49 470.408,-129.479"/>
<polygon fill="midnightblue" stroke="midnightblue" points="470.974,-132.939 480.568,-128.444 470.265,-125.975 470.974,-132.939"/>
</g>
<!-- Node13&#45;&gt;Node11 -->
<g id="edge18" class="edge"><title>Node13&#45;&gt;Node11</title>
<path fill="none" stroke="midnightblue" d="M252.274,-224.399C275.324,-214.461 305.93,-201.265 328.201,-191.662"/>
<polygon fill="midnightblue" stroke="midnightblue" points="329.692,-194.831 337.489,-187.658 326.921,-188.403 329.692,-194.831"/>
</g>
<!-- Node13&#45;&gt;Node12 -->
<g id="edge20" class="edge"><title>Node13&#45;&gt;Node12</title>
<path fill="none" stroke="midnightblue" d="M204.201,-224.26C193.658,-214.328 179.478,-200.64 167.569,-188 152.488,-171.992 136.174,-152.826 125.067,-139.471"/>
<polygon fill="midnightblue" stroke="midnightblue" points="127.652,-137.105 118.585,-131.625 122.256,-141.563 127.652,-137.105"/>
</g>
<!-- Node13&#45;&gt;Node14 -->
<g id="edge22" class="edge"><title>Node13&#45;&gt;Node14</title>
<path fill="none" stroke="midnightblue" d="M281.622,-226.162C325.523,-216.939 385.585,-203.32 437.569,-188 437.669,-187.971 437.769,-187.941 437.869,-187.911"/>
<polygon fill="midnightblue" stroke="midnightblue" points="438.916,-191.252 447.327,-184.81 436.734,-184.6 438.916,-191.252"/>
</g>
<!-- Node13&#45;&gt;Node15 -->
<g id="edge23" class="edge"><title>Node13&#45;&gt;Node15</title>
<path fill="none" stroke="midnightblue" d="M190.657,-224.399C170.553,-214.595 143.949,-201.619 124.331,-192.052"/>
<polygon fill="midnightblue" stroke="midnightblue" points="125.844,-188.896 115.322,-187.658 122.775,-195.187 125.844,-188.896"/>
</g>
<!-- Node16&#45;&gt;Node10 -->
<g id="edge29" class="edge"><title>Node16&#45;&gt;Node10</title>
<path fill="none" stroke="midnightblue" d="M468.658,-229.819C481.968,-210.839 513.871,-165.348 531.445,-140.288"/>
<polygon fill="midnightblue" stroke="midnightblue" points="534.534,-141.979 537.411,-131.782 528.803,-137.96 534.534,-141.979"/>
</g>
<!-- Node16&#45;&gt;Node11 -->
<g id="edge30" class="edge"><title>Node16&#45;&gt;Node11</title>
<path fill="none" stroke="midnightblue" d="M447.526,-229.975C430.294,-220.211 401.83,-204.081 381.536,-192.581"/>
<polygon fill="midnightblue" stroke="midnightblue" points="383.011,-189.394 372.586,-187.509 379.56,-195.484 383.011,-189.394"/>
</g>
<!-- Node16&#45;&gt;Node14 -->
<g id="edge31" class="edge"><title>Node16&#45;&gt;Node14</title>
<path fill="none" stroke="midnightblue" d="M462.569,-229.975C462.569,-221.58 462.569,-208.481 462.569,-197.663"/>
<polygon fill="midnightblue" stroke="midnightblue" points="466.07,-197.509 462.569,-187.509 459.07,-197.509 466.07,-197.509"/>
</g>
<!-- Node17&#45;&gt;Node2 -->
<g id="edge33" class="edge"><title>Node17&#45;&gt;Node2</title>
<path fill="none" stroke="midnightblue" d="M649.46,-229.978C615.397,-216.324 546.105,-188.956 486.569,-168 452.253,-155.921 412.761,-143.346 384.489,-134.57"/>
<polygon fill="midnightblue" stroke="midnightblue" points="385.199,-131.126 374.611,-131.517 383.131,-137.814 385.199,-131.126"/>
</g>
</g>
</svg>
