<?xml version="1.0" encoding="UTF-8" standalone="no"?>
<!DOCTYPE svg PUBLIC "-//W3C//DTD SVG 1.1//EN"
 "http://www.w3.org/Graphics/SVG/1.1/DTD/svg11.dtd">
<!-- Generated by graphviz version 2.38.0 (20140413.2041)
 -->
<!-- Title: lib/Transform/Allocators/GreedyCktQAllocator.cpp Pages: 1 -->
<svg width="1790pt" height="609pt"
 viewBox="0.00 0.00 1790.00 609.00" xmlns="http://www.w3.org/2000/svg" xmlns:xlink="http://www.w3.org/1999/xlink">
<g id="graph0" class="graph" transform="scale(1 1) rotate(0) translate(4 605)">
<title>lib/Transform/Allocators/GreedyCktQAllocator.cpp</title>
<!-- Node0 -->
<g id="node1" class="node"><title>Node0</title>
<polygon fill="#bfbfbf" stroke="black" points="814.5,-570.5 814.5,-600.5 945.5,-600.5 945.5,-570.5 814.5,-570.5"/>
<text text-anchor="start" x="822.5" y="-588.5" font-family="Helvetica,sans-Serif" font-size="10.00">lib/Transform/Allocators</text>
<text text-anchor="middle" x="880" y="-577.5" font-family="Helvetica,sans-Serif" font-size="10.00">/GreedyCktQAllocator.cpp</text>
</g>
<!-- Node1 -->
<g id="node2" class="node"><title>Node1</title>
<g id="a_node2"><a xlink:href="../../d0/d2e/GreedyCktQAllocator_8h.xhtml" target="_top" xlink:title="enfield/Transform/Allocators\l/GreedyCktQAllocator.h">
<polygon fill="none" stroke="black" points="1173.5,-436.5 1173.5,-466.5 1312.5,-466.5 1312.5,-436.5 1173.5,-436.5"/>
<text text-anchor="start" x="1181.5" y="-454.5" font-family="Helvetica,sans-Serif" font-size="10.00">enfield/Transform/Allocators</text>
<text text-anchor="middle" x="1243" y="-443.5" font-family="Helvetica,sans-Serif" font-size="10.00">/GreedyCktQAllocator.h</text>
</a>
</g>
</g>
<!-- Node0&#45;&gt;Node1 -->
<g id="edge1" class="edge"><title>Node0&#45;&gt;Node1</title>
<path fill="none" stroke="midnightblue" d="M918.504,-570.499C985.211,-546.242 1122.1,-496.464 1194.93,-469.979"/>
<polygon fill="midnightblue" stroke="midnightblue" points="1196.14,-473.263 1204.34,-466.556 1193.75,-466.685 1196.14,-473.263"/>
</g>
<!-- Node23 -->
<g id="node24" class="node"><title>Node23</title>
<g id="a_node24"><a xlink:href="../../d1/d73/Defs_8h.xhtml" target="_top" xlink:title="enfield/Support/Defs.h">
<polygon fill="none" stroke="black" points="429,-112.5 429,-131.5 543,-131.5 543,-112.5 429,-112.5"/>
<text text-anchor="middle" x="486" y="-119.5" font-family="Helvetica,sans-Serif" font-size="10.00">enfield/Support/Defs.h</text>
</a>
</g>
</g>
<!-- Node0&#45;&gt;Node23 -->
<g id="edge85" class="edge"><title>Node0&#45;&gt;Node23</title>
<path fill="none" stroke="midnightblue" d="M814.231,-578.939C689.517,-566.57 431,-531.414 431,-452.5 431,-452.5 431,-452.5 431,-316.5 431,-249.691 461.711,-174.68 477.236,-141.031"/>
<polygon fill="midnightblue" stroke="midnightblue" points="480.574,-142.159 481.684,-131.622 474.246,-139.166 480.574,-142.159"/>
</g>
<!-- Node27 -->
<g id="node28" class="node"><title>Node27</title>
<polygon fill="none" stroke="#bfbfbf" points="104,-112.5 104,-131.5 160,-131.5 160,-112.5 104,-112.5"/>
<text text-anchor="middle" x="132" y="-119.5" font-family="Helvetica,sans-Serif" font-size="10.00">algorithm</text>
</g>
<!-- Node0&#45;&gt;Node27 -->
<g id="edge86" class="edge"><title>Node0&#45;&gt;Node27</title>
<path fill="none" stroke="midnightblue" d="M814.217,-581.559C609.918,-571.559 0,-534.813 0,-452.5 0,-452.5 0,-452.5 0,-249.5 0,-193.611 62.446,-154.759 101.437,-135.948"/>
<polygon fill="midnightblue" stroke="midnightblue" points="103.199,-138.988 110.792,-131.599 100.248,-132.641 103.199,-138.988"/>
</g>
<!-- Node31 -->
<g id="node32" class="node"><title>Node31</title>
<g id="a_node32"><a xlink:href="../../d3/d1b/WeightedSIMappingFinder_8h.xhtml" target="_top" xlink:title="enfield/Transform/Allocators\l/WeightedSIMappingFinder.h">
<polygon fill="none" stroke="black" points="638.5,-503.5 638.5,-533.5 781.5,-533.5 781.5,-503.5 638.5,-503.5"/>
<text text-anchor="start" x="646.5" y="-521.5" font-family="Helvetica,sans-Serif" font-size="10.00">enfield/Transform/Allocators</text>
<text text-anchor="middle" x="710" y="-510.5" font-family="Helvetica,sans-Serif" font-size="10.00">/WeightedSIMappingFinder.h</text>
</a>
</g>
</g>
<!-- Node0&#45;&gt;Node31 -->
<g id="edge56" class="edge"><title>Node0&#45;&gt;Node31</title>
<path fill="none" stroke="midnightblue" d="M843.113,-570.396C817.605,-560.643 783.479,-547.595 756.167,-537.152"/>
<polygon fill="midnightblue" stroke="midnightblue" points="757.406,-533.879 746.815,-533.577 754.906,-540.417 757.406,-533.879"/>
</g>
<!-- Node37 -->
<g id="node38" class="node"><title>Node37</title>
<g id="a_node38"><a xlink:href="../../d8/d9b/CircuitGraphBuilderPass_8h.xhtml" target="_top" xlink:title="enfield/Transform/Circuit\lGraphBuilderPass.h">
<polygon fill="none" stroke="black" points="1614,-235.5 1614,-265.5 1738,-265.5 1738,-235.5 1614,-235.5"/>
<text text-anchor="start" x="1622" y="-253.5" font-family="Helvetica,sans-Serif" font-size="10.00">enfield/Transform/Circuit</text>
<text text-anchor="middle" x="1676" y="-242.5" font-family="Helvetica,sans-Serif" font-size="10.00">GraphBuilderPass.h</text>
</a>
</g>
</g>
<!-- Node0&#45;&gt;Node37 -->
<g id="edge71" class="edge"><title>Node0&#45;&gt;Node37</title>
<path fill="none" stroke="midnightblue" d="M945.65,-580.143C1131.86,-566.914 1650,-523.706 1650,-452.5 1650,-452.5 1650,-452.5 1650,-383.5 1650,-345.112 1660.72,-301.607 1668.39,-275.378"/>
<polygon fill="midnightblue" stroke="midnightblue" points="1671.81,-276.165 1671.35,-265.58 1665.11,-274.139 1671.81,-276.165"/>
</g>
<!-- Node39 -->
<g id="node40" class="node"><title>Node39</title>
<g id="a_node40"><a xlink:href="../../db/d82/PassCache_8h.xhtml" target="_top" xlink:title="enfield/Transform/PassCache.h">
<polygon fill="none" stroke="black" points="1050.5,-241 1050.5,-260 1205.5,-260 1205.5,-241 1050.5,-241"/>
<text text-anchor="middle" x="1128" y="-248" font-family="Helvetica,sans-Serif" font-size="10.00">enfield/Transform/PassCache.h</text>
</a>
</g>
</g>
<!-- Node0&#45;&gt;Node39 -->
<g id="edge78" class="edge"><title>Node0&#45;&gt;Node39</title>
<path fill="none" stroke="midnightblue" d="M920.125,-570.309C937.566,-562.217 956.769,-550.364 969,-534 991.267,-504.209 988,-489.694 988,-452.5 988,-452.5 988,-452.5 988,-383.5 988,-324.122 1055.49,-283.563 1096.76,-264.316"/>
<polygon fill="midnightblue" stroke="midnightblue" points="1098.44,-267.395 1106.12,-260.099 1095.57,-261.011 1098.44,-267.395"/>
</g>
<!-- Node40 -->
<g id="node41" class="node"><title>Node40</title>
<g id="a_node41"><a xlink:href="../../d7/d2d/BFSPathFinder_8h.xhtml" target="_top" xlink:title="enfield/Support/BFSPathFinder.h">
<polygon fill="none" stroke="black" points="800,-509 800,-528 960,-528 960,-509 800,-509"/>
<text text-anchor="middle" x="880" y="-516" font-family="Helvetica,sans-Serif" font-size="10.00">enfield/Support/BFSPathFinder.h</text>
</a>
</g>
</g>
<!-- Node0&#45;&gt;Node40 -->
<g id="edge82" class="edge"><title>Node0&#45;&gt;Node40</title>
<path fill="none" stroke="midnightblue" d="M880,-570.396C880,-561.064 880,-548.714 880,-538.517"/>
<polygon fill="midnightblue" stroke="midnightblue" points="883.5,-538.195 880,-528.195 876.5,-538.195 883.5,-538.195"/>
</g>
<!-- Node2 -->
<g id="node3" class="node"><title>Node2</title>
<g id="a_node3"><a xlink:href="../../dd/d3b/QbitAllocator_8h.xhtml" target="_top" xlink:title="enfield/Transform/Allocators\l/QbitAllocator.h">
<polygon fill="none" stroke="black" points="1168.5,-369.5 1168.5,-399.5 1307.5,-399.5 1307.5,-369.5 1168.5,-369.5"/>
<text text-anchor="start" x="1176.5" y="-387.5" font-family="Helvetica,sans-Serif" font-size="10.00">enfield/Transform/Allocators</text>
<text text-anchor="middle" x="1238" y="-376.5" font-family="Helvetica,sans-Serif" font-size="10.00">/QbitAllocator.h</text>
</a>
</g>
</g>
<!-- Node1&#45;&gt;Node2 -->
<g id="edge2" class="edge"><title>Node1&#45;&gt;Node2</title>
<path fill="none" stroke="midnightblue" d="M1241.92,-436.396C1241.31,-428.56 1240.55,-418.596 1239.85,-409.565"/>
<polygon fill="midnightblue" stroke="midnightblue" points="1243.34,-409.279 1239.08,-399.577 1236.36,-409.816 1243.34,-409.279"/>
</g>
<!-- Node3 -->
<g id="node4" class="node"><title>Node3</title>
<g id="a_node4"><a xlink:href="../../d7/d9d/ArchGraph_8h.xhtml" target="_top" xlink:title="enfield/Arch/ArchGraph.h">
<polygon fill="none" stroke="black" points="1432,-241 1432,-260 1558,-260 1558,-241 1432,-241"/>
<text text-anchor="middle" x="1495" y="-248" font-family="Helvetica,sans-Serif" font-size="10.00">enfield/Arch/ArchGraph.h</text>
</a>
</g>
</g>
<!-- Node2&#45;&gt;Node3 -->
<g id="edge3" class="edge"><title>Node2&#45;&gt;Node3</title>
<path fill="none" stroke="midnightblue" d="M1265.5,-369.374C1315.52,-343.685 1420.68,-289.672 1469.32,-264.69"/>
<polygon fill="midnightblue" stroke="midnightblue" points="1470.97,-267.779 1478.26,-260.097 1467.77,-261.553 1470.97,-267.779"/>
</g>
<!-- Node15 -->
<g id="node16" class="node"><title>Node15</title>
<g id="a_node16"><a xlink:href="../../d9/dcf/DependencyBuilderPass_8h.xhtml" target="_top" xlink:title="enfield/Transform/Dependency\lBuilderPass.h">
<polygon fill="none" stroke="black" points="1159,-302.5 1159,-332.5 1309,-332.5 1309,-302.5 1159,-302.5"/>
<text text-anchor="start" x="1167" y="-320.5" font-family="Helvetica,sans-Serif" font-size="10.00">enfield/Transform/Dependency</text>
<text text-anchor="middle" x="1234" y="-309.5" font-family="Helvetica,sans-Serif" font-size="10.00">BuilderPass.h</text>
</a>
</g>
</g>
<!-- Node2&#45;&gt;Node15 -->
<g id="edge17" class="edge"><title>Node2&#45;&gt;Node15</title>
<path fill="none" stroke="midnightblue" d="M1237.13,-369.396C1236.65,-361.56 1236.04,-351.596 1235.48,-342.565"/>
<polygon fill="midnightblue" stroke="midnightblue" points="1238.97,-342.343 1234.87,-332.577 1231.99,-342.773 1238.97,-342.343"/>
</g>
<!-- Node20 -->
<g id="node21" class="node"><title>Node20</title>
<g id="a_node21"><a xlink:href="../../d9/d41/CommandLine_8h.xhtml" target="_top" xlink:title="enfield/Support/CommandLine.h">
<polygon fill="none" stroke="black" points="168,-308 168,-327 324,-327 324,-308 168,-308"/>
<text text-anchor="middle" x="246" y="-315" font-family="Helvetica,sans-Serif" font-size="10.00">enfield/Support/CommandLine.h</text>
</a>
</g>
</g>
<!-- Node2&#45;&gt;Node20 -->
<g id="edge37" class="edge"><title>Node2&#45;&gt;Node20</title>
<path fill="none" stroke="midnightblue" d="M1168.24,-378.929C992.014,-367.382 529.1,-337.05 334.345,-324.289"/>
<polygon fill="midnightblue" stroke="midnightblue" points="334.359,-320.782 324.152,-323.621 333.902,-327.767 334.359,-320.782"/>
</g>
<!-- Node30 -->
<g id="node31" class="node"><title>Node30</title>
<g id="a_node31"><a xlink:href="../../dc/d09/Stats_8h.xhtml" target="_top" xlink:title="enfield/Support/Stats.h">
<polygon fill="none" stroke="black" points="1347,-112.5 1347,-131.5 1463,-131.5 1463,-112.5 1347,-112.5"/>
<text text-anchor="middle" x="1405" y="-119.5" font-family="Helvetica,sans-Serif" font-size="10.00">enfield/Support/Stats.h</text>
</a>
</g>
</g>
<!-- Node2&#45;&gt;Node30 -->
<g id="edge53" class="edge"><title>Node2&#45;&gt;Node30</title>
<path fill="none" stroke="midnightblue" d="M1307.83,-380.883C1385.77,-373.773 1508.59,-349.122 1567,-266 1607.88,-207.823 1499.43,-157.406 1440.36,-135.148"/>
<polygon fill="midnightblue" stroke="midnightblue" points="1441.23,-131.741 1430.64,-131.571 1438.81,-138.31 1441.23,-131.741"/>
</g>
<!-- Node4 -->
<g id="node5" class="node"><title>Node4</title>
<g id="a_node5"><a xlink:href="../../d7/d16/Graph_8h.xhtml" target="_top" xlink:title="enfield/Support/Graph.h">
<polygon fill="none" stroke="black" points="972.5,-174 972.5,-193 1091.5,-193 1091.5,-174 972.5,-174"/>
<text text-anchor="middle" x="1032" y="-181" font-family="Helvetica,sans-Serif" font-size="10.00">enfield/Support/Graph.h</text>
</a>
</g>
</g>
<!-- Node3&#45;&gt;Node4 -->
<g id="edge4" class="edge"><title>Node3&#45;&gt;Node4</title>
<path fill="none" stroke="midnightblue" d="M1433.99,-240.936C1348.17,-228.886 1192.18,-206.987 1101.82,-194.302"/>
<polygon fill="midnightblue" stroke="midnightblue" points="1102.06,-190.802 1091.67,-192.877 1101.09,-197.734 1102.06,-190.802"/>
</g>
<!-- Node9 -->
<g id="node10" class="node"><title>Node9</title>
<g id="a_node10"><a xlink:href="../../d4/daf/Nodes_8h.xhtml" target="_top" xlink:title="enfield/Analysis/Nodes.h">
<polygon fill="none" stroke="black" points="1483.5,-112.5 1483.5,-131.5 1608.5,-131.5 1608.5,-112.5 1483.5,-112.5"/>
<text text-anchor="middle" x="1546" y="-119.5" font-family="Helvetica,sans-Serif" font-size="10.00">enfield/Analysis/Nodes.h</text>
</a>
</g>
</g>
<!-- Node3&#45;&gt;Node9 -->
<g id="edge9" class="edge"><title>Node3&#45;&gt;Node9</title>
<path fill="none" stroke="midnightblue" d="M1500.8,-240.892C1507.19,-231.096 1517.44,-214.448 1524,-199 1532.03,-180.076 1538.19,-157.302 1541.93,-141.648"/>
<polygon fill="midnightblue" stroke="midnightblue" points="1545.39,-142.193 1544.2,-131.665 1538.57,-140.635 1545.39,-142.193"/>
</g>
<!-- Node5 -->
<g id="node6" class="node"><title>Node5</title>
<polygon fill="none" stroke="#bfbfbf" points="913,-112.5 913,-131.5 943,-131.5 943,-112.5 913,-112.5"/>
<text text-anchor="middle" x="928" y="-119.5" font-family="Helvetica,sans-Serif" font-size="10.00">set</text>
</g>
<!-- Node4&#45;&gt;Node5 -->
<g id="edge5" class="edge"><title>Node4&#45;&gt;Node5</title>
<path fill="none" stroke="midnightblue" d="M1017.1,-173.975C1000.03,-164.211 971.839,-148.081 951.738,-136.581"/>
<polygon fill="midnightblue" stroke="midnightblue" points="953.291,-133.437 942.873,-131.509 949.815,-139.513 953.291,-133.437"/>
</g>
<!-- Node6 -->
<g id="node7" class="node"><title>Node6</title>
<polygon fill="none" stroke="#bfbfbf" points="379,-56.5 379,-75.5 423,-75.5 423,-56.5 379,-56.5"/>
<text text-anchor="middle" x="401" y="-63.5" font-family="Helvetica,sans-Serif" font-size="10.00">vector</text>
</g>
<!-- Node4&#45;&gt;Node6 -->
<g id="edge6" class="edge"><title>Node4&#45;&gt;Node6</title>
<path fill="none" stroke="midnightblue" d="M1025.46,-173.809C1013.1,-158.166 984.626,-125.63 952,-112 847.938,-68.5251 561.684,-94.7892 433.293,-75.7172"/>
<polygon fill="midnightblue" stroke="midnightblue" points="433.651,-72.2292 423.216,-74.0657 432.519,-79.137 433.651,-72.2292"/>
</g>
<!-- Node7 -->
<g id="node8" class="node"><title>Node7</title>
<polygon fill="none" stroke="#bfbfbf" points="1245.5,-112.5 1245.5,-131.5 1328.5,-131.5 1328.5,-112.5 1245.5,-112.5"/>
<text text-anchor="middle" x="1287" y="-119.5" font-family="Helvetica,sans-Serif" font-size="10.00">unordered_map</text>
</g>
<!-- Node4&#45;&gt;Node7 -->
<g id="edge7" class="edge"><title>Node4&#45;&gt;Node7</title>
<path fill="none" stroke="midnightblue" d="M1068.54,-173.975C1113.89,-163.393 1191.28,-145.336 1240.73,-133.797"/>
<polygon fill="midnightblue" stroke="midnightblue" points="1241.59,-137.19 1250.53,-131.509 1240,-130.373 1241.59,-137.19"/>
</g>
<!-- Node8 -->
<g id="node9" class="node"><title>Node8</title>
<polygon fill="none" stroke="#bfbfbf" points="1078,-56.5 1078,-75.5 1130,-75.5 1130,-56.5 1078,-56.5"/>
<text text-anchor="middle" x="1104" y="-63.5" font-family="Helvetica,sans-Serif" font-size="10.00">memory</text>
</g>
<!-- Node4&#45;&gt;Node8 -->
<g id="edge8" class="edge"><title>Node4&#45;&gt;Node8</title>
<path fill="none" stroke="midnightblue" d="M1037.41,-173.819C1049.24,-154.839 1077.6,-109.348 1093.22,-84.2882"/>
<polygon fill="midnightblue" stroke="midnightblue" points="1096.21,-86.1197 1098.53,-75.782 1090.27,-82.4167 1096.21,-86.1197"/>
</g>
<!-- Node9&#45;&gt;Node6 -->
<g id="edge15" class="edge"><title>Node9&#45;&gt;Node6</title>
<path fill="none" stroke="midnightblue" d="M1483.46,-113.009C1479.59,-112.633 1475.74,-112.292 1472,-112 1014.28,-76.3106 890.504,-147.972 433.374,-75.7817"/>
<polygon fill="midnightblue" stroke="midnightblue" points="433.627,-72.2779 423.201,-74.1602 432.525,-79.1907 433.627,-72.2779"/>
</g>
<!-- Node9&#45;&gt;Node8 -->
<g id="edge16" class="edge"><title>Node9&#45;&gt;Node8</title>
<path fill="none" stroke="midnightblue" d="M1483.14,-113.32C1389.32,-101.858 1215.66,-80.6411 1140.38,-71.444"/>
<polygon fill="midnightblue" stroke="midnightblue" points="1140.35,-67.9155 1130,-70.1769 1139.51,-74.8638 1140.35,-67.9155"/>
</g>
<!-- Node10 -->
<g id="node11" class="node"><title>Node10</title>
<g id="a_node11"><a xlink:href="../../d1/d2e/WrapperVal_8h.xhtml" target="_top" xlink:title="enfield/Support/WrapperVal.h">
<polygon fill="none" stroke="black" points="1638,-56.5 1638,-75.5 1782,-75.5 1782,-56.5 1638,-56.5"/>
<text text-anchor="middle" x="1710" y="-63.5" font-family="Helvetica,sans-Serif" font-size="10.00">enfield/Support/WrapperVal.h</text>
</a>
</g>
</g>
<!-- Node9&#45;&gt;Node10 -->
<g id="edge10" class="edge"><title>Node9&#45;&gt;Node10</title>
<path fill="none" stroke="midnightblue" d="M1571.99,-112.444C1599.7,-103.32 1643.75,-88.8133 1674.62,-78.6509"/>
<polygon fill="midnightblue" stroke="midnightblue" points="1675.73,-81.9684 1684.14,-75.5164 1673.54,-75.3196 1675.73,-81.9684"/>
</g>
<!-- Node12 -->
<g id="node13" class="node"><title>Node12</title>
<g id="a_node13"><a xlink:href="../../d5/dfc/RTTI_8h.xhtml" target="_top" xlink:title="enfield/Support/RTTI.h">
<polygon fill="none" stroke="black" points="1412,-56.5 1412,-75.5 1528,-75.5 1528,-56.5 1412,-56.5"/>
<text text-anchor="middle" x="1470" y="-63.5" font-family="Helvetica,sans-Serif" font-size="10.00">enfield/Support/RTTI.h</text>
</a>
</g>
</g>
<!-- Node9&#45;&gt;Node12 -->
<g id="edge12" class="edge"><title>Node9&#45;&gt;Node12</title>
<path fill="none" stroke="midnightblue" d="M1533.79,-112.324C1522.22,-104.107 1504.62,-91.6017 1490.84,-81.8069"/>
<polygon fill="midnightblue" stroke="midnightblue" points="1492.61,-78.7729 1482.43,-75.8339 1488.56,-84.4791 1492.61,-78.7729"/>
</g>
<!-- Node13 -->
<g id="node14" class="node"><title>Node13</title>
<polygon fill="none" stroke="#bfbfbf" points="1546.5,-56.5 1546.5,-75.5 1619.5,-75.5 1619.5,-56.5 1546.5,-56.5"/>
<text text-anchor="middle" x="1583" y="-63.5" font-family="Helvetica,sans-Serif" font-size="10.00">initializer_list</text>
</g>
<!-- Node9&#45;&gt;Node13 -->
<g id="edge13" class="edge"><title>Node9&#45;&gt;Node13</title>
<path fill="none" stroke="midnightblue" d="M1552.11,-112.083C1557.28,-104.534 1564.85,-93.4948 1571.19,-84.2298"/>
<polygon fill="midnightblue" stroke="midnightblue" points="1574.24,-85.9787 1577,-75.7511 1568.46,-82.0221 1574.24,-85.9787"/>
</g>
<!-- Node14 -->
<g id="node15" class="node"><title>Node14</title>
<polygon fill="none" stroke="#bfbfbf" points="1340,-56.5 1340,-75.5 1394,-75.5 1394,-56.5 1340,-56.5"/>
<text text-anchor="middle" x="1367" y="-63.5" font-family="Helvetica,sans-Serif" font-size="10.00">iostream</text>
</g>
<!-- Node9&#45;&gt;Node14 -->
<g id="edge14" class="edge"><title>Node9&#45;&gt;Node14</title>
<path fill="none" stroke="midnightblue" d="M1517.64,-112.444C1486.9,-103.172 1437.75,-88.3435 1404,-78.1622"/>
<polygon fill="midnightblue" stroke="midnightblue" points="1404.64,-74.7004 1394.06,-75.1629 1402.62,-81.4021 1404.64,-74.7004"/>
</g>
<!-- Node11 -->
<g id="node12" class="node"><title>Node11</title>
<polygon fill="none" stroke="#bfbfbf" points="853.5,-0.5 853.5,-19.5 894.5,-19.5 894.5,-0.5 853.5,-0.5"/>
<text text-anchor="middle" x="874" y="-7.5" font-family="Helvetica,sans-Serif" font-size="10.00">string</text>
</g>
<!-- Node10&#45;&gt;Node11 -->
<g id="edge11" class="edge"><title>Node10&#45;&gt;Node11</title>
<path fill="none" stroke="midnightblue" d="M1637.58,-56.8542C1634.35,-56.5524 1631.14,-56.2658 1628,-56 1347.8,-32.2765 1007.97,-16.7226 905.014,-12.2974"/>
<polygon fill="midnightblue" stroke="midnightblue" points="904.857,-8.78758 894.717,-11.8581 904.559,-15.7812 904.857,-8.78758"/>
</g>
<!-- Node15&#45;&gt;Node5 -->
<g id="edge36" class="edge"><title>Node15&#45;&gt;Node5</title>
<path fill="none" stroke="midnightblue" d="M1158.97,-315.459C1010.42,-312.618 690.266,-302.305 657,-266 627.575,-233.887 628.837,-201.225 657,-168 688.354,-131.01 840.881,-124.391 902.3,-123.234"/>
<polygon fill="midnightblue" stroke="midnightblue" points="902.713,-126.728 912.658,-123.075 902.606,-119.729 902.713,-126.728"/>
</g>
<!-- Node15&#45;&gt;Node6 -->
<g id="edge35" class="edge"><title>Node15&#45;&gt;Node6</title>
<path fill="none" stroke="midnightblue" d="M1158.94,-315.814C977.681,-313.558 526.895,-304.133 471,-266 410.715,-224.872 401.868,-127.201 400.908,-85.9294"/>
<polygon fill="midnightblue" stroke="midnightblue" points="404.407,-85.8436 400.81,-75.8782 397.407,-85.9118 404.407,-85.8436"/>
</g>
<!-- Node15&#45;&gt;Node7 -->
<g id="edge33" class="edge"><title>Node15&#45;&gt;Node7</title>
<path fill="none" stroke="midnightblue" d="M1294.08,-302.48C1346.06,-286.824 1418.06,-255.851 1452,-199 1459.06,-187.17 1460.36,-178.949 1452,-168 1444.88,-158.685 1383.76,-143.739 1337.97,-133.654"/>
<polygon fill="midnightblue" stroke="midnightblue" points="1338.68,-130.227 1328.17,-131.516 1337.19,-137.066 1338.68,-130.227"/>
</g>
<!-- Node15&#45;&gt;Node9 -->
<g id="edge18" class="edge"><title>Node15&#45;&gt;Node9</title>
<path fill="none" stroke="midnightblue" d="M1309.1,-313.818C1443.57,-308.335 1714.51,-293.935 1747,-266 1780.52,-237.178 1791.92,-202.273 1764,-168 1745.82,-145.682 1674.97,-134.1 1618.91,-128.317"/>
<polygon fill="midnightblue" stroke="midnightblue" points="1618.93,-124.801 1608.63,-127.303 1618.24,-131.768 1618.93,-124.801"/>
</g>
<!-- Node16 -->
<g id="node17" class="node"><title>Node16</title>
<g id="a_node17"><a xlink:href="../../df/d29/Pass_8h.xhtml" target="_top" xlink:title="enfield/Transform/Pass.h">
<polygon fill="none" stroke="black" points="1096,-112.5 1096,-131.5 1222,-131.5 1222,-112.5 1096,-112.5"/>
<text text-anchor="middle" x="1159" y="-119.5" font-family="Helvetica,sans-Serif" font-size="10.00">enfield/Transform/Pass.h</text>
</a>
</g>
</g>
<!-- Node15&#45;&gt;Node16 -->
<g id="edge19" class="edge"><title>Node15&#45;&gt;Node16</title>
<path fill="none" stroke="midnightblue" d="M1231.5,-302.385C1228.36,-285.915 1222.36,-258.004 1214,-235 1201.42,-200.375 1181.28,-162.326 1169.18,-140.683"/>
<polygon fill="midnightblue" stroke="midnightblue" points="1172.07,-138.688 1164.09,-131.714 1165.98,-142.139 1172.07,-138.688"/>
</g>
<!-- Node17 -->
<g id="node18" class="node"><title>Node17</title>
<g id="a_node18"><a xlink:href="../../d4/d73/QModule_8h.xhtml" target="_top" xlink:title="enfield/Transform/QModule.h">
<polygon fill="none" stroke="black" points="1300.5,-174 1300.5,-193 1443.5,-193 1443.5,-174 1300.5,-174"/>
<text text-anchor="middle" x="1372" y="-181" font-family="Helvetica,sans-Serif" font-size="10.00">enfield/Transform/QModule.h</text>
</a>
</g>
</g>
<!-- Node15&#45;&gt;Node17 -->
<g id="edge21" class="edge"><title>Node15&#45;&gt;Node17</title>
<path fill="none" stroke="midnightblue" d="M1248.77,-302.374C1274.73,-277.541 1328.36,-226.241 1355.5,-200.282"/>
<polygon fill="midnightblue" stroke="midnightblue" points="1358.2,-202.539 1363.01,-193.097 1353.37,-197.48 1358.2,-202.539"/>
</g>
<!-- Node18 -->
<g id="node19" class="node"><title>Node18</title>
<g id="a_node19"><a xlink:href="../../d6/d94/XbitToNumberPass_8h.xhtml" target="_top" xlink:title="enfield/Transform/XbitTo\lNumberPass.h">
<polygon fill="none" stroke="black" points="908,-235.5 908,-265.5 1032,-265.5 1032,-235.5 908,-235.5"/>
<text text-anchor="start" x="916" y="-253.5" font-family="Helvetica,sans-Serif" font-size="10.00">enfield/Transform/XbitTo</text>
<text text-anchor="middle" x="970" y="-242.5" font-family="Helvetica,sans-Serif" font-size="10.00">NumberPass.h</text>
</a>
</g>
</g>
<!-- Node15&#45;&gt;Node18 -->
<g id="edge25" class="edge"><title>Node15&#45;&gt;Node18</title>
<path fill="none" stroke="midnightblue" d="M1177.04,-302.476C1135.98,-292.366 1080.41,-278.684 1037.18,-268.04"/>
<polygon fill="midnightblue" stroke="midnightblue" points="1037.86,-264.603 1027.31,-265.611 1036.19,-271.4 1037.86,-264.603"/>
</g>
<!-- Node19 -->
<g id="node20" class="node"><title>Node19</title>
<polygon fill="none" stroke="#bfbfbf" points="804.5,-174 804.5,-193 839.5,-193 839.5,-174 804.5,-174"/>
<text text-anchor="middle" x="822" y="-181" font-family="Helvetica,sans-Serif" font-size="10.00">map</text>
</g>
<!-- Node15&#45;&gt;Node19 -->
<g id="edge34" class="edge"><title>Node15&#45;&gt;Node19</title>
<path fill="none" stroke="midnightblue" d="M1158.74,-310.88C1074.15,-303.572 942.914,-288.957 899,-266 870.092,-250.888 846.036,-220.637 832.866,-201.544"/>
<polygon fill="midnightblue" stroke="midnightblue" points="835.756,-199.568 827.302,-193.182 829.928,-203.446 835.756,-199.568"/>
</g>
<!-- Node16&#45;&gt;Node8 -->
<g id="edge20" class="edge"><title>Node16&#45;&gt;Node8</title>
<path fill="none" stroke="midnightblue" d="M1149.92,-112.083C1141.83,-104.141 1129.8,-92.3354 1120.09,-82.7973"/>
<polygon fill="midnightblue" stroke="midnightblue" points="1122.5,-80.2595 1112.91,-75.7511 1117.6,-85.2545 1122.5,-80.2595"/>
</g>
<!-- Node17&#45;&gt;Node7 -->
<g id="edge24" class="edge"><title>Node17&#45;&gt;Node7</title>
<path fill="none" stroke="midnightblue" d="M1359.82,-173.975C1346.19,-164.431 1323.87,-148.807 1307.53,-137.368"/>
<polygon fill="midnightblue" stroke="midnightblue" points="1309.36,-134.376 1299.16,-131.509 1305.34,-140.111 1309.36,-134.376"/>
</g>
<!-- Node17&#45;&gt;Node9 -->
<g id="edge22" class="edge"><title>Node17&#45;&gt;Node9</title>
<path fill="none" stroke="midnightblue" d="M1396.93,-173.975C1427.04,-163.68 1477.83,-146.31 1511.64,-134.75"/>
<polygon fill="midnightblue" stroke="midnightblue" points="1512.79,-138.056 1521.12,-131.509 1510.52,-131.433 1512.79,-138.056"/>
</g>
<!-- Node17&#45;&gt;Node16 -->
<g id="edge23" class="edge"><title>Node17&#45;&gt;Node16</title>
<path fill="none" stroke="midnightblue" d="M1341.48,-173.975C1304.08,-163.526 1240.57,-145.787 1199.21,-134.233"/>
<polygon fill="midnightblue" stroke="midnightblue" points="1200.03,-130.829 1189.46,-131.509 1198.15,-137.571 1200.03,-130.829"/>
</g>
<!-- Node18&#45;&gt;Node5 -->
<g id="edge31" class="edge"><title>Node18&#45;&gt;Node5</title>
<path fill="none" stroke="midnightblue" d="M954.482,-235.201C945.513,-225.871 935.036,-212.878 930,-199 923.261,-180.43 923.719,-157.595 925.261,-141.831"/>
<polygon fill="midnightblue" stroke="midnightblue" points="928.752,-142.113 926.488,-131.763 921.804,-141.266 928.752,-142.113"/>
</g>
<!-- Node18&#45;&gt;Node6 -->
<g id="edge30" class="edge"><title>Node18&#45;&gt;Node6</title>
<path fill="none" stroke="midnightblue" d="M953.401,-235.44C930.956,-217.155 889,-185.494 848,-168 676.812,-94.9562 617.494,-121.899 433.04,-76.1177"/>
<polygon fill="midnightblue" stroke="midnightblue" points="433.856,-72.714 423.304,-73.6628 432.144,-79.5016 433.856,-72.714"/>
</g>
<!-- Node18&#45;&gt;Node7 -->
<g id="edge29" class="edge"><title>Node18&#45;&gt;Node7</title>
<path fill="none" stroke="midnightblue" d="M1020.41,-235.468C1051.99,-226.191 1093.33,-213.161 1129,-199 1177.25,-179.844 1231.33,-152.482 1262.06,-136.349"/>
<polygon fill="midnightblue" stroke="midnightblue" points="1263.98,-139.296 1271.18,-131.53 1260.71,-133.107 1263.98,-139.296"/>
</g>
<!-- Node18&#45;&gt;Node9 -->
<g id="edge28" class="edge"><title>Node18&#45;&gt;Node9</title>
<path fill="none" stroke="midnightblue" d="M1029.44,-235.436C1070.87,-225.526 1127.39,-211.794 1177,-199 1227.84,-185.888 1239.76,-179.463 1291,-168 1354.44,-153.807 1427.58,-141.29 1479.21,-133.084"/>
<polygon fill="midnightblue" stroke="midnightblue" points="1479.91,-136.517 1489.24,-131.501 1478.82,-129.603 1479.91,-136.517"/>
</g>
<!-- Node18&#45;&gt;Node16 -->
<g id="edge26" class="edge"><title>Node18&#45;&gt;Node16</title>
<path fill="none" stroke="midnightblue" d="M1024.87,-235.457C1049.42,-227.419 1077.77,-215.569 1100,-199 1121.27,-183.144 1138.86,-157.708 1149.15,-140.684"/>
<polygon fill="midnightblue" stroke="midnightblue" points="1152.33,-142.171 1154.33,-131.768 1146.28,-138.652 1152.33,-142.171"/>
</g>
<!-- Node18&#45;&gt;Node17 -->
<g id="edge27" class="edge"><title>Node18&#45;&gt;Node17</title>
<path fill="none" stroke="midnightblue" d="M1032.3,-236.573C1035.24,-236.027 1038.15,-235.5 1041,-235 1149.4,-215.982 1177.29,-216.15 1286,-199 1294.58,-197.646 1303.64,-196.17 1312.53,-194.695"/>
<polygon fill="midnightblue" stroke="midnightblue" points="1313.17,-198.136 1322.46,-193.037 1312.02,-191.232 1313.17,-198.136"/>
</g>
<!-- Node18&#45;&gt;Node19 -->
<g id="edge32" class="edge"><title>Node18&#45;&gt;Node19</title>
<path fill="none" stroke="midnightblue" d="M937.443,-235.48C914.16,-225.416 882.103,-211.483 854,-199 852.39,-198.285 850.737,-197.547 849.07,-196.8"/>
<polygon fill="midnightblue" stroke="midnightblue" points="850.139,-193.443 839.584,-192.524 847.263,-199.825 850.139,-193.443"/>
</g>
<!-- Node20&#45;&gt;Node6 -->
<g id="edge50" class="edge"><title>Node20&#45;&gt;Node6</title>
<path fill="none" stroke="midnightblue" d="M205.911,-307.991C181.289,-300.774 150.943,-287.967 132,-266 86.0306,-212.691 48.9884,-165.273 95,-112 130.137,-71.3175 297.494,-66.7451 368.754,-66.684"/>
<polygon fill="midnightblue" stroke="midnightblue" points="368.93,-70.1843 378.938,-66.7059 368.945,-63.1843 368.93,-70.1843"/>
</g>
<!-- Node20&#45;&gt;Node8 -->
<g id="edge52" class="edge"><title>Node20&#45;&gt;Node8</title>
<path fill="none" stroke="midnightblue" d="M261.286,-307.88C318.943,-275.808 529.55,-162.627 718,-112 843.244,-78.3534 998.025,-69.864 1067.38,-67.7224"/>
<polygon fill="midnightblue" stroke="midnightblue" points="1067.86,-71.2103 1077.76,-67.4303 1067.66,-64.213 1067.86,-71.2103"/>
</g>
<!-- Node20&#45;&gt;Node11 -->
<g id="edge49" class="edge"><title>Node20&#45;&gt;Node11</title>
<path fill="none" stroke="midnightblue" d="M198.019,-307.997C136.592,-294.033 38,-259.88 38,-184.5 38,-184.5 38,-184.5 38,-121 38,-38.1668 691.482,-15.8189 842.926,-11.752"/>
<polygon fill="midnightblue" stroke="midnightblue" points="843.429,-15.2402 853.335,-11.4804 843.247,-8.24256 843.429,-15.2402"/>
</g>
<!-- Node21 -->
<g id="node22" class="node"><title>Node21</title>
<g id="a_node22"><a xlink:href="../../d1/d5e/PossibleValuesListTrait_8h.xhtml" target="_top" xlink:title="enfield/Support/Possible\lValuesListTrait.h">
<polygon fill="none" stroke="black" points="141,-235.5 141,-265.5 263,-265.5 263,-235.5 141,-235.5"/>
<text text-anchor="start" x="149" y="-253.5" font-family="Helvetica,sans-Serif" font-size="10.00">enfield/Support/Possible</text>
<text text-anchor="middle" x="202" y="-242.5" font-family="Helvetica,sans-Serif" font-size="10.00">ValuesListTrait.h</text>
</a>
</g>
</g>
<!-- Node20&#45;&gt;Node21 -->
<g id="edge38" class="edge"><title>Node20&#45;&gt;Node21</title>
<path fill="none" stroke="midnightblue" d="M240.066,-307.734C234.234,-299.118 225.09,-285.61 217.226,-273.992"/>
<polygon fill="midnightblue" stroke="midnightblue" points="220.041,-271.908 211.537,-265.589 214.244,-275.832 220.041,-271.908"/>
</g>
<!-- Node29 -->
<g id="node30" class="node"><title>Node29</title>
<polygon fill="none" stroke="#bfbfbf" points="285.5,-112.5 285.5,-131.5 334.5,-131.5 334.5,-112.5 285.5,-112.5"/>
<text text-anchor="middle" x="310" y="-119.5" font-family="Helvetica,sans-Serif" font-size="10.00">cassert</text>
</g>
<!-- Node20&#45;&gt;Node29 -->
<g id="edge51" class="edge"><title>Node20&#45;&gt;Node29</title>
<path fill="none" stroke="midnightblue" d="M251.2,-307.828C256.931,-297.975 266.117,-281.276 272,-266 288.714,-222.598 300.794,-169.06 306.434,-141.432"/>
<polygon fill="midnightblue" stroke="midnightblue" points="309.875,-142.074 308.394,-131.583 303.009,-140.708 309.875,-142.074"/>
</g>
<!-- Node22 -->
<g id="node23" class="node"><title>Node22</title>
<g id="a_node23"><a xlink:href="../../dd/d62/EnumString_8h.xhtml" target="_top" xlink:title="enfield/Support/EnumString.h">
<polygon fill="none" stroke="black" points="124,-174 124,-193 268,-193 268,-174 124,-174"/>
<text text-anchor="middle" x="196" y="-181" font-family="Helvetica,sans-Serif" font-size="10.00">enfield/Support/EnumString.h</text>
</a>
</g>
</g>
<!-- Node21&#45;&gt;Node22 -->
<g id="edge39" class="edge"><title>Node21&#45;&gt;Node22</title>
<path fill="none" stroke="midnightblue" d="M200.698,-235.396C199.827,-225.963 198.672,-213.448 197.725,-203.189"/>
<polygon fill="midnightblue" stroke="midnightblue" points="201.207,-202.83 196.803,-193.195 194.237,-203.474 201.207,-202.83"/>
</g>
<!-- Node22&#45;&gt;Node6 -->
<g id="edge45" class="edge"><title>Node22&#45;&gt;Node6</title>
<path fill="none" stroke="midnightblue" d="M194.56,-173.831C192.645,-159.084 191.145,-129.059 207,-112 228.655,-88.7005 319.401,-75.647 368.733,-70.1474"/>
<polygon fill="midnightblue" stroke="midnightblue" points="369.311,-73.6056 378.88,-69.0578 368.563,-66.6456 369.311,-73.6056"/>
</g>
<!-- Node22&#45;&gt;Node23 -->
<g id="edge40" class="edge"><title>Node22&#45;&gt;Node23</title>
<path fill="none" stroke="midnightblue" d="M237.55,-173.975C289.449,-163.327 378.241,-145.109 434.431,-133.581"/>
<polygon fill="midnightblue" stroke="midnightblue" points="435.435,-136.948 444.527,-131.509 434.028,-130.09 435.435,-136.948"/>
</g>
<!-- Node22&#45;&gt;Node27 -->
<g id="edge46" class="edge"><title>Node22&#45;&gt;Node27</title>
<path fill="none" stroke="midnightblue" d="M186.83,-173.975C176.85,-164.697 160.688,-149.671 148.491,-138.331"/>
<polygon fill="midnightblue" stroke="midnightblue" points="150.86,-135.755 141.153,-131.509 146.093,-140.881 150.86,-135.755"/>
</g>
<!-- Node28 -->
<g id="node29" class="node"><title>Node28</title>
<polygon fill="none" stroke="#bfbfbf" points="216.5,-112.5 216.5,-131.5 267.5,-131.5 267.5,-112.5 216.5,-112.5"/>
<text text-anchor="middle" x="242" y="-119.5" font-family="Helvetica,sans-Serif" font-size="10.00">typeinfo</text>
</g>
<!-- Node22&#45;&gt;Node28 -->
<g id="edge47" class="edge"><title>Node22&#45;&gt;Node28</title>
<path fill="none" stroke="midnightblue" d="M202.591,-173.975C209.491,-165.05 220.502,-150.807 229.134,-139.643"/>
<polygon fill="midnightblue" stroke="midnightblue" points="232.074,-141.561 235.422,-131.509 226.536,-137.28 232.074,-141.561"/>
</g>
<!-- Node22&#45;&gt;Node29 -->
<g id="edge48" class="edge"><title>Node22&#45;&gt;Node29</title>
<path fill="none" stroke="midnightblue" d="M212.333,-173.975C231.211,-164.122 262.507,-147.788 284.576,-136.27"/>
<polygon fill="midnightblue" stroke="midnightblue" points="286.451,-139.239 293.697,-131.509 283.212,-133.033 286.451,-139.239"/>
</g>
<!-- Node23&#45;&gt;Node6 -->
<g id="edge41" class="edge"><title>Node23&#45;&gt;Node6</title>
<path fill="none" stroke="midnightblue" d="M472.343,-112.324C459.084,-103.9 438.732,-90.9709 423.154,-81.0741"/>
<polygon fill="midnightblue" stroke="midnightblue" points="424.94,-78.0626 414.623,-75.6545 421.187,-83.9711 424.94,-78.0626"/>
</g>
<!-- Node24 -->
<g id="node25" class="node"><title>Node24</title>
<polygon fill="none" stroke="#bfbfbf" points="441,-56.5 441,-75.5 487,-75.5 487,-56.5 441,-56.5"/>
<text text-anchor="middle" x="464" y="-63.5" font-family="Helvetica,sans-Serif" font-size="10.00">cstdint</text>
</g>
<!-- Node23&#45;&gt;Node24 -->
<g id="edge42" class="edge"><title>Node23&#45;&gt;Node24</title>
<path fill="none" stroke="midnightblue" d="M482.367,-112.083C479.388,-104.77 475.074,-94.1814 471.375,-85.1034"/>
<polygon fill="midnightblue" stroke="midnightblue" points="474.58,-83.6914 467.565,-75.7511 468.097,-86.3326 474.58,-83.6914"/>
</g>
<!-- Node25 -->
<g id="node26" class="node"><title>Node25</title>
<polygon fill="none" stroke="#bfbfbf" points="505,-56.5 505,-75.5 545,-75.5 545,-56.5 505,-56.5"/>
<text text-anchor="middle" x="525" y="-63.5" font-family="Helvetica,sans-Serif" font-size="10.00">limits</text>
</g>
<!-- Node23&#45;&gt;Node25 -->
<g id="edge43" class="edge"><title>Node23&#45;&gt;Node25</title>
<path fill="none" stroke="midnightblue" d="M492.44,-112.083C497.949,-104.455 506.031,-93.2645 512.765,-83.9408"/>
<polygon fill="midnightblue" stroke="midnightblue" points="515.662,-85.9071 518.68,-75.7511 509.987,-81.8087 515.662,-85.9071"/>
</g>
<!-- Node26 -->
<g id="node27" class="node"><title>Node26</title>
<polygon fill="none" stroke="#bfbfbf" points="563,-56.5 563,-75.5 615,-75.5 615,-56.5 563,-56.5"/>
<text text-anchor="middle" x="589" y="-63.5" font-family="Helvetica,sans-Serif" font-size="10.00">ostream</text>
</g>
<!-- Node23&#45;&gt;Node26 -->
<g id="edge44" class="edge"><title>Node23&#45;&gt;Node26</title>
<path fill="none" stroke="midnightblue" d="M502.549,-112.324C518.992,-103.703 544.435,-90.3643 563.468,-80.3855"/>
<polygon fill="midnightblue" stroke="midnightblue" points="565.261,-83.3977 572.492,-75.6545 562.011,-77.198 565.261,-83.3977"/>
</g>
<!-- Node30&#45;&gt;Node8 -->
<g id="edge55" class="edge"><title>Node30&#45;&gt;Node8</title>
<path fill="none" stroke="midnightblue" d="M1357.31,-112.444C1296.88,-101.603 1194.11,-83.1653 1139.91,-73.4419"/>
<polygon fill="midnightblue" stroke="midnightblue" points="1140.52,-69.9958 1130.06,-71.6749 1139.28,-76.8858 1140.52,-69.9958"/>
</g>
<!-- Node30&#45;&gt;Node14 -->
<g id="edge54" class="edge"><title>Node30&#45;&gt;Node14</title>
<path fill="none" stroke="midnightblue" d="M1398.73,-112.083C1393.36,-104.455 1385.48,-93.2645 1378.92,-83.9408"/>
<polygon fill="midnightblue" stroke="midnightblue" points="1381.78,-81.9149 1373.16,-75.7511 1376.05,-85.9434 1381.78,-81.9149"/>
</g>
<!-- Node32 -->
<g id="node33" class="node"><title>Node32</title>
<g id="a_node33"><a xlink:href="../../d5/dd9/MappingFinder_8h.xhtml" target="_top" xlink:title="enfield/Transform/Allocators\l/MappingFinder.h">
<polygon fill="none" stroke="black" points="1016.5,-436.5 1016.5,-466.5 1155.5,-466.5 1155.5,-436.5 1016.5,-436.5"/>
<text text-anchor="start" x="1024.5" y="-454.5" font-family="Helvetica,sans-Serif" font-size="10.00">enfield/Transform/Allocators</text>
<text text-anchor="middle" x="1086" y="-443.5" font-family="Helvetica,sans-Serif" font-size="10.00">/MappingFinder.h</text>
</a>
</g>
</g>
<!-- Node31&#45;&gt;Node32 -->
<g id="edge57" class="edge"><title>Node31&#45;&gt;Node32</title>
<path fill="none" stroke="midnightblue" d="M781.548,-504.662C784.742,-504.098 787.904,-503.542 791,-503 863.816,-490.25 946.808,-476.075 1006.18,-465.996"/>
<polygon fill="midnightblue" stroke="midnightblue" points="1006.96,-469.413 1016.24,-464.289 1005.79,-462.511 1006.96,-469.413"/>
</g>
<!-- Node33 -->
<g id="node34" class="node"><title>Node33</title>
<g id="a_node34"><a xlink:href="../../d7/dd6/SIFinder_8h.xhtml" target="_top" xlink:title="enfield/Support/SIFinder.h">
<polygon fill="none" stroke="black" points="480,-241 480,-260 610,-260 610,-241 480,-241"/>
<text text-anchor="middle" x="545" y="-248" font-family="Helvetica,sans-Serif" font-size="10.00">enfield/Support/SIFinder.h</text>
</a>
</g>
</g>
<!-- Node31&#45;&gt;Node33 -->
<g id="edge59" class="edge"><title>Node31&#45;&gt;Node33</title>
<path fill="none" stroke="midnightblue" d="M701.129,-503.199C673.015,-457.876 585.964,-317.54 555.588,-268.57"/>
<polygon fill="midnightblue" stroke="midnightblue" points="558.549,-266.702 550.303,-260.049 552.6,-270.392 558.549,-266.702"/>
</g>
<!-- Node34 -->
<g id="node35" class="node"><title>Node34</title>
<g id="a_node35"><a xlink:href="../../d6/df7/WeightedGraph_8h.xhtml" target="_top" xlink:title="enfield/Support/Weighted\lGraph.h">
<polygon fill="none" stroke="black" points="666,-235.5 666,-265.5 792,-265.5 792,-235.5 666,-235.5"/>
<text text-anchor="start" x="674" y="-253.5" font-family="Helvetica,sans-Serif" font-size="10.00">enfield/Support/Weighted</text>
<text text-anchor="middle" x="729" y="-242.5" font-family="Helvetica,sans-Serif" font-size="10.00">Graph.h</text>
</a>
</g>
</g>
<!-- Node31&#45;&gt;Node34 -->
<g id="edge64" class="edge"><title>Node31&#45;&gt;Node34</title>
<path fill="none" stroke="midnightblue" d="M711.022,-503.199C714.115,-459.888 723.406,-329.816 727.277,-275.617"/>
<polygon fill="midnightblue" stroke="midnightblue" points="730.775,-275.773 727.996,-265.549 723.793,-275.274 730.775,-275.773"/>
</g>
<!-- Node32&#45;&gt;Node2 -->
<g id="edge58" class="edge"><title>Node32&#45;&gt;Node2</title>
<path fill="none" stroke="midnightblue" d="M1118.98,-436.396C1141.49,-426.771 1171.5,-413.936 1195.76,-403.564"/>
<polygon fill="midnightblue" stroke="midnightblue" points="1197.26,-406.727 1205.08,-399.577 1194.51,-400.29 1197.26,-406.727"/>
</g>
<!-- Node33&#45;&gt;Node4 -->
<g id="edge60" class="edge"><title>Node33&#45;&gt;Node4</title>
<path fill="none" stroke="midnightblue" d="M608.917,-240.969C700.294,-228.773 867.642,-206.437 962.172,-193.82"/>
<polygon fill="midnightblue" stroke="midnightblue" points="962.759,-197.273 972.209,-192.48 961.833,-190.334 962.759,-197.273"/>
</g>
<!-- Node33&#45;&gt;Node6 -->
<g id="edge62" class="edge"><title>Node33&#45;&gt;Node6</title>
<path fill="none" stroke="midnightblue" d="M531.873,-240.829C506.422,-223.333 450.219,-181.249 420,-132 411.257,-117.751 406.365,-99.2789 403.743,-85.67"/>
<polygon fill="midnightblue" stroke="midnightblue" points="407.156,-84.8597 402.04,-75.582 400.253,-86.0251 407.156,-84.8597"/>
</g>
<!-- Node33&#45;&gt;Node8 -->
<g id="edge63" class="edge"><title>Node33&#45;&gt;Node8</title>
<path fill="none" stroke="midnightblue" d="M551.977,-240.763C565.985,-223.856 599.344,-186.688 636,-168 783.942,-92.5773 985.996,-73.363 1067.61,-68.5612"/>
<polygon fill="midnightblue" stroke="midnightblue" points="1068.06,-72.0415 1077.85,-67.9978 1067.68,-65.0521 1068.06,-72.0415"/>
</g>
<!-- Node33&#45;&gt;Node23 -->
<g id="edge61" class="edge"><title>Node33&#45;&gt;Node23</title>
<path fill="none" stroke="midnightblue" d="M540.945,-240.805C531.387,-220.313 507.289,-168.645 494.415,-141.042"/>
<polygon fill="midnightblue" stroke="midnightblue" points="497.483,-139.339 490.084,-131.756 491.139,-142.298 497.483,-139.339"/>
</g>
<!-- Node34&#45;&gt;Node4 -->
<g id="edge65" class="edge"><title>Node34&#45;&gt;Node4</title>
<path fill="none" stroke="midnightblue" d="M792.15,-235.953C848.572,-223.849 930.123,-206.355 982.094,-195.206"/>
<polygon fill="midnightblue" stroke="midnightblue" points="983.034,-198.584 992.077,-193.064 981.565,-191.74 983.034,-198.584"/>
</g>
<!-- Node34&#45;&gt;Node19 -->
<g id="edge67" class="edge"><title>Node34&#45;&gt;Node19</title>
<path fill="none" stroke="midnightblue" d="M749.18,-235.396C764.631,-224.597 785.864,-209.756 801.415,-198.887"/>
<polygon fill="midnightblue" stroke="midnightblue" points="803.637,-201.605 809.828,-193.007 799.627,-195.867 803.637,-201.605"/>
</g>
<!-- Node34&#45;&gt;Node23 -->
<g id="edge66" class="edge"><title>Node34&#45;&gt;Node23</title>
<path fill="none" stroke="midnightblue" d="M702.066,-235.479C654.882,-210.916 557.902,-160.431 511.643,-136.349"/>
<polygon fill="midnightblue" stroke="midnightblue" points="513.065,-133.143 502.578,-131.63 509.832,-139.352 513.065,-133.143"/>
</g>
<!-- Node34&#45;&gt;Node29 -->
<g id="edge70" class="edge"><title>Node34&#45;&gt;Node29</title>
<path fill="none" stroke="midnightblue" d="M682.559,-235.479C597.7,-209.859 419.432,-156.039 344.421,-133.392"/>
<polygon fill="midnightblue" stroke="midnightblue" points="345.127,-129.949 334.542,-130.41 343.104,-136.651 345.127,-129.949"/>
</g>
<!-- Node35 -->
<g id="node36" class="node"><title>Node35</title>
<polygon fill="none" stroke="#bfbfbf" points="666,-174 666,-193 716,-193 716,-174 666,-174"/>
<text text-anchor="middle" x="691" y="-181" font-family="Helvetica,sans-Serif" font-size="10.00">fstream</text>
</g>
<!-- Node34&#45;&gt;Node35 -->
<g id="edge68" class="edge"><title>Node34&#45;&gt;Node35</title>
<path fill="none" stroke="midnightblue" d="M720.755,-235.396C715.006,-225.562 707.298,-212.378 701.168,-201.892"/>
<polygon fill="midnightblue" stroke="midnightblue" points="704.152,-200.061 696.083,-193.195 698.108,-203.594 704.152,-200.061"/>
</g>
<!-- Node36 -->
<g id="node37" class="node"><title>Node36</title>
<polygon fill="none" stroke="#bfbfbf" points="734,-174 734,-193 786,-193 786,-174 734,-174"/>
<text text-anchor="middle" x="760" y="-181" font-family="Helvetica,sans-Serif" font-size="10.00">sstream</text>
</g>
<!-- Node34&#45;&gt;Node36 -->
<g id="edge69" class="edge"><title>Node34&#45;&gt;Node36</title>
<path fill="none" stroke="midnightblue" d="M735.727,-235.396C740.321,-225.763 746.448,-212.914 751.398,-202.537"/>
<polygon fill="midnightblue" stroke="midnightblue" points="754.708,-203.727 755.853,-193.195 748.389,-200.714 754.708,-203.727"/>
</g>
<!-- Node37&#45;&gt;Node9 -->
<g id="edge72" class="edge"><title>Node37&#45;&gt;Node9</title>
<path fill="none" stroke="midnightblue" d="M1703.38,-235.379C1730.84,-219.364 1766.47,-192.314 1747,-168 1730.92,-147.917 1669.4,-136.193 1618.61,-129.776"/>
<polygon fill="midnightblue" stroke="midnightblue" points="1618.96,-126.293 1608.61,-128.563 1618.12,-133.242 1618.96,-126.293"/>
</g>
<!-- Node37&#45;&gt;Node16 -->
<g id="edge73" class="edge"><title>Node37&#45;&gt;Node16</title>
<path fill="none" stroke="midnightblue" d="M1643.62,-235.425C1600.62,-217.273 1521.96,-185.913 1452,-168 1411.65,-157.667 1305.16,-142.407 1232.32,-132.584"/>
<polygon fill="midnightblue" stroke="midnightblue" points="1232.65,-129.098 1222.28,-131.235 1231.72,-136.035 1232.65,-129.098"/>
</g>
<!-- Node37&#45;&gt;Node17 -->
<g id="edge74" class="edge"><title>Node37&#45;&gt;Node17</title>
<path fill="none" stroke="midnightblue" d="M1613.75,-236.189C1557.07,-224.072 1474.47,-206.41 1421.99,-195.189"/>
<polygon fill="midnightblue" stroke="midnightblue" points="1422.42,-191.702 1411.91,-193.034 1420.96,-198.548 1422.42,-191.702"/>
</g>
<!-- Node38 -->
<g id="node39" class="node"><title>Node38</title>
<g id="a_node39"><a xlink:href="../../df/da6/CircuitGraph_8h.xhtml" target="_top" xlink:title="enfield/Transform/Circuit\lGraph.h">
<polygon fill="none" stroke="black" points="1614,-168.5 1614,-198.5 1738,-198.5 1738,-168.5 1614,-168.5"/>
<text text-anchor="start" x="1622" y="-186.5" font-family="Helvetica,sans-Serif" font-size="10.00">enfield/Transform/Circuit</text>
<text text-anchor="middle" x="1676" y="-175.5" font-family="Helvetica,sans-Serif" font-size="10.00">Graph.h</text>
</a>
</g>
</g>
<!-- Node37&#45;&gt;Node38 -->
<g id="edge75" class="edge"><title>Node37&#45;&gt;Node38</title>
<path fill="none" stroke="midnightblue" d="M1676,-235.396C1676,-227.645 1676,-217.812 1676,-208.86"/>
<polygon fill="midnightblue" stroke="midnightblue" points="1679.5,-208.576 1676,-198.577 1672.5,-208.577 1679.5,-208.576"/>
</g>
<!-- Node38&#45;&gt;Node7 -->
<g id="edge77" class="edge"><title>Node38&#45;&gt;Node7</title>
<path fill="none" stroke="midnightblue" d="M1613.94,-173.728C1548.2,-164.324 1441.14,-148.685 1338.64,-132.068"/>
<polygon fill="midnightblue" stroke="midnightblue" points="1339.17,-128.608 1328.73,-130.457 1338.04,-135.517 1339.17,-128.608"/>
</g>
<!-- Node38&#45;&gt;Node9 -->
<g id="edge76" class="edge"><title>Node38&#45;&gt;Node9</title>
<path fill="none" stroke="midnightblue" d="M1645.19,-168.399C1623.67,-158.55 1595.16,-145.501 1574.23,-135.922"/>
<polygon fill="midnightblue" stroke="midnightblue" points="1575.47,-132.637 1564.92,-131.658 1572.55,-139.002 1575.47,-132.637"/>
</g>
<!-- Node39&#45;&gt;Node5 -->
<g id="edge81" class="edge"><title>Node39&#45;&gt;Node5</title>
<path fill="none" stroke="midnightblue" d="M1086.94,-240.971C1044.39,-231.441 981.555,-215.212 963,-199 945.861,-184.025 936.591,-158.912 931.977,-141.68"/>
<polygon fill="midnightblue" stroke="midnightblue" points="935.315,-140.59 929.582,-131.68 928.508,-142.22 935.315,-140.59"/>
</g>
<!-- Node39&#45;&gt;Node16 -->
<g id="edge79" class="edge"><title>Node39&#45;&gt;Node16</title>
<path fill="none" stroke="midnightblue" d="M1130.13,-240.805C1135.11,-220.494 1147.59,-169.553 1154.4,-141.777"/>
<polygon fill="midnightblue" stroke="midnightblue" points="1157.87,-142.301 1156.85,-131.756 1151.07,-140.635 1157.87,-142.301"/>
</g>
<!-- Node39&#45;&gt;Node17 -->
<g id="edge80" class="edge"><title>Node39&#45;&gt;Node17</title>
<path fill="none" stroke="midnightblue" d="M1160.15,-240.936C1203.76,-229.317 1281.75,-208.541 1329.97,-195.698"/>
<polygon fill="midnightblue" stroke="midnightblue" points="1331.02,-199.04 1339.78,-193.083 1329.22,-192.276 1331.02,-199.04"/>
</g>
<!-- Node41 -->
<g id="node42" class="node"><title>Node41</title>
<g id="a_node42"><a xlink:href="../../de/de3/PathFinder_8h.xhtml" target="_top" xlink:title="enfield/Support/PathFinder.h">
<polygon fill="none" stroke="black" points="810,-375 810,-394 950,-394 950,-375 810,-375"/>
<text text-anchor="middle" x="880" y="-382" font-family="Helvetica,sans-Serif" font-size="10.00">enfield/Support/PathFinder.h</text>
</a>
</g>
</g>
<!-- Node40&#45;&gt;Node41 -->
<g id="edge83" class="edge"><title>Node40&#45;&gt;Node41</title>
<path fill="none" stroke="midnightblue" d="M880,-508.839C880,-487.674 880,-432.948 880,-404.033"/>
<polygon fill="midnightblue" stroke="midnightblue" points="883.5,-404.021 880,-394.021 876.5,-404.021 883.5,-404.021"/>
</g>
<!-- Node41&#45;&gt;Node4 -->
<g id="edge84" class="edge"><title>Node41&#45;&gt;Node4</title>
<path fill="none" stroke="midnightblue" d="M878.347,-374.991C874.071,-350.332 865.209,-277.864 899,-235 914.657,-215.14 939.066,-203.087 962.721,-195.775"/>
<polygon fill="midnightblue" stroke="midnightblue" points="963.769,-199.115 972.431,-193.014 961.855,-192.382 963.769,-199.115"/>
</g>
</g>
</svg>
