<?xml version="1.0" encoding="UTF-8" standalone="no"?>
<!DOCTYPE svg PUBLIC "-//W3C//DTD SVG 1.1//EN"
 "http://www.w3.org/Graphics/SVG/1.1/DTD/svg11.dtd">
<!-- Generated by graphviz version 2.40.1 (20161225.0304)
 -->
<!-- Title: lib/Transform/LayerBasedOrderingWrapperPass.cpp Pages: 1 -->
<svg width="935pt" height="408pt"
 viewBox="0.00 0.00 934.95 408.00" xmlns="http://www.w3.org/2000/svg" xmlns:xlink="http://www.w3.org/1999/xlink">
<g id="graph0" class="graph" transform="scale(1 1) rotate(0) translate(4 404)">
<title>lib/Transform/LayerBasedOrderingWrapperPass.cpp</title>
<!-- Node0 -->
<g id="node1" class="node">
<title>Node0</title>
<polygon fill="#bfbfbf" stroke="#000000" points="300.5,-369.5 300.5,-399.5 443.5,-399.5 443.5,-369.5 300.5,-369.5"/>
<text text-anchor="start" x="308.5" y="-387.5" font-family="Helvetica,sans-Serif" font-size="10.00" fill="#000000">lib/Transform/LayerBased</text>
<text text-anchor="middle" x="372" y="-376.5" font-family="Helvetica,sans-Serif" font-size="10.00" fill="#000000">OrderingWrapperPass.cpp</text>
</g>
<!-- Node1 -->
<g id="node2" class="node">
<title>Node1</title>
<g id="a_node2"><a xlink:href="../../df/d01/LayerBasedOrderingWrapperPass_8h.xhtml" target="_top" xlink:title="enfield/Transform/LayerBased\lOrderingWrapperPass.h">
<polygon fill="none" stroke="#000000" points="290,-302.5 290,-332.5 454,-332.5 454,-302.5 290,-302.5"/>
<text text-anchor="start" x="298" y="-320.5" font-family="Helvetica,sans-Serif" font-size="10.00" fill="#000000">enfield/Transform/LayerBased</text>
<text text-anchor="middle" x="372" y="-309.5" font-family="Helvetica,sans-Serif" font-size="10.00" fill="#000000">OrderingWrapperPass.h</text>
</a>
</g>
</g>
<!-- Node0&#45;&gt;Node1 -->
<g id="edge1" class="edge">
<title>Node0&#45;&gt;Node1</title>
<path fill="none" stroke="#191970" d="M372,-369.2967C372,-361.5013 372,-351.7991 372,-342.9064"/>
<polygon fill="#191970" stroke="#191970" points="375.5001,-342.6431 372,-332.6432 368.5001,-342.6432 375.5001,-342.6431"/>
</g>
<!-- Node17 -->
<g id="node18" class="node">
<title>Node17</title>
<g id="a_node18"><a xlink:href="../../db/d82/PassCache_8h.xhtml" target="_top" xlink:title="enfield/Transform/PassCache.h">
<polygon fill="none" stroke="#000000" points="0,-241 0,-260 168,-260 168,-241 0,-241"/>
<text text-anchor="middle" x="84" y="-248" font-family="Helvetica,sans-Serif" font-size="10.00" fill="#000000">enfield/Transform/PassCache.h</text>
</a>
</g>
</g>
<!-- Node0&#45;&gt;Node17 -->
<g id="edge27" class="edge">
<title>Node0&#45;&gt;Node17</title>
<path fill="none" stroke="#191970" d="M339.5226,-369.389C283.1796,-343.1738 168.1451,-289.6509 113.7567,-264.3451"/>
<polygon fill="#191970" stroke="#191970" points="115.1849,-261.1494 104.6418,-260.1042 112.2319,-267.4961 115.1849,-261.1494"/>
</g>
<!-- Node18 -->
<g id="node19" class="node">
<title>Node18</title>
<g id="a_node19"><a xlink:href="../../d1/d73/Defs_8h.xhtml" target="_top" xlink:title="enfield/Support/Defs.h">
<polygon fill="none" stroke="#000000" points="743.5,-308 743.5,-327 868.5,-327 868.5,-308 743.5,-308"/>
<text text-anchor="middle" x="806" y="-315" font-family="Helvetica,sans-Serif" font-size="10.00" fill="#000000">enfield/Support/Defs.h</text>
</a>
</g>
</g>
<!-- Node0&#45;&gt;Node18 -->
<g id="edge31" class="edge">
<title>Node0&#45;&gt;Node18</title>
<path fill="none" stroke="#191970" d="M443.6663,-373.4363C524.1291,-361.0146 653.9306,-340.9762 734.3761,-328.5571"/>
<polygon fill="#191970" stroke="#191970" points="735.0706,-331.9915 744.4195,-327.0067 734.0025,-325.0734 735.0706,-331.9915"/>
</g>
<!-- Node2 -->
<g id="node3" class="node">
<title>Node2</title>
<g id="a_node3"><a xlink:href="../../d8/d9b/CircuitGraphBuilderPass_8h.xhtml" target="_top" xlink:title="enfield/Transform/Circuit\lGraphBuilderPass.h">
<polygon fill="none" stroke="#000000" points="382,-235.5 382,-265.5 520,-265.5 520,-235.5 382,-235.5"/>
<text text-anchor="start" x="390" y="-253.5" font-family="Helvetica,sans-Serif" font-size="10.00" fill="#000000">enfield/Transform/Circuit</text>
<text text-anchor="middle" x="451" y="-242.5" font-family="Helvetica,sans-Serif" font-size="10.00" fill="#000000">GraphBuilderPass.h</text>
</a>
</g>
</g>
<!-- Node1&#45;&gt;Node2 -->
<g id="edge2" class="edge">
<title>Node1&#45;&gt;Node2</title>
<path fill="none" stroke="#191970" d="M389.9263,-302.2967C400.431,-293.3876 413.8721,-281.9882 425.4692,-272.1527"/>
<polygon fill="#191970" stroke="#191970" points="427.7819,-274.7806 433.1446,-265.6432 423.2542,-269.442 427.7819,-274.7806"/>
</g>
<!-- Node13 -->
<g id="node14" class="node">
<title>Node13</title>
<polygon fill="none" stroke="#bfbfbf" points="526.5,-112.5 526.5,-131.5 619.5,-131.5 619.5,-112.5 526.5,-112.5"/>
<text text-anchor="middle" x="573" y="-119.5" font-family="Helvetica,sans-Serif" font-size="10.00" fill="#000000">unordered_map</text>
</g>
<!-- Node1&#45;&gt;Node13 -->
<g id="edge26" class="edge">
<title>Node1&#45;&gt;Node13</title>
<path fill="none" stroke="#191970" d="M454.2207,-308.0378C520.0965,-295.493 607.7671,-266.3923 647,-199 653.9318,-187.093 653.6937,-180.0425 647,-168 639.0422,-153.6832 624.5771,-143.2479 610.5334,-135.972"/>
<polygon fill="#191970" stroke="#191970" points="611.9712,-132.7801 601.4381,-131.6379 608.9599,-139.0993 611.9712,-132.7801"/>
</g>
<!-- Node15 -->
<g id="node16" class="node">
<title>Node15</title>
<g id="a_node16"><a xlink:href="../../dc/d33/LayersBuilderPass_8h.xhtml" target="_top" xlink:title="enfield/Transform/Layers\lBuilderPass.h">
<polygon fill="none" stroke="#000000" points="224.5,-235.5 224.5,-265.5 363.5,-265.5 363.5,-235.5 224.5,-235.5"/>
<text text-anchor="start" x="232.5" y="-253.5" font-family="Helvetica,sans-Serif" font-size="10.00" fill="#000000">enfield/Transform/Layers</text>
<text text-anchor="middle" x="294" y="-242.5" font-family="Helvetica,sans-Serif" font-size="10.00" fill="#000000">BuilderPass.h</text>
</a>
</g>
</g>
<!-- Node1&#45;&gt;Node15 -->
<g id="edge20" class="edge">
<title>Node1&#45;&gt;Node15</title>
<path fill="none" stroke="#191970" d="M354.3006,-302.2967C344.0286,-293.4733 330.9128,-282.2072 319.5384,-272.4368"/>
<polygon fill="#191970" stroke="#191970" points="321.4957,-269.5041 311.6294,-265.6432 316.9345,-274.8141 321.4957,-269.5041"/>
</g>
<!-- Node16 -->
<g id="node17" class="node">
<title>Node16</title>
<polygon fill="none" stroke="#bfbfbf" points="106,-174 106,-193 138,-193 138,-174 106,-174"/>
<text text-anchor="middle" x="122" y="-181" font-family="Helvetica,sans-Serif" font-size="10.00" fill="#000000">set</text>
</g>
<!-- Node1&#45;&gt;Node16 -->
<g id="edge25" class="edge">
<title>Node1&#45;&gt;Node16</title>
<path fill="none" stroke="#191970" d="M307.3047,-302.4439C278.2449,-294.1226 244.2227,-282.1442 216,-266 199.5496,-256.5899 161.8269,-221.6532 139.4913,-200.3777"/>
<polygon fill="#191970" stroke="#191970" points="141.6699,-197.6181 132.0264,-193.2301 136.8287,-202.6741 141.6699,-197.6181"/>
</g>
<!-- Node3 -->
<g id="node4" class="node">
<title>Node3</title>
<g id="a_node4"><a xlink:href="../../d4/daf/Nodes_8h.xhtml" target="_top" xlink:title="enfield/Analysis/Nodes.h">
<polygon fill="none" stroke="#000000" points="366.5,-112.5 366.5,-131.5 503.5,-131.5 503.5,-112.5 366.5,-112.5"/>
<text text-anchor="middle" x="435" y="-119.5" font-family="Helvetica,sans-Serif" font-size="10.00" fill="#000000">enfield/Analysis/Nodes.h</text>
</a>
</g>
</g>
<!-- Node2&#45;&gt;Node3 -->
<g id="edge3" class="edge">
<title>Node2&#45;&gt;Node3</title>
<path fill="none" stroke="#191970" d="M449.1018,-235.2548C446.203,-211.9744 440.6729,-167.5607 437.4668,-141.8117"/>
<polygon fill="#191970" stroke="#191970" points="440.9211,-141.2267 436.2122,-131.7358 433.9747,-142.0917 440.9211,-141.2267"/>
</g>
<!-- Node11 -->
<g id="node12" class="node">
<title>Node11</title>
<g id="a_node12"><a xlink:href="../../df/d29/Pass_8h.xhtml" target="_top" xlink:title="enfield/Transform/Pass.h">
<polygon fill="none" stroke="#000000" points="135,-112.5 135,-131.5 273,-131.5 273,-112.5 135,-112.5"/>
<text text-anchor="middle" x="204" y="-119.5" font-family="Helvetica,sans-Serif" font-size="10.00" fill="#000000">enfield/Transform/Pass.h</text>
</a>
</g>
</g>
<!-- Node2&#45;&gt;Node11 -->
<g id="edge11" class="edge">
<title>Node2&#45;&gt;Node11</title>
<path fill="none" stroke="#191970" d="M381.9796,-236.7779C336.1213,-226.7294 280.8273,-212.5391 261,-199 239.4139,-184.2599 222.8497,-158.599 213.2766,-140.9807"/>
<polygon fill="#191970" stroke="#191970" points="216.1677,-138.9522 208.4628,-131.68 209.951,-142.1698 216.1677,-138.9522"/>
</g>
<!-- Node12 -->
<g id="node13" class="node">
<title>Node12</title>
<g id="a_node13"><a xlink:href="../../d4/d73/QModule_8h.xhtml" target="_top" xlink:title="enfield/Transform/QModule.h">
<polygon fill="none" stroke="#000000" points="270,-174 270,-193 428,-193 428,-174 270,-174"/>
<text text-anchor="middle" x="349" y="-181" font-family="Helvetica,sans-Serif" font-size="10.00" fill="#000000">enfield/Transform/QModule.h</text>
</a>
</g>
</g>
<!-- Node2&#45;&gt;Node12 -->
<g id="edge13" class="edge">
<title>Node2&#45;&gt;Node12</title>
<path fill="none" stroke="#191970" d="M428.1092,-235.4639C411.4575,-224.526 388.9917,-209.769 372.2558,-198.7759"/>
<polygon fill="#191970" stroke="#191970" points="373.9006,-195.6688 363.6209,-193.1039 370.0575,-201.5195 373.9006,-195.6688"/>
</g>
<!-- Node14 -->
<g id="node15" class="node">
<title>Node14</title>
<g id="a_node15"><a xlink:href="../../df/da6/CircuitGraph_8h.xhtml" target="_top" xlink:title="enfield/Transform/Circuit\lGraph.h">
<polygon fill="none" stroke="#000000" points="484,-168.5 484,-198.5 622,-198.5 622,-168.5 484,-168.5"/>
<text text-anchor="start" x="492" y="-186.5" font-family="Helvetica,sans-Serif" font-size="10.00" fill="#000000">enfield/Transform/Circuit</text>
<text text-anchor="middle" x="553" y="-175.5" font-family="Helvetica,sans-Serif" font-size="10.00" fill="#000000">Graph.h</text>
</a>
</g>
</g>
<!-- Node2&#45;&gt;Node14 -->
<g id="edge17" class="edge">
<title>Node2&#45;&gt;Node14</title>
<path fill="none" stroke="#191970" d="M473.8908,-235.4639C487.8352,-226.3044 505.8567,-214.4667 521.1762,-204.4038"/>
<polygon fill="#191970" stroke="#191970" points="523.3961,-207.1333 529.8327,-198.7177 519.553,-201.2826 523.3961,-207.1333"/>
</g>
<!-- Node4 -->
<g id="node5" class="node">
<title>Node4</title>
<g id="a_node5"><a xlink:href="../../d1/d2e/WrapperVal_8h.xhtml" target="_top" xlink:title="enfield/Support/WrapperVal.h">
<polygon fill="none" stroke="#000000" points="474,-56.5 474,-75.5 634,-75.5 634,-56.5 474,-56.5"/>
<text text-anchor="middle" x="554" y="-63.5" font-family="Helvetica,sans-Serif" font-size="10.00" fill="#000000">enfield/Support/WrapperVal.h</text>
</a>
</g>
</g>
<!-- Node3&#45;&gt;Node4 -->
<g id="edge4" class="edge">
<title>Node3&#45;&gt;Node4</title>
<path fill="none" stroke="#191970" d="M455.4568,-112.3733C474.4738,-103.4241 503.0175,-89.9917 524.4976,-79.8835"/>
<polygon fill="#191970" stroke="#191970" points="526.2522,-82.926 533.8101,-75.5011 523.2716,-76.5923 526.2522,-82.926"/>
</g>
<!-- Node6 -->
<g id="node7" class="node">
<title>Node6</title>
<g id="a_node7"><a xlink:href="../../d5/dfc/RTTI_8h.xhtml" target="_top" xlink:title="enfield/Support/RTTI.h">
<polygon fill="none" stroke="#000000" points="652.5,-56.5 652.5,-75.5 777.5,-75.5 777.5,-56.5 652.5,-56.5"/>
<text text-anchor="middle" x="715" y="-63.5" font-family="Helvetica,sans-Serif" font-size="10.00" fill="#000000">enfield/Support/RTTI.h</text>
</a>
</g>
</g>
<!-- Node3&#45;&gt;Node6 -->
<g id="edge6" class="edge">
<title>Node3&#45;&gt;Node6</title>
<path fill="none" stroke="#191970" d="M482.8156,-112.4369C531.1381,-102.7724 605.8372,-87.8326 657.3936,-77.5213"/>
<polygon fill="#191970" stroke="#191970" points="658.2623,-80.9169 667.3816,-75.5237 656.8894,-74.0529 658.2623,-80.9169"/>
</g>
<!-- Node7 -->
<g id="node8" class="node">
<title>Node7</title>
<polygon fill="none" stroke="#bfbfbf" points="294.5,-56.5 294.5,-75.5 377.5,-75.5 377.5,-56.5 294.5,-56.5"/>
<text text-anchor="middle" x="336" y="-63.5" font-family="Helvetica,sans-Serif" font-size="10.00" fill="#000000">initializer_list</text>
</g>
<!-- Node3&#45;&gt;Node7 -->
<g id="edge7" class="edge">
<title>Node3&#45;&gt;Node7</title>
<path fill="none" stroke="#191970" d="M417.7555,-112.2455C402.4239,-103.5731 379.7801,-90.7645 362.2084,-80.825"/>
<polygon fill="#191970" stroke="#191970" points="363.4741,-77.5198 353.0469,-75.6427 360.0276,-83.6126 363.4741,-77.5198"/>
</g>
<!-- Node8 -->
<g id="node9" class="node">
<title>Node8</title>
<polygon fill="none" stroke="#bfbfbf" points="396,-56.5 396,-75.5 456,-75.5 456,-56.5 396,-56.5"/>
<text text-anchor="middle" x="426" y="-63.5" font-family="Helvetica,sans-Serif" font-size="10.00" fill="#000000">iostream</text>
</g>
<!-- Node3&#45;&gt;Node8 -->
<g id="edge8" class="edge">
<title>Node3&#45;&gt;Node8</title>
<path fill="none" stroke="#191970" d="M433.4323,-112.2455C432.2579,-104.9382 430.6116,-94.6944 429.1668,-85.7046"/>
<polygon fill="#191970" stroke="#191970" points="432.5922,-84.9606 427.5497,-75.6427 425.6809,-86.0714 432.5922,-84.9606"/>
</g>
<!-- Node9 -->
<g id="node10" class="node">
<title>Node9</title>
<polygon fill="none" stroke="#bfbfbf" points="842.5,-56.5 842.5,-75.5 889.5,-75.5 889.5,-56.5 842.5,-56.5"/>
<text text-anchor="middle" x="866" y="-63.5" font-family="Helvetica,sans-Serif" font-size="10.00" fill="#000000">vector</text>
</g>
<!-- Node3&#45;&gt;Node9 -->
<g id="edge9" class="edge">
<title>Node3&#45;&gt;Node9</title>
<path fill="none" stroke="#191970" d="M503.7698,-113.0647C597.3576,-100.9048 761.2575,-79.6092 831.9535,-70.4237"/>
<polygon fill="#191970" stroke="#191970" points="832.6164,-73.8671 842.082,-69.1077 831.7144,-66.9254 832.6164,-73.8671"/>
</g>
<!-- Node10 -->
<g id="node11" class="node">
<title>Node10</title>
<polygon fill="none" stroke="#bfbfbf" points="200,-56.5 200,-75.5 258,-75.5 258,-56.5 200,-56.5"/>
<text text-anchor="middle" x="229" y="-63.5" font-family="Helvetica,sans-Serif" font-size="10.00" fill="#000000">memory</text>
</g>
<!-- Node3&#45;&gt;Node10 -->
<g id="edge10" class="edge">
<title>Node3&#45;&gt;Node10</title>
<path fill="none" stroke="#191970" d="M399.5873,-112.3733C362.9443,-102.412 305.8684,-86.8963 267.9667,-76.5929"/>
<polygon fill="#191970" stroke="#191970" points="268.8614,-73.2092 258.2934,-73.9633 267.0251,-79.964 268.8614,-73.2092"/>
</g>
<!-- Node5 -->
<g id="node6" class="node">
<title>Node5</title>
<polygon fill="none" stroke="#bfbfbf" points="532,-.5 532,-19.5 576,-19.5 576,-.5 532,-.5"/>
<text text-anchor="middle" x="554" y="-7.5" font-family="Helvetica,sans-Serif" font-size="10.00" fill="#000000">string</text>
</g>
<!-- Node4&#45;&gt;Node5 -->
<g id="edge5" class="edge">
<title>Node4&#45;&gt;Node5</title>
<path fill="none" stroke="#191970" d="M554,-56.2455C554,-48.9382 554,-38.6944 554,-29.7046"/>
<polygon fill="#191970" stroke="#191970" points="557.5001,-29.6426 554,-19.6427 550.5001,-29.6427 557.5001,-29.6426"/>
</g>
<!-- Node11&#45;&gt;Node10 -->
<g id="edge12" class="edge">
<title>Node11&#45;&gt;Node10</title>
<path fill="none" stroke="#191970" d="M208.3547,-112.2455C211.7244,-104.6973 216.493,-94.0158 220.5983,-84.8197"/>
<polygon fill="#191970" stroke="#191970" points="223.8147,-86.2009 224.6952,-75.6427 217.4227,-83.3473 223.8147,-86.2009"/>
</g>
<!-- Node12&#45;&gt;Node3 -->
<g id="edge14" class="edge">
<title>Node12&#45;&gt;Node3</title>
<path fill="none" stroke="#191970" d="M362.4375,-173.8906C376.0695,-164.1421 397.3846,-148.8994 413.3922,-137.4521"/>
<polygon fill="#191970" stroke="#191970" points="415.5586,-140.2057 421.6569,-131.5419 411.4868,-134.5118 415.5586,-140.2057"/>
</g>
<!-- Node12&#45;&gt;Node11 -->
<g id="edge15" class="edge">
<title>Node12&#45;&gt;Node11</title>
<path fill="none" stroke="#191970" d="M326.3438,-173.8906C302.0826,-163.6005 263.3882,-147.1888 236.02,-135.5809"/>
<polygon fill="#191970" stroke="#191970" points="237.07,-132.2245 226.4972,-131.5419 234.3367,-138.6688 237.07,-132.2245"/>
</g>
<!-- Node12&#45;&gt;Node13 -->
<g id="edge16" class="edge">
<title>Node12&#45;&gt;Node13</title>
<path fill="none" stroke="#191970" d="M384,-173.8906C422.9588,-163.1944 486.0093,-145.8836 528.4571,-134.2294"/>
<polygon fill="#191970" stroke="#191970" points="529.5293,-137.5646 538.2458,-131.5419 527.6759,-130.8144 529.5293,-137.5646"/>
</g>
<!-- Node14&#45;&gt;Node3 -->
<g id="edge18" class="edge">
<title>Node14&#45;&gt;Node3</title>
<path fill="none" stroke="#191970" d="M524.134,-168.4554C505.3089,-158.644 480.889,-145.9167 462.3708,-136.2653"/>
<polygon fill="#191970" stroke="#191970" points="463.7713,-133.0484 453.2858,-131.5303 460.536,-139.2559 463.7713,-133.0484"/>
</g>
<!-- Node14&#45;&gt;Node13 -->
<g id="edge19" class="edge">
<title>Node14&#45;&gt;Node13</title>
<path fill="none" stroke="#191970" d="M557.9438,-168.2977C560.5754,-160.2055 563.841,-150.1639 566.6576,-141.5029"/>
<polygon fill="#191970" stroke="#191970" points="570.0335,-142.4391 569.7977,-131.8469 563.3766,-140.2743 570.0335,-142.4391"/>
</g>
<!-- Node15&#45;&gt;Node3 -->
<g id="edge22" class="edge">
<title>Node15&#45;&gt;Node3</title>
<path fill="none" stroke="#191970" d="M279.3777,-235.2357C264.3418,-217.6471 245.1889,-188.5342 261,-168 273.1074,-152.2758 316.0403,-140.8305 356.2266,-133.2892"/>
<polygon fill="#191970" stroke="#191970" points="356.8756,-136.7287 366.0922,-131.5032 355.6286,-129.8406 356.8756,-136.7287"/>
</g>
<!-- Node15&#45;&gt;Node11 -->
<g id="edge21" class="edge">
<title>Node15&#45;&gt;Node11</title>
<path fill="none" stroke="#191970" d="M236.7732,-235.3888C218.6372,-227.6053 200.5723,-216.0329 190,-199 179.0816,-181.4095 186.1207,-157.4797 193.6084,-140.989"/>
<polygon fill="#191970" stroke="#191970" points="196.856,-142.3185 198.1719,-131.8057 190.5873,-139.2033 196.856,-142.3185"/>
</g>
<!-- Node15&#45;&gt;Node13 -->
<g id="edge24" class="edge">
<title>Node15&#45;&gt;Node13</title>
<path fill="none" stroke="#191970" d="M363.7489,-236.5987C366.8727,-236.0444 369.9675,-235.5087 373,-235 430.0912,-225.4237 593,-242.6705 631,-199 640.0442,-188.6062 636.9946,-180.4053 631,-168 624.7172,-154.9981 612.7765,-144.5481 601.3549,-136.9145"/>
<polygon fill="#191970" stroke="#191970" points="603.1684,-133.9209 592.8241,-131.6305 599.4823,-139.8718 603.1684,-133.9209"/>
</g>
<!-- Node15&#45;&gt;Node16 -->
<g id="edge23" class="edge">
<title>Node15&#45;&gt;Node16</title>
<path fill="none" stroke="#191970" d="M247.6851,-235.394C219.641,-225.8318 183.3531,-212.7169 152,-199 150.4122,-198.3054 148.7911,-197.5644 147.1655,-196.7972"/>
<polygon fill="#191970" stroke="#191970" points="148.521,-193.5627 138.0072,-192.2542 145.4102,-199.8335 148.521,-193.5627"/>
</g>
<!-- Node17&#45;&gt;Node11 -->
<g id="edge28" class="edge">
<title>Node17&#45;&gt;Node11</title>
<path fill="none" stroke="#191970" d="M82.7502,-240.9519C81.1134,-224.2947 80.1864,-189.6402 97,-168 109.3076,-152.1594 128.1451,-141.6879 146.6032,-134.8032"/>
<polygon fill="#191970" stroke="#191970" points="147.8587,-138.0728 156.1844,-131.5204 145.5898,-131.4507 147.8587,-138.0728"/>
</g>
<!-- Node17&#45;&gt;Node12 -->
<g id="edge29" class="edge">
<title>Node17&#45;&gt;Node12</title>
<path fill="none" stroke="#191970" d="M121.6866,-240.9717C168.8417,-229.0495 249.6416,-208.6208 301.1268,-195.6038"/>
<polygon fill="#191970" stroke="#191970" points="302.1773,-198.9484 311.0143,-193.1039 300.4615,-192.1619 302.1773,-198.9484"/>
</g>
<!-- Node17&#45;&gt;Node16 -->
<g id="edge30" class="edge">
<title>Node17&#45;&gt;Node16</title>
<path fill="none" stroke="#191970" d="M89.4445,-240.9005C95.2009,-230.751 104.4213,-214.4941 111.5824,-201.8679"/>
<polygon fill="#191970" stroke="#191970" points="114.6766,-203.5067 116.5656,-193.0817 108.5877,-200.0533 114.6766,-203.5067"/>
</g>
<!-- Node18&#45;&gt;Node9 -->
<g id="edge32" class="edge">
<title>Node18&#45;&gt;Node9</title>
<path fill="none" stroke="#191970" d="M850.6081,-307.985C873.4549,-300.6086 899.2871,-287.8187 913,-266 950.1108,-206.9527 903.1149,-121.432 878.8412,-84.3232"/>
<polygon fill="#191970" stroke="#191970" points="881.4455,-81.9247 872.9544,-75.5881 875.6407,-85.8368 881.4455,-81.9247"/>
</g>
<!-- Node19 -->
<g id="node20" class="node">
<title>Node19</title>
<polygon fill="none" stroke="#bfbfbf" points="716,-241 716,-260 766,-260 766,-241 716,-241"/>
<text text-anchor="middle" x="741" y="-248" font-family="Helvetica,sans-Serif" font-size="10.00" fill="#000000">cstdint</text>
</g>
<!-- Node18&#45;&gt;Node19 -->
<g id="edge33" class="edge">
<title>Node18&#45;&gt;Node19</title>
<path fill="none" stroke="#191970" d="M796.6871,-307.9005C786.4544,-297.353 769.8228,-280.2096 757.3954,-267.3998"/>
<polygon fill="#191970" stroke="#191970" points="759.7709,-264.822 750.2956,-260.0817 754.7467,-269.6962 759.7709,-264.822"/>
</g>
<!-- Node20 -->
<g id="node21" class="node">
<title>Node20</title>
<polygon fill="none" stroke="#bfbfbf" points="784,-241 784,-260 828,-260 828,-241 784,-241"/>
<text text-anchor="middle" x="806" y="-248" font-family="Helvetica,sans-Serif" font-size="10.00" fill="#000000">limits</text>
</g>
<!-- Node18&#45;&gt;Node20 -->
<g id="edge34" class="edge">
<title>Node18&#45;&gt;Node20</title>
<path fill="none" stroke="#191970" d="M806,-307.9005C806,-298.149 806,-282.7597 806,-270.3695"/>
<polygon fill="#191970" stroke="#191970" points="809.5001,-270.0816 806,-260.0817 802.5001,-270.0817 809.5001,-270.0816"/>
</g>
<!-- Node21 -->
<g id="node22" class="node">
<title>Node21</title>
<polygon fill="none" stroke="#bfbfbf" points="846.5,-241 846.5,-260 903.5,-260 903.5,-241 846.5,-241"/>
<text text-anchor="middle" x="875" y="-248" font-family="Helvetica,sans-Serif" font-size="10.00" fill="#000000">ostream</text>
</g>
<!-- Node18&#45;&gt;Node21 -->
<g id="edge35" class="edge">
<title>Node18&#45;&gt;Node21</title>
<path fill="none" stroke="#191970" d="M815.886,-307.9005C826.7484,-297.353 844.4035,-280.2096 857.5957,-267.3998"/>
<polygon fill="#191970" stroke="#191970" points="860.3962,-269.559 865.1323,-260.0817 855.5198,-264.537 860.3962,-269.559"/>
</g>
</g>
</svg>
