<?xml version="1.0" encoding="UTF-8" standalone="no"?>
<!DOCTYPE svg PUBLIC "-//W3C//DTD SVG 1.1//EN"
 "http://www.w3.org/Graphics/SVG/1.1/DTD/svg11.dtd">
<!-- Generated by graphviz version 2.38.0 (20140413.2041)
 -->
<!-- Title: efd::FlattenVisitor::visit Pages: 1 -->
<svg width="410pt" height="39pt"
 viewBox="0.00 0.00 410.00 39.00" xmlns="http://www.w3.org/2000/svg" xmlns:xlink="http://www.w3.org/1999/xlink">
<g id="graph0" class="graph" transform="scale(1 1) rotate(0) translate(4 35)">
<title>efd::FlattenVisitor::visit</title>
<!-- Node25 -->
<g id="node1" class="node"><title>Node25</title>
<polygon fill="#bfbfbf" stroke="black" points="0,-0.5 0,-30.5 94,-30.5 94,-0.5 0,-0.5"/>
<text text-anchor="start" x="8" y="-18.5" font-family="Helvetica,sans-Serif" font-size="10.00">efd::FlattenVisitor</text>
<text text-anchor="middle" x="47" y="-7.5" font-family="Helvetica,sans-Serif" font-size="10.00">::visit</text>
</g>
<!-- Node26 -->
<g id="node2" class="node"><title>Node26</title>
<g id="a_node2"><a xlink:href="../../d8/d5d/classefd_1_1NodeVisitor.xhtml#ab909f7961825bd91e6382911632a5ef8" target="_top" xlink:title="Visits the children of ref. ">
<polygon fill="none" stroke="black" points="130,-6 130,-25 277,-25 277,-6 130,-6"/>
<text text-anchor="middle" x="203.5" y="-13" font-family="Helvetica,sans-Serif" font-size="10.00">efd::NodeVisitor::visitChildren</text>
</a>
</g>
</g>
<!-- Node25&#45;&gt;Node26 -->
<g id="edge1" class="edge"><title>Node25&#45;&gt;Node26</title>
<path fill="none" stroke="midnightblue" d="M94.3551,-15.5C102.405,-15.5 110.99,-15.5 119.67,-15.5"/>
<polygon fill="midnightblue" stroke="midnightblue" points="119.876,-19.0001 129.876,-15.5 119.876,-12.0001 119.876,-19.0001"/>
</g>
<!-- Node27 -->
<g id="node3" class="node"><title>Node27</title>
<g id="a_node3"><a xlink:href="../../d6/d6a/classefd_1_1Node.xhtml#ab813c60af1717cf50e92a28b274c24ef" target="_top" xlink:title="Used by visitor classes. ">
<polygon fill="none" stroke="black" points="313,-6 313,-25 402,-25 402,-6 313,-6"/>
<text text-anchor="middle" x="357.5" y="-13" font-family="Helvetica,sans-Serif" font-size="10.00">efd::Node::apply</text>
</a>
</g>
</g>
<!-- Node26&#45;&gt;Node27 -->
<g id="edge2" class="edge"><title>Node26&#45;&gt;Node27</title>
<path fill="none" stroke="midnightblue" d="M277.384,-15.5C285.848,-15.5 294.364,-15.5 302.511,-15.5"/>
<polygon fill="midnightblue" stroke="midnightblue" points="302.601,-19.0001 312.601,-15.5 302.601,-12.0001 302.601,-19.0001"/>
</g>
</g>
</svg>
