<?xml version="1.0" encoding="UTF-8" standalone="no"?>
<!DOCTYPE svg PUBLIC "-//W3C//DTD SVG 1.1//EN"
 "http://www.w3.org/Graphics/SVG/1.1/DTD/svg11.dtd">
<!-- Generated by graphviz version 2.38.0 (20140413.2041)
 -->
<!-- Title: efd::DependencyBuilderVisitor::visit Pages: 1 -->
<svg width="465pt" height="39pt"
 viewBox="0.00 0.00 465.00 39.00" xmlns="http://www.w3.org/2000/svg" xmlns:xlink="http://www.w3.org/1999/xlink">
<g id="graph0" class="graph" transform="scale(1 1) rotate(0) translate(4 35)">
<title>efd::DependencyBuilderVisitor::visit</title>
<!-- Node1 -->
<g id="node1" class="node"><title>Node1</title>
<polygon fill="#bfbfbf" stroke="black" points="0,-0.5 0,-30.5 149,-30.5 149,-0.5 0,-0.5"/>
<text text-anchor="start" x="8" y="-18.5" font-family="Helvetica,sans-Serif" font-size="10.00">efd::DependencyBuilderVisitor</text>
<text text-anchor="middle" x="74.5" y="-7.5" font-family="Helvetica,sans-Serif" font-size="10.00">::visit</text>
</g>
<!-- Node2 -->
<g id="node2" class="node"><title>Node2</title>
<g id="a_node2"><a xlink:href="../../d8/d5d/classefd_1_1NodeVisitor.xhtml#ab909f7961825bd91e6382911632a5ef8" target="_top" xlink:title="Visits the children of ref. ">
<polygon fill="none" stroke="black" points="185,-6 185,-25 332,-25 332,-6 185,-6"/>
<text text-anchor="middle" x="258.5" y="-13" font-family="Helvetica,sans-Serif" font-size="10.00">efd::NodeVisitor::visitChildren</text>
</a>
</g>
</g>
<!-- Node1&#45;&gt;Node2 -->
<g id="edge1" class="edge"><title>Node1&#45;&gt;Node2</title>
<path fill="none" stroke="midnightblue" d="M149.002,-15.5C157.511,-15.5 166.232,-15.5 174.852,-15.5"/>
<polygon fill="midnightblue" stroke="midnightblue" points="174.907,-19.0001 184.907,-15.5 174.907,-12.0001 174.907,-19.0001"/>
</g>
<!-- Node3 -->
<g id="node3" class="node"><title>Node3</title>
<g id="a_node3"><a xlink:href="../../d6/d6a/classefd_1_1Node.xhtml#ab813c60af1717cf50e92a28b274c24ef" target="_top" xlink:title="Used by visitor classes. ">
<polygon fill="none" stroke="black" points="368,-6 368,-25 457,-25 457,-6 368,-6"/>
<text text-anchor="middle" x="412.5" y="-13" font-family="Helvetica,sans-Serif" font-size="10.00">efd::Node::apply</text>
</a>
</g>
</g>
<!-- Node2&#45;&gt;Node3 -->
<g id="edge2" class="edge"><title>Node2&#45;&gt;Node3</title>
<path fill="none" stroke="midnightblue" d="M332.384,-15.5C340.848,-15.5 349.364,-15.5 357.511,-15.5"/>
<polygon fill="midnightblue" stroke="midnightblue" points="357.601,-19.0001 367.601,-15.5 357.601,-12.0001 357.601,-19.0001"/>
</g>
</g>
</svg>
