<?xml version="1.0" encoding="UTF-8" standalone="no"?>
<!DOCTYPE svg PUBLIC "-//W3C//DTD SVG 1.1//EN"
 "http://www.w3.org/Graphics/SVG/1.1/DTD/svg11.dtd">
<!-- Generated by graphviz version 2.40.1 (20161225.0304)
 -->
<!-- Title: efd::DependencyBuilderVisitor::visit Pages: 1 -->
<svg width="365pt" height="218pt"
 viewBox="0.00 0.00 365.00 218.00" xmlns="http://www.w3.org/2000/svg" xmlns:xlink="http://www.w3.org/1999/xlink">
<g id="graph0" class="graph" transform="scale(1 1) rotate(0) translate(4 214)">
<title>efd::DependencyBuilderVisitor::visit</title>
<!-- Node6 -->
<g id="node1" class="node">
<title>Node6</title>
<polygon fill="#bfbfbf" stroke="#000000" points="0,-90 0,-120 165,-120 165,-90 0,-90"/>
<text text-anchor="start" x="8" y="-108" font-family="Helvetica,sans-Serif" font-size="10.00" fill="#000000">efd::DependencyBuilderVisitor</text>
<text text-anchor="middle" x="82.5" y="-97" font-family="Helvetica,sans-Serif" font-size="10.00" fill="#000000">::visit</text>
</g>
<!-- Node7 -->
<g id="node2" class="node">
<title>Node7</title>
<g id="a_node2"><a xlink:href="../../d4/deb/namespaceefd.xhtml#af3487901a239a99750dc5dcdc3a8c868" target="_top" xlink:title="efd::ExitWith">
<polygon fill="none" stroke="#000000" points="239,-190.5 239,-209.5 319,-209.5 319,-190.5 239,-190.5"/>
<text text-anchor="middle" x="279" y="-197.5" font-family="Helvetica,sans-Serif" font-size="10.00" fill="#000000">efd::ExitWith</text>
</a>
</g>
</g>
<!-- Node6&#45;&gt;Node7 -->
<g id="edge1" class="edge">
<title>Node6&#45;&gt;Node7</title>
<path fill="none" stroke="#191970" d="M101.5004,-120.0375C124.0168,-137.1572 163.2552,-164.8365 201,-181 209.8435,-184.787 219.5885,-187.9132 229.106,-190.4595"/>
<polygon fill="#191970" stroke="#191970" points="228.3442,-193.8767 238.8945,-192.9065 230.0419,-187.0857 228.3442,-193.8767"/>
</g>
<!-- Node8 -->
<g id="node3" class="node">
<title>Node8</title>
<g id="a_node3"><a xlink:href="../../da/ddd/classefd_1_1NDList.xhtml#a7d1b691a45689241a8138539a2be8596" target="_top" xlink:title="Returns the number of childrem of this node. ">
<polygon fill="none" stroke="#000000" points="201,-152.5 201,-171.5 357,-171.5 357,-152.5 201,-152.5"/>
<text text-anchor="middle" x="279" y="-159.5" font-family="Helvetica,sans-Serif" font-size="10.00" fill="#000000">efd::NDList::getChildNumber</text>
</a>
</g>
</g>
<!-- Node6&#45;&gt;Node8 -->
<g id="edge2" class="edge">
<title>Node6&#45;&gt;Node8</title>
<path fill="none" stroke="#191970" d="M126.7273,-120.0103C148.9083,-127.3266 176.2537,-136.0279 201,-143 209.5774,-145.4166 218.7358,-147.8113 227.6499,-150.0443"/>
<polygon fill="#191970" stroke="#191970" points="227.0193,-153.4935 237.5665,-152.4892 228.695,-146.6971 227.0193,-153.4935"/>
</g>
<!-- Node9 -->
<g id="node4" class="node">
<title>Node9</title>
<g id="a_node4"><a xlink:href="../../dd/d94/classefd_1_1NDQOp.xhtml#aa9d90f493865fe9cdc3fecd468eaa33b" target="_top" xlink:title="Gets the id. ">
<polygon fill="none" stroke="#000000" points="226.5,-114.5 226.5,-133.5 331.5,-133.5 331.5,-114.5 226.5,-114.5"/>
<text text-anchor="middle" x="279" y="-121.5" font-family="Helvetica,sans-Serif" font-size="10.00" fill="#000000">efd::NDQOp::getId</text>
</a>
</g>
</g>
<!-- Node6&#45;&gt;Node9 -->
<g id="edge3" class="edge">
<title>Node6&#45;&gt;Node9</title>
<path fill="none" stroke="#191970" d="M165.2642,-113.0026C182.2141,-114.6416 199.7947,-116.3415 215.9194,-117.9006"/>
<polygon fill="#191970" stroke="#191970" points="215.9936,-121.424 226.2841,-118.9028 216.6674,-114.4565 215.9936,-121.424"/>
</g>
<!-- Node10 -->
<g id="node5" class="node">
<title>Node10</title>
<g id="a_node5"><a xlink:href="../../dd/d94/classefd_1_1NDQOp.xhtml#af7ef43289355c5bb047a46419177c8ed" target="_top" xlink:title="Gets the quantum arguments. ">
<polygon fill="none" stroke="#000000" points="216.5,-76.5 216.5,-95.5 341.5,-95.5 341.5,-76.5 216.5,-76.5"/>
<text text-anchor="middle" x="279" y="-83.5" font-family="Helvetica,sans-Serif" font-size="10.00" fill="#000000">efd::NDQOp::getQArgs</text>
</a>
</g>
</g>
<!-- Node6&#45;&gt;Node10 -->
<g id="edge4" class="edge">
<title>Node6&#45;&gt;Node10</title>
<path fill="none" stroke="#191970" d="M165.2642,-96.9974C178.888,-95.68 192.9193,-94.3233 206.2746,-93.032"/>
<polygon fill="#191970" stroke="#191970" points="206.721,-96.5052 216.3377,-92.059 206.0472,-89.5377 206.721,-96.5052"/>
</g>
<!-- Node11 -->
<g id="node6" class="node">
<title>Node11</title>
<g id="a_node6"><a xlink:href="../../df/d1b/classefd_1_1NDValue.xhtml#a53ee724a8db3429bf30bb1936ad548b2" target="_top" xlink:title="Returns a copy to the setted value. ">
<polygon fill="none" stroke="#000000" points="219.5,-38.5 219.5,-57.5 338.5,-57.5 338.5,-38.5 219.5,-38.5"/>
<text text-anchor="middle" x="279" y="-45.5" font-family="Helvetica,sans-Serif" font-size="10.00" fill="#000000">efd::NDValue::getVal</text>
</a>
</g>
</g>
<!-- Node6&#45;&gt;Node11 -->
<g id="edge5" class="edge">
<title>Node6&#45;&gt;Node11</title>
<path fill="none" stroke="#191970" d="M126.7273,-89.9897C148.9083,-82.6734 176.2537,-73.9721 201,-67 209.5774,-64.5834 218.7358,-62.1887 227.6499,-59.9557"/>
<polygon fill="#191970" stroke="#191970" points="228.695,-63.3029 237.5665,-57.5108 227.0193,-56.5065 228.695,-63.3029"/>
</g>
<!-- Node12 -->
<g id="node7" class="node">
<title>Node12</title>
<g id="a_node7"><a xlink:href="../../d6/d6a/classefd_1_1Node.xhtml#a96ca13a5c2b971b68619ce4a34be0f66" target="_top" xlink:title="Returns a std::string representation of this Node and its childrem. ">
<polygon fill="none" stroke="#000000" points="225,-.5 225,-19.5 333,-19.5 333,-.5 225,-.5"/>
<text text-anchor="middle" x="279" y="-7.5" font-family="Helvetica,sans-Serif" font-size="10.00" fill="#000000">efd::Node::toString</text>
</a>
</g>
</g>
<!-- Node6&#45;&gt;Node12 -->
<g id="edge6" class="edge">
<title>Node6&#45;&gt;Node12</title>
<path fill="none" stroke="#191970" d="M101.5004,-89.9625C124.0168,-72.8428 163.2552,-45.1635 201,-29 206.8016,-26.5156 212.9911,-24.3156 219.2499,-22.3772"/>
<polygon fill="#191970" stroke="#191970" points="220.4545,-25.6726 229.0963,-19.5431 218.5183,-18.9457 220.4545,-25.6726"/>
</g>
</g>
</svg>
