<?xml version="1.0" encoding="UTF-8" standalone="no"?>
<!DOCTYPE svg PUBLIC "-//W3C//DTD SVG 1.1//EN"
 "http://www.w3.org/Graphics/SVG/1.1/DTD/svg11.dtd">
<!-- Generated by graphviz version 2.38.0 (20140413.2041)
 -->
<!-- Title: efd::DependencyBuilderVisitor::visit Pages: 1 -->
<svg width="634pt" height="356pt"
 viewBox="0.00 0.00 634.00 355.92" xmlns="http://www.w3.org/2000/svg" xmlns:xlink="http://www.w3.org/1999/xlink">
<g id="graph0" class="graph" transform="scale(1 1) rotate(0) translate(4 351.918)">
<title>efd::DependencyBuilderVisitor::visit</title>
<!-- Node14 -->
<g id="node1" class="node"><title>Node14</title>
<polygon fill="#bfbfbf" stroke="black" points="0,-176.5 0,-206.5 149,-206.5 149,-176.5 0,-176.5"/>
<text text-anchor="start" x="8" y="-194.5" font-family="Helvetica,sans-Serif" font-size="10.00">efd::DependencyBuilderVisitor</text>
<text text-anchor="middle" x="74.5" y="-183.5" font-family="Helvetica,sans-Serif" font-size="10.00">::visit</text>
</g>
<!-- Node15 -->
<g id="node2" class="node"><title>Node15</title>
<g id="a_node2"><a xlink:href="../../d4/deb/namespaceefd.xhtml#a2cef687225e13315fc282dc40b5a6909" target="_top" xlink:title="Returns src cast to TargetTy, iff it is of class TargetTy, otherwise it will return nullptr...">
<polygon fill="none" stroke="black" points="388,-264 388,-283 461,-283 461,-264 388,-264"/>
<text text-anchor="middle" x="424.5" y="-271" font-family="Helvetica,sans-Serif" font-size="10.00">efd::dynCast</text>
</a>
</g>
</g>
<!-- Node14&#45;&gt;Node15 -->
<g id="edge1" class="edge"><title>Node14&#45;&gt;Node15</title>
<path fill="none" stroke="midnightblue" d="M82.0086,-206.961C95.7822,-237.387 131.105,-304.348 185,-330.5 242.179,-358.246 266.731,-347.394 328,-330.5 356.793,-322.561 385.659,-303.404 403.996,-289.486"/>
<polygon fill="midnightblue" stroke="midnightblue" points="406.383,-292.062 412.106,-283.146 402.072,-286.547 406.383,-292.062"/>
</g>
<!-- Node16 -->
<g id="node3" class="node"><title>Node16</title>
<g id="a_node3"><a xlink:href="../../da/ddd/classefd_1_1NDList.xhtml#a7d1b691a45689241a8138539a2be8596" target="_top" xlink:title="Returns the number of childrem of this node. ">
<polygon fill="none" stroke="black" points="185,-302 185,-321 328,-321 328,-302 185,-302"/>
<text text-anchor="middle" x="256.5" y="-309" font-family="Helvetica,sans-Serif" font-size="10.00">efd::NDList::getChildNumber</text>
</a>
</g>
</g>
<!-- Node14&#45;&gt;Node16 -->
<g id="edge2" class="edge"><title>Node14&#45;&gt;Node16</title>
<path fill="none" stroke="midnightblue" d="M87.6346,-206.605C106.246,-228.761 144.013,-269.888 185,-292.5 189.152,-294.791 193.595,-296.817 198.157,-298.609"/>
<polygon fill="midnightblue" stroke="midnightblue" points="197.036,-301.924 207.631,-301.964 199.373,-295.326 197.036,-301.924"/>
</g>
<!-- Node17 -->
<g id="node4" class="node"><title>Node17</title>
<g id="a_node4"><a xlink:href="../../d1/d76/structefd_1_1DependencyBuilder.xhtml#ad18a762f3acc821e6e05541cc3670a73" target="_top" xlink:title="efd::DependencyBuilder\l::getDepsSet">
<polygon fill="none" stroke="black" points="196,-176.5 196,-206.5 317,-206.5 317,-176.5 196,-176.5"/>
<text text-anchor="start" x="204" y="-194.5" font-family="Helvetica,sans-Serif" font-size="10.00">efd::DependencyBuilder</text>
<text text-anchor="middle" x="256.5" y="-183.5" font-family="Helvetica,sans-Serif" font-size="10.00">::getDepsSet</text>
</a>
</g>
</g>
<!-- Node14&#45;&gt;Node17 -->
<g id="edge3" class="edge"><title>Node14&#45;&gt;Node17</title>
<path fill="none" stroke="midnightblue" d="M149.232,-191.5C161.247,-191.5 173.662,-191.5 185.581,-191.5"/>
<polygon fill="midnightblue" stroke="midnightblue" points="185.906,-195 195.906,-191.5 185.906,-188 185.906,-195"/>
</g>
<!-- Node19 -->
<g id="node6" class="node"><title>Node19</title>
<g id="a_node6"><a xlink:href="../../dd/d94/classefd_1_1NDQOp.xhtml#aa9d90f493865fe9cdc3fecd468eaa33b" target="_top" xlink:title="Gets the id. ">
<polygon fill="none" stroke="black" points="207,-264 207,-283 306,-283 306,-264 207,-264"/>
<text text-anchor="middle" x="256.5" y="-271" font-family="Helvetica,sans-Serif" font-size="10.00">efd::NDQOp::getId</text>
</a>
</g>
</g>
<!-- Node14&#45;&gt;Node19 -->
<g id="edge5" class="edge"><title>Node14&#45;&gt;Node19</title>
<path fill="none" stroke="midnightblue" d="M97.6889,-206.566C119.21,-220.614 153.187,-241.324 185,-254.5 190.841,-256.919 197.082,-259.117 203.346,-261.088"/>
<polygon fill="midnightblue" stroke="midnightblue" points="202.57,-264.508 213.152,-263.997 204.561,-257.797 202.57,-264.508"/>
</g>
<!-- Node20 -->
<g id="node7" class="node"><title>Node20</title>
<g id="a_node7"><a xlink:href="../../dd/d94/classefd_1_1NDQOp.xhtml#af7ef43289355c5bb047a46419177c8ed" target="_top" xlink:title="Gets the quantum arguments. ">
<polygon fill="none" stroke="black" points="197,-226 197,-245 316,-245 316,-226 197,-226"/>
<text text-anchor="middle" x="256.5" y="-233" font-family="Helvetica,sans-Serif" font-size="10.00">efd::NDQOp::getQArgs</text>
</a>
</g>
</g>
<!-- Node14&#45;&gt;Node20 -->
<g id="edge7" class="edge"><title>Node14&#45;&gt;Node20</title>
<path fill="none" stroke="midnightblue" d="M136.942,-206.519C159.714,-212.086 185.206,-218.317 206.701,-223.571"/>
<polygon fill="midnightblue" stroke="midnightblue" points="206.04,-227.013 216.586,-225.988 207.703,-220.213 206.04,-227.013"/>
</g>
<!-- Node21 -->
<g id="node8" class="node"><title>Node21</title>
<g id="a_node8"><a xlink:href="../../dd/d52/classefd_1_1QModule.xhtml#a2cbccf2cf8dd0e4e2dc30bf12e146644" target="_top" xlink:title="Gets the quantum gate mapped to id. ">
<polygon fill="none" stroke="black" points="195,-138 195,-157 318,-157 318,-138 195,-138"/>
<text text-anchor="middle" x="256.5" y="-145" font-family="Helvetica,sans-Serif" font-size="10.00">efd::QModule::getQGate</text>
</a>
</g>
</g>
<!-- Node14&#45;&gt;Node21 -->
<g id="edge9" class="edge"><title>Node14&#45;&gt;Node21</title>
<path fill="none" stroke="midnightblue" d="M136.942,-176.481C159.714,-170.914 185.206,-164.683 206.701,-159.429"/>
<polygon fill="midnightblue" stroke="midnightblue" points="207.703,-162.787 216.586,-157.012 206.04,-155.987 207.703,-162.787"/>
</g>
<!-- Node22 -->
<g id="node9" class="node"><title>Node22</title>
<g id="a_node9"><a xlink:href="../../d1/d76/structefd_1_1DependencyBuilder.xhtml#a270909cecb1317ad9cafa912aa4c34aa" target="_top" xlink:title="Gets an unsingned id for ref. ">
<polygon fill="none" stroke="black" points="196,-88.5 196,-118.5 317,-118.5 317,-88.5 196,-88.5"/>
<text text-anchor="start" x="204" y="-106.5" font-family="Helvetica,sans-Serif" font-size="10.00">efd::DependencyBuilder</text>
<text text-anchor="middle" x="256.5" y="-95.5" font-family="Helvetica,sans-Serif" font-size="10.00">::getUId</text>
</a>
</g>
</g>
<!-- Node14&#45;&gt;Node22 -->
<g id="edge10" class="edge"><title>Node14&#45;&gt;Node22</title>
<path fill="none" stroke="midnightblue" d="M98.7638,-176.457C120.492,-162.812 154.12,-142.716 185,-128.5 189.672,-126.349 194.587,-124.265 199.556,-122.279"/>
<polygon fill="midnightblue" stroke="midnightblue" points="201.06,-125.451 209.132,-118.589 198.542,-118.919 201.06,-125.451"/>
</g>
<!-- Node26 -->
<g id="node13" class="node"><title>Node26</title>
<g id="a_node13"><a xlink:href="../../df/d1b/classefd_1_1NDValue.xhtml#a53ee724a8db3429bf30bb1936ad548b2" target="_top" xlink:title="Returns a copy to the setted value. ">
<polygon fill="none" stroke="black" points="201.5,-50 201.5,-69 311.5,-69 311.5,-50 201.5,-50"/>
<text text-anchor="middle" x="256.5" y="-57" font-family="Helvetica,sans-Serif" font-size="10.00">efd::NDValue::getVal</text>
</a>
</g>
</g>
<!-- Node14&#45;&gt;Node26 -->
<g id="edge14" class="edge"><title>Node14&#45;&gt;Node26</title>
<path fill="none" stroke="midnightblue" d="M86.1185,-176.368C103.832,-152.254 141.762,-105.216 185,-79.5 189.398,-76.8844 194.154,-74.597 199.047,-72.5992"/>
<polygon fill="midnightblue" stroke="midnightblue" points="200.386,-75.836 208.568,-69.1043 197.974,-69.2647 200.386,-75.836"/>
</g>
<!-- Node27 -->
<g id="node14" class="node"><title>Node27</title>
<g id="a_node14"><a xlink:href="../../d1/dca/structefd_1_1Dependencies.xhtml#a2a51acd5e81551578834e29300c6e89e" target="_top" xlink:title="Forwards to the mDeps attribute. ">
<polygon fill="none" stroke="black" points="204.5,-0.5 204.5,-30.5 308.5,-30.5 308.5,-0.5 204.5,-0.5"/>
<text text-anchor="start" x="212.5" y="-18.5" font-family="Helvetica,sans-Serif" font-size="10.00">efd::Dependencies::</text>
<text text-anchor="middle" x="256.5" y="-7.5" font-family="Helvetica,sans-Serif" font-size="10.00">isEmpty</text>
</a>
</g>
</g>
<!-- Node14&#45;&gt;Node27 -->
<g id="edge15" class="edge"><title>Node14&#45;&gt;Node27</title>
<path fill="none" stroke="midnightblue" d="M82.5748,-176.307C97.3662,-146.134 134.429,-78.3158 185,-40.5 188.185,-38.1183 191.617,-35.9486 195.191,-33.9744"/>
<polygon fill="midnightblue" stroke="midnightblue" points="196.9,-37.0338 204.309,-29.46 193.794,-30.7606 196.9,-37.0338"/>
</g>
<!-- Node18 -->
<g id="node5" class="node"><title>Node18</title>
<g id="a_node5"><a xlink:href="../../d1/d76/structefd_1_1DependencyBuilder.xhtml#a39689f940b3544a042ff0f1968068d53" target="_top" xlink:title="Gets the DepsSet corresponding to the current quantum gate, or the global (if current gate is null)...">
<polygon fill="none" stroke="black" points="364,-176.5 364,-206.5 485,-206.5 485,-176.5 364,-176.5"/>
<text text-anchor="start" x="372" y="-194.5" font-family="Helvetica,sans-Serif" font-size="10.00">efd::DependencyBuilder</text>
<text text-anchor="middle" x="424.5" y="-183.5" font-family="Helvetica,sans-Serif" font-size="10.00">::getDepsSet</text>
</a>
</g>
</g>
<!-- Node17&#45;&gt;Node18 -->
<g id="edge4" class="edge"><title>Node17&#45;&gt;Node18</title>
<path fill="none" stroke="midnightblue" d="M317.43,-191.5C329.256,-191.5 341.761,-191.5 353.876,-191.5"/>
<polygon fill="midnightblue" stroke="midnightblue" points="353.937,-195 363.937,-191.5 353.937,-188 353.937,-195"/>
</g>
<!-- Node19&#45;&gt;Node15 -->
<g id="edge6" class="edge"><title>Node19&#45;&gt;Node15</title>
<path fill="none" stroke="midnightblue" d="M306.408,-273.5C328.947,-273.5 355.546,-273.5 377.691,-273.5"/>
<polygon fill="midnightblue" stroke="midnightblue" points="377.844,-277 387.844,-273.5 377.844,-270 377.844,-277"/>
</g>
<!-- Node20&#45;&gt;Node15 -->
<g id="edge8" class="edge"><title>Node20&#45;&gt;Node15</title>
<path fill="none" stroke="midnightblue" d="M299.389,-245.089C323.363,-250.577 353.46,-257.467 378.011,-263.087"/>
<polygon fill="midnightblue" stroke="midnightblue" points="377.283,-266.511 387.812,-265.331 378.846,-259.687 377.283,-266.511"/>
</g>
<!-- Node23 -->
<g id="node10" class="node"><title>Node23</title>
<g id="a_node10"><a xlink:href="../../db/d0c/structefd_1_1XbitToNumber.xhtml#ae645e4b0ccb9c25c534883843484f06a" target="_top" xlink:title="Returns an uint32_t number representing the qubit in this specific gate (if any). ...">
<polygon fill="none" stroke="black" points="372,-107.5 372,-137.5 477,-137.5 477,-107.5 372,-107.5"/>
<text text-anchor="start" x="380" y="-125.5" font-family="Helvetica,sans-Serif" font-size="10.00">efd::XbitToNumber::</text>
<text text-anchor="middle" x="424.5" y="-114.5" font-family="Helvetica,sans-Serif" font-size="10.00">getQUId</text>
</a>
</g>
</g>
<!-- Node22&#45;&gt;Node23 -->
<g id="edge11" class="edge"><title>Node22&#45;&gt;Node23</title>
<path fill="none" stroke="midnightblue" d="M317.43,-110.359C331.778,-112.002 347.125,-113.758 361.562,-115.411"/>
<polygon fill="midnightblue" stroke="midnightblue" points="361.553,-118.932 371.887,-116.592 362.349,-111.978 361.553,-118.932"/>
</g>
<!-- Node25 -->
<g id="node12" class="node"><title>Node25</title>
<g id="a_node12"><a xlink:href="../../d6/d6a/classefd_1_1Node.xhtml#a96ca13a5c2b971b68619ce4a34be0f66" target="_top" xlink:title="Returns a std::string representation of this Node and its childrem. ">
<polygon fill="none" stroke="black" points="375,-69 375,-88 474,-88 474,-69 375,-69"/>
<text text-anchor="middle" x="424.5" y="-76" font-family="Helvetica,sans-Serif" font-size="10.00">efd::Node::toString</text>
</a>
</g>
</g>
<!-- Node22&#45;&gt;Node25 -->
<g id="edge13" class="edge"><title>Node22&#45;&gt;Node25</title>
<path fill="none" stroke="midnightblue" d="M317.43,-94.4744C332.895,-92.1454 349.52,-89.6415 364.915,-87.323"/>
<polygon fill="midnightblue" stroke="midnightblue" points="365.463,-90.7801 374.83,-85.8298 364.42,-83.8581 365.463,-90.7801"/>
</g>
<!-- Node24 -->
<g id="node11" class="node"><title>Node24</title>
<g id="a_node11"><a xlink:href="../../db/d0c/structefd_1_1XbitToNumber.xhtml#a7d9474b325920d98f5832d5f1923ba2b" target="_top" xlink:title="Gets a constant reference to the mapping of qubtis of a gate. ">
<polygon fill="none" stroke="black" points="521,-107.5 521,-137.5 626,-137.5 626,-107.5 521,-107.5"/>
<text text-anchor="start" x="529" y="-125.5" font-family="Helvetica,sans-Serif" font-size="10.00">efd::XbitToNumber::</text>
<text text-anchor="middle" x="573.5" y="-114.5" font-family="Helvetica,sans-Serif" font-size="10.00">getQbitMap</text>
</a>
</g>
</g>
<!-- Node23&#45;&gt;Node24 -->
<g id="edge12" class="edge"><title>Node23&#45;&gt;Node24</title>
<path fill="none" stroke="midnightblue" d="M477.327,-122.5C488.085,-122.5 499.525,-122.5 510.603,-122.5"/>
<polygon fill="midnightblue" stroke="midnightblue" points="510.646,-126 520.646,-122.5 510.646,-119 510.646,-126"/>
</g>
</g>
</svg>
