<?xml version="1.0" encoding="UTF-8" standalone="no"?>
<!DOCTYPE svg PUBLIC "-//W3C//DTD SVG 1.1//EN"
 "http://www.w3.org/Graphics/SVG/1.1/DTD/svg11.dtd">
<!-- Generated by graphviz version 2.38.0 (20140413.2041)
 -->
<!-- Title: efd::Node Pages: 1 -->
<!--zoomable 427 -->
<svg id="main" version="1.1" xmlns="http://www.w3.org/2000/svg" xmlns:xlink="http://www.w3.org/1999/xlink" xml:space="preserve" onload="init(evt)">
<style type="text/css"><![CDATA[
.edge:hover path { stroke: red; }
.edge:hover polygon { stroke: red; fill: red; }
]]></style>
<script type="text/javascript"><![CDATA[
var edges = document.getElementsByTagName('g');
if (edges && edges.length) {
  for (var i=0;i<edges.length;i++) {
    if (edges[i].id.substr(0,4)=='edge') {
      edges[i].setAttribute('class','edge');
    }
  }
}
]]></script>
        <defs>
                <circle id="rim" cx="0" cy="0" r="7"/>
                <circle id="rim2" cx="0" cy="0" r="3.5"/>
                <g id="zoomPlus">
                        <use xlink:href="#rim" fill="#404040">
                                <set attributeName="fill" to="#808080" begin="zoomplus.mouseover" end="zoomplus.mouseout"/>
                        </use>
                        <path d="M-4,0h8M0,-4v8" fill="none" stroke="white" stroke-width="1.5" pointer-events="none"/>
                </g>
                <g id="zoomMin">
                        <use xlink:href="#rim" fill="#404040">
                                <set attributeName="fill" to="#808080" begin="zoomminus.mouseover" end="zoomminus.mouseout"/>
                        </use>
                        <path d="M-4,0h8" fill="none" stroke="white" stroke-width="1.5" pointer-events="none"/>
                </g>
                <g id="dirArrow">
                        <path fill="none" stroke="white" stroke-width="1.5" d="M0,-3.0v7 M-2.5,-0.5L0,-3.0L2.5,-0.5"/>
                </g>
               <g id="resetDef">
                       <use xlink:href="#rim2" fill="#404040">
                               <set attributeName="fill" to="#808080" begin="reset.mouseover" end="reset.mouseout"/>
                       </use>
               </g>
        </defs>

<script type="text/javascript">
var viewWidth = 501;
var viewHeight = 427;
var sectionId = 'dynsection-0';
</script>
<script xlink:href="../../svgpan.js"/>
<svg id="graph" class="graph">
<g id="viewport">
<title>efd::Node</title>
<!-- Node0 -->
<g id="node1" class="node"><title>Node0</title>
<polygon fill="#bfbfbf" stroke="black" points="0,-228.5 0,-247.5 59,-247.5 59,-228.5 0,-228.5"/>
<text text-anchor="middle" x="29.5" y="-235.5" font-family="Helvetica,sans-Serif" font-size="10.00">efd::Node</text>
</g>
<!-- Node1 -->
<g id="node2" class="node"><title>Node1</title>
<g id="a_node2"><a xlink:href="../../d8/df0/classefd_1_1NDBinOp.xhtml" target="_top" xlink:title="Binary operation node. ">
<polygon fill="none" stroke="black" points="111,-399.5 111,-418.5 189,-418.5 189,-399.5 111,-399.5"/>
<text text-anchor="middle" x="150" y="-406.5" font-family="Helvetica,sans-Serif" font-size="10.00">efd::NDBinOp</text>
</a>
</g>
</g>
<!-- Node0&#45;&gt;Node1 -->
<g id="edge1" class="edge"><title>Node0&#45;&gt;Node1</title>
<path fill="none" stroke="midnightblue" d="M33.6052,-257.66C39.6822,-289.758 56.1157,-353.491 95,-390 99.5645,-394.286 105.153,-397.613 110.985,-400.193"/>
<polygon fill="midnightblue" stroke="midnightblue" points="37.0378,-256.971 31.8678,-247.723 30.1423,-258.176 37.0378,-256.971"/>
</g>
<!-- Node2 -->
<g id="node3" class="node"><title>Node2</title>
<g id="a_node3"><a xlink:href="../../d0/d9e/classefd_1_1NDDecl.xhtml" target="_top" xlink:title="Node for declaration of registers (concrete and quantum). ">
<polygon fill="none" stroke="black" points="114.5,-361.5 114.5,-380.5 185.5,-380.5 185.5,-361.5 114.5,-361.5"/>
<text text-anchor="middle" x="150" y="-368.5" font-family="Helvetica,sans-Serif" font-size="10.00">efd::NDDecl</text>
</a>
</g>
</g>
<!-- Node0&#45;&gt;Node2 -->
<g id="edge2" class="edge"><title>Node0&#45;&gt;Node2</title>
<path fill="none" stroke="midnightblue" d="M36.6221,-257.343C45.5517,-282.56 64.4895,-326.451 95,-352 100.639,-356.722 107.529,-360.301 114.477,-363.004"/>
<polygon fill="midnightblue" stroke="midnightblue" points="39.9124,-256.147 33.4033,-247.787 33.2786,-258.381 39.9124,-256.147"/>
</g>
<!-- Node6 -->
<g id="node7" class="node"><title>Node6</title>
<g id="a_node7"><a xlink:href="../../d8/dd2/classefd_1_1NDIdRef.xhtml" target="_top" xlink:title="Node for id references (register specific positions). ">
<polygon fill="none" stroke="black" points="112.5,-323.5 112.5,-342.5 187.5,-342.5 187.5,-323.5 112.5,-323.5"/>
<text text-anchor="middle" x="150" y="-330.5" font-family="Helvetica,sans-Serif" font-size="10.00">efd::NDIdRef</text>
</a>
</g>
</g>
<!-- Node0&#45;&gt;Node6 -->
<g id="edge6" class="edge"><title>Node0&#45;&gt;Node6</title>
<path fill="none" stroke="midnightblue" d="M41.7644,-256.142C53.238,-273.253 72.5057,-298.522 95,-314 100.486,-317.775 106.799,-320.875 113.13,-323.395"/>
<polygon fill="midnightblue" stroke="midnightblue" points="44.597,-254.077 36.221,-247.589 38.7228,-257.884 44.597,-254.077"/>
</g>
<!-- Node7 -->
<g id="node8" class="node"><title>Node7</title>
<g id="a_node8"><a xlink:href="../../dc/d9d/classefd_1_1NDIfStmt.xhtml" target="_top" xlink:title="Node for conditional statement. ">
<polygon fill="none" stroke="black" points="111,-285.5 111,-304.5 189,-304.5 189,-285.5 111,-285.5"/>
<text text-anchor="middle" x="150" y="-292.5" font-family="Helvetica,sans-Serif" font-size="10.00">efd::NDIfStmt</text>
</a>
</g>
</g>
<!-- Node0&#45;&gt;Node7 -->
<g id="edge7" class="edge"><title>Node0&#45;&gt;Node7</title>
<path fill="none" stroke="midnightblue" d="M53.4595,-253.001C65.5201,-260.497 80.7261,-269.361 95,-276 102.479,-279.479 110.785,-282.699 118.595,-285.463"/>
<polygon fill="midnightblue" stroke="midnightblue" points="55.2388,-249.985 44.9173,-247.594 51.495,-255.899 55.2388,-249.985"/>
</g>
<!-- Node8 -->
<g id="node9" class="node"><title>Node8</title>
<g id="a_node9"><a xlink:href="../../d3/d29/classefd_1_1NDInclude.xhtml" target="_top" xlink:title="Node used to parse another file. ">
<polygon fill="none" stroke="black" points="108.5,-247.5 108.5,-266.5 191.5,-266.5 191.5,-247.5 108.5,-247.5"/>
<text text-anchor="middle" x="150" y="-254.5" font-family="Helvetica,sans-Serif" font-size="10.00">efd::NDInclude</text>
</a>
</g>
</g>
<!-- Node0&#45;&gt;Node8 -->
<g id="edge8" class="edge"><title>Node0&#45;&gt;Node8</title>
<path fill="none" stroke="midnightblue" d="M69.3391,-244.227C81.8859,-246.239 95.8238,-248.474 108.488,-250.504"/>
<polygon fill="midnightblue" stroke="midnightblue" points="69.6136,-240.727 59.1855,-242.599 68.5053,-247.638 69.6136,-240.727"/>
</g>
<!-- Node9 -->
<g id="node10" class="node"><title>Node9</title>
<g id="a_node10"><a xlink:href="../../da/ddd/classefd_1_1NDList.xhtml" target="_top" xlink:title="Base class for list of nodes. ">
<polygon fill="none" stroke="black" points="116.5,-209.5 116.5,-228.5 183.5,-228.5 183.5,-209.5 116.5,-209.5"/>
<text text-anchor="middle" x="150" y="-216.5" font-family="Helvetica,sans-Serif" font-size="10.00">efd::NDList</text>
</a>
</g>
</g>
<!-- Node0&#45;&gt;Node9 -->
<g id="edge9" class="edge"><title>Node0&#45;&gt;Node9</title>
<path fill="none" stroke="midnightblue" d="M69.3391,-231.773C84.5625,-229.332 101.834,-226.562 116.394,-224.228"/>
<polygon fill="midnightblue" stroke="midnightblue" points="68.5053,-228.362 59.1855,-233.401 69.6136,-235.273 68.5053,-228.362"/>
</g>
<!-- Node12 -->
<g id="node13" class="node"><title>Node12</title>
<g id="a_node13"><a xlink:href="../../d9/dcb/classefd_1_1NDQasmVersion.xhtml" target="_top" xlink:title="Node that holds the current Qasm version and the rest of the program. ">
<polygon fill="none" stroke="black" points="95,-171.5 95,-190.5 205,-190.5 205,-171.5 95,-171.5"/>
<text text-anchor="middle" x="150" y="-178.5" font-family="Helvetica,sans-Serif" font-size="10.00">efd::NDQasmVersion</text>
</a>
</g>
</g>
<!-- Node0&#45;&gt;Node12 -->
<g id="edge12" class="edge"><title>Node0&#45;&gt;Node12</title>
<path fill="none" stroke="midnightblue" d="M53.4595,-222.999C65.5201,-215.503 80.7261,-206.639 95,-200 102.479,-196.521 110.785,-193.301 118.595,-190.537"/>
<polygon fill="midnightblue" stroke="midnightblue" points="51.495,-220.101 44.9173,-228.406 55.2388,-226.015 51.495,-220.101"/>
</g>
<!-- Node13 -->
<g id="node14" class="node"><title>Node13</title>
<g id="a_node14"><a xlink:href="../../dd/d94/classefd_1_1NDQOp.xhtml" target="_top" xlink:title="Generic node for quantum operations. This is also the base node for the other quantum gates...">
<polygon fill="none" stroke="black" points="114.5,-133.5 114.5,-152.5 185.5,-152.5 185.5,-133.5 114.5,-133.5"/>
<text text-anchor="middle" x="150" y="-140.5" font-family="Helvetica,sans-Serif" font-size="10.00">efd::NDQOp</text>
</a>
</g>
</g>
<!-- Node0&#45;&gt;Node13 -->
<g id="edge13" class="edge"><title>Node0&#45;&gt;Node13</title>
<path fill="none" stroke="midnightblue" d="M41.7644,-219.858C53.238,-202.747 72.5057,-177.478 95,-162 100.813,-158 107.555,-154.757 114.264,-152.16"/>
<polygon fill="midnightblue" stroke="midnightblue" points="38.7228,-218.116 36.221,-228.411 44.597,-221.923 38.7228,-218.116"/>
</g>
<!-- Node23 -->
<g id="node24" class="node"><title>Node23</title>
<g id="a_node24"><a xlink:href="../../de/dd3/classefd_1_1NDUnaryOp.xhtml" target="_top" xlink:title="Unary operation node. ">
<polygon fill="none" stroke="black" points="105,-95.5 105,-114.5 195,-114.5 195,-95.5 105,-95.5"/>
<text text-anchor="middle" x="150" y="-102.5" font-family="Helvetica,sans-Serif" font-size="10.00">efd::NDUnaryOp</text>
</a>
</g>
</g>
<!-- Node0&#45;&gt;Node23 -->
<g id="edge23" class="edge"><title>Node0&#45;&gt;Node23</title>
<path fill="none" stroke="midnightblue" d="M36.6221,-218.657C45.5517,-193.44 64.4895,-149.549 95,-124 99.648,-120.108 105.147,-116.992 110.827,-114.503"/>
<polygon fill="midnightblue" stroke="midnightblue" points="33.2786,-217.619 33.4033,-228.213 39.9124,-219.853 33.2786,-217.619"/>
</g>
<!-- Node24 -->
<g id="node25" class="node"><title>Node24</title>
<g id="a_node25"><a xlink:href="../../df/d1b/classefd_1_1NDValue.xhtml" target="_top" xlink:title="Node for literal types. ">
<polygon fill="none" stroke="black" points="100,-57.5 100,-76.5 200,-76.5 200,-57.5 100,-57.5"/>
<text text-anchor="middle" x="150" y="-64.5" font-family="Helvetica,sans-Serif" font-size="10.00">efd::NDValue&lt; T &gt;</text>
</a>
</g>
</g>
<!-- Node0&#45;&gt;Node24 -->
<g id="edge24" class="edge"><title>Node0&#45;&gt;Node24</title>
<path fill="none" stroke="midnightblue" d="M33.6052,-218.34C39.6822,-186.242 56.1157,-122.509 95,-86 99.1298,-82.1224 104.098,-79.0297 109.326,-76.5645"/>
<polygon fill="midnightblue" stroke="midnightblue" points="30.1423,-217.824 31.8678,-228.277 37.0378,-219.029 30.1423,-217.824"/>
</g>
<!-- Node3 -->
<g id="node4" class="node"><title>Node3</title>
<g id="a_node4"><a xlink:href="../../db/d1f/classefd_1_1NDGateSign.xhtml" target="_top" xlink:title="Node for declaration of opaque quantum gates. ">
<polygon fill="none" stroke="black" points="249.5,-380.5 249.5,-399.5 341.5,-399.5 341.5,-380.5 249.5,-380.5"/>
<text text-anchor="middle" x="295.5" y="-387.5" font-family="Helvetica,sans-Serif" font-size="10.00">efd::NDGateSign</text>
</a>
</g>
</g>
<!-- Node2&#45;&gt;Node3 -->
<g id="edge3" class="edge"><title>Node2&#45;&gt;Node3</title>
<path fill="none" stroke="midnightblue" d="M196.005,-376.959C213.051,-379.216 232.447,-381.784 249.492,-384.041"/>
<polygon fill="midnightblue" stroke="midnightblue" points="196.11,-373.442 185.737,-375.599 195.191,-380.382 196.11,-373.442"/>
</g>
<!-- Node5 -->
<g id="node6" class="node"><title>Node5</title>
<g id="a_node6"><a xlink:href="../../da/d97/classefd_1_1NDRegDecl.xhtml" target="_top" xlink:title="efd::NDRegDecl">
<polygon fill="none" stroke="black" points="251,-342.5 251,-361.5 340,-361.5 340,-342.5 251,-342.5"/>
<text text-anchor="middle" x="295.5" y="-349.5" font-family="Helvetica,sans-Serif" font-size="10.00">efd::NDRegDecl</text>
</a>
</g>
</g>
<!-- Node2&#45;&gt;Node5 -->
<g id="edge5" class="edge"><title>Node2&#45;&gt;Node5</title>
<path fill="none" stroke="midnightblue" d="M195.742,-365.076C213.296,-362.752 233.375,-360.093 250.824,-357.783"/>
<polygon fill="midnightblue" stroke="midnightblue" points="195.191,-361.618 185.737,-366.401 196.11,-368.558 195.191,-361.618"/>
</g>
<!-- Node4 -->
<g id="node5" class="node"><title>Node4</title>
<g id="a_node5"><a xlink:href="../../d1/d4b/classefd_1_1NDGateDecl.xhtml" target="_top" xlink:title="Node for declaration of quantum gates. ">
<polygon fill="none" stroke="black" points="393.5,-380.5 393.5,-399.5 485.5,-399.5 485.5,-380.5 393.5,-380.5"/>
<text text-anchor="middle" x="439.5" y="-387.5" font-family="Helvetica,sans-Serif" font-size="10.00">efd::NDGateDecl</text>
</a>
</g>
</g>
<!-- Node3&#45;&gt;Node4 -->
<g id="edge4" class="edge"><title>Node3&#45;&gt;Node4</title>
<path fill="none" stroke="midnightblue" d="M352.037,-390C365.647,-390 380.054,-390 393.123,-390"/>
<polygon fill="midnightblue" stroke="midnightblue" points="351.82,-386.5 341.82,-390 351.82,-393.5 351.82,-386.5"/>
</g>
<!-- Node10 -->
<g id="node11" class="node"><title>Node10</title>
<g id="a_node11"><a xlink:href="../../da/d14/classefd_1_1NDGOpList.xhtml" target="_top" xlink:title="Node for list of qubit operation sequences inside gate declarations. ">
<polygon fill="none" stroke="black" points="252,-266.5 252,-285.5 339,-285.5 339,-266.5 252,-266.5"/>
<text text-anchor="middle" x="295.5" y="-273.5" font-family="Helvetica,sans-Serif" font-size="10.00">efd::NDGOpList</text>
</a>
</g>
</g>
<!-- Node9&#45;&gt;Node10 -->
<g id="edge10" class="edge"><title>Node9&#45;&gt;Node10</title>
<path fill="none" stroke="midnightblue" d="M190.259,-232.047C195.264,-233.934 200.283,-235.939 205,-238 221.578,-245.244 224.433,-249.732 241,-257 248.762,-260.406 257.347,-263.667 265.326,-266.497"/>
<polygon fill="midnightblue" stroke="midnightblue" points="191.326,-228.711 180.732,-228.579 188.932,-235.289 191.326,-228.711"/>
</g>
<!-- Node11 -->
<g id="node12" class="node"><title>Node11</title>
<g id="a_node12"><a xlink:href="../../da/d7f/classefd_1_1NDStmtList.xhtml" target="_top" xlink:title="Node for list of qubit operation sequences. ">
<polygon fill="none" stroke="black" points="251.5,-228.5 251.5,-247.5 339.5,-247.5 339.5,-228.5 251.5,-228.5"/>
<text text-anchor="middle" x="295.5" y="-235.5" font-family="Helvetica,sans-Serif" font-size="10.00">efd::NDStmtList</text>
</a>
</g>
</g>
<!-- Node9&#45;&gt;Node11 -->
<g id="edge11" class="edge"><title>Node9&#45;&gt;Node11</title>
<path fill="none" stroke="midnightblue" d="M193.631,-224.644C211.879,-227.061 233.155,-229.878 251.45,-232.3"/>
<polygon fill="midnightblue" stroke="midnightblue" points="193.935,-221.154 183.562,-223.311 193.016,-228.094 193.935,-221.154"/>
</g>
<!-- Node14 -->
<g id="node15" class="node"><title>Node14</title>
<g id="a_node15"><a xlink:href="../../d2/d2a/classefd_1_1NDQOpBarrier.xhtml" target="_top" xlink:title="NDQOp specialized for barrier operation. ">
<polygon fill="none" stroke="black" points="245.5,-190.5 245.5,-209.5 345.5,-209.5 345.5,-190.5 245.5,-190.5"/>
<text text-anchor="middle" x="295.5" y="-197.5" font-family="Helvetica,sans-Serif" font-size="10.00">efd::NDQOpBarrier</text>
</a>
</g>
</g>
<!-- Node13&#45;&gt;Node14 -->
<g id="edge14" class="edge"><title>Node13&#45;&gt;Node14</title>
<path fill="none" stroke="midnightblue" d="M190.259,-156.047C195.264,-157.934 200.283,-159.939 205,-162 221.578,-169.244 224.433,-173.732 241,-181 248.762,-184.406 257.347,-187.667 265.326,-190.497"/>
<polygon fill="midnightblue" stroke="midnightblue" points="191.326,-152.711 180.732,-152.579 188.932,-159.289 191.326,-152.711"/>
</g>
<!-- Node15 -->
<g id="node16" class="node"><title>Node15</title>
<g id="a_node16"><a xlink:href="../../d3/d14/classefd_1_1NDQOpCX.xhtml" target="_top" xlink:title="NDQOp specialized for barrier operation. ">
<polygon fill="none" stroke="black" points="252.5,-152.5 252.5,-171.5 338.5,-171.5 338.5,-152.5 252.5,-152.5"/>
<text text-anchor="middle" x="295.5" y="-159.5" font-family="Helvetica,sans-Serif" font-size="10.00">efd::NDQOpCX</text>
</a>
</g>
</g>
<!-- Node13&#45;&gt;Node15 -->
<g id="edge15" class="edge"><title>Node13&#45;&gt;Node15</title>
<path fill="none" stroke="midnightblue" d="M195.752,-148.925C213.838,-151.32 234.602,-154.069 252.409,-156.427"/>
<polygon fill="midnightblue" stroke="midnightblue" points="196.11,-145.442 185.737,-147.599 195.191,-152.382 196.11,-145.442"/>
</g>
<!-- Node16 -->
<g id="node17" class="node"><title>Node16</title>
<g id="a_node17"><a xlink:href="../../d2/dff/classefd_1_1NDQOpGen.xhtml" target="_top" xlink:title="NDQOp specialized for generic gates. ">
<polygon fill="none" stroke="black" points="251,-114.5 251,-133.5 340,-133.5 340,-114.5 251,-114.5"/>
<text text-anchor="middle" x="295.5" y="-121.5" font-family="Helvetica,sans-Serif" font-size="10.00">efd::NDQOpGen</text>
</a>
</g>
</g>
<!-- Node13&#45;&gt;Node16 -->
<g id="edge16" class="edge"><title>Node13&#45;&gt;Node16</title>
<path fill="none" stroke="midnightblue" d="M195.742,-137.076C213.296,-134.752 233.375,-132.093 250.824,-129.783"/>
<polygon fill="midnightblue" stroke="midnightblue" points="195.191,-133.618 185.737,-138.401 196.11,-140.558 195.191,-133.618"/>
</g>
<!-- Node20 -->
<g id="node21" class="node"><title>Node20</title>
<g id="a_node21"><a xlink:href="../../d4/d64/classefd_1_1NDQOpMeasure.xhtml" target="_top" xlink:title="NDQOp specialized for measure operation. ">
<polygon fill="none" stroke="black" points="241,-76.5 241,-95.5 350,-95.5 350,-76.5 241,-76.5"/>
<text text-anchor="middle" x="295.5" y="-83.5" font-family="Helvetica,sans-Serif" font-size="10.00">efd::NDQOpMeasure</text>
</a>
</g>
</g>
<!-- Node13&#45;&gt;Node20 -->
<g id="edge20" class="edge"><title>Node13&#45;&gt;Node20</title>
<path fill="none" stroke="midnightblue" d="M190.259,-129.953C195.264,-128.066 200.283,-126.061 205,-124 221.578,-116.756 224.433,-112.268 241,-105 248.762,-101.594 257.347,-98.3328 265.326,-95.5027"/>
<polygon fill="midnightblue" stroke="midnightblue" points="188.932,-126.711 180.732,-133.421 191.326,-133.289 188.932,-126.711"/>
</g>
<!-- Node21 -->
<g id="node22" class="node"><title>Node21</title>
<g id="a_node22"><a xlink:href="../../d0/dd2/classefd_1_1NDQOpReset.xhtml" target="_top" xlink:title="NDQOp specialized for reset operation. ">
<polygon fill="none" stroke="black" points="246.5,-38.5 246.5,-57.5 344.5,-57.5 344.5,-38.5 246.5,-38.5"/>
<text text-anchor="middle" x="295.5" y="-45.5" font-family="Helvetica,sans-Serif" font-size="10.00">efd::NDQOpReset</text>
</a>
</g>
</g>
<!-- Node13&#45;&gt;Node21 -->
<g id="edge21" class="edge"><title>Node13&#45;&gt;Node21</title>
<path fill="none" stroke="midnightblue" d="M194.839,-130.527C198.449,-128.636 201.897,-126.473 205,-124 228.432,-105.325 217.596,-85.7089 241,-67 245.85,-63.1227 251.554,-60.0031 257.396,-57.5031"/>
<polygon fill="midnightblue" stroke="midnightblue" points="193.306,-127.379 185.634,-134.686 196.188,-133.758 193.306,-127.379"/>
</g>
<!-- Node22 -->
<g id="node23" class="node"><title>Node22</title>
<g id="a_node23"><a xlink:href="../../d7/dbe/classefd_1_1NDQOpU.xhtml" target="_top" xlink:title="NDQOp specialized for barrier operation. ">
<polygon fill="none" stroke="black" points="256,-0.5 256,-19.5 335,-19.5 335,-0.5 256,-0.5"/>
<text text-anchor="middle" x="295.5" y="-7.5" font-family="Helvetica,sans-Serif" font-size="10.00">efd::NDQOpU</text>
</a>
</g>
</g>
<!-- Node13&#45;&gt;Node22 -->
<g id="edge22" class="edge"><title>Node13&#45;&gt;Node22</title>
<path fill="none" stroke="midnightblue" d="M194.657,-131.591C198.43,-129.475 201.96,-126.968 205,-124 237.307,-92.4565 208.739,-60.5907 241,-29 245.225,-24.8623 250.409,-21.6205 255.87,-19.0818"/>
<polygon fill="midnightblue" stroke="midnightblue" points="193.11,-128.451 185.533,-135.856 196.074,-134.793 193.11,-128.451"/>
</g>
<!-- Node17 -->
<g id="node18" class="node"><title>Node17</title>
<g id="a_node18"><a xlink:href="../../d2/d46/structefd_1_1NDQOpLongCX.xhtml" target="_top" xlink:title="Special node for long cnot calls. ">
<polygon fill="none" stroke="black" points="386,-152.5 386,-171.5 493,-171.5 493,-152.5 386,-152.5"/>
<text text-anchor="middle" x="439.5" y="-159.5" font-family="Helvetica,sans-Serif" font-size="10.00">efd::NDQOpLongCX</text>
</a>
</g>
</g>
<!-- Node16&#45;&gt;Node17 -->
<g id="edge17" class="edge"><title>Node16&#45;&gt;Node17</title>
<path fill="none" stroke="midnightblue" d="M341.993,-136.174C361.628,-141.429 384.266,-147.487 402.679,-152.414"/>
<polygon fill="midnightblue" stroke="midnightblue" points="342.897,-132.793 332.333,-133.589 341.088,-139.555 342.897,-132.793"/>
</g>
<!-- Node18 -->
<g id="node19" class="node"><title>Node18</title>
<g id="a_node19"><a xlink:href="../../d1/d69/structefd_1_1NDQOpRevCX.xhtml" target="_top" xlink:title="Special node for reversal cnot calls. ">
<polygon fill="none" stroke="black" points="387.5,-114.5 387.5,-133.5 491.5,-133.5 491.5,-114.5 387.5,-114.5"/>
<text text-anchor="middle" x="439.5" y="-121.5" font-family="Helvetica,sans-Serif" font-size="10.00">efd::NDQOpRevCX</text>
</a>
</g>
</g>
<!-- Node16&#45;&gt;Node18 -->
<g id="edge18" class="edge"><title>Node16&#45;&gt;Node18</title>
<path fill="none" stroke="midnightblue" d="M350.287,-124C362.462,-124 375.355,-124 387.414,-124"/>
<polygon fill="midnightblue" stroke="midnightblue" points="350.263,-120.5 340.263,-124 350.263,-127.5 350.263,-120.5"/>
</g>
<!-- Node19 -->
<g id="node20" class="node"><title>Node19</title>
<g id="a_node20"><a xlink:href="../../dd/d04/structefd_1_1NDQOpSwap.xhtml" target="_top" xlink:title="Special node for swap calls. ">
<polygon fill="none" stroke="black" points="391.5,-76.5 391.5,-95.5 487.5,-95.5 487.5,-76.5 391.5,-76.5"/>
<text text-anchor="middle" x="439.5" y="-83.5" font-family="Helvetica,sans-Serif" font-size="10.00">efd::NDQOpSwap</text>
</a>
</g>
</g>
<!-- Node16&#45;&gt;Node19 -->
<g id="edge19" class="edge"><title>Node16&#45;&gt;Node19</title>
<path fill="none" stroke="midnightblue" d="M341.993,-111.826C361.628,-106.571 384.266,-100.513 402.679,-95.5859"/>
<polygon fill="midnightblue" stroke="midnightblue" points="341.088,-108.445 332.333,-114.411 342.897,-115.207 341.088,-108.445"/>
</g>
</g>
</svg>
        <g id="navigator" transform="translate(0 0)" fill="#404254">
                <rect fill="#f2f5e9" fill-opacity="0.5" stroke="#606060" stroke-width=".5" x="0" y="0" width="60" height="60"/>
                <use id="zoomplus" xlink:href="#zoomPlus" x="17" y="9" onmousedown="handleZoom(evt,'in')"/>
                <use id="zoomminus" xlink:href="#zoomMin" x="42" y="9" onmousedown="handleZoom(evt,'out')"/>
                <use id="reset" xlink:href="#resetDef" x="30" y="36" onmousedown="handleReset()"/>
                <g id="arrowUp" xlink:href="#dirArrow" transform="translate(30 24)" onmousedown="handlePan(0,-1)">
                  <use xlink:href="#rim" fill="#404040">
                        <set attributeName="fill" to="#808080" begin="arrowUp.mouseover" end="arrowUp.mouseout"/>
                  </use>
                  <path fill="none" stroke="white" stroke-width="1.5" d="M0,-3.0v7 M-2.5,-0.5L0,-3.0L2.5,-0.5"/>
                </g>
                <g id="arrowRight" xlink:href="#dirArrow" transform="rotate(90) translate(36 -43)" onmousedown="handlePan(1,0)">
                  <use xlink:href="#rim" fill="#404040">
                        <set attributeName="fill" to="#808080" begin="arrowRight.mouseover" end="arrowRight.mouseout"/>
                  </use>
                  <path fill="none" stroke="white" stroke-width="1.5" d="M0,-3.0v7 M-2.5,-0.5L0,-3.0L2.5,-0.5"/>
                </g>
                <g id="arrowDown" xlink:href="#dirArrow" transform="rotate(180) translate(-30 -48)" onmousedown="handlePan(0,1)">
                  <use xlink:href="#rim" fill="#404040">
                        <set attributeName="fill" to="#808080" begin="arrowDown.mouseover" end="arrowDown.mouseout"/>
                  </use>
                  <path fill="none" stroke="white" stroke-width="1.5" d="M0,-3.0v7 M-2.5,-0.5L0,-3.0L2.5,-0.5"/>
                </g>
                <g id="arrowLeft" xlink:href="#dirArrow" transform="rotate(270) translate(-36 17)" onmousedown="handlePan(-1,0)">
                  <use xlink:href="#rim" fill="#404040">
                        <set attributeName="fill" to="#808080" begin="arrowLeft.mouseover" end="arrowLeft.mouseout"/>
                  </use>
                  <path fill="none" stroke="white" stroke-width="1.5" d="M0,-3.0v7 M-2.5,-0.5L0,-3.0L2.5,-0.5"/>
                </g>
        </g>
        <svg viewBox="0 0 15 15" width="100%" height="30px" preserveAspectRatio="xMaxYMin meet">
         <g id="arrow_out" transform="scale(0.3 0.3)">
          <a xlink:href="classefd_1_1Node__inherit__graph_org.svg" target="_base">
           <rect id="button" ry="5" rx="5" y="6" x="6" height="38" width="38"
                fill="#f2f5e9" fill-opacity="0.5" stroke="#606060" stroke-width="1.0"/>
           <path id="arrow"
             d="M 11.500037,31.436501 C 11.940474,20.09759 22.043105,11.32322 32.158766,21.979434 L 37.068811,17.246167 C 37.068811,17.246167 37.088388,32 37.088388,32 L 22.160133,31.978069 C 22.160133,31.978069 26.997745,27.140456 26.997745,27.140456 C 18.528582,18.264221 13.291696,25.230495 11.500037,31.436501 z"
             style="fill:#404040;"/>
          </a>
         </g>
        </svg>
</svg>
