<?xml version="1.0" encoding="UTF-8" standalone="no"?>
<!DOCTYPE svg PUBLIC "-//W3C//DTD SVG 1.1//EN"
 "http://www.w3.org/Graphics/SVG/1.1/DTD/svg11.dtd">
<!-- Generated by graphviz version 2.38.0 (20140413.2041)
 -->
<!-- Title: efd::NDQOpLongCX::NDQOpLongCX Pages: 1 -->
<svg width="830pt" height="180pt"
 viewBox="0.00 0.00 830.00 180.00" xmlns="http://www.w3.org/2000/svg" xmlns:xlink="http://www.w3.org/1999/xlink">
<g id="graph0" class="graph" transform="scale(1 1) rotate(0) translate(4 176)">
<title>efd::NDQOpLongCX::NDQOpLongCX</title>
<!-- Node0 -->
<g id="node1" class="node"><title>Node0</title>
<polygon fill="#bfbfbf" stroke="black" points="0,-76.5 0,-95.5 183,-95.5 183,-76.5 0,-76.5"/>
<text text-anchor="middle" x="91.5" y="-83.5" font-family="Helvetica,sans-Serif" font-size="10.00">efd::NDQOpLongCX::NDQOpLongCX</text>
</g>
<!-- Node1 -->
<g id="node2" class="node"><title>Node1</title>
<g id="a_node2"><a xlink:href="../../da/ddd/classefd_1_1NDList.xhtml#a664c2f4a60746612062d7b112ff9842e" target="_top" xlink:title="Appends a child to the end of the list. ">
<polygon fill="none" stroke="black" points="405,-152.5 405,-171.5 516,-171.5 516,-152.5 405,-152.5"/>
<text text-anchor="middle" x="460.5" y="-159.5" font-family="Helvetica,sans-Serif" font-size="10.00">efd::NDList::addChild</text>
</a>
</g>
</g>
<!-- Node0&#45;&gt;Node1 -->
<g id="edge1" class="edge"><title>Node0&#45;&gt;Node1</title>
<path fill="none" stroke="midnightblue" d="M109.007,-95.6831C132.533,-108.951 177.467,-132.347 219,-143 277.14,-157.913 345.552,-162.084 394.517,-162.866"/>
<polygon fill="midnightblue" stroke="midnightblue" points="394.619,-166.367 404.659,-162.984 394.701,-159.368 394.619,-166.367"/>
</g>
<!-- Node3 -->
<g id="node4" class="node"><title>Node3</title>
<g id="a_node4"><a xlink:href="../../df/d1b/classefd_1_1NDValue.xhtml#a96ab9dcd008523aa2f4cfc2eb95d7178" target="_top" xlink:title="Creates a new instance of this node. ">
<polygon fill="none" stroke="black" points="238,-114.5 238,-133.5 349,-133.5 349,-114.5 238,-114.5"/>
<text text-anchor="middle" x="293.5" y="-121.5" font-family="Helvetica,sans-Serif" font-size="10.00">efd::NDValue::Create</text>
</a>
</g>
</g>
<!-- Node0&#45;&gt;Node3 -->
<g id="edge3" class="edge"><title>Node0&#45;&gt;Node3</title>
<path fill="none" stroke="midnightblue" d="M142.71,-95.54C169.933,-100.712 203.764,-107.14 232.383,-112.578"/>
<polygon fill="midnightblue" stroke="midnightblue" points="231.791,-116.028 242.269,-114.456 233.098,-109.151 231.791,-116.028"/>
</g>
<!-- Node4 -->
<g id="node5" class="node"><title>Node4</title>
<g id="a_node5"><a xlink:href="../../da/ddd/classefd_1_1NDList.xhtml#a5e3e2ab6234caa816599eb51766210b7" target="_top" xlink:title="Creates a new instance of this node with the kind K_LIST. ">
<polygon fill="none" stroke="black" points="242.5,-0.5 242.5,-19.5 344.5,-19.5 344.5,-0.5 242.5,-0.5"/>
<text text-anchor="middle" x="293.5" y="-7.5" font-family="Helvetica,sans-Serif" font-size="10.00">efd::NDList::Create</text>
</a>
</g>
</g>
<!-- Node0&#45;&gt;Node4 -->
<g id="edge4" class="edge"><title>Node0&#45;&gt;Node4</title>
<path fill="none" stroke="midnightblue" d="M110.952,-76.4818C135.23,-64.2403 179.46,-42.9048 219,-29 225.924,-26.5651 233.313,-24.2905 240.638,-22.2216"/>
<polygon fill="midnightblue" stroke="midnightblue" points="241.805,-25.5317 250.537,-19.5322 239.969,-18.7766 241.805,-25.5317"/>
</g>
<!-- Node9 -->
<g id="node10" class="node"><title>Node9</title>
<g id="a_node10"><a xlink:href="../../dd/d94/classefd_1_1NDQOp.xhtml#af7ef43289355c5bb047a46419177c8ed" target="_top" xlink:title="Gets the quantum arguments. ">
<polygon fill="none" stroke="black" points="234,-38.5 234,-57.5 353,-57.5 353,-38.5 234,-38.5"/>
<text text-anchor="middle" x="293.5" y="-45.5" font-family="Helvetica,sans-Serif" font-size="10.00">efd::NDQOp::getQArgs</text>
</a>
</g>
</g>
<!-- Node0&#45;&gt;Node9 -->
<g id="edge9" class="edge"><title>Node0&#45;&gt;Node9</title>
<path fill="none" stroke="midnightblue" d="M142.71,-76.46C169.933,-71.2878 203.764,-64.8599 232.383,-59.4222"/>
<polygon fill="midnightblue" stroke="midnightblue" points="233.098,-62.8491 242.269,-57.5439 231.791,-55.9721 233.098,-62.8491"/>
</g>
<!-- Node11 -->
<g id="node12" class="node"><title>Node11</title>
<g id="a_node12"><a xlink:href="../../d2/dff/classefd_1_1NDQOpGen.xhtml#a2334f46b3e6d6b273409f5b9a7181e0b" target="_top" xlink:title="efd::NDQOpGen::NDQOpGen">
<polygon fill="none" stroke="black" points="219,-76.5 219,-95.5 368,-95.5 368,-76.5 219,-76.5"/>
<text text-anchor="middle" x="293.5" y="-83.5" font-family="Helvetica,sans-Serif" font-size="10.00">efd::NDQOpGen::NDQOpGen</text>
</a>
</g>
</g>
<!-- Node0&#45;&gt;Node11 -->
<g id="edge11" class="edge"><title>Node0&#45;&gt;Node11</title>
<path fill="none" stroke="midnightblue" d="M183.137,-86C191.661,-86 200.276,-86 208.732,-86"/>
<polygon fill="midnightblue" stroke="midnightblue" points="208.95,-89.5001 218.95,-86 208.95,-82.5001 208.95,-89.5001"/>
</g>
<!-- Node2 -->
<g id="node3" class="node"><title>Node2</title>
<g id="a_node3"><a xlink:href="../../d6/d6a/classefd_1_1Node.xhtml#a48e9d49d994b9023b8400316e2782e2b" target="_top" xlink:title="Sets the parent node of the current node. ">
<polygon fill="none" stroke="black" points="715,-133.5 715,-152.5 822,-152.5 822,-133.5 715,-133.5"/>
<text text-anchor="middle" x="768.5" y="-140.5" font-family="Helvetica,sans-Serif" font-size="10.00">efd::Node::setParent</text>
</a>
</g>
</g>
<!-- Node1&#45;&gt;Node2 -->
<g id="edge2" class="edge"><title>Node1&#45;&gt;Node2</title>
<path fill="none" stroke="midnightblue" d="M516.207,-158.603C569.127,-155.317 649.253,-150.342 704.74,-146.897"/>
<polygon fill="midnightblue" stroke="midnightblue" points="705.038,-150.385 714.802,-146.272 704.604,-143.399 705.038,-150.385"/>
</g>
<!-- Node5 -->
<g id="node6" class="node"><title>Node5</title>
<g id="a_node6"><a xlink:href="../../da/ddd/classefd_1_1NDList.xhtml#a63e0eab4abb59c1c0783f90afe0bb3bb" target="_top" xlink:title="Creates a new instance of this node with a specific k. ">
<polygon fill="none" stroke="black" points="409.5,-0.5 409.5,-19.5 511.5,-19.5 511.5,-0.5 409.5,-0.5"/>
<text text-anchor="middle" x="460.5" y="-7.5" font-family="Helvetica,sans-Serif" font-size="10.00">efd::NDList::Create</text>
</a>
</g>
</g>
<!-- Node4&#45;&gt;Node5 -->
<g id="edge5" class="edge"><title>Node4&#45;&gt;Node5</title>
<path fill="none" stroke="midnightblue" d="M344.902,-10C362.014,-10 381.31,-10 399.12,-10"/>
<polygon fill="midnightblue" stroke="midnightblue" points="399.407,-13.5001 409.407,-10 399.407,-6.5001 399.407,-13.5001"/>
</g>
<!-- Node6 -->
<g id="node7" class="node"><title>Node6</title>
<g id="a_node7"><a xlink:href="../../d4/deb/namespaceefd.xhtml#a3fd26bc2a0a0c6d9948d0d3cef2e1515" target="_top" xlink:title="Returns true if the pointer src is of class TargetTy. ">
<polygon fill="none" stroke="black" points="574.5,-38.5 574.5,-57.5 657.5,-57.5 657.5,-38.5 574.5,-38.5"/>
<text text-anchor="middle" x="616" y="-45.5" font-family="Helvetica,sans-Serif" font-size="10.00">efd::instanceOf</text>
</a>
</g>
</g>
<!-- Node5&#45;&gt;Node6 -->
<g id="edge6" class="edge"><title>Node5&#45;&gt;Node6</title>
<path fill="none" stroke="midnightblue" d="M500.235,-19.589C520.399,-24.5809 545.248,-30.7324 566.661,-36.0334"/>
<polygon fill="midnightblue" stroke="midnightblue" points="565.996,-39.4743 576.544,-38.4799 567.678,-32.6794 565.996,-39.4743"/>
</g>
<!-- Node7 -->
<g id="node8" class="node"><title>Node7</title>
<g id="a_node8"><a xlink:href="../../da/ddd/classefd_1_1NDList.xhtml#a2642c91fda9d33512d1aa1aa7851b6bd" target="_top" xlink:title="efd::NDList::NDList">
<polygon fill="none" stroke="black" points="564,-0.5 564,-19.5 668,-19.5 668,-0.5 564,-0.5"/>
<text text-anchor="middle" x="616" y="-7.5" font-family="Helvetica,sans-Serif" font-size="10.00">efd::NDList::NDList</text>
</a>
</g>
</g>
<!-- Node5&#45;&gt;Node7 -->
<g id="edge7" class="edge"><title>Node5&#45;&gt;Node7</title>
<path fill="none" stroke="midnightblue" d="M511.762,-10C525.2,-10 539.873,-10 553.829,-10"/>
<polygon fill="midnightblue" stroke="midnightblue" points="553.837,-13.5001 563.837,-10 553.837,-6.5001 553.837,-13.5001"/>
</g>
<!-- Node8 -->
<g id="node9" class="node"><title>Node8</title>
<g id="a_node9"><a xlink:href="../../d6/d6a/classefd_1_1Node.xhtml#a09ac8cdf7898a3d17293d92ae956eece" target="_top" xlink:title="Constructs the node, initially empty (with no information). ">
<polygon fill="none" stroke="black" points="724,-57.5 724,-76.5 813,-76.5 813,-57.5 724,-57.5"/>
<text text-anchor="middle" x="768.5" y="-64.5" font-family="Helvetica,sans-Serif" font-size="10.00">efd::Node::Node</text>
</a>
</g>
</g>
<!-- Node7&#45;&gt;Node8 -->
<g id="edge8" class="edge"><title>Node7&#45;&gt;Node8</title>
<path fill="none" stroke="midnightblue" d="M650.685,-19.5983C659.93,-22.4288 669.91,-25.6668 679,-29 698.816,-36.2665 720.607,-45.6057 737.607,-53.2071"/>
<polygon fill="midnightblue" stroke="midnightblue" points="736.458,-56.5282 747.012,-57.453 739.338,-50.1482 736.458,-56.5282"/>
</g>
<!-- Node10 -->
<g id="node11" class="node"><title>Node10</title>
<g id="a_node11"><a xlink:href="../../d4/deb/namespaceefd.xhtml#a2cef687225e13315fc282dc40b5a6909" target="_top" xlink:title="Returns src cast to TargetTy, iff it is of class TargetTy, otherwise it will return nullptr...">
<polygon fill="none" stroke="black" points="424,-38.5 424,-57.5 497,-57.5 497,-38.5 424,-38.5"/>
<text text-anchor="middle" x="460.5" y="-45.5" font-family="Helvetica,sans-Serif" font-size="10.00">efd::dynCast</text>
</a>
</g>
</g>
<!-- Node9&#45;&gt;Node10 -->
<g id="edge10" class="edge"><title>Node9&#45;&gt;Node10</title>
<path fill="none" stroke="midnightblue" d="M353.137,-48C372.989,-48 394.857,-48 413.576,-48"/>
<polygon fill="midnightblue" stroke="midnightblue" points="413.618,-51.5001 423.618,-48 413.618,-44.5001 413.618,-51.5001"/>
</g>
<!-- Node12 -->
<g id="node13" class="node"><title>Node12</title>
<g id="a_node13"><a xlink:href="../../dd/d94/classefd_1_1NDQOp.xhtml#ab5f18eaba71bcb53806525fd5dc61403" target="_top" xlink:title="efd::NDQOp::NDQOp">
<polygon fill="none" stroke="black" points="404,-76.5 404,-95.5 517,-95.5 517,-76.5 404,-76.5"/>
<text text-anchor="middle" x="460.5" y="-83.5" font-family="Helvetica,sans-Serif" font-size="10.00">efd::NDQOp::NDQOp</text>
</a>
</g>
</g>
<!-- Node11&#45;&gt;Node12 -->
<g id="edge12" class="edge"><title>Node11&#45;&gt;Node12</title>
<path fill="none" stroke="midnightblue" d="M368.313,-86C376.639,-86 385.084,-86 393.304,-86"/>
<polygon fill="midnightblue" stroke="midnightblue" points="393.57,-89.5001 403.57,-86 393.57,-82.5001 393.57,-89.5001"/>
</g>
<!-- Node12&#45;&gt;Node8 -->
<g id="edge15" class="edge"><title>Node12&#45;&gt;Node8</title>
<path fill="none" stroke="midnightblue" d="M517.269,-82.5372C573.141,-79.068 658.55,-73.7649 713.711,-70.3398"/>
<polygon fill="midnightblue" stroke="midnightblue" points="714.219,-73.8151 723.983,-69.702 713.786,-66.8286 714.219,-73.8151"/>
</g>
<!-- Node13 -->
<g id="node14" class="node"><title>Node13</title>
<g id="a_node14"><a xlink:href="../../d6/d6a/classefd_1_1Node.xhtml#a8ac8c3206c6f6817a8c8e515ac830f61" target="_top" xlink:title="Adds a child to this node. It should be used only for construction of each derived class...">
<polygon fill="none" stroke="black" points="553,-114.5 553,-133.5 679,-133.5 679,-114.5 553,-114.5"/>
<text text-anchor="middle" x="616" y="-121.5" font-family="Helvetica,sans-Serif" font-size="10.00">efd::Node::innerAddChild</text>
</a>
</g>
</g>
<!-- Node12&#45;&gt;Node13 -->
<g id="edge13" class="edge"><title>Node12&#45;&gt;Node13</title>
<path fill="none" stroke="midnightblue" d="M500.235,-95.589C520.399,-100.581 545.248,-106.732 566.661,-112.033"/>
<polygon fill="midnightblue" stroke="midnightblue" points="565.996,-115.474 576.544,-114.48 567.678,-108.679 565.996,-115.474"/>
</g>
<!-- Node13&#45;&gt;Node2 -->
<g id="edge14" class="edge"><title>Node13&#45;&gt;Node2</title>
<path fill="none" stroke="midnightblue" d="M679.083,-131.838C687.488,-132.899 696.118,-133.988 704.538,-135.051"/>
<polygon fill="midnightblue" stroke="midnightblue" points="704.314,-138.551 714.674,-136.331 705.191,-131.606 704.314,-138.551"/>
</g>
</g>
</svg>
