<?xml version="1.0" encoding="UTF-8" standalone="no"?>
<!DOCTYPE svg PUBLIC "-//W3C//DTD SVG 1.1//EN"
 "http://www.w3.org/Graphics/SVG/1.1/DTD/svg11.dtd">
<!-- Generated by graphviz version 2.40.1 (20161225.0304)
 -->
<!-- Title: include/enfield/Transform/Allocators/Allocators.h Pages: 1 -->
<svg width="1398pt" height="464pt"
 viewBox="0.00 0.00 1398.00 464.00" xmlns="http://www.w3.org/2000/svg" xmlns:xlink="http://www.w3.org/1999/xlink">
<g id="graph0" class="graph" transform="scale(1 1) rotate(0) translate(4 460)">
<title>include/enfield/Transform/Allocators/Allocators.h</title>
<!-- Node0 -->
<g id="node1" class="node">
<title>Node0</title>
<polygon fill="#bfbfbf" stroke="#000000" points="1021,-425.5 1021,-455.5 1163,-455.5 1163,-425.5 1021,-425.5"/>
<text text-anchor="start" x="1029" y="-443.5" font-family="Helvetica,sans-Serif" font-size="10.00" fill="#000000">include/enfield/Transform</text>
<text text-anchor="middle" x="1092" y="-432.5" font-family="Helvetica,sans-Serif" font-size="10.00" fill="#000000">/Allocators/Allocators.h</text>
</g>
<!-- Node1 -->
<g id="node2" class="node">
<title>Node1</title>
<g id="a_node2"><a xlink:href="../../d7/d9d/ArchGraph_8h.xhtml" target="_top" xlink:title="enfield/Arch/ArchGraph.h">
<polygon fill="none" stroke="#000000" points="214,-297 214,-316 352,-316 352,-297 214,-297"/>
<text text-anchor="middle" x="283" y="-304" font-family="Helvetica,sans-Serif" font-size="10.00" fill="#000000">enfield/Arch/ArchGraph.h</text>
</a>
</g>
</g>
<!-- Node0&#45;&gt;Node1 -->
<g id="edge1" class="edge">
<title>Node0&#45;&gt;Node1</title>
<path fill="none" stroke="#191970" d="M1020.9733,-432.6518C941.9215,-423.5832 810.4841,-407.5112 698,-389 567.4129,-367.5096 415.0911,-335.4073 336.3023,-318.2731"/>
<polygon fill="#191970" stroke="#191970" points="336.6594,-314.7687 326.1433,-316.058 335.1681,-321.6081 336.6594,-314.7687"/>
</g>
<!-- Node13 -->
<g id="node14" class="node">
<title>Node13</title>
<g id="a_node14"><a xlink:href="../../dd/d3b/QbitAllocator_8h.xhtml" target="_top" xlink:title="enfield/Transform/Allocators\l/QbitAllocator.h">
<polygon fill="none" stroke="#000000" points="706.5,-358.5 706.5,-388.5 861.5,-388.5 861.5,-358.5 706.5,-358.5"/>
<text text-anchor="start" x="714.5" y="-376.5" font-family="Helvetica,sans-Serif" font-size="10.00" fill="#000000">enfield/Transform/Allocators</text>
<text text-anchor="middle" x="784" y="-365.5" font-family="Helvetica,sans-Serif" font-size="10.00" fill="#000000">/QbitAllocator.h</text>
</a>
</g>
</g>
<!-- Node0&#45;&gt;Node13 -->
<g id="edge15" class="edge">
<title>Node0&#45;&gt;Node13</title>
<path fill="none" stroke="#191970" d="M1022.8788,-425.4639C975.506,-415.1588 912.5497,-401.4637 863.1613,-390.7202"/>
<polygon fill="#191970" stroke="#191970" points="863.6719,-387.2494 853.1564,-388.5438 862.1839,-394.0895 863.6719,-387.2494"/>
</g>
<!-- Node21 -->
<g id="node22" class="node">
<title>Node21</title>
<g id="a_node22"><a xlink:href="../../dd/d62/EnumString_8h.xhtml" target="_top" xlink:title="enfield/Support/EnumString.h">
<polygon fill="none" stroke="#000000" points="948.5,-168.5 948.5,-187.5 1107.5,-187.5 1107.5,-168.5 948.5,-168.5"/>
<text text-anchor="middle" x="1028" y="-175.5" font-family="Helvetica,sans-Serif" font-size="10.00" fill="#000000">enfield/Support/EnumString.h</text>
</a>
</g>
</g>
<!-- Node0&#45;&gt;Node21 -->
<g id="edge61" class="edge">
<title>Node0&#45;&gt;Node21</title>
<path fill="none" stroke="#191970" d="M1094.0085,-425.4519C1098.1962,-388.95 1104.9977,-293.5907 1073,-224 1067.7115,-212.4983 1058.2884,-202.1663 1049.4269,-194.2219"/>
<polygon fill="#191970" stroke="#191970" points="1051.4898,-191.3838 1041.5814,-187.6321 1046.9876,-196.7439 1051.4898,-191.3838"/>
</g>
<!-- Node29 -->
<g id="node30" class="node">
<title>Node29</title>
<g id="a_node30"><a xlink:href="../../da/d66/Registry_8h.xhtml" target="_top" xlink:title="enfield/Support/Registry.h">
<polygon fill="none" stroke="#000000" points="1120.5,-230 1120.5,-249 1263.5,-249 1263.5,-230 1120.5,-230"/>
<text text-anchor="middle" x="1192" y="-237" font-family="Helvetica,sans-Serif" font-size="10.00" fill="#000000">enfield/Support/Registry.h</text>
</a>
</g>
</g>
<!-- Node0&#45;&gt;Node29 -->
<g id="edge54" class="edge">
<title>Node0&#45;&gt;Node29</title>
<path fill="none" stroke="#191970" d="M1099.5163,-425.3923C1117.4837,-389.2777 1162.8914,-298.0083 1182.6145,-258.3649"/>
<polygon fill="#191970" stroke="#191970" points="1185.8254,-259.7684 1187.1462,-249.2562 1179.5582,-256.6503 1185.8254,-259.7684"/>
</g>
<!-- Node31 -->
<g id="node32" class="node">
<title>Node31</title>
<g id="a_node32"><a xlink:href="../../d1/d9a/Allocators_8def.xhtml" target="_top" xlink:title="enfield/Transform/Allocators\l/Allocators.def">
<polygon fill="none" stroke="#000000" points="1158.5,-358.5 1158.5,-388.5 1313.5,-388.5 1313.5,-358.5 1158.5,-358.5"/>
<text text-anchor="start" x="1166.5" y="-376.5" font-family="Helvetica,sans-Serif" font-size="10.00" fill="#000000">enfield/Transform/Allocators</text>
<text text-anchor="middle" x="1236" y="-365.5" font-family="Helvetica,sans-Serif" font-size="10.00" fill="#000000">/Allocators.def</text>
</a>
</g>
</g>
<!-- Node0&#45;&gt;Node31 -->
<g id="edge62" class="edge">
<title>Node0&#45;&gt;Node31</title>
<path fill="none" stroke="#191970" d="M1124.3164,-425.4639C1144.9225,-415.8763 1171.8351,-403.3545 1194.0783,-393.0052"/>
<polygon fill="#191970" stroke="#191970" points="1195.7031,-396.1096 1203.2932,-388.7177 1192.7501,-389.763 1195.7031,-396.1096"/>
</g>
<!-- Node2 -->
<g id="node3" class="node">
<title>Node2</title>
<g id="a_node3"><a xlink:href="../../d7/d16/Graph_8h.xhtml" target="_top" xlink:title="enfield/Support/Graph.h">
<polygon fill="none" stroke="#000000" points="0,-230 0,-249 132,-249 132,-230 0,-230"/>
<text text-anchor="middle" x="66" y="-237" font-family="Helvetica,sans-Serif" font-size="10.00" fill="#000000">enfield/Support/Graph.h</text>
</a>
</g>
</g>
<!-- Node1&#45;&gt;Node2 -->
<g id="edge2" class="edge">
<title>Node1&#45;&gt;Node2</title>
<path fill="none" stroke="#191970" d="M251.9092,-296.9005C213.7192,-285.1091 148.8313,-265.0746 106.7014,-252.0668"/>
<polygon fill="#191970" stroke="#191970" points="107.6206,-248.6876 97.0331,-249.0817 105.5555,-255.3761 107.6206,-248.6876"/>
</g>
<!-- Node7 -->
<g id="node8" class="node">
<title>Node7</title>
<g id="a_node8"><a xlink:href="../../d4/daf/Nodes_8h.xhtml" target="_top" xlink:title="enfield/Analysis/Nodes.h">
<polygon fill="none" stroke="#000000" points="282.5,-112.5 282.5,-131.5 419.5,-131.5 419.5,-112.5 282.5,-112.5"/>
<text text-anchor="middle" x="351" y="-119.5" font-family="Helvetica,sans-Serif" font-size="10.00" fill="#000000">enfield/Analysis/Nodes.h</text>
</a>
</g>
</g>
<!-- Node1&#45;&gt;Node7 -->
<g id="edge7" class="edge">
<title>Node1&#45;&gt;Node7</title>
<path fill="none" stroke="#191970" d="M265.8497,-296.8759C227.7226,-274.2697 142.1038,-216.0605 179,-168 190.9732,-152.4039 233.523,-140.9487 273.3025,-133.3703"/>
<polygon fill="#191970" stroke="#191970" points="274.133,-136.7763 283.3359,-131.5269 272.8681,-129.8916 274.133,-136.7763"/>
</g>
<!-- Node3 -->
<g id="node4" class="node">
<title>Node3</title>
<polygon fill="none" stroke="#bfbfbf" points="188,-168.5 188,-187.5 220,-187.5 220,-168.5 188,-168.5"/>
<text text-anchor="middle" x="204" y="-175.5" font-family="Helvetica,sans-Serif" font-size="10.00" fill="#000000">set</text>
</g>
<!-- Node2&#45;&gt;Node3 -->
<g id="edge3" class="edge">
<title>Node2&#45;&gt;Node3</title>
<path fill="none" stroke="#191970" d="M87.5625,-229.8906C112.1644,-218.9267 152.3606,-201.0132 178.497,-189.3655"/>
<polygon fill="#191970" stroke="#191970" points="180.0545,-192.5032 187.7638,-185.2357 177.2051,-186.1094 180.0545,-192.5032"/>
</g>
<!-- Node4 -->
<g id="node5" class="node">
<title>Node4</title>
<polygon fill="none" stroke="#bfbfbf" points="666.5,-56.5 666.5,-75.5 713.5,-75.5 713.5,-56.5 666.5,-56.5"/>
<text text-anchor="middle" x="690" y="-63.5" font-family="Helvetica,sans-Serif" font-size="10.00" fill="#000000">vector</text>
</g>
<!-- Node2&#45;&gt;Node4 -->
<g id="edge4" class="edge">
<title>Node2&#45;&gt;Node4</title>
<path fill="none" stroke="#191970" d="M66.3318,-229.9458C67.7683,-205.2671 75.4097,-139.4127 116,-112 213.3149,-46.2783 522.2267,-94.9952 656.2535,-75.5296"/>
<polygon fill="#191970" stroke="#191970" points="657.0664,-78.943 666.3657,-73.8661 655.9301,-72.0358 657.0664,-78.943"/>
</g>
<!-- Node5 -->
<g id="node6" class="node">
<title>Node5</title>
<polygon fill="none" stroke="#bfbfbf" points="125.5,-112.5 125.5,-131.5 218.5,-131.5 218.5,-112.5 125.5,-112.5"/>
<text text-anchor="middle" x="172" y="-119.5" font-family="Helvetica,sans-Serif" font-size="10.00" fill="#000000">unordered_map</text>
</g>
<!-- Node2&#45;&gt;Node5 -->
<g id="edge5" class="edge">
<title>Node2&#45;&gt;Node5</title>
<path fill="none" stroke="#191970" d="M70.0738,-229.884C76.5652,-215.3311 90.3452,-187.3603 108,-168 118.9805,-155.9588 133.5954,-145.1656 146.0868,-137.0653"/>
<polygon fill="#191970" stroke="#191970" points="148.1019,-139.9332 154.7248,-131.6635 144.3904,-133.9981 148.1019,-139.9332"/>
</g>
<!-- Node6 -->
<g id="node7" class="node">
<title>Node6</title>
<polygon fill="none" stroke="#bfbfbf" points="590,-56.5 590,-75.5 648,-75.5 648,-56.5 590,-56.5"/>
<text text-anchor="middle" x="619" y="-63.5" font-family="Helvetica,sans-Serif" font-size="10.00" fill="#000000">memory</text>
</g>
<!-- Node2&#45;&gt;Node6 -->
<g id="edge6" class="edge">
<title>Node2&#45;&gt;Node6</title>
<path fill="none" stroke="#191970" d="M57.0077,-229.7645C48.6791,-220.03 36.869,-204.2123 32,-188 22.2844,-155.6496 8.9101,-136.6535 32,-112 72.1149,-69.1685 485.528,-84.4482 579.6064,-75.5598"/>
<polygon fill="#191970" stroke="#191970" points="580.1668,-79.0173 589.6613,-74.3156 579.3071,-72.0703 580.1668,-79.0173"/>
</g>
<!-- Node7&#45;&gt;Node4 -->
<g id="edge13" class="edge">
<title>Node7&#45;&gt;Node4</title>
<path fill="none" stroke="#191970" d="M419.6897,-112.8559C491.2027,-103.1385 599.4874,-87.8225 656.3233,-75.8251"/>
<polygon fill="#191970" stroke="#191970" points="657.3027,-79.1934 666.3167,-73.6257 655.7981,-72.3571 657.3027,-79.1934"/>
</g>
<!-- Node7&#45;&gt;Node6 -->
<g id="edge14" class="edge">
<title>Node7&#45;&gt;Node6</title>
<path fill="none" stroke="#191970" d="M403.2584,-112.4728C447.8098,-104.1413 513.761,-91.316 580.1955,-76.0874"/>
<polygon fill="#191970" stroke="#191970" points="581.0424,-79.484 589.9983,-73.8233 579.4671,-72.6635 581.0424,-79.484"/>
</g>
<!-- Node8 -->
<g id="node9" class="node">
<title>Node8</title>
<g id="a_node9"><a xlink:href="../../d1/d2e/WrapperVal_8h.xhtml" target="_top" xlink:title="enfield/Support/WrapperVal.h">
<polygon fill="none" stroke="#000000" points="412,-56.5 412,-75.5 572,-75.5 572,-56.5 412,-56.5"/>
<text text-anchor="middle" x="492" y="-63.5" font-family="Helvetica,sans-Serif" font-size="10.00" fill="#000000">enfield/Support/WrapperVal.h</text>
</a>
</g>
</g>
<!-- Node7&#45;&gt;Node8 -->
<g id="edge8" class="edge">
<title>Node7&#45;&gt;Node8</title>
<path fill="none" stroke="#191970" d="M375.2388,-112.3733C398.2789,-103.2226 433.1214,-89.3844 458.7501,-79.2057"/>
<polygon fill="#191970" stroke="#191970" points="460.0756,-82.4452 468.0775,-75.5011 457.4918,-75.9395 460.0756,-82.4452"/>
</g>
<!-- Node10 -->
<g id="node11" class="node">
<title>Node10</title>
<g id="a_node11"><a xlink:href="../../d5/dfc/RTTI_8h.xhtml" target="_top" xlink:title="enfield/Support/RTTI.h">
<polygon fill="none" stroke="#000000" points="268.5,-56.5 268.5,-75.5 393.5,-75.5 393.5,-56.5 268.5,-56.5"/>
<text text-anchor="middle" x="331" y="-63.5" font-family="Helvetica,sans-Serif" font-size="10.00" fill="#000000">enfield/Support/RTTI.h</text>
</a>
</g>
</g>
<!-- Node7&#45;&gt;Node10 -->
<g id="edge10" class="edge">
<title>Node7&#45;&gt;Node10</title>
<path fill="none" stroke="#191970" d="M347.5163,-112.2455C344.8492,-104.7776 341.0867,-94.2427 337.8263,-85.1137"/>
<polygon fill="#191970" stroke="#191970" points="341.1033,-83.8829 334.4438,-75.6427 334.5111,-86.2373 341.1033,-83.8829"/>
</g>
<!-- Node11 -->
<g id="node12" class="node">
<title>Node11</title>
<polygon fill="none" stroke="#bfbfbf" points="167.5,-56.5 167.5,-75.5 250.5,-75.5 250.5,-56.5 167.5,-56.5"/>
<text text-anchor="middle" x="209" y="-63.5" font-family="Helvetica,sans-Serif" font-size="10.00" fill="#000000">initializer_list</text>
</g>
<!-- Node7&#45;&gt;Node11 -->
<g id="edge11" class="edge">
<title>Node7&#45;&gt;Node11</title>
<path fill="none" stroke="#191970" d="M326.5893,-112.3733C303.3858,-103.2226 268.2962,-89.3844 242.4858,-79.2057"/>
<polygon fill="#191970" stroke="#191970" points="243.6789,-75.9139 233.0921,-75.5011 241.1108,-82.4258 243.6789,-75.9139"/>
</g>
<!-- Node12 -->
<g id="node13" class="node">
<title>Node12</title>
<polygon fill="none" stroke="#bfbfbf" points="742,-56.5 742,-75.5 802,-75.5 802,-56.5 742,-56.5"/>
<text text-anchor="middle" x="772" y="-63.5" font-family="Helvetica,sans-Serif" font-size="10.00" fill="#000000">iostream</text>
</g>
<!-- Node7&#45;&gt;Node12 -->
<g id="edge12" class="edge">
<title>Node7&#45;&gt;Node12</title>
<path fill="none" stroke="#191970" d="M419.9008,-113.1451C422.9757,-112.7567 426.0198,-112.3735 429,-112 559.6208,-95.6298 593.0721,-97.1783 723,-76 725.8519,-75.5351 728.7905,-75.0221 731.745,-74.4813"/>
<polygon fill="#191970" stroke="#191970" points="732.5855,-77.8841 741.7485,-72.5654 731.2686,-71.009 732.5855,-77.8841"/>
</g>
<!-- Node9 -->
<g id="node10" class="node">
<title>Node9</title>
<polygon fill="none" stroke="#bfbfbf" points="880,-.5 880,-19.5 924,-19.5 924,-.5 880,-.5"/>
<text text-anchor="middle" x="902" y="-7.5" font-family="Helvetica,sans-Serif" font-size="10.00" fill="#000000">string</text>
</g>
<!-- Node8&#45;&gt;Node9 -->
<g id="edge9" class="edge">
<title>Node8&#45;&gt;Node9</title>
<path fill="none" stroke="#191970" d="M562.0157,-56.4369C651.7094,-44.186 803.4642,-23.4586 869.5864,-14.4272"/>
<polygon fill="#191970" stroke="#191970" points="870.3735,-17.8523 879.8078,-13.0311 869.4261,-10.9167 870.3735,-17.8523"/>
</g>
<!-- Node13&#45;&gt;Node1 -->
<g id="edge16" class="edge">
<title>Node13&#45;&gt;Node1</title>
<path fill="none" stroke="#191970" d="M706.2684,-363.1048C612.6584,-350.5861 456.2892,-329.6744 362.0809,-317.0757"/>
<polygon fill="#191970" stroke="#191970" points="362.4121,-313.5889 352.0364,-315.7324 361.4842,-320.5271 362.4121,-313.5889"/>
</g>
<!-- Node14 -->
<g id="node15" class="node">
<title>Node14</title>
<g id="a_node15"><a xlink:href="../../d9/dcf/DependencyBuilderPass_8h.xhtml" target="_top" xlink:title="enfield/Transform/Dependency\lBuilderPass.h">
<polygon fill="none" stroke="#000000" points="492.5,-291.5 492.5,-321.5 659.5,-321.5 659.5,-291.5 492.5,-291.5"/>
<text text-anchor="start" x="500.5" y="-309.5" font-family="Helvetica,sans-Serif" font-size="10.00" fill="#000000">enfield/Transform/Dependency</text>
<text text-anchor="middle" x="576" y="-298.5" font-family="Helvetica,sans-Serif" font-size="10.00" fill="#000000">BuilderPass.h</text>
</a>
</g>
</g>
<!-- Node13&#45;&gt;Node14 -->
<g id="edge17" class="edge">
<title>Node13&#45;&gt;Node14</title>
<path fill="none" stroke="#191970" d="M737.3207,-358.4639C706.3848,-348.499 665.6084,-335.3642 632.792,-324.7936"/>
<polygon fill="#191970" stroke="#191970" points="633.4744,-321.3363 622.8829,-321.6017 631.3281,-327.9992 633.4744,-321.3363"/>
</g>
<!-- Node19 -->
<g id="node20" class="node">
<title>Node19</title>
<g id="a_node20"><a xlink:href="../../d9/d41/CommandLine_8h.xhtml" target="_top" xlink:title="enfield/Support/CommandLine.h">
<polygon fill="none" stroke="#000000" points="812.5,-297 812.5,-316 985.5,-316 985.5,-297 812.5,-297"/>
<text text-anchor="middle" x="899" y="-304" font-family="Helvetica,sans-Serif" font-size="10.00" fill="#000000">enfield/Support/CommandLine.h</text>
</a>
</g>
</g>
<!-- Node13&#45;&gt;Node19 -->
<g id="edge37" class="edge">
<title>Node13&#45;&gt;Node19</title>
<path fill="none" stroke="#191970" d="M809.8082,-358.4639C828.9299,-347.3234 854.8517,-332.2212 873.8218,-321.1691"/>
<polygon fill="#191970" stroke="#191970" points="875.6371,-324.1622 882.5157,-316.1039 872.1132,-318.1138 875.6371,-324.1622"/>
</g>
<!-- Node28 -->
<g id="node29" class="node">
<title>Node28</title>
<g id="a_node29"><a xlink:href="../../dc/d09/Stats_8h.xhtml" target="_top" xlink:title="enfield/Support/Stats.h">
<polygon fill="none" stroke="#000000" points="708,-112.5 708,-131.5 836,-131.5 836,-112.5 708,-112.5"/>
<text text-anchor="middle" x="772" y="-119.5" font-family="Helvetica,sans-Serif" font-size="10.00" fill="#000000">enfield/Support/Stats.h</text>
</a>
</g>
</g>
<!-- Node13&#45;&gt;Node28 -->
<g id="edge51" class="edge">
<title>Node13&#45;&gt;Node28</title>
<path fill="none" stroke="#191970" d="M783.2674,-358.1461C781.1899,-314.6045 775.2612,-190.3499 772.9442,-141.7895"/>
<polygon fill="#191970" stroke="#191970" points="776.4332,-141.4723 772.4605,-131.6505 769.4411,-141.806 776.4332,-141.4723"/>
</g>
<!-- Node14&#45;&gt;Node3 -->
<g id="edge36" class="edge">
<title>Node14&#45;&gt;Node3</title>
<path fill="none" stroke="#191970" d="M499.8522,-291.4111C460.0194,-282.5789 410.775,-270.1715 368,-255 317.2239,-236.9907 260.9783,-208.6111 229.3121,-191.8"/>
<polygon fill="#191970" stroke="#191970" points="230.775,-188.6132 220.307,-186.9784 227.4708,-194.7843 230.775,-188.6132"/>
</g>
<!-- Node14&#45;&gt;Node4 -->
<g id="edge35" class="edge">
<title>Node14&#45;&gt;Node4</title>
<path fill="none" stroke="#191970" d="M611.9692,-291.3743C627.8234,-282.9269 645.2564,-270.8654 656,-255 691.7601,-202.1918 693.0616,-122.7705 691.4352,-85.9971"/>
<polygon fill="#191970" stroke="#191970" points="694.9085,-85.4282 690.8442,-75.644 687.9199,-85.8272 694.9085,-85.4282"/>
</g>
<!-- Node14&#45;&gt;Node5 -->
<g id="edge33" class="edge">
<title>Node14&#45;&gt;Node5</title>
<path fill="none" stroke="#191970" d="M492.2015,-299.3718C434.2709,-292.5299 356.2004,-279.4627 291,-255 236.692,-234.6241 210.2366,-236.8755 179,-188 170.2847,-174.3633 169.0255,-155.8232 169.6644,-141.8651"/>
<polygon fill="#191970" stroke="#191970" points="173.158,-142.0845 170.4774,-131.8344 166.1808,-141.5189 173.158,-142.0845"/>
</g>
<!-- Node14&#45;&gt;Node7 -->
<g id="edge18" class="edge">
<title>Node14&#45;&gt;Node7</title>
<path fill="none" stroke="#191970" d="M595.1323,-291.4906C627.135,-264.6191 684.8388,-207.4229 651,-168 647.3701,-163.7711 517.4443,-145.032 429.7839,-132.8145"/>
<polygon fill="#191970" stroke="#191970" points="430.2336,-129.3434 419.8467,-131.4322 429.2691,-136.2767 430.2336,-129.3434"/>
</g>
<!-- Node15 -->
<g id="node16" class="node">
<title>Node15</title>
<g id="a_node16"><a xlink:href="../../df/d29/Pass_8h.xhtml" target="_top" xlink:title="enfield/Transform/Pass.h">
<polygon fill="none" stroke="#000000" points="438,-112.5 438,-131.5 576,-131.5 576,-112.5 438,-112.5"/>
<text text-anchor="middle" x="507" y="-119.5" font-family="Helvetica,sans-Serif" font-size="10.00" fill="#000000">enfield/Transform/Pass.h</text>
</a>
</g>
</g>
<!-- Node14&#45;&gt;Node15 -->
<g id="edge19" class="edge">
<title>Node14&#45;&gt;Node15</title>
<path fill="none" stroke="#191970" d="M571.7193,-291.4542C566.8767,-274.8073 558.5461,-247.2582 550,-224 539.2195,-194.6608 524.7801,-161.429 515.6829,-141.094"/>
<polygon fill="#191970" stroke="#191970" points="518.7601,-139.4034 511.4602,-131.7246 512.3782,-142.2796 518.7601,-139.4034"/>
</g>
<!-- Node16 -->
<g id="node17" class="node">
<title>Node16</title>
<g id="a_node17"><a xlink:href="../../d4/d73/QModule_8h.xhtml" target="_top" xlink:title="enfield/Transform/QModule.h">
<polygon fill="none" stroke="#000000" points="276,-168.5 276,-187.5 434,-187.5 434,-168.5 276,-168.5"/>
<text text-anchor="middle" x="355" y="-175.5" font-family="Helvetica,sans-Serif" font-size="10.00" fill="#000000">enfield/Transform/QModule.h</text>
</a>
</g>
</g>
<!-- Node14&#45;&gt;Node16 -->
<g id="edge21" class="edge">
<title>Node14&#45;&gt;Node16</title>
<path fill="none" stroke="#191970" d="M500.0748,-291.4343C457.8728,-281.8374 410.6041,-268.6723 394,-255 375.9902,-240.1702 365.4616,-214.8995 359.9758,-197.372"/>
<polygon fill="#191970" stroke="#191970" points="363.3027,-196.2755 357.1899,-187.6219 356.572,-198.1987 363.3027,-196.2755"/>
</g>
<!-- Node17 -->
<g id="node18" class="node">
<title>Node17</title>
<g id="a_node18"><a xlink:href="../../d6/d94/XbitToNumberPass_8h.xhtml" target="_top" xlink:title="enfield/Transform/XbitTo\lNumberPass.h">
<polygon fill="none" stroke="#000000" points="403,-224.5 403,-254.5 541,-254.5 541,-224.5 403,-224.5"/>
<text text-anchor="start" x="411" y="-242.5" font-family="Helvetica,sans-Serif" font-size="10.00" fill="#000000">enfield/Transform/XbitTo</text>
<text text-anchor="middle" x="472" y="-231.5" font-family="Helvetica,sans-Serif" font-size="10.00" fill="#000000">NumberPass.h</text>
</a>
</g>
</g>
<!-- Node14&#45;&gt;Node17 -->
<g id="edge25" class="edge">
<title>Node14&#45;&gt;Node17</title>
<path fill="none" stroke="#191970" d="M552.6604,-291.4639C538.4426,-282.3044 520.0677,-270.4667 504.4478,-260.4038"/>
<polygon fill="#191970" stroke="#191970" points="505.9236,-257.1912 495.6216,-254.7177 502.1326,-263.0758 505.9236,-257.1912"/>
</g>
<!-- Node18 -->
<g id="node19" class="node">
<title>Node18</title>
<polygon fill="none" stroke="#bfbfbf" points="604,-168.5 604,-187.5 642,-187.5 642,-168.5 604,-168.5"/>
<text text-anchor="middle" x="623" y="-175.5" font-family="Helvetica,sans-Serif" font-size="10.00" fill="#000000">map</text>
</g>
<!-- Node14&#45;&gt;Node18 -->
<g id="edge34" class="edge">
<title>Node14&#45;&gt;Node18</title>
<path fill="none" stroke="#191970" d="M581.5761,-291.2548C590.1292,-267.87 606.4816,-223.1619 615.88,-197.4665"/>
<polygon fill="#191970" stroke="#191970" points="619.291,-198.3296 619.439,-187.7358 612.7169,-195.925 619.291,-198.3296"/>
</g>
<!-- Node15&#45;&gt;Node6 -->
<g id="edge20" class="edge">
<title>Node15&#45;&gt;Node6</title>
<path fill="none" stroke="#191970" d="M526.2535,-112.3733C544.0712,-103.4644 570.7747,-90.1127 590.9594,-80.0203"/>
<polygon fill="#191970" stroke="#191970" points="592.6187,-83.1038 599.9978,-75.5011 589.4882,-76.8428 592.6187,-83.1038"/>
</g>
<!-- Node16&#45;&gt;Node5 -->
<g id="edge24" class="edge">
<title>Node16&#45;&gt;Node5</title>
<path fill="none" stroke="#191970" d="M323.5412,-168.3733C292.9793,-159.021 246.4174,-144.7725 212.9739,-134.5385"/>
<polygon fill="#191970" stroke="#191970" points="213.6348,-131.0806 203.0483,-131.5011 211.5864,-137.7742 213.6348,-131.0806"/>
</g>
<!-- Node16&#45;&gt;Node7 -->
<g id="edge22" class="edge">
<title>Node16&#45;&gt;Node7</title>
<path fill="none" stroke="#191970" d="M354.3033,-168.2455C353.7813,-160.9382 353.0496,-150.6944 352.4075,-141.7046"/>
<polygon fill="#191970" stroke="#191970" points="355.8924,-141.3679 351.6888,-131.6427 348.9102,-141.8667 355.8924,-141.3679"/>
</g>
<!-- Node16&#45;&gt;Node15 -->
<g id="edge23" class="edge">
<title>Node16&#45;&gt;Node15</title>
<path fill="none" stroke="#191970" d="M381.1297,-168.3733C406.0768,-159.1822 443.8592,-145.2624 471.5206,-135.0713"/>
<polygon fill="#191970" stroke="#191970" points="473.0378,-138.2424 481.2112,-131.5011 470.6178,-131.674 473.0378,-138.2424"/>
</g>
<!-- Node17&#45;&gt;Node3 -->
<g id="edge31" class="edge">
<title>Node17&#45;&gt;Node3</title>
<path fill="none" stroke="#191970" d="M402.7808,-226.5877C355.031,-217.1773 290.2668,-203.4165 234,-188 232.577,-187.6101 231.1221,-187.1919 229.6578,-186.7555"/>
<polygon fill="#191970" stroke="#191970" points="230.6839,-183.4092 220.0937,-183.7221 228.5675,-190.0817 230.6839,-183.4092"/>
</g>
<!-- Node17&#45;&gt;Node4 -->
<g id="edge30" class="edge">
<title>Node17&#45;&gt;Node4</title>
<path fill="none" stroke="#191970" d="M490.9647,-224.4065C531.8734,-191.8484 628.0852,-115.2762 669.9512,-81.9562"/>
<polygon fill="#191970" stroke="#191970" points="672.3758,-84.4998 678.0206,-75.534 668.0167,-79.0227 672.3758,-84.4998"/>
</g>
<!-- Node17&#45;&gt;Node5 -->
<g id="edge29" class="edge">
<title>Node17&#45;&gt;Node5</title>
<path fill="none" stroke="#191970" d="M402.9918,-228.6083C362.2127,-220.6138 310.2615,-207.6658 267,-188 238.4052,-175.0014 209.29,-153.25 190.964,-138.2931"/>
<polygon fill="#191970" stroke="#191970" points="192.8081,-135.2741 182.8838,-131.5645 188.3287,-140.6532 192.8081,-135.2741"/>
</g>
<!-- Node17&#45;&gt;Node7 -->
<g id="edge28" class="edge">
<title>Node17&#45;&gt;Node7</title>
<path fill="none" stroke="#191970" d="M469.1677,-224.395C465.5267,-208.6351 457.8229,-184.032 443,-168 429.3956,-153.286 410.0401,-142.6328 392.5897,-135.3076"/>
<polygon fill="#191970" stroke="#191970" points="393.7262,-131.9934 383.1396,-131.5758 391.1551,-138.5042 393.7262,-131.9934"/>
</g>
<!-- Node17&#45;&gt;Node15 -->
<g id="edge26" class="edge">
<title>Node17&#45;&gt;Node15</title>
<path fill="none" stroke="#191970" d="M476.5756,-224.1389C482.9102,-202.873 494.3493,-164.4702 501.2524,-141.2956"/>
<polygon fill="#191970" stroke="#191970" points="504.652,-142.1425 504.1525,-131.5595 497.9433,-140.1441 504.652,-142.1425"/>
</g>
<!-- Node17&#45;&gt;Node16 -->
<g id="edge27" class="edge">
<title>Node17&#45;&gt;Node16</title>
<path fill="none" stroke="#191970" d="M443.3786,-224.4554C424.713,-214.644 400.5001,-201.9167 382.1388,-192.2653"/>
<polygon fill="#191970" stroke="#191970" points="383.611,-189.0851 373.1308,-187.5303 380.354,-195.2812 383.611,-189.0851"/>
</g>
<!-- Node17&#45;&gt;Node18 -->
<g id="edge32" class="edge">
<title>Node17&#45;&gt;Node18</title>
<path fill="none" stroke="#191970" d="M508.9388,-224.4554C535.3368,-213.7039 570.332,-199.4509 594.5657,-189.5809"/>
<polygon fill="#191970" stroke="#191970" points="595.9777,-192.785 603.9188,-185.7715 593.3372,-186.3021 595.9777,-192.785"/>
</g>
<!-- Node19&#45;&gt;Node4 -->
<g id="edge49" class="edge">
<title>Node19&#45;&gt;Node4</title>
<path fill="none" stroke="#191970" d="M896.8981,-296.8585C888.6795,-259.5101 858.5081,-125.7491 845,-112 836.3493,-103.195 766.4092,-84.7728 723.4882,-74.1063"/>
<polygon fill="#191970" stroke="#191970" points="724.2791,-70.6966 713.7318,-71.6995 722.6024,-77.4928 724.2791,-70.6966"/>
</g>
<!-- Node19&#45;&gt;Node6 -->
<g id="edge50" class="edge">
<title>Node19&#45;&gt;Node6</title>
<path fill="none" stroke="#191970" d="M886.7574,-296.9973C853.7702,-271.2712 760.5597,-197.7736 687,-132 668.9563,-115.8662 649.1927,-96.4778 635.6457,-82.9045"/>
<polygon fill="#191970" stroke="#191970" points="637.9767,-80.2846 628.4478,-75.6532 633.0087,-85.2161 637.9767,-80.2846"/>
</g>
<!-- Node19&#45;&gt;Node9 -->
<g id="edge48" class="edge">
<title>Node19&#45;&gt;Node9</title>
<path fill="none" stroke="#191970" d="M899.38,-296.8299C900.1872,-275.4229 902,-222.4071 902,-178 902,-178 902,-178 902,-122 902,-89.7116 902,-52.1872 902,-29.8048"/>
<polygon fill="#191970" stroke="#191970" points="905.5001,-29.5883 902,-19.5884 898.5001,-29.5884 905.5001,-29.5883"/>
</g>
<!-- Node20 -->
<g id="node21" class="node">
<title>Node20</title>
<g id="a_node21"><a xlink:href="../../d1/d5e/PossibleValuesListTrait_8h.xhtml" target="_top" xlink:title="enfield/Support/Possible\lValuesListTrait.h">
<polygon fill="none" stroke="#000000" points="930,-224.5 930,-254.5 1064,-254.5 1064,-224.5 930,-224.5"/>
<text text-anchor="start" x="938" y="-242.5" font-family="Helvetica,sans-Serif" font-size="10.00" fill="#000000">enfield/Support/Possible</text>
<text text-anchor="middle" x="997" y="-231.5" font-family="Helvetica,sans-Serif" font-size="10.00" fill="#000000">ValuesListTrait.h</text>
</a>
</g>
</g>
<!-- Node19&#45;&gt;Node20 -->
<g id="edge38" class="edge">
<title>Node19&#45;&gt;Node20</title>
<path fill="none" stroke="#191970" d="M913.041,-296.9005C926.9588,-287.3853 948.728,-272.5023 966.612,-260.2755"/>
<polygon fill="#191970" stroke="#191970" points="968.7481,-263.0549 975.0279,-254.5218 964.7974,-257.2763 968.7481,-263.0549"/>
</g>
<!-- Node20&#45;&gt;Node21 -->
<g id="edge39" class="edge">
<title>Node20&#45;&gt;Node21</title>
<path fill="none" stroke="#191970" d="M1004.6629,-224.2977C1008.8316,-216.0277 1014.0265,-205.7215 1018.4561,-196.9339"/>
<polygon fill="#191970" stroke="#191970" points="1021.6607,-198.3521 1023.0365,-187.8469 1015.4099,-195.2012 1021.6607,-198.3521"/>
</g>
<!-- Node21&#45;&gt;Node4 -->
<g id="edge45" class="edge">
<title>Node21&#45;&gt;Node4</title>
<path fill="none" stroke="#191970" d="M1009.011,-168.3554C980.9512,-154.4031 926.4943,-128.4609 878,-112 863.4442,-107.0592 773.645,-85.6795 723.6045,-73.8858"/>
<polygon fill="#191970" stroke="#191970" points="724.1072,-70.4085 713.5713,-71.524 722.5032,-77.2223 724.1072,-70.4085"/>
</g>
<!-- Node22 -->
<g id="node23" class="node">
<title>Node22</title>
<g id="a_node23"><a xlink:href="../../d1/d73/Defs_8h.xhtml" target="_top" xlink:title="enfield/Support/Defs.h">
<polygon fill="none" stroke="#000000" points="1202.5,-112.5 1202.5,-131.5 1327.5,-131.5 1327.5,-112.5 1202.5,-112.5"/>
<text text-anchor="middle" x="1265" y="-119.5" font-family="Helvetica,sans-Serif" font-size="10.00" fill="#000000">enfield/Support/Defs.h</text>
</a>
</g>
</g>
<!-- Node21&#45;&gt;Node22 -->
<g id="edge40" class="edge">
<title>Node21&#45;&gt;Node22</title>
<path fill="none" stroke="#191970" d="M1068.4725,-168.4369C1108.948,-158.8731 1171.2867,-144.1432 1214.8703,-133.845"/>
<polygon fill="#191970" stroke="#191970" points="1215.7673,-137.2295 1224.6945,-131.5237 1214.1576,-130.4171 1215.7673,-137.2295"/>
</g>
<!-- Node26 -->
<g id="node27" class="node">
<title>Node26</title>
<polygon fill="none" stroke="#bfbfbf" points="1044,-112.5 1044,-131.5 1108,-131.5 1108,-112.5 1044,-112.5"/>
<text text-anchor="middle" x="1076" y="-119.5" font-family="Helvetica,sans-Serif" font-size="10.00" fill="#000000">algorithm</text>
</g>
<!-- Node21&#45;&gt;Node26 -->
<g id="edge46" class="edge">
<title>Node21&#45;&gt;Node26</title>
<path fill="none" stroke="#191970" d="M1036.361,-168.2455C1043.175,-160.2958 1052.9681,-148.8706 1061.1152,-139.3656"/>
<polygon fill="#191970" stroke="#191970" points="1063.8843,-141.513 1067.7349,-131.6427 1058.5695,-136.9575 1063.8843,-141.513"/>
</g>
<!-- Node27 -->
<g id="node28" class="node">
<title>Node27</title>
<polygon fill="none" stroke="#bfbfbf" points="968.5,-112.5 968.5,-131.5 1025.5,-131.5 1025.5,-112.5 968.5,-112.5"/>
<text text-anchor="middle" x="997" y="-119.5" font-family="Helvetica,sans-Serif" font-size="10.00" fill="#000000">typeinfo</text>
</g>
<!-- Node21&#45;&gt;Node27 -->
<g id="edge47" class="edge">
<title>Node21&#45;&gt;Node27</title>
<path fill="none" stroke="#191970" d="M1022.6002,-168.2455C1018.3773,-160.617 1012.3827,-149.7881 1007.2559,-140.5267"/>
<polygon fill="#191970" stroke="#191970" points="1010.2432,-138.6965 1002.3379,-131.6427 1004.119,-142.0867 1010.2432,-138.6965"/>
</g>
<!-- Node22&#45;&gt;Node4 -->
<g id="edge41" class="edge">
<title>Node22&#45;&gt;Node4</title>
<path fill="none" stroke="#191970" d="M1202.1295,-117.6925C1081.5358,-109.2434 821.8133,-90.0935 733,-76 729.92,-75.5113 726.7329,-74.9253 723.5505,-74.2853"/>
<polygon fill="#191970" stroke="#191970" points="724.0533,-70.8129 713.5381,-72.1101 722.5671,-77.6534 724.0533,-70.8129"/>
</g>
<!-- Node23 -->
<g id="node24" class="node">
<title>Node23</title>
<polygon fill="none" stroke="#bfbfbf" points="1340,-56.5 1340,-75.5 1390,-75.5 1390,-56.5 1340,-56.5"/>
<text text-anchor="middle" x="1365" y="-63.5" font-family="Helvetica,sans-Serif" font-size="10.00" fill="#000000">cstdint</text>
</g>
<!-- Node22&#45;&gt;Node23 -->
<g id="edge42" class="edge">
<title>Node22&#45;&gt;Node23</title>
<path fill="none" stroke="#191970" d="M1282.4187,-112.2455C1298.0485,-103.4928 1321.2019,-90.527 1339.0185,-80.5496"/>
<polygon fill="#191970" stroke="#191970" points="1340.766,-83.5825 1347.7809,-75.6427 1337.3457,-77.475 1340.766,-83.5825"/>
</g>
<!-- Node24 -->
<g id="node25" class="node">
<title>Node24</title>
<polygon fill="none" stroke="#bfbfbf" points="1202,-56.5 1202,-75.5 1246,-75.5 1246,-56.5 1202,-56.5"/>
<text text-anchor="middle" x="1224" y="-63.5" font-family="Helvetica,sans-Serif" font-size="10.00" fill="#000000">limits</text>
</g>
<!-- Node22&#45;&gt;Node24 -->
<g id="edge43" class="edge">
<title>Node22&#45;&gt;Node24</title>
<path fill="none" stroke="#191970" d="M1257.8583,-112.2455C1252.1556,-104.4564 1244.01,-93.3308 1237.1375,-83.9439"/>
<polygon fill="#191970" stroke="#191970" points="1239.7913,-81.6437 1231.0598,-75.6427 1234.1432,-85.7789 1239.7913,-81.6437"/>
</g>
<!-- Node25 -->
<g id="node26" class="node">
<title>Node25</title>
<polygon fill="none" stroke="#bfbfbf" points="1264.5,-56.5 1264.5,-75.5 1321.5,-75.5 1321.5,-56.5 1264.5,-56.5"/>
<text text-anchor="middle" x="1293" y="-63.5" font-family="Helvetica,sans-Serif" font-size="10.00" fill="#000000">ostream</text>
</g>
<!-- Node22&#45;&gt;Node25 -->
<g id="edge44" class="edge">
<title>Node22&#45;&gt;Node25</title>
<path fill="none" stroke="#191970" d="M1269.8772,-112.2455C1273.6513,-104.6973 1278.9921,-94.0158 1283.5901,-84.8197"/>
<polygon fill="#191970" stroke="#191970" points="1286.837,-86.1522 1288.1787,-75.6427 1280.576,-83.0217 1286.837,-86.1522"/>
</g>
<!-- Node28&#45;&gt;Node6 -->
<g id="edge53" class="edge">
<title>Node28&#45;&gt;Node6</title>
<path fill="none" stroke="#191970" d="M745.6984,-112.3733C720.5872,-103.1822 682.5562,-89.2624 654.7128,-79.0713"/>
<polygon fill="#191970" stroke="#191970" points="655.5522,-75.6516 644.9584,-75.5011 653.1462,-82.2251 655.5522,-75.6516"/>
</g>
<!-- Node28&#45;&gt;Node12 -->
<g id="edge52" class="edge">
<title>Node28&#45;&gt;Node12</title>
<path fill="none" stroke="#191970" d="M772,-112.2455C772,-104.9382 772,-94.6944 772,-85.7046"/>
<polygon fill="#191970" stroke="#191970" points="775.5001,-85.6426 772,-75.6427 768.5001,-85.6427 775.5001,-85.6426"/>
</g>
<!-- Node29&#45;&gt;Node9 -->
<g id="edge60" class="edge">
<title>Node29&#45;&gt;Node9</title>
<path fill="none" stroke="#191970" d="M1190.6097,-229.8193C1186.7801,-206.5052 1174.0107,-146.6161 1140,-112 1082.0552,-53.0238 984.5273,-26.1417 934.1994,-15.679"/>
<polygon fill="#191970" stroke="#191970" points="934.6985,-12.2098 924.2076,-13.69 933.3318,-19.0751 934.6985,-12.2098"/>
</g>
<!-- Node29&#45;&gt;Node12 -->
<g id="edge57" class="edge">
<title>Node29&#45;&gt;Node12</title>
<path fill="none" stroke="#191970" d="M1185.7443,-229.7007C1179.2039,-219.3938 1168.7005,-202.6662 1160,-188 1140.199,-154.622 1149.1567,-133.7283 1117,-112 1068.0056,-78.8944 892.2834,-69.5221 812.2366,-66.9438"/>
<polygon fill="#191970" stroke="#191970" points="812.1547,-63.4398 802.0535,-66.636 811.9432,-70.4366 812.1547,-63.4398"/>
</g>
<!-- Node29&#45;&gt;Node18 -->
<g id="edge58" class="edge">
<title>Node29&#45;&gt;Node18</title>
<path fill="none" stroke="#191970" d="M1121.5641,-229.9981C1105.6058,-227.9365 1088.7282,-225.8278 1073,-224 914.5869,-205.5901 724.3307,-187.4418 652.4352,-180.7247"/>
<polygon fill="#191970" stroke="#191970" points="652.6006,-177.2251 642.319,-179.7822 651.9512,-184.1949 652.6006,-177.2251"/>
</g>
<!-- Node29&#45;&gt;Node21 -->
<g id="edge55" class="edge">
<title>Node29&#45;&gt;Node21</title>
<path fill="none" stroke="#191970" d="M1166.375,-229.8906C1138.5737,-219.4652 1094.0156,-202.7559 1063.0006,-191.1252"/>
<polygon fill="#191970" stroke="#191970" points="1064.0373,-187.776 1053.4451,-187.5419 1061.5794,-194.3303 1064.0373,-187.776"/>
</g>
<!-- Node29&#45;&gt;Node22 -->
<g id="edge56" class="edge">
<title>Node29&#45;&gt;Node22</title>
<path fill="none" stroke="#191970" d="M1197.0949,-229.5827C1204.3857,-215.5881 1218.419,-189.3674 1232,-168 1238.04,-158.4972 1245.2828,-148.2874 1251.4423,-139.9064"/>
<polygon fill="#191970" stroke="#191970" points="1254.4256,-141.7604 1257.5926,-131.65 1248.8119,-137.5787 1254.4256,-141.7604"/>
</g>
<!-- Node30 -->
<g id="node31" class="node">
<title>Node30</title>
<polygon fill="none" stroke="#bfbfbf" points="1240.5,-168.5 1240.5,-187.5 1305.5,-187.5 1305.5,-168.5 1240.5,-168.5"/>
<text text-anchor="middle" x="1273" y="-175.5" font-family="Helvetica,sans-Serif" font-size="10.00" fill="#000000">functional</text>
</g>
<!-- Node29&#45;&gt;Node30 -->
<g id="edge59" class="edge">
<title>Node29&#45;&gt;Node30</title>
<path fill="none" stroke="#191970" d="M1204.6563,-229.8906C1217.3768,-220.2324 1237.2004,-205.1812 1252.2284,-193.771"/>
<polygon fill="#191970" stroke="#191970" points="1254.5846,-196.3766 1260.4326,-187.5419 1250.3516,-190.8015 1254.5846,-196.3766"/>
</g>
</g>
</svg>
