<?xml version="1.0" encoding="UTF-8" standalone="no"?>
<!DOCTYPE svg PUBLIC "-//W3C//DTD SVG 1.1//EN"
 "http://www.w3.org/Graphics/SVG/1.1/DTD/svg11.dtd">
<!-- Generated by graphviz version 2.38.0 (20140413.2041)
 -->
<!-- Title: include/enfield/Transform/PassCache.h Pages: 1 -->
<!--zoomable 106 -->
<svg id="main" version="1.1" xmlns="http://www.w3.org/2000/svg" xmlns:xlink="http://www.w3.org/1999/xlink" xml:space="preserve" onload="init(evt)">
<style type="text/css"><![CDATA[
.edge:hover path { stroke: red; }
.edge:hover polygon { stroke: red; fill: red; }
]]></style>
<script type="text/javascript"><![CDATA[
var edges = document.getElementsByTagName('g');
if (edges && edges.length) {
  for (var i=0;i<edges.length;i++) {
    if (edges[i].id.substr(0,4)=='edge') {
      edges[i].setAttribute('class','edge');
    }
  }
}
]]></script>
        <defs>
                <circle id="rim" cx="0" cy="0" r="7"/>
                <circle id="rim2" cx="0" cy="0" r="3.5"/>
                <g id="zoomPlus">
                        <use xlink:href="#rim" fill="#404040">
                                <set attributeName="fill" to="#808080" begin="zoomplus.mouseover" end="zoomplus.mouseout"/>
                        </use>
                        <path d="M-4,0h8M0,-4v8" fill="none" stroke="white" stroke-width="1.5" pointer-events="none"/>
                </g>
                <g id="zoomMin">
                        <use xlink:href="#rim" fill="#404040">
                                <set attributeName="fill" to="#808080" begin="zoomminus.mouseover" end="zoomminus.mouseout"/>
                        </use>
                        <path d="M-4,0h8" fill="none" stroke="white" stroke-width="1.5" pointer-events="none"/>
                </g>
                <g id="dirArrow">
                        <path fill="none" stroke="white" stroke-width="1.5" d="M0,-3.0v7 M-2.5,-0.5L0,-3.0L2.5,-0.5"/>
                </g>
               <g id="resetDef">
                       <use xlink:href="#rim2" fill="#404040">
                               <set attributeName="fill" to="#808080" begin="reset.mouseover" end="reset.mouseout"/>
                       </use>
               </g>
        </defs>

<script type="text/javascript">
var viewWidth = 2047;
var viewHeight = 106;
var sectionId = 'dynsection-1';
</script>
<script xlink:href="../../svgpan.js"/>
<svg id="graph" class="graph">
<g id="viewport">
<title>include/enfield/Transform/PassCache.h</title>
<!-- Node13 -->
<g id="node1" class="node"><title>Node13</title>
<polygon fill="#bfbfbf" stroke="black" points="947,-67.5 947,-97.5 1073,-97.5 1073,-67.5 947,-67.5"/>
<text text-anchor="start" x="955" y="-85.5" font-family="Helvetica,sans-Serif" font-size="10.00">include/enfield/Transform</text>
<text text-anchor="middle" x="1010" y="-74.5" font-family="Helvetica,sans-Serif" font-size="10.00">/PassCache.h</text>
</g>
<!-- Node14 -->
<g id="node2" class="node"><title>Node14</title>
<g id="a_node2"><a xlink:href="../../d4/d91/DepSolverQAllocator_8cpp.xhtml" target="_top" xlink:title="lib/Transform/Allocators\l/DepSolverQAllocator.cpp">
<polygon fill="none" stroke="black" points="0,-0.5 0,-30.5 130,-30.5 130,-0.5 0,-0.5"/>
<text text-anchor="start" x="8" y="-18.5" font-family="Helvetica,sans-Serif" font-size="10.00">lib/Transform/Allocators</text>
<text text-anchor="middle" x="65" y="-7.5" font-family="Helvetica,sans-Serif" font-size="10.00">/DepSolverQAllocator.cpp</text>
</a>
</g>
</g>
<!-- Node13&#45;&gt;Node14 -->
<g id="edge1" class="edge"><title>Node13&#45;&gt;Node14</title>
<path fill="none" stroke="midnightblue" d="M936.86,-80.6023C786.733,-78.0246 433.165,-68.1738 139,-31 136.143,-30.6389 133.23,-30.2328 130.292,-29.7921"/>
<polygon fill="midnightblue" stroke="midnightblue" points="936.827,-84.1021 946.883,-80.7687 936.943,-77.103 936.827,-84.1021"/>
</g>
<!-- Node15 -->
<g id="node3" class="node"><title>Node15</title>
<g id="a_node3"><a xlink:href="../../d4/dd0/GreedyCktQAllocator_8cpp.xhtml" target="_top" xlink:title="lib/Transform/Allocators\l/GreedyCktQAllocator.cpp">
<polygon fill="none" stroke="black" points="148.5,-0.5 148.5,-30.5 279.5,-30.5 279.5,-0.5 148.5,-0.5"/>
<text text-anchor="start" x="156.5" y="-18.5" font-family="Helvetica,sans-Serif" font-size="10.00">lib/Transform/Allocators</text>
<text text-anchor="middle" x="214" y="-7.5" font-family="Helvetica,sans-Serif" font-size="10.00">/GreedyCktQAllocator.cpp</text>
</a>
</g>
</g>
<!-- Node13&#45;&gt;Node15 -->
<g id="edge2" class="edge"><title>Node13&#45;&gt;Node15</title>
<path fill="none" stroke="midnightblue" d="M936.278,-79.2821C805.451,-74.691 524.302,-61.871 289,-31 285.976,-30.6032 282.889,-30.1607 279.777,-29.6838"/>
<polygon fill="midnightblue" stroke="midnightblue" points="936.457,-82.7903 946.572,-79.6372 936.699,-75.7944 936.457,-82.7903"/>
</g>
<!-- Node16 -->
<g id="node4" class="node"><title>Node16</title>
<g id="a_node4"><a xlink:href="../../dd/d90/IBMQAllocator_8cpp.xhtml" target="_top" xlink:title="lib/Transform/Allocators\l/IBMQAllocator.cpp">
<polygon fill="none" stroke="black" points="298,-0.5 298,-30.5 418,-30.5 418,-0.5 298,-0.5"/>
<text text-anchor="start" x="306" y="-18.5" font-family="Helvetica,sans-Serif" font-size="10.00">lib/Transform/Allocators</text>
<text text-anchor="middle" x="358" y="-7.5" font-family="Helvetica,sans-Serif" font-size="10.00">/IBMQAllocator.cpp</text>
</a>
</g>
</g>
<!-- Node13&#45;&gt;Node16 -->
<g id="edge3" class="edge"><title>Node13&#45;&gt;Node16</title>
<path fill="none" stroke="midnightblue" d="M936.664,-77.9942C825.834,-72.0543 609.249,-57.9421 427,-31 424.094,-30.5704 421.126,-30.0939 418.134,-29.583"/>
<polygon fill="midnightblue" stroke="midnightblue" points="936.56,-81.4934 946.731,-78.5267 936.93,-74.5032 936.56,-81.4934"/>
</g>
<!-- Node17 -->
<g id="node5" class="node"><title>Node17</title>
<g id="a_node5"><a xlink:href="../../d0/d91/QbitAllocator_8cpp.xhtml" target="_top" xlink:title="lib/Transform/Allocators\l/QbitAllocator.cpp">
<polygon fill="none" stroke="black" points="436,-0.5 436,-30.5 556,-30.5 556,-0.5 436,-0.5"/>
<text text-anchor="start" x="444" y="-18.5" font-family="Helvetica,sans-Serif" font-size="10.00">lib/Transform/Allocators</text>
<text text-anchor="middle" x="496" y="-7.5" font-family="Helvetica,sans-Serif" font-size="10.00">/QbitAllocator.cpp</text>
</a>
</g>
</g>
<!-- Node13&#45;&gt;Node17 -->
<g id="edge4" class="edge"><title>Node13&#45;&gt;Node17</title>
<path fill="none" stroke="midnightblue" d="M936.538,-75.2993C848.074,-67.3403 695.135,-52.0098 565,-31 562.1,-30.5318 559.137,-30.0239 556.149,-29.4879"/>
<polygon fill="midnightblue" stroke="midnightblue" points="936.465,-78.8066 946.737,-76.2099 937.088,-71.8344 936.465,-78.8066"/>
</g>
<!-- Node18 -->
<g id="node6" class="node"><title>Node18</title>
<g id="a_node6"><a xlink:href="../../df/dcc/CircuitGraphBuilderPass_8cpp.xhtml" target="_top" xlink:title="lib/Transform/CircuitGraph\lBuilderPass.cpp">
<polygon fill="none" stroke="black" points="574.5,-0.5 574.5,-30.5 705.5,-30.5 705.5,-0.5 574.5,-0.5"/>
<text text-anchor="start" x="582.5" y="-18.5" font-family="Helvetica,sans-Serif" font-size="10.00">lib/Transform/CircuitGraph</text>
<text text-anchor="middle" x="640" y="-7.5" font-family="Helvetica,sans-Serif" font-size="10.00">BuilderPass.cpp</text>
</a>
</g>
</g>
<!-- Node13&#45;&gt;Node18 -->
<g id="edge5" class="edge"><title>Node13&#45;&gt;Node18</title>
<path fill="none" stroke="midnightblue" d="M936.855,-69.5334C876.896,-59.6008 789.861,-44.9014 714,-31 711.296,-30.5045 708.537,-29.9926 705.752,-29.4706"/>
<polygon fill="midnightblue" stroke="midnightblue" points="936.545,-73.0296 946.982,-71.2083 937.687,-66.1234 936.545,-73.0296"/>
</g>
<!-- Node19 -->
<g id="node7" class="node"><title>Node19</title>
<g id="a_node7"><a xlink:href="../../da/dcd/DependencyBuilderPass_8cpp.xhtml" target="_top" xlink:title="lib/Transform/Dependency\lBuilderPass.cpp">
<polygon fill="none" stroke="black" points="723.5,-0.5 723.5,-30.5 854.5,-30.5 854.5,-0.5 723.5,-0.5"/>
<text text-anchor="start" x="731.5" y="-18.5" font-family="Helvetica,sans-Serif" font-size="10.00">lib/Transform/Dependency</text>
<text text-anchor="middle" x="789" y="-7.5" font-family="Helvetica,sans-Serif" font-size="10.00">BuilderPass.cpp</text>
</a>
</g>
</g>
<!-- Node13&#45;&gt;Node19 -->
<g id="edge6" class="edge"><title>Node13&#45;&gt;Node19</title>
<path fill="none" stroke="midnightblue" d="M952.471,-64.5797C916.576,-54.0225 870.913,-40.5921 836.977,-30.6109"/>
<polygon fill="midnightblue" stroke="midnightblue" points="951.737,-68.012 962.318,-67.476 953.712,-61.2965 951.737,-68.012"/>
</g>
<!-- Node20 -->
<g id="node8" class="node"><title>Node20</title>
<g id="a_node8"><a xlink:href="../../dd/dcb/DependencyGraphBuilderPass_8cpp.xhtml" target="_top" xlink:title="lib/Transform/Dependency\lGraphBuilderPass.cpp">
<polygon fill="none" stroke="black" points="872.5,-0.5 872.5,-30.5 1003.5,-30.5 1003.5,-0.5 872.5,-0.5"/>
<text text-anchor="start" x="880.5" y="-18.5" font-family="Helvetica,sans-Serif" font-size="10.00">lib/Transform/Dependency</text>
<text text-anchor="middle" x="938" y="-7.5" font-family="Helvetica,sans-Serif" font-size="10.00">GraphBuilderPass.cpp</text>
</a>
</g>
</g>
<!-- Node13&#45;&gt;Node20 -->
<g id="edge7" class="edge"><title>Node13&#45;&gt;Node20</title>
<path fill="none" stroke="midnightblue" d="M986.847,-60.5978C975.975,-50.7831 963.304,-39.3442 953.592,-30.5765"/>
<polygon fill="midnightblue" stroke="midnightblue" points="984.609,-63.2929 994.377,-67.396 989.3,-58.097 984.609,-63.2929"/>
</g>
<!-- Node21 -->
<g id="node9" class="node"><title>Node21</title>
<g id="a_node9"><a xlink:href="../../df/dd9/Driver_8cpp.xhtml" target="_top" xlink:title="lib/Transform/Driver.cpp">
<polygon fill="none" stroke="black" points="1022,-6 1022,-25 1144,-25 1144,-6 1022,-6"/>
<text text-anchor="middle" x="1083" y="-13" font-family="Helvetica,sans-Serif" font-size="10.00">lib/Transform/Driver.cpp</text>
</a>
</g>
</g>
<!-- Node13&#45;&gt;Node21 -->
<g id="edge8" class="edge"><title>Node13&#45;&gt;Node21</title>
<path fill="none" stroke="midnightblue" d="M1033.39,-60.6722C1046.87,-48.6707 1063.1,-34.2203 1073.24,-25.1945"/>
<polygon fill="midnightblue" stroke="midnightblue" points="1030.98,-58.132 1025.84,-67.396 1035.64,-63.3599 1030.98,-58.132"/>
</g>
<!-- Node22 -->
<g id="node10" class="node"><title>Node22</title>
<g id="a_node10"><a xlink:href="../../d7/d43/LayerBasedOrderingWrapperPass_8cpp.xhtml" target="_top" xlink:title="lib/Transform/LayerBased\lOrderingWrapperPass.cpp">
<polygon fill="none" stroke="black" points="1162.5,-0.5 1162.5,-30.5 1293.5,-30.5 1293.5,-0.5 1162.5,-0.5"/>
<text text-anchor="start" x="1170.5" y="-18.5" font-family="Helvetica,sans-Serif" font-size="10.00">lib/Transform/LayerBased</text>
<text text-anchor="middle" x="1228" y="-7.5" font-family="Helvetica,sans-Serif" font-size="10.00">OrderingWrapperPass.cpp</text>
</a>
</g>
</g>
<!-- Node13&#45;&gt;Node22 -->
<g id="edge9" class="edge"><title>Node13&#45;&gt;Node22</title>
<path fill="none" stroke="midnightblue" d="M1066.75,-64.5797C1102.16,-54.0225 1147.2,-40.5921 1180.67,-30.6109"/>
<polygon fill="midnightblue" stroke="midnightblue" points="1065.62,-61.2645 1057.03,-67.476 1067.62,-67.9727 1065.62,-61.2645"/>
</g>
<!-- Node23 -->
<g id="node11" class="node"><title>Node23</title>
<g id="a_node11"><a xlink:href="../../d8/d9d/LayersBuilderPass_8cpp.xhtml" target="_top" xlink:title="lib/Transform/LayersBuilder\lPass.cpp">
<polygon fill="none" stroke="black" points="1312,-0.5 1312,-30.5 1448,-30.5 1448,-0.5 1312,-0.5"/>
<text text-anchor="start" x="1320" y="-18.5" font-family="Helvetica,sans-Serif" font-size="10.00">lib/Transform/LayersBuilder</text>
<text text-anchor="middle" x="1380" y="-7.5" font-family="Helvetica,sans-Serif" font-size="10.00">Pass.cpp</text>
</a>
</g>
</g>
<!-- Node13&#45;&gt;Node23 -->
<g id="edge10" class="edge"><title>Node13&#45;&gt;Node23</title>
<path fill="none" stroke="midnightblue" d="M1083.23,-69.2018C1142.53,-59.1642 1228.21,-44.4867 1303,-31 1305.95,-30.4689 1308.95,-29.922 1311.99,-29.366"/>
<polygon fill="midnightblue" stroke="midnightblue" points="1082.48,-65.7778 1073.21,-70.8961 1083.65,-72.6798 1082.48,-65.7778"/>
</g>
<!-- Node24 -->
<g id="node12" class="node"><title>Node24</title>
<g id="a_node12"><a xlink:href="../../d6/d63/PassCache_8cpp.xhtml" target="_top" xlink:title="lib/Transform/PassCache.cpp">
<polygon fill="none" stroke="black" points="1466,-6 1466,-25 1612,-25 1612,-6 1466,-6"/>
<text text-anchor="middle" x="1539" y="-13" font-family="Helvetica,sans-Serif" font-size="10.00">lib/Transform/PassCache.cpp</text>
</a>
</g>
</g>
<!-- Node13&#45;&gt;Node24 -->
<g id="edge11" class="edge"><title>Node13&#45;&gt;Node24</title>
<path fill="none" stroke="midnightblue" d="M1083.04,-74.6638C1171.69,-66.0396 1325.64,-50.0151 1457,-31 1468.88,-29.2809 1481.67,-27.1524 1493.54,-25.0605"/>
<polygon fill="midnightblue" stroke="midnightblue" points="1082.7,-71.1801 1073.08,-75.6277 1083.37,-78.1475 1082.7,-71.1801"/>
</g>
<!-- Node25 -->
<g id="node13" class="node"><title>Node25</title>
<g id="a_node13"><a xlink:href="../../d9/d5d/QModule_8cpp.xhtml" target="_top" xlink:title="lib/Transform/QModule.cpp">
<polygon fill="none" stroke="black" points="1630,-6 1630,-25 1764,-25 1764,-6 1630,-6"/>
<text text-anchor="middle" x="1697" y="-13" font-family="Helvetica,sans-Serif" font-size="10.00">lib/Transform/QModule.cpp</text>
</a>
</g>
</g>
<!-- Node13&#45;&gt;Node25 -->
<g id="edge12" class="edge"><title>Node13&#45;&gt;Node25</title>
<path fill="none" stroke="midnightblue" d="M1083.22,-77.9633C1198.16,-71.846 1427.77,-57.3427 1621,-31 1632.58,-29.4214 1645.07,-27.2411 1656.51,-25.0504"/>
<polygon fill="midnightblue" stroke="midnightblue" points="1082.93,-74.4735 1073.13,-78.4944 1083.3,-81.4638 1082.93,-74.4735"/>
</g>
<!-- Node26 -->
<g id="node14" class="node"><title>Node26</title>
<g id="a_node14"><a xlink:href="../../dd/d49/SemanticVerifierPass_8cpp.xhtml" target="_top" xlink:title="lib/Transform/SemanticVerifier\lPass.cpp">
<polygon fill="none" stroke="black" points="1782.5,-0.5 1782.5,-30.5 1931.5,-30.5 1931.5,-0.5 1782.5,-0.5"/>
<text text-anchor="start" x="1790.5" y="-18.5" font-family="Helvetica,sans-Serif" font-size="10.00">lib/Transform/SemanticVerifier</text>
<text text-anchor="middle" x="1857" y="-7.5" font-family="Helvetica,sans-Serif" font-size="10.00">Pass.cpp</text>
</a>
</g>
</g>
<!-- Node13&#45;&gt;Node26 -->
<g id="edge13" class="edge"><title>Node13&#45;&gt;Node26</title>
<path fill="none" stroke="midnightblue" d="M1083.32,-79.2049C1219.57,-74.3726 1520.86,-61.0218 1773,-31 1776.09,-30.6326 1779.23,-30.2278 1782.4,-29.7944"/>
<polygon fill="midnightblue" stroke="midnightblue" points="1082.88,-75.7179 1073.01,-79.5653 1083.13,-82.7136 1082.88,-75.7179"/>
</g>
<!-- Node27 -->
<g id="node15" class="node"><title>Node27</title>
<g id="a_node15"><a xlink:href="../../de/d8e/Enfield_8cpp.xhtml" target="_top" xlink:title="tools/Enfield.cpp">
<polygon fill="none" stroke="black" points="1949.5,-6 1949.5,-25 2038.5,-25 2038.5,-6 1949.5,-6"/>
<text text-anchor="middle" x="1994" y="-13" font-family="Helvetica,sans-Serif" font-size="10.00">tools/Enfield.cpp</text>
</a>
</g>
</g>
<!-- Node13&#45;&gt;Node27 -->
<g id="edge14" class="edge"><title>Node13&#45;&gt;Node27</title>
<path fill="none" stroke="midnightblue" d="M1083.27,-79.5409C1272.86,-74.1486 1776.26,-57.6911 1941,-31 1949.57,-29.6117 1958.74,-27.3781 1967.01,-25.0758"/>
<polygon fill="midnightblue" stroke="midnightblue" points="1083.02,-76.0464 1073.13,-79.8273 1083.22,-83.0436 1083.02,-76.0464"/>
</g>
</g>
</svg>
        <g id="navigator" transform="translate(0 0)" fill="#404254">
                <rect fill="#f2f5e9" fill-opacity="0.5" stroke="#606060" stroke-width=".5" x="0" y="0" width="60" height="60"/>
                <use id="zoomplus" xlink:href="#zoomPlus" x="17" y="9" onmousedown="handleZoom(evt,'in')"/>
                <use id="zoomminus" xlink:href="#zoomMin" x="42" y="9" onmousedown="handleZoom(evt,'out')"/>
                <use id="reset" xlink:href="#resetDef" x="30" y="36" onmousedown="handleReset()"/>
                <g id="arrowUp" xlink:href="#dirArrow" transform="translate(30 24)" onmousedown="handlePan(0,-1)">
                  <use xlink:href="#rim" fill="#404040">
                        <set attributeName="fill" to="#808080" begin="arrowUp.mouseover" end="arrowUp.mouseout"/>
                  </use>
                  <path fill="none" stroke="white" stroke-width="1.5" d="M0,-3.0v7 M-2.5,-0.5L0,-3.0L2.5,-0.5"/>
                </g>
                <g id="arrowRight" xlink:href="#dirArrow" transform="rotate(90) translate(36 -43)" onmousedown="handlePan(1,0)">
                  <use xlink:href="#rim" fill="#404040">
                        <set attributeName="fill" to="#808080" begin="arrowRight.mouseover" end="arrowRight.mouseout"/>
                  </use>
                  <path fill="none" stroke="white" stroke-width="1.5" d="M0,-3.0v7 M-2.5,-0.5L0,-3.0L2.5,-0.5"/>
                </g>
                <g id="arrowDown" xlink:href="#dirArrow" transform="rotate(180) translate(-30 -48)" onmousedown="handlePan(0,1)">
                  <use xlink:href="#rim" fill="#404040">
                        <set attributeName="fill" to="#808080" begin="arrowDown.mouseover" end="arrowDown.mouseout"/>
                  </use>
                  <path fill="none" stroke="white" stroke-width="1.5" d="M0,-3.0v7 M-2.5,-0.5L0,-3.0L2.5,-0.5"/>
                </g>
                <g id="arrowLeft" xlink:href="#dirArrow" transform="rotate(270) translate(-36 17)" onmousedown="handlePan(-1,0)">
                  <use xlink:href="#rim" fill="#404040">
                        <set attributeName="fill" to="#808080" begin="arrowLeft.mouseover" end="arrowLeft.mouseout"/>
                  </use>
                  <path fill="none" stroke="white" stroke-width="1.5" d="M0,-3.0v7 M-2.5,-0.5L0,-3.0L2.5,-0.5"/>
                </g>
        </g>
        <svg viewBox="0 0 15 15" width="100%" height="30px" preserveAspectRatio="xMaxYMin meet">
         <g id="arrow_out" transform="scale(0.3 0.3)">
          <a xlink:href="PassCache_8h__dep__incl_org.svg" target="_base">
           <rect id="button" ry="5" rx="5" y="6" x="6" height="38" width="38"
                fill="#f2f5e9" fill-opacity="0.5" stroke="#606060" stroke-width="1.0"/>
           <path id="arrow"
             d="M 11.500037,31.436501 C 11.940474,20.09759 22.043105,11.32322 32.158766,21.979434 L 37.068811,17.246167 C 37.068811,17.246167 37.088388,32 37.088388,32 L 22.160133,31.978069 C 22.160133,31.978069 26.997745,27.140456 26.997745,27.140456 C 18.528582,18.264221 13.291696,25.230495 11.500037,31.436501 z"
             style="fill:#404040;"/>
          </a>
         </g>
        </svg>
</svg>
