<?xml version="1.0" encoding="UTF-8" standalone="no"?>
<!DOCTYPE svg PUBLIC "-//W3C//DTD SVG 1.1//EN"
 "http://www.w3.org/Graphics/SVG/1.1/DTD/svg11.dtd">
<!-- Generated by graphviz version 2.38.0 (20140413.2041)
 -->
<!-- Title: efd::NDRegDecl::Create Pages: 1 -->
<svg width="772pt" height="66pt"
 viewBox="0.00 0.00 772.00 66.00" xmlns="http://www.w3.org/2000/svg" xmlns:xlink="http://www.w3.org/1999/xlink">
<g id="graph0" class="graph" transform="scale(1 1) rotate(0) translate(4 62)">
<title>efd::NDRegDecl::Create</title>
<!-- Node22 -->
<g id="node1" class="node"><title>Node22</title>
<polygon fill="#bfbfbf" stroke="black" points="0,-19.5 0,-38.5 125,-38.5 125,-19.5 0,-19.5"/>
<text text-anchor="middle" x="62.5" y="-26.5" font-family="Helvetica,sans-Serif" font-size="10.00">efd::NDRegDecl::Create</text>
</g>
<!-- Node23 -->
<g id="node2" class="node"><title>Node23</title>
<g id="a_node2"><a xlink:href="../../da/d97/classefd_1_1NDRegDecl.xhtml#a0d7664d9c483fdeab6c982771eb5eb5e" target="_top" xlink:title="efd::NDRegDecl::NDRegDecl">
<polygon fill="none" stroke="black" points="161,-19.5 161,-38.5 310,-38.5 310,-19.5 161,-19.5"/>
<text text-anchor="middle" x="235.5" y="-26.5" font-family="Helvetica,sans-Serif" font-size="10.00">efd::NDRegDecl::NDRegDecl</text>
</a>
</g>
</g>
<!-- Node22&#45;&gt;Node23 -->
<g id="edge1" class="edge"><title>Node22&#45;&gt;Node23</title>
<path fill="none" stroke="midnightblue" d="M125.235,-29C133.555,-29 142.201,-29 150.822,-29"/>
<polygon fill="midnightblue" stroke="midnightblue" points="150.911,-32.5001 160.911,-29 150.911,-25.5001 150.911,-32.5001"/>
</g>
<!-- Node24 -->
<g id="node3" class="node"><title>Node24</title>
<g id="a_node3"><a xlink:href="../../d6/d6a/classefd_1_1Node.xhtml#a8ac8c3206c6f6817a8c8e515ac830f61" target="_top" xlink:title="Adds a child to this node. It should be used only for construction of each derived class...">
<polygon fill="none" stroke="black" points="495,-38.5 495,-57.5 621,-57.5 621,-38.5 495,-38.5"/>
<text text-anchor="middle" x="558" y="-45.5" font-family="Helvetica,sans-Serif" font-size="10.00">efd::Node::innerAddChild</text>
</a>
</g>
</g>
<!-- Node23&#45;&gt;Node24 -->
<g id="edge2" class="edge"><title>Node23&#45;&gt;Node24</title>
<path fill="none" stroke="midnightblue" d="M310.029,-33.359C362.44,-36.466 432.561,-40.623 484.694,-43.7135"/>
<polygon fill="midnightblue" stroke="midnightblue" points="484.68,-47.2188 494.87,-44.3168 485.094,-40.231 484.68,-47.2188"/>
</g>
<!-- Node26 -->
<g id="node5" class="node"><title>Node26</title>
<g id="a_node5"><a xlink:href="../../d0/d9e/classefd_1_1NDDecl.xhtml#a1d2cdd96c460f6968ecd4ae2b4a5181c" target="_top" xlink:title="efd::NDDecl::NDDecl">
<polygon fill="none" stroke="black" points="346,-0.5 346,-19.5 459,-19.5 459,-0.5 346,-0.5"/>
<text text-anchor="middle" x="402.5" y="-7.5" font-family="Helvetica,sans-Serif" font-size="10.00">efd::NDDecl::NDDecl</text>
</a>
</g>
</g>
<!-- Node23&#45;&gt;Node26 -->
<g id="edge4" class="edge"><title>Node23&#45;&gt;Node26</title>
<path fill="none" stroke="midnightblue" d="M310.313,-20.5003C318.731,-19.5309 327.272,-18.5475 335.578,-17.591"/>
<polygon fill="midnightblue" stroke="midnightblue" points="336.036,-21.0615 345.57,-16.4404 335.235,-14.1074 336.036,-21.0615"/>
</g>
<!-- Node25 -->
<g id="node4" class="node"><title>Node25</title>
<g id="a_node4"><a xlink:href="../../d6/d6a/classefd_1_1Node.xhtml#a48e9d49d994b9023b8400316e2782e2b" target="_top" xlink:title="Sets the parent node of the current node. ">
<polygon fill="none" stroke="black" points="657,-38.5 657,-57.5 764,-57.5 764,-38.5 657,-38.5"/>
<text text-anchor="middle" x="710.5" y="-45.5" font-family="Helvetica,sans-Serif" font-size="10.00">efd::Node::setParent</text>
</a>
</g>
</g>
<!-- Node24&#45;&gt;Node25 -->
<g id="edge3" class="edge"><title>Node24&#45;&gt;Node25</title>
<path fill="none" stroke="midnightblue" d="M621.083,-48C629.488,-48 638.118,-48 646.538,-48"/>
<polygon fill="midnightblue" stroke="midnightblue" points="646.674,-51.5001 656.674,-48 646.674,-44.5001 646.674,-51.5001"/>
</g>
<!-- Node26&#45;&gt;Node24 -->
<g id="edge5" class="edge"><title>Node26&#45;&gt;Node24</title>
<path fill="none" stroke="midnightblue" d="M442.235,-19.589C462.399,-24.5809 487.248,-30.7324 508.661,-36.0334"/>
<polygon fill="midnightblue" stroke="midnightblue" points="507.996,-39.4743 518.544,-38.4799 509.678,-32.6794 507.996,-39.4743"/>
</g>
<!-- Node27 -->
<g id="node6" class="node"><title>Node27</title>
<g id="a_node6"><a xlink:href="../../d6/d6a/classefd_1_1Node.xhtml#a09ac8cdf7898a3d17293d92ae956eece" target="_top" xlink:title="Constructs the node, initially empty (with no information). ">
<polygon fill="none" stroke="black" points="513.5,-0.5 513.5,-19.5 602.5,-19.5 602.5,-0.5 513.5,-0.5"/>
<text text-anchor="middle" x="558" y="-7.5" font-family="Helvetica,sans-Serif" font-size="10.00">efd::Node::Node</text>
</a>
</g>
</g>
<!-- Node26&#45;&gt;Node27 -->
<g id="edge6" class="edge"><title>Node26&#45;&gt;Node27</title>
<path fill="none" stroke="midnightblue" d="M459.351,-10C473.699,-10 489.101,-10 503.336,-10"/>
<polygon fill="midnightblue" stroke="midnightblue" points="503.462,-13.5001 513.462,-10 503.462,-6.5001 503.462,-13.5001"/>
</g>
</g>
</svg>
