<?xml version="1.0" encoding="UTF-8" standalone="no"?>
<!DOCTYPE svg PUBLIC "-//W3C//DTD SVG 1.1//EN"
 "http://www.w3.org/Graphics/SVG/1.1/DTD/svg11.dtd">
<!-- Generated by graphviz version 2.38.0 (20140413.2041)
 -->
<!-- Title: efd::ReverseEdgesPass::run Pages: 1 -->
<svg width="652pt" height="204pt"
 viewBox="0.00 0.00 652.00 203.50" xmlns="http://www.w3.org/2000/svg" xmlns:xlink="http://www.w3.org/1999/xlink">
<g id="graph0" class="graph" transform="scale(1 1) rotate(0) translate(4 199.5)">
<title>efd::ReverseEdgesPass::run</title>
<!-- Node1 -->
<g id="node1" class="node"><title>Node1</title>
<polygon fill="#bfbfbf" stroke="black" points="0,-94 0,-113 143,-113 143,-94 0,-94"/>
<text text-anchor="middle" x="71.5" y="-101" font-family="Helvetica,sans-Serif" font-size="10.00">efd::ReverseEdgesPass::run</text>
</g>
<!-- Node2 -->
<g id="node2" class="node"><title>Node2</title>
<g id="a_node2"><a xlink:href="../../d6/d6a/classefd_1_1Node.xhtml#ab813c60af1717cf50e92a28b274c24ef" target="_top" xlink:title="Used by visitor classes. ">
<polygon fill="none" stroke="black" points="213.5,-176 213.5,-195 302.5,-195 302.5,-176 213.5,-176"/>
<text text-anchor="middle" x="258" y="-183" font-family="Helvetica,sans-Serif" font-size="10.00">efd::Node::apply</text>
</a>
</g>
</g>
<!-- Node1&#45;&gt;Node2 -->
<g id="edge1" class="edge"><title>Node1&#45;&gt;Node2</title>
<path fill="none" stroke="midnightblue" d="M85.6163,-113.006C105.083,-126.698 143.185,-151.922 179,-166.5 186.794,-169.672 195.25,-172.405 203.622,-174.729"/>
<polygon fill="midnightblue" stroke="midnightblue" points="202.808,-178.134 213.368,-177.272 204.575,-171.361 202.808,-178.134"/>
</g>
<!-- Node3 -->
<g id="node3" class="node"><title>Node3</title>
<g id="a_node3"><a xlink:href="../../dd/d52/classefd_1_1QModule.xhtml#abaf0b3dd099e4b098b89772b6a134d07" target="_top" xlink:title="Replaces the stmt by the vector stmts. ">
<polygon fill="none" stroke="black" points="179,-138 179,-157 337,-157 337,-138 179,-138"/>
<text text-anchor="middle" x="258" y="-145" font-family="Helvetica,sans-Serif" font-size="10.00">efd::QModule::replaceStatement</text>
</a>
</g>
</g>
<!-- Node1&#45;&gt;Node3 -->
<g id="edge2" class="edge"><title>Node1&#45;&gt;Node3</title>
<path fill="none" stroke="midnightblue" d="M112.534,-113.047C140.338,-119.678 177.577,-128.559 207.283,-135.643"/>
<polygon fill="midnightblue" stroke="midnightblue" points="206.505,-139.056 217.044,-137.971 208.129,-132.247 206.505,-139.056"/>
</g>
<!-- Node9 -->
<g id="node9" class="node"><title>Node9</title>
<g id="a_node9"><a xlink:href="../../d7/d28/classefd_1_1ReverseEdgesVisitor.xhtml#a1f1cde6d19bbfc72e9469ba00609704e" target="_top" xlink:title="efd::ReverseEdgesVisitor\l::ReverseEdgesVisitor">
<polygon fill="none" stroke="black" points="194,-88.5 194,-118.5 322,-118.5 322,-88.5 194,-88.5"/>
<text text-anchor="start" x="202" y="-106.5" font-family="Helvetica,sans-Serif" font-size="10.00">efd::ReverseEdgesVisitor</text>
<text text-anchor="middle" x="258" y="-95.5" font-family="Helvetica,sans-Serif" font-size="10.00">::ReverseEdgesVisitor</text>
</a>
</g>
</g>
<!-- Node1&#45;&gt;Node9 -->
<g id="edge8" class="edge"><title>Node1&#45;&gt;Node9</title>
<path fill="none" stroke="midnightblue" d="M143.041,-103.5C156.336,-103.5 170.268,-103.5 183.647,-103.5"/>
<polygon fill="midnightblue" stroke="midnightblue" points="183.75,-107 193.75,-103.5 183.75,-100 183.75,-107"/>
</g>
<!-- Node10 -->
<g id="node10" class="node"><title>Node10</title>
<g id="a_node10"><a xlink:href="../../dd/d52/classefd_1_1QModule.xhtml#ac00e1eb93f94c00db1e6a661d8f95d9d" target="_top" xlink:title="Iterator to the beginning of the statement node vector. ">
<polygon fill="none" stroke="black" points="207.5,-0.5 207.5,-30.5 308.5,-30.5 308.5,-0.5 207.5,-0.5"/>
<text text-anchor="start" x="215.5" y="-18.5" font-family="Helvetica,sans-Serif" font-size="10.00">efd::QModule::stmt</text>
<text text-anchor="middle" x="258" y="-7.5" font-family="Helvetica,sans-Serif" font-size="10.00">_begin</text>
</a>
</g>
</g>
<!-- Node1&#45;&gt;Node10 -->
<g id="edge9" class="edge"><title>Node1&#45;&gt;Node10</title>
<path fill="none" stroke="midnightblue" d="M86.4212,-93.8819C106.256,-80.5057 144.119,-56.1681 179,-40.5 184.874,-37.8616 191.11,-35.3744 197.397,-33.0675"/>
<polygon fill="midnightblue" stroke="midnightblue" points="199,-36.2139 207.272,-29.5948 196.677,-29.6103 199,-36.2139"/>
</g>
<!-- Node12 -->
<g id="node12" class="node"><title>Node12</title>
<g id="a_node12"><a xlink:href="../../dd/d52/classefd_1_1QModule.xhtml#a23d45e3b6c65d5fa14b199da8b0617c7" target="_top" xlink:title="Iterator to the end of the statement node vector. ">
<polygon fill="none" stroke="black" points="197,-50 197,-69 319,-69 319,-50 197,-50"/>
<text text-anchor="middle" x="258" y="-57" font-family="Helvetica,sans-Serif" font-size="10.00">efd::QModule::stmt_end</text>
</a>
</g>
</g>
<!-- Node1&#45;&gt;Node12 -->
<g id="edge11" class="edge"><title>Node1&#45;&gt;Node12</title>
<path fill="none" stroke="midnightblue" d="M112.534,-93.9527C140.338,-87.3219 177.577,-78.4409 207.283,-71.3565"/>
<polygon fill="midnightblue" stroke="midnightblue" points="208.129,-74.7531 217.044,-69.0287 206.505,-67.944 208.129,-74.7531"/>
</g>
<!-- Node4 -->
<g id="node4" class="node"><title>Node4</title>
<g id="a_node4"><a xlink:href="../../da/ddd/classefd_1_1NDList.xhtml#aa407fd205c6c9841cf866fa023337ece" target="_top" xlink:title="Inserts children in the iterator it. The iterator goes to the first new inserted element. ">
<polygon fill="none" stroke="black" points="374.5,-176 374.5,-195 499.5,-195 499.5,-176 374.5,-176"/>
<text text-anchor="middle" x="437" y="-183" font-family="Helvetica,sans-Serif" font-size="10.00">efd::NDList::addChildren</text>
</a>
</g>
</g>
<!-- Node3&#45;&gt;Node4 -->
<g id="edge3" class="edge"><title>Node3&#45;&gt;Node4</title>
<path fill="none" stroke="midnightblue" d="M303.665,-157.089C327.337,-162.171 356.608,-168.455 381.597,-173.82"/>
<polygon fill="midnightblue" stroke="midnightblue" points="381.145,-177.303 391.657,-175.98 382.614,-170.459 381.145,-177.303"/>
</g>
<!-- Node6 -->
<g id="node6" class="node"><title>Node6</title>
<g id="a_node6"><a xlink:href="../../d6/d6a/classefd_1_1Node.xhtml#a335606078a1d727de214982453c9dd1b" target="_top" xlink:title="Returns a iterator to the end of the vector. ">
<polygon fill="none" stroke="black" points="396.5,-56 396.5,-75 477.5,-75 477.5,-56 396.5,-56"/>
<text text-anchor="middle" x="437" y="-63" font-family="Helvetica,sans-Serif" font-size="10.00">efd::Node::end</text>
</a>
</g>
</g>
<!-- Node3&#45;&gt;Node6 -->
<g id="edge5" class="edge"><title>Node3&#45;&gt;Node6</title>
<path fill="none" stroke="midnightblue" d="M312.57,-137.936C321.058,-135.258 329.5,-131.845 337,-127.5 356.853,-115.999 353.915,-103.235 373,-90.5 379.676,-86.0453 387.266,-82.1898 394.81,-78.9304"/>
<polygon fill="midnightblue" stroke="midnightblue" points="396.3,-82.1034 404.268,-75.1203 393.685,-75.6104 396.3,-82.1034"/>
</g>
<!-- Node7 -->
<g id="node7" class="node"><title>Node7</title>
<g id="a_node7"><a xlink:href="../../d6/d6a/classefd_1_1Node.xhtml#ae80bbf9487f0e43317c29c63a414ff34" target="_top" xlink:title="Returns a iterator pointing to the given child. ">
<polygon fill="none" stroke="black" points="385,-138 385,-157 489,-157 489,-138 385,-138"/>
<text text-anchor="middle" x="437" y="-145" font-family="Helvetica,sans-Serif" font-size="10.00">efd::Node::findChild</text>
</a>
</g>
</g>
<!-- Node3&#45;&gt;Node7 -->
<g id="edge6" class="edge"><title>Node3&#45;&gt;Node7</title>
<path fill="none" stroke="midnightblue" d="M337.15,-147.5C349.811,-147.5 362.759,-147.5 374.938,-147.5"/>
<polygon fill="midnightblue" stroke="midnightblue" points="374.964,-151 384.964,-147.5 374.964,-144 374.964,-151"/>
</g>
<!-- Node8 -->
<g id="node8" class="node"><title>Node8</title>
<g id="a_node8"><a xlink:href="../../da/ddd/classefd_1_1NDList.xhtml#ae7c4d5c8dcb0a7439b62e3f662cbb85f" target="_top" xlink:title="Removes the child in the iterator it. The iterator moves to the next element. ">
<polygon fill="none" stroke="black" points="373,-100 373,-119 501,-119 501,-100 373,-100"/>
<text text-anchor="middle" x="437" y="-107" font-family="Helvetica,sans-Serif" font-size="10.00">efd::NDList::removeChild</text>
</a>
</g>
</g>
<!-- Node3&#45;&gt;Node8 -->
<g id="edge7" class="edge"><title>Node3&#45;&gt;Node8</title>
<path fill="none" stroke="midnightblue" d="M303.665,-137.911C327.337,-132.829 356.608,-126.545 381.597,-121.18"/>
<polygon fill="midnightblue" stroke="midnightblue" points="382.614,-124.541 391.657,-119.02 381.145,-117.697 382.614,-124.541"/>
</g>
<!-- Node5 -->
<g id="node5" class="node"><title>Node5</title>
<g id="a_node5"><a xlink:href="../../d6/d6a/classefd_1_1Node.xhtml#a48e9d49d994b9023b8400316e2782e2b" target="_top" xlink:title="Sets the parent node of the current node. ">
<polygon fill="none" stroke="black" points="537,-176 537,-195 644,-195 644,-176 537,-176"/>
<text text-anchor="middle" x="590.5" y="-183" font-family="Helvetica,sans-Serif" font-size="10.00">efd::Node::setParent</text>
</a>
</g>
</g>
<!-- Node4&#45;&gt;Node5 -->
<g id="edge4" class="edge"><title>Node4&#45;&gt;Node5</title>
<path fill="none" stroke="midnightblue" d="M499.621,-185.5C508.453,-185.5 517.551,-185.5 526.411,-185.5"/>
<polygon fill="midnightblue" stroke="midnightblue" points="526.672,-189 536.672,-185.5 526.672,-182 526.672,-189"/>
</g>
<!-- Node11 -->
<g id="node11" class="node"><title>Node11</title>
<g id="a_node11"><a xlink:href="../../d6/d6a/classefd_1_1Node.xhtml#ae890d36b0dcb332d82616b3180da1886" target="_top" xlink:title="Returns a iterator to the beginning of the vector. ">
<polygon fill="none" stroke="black" points="392.5,-6 392.5,-25 481.5,-25 481.5,-6 392.5,-6"/>
<text text-anchor="middle" x="437" y="-13" font-family="Helvetica,sans-Serif" font-size="10.00">efd::Node::begin</text>
</a>
</g>
</g>
<!-- Node10&#45;&gt;Node11 -->
<g id="edge10" class="edge"><title>Node10&#45;&gt;Node11</title>
<path fill="none" stroke="midnightblue" d="M308.775,-15.5C331.666,-15.5 358.863,-15.5 382.223,-15.5"/>
<polygon fill="midnightblue" stroke="midnightblue" points="382.316,-19.0001 392.316,-15.5 382.315,-12.0001 382.316,-19.0001"/>
</g>
<!-- Node12&#45;&gt;Node6 -->
<g id="edge12" class="edge"><title>Node12&#45;&gt;Node6</title>
<path fill="none" stroke="midnightblue" d="M319.418,-61.5481C341.179,-62.2857 365.467,-63.1091 386.218,-63.8125"/>
<polygon fill="midnightblue" stroke="midnightblue" points="386.291,-67.3169 396.403,-64.1577 386.528,-60.3209 386.291,-67.3169"/>
</g>
</g>
</svg>
