<?xml version="1.0" encoding="UTF-8" standalone="no"?>
<!DOCTYPE svg PUBLIC "-//W3C//DTD SVG 1.1//EN"
 "http://www.w3.org/Graphics/SVG/1.1/DTD/svg11.dtd">
<!-- Generated by graphviz version 2.38.0 (20140413.2041)
 -->
<!-- Title: include/enfield/Transform/ArchVerifierPass.h Pages: 1 -->
<svg width="890pt" height="263pt"
 viewBox="0.00 0.00 890.00 263.00" xmlns="http://www.w3.org/2000/svg" xmlns:xlink="http://www.w3.org/1999/xlink">
<g id="graph0" class="graph" transform="scale(1 1) rotate(0) translate(4 259)">
<title>include/enfield/Transform/ArchVerifierPass.h</title>
<!-- Node0 -->
<g id="node1" class="node"><title>Node0</title>
<polygon fill="#bfbfbf" stroke="black" points="382,-224.5 382,-254.5 508,-254.5 508,-224.5 382,-224.5"/>
<text text-anchor="start" x="390" y="-242.5" font-family="Helvetica,sans-Serif" font-size="10.00">include/enfield/Transform</text>
<text text-anchor="middle" x="445" y="-231.5" font-family="Helvetica,sans-Serif" font-size="10.00">/ArchVerifierPass.h</text>
</g>
<!-- Node1 -->
<g id="node2" class="node"><title>Node1</title>
<g id="a_node2"><a xlink:href="../../df/d29/Pass_8h.xhtml" target="_top" xlink:title="enfield/Transform/Pass.h">
<polygon fill="none" stroke="black" points="162,-112.5 162,-131.5 288,-131.5 288,-112.5 162,-112.5"/>
<text text-anchor="middle" x="225" y="-119.5" font-family="Helvetica,sans-Serif" font-size="10.00">enfield/Transform/Pass.h</text>
</a>
</g>
</g>
<!-- Node0&#45;&gt;Node1 -->
<g id="edge1" class="edge"><title>Node0&#45;&gt;Node1</title>
<path fill="none" stroke="midnightblue" d="M381.953,-225.745C351.992,-217.855 316.573,-205.76 288,-188 267.662,-175.359 249.215,-154.738 237.614,-140.115"/>
<polygon fill="midnightblue" stroke="midnightblue" points="240.183,-137.714 231.319,-131.91 234.629,-141.975 240.183,-137.714"/>
</g>
<!-- Node3 -->
<g id="node4" class="node"><title>Node3</title>
<g id="a_node4"><a xlink:href="../../d4/d73/QModule_8h.xhtml" target="_top" xlink:title="enfield/Transform/QModule.h">
<polygon fill="none" stroke="black" points="297.5,-168.5 297.5,-187.5 440.5,-187.5 440.5,-168.5 297.5,-168.5"/>
<text text-anchor="middle" x="369" y="-175.5" font-family="Helvetica,sans-Serif" font-size="10.00">enfield/Transform/QModule.h</text>
</a>
</g>
</g>
<!-- Node0&#45;&gt;Node3 -->
<g id="edge3" class="edge"><title>Node0&#45;&gt;Node3</title>
<path fill="none" stroke="midnightblue" d="M426.989,-224.399C415.262,-215.218 399.985,-203.258 388.055,-193.918"/>
<polygon fill="midnightblue" stroke="midnightblue" points="390.09,-191.066 380.059,-187.658 385.775,-196.578 390.09,-191.066"/>
</g>
<!-- Node12 -->
<g id="node13" class="node"><title>Node12</title>
<g id="a_node13"><a xlink:href="../../d7/d9d/ArchGraph_8h.xhtml" target="_top" xlink:title="enfield/Arch/ArchGraph.h">
<polygon fill="none" stroke="black" points="459,-168.5 459,-187.5 585,-187.5 585,-168.5 459,-168.5"/>
<text text-anchor="middle" x="522" y="-175.5" font-family="Helvetica,sans-Serif" font-size="10.00">enfield/Arch/ArchGraph.h</text>
</a>
</g>
</g>
<!-- Node0&#45;&gt;Node12 -->
<g id="edge14" class="edge"><title>Node0&#45;&gt;Node12</title>
<path fill="none" stroke="midnightblue" d="M463.248,-224.399C475.129,-215.218 490.607,-203.258 502.694,-193.918"/>
<polygon fill="midnightblue" stroke="midnightblue" points="505.023,-196.542 510.796,-187.658 500.743,-191.003 505.023,-196.542"/>
</g>
<!-- Node15 -->
<g id="node16" class="node"><title>Node15</title>
<g id="a_node16"><a xlink:href="../../d1/d73/Defs_8h.xhtml" target="_top" xlink:title="enfield/Support/Defs.h">
<polygon fill="none" stroke="black" points="674,-168.5 674,-187.5 788,-187.5 788,-168.5 674,-168.5"/>
<text text-anchor="middle" x="731" y="-175.5" font-family="Helvetica,sans-Serif" font-size="10.00">enfield/Support/Defs.h</text>
</a>
</g>
</g>
<!-- Node0&#45;&gt;Node15 -->
<g id="edge21" class="edge"><title>Node0&#45;&gt;Node15</title>
<path fill="none" stroke="midnightblue" d="M508.118,-225.369C559.873,-214.602 632.183,-199.558 680.243,-189.56"/>
<polygon fill="midnightblue" stroke="midnightblue" points="681.037,-192.97 690.114,-187.506 679.611,-186.116 681.037,-192.97"/>
</g>
<!-- Node2 -->
<g id="node3" class="node"><title>Node2</title>
<polygon fill="none" stroke="#bfbfbf" points="0,-56.5 0,-75.5 52,-75.5 52,-56.5 0,-56.5"/>
<text text-anchor="middle" x="26" y="-63.5" font-family="Helvetica,sans-Serif" font-size="10.00">memory</text>
</g>
<!-- Node1&#45;&gt;Node2 -->
<g id="edge2" class="edge"><title>Node1&#45;&gt;Node2</title>
<path fill="none" stroke="midnightblue" d="M193.468,-112.444C157.805,-102.766 99.8276,-87.0336 62.3057,-76.8518"/>
<polygon fill="midnightblue" stroke="midnightblue" points="62.8681,-73.3779 52.3005,-74.1368 61.0349,-80.1336 62.8681,-73.3779"/>
</g>
<!-- Node3&#45;&gt;Node1 -->
<g id="edge12" class="edge"><title>Node3&#45;&gt;Node1</title>
<path fill="none" stroke="midnightblue" d="M346.183,-168.444C322.168,-159.438 284.171,-145.189 257.131,-135.049"/>
<polygon fill="midnightblue" stroke="midnightblue" points="258.303,-131.751 247.71,-131.516 255.845,-138.305 258.303,-131.751"/>
</g>
<!-- Node4 -->
<g id="node5" class="node"><title>Node4</title>
<g id="a_node5"><a xlink:href="../../d4/daf/Nodes_8h.xhtml" target="_top" xlink:title="enfield/Analysis/Nodes.h">
<polygon fill="none" stroke="black" points="306.5,-112.5 306.5,-131.5 431.5,-131.5 431.5,-112.5 306.5,-112.5"/>
<text text-anchor="middle" x="369" y="-119.5" font-family="Helvetica,sans-Serif" font-size="10.00">enfield/Analysis/Nodes.h</text>
</a>
</g>
</g>
<!-- Node3&#45;&gt;Node4 -->
<g id="edge4" class="edge"><title>Node3&#45;&gt;Node4</title>
<path fill="none" stroke="midnightblue" d="M369,-168.083C369,-161.006 369,-150.861 369,-141.986"/>
<polygon fill="midnightblue" stroke="midnightblue" points="372.5,-141.751 369,-131.751 365.5,-141.751 372.5,-141.751"/>
</g>
<!-- Node11 -->
<g id="node12" class="node"><title>Node11</title>
<polygon fill="none" stroke="#bfbfbf" points="529.5,-56.5 529.5,-75.5 612.5,-75.5 612.5,-56.5 529.5,-56.5"/>
<text text-anchor="middle" x="571" y="-63.5" font-family="Helvetica,sans-Serif" font-size="10.00">unordered_map</text>
</g>
<!-- Node3&#45;&gt;Node11 -->
<g id="edge13" class="edge"><title>Node3&#45;&gt;Node11</title>
<path fill="none" stroke="midnightblue" d="M384.851,-168.368C419.883,-149.292 504.115,-103.422 546.199,-80.5054"/>
<polygon fill="midnightblue" stroke="midnightblue" points="548.115,-83.4477 555.223,-75.5914 544.767,-77.3001 548.115,-83.4477"/>
</g>
<!-- Node4&#45;&gt;Node2 -->
<g id="edge11" class="edge"><title>Node4&#45;&gt;Node2</title>
<path fill="none" stroke="midnightblue" d="M306.327,-112.648C234.602,-102.956 120.485,-87.0991 62.1811,-76.025"/>
<polygon fill="midnightblue" stroke="midnightblue" points="62.7912,-72.578 52.304,-74.0844 61.4416,-79.4467 62.7912,-72.578"/>
</g>
<!-- Node5 -->
<g id="node6" class="node"><title>Node5</title>
<g id="a_node6"><a xlink:href="../../d1/d2e/WrapperVal_8h.xhtml" target="_top" xlink:title="enfield/Support/WrapperVal.h">
<polygon fill="none" stroke="black" points="142,-56.5 142,-75.5 286,-75.5 286,-56.5 142,-56.5"/>
<text text-anchor="middle" x="214" y="-63.5" font-family="Helvetica,sans-Serif" font-size="10.00">enfield/Support/WrapperVal.h</text>
</a>
</g>
</g>
<!-- Node4&#45;&gt;Node5 -->
<g id="edge5" class="edge"><title>Node4&#45;&gt;Node5</title>
<path fill="none" stroke="midnightblue" d="M344.44,-112.444C318.477,-103.399 277.332,-89.064 248.203,-78.9158"/>
<polygon fill="midnightblue" stroke="midnightblue" points="249.04,-75.5013 238.445,-75.5164 246.737,-82.1116 249.04,-75.5013"/>
</g>
<!-- Node7 -->
<g id="node8" class="node"><title>Node7</title>
<g id="a_node8"><a xlink:href="../../d5/dfc/RTTI_8h.xhtml" target="_top" xlink:title="enfield/Support/RTTI.h">
<polygon fill="none" stroke="black" points="304,-56.5 304,-75.5 420,-75.5 420,-56.5 304,-56.5"/>
<text text-anchor="middle" x="362" y="-63.5" font-family="Helvetica,sans-Serif" font-size="10.00">enfield/Support/RTTI.h</text>
</a>
</g>
</g>
<!-- Node4&#45;&gt;Node7 -->
<g id="edge7" class="edge"><title>Node4&#45;&gt;Node7</title>
<path fill="none" stroke="midnightblue" d="M367.844,-112.083C366.916,-104.927 365.582,-94.6353 364.423,-85.6911"/>
<polygon fill="midnightblue" stroke="midnightblue" points="367.891,-85.2181 363.134,-75.7511 360.949,-86.1181 367.891,-85.2181"/>
</g>
<!-- Node8 -->
<g id="node9" class="node"><title>Node8</title>
<polygon fill="none" stroke="#bfbfbf" points="438.5,-56.5 438.5,-75.5 511.5,-75.5 511.5,-56.5 438.5,-56.5"/>
<text text-anchor="middle" x="475" y="-63.5" font-family="Helvetica,sans-Serif" font-size="10.00">initializer_list</text>
</g>
<!-- Node4&#45;&gt;Node8 -->
<g id="edge8" class="edge"><title>Node4&#45;&gt;Node8</title>
<path fill="none" stroke="midnightblue" d="M386.031,-112.324C403.03,-103.664 429.376,-90.2424 448.993,-80.249"/>
<polygon fill="midnightblue" stroke="midnightblue" points="450.69,-83.3125 458.012,-75.6545 447.512,-77.0752 450.69,-83.3125"/>
</g>
<!-- Node9 -->
<g id="node10" class="node"><title>Node9</title>
<polygon fill="none" stroke="#bfbfbf" points="70,-56.5 70,-75.5 124,-75.5 124,-56.5 70,-56.5"/>
<text text-anchor="middle" x="97" y="-63.5" font-family="Helvetica,sans-Serif" font-size="10.00">iostream</text>
</g>
<!-- Node4&#45;&gt;Node9 -->
<g id="edge9" class="edge"><title>Node4&#45;&gt;Node9</title>
<path fill="none" stroke="midnightblue" d="M320.02,-112.495C274.323,-104.372 204.028,-91.4003 133.97,-76.1179"/>
<polygon fill="midnightblue" stroke="midnightblue" points="134.606,-72.6744 124.088,-73.9464 133.104,-79.5112 134.606,-72.6744"/>
</g>
<!-- Node10 -->
<g id="node11" class="node"><title>Node10</title>
<polygon fill="none" stroke="#bfbfbf" points="679,-56.5 679,-75.5 723,-75.5 723,-56.5 679,-56.5"/>
<text text-anchor="middle" x="701" y="-63.5" font-family="Helvetica,sans-Serif" font-size="10.00">vector</text>
</g>
<!-- Node4&#45;&gt;Node10 -->
<g id="edge10" class="edge"><title>Node4&#45;&gt;Node10</title>
<path fill="none" stroke="midnightblue" d="M431.705,-114.113C490.693,-107.072 581.587,-94.7791 668.934,-75.9903"/>
<polygon fill="midnightblue" stroke="midnightblue" points="669.717,-79.4019 678.741,-73.8498 668.224,-72.5629 669.717,-79.4019"/>
</g>
<!-- Node6 -->
<g id="node7" class="node"><title>Node6</title>
<polygon fill="none" stroke="#bfbfbf" points="193.5,-0.5 193.5,-19.5 234.5,-19.5 234.5,-0.5 193.5,-0.5"/>
<text text-anchor="middle" x="214" y="-7.5" font-family="Helvetica,sans-Serif" font-size="10.00">string</text>
</g>
<!-- Node5&#45;&gt;Node6 -->
<g id="edge6" class="edge"><title>Node5&#45;&gt;Node6</title>
<path fill="none" stroke="midnightblue" d="M214,-56.083C214,-49.0059 214,-38.8611 214,-29.9865"/>
<polygon fill="midnightblue" stroke="midnightblue" points="217.5,-29.751 214,-19.7511 210.5,-29.7511 217.5,-29.751"/>
</g>
<!-- Node12&#45;&gt;Node4 -->
<g id="edge20" class="edge"><title>Node12&#45;&gt;Node4</title>
<path fill="none" stroke="midnightblue" d="M497.757,-168.444C472.129,-159.399 431.515,-145.064 402.762,-134.916"/>
<polygon fill="midnightblue" stroke="midnightblue" points="403.725,-131.544 393.13,-131.516 401.395,-138.145 403.725,-131.544"/>
</g>
<!-- Node13 -->
<g id="node14" class="node"><title>Node13</title>
<g id="a_node14"><a xlink:href="../../d7/d16/Graph_8h.xhtml" target="_top" xlink:title="enfield/Support/Graph.h">
<polygon fill="none" stroke="black" points="511.5,-112.5 511.5,-131.5 630.5,-131.5 630.5,-112.5 511.5,-112.5"/>
<text text-anchor="middle" x="571" y="-119.5" font-family="Helvetica,sans-Serif" font-size="10.00">enfield/Support/Graph.h</text>
</a>
</g>
</g>
<!-- Node12&#45;&gt;Node13 -->
<g id="edge15" class="edge"><title>Node12&#45;&gt;Node13</title>
<path fill="none" stroke="midnightblue" d="M530.091,-168.083C537.155,-160.298 547.588,-148.801 556.149,-139.367"/>
<polygon fill="midnightblue" stroke="midnightblue" points="558.931,-141.509 563.059,-131.751 553.747,-136.805 558.931,-141.509"/>
</g>
<!-- Node13&#45;&gt;Node2 -->
<g id="edge19" class="edge"><title>Node13&#45;&gt;Node2</title>
<path fill="none" stroke="midnightblue" d="M511.147,-116.956C399.633,-109.223 162.994,-91.8354 62.4276,-75.9304"/>
<polygon fill="midnightblue" stroke="midnightblue" points="62.7112,-72.4297 52.2735,-74.2478 61.5668,-79.3356 62.7112,-72.4297"/>
</g>
<!-- Node13&#45;&gt;Node10 -->
<g id="edge17" class="edge"><title>Node13&#45;&gt;Node10</title>
<path fill="none" stroke="midnightblue" d="M591.599,-112.444C612.993,-103.557 646.681,-89.5632 671.024,-79.4514"/>
<polygon fill="midnightblue" stroke="midnightblue" points="672.605,-82.5848 680.497,-75.5164 669.92,-76.1203 672.605,-82.5848"/>
</g>
<!-- Node13&#45;&gt;Node11 -->
<g id="edge18" class="edge"><title>Node13&#45;&gt;Node11</title>
<path fill="none" stroke="midnightblue" d="M571,-112.083C571,-105.006 571,-94.8611 571,-85.9865"/>
<polygon fill="midnightblue" stroke="midnightblue" points="574.5,-85.751 571,-75.7511 567.5,-85.7511 574.5,-85.751"/>
</g>
<!-- Node14 -->
<g id="node15" class="node"><title>Node14</title>
<polygon fill="none" stroke="#bfbfbf" points="631,-56.5 631,-75.5 661,-75.5 661,-56.5 631,-56.5"/>
<text text-anchor="middle" x="646" y="-63.5" font-family="Helvetica,sans-Serif" font-size="10.00">set</text>
</g>
<!-- Node13&#45;&gt;Node14 -->
<g id="edge16" class="edge"><title>Node13&#45;&gt;Node14</title>
<path fill="none" stroke="midnightblue" d="M583.05,-112.324C594.463,-104.107 611.831,-91.6017 625.435,-81.8069"/>
<polygon fill="midnightblue" stroke="midnightblue" points="627.66,-84.5174 633.731,-75.8339 623.57,-78.8366 627.66,-84.5174"/>
</g>
<!-- Node15&#45;&gt;Node10 -->
<g id="edge22" class="edge"><title>Node15&#45;&gt;Node10</title>
<path fill="none" stroke="midnightblue" d="M722.249,-168.286C714.437,-159.84 703.549,-146.246 699,-132 694.219,-117.027 695.23,-99.1159 697.146,-85.8906"/>
<polygon fill="midnightblue" stroke="midnightblue" points="700.659,-86.1208 698.941,-75.6662 693.765,-84.9103 700.659,-86.1208"/>
</g>
<!-- Node16 -->
<g id="node17" class="node"><title>Node16</title>
<polygon fill="none" stroke="#bfbfbf" points="708,-112.5 708,-131.5 754,-131.5 754,-112.5 708,-112.5"/>
<text text-anchor="middle" x="731" y="-119.5" font-family="Helvetica,sans-Serif" font-size="10.00">cstdint</text>
</g>
<!-- Node15&#45;&gt;Node16 -->
<g id="edge23" class="edge"><title>Node15&#45;&gt;Node16</title>
<path fill="none" stroke="midnightblue" d="M731,-168.083C731,-161.006 731,-150.861 731,-141.986"/>
<polygon fill="midnightblue" stroke="midnightblue" points="734.5,-141.751 731,-131.751 727.5,-141.751 734.5,-141.751"/>
</g>
<!-- Node17 -->
<g id="node18" class="node"><title>Node17</title>
<polygon fill="none" stroke="#bfbfbf" points="772,-112.5 772,-131.5 812,-131.5 812,-112.5 772,-112.5"/>
<text text-anchor="middle" x="792" y="-119.5" font-family="Helvetica,sans-Serif" font-size="10.00">limits</text>
</g>
<!-- Node15&#45;&gt;Node17 -->
<g id="edge24" class="edge"><title>Node15&#45;&gt;Node17</title>
<path fill="none" stroke="midnightblue" d="M740.801,-168.324C749.818,-160.341 763.406,-148.313 774.318,-138.653"/>
<polygon fill="midnightblue" stroke="midnightblue" points="776.853,-141.083 782.021,-131.834 772.213,-135.842 776.853,-141.083"/>
</g>
<!-- Node18 -->
<g id="node19" class="node"><title>Node18</title>
<polygon fill="none" stroke="#bfbfbf" points="830,-112.5 830,-131.5 882,-131.5 882,-112.5 830,-112.5"/>
<text text-anchor="middle" x="856" y="-119.5" font-family="Helvetica,sans-Serif" font-size="10.00">ostream</text>
</g>
<!-- Node15&#45;&gt;Node18 -->
<g id="edge25" class="edge"><title>Node15&#45;&gt;Node18</title>
<path fill="none" stroke="midnightblue" d="M750.807,-168.444C771.287,-159.596 803.483,-145.687 826.865,-135.586"/>
<polygon fill="midnightblue" stroke="midnightblue" points="828.494,-138.695 836.286,-131.516 825.718,-132.269 828.494,-138.695"/>
</g>
</g>
</svg>
