<?xml version="1.0" encoding="UTF-8" standalone="no"?>
<!DOCTYPE svg PUBLIC "-//W3C//DTD SVG 1.1//EN"
 "http://www.w3.org/Graphics/SVG/1.1/DTD/svg11.dtd">
<!-- Generated by graphviz version 2.38.0 (20140413.2041)
 -->
<!-- Title: include/enfield/Arch/Architectures.def Pages: 1 -->
<svg width="478pt" height="229pt"
 viewBox="0.00 0.00 477.50 229.00" xmlns="http://www.w3.org/2000/svg" xmlns:xlink="http://www.w3.org/1999/xlink">
<g id="graph0" class="graph" transform="scale(1 1) rotate(0) translate(4 225)">
<title>include/enfield/Arch/Architectures.def</title>
<!-- Node1 -->
<g id="node1" class="node"><title>Node1</title>
<polygon fill="#bfbfbf" stroke="black" points="108.5,-190.5 108.5,-220.5 210.5,-220.5 210.5,-190.5 108.5,-190.5"/>
<text text-anchor="start" x="116.5" y="-208.5" font-family="Helvetica,sans-Serif" font-size="10.00">include/enfield/Arch</text>
<text text-anchor="middle" x="159.5" y="-197.5" font-family="Helvetica,sans-Serif" font-size="10.00">/Architectures.def</text>
</g>
<!-- Node2 -->
<g id="node2" class="node"><title>Node2</title>
<g id="a_node2"><a xlink:href="../../da/d8e/Architectures_8h.xhtml" target="_top" xlink:title="include/enfield/Arch\l/Architectures.h">
<polygon fill="none" stroke="black" points="151.5,-123.5 151.5,-153.5 253.5,-153.5 253.5,-123.5 151.5,-123.5"/>
<text text-anchor="start" x="159.5" y="-141.5" font-family="Helvetica,sans-Serif" font-size="10.00">include/enfield/Arch</text>
<text text-anchor="middle" x="202.5" y="-130.5" font-family="Helvetica,sans-Serif" font-size="10.00">/Architectures.h</text>
</a>
</g>
</g>
<!-- Node1&#45;&gt;Node2 -->
<g id="edge1" class="edge"><title>Node1&#45;&gt;Node2</title>
<path fill="none" stroke="midnightblue" d="M174.473,-181.867C180.696,-172.459 187.726,-161.833 193.188,-153.577"/>
<polygon fill="midnightblue" stroke="midnightblue" points="171.429,-180.125 168.83,-190.396 177.267,-183.987 171.429,-180.125"/>
</g>
<!-- Node3 -->
<g id="node3" class="node"><title>Node3</title>
<g id="a_node3"><a xlink:href="../../d5/d6e/Architectures_8cpp.xhtml" target="_top" xlink:title="lib/Arch/Architectures.cpp">
<polygon fill="none" stroke="black" points="0,-62 0,-81 129,-81 129,-62 0,-62"/>
<text text-anchor="middle" x="64.5" y="-69" font-family="Helvetica,sans-Serif" font-size="10.00">lib/Arch/Architectures.cpp</text>
</a>
</g>
</g>
<!-- Node1&#45;&gt;Node3 -->
<g id="edge9" class="edge"><title>Node1&#45;&gt;Node3</title>
<path fill="none" stroke="midnightblue" d="M143.217,-181.875C121.803,-152.12 85.1974,-101.259 70.6874,-81.0973"/>
<polygon fill="midnightblue" stroke="midnightblue" points="140.651,-184.302 149.333,-190.374 146.333,-180.213 140.651,-184.302"/>
</g>
<!-- Node2&#45;&gt;Node3 -->
<g id="edge2" class="edge"><title>Node2&#45;&gt;Node3</title>
<path fill="none" stroke="midnightblue" d="M163.502,-119.131C136.94,-106.62 103.012,-90.6399 82.561,-81.007"/>
<polygon fill="midnightblue" stroke="midnightblue" points="162.018,-122.301 172.556,-123.396 165.001,-115.968 162.018,-122.301"/>
</g>
<!-- Node4 -->
<g id="node4" class="node"><title>Node4</title>
<g id="a_node4"><a xlink:href="../../d6/d91/Transform_2Driver_8h.xhtml" target="_top" xlink:title="include/enfield/Transform\l/Driver.h">
<polygon fill="none" stroke="black" points="185.5,-56.5 185.5,-86.5 311.5,-86.5 311.5,-56.5 185.5,-56.5"/>
<text text-anchor="start" x="193.5" y="-74.5" font-family="Helvetica,sans-Serif" font-size="10.00">include/enfield/Transform</text>
<text text-anchor="middle" x="248.5" y="-63.5" font-family="Helvetica,sans-Serif" font-size="10.00">/Driver.h</text>
</a>
</g>
</g>
<!-- Node2&#45;&gt;Node4 -->
<g id="edge3" class="edge"><title>Node2&#45;&gt;Node4</title>
<path fill="none" stroke="midnightblue" d="M218.312,-115.157C225.02,-105.679 232.635,-94.9186 238.538,-86.5765"/>
<polygon fill="midnightblue" stroke="midnightblue" points="215.401,-113.211 212.481,-123.396 221.115,-117.255 215.401,-113.211"/>
</g>
<!-- Node5 -->
<g id="node5" class="node"><title>Node5</title>
<g id="a_node5"><a xlink:href="../../df/dd9/Driver_8cpp.xhtml" target="_top" xlink:title="lib/Transform/Driver.cpp">
<polygon fill="none" stroke="black" points="110.5,-0.5 110.5,-19.5 232.5,-19.5 232.5,-0.5 110.5,-0.5"/>
<text text-anchor="middle" x="171.5" y="-7.5" font-family="Helvetica,sans-Serif" font-size="10.00">lib/Transform/Driver.cpp</text>
</a>
</g>
</g>
<!-- Node2&#45;&gt;Node5 -->
<g id="edge6" class="edge"><title>Node2&#45;&gt;Node5</title>
<path fill="none" stroke="midnightblue" d="M188.076,-114.383C183.572,-106.054 179.104,-96.3895 176.5,-87 169.926,-63.3001 170.265,-33.9192 170.943,-19.6236"/>
<polygon fill="midnightblue" stroke="midnightblue" points="185.077,-116.19 193.08,-123.133 191.154,-112.715 185.077,-116.19"/>
</g>
<!-- Node6 -->
<g id="node6" class="node"><title>Node6</title>
<g id="a_node6"><a xlink:href="../../de/d8e/Enfield_8cpp.xhtml" target="_top" xlink:title="tools/Enfield.cpp">
<polygon fill="none" stroke="black" points="280,-0.5 280,-19.5 369,-19.5 369,-0.5 280,-0.5"/>
<text text-anchor="middle" x="324.5" y="-7.5" font-family="Helvetica,sans-Serif" font-size="10.00">tools/Enfield.cpp</text>
</a>
</g>
</g>
<!-- Node2&#45;&gt;Node6 -->
<g id="edge7" class="edge"><title>Node2&#45;&gt;Node6</title>
<path fill="none" stroke="midnightblue" d="M263.562,-125.434C285.062,-118.012 307.17,-106.092 320.5,-87 334.72,-66.6329 330.211,-35.1927 326.813,-19.9271"/>
<polygon fill="midnightblue" stroke="midnightblue" points="262.238,-122.182 253.761,-128.537 264.351,-128.856 262.238,-122.182"/>
</g>
<!-- Node7 -->
<g id="node7" class="node"><title>Node7</title>
<g id="a_node7"><a xlink:href="../../d0/dfd/Generator_8cpp.xhtml" target="_top" xlink:title="tools/Generator.cpp">
<polygon fill="none" stroke="black" points="367.5,-62 367.5,-81 469.5,-81 469.5,-62 367.5,-62"/>
<text text-anchor="middle" x="418.5" y="-69" font-family="Helvetica,sans-Serif" font-size="10.00">tools/Generator.cpp</text>
</a>
</g>
</g>
<!-- Node2&#45;&gt;Node7 -->
<g id="edge8" class="edge"><title>Node2&#45;&gt;Node7</title>
<path fill="none" stroke="midnightblue" d="M258.692,-120.59C300.876,-107.896 356.88,-91.0429 390.159,-81.0287"/>
<polygon fill="midnightblue" stroke="midnightblue" points="257.67,-117.243 249.103,-123.476 259.687,-123.946 257.67,-117.243"/>
</g>
<!-- Node4&#45;&gt;Node5 -->
<g id="edge4" class="edge"><title>Node4&#45;&gt;Node5</title>
<path fill="none" stroke="midnightblue" d="M222.215,-50.1886C208.734,-39.7719 193.025,-27.6329 182.704,-19.6578"/>
<polygon fill="midnightblue" stroke="midnightblue" points="220.199,-53.0543 230.252,-56.3993 224.479,-47.5153 220.199,-53.0543"/>
</g>
<!-- Node4&#45;&gt;Node6 -->
<g id="edge5" class="edge"><title>Node4&#45;&gt;Node6</title>
<path fill="none" stroke="midnightblue" d="M274.444,-50.1886C287.749,-39.7719 303.255,-27.6329 313.441,-19.6578"/>
<polygon fill="midnightblue" stroke="midnightblue" points="272.227,-47.4789 266.511,-56.3993 276.542,-52.9907 272.227,-47.4789"/>
</g>
</g>
</svg>
