<?xml version="1.0" encoding="UTF-8" standalone="no"?>
<!DOCTYPE svg PUBLIC "-//W3C//DTD SVG 1.1//EN"
 "http://www.w3.org/Graphics/SVG/1.1/DTD/svg11.dtd">
<!-- Generated by graphviz version 2.38.0 (20140413.2041)
 -->
<!-- Title: efd::RenameQbitPass::run Pages: 1 -->
<svg width="424pt" height="165pt"
 viewBox="0.00 0.00 424.00 165.00" xmlns="http://www.w3.org/2000/svg" xmlns:xlink="http://www.w3.org/1999/xlink">
<g id="graph0" class="graph" transform="scale(1 1) rotate(0) translate(4 161)">
<title>efd::RenameQbitPass::run</title>
<!-- Node1 -->
<g id="node1" class="node"><title>Node1</title>
<polygon fill="#bfbfbf" stroke="black" points="0,-68.5 0,-87.5 133,-87.5 133,-68.5 0,-68.5"/>
<text text-anchor="middle" x="66.5" y="-75.5" font-family="Helvetica,sans-Serif" font-size="10.00">efd::RenameQbitPass::run</text>
</g>
<!-- Node2 -->
<g id="node2" class="node"><title>Node2</title>
<g id="a_node2"><a xlink:href="../../d6/d6a/classefd_1_1Node.xhtml#ab813c60af1717cf50e92a28b274c24ef" target="_top" xlink:title="Used by visitor classes. ">
<polygon fill="none" stroke="black" points="185.5,-137.5 185.5,-156.5 274.5,-156.5 274.5,-137.5 185.5,-137.5"/>
<text text-anchor="middle" x="230" y="-144.5" font-family="Helvetica,sans-Serif" font-size="10.00">efd::Node::apply</text>
</a>
</g>
</g>
<!-- Node1&#45;&gt;Node2 -->
<g id="edge1" class="edge"><title>Node1&#45;&gt;Node2</title>
<path fill="none" stroke="midnightblue" d="M85.0959,-87.6849C105.049,-98.4253 138.744,-115.838 169,-128 174.456,-130.193 180.269,-132.303 186.048,-134.269"/>
<polygon fill="midnightblue" stroke="midnightblue" points="185.08,-137.635 195.673,-137.43 187.265,-130.985 185.08,-137.635"/>
</g>
<!-- Node3 -->
<g id="node3" class="node"><title>Node3</title>
<g id="a_node3"><a xlink:href="../../db/da6/classefd_1_1RenameQbitVisitor.xhtml#a2c6e2ed96f5efe418edc1c2cca24e643" target="_top" xlink:title="efd::RenameQbitVisitor\l::RenameQbitVisitor">
<polygon fill="none" stroke="black" points="170.5,-88 170.5,-118 289.5,-118 289.5,-88 170.5,-88"/>
<text text-anchor="start" x="178.5" y="-106" font-family="Helvetica,sans-Serif" font-size="10.00">efd::RenameQbitVisitor</text>
<text text-anchor="middle" x="230" y="-95" font-family="Helvetica,sans-Serif" font-size="10.00">::RenameQbitVisitor</text>
</a>
</g>
</g>
<!-- Node1&#45;&gt;Node3 -->
<g id="edge2" class="edge"><title>Node1&#45;&gt;Node3</title>
<path fill="none" stroke="midnightblue" d="M129.017,-87.5227C139.285,-89.1122 149.993,-90.7698 160.424,-92.3845"/>
<polygon fill="midnightblue" stroke="midnightblue" points="159.899,-95.8448 170.317,-93.9159 160.97,-88.9272 159.899,-95.8448"/>
</g>
<!-- Node4 -->
<g id="node4" class="node"><title>Node4</title>
<g id="a_node4"><a xlink:href="../../dd/d52/classefd_1_1QModule.xhtml#ac00e1eb93f94c00db1e6a661d8f95d9d" target="_top" xlink:title="Iterator to the beginning of the statement node vector. ">
<polygon fill="none" stroke="black" points="179.5,-39 179.5,-69 280.5,-69 280.5,-39 179.5,-39"/>
<text text-anchor="start" x="187.5" y="-57" font-family="Helvetica,sans-Serif" font-size="10.00">efd::QModule::stmt</text>
<text text-anchor="middle" x="230" y="-46" font-family="Helvetica,sans-Serif" font-size="10.00">_begin</text>
</a>
</g>
</g>
<!-- Node1&#45;&gt;Node4 -->
<g id="edge3" class="edge"><title>Node1&#45;&gt;Node4</title>
<path fill="none" stroke="midnightblue" d="M131.793,-68.4456C144.163,-66.6074 157.071,-64.6892 169.288,-62.8736"/>
<polygon fill="midnightblue" stroke="midnightblue" points="169.984,-66.3087 179.361,-61.3767 168.955,-59.3847 169.984,-66.3087"/>
</g>
<!-- Node6 -->
<g id="node6" class="node"><title>Node6</title>
<g id="a_node6"><a xlink:href="../../dd/d52/classefd_1_1QModule.xhtml#a23d45e3b6c65d5fa14b199da8b0617c7" target="_top" xlink:title="Iterator to the end of the statement node vector. ">
<polygon fill="none" stroke="black" points="169,-0.5 169,-19.5 291,-19.5 291,-0.5 169,-0.5"/>
<text text-anchor="middle" x="230" y="-7.5" font-family="Helvetica,sans-Serif" font-size="10.00">efd::QModule::stmt_end</text>
</a>
</g>
</g>
<!-- Node1&#45;&gt;Node6 -->
<g id="edge5" class="edge"><title>Node1&#45;&gt;Node6</title>
<path fill="none" stroke="midnightblue" d="M85.4841,-68.3466C105.504,-57.8316 138.996,-40.9222 169,-29 174.529,-26.8029 180.421,-24.6809 186.271,-22.7014"/>
<polygon fill="midnightblue" stroke="midnightblue" points="187.589,-25.9528 196.005,-19.5164 185.412,-19.2998 187.589,-25.9528"/>
</g>
<!-- Node5 -->
<g id="node5" class="node"><title>Node5</title>
<g id="a_node5"><a xlink:href="../../d6/d6a/classefd_1_1Node.xhtml#ae890d36b0dcb332d82616b3180da1886" target="_top" xlink:title="Returns a iterator to the beginning of the vector. ">
<polygon fill="none" stroke="black" points="327,-44.5 327,-63.5 416,-63.5 416,-44.5 327,-44.5"/>
<text text-anchor="middle" x="371.5" y="-51.5" font-family="Helvetica,sans-Serif" font-size="10.00">efd::Node::begin</text>
</a>
</g>
</g>
<!-- Node4&#45;&gt;Node5 -->
<g id="edge4" class="edge"><title>Node4&#45;&gt;Node5</title>
<path fill="none" stroke="midnightblue" d="M280.575,-54C292.205,-54 304.653,-54 316.467,-54"/>
<polygon fill="midnightblue" stroke="midnightblue" points="316.648,-57.5001 326.648,-54 316.648,-50.5001 316.648,-57.5001"/>
</g>
<!-- Node7 -->
<g id="node7" class="node"><title>Node7</title>
<g id="a_node7"><a xlink:href="../../d6/d6a/classefd_1_1Node.xhtml#a335606078a1d727de214982453c9dd1b" target="_top" xlink:title="Returns a iterator to the end of the vector. ">
<polygon fill="none" stroke="black" points="331,-0.5 331,-19.5 412,-19.5 412,-0.5 331,-0.5"/>
<text text-anchor="middle" x="371.5" y="-7.5" font-family="Helvetica,sans-Serif" font-size="10.00">efd::Node::end</text>
</a>
</g>
</g>
<!-- Node6&#45;&gt;Node7 -->
<g id="edge6" class="edge"><title>Node6&#45;&gt;Node7</title>
<path fill="none" stroke="midnightblue" d="M291.375,-10C301.217,-10 311.313,-10 320.859,-10"/>
<polygon fill="midnightblue" stroke="midnightblue" points="320.964,-13.5001 330.964,-10 320.964,-6.5001 320.964,-13.5001"/>
</g>
</g>
</svg>
