<?xml version="1.0" encoding="UTF-8" standalone="no"?>
<!DOCTYPE svg PUBLIC "-//W3C//DTD SVG 1.1//EN"
 "http://www.w3.org/Graphics/SVG/1.1/DTD/svg11.dtd">
<!-- Generated by graphviz version 2.38.0 (20140413.2041)
 -->
<!-- Title: efd::NDQOpGen Pages: 1 -->
<svg width="352pt" height="196pt"
 viewBox="0.00 0.00 351.50 196.00" xmlns="http://www.w3.org/2000/svg" xmlns:xlink="http://www.w3.org/1999/xlink">
<g id="graph0" class="graph" transform="scale(1 1) rotate(0) translate(4 192)">
<title>efd::NDQOpGen</title>
<!-- Node0 -->
<g id="node1" class="node"><title>Node0</title>
<polygon fill="#bfbfbf" stroke="black" points="133,-56.5 133,-75.5 222,-75.5 222,-56.5 133,-56.5"/>
<text text-anchor="middle" x="177.5" y="-63.5" font-family="Helvetica,sans-Serif" font-size="10.00">efd::NDQOpGen</text>
</g>
<!-- Node3 -->
<g id="node4" class="node"><title>Node3</title>
<g id="a_node4"><a xlink:href="../../d2/d46/structefd_1_1NDQOpLongCX.xhtml" target="_top" xlink:title="Special node for long cnot calls. ">
<polygon fill="none" stroke="black" points="0,-0.5 0,-19.5 107,-19.5 107,-0.5 0,-0.5"/>
<text text-anchor="middle" x="53.5" y="-7.5" font-family="Helvetica,sans-Serif" font-size="10.00">efd::NDQOpLongCX</text>
</a>
</g>
</g>
<!-- Node0&#45;&gt;Node3 -->
<g id="edge3" class="edge"><title>Node0&#45;&gt;Node3</title>
<path fill="none" stroke="midnightblue" d="M148.493,-52.3678C125.271,-42.2553 93.3375,-28.3486 73.0562,-19.5164"/>
<polygon fill="midnightblue" stroke="midnightblue" points="147.286,-55.6597 157.852,-56.4435 150.081,-49.2419 147.286,-55.6597"/>
</g>
<!-- Node4 -->
<g id="node5" class="node"><title>Node4</title>
<g id="a_node5"><a xlink:href="../../d1/d69/structefd_1_1NDQOpRevCX.xhtml" target="_top" xlink:title="Special node for reversal cnot calls. ">
<polygon fill="none" stroke="black" points="125.5,-0.5 125.5,-19.5 229.5,-19.5 229.5,-0.5 125.5,-0.5"/>
<text text-anchor="middle" x="177.5" y="-7.5" font-family="Helvetica,sans-Serif" font-size="10.00">efd::NDQOpRevCX</text>
</a>
</g>
</g>
<!-- Node0&#45;&gt;Node4 -->
<g id="edge4" class="edge"><title>Node0&#45;&gt;Node4</title>
<path fill="none" stroke="midnightblue" d="M177.5,-45.8045C177.5,-36.9102 177.5,-26.7798 177.5,-19.7511"/>
<polygon fill="midnightblue" stroke="midnightblue" points="174,-46.083 177.5,-56.083 181,-46.083 174,-46.083"/>
</g>
<!-- Node5 -->
<g id="node6" class="node"><title>Node5</title>
<g id="a_node6"><a xlink:href="../../dd/d04/structefd_1_1NDQOpSwap.xhtml" target="_top" xlink:title="Special node for swap calls. ">
<polygon fill="none" stroke="black" points="247.5,-0.5 247.5,-19.5 343.5,-19.5 343.5,-0.5 247.5,-0.5"/>
<text text-anchor="middle" x="295.5" y="-7.5" font-family="Helvetica,sans-Serif" font-size="10.00">efd::NDQOpSwap</text>
</a>
</g>
</g>
<!-- Node0&#45;&gt;Node5 -->
<g id="edge5" class="edge"><title>Node0&#45;&gt;Node5</title>
<path fill="none" stroke="midnightblue" d="M205.4,-52.2321C227.473,-42.1312 257.676,-28.3091 276.89,-19.5164"/>
<polygon fill="midnightblue" stroke="midnightblue" points="203.834,-49.0997 196.197,-56.4435 206.747,-55.4648 203.834,-49.0997"/>
</g>
<!-- Node1 -->
<g id="node2" class="node"><title>Node1</title>
<g id="a_node2"><a xlink:href="../../dd/d94/classefd_1_1NDQOp.xhtml" target="_top" xlink:title="Generic node for quantum operations. This is also the base node for the other quantum gates...">
<polygon fill="none" stroke="black" points="142,-112.5 142,-131.5 213,-131.5 213,-112.5 142,-112.5"/>
<text text-anchor="middle" x="177.5" y="-119.5" font-family="Helvetica,sans-Serif" font-size="10.00">efd::NDQOp</text>
</a>
</g>
</g>
<!-- Node1&#45;&gt;Node0 -->
<g id="edge1" class="edge"><title>Node1&#45;&gt;Node0</title>
<path fill="none" stroke="midnightblue" d="M177.5,-101.805C177.5,-92.9102 177.5,-82.7798 177.5,-75.7511"/>
<polygon fill="midnightblue" stroke="midnightblue" points="174,-102.083 177.5,-112.083 181,-102.083 174,-102.083"/>
</g>
<!-- Node2 -->
<g id="node3" class="node"><title>Node2</title>
<g id="a_node3"><a xlink:href="../../d6/d6a/classefd_1_1Node.xhtml" target="_top" xlink:title="Base class for AST nodes. ">
<polygon fill="none" stroke="black" points="148,-168.5 148,-187.5 207,-187.5 207,-168.5 148,-168.5"/>
<text text-anchor="middle" x="177.5" y="-175.5" font-family="Helvetica,sans-Serif" font-size="10.00">efd::Node</text>
</a>
</g>
</g>
<!-- Node2&#45;&gt;Node1 -->
<g id="edge2" class="edge"><title>Node2&#45;&gt;Node1</title>
<path fill="none" stroke="midnightblue" d="M177.5,-157.805C177.5,-148.91 177.5,-138.78 177.5,-131.751"/>
<polygon fill="midnightblue" stroke="midnightblue" points="174,-158.083 177.5,-168.083 181,-158.083 174,-158.083"/>
</g>
</g>
</svg>
