<?xml version="1.0" encoding="UTF-8" standalone="no"?>
<!DOCTYPE svg PUBLIC "-//W3C//DTD SVG 1.1//EN"
 "http://www.w3.org/Graphics/SVG/1.1/DTD/svg11.dtd">
<!-- Generated by graphviz version 2.38.0 (20140413.2041)
 -->
<!-- Title: lib/Transform/DependencyGraphBuilderPass.cpp Pages: 1 -->
<!--zoomable 397 -->
<svg id="main" version="1.1" xmlns="http://www.w3.org/2000/svg" xmlns:xlink="http://www.w3.org/1999/xlink" xml:space="preserve" onload="init(evt)">
<style type="text/css"><![CDATA[
.edge:hover path { stroke: red; }
.edge:hover polygon { stroke: red; fill: red; }
]]></style>
<script type="text/javascript"><![CDATA[
var edges = document.getElementsByTagName('g');
if (edges && edges.length) {
  for (var i=0;i<edges.length;i++) {
    if (edges[i].id.substr(0,4)=='edge') {
      edges[i].setAttribute('class','edge');
    }
  }
}
]]></script>
        <defs>
                <circle id="rim" cx="0" cy="0" r="7"/>
                <circle id="rim2" cx="0" cy="0" r="3.5"/>
                <g id="zoomPlus">
                        <use xlink:href="#rim" fill="#404040">
                                <set attributeName="fill" to="#808080" begin="zoomplus.mouseover" end="zoomplus.mouseout"/>
                        </use>
                        <path d="M-4,0h8M0,-4v8" fill="none" stroke="white" stroke-width="1.5" pointer-events="none"/>
                </g>
                <g id="zoomMin">
                        <use xlink:href="#rim" fill="#404040">
                                <set attributeName="fill" to="#808080" begin="zoomminus.mouseover" end="zoomminus.mouseout"/>
                        </use>
                        <path d="M-4,0h8" fill="none" stroke="white" stroke-width="1.5" pointer-events="none"/>
                </g>
                <g id="dirArrow">
                        <path fill="none" stroke="white" stroke-width="1.5" d="M0,-3.0v7 M-2.5,-0.5L0,-3.0L2.5,-0.5"/>
                </g>
               <g id="resetDef">
                       <use xlink:href="#rim2" fill="#404040">
                               <set attributeName="fill" to="#808080" begin="reset.mouseover" end="reset.mouseout"/>
                       </use>
               </g>
        </defs>

<script type="text/javascript">
var viewWidth = 1259;
var viewHeight = 397;
var sectionId = 'dynsection-0';
</script>
<script xlink:href="../../svgpan.js"/>
<svg id="graph" class="graph">
<g id="viewport">
<title>lib/Transform/DependencyGraphBuilderPass.cpp</title>
<!-- Node0 -->
<g id="node1" class="node"><title>Node0</title>
<polygon fill="#bfbfbf" stroke="black" points="695.5,-358.5 695.5,-388.5 826.5,-388.5 826.5,-358.5 695.5,-358.5"/>
<text text-anchor="start" x="703.5" y="-376.5" font-family="Helvetica,sans-Serif" font-size="10.00">lib/Transform/Dependency</text>
<text text-anchor="middle" x="761" y="-365.5" font-family="Helvetica,sans-Serif" font-size="10.00">GraphBuilderPass.cpp</text>
</g>
<!-- Node1 -->
<g id="node2" class="node"><title>Node1</title>
<g id="a_node2"><a xlink:href="../../d9/d58/DependencyGraphBuilderPass_8h.xhtml" target="_top" xlink:title="enfield/Transform/Dependency\lGraphBuilderPass.h">
<polygon fill="none" stroke="black" points="408,-291.5 408,-321.5 558,-321.5 558,-291.5 408,-291.5"/>
<text text-anchor="start" x="416" y="-309.5" font-family="Helvetica,sans-Serif" font-size="10.00">enfield/Transform/Dependency</text>
<text text-anchor="middle" x="483" y="-298.5" font-family="Helvetica,sans-Serif" font-size="10.00">GraphBuilderPass.h</text>
</a>
</g>
</g>
<!-- Node0&#45;&gt;Node1 -->
<g id="edge1" class="edge"><title>Node0&#45;&gt;Node1</title>
<path fill="none" stroke="midnightblue" d="M701.02,-358.476C657.598,-348.323 598.77,-334.568 553.165,-323.906"/>
<polygon fill="midnightblue" stroke="midnightblue" points="553.886,-320.48 543.351,-321.611 552.292,-327.296 553.886,-320.48"/>
</g>
<!-- Node17 -->
<g id="node18" class="node"><title>Node17</title>
<g id="a_node18"><a xlink:href="../../d9/dcf/DependencyBuilderPass_8h.xhtml" target="_top" xlink:title="enfield/Transform/Dependency\lBuilderPass.h">
<polygon fill="none" stroke="black" points="686,-291.5 686,-321.5 836,-321.5 836,-291.5 686,-291.5"/>
<text text-anchor="start" x="694" y="-309.5" font-family="Helvetica,sans-Serif" font-size="10.00">enfield/Transform/Dependency</text>
<text text-anchor="middle" x="761" y="-298.5" font-family="Helvetica,sans-Serif" font-size="10.00">BuilderPass.h</text>
</a>
</g>
</g>
<!-- Node0&#45;&gt;Node17 -->
<g id="edge20" class="edge"><title>Node0&#45;&gt;Node17</title>
<path fill="none" stroke="midnightblue" d="M761,-358.396C761,-350.645 761,-340.812 761,-331.86"/>
<polygon fill="midnightblue" stroke="midnightblue" points="764.5,-331.576 761,-321.577 757.5,-331.577 764.5,-331.576"/>
</g>
<!-- Node26 -->
<g id="node27" class="node"><title>Node26</title>
<g id="a_node27"><a xlink:href="../../db/d82/PassCache_8h.xhtml" target="_top" xlink:title="enfield/Transform/PassCache.h">
<polygon fill="none" stroke="black" points="974.5,-230 974.5,-249 1129.5,-249 1129.5,-230 974.5,-230"/>
<text text-anchor="middle" x="1052" y="-237" font-family="Helvetica,sans-Serif" font-size="10.00">enfield/Transform/PassCache.h</text>
</a>
</g>
</g>
<!-- Node0&#45;&gt;Node26 -->
<g id="edge46" class="edge"><title>Node0&#45;&gt;Node26</title>
<path fill="none" stroke="midnightblue" d="M791.867,-358.499C848.718,-332.71 969.158,-278.078 1023.88,-253.254"/>
<polygon fill="midnightblue" stroke="midnightblue" points="1025.34,-256.436 1033,-249.117 1022.45,-250.061 1025.34,-256.436"/>
</g>
<!-- Node2 -->
<g id="node3" class="node"><title>Node2</title>
<g id="a_node3"><a xlink:href="../../df/d29/Pass_8h.xhtml" target="_top" xlink:title="enfield/Transform/Pass.h">
<polygon fill="none" stroke="black" points="822,-112.5 822,-131.5 948,-131.5 948,-112.5 822,-112.5"/>
<text text-anchor="middle" x="885" y="-119.5" font-family="Helvetica,sans-Serif" font-size="10.00">enfield/Transform/Pass.h</text>
</a>
</g>
</g>
<!-- Node1&#45;&gt;Node2 -->
<g id="edge2" class="edge"><title>Node1&#45;&gt;Node2</title>
<path fill="none" stroke="midnightblue" d="M484.491,-291.262C488.34,-262.484 501.423,-197.619 543,-168 545.73,-166.055 712.031,-144.806 811.697,-132.216"/>
<polygon fill="midnightblue" stroke="midnightblue" points="812.238,-135.676 821.721,-130.95 811.361,-128.731 812.238,-135.676"/>
</g>
<!-- Node4 -->
<g id="node5" class="node"><title>Node4</title>
<g id="a_node5"><a xlink:href="../../d6/df7/WeightedGraph_8h.xhtml" target="_top" xlink:title="enfield/Support/Weighted\lGraph.h">
<polygon fill="none" stroke="black" points="232,-224.5 232,-254.5 358,-254.5 358,-224.5 232,-224.5"/>
<text text-anchor="start" x="240" y="-242.5" font-family="Helvetica,sans-Serif" font-size="10.00">enfield/Support/Weighted</text>
<text text-anchor="middle" x="295" y="-231.5" font-family="Helvetica,sans-Serif" font-size="10.00">Graph.h</text>
</a>
</g>
</g>
<!-- Node1&#45;&gt;Node4 -->
<g id="edge4" class="edge"><title>Node1&#45;&gt;Node4</title>
<path fill="none" stroke="midnightblue" d="M442.207,-291.396C413.752,-281.558 375.599,-268.367 345.265,-257.879"/>
<polygon fill="midnightblue" stroke="midnightblue" points="346.308,-254.536 335.714,-254.577 344.021,-261.152 346.308,-254.536"/>
</g>
<!-- Node13 -->
<g id="node14" class="node"><title>Node13</title>
<polygon fill="none" stroke="#bfbfbf" points="552.5,-168.5 552.5,-187.5 587.5,-187.5 587.5,-168.5 552.5,-168.5"/>
<text text-anchor="middle" x="570" y="-175.5" font-family="Helvetica,sans-Serif" font-size="10.00">map</text>
</g>
<!-- Node1&#45;&gt;Node13 -->
<g id="edge19" class="edge"><title>Node1&#45;&gt;Node13</title>
<path fill="none" stroke="midnightblue" d="M492.643,-291.479C508.649,-268.206 540.658,-221.663 558.064,-196.355"/>
<polygon fill="midnightblue" stroke="midnightblue" points="561.173,-198.011 563.956,-187.789 555.405,-194.045 561.173,-198.011"/>
</g>
<!-- Node3 -->
<g id="node4" class="node"><title>Node3</title>
<polygon fill="none" stroke="#bfbfbf" points="739,-56.5 739,-75.5 791,-75.5 791,-56.5 739,-56.5"/>
<text text-anchor="middle" x="765" y="-63.5" font-family="Helvetica,sans-Serif" font-size="10.00">memory</text>
</g>
<!-- Node2&#45;&gt;Node3 -->
<g id="edge3" class="edge"><title>Node2&#45;&gt;Node3</title>
<path fill="none" stroke="midnightblue" d="M865.986,-112.444C846.412,-103.636 815.692,-89.8116 793.271,-79.722"/>
<polygon fill="midnightblue" stroke="midnightblue" points="794.481,-76.4284 783.925,-75.5164 791.608,-82.8119 794.481,-76.4284"/>
</g>
<!-- Node5 -->
<g id="node6" class="node"><title>Node5</title>
<g id="a_node6"><a xlink:href="../../d7/d16/Graph_8h.xhtml" target="_top" xlink:title="enfield/Support/Graph.h">
<polygon fill="none" stroke="black" points="376.5,-168.5 376.5,-187.5 495.5,-187.5 495.5,-168.5 376.5,-168.5"/>
<text text-anchor="middle" x="436" y="-175.5" font-family="Helvetica,sans-Serif" font-size="10.00">enfield/Support/Graph.h</text>
</a>
</g>
</g>
<!-- Node4&#45;&gt;Node5 -->
<g id="edge5" class="edge"><title>Node4&#45;&gt;Node5</title>
<path fill="none" stroke="midnightblue" d="M328.415,-224.399C351.967,-214.461 383.238,-201.265 405.993,-191.662"/>
<polygon fill="midnightblue" stroke="midnightblue" points="407.631,-194.77 415.483,-187.658 404.909,-188.321 407.631,-194.77"/>
</g>
<!-- Node9 -->
<g id="node10" class="node"><title>Node9</title>
<g id="a_node10"><a xlink:href="../../d1/d73/Defs_8h.xhtml" target="_top" xlink:title="enfield/Support/Defs.h">
<polygon fill="none" stroke="black" points="0,-168.5 0,-187.5 114,-187.5 114,-168.5 0,-168.5"/>
<text text-anchor="middle" x="57" y="-175.5" font-family="Helvetica,sans-Serif" font-size="10.00">enfield/Support/Defs.h</text>
</a>
</g>
</g>
<!-- Node4&#45;&gt;Node9 -->
<g id="edge10" class="edge"><title>Node4&#45;&gt;Node9</title>
<path fill="none" stroke="midnightblue" d="M238.899,-224.475C196.763,-213.941 139.863,-199.716 100.991,-189.998"/>
<polygon fill="midnightblue" stroke="midnightblue" points="101.576,-186.536 91.0255,-187.506 99.878,-193.327 101.576,-186.536"/>
</g>
<!-- Node4&#45;&gt;Node13 -->
<g id="edge15" class="edge"><title>Node4&#45;&gt;Node13</title>
<path fill="none" stroke="midnightblue" d="M358.091,-224.849C416.126,-212.293 499.469,-194.26 542.286,-184.996"/>
<polygon fill="midnightblue" stroke="midnightblue" points="543.225,-188.374 552.258,-182.839 541.744,-181.533 543.225,-188.374"/>
</g>
<!-- Node14 -->
<g id="node15" class="node"><title>Node14</title>
<polygon fill="none" stroke="#bfbfbf" points="132,-168.5 132,-187.5 182,-187.5 182,-168.5 132,-168.5"/>
<text text-anchor="middle" x="157" y="-175.5" font-family="Helvetica,sans-Serif" font-size="10.00">fstream</text>
</g>
<!-- Node4&#45;&gt;Node14 -->
<g id="edge16" class="edge"><title>Node4&#45;&gt;Node14</title>
<path fill="none" stroke="midnightblue" d="M262.296,-224.399C239.245,-214.461 208.64,-201.265 186.368,-191.662"/>
<polygon fill="midnightblue" stroke="midnightblue" points="187.649,-188.403 177.08,-187.658 184.877,-194.831 187.649,-188.403"/>
</g>
<!-- Node15 -->
<g id="node16" class="node"><title>Node15</title>
<polygon fill="none" stroke="#bfbfbf" points="200,-168.5 200,-187.5 252,-187.5 252,-168.5 200,-168.5"/>
<text text-anchor="middle" x="226" y="-175.5" font-family="Helvetica,sans-Serif" font-size="10.00">sstream</text>
</g>
<!-- Node4&#45;&gt;Node15 -->
<g id="edge17" class="edge"><title>Node4&#45;&gt;Node15</title>
<path fill="none" stroke="midnightblue" d="M278.648,-224.399C268.105,-215.308 254.4,-203.49 243.616,-194.191"/>
<polygon fill="midnightblue" stroke="midnightblue" points="245.899,-191.538 236.04,-187.658 241.328,-196.839 245.899,-191.538"/>
</g>
<!-- Node16 -->
<g id="node17" class="node"><title>Node16</title>
<polygon fill="none" stroke="#bfbfbf" points="270.5,-168.5 270.5,-187.5 319.5,-187.5 319.5,-168.5 270.5,-168.5"/>
<text text-anchor="middle" x="295" y="-175.5" font-family="Helvetica,sans-Serif" font-size="10.00">cassert</text>
</g>
<!-- Node4&#45;&gt;Node16 -->
<g id="edge18" class="edge"><title>Node4&#45;&gt;Node16</title>
<path fill="none" stroke="midnightblue" d="M295,-224.399C295,-216.466 295,-206.458 295,-197.858"/>
<polygon fill="midnightblue" stroke="midnightblue" points="298.5,-197.658 295,-187.658 291.5,-197.658 298.5,-197.658"/>
</g>
<!-- Node5&#45;&gt;Node3 -->
<g id="edge9" class="edge"><title>Node5&#45;&gt;Node3</title>
<path fill="none" stroke="midnightblue" d="M456.983,-168.431C489.185,-155.426 552.855,-130.288 608,-112 649.163,-98.3487 697.181,-84.9467 729.17,-76.3689"/>
<polygon fill="midnightblue" stroke="midnightblue" points="730.202,-79.7161 738.964,-73.7593 728.4,-72.9521 730.202,-79.7161"/>
</g>
<!-- Node6 -->
<g id="node7" class="node"><title>Node6</title>
<polygon fill="none" stroke="#bfbfbf" points="617,-112.5 617,-131.5 647,-131.5 647,-112.5 617,-112.5"/>
<text text-anchor="middle" x="632" y="-119.5" font-family="Helvetica,sans-Serif" font-size="10.00">set</text>
</g>
<!-- Node5&#45;&gt;Node6 -->
<g id="edge6" class="edge"><title>Node5&#45;&gt;Node6</title>
<path fill="none" stroke="midnightblue" d="M467.057,-168.444C505.765,-157.779 571.164,-139.761 606.878,-129.921"/>
<polygon fill="midnightblue" stroke="midnightblue" points="607.821,-133.292 616.532,-127.262 605.962,-126.544 607.821,-133.292"/>
</g>
<!-- Node7 -->
<g id="node8" class="node"><title>Node7</title>
<polygon fill="none" stroke="#bfbfbf" points="414,-56.5 414,-75.5 458,-75.5 458,-56.5 414,-56.5"/>
<text text-anchor="middle" x="436" y="-63.5" font-family="Helvetica,sans-Serif" font-size="10.00">vector</text>
</g>
<!-- Node5&#45;&gt;Node7 -->
<g id="edge7" class="edge"><title>Node5&#45;&gt;Node7</title>
<path fill="none" stroke="midnightblue" d="M436,-168.368C436,-150.617 436,-109.666 436,-85.5974"/>
<polygon fill="midnightblue" stroke="midnightblue" points="439.5,-85.5914 436,-75.5914 432.5,-85.5915 439.5,-85.5914"/>
</g>
<!-- Node8 -->
<g id="node9" class="node"><title>Node8</title>
<polygon fill="none" stroke="#bfbfbf" points="720.5,-112.5 720.5,-131.5 803.5,-131.5 803.5,-112.5 720.5,-112.5"/>
<text text-anchor="middle" x="762" y="-119.5" font-family="Helvetica,sans-Serif" font-size="10.00">unordered_map</text>
</g>
<!-- Node5&#45;&gt;Node8 -->
<g id="edge8" class="edge"><title>Node5&#45;&gt;Node8</title>
<path fill="none" stroke="midnightblue" d="M487.656,-168.444C548.585,-158.351 649.273,-141.673 710.245,-131.573"/>
<polygon fill="midnightblue" stroke="midnightblue" points="711.12,-134.976 720.413,-129.889 709.976,-128.07 711.12,-134.976"/>
</g>
<!-- Node9&#45;&gt;Node7 -->
<g id="edge11" class="edge"><title>Node9&#45;&gt;Node7</title>
<path fill="none" stroke="midnightblue" d="M46.6938,-168.119C32.3395,-154.707 9.71905,-129.045 25,-112 50.1766,-83.9163 311.05,-71.614 403.631,-68.1098"/>
<polygon fill="midnightblue" stroke="midnightblue" points="403.947,-71.6006 413.811,-67.7345 403.689,-64.6054 403.947,-71.6006"/>
</g>
<!-- Node10 -->
<g id="node11" class="node"><title>Node10</title>
<polygon fill="none" stroke="#bfbfbf" points="34,-112.5 34,-131.5 80,-131.5 80,-112.5 34,-112.5"/>
<text text-anchor="middle" x="57" y="-119.5" font-family="Helvetica,sans-Serif" font-size="10.00">cstdint</text>
</g>
<!-- Node9&#45;&gt;Node10 -->
<g id="edge12" class="edge"><title>Node9&#45;&gt;Node10</title>
<path fill="none" stroke="midnightblue" d="M57,-168.083C57,-161.006 57,-150.861 57,-141.986"/>
<polygon fill="midnightblue" stroke="midnightblue" points="60.5001,-141.751 57,-131.751 53.5001,-141.751 60.5001,-141.751"/>
</g>
<!-- Node11 -->
<g id="node12" class="node"><title>Node11</title>
<polygon fill="none" stroke="#bfbfbf" points="98,-112.5 98,-131.5 138,-131.5 138,-112.5 98,-112.5"/>
<text text-anchor="middle" x="118" y="-119.5" font-family="Helvetica,sans-Serif" font-size="10.00">limits</text>
</g>
<!-- Node9&#45;&gt;Node11 -->
<g id="edge13" class="edge"><title>Node9&#45;&gt;Node11</title>
<path fill="none" stroke="midnightblue" d="M66.8007,-168.324C75.8181,-160.341 89.406,-148.313 100.318,-138.653"/>
<polygon fill="midnightblue" stroke="midnightblue" points="102.853,-141.083 108.021,-131.834 98.2134,-135.842 102.853,-141.083"/>
</g>
<!-- Node12 -->
<g id="node13" class="node"><title>Node12</title>
<polygon fill="none" stroke="#bfbfbf" points="156,-112.5 156,-131.5 208,-131.5 208,-112.5 156,-112.5"/>
<text text-anchor="middle" x="182" y="-119.5" font-family="Helvetica,sans-Serif" font-size="10.00">ostream</text>
</g>
<!-- Node9&#45;&gt;Node12 -->
<g id="edge14" class="edge"><title>Node9&#45;&gt;Node12</title>
<path fill="none" stroke="midnightblue" d="M76.8066,-168.444C97.2868,-159.596 129.483,-145.687 152.865,-135.586"/>
<polygon fill="midnightblue" stroke="midnightblue" points="154.494,-138.695 162.286,-131.516 151.718,-132.269 154.494,-138.695"/>
</g>
<!-- Node17&#45;&gt;Node2 -->
<g id="edge29" class="edge"><title>Node17&#45;&gt;Node2</title>
<path fill="none" stroke="midnightblue" d="M773.677,-291.338C782.309,-281.441 793.795,-267.763 803,-255 831.421,-215.593 860.436,-166.304 875.144,-140.54"/>
<polygon fill="midnightblue" stroke="midnightblue" points="878.324,-142.027 880.209,-131.601 872.234,-138.575 878.324,-142.027"/>
</g>
<!-- Node17&#45;&gt;Node6 -->
<g id="edge45" class="edge"><title>Node17&#45;&gt;Node6</title>
<path fill="none" stroke="midnightblue" d="M697.458,-291.423C677.635,-283.883 657.667,-272.403 645,-255 620.465,-221.291 624.132,-169.237 628.382,-141.648"/>
<polygon fill="midnightblue" stroke="midnightblue" points="631.838,-142.201 630.099,-131.75 624.941,-141.004 631.838,-142.201"/>
</g>
<!-- Node17&#45;&gt;Node7 -->
<g id="edge44" class="edge"><title>Node17&#45;&gt;Node7</title>
<path fill="none" stroke="midnightblue" d="M685.756,-293.991C582.343,-276.446 404.758,-239.532 367,-188 340.723,-152.137 387.776,-105.377 416.386,-81.8695"/>
<polygon fill="midnightblue" stroke="midnightblue" points="418.59,-84.5887 424.231,-75.6205 414.228,-79.1135 418.59,-84.5887"/>
</g>
<!-- Node17&#45;&gt;Node8 -->
<g id="edge42" class="edge"><title>Node17&#45;&gt;Node8</title>
<path fill="none" stroke="midnightblue" d="M770.701,-291.206C776.701,-281.472 783.842,-268.034 787,-255 796.756,-214.736 780.938,-166.798 770.338,-141.219"/>
<polygon fill="midnightblue" stroke="midnightblue" points="773.402,-139.488 766.205,-131.714 766.983,-142.28 773.402,-139.488"/>
</g>
<!-- Node17&#45;&gt;Node13 -->
<g id="edge43" class="edge"><title>Node17&#45;&gt;Node13</title>
<path fill="none" stroke="midnightblue" d="M685.777,-295.427C656.714,-288.259 624.994,-275.992 602,-255 585.434,-239.877 577.159,-214.797 573.232,-197.613"/>
<polygon fill="midnightblue" stroke="midnightblue" points="576.631,-196.763 571.236,-187.645 569.768,-198.138 576.631,-196.763"/>
</g>
<!-- Node18 -->
<g id="node19" class="node"><title>Node18</title>
<g id="a_node19"><a xlink:href="../../d4/daf/Nodes_8h.xhtml" target="_top" xlink:title="enfield/Analysis/Nodes.h">
<polygon fill="none" stroke="black" points="966.5,-112.5 966.5,-131.5 1091.5,-131.5 1091.5,-112.5 966.5,-112.5"/>
<text text-anchor="middle" x="1029" y="-119.5" font-family="Helvetica,sans-Serif" font-size="10.00">enfield/Analysis/Nodes.h</text>
</a>
</g>
</g>
<!-- Node17&#45;&gt;Node18 -->
<g id="edge21" class="edge"><title>Node17&#45;&gt;Node18</title>
<path fill="none" stroke="midnightblue" d="M836.213,-300.672C940.494,-293.201 1118.46,-277.333 1138,-255 1156.38,-233.996 1119.62,-170.936 1117,-168 1103.82,-153.229 1084.65,-142.632 1067.57,-135.447"/>
<polygon fill="midnightblue" stroke="midnightblue" points="1068.39,-132.012 1057.81,-131.606 1065.83,-138.526 1068.39,-132.012"/>
</g>
<!-- Node24 -->
<g id="node25" class="node"><title>Node24</title>
<g id="a_node25"><a xlink:href="../../d4/d73/QModule_8h.xhtml" target="_top" xlink:title="enfield/Transform/QModule.h">
<polygon fill="none" stroke="black" points="948.5,-168.5 948.5,-187.5 1091.5,-187.5 1091.5,-168.5 948.5,-168.5"/>
<text text-anchor="middle" x="1020" y="-175.5" font-family="Helvetica,sans-Serif" font-size="10.00">enfield/Transform/QModule.h</text>
</a>
</g>
</g>
<!-- Node17&#45;&gt;Node24 -->
<g id="edge30" class="edge"><title>Node17&#45;&gt;Node24</title>
<path fill="none" stroke="midnightblue" d="M823.435,-291.469C854.147,-283.201 891.108,-271.153 922,-255 930.571,-250.518 975.392,-214.885 1001.35,-194.039"/>
<polygon fill="midnightblue" stroke="midnightblue" points="1003.75,-196.598 1009.35,-187.603 999.367,-191.144 1003.75,-196.598"/>
</g>
<!-- Node25 -->
<g id="node26" class="node"><title>Node25</title>
<g id="a_node26"><a xlink:href="../../d6/d94/XbitToNumberPass_8h.xhtml" target="_top" xlink:title="enfield/Transform/XbitTo\lNumberPass.h">
<polygon fill="none" stroke="black" points="654,-224.5 654,-254.5 778,-254.5 778,-224.5 654,-224.5"/>
<text text-anchor="start" x="662" y="-242.5" font-family="Helvetica,sans-Serif" font-size="10.00">enfield/Transform/XbitTo</text>
<text text-anchor="middle" x="716" y="-231.5" font-family="Helvetica,sans-Serif" font-size="10.00">NumberPass.h</text>
</a>
</g>
</g>
<!-- Node17&#45;&gt;Node25 -->
<g id="edge34" class="edge"><title>Node17&#45;&gt;Node25</title>
<path fill="none" stroke="midnightblue" d="M751.236,-291.396C745.457,-283.049 738.006,-272.287 731.446,-262.811"/>
<polygon fill="midnightblue" stroke="midnightblue" points="734.315,-260.806 725.745,-254.577 728.56,-264.791 734.315,-260.806"/>
</g>
<!-- Node18&#45;&gt;Node3 -->
<g id="edge28" class="edge"><title>Node18&#45;&gt;Node3</title>
<path fill="none" stroke="midnightblue" d="M981.465,-112.486C937.208,-104.373 869.183,-91.4337 801.339,-76.2077"/>
<polygon fill="midnightblue" stroke="midnightblue" points="801.86,-72.737 791.334,-73.9449 800.315,-79.5646 801.86,-72.737"/>
</g>
<!-- Node18&#45;&gt;Node7 -->
<g id="edge27" class="edge"><title>Node18&#45;&gt;Node7</title>
<path fill="none" stroke="midnightblue" d="M966.188,-113.005C963.082,-112.655 960.007,-112.318 957,-112 772.307,-92.4877 550.108,-75.4252 468.276,-69.3567"/>
<polygon fill="midnightblue" stroke="midnightblue" points="468.35,-65.8526 458.119,-68.6065 467.834,-72.8336 468.35,-65.8526"/>
</g>
<!-- Node19 -->
<g id="node20" class="node"><title>Node19</title>
<g id="a_node20"><a xlink:href="../../d1/d2e/WrapperVal_8h.xhtml" target="_top" xlink:title="enfield/Support/WrapperVal.h">
<polygon fill="none" stroke="black" points="809,-56.5 809,-75.5 953,-75.5 953,-56.5 809,-56.5"/>
<text text-anchor="middle" x="881" y="-63.5" font-family="Helvetica,sans-Serif" font-size="10.00">enfield/Support/WrapperVal.h</text>
</a>
</g>
</g>
<!-- Node18&#45;&gt;Node19 -->
<g id="edge22" class="edge"><title>Node18&#45;&gt;Node19</title>
<path fill="none" stroke="midnightblue" d="M1005.55,-112.444C980.867,-103.438 941.815,-89.1891 914.023,-79.049"/>
<polygon fill="midnightblue" stroke="midnightblue" points="914.935,-75.6561 904.341,-75.5164 912.536,-82.2321 914.935,-75.6561"/>
</g>
<!-- Node21 -->
<g id="node22" class="node"><title>Node21</title>
<g id="a_node22"><a xlink:href="../../d5/dfc/RTTI_8h.xhtml" target="_top" xlink:title="enfield/Support/RTTI.h">
<polygon fill="none" stroke="black" points="971,-56.5 971,-75.5 1087,-75.5 1087,-56.5 971,-56.5"/>
<text text-anchor="middle" x="1029" y="-63.5" font-family="Helvetica,sans-Serif" font-size="10.00">enfield/Support/RTTI.h</text>
</a>
</g>
</g>
<!-- Node18&#45;&gt;Node21 -->
<g id="edge24" class="edge"><title>Node18&#45;&gt;Node21</title>
<path fill="none" stroke="midnightblue" d="M1029,-112.083C1029,-105.006 1029,-94.8611 1029,-85.9865"/>
<polygon fill="midnightblue" stroke="midnightblue" points="1032.5,-85.751 1029,-75.7511 1025.5,-85.7511 1032.5,-85.751"/>
</g>
<!-- Node22 -->
<g id="node23" class="node"><title>Node22</title>
<polygon fill="none" stroke="#bfbfbf" points="1105.5,-56.5 1105.5,-75.5 1178.5,-75.5 1178.5,-56.5 1105.5,-56.5"/>
<text text-anchor="middle" x="1142" y="-63.5" font-family="Helvetica,sans-Serif" font-size="10.00">initializer_list</text>
</g>
<!-- Node18&#45;&gt;Node22 -->
<g id="edge25" class="edge"><title>Node18&#45;&gt;Node22</title>
<path fill="none" stroke="midnightblue" d="M1046.91,-112.444C1065.25,-103.675 1094.01,-89.9355 1115.09,-79.8579"/>
<polygon fill="midnightblue" stroke="midnightblue" points="1116.67,-82.9862 1124.18,-75.5164 1113.65,-76.6703 1116.67,-82.9862"/>
</g>
<!-- Node23 -->
<g id="node24" class="node"><title>Node23</title>
<polygon fill="none" stroke="#bfbfbf" points="1197,-56.5 1197,-75.5 1251,-75.5 1251,-56.5 1197,-56.5"/>
<text text-anchor="middle" x="1224" y="-63.5" font-family="Helvetica,sans-Serif" font-size="10.00">iostream</text>
</g>
<!-- Node18&#45;&gt;Node23 -->
<g id="edge26" class="edge"><title>Node18&#45;&gt;Node23</title>
<path fill="none" stroke="midnightblue" d="M1059.9,-112.444C1094.35,-102.902 1150.06,-87.4744 1186.86,-77.2841"/>
<polygon fill="midnightblue" stroke="midnightblue" points="1188,-80.5999 1196.71,-74.558 1186.14,-73.8538 1188,-80.5999"/>
</g>
<!-- Node20 -->
<g id="node21" class="node"><title>Node20</title>
<polygon fill="none" stroke="#bfbfbf" points="860.5,-0.5 860.5,-19.5 901.5,-19.5 901.5,-0.5 860.5,-0.5"/>
<text text-anchor="middle" x="881" y="-7.5" font-family="Helvetica,sans-Serif" font-size="10.00">string</text>
</g>
<!-- Node19&#45;&gt;Node20 -->
<g id="edge23" class="edge"><title>Node19&#45;&gt;Node20</title>
<path fill="none" stroke="midnightblue" d="M881,-56.083C881,-49.0059 881,-38.8611 881,-29.9865"/>
<polygon fill="midnightblue" stroke="midnightblue" points="884.5,-29.751 881,-19.7511 877.5,-29.7511 884.5,-29.751"/>
</g>
<!-- Node24&#45;&gt;Node2 -->
<g id="edge32" class="edge"><title>Node24&#45;&gt;Node2</title>
<path fill="none" stroke="midnightblue" d="M998.609,-168.444C976.293,-159.517 941.097,-145.439 915.792,-135.317"/>
<polygon fill="midnightblue" stroke="midnightblue" points="916.876,-131.981 906.291,-131.516 914.276,-138.48 916.876,-131.981"/>
</g>
<!-- Node24&#45;&gt;Node8 -->
<g id="edge33" class="edge"><title>Node24&#45;&gt;Node8</title>
<path fill="none" stroke="midnightblue" d="M979.119,-168.444C934.017,-159.004 861.388,-143.802 812.698,-133.611"/>
<polygon fill="midnightblue" stroke="midnightblue" points="813.195,-130.139 802.69,-131.516 811.76,-136.991 813.195,-130.139"/>
</g>
<!-- Node24&#45;&gt;Node18 -->
<g id="edge31" class="edge"><title>Node24&#45;&gt;Node18</title>
<path fill="none" stroke="midnightblue" d="M1021.49,-168.083C1022.68,-160.927 1024.39,-150.635 1025.88,-141.691"/>
<polygon fill="midnightblue" stroke="midnightblue" points="1029.35,-142.19 1027.54,-131.751 1022.45,-141.04 1029.35,-142.19"/>
</g>
<!-- Node25&#45;&gt;Node2 -->
<g id="edge35" class="edge"><title>Node25&#45;&gt;Node2</title>
<path fill="none" stroke="midnightblue" d="M736.723,-224.337C769.11,-202.203 831.383,-159.644 863.963,-137.378"/>
<polygon fill="midnightblue" stroke="midnightblue" points="866.034,-140.202 872.315,-131.669 862.084,-134.422 866.034,-140.202"/>
</g>
<!-- Node25&#45;&gt;Node6 -->
<g id="edge40" class="edge"><title>Node25&#45;&gt;Node6</title>
<path fill="none" stroke="midnightblue" d="M705.242,-224.433C697.572,-214.348 687.056,-200.408 678,-188 666.326,-172.005 653.315,-153.561 644.118,-140.415"/>
<polygon fill="midnightblue" stroke="midnightblue" points="646.762,-138.087 638.169,-131.89 641.021,-142.093 646.762,-138.087"/>
</g>
<!-- Node25&#45;&gt;Node7 -->
<g id="edge39" class="edge"><title>Node25&#45;&gt;Node7</title>
<path fill="none" stroke="midnightblue" d="M713.512,-224.133C708.115,-197.552 692.73,-140.792 656,-112 627.164,-89.3956 522.066,-75.7252 468.243,-70.0558"/>
<polygon fill="midnightblue" stroke="midnightblue" points="468.504,-66.5643 458.2,-69.0283 467.792,-73.528 468.504,-66.5643"/>
</g>
<!-- Node25&#45;&gt;Node8 -->
<g id="edge38" class="edge"><title>Node25&#45;&gt;Node8</title>
<path fill="none" stroke="midnightblue" d="M721.641,-224.337C729.966,-203.433 745.548,-164.31 754.724,-141.27"/>
<polygon fill="midnightblue" stroke="midnightblue" points="758.099,-142.255 758.547,-131.669 751.596,-139.665 758.099,-142.255"/>
</g>
<!-- Node25&#45;&gt;Node13 -->
<g id="edge41" class="edge"><title>Node25&#45;&gt;Node13</title>
<path fill="none" stroke="midnightblue" d="M681.4,-224.399C655.576,-213.875 620.788,-199.698 597,-190.003"/>
<polygon fill="midnightblue" stroke="midnightblue" points="598.118,-186.679 587.536,-186.147 595.476,-193.162 598.118,-186.679"/>
</g>
<!-- Node25&#45;&gt;Node18 -->
<g id="edge37" class="edge"><title>Node25&#45;&gt;Node18</title>
<path fill="none" stroke="midnightblue" d="M754.067,-224.453C816.133,-201.55 938.049,-156.562 996.388,-135.034"/>
<polygon fill="midnightblue" stroke="midnightblue" points="997.681,-138.288 1005.85,-131.542 995.257,-131.721 997.681,-138.288"/>
</g>
<!-- Node25&#45;&gt;Node24 -->
<g id="edge36" class="edge"><title>Node25&#45;&gt;Node24</title>
<path fill="none" stroke="midnightblue" d="M778.253,-226.316C833.622,-215.479 913.747,-199.796 966.343,-189.502"/>
<polygon fill="midnightblue" stroke="midnightblue" points="967.338,-192.874 976.48,-187.518 965.993,-186.004 967.338,-192.874"/>
</g>
<!-- Node26&#45;&gt;Node2 -->
<g id="edge47" class="edge"><title>Node26&#45;&gt;Node2</title>
<path fill="none" stroke="midnightblue" d="M1065.33,-229.925C1084.87,-216.315 1117.18,-189.147 1100,-168 1090.67,-156.511 1013.56,-142.404 954.333,-133.082"/>
<polygon fill="midnightblue" stroke="midnightblue" points="954.669,-129.592 944.25,-131.514 953.593,-136.509 954.669,-129.592"/>
</g>
<!-- Node26&#45;&gt;Node6 -->
<g id="edge49" class="edge"><title>Node26&#45;&gt;Node6</title>
<path fill="none" stroke="midnightblue" d="M1020.77,-229.913C940.685,-207.888 729.183,-149.725 656.748,-129.806"/>
<polygon fill="midnightblue" stroke="midnightblue" points="657.672,-126.43 647.102,-127.153 655.816,-133.179 657.672,-126.43"/>
</g>
<!-- Node26&#45;&gt;Node24 -->
<g id="edge48" class="edge"><title>Node26&#45;&gt;Node24</title>
<path fill="none" stroke="midnightblue" d="M1047.42,-229.975C1042.76,-221.315 1035.41,-207.649 1029.49,-196.645"/>
<polygon fill="midnightblue" stroke="midnightblue" points="1032.4,-194.658 1024.58,-187.509 1026.23,-197.974 1032.4,-194.658"/>
</g>
</g>
</svg>
        <g id="navigator" transform="translate(0 0)" fill="#404254">
                <rect fill="#f2f5e9" fill-opacity="0.5" stroke="#606060" stroke-width=".5" x="0" y="0" width="60" height="60"/>
                <use id="zoomplus" xlink:href="#zoomPlus" x="17" y="9" onmousedown="handleZoom(evt,'in')"/>
                <use id="zoomminus" xlink:href="#zoomMin" x="42" y="9" onmousedown="handleZoom(evt,'out')"/>
                <use id="reset" xlink:href="#resetDef" x="30" y="36" onmousedown="handleReset()"/>
                <g id="arrowUp" xlink:href="#dirArrow" transform="translate(30 24)" onmousedown="handlePan(0,-1)">
                  <use xlink:href="#rim" fill="#404040">
                        <set attributeName="fill" to="#808080" begin="arrowUp.mouseover" end="arrowUp.mouseout"/>
                  </use>
                  <path fill="none" stroke="white" stroke-width="1.5" d="M0,-3.0v7 M-2.5,-0.5L0,-3.0L2.5,-0.5"/>
                </g>
                <g id="arrowRight" xlink:href="#dirArrow" transform="rotate(90) translate(36 -43)" onmousedown="handlePan(1,0)">
                  <use xlink:href="#rim" fill="#404040">
                        <set attributeName="fill" to="#808080" begin="arrowRight.mouseover" end="arrowRight.mouseout"/>
                  </use>
                  <path fill="none" stroke="white" stroke-width="1.5" d="M0,-3.0v7 M-2.5,-0.5L0,-3.0L2.5,-0.5"/>
                </g>
                <g id="arrowDown" xlink:href="#dirArrow" transform="rotate(180) translate(-30 -48)" onmousedown="handlePan(0,1)">
                  <use xlink:href="#rim" fill="#404040">
                        <set attributeName="fill" to="#808080" begin="arrowDown.mouseover" end="arrowDown.mouseout"/>
                  </use>
                  <path fill="none" stroke="white" stroke-width="1.5" d="M0,-3.0v7 M-2.5,-0.5L0,-3.0L2.5,-0.5"/>
                </g>
                <g id="arrowLeft" xlink:href="#dirArrow" transform="rotate(270) translate(-36 17)" onmousedown="handlePan(-1,0)">
                  <use xlink:href="#rim" fill="#404040">
                        <set attributeName="fill" to="#808080" begin="arrowLeft.mouseover" end="arrowLeft.mouseout"/>
                  </use>
                  <path fill="none" stroke="white" stroke-width="1.5" d="M0,-3.0v7 M-2.5,-0.5L0,-3.0L2.5,-0.5"/>
                </g>
        </g>
        <svg viewBox="0 0 15 15" width="100%" height="30px" preserveAspectRatio="xMaxYMin meet">
         <g id="arrow_out" transform="scale(0.3 0.3)">
          <a xlink:href="DependencyGraphBuilderPass_8cpp__incl_org.svg" target="_base">
           <rect id="button" ry="5" rx="5" y="6" x="6" height="38" width="38"
                fill="#f2f5e9" fill-opacity="0.5" stroke="#606060" stroke-width="1.0"/>
           <path id="arrow"
             d="M 11.500037,31.436501 C 11.940474,20.09759 22.043105,11.32322 32.158766,21.979434 L 37.068811,17.246167 C 37.068811,17.246167 37.088388,32 37.088388,32 L 22.160133,31.978069 C 22.160133,31.978069 26.997745,27.140456 26.997745,27.140456 C 18.528582,18.264221 13.291696,25.230495 11.500037,31.436501 z"
             style="fill:#404040;"/>
          </a>
         </g>
        </svg>
</svg>
