<?xml version="1.0" encoding="UTF-8" standalone="no"?>
<!DOCTYPE svg PUBLIC "-//W3C//DTD SVG 1.1//EN"
 "http://www.w3.org/Graphics/SVG/1.1/DTD/svg11.dtd">
<!-- Generated by graphviz version 2.40.1 (20161225.0304)
 -->
<!-- Title: lib/Transform/DependencyGraphBuilderPass.cpp Pages: 1 -->
<!--zoomable 397 -->
<svg id="main" version="1.1" xmlns="http://www.w3.org/2000/svg" xmlns:xlink="http://www.w3.org/1999/xlink" xml:space="preserve" onload="init(evt)">
<style type="text/css"><![CDATA[
.edge:hover path { stroke: red; }
.edge:hover polygon { stroke: red; fill: red; }
]]></style>
<script type="text/javascript"><![CDATA[
var edges = document.getElementsByTagName('g');
if (edges && edges.length) {
  for (var i=0;i<edges.length;i++) {
    if (edges[i].id.substr(0,4)=='edge') {
      edges[i].setAttribute('class','edge');
    }
  }
}
]]></script>
        <defs>
                <circle id="rim" cx="0" cy="0" r="7"/>
                <circle id="rim2" cx="0" cy="0" r="3.5"/>
                <g id="zoomPlus">
                        <use xlink:href="#rim" fill="#404040">
                                <set attributeName="fill" to="#808080" begin="zoomplus.mouseover" end="zoomplus.mouseout"/>
                        </use>
                        <path d="M-4,0h8M0,-4v8" fill="none" stroke="white" stroke-width="1.5" pointer-events="none"/>
                </g>
                <g id="zoomMin">
                        <use xlink:href="#rim" fill="#404040">
                                <set attributeName="fill" to="#808080" begin="zoomminus.mouseover" end="zoomminus.mouseout"/>
                        </use>
                        <path d="M-4,0h8" fill="none" stroke="white" stroke-width="1.5" pointer-events="none"/>
                </g>
                <g id="dirArrow">
                        <path fill="none" stroke="white" stroke-width="1.5" d="M0,-3.0v7 M-2.5,-0.5L0,-3.0L2.5,-0.5"/>
                </g>
               <g id="resetDef">
                       <use xlink:href="#rim2" fill="#404040">
                               <set attributeName="fill" to="#808080" begin="reset.mouseover" end="reset.mouseout"/>
                       </use>
               </g>
        </defs>

<script type="text/javascript">
var viewWidth = 1212;
var viewHeight = 397;
var sectionId = 'dynsection-0';
</script>
<script xlink:href="../../svgpan.js"/>
<svg id="graph" class="graph">
<g id="viewport">
<title>lib/Transform/DependencyGraphBuilderPass.cpp</title>
<!-- Node0 -->
<g id="node1" class="node">
<title>Node0</title>
<polygon fill="#bfbfbf" stroke="#000000" points="654.5,-358.5 654.5,-388.5 800.5,-388.5 800.5,-358.5 654.5,-358.5"/>
<text text-anchor="start" x="662.5" y="-376.5" font-family="Helvetica,sans-Serif" font-size="10.00" fill="#000000">lib/Transform/Dependency</text>
<text text-anchor="middle" x="727.5" y="-365.5" font-family="Helvetica,sans-Serif" font-size="10.00" fill="#000000">GraphBuilderPass.cpp</text>
</g>
<!-- Node1 -->
<g id="node2" class="node">
<title>Node1</title>
<g id="a_node2"><a xlink:href="../../d9/d58/DependencyGraphBuilderPass_8h.xhtml" target="_top" xlink:title="enfield/Transform/Dependency\lGraphBuilderPass.h">
<polygon fill="none" stroke="#000000" points="366,-291.5 366,-321.5 533,-321.5 533,-291.5 366,-291.5"/>
<text text-anchor="start" x="374" y="-309.5" font-family="Helvetica,sans-Serif" font-size="10.00" fill="#000000">enfield/Transform/Dependency</text>
<text text-anchor="middle" x="449.5" y="-298.5" font-family="Helvetica,sans-Serif" font-size="10.00" fill="#000000">GraphBuilderPass.h</text>
</a>
</g>
</g>
<!-- Node0&#45;&gt;Node1 -->
<g id="edge1" class="edge">
<title>Node0&#45;&gt;Node1</title>
<path fill="none" stroke="#191970" d="M665.1114,-358.4639C622.695,-348.2412 566.4373,-334.6827 522.0235,-323.9787"/>
<polygon fill="#191970" stroke="#191970" points="522.7025,-320.5422 512.1607,-321.6017 521.0623,-327.3473 522.7025,-320.5422"/>
</g>
<!-- Node16 -->
<g id="node17" class="node">
<title>Node16</title>
<g id="a_node17"><a xlink:href="../../d9/dcf/DependencyBuilderPass_8h.xhtml" target="_top" xlink:title="enfield/Transform/Dependency\lBuilderPass.h">
<polygon fill="none" stroke="#000000" points="644,-291.5 644,-321.5 811,-321.5 811,-291.5 644,-291.5"/>
<text text-anchor="start" x="652" y="-309.5" font-family="Helvetica,sans-Serif" font-size="10.00" fill="#000000">enfield/Transform/Dependency</text>
<text text-anchor="middle" x="727.5" y="-298.5" font-family="Helvetica,sans-Serif" font-size="10.00" fill="#000000">BuilderPass.h</text>
</a>
</g>
</g>
<!-- Node0&#45;&gt;Node16 -->
<g id="edge19" class="edge">
<title>Node0&#45;&gt;Node16</title>
<path fill="none" stroke="#191970" d="M727.5,-358.2967C727.5,-350.5013 727.5,-340.7991 727.5,-331.9064"/>
<polygon fill="#191970" stroke="#191970" points="731.0001,-331.6431 727.5,-321.6432 724.0001,-331.6432 731.0001,-331.6431"/>
</g>
<!-- Node25 -->
<g id="node26" class="node">
<title>Node25</title>
<g id="a_node26"><a xlink:href="../../db/d82/PassCache_8h.xhtml" target="_top" xlink:title="enfield/Transform/PassCache.h">
<polygon fill="none" stroke="#000000" points="935.5,-230 935.5,-249 1103.5,-249 1103.5,-230 935.5,-230"/>
<text text-anchor="middle" x="1019.5" y="-237" font-family="Helvetica,sans-Serif" font-size="10.00" fill="#000000">enfield/Transform/PassCache.h</text>
</a>
</g>
</g>
<!-- Node0&#45;&gt;Node25 -->
<g id="edge45" class="edge">
<title>Node0&#45;&gt;Node25</title>
<path fill="none" stroke="#191970" d="M760.4285,-358.389C817.554,-332.1738 934.1862,-278.6509 989.33,-253.3451"/>
<polygon fill="#191970" stroke="#191970" points="990.9426,-256.4561 998.5715,-249.1042 988.023,-250.094 990.9426,-256.4561"/>
</g>
<!-- Node2 -->
<g id="node3" class="node">
<title>Node2</title>
<g id="a_node3"><a xlink:href="../../df/d29/Pass_8h.xhtml" target="_top" xlink:title="enfield/Transform/Pass.h">
<polygon fill="none" stroke="#000000" points="736.5,-112.5 736.5,-131.5 874.5,-131.5 874.5,-112.5 736.5,-112.5"/>
<text text-anchor="middle" x="805.5" y="-119.5" font-family="Helvetica,sans-Serif" font-size="10.00" fill="#000000">enfield/Transform/Pass.h</text>
</a>
</g>
</g>
<!-- Node1&#45;&gt;Node2 -->
<g id="edge2" class="edge">
<title>Node1&#45;&gt;Node2</title>
<path fill="none" stroke="#191970" d="M446.4916,-291.4665C441.7541,-262.9783 436.2232,-201.033 469.5,-168 471.785,-165.7317 627.9416,-145.071 726.5425,-132.2222"/>
<polygon fill="#191970" stroke="#191970" points="727.0248,-135.6891 736.4892,-130.9271 726.1209,-128.7477 727.0248,-135.6891"/>
</g>
<!-- Node4 -->
<g id="node5" class="node">
<title>Node4</title>
<g id="a_node5"><a xlink:href="../../d6/df7/WeightedGraph_8h.xhtml" target="_top" xlink:title="enfield/Support/Weighted\lGraph.h">
<polygon fill="none" stroke="#000000" points="218.5,-224.5 218.5,-254.5 358.5,-254.5 358.5,-224.5 218.5,-224.5"/>
<text text-anchor="start" x="226.5" y="-242.5" font-family="Helvetica,sans-Serif" font-size="10.00" fill="#000000">enfield/Support/Weighted</text>
<text text-anchor="middle" x="288.5" y="-231.5" font-family="Helvetica,sans-Serif" font-size="10.00" fill="#000000">Graph.h</text>
</a>
</g>
</g>
<!-- Node1&#45;&gt;Node4 -->
<g id="edge4" class="edge">
<title>Node1&#45;&gt;Node4</title>
<path fill="none" stroke="#191970" d="M413.3685,-291.4639C389.939,-281.7137 359.2172,-268.9289 334.1099,-258.4805"/>
<polygon fill="#191970" stroke="#191970" points="335.3664,-255.2125 324.7891,-254.6017 332.6769,-261.6752 335.3664,-255.2125"/>
</g>
<!-- Node13 -->
<g id="node14" class="node">
<title>Node13</title>
<polygon fill="none" stroke="#bfbfbf" points="478.5,-168.5 478.5,-187.5 516.5,-187.5 516.5,-168.5 478.5,-168.5"/>
<text text-anchor="middle" x="497.5" y="-175.5" font-family="Helvetica,sans-Serif" font-size="10.00" fill="#000000">map</text>
</g>
<!-- Node1&#45;&gt;Node13 -->
<g id="edge18" class="edge">
<title>Node1&#45;&gt;Node13</title>
<path fill="none" stroke="#191970" d="M455.1947,-291.2548C463.9689,-267.7656 480.7795,-222.7623 490.3566,-197.1235"/>
<polygon fill="#191970" stroke="#191970" points="493.6427,-198.3283 493.8633,-187.7358 487.0852,-195.8788 493.6427,-198.3283"/>
</g>
<!-- Node3 -->
<g id="node4" class="node">
<title>Node3</title>
<polygon fill="none" stroke="#bfbfbf" points="644.5,-56.5 644.5,-75.5 702.5,-75.5 702.5,-56.5 644.5,-56.5"/>
<text text-anchor="middle" x="673.5" y="-63.5" font-family="Helvetica,sans-Serif" font-size="10.00" fill="#000000">memory</text>
</g>
<!-- Node2&#45;&gt;Node3 -->
<g id="edge3" class="edge">
<title>Node2&#45;&gt;Node3</title>
<path fill="none" stroke="#191970" d="M782.8084,-112.3733C761.4289,-103.3032 729.1943,-89.6279 705.2638,-79.4755"/>
<polygon fill="#191970" stroke="#191970" points="706.4683,-76.1846 695.8955,-75.5011 703.7344,-82.6287 706.4683,-76.1846"/>
</g>
<!-- Node5 -->
<g id="node6" class="node">
<title>Node5</title>
<g id="a_node6"><a xlink:href="../../d7/d16/Graph_8h.xhtml" target="_top" xlink:title="enfield/Support/Graph.h">
<polygon fill="none" stroke="#000000" points="290.5,-168.5 290.5,-187.5 422.5,-187.5 422.5,-168.5 290.5,-168.5"/>
<text text-anchor="middle" x="356.5" y="-175.5" font-family="Helvetica,sans-Serif" font-size="10.00" fill="#000000">enfield/Support/Graph.h</text>
</a>
</g>
</g>
<!-- Node4&#45;&gt;Node5 -->
<g id="edge5" class="edge">
<title>Node4&#45;&gt;Node5</title>
<path fill="none" stroke="#191970" d="M305.309,-224.2977C315.2397,-215.3163 327.8257,-203.9334 338.0327,-194.702"/>
<polygon fill="#191970" stroke="#191970" points="340.5434,-197.1505 345.6123,-187.8469 335.848,-191.9588 340.5434,-197.1505"/>
</g>
<!-- Node9 -->
<g id="node10" class="node">
<title>Node9</title>
<g id="a_node10"><a xlink:href="../../d1/d73/Defs_8h.xhtml" target="_top" xlink:title="enfield/Support/Defs.h">
<polygon fill="none" stroke="#000000" points="73,-168.5 73,-187.5 198,-187.5 198,-168.5 73,-168.5"/>
<text text-anchor="middle" x="135.5" y="-175.5" font-family="Helvetica,sans-Serif" font-size="10.00" fill="#000000">enfield/Support/Defs.h</text>
</a>
</g>
</g>
<!-- Node4&#45;&gt;Node9 -->
<g id="edge10" class="edge">
<title>Node4&#45;&gt;Node9</title>
<path fill="none" stroke="#191970" d="M251.072,-224.4554C225.8794,-214.329 192.9593,-201.0964 168.7004,-191.3453"/>
<polygon fill="#191970" stroke="#191970" points="169.7934,-188.0125 159.2096,-187.5303 167.1827,-194.5074 169.7934,-188.0125"/>
</g>
<!-- Node4&#45;&gt;Node13 -->
<g id="edge15" class="edge">
<title>Node4&#45;&gt;Node13</title>
<path fill="none" stroke="#191970" d="M339.6272,-224.4554C380.0834,-212.5508 435.1284,-196.3534 468.3888,-186.5662"/>
<polygon fill="#191970" stroke="#191970" points="469.7708,-189.808 478.3761,-183.6274 467.7947,-183.0927 469.7708,-189.808"/>
</g>
<!-- Node14 -->
<g id="node15" class="node">
<title>Node14</title>
<polygon fill="none" stroke="#bfbfbf" points="0,-168.5 0,-187.5 55,-187.5 55,-168.5 0,-168.5"/>
<text text-anchor="middle" x="27.5" y="-175.5" font-family="Helvetica,sans-Serif" font-size="10.00" fill="#000000">fstream</text>
</g>
<!-- Node4&#45;&gt;Node14 -->
<g id="edge16" class="edge">
<title>Node4&#45;&gt;Node14</title>
<path fill="none" stroke="#191970" d="M219.1213,-224.4838C176.9789,-215.1613 121.8765,-202.6174 65.2206,-188.3687"/>
<polygon fill="#191970" stroke="#191970" points="65.9272,-184.9373 55.3743,-185.879 64.2112,-191.7237 65.9272,-184.9373"/>
</g>
<!-- Node15 -->
<g id="node16" class="node">
<title>Node15</title>
<polygon fill="none" stroke="#bfbfbf" points="216.5,-168.5 216.5,-187.5 272.5,-187.5 272.5,-168.5 216.5,-168.5"/>
<text text-anchor="middle" x="244.5" y="-175.5" font-family="Helvetica,sans-Serif" font-size="10.00" fill="#000000">sstream</text>
</g>
<!-- Node4&#45;&gt;Node15 -->
<g id="edge17" class="edge">
<title>Node4&#45;&gt;Node15</title>
<path fill="none" stroke="#191970" d="M277.6236,-224.2977C271.5159,-215.7609 263.8561,-205.0545 257.4412,-196.0883"/>
<polygon fill="#191970" stroke="#191970" points="260.2101,-193.9433 251.545,-187.8469 254.5171,-198.0163 260.2101,-193.9433"/>
</g>
<!-- Node5&#45;&gt;Node3 -->
<g id="edge9" class="edge">
<title>Node5&#45;&gt;Node3</title>
<path fill="none" stroke="#191970" d="M379.8375,-168.4536C412.5976,-155.1765 474.1891,-130.6655 527.5,-112 563.3994,-99.4307 604.793,-86.5376 634.3162,-77.6116"/>
<polygon fill="#191970" stroke="#191970" points="635.6681,-80.8599 644.2354,-74.6268 633.651,-74.1568 635.6681,-80.8599"/>
</g>
<!-- Node6 -->
<g id="node7" class="node">
<title>Node6</title>
<polygon fill="none" stroke="#bfbfbf" points="686.5,-112.5 686.5,-131.5 718.5,-131.5 718.5,-112.5 686.5,-112.5"/>
<text text-anchor="middle" x="702.5" y="-119.5" font-family="Helvetica,sans-Serif" font-size="10.00" fill="#000000">set</text>
</g>
<!-- Node5&#45;&gt;Node6 -->
<g id="edge6" class="edge">
<title>Node5&#45;&gt;Node6</title>
<path fill="none" stroke="#191970" d="M415.5864,-168.4369C491.7655,-156.1073 620.9931,-135.1919 676.2126,-126.2546"/>
<polygon fill="#191970" stroke="#191970" points="676.9198,-129.6858 686.2321,-124.633 675.8013,-122.7757 676.9198,-129.6858"/>
</g>
<!-- Node7 -->
<g id="node8" class="node">
<title>Node7</title>
<polygon fill="none" stroke="#bfbfbf" points="447,-56.5 447,-75.5 494,-75.5 494,-56.5 447,-56.5"/>
<text text-anchor="middle" x="470.5" y="-63.5" font-family="Helvetica,sans-Serif" font-size="10.00" fill="#000000">vector</text>
</g>
<!-- Node5&#45;&gt;Node7 -->
<g id="edge7" class="edge">
<title>Node5&#45;&gt;Node7</title>
<path fill="none" stroke="#191970" d="M366.2196,-168.4509C385.5699,-149.4401 429.1319,-106.6423 453.3837,-82.816"/>
<polygon fill="#191970" stroke="#191970" points="456.1245,-85.0298 460.805,-75.5249 451.2187,-80.0364 456.1245,-85.0298"/>
</g>
<!-- Node8 -->
<g id="node9" class="node">
<title>Node8</title>
<polygon fill="none" stroke="#bfbfbf" points="537,-112.5 537,-131.5 630,-131.5 630,-112.5 537,-112.5"/>
<text text-anchor="middle" x="583.5" y="-119.5" font-family="Helvetica,sans-Serif" font-size="10.00" fill="#000000">unordered_map</text>
</g>
<!-- Node5&#45;&gt;Node8 -->
<g id="edge8" class="edge">
<title>Node5&#45;&gt;Node8</title>
<path fill="none" stroke="#191970" d="M395.2648,-168.4369C433.8692,-158.9133 493.2384,-144.2672 534.9572,-133.9753"/>
<polygon fill="#191970" stroke="#191970" points="536.0245,-137.317 544.8951,-131.5237 534.3479,-130.5208 536.0245,-137.317"/>
</g>
<!-- Node9&#45;&gt;Node7 -->
<g id="edge11" class="edge">
<title>Node9&#45;&gt;Node7</title>
<path fill="none" stroke="#191970" d="M164.0619,-168.4509C225.7675,-147.821 371.2555,-99.1803 437.0961,-77.1679"/>
<polygon fill="#191970" stroke="#191970" points="438.2098,-80.486 446.584,-73.9958 435.9902,-73.8472 438.2098,-80.486"/>
</g>
<!-- Node10 -->
<g id="node11" class="node">
<title>Node10</title>
<polygon fill="none" stroke="#bfbfbf" points="110.5,-112.5 110.5,-131.5 160.5,-131.5 160.5,-112.5 110.5,-112.5"/>
<text text-anchor="middle" x="135.5" y="-119.5" font-family="Helvetica,sans-Serif" font-size="10.00" fill="#000000">cstdint</text>
</g>
<!-- Node9&#45;&gt;Node10 -->
<g id="edge12" class="edge">
<title>Node9&#45;&gt;Node10</title>
<path fill="none" stroke="#191970" d="M135.5,-168.2455C135.5,-160.9382 135.5,-150.6944 135.5,-141.7046"/>
<polygon fill="#191970" stroke="#191970" points="139.0001,-141.6426 135.5,-131.6427 132.0001,-141.6427 139.0001,-141.6426"/>
</g>
<!-- Node11 -->
<g id="node12" class="node">
<title>Node11</title>
<polygon fill="none" stroke="#bfbfbf" points="178.5,-112.5 178.5,-131.5 222.5,-131.5 222.5,-112.5 178.5,-112.5"/>
<text text-anchor="middle" x="200.5" y="-119.5" font-family="Helvetica,sans-Serif" font-size="10.00" fill="#000000">limits</text>
</g>
<!-- Node9&#45;&gt;Node11 -->
<g id="edge13" class="edge">
<title>Node9&#45;&gt;Node11</title>
<path fill="none" stroke="#191970" d="M146.8221,-168.2455C156.4223,-159.9746 170.3892,-147.9416 181.6695,-138.2232"/>
<polygon fill="#191970" stroke="#191970" points="184.016,-140.8214 189.3076,-131.6427 179.447,-135.5182 184.016,-140.8214"/>
</g>
<!-- Node12 -->
<g id="node13" class="node">
<title>Node12</title>
<polygon fill="none" stroke="#bfbfbf" points="35,-112.5 35,-131.5 92,-131.5 92,-112.5 35,-112.5"/>
<text text-anchor="middle" x="63.5" y="-119.5" font-family="Helvetica,sans-Serif" font-size="10.00" fill="#000000">ostream</text>
</g>
<!-- Node9&#45;&gt;Node12 -->
<g id="edge14" class="edge">
<title>Node9&#45;&gt;Node12</title>
<path fill="none" stroke="#191970" d="M122.9586,-168.2455C112.2213,-159.8943 96.5527,-147.7076 83.9953,-137.9408"/>
<polygon fill="#191970" stroke="#191970" points="85.9401,-135.0194 75.8977,-131.6427 81.6425,-140.5449 85.9401,-135.0194"/>
</g>
<!-- Node16&#45;&gt;Node2 -->
<g id="edge28" class="edge">
<title>Node16&#45;&gt;Node2</title>
<path fill="none" stroke="#191970" d="M744.7049,-291.3862C754.5185,-281.8698 766.2676,-268.805 773.5,-255 792.98,-217.817 800.815,-168.5783 803.7992,-141.656"/>
<polygon fill="#191970" stroke="#191970" points="807.2939,-141.8818 804.8009,-131.5844 800.3283,-141.1889 807.2939,-141.8818"/>
</g>
<!-- Node16&#45;&gt;Node6 -->
<g id="edge44" class="edge">
<title>Node16&#45;&gt;Node6</title>
<path fill="none" stroke="#191970" d="M739.2909,-291.2379C746.0746,-281.4664 753.9394,-268.1862 757.5,-255 761.0917,-241.6986 760.8721,-237.3587 757.5,-224 749.4659,-192.1727 729.3313,-159.4821 715.7842,-139.9571"/>
<polygon fill="#191970" stroke="#191970" points="718.5721,-137.8384 709.9176,-131.7269 712.872,-141.9015 718.5721,-137.8384"/>
</g>
<!-- Node16&#45;&gt;Node7 -->
<g id="edge43" class="edge">
<title>Node16&#45;&gt;Node7</title>
<path fill="none" stroke="#191970" d="M654.9419,-291.4625C630.0319,-283.662 603.2309,-272.0598 582.5,-255 567.475,-242.6357 505.2365,-129.8884 480.6027,-84.6522"/>
<polygon fill="#191970" stroke="#191970" points="483.5448,-82.7358 475.6955,-75.6196 477.3939,-86.0774 483.5448,-82.7358"/>
</g>
<!-- Node16&#45;&gt;Node8 -->
<g id="edge41" class="edge">
<title>Node16&#45;&gt;Node8</title>
<path fill="none" stroke="#191970" d="M655.335,-291.4661C635.04,-283.8048 614.8791,-272.2867 601.5,-255 575.9299,-221.9616 577.3478,-169.9615 580.4929,-141.7667"/>
<polygon fill="#191970" stroke="#191970" points="583.9987,-141.9499 581.8252,-131.5804 577.0578,-141.042 583.9987,-141.9499"/>
</g>
<!-- Node16&#45;&gt;Node13 -->
<g id="edge42" class="edge">
<title>Node16&#45;&gt;Node13</title>
<path fill="none" stroke="#191970" d="M643.9637,-292.2487C598.4426,-283.038 547.9136,-269.9918 530.5,-255 513.502,-240.366 505.0078,-215.4198 500.9405,-197.8966"/>
<polygon fill="#191970" stroke="#191970" points="504.2779,-196.7423 498.8621,-187.6363 497.4172,-198.1321 504.2779,-196.7423"/>
</g>
<!-- Node17 -->
<g id="node18" class="node">
<title>Node17</title>
<g id="a_node18"><a xlink:href="../../d4/daf/Nodes_8h.xhtml" target="_top" xlink:title="enfield/Analysis/Nodes.h">
<polygon fill="none" stroke="#000000" points="893,-112.5 893,-131.5 1030,-131.5 1030,-112.5 893,-112.5"/>
<text text-anchor="middle" x="961.5" y="-119.5" font-family="Helvetica,sans-Serif" font-size="10.00" fill="#000000">enfield/Analysis/Nodes.h</text>
</a>
</g>
</g>
<!-- Node16&#45;&gt;Node17 -->
<g id="edge20" class="edge">
<title>Node16&#45;&gt;Node17</title>
<path fill="none" stroke="#191970" d="M811.0696,-301.097C918.3144,-293.2972 1092.9593,-277.3287 1112.5,-255 1129.8711,-235.1505 1096.8769,-171.4048 1093.5,-168 1077.3464,-151.7129 1055.1257,-141.182 1033.5206,-134.3769"/>
<polygon fill="#191970" stroke="#191970" points="1034.2411,-130.9414 1023.6613,-131.5052 1032.2835,-137.6621 1034.2411,-130.9414"/>
</g>
<!-- Node23 -->
<g id="node24" class="node">
<title>Node23</title>
<g id="a_node24"><a xlink:href="../../d4/d73/QModule_8h.xhtml" target="_top" xlink:title="enfield/Transform/QModule.h">
<polygon fill="none" stroke="#000000" points="876.5,-168.5 876.5,-187.5 1034.5,-187.5 1034.5,-168.5 876.5,-168.5"/>
<text text-anchor="middle" x="955.5" y="-175.5" font-family="Helvetica,sans-Serif" font-size="10.00" fill="#000000">enfield/Transform/QModule.h</text>
</a>
</g>
</g>
<!-- Node16&#45;&gt;Node23 -->
<g id="edge29" class="edge">
<title>Node16&#45;&gt;Node23</title>
<path fill="none" stroke="#191970" d="M778.6575,-291.3975C804.6873,-282.6335 836.2807,-270.2919 862.5,-255 891.7061,-237.966 921.0281,-211.8294 938.7256,-194.8229"/>
<polygon fill="#191970" stroke="#191970" points="941.2911,-197.2096 945.9967,-187.717 936.3986,-192.2032 941.2911,-197.2096"/>
</g>
<!-- Node24 -->
<g id="node25" class="node">
<title>Node24</title>
<g id="a_node25"><a xlink:href="../../d6/d94/XbitToNumberPass_8h.xhtml" target="_top" xlink:title="enfield/Transform/XbitTo\lNumberPass.h">
<polygon fill="none" stroke="#000000" points="610.5,-224.5 610.5,-254.5 748.5,-254.5 748.5,-224.5 610.5,-224.5"/>
<text text-anchor="start" x="618.5" y="-242.5" font-family="Helvetica,sans-Serif" font-size="10.00" fill="#000000">enfield/Transform/XbitTo</text>
<text text-anchor="middle" x="679.5" y="-231.5" font-family="Helvetica,sans-Serif" font-size="10.00" fill="#000000">NumberPass.h</text>
</a>
</g>
</g>
<!-- Node16&#45;&gt;Node24 -->
<g id="edge33" class="edge">
<title>Node16&#45;&gt;Node24</title>
<path fill="none" stroke="#191970" d="M716.6081,-291.2967C710.5937,-282.9016 702.9951,-272.2952 696.2426,-262.8698"/>
<polygon fill="#191970" stroke="#191970" points="699.0179,-260.734 690.3488,-254.6432 693.3275,-264.8107 699.0179,-260.734"/>
</g>
<!-- Node17&#45;&gt;Node3 -->
<g id="edge27" class="edge">
<title>Node17&#45;&gt;Node3</title>
<path fill="none" stroke="#191970" d="M902.6522,-112.4602C854.1129,-104.2984 783.2526,-91.713 712.8358,-76.1829"/>
<polygon fill="#191970" stroke="#191970" points="713.4266,-72.7288 702.905,-73.9721 711.9055,-79.5615 713.4266,-72.7288"/>
</g>
<!-- Node17&#45;&gt;Node7 -->
<g id="edge26" class="edge">
<title>Node17&#45;&gt;Node7</title>
<path fill="none" stroke="#191970" d="M892.6042,-113.1043C889.5279,-112.7269 886.4822,-112.3572 883.5,-112 742.8012,-95.1465 574.8816,-77.0756 504.3381,-69.5767"/>
<polygon fill="#191970" stroke="#191970" points="504.5744,-66.0822 494.2607,-68.507 503.8354,-73.0431 504.5744,-66.0822"/>
</g>
<!-- Node18 -->
<g id="node19" class="node">
<title>Node18</title>
<g id="a_node19"><a xlink:href="../../d1/d2e/WrapperVal_8h.xhtml" target="_top" xlink:title="enfield/Support/WrapperVal.h">
<polygon fill="none" stroke="#000000" points="720.5,-56.5 720.5,-75.5 880.5,-75.5 880.5,-56.5 720.5,-56.5"/>
<text text-anchor="middle" x="800.5" y="-63.5" font-family="Helvetica,sans-Serif" font-size="10.00" fill="#000000">enfield/Support/WrapperVal.h</text>
</a>
</g>
</g>
<!-- Node17&#45;&gt;Node18 -->
<g id="edge21" class="edge">
<title>Node17&#45;&gt;Node18</title>
<path fill="none" stroke="#191970" d="M933.8231,-112.3733C907.1672,-103.1016 866.6762,-89.0178 837.3116,-78.804"/>
<polygon fill="#191970" stroke="#191970" points="838.4105,-75.4807 827.8157,-75.5011 836.1109,-82.0921 838.4105,-75.4807"/>
</g>
<!-- Node20 -->
<g id="node21" class="node">
<title>Node20</title>
<g id="a_node21"><a xlink:href="../../d5/dfc/RTTI_8h.xhtml" target="_top" xlink:title="enfield/Support/RTTI.h">
<polygon fill="none" stroke="#000000" points="899,-56.5 899,-75.5 1024,-75.5 1024,-56.5 899,-56.5"/>
<text text-anchor="middle" x="961.5" y="-63.5" font-family="Helvetica,sans-Serif" font-size="10.00" fill="#000000">enfield/Support/RTTI.h</text>
</a>
</g>
</g>
<!-- Node17&#45;&gt;Node20 -->
<g id="edge23" class="edge">
<title>Node17&#45;&gt;Node20</title>
<path fill="none" stroke="#191970" d="M961.5,-112.2455C961.5,-104.9382 961.5,-94.6944 961.5,-85.7046"/>
<polygon fill="#191970" stroke="#191970" points="965.0001,-85.6426 961.5,-75.6427 958.0001,-85.6427 965.0001,-85.6426"/>
</g>
<!-- Node21 -->
<g id="node22" class="node">
<title>Node21</title>
<polygon fill="none" stroke="#bfbfbf" points="1042,-56.5 1042,-75.5 1125,-75.5 1125,-56.5 1042,-56.5"/>
<text text-anchor="middle" x="1083.5" y="-63.5" font-family="Helvetica,sans-Serif" font-size="10.00" fill="#000000">initializer_list</text>
</g>
<!-- Node17&#45;&gt;Node21 -->
<g id="edge24" class="edge">
<title>Node17&#45;&gt;Node21</title>
<path fill="none" stroke="#191970" d="M982.4725,-112.3733C1002.0567,-103.3838 1031.4961,-89.8706 1053.551,-79.7471"/>
<polygon fill="#191970" stroke="#191970" points="1055.1729,-82.8538 1062.8011,-75.5011 1052.2527,-76.4919 1055.1729,-82.8538"/>
</g>
<!-- Node22 -->
<g id="node23" class="node">
<title>Node22</title>
<polygon fill="none" stroke="#bfbfbf" points="1143.5,-56.5 1143.5,-75.5 1203.5,-75.5 1203.5,-56.5 1143.5,-56.5"/>
<text text-anchor="middle" x="1173.5" y="-63.5" font-family="Helvetica,sans-Serif" font-size="10.00" fill="#000000">iostream</text>
</g>
<!-- Node17&#45;&gt;Node22 -->
<g id="edge25" class="edge">
<title>Node17&#45;&gt;Node22</title>
<path fill="none" stroke="#191970" d="M997.9441,-112.3733C1035.6544,-102.412 1094.3927,-86.8963 1133.3983,-76.5929"/>
<polygon fill="#191970" stroke="#191970" points="1134.5789,-79.9012 1143.3533,-73.9633 1132.7911,-73.1333 1134.5789,-79.9012"/>
</g>
<!-- Node19 -->
<g id="node20" class="node">
<title>Node19</title>
<polygon fill="none" stroke="#bfbfbf" points="778.5,-.5 778.5,-19.5 822.5,-19.5 822.5,-.5 778.5,-.5"/>
<text text-anchor="middle" x="800.5" y="-7.5" font-family="Helvetica,sans-Serif" font-size="10.00" fill="#000000">string</text>
</g>
<!-- Node18&#45;&gt;Node19 -->
<g id="edge22" class="edge">
<title>Node18&#45;&gt;Node19</title>
<path fill="none" stroke="#191970" d="M800.5,-56.2455C800.5,-48.9382 800.5,-38.6944 800.5,-29.7046"/>
<polygon fill="#191970" stroke="#191970" points="804.0001,-29.6426 800.5,-19.6427 797.0001,-29.6427 804.0001,-29.6426"/>
</g>
<!-- Node23&#45;&gt;Node2 -->
<g id="edge31" class="edge">
<title>Node23&#45;&gt;Node2</title>
<path fill="none" stroke="#191970" d="M929.7141,-168.3733C905.0953,-159.1822 867.81,-145.2624 840.5125,-135.0713"/>
<polygon fill="#191970" stroke="#191970" points="841.542,-131.7198 830.9494,-131.5011 839.0937,-138.2777 841.542,-131.7198"/>
</g>
<!-- Node23&#45;&gt;Node8 -->
<g id="edge32" class="edge">
<title>Node23&#45;&gt;Node8</title>
<path fill="none" stroke="#191970" d="M891.9736,-168.4369C821.3107,-157.7995 708.194,-140.7711 640.3497,-130.558"/>
<polygon fill="#191970" stroke="#191970" points="640.6808,-127.0685 630.2712,-129.0408 639.6387,-133.9905 640.6808,-127.0685"/>
</g>
<!-- Node23&#45;&gt;Node17 -->
<g id="edge30" class="edge">
<title>Node23&#45;&gt;Node17</title>
<path fill="none" stroke="#191970" d="M956.5451,-168.2455C957.328,-160.9382 958.4256,-150.6944 959.3888,-141.7046"/>
<polygon fill="#191970" stroke="#191970" points="962.8815,-141.9587 960.4669,-131.6427 955.9214,-141.2129 962.8815,-141.9587"/>
</g>
<!-- Node24&#45;&gt;Node2 -->
<g id="edge34" class="edge">
<title>Node24&#45;&gt;Node2</title>
<path fill="none" stroke="#191970" d="M695.7143,-224.3795C719.3617,-202.3274 763.1564,-161.4871 787.6797,-138.6181"/>
<polygon fill="#191970" stroke="#191970" points="790.2742,-140.9844 795.2006,-131.6046 785.5001,-135.865 790.2742,-140.9844"/>
</g>
<!-- Node24&#45;&gt;Node6 -->
<g id="edge39" class="edge">
<title>Node24&#45;&gt;Node6</title>
<path fill="none" stroke="#191970" d="M682.5068,-224.1389C686.6507,-202.9692 694.1187,-164.8174 698.6612,-141.6112"/>
<polygon fill="#191970" stroke="#191970" points="702.1425,-142.0456 700.6288,-131.5595 695.2729,-140.7009 702.1425,-142.0456"/>
</g>
<!-- Node24&#45;&gt;Node7 -->
<g id="edge38" class="edge">
<title>Node24&#45;&gt;Node7</title>
<path fill="none" stroke="#191970" d="M679.0689,-224.1153C677.4657,-197.3999 670.2484,-142.3854 638.5,-112 619.3264,-93.6495 547.4653,-78.8376 504.1815,-71.3388"/>
<polygon fill="#191970" stroke="#191970" points="504.5468,-67.8509 494.1033,-69.6351 503.38,-74.753 504.5468,-67.8509"/>
</g>
<!-- Node24&#45;&gt;Node8 -->
<g id="edge37" class="edge">
<title>Node24&#45;&gt;Node8</title>
<path fill="none" stroke="#191970" d="M666.9497,-224.1389C649.1033,-202.2957 616.4851,-162.3724 597.7508,-139.4424"/>
<polygon fill="#191970" stroke="#191970" points="600.3477,-137.089 591.3103,-131.5595 594.9269,-141.5179 600.3477,-137.089"/>
</g>
<!-- Node24&#45;&gt;Node13 -->
<g id="edge40" class="edge">
<title>Node24&#45;&gt;Node13</title>
<path fill="none" stroke="#191970" d="M634.9778,-224.4554C601.0885,-213.0038 555.4435,-197.5798 526.2373,-187.7107"/>
<polygon fill="#191970" stroke="#191970" points="527.2328,-184.3527 516.6386,-184.4671 524.9918,-190.9843 527.2328,-184.3527"/>
</g>
<!-- Node24&#45;&gt;Node17 -->
<g id="edge36" class="edge">
<title>Node24&#45;&gt;Node17</title>
<path fill="none" stroke="#191970" d="M715.5019,-224.4992C770.8562,-201.4349 876.0191,-157.617 929.111,-135.4954"/>
<polygon fill="#191970" stroke="#191970" points="930.5101,-138.7042 938.3947,-131.6272 927.8177,-132.2427 930.5101,-138.7042"/>
</g>
<!-- Node24&#45;&gt;Node23 -->
<g id="edge35" class="edge">
<title>Node24&#45;&gt;Node23</title>
<path fill="none" stroke="#191970" d="M747.0172,-224.4554C794.9873,-213.7664 858.4894,-199.6165 902.7528,-189.7535"/>
<polygon fill="#191970" stroke="#191970" points="903.7304,-193.1215 912.7298,-187.5303 902.2079,-186.2891 903.7304,-193.1215"/>
</g>
<!-- Node25&#45;&gt;Node2 -->
<g id="edge46" class="edge">
<title>Node25&#45;&gt;Node2</title>
<path fill="none" stroke="#191970" d="M1036.8444,-229.8777C1059.662,-216.0165 1094.8351,-189.7096 1076.5,-168 1070.2472,-160.5963 962.7961,-144.0647 885.1044,-132.9717"/>
<polygon fill="#191970" stroke="#191970" points="885.2247,-129.4537 874.8316,-131.5117 884.2397,-136.3841 885.2247,-129.4537"/>
</g>
<!-- Node25&#45;&gt;Node6 -->
<g id="edge48" class="edge">
<title>Node25&#45;&gt;Node6</title>
<path fill="none" stroke="#191970" d="M1027.9345,-229.9795C1040.1257,-215.0476 1059.543,-185.9744 1043.5,-168 998.3219,-117.3828 811.8342,-146.694 728.5616,-131.3636"/>
<polygon fill="#191970" stroke="#191970" points="729.2156,-127.9239 718.6983,-129.2033 727.7179,-134.7618 729.2156,-127.9239"/>
</g>
<!-- Node25&#45;&gt;Node23 -->
<g id="edge47" class="edge">
<title>Node25&#45;&gt;Node23</title>
<path fill="none" stroke="#191970" d="M1009.5,-229.8906C999.7881,-220.5581 984.8361,-206.1902 973.1259,-194.9374"/>
<polygon fill="#191970" stroke="#191970" points="975.2766,-192.15 965.641,-187.7449 970.4264,-197.1974 975.2766,-192.15"/>
</g>
</g>
</svg>
        <g id="navigator" transform="translate(0 0)" fill="#404254">
                <rect fill="#f2f5e9" fill-opacity="0.5" stroke="#606060" stroke-width=".5" x="0" y="0" width="60" height="60"/>
                <use id="zoomplus" xlink:href="#zoomPlus" x="17" y="9" onmousedown="handleZoom(evt,'in')"/>
                <use id="zoomminus" xlink:href="#zoomMin" x="42" y="9" onmousedown="handleZoom(evt,'out')"/>
                <use id="reset" xlink:href="#resetDef" x="30" y="36" onmousedown="handleReset()"/>
                <g id="arrowUp" xlink:href="#dirArrow" transform="translate(30 24)" onmousedown="handlePan(0,-1)">
                  <use xlink:href="#rim" fill="#404040">
                        <set attributeName="fill" to="#808080" begin="arrowUp.mouseover" end="arrowUp.mouseout"/>
                  </use>
                  <path fill="none" stroke="white" stroke-width="1.5" d="M0,-3.0v7 M-2.5,-0.5L0,-3.0L2.5,-0.5"/>
                </g>
                <g id="arrowRight" xlink:href="#dirArrow" transform="rotate(90) translate(36 -43)" onmousedown="handlePan(1,0)">
                  <use xlink:href="#rim" fill="#404040">
                        <set attributeName="fill" to="#808080" begin="arrowRight.mouseover" end="arrowRight.mouseout"/>
                  </use>
                  <path fill="none" stroke="white" stroke-width="1.5" d="M0,-3.0v7 M-2.5,-0.5L0,-3.0L2.5,-0.5"/>
                </g>
                <g id="arrowDown" xlink:href="#dirArrow" transform="rotate(180) translate(-30 -48)" onmousedown="handlePan(0,1)">
                  <use xlink:href="#rim" fill="#404040">
                        <set attributeName="fill" to="#808080" begin="arrowDown.mouseover" end="arrowDown.mouseout"/>
                  </use>
                  <path fill="none" stroke="white" stroke-width="1.5" d="M0,-3.0v7 M-2.5,-0.5L0,-3.0L2.5,-0.5"/>
                </g>
                <g id="arrowLeft" xlink:href="#dirArrow" transform="rotate(270) translate(-36 17)" onmousedown="handlePan(-1,0)">
                  <use xlink:href="#rim" fill="#404040">
                        <set attributeName="fill" to="#808080" begin="arrowLeft.mouseover" end="arrowLeft.mouseout"/>
                  </use>
                  <path fill="none" stroke="white" stroke-width="1.5" d="M0,-3.0v7 M-2.5,-0.5L0,-3.0L2.5,-0.5"/>
                </g>
        </g>
        <svg viewBox="0 0 15 15" width="100%" height="30px" preserveAspectRatio="xMaxYMin meet">
         <g id="arrow_out" transform="scale(0.3 0.3)">
          <a xlink:href="DependencyGraphBuilderPass_8cpp__incl_org.svg" target="_base">
           <rect id="button" ry="5" rx="5" y="6" x="6" height="38" width="38"
                fill="#f2f5e9" fill-opacity="0.5" stroke="#606060" stroke-width="1.0"/>
           <path id="arrow"
             d="M 11.500037,31.436501 C 11.940474,20.09759 22.043105,11.32322 32.158766,21.979434 L 37.068811,17.246167 C 37.068811,17.246167 37.088388,32 37.088388,32 L 22.160133,31.978069 C 22.160133,31.978069 26.997745,27.140456 26.997745,27.140456 C 18.528582,18.264221 13.291696,25.230495 11.500037,31.436501 z"
             style="fill:#404040;"/>
          </a>
         </g>
        </svg>
</svg>
