<?xml version="1.0" encoding="UTF-8" standalone="no"?>
<!DOCTYPE svg PUBLIC "-//W3C//DTD SVG 1.1//EN"
 "http://www.w3.org/Graphics/SVG/1.1/DTD/svg11.dtd">
<!-- Generated by graphviz version 2.38.0 (20140413.2041)
 -->
<!-- Title: efd::ReverseEdgesVisitor::visit Pages: 1 -->
<svg width="482pt" height="294pt"
 viewBox="0.00 0.00 482.00 294.00" xmlns="http://www.w3.org/2000/svg" xmlns:xlink="http://www.w3.org/1999/xlink">
<g id="graph0" class="graph" transform="scale(1 1) rotate(0) translate(4 290)">
<title>efd::ReverseEdgesVisitor::visit</title>
<!-- Node9 -->
<g id="node1" class="node"><title>Node9</title>
<polygon fill="#bfbfbf" stroke="black" points="0,-128 0,-158 128,-158 128,-128 0,-128"/>
<text text-anchor="start" x="8" y="-146" font-family="Helvetica,sans-Serif" font-size="10.00">efd::ReverseEdgesVisitor</text>
<text text-anchor="middle" x="64" y="-135" font-family="Helvetica,sans-Serif" font-size="10.00">::visit</text>
</g>
<!-- Node10 -->
<g id="node2" class="node"><title>Node10</title>
<g id="a_node2"><a xlink:href="../../d6/d6a/classefd_1_1Node.xhtml#a63e30243eca03b0c85d8c4856e91c79d" target="_top" xlink:title="Gets the i&#45;th child. ">
<polygon fill="none" stroke="black" points="191,-266.5 191,-285.5 292,-285.5 292,-266.5 191,-266.5"/>
<text text-anchor="middle" x="241.5" y="-273.5" font-family="Helvetica,sans-Serif" font-size="10.00">efd::Node::getChild</text>
</a>
</g>
</g>
<!-- Node9&#45;&gt;Node10 -->
<g id="edge1" class="edge"><title>Node9&#45;&gt;Node10</title>
<path fill="none" stroke="midnightblue" d="M73.8323,-158.197C89.0013,-182.893 122.423,-231.534 164,-257 169.361,-260.284 175.261,-263 181.334,-265.248"/>
<polygon fill="midnightblue" stroke="midnightblue" points="180.375,-268.617 190.968,-268.409 182.557,-261.966 180.375,-268.617"/>
</g>
<!-- Node11 -->
<g id="node3" class="node"><title>Node11</title>
<g id="a_node3"><a xlink:href="../../da/ddd/classefd_1_1NDList.xhtml#a7d1b691a45689241a8138539a2be8596" target="_top" xlink:title="Returns the number of childrem of this node. ">
<polygon fill="none" stroke="black" points="170,-228.5 170,-247.5 313,-247.5 313,-228.5 170,-228.5"/>
<text text-anchor="middle" x="241.5" y="-235.5" font-family="Helvetica,sans-Serif" font-size="10.00">efd::NDList::getChildNumber</text>
</a>
</g>
</g>
<!-- Node9&#45;&gt;Node11 -->
<g id="edge2" class="edge"><title>Node9&#45;&gt;Node11</title>
<path fill="none" stroke="midnightblue" d="M80.4274,-158.165C98.8191,-175.405 131.207,-203.196 164,-219 168.931,-221.376 174.189,-223.474 179.551,-225.322"/>
<polygon fill="midnightblue" stroke="midnightblue" points="178.678,-228.716 189.267,-228.385 180.782,-222.04 178.678,-228.716"/>
</g>
<!-- Node12 -->
<g id="node4" class="node"><title>Node12</title>
<g id="a_node4"><a xlink:href="../../dd/d94/classefd_1_1NDQOp.xhtml#aa9d90f493865fe9cdc3fecd468eaa33b" target="_top" xlink:title="Gets the id. ">
<polygon fill="none" stroke="black" points="192,-190.5 192,-209.5 291,-209.5 291,-190.5 192,-190.5"/>
<text text-anchor="middle" x="241.5" y="-197.5" font-family="Helvetica,sans-Serif" font-size="10.00">efd::NDQOp::getId</text>
</a>
</g>
</g>
<!-- Node9&#45;&gt;Node12 -->
<g id="edge3" class="edge"><title>Node9&#45;&gt;Node12</title>
<path fill="none" stroke="midnightblue" d="M101.293,-158.163C119.857,-165.602 142.927,-174.367 164,-181 171.795,-183.454 180.117,-185.797 188.294,-187.947"/>
<polygon fill="midnightblue" stroke="midnightblue" points="187.598,-191.381 198.153,-190.469 189.332,-184.6 187.598,-191.381"/>
</g>
<!-- Node14 -->
<g id="node6" class="node"><title>Node14</title>
<g id="a_node6"><a xlink:href="../../dd/d94/classefd_1_1NDQOp.xhtml#af7ef43289355c5bb047a46419177c8ed" target="_top" xlink:title="Gets the quantum arguments. ">
<polygon fill="none" stroke="black" points="182,-152.5 182,-171.5 301,-171.5 301,-152.5 182,-152.5"/>
<text text-anchor="middle" x="241.5" y="-159.5" font-family="Helvetica,sans-Serif" font-size="10.00">efd::NDQOp::getQArgs</text>
</a>
</g>
</g>
<!-- Node9&#45;&gt;Node14 -->
<g id="edge5" class="edge"><title>Node9&#45;&gt;Node14</title>
<path fill="none" stroke="midnightblue" d="M128.36,-149.859C142.423,-151.382 157.394,-153.003 171.664,-154.548"/>
<polygon fill="midnightblue" stroke="midnightblue" points="171.59,-158.06 181.909,-155.657 172.343,-151.101 171.59,-158.06"/>
</g>
<!-- Node15 -->
<g id="node7" class="node"><title>Node15</title>
<g id="a_node7"><a xlink:href="../../d5/dae/classefd_1_1ArchGraph.xhtml#a197c4183cb9e9127161a8944206c3ca6" target="_top" xlink:title="Returns the uint32_t id of the vertex s. ">
<polygon fill="none" stroke="black" points="182.5,-114.5 182.5,-133.5 300.5,-133.5 300.5,-114.5 182.5,-114.5"/>
<text text-anchor="middle" x="241.5" y="-121.5" font-family="Helvetica,sans-Serif" font-size="10.00">efd::ArchGraph::getUId</text>
</a>
</g>
</g>
<!-- Node9&#45;&gt;Node15 -->
<g id="edge7" class="edge"><title>Node9&#45;&gt;Node15</title>
<path fill="none" stroke="midnightblue" d="M128.36,-136.141C142.581,-134.601 157.73,-132.961 172.145,-131.4"/>
<polygon fill="midnightblue" stroke="midnightblue" points="172.922,-134.837 182.487,-130.281 172.169,-127.877 172.922,-134.837"/>
</g>
<!-- Node17 -->
<g id="node9" class="node"><title>Node17</title>
<g id="a_node9"><a xlink:href="../../df/d1b/classefd_1_1NDValue.xhtml#a53ee724a8db3429bf30bb1936ad548b2" target="_top" xlink:title="Returns a copy to the setted value. ">
<polygon fill="none" stroke="black" points="186.5,-76.5 186.5,-95.5 296.5,-95.5 296.5,-76.5 186.5,-76.5"/>
<text text-anchor="middle" x="241.5" y="-83.5" font-family="Helvetica,sans-Serif" font-size="10.00">efd::NDValue::getVal</text>
</a>
</g>
</g>
<!-- Node9&#45;&gt;Node17 -->
<g id="edge9" class="edge"><title>Node9&#45;&gt;Node17</title>
<path fill="none" stroke="midnightblue" d="M101.293,-127.837C119.857,-120.398 142.927,-111.633 164,-105 171.795,-102.546 180.117,-100.203 188.294,-98.053"/>
<polygon fill="midnightblue" stroke="midnightblue" points="189.332,-101.4 198.153,-95.5312 187.598,-94.6185 189.332,-101.4"/>
</g>
<!-- Node18 -->
<g id="node10" class="node"><title>Node18</title>
<g id="a_node10"><a xlink:href="../../d5/dae/classefd_1_1ArchGraph.xhtml#a10786b155e3d2d397b9d94227080155a" target="_top" xlink:title="Returns true if the edge (i, j) is a reverse edge. i.e.: if (i, j) is not in the graph, but (j, i) is. ">
<polygon fill="none" stroke="black" points="164,-38.5 164,-57.5 319,-57.5 319,-38.5 164,-38.5"/>
<text text-anchor="middle" x="241.5" y="-45.5" font-family="Helvetica,sans-Serif" font-size="10.00">efd::ArchGraph::isReverseEdge</text>
</a>
</g>
</g>
<!-- Node9&#45;&gt;Node18 -->
<g id="edge10" class="edge"><title>Node9&#45;&gt;Node18</title>
<path fill="none" stroke="midnightblue" d="M80.4274,-127.835C98.8191,-110.595 131.207,-82.8036 164,-67 168.931,-64.6236 174.189,-62.5259 179.551,-60.6779"/>
<polygon fill="midnightblue" stroke="midnightblue" points="180.782,-63.9597 189.267,-57.6149 178.678,-57.2836 180.782,-63.9597"/>
</g>
<!-- Node19 -->
<g id="node11" class="node"><title>Node19</title>
<g id="a_node11"><a xlink:href="../../d6/d6a/classefd_1_1Node.xhtml#a96ca13a5c2b971b68619ce4a34be0f66" target="_top" xlink:title="Returns a std::string representation of this Node and its childrem. ">
<polygon fill="none" stroke="black" points="192,-0.5 192,-19.5 291,-19.5 291,-0.5 192,-0.5"/>
<text text-anchor="middle" x="241.5" y="-7.5" font-family="Helvetica,sans-Serif" font-size="10.00">efd::Node::toString</text>
</a>
</g>
</g>
<!-- Node9&#45;&gt;Node19 -->
<g id="edge11" class="edge"><title>Node9&#45;&gt;Node19</title>
<path fill="none" stroke="midnightblue" d="M73.8323,-127.803C89.0013,-103.107 122.423,-54.4664 164,-29 169.514,-25.6226 175.598,-22.8447 181.855,-20.5601"/>
<polygon fill="midnightblue" stroke="midnightblue" points="183.329,-23.7622 191.772,-17.3606 181.18,-17.1003 183.329,-23.7622"/>
</g>
<!-- Node13 -->
<g id="node5" class="node"><title>Node13</title>
<g id="a_node5"><a xlink:href="../../d4/deb/namespaceefd.xhtml#a2cef687225e13315fc282dc40b5a6909" target="_top" xlink:title="Returns src cast to TargetTy, iff it is of class TargetTy, otherwise it will return nullptr...">
<polygon fill="none" stroke="black" points="378,-171.5 378,-190.5 451,-190.5 451,-171.5 378,-171.5"/>
<text text-anchor="middle" x="414.5" y="-178.5" font-family="Helvetica,sans-Serif" font-size="10.00">efd::dynCast</text>
</a>
</g>
</g>
<!-- Node12&#45;&gt;Node13 -->
<g id="edge4" class="edge"><title>Node12&#45;&gt;Node13</title>
<path fill="none" stroke="midnightblue" d="M291.044,-194.606C315.128,-191.93 344.055,-188.716 367.746,-186.084"/>
<polygon fill="midnightblue" stroke="midnightblue" points="368.335,-189.54 377.887,-184.957 367.562,-182.583 368.335,-189.54"/>
</g>
<!-- Node14&#45;&gt;Node13 -->
<g id="edge6" class="edge"><title>Node14&#45;&gt;Node13</title>
<path fill="none" stroke="midnightblue" d="M301.348,-168.539C323.085,-170.954 347.374,-173.653 367.776,-175.92"/>
<polygon fill="midnightblue" stroke="midnightblue" points="367.427,-179.402 377.752,-177.028 368.2,-172.445 367.427,-179.402"/>
</g>
<!-- Node16 -->
<g id="node8" class="node"><title>Node16</title>
<g id="a_node8"><a xlink:href="../../d5/dae/classefd_1_1ArchGraph.xhtml#ab7fb1e12dce31f495ef659d99e30b284" target="_top" xlink:title="Returns true if this architecture has a vertex whose string representation is s. ">
<polygon fill="none" stroke="black" points="355,-114.5 355,-133.5 474,-133.5 474,-114.5 355,-114.5"/>
<text text-anchor="middle" x="414.5" y="-121.5" font-family="Helvetica,sans-Serif" font-size="10.00">efd::ArchGraph::hasSId</text>
</a>
</g>
</g>
<!-- Node15&#45;&gt;Node16 -->
<g id="edge8" class="edge"><title>Node15&#45;&gt;Node16</title>
<path fill="none" stroke="midnightblue" d="M300.87,-124C314.884,-124 329.983,-124 344.431,-124"/>
<polygon fill="midnightblue" stroke="midnightblue" points="344.812,-127.5 354.812,-124 344.812,-120.5 344.812,-127.5"/>
</g>
</g>
</svg>
