<?xml version="1.0" encoding="UTF-8" standalone="no"?>
<!DOCTYPE svg PUBLIC "-//W3C//DTD SVG 1.1//EN"
 "http://www.w3.org/Graphics/SVG/1.1/DTD/svg11.dtd">
<!-- Generated by graphviz version 2.38.0 (20140413.2041)
 -->
<!-- Title: efd::ReverseEdgesVisitor::visit Pages: 1 -->
<svg width="482pt" height="180pt"
 viewBox="0.00 0.00 482.00 180.00" xmlns="http://www.w3.org/2000/svg" xmlns:xlink="http://www.w3.org/1999/xlink">
<g id="graph0" class="graph" transform="scale(1 1) rotate(0) translate(4 176)">
<title>efd::ReverseEdgesVisitor::visit</title>
<!-- Node1 -->
<g id="node1" class="node"><title>Node1</title>
<polygon fill="#bfbfbf" stroke="black" points="0,-71 0,-101 128,-101 128,-71 0,-71"/>
<text text-anchor="start" x="8" y="-89" font-family="Helvetica,sans-Serif" font-size="10.00">efd::ReverseEdgesVisitor</text>
<text text-anchor="middle" x="64" y="-78" font-family="Helvetica,sans-Serif" font-size="10.00">::visit</text>
</g>
<!-- Node2 -->
<g id="node2" class="node"><title>Node2</title>
<g id="a_node2"><a xlink:href="../../d3/d14/classefd_1_1NDQOpCX.xhtml#aebb2d70f1197065d1b127c2925dd33e6" target="_top" xlink:title="Gets the left hand side of the gate. ">
<polygon fill="none" stroke="black" points="181,-152.5 181,-171.5 302,-171.5 302,-152.5 181,-152.5"/>
<text text-anchor="middle" x="241.5" y="-159.5" font-family="Helvetica,sans-Serif" font-size="10.00">efd::NDQOpCX::getLhs</text>
</a>
</g>
</g>
<!-- Node1&#45;&gt;Node2 -->
<g id="edge1" class="edge"><title>Node1&#45;&gt;Node2</title>
<path fill="none" stroke="midnightblue" d="M86.8965,-101.002C106.379,-113.754 136.037,-131.737 164,-143 170.226,-145.508 176.874,-147.752 183.554,-149.742"/>
<polygon fill="midnightblue" stroke="midnightblue" points="182.746,-153.15 193.319,-152.476 184.633,-146.409 182.746,-153.15"/>
</g>
<!-- Node4 -->
<g id="node4" class="node"><title>Node4</title>
<g id="a_node4"><a xlink:href="../../d3/d14/classefd_1_1NDQOpCX.xhtml#a7b526a26be080f963c70e7001b7e9ff5" target="_top" xlink:title="Gets the right hand side of the gate. ">
<polygon fill="none" stroke="black" points="180,-114.5 180,-133.5 303,-133.5 303,-114.5 180,-114.5"/>
<text text-anchor="middle" x="241.5" y="-121.5" font-family="Helvetica,sans-Serif" font-size="10.00">efd::NDQOpCX::getRhs</text>
</a>
</g>
</g>
<!-- Node1&#45;&gt;Node4 -->
<g id="edge3" class="edge"><title>Node1&#45;&gt;Node4</title>
<path fill="none" stroke="midnightblue" d="M128.36,-99.7189C147.413,-103.844 168.134,-108.331 186.52,-112.312"/>
<polygon fill="midnightblue" stroke="midnightblue" points="185.955,-115.771 196.469,-114.466 187.436,-108.929 185.955,-115.771"/>
</g>
<!-- Node5 -->
<g id="node5" class="node"><title>Node5</title>
<g id="a_node5"><a xlink:href="../../d5/dae/classefd_1_1ArchGraph.xhtml#a197c4183cb9e9127161a8944206c3ca6" target="_top" xlink:title="Returns the uint32_t id of the vertex s. ">
<polygon fill="none" stroke="black" points="182.5,-76.5 182.5,-95.5 300.5,-95.5 300.5,-76.5 182.5,-76.5"/>
<text text-anchor="middle" x="241.5" y="-83.5" font-family="Helvetica,sans-Serif" font-size="10.00">efd::ArchGraph::getUId</text>
</a>
</g>
</g>
<!-- Node1&#45;&gt;Node5 -->
<g id="edge5" class="edge"><title>Node1&#45;&gt;Node5</title>
<path fill="none" stroke="midnightblue" d="M128.36,-86C142.581,-86 157.73,-86 172.145,-86"/>
<polygon fill="midnightblue" stroke="midnightblue" points="172.488,-89.5001 182.487,-86 172.487,-82.5001 172.488,-89.5001"/>
</g>
<!-- Node7 -->
<g id="node7" class="node"><title>Node7</title>
<g id="a_node7"><a xlink:href="../../d5/dae/classefd_1_1ArchGraph.xhtml#a10786b155e3d2d397b9d94227080155a" target="_top" xlink:title="Returns true if the edge (i, j) is a reverse edge. i.e.: if (i, j) is not in the graph, but (j, i) is. ">
<polygon fill="none" stroke="black" points="164,-38.5 164,-57.5 319,-57.5 319,-38.5 164,-38.5"/>
<text text-anchor="middle" x="241.5" y="-45.5" font-family="Helvetica,sans-Serif" font-size="10.00">efd::ArchGraph::isReverseEdge</text>
</a>
</g>
</g>
<!-- Node1&#45;&gt;Node7 -->
<g id="edge7" class="edge"><title>Node1&#45;&gt;Node7</title>
<path fill="none" stroke="midnightblue" d="M128.36,-72.2811C147.413,-68.1555 168.134,-63.6691 186.52,-59.688"/>
<polygon fill="midnightblue" stroke="midnightblue" points="187.436,-63.0708 196.469,-57.5338 185.955,-56.2294 187.436,-63.0708"/>
</g>
<!-- Node8 -->
<g id="node8" class="node"><title>Node8</title>
<g id="a_node8"><a xlink:href="../../d6/d6a/classefd_1_1Node.xhtml#a96ca13a5c2b971b68619ce4a34be0f66" target="_top" xlink:title="Returns a std::string representation of this Node and its childrem. ">
<polygon fill="none" stroke="black" points="192,-0.5 192,-19.5 291,-19.5 291,-0.5 192,-0.5"/>
<text text-anchor="middle" x="241.5" y="-7.5" font-family="Helvetica,sans-Serif" font-size="10.00">efd::Node::toString</text>
</a>
</g>
</g>
<!-- Node1&#45;&gt;Node8 -->
<g id="edge8" class="edge"><title>Node1&#45;&gt;Node8</title>
<path fill="none" stroke="midnightblue" d="M86.8965,-70.9984C106.379,-58.2463 136.037,-40.2634 164,-29 170.226,-26.4922 176.874,-24.2479 183.554,-22.2582"/>
<polygon fill="midnightblue" stroke="midnightblue" points="184.633,-25.5908 193.319,-19.5242 182.746,-18.85 184.633,-25.5908"/>
</g>
<!-- Node3 -->
<g id="node3" class="node"><title>Node3</title>
<g id="a_node3"><a xlink:href="../../d6/d6a/classefd_1_1Node.xhtml#a63e30243eca03b0c85d8c4856e91c79d" target="_top" xlink:title="Gets the i&#45;th child. ">
<polygon fill="none" stroke="black" points="364,-133.5 364,-152.5 465,-152.5 465,-133.5 364,-133.5"/>
<text text-anchor="middle" x="414.5" y="-140.5" font-family="Helvetica,sans-Serif" font-size="10.00">efd::Node::getChild</text>
</a>
</g>
</g>
<!-- Node2&#45;&gt;Node3 -->
<g id="edge2" class="edge"><title>Node2&#45;&gt;Node3</title>
<path fill="none" stroke="midnightblue" d="M302.308,-155.355C318.977,-153.503 337.083,-151.491 353.749,-149.639"/>
<polygon fill="midnightblue" stroke="midnightblue" points="354.362,-153.093 363.914,-148.51 353.589,-146.135 354.362,-153.093"/>
</g>
<!-- Node4&#45;&gt;Node3 -->
<g id="edge4" class="edge"><title>Node4&#45;&gt;Node3</title>
<path fill="none" stroke="midnightblue" d="M303.27,-130.752C319.726,-132.581 337.519,-134.558 353.909,-136.379"/>
<polygon fill="midnightblue" stroke="midnightblue" points="353.583,-139.864 363.909,-137.49 354.356,-132.907 353.583,-139.864"/>
</g>
<!-- Node6 -->
<g id="node6" class="node"><title>Node6</title>
<g id="a_node6"><a xlink:href="../../d5/dae/classefd_1_1ArchGraph.xhtml#ab7fb1e12dce31f495ef659d99e30b284" target="_top" xlink:title="Returns true if this architecture has a vertex whose string representation is s. ">
<polygon fill="none" stroke="black" points="355,-76.5 355,-95.5 474,-95.5 474,-76.5 355,-76.5"/>
<text text-anchor="middle" x="414.5" y="-83.5" font-family="Helvetica,sans-Serif" font-size="10.00">efd::ArchGraph::hasSId</text>
</a>
</g>
</g>
<!-- Node5&#45;&gt;Node6 -->
<g id="edge6" class="edge"><title>Node5&#45;&gt;Node6</title>
<path fill="none" stroke="midnightblue" d="M300.87,-86C314.884,-86 329.983,-86 344.431,-86"/>
<polygon fill="midnightblue" stroke="midnightblue" points="344.812,-89.5001 354.812,-86 344.812,-82.5001 344.812,-89.5001"/>
</g>
</g>
</svg>
