<?xml version="1.0" encoding="UTF-8" standalone="no"?>
<!DOCTYPE svg PUBLIC "-//W3C//DTD SVG 1.1//EN"
 "http://www.w3.org/Graphics/SVG/1.1/DTD/svg11.dtd">
<!-- Generated by graphviz version 2.40.1 (20161225.0304)
 -->
<!-- Title: efd::ReverseEdgesVisitor::visit Pages: 1 -->
<svg width="457pt" height="104pt"
 viewBox="0.00 0.00 457.00 104.00" xmlns="http://www.w3.org/2000/svg" xmlns:xlink="http://www.w3.org/1999/xlink">
<g id="graph0" class="graph" transform="scale(1 1) rotate(0) translate(4 100)">
<title>efd::ReverseEdgesVisitor::visit</title>
<!-- Node1 -->
<g id="node1" class="node">
<title>Node1</title>
<polygon fill="#bfbfbf" stroke="#000000" points="0,-33 0,-63 139,-63 139,-33 0,-33"/>
<text text-anchor="start" x="8" y="-51" font-family="Helvetica,sans-Serif" font-size="10.00" fill="#000000">efd::ReverseEdgesVisitor</text>
<text text-anchor="middle" x="69.5" y="-40" font-family="Helvetica,sans-Serif" font-size="10.00" fill="#000000">::visit</text>
</g>
<!-- Node2 -->
<g id="node2" class="node">
<title>Node2</title>
<g id="a_node2"><a xlink:href="../../d3/d14/classefd_1_1NDQOpCX.xhtml#aebb2d70f1197065d1b127c2925dd33e6" target="_top" xlink:title="Gets the left hand side of the gate. ">
<polygon fill="none" stroke="#000000" points="176,-76.5 176,-95.5 302,-95.5 302,-76.5 176,-76.5"/>
<text text-anchor="middle" x="239" y="-83.5" font-family="Helvetica,sans-Serif" font-size="10.00" fill="#000000">efd::NDQOpCX::getLhs</text>
</a>
</g>
</g>
<!-- Node1&#45;&gt;Node2 -->
<g id="edge1" class="edge">
<title>Node1&#45;&gt;Node2</title>
<path fill="none" stroke="#191970" d="M136.4909,-63.0186C153.0388,-66.7285 170.5326,-70.6504 186.2927,-74.1836"/>
<polygon fill="#191970" stroke="#191970" points="185.8481,-77.6708 196.3716,-76.4432 187.3795,-70.8403 185.8481,-77.6708"/>
</g>
<!-- Node4 -->
<g id="node4" class="node">
<title>Node4</title>
<g id="a_node4"><a xlink:href="../../d3/d14/classefd_1_1NDQOpCX.xhtml#a7b526a26be080f963c70e7001b7e9ff5" target="_top" xlink:title="Gets the right hand side of the gate. ">
<polygon fill="none" stroke="#000000" points="175,-38.5 175,-57.5 303,-57.5 303,-38.5 175,-38.5"/>
<text text-anchor="middle" x="239" y="-45.5" font-family="Helvetica,sans-Serif" font-size="10.00" fill="#000000">efd::NDQOpCX::getRhs</text>
</a>
</g>
</g>
<!-- Node1&#45;&gt;Node4 -->
<g id="edge3" class="edge">
<title>Node1&#45;&gt;Node4</title>
<path fill="none" stroke="#191970" d="M139.4207,-48C147.7841,-48 156.3463,-48 164.7679,-48"/>
<polygon fill="#191970" stroke="#191970" points="164.9477,-51.5001 174.9476,-48 164.9476,-44.5001 164.9477,-51.5001"/>
</g>
<!-- Node5 -->
<g id="node5" class="node">
<title>Node5</title>
<g id="a_node5"><a xlink:href="../../d6/d6a/classefd_1_1Node.xhtml#a96ca13a5c2b971b68619ce4a34be0f66" target="_top" xlink:title="Returns a std::string representation of this Node and its childrem. ">
<polygon fill="none" stroke="#000000" points="185,-.5 185,-19.5 293,-19.5 293,-.5 185,-.5"/>
<text text-anchor="middle" x="239" y="-7.5" font-family="Helvetica,sans-Serif" font-size="10.00" fill="#000000">efd::Node::toString</text>
</a>
</g>
</g>
<!-- Node1&#45;&gt;Node5 -->
<g id="edge5" class="edge">
<title>Node1&#45;&gt;Node5</title>
<path fill="none" stroke="#191970" d="M136.4909,-32.9814C153.0388,-29.2715 170.5326,-25.3496 186.2927,-21.8164"/>
<polygon fill="#191970" stroke="#191970" points="187.3795,-25.1597 196.3716,-19.5568 185.8481,-18.3292 187.3795,-25.1597"/>
</g>
<!-- Node3 -->
<g id="node3" class="node">
<title>Node3</title>
<g id="a_node3"><a xlink:href="../../d6/d6a/classefd_1_1Node.xhtml#a63e30243eca03b0c85d8c4856e91c79d" target="_top" xlink:title="Gets the i&#45;th child. ">
<polygon fill="none" stroke="#000000" points="339,-57.5 339,-76.5 449,-76.5 449,-57.5 339,-57.5"/>
<text text-anchor="middle" x="394" y="-64.5" font-family="Helvetica,sans-Serif" font-size="10.00" fill="#000000">efd::Node::getChild</text>
</a>
</g>
</g>
<!-- Node2&#45;&gt;Node3 -->
<g id="edge2" class="edge">
<title>Node2&#45;&gt;Node3</title>
<path fill="none" stroke="#191970" d="M302.0444,-78.272C310.9352,-77.1821 320.0892,-76.06 329.0156,-74.9658"/>
<polygon fill="#191970" stroke="#191970" points="329.4711,-78.4363 338.971,-73.7455 328.6194,-71.4883 329.4711,-78.4363"/>
</g>
<!-- Node4&#45;&gt;Node3 -->
<g id="edge4" class="edge">
<title>Node4&#45;&gt;Node3</title>
<path fill="none" stroke="#191970" d="M303.3874,-55.8926C311.7843,-56.9219 320.3926,-57.9772 328.8027,-59.0081"/>
<polygon fill="#191970" stroke="#191970" points="328.5836,-62.5073 338.9351,-60.2501 329.4353,-55.5593 328.5836,-62.5073"/>
</g>
</g>
</svg>
