<?xml version="1.0" encoding="UTF-8" standalone="no"?>
<!DOCTYPE svg PUBLIC "-//W3C//DTD SVG 1.1//EN"
 "http://www.w3.org/Graphics/SVG/1.1/DTD/svg11.dtd">
<!-- Generated by graphviz version 2.40.1 (20161225.0304)
 -->
<!-- Title: include/enfield/Transform/RenameQbitsPass.h Pages: 1 -->
<svg width="476pt" height="106pt"
 viewBox="0.00 0.00 475.50 106.00" xmlns="http://www.w3.org/2000/svg" xmlns:xlink="http://www.w3.org/1999/xlink">
<g id="graph0" class="graph" transform="scale(1 1) rotate(0) translate(4 102)">
<title>include/enfield/Transform/RenameQbitsPass.h</title>
<!-- Node12 -->
<g id="node1" class="node">
<title>Node12</title>
<polygon fill="#bfbfbf" stroke="#000000" points="154,-67.5 154,-97.5 296,-97.5 296,-67.5 154,-67.5"/>
<text text-anchor="start" x="162" y="-85.5" font-family="Helvetica,sans-Serif" font-size="10.00" fill="#000000">include/enfield/Transform</text>
<text text-anchor="middle" x="225" y="-74.5" font-family="Helvetica,sans-Serif" font-size="10.00" fill="#000000">/RenameQbitsPass.h</text>
</g>
<!-- Node13 -->
<g id="node2" class="node">
<title>Node13</title>
<g id="a_node2"><a xlink:href="../../d0/d91/QbitAllocator_8cpp.xhtml" target="_top" xlink:title="lib/Transform/Allocators\l/QbitAllocator.cpp">
<polygon fill="none" stroke="#000000" points="0,-.5 0,-30.5 134,-30.5 134,-.5 0,-.5"/>
<text text-anchor="start" x="8" y="-18.5" font-family="Helvetica,sans-Serif" font-size="10.00" fill="#000000">lib/Transform/Allocators</text>
<text text-anchor="middle" x="67" y="-7.5" font-family="Helvetica,sans-Serif" font-size="10.00" fill="#000000">/QbitAllocator.cpp</text>
</a>
</g>
</g>
<!-- Node12&#45;&gt;Node13 -->
<g id="edge1" class="edge">
<title>Node12&#45;&gt;Node13</title>
<path fill="none" stroke="#191970" d="M180.0798,-63.4516C155.5252,-53.0392 125.5364,-40.3224 102.6129,-30.6017"/>
<polygon fill="#191970" stroke="#191970" points="178.9688,-66.7821 189.5417,-67.4639 181.7017,-60.3376 178.9688,-66.7821"/>
</g>
<!-- Node14 -->
<g id="node3" class="node">
<title>Node14</title>
<g id="a_node3"><a xlink:href="../../dd/d13/StdSolutionQAllocator_8cpp.xhtml" target="_top" xlink:title="lib/Transform/Allocators\l/StdSolutionQAllocator.cpp">
<polygon fill="none" stroke="#000000" points="152,-.5 152,-30.5 298,-30.5 298,-.5 152,-.5"/>
<text text-anchor="start" x="160" y="-18.5" font-family="Helvetica,sans-Serif" font-size="10.00" fill="#000000">lib/Transform/Allocators</text>
<text text-anchor="middle" x="225" y="-7.5" font-family="Helvetica,sans-Serif" font-size="10.00" fill="#000000">/StdSolutionQAllocator.cpp</text>
</a>
</g>
</g>
<!-- Node12&#45;&gt;Node14 -->
<g id="edge2" class="edge">
<title>Node12&#45;&gt;Node14</title>
<path fill="none" stroke="#191970" d="M225,-57.0249C225,-48.128 225,-38.4287 225,-30.6432"/>
<polygon fill="#191970" stroke="#191970" points="221.5001,-57.2966 225,-67.2967 228.5001,-57.2967 221.5001,-57.2966"/>
</g>
<!-- Node15 -->
<g id="node4" class="node">
<title>Node15</title>
<g id="a_node4"><a xlink:href="../../d4/d2f/RenameQbitsPass_8cpp.xhtml" target="_top" xlink:title="lib/Transform/RenameQbits\lPass.cpp">
<polygon fill="none" stroke="#000000" points="316.5,-.5 316.5,-30.5 467.5,-30.5 467.5,-.5 316.5,-.5"/>
<text text-anchor="start" x="324.5" y="-18.5" font-family="Helvetica,sans-Serif" font-size="10.00" fill="#000000">lib/Transform/RenameQbits</text>
<text text-anchor="middle" x="392" y="-7.5" font-family="Helvetica,sans-Serif" font-size="10.00" fill="#000000">Pass.cpp</text>
</a>
</g>
</g>
<!-- Node12&#45;&gt;Node15 -->
<g id="edge3" class="edge">
<title>Node12&#45;&gt;Node15</title>
<path fill="none" stroke="#191970" d="M271.7912,-63.7275C297.8706,-53.2645 329.9148,-40.4084 354.3585,-30.6017"/>
<polygon fill="#191970" stroke="#191970" points="270.4558,-60.492 262.4781,-67.4639 273.0622,-66.9887 270.4558,-60.492"/>
</g>
</g>
</svg>
