<?xml version="1.0" encoding="UTF-8" standalone="no"?>
<!DOCTYPE svg PUBLIC "-//W3C//DTD SVG 1.1//EN"
 "http://www.w3.org/Graphics/SVG/1.1/DTD/svg11.dtd">
<!-- Generated by graphviz version 2.38.0 (20140413.2041)
 -->
<!-- Title: efd::WeightedGraph::edgeToString Pages: 1 -->
<svg width="280pt" height="78pt"
 viewBox="0.00 0.00 280.00 77.50" xmlns="http://www.w3.org/2000/svg" xmlns:xlink="http://www.w3.org/1999/xlink">
<g id="graph0" class="graph" transform="scale(1 1) rotate(0) translate(4 73.5)">
<title>efd::WeightedGraph::edgeToString</title>
<!-- Node4 -->
<g id="node1" class="node"><title>Node4</title>
<polygon fill="#bfbfbf" stroke="black" points="0,-17 0,-47 104,-47 104,-17 0,-17"/>
<text text-anchor="start" x="8" y="-35" font-family="Helvetica,sans-Serif" font-size="10.00">efd::WeightedGraph</text>
<text text-anchor="middle" x="52" y="-24" font-family="Helvetica,sans-Serif" font-size="10.00">::edgeToString</text>
</g>
<!-- Node5 -->
<g id="node2" class="node"><title>Node5</title>
<g id="a_node2"><a xlink:href="../../d2/d54/classefd_1_1WeightedGraph.xhtml#a44a294b52142aaaa321c520be2ac93ab" target="_top" xlink:title="Gets the weight of an edge (i, j). ">
<polygon fill="none" stroke="black" points="154,-39 154,-69 258,-69 258,-39 154,-39"/>
<text text-anchor="start" x="162" y="-57" font-family="Helvetica,sans-Serif" font-size="10.00">efd::WeightedGraph</text>
<text text-anchor="middle" x="206" y="-46" font-family="Helvetica,sans-Serif" font-size="10.00">::getW</text>
</a>
</g>
</g>
<!-- Node4&#45;&gt;Node5 -->
<g id="edge1" class="edge"><title>Node4&#45;&gt;Node5</title>
<path fill="none" stroke="midnightblue" d="M104.037,-39.3869C116.82,-41.2371 130.663,-43.2407 143.881,-45.1538"/>
<polygon fill="midnightblue" stroke="midnightblue" points="143.441,-48.6265 153.839,-46.5952 144.444,-41.6987 143.441,-48.6265"/>
</g>
<!-- Node6 -->
<g id="node3" class="node"><title>Node6</title>
<g id="a_node3"><a xlink:href="../../db/db3/classefd_1_1Graph.xhtml#ab47a77bae3a7ad42e41b1b255cf65d0a" target="_top" xlink:title="efd::Graph::vertexToString">
<polygon fill="none" stroke="black" points="140,-0.5 140,-19.5 272,-19.5 272,-0.5 140,-0.5"/>
<text text-anchor="middle" x="206" y="-7.5" font-family="Helvetica,sans-Serif" font-size="10.00">efd::Graph::vertexToString</text>
</a>
</g>
</g>
<!-- Node4&#45;&gt;Node6 -->
<g id="edge2" class="edge"><title>Node4&#45;&gt;Node6</title>
<path fill="none" stroke="midnightblue" d="M104.037,-24.6131C112.281,-23.4198 120.967,-22.1627 129.641,-20.9072"/>
<polygon fill="midnightblue" stroke="midnightblue" points="130.396,-24.3345 139.792,-19.4381 129.393,-17.4067 130.396,-24.3345"/>
</g>
</g>
</svg>
