<?xml version="1.0" encoding="UTF-8" standalone="no"?>
<!DOCTYPE svg PUBLIC "-//W3C//DTD SVG 1.1//EN"
 "http://www.w3.org/Graphics/SVG/1.1/DTD/svg11.dtd">
<!-- Generated by graphviz version 2.40.1 (20161225.0304)
 -->
<!-- Title: lib/Support/Graph.cpp Pages: 1 -->
<svg width="418pt" height="140pt"
 viewBox="0.00 0.00 418.00 140.00" xmlns="http://www.w3.org/2000/svg" xmlns:xlink="http://www.w3.org/1999/xlink">
<g id="graph0" class="graph" transform="scale(1 1) rotate(0) translate(4 136)">
<title>lib/Support/Graph.cpp</title>
<!-- Node0 -->
<g id="node1" class="node">
<title>Node0</title>
<polygon fill="#bfbfbf" stroke="#000000" points="209,-112.5 209,-131.5 331,-131.5 331,-112.5 209,-112.5"/>
<text text-anchor="middle" x="270" y="-119.5" font-family="Helvetica,sans-Serif" font-size="10.00" fill="#000000">lib/Support/Graph.cpp</text>
</g>
<!-- Node1 -->
<g id="node2" class="node">
<title>Node1</title>
<g id="a_node2"><a xlink:href="../../d7/d16/Graph_8h.xhtml" target="_top" xlink:title="enfield/Support/Graph.h">
<polygon fill="none" stroke="#000000" points="52,-56.5 52,-75.5 184,-75.5 184,-56.5 52,-56.5"/>
<text text-anchor="middle" x="118" y="-63.5" font-family="Helvetica,sans-Serif" font-size="10.00" fill="#000000">enfield/Support/Graph.h</text>
</a>
</g>
</g>
<!-- Node0&#45;&gt;Node1 -->
<g id="edge1" class="edge">
<title>Node0&#45;&gt;Node1</title>
<path fill="none" stroke="#191970" d="M243.8703,-112.3733C218.9232,-103.1822 181.1408,-89.2624 153.4794,-79.0713"/>
<polygon fill="#191970" stroke="#191970" points="154.3822,-75.674 143.7888,-75.5011 151.9622,-82.2424 154.3822,-75.674"/>
</g>
<!-- Node6 -->
<g id="node7" class="node">
<title>Node6</title>
<polygon fill="none" stroke="#bfbfbf" points="202,-56.5 202,-75.5 262,-75.5 262,-56.5 202,-56.5"/>
<text text-anchor="middle" x="232" y="-63.5" font-family="Helvetica,sans-Serif" font-size="10.00" fill="#000000">iostream</text>
</g>
<!-- Node0&#45;&gt;Node6 -->
<g id="edge6" class="edge">
<title>Node0&#45;&gt;Node6</title>
<path fill="none" stroke="#191970" d="M263.3809,-112.2455C258.0954,-104.4564 250.5459,-93.3308 244.1762,-83.9439"/>
<polygon fill="#191970" stroke="#191970" points="247.0545,-81.9522 238.5432,-75.6427 241.2621,-85.8827 247.0545,-81.9522"/>
</g>
<!-- Node7 -->
<g id="node8" class="node">
<title>Node7</title>
<polygon fill="none" stroke="#bfbfbf" points="280.5,-56.5 280.5,-75.5 335.5,-75.5 335.5,-56.5 280.5,-56.5"/>
<text text-anchor="middle" x="308" y="-63.5" font-family="Helvetica,sans-Serif" font-size="10.00" fill="#000000">fstream</text>
</g>
<!-- Node0&#45;&gt;Node7 -->
<g id="edge7" class="edge">
<title>Node0&#45;&gt;Node7</title>
<path fill="none" stroke="#191970" d="M276.6191,-112.2455C281.9046,-104.4564 289.4541,-93.3308 295.8238,-83.9439"/>
<polygon fill="#191970" stroke="#191970" points="298.7379,-85.8827 301.4568,-75.6427 292.9455,-81.9522 298.7379,-85.8827"/>
</g>
<!-- Node8 -->
<g id="node9" class="node">
<title>Node8</title>
<polygon fill="none" stroke="#bfbfbf" points="354,-56.5 354,-75.5 410,-75.5 410,-56.5 354,-56.5"/>
<text text-anchor="middle" x="382" y="-63.5" font-family="Helvetica,sans-Serif" font-size="10.00" fill="#000000">sstream</text>
</g>
<!-- Node0&#45;&gt;Node8 -->
<g id="edge8" class="edge">
<title>Node0&#45;&gt;Node8</title>
<path fill="none" stroke="#191970" d="M289.2535,-112.3733C307.0712,-103.4644 333.7747,-90.1127 353.9594,-80.0203"/>
<polygon fill="#191970" stroke="#191970" points="355.6187,-83.1038 362.9978,-75.5011 352.4882,-76.8428 355.6187,-83.1038"/>
</g>
<!-- Node2 -->
<g id="node3" class="node">
<title>Node2</title>
<polygon fill="none" stroke="#bfbfbf" points="0,-.5 0,-19.5 32,-19.5 32,-.5 0,-.5"/>
<text text-anchor="middle" x="16" y="-7.5" font-family="Helvetica,sans-Serif" font-size="10.00" fill="#000000">set</text>
</g>
<!-- Node1&#45;&gt;Node2 -->
<g id="edge2" class="edge">
<title>Node1&#45;&gt;Node2</title>
<path fill="none" stroke="#191970" d="M100.233,-56.2455C83.9017,-47.2793 59.5175,-33.892 41.1813,-23.825"/>
<polygon fill="#191970" stroke="#191970" points="42.6688,-20.6489 32.2186,-18.9043 39.2999,-26.785 42.6688,-20.6489"/>
</g>
<!-- Node3 -->
<g id="node4" class="node">
<title>Node3</title>
<polygon fill="none" stroke="#bfbfbf" points="50.5,-.5 50.5,-19.5 97.5,-19.5 97.5,-.5 50.5,-.5"/>
<text text-anchor="middle" x="74" y="-7.5" font-family="Helvetica,sans-Serif" font-size="10.00" fill="#000000">vector</text>
</g>
<!-- Node1&#45;&gt;Node3 -->
<g id="edge3" class="edge">
<title>Node1&#45;&gt;Node3</title>
<path fill="none" stroke="#191970" d="M110.3358,-56.2455C104.1527,-48.3761 95.2937,-37.101 87.8711,-27.6542"/>
<polygon fill="#191970" stroke="#191970" points="90.5068,-25.3435 81.5764,-19.6427 85.0025,-29.6683 90.5068,-25.3435"/>
</g>
<!-- Node4 -->
<g id="node5" class="node">
<title>Node4</title>
<polygon fill="none" stroke="#bfbfbf" points="115.5,-.5 115.5,-19.5 208.5,-19.5 208.5,-.5 115.5,-.5"/>
<text text-anchor="middle" x="162" y="-7.5" font-family="Helvetica,sans-Serif" font-size="10.00" fill="#000000">unordered_map</text>
</g>
<!-- Node1&#45;&gt;Node4 -->
<g id="edge4" class="edge">
<title>Node1&#45;&gt;Node4</title>
<path fill="none" stroke="#191970" d="M125.6642,-56.2455C131.8473,-48.3761 140.7063,-37.101 148.1289,-27.6542"/>
<polygon fill="#191970" stroke="#191970" points="150.9975,-29.6683 154.4236,-19.6427 145.4932,-25.3435 150.9975,-29.6683"/>
</g>
<!-- Node5 -->
<g id="node6" class="node">
<title>Node5</title>
<polygon fill="none" stroke="#bfbfbf" points="227,-.5 227,-19.5 285,-19.5 285,-.5 227,-.5"/>
<text text-anchor="middle" x="256" y="-7.5" font-family="Helvetica,sans-Serif" font-size="10.00" fill="#000000">memory</text>
</g>
<!-- Node1&#45;&gt;Node5 -->
<g id="edge5" class="edge">
<title>Node1&#45;&gt;Node5</title>
<path fill="none" stroke="#191970" d="M141.723,-56.3733C164.1737,-47.2629 198.0739,-33.5062 223.1255,-23.3404"/>
<polygon fill="#191970" stroke="#191970" points="224.6365,-26.5045 232.5865,-19.5011 222.0043,-20.0182 224.6365,-26.5045"/>
</g>
</g>
</svg>
