<?xml version="1.0" encoding="UTF-8" standalone="no"?>
<!DOCTYPE svg PUBLIC "-//W3C//DTD SVG 1.1//EN"
 "http://www.w3.org/Graphics/SVG/1.1/DTD/svg11.dtd">
<!-- Generated by graphviz version 2.38.0 (20140413.2041)
 -->
<!-- Title: lib/Support/Graph.cpp Pages: 1 -->
<svg width="457pt" height="140pt"
 viewBox="0.00 0.00 456.50 140.00" xmlns="http://www.w3.org/2000/svg" xmlns:xlink="http://www.w3.org/1999/xlink">
<g id="graph0" class="graph" transform="scale(1 1) rotate(0) translate(4 136)">
<title>lib/Support/Graph.cpp</title>
<!-- Node0 -->
<g id="node1" class="node"><title>Node0</title>
<polygon fill="#bfbfbf" stroke="black" points="230.5,-112.5 230.5,-131.5 341.5,-131.5 341.5,-112.5 230.5,-112.5"/>
<text text-anchor="middle" x="286" y="-119.5" font-family="Helvetica,sans-Serif" font-size="10.00">lib/Support/Graph.cpp</text>
</g>
<!-- Node1 -->
<g id="node2" class="node"><title>Node1</title>
<g id="a_node2"><a xlink:href="../../d7/d16/Graph_8h.xhtml" target="_top" xlink:title="enfield/Support/Graph.h">
<polygon fill="none" stroke="black" points="51.5,-56.5 51.5,-75.5 170.5,-75.5 170.5,-56.5 51.5,-56.5"/>
<text text-anchor="middle" x="111" y="-63.5" font-family="Helvetica,sans-Serif" font-size="10.00">enfield/Support/Graph.h</text>
</a>
</g>
</g>
<!-- Node0&#45;&gt;Node1 -->
<g id="edge1" class="edge"><title>Node0&#45;&gt;Node1</title>
<path fill="none" stroke="midnightblue" d="M258.271,-112.444C228.574,-103.28 181.284,-88.6876 148.331,-78.5192"/>
<polygon fill="midnightblue" stroke="midnightblue" points="149.187,-75.1206 138.6,-75.5164 147.123,-81.8094 149.187,-75.1206"/>
</g>
<!-- Node6 -->
<g id="node7" class="node"><title>Node6</title>
<polygon fill="none" stroke="#bfbfbf" points="189,-56.5 189,-75.5 243,-75.5 243,-56.5 189,-56.5"/>
<text text-anchor="middle" x="216" y="-63.5" font-family="Helvetica,sans-Serif" font-size="10.00">iostream</text>
</g>
<!-- Node0&#45;&gt;Node6 -->
<g id="edge6" class="edge"><title>Node0&#45;&gt;Node6</title>
<path fill="none" stroke="midnightblue" d="M274.753,-112.324C264.203,-104.185 248.199,-91.8395 235.558,-82.0874"/>
<polygon fill="midnightblue" stroke="midnightblue" points="237.507,-79.1707 227.451,-75.8339 233.231,-84.7132 237.507,-79.1707"/>
</g>
<!-- Node7 -->
<g id="node8" class="node"><title>Node7</title>
<polygon fill="none" stroke="#bfbfbf" points="261,-56.5 261,-75.5 311,-75.5 311,-56.5 261,-56.5"/>
<text text-anchor="middle" x="286" y="-63.5" font-family="Helvetica,sans-Serif" font-size="10.00">fstream</text>
</g>
<!-- Node0&#45;&gt;Node7 -->
<g id="edge7" class="edge"><title>Node0&#45;&gt;Node7</title>
<path fill="none" stroke="midnightblue" d="M286,-112.083C286,-105.006 286,-94.8611 286,-85.9865"/>
<polygon fill="midnightblue" stroke="midnightblue" points="289.5,-85.751 286,-75.7511 282.5,-85.7511 289.5,-85.751"/>
</g>
<!-- Node8 -->
<g id="node9" class="node"><title>Node8</title>
<polygon fill="none" stroke="#bfbfbf" points="329,-56.5 329,-75.5 381,-75.5 381,-56.5 329,-56.5"/>
<text text-anchor="middle" x="355" y="-63.5" font-family="Helvetica,sans-Serif" font-size="10.00">sstream</text>
</g>
<!-- Node0&#45;&gt;Node8 -->
<g id="edge8" class="edge"><title>Node0&#45;&gt;Node8</title>
<path fill="none" stroke="midnightblue" d="M297.086,-112.324C307.486,-104.185 323.261,-91.8395 335.722,-82.0874"/>
<polygon fill="midnightblue" stroke="midnightblue" points="337.994,-84.7533 343.712,-75.8339 333.68,-79.2407 337.994,-84.7533"/>
</g>
<!-- Node9 -->
<g id="node10" class="node"><title>Node9</title>
<polygon fill="none" stroke="#bfbfbf" points="399.5,-56.5 399.5,-75.5 448.5,-75.5 448.5,-56.5 399.5,-56.5"/>
<text text-anchor="middle" x="424" y="-63.5" font-family="Helvetica,sans-Serif" font-size="10.00">cassert</text>
</g>
<!-- Node0&#45;&gt;Node9 -->
<g id="edge9" class="edge"><title>Node0&#45;&gt;Node9</title>
<path fill="none" stroke="midnightblue" d="M307.867,-112.444C330.779,-103.478 366.975,-89.314 392.866,-79.1827"/>
<polygon fill="midnightblue" stroke="midnightblue" points="394.199,-82.4198 402.236,-75.5164 391.648,-75.9011 394.199,-82.4198"/>
</g>
<!-- Node2 -->
<g id="node3" class="node"><title>Node2</title>
<polygon fill="none" stroke="#bfbfbf" points="0,-0.5 0,-19.5 30,-19.5 30,-0.5 0,-0.5"/>
<text text-anchor="middle" x="15" y="-7.5" font-family="Helvetica,sans-Serif" font-size="10.00">set</text>
</g>
<!-- Node1&#45;&gt;Node2 -->
<g id="edge2" class="edge"><title>Node1&#45;&gt;Node2</title>
<path fill="none" stroke="midnightblue" d="M95.5759,-56.324C80.371,-47.7712 56.9089,-34.5737 39.216,-24.6215"/>
<polygon fill="midnightblue" stroke="midnightblue" points="40.501,-21.3286 30.0693,-19.4765 37.0691,-27.4296 40.501,-21.3286"/>
</g>
<!-- Node3 -->
<g id="node4" class="node"><title>Node3</title>
<polygon fill="none" stroke="#bfbfbf" points="48,-0.5 48,-19.5 92,-19.5 92,-0.5 48,-0.5"/>
<text text-anchor="middle" x="70" y="-7.5" font-family="Helvetica,sans-Serif" font-size="10.00">vector</text>
</g>
<!-- Node1&#45;&gt;Node3 -->
<g id="edge3" class="edge"><title>Node1&#45;&gt;Node3</title>
<path fill="none" stroke="midnightblue" d="M104.23,-56.083C98.4384,-48.4554 89.9415,-37.2645 82.8625,-27.9408"/>
<polygon fill="midnightblue" stroke="midnightblue" points="85.479,-25.5991 76.6443,-19.7511 79.9039,-29.8321 85.479,-25.5991"/>
</g>
<!-- Node4 -->
<g id="node5" class="node"><title>Node4</title>
<polygon fill="none" stroke="#bfbfbf" points="110.5,-0.5 110.5,-19.5 193.5,-19.5 193.5,-0.5 110.5,-0.5"/>
<text text-anchor="middle" x="152" y="-7.5" font-family="Helvetica,sans-Serif" font-size="10.00">unordered_map</text>
</g>
<!-- Node1&#45;&gt;Node4 -->
<g id="edge4" class="edge"><title>Node1&#45;&gt;Node4</title>
<path fill="none" stroke="midnightblue" d="M117.77,-56.083C123.562,-48.4554 132.058,-37.2645 139.138,-27.9408"/>
<polygon fill="midnightblue" stroke="midnightblue" points="142.096,-29.8321 145.356,-19.7511 136.521,-25.5991 142.096,-29.8321"/>
</g>
<!-- Node5 -->
<g id="node6" class="node"><title>Node5</title>
<polygon fill="none" stroke="#bfbfbf" points="212,-0.5 212,-19.5 264,-19.5 264,-0.5 212,-0.5"/>
<text text-anchor="middle" x="238" y="-7.5" font-family="Helvetica,sans-Serif" font-size="10.00">memory</text>
</g>
<!-- Node1&#45;&gt;Node5 -->
<g id="edge5" class="edge"><title>Node1&#45;&gt;Node5</title>
<path fill="none" stroke="midnightblue" d="M131.124,-56.4435C152.024,-47.5566 184.935,-33.5632 208.716,-23.4514"/>
<polygon fill="midnightblue" stroke="midnightblue" points="210.138,-26.6504 217.971,-19.5164 207.398,-20.2085 210.138,-26.6504"/>
</g>
</g>
</svg>
