<?xml version="1.0" encoding="UTF-8" standalone="no"?>
<!DOCTYPE svg PUBLIC "-//W3C//DTD SVG 1.1//EN"
 "http://www.w3.org/Graphics/SVG/1.1/DTD/svg11.dtd">
<!-- Generated by graphviz version 2.38.0 (20140413.2041)
 -->
<!-- Title: efd::NDRegDecl Pages: 1 -->
<svg width="140pt" height="142pt"
 viewBox="0.00 0.00 140.00 142.00" xmlns="http://www.w3.org/2000/svg" xmlns:xlink="http://www.w3.org/1999/xlink">
<g id="graph0" class="graph" transform="scale(1 1) rotate(0) translate(4 138)">
<title>efd::NDRegDecl</title>
<!-- Node3 -->
<g id="node1" class="node"><title>Node3</title>
<polygon fill="#bfbfbf" stroke="black" points="-7.10543e-15,-0.5 -7.10543e-15,-19.5 89,-19.5 89,-0.5 -7.10543e-15,-0.5"/>
<text text-anchor="middle" x="44.5" y="-7.5" font-family="Helvetica,sans-Serif" font-size="10.00">efd::NDRegDecl</text>
</g>
<!-- Node4 -->
<g id="node2" class="node"><title>Node4</title>
<g id="a_node2"><a xlink:href="../../d0/d9e/classefd_1_1NDDecl.xhtml" target="_top" xlink:title="Node for declaration of registers (concrete and quantum). ">
<polygon fill="none" stroke="black" points="9,-57.5 9,-76.5 80,-76.5 80,-57.5 9,-57.5"/>
<text text-anchor="middle" x="44.5" y="-64.5" font-family="Helvetica,sans-Serif" font-size="10.00">efd::NDDecl</text>
</a>
</g>
</g>
<!-- Node4&#45;&gt;Node3 -->
<g id="edge1" class="edge"><title>Node4&#45;&gt;Node3</title>
<path fill="none" stroke="midnightblue" d="M44.5,-47.1166C44.5,-37.8173 44.5,-27.0557 44.5,-19.7149"/>
<polygon fill="midnightblue" stroke="midnightblue" points="41.0001,-47.4062 44.5,-57.4062 48.0001,-47.4063 41.0001,-47.4062"/>
</g>
<!-- Node5 -->
<g id="node3" class="node"><title>Node5</title>
<g id="a_node3"><a xlink:href="../../d6/d6a/classefd_1_1Node.xhtml" target="_top" xlink:title="Base class for AST nodes. ">
<polygon fill="none" stroke="black" points="15,-114.5 15,-133.5 74,-133.5 74,-114.5 15,-114.5"/>
<text text-anchor="middle" x="44.5" y="-121.5" font-family="Helvetica,sans-Serif" font-size="10.00">efd::Node</text>
</a>
</g>
</g>
<!-- Node5&#45;&gt;Node4 -->
<g id="edge2" class="edge"><title>Node5&#45;&gt;Node4</title>
<path fill="none" stroke="midnightblue" d="M44.5,-104.117C44.5,-94.8173 44.5,-84.0557 44.5,-76.7149"/>
<polygon fill="midnightblue" stroke="midnightblue" points="41.0001,-104.406 44.5,-114.406 48.0001,-104.406 41.0001,-104.406"/>
</g>
<!-- Node5&#45;&gt;Node5 -->
<g id="edge3" class="edge"><title>Node5&#45;&gt;Node5</title>
<path fill="none" stroke="#9a32cd" stroke-dasharray="5,2" d="M84.1722,-128.512C88.9076,-127.691 92,-126.188 92,-124 92,-120.5 84.0833,-118.75 74.1875,-118.75"/>
<polygon fill="#9a32cd" stroke="#9a32cd" points="83.9022,-125.022 74.1875,-129.25 84.4184,-132.003 83.9022,-125.022"/>
<text text-anchor="middle" x="112" y="-121.5" font-family="Helvetica,sans-Serif" font-size="10.00"> mParent</text>
</g>
</g>
</svg>
