<?xml version="1.0" encoding="UTF-8" standalone="no"?>
<!DOCTYPE svg PUBLIC "-//W3C//DTD SVG 1.1//EN"
 "http://www.w3.org/Graphics/SVG/1.1/DTD/svg11.dtd">
<!-- Generated by graphviz version 2.38.0 (20140413.2041)
 -->
<!-- Title: efd::DynprogDepSolver::getIntermediateV Pages: 1 -->
<svg width="252pt" height="66pt"
 viewBox="0.00 0.00 252.00 66.00" xmlns="http://www.w3.org/2000/svg" xmlns:xlink="http://www.w3.org/1999/xlink">
<g id="graph0" class="graph" transform="scale(1 1) rotate(0) translate(4 62)">
<title>efd::DynprogDepSolver::getIntermediateV</title>
<!-- Node7 -->
<g id="node1" class="node"><title>Node7</title>
<polygon fill="#bfbfbf" stroke="black" points="0,-14 0,-44 119,-44 119,-14 0,-14"/>
<text text-anchor="start" x="8" y="-32" font-family="Helvetica,sans-Serif" font-size="10.00">efd::DynprogDepSolver</text>
<text text-anchor="middle" x="59.5" y="-21" font-family="Helvetica,sans-Serif" font-size="10.00">::getIntermediateV</text>
</g>
<!-- Node8 -->
<g id="node2" class="node"><title>Node8</title>
<g id="a_node2"><a xlink:href="../../db/db3/classefd_1_1Graph.xhtml#ac63b24166d3aa01848e0bd2ad9d46f2e" target="_top" xlink:title="Return the set of predecessors of some vertex i. ">
<polygon fill="none" stroke="black" points="156,-38.5 156,-57.5 243,-57.5 243,-38.5 156,-38.5"/>
<text text-anchor="middle" x="199.5" y="-45.5" font-family="Helvetica,sans-Serif" font-size="10.00">efd::Graph::pred</text>
</a>
</g>
</g>
<!-- Node7&#45;&gt;Node8 -->
<g id="edge1" class="edge"><title>Node7&#45;&gt;Node8</title>
<path fill="none" stroke="midnightblue" d="M119.024,-37.0577C127.895,-38.279 137.002,-39.5328 145.74,-40.736"/>
<polygon fill="midnightblue" stroke="midnightblue" points="145.409,-44.2233 155.793,-42.12 146.364,-37.2887 145.409,-44.2233"/>
</g>
<!-- Node9 -->
<g id="node3" class="node"><title>Node9</title>
<g id="a_node3"><a xlink:href="../../db/db3/classefd_1_1Graph.xhtml#a64836ad3c96e79e02179787ce3bd42c9" target="_top" xlink:title="Return the set of succesors of some vertex i. ">
<polygon fill="none" stroke="black" points="155,-0.5 155,-19.5 244,-19.5 244,-0.5 155,-0.5"/>
<text text-anchor="middle" x="199.5" y="-7.5" font-family="Helvetica,sans-Serif" font-size="10.00">efd::Graph::succ</text>
</a>
</g>
</g>
<!-- Node7&#45;&gt;Node9 -->
<g id="edge2" class="edge"><title>Node7&#45;&gt;Node9</title>
<path fill="none" stroke="midnightblue" d="M119.024,-20.9423C127.589,-19.763 136.375,-18.5534 144.836,-17.3885"/>
<polygon fill="midnightblue" stroke="midnightblue" points="145.531,-20.8259 154.96,-15.9946 144.576,-13.8913 145.531,-20.8259"/>
</g>
</g>
</svg>
