<?xml version="1.0" encoding="UTF-8" standalone="no"?>
<!DOCTYPE svg PUBLIC "-//W3C//DTD SVG 1.1//EN"
 "http://www.w3.org/Graphics/SVG/1.1/DTD/svg11.dtd">
<!-- Generated by graphviz version 2.38.0 (20140413.2041)
 -->
<!-- Title: efd::SemanticVerifierPass Pages: 1 -->
<svg width="175pt" height="209pt"
 viewBox="0.00 0.00 175.00 209.00" xmlns="http://www.w3.org/2000/svg" xmlns:xlink="http://www.w3.org/1999/xlink">
<g id="graph0" class="graph" transform="scale(1 1) rotate(0) translate(4 205)">
<title>efd::SemanticVerifierPass</title>
<!-- Node0 -->
<g id="node1" class="node"><title>Node0</title>
<polygon fill="#bfbfbf" stroke="black" points="0,-0.5 0,-19.5 131,-19.5 131,-0.5 0,-0.5"/>
<text text-anchor="middle" x="65.5" y="-7.5" font-family="Helvetica,sans-Serif" font-size="10.00">efd::SemanticVerifierPass</text>
</g>
<!-- Node1 -->
<g id="node2" class="node"><title>Node1</title>
<g id="a_node2"><a xlink:href="../../db/d56/classefd_1_1PassT.xhtml" target="_top" xlink:title="efd::PassT\&lt; bool \&gt;">
<polygon fill="none" stroke="black" points="15,-57.5 15,-76.5 116,-76.5 116,-57.5 15,-57.5"/>
<text text-anchor="middle" x="65.5" y="-64.5" font-family="Helvetica,sans-Serif" font-size="10.00">efd::PassT&lt; bool &gt;</text>
</a>
</g>
</g>
<!-- Node1&#45;&gt;Node0 -->
<g id="edge1" class="edge"><title>Node1&#45;&gt;Node0</title>
<path fill="none" stroke="midnightblue" d="M65.5,-47.1166C65.5,-37.8173 65.5,-27.0557 65.5,-19.7149"/>
<polygon fill="midnightblue" stroke="midnightblue" points="62.0001,-47.4062 65.5,-57.4062 69.0001,-47.4063 62.0001,-47.4062"/>
</g>
<!-- Node2 -->
<g id="node3" class="node"><title>Node2</title>
<g id="a_node3"><a xlink:href="../../d0/d98/classefd_1_1Pass.xhtml" target="_top" xlink:title="Base class for implementation of QModule passes. This information will be used when the QModule&#39;s fun...">
<polygon fill="none" stroke="black" points="44,-181.5 44,-200.5 103,-200.5 103,-181.5 44,-181.5"/>
<text text-anchor="middle" x="73.5" y="-188.5" font-family="Helvetica,sans-Serif" font-size="10.00">efd::Pass</text>
</a>
</g>
</g>
<!-- Node2&#45;&gt;Node1 -->
<g id="edge2" class="edge"><title>Node2&#45;&gt;Node1</title>
<path fill="none" stroke="midnightblue" d="M71.7076,-171.072C70.9593,-162.77 70.1214,-152.906 69.5,-144 67.8078,-119.748 66.4817,-91.0963 65.8697,-76.8984"/>
<polygon fill="midnightblue" stroke="midnightblue" points="68.2371,-171.554 72.6437,-181.189 75.2073,-170.909 68.2371,-171.554"/>
</g>
<!-- Node3 -->
<g id="node4" class="node"><title>Node3</title>
<g id="a_node4"><a xlink:href="../../db/d56/classefd_1_1PassT.xhtml" target="_top" xlink:title="Should serve as base class for classes that produces some data of type T. ">
<polygon fill="none" stroke="black" points="78,-124.5 78,-143.5 167,-143.5 167,-124.5 78,-124.5"/>
<text text-anchor="middle" x="122.5" y="-131.5" font-family="Helvetica,sans-Serif" font-size="10.00">efd::PassT&lt; T &gt;</text>
</a>
</g>
</g>
<!-- Node2&#45;&gt;Node3 -->
<g id="edge4" class="edge"><title>Node2&#45;&gt;Node3</title>
<path fill="none" stroke="midnightblue" d="M87.9077,-173.828C96.682,-163.979 107.549,-151.782 114.736,-143.715"/>
<polygon fill="midnightblue" stroke="midnightblue" points="85.195,-171.611 81.1562,-181.406 90.4217,-176.268 85.195,-171.611"/>
</g>
<!-- Node3&#45;&gt;Node1 -->
<g id="edge3" class="edge"><title>Node3&#45;&gt;Node1</title>
<path fill="none" stroke="orange" stroke-dasharray="5,2" d="M108.149,-116.635C97.0015,-103.923 81.9842,-86.7978 73.0655,-76.6273"/>
<polygon fill="orange" stroke="orange" points="105.588,-119.023 114.813,-124.234 110.851,-114.408 105.588,-119.023"/>
<text text-anchor="middle" x="117.5" y="-98" font-family="Helvetica,sans-Serif" font-size="10.00"> &lt; bool &gt;</text>
</g>
</g>
</svg>
