<?xml version="1.0" encoding="UTF-8" standalone="no"?>
<!DOCTYPE svg PUBLIC "-//W3C//DTD SVG 1.1//EN"
 "http://www.w3.org/Graphics/SVG/1.1/DTD/svg11.dtd">
<!-- Generated by graphviz version 2.40.1 (20161225.0304)
 -->
<!-- Title: efd::SimpleQAllocator Pages: 1 -->
<svg width="188pt" height="323pt"
 viewBox="0.00 0.00 188.00 323.00" xmlns="http://www.w3.org/2000/svg" xmlns:xlink="http://www.w3.org/1999/xlink">
<g id="graph0" class="graph" transform="scale(1 1) rotate(0) translate(4 319)">
<title>efd::SimpleQAllocator</title>
<!-- Node0 -->
<g id="node1" class="node">
<title>Node0</title>
<polygon fill="#bfbfbf" stroke="#000000" points="11,-.5 11,-19.5 134,-19.5 134,-.5 11,-.5"/>
<text text-anchor="middle" x="72.5" y="-7.5" font-family="Helvetica,sans-Serif" font-size="10.00" fill="#000000">efd::SimpleQAllocator</text>
</g>
<!-- Node1 -->
<g id="node2" class="node">
<title>Node1</title>
<g id="a_node2"><a xlink:href="../../d6/d8e/classefd_1_1StdSolutionQAllocator.xhtml" target="_top" xlink:title="An abstract allocator that builds the solution based on a StdSolution. ">
<polygon fill="none" stroke="#000000" points="0,-57.5 0,-76.5 145,-76.5 145,-57.5 0,-57.5"/>
<text text-anchor="middle" x="72.5" y="-64.5" font-family="Helvetica,sans-Serif" font-size="10.00" fill="#000000">efd::StdSolutionQAllocator</text>
</a>
</g>
</g>
<!-- Node1&#45;&gt;Node0 -->
<g id="edge1" class="edge">
<title>Node1&#45;&gt;Node0</title>
<path fill="none" stroke="#191970" d="M72.5,-47.2342C72.5,-37.8491 72.5,-27.0651 72.5,-19.5265"/>
<polygon fill="#191970" stroke="#191970" points="69.0001,-47.3307 72.5,-57.3307 76.0001,-47.3308 69.0001,-47.3307"/>
</g>
<!-- Node2 -->
<g id="node3" class="node">
<title>Node2</title>
<g id="a_node3"><a xlink:href="../../de/d5a/classefd_1_1QbitAllocator.xhtml" target="_top" xlink:title="Base abstract class that allocates the qbits used in the program to the qbits that are in the physica...">
<polygon fill="none" stroke="#000000" points="21.5,-114.5 21.5,-133.5 123.5,-133.5 123.5,-114.5 21.5,-114.5"/>
<text text-anchor="middle" x="72.5" y="-121.5" font-family="Helvetica,sans-Serif" font-size="10.00" fill="#000000">efd::QbitAllocator</text>
</a>
</g>
</g>
<!-- Node2&#45;&gt;Node1 -->
<g id="edge2" class="edge">
<title>Node2&#45;&gt;Node1</title>
<path fill="none" stroke="#191970" d="M72.5,-104.2342C72.5,-94.8491 72.5,-84.0651 72.5,-76.5265"/>
<polygon fill="#191970" stroke="#191970" points="69.0001,-104.3307 72.5,-114.3307 76.0001,-104.3308 69.0001,-104.3307"/>
</g>
<!-- Node3 -->
<g id="node4" class="node">
<title>Node3</title>
<g id="a_node4"><a xlink:href="../../db/d56/classefd_1_1PassT.xhtml" target="_top" xlink:title="efd::PassT\&lt; Mapping \&gt;">
<polygon fill="none" stroke="#000000" points="7,-171.5 7,-190.5 138,-190.5 138,-171.5 7,-171.5"/>
<text text-anchor="middle" x="72.5" y="-178.5" font-family="Helvetica,sans-Serif" font-size="10.00" fill="#000000">efd::PassT&lt; Mapping &gt;</text>
</a>
</g>
</g>
<!-- Node3&#45;&gt;Node2 -->
<g id="edge3" class="edge">
<title>Node3&#45;&gt;Node2</title>
<path fill="none" stroke="#191970" d="M72.5,-161.2342C72.5,-151.8491 72.5,-141.0651 72.5,-133.5265"/>
<polygon fill="#191970" stroke="#191970" points="69.0001,-161.3307 72.5,-171.3307 76.0001,-161.3308 69.0001,-161.3307"/>
</g>
<!-- Node4 -->
<g id="node5" class="node">
<title>Node4</title>
<g id="a_node5"><a xlink:href="../../d0/d98/classefd_1_1Pass.xhtml" target="_top" xlink:title="Base class for implementation of QModule passes. This information will be used when the QModule&#39;s fun...">
<polygon fill="none" stroke="#000000" points="38,-295.5 38,-314.5 99,-314.5 99,-295.5 38,-295.5"/>
<text text-anchor="middle" x="68.5" y="-302.5" font-family="Helvetica,sans-Serif" font-size="10.00" fill="#000000">efd::Pass</text>
</a>
</g>
</g>
<!-- Node4&#45;&gt;Node3 -->
<g id="edge4" class="edge">
<title>Node4&#45;&gt;Node3</title>
<path fill="none" stroke="#191970" d="M69.1429,-285.0697C70.0138,-258.0713 71.5346,-210.9273 72.1876,-190.6849"/>
<polygon fill="#191970" stroke="#191970" points="65.6382,-285.1622 68.8139,-295.2699 72.6346,-285.388 65.6382,-285.1622"/>
</g>
<!-- Node5 -->
<g id="node6" class="node">
<title>Node5</title>
<g id="a_node6"><a xlink:href="../../db/d56/classefd_1_1PassT.xhtml" target="_top" xlink:title="Should serve as base class for classes that produces some data of type T. ">
<polygon fill="none" stroke="#000000" points="85,-238.5 85,-257.5 180,-257.5 180,-238.5 85,-238.5"/>
<text text-anchor="middle" x="132.5" y="-245.5" font-family="Helvetica,sans-Serif" font-size="10.00" fill="#000000">efd::PassT&lt; T &gt;</text>
</a>
</g>
</g>
<!-- Node4&#45;&gt;Node5 -->
<g id="edge6" class="edge">
<title>Node4&#45;&gt;Node5</title>
<path fill="none" stroke="#191970" d="M86.9896,-288.5327C98.2833,-278.4742 112.3271,-265.9664 121.8036,-257.5265"/>
<polygon fill="#191970" stroke="#191970" points="84.4966,-286.0661 79.3567,-295.3307 89.1522,-291.2935 84.4966,-286.0661"/>
</g>
<!-- Node5&#45;&gt;Node3 -->
<g id="edge5" class="edge">
<title>Node5&#45;&gt;Node3</title>
<path fill="none" stroke="#ffa500" stroke-dasharray="5,2" d="M117.0206,-230.7147C105.5815,-217.941 90.4305,-201.0224 81.0806,-190.5817"/>
<polygon fill="#ffa500" stroke="#ffa500" points="114.6249,-233.2859 123.9035,-238.4005 119.8396,-228.6161 114.6249,-233.2859"/>
<text text-anchor="middle" x="139" y="-212" font-family="Helvetica,sans-Serif" font-size="10.00" fill="#000000"> &lt; Mapping &gt;</text>
</g>
</g>
</svg>
