<?xml version="1.0" encoding="UTF-8" standalone="no"?>
<!DOCTYPE svg PUBLIC "-//W3C//DTD SVG 1.1//EN"
 "http://www.w3.org/Graphics/SVG/1.1/DTD/svg11.dtd">
<!-- Generated by graphviz version 2.38.0 (20140413.2041)
 -->
<!-- Title: efd::NDInclude::toString Pages: 1 -->
<svg width="419pt" height="104pt"
 viewBox="0.00 0.00 419.00 104.00" xmlns="http://www.w3.org/2000/svg" xmlns:xlink="http://www.w3.org/1999/xlink">
<g id="graph0" class="graph" transform="scale(1 1) rotate(0) translate(4 100)">
<title>efd::NDInclude::toString</title>
<!-- Node37 -->
<g id="node1" class="node"><title>Node37</title>
<polygon fill="#bfbfbf" stroke="black" points="0,-38.5 0,-57.5 122,-57.5 122,-38.5 0,-38.5"/>
<text text-anchor="middle" x="61" y="-45.5" font-family="Helvetica,sans-Serif" font-size="10.00">efd::NDInclude::toString</text>
</g>
<!-- Node38 -->
<g id="node2" class="node"><title>Node38</title>
<g id="a_node2"><a xlink:href="../../d3/d29/classefd_1_1NDInclude.xhtml#a08ec207974cdeaf086c7978dc23b9a30" target="_top" xlink:title="Gets the node that holds the filename. ">
<polygon fill="none" stroke="black" points="159,-76.5 159,-95.5 301,-95.5 301,-76.5 159,-76.5"/>
<text text-anchor="middle" x="230" y="-83.5" font-family="Helvetica,sans-Serif" font-size="10.00">efd::NDInclude::getFilename</text>
</a>
</g>
</g>
<!-- Node37&#45;&gt;Node38 -->
<g id="edge1" class="edge"><title>Node37&#45;&gt;Node38</title>
<path fill="none" stroke="midnightblue" d="M104.141,-57.589C126.377,-62.6487 153.848,-68.8996 177.356,-74.2488"/>
<polygon fill="midnightblue" stroke="midnightblue" points="176.635,-77.6739 187.162,-76.4799 178.188,-70.8484 176.635,-77.6739"/>
</g>
<!-- Node40 -->
<g id="node4" class="node"><title>Node40</title>
<g id="a_node4"><a xlink:href="../../d3/d29/classefd_1_1NDInclude.xhtml#a5f3cf747332884d41b1bd84f15d91cd4" target="_top" xlink:title="Returns a std::string representation of the operation. ">
<polygon fill="none" stroke="black" points="158,-38.5 158,-57.5 302,-57.5 302,-38.5 158,-38.5"/>
<text text-anchor="middle" x="230" y="-45.5" font-family="Helvetica,sans-Serif" font-size="10.00">efd::NDInclude::getOperation</text>
</a>
</g>
</g>
<!-- Node37&#45;&gt;Node40 -->
<g id="edge3" class="edge"><title>Node37&#45;&gt;Node40</title>
<path fill="none" stroke="midnightblue" d="M122.291,-48C130.618,-48 139.279,-48 147.906,-48"/>
<polygon fill="midnightblue" stroke="midnightblue" points="147.995,-51.5001 157.995,-48 147.995,-44.5001 147.995,-51.5001"/>
</g>
<!-- Node41 -->
<g id="node5" class="node"><title>Node41</title>
<g id="a_node5"><a xlink:href="../../df/d1b/classefd_1_1NDValue.xhtml#a9ded6b0d00e7ea4d748be60c5cc3632b" target="_top" xlink:title="Returns a std::string representation of this Node and its childrem. ">
<polygon fill="none" stroke="black" points="172,-0.5 172,-19.5 288,-19.5 288,-0.5 172,-0.5"/>
<text text-anchor="middle" x="230" y="-7.5" font-family="Helvetica,sans-Serif" font-size="10.00">efd::NDValue::toString</text>
</a>
</g>
</g>
<!-- Node37&#45;&gt;Node41 -->
<g id="edge4" class="edge"><title>Node37&#45;&gt;Node41</title>
<path fill="none" stroke="midnightblue" d="M104.141,-38.411C126.377,-33.3513 153.848,-27.1004 177.356,-21.7512"/>
<polygon fill="midnightblue" stroke="midnightblue" points="178.188,-25.1516 187.162,-19.5201 176.635,-18.3261 178.188,-25.1516"/>
</g>
<!-- Node39 -->
<g id="node3" class="node"><title>Node39</title>
<g id="a_node3"><a xlink:href="../../d4/deb/namespaceefd.xhtml#a2cef687225e13315fc282dc40b5a6909" target="_top" xlink:title="Returns src cast to TargetTy, iff it is of class TargetTy, otherwise it will return nullptr...">
<polygon fill="none" stroke="black" points="338,-76.5 338,-95.5 411,-95.5 411,-76.5 338,-76.5"/>
<text text-anchor="middle" x="374.5" y="-83.5" font-family="Helvetica,sans-Serif" font-size="10.00">efd::dynCast</text>
</a>
</g>
</g>
<!-- Node38&#45;&gt;Node39 -->
<g id="edge2" class="edge"><title>Node38&#45;&gt;Node39</title>
<path fill="none" stroke="midnightblue" d="M301.415,-86C310.29,-86 319.181,-86 327.54,-86"/>
<polygon fill="midnightblue" stroke="midnightblue" points="327.8,-89.5001 337.8,-86 327.8,-82.5001 327.8,-89.5001"/>
</g>
</g>
</svg>
