<?xml version="1.0" encoding="UTF-8" standalone="no"?>
<!DOCTYPE svg PUBLIC "-//W3C//DTD SVG 1.1//EN"
 "http://www.w3.org/Graphics/SVG/1.1/DTD/svg11.dtd">
<!-- Generated by graphviz version 2.38.0 (20140413.2041)
 -->
<!-- Title: efd::NDInclude::setFilename Pages: 1 -->
<svg width="430pt" height="28pt"
 viewBox="0.00 0.00 430.00 28.00" xmlns="http://www.w3.org/2000/svg" xmlns:xlink="http://www.w3.org/1999/xlink">
<g id="graph0" class="graph" transform="scale(1 1) rotate(0) translate(4 24)">
<title>efd::NDInclude::setFilename</title>
<!-- Node31 -->
<g id="node1" class="node"><title>Node31</title>
<polygon fill="#bfbfbf" stroke="black" points="0,-0.5 0,-19.5 142,-19.5 142,-0.5 0,-0.5"/>
<text text-anchor="middle" x="71" y="-7.5" font-family="Helvetica,sans-Serif" font-size="10.00">efd::NDInclude::setFilename</text>
</g>
<!-- Node32 -->
<g id="node2" class="node"><title>Node32</title>
<g id="a_node2"><a xlink:href="../../d6/d6a/classefd_1_1Node.xhtml#aad4510814ff15bd26fe2f95f9d2a2279" target="_top" xlink:title="Sets the i&#45;th child. ">
<polygon fill="none" stroke="black" points="178,-0.5 178,-19.5 279,-19.5 279,-0.5 178,-0.5"/>
<text text-anchor="middle" x="228.5" y="-7.5" font-family="Helvetica,sans-Serif" font-size="10.00">efd::Node::setChild</text>
</a>
</g>
</g>
<!-- Node31&#45;&gt;Node32 -->
<g id="edge1" class="edge"><title>Node31&#45;&gt;Node32</title>
<path fill="none" stroke="midnightblue" d="M142.017,-10C150.613,-10 159.337,-10 167.763,-10"/>
<polygon fill="midnightblue" stroke="midnightblue" points="167.863,-13.5001 177.863,-10 167.863,-6.5001 167.863,-13.5001"/>
</g>
<!-- Node33 -->
<g id="node3" class="node"><title>Node33</title>
<g id="a_node3"><a xlink:href="../../d6/d6a/classefd_1_1Node.xhtml#a48e9d49d994b9023b8400316e2782e2b" target="_top" xlink:title="Sets the parent node of the current node. ">
<polygon fill="none" stroke="black" points="315,-0.5 315,-19.5 422,-19.5 422,-0.5 315,-0.5"/>
<text text-anchor="middle" x="368.5" y="-7.5" font-family="Helvetica,sans-Serif" font-size="10.00">efd::Node::setParent</text>
</a>
</g>
</g>
<!-- Node32&#45;&gt;Node33 -->
<g id="edge2" class="edge"><title>Node32&#45;&gt;Node33</title>
<path fill="none" stroke="midnightblue" d="M279.321,-10C287.554,-10 296.183,-10 304.686,-10"/>
<polygon fill="midnightblue" stroke="midnightblue" points="304.959,-13.5001 314.959,-10 304.959,-6.5001 304.959,-13.5001"/>
</g>
</g>
</svg>
