<?xml version="1.0" encoding="UTF-8" standalone="no"?>
<!DOCTYPE svg PUBLIC "-//W3C//DTD SVG 1.1//EN"
 "http://www.w3.org/Graphics/SVG/1.1/DTD/svg11.dtd">
<!-- Generated by graphviz version 2.38.0 (20140413.2041)
 -->
<!-- Title: efd::NDInclude::setInnerAST Pages: 1 -->
<svg width="431pt" height="28pt"
 viewBox="0.00 0.00 431.00 28.00" xmlns="http://www.w3.org/2000/svg" xmlns:xlink="http://www.w3.org/1999/xlink">
<g id="graph0" class="graph" transform="scale(1 1) rotate(0) translate(4 24)">
<title>efd::NDInclude::setInnerAST</title>
<!-- Node34 -->
<g id="node1" class="node"><title>Node34</title>
<polygon fill="#bfbfbf" stroke="black" points="0,-0.5 0,-19.5 143,-19.5 143,-0.5 0,-0.5"/>
<text text-anchor="middle" x="71.5" y="-7.5" font-family="Helvetica,sans-Serif" font-size="10.00">efd::NDInclude::setInnerAST</text>
</g>
<!-- Node35 -->
<g id="node2" class="node"><title>Node35</title>
<g id="a_node2"><a xlink:href="../../d6/d6a/classefd_1_1Node.xhtml#aad4510814ff15bd26fe2f95f9d2a2279" target="_top" xlink:title="Sets the i&#45;th child. ">
<polygon fill="none" stroke="black" points="179,-0.5 179,-19.5 280,-19.5 280,-0.5 179,-0.5"/>
<text text-anchor="middle" x="229.5" y="-7.5" font-family="Helvetica,sans-Serif" font-size="10.00">efd::Node::setChild</text>
</a>
</g>
</g>
<!-- Node34&#45;&gt;Node35 -->
<g id="edge1" class="edge"><title>Node34&#45;&gt;Node35</title>
<path fill="none" stroke="midnightblue" d="M143.197,-10C151.586,-10 160.089,-10 168.313,-10"/>
<polygon fill="midnightblue" stroke="midnightblue" points="168.551,-13.5001 178.551,-10 168.551,-6.5001 168.551,-13.5001"/>
</g>
<!-- Node36 -->
<g id="node3" class="node"><title>Node36</title>
<g id="a_node3"><a xlink:href="../../d6/d6a/classefd_1_1Node.xhtml#a48e9d49d994b9023b8400316e2782e2b" target="_top" xlink:title="Sets the parent node of the current node. ">
<polygon fill="none" stroke="black" points="316,-0.5 316,-19.5 423,-19.5 423,-0.5 316,-0.5"/>
<text text-anchor="middle" x="369.5" y="-7.5" font-family="Helvetica,sans-Serif" font-size="10.00">efd::Node::setParent</text>
</a>
</g>
</g>
<!-- Node35&#45;&gt;Node36 -->
<g id="edge2" class="edge"><title>Node35&#45;&gt;Node36</title>
<path fill="none" stroke="midnightblue" d="M280.321,-10C288.554,-10 297.183,-10 305.686,-10"/>
<polygon fill="midnightblue" stroke="midnightblue" points="305.959,-13.5001 315.959,-10 305.959,-6.5001 305.959,-13.5001"/>
</g>
</g>
</svg>
