<?xml version="1.0" encoding="UTF-8" standalone="no"?>
<!DOCTYPE svg PUBLIC "-//W3C//DTD SVG 1.1//EN"
 "http://www.w3.org/Graphics/SVG/1.1/DTD/svg11.dtd">
<!-- Generated by graphviz version 2.38.0 (20140413.2041)
 -->
<!-- Title: efd::NDInclude::cloneImpl Pages: 1 -->
<svg width="794pt" height="180pt"
 viewBox="0.00 0.00 794.00 180.00" xmlns="http://www.w3.org/2000/svg" xmlns:xlink="http://www.w3.org/1999/xlink">
<g id="graph0" class="graph" transform="scale(1 1) rotate(0) translate(4 176)">
<title>efd::NDInclude::cloneImpl</title>
<!-- Node8 -->
<g id="node1" class="node"><title>Node8</title>
<polygon fill="#bfbfbf" stroke="black" points="0,-76.5 0,-95.5 131,-95.5 131,-76.5 0,-76.5"/>
<text text-anchor="middle" x="65.5" y="-83.5" font-family="Helvetica,sans-Serif" font-size="10.00">efd::NDInclude::cloneImpl</text>
</g>
<!-- Node9 -->
<g id="node2" class="node"><title>Node9</title>
<g id="a_node2"><a xlink:href="../../d6/d6a/classefd_1_1Node.xhtml#a6c85c9bd21014b73497de741cc75f706" target="_top" xlink:title="Clones the current node (deep copy). ">
<polygon fill="none" stroke="black" points="194,-152.5 194,-171.5 283,-171.5 283,-152.5 194,-152.5"/>
<text text-anchor="middle" x="238.5" y="-159.5" font-family="Helvetica,sans-Serif" font-size="10.00">efd::Node::clone</text>
</a>
</g>
</g>
<!-- Node8&#45;&gt;Node9 -->
<g id="edge1" class="edge"><title>Node8&#45;&gt;Node9</title>
<path fill="none" stroke="midnightblue" d="M80.5643,-95.504C99.4873,-107.927 134.527,-129.668 167,-143 172.849,-145.401 179.094,-147.588 185.36,-149.553"/>
<polygon fill="midnightblue" stroke="midnightblue" points="184.587,-152.974 195.169,-152.456 186.574,-146.262 184.587,-152.974"/>
</g>
<!-- Node11 -->
<g id="node4" class="node"><title>Node11</title>
<g id="a_node4"><a xlink:href="../../d3/d29/classefd_1_1NDInclude.xhtml#a81d54827a61c546040dad4f57e34c318" target="_top" xlink:title="Creates a new instance of this node. ">
<polygon fill="none" stroke="black" points="179.5,-114.5 179.5,-133.5 297.5,-133.5 297.5,-114.5 179.5,-114.5"/>
<text text-anchor="middle" x="238.5" y="-121.5" font-family="Helvetica,sans-Serif" font-size="10.00">efd::NDInclude::Create</text>
</a>
</g>
</g>
<!-- Node8&#45;&gt;Node11 -->
<g id="edge3" class="edge"><title>Node8&#45;&gt;Node11</title>
<path fill="none" stroke="midnightblue" d="M109.651,-95.589C132.419,-100.649 160.548,-106.9 184.619,-112.249"/>
<polygon fill="midnightblue" stroke="midnightblue" points="184.139,-115.727 194.66,-114.48 185.657,-108.894 184.139,-115.727"/>
</g>
<!-- Node16 -->
<g id="node9" class="node"><title>Node16</title>
<g id="a_node9"><a xlink:href="../../d3/d29/classefd_1_1NDInclude.xhtml#a08ec207974cdeaf086c7978dc23b9a30" target="_top" xlink:title="Gets the node that holds the filename. ">
<polygon fill="none" stroke="black" points="167.5,-76.5 167.5,-95.5 309.5,-95.5 309.5,-76.5 167.5,-76.5"/>
<text text-anchor="middle" x="238.5" y="-83.5" font-family="Helvetica,sans-Serif" font-size="10.00">efd::NDInclude::getFilename</text>
</a>
</g>
</g>
<!-- Node8&#45;&gt;Node16 -->
<g id="edge8" class="edge"><title>Node8&#45;&gt;Node16</title>
<path fill="none" stroke="midnightblue" d="M131.148,-86C139.645,-86 148.435,-86 157.153,-86"/>
<polygon fill="midnightblue" stroke="midnightblue" points="157.333,-89.5001 167.333,-86 157.333,-82.5001 157.333,-89.5001"/>
</g>
<!-- Node18 -->
<g id="node11" class="node"><title>Node18</title>
<g id="a_node11"><a xlink:href="../../d3/d29/classefd_1_1NDInclude.xhtml#a1bcb5f6f80760f5395d65b3c41a3c96f" target="_top" xlink:title="Gets the node that holds the statements. ">
<polygon fill="none" stroke="black" points="167,-38.5 167,-57.5 310,-57.5 310,-38.5 167,-38.5"/>
<text text-anchor="middle" x="238.5" y="-45.5" font-family="Helvetica,sans-Serif" font-size="10.00">efd::NDInclude::getInnerAST</text>
</a>
</g>
</g>
<!-- Node8&#45;&gt;Node18 -->
<g id="edge10" class="edge"><title>Node8&#45;&gt;Node18</title>
<path fill="none" stroke="midnightblue" d="M109.651,-76.411C132.419,-71.3513 160.548,-65.1004 184.619,-59.7512"/>
<polygon fill="midnightblue" stroke="midnightblue" points="185.657,-63.1061 194.66,-57.5201 184.139,-56.2728 185.657,-63.1061"/>
</g>
<!-- Node19 -->
<g id="node12" class="node"><title>Node19</title>
<g id="a_node12"><a xlink:href="../../d4/deb/namespaceefd.xhtml#ad7adca0e4de58074aa3f91827469a491" target="_top" xlink:title="Uses the RTTI framework to cast forwardly an unique_ptr. ">
<polygon fill="none" stroke="black" points="178,-0.5 178,-19.5 299,-19.5 299,-0.5 178,-0.5"/>
<text text-anchor="middle" x="238.5" y="-7.5" font-family="Helvetica,sans-Serif" font-size="10.00">efd::uniqueCastForward</text>
</a>
</g>
</g>
<!-- Node8&#45;&gt;Node19 -->
<g id="edge12" class="edge"><title>Node8&#45;&gt;Node19</title>
<path fill="none" stroke="midnightblue" d="M80.5643,-76.496C99.4873,-64.073 134.527,-42.3323 167,-29 172.849,-26.5987 179.094,-24.412 185.36,-22.4472"/>
<polygon fill="midnightblue" stroke="midnightblue" points="186.574,-25.7381 195.169,-19.5437 184.587,-19.026 186.574,-25.7381"/>
</g>
<!-- Node10 -->
<g id="node3" class="node"><title>Node10</title>
<g id="a_node3"><a xlink:href="../../d6/d6a/classefd_1_1Node.xhtml#ac078ce64eb404cfdc24b9288908536e4" target="_top" xlink:title="Clones the current node (deep copy). ">
<polygon fill="none" stroke="black" points="360,-152.5 360,-171.5 467,-171.5 467,-152.5 360,-152.5"/>
<text text-anchor="middle" x="413.5" y="-159.5" font-family="Helvetica,sans-Serif" font-size="10.00">efd::Node::cloneImpl</text>
</a>
</g>
</g>
<!-- Node9&#45;&gt;Node10 -->
<g id="edge2" class="edge"><title>Node9&#45;&gt;Node10</title>
<path fill="none" stroke="midnightblue" d="M283.155,-162C303.289,-162 327.567,-162 349.624,-162"/>
<polygon fill="midnightblue" stroke="midnightblue" points="349.912,-165.5 359.912,-162 349.912,-158.5 349.912,-165.5"/>
</g>
<!-- Node12 -->
<g id="node5" class="node"><title>Node12</title>
<g id="a_node5"><a xlink:href="../../d3/d29/classefd_1_1NDInclude.xhtml#aeadcf3e4d57fbd7ffb56dab4b8c34e5b" target="_top" xlink:title="efd::NDInclude::NDInclude">
<polygon fill="none" stroke="black" points="346,-114.5 346,-133.5 481,-133.5 481,-114.5 346,-114.5"/>
<text text-anchor="middle" x="413.5" y="-121.5" font-family="Helvetica,sans-Serif" font-size="10.00">efd::NDInclude::NDInclude</text>
</a>
</g>
</g>
<!-- Node11&#45;&gt;Node12 -->
<g id="edge4" class="edge"><title>Node11&#45;&gt;Node12</title>
<path fill="none" stroke="midnightblue" d="M297.588,-124C309.826,-124 322.917,-124 335.721,-124"/>
<polygon fill="midnightblue" stroke="midnightblue" points="335.906,-127.5 345.906,-124 335.906,-120.5 335.906,-127.5"/>
</g>
<!-- Node13 -->
<g id="node6" class="node"><title>Node13</title>
<g id="a_node6"><a xlink:href="../../d6/d6a/classefd_1_1Node.xhtml#a8ac8c3206c6f6817a8c8e515ac830f61" target="_top" xlink:title="Adds a child to this node. It should be used only for construction of each derived class...">
<polygon fill="none" stroke="black" points="517,-133.5 517,-152.5 643,-152.5 643,-133.5 517,-133.5"/>
<text text-anchor="middle" x="580" y="-140.5" font-family="Helvetica,sans-Serif" font-size="10.00">efd::Node::innerAddChild</text>
</a>
</g>
</g>
<!-- Node12&#45;&gt;Node13 -->
<g id="edge5" class="edge"><title>Node12&#45;&gt;Node13</title>
<path fill="none" stroke="midnightblue" d="M481.408,-131.728C489.756,-132.692 498.322,-133.682 506.746,-134.655"/>
<polygon fill="midnightblue" stroke="midnightblue" points="506.591,-138.16 516.927,-135.83 507.394,-131.206 506.591,-138.16"/>
</g>
<!-- Node15 -->
<g id="node8" class="node"><title>Node15</title>
<g id="a_node8"><a xlink:href="../../d6/d6a/classefd_1_1Node.xhtml#a09ac8cdf7898a3d17293d92ae956eece" target="_top" xlink:title="Constructs the node, initially empty (with no information). ">
<polygon fill="none" stroke="black" points="535.5,-95.5 535.5,-114.5 624.5,-114.5 624.5,-95.5 535.5,-95.5"/>
<text text-anchor="middle" x="580" y="-102.5" font-family="Helvetica,sans-Serif" font-size="10.00">efd::Node::Node</text>
</a>
</g>
</g>
<!-- Node12&#45;&gt;Node15 -->
<g id="edge7" class="edge"><title>Node12&#45;&gt;Node15</title>
<path fill="none" stroke="midnightblue" d="M481.408,-116.272C496.01,-114.585 511.281,-112.822 525.29,-111.204"/>
<polygon fill="midnightblue" stroke="midnightblue" points="525.709,-114.679 535.241,-110.054 524.905,-107.725 525.709,-114.679"/>
</g>
<!-- Node14 -->
<g id="node7" class="node"><title>Node14</title>
<g id="a_node7"><a xlink:href="../../d6/d6a/classefd_1_1Node.xhtml#a48e9d49d994b9023b8400316e2782e2b" target="_top" xlink:title="Sets the parent node of the current node. ">
<polygon fill="none" stroke="black" points="679,-133.5 679,-152.5 786,-152.5 786,-133.5 679,-133.5"/>
<text text-anchor="middle" x="732.5" y="-140.5" font-family="Helvetica,sans-Serif" font-size="10.00">efd::Node::setParent</text>
</a>
</g>
</g>
<!-- Node13&#45;&gt;Node14 -->
<g id="edge6" class="edge"><title>Node13&#45;&gt;Node14</title>
<path fill="none" stroke="midnightblue" d="M643.083,-143C651.488,-143 660.118,-143 668.538,-143"/>
<polygon fill="midnightblue" stroke="midnightblue" points="668.674,-146.5 678.674,-143 668.674,-139.5 668.674,-146.5"/>
</g>
<!-- Node17 -->
<g id="node10" class="node"><title>Node17</title>
<g id="a_node10"><a xlink:href="../../d4/deb/namespaceefd.xhtml#a2cef687225e13315fc282dc40b5a6909" target="_top" xlink:title="Returns src cast to TargetTy, iff it is of class TargetTy, otherwise it will return nullptr...">
<polygon fill="none" stroke="black" points="377,-57.5 377,-76.5 450,-76.5 450,-57.5 377,-57.5"/>
<text text-anchor="middle" x="413.5" y="-64.5" font-family="Helvetica,sans-Serif" font-size="10.00">efd::dynCast</text>
</a>
</g>
</g>
<!-- Node16&#45;&gt;Node17 -->
<g id="edge9" class="edge"><title>Node16&#45;&gt;Node17</title>
<path fill="none" stroke="midnightblue" d="M309.866,-78.272C328.923,-76.179 349.063,-73.967 366.408,-72.0621"/>
<polygon fill="midnightblue" stroke="midnightblue" points="367.254,-75.4904 376.812,-70.9195 366.489,-68.5322 367.254,-75.4904"/>
</g>
<!-- Node18&#45;&gt;Node17 -->
<g id="edge11" class="edge"><title>Node18&#45;&gt;Node17</title>
<path fill="none" stroke="midnightblue" d="M310.365,-55.7828C329.22,-57.8536 349.1,-60.037 366.26,-61.9216"/>
<polygon fill="midnightblue" stroke="midnightblue" points="366.237,-65.44 376.559,-63.0527 367.001,-58.4819 366.237,-65.44"/>
</g>
</g>
</svg>
