<?xml version="1.0" encoding="UTF-8" standalone="no"?>
<!DOCTYPE svg PUBLIC "-//W3C//DTD SVG 1.1//EN"
 "http://www.w3.org/Graphics/SVG/1.1/DTD/svg11.dtd">
<!-- Generated by graphviz version 2.38.0 (20140413.2041)
 -->
<!-- Title: efd::NDInclude::Create Pages: 1 -->
<!--zoomable 66 -->
<svg id="main" version="1.1" xmlns="http://www.w3.org/2000/svg" xmlns:xlink="http://www.w3.org/1999/xlink" xml:space="preserve" onload="init(evt)">
<style type="text/css"><![CDATA[
.edge:hover path { stroke: red; }
.edge:hover polygon { stroke: red; fill: red; }
]]></style>
<script type="text/javascript"><![CDATA[
var edges = document.getElementsByTagName('g');
if (edges && edges.length) {
  for (var i=0;i<edges.length;i++) {
    if (edges[i].id.substr(0,4)=='edge') {
      edges[i].setAttribute('class','edge');
    }
  }
}
]]></script>
        <defs>
                <circle id="rim" cx="0" cy="0" r="7"/>
                <circle id="rim2" cx="0" cy="0" r="3.5"/>
                <g id="zoomPlus">
                        <use xlink:href="#rim" fill="#404040">
                                <set attributeName="fill" to="#808080" begin="zoomplus.mouseover" end="zoomplus.mouseout"/>
                        </use>
                        <path d="M-4,0h8M0,-4v8" fill="none" stroke="white" stroke-width="1.5" pointer-events="none"/>
                </g>
                <g id="zoomMin">
                        <use xlink:href="#rim" fill="#404040">
                                <set attributeName="fill" to="#808080" begin="zoomminus.mouseover" end="zoomminus.mouseout"/>
                        </use>
                        <path d="M-4,0h8" fill="none" stroke="white" stroke-width="1.5" pointer-events="none"/>
                </g>
                <g id="dirArrow">
                        <path fill="none" stroke="white" stroke-width="1.5" d="M0,-3.0v7 M-2.5,-0.5L0,-3.0L2.5,-0.5"/>
                </g>
               <g id="resetDef">
                       <use xlink:href="#rim2" fill="#404040">
                               <set attributeName="fill" to="#808080" begin="reset.mouseover" end="reset.mouseout"/>
                       </use>
               </g>
        </defs>

<script type="text/javascript">
var viewWidth = 602;
var viewHeight = 66;
var sectionId = 'dynsection-6';
</script>
<script xlink:href="../../svgpan.js"/>
<svg id="graph" class="graph">
<g id="viewport">
<title>efd::NDInclude::Create</title>
<!-- Node20 -->
<g id="node1" class="node"><title>Node20</title>
<polygon fill="#bfbfbf" stroke="black" points="0,-19.5 0,-38.5 118,-38.5 118,-19.5 0,-19.5"/>
<text text-anchor="middle" x="59" y="-26.5" font-family="Helvetica,sans-Serif" font-size="10.00">efd::NDInclude::Create</text>
</g>
<!-- Node21 -->
<g id="node2" class="node"><title>Node21</title>
<g id="a_node2"><a xlink:href="../../d3/d29/classefd_1_1NDInclude.xhtml#aeadcf3e4d57fbd7ffb56dab4b8c34e5b" target="_top" xlink:title="efd::NDInclude::NDInclude">
<polygon fill="none" stroke="black" points="154,-19.5 154,-38.5 289,-38.5 289,-19.5 154,-19.5"/>
<text text-anchor="middle" x="221.5" y="-26.5" font-family="Helvetica,sans-Serif" font-size="10.00">efd::NDInclude::NDInclude</text>
</a>
</g>
</g>
<!-- Node20&#45;&gt;Node21 -->
<g id="edge1" class="edge"><title>Node20&#45;&gt;Node21</title>
<path fill="none" stroke="midnightblue" d="M118.398,-29C126.709,-29 135.358,-29 143.95,-29"/>
<polygon fill="midnightblue" stroke="midnightblue" points="143.987,-32.5001 153.987,-29 143.986,-25.5001 143.987,-32.5001"/>
</g>
<!-- Node22 -->
<g id="node3" class="node"><title>Node22</title>
<g id="a_node3"><a xlink:href="../../d6/d6a/classefd_1_1Node.xhtml#a8ac8c3206c6f6817a8c8e515ac830f61" target="_top" xlink:title="Adds a child to this node. It should be used only for construction of each derived class...">
<polygon fill="none" stroke="black" points="325,-38.5 325,-57.5 451,-57.5 451,-38.5 325,-38.5"/>
<text text-anchor="middle" x="388" y="-45.5" font-family="Helvetica,sans-Serif" font-size="10.00">efd::Node::innerAddChild</text>
</a>
</g>
</g>
<!-- Node21&#45;&gt;Node22 -->
<g id="edge2" class="edge"><title>Node21&#45;&gt;Node22</title>
<path fill="none" stroke="midnightblue" d="M289.408,-36.728C297.756,-37.6922 306.322,-38.6816 314.746,-39.6546"/>
<polygon fill="midnightblue" stroke="midnightblue" points="314.591,-43.1599 324.927,-40.8305 315.394,-36.2061 314.591,-43.1599"/>
</g>
<!-- Node24 -->
<g id="node5" class="node"><title>Node24</title>
<g id="a_node5"><a xlink:href="../../d6/d6a/classefd_1_1Node.xhtml#a09ac8cdf7898a3d17293d92ae956eece" target="_top" xlink:title="Constructs the node, initially empty (with no information). ">
<polygon fill="none" stroke="black" points="343.5,-0.5 343.5,-19.5 432.5,-19.5 432.5,-0.5 343.5,-0.5"/>
<text text-anchor="middle" x="388" y="-7.5" font-family="Helvetica,sans-Serif" font-size="10.00">efd::Node::Node</text>
</a>
</g>
</g>
<!-- Node21&#45;&gt;Node24 -->
<g id="edge4" class="edge"><title>Node21&#45;&gt;Node24</title>
<path fill="none" stroke="midnightblue" d="M289.408,-21.272C304.01,-19.5854 319.281,-17.8217 333.29,-16.2035"/>
<polygon fill="midnightblue" stroke="midnightblue" points="333.709,-19.6786 343.241,-15.0542 332.905,-12.7248 333.709,-19.6786"/>
</g>
<!-- Node23 -->
<g id="node4" class="node"><title>Node23</title>
<g id="a_node4"><a xlink:href="../../d6/d6a/classefd_1_1Node.xhtml#a48e9d49d994b9023b8400316e2782e2b" target="_top" xlink:title="Sets the parent node of the current node. ">
<polygon fill="none" stroke="black" points="487,-38.5 487,-57.5 594,-57.5 594,-38.5 487,-38.5"/>
<text text-anchor="middle" x="540.5" y="-45.5" font-family="Helvetica,sans-Serif" font-size="10.00">efd::Node::setParent</text>
</a>
</g>
</g>
<!-- Node22&#45;&gt;Node23 -->
<g id="edge3" class="edge"><title>Node22&#45;&gt;Node23</title>
<path fill="none" stroke="midnightblue" d="M451.083,-48C459.488,-48 468.118,-48 476.538,-48"/>
<polygon fill="midnightblue" stroke="midnightblue" points="476.674,-51.5001 486.674,-48 476.674,-44.5001 476.674,-51.5001"/>
</g>
</g>
</svg>
        <g id="navigator" transform="translate(0 0)" fill="#404254">
                <rect fill="#f2f5e9" fill-opacity="0.5" stroke="#606060" stroke-width=".5" x="0" y="0" width="60" height="60"/>
                <use id="zoomplus" xlink:href="#zoomPlus" x="17" y="9" onmousedown="handleZoom(evt,'in')"/>
                <use id="zoomminus" xlink:href="#zoomMin" x="42" y="9" onmousedown="handleZoom(evt,'out')"/>
                <use id="reset" xlink:href="#resetDef" x="30" y="36" onmousedown="handleReset()"/>
                <g id="arrowUp" xlink:href="#dirArrow" transform="translate(30 24)" onmousedown="handlePan(0,-1)">
                  <use xlink:href="#rim" fill="#404040">
                        <set attributeName="fill" to="#808080" begin="arrowUp.mouseover" end="arrowUp.mouseout"/>
                  </use>
                  <path fill="none" stroke="white" stroke-width="1.5" d="M0,-3.0v7 M-2.5,-0.5L0,-3.0L2.5,-0.5"/>
                </g>
                <g id="arrowRight" xlink:href="#dirArrow" transform="rotate(90) translate(36 -43)" onmousedown="handlePan(1,0)">
                  <use xlink:href="#rim" fill="#404040">
                        <set attributeName="fill" to="#808080" begin="arrowRight.mouseover" end="arrowRight.mouseout"/>
                  </use>
                  <path fill="none" stroke="white" stroke-width="1.5" d="M0,-3.0v7 M-2.5,-0.5L0,-3.0L2.5,-0.5"/>
                </g>
                <g id="arrowDown" xlink:href="#dirArrow" transform="rotate(180) translate(-30 -48)" onmousedown="handlePan(0,1)">
                  <use xlink:href="#rim" fill="#404040">
                        <set attributeName="fill" to="#808080" begin="arrowDown.mouseover" end="arrowDown.mouseout"/>
                  </use>
                  <path fill="none" stroke="white" stroke-width="1.5" d="M0,-3.0v7 M-2.5,-0.5L0,-3.0L2.5,-0.5"/>
                </g>
                <g id="arrowLeft" xlink:href="#dirArrow" transform="rotate(270) translate(-36 17)" onmousedown="handlePan(-1,0)">
                  <use xlink:href="#rim" fill="#404040">
                        <set attributeName="fill" to="#808080" begin="arrowLeft.mouseover" end="arrowLeft.mouseout"/>
                  </use>
                  <path fill="none" stroke="white" stroke-width="1.5" d="M0,-3.0v7 M-2.5,-0.5L0,-3.0L2.5,-0.5"/>
                </g>
        </g>
        <svg viewBox="0 0 15 15" width="100%" height="30px" preserveAspectRatio="xMaxYMin meet">
         <g id="arrow_out" transform="scale(0.3 0.3)">
          <a xlink:href="classefd_1_1NDInclude_a81d54827a61c546040dad4f57e34c318_cgraph_org.svg" target="_base">
           <rect id="button" ry="5" rx="5" y="6" x="6" height="38" width="38"
                fill="#f2f5e9" fill-opacity="0.5" stroke="#606060" stroke-width="1.0"/>
           <path id="arrow"
             d="M 11.500037,31.436501 C 11.940474,20.09759 22.043105,11.32322 32.158766,21.979434 L 37.068811,17.246167 C 37.068811,17.246167 37.088388,32 37.088388,32 L 22.160133,31.978069 C 22.160133,31.978069 26.997745,27.140456 26.997745,27.140456 C 18.528582,18.264221 13.291696,25.230495 11.500037,31.436501 z"
             style="fill:#404040;"/>
          </a>
         </g>
        </svg>
</svg>
