<?xml version="1.0" encoding="UTF-8" standalone="no"?>
<!DOCTYPE svg PUBLIC "-//W3C//DTD SVG 1.1//EN"
 "http://www.w3.org/Graphics/SVG/1.1/DTD/svg11.dtd">
<!-- Generated by graphviz version 2.40.1 (20161225.0304)
 -->
<!-- Title: efd::IBMQAllocator Pages: 1 -->
<svg width="238pt" height="343pt"
 viewBox="0.00 0.00 238.00 343.00" xmlns="http://www.w3.org/2000/svg" xmlns:xlink="http://www.w3.org/1999/xlink">
<g id="graph0" class="graph" transform="scale(1 1) rotate(0) translate(4 339)">
<title>efd::IBMQAllocator</title>
<!-- Node6 -->
<g id="node1" class="node">
<title>Node6</title>
<polygon fill="#bfbfbf" stroke="#000000" points="74,-.5 74,-19.5 181,-19.5 181,-.5 74,-.5"/>
<text text-anchor="middle" x="127.5" y="-7.5" font-family="Helvetica,sans-Serif" font-size="10.00" fill="#000000">efd::IBMQAllocator</text>
</g>
<!-- Node7 -->
<g id="node2" class="node">
<title>Node7</title>
<g id="a_node2"><a xlink:href="../../d6/d8e/classefd_1_1StdSolutionQAllocator.xhtml" target="_top" xlink:title="An abstract allocator that builds the solution based on a StdSolution. ">
<polygon fill="none" stroke="#000000" points="55,-57.5 55,-76.5 200,-76.5 200,-57.5 55,-57.5"/>
<text text-anchor="middle" x="127.5" y="-64.5" font-family="Helvetica,sans-Serif" font-size="10.00" fill="#000000">efd::StdSolutionQAllocator</text>
</a>
</g>
</g>
<!-- Node7&#45;&gt;Node6 -->
<g id="edge1" class="edge">
<title>Node7&#45;&gt;Node6</title>
<path fill="none" stroke="#191970" d="M127.5,-47.2342C127.5,-37.8491 127.5,-27.0651 127.5,-19.5265"/>
<polygon fill="#191970" stroke="#191970" points="124.0001,-47.3307 127.5,-57.3307 131.0001,-47.3308 124.0001,-47.3307"/>
</g>
<!-- Node8 -->
<g id="node3" class="node">
<title>Node8</title>
<g id="a_node3"><a xlink:href="../../de/d5a/classefd_1_1QbitAllocator.xhtml" target="_top" xlink:title="Base abstract class that allocates the qbits used in the program to the qbits that are in the physica...">
<polygon fill="none" stroke="#000000" points="76.5,-114.5 76.5,-133.5 178.5,-133.5 178.5,-114.5 76.5,-114.5"/>
<text text-anchor="middle" x="127.5" y="-121.5" font-family="Helvetica,sans-Serif" font-size="10.00" fill="#000000">efd::QbitAllocator</text>
</a>
</g>
</g>
<!-- Node8&#45;&gt;Node7 -->
<g id="edge2" class="edge">
<title>Node8&#45;&gt;Node7</title>
<path fill="none" stroke="#191970" d="M127.5,-104.2342C127.5,-94.8491 127.5,-84.0651 127.5,-76.5265"/>
<polygon fill="#191970" stroke="#191970" points="124.0001,-104.3307 127.5,-114.3307 131.0001,-104.3308 124.0001,-104.3307"/>
</g>
<!-- Node9 -->
<g id="node4" class="node">
<title>Node9</title>
<g id="a_node4"><a xlink:href="../../db/d56/classefd_1_1PassT.xhtml" target="_top" xlink:title="efd::PassT\&lt; Mapping \&gt;">
<polygon fill="none" stroke="#000000" points="0,-181.5 0,-200.5 131,-200.5 131,-181.5 0,-181.5"/>
<text text-anchor="middle" x="65.5" y="-188.5" font-family="Helvetica,sans-Serif" font-size="10.00" fill="#000000">efd::PassT&lt; Mapping &gt;</text>
</a>
</g>
</g>
<!-- Node9&#45;&gt;Node8 -->
<g id="edge3" class="edge">
<title>Node9&#45;&gt;Node8</title>
<path fill="none" stroke="#191970" d="M81.4953,-173.7147C93.3158,-160.941 108.9718,-144.0224 118.6334,-133.5817"/>
<polygon fill="#191970" stroke="#191970" points="78.6061,-171.6837 74.3831,-181.4005 83.7439,-176.4381 78.6061,-171.6837"/>
</g>
<!-- Node10 -->
<g id="node5" class="node">
<title>Node10</title>
<g id="a_node5"><a xlink:href="../../d0/d98/classefd_1_1Pass.xhtml" target="_top" xlink:title="Base class for implementation of QModule passes. This information will be used when the QModule&#39;s fun...">
<polygon fill="none" stroke="#000000" points="26,-315.5 26,-334.5 87,-334.5 87,-315.5 26,-315.5"/>
<text text-anchor="middle" x="56.5" y="-322.5" font-family="Helvetica,sans-Serif" font-size="10.00" fill="#000000">efd::Pass</text>
</a>
</g>
</g>
<!-- Node10&#45;&gt;Node9 -->
<g id="edge4" class="edge">
<title>Node10&#45;&gt;Node9</title>
<path fill="none" stroke="#191970" d="M57.835,-305.124C59.8006,-275.8572 63.3983,-222.2914 64.8586,-200.5496"/>
<polygon fill="#191970" stroke="#191970" points="54.3253,-305.151 57.1473,-315.3631 61.3096,-305.6201 54.3253,-305.151"/>
</g>
<!-- Node11 -->
<g id="node6" class="node">
<title>Node11</title>
<g id="a_node6"><a xlink:href="../../db/d56/classefd_1_1PassT.xhtml" target="_top" xlink:title="Should serve as base class for classes that produces some data of type T. ">
<polygon fill="none" stroke="#000000" points="78,-248.5 78,-267.5 173,-267.5 173,-248.5 78,-248.5"/>
<text text-anchor="middle" x="125.5" y="-255.5" font-family="Helvetica,sans-Serif" font-size="10.00" fill="#000000">efd::PassT&lt; T &gt;</text>
</a>
</g>
</g>
<!-- Node10&#45;&gt;Node11 -->
<g id="edge6" class="edge">
<title>Node10&#45;&gt;Node11</title>
<path fill="none" stroke="#191970" d="M73.9266,-308.0785C87.1238,-295.2639 104.7775,-278.1218 115.6323,-267.5817"/>
<polygon fill="#191970" stroke="#191970" points="71.1221,-305.9232 66.386,-315.4005 75.9985,-310.9452 71.1221,-305.9232"/>
</g>
<!-- Node11&#45;&gt;Node9 -->
<g id="edge5" class="edge">
<title>Node11&#45;&gt;Node9</title>
<path fill="none" stroke="#ffa500" stroke-dasharray="5,2" d="M110.0206,-240.7147C98.5815,-227.941 83.4305,-211.0224 74.0806,-200.5817"/>
<polygon fill="#ffa500" stroke="#ffa500" points="107.6249,-243.2859 116.9035,-248.4005 112.8396,-238.6161 107.6249,-243.2859"/>
<text text-anchor="middle" x="133" y="-222" font-family="Helvetica,sans-Serif" font-size="10.00" fill="#000000"> &lt; Mapping &gt;</text>
</g>
<!-- Node12 -->
<g id="node7" class="node">
<title>Node12</title>
<polygon fill="none" stroke="#bfbfbf" points="111,-315.5 111,-334.5 140,-334.5 140,-315.5 111,-315.5"/>
<text text-anchor="middle" x="125.5" y="-322.5" font-family="Helvetica,sans-Serif" font-size="10.00" fill="#000000">T</text>
</g>
<!-- Node12&#45;&gt;Node11 -->
<g id="edge7" class="edge">
<title>Node12&#45;&gt;Node11</title>
<path fill="none" stroke="#9a32cd" stroke-dasharray="5,2" d="M125.5,-305.1079C125.5,-292.714 125.5,-277.3263 125.5,-267.5817"/>
<polygon fill="#9a32cd" stroke="#9a32cd" points="122.0001,-305.4005 125.5,-315.4005 129.0001,-305.4006 122.0001,-305.4005"/>
<text text-anchor="middle" x="144" y="-289" font-family="Helvetica,sans-Serif" font-size="10.00" fill="#000000"> mData</text>
</g>
<!-- Node13 -->
<g id="node8" class="node">
<title>Node13</title>
<g id="a_node8"><a xlink:href="../../dd/d52/classefd_1_1QModule.xhtml" target="_top" xlink:title="Qasm module representation. ">
<polygon fill="none" stroke="#000000" points="149,-181.5 149,-200.5 230,-200.5 230,-181.5 149,-181.5"/>
<text text-anchor="middle" x="189.5" y="-188.5" font-family="Helvetica,sans-Serif" font-size="10.00" fill="#000000">efd::QModule</text>
</a>
</g>
</g>
<!-- Node13&#45;&gt;Node8 -->
<g id="edge8" class="edge">
<title>Node13&#45;&gt;Node8</title>
<path fill="none" stroke="#9a32cd" stroke-dasharray="5,2" d="M173.5047,-173.7147C161.6842,-160.941 146.0282,-144.0224 136.3666,-133.5817"/>
<polygon fill="#9a32cd" stroke="#9a32cd" points="171.2561,-176.4381 180.6169,-181.4005 176.3939,-171.6837 171.2561,-176.4381"/>
<text text-anchor="middle" x="178.5" y="-155" font-family="Helvetica,sans-Serif" font-size="10.00" fill="#000000"> mMod</text>
</g>
</g>
</svg>
