<?xml version="1.0" encoding="UTF-8" standalone="no"?>
<!DOCTYPE svg PUBLIC "-//W3C//DTD SVG 1.1//EN"
 "http://www.w3.org/Graphics/SVG/1.1/DTD/svg11.dtd">
<!-- Generated by graphviz version 2.38.0 (20140413.2041)
 -->
<!-- Title: lib/Support/CommandLine.cpp Pages: 1 -->
<svg width="667pt" height="319pt"
 viewBox="0.00 0.00 666.50 319.00" xmlns="http://www.w3.org/2000/svg" xmlns:xlink="http://www.w3.org/1999/xlink">
<g id="graph0" class="graph" transform="scale(1 1) rotate(0) translate(4 315)">
<title>lib/Support/CommandLine.cpp</title>
<!-- Node0 -->
<g id="node1" class="node"><title>Node0</title>
<polygon fill="#bfbfbf" stroke="black" points="342,-291.5 342,-310.5 490,-310.5 490,-291.5 342,-291.5"/>
<text text-anchor="middle" x="416" y="-298.5" font-family="Helvetica,sans-Serif" font-size="10.00">lib/Support/CommandLine.cpp</text>
</g>
<!-- Node1 -->
<g id="node2" class="node"><title>Node1</title>
<g id="a_node2"><a xlink:href="../../d9/d41/CommandLine_8h.xhtml" target="_top" xlink:title="enfield/Support/CommandLine.h">
<polygon fill="none" stroke="black" points="109,-235.5 109,-254.5 265,-254.5 265,-235.5 109,-235.5"/>
<text text-anchor="middle" x="187" y="-242.5" font-family="Helvetica,sans-Serif" font-size="10.00">enfield/Support/CommandLine.h</text>
</a>
</g>
</g>
<!-- Node0&#45;&gt;Node1 -->
<g id="edge1" class="edge"><title>Node0&#45;&gt;Node1</title>
<path fill="none" stroke="midnightblue" d="M379.714,-291.444C340.017,-282.083 276.293,-267.056 233.088,-256.868"/>
<polygon fill="midnightblue" stroke="midnightblue" points="233.652,-253.405 223.116,-254.516 232.046,-260.218 233.652,-253.405"/>
</g>
<!-- Node4 -->
<g id="node5" class="node"><title>Node4</title>
<g id="a_node5"><a xlink:href="../../d1/d73/Defs_8h.xhtml" target="_top" xlink:title="enfield/Support/Defs.h">
<polygon fill="none" stroke="black" points="370,-56.5 370,-75.5 484,-75.5 484,-56.5 370,-56.5"/>
<text text-anchor="middle" x="427" y="-63.5" font-family="Helvetica,sans-Serif" font-size="10.00">enfield/Support/Defs.h</text>
</a>
</g>
</g>
<!-- Node0&#45;&gt;Node4 -->
<g id="edge17" class="edge"><title>Node0&#45;&gt;Node4</title>
<path fill="none" stroke="midnightblue" d="M414.758,-291.397C413.519,-282.358 411.704,-267.715 411,-255 407.565,-192.975 417.999,-119.677 423.64,-85.8449"/>
<polygon fill="midnightblue" stroke="midnightblue" points="427.155,-86.0563 425.404,-75.6071 420.256,-84.8673 427.155,-86.0563"/>
</g>
<!-- Node5 -->
<g id="node6" class="node"><title>Node5</title>
<polygon fill="none" stroke="#bfbfbf" points="175,-0.5 175,-19.5 219,-19.5 219,-0.5 175,-0.5"/>
<text text-anchor="middle" x="197" y="-7.5" font-family="Helvetica,sans-Serif" font-size="10.00">vector</text>
</g>
<!-- Node0&#45;&gt;Node5 -->
<g id="edge22" class="edge"><title>Node0&#45;&gt;Node5</title>
<path fill="none" stroke="midnightblue" d="M341.719,-299.004C276.084,-295.914 178.82,-285.86 100,-255 49.3636,-235.175 0,-238.879 0,-184.5 0,-184.5 0,-184.5 0,-121 0,-46.4796 108.789,-21.9694 164.681,-14.2944"/>
<polygon fill="midnightblue" stroke="midnightblue" points="165.305,-17.7433 174.785,-13.0114 164.423,-10.7991 165.305,-17.7433"/>
</g>
<!-- Node13 -->
<g id="node14" class="node"><title>Node13</title>
<polygon fill="none" stroke="#bfbfbf" points="311,-174 311,-193 363,-193 363,-174 311,-174"/>
<text text-anchor="middle" x="337" y="-181" font-family="Helvetica,sans-Serif" font-size="10.00">memory</text>
</g>
<!-- Node0&#45;&gt;Node13 -->
<g id="edge23" class="edge"><title>Node0&#45;&gt;Node13</title>
<path fill="none" stroke="midnightblue" d="M407.687,-291.461C399.393,-282.71 386.545,-268.51 377,-255 364.86,-237.818 353.258,-216.661 345.705,-202.031"/>
<polygon fill="midnightblue" stroke="midnightblue" points="348.809,-200.413 341.167,-193.075 342.565,-203.577 348.809,-200.413"/>
</g>
<!-- Node14 -->
<g id="node15" class="node"><title>Node14</title>
<polygon fill="none" stroke="#bfbfbf" points="419.5,-235.5 419.5,-254.5 464.5,-254.5 464.5,-235.5 419.5,-235.5"/>
<text text-anchor="middle" x="442" y="-242.5" font-family="Helvetica,sans-Serif" font-size="10.00">cstdlib</text>
</g>
<!-- Node0&#45;&gt;Node14 -->
<g id="edge18" class="edge"><title>Node0&#45;&gt;Node14</title>
<path fill="none" stroke="midnightblue" d="M420.293,-291.083C423.852,-283.691 429.022,-272.953 433.424,-263.811"/>
<polygon fill="midnightblue" stroke="midnightblue" points="436.602,-265.279 437.787,-254.751 430.295,-262.243 436.602,-265.279"/>
</g>
<!-- Node15 -->
<g id="node16" class="node"><title>Node15</title>
<polygon fill="none" stroke="#bfbfbf" points="483,-235.5 483,-254.5 537,-254.5 537,-235.5 483,-235.5"/>
<text text-anchor="middle" x="510" y="-242.5" font-family="Helvetica,sans-Serif" font-size="10.00">iostream</text>
</g>
<!-- Node0&#45;&gt;Node15 -->
<g id="edge19" class="edge"><title>Node0&#45;&gt;Node15</title>
<path fill="none" stroke="midnightblue" d="M431.103,-291.324C445.903,-282.822 468.694,-269.729 485.982,-259.797"/>
<polygon fill="midnightblue" stroke="midnightblue" points="488.007,-262.671 494.935,-254.655 484.52,-256.601 488.007,-262.671"/>
</g>
<!-- Node16 -->
<g id="node17" class="node"><title>Node16</title>
<polygon fill="none" stroke="#bfbfbf" points="555,-235.5 555,-254.5 605,-254.5 605,-235.5 555,-235.5"/>
<text text-anchor="middle" x="580" y="-242.5" font-family="Helvetica,sans-Serif" font-size="10.00">iomanip</text>
</g>
<!-- Node0&#45;&gt;Node16 -->
<g id="edge20" class="edge"><title>Node0&#45;&gt;Node16</title>
<path fill="none" stroke="midnightblue" d="M441.986,-291.444C469.941,-282.239 514.531,-267.557 545.43,-257.383"/>
<polygon fill="midnightblue" stroke="midnightblue" points="546.538,-260.703 554.942,-254.251 544.349,-254.054 546.538,-260.703"/>
</g>
<!-- Node17 -->
<g id="node18" class="node"><title>Node17</title>
<polygon fill="none" stroke="#bfbfbf" points="623.5,-235.5 623.5,-254.5 658.5,-254.5 658.5,-235.5 623.5,-235.5"/>
<text text-anchor="middle" x="641" y="-242.5" font-family="Helvetica,sans-Serif" font-size="10.00">map</text>
</g>
<!-- Node0&#45;&gt;Node17 -->
<g id="edge21" class="edge"><title>Node0&#45;&gt;Node17</title>
<path fill="none" stroke="midnightblue" d="M459.178,-291.463C497.37,-283.628 554.759,-271.162 613.532,-254.907"/>
<polygon fill="midnightblue" stroke="midnightblue" points="614.671,-258.223 623.358,-252.157 612.785,-251.482 614.671,-258.223"/>
</g>
<!-- Node2 -->
<g id="node3" class="node"><title>Node2</title>
<g id="a_node3"><a xlink:href="../../d1/d5e/PossibleValuesListTrait_8h.xhtml" target="_top" xlink:title="enfield/Support/Possible\lValuesListTrait.h">
<polygon fill="none" stroke="black" points="171,-168.5 171,-198.5 293,-198.5 293,-168.5 171,-168.5"/>
<text text-anchor="start" x="179" y="-186.5" font-family="Helvetica,sans-Serif" font-size="10.00">enfield/Support/Possible</text>
<text text-anchor="middle" x="232" y="-175.5" font-family="Helvetica,sans-Serif" font-size="10.00">ValuesListTrait.h</text>
</a>
</g>
</g>
<!-- Node1&#45;&gt;Node2 -->
<g id="edge2" class="edge"><title>Node1&#45;&gt;Node2</title>
<path fill="none" stroke="midnightblue" d="M193.447,-235.475C199.143,-227.944 207.703,-216.626 215.311,-206.566"/>
<polygon fill="midnightblue" stroke="midnightblue" points="218.154,-208.61 221.394,-198.523 212.571,-204.388 218.154,-208.61"/>
</g>
<!-- Node1&#45;&gt;Node5 -->
<g id="edge14" class="edge"><title>Node1&#45;&gt;Node5</title>
<path fill="none" stroke="midnightblue" d="M178.001,-235.299C150.567,-207.698 72.1667,-120.148 111,-56 122.741,-36.6046 145.896,-25.1664 165.224,-18.6787"/>
<polygon fill="midnightblue" stroke="midnightblue" points="166.362,-21.9911 174.902,-15.7214 164.316,-15.2966 166.362,-21.9911"/>
</g>
<!-- Node11 -->
<g id="node12" class="node"><title>Node11</title>
<polygon fill="none" stroke="#bfbfbf" points="120.5,-56.5 120.5,-75.5 169.5,-75.5 169.5,-56.5 120.5,-56.5"/>
<text text-anchor="middle" x="145" y="-63.5" font-family="Helvetica,sans-Serif" font-size="10.00">cassert</text>
</g>
<!-- Node1&#45;&gt;Node11 -->
<g id="edge15" class="edge"><title>Node1&#45;&gt;Node11</title>
<path fill="none" stroke="midnightblue" d="M180.974,-235.493C175.115,-226.766 166.465,-212.584 162,-199 149.235,-160.168 145.994,-111.97 145.21,-85.8946"/>
<polygon fill="midnightblue" stroke="midnightblue" points="148.703,-85.5092 144.997,-75.5836 141.705,-85.6537 148.703,-85.5092"/>
</g>
<!-- Node12 -->
<g id="node13" class="node"><title>Node12</title>
<polygon fill="none" stroke="#bfbfbf" points="28.5,-174 28.5,-193 69.5,-193 69.5,-174 28.5,-174"/>
<text text-anchor="middle" x="49" y="-181" font-family="Helvetica,sans-Serif" font-size="10.00">string</text>
</g>
<!-- Node1&#45;&gt;Node12 -->
<g id="edge13" class="edge"><title>Node1&#45;&gt;Node12</title>
<path fill="none" stroke="midnightblue" d="M167.228,-235.475C143.864,-225.401 104.786,-208.553 77.997,-197.002"/>
<polygon fill="midnightblue" stroke="midnightblue" points="79.304,-193.754 68.7354,-193.009 76.5324,-200.182 79.304,-193.754"/>
</g>
<!-- Node1&#45;&gt;Node13 -->
<g id="edge16" class="edge"><title>Node1&#45;&gt;Node13</title>
<path fill="none" stroke="midnightblue" d="M209.529,-235.336C232.751,-226.369 269.982,-211.895 302,-199 303.636,-198.341 305.313,-197.661 307.005,-196.972"/>
<polygon fill="midnightblue" stroke="midnightblue" points="308.749,-200.039 316.67,-193.002 306.09,-193.564 308.749,-200.039"/>
</g>
<!-- Node3 -->
<g id="node4" class="node"><title>Node3</title>
<g id="a_node4"><a xlink:href="../../dd/d62/EnumString_8h.xhtml" target="_top" xlink:title="enfield/Support/EnumString.h">
<polygon fill="none" stroke="black" points="194,-112.5 194,-131.5 338,-131.5 338,-112.5 194,-112.5"/>
<text text-anchor="middle" x="266" y="-119.5" font-family="Helvetica,sans-Serif" font-size="10.00">enfield/Support/EnumString.h</text>
</a>
</g>
</g>
<!-- Node2&#45;&gt;Node3 -->
<g id="edge3" class="edge"><title>Node2&#45;&gt;Node3</title>
<path fill="none" stroke="midnightblue" d="M240.058,-168.399C244.845,-160.021 250.956,-149.327 256.044,-140.423"/>
<polygon fill="midnightblue" stroke="midnightblue" points="259.13,-142.077 261.053,-131.658 253.052,-138.604 259.13,-142.077"/>
</g>
<!-- Node3&#45;&gt;Node4 -->
<g id="edge4" class="edge"><title>Node3&#45;&gt;Node4</title>
<path fill="none" stroke="midnightblue" d="M291.511,-112.444C318.596,-103.359 361.59,-88.9388 391.869,-78.7831"/>
<polygon fill="midnightblue" stroke="midnightblue" points="393.24,-82.0148 401.608,-75.5164 391.014,-75.3781 393.24,-82.0148"/>
</g>
<!-- Node3&#45;&gt;Node5 -->
<g id="edge9" class="edge"><title>Node3&#45;&gt;Node5</title>
<path fill="none" stroke="midnightblue" d="M283.038,-112.413C304.586,-100.385 337.16,-77.5699 322,-56 301.211,-26.4207 259.016,-16.1933 229.423,-12.7089"/>
<polygon fill="midnightblue" stroke="midnightblue" points="229.446,-9.19467 219.153,-11.707 228.766,-16.1616 229.446,-9.19467"/>
</g>
<!-- Node9 -->
<g id="node10" class="node"><title>Node9</title>
<polygon fill="none" stroke="#bfbfbf" points="188,-56.5 188,-75.5 244,-75.5 244,-56.5 188,-56.5"/>
<text text-anchor="middle" x="216" y="-63.5" font-family="Helvetica,sans-Serif" font-size="10.00">algorithm</text>
</g>
<!-- Node3&#45;&gt;Node9 -->
<g id="edge10" class="edge"><title>Node3&#45;&gt;Node9</title>
<path fill="none" stroke="midnightblue" d="M257.744,-112.083C250.535,-104.298 239.89,-92.8015 231.154,-83.3665"/>
<polygon fill="midnightblue" stroke="midnightblue" points="233.465,-80.7108 224.103,-75.7511 228.329,-85.4666 233.465,-80.7108"/>
</g>
<!-- Node10 -->
<g id="node11" class="node"><title>Node10</title>
<polygon fill="none" stroke="#bfbfbf" points="262.5,-56.5 262.5,-75.5 313.5,-75.5 313.5,-56.5 262.5,-56.5"/>
<text text-anchor="middle" x="288" y="-63.5" font-family="Helvetica,sans-Serif" font-size="10.00">typeinfo</text>
</g>
<!-- Node3&#45;&gt;Node10 -->
<g id="edge11" class="edge"><title>Node3&#45;&gt;Node10</title>
<path fill="none" stroke="midnightblue" d="M269.633,-112.083C272.612,-104.77 276.926,-94.1814 280.625,-85.1034"/>
<polygon fill="midnightblue" stroke="midnightblue" points="283.903,-86.3326 284.435,-75.7511 277.42,-83.6914 283.903,-86.3326"/>
</g>
<!-- Node3&#45;&gt;Node11 -->
<g id="edge12" class="edge"><title>Node3&#45;&gt;Node11</title>
<path fill="none" stroke="midnightblue" d="M246.827,-112.444C227.091,-103.636 196.115,-89.8116 173.507,-79.722"/>
<polygon fill="midnightblue" stroke="midnightblue" points="174.641,-76.3957 164.083,-75.5164 171.789,-82.788 174.641,-76.3957"/>
</g>
<!-- Node4&#45;&gt;Node5 -->
<g id="edge5" class="edge"><title>Node4&#45;&gt;Node5</title>
<path fill="none" stroke="midnightblue" d="M390.556,-56.4435C345.972,-45.9759 271.213,-28.4239 228.837,-18.4748"/>
<polygon fill="midnightblue" stroke="midnightblue" points="229.586,-15.0556 219.051,-16.1772 227.986,-21.8703 229.586,-15.0556"/>
</g>
<!-- Node6 -->
<g id="node7" class="node"><title>Node6</title>
<polygon fill="none" stroke="#bfbfbf" points="471,-0.5 471,-19.5 517,-19.5 517,-0.5 471,-0.5"/>
<text text-anchor="middle" x="494" y="-7.5" font-family="Helvetica,sans-Serif" font-size="10.00">cstdint</text>
</g>
<!-- Node4&#45;&gt;Node6 -->
<g id="edge6" class="edge"><title>Node4&#45;&gt;Node6</title>
<path fill="none" stroke="midnightblue" d="M437.765,-56.324C447.766,-48.2631 462.887,-36.0765 474.93,-26.3695"/>
<polygon fill="midnightblue" stroke="midnightblue" points="477.45,-28.8343 483.039,-19.8339 473.057,-23.3841 477.45,-28.8343"/>
</g>
<!-- Node7 -->
<g id="node8" class="node"><title>Node7</title>
<polygon fill="none" stroke="#bfbfbf" points="343,-0.5 343,-19.5 383,-19.5 383,-0.5 343,-0.5"/>
<text text-anchor="middle" x="363" y="-7.5" font-family="Helvetica,sans-Serif" font-size="10.00">limits</text>
</g>
<!-- Node4&#45;&gt;Node7 -->
<g id="edge7" class="edge"><title>Node4&#45;&gt;Node7</title>
<path fill="none" stroke="midnightblue" d="M416.717,-56.324C407.164,-48.2631 392.72,-36.0765 381.216,-26.3695"/>
<polygon fill="midnightblue" stroke="midnightblue" points="383.37,-23.6076 373.47,-19.8339 378.856,-28.9577 383.37,-23.6076"/>
</g>
<!-- Node8 -->
<g id="node9" class="node"><title>Node8</title>
<polygon fill="none" stroke="#bfbfbf" points="401,-0.5 401,-19.5 453,-19.5 453,-0.5 401,-0.5"/>
<text text-anchor="middle" x="427" y="-7.5" font-family="Helvetica,sans-Serif" font-size="10.00">ostream</text>
</g>
<!-- Node4&#45;&gt;Node8 -->
<g id="edge8" class="edge"><title>Node4&#45;&gt;Node8</title>
<path fill="none" stroke="midnightblue" d="M427,-56.083C427,-49.0059 427,-38.8611 427,-29.9865"/>
<polygon fill="midnightblue" stroke="midnightblue" points="430.5,-29.751 427,-19.7511 423.5,-29.7511 430.5,-29.751"/>
</g>
</g>
</svg>
