<?xml version="1.0" encoding="UTF-8" standalone="no"?>
<!DOCTYPE svg PUBLIC "-//W3C//DTD SVG 1.1//EN"
 "http://www.w3.org/Graphics/SVG/1.1/DTD/svg11.dtd">
<!-- Generated by graphviz version 2.38.0 (20140413.2041)
 -->
<!-- Title: lib/Support/ApproxTSFinder.cpp Pages: 1 -->
<!--zoomable 274 -->
<svg id="main" version="1.1" xmlns="http://www.w3.org/2000/svg" xmlns:xlink="http://www.w3.org/1999/xlink" xml:space="preserve" onload="init(evt)">
<style type="text/css"><![CDATA[
.edge:hover path { stroke: red; }
.edge:hover polygon { stroke: red; fill: red; }
]]></style>
<script type="text/javascript"><![CDATA[
var edges = document.getElementsByTagName('g');
if (edges && edges.length) {
  for (var i=0;i<edges.length;i++) {
    if (edges[i].id.substr(0,4)=='edge') {
      edges[i].setAttribute('class','edge');
    }
  }
}
]]></script>
        <defs>
                <circle id="rim" cx="0" cy="0" r="7"/>
                <circle id="rim2" cx="0" cy="0" r="3.5"/>
                <g id="zoomPlus">
                        <use xlink:href="#rim" fill="#404040">
                                <set attributeName="fill" to="#808080" begin="zoomplus.mouseover" end="zoomplus.mouseout"/>
                        </use>
                        <path d="M-4,0h8M0,-4v8" fill="none" stroke="white" stroke-width="1.5" pointer-events="none"/>
                </g>
                <g id="zoomMin">
                        <use xlink:href="#rim" fill="#404040">
                                <set attributeName="fill" to="#808080" begin="zoomminus.mouseover" end="zoomminus.mouseout"/>
                        </use>
                        <path d="M-4,0h8" fill="none" stroke="white" stroke-width="1.5" pointer-events="none"/>
                </g>
                <g id="dirArrow">
                        <path fill="none" stroke="white" stroke-width="1.5" d="M0,-3.0v7 M-2.5,-0.5L0,-3.0L2.5,-0.5"/>
                </g>
               <g id="resetDef">
                       <use xlink:href="#rim2" fill="#404040">
                               <set attributeName="fill" to="#808080" begin="reset.mouseover" end="reset.mouseout"/>
                       </use>
               </g>
        </defs>

<script type="text/javascript">
var viewWidth = 728;
var viewHeight = 274;
var sectionId = 'dynsection-0';
</script>
<script xlink:href="../../svgpan.js"/>
<svg id="graph" class="graph">
<g id="viewport">
<title>lib/Support/ApproxTSFinder.cpp</title>
<!-- Node0 -->
<g id="node1" class="node"><title>Node0</title>
<polygon fill="#bfbfbf" stroke="black" points="329.5,-246.5 329.5,-265.5 484.5,-265.5 484.5,-246.5 329.5,-246.5"/>
<text text-anchor="middle" x="407" y="-253.5" font-family="Helvetica,sans-Serif" font-size="10.00">lib/Support/ApproxTSFinder.cpp</text>
</g>
<!-- Node1 -->
<g id="node2" class="node"><title>Node1</title>
<g id="a_node2"><a xlink:href="../../db/dfc/ApproxTSFinder_8h.xhtml" target="_top" xlink:title="enfield/Support/ApproxTSFinder.h">
<polygon fill="none" stroke="black" points="139,-185 139,-204 303,-204 303,-185 139,-185"/>
<text text-anchor="middle" x="221" y="-192" font-family="Helvetica,sans-Serif" font-size="10.00">enfield/Support/ApproxTSFinder.h</text>
</a>
</g>
</g>
<!-- Node0&#45;&gt;Node1 -->
<g id="edge1" class="edge"><title>Node0&#45;&gt;Node1</title>
<path fill="none" stroke="midnightblue" d="M380.351,-246.475C348.031,-236.136 293.403,-218.661 257.267,-207.102"/>
<polygon fill="midnightblue" stroke="midnightblue" points="258.191,-203.722 247.6,-204.009 256.058,-210.39 258.191,-203.722"/>
</g>
<!-- Node4 -->
<g id="node5" class="node"><title>Node4</title>
<polygon fill="none" stroke="#bfbfbf" points="0,-0.5 0,-19.5 30,-19.5 30,-0.5 0,-0.5"/>
<text text-anchor="middle" x="15" y="-7.5" font-family="Helvetica,sans-Serif" font-size="10.00">set</text>
</g>
<!-- Node0&#45;&gt;Node4 -->
<g id="edge24" class="edge"><title>Node0&#45;&gt;Node4</title>
<path fill="none" stroke="midnightblue" d="M329.223,-249.789C258.841,-243.761 161.531,-231.753 130,-210 64.5523,-164.847 31.3152,-69.4169 19.7978,-29.3364"/>
<polygon fill="midnightblue" stroke="midnightblue" points="23.143,-28.301 17.1165,-19.5871 16.3936,-30.1573 23.143,-28.301"/>
</g>
<!-- Node8 -->
<g id="node9" class="node"><title>Node8</title>
<g id="a_node9"><a xlink:href="../../d1/d73/Defs_8h.xhtml" target="_top" xlink:title="enfield/Support/Defs.h">
<polygon fill="none" stroke="black" points="251,-56.5 251,-75.5 365,-75.5 365,-56.5 251,-56.5"/>
<text text-anchor="middle" x="308" y="-63.5" font-family="Helvetica,sans-Serif" font-size="10.00">enfield/Support/Defs.h</text>
</a>
</g>
</g>
<!-- Node0&#45;&gt;Node8 -->
<g id="edge20" class="edge"><title>Node0&#45;&gt;Node8</title>
<path fill="none" stroke="midnightblue" d="M393.207,-246.232C381.505,-238.137 365.058,-225.104 355,-210 328.53,-170.251 315.901,-114.383 310.841,-85.6635"/>
<polygon fill="midnightblue" stroke="midnightblue" points="314.289,-85.0615 309.211,-75.7628 307.382,-86.1985 314.289,-85.0615"/>
</g>
<!-- Node10 -->
<g id="node11" class="node"><title>Node10</title>
<polygon fill="none" stroke="#bfbfbf" points="416,-0.5 416,-19.5 456,-19.5 456,-0.5 416,-0.5"/>
<text text-anchor="middle" x="436" y="-7.5" font-family="Helvetica,sans-Serif" font-size="10.00">limits</text>
</g>
<!-- Node0&#45;&gt;Node10 -->
<g id="edge21" class="edge"><title>Node0&#45;&gt;Node10</title>
<path fill="none" stroke="midnightblue" d="M403.693,-246.198C395.683,-223.654 376.704,-162.083 388,-112 395.052,-80.7315 412.974,-47.7847 424.811,-28.3306"/>
<polygon fill="midnightblue" stroke="midnightblue" points="427.874,-30.0335 430.208,-19.6989 421.938,-26.3224 427.874,-30.0335"/>
</g>
<!-- Node12 -->
<g id="node13" class="node"><title>Node12</title>
<g id="a_node13"><a xlink:href="../../d6/df7/WeightedGraph_8h.xhtml" target="_top" xlink:title="enfield/Support/Weighted\lGraph.h">
<polygon fill="none" stroke="black" points="435,-179.5 435,-209.5 561,-209.5 561,-179.5 435,-179.5"/>
<text text-anchor="start" x="443" y="-197.5" font-family="Helvetica,sans-Serif" font-size="10.00">enfield/Support/Weighted</text>
<text text-anchor="middle" x="498" y="-186.5" font-family="Helvetica,sans-Serif" font-size="10.00">Graph.h</text>
</a>
</g>
</g>
<!-- Node0&#45;&gt;Node12 -->
<g id="edge13" class="edge"><title>Node0&#45;&gt;Node12</title>
<path fill="none" stroke="midnightblue" d="M420.038,-246.475C432.478,-238.341 451.673,-225.791 467.903,-215.179"/>
<polygon fill="midnightblue" stroke="midnightblue" points="470.099,-217.925 476.553,-209.523 466.268,-212.066 470.099,-217.925"/>
</g>
<!-- Node13 -->
<g id="node14" class="node"><title>Node13</title>
<polygon fill="none" stroke="#bfbfbf" points="397.5,-118 397.5,-137 432.5,-137 432.5,-118 397.5,-118"/>
<text text-anchor="middle" x="415" y="-125" font-family="Helvetica,sans-Serif" font-size="10.00">map</text>
</g>
<!-- Node0&#45;&gt;Node13 -->
<g id="edge25" class="edge"><title>Node0&#45;&gt;Node13</title>
<path fill="none" stroke="midnightblue" d="M407.55,-246.305C408.834,-225.994 412.056,-175.053 413.813,-147.277"/>
<polygon fill="midnightblue" stroke="midnightblue" points="417.308,-147.457 414.446,-137.256 410.322,-147.015 417.308,-147.457"/>
</g>
<!-- Node16 -->
<g id="node17" class="node"><title>Node16</title>
<polygon fill="none" stroke="#bfbfbf" points="665.5,-118 665.5,-137 714.5,-137 714.5,-118 665.5,-118"/>
<text text-anchor="middle" x="690" y="-125" font-family="Helvetica,sans-Serif" font-size="10.00">cassert</text>
</g>
<!-- Node0&#45;&gt;Node16 -->
<g id="edge26" class="edge"><title>Node0&#45;&gt;Node16</title>
<path fill="none" stroke="midnightblue" d="M457.777,-246.461C490.955,-239.583 534.543,-228.033 570,-210 589.736,-199.963 590.909,-191.767 609,-179 627.675,-165.821 649.74,-152.183 666.121,-142.407"/>
<polygon fill="midnightblue" stroke="midnightblue" points="668.216,-145.235 675.04,-137.13 664.651,-139.21 668.216,-145.235"/>
</g>
<!-- Node17 -->
<g id="node18" class="node"><title>Node17</title>
<polygon fill="none" stroke="#bfbfbf" points="617.5,-185 617.5,-204 660.5,-204 660.5,-185 617.5,-185"/>
<text text-anchor="middle" x="639" y="-192" font-family="Helvetica,sans-Serif" font-size="10.00">queue</text>
</g>
<!-- Node0&#45;&gt;Node17 -->
<g id="edge22" class="edge"><title>Node0&#45;&gt;Node17</title>
<path fill="none" stroke="midnightblue" d="M453.486,-246.471C493.549,-238.613 552.703,-225.795 603,-210 605.278,-209.285 607.615,-208.489 609.952,-207.65"/>
<polygon fill="midnightblue" stroke="midnightblue" points="611.303,-210.881 619.397,-204.045 608.806,-204.341 611.303,-210.881"/>
</g>
<!-- Node18 -->
<g id="node19" class="node"><title>Node18</title>
<polygon fill="none" stroke="#bfbfbf" points="678.5,-185 678.5,-204 719.5,-204 719.5,-185 678.5,-185"/>
<text text-anchor="middle" x="699" y="-192" font-family="Helvetica,sans-Serif" font-size="10.00">stack</text>
</g>
<!-- Node0&#45;&gt;Node18 -->
<g id="edge23" class="edge"><title>Node0&#45;&gt;Node18</title>
<path fill="none" stroke="midnightblue" d="M484.689,-247.781C537.831,-241.38 609.36,-229.864 670,-210 671.618,-209.47 673.259,-208.863 674.894,-208.204"/>
<polygon fill="midnightblue" stroke="midnightblue" points="676.362,-211.381 684.006,-204.046 673.456,-205.013 676.362,-211.381"/>
</g>
<!-- Node2 -->
<g id="node3" class="node"><title>Node2</title>
<g id="a_node3"><a xlink:href="../../dc/d2d/TokenSwapFinder_8h.xhtml" target="_top" xlink:title="enfield/Support/TokenSwap\lFinder.h">
<polygon fill="none" stroke="black" points="152.5,-112.5 152.5,-142.5 289.5,-142.5 289.5,-112.5 152.5,-112.5"/>
<text text-anchor="start" x="160.5" y="-130.5" font-family="Helvetica,sans-Serif" font-size="10.00">enfield/Support/TokenSwap</text>
<text text-anchor="middle" x="221" y="-119.5" font-family="Helvetica,sans-Serif" font-size="10.00">Finder.h</text>
</a>
</g>
</g>
<!-- Node1&#45;&gt;Node2 -->
<g id="edge2" class="edge"><title>Node1&#45;&gt;Node2</title>
<path fill="none" stroke="midnightblue" d="M221,-184.734C221,-176.541 221,-163.923 221,-152.714"/>
<polygon fill="midnightblue" stroke="midnightblue" points="224.5,-152.589 221,-142.589 217.5,-152.589 224.5,-152.589"/>
</g>
<!-- Node3 -->
<g id="node4" class="node"><title>Node3</title>
<g id="a_node4"><a xlink:href="../../d7/d16/Graph_8h.xhtml" target="_top" xlink:title="enfield/Support/Graph.h">
<polygon fill="none" stroke="black" points="113.5,-56.5 113.5,-75.5 232.5,-75.5 232.5,-56.5 113.5,-56.5"/>
<text text-anchor="middle" x="173" y="-63.5" font-family="Helvetica,sans-Serif" font-size="10.00">enfield/Support/Graph.h</text>
</a>
</g>
</g>
<!-- Node2&#45;&gt;Node3 -->
<g id="edge3" class="edge"><title>Node2&#45;&gt;Node3</title>
<path fill="none" stroke="midnightblue" d="M209.625,-112.399C202.65,-103.753 193.686,-92.642 186.372,-83.576"/>
<polygon fill="midnightblue" stroke="midnightblue" points="188.987,-81.2433 179.984,-75.6578 183.539,-85.6385 188.987,-81.2433"/>
</g>
<!-- Node2&#45;&gt;Node8 -->
<g id="edge8" class="edge"><title>Node2&#45;&gt;Node8</title>
<path fill="none" stroke="midnightblue" d="M241.618,-112.399C255.303,-103.04 273.211,-90.7924 286.978,-81.3771"/>
<polygon fill="midnightblue" stroke="midnightblue" points="289.062,-84.1919 295.341,-75.6578 285.111,-78.414 289.062,-84.1919"/>
</g>
<!-- Node3&#45;&gt;Node4 -->
<g id="edge4" class="edge"><title>Node3&#45;&gt;Node4</title>
<path fill="none" stroke="midnightblue" d="M146.717,-56.4731C121.536,-48.2387 82.2531,-35.2236 39.8708,-20.2283"/>
<polygon fill="midnightblue" stroke="midnightblue" points="40.8009,-16.8445 30.2062,-16.7933 38.4566,-23.4402 40.8009,-16.8445"/>
</g>
<!-- Node5 -->
<g id="node6" class="node"><title>Node5</title>
<polygon fill="none" stroke="#bfbfbf" points="220,-0.5 220,-19.5 264,-19.5 264,-0.5 220,-0.5"/>
<text text-anchor="middle" x="242" y="-7.5" font-family="Helvetica,sans-Serif" font-size="10.00">vector</text>
</g>
<!-- Node3&#45;&gt;Node5 -->
<g id="edge5" class="edge"><title>Node3&#45;&gt;Node5</title>
<path fill="none" stroke="midnightblue" d="M184.086,-56.324C194.486,-48.1849 210.261,-35.8395 222.722,-26.0874"/>
<polygon fill="midnightblue" stroke="midnightblue" points="224.994,-28.7533 230.712,-19.8339 220.68,-23.2407 224.994,-28.7533"/>
</g>
<!-- Node6 -->
<g id="node7" class="node"><title>Node6</title>
<polygon fill="none" stroke="#bfbfbf" points="48.5,-0.5 48.5,-19.5 131.5,-19.5 131.5,-0.5 48.5,-0.5"/>
<text text-anchor="middle" x="90" y="-7.5" font-family="Helvetica,sans-Serif" font-size="10.00">unordered_map</text>
</g>
<!-- Node3&#45;&gt;Node6 -->
<g id="edge6" class="edge"><title>Node3&#45;&gt;Node6</title>
<path fill="none" stroke="midnightblue" d="M159.665,-56.324C146.838,-47.979 127.215,-35.2122 112.06,-25.3524"/>
<polygon fill="midnightblue" stroke="midnightblue" points="113.593,-22.1742 103.302,-19.6545 109.776,-28.0417 113.593,-22.1742"/>
</g>
<!-- Node7 -->
<g id="node8" class="node"><title>Node7</title>
<polygon fill="none" stroke="#bfbfbf" points="150,-0.5 150,-19.5 202,-19.5 202,-0.5 150,-0.5"/>
<text text-anchor="middle" x="176" y="-7.5" font-family="Helvetica,sans-Serif" font-size="10.00">memory</text>
</g>
<!-- Node3&#45;&gt;Node7 -->
<g id="edge7" class="edge"><title>Node3&#45;&gt;Node7</title>
<path fill="none" stroke="midnightblue" d="M173.495,-56.083C173.889,-49.0059 174.452,-38.8611 174.945,-29.9865"/>
<polygon fill="midnightblue" stroke="midnightblue" points="178.454,-29.9299 175.514,-19.7511 171.464,-29.5415 178.454,-29.9299"/>
</g>
<!-- Node8&#45;&gt;Node5 -->
<g id="edge9" class="edge"><title>Node8&#45;&gt;Node5</title>
<path fill="none" stroke="midnightblue" d="M297.396,-56.324C287.544,-48.2631 272.649,-36.0765 260.785,-26.3695"/>
<polygon fill="midnightblue" stroke="midnightblue" points="262.753,-23.4575 252.797,-19.8339 258.32,-28.8752 262.753,-23.4575"/>
</g>
<!-- Node9 -->
<g id="node10" class="node"><title>Node9</title>
<polygon fill="none" stroke="#bfbfbf" points="282,-0.5 282,-19.5 328,-19.5 328,-0.5 282,-0.5"/>
<text text-anchor="middle" x="305" y="-7.5" font-family="Helvetica,sans-Serif" font-size="10.00">cstdint</text>
</g>
<!-- Node8&#45;&gt;Node9 -->
<g id="edge10" class="edge"><title>Node8&#45;&gt;Node9</title>
<path fill="none" stroke="midnightblue" d="M307.505,-56.083C307.111,-49.0059 306.548,-38.8611 306.055,-29.9865"/>
<polygon fill="midnightblue" stroke="midnightblue" points="309.536,-29.5415 305.486,-19.7511 302.546,-29.9299 309.536,-29.5415"/>
</g>
<!-- Node8&#45;&gt;Node10 -->
<g id="edge11" class="edge"><title>Node8&#45;&gt;Node10</title>
<path fill="none" stroke="midnightblue" d="M328.282,-56.4435C349.347,-47.5566 382.517,-33.5632 406.486,-23.4514"/>
<polygon fill="midnightblue" stroke="midnightblue" points="407.96,-26.6283 415.813,-19.5164 405.239,-20.1787 407.96,-26.6283"/>
</g>
<!-- Node11 -->
<g id="node12" class="node"><title>Node11</title>
<polygon fill="none" stroke="#bfbfbf" points="346,-0.5 346,-19.5 398,-19.5 398,-0.5 346,-0.5"/>
<text text-anchor="middle" x="372" y="-7.5" font-family="Helvetica,sans-Serif" font-size="10.00">ostream</text>
</g>
<!-- Node8&#45;&gt;Node11 -->
<g id="edge12" class="edge"><title>Node8&#45;&gt;Node11</title>
<path fill="none" stroke="midnightblue" d="M318.283,-56.324C327.836,-48.2631 342.28,-36.0765 353.784,-26.3695"/>
<polygon fill="midnightblue" stroke="midnightblue" points="356.144,-28.9577 361.53,-19.8339 351.63,-23.6076 356.144,-28.9577"/>
</g>
<!-- Node12&#45;&gt;Node3 -->
<g id="edge14" class="edge"><title>Node12&#45;&gt;Node3</title>
<path fill="none" stroke="midnightblue" d="M492.307,-179.352C483.999,-160.665 466.692,-128.23 441,-112 432.53,-106.65 317.295,-88.5854 240.716,-77.0363"/>
<polygon fill="midnightblue" stroke="midnightblue" points="241.057,-73.5484 230.648,-75.5218 240.016,-80.4705 241.057,-73.5484"/>
</g>
<!-- Node12&#45;&gt;Node8 -->
<g id="edge15" class="edge"><title>Node12&#45;&gt;Node8</title>
<path fill="none" stroke="midnightblue" d="M498.033,-179.306C497.282,-161.17 493.196,-129.981 475,-112 448.87,-86.1778 409.574,-74.759 375.663,-69.8743"/>
<polygon fill="midnightblue" stroke="midnightblue" points="375.695,-66.3502 365.333,-68.5595 374.811,-73.2942 375.695,-66.3502"/>
</g>
<!-- Node12&#45;&gt;Node13 -->
<g id="edge16" class="edge"><title>Node12&#45;&gt;Node13</title>
<path fill="none" stroke="midnightblue" d="M479.99,-179.396C466.408,-168.759 447.821,-154.203 434.002,-143.381"/>
<polygon fill="midnightblue" stroke="midnightblue" points="436.133,-140.605 426.102,-137.195 431.817,-146.116 436.133,-140.605"/>
</g>
<!-- Node14 -->
<g id="node15" class="node"><title>Node14</title>
<polygon fill="none" stroke="#bfbfbf" points="527,-118 527,-137 577,-137 577,-118 527,-118"/>
<text text-anchor="middle" x="552" y="-125" font-family="Helvetica,sans-Serif" font-size="10.00">fstream</text>
</g>
<!-- Node12&#45;&gt;Node14 -->
<g id="edge17" class="edge"><title>Node12&#45;&gt;Node14</title>
<path fill="none" stroke="midnightblue" d="M509.717,-179.396C518.137,-169.261 529.513,-155.567 538.345,-144.937"/>
<polygon fill="midnightblue" stroke="midnightblue" points="541.079,-147.123 544.777,-137.195 535.694,-142.65 541.079,-147.123"/>
</g>
<!-- Node15 -->
<g id="node16" class="node"><title>Node15</title>
<polygon fill="none" stroke="#bfbfbf" points="595,-118 595,-137 647,-137 647,-118 595,-118"/>
<text text-anchor="middle" x="621" y="-125" font-family="Helvetica,sans-Serif" font-size="10.00">sstream</text>
</g>
<!-- Node12&#45;&gt;Node15 -->
<g id="edge18" class="edge"><title>Node12&#45;&gt;Node15</title>
<path fill="none" stroke="midnightblue" d="M524.689,-179.396C545.889,-168.193 575.317,-152.641 596.049,-141.685"/>
<polygon fill="midnightblue" stroke="midnightblue" points="597.696,-144.774 604.902,-137.007 594.425,-138.585 597.696,-144.774"/>
</g>
<!-- Node12&#45;&gt;Node16 -->
<g id="edge19" class="edge"><title>Node12&#45;&gt;Node16</title>
<path fill="none" stroke="midnightblue" d="M546.106,-179.406C577.618,-169.86 619.564,-156.558 656,-143 657.654,-142.385 659.345,-141.734 661.046,-141.063"/>
<polygon fill="midnightblue" stroke="midnightblue" points="662.785,-144.132 670.708,-137.098 660.128,-137.656 662.785,-144.132"/>
</g>
</g>
</svg>
        <g id="navigator" transform="translate(0 0)" fill="#404254">
                <rect fill="#f2f5e9" fill-opacity="0.5" stroke="#606060" stroke-width=".5" x="0" y="0" width="60" height="60"/>
                <use id="zoomplus" xlink:href="#zoomPlus" x="17" y="9" onmousedown="handleZoom(evt,'in')"/>
                <use id="zoomminus" xlink:href="#zoomMin" x="42" y="9" onmousedown="handleZoom(evt,'out')"/>
                <use id="reset" xlink:href="#resetDef" x="30" y="36" onmousedown="handleReset()"/>
                <g id="arrowUp" xlink:href="#dirArrow" transform="translate(30 24)" onmousedown="handlePan(0,-1)">
                  <use xlink:href="#rim" fill="#404040">
                        <set attributeName="fill" to="#808080" begin="arrowUp.mouseover" end="arrowUp.mouseout"/>
                  </use>
                  <path fill="none" stroke="white" stroke-width="1.5" d="M0,-3.0v7 M-2.5,-0.5L0,-3.0L2.5,-0.5"/>
                </g>
                <g id="arrowRight" xlink:href="#dirArrow" transform="rotate(90) translate(36 -43)" onmousedown="handlePan(1,0)">
                  <use xlink:href="#rim" fill="#404040">
                        <set attributeName="fill" to="#808080" begin="arrowRight.mouseover" end="arrowRight.mouseout"/>
                  </use>
                  <path fill="none" stroke="white" stroke-width="1.5" d="M0,-3.0v7 M-2.5,-0.5L0,-3.0L2.5,-0.5"/>
                </g>
                <g id="arrowDown" xlink:href="#dirArrow" transform="rotate(180) translate(-30 -48)" onmousedown="handlePan(0,1)">
                  <use xlink:href="#rim" fill="#404040">
                        <set attributeName="fill" to="#808080" begin="arrowDown.mouseover" end="arrowDown.mouseout"/>
                  </use>
                  <path fill="none" stroke="white" stroke-width="1.5" d="M0,-3.0v7 M-2.5,-0.5L0,-3.0L2.5,-0.5"/>
                </g>
                <g id="arrowLeft" xlink:href="#dirArrow" transform="rotate(270) translate(-36 17)" onmousedown="handlePan(-1,0)">
                  <use xlink:href="#rim" fill="#404040">
                        <set attributeName="fill" to="#808080" begin="arrowLeft.mouseover" end="arrowLeft.mouseout"/>
                  </use>
                  <path fill="none" stroke="white" stroke-width="1.5" d="M0,-3.0v7 M-2.5,-0.5L0,-3.0L2.5,-0.5"/>
                </g>
        </g>
        <svg viewBox="0 0 15 15" width="100%" height="30px" preserveAspectRatio="xMaxYMin meet">
         <g id="arrow_out" transform="scale(0.3 0.3)">
          <a xlink:href="ApproxTSFinder_8cpp__incl_org.svg" target="_base">
           <rect id="button" ry="5" rx="5" y="6" x="6" height="38" width="38"
                fill="#f2f5e9" fill-opacity="0.5" stroke="#606060" stroke-width="1.0"/>
           <path id="arrow"
             d="M 11.500037,31.436501 C 11.940474,20.09759 22.043105,11.32322 32.158766,21.979434 L 37.068811,17.246167 C 37.068811,17.246167 37.088388,32 37.088388,32 L 22.160133,31.978069 C 22.160133,31.978069 26.997745,27.140456 26.997745,27.140456 C 18.528582,18.264221 13.291696,25.230495 11.500037,31.436501 z"
             style="fill:#404040;"/>
          </a>
         </g>
        </svg>
</svg>
