<?xml version="1.0" encoding="UTF-8" standalone="no"?>
<!DOCTYPE svg PUBLIC "-//W3C//DTD SVG 1.1//EN"
 "http://www.w3.org/Graphics/SVG/1.1/DTD/svg11.dtd">
<!-- Generated by graphviz version 2.40.1 (20161225.0304)
 -->
<!-- Title: efd::UsedBitsVisitor::visit Pages: 1 -->
<!--zoomable 374 -->
<svg id="main" version="1.1" xmlns="http://www.w3.org/2000/svg" xmlns:xlink="http://www.w3.org/1999/xlink" xml:space="preserve" onload="init(evt)">
<style type="text/css"><![CDATA[
.edge:hover path { stroke: red; }
.edge:hover polygon { stroke: red; fill: red; }
]]></style>
<script type="text/javascript"><![CDATA[
var edges = document.getElementsByTagName('g');
if (edges && edges.length) {
  for (var i=0;i<edges.length;i++) {
    if (edges[i].id.substr(0,4)=='edge') {
      edges[i].setAttribute('class','edge');
    }
  }
}
]]></script>
        <defs>
                <circle id="rim" cx="0" cy="0" r="7"/>
                <circle id="rim2" cx="0" cy="0" r="3.5"/>
                <g id="zoomPlus">
                        <use xlink:href="#rim" fill="#404040">
                                <set attributeName="fill" to="#808080" begin="zoomplus.mouseover" end="zoomplus.mouseout"/>
                        </use>
                        <path d="M-4,0h8M0,-4v8" fill="none" stroke="white" stroke-width="1.5" pointer-events="none"/>
                </g>
                <g id="zoomMin">
                        <use xlink:href="#rim" fill="#404040">
                                <set attributeName="fill" to="#808080" begin="zoomminus.mouseover" end="zoomminus.mouseout"/>
                        </use>
                        <path d="M-4,0h8" fill="none" stroke="white" stroke-width="1.5" pointer-events="none"/>
                </g>
                <g id="dirArrow">
                        <path fill="none" stroke="white" stroke-width="1.5" d="M0,-3.0v7 M-2.5,-0.5L0,-3.0L2.5,-0.5"/>
                </g>
               <g id="resetDef">
                       <use xlink:href="#rim2" fill="#404040">
                               <set attributeName="fill" to="#808080" begin="reset.mouseover" end="reset.mouseout"/>
                       </use>
               </g>
        </defs>

<script type="text/javascript">
var viewWidth = 632;
var viewHeight = 374;
var sectionId = 'dynsection-8';
</script>
<script xlink:href="../../svgpan.js"/>
<svg id="graph" class="graph">
<g id="viewport">
<title>efd::UsedBitsVisitor::visit</title>
<!-- Node42 -->
<g id="node1" class="node">
<title>Node42</title>
<polygon fill="#bfbfbf" stroke="#000000" points="0,-148.5 0,-178.5 113,-178.5 113,-148.5 0,-148.5"/>
<text text-anchor="start" x="8" y="-166.5" font-family="Helvetica,sans-Serif" font-size="10.00" fill="#000000">efd::UsedBitsVisitor</text>
<text text-anchor="middle" x="56.5" y="-155.5" font-family="Helvetica,sans-Serif" font-size="10.00" fill="#000000">::visit</text>
</g>
<!-- Node43 -->
<g id="node2" class="node">
<title>Node43</title>
<g id="a_node2"><a xlink:href="../../dc/d9d/classefd_1_1NDIfStmt.xhtml#a5ec6f243aee6d4fe8988885ea9c449de" target="_top" xlink:title="Gets the id inside the conditional. ">
<polygon fill="none" stroke="#000000" points="149,-346 149,-365 288,-365 288,-346 149,-346"/>
<text text-anchor="middle" x="218.5" y="-353" font-family="Helvetica,sans-Serif" font-size="10.00" fill="#000000">efd::NDIfStmt::getCondId</text>
</a>
</g>
</g>
<!-- Node42&#45;&gt;Node43 -->
<g id="edge1" class="edge">
<title>Node42&#45;&gt;Node43</title>
<path fill="none" stroke="#191970" d="M60.198,-178.6154C69.2454,-212.3255 95.7495,-294.0231 149,-336.5 151.2919,-338.3282 153.7467,-339.9809 156.3153,-341.4749"/>
<polygon fill="#191970" stroke="#191970" points="154.8997,-344.6793 165.4159,-345.9676 157.9984,-338.4025 154.8997,-344.6793"/>
</g>
<!-- Node44 -->
<g id="node3" class="node">
<title>Node44</title>
<g id="a_node3"><a xlink:href="../../db/d0c/structefd_1_1XbitToNumber.xhtml#ae9f84f1119a80e918cc3b3fd916a5922" target="_top" xlink:title="Returns an uint32_t number representing the classic bit;. ">
<polygon fill="none" stroke="#000000" points="161,-296.5 161,-326.5 276,-326.5 276,-296.5 161,-296.5"/>
<text text-anchor="start" x="169" y="-314.5" font-family="Helvetica,sans-Serif" font-size="10.00" fill="#000000">efd::XbitToNumber::</text>
<text text-anchor="middle" x="218.5" y="-303.5" font-family="Helvetica,sans-Serif" font-size="10.00" fill="#000000">getCUId</text>
</a>
</g>
</g>
<!-- Node42&#45;&gt;Node44 -->
<g id="edge2" class="edge">
<title>Node42&#45;&gt;Node44</title>
<path fill="none" stroke="#191970" d="M64.0565,-178.6125C77.6408,-204.3222 108.5795,-256.6777 149,-286.5 151.499,-288.3438 154.1472,-290.0624 156.8939,-291.6631"/>
<polygon fill="#191970" stroke="#191970" points="155.4552,-294.8602 165.9401,-296.3828 158.6932,-288.6541 155.4552,-294.8602"/>
</g>
<!-- Node46 -->
<g id="node5" class="node">
<title>Node46</title>
<g id="a_node5"><a xlink:href="../../dc/d9d/classefd_1_1NDIfStmt.xhtml#ae5c408d49862e644f1d299ab5b2f121d" target="_top" xlink:title="Gets the qop. ">
<polygon fill="none" stroke="#000000" points="155.5,-94 155.5,-113 281.5,-113 281.5,-94 155.5,-94"/>
<text text-anchor="middle" x="218.5" y="-101" font-family="Helvetica,sans-Serif" font-size="10.00" fill="#000000">efd::NDIfStmt::getQOp</text>
</a>
</g>
</g>
<!-- Node42&#45;&gt;Node46 -->
<g id="edge4" class="edge">
<title>Node42&#45;&gt;Node46</title>
<path fill="none" stroke="#191970" d="M94.1787,-148.456C110.9122,-141.8732 130.882,-134.1511 149,-127.5 159.1707,-123.7663 170.2369,-119.8703 180.4868,-116.33"/>
<polygon fill="#191970" stroke="#191970" points="181.6861,-119.6188 190.008,-113.0615 179.4133,-112.998 181.6861,-119.6188"/>
</g>
<!-- Node47 -->
<g id="node6" class="node">
<title>Node47</title>
<g id="a_node6"><a xlink:href="../../db/d0c/structefd_1_1XbitToNumber.xhtml#ab395508705fe60ed3bd0cfb28eb5ffc6" target="_top" xlink:title="Returns the number of qbits in a given gate (if any). ">
<polygon fill="none" stroke="#000000" points="161,-44.5 161,-74.5 276,-74.5 276,-44.5 161,-44.5"/>
<text text-anchor="start" x="169" y="-62.5" font-family="Helvetica,sans-Serif" font-size="10.00" fill="#000000">efd::XbitToNumber::</text>
<text text-anchor="middle" x="218.5" y="-51.5" font-family="Helvetica,sans-Serif" font-size="10.00" fill="#000000">getQSize</text>
</a>
</g>
</g>
<!-- Node42&#45;&gt;Node47 -->
<g id="edge5" class="edge">
<title>Node42&#45;&gt;Node47</title>
<path fill="none" stroke="#191970" d="M70.8994,-148.2284C88.0696,-130.7707 118.3178,-102.3157 149,-84.5 152.6178,-82.3993 156.4422,-80.428 160.3619,-78.5873"/>
<polygon fill="#191970" stroke="#191970" points="161.8719,-81.747 169.6282,-74.5296 159.064,-75.3348 161.8719,-81.747"/>
</g>
<!-- Node48 -->
<g id="node7" class="node">
<title>Node48</title>
<g id="a_node7"><a xlink:href="../../dd/d52/classefd_1_1QModule.xhtml#adccc5909af3a4bc63090ecd885ffc7ad" target="_top" xlink:title="Gets the quantum variable mapped to id from some gate. ">
<polygon fill="none" stroke="#000000" points="155,-258 155,-277 282,-277 282,-258 155,-258"/>
<text text-anchor="middle" x="218.5" y="-265" font-family="Helvetica,sans-Serif" font-size="10.00" fill="#000000">efd::QModule::getQVar</text>
</a>
</g>
</g>
<!-- Node42&#45;&gt;Node48 -->
<g id="edge6" class="edge">
<title>Node42&#45;&gt;Node48</title>
<path fill="none" stroke="#191970" d="M80.0562,-178.6225C110.7538,-198.3296 164.1301,-232.5958 194.866,-252.3275"/>
<polygon fill="#191970" stroke="#191970" points="193.3217,-255.4953 203.6277,-257.9523 197.1033,-249.6047 193.3217,-255.4953"/>
</g>
<!-- Node50 -->
<g id="node9" class="node">
<title>Node50</title>
<g id="a_node9"><a xlink:href="../../df/d1b/classefd_1_1NDValue.xhtml#a53ee724a8db3429bf30bb1936ad548b2" target="_top" xlink:title="Returns a copy to the setted value. ">
<polygon fill="none" stroke="#000000" points="505,-214 505,-233 624,-233 624,-214 505,-214"/>
<text text-anchor="middle" x="564.5" y="-221" font-family="Helvetica,sans-Serif" font-size="10.00" fill="#000000">efd::NDValue::getVal</text>
</a>
</g>
</g>
<!-- Node42&#45;&gt;Node50 -->
<g id="edge10" class="edge">
<title>Node42&#45;&gt;Node50</title>
<path fill="none" stroke="#191970" d="M113.021,-152.7927C193.8911,-139.7536 346.3888,-123.7006 469,-160.5 499.082,-169.5285 528.4376,-191.4396 546.4872,-206.8742"/>
<polygon fill="#191970" stroke="#191970" points="544.5781,-209.8571 554.3934,-213.8461 549.2079,-204.6069 544.5781,-209.8571"/>
</g>
<!-- Node51 -->
<g id="node10" class="node">
<title>Node51</title>
<g id="a_node10"><a xlink:href="../../d8/dcc/namespacestd.xhtml#a76fb98cd4a35566d53c2f0513c5d12d1" target="_top" xlink:title="std::to_string">
<polygon fill="none" stroke="#000000" points="178.5,-6 178.5,-25 258.5,-25 258.5,-6 178.5,-6"/>
<text text-anchor="middle" x="218.5" y="-13" font-family="Helvetica,sans-Serif" font-size="10.00" fill="#000000">std::to_string</text>
</a>
</g>
</g>
<!-- Node42&#45;&gt;Node51 -->
<g id="edge11" class="edge">
<title>Node42&#45;&gt;Node51</title>
<path fill="none" stroke="#191970" d="M63.2034,-148.1606C75.8836,-120.9763 106.0162,-64.4009 149,-34.5 154.9301,-30.3748 161.7215,-27.1439 168.6838,-24.6138"/>
<polygon fill="#191970" stroke="#191970" points="169.7511,-27.9471 178.219,-21.5797 167.6285,-21.2767 169.7511,-27.9471"/>
</g>
<!-- Node53 -->
<g id="node12" class="node">
<title>Node53</title>
<g id="a_node12"><a xlink:href="../../dd/d88/classefd_1_1UsedBitsVisitor.xhtml#ac19c5380f0f028c48017ef544be8ed85" target="_top" xlink:title="efd::UsedBitsVisitor\l::visitQOp">
<polygon fill="none" stroke="#000000" points="162,-170.5 162,-200.5 275,-200.5 275,-170.5 162,-170.5"/>
<text text-anchor="start" x="170" y="-188.5" font-family="Helvetica,sans-Serif" font-size="10.00" fill="#000000">efd::UsedBitsVisitor</text>
<text text-anchor="middle" x="218.5" y="-177.5" font-family="Helvetica,sans-Serif" font-size="10.00" fill="#000000">::visitQOp</text>
</a>
</g>
</g>
<!-- Node42&#45;&gt;Node53 -->
<g id="edge13" class="edge">
<title>Node42&#45;&gt;Node53</title>
<path fill="none" stroke="#191970" d="M113.1597,-171.1945C125.615,-172.886 138.9168,-174.6924 151.7283,-176.4322"/>
<polygon fill="#191970" stroke="#191970" points="151.4922,-179.9322 161.8723,-177.8098 152.4342,-172.9959 151.4922,-179.9322"/>
</g>
<!-- Node45 -->
<g id="node4" class="node">
<title>Node45</title>
<g id="a_node4"><a xlink:href="../../d4/deb/namespaceefd.xhtml#af3487901a239a99750dc5dcdc3a8c868" target="_top" xlink:title="efd::ExitWith">
<polygon fill="none" stroke="#000000" points="356.5,-334 356.5,-353 436.5,-353 436.5,-334 356.5,-334"/>
<text text-anchor="middle" x="396.5" y="-341" font-family="Helvetica,sans-Serif" font-size="10.00" fill="#000000">efd::ExitWith</text>
</a>
</g>
</g>
<!-- Node44&#45;&gt;Node45 -->
<g id="edge3" class="edge">
<title>Node44&#45;&gt;Node45</title>
<path fill="none" stroke="#191970" d="M276.2915,-321.8895C298.9012,-325.9542 324.5877,-330.5719 346.3955,-334.4925"/>
<polygon fill="#191970" stroke="#191970" points="345.9757,-337.973 356.4372,-336.2977 347.2143,-331.0835 345.9757,-337.973"/>
</g>
<!-- Node48&#45;&gt;Node45 -->
<g id="edge7" class="edge">
<title>Node48&#45;&gt;Node45</title>
<path fill="none" stroke="#191970" d="M262.694,-277.0005C271.3683,-279.7459 280.1915,-283.1994 288,-287.5 306.7514,-297.8274 305.4561,-308.8045 324,-319.5 331.512,-323.8327 339.918,-327.518 348.2709,-330.6041"/>
<polygon fill="#191970" stroke="#191970" points="347.4006,-334.0061 357.9953,-333.9543 349.6807,-327.3878 347.4006,-334.0061"/>
</g>
<!-- Node49 -->
<g id="node8" class="node">
<title>Node49</title>
<g id="a_node8"><a xlink:href="../../d0/d9e/classefd_1_1NDDecl.xhtml#a34957c2122c38cebf80a264d5fa3863f" target="_top" xlink:title="Gets the id node. ">
<polygon fill="none" stroke="#000000" points="511.5,-274 511.5,-293 617.5,-293 617.5,-274 511.5,-274"/>
<text text-anchor="middle" x="564.5" y="-281" font-family="Helvetica,sans-Serif" font-size="10.00" fill="#000000">efd::NDDecl::getId</text>
</a>
</g>
</g>
<!-- Node48&#45;&gt;Node49 -->
<g id="edge8" class="edge">
<title>Node48&#45;&gt;Node49</title>
<path fill="none" stroke="#191970" d="M280.2924,-277.0002C294.6089,-278.8394 309.808,-280.5032 324,-281.5 384.0794,-285.7199 452.8065,-285.8194 501.3635,-285.102"/>
<polygon fill="#191970" stroke="#191970" points="501.4671,-288.6009 511.4085,-284.9378 501.3525,-281.6019 501.4671,-288.6009"/>
</g>
<!-- Node48&#45;&gt;Node50 -->
<g id="edge9" class="edge">
<title>Node48&#45;&gt;Node50</title>
<path fill="none" stroke="#191970" d="M282.1964,-265.8357C333.0541,-263.7472 405.9817,-259.0497 469,-248.5 487.1975,-245.4536 506.9786,-240.5482 523.7933,-235.8862"/>
<polygon fill="#191970" stroke="#191970" points="525.1752,-239.1322 533.8388,-233.0336 523.263,-232.3984 525.1752,-239.1322"/>
</g>
<!-- Node52 -->
<g id="node11" class="node">
<title>Node52</title>
<g id="a_node11"><a xlink:href="../../dc/d5d/classefd_1_1EnumString.xhtml#a39d129d188c7746b7f8b65308d7d7b53" target="_top" xlink:title="Returns the string value of the enum. ">
<polygon fill="none" stroke="#000000" points="324,-.5 324,-30.5 469,-30.5 469,-.5 324,-.5"/>
<text text-anchor="start" x="332" y="-18.5" font-family="Helvetica,sans-Serif" font-size="10.00" fill="#000000">efd::EnumString::getString</text>
<text text-anchor="middle" x="396.5" y="-7.5" font-family="Helvetica,sans-Serif" font-size="10.00" fill="#000000">Value</text>
</a>
</g>
</g>
<!-- Node51&#45;&gt;Node52 -->
<g id="edge12" class="edge">
<title>Node51&#45;&gt;Node52</title>
<path fill="none" stroke="#191970" d="M258.891,-15.5C275.15,-15.5 294.5312,-15.5 313.543,-15.5"/>
<polygon fill="#191970" stroke="#191970" points="313.7375,-19.0001 323.7375,-15.5 313.7375,-12.0001 313.7375,-19.0001"/>
</g>
<!-- Node54 -->
<g id="node13" class="node">
<title>Node54</title>
<g id="a_node13"><a xlink:href="../../dd/d94/classefd_1_1NDQOp.xhtml#af7ef43289355c5bb047a46419177c8ed" target="_top" xlink:title="Gets the quantum arguments. ">
<polygon fill="none" stroke="#000000" points="334,-170 334,-189 459,-189 459,-170 334,-170"/>
<text text-anchor="middle" x="396.5" y="-177" font-family="Helvetica,sans-Serif" font-size="10.00" fill="#000000">efd::NDQOp::getQArgs</text>
</a>
</g>
</g>
<!-- Node53&#45;&gt;Node54 -->
<g id="edge14" class="edge">
<title>Node53&#45;&gt;Node54</title>
<path fill="none" stroke="#191970" d="M275.3097,-183.5851C290.5832,-183.0702 307.3185,-182.5061 323.3455,-181.9659"/>
<polygon fill="#191970" stroke="#191970" points="323.8763,-185.4501 333.7527,-181.6151 323.6404,-178.454 323.8763,-185.4501"/>
</g>
<!-- Node55 -->
<g id="node14" class="node">
<title>Node55</title>
<g id="a_node14"><a xlink:href="../../db/d0c/structefd_1_1XbitToNumber.xhtml#ae645e4b0ccb9c25c534883843484f06a" target="_top" xlink:title="Returns an uint32_t number representing the qubit in this specific gate (if any). ...">
<polygon fill="none" stroke="#000000" points="339,-208.5 339,-238.5 454,-238.5 454,-208.5 339,-208.5"/>
<text text-anchor="start" x="347" y="-226.5" font-family="Helvetica,sans-Serif" font-size="10.00" fill="#000000">efd::XbitToNumber::</text>
<text text-anchor="middle" x="396.5" y="-215.5" font-family="Helvetica,sans-Serif" font-size="10.00" fill="#000000">getQUId</text>
</a>
</g>
</g>
<!-- Node53&#45;&gt;Node55 -->
<g id="edge15" class="edge">
<title>Node53&#45;&gt;Node55</title>
<path fill="none" stroke="#191970" d="M275.3097,-197.6279C292.235,-201.2412 310.9553,-205.2376 328.5175,-208.9869"/>
<polygon fill="#191970" stroke="#191970" points="328.1914,-212.4961 338.7018,-211.1611 329.6529,-205.6503 328.1914,-212.4961"/>
</g>
<!-- Node55&#45;&gt;Node49 -->
<g id="edge16" class="edge">
<title>Node55&#45;&gt;Node49</title>
<path fill="none" stroke="#191970" d="M438.8935,-238.6405C466.4752,-248.4912 502.0638,-261.2014 528.3131,-270.5761"/>
<polygon fill="#191970" stroke="#191970" points="527.2853,-273.9255 537.8799,-273.9928 529.6397,-267.3333 527.2853,-273.9255"/>
</g>
<!-- Node55&#45;&gt;Node50 -->
<g id="edge17" class="edge">
<title>Node55&#45;&gt;Node50</title>
<path fill="none" stroke="#191970" d="M454.3161,-223.5C467.3253,-223.5 481.2656,-223.5 494.7061,-223.5"/>
<polygon fill="#191970" stroke="#191970" points="494.8631,-227.0001 504.863,-223.5 494.863,-220.0001 494.8631,-227.0001"/>
</g>
</g>
</svg>
        <g id="navigator" transform="translate(0 0)" fill="#404254">
                <rect fill="#f2f5e9" fill-opacity="0.5" stroke="#606060" stroke-width=".5" x="0" y="0" width="60" height="60"/>
                <use id="zoomplus" xlink:href="#zoomPlus" x="17" y="9" onmousedown="handleZoom(evt,'in')"/>
                <use id="zoomminus" xlink:href="#zoomMin" x="42" y="9" onmousedown="handleZoom(evt,'out')"/>
                <use id="reset" xlink:href="#resetDef" x="30" y="36" onmousedown="handleReset()"/>
                <g id="arrowUp" xlink:href="#dirArrow" transform="translate(30 24)" onmousedown="handlePan(0,-1)">
                  <use xlink:href="#rim" fill="#404040">
                        <set attributeName="fill" to="#808080" begin="arrowUp.mouseover" end="arrowUp.mouseout"/>
                  </use>
                  <path fill="none" stroke="white" stroke-width="1.5" d="M0,-3.0v7 M-2.5,-0.5L0,-3.0L2.5,-0.5"/>
                </g>
                <g id="arrowRight" xlink:href="#dirArrow" transform="rotate(90) translate(36 -43)" onmousedown="handlePan(1,0)">
                  <use xlink:href="#rim" fill="#404040">
                        <set attributeName="fill" to="#808080" begin="arrowRight.mouseover" end="arrowRight.mouseout"/>
                  </use>
                  <path fill="none" stroke="white" stroke-width="1.5" d="M0,-3.0v7 M-2.5,-0.5L0,-3.0L2.5,-0.5"/>
                </g>
                <g id="arrowDown" xlink:href="#dirArrow" transform="rotate(180) translate(-30 -48)" onmousedown="handlePan(0,1)">
                  <use xlink:href="#rim" fill="#404040">
                        <set attributeName="fill" to="#808080" begin="arrowDown.mouseover" end="arrowDown.mouseout"/>
                  </use>
                  <path fill="none" stroke="white" stroke-width="1.5" d="M0,-3.0v7 M-2.5,-0.5L0,-3.0L2.5,-0.5"/>
                </g>
                <g id="arrowLeft" xlink:href="#dirArrow" transform="rotate(270) translate(-36 17)" onmousedown="handlePan(-1,0)">
                  <use xlink:href="#rim" fill="#404040">
                        <set attributeName="fill" to="#808080" begin="arrowLeft.mouseover" end="arrowLeft.mouseout"/>
                  </use>
                  <path fill="none" stroke="white" stroke-width="1.5" d="M0,-3.0v7 M-2.5,-0.5L0,-3.0L2.5,-0.5"/>
                </g>
        </g>
        <svg viewBox="0 0 15 15" width="100%" height="30px" preserveAspectRatio="xMaxYMin meet">
         <g id="arrow_out" transform="scale(0.3 0.3)">
          <a xlink:href="classefd_1_1UsedBitsVisitor_a6cb0c884b4fa15fc81bd3d4f468d1a21_cgraph_org.svg" target="_base">
           <rect id="button" ry="5" rx="5" y="6" x="6" height="38" width="38"
                fill="#f2f5e9" fill-opacity="0.5" stroke="#606060" stroke-width="1.0"/>
           <path id="arrow"
             d="M 11.500037,31.436501 C 11.940474,20.09759 22.043105,11.32322 32.158766,21.979434 L 37.068811,17.246167 C 37.068811,17.246167 37.088388,32 37.088388,32 L 22.160133,31.978069 C 22.160133,31.978069 26.997745,27.140456 26.997745,27.140456 C 18.528582,18.264221 13.291696,25.230495 11.500037,31.436501 z"
             style="fill:#404040;"/>
          </a>
         </g>
        </svg>
</svg>
