<?xml version="1.0" encoding="UTF-8" standalone="no"?>
<!DOCTYPE svg PUBLIC "-//W3C//DTD SVG 1.1//EN"
 "http://www.w3.org/Graphics/SVG/1.1/DTD/svg11.dtd">
<!-- Generated by graphviz version 2.40.1 (20161225.0304)
 -->
<!-- Title: efd::UsedBitsVisitor::visit Pages: 1 -->
<svg width="595pt" height="261pt"
 viewBox="0.00 0.00 595.00 260.50" xmlns="http://www.w3.org/2000/svg" xmlns:xlink="http://www.w3.org/1999/xlink">
<g id="graph0" class="graph" transform="scale(1 1) rotate(0) translate(4 256.5)">
<title>efd::UsedBitsVisitor::visit</title>
<!-- Node1 -->
<g id="node1" class="node">
<title>Node1</title>
<polygon fill="#bfbfbf" stroke="#000000" points="0,-124 0,-154 113,-154 113,-124 0,-124"/>
<text text-anchor="start" x="8" y="-142" font-family="Helvetica,sans-Serif" font-size="10.00" fill="#000000">efd::UsedBitsVisitor</text>
<text text-anchor="middle" x="56.5" y="-131" font-family="Helvetica,sans-Serif" font-size="10.00" fill="#000000">::visit</text>
</g>
<!-- Node2 -->
<g id="node2" class="node">
<title>Node2</title>
<g id="a_node2"><a xlink:href="../../d4/d64/classefd_1_1NDQOpMeasure.xhtml#addcc5fd8d95d5790f75b643e88e76c7e" target="_top" xlink:title="Gets the cbit node. ">
<polygon fill="none" stroke="#000000" points="149,-222 149,-252 271,-252 271,-222 149,-222"/>
<text text-anchor="start" x="157" y="-240" font-family="Helvetica,sans-Serif" font-size="10.00" fill="#000000">efd::NDQOpMeasure::</text>
<text text-anchor="middle" x="210" y="-229" font-family="Helvetica,sans-Serif" font-size="10.00" fill="#000000">getCBit</text>
</a>
</g>
</g>
<!-- Node1&#45;&gt;Node2 -->
<g id="edge1" class="edge">
<title>Node1&#45;&gt;Node2</title>
<path fill="none" stroke="#191970" d="M72.4435,-154.2548C90.0585,-170.4845 119.8112,-196.1014 149,-213 151.807,-214.6251 154.745,-216.1858 157.75,-217.6763"/>
<polygon fill="#191970" stroke="#191970" points="156.3591,-220.8893 166.9026,-221.9314 159.3102,-214.5418 156.3591,-220.8893"/>
</g>
<!-- Node3 -->
<g id="node3" class="node">
<title>Node3</title>
<g id="a_node3"><a xlink:href="../../db/d0c/structefd_1_1XbitToNumber.xhtml#ae9f84f1119a80e918cc3b3fd916a5922" target="_top" xlink:title="Returns an uint32_t number representing the classic bit;. ">
<polygon fill="none" stroke="#000000" points="152.5,-173 152.5,-203 267.5,-203 267.5,-173 152.5,-173"/>
<text text-anchor="start" x="160.5" y="-191" font-family="Helvetica,sans-Serif" font-size="10.00" fill="#000000">efd::XbitToNumber::</text>
<text text-anchor="middle" x="210" y="-180" font-family="Helvetica,sans-Serif" font-size="10.00" fill="#000000">getCUId</text>
</a>
</g>
</g>
<!-- Node1&#45;&gt;Node3 -->
<g id="edge2" class="edge">
<title>Node1&#45;&gt;Node3</title>
<path fill="none" stroke="#191970" d="M103.8076,-154.1014C119.3458,-159.0615 136.7816,-164.6274 152.9634,-169.7929"/>
<polygon fill="#191970" stroke="#191970" points="152.2579,-173.2416 162.8486,-172.9484 154.3866,-166.5731 152.2579,-173.2416"/>
</g>
<!-- Node5 -->
<g id="node5" class="node">
<title>Node5</title>
<g id="a_node5"><a xlink:href="../../db/d0c/structefd_1_1XbitToNumber.xhtml#ab395508705fe60ed3bd0cfb28eb5ffc6" target="_top" xlink:title="Returns the number of qbits in a given gate (if any). ">
<polygon fill="none" stroke="#000000" points="152.5,-124 152.5,-154 267.5,-154 267.5,-124 152.5,-124"/>
<text text-anchor="start" x="160.5" y="-142" font-family="Helvetica,sans-Serif" font-size="10.00" fill="#000000">efd::XbitToNumber::</text>
<text text-anchor="middle" x="210" y="-131" font-family="Helvetica,sans-Serif" font-size="10.00" fill="#000000">getQSize</text>
</a>
</g>
</g>
<!-- Node1&#45;&gt;Node5 -->
<g id="edge4" class="edge">
<title>Node1&#45;&gt;Node5</title>
<path fill="none" stroke="#191970" d="M113.2216,-139C122.7294,-139 132.6781,-139 142.4264,-139"/>
<polygon fill="#191970" stroke="#191970" points="142.4858,-142.5001 152.4858,-139 142.4857,-135.5001 142.4858,-142.5001"/>
</g>
<!-- Node6 -->
<g id="node6" class="node">
<title>Node6</title>
<g id="a_node6"><a xlink:href="../../d6/d6a/classefd_1_1Node.xhtml#a96ca13a5c2b971b68619ce4a34be0f66" target="_top" xlink:title="Returns a std::string representation of this Node and its childrem. ">
<polygon fill="none" stroke="#000000" points="156,-85.5 156,-104.5 264,-104.5 264,-85.5 156,-85.5"/>
<text text-anchor="middle" x="210" y="-92.5" font-family="Helvetica,sans-Serif" font-size="10.00" fill="#000000">efd::Node::toString</text>
</a>
</g>
</g>
<!-- Node1&#45;&gt;Node6 -->
<g id="edge5" class="edge">
<title>Node1&#45;&gt;Node6</title>
<path fill="none" stroke="#191970" d="M108.8967,-123.9808C127.8031,-118.5613 148.909,-112.5114 166.9265,-107.3468"/>
<polygon fill="#191970" stroke="#191970" points="167.9364,-110.6983 176.5849,-104.5783 166.0075,-103.9693 167.9364,-110.6983"/>
</g>
<!-- Node7 -->
<g id="node7" class="node">
<title>Node7</title>
<g id="a_node7"><a xlink:href="../../dd/d88/classefd_1_1UsedBitsVisitor.xhtml#ac19c5380f0f028c48017ef544be8ed85" target="_top" xlink:title="efd::UsedBitsVisitor\l::visitQOp">
<polygon fill="none" stroke="#000000" points="153.5,-36 153.5,-66 266.5,-66 266.5,-36 153.5,-36"/>
<text text-anchor="start" x="161.5" y="-54" font-family="Helvetica,sans-Serif" font-size="10.00" fill="#000000">efd::UsedBitsVisitor</text>
<text text-anchor="middle" x="210" y="-43" font-family="Helvetica,sans-Serif" font-size="10.00" fill="#000000">::visitQOp</text>
</a>
</g>
</g>
<!-- Node1&#45;&gt;Node7 -->
<g id="edge6" class="edge">
<title>Node1&#45;&gt;Node7</title>
<path fill="none" stroke="#191970" d="M75.9476,-123.9801C94.1613,-110.3511 122.4762,-90.2648 149,-76 152.6855,-74.0179 156.5625,-72.0921 160.5012,-70.2468"/>
<polygon fill="#191970" stroke="#191970" points="162.0524,-73.387 169.7422,-66.0989 159.1858,-67.0008 162.0524,-73.387"/>
</g>
<!-- Node4 -->
<g id="node4" class="node">
<title>Node4</title>
<g id="a_node4"><a xlink:href="../../d4/deb/namespaceefd.xhtml#af3487901a239a99750dc5dcdc3a8c868" target="_top" xlink:title="efd::ExitWith">
<polygon fill="none" stroke="#000000" points="329.5,-178.5 329.5,-197.5 409.5,-197.5 409.5,-178.5 329.5,-178.5"/>
<text text-anchor="middle" x="369.5" y="-185.5" font-family="Helvetica,sans-Serif" font-size="10.00" fill="#000000">efd::ExitWith</text>
</a>
</g>
</g>
<!-- Node3&#45;&gt;Node4 -->
<g id="edge3" class="edge">
<title>Node3&#45;&gt;Node4</title>
<path fill="none" stroke="#191970" d="M267.5832,-188C284.4188,-188 302.686,-188 319.0437,-188"/>
<polygon fill="#191970" stroke="#191970" points="319.483,-191.5001 329.483,-188 319.483,-184.5001 319.483,-191.5001"/>
</g>
<!-- Node8 -->
<g id="node8" class="node">
<title>Node8</title>
<g id="a_node8"><a xlink:href="../../dd/d94/classefd_1_1NDQOp.xhtml#af7ef43289355c5bb047a46419177c8ed" target="_top" xlink:title="Gets the quantum arguments. ">
<polygon fill="none" stroke="#000000" points="307,-63.5 307,-82.5 432,-82.5 432,-63.5 307,-63.5"/>
<text text-anchor="middle" x="369.5" y="-70.5" font-family="Helvetica,sans-Serif" font-size="10.00" fill="#000000">efd::NDQOp::getQArgs</text>
</a>
</g>
</g>
<!-- Node7&#45;&gt;Node8 -->
<g id="edge7" class="edge">
<title>Node7&#45;&gt;Node8</title>
<path fill="none" stroke="#191970" d="M266.6828,-58.8183C276.4204,-60.1614 286.66,-61.5738 296.749,-62.9654"/>
<polygon fill="#191970" stroke="#191970" points="296.3792,-66.4474 306.7636,-64.3467 297.3357,-59.5131 296.3792,-66.4474"/>
</g>
<!-- Node9 -->
<g id="node9" class="node">
<title>Node9</title>
<g id="a_node9"><a xlink:href="../../db/d0c/structefd_1_1XbitToNumber.xhtml#ae645e4b0ccb9c25c534883843484f06a" target="_top" xlink:title="Returns an uint32_t number representing the qubit in this specific gate (if any). ...">
<polygon fill="none" stroke="#000000" points="312,-14 312,-44 427,-44 427,-14 312,-14"/>
<text text-anchor="start" x="320" y="-32" font-family="Helvetica,sans-Serif" font-size="10.00" fill="#000000">efd::XbitToNumber::</text>
<text text-anchor="middle" x="369.5" y="-21" font-family="Helvetica,sans-Serif" font-size="10.00" fill="#000000">getQUId</text>
</a>
</g>
</g>
<!-- Node7&#45;&gt;Node9 -->
<g id="edge8" class="edge">
<title>Node7&#45;&gt;Node9</title>
<path fill="none" stroke="#191970" d="M266.6828,-43.1817C278.0405,-41.6151 290.0812,-39.9543 301.7693,-38.3422"/>
<polygon fill="#191970" stroke="#191970" points="302.4959,-41.7752 311.9239,-36.9415 301.5394,-34.8408 302.4959,-41.7752"/>
</g>
<!-- Node10 -->
<g id="node10" class="node">
<title>Node10</title>
<g id="a_node10"><a xlink:href="../../d0/d9e/classefd_1_1NDDecl.xhtml#a34957c2122c38cebf80a264d5fa3863f" target="_top" xlink:title="Gets the id node. ">
<polygon fill="none" stroke="#000000" points="474.5,-38.5 474.5,-57.5 580.5,-57.5 580.5,-38.5 474.5,-38.5"/>
<text text-anchor="middle" x="527.5" y="-45.5" font-family="Helvetica,sans-Serif" font-size="10.00" fill="#000000">efd::NDDecl::getId</text>
</a>
</g>
</g>
<!-- Node9&#45;&gt;Node10 -->
<g id="edge9" class="edge">
<title>Node9&#45;&gt;Node10</title>
<path fill="none" stroke="#191970" d="M427.4362,-35.967C439.4086,-37.4067 452.0772,-38.9302 464.2284,-40.3914"/>
<polygon fill="#191970" stroke="#191970" points="463.9408,-43.8819 474.2872,-41.601 464.7766,-36.932 463.9408,-43.8819"/>
</g>
<!-- Node11 -->
<g id="node11" class="node">
<title>Node11</title>
<g id="a_node11"><a xlink:href="../../df/d1b/classefd_1_1NDValue.xhtml#a53ee724a8db3429bf30bb1936ad548b2" target="_top" xlink:title="Returns a copy to the setted value. ">
<polygon fill="none" stroke="#000000" points="468,-.5 468,-19.5 587,-19.5 587,-.5 468,-.5"/>
<text text-anchor="middle" x="527.5" y="-7.5" font-family="Helvetica,sans-Serif" font-size="10.00" fill="#000000">efd::NDValue::getVal</text>
</a>
</g>
</g>
<!-- Node9&#45;&gt;Node11 -->
<g id="edge10" class="edge">
<title>Node9&#45;&gt;Node11</title>
<path fill="none" stroke="#191970" d="M427.4362,-22.033C437.3444,-20.8415 447.7294,-19.5927 457.9034,-18.3692"/>
<polygon fill="#191970" stroke="#191970" points="458.471,-21.8263 467.9816,-17.1573 457.6352,-14.8763 458.471,-21.8263"/>
</g>
</g>
</svg>
