<?xml version="1.0" encoding="UTF-8" standalone="no"?>
<!DOCTYPE svg PUBLIC "-//W3C//DTD SVG 1.1//EN"
 "http://www.w3.org/Graphics/SVG/1.1/DTD/svg11.dtd">
<!-- Generated by graphviz version 2.40.1 (20161225.0304)
 -->
<!-- Title: efd::UsedBitsVisitor::visitQOp Pages: 1 -->
<svg width="437pt" height="91pt"
 viewBox="0.00 0.00 437.00 91.00" xmlns="http://www.w3.org/2000/svg" xmlns:xlink="http://www.w3.org/1999/xlink">
<g id="graph0" class="graph" transform="scale(1 1) rotate(0) translate(4 87)">
<title>efd::UsedBitsVisitor::visitQOp</title>
<!-- Node56 -->
<g id="node1" class="node">
<title>Node56</title>
<polygon fill="#bfbfbf" stroke="#000000" points="0,-36 0,-66 113,-66 113,-36 0,-36"/>
<text text-anchor="start" x="8" y="-54" font-family="Helvetica,sans-Serif" font-size="10.00" fill="#000000">efd::UsedBitsVisitor</text>
<text text-anchor="middle" x="56.5" y="-43" font-family="Helvetica,sans-Serif" font-size="10.00" fill="#000000">::visitQOp</text>
</g>
<!-- Node57 -->
<g id="node2" class="node">
<title>Node57</title>
<g id="a_node2"><a xlink:href="../../dd/d94/classefd_1_1NDQOp.xhtml#af7ef43289355c5bb047a46419177c8ed" target="_top" xlink:title="Gets the quantum arguments. ">
<polygon fill="none" stroke="#000000" points="149,-63.5 149,-82.5 274,-82.5 274,-63.5 149,-63.5"/>
<text text-anchor="middle" x="211.5" y="-70.5" font-family="Helvetica,sans-Serif" font-size="10.00" fill="#000000">efd::NDQOp::getQArgs</text>
</a>
</g>
</g>
<!-- Node56&#45;&gt;Node57 -->
<g id="edge1" class="edge">
<title>Node56&#45;&gt;Node57</title>
<path fill="none" stroke="#191970" d="M113.3361,-59.0671C121.6576,-60.2482 130.3219,-61.4779 138.9056,-62.6963"/>
<polygon fill="#191970" stroke="#191970" points="138.5271,-66.1776 148.9198,-64.1176 139.5109,-59.247 138.5271,-66.1776"/>
</g>
<!-- Node58 -->
<g id="node3" class="node">
<title>Node58</title>
<g id="a_node3"><a xlink:href="../../db/d0c/structefd_1_1XbitToNumber.xhtml#ae645e4b0ccb9c25c534883843484f06a" target="_top" xlink:title="Returns an uint32_t number representing the qubit in this specific gate (if any). ...">
<polygon fill="none" stroke="#000000" points="154,-14 154,-44 269,-44 269,-14 154,-14"/>
<text text-anchor="start" x="162" y="-32" font-family="Helvetica,sans-Serif" font-size="10.00" fill="#000000">efd::XbitToNumber::</text>
<text text-anchor="middle" x="211.5" y="-21" font-family="Helvetica,sans-Serif" font-size="10.00" fill="#000000">getQUId</text>
</a>
</g>
</g>
<!-- Node56&#45;&gt;Node58 -->
<g id="edge2" class="edge">
<title>Node56&#45;&gt;Node58</title>
<path fill="none" stroke="#191970" d="M113.3361,-42.9329C123.2506,-41.5257 133.6517,-40.0494 143.8234,-38.6057"/>
<polygon fill="#191970" stroke="#191970" points="144.4833,-42.0472 153.8922,-37.1766 143.4995,-35.1167 144.4833,-42.0472"/>
</g>
<!-- Node59 -->
<g id="node4" class="node">
<title>Node59</title>
<g id="a_node4"><a xlink:href="../../d0/d9e/classefd_1_1NDDecl.xhtml#a34957c2122c38cebf80a264d5fa3863f" target="_top" xlink:title="Gets the id node. ">
<polygon fill="none" stroke="#000000" points="316.5,-38.5 316.5,-57.5 422.5,-57.5 422.5,-38.5 316.5,-38.5"/>
<text text-anchor="middle" x="369.5" y="-45.5" font-family="Helvetica,sans-Serif" font-size="10.00" fill="#000000">efd::NDDecl::getId</text>
</a>
</g>
</g>
<!-- Node58&#45;&gt;Node59 -->
<g id="edge3" class="edge">
<title>Node58&#45;&gt;Node59</title>
<path fill="none" stroke="#191970" d="M269.4362,-35.967C281.4086,-37.4067 294.0772,-38.9302 306.2284,-40.3914"/>
<polygon fill="#191970" stroke="#191970" points="305.9408,-43.8819 316.2872,-41.601 306.7766,-36.932 305.9408,-43.8819"/>
</g>
<!-- Node60 -->
<g id="node5" class="node">
<title>Node60</title>
<g id="a_node5"><a xlink:href="../../df/d1b/classefd_1_1NDValue.xhtml#a53ee724a8db3429bf30bb1936ad548b2" target="_top" xlink:title="Returns a copy to the setted value. ">
<polygon fill="none" stroke="#000000" points="310,-.5 310,-19.5 429,-19.5 429,-.5 310,-.5"/>
<text text-anchor="middle" x="369.5" y="-7.5" font-family="Helvetica,sans-Serif" font-size="10.00" fill="#000000">efd::NDValue::getVal</text>
</a>
</g>
</g>
<!-- Node58&#45;&gt;Node60 -->
<g id="edge4" class="edge">
<title>Node58&#45;&gt;Node60</title>
<path fill="none" stroke="#191970" d="M269.4362,-22.033C279.3444,-20.8415 289.7294,-19.5927 299.9034,-18.3692"/>
<polygon fill="#191970" stroke="#191970" points="300.471,-21.8263 309.9816,-17.1573 299.6352,-14.8763 300.471,-21.8263"/>
</g>
</g>
</svg>
