<?xml version="1.0" encoding="UTF-8" standalone="no"?>
<!DOCTYPE svg PUBLIC "-//W3C//DTD SVG 1.1//EN"
 "http://www.w3.org/Graphics/SVG/1.1/DTD/svg11.dtd">
<!-- Generated by graphviz version 2.38.0 (20140413.2041)
 -->
<!-- Title: efd::UsedBitsVisitor::visitQOp Pages: 1 -->
<svg width="408pt" height="116pt"
 viewBox="0.00 0.00 408.00 116.00" xmlns="http://www.w3.org/2000/svg" xmlns:xlink="http://www.w3.org/1999/xlink">
<g id="graph0" class="graph" transform="scale(1 1) rotate(0) translate(4 112)">
<title>efd::UsedBitsVisitor::visitQOp</title>
<!-- Node60 -->
<g id="node1" class="node"><title>Node60</title>
<polygon fill="#bfbfbf" stroke="black" points="0,-39 0,-69 104,-69 104,-39 0,-39"/>
<text text-anchor="start" x="8" y="-57" font-family="Helvetica,sans-Serif" font-size="10.00">efd::UsedBitsVisitor</text>
<text text-anchor="middle" x="52" y="-46" font-family="Helvetica,sans-Serif" font-size="10.00">::visitQOp</text>
</g>
<!-- Node61 -->
<g id="node2" class="node"><title>Node61</title>
<g id="a_node2"><a xlink:href="../../dd/d94/classefd_1_1NDQOp.xhtml#af7ef43289355c5bb047a46419177c8ed" target="_top" xlink:title="Gets the quantum arguments. ">
<polygon fill="none" stroke="black" points="140,-88.5 140,-107.5 259,-107.5 259,-88.5 140,-88.5"/>
<text text-anchor="middle" x="199.5" y="-95.5" font-family="Helvetica,sans-Serif" font-size="10.00">efd::NDQOp::getQArgs</text>
</a>
</g>
</g>
<!-- Node60&#45;&gt;Node61 -->
<g id="edge1" class="edge"><title>Node60&#45;&gt;Node61</title>
<path fill="none" stroke="midnightblue" d="M102.666,-69.0192C120.421,-74.3885 140.223,-80.3766 157.196,-85.5095"/>
<polygon fill="midnightblue" stroke="midnightblue" points="156.241,-88.8772 166.826,-88.4217 158.268,-82.1769 156.241,-88.8772"/>
</g>
<!-- Node63 -->
<g id="node4" class="node"><title>Node63</title>
<g id="a_node4"><a xlink:href="../../db/d0c/structefd_1_1XbitToNumber.xhtml#ae645e4b0ccb9c25c534883843484f06a" target="_top" xlink:title="Returns an uint32_t number representing the qubit in this specific gate (if any). ...">
<polygon fill="none" stroke="black" points="147,-39 147,-69 252,-69 252,-39 147,-39"/>
<text text-anchor="start" x="155" y="-57" font-family="Helvetica,sans-Serif" font-size="10.00">efd::XbitToNumber::</text>
<text text-anchor="middle" x="199.5" y="-46" font-family="Helvetica,sans-Serif" font-size="10.00">getQUId</text>
</a>
</g>
</g>
<!-- Node60&#45;&gt;Node63 -->
<g id="edge3" class="edge"><title>Node60&#45;&gt;Node63</title>
<path fill="none" stroke="midnightblue" d="M104.298,-54C114.714,-54 125.775,-54 136.515,-54"/>
<polygon fill="midnightblue" stroke="midnightblue" points="136.684,-57.5001 146.684,-54 136.683,-50.5001 136.684,-57.5001"/>
</g>
<!-- Node65 -->
<g id="node6" class="node"><title>Node65</title>
<g id="a_node6"><a xlink:href="../../d6/d6a/classefd_1_1Node.xhtml#a96ca13a5c2b971b68619ce4a34be0f66" target="_top" xlink:title="Returns a std::string representation of this Node and its childrem. ">
<polygon fill="none" stroke="black" points="150,-0.5 150,-19.5 249,-19.5 249,-0.5 150,-0.5"/>
<text text-anchor="middle" x="199.5" y="-7.5" font-family="Helvetica,sans-Serif" font-size="10.00">efd::Node::toString</text>
</a>
</g>
</g>
<!-- Node60&#45;&gt;Node65 -->
<g id="edge5" class="edge"><title>Node60&#45;&gt;Node65</title>
<path fill="none" stroke="midnightblue" d="M102.666,-38.9808C120.421,-33.6115 140.223,-27.6234 157.196,-22.4905"/>
<polygon fill="midnightblue" stroke="midnightblue" points="158.268,-25.8231 166.826,-19.5783 156.241,-19.1228 158.268,-25.8231"/>
</g>
<!-- Node62 -->
<g id="node3" class="node"><title>Node62</title>
<g id="a_node3"><a xlink:href="../../d4/deb/namespaceefd.xhtml#a2cef687225e13315fc282dc40b5a6909" target="_top" xlink:title="Returns src cast to TargetTy, iff it is of class TargetTy, otherwise it will return nullptr...">
<polygon fill="none" stroke="black" points="311,-88.5 311,-107.5 384,-107.5 384,-88.5 311,-88.5"/>
<text text-anchor="middle" x="347.5" y="-95.5" font-family="Helvetica,sans-Serif" font-size="10.00">efd::dynCast</text>
</a>
</g>
</g>
<!-- Node61&#45;&gt;Node62 -->
<g id="edge2" class="edge"><title>Node61&#45;&gt;Node62</title>
<path fill="none" stroke="midnightblue" d="M259.043,-98C272.814,-98 287.301,-98 300.435,-98"/>
<polygon fill="midnightblue" stroke="midnightblue" points="300.638,-101.5 310.638,-98 300.638,-94.5001 300.638,-101.5"/>
</g>
<!-- Node64 -->
<g id="node5" class="node"><title>Node64</title>
<g id="a_node5"><a xlink:href="../../db/d0c/structefd_1_1XbitToNumber.xhtml#a7d9474b325920d98f5832d5f1923ba2b" target="_top" xlink:title="Gets a constant reference to the mapping of qubtis of a gate. ">
<polygon fill="none" stroke="black" points="295,-39 295,-69 400,-69 400,-39 295,-39"/>
<text text-anchor="start" x="303" y="-57" font-family="Helvetica,sans-Serif" font-size="10.00">efd::XbitToNumber::</text>
<text text-anchor="middle" x="347.5" y="-46" font-family="Helvetica,sans-Serif" font-size="10.00">getQbitMap</text>
</a>
</g>
</g>
<!-- Node63&#45;&gt;Node64 -->
<g id="edge4" class="edge"><title>Node63&#45;&gt;Node64</title>
<path fill="none" stroke="midnightblue" d="M252.385,-54C262.82,-54 273.885,-54 284.621,-54"/>
<polygon fill="midnightblue" stroke="midnightblue" points="284.782,-57.5001 294.782,-54 284.782,-50.5001 284.782,-57.5001"/>
</g>
</g>
</svg>
