<?xml version="1.0" encoding="UTF-8" standalone="no"?>
<!DOCTYPE svg PUBLIC "-//W3C//DTD SVG 1.1//EN"
 "http://www.w3.org/Graphics/SVG/1.1/DTD/svg11.dtd">
<!-- Generated by graphviz version 2.38.0 (20140413.2041)
 -->
<!-- Title: efd::UsedBitsVisitor::visit Pages: 1 -->
<svg width="571pt" height="366pt"
 viewBox="0.00 0.00 571.00 366.00" xmlns="http://www.w3.org/2000/svg" xmlns:xlink="http://www.w3.org/1999/xlink">
<g id="graph0" class="graph" transform="scale(1 1) rotate(0) translate(4 362)">
<title>efd::UsedBitsVisitor::visit</title>
<!-- Node46 -->
<g id="node1" class="node"><title>Node46</title>
<polygon fill="#bfbfbf" stroke="black" points="0,-175 0,-205 104,-205 104,-175 0,-175"/>
<text text-anchor="start" x="8" y="-193" font-family="Helvetica,sans-Serif" font-size="10.00">efd::UsedBitsVisitor</text>
<text text-anchor="middle" x="52" y="-182" font-family="Helvetica,sans-Serif" font-size="10.00">::visit</text>
</g>
<!-- Node47 -->
<g id="node2" class="node"><title>Node47</title>
<g id="a_node2"><a xlink:href="../../d4/deb/namespaceefd.xhtml#a2cef687225e13315fc282dc40b5a6909" target="_top" xlink:title="Returns src cast to TargetTy, iff it is of class TargetTy, otherwise it will return nullptr...">
<polygon fill="none" stroke="black" points="474,-262.5 474,-281.5 547,-281.5 547,-262.5 474,-262.5"/>
<text text-anchor="middle" x="510.5" y="-269.5" font-family="Helvetica,sans-Serif" font-size="10.00">efd::dynCast</text>
</a>
</g>
</g>
<!-- Node46&#45;&gt;Node47 -->
<g id="edge1" class="edge"><title>Node46&#45;&gt;Node47</title>
<path fill="none" stroke="midnightblue" d="M76.3794,-205.05C93.3516,-215.223 117.237,-228.028 140,-235 252.576,-269.482 392.575,-273.596 463.581,-273.122"/>
<polygon fill="midnightblue" stroke="midnightblue" points="463.993,-276.618 473.957,-273.016 463.922,-269.618 463.993,-276.618"/>
</g>
<!-- Node48 -->
<g id="node3" class="node"><title>Node48</title>
<g id="a_node3"><a xlink:href="../../dc/d9d/classefd_1_1NDIfStmt.xhtml#a5ec6f243aee6d4fe8988885ea9c449de" target="_top" xlink:title="Gets the id inside the conditional. ">
<polygon fill="none" stroke="black" points="293,-224.5 293,-243.5 422,-243.5 422,-224.5 293,-224.5"/>
<text text-anchor="middle" x="357.5" y="-231.5" font-family="Helvetica,sans-Serif" font-size="10.00">efd::NDIfStmt::getCondId</text>
</a>
</g>
</g>
<!-- Node46&#45;&gt;Node48 -->
<g id="edge2" class="edge"><title>Node46&#45;&gt;Node48</title>
<path fill="none" stroke="midnightblue" d="M99.1107,-205.036C112.204,-208.816 126.558,-212.503 140,-215 186.951,-223.722 240.395,-228.464 282.437,-231.029"/>
<polygon fill="midnightblue" stroke="midnightblue" points="282.407,-234.533 292.593,-231.621 282.814,-227.545 282.407,-234.533"/>
</g>
<!-- Node49 -->
<g id="node4" class="node"><title>Node49</title>
<g id="a_node4"><a xlink:href="../../db/d0c/structefd_1_1XbitToNumber.xhtml#ae9f84f1119a80e918cc3b3fd916a5922" target="_top" xlink:title="Returns an uint32_t number representing the classic bit;. ">
<polygon fill="none" stroke="black" points="146,-77 146,-107 251,-107 251,-77 146,-77"/>
<text text-anchor="start" x="154" y="-95" font-family="Helvetica,sans-Serif" font-size="10.00">efd::XbitToNumber::</text>
<text text-anchor="middle" x="198.5" y="-84" font-family="Helvetica,sans-Serif" font-size="10.00">getCUId</text>
</a>
</g>
</g>
<!-- Node46&#45;&gt;Node49 -->
<g id="edge4" class="edge"><title>Node46&#45;&gt;Node49</title>
<path fill="none" stroke="midnightblue" d="M68.2826,-174.793C84.8727,-158.882 112.671,-133.911 140,-117 143.007,-115.139 146.177,-113.348 149.419,-111.639"/>
<polygon fill="midnightblue" stroke="midnightblue" points="151.272,-114.627 158.677,-107.05 148.163,-108.356 151.272,-114.627"/>
</g>
<!-- Node50 -->
<g id="node5" class="node"><title>Node50</title>
<g id="a_node5"><a xlink:href="../../dc/d9d/classefd_1_1NDIfStmt.xhtml#ae5c408d49862e644f1d299ab5b2f121d" target="_top" xlink:title="Gets the qop. ">
<polygon fill="none" stroke="black" points="298.5,-338.5 298.5,-357.5 416.5,-357.5 416.5,-338.5 298.5,-338.5"/>
<text text-anchor="middle" x="357.5" y="-345.5" font-family="Helvetica,sans-Serif" font-size="10.00">efd::NDIfStmt::getQOp</text>
</a>
</g>
</g>
<!-- Node46&#45;&gt;Node50 -->
<g id="edge5" class="edge"><title>Node46&#45;&gt;Node50</title>
<path fill="none" stroke="midnightblue" d="M58.9584,-205.066C70.3352,-231.684 97.8346,-286.698 140,-313 184.299,-340.633 243.261,-348.705 288.465,-350.243"/>
<polygon fill="midnightblue" stroke="midnightblue" points="288.392,-353.742 298.474,-350.486 288.561,-346.744 288.392,-353.742"/>
</g>
<!-- Node51 -->
<g id="node6" class="node"><title>Node51</title>
<g id="a_node6"><a xlink:href="../../db/d0c/structefd_1_1XbitToNumber.xhtml#ab395508705fe60ed3bd0cfb28eb5ffc6" target="_top" xlink:title="Returns the number of qbits in a given gate (if any). ">
<polygon fill="none" stroke="black" points="146,-126 146,-156 251,-156 251,-126 146,-126"/>
<text text-anchor="start" x="154" y="-144" font-family="Helvetica,sans-Serif" font-size="10.00">efd::XbitToNumber::</text>
<text text-anchor="middle" x="198.5" y="-133" font-family="Helvetica,sans-Serif" font-size="10.00">getQSize</text>
</a>
</g>
</g>
<!-- Node46&#45;&gt;Node51 -->
<g id="edge7" class="edge"><title>Node46&#45;&gt;Node51</title>
<path fill="none" stroke="midnightblue" d="M97.5338,-174.899C111.955,-170.008 128.113,-164.529 143.163,-159.426"/>
<polygon fill="midnightblue" stroke="midnightblue" points="144.518,-162.662 152.864,-156.136 142.27,-156.033 144.518,-162.662"/>
</g>
<!-- Node53 -->
<g id="node8" class="node"><title>Node53</title>
<g id="a_node8"><a xlink:href="../../dd/d52/classefd_1_1QModule.xhtml#adccc5909af3a4bc63090ecd885ffc7ad" target="_top" xlink:title="Gets the quantum variable mapped to id from some gate. ">
<polygon fill="none" stroke="black" points="140,-38.5 140,-57.5 257,-57.5 257,-38.5 140,-38.5"/>
<text text-anchor="middle" x="198.5" y="-45.5" font-family="Helvetica,sans-Serif" font-size="10.00">efd::QModule::getQVar</text>
</a>
</g>
</g>
<!-- Node46&#45;&gt;Node53 -->
<g id="edge9" class="edge"><title>Node46&#45;&gt;Node53</title>
<path fill="none" stroke="midnightblue" d="M59.8696,-174.957C72.2874,-149.375 100.86,-97.3259 140,-68 143.145,-65.6432 146.59,-63.5491 150.182,-61.6911"/>
<polygon fill="midnightblue" stroke="midnightblue" points="151.661,-64.8631 159.322,-57.5438 148.769,-58.4886 151.661,-64.8631"/>
</g>
<!-- Node54 -->
<g id="node9" class="node"><title>Node54</title>
<g id="a_node9"><a xlink:href="../../da/d97/classefd_1_1NDRegDecl.xhtml#aa0cfc2736f15ea67553ea975b3b207f9" target="_top" xlink:title="Gets the size node. ">
<polygon fill="none" stroke="black" points="293.5,-300.5 293.5,-319.5 421.5,-319.5 421.5,-300.5 293.5,-300.5"/>
<text text-anchor="middle" x="357.5" y="-307.5" font-family="Helvetica,sans-Serif" font-size="10.00">efd::NDRegDecl::getSize</text>
</a>
</g>
</g>
<!-- Node46&#45;&gt;Node54 -->
<g id="edge10" class="edge"><title>Node46&#45;&gt;Node54</title>
<path fill="none" stroke="midnightblue" d="M61.692,-205.121C75.2683,-227.154 103.749,-267.473 140,-286 184.049,-308.513 239.61,-314.285 283.417,-314.546"/>
<polygon fill="midnightblue" stroke="midnightblue" points="283.441,-318.046 293.429,-314.512 283.417,-311.046 283.441,-318.046"/>
</g>
<!-- Node55 -->
<g id="node10" class="node"><title>Node55</title>
<g id="a_node10"><a xlink:href="../../df/d1b/classefd_1_1NDValue.xhtml#a53ee724a8db3429bf30bb1936ad548b2" target="_top" xlink:title="Returns a copy to the setted value. ">
<polygon fill="none" stroke="black" points="143.5,-0.5 143.5,-19.5 253.5,-19.5 253.5,-0.5 143.5,-0.5"/>
<text text-anchor="middle" x="198.5" y="-7.5" font-family="Helvetica,sans-Serif" font-size="10.00">efd::NDValue::getVal</text>
</a>
</g>
</g>
<!-- Node46&#45;&gt;Node55 -->
<g id="edge12" class="edge"><title>Node46&#45;&gt;Node55</title>
<path fill="none" stroke="midnightblue" d="M57.0875,-174.691C66.364,-142.866 92.0185,-69.1898 140,-29 142.01,-27.3165 144.174,-25.7807 146.443,-24.3798"/>
<polygon fill="midnightblue" stroke="midnightblue" points="148.349,-27.3334 155.61,-19.618 145.123,-21.1214 148.349,-27.3334"/>
</g>
<!-- Node56 -->
<g id="node11" class="node"><title>Node56</title>
<g id="a_node11"><a xlink:href="../../dd/d88/classefd_1_1UsedBitsVisitor.xhtml#ac19c5380f0f028c48017ef544be8ed85" target="_top" xlink:title="efd::UsedBitsVisitor\l::visitQOp">
<polygon fill="none" stroke="black" points="146.5,-175 146.5,-205 250.5,-205 250.5,-175 146.5,-175"/>
<text text-anchor="start" x="154.5" y="-193" font-family="Helvetica,sans-Serif" font-size="10.00">efd::UsedBitsVisitor</text>
<text text-anchor="middle" x="198.5" y="-182" font-family="Helvetica,sans-Serif" font-size="10.00">::visitQOp</text>
</a>
</g>
</g>
<!-- Node46&#45;&gt;Node56 -->
<g id="edge13" class="edge"><title>Node46&#45;&gt;Node56</title>
<path fill="none" stroke="midnightblue" d="M104.352,-190C114.68,-190 125.631,-190 136.256,-190"/>
<polygon fill="midnightblue" stroke="midnightblue" points="136.313,-193.5 146.313,-190 136.313,-186.5 136.313,-193.5"/>
</g>
<!-- Node48&#45;&gt;Node47 -->
<g id="edge3" class="edge"><title>Node48&#45;&gt;Node47</title>
<path fill="none" stroke="midnightblue" d="M396.604,-243.589C417.043,-248.733 442.375,-255.108 463.861,-260.515"/>
<polygon fill="midnightblue" stroke="midnightblue" points="463.193,-263.956 473.745,-263.002 464.902,-257.167 463.193,-263.956"/>
</g>
<!-- Node50&#45;&gt;Node47 -->
<g id="edge6" class="edge"><title>Node50&#45;&gt;Node47</title>
<path fill="none" stroke="midnightblue" d="M396.765,-338.484C405.246,-335.847 414.066,-332.678 422,-329 446.512,-317.638 472.137,-300.188 489.273,-287.589"/>
<polygon fill="midnightblue" stroke="midnightblue" points="491.5,-290.294 497.409,-281.501 487.306,-284.69 491.5,-290.294"/>
</g>
<!-- Node52 -->
<g id="node7" class="node"><title>Node52</title>
<g id="a_node7"><a xlink:href="../../db/d0c/structefd_1_1XbitToNumber.xhtml#a7d9474b325920d98f5832d5f1923ba2b" target="_top" xlink:title="Gets a constant reference to the mapping of qubtis of a gate. ">
<polygon fill="none" stroke="black" points="458,-96 458,-126 563,-126 563,-96 458,-96"/>
<text text-anchor="start" x="466" y="-114" font-family="Helvetica,sans-Serif" font-size="10.00">efd::XbitToNumber::</text>
<text text-anchor="middle" x="510.5" y="-103" font-family="Helvetica,sans-Serif" font-size="10.00">getQbitMap</text>
</a>
</g>
</g>
<!-- Node51&#45;&gt;Node52 -->
<g id="edge8" class="edge"><title>Node51&#45;&gt;Node52</title>
<path fill="none" stroke="midnightblue" d="M239.452,-125.951C245.462,-123.225 251.488,-120.217 257,-117 274.507,-106.784 273.827,-95.5783 293,-89 346.323,-70.7046 411.038,-81.2111 455.75,-93.1597"/>
<polygon fill="midnightblue" stroke="midnightblue" points="454.965,-96.5743 465.537,-95.8836 456.842,-89.8306 454.965,-96.5743"/>
</g>
<!-- Node54&#45;&gt;Node47 -->
<g id="edge11" class="edge"><title>Node54&#45;&gt;Node47</title>
<path fill="none" stroke="midnightblue" d="M396.604,-300.411C417.043,-295.267 442.375,-288.892 463.861,-283.485"/>
<polygon fill="midnightblue" stroke="midnightblue" points="464.902,-286.833 473.745,-280.998 463.193,-280.044 464.902,-286.833"/>
</g>
<!-- Node57 -->
<g id="node12" class="node"><title>Node57</title>
<g id="a_node12"><a xlink:href="../../dd/d94/classefd_1_1NDQOp.xhtml#af7ef43289355c5bb047a46419177c8ed" target="_top" xlink:title="Gets the quantum arguments. ">
<polygon fill="none" stroke="black" points="298,-186.5 298,-205.5 417,-205.5 417,-186.5 298,-186.5"/>
<text text-anchor="middle" x="357.5" y="-193.5" font-family="Helvetica,sans-Serif" font-size="10.00">efd::NDQOp::getQArgs</text>
</a>
</g>
</g>
<!-- Node56&#45;&gt;Node57 -->
<g id="edge14" class="edge"><title>Node56&#45;&gt;Node57</title>
<path fill="none" stroke="midnightblue" d="M250.908,-191.965C262.645,-192.413 275.304,-192.897 287.64,-193.368"/>
<polygon fill="midnightblue" stroke="midnightblue" points="287.773,-196.876 297.899,-193.76 288.04,-189.881 287.773,-196.876"/>
</g>
<!-- Node58 -->
<g id="node13" class="node"><title>Node58</title>
<g id="a_node13"><a xlink:href="../../db/d0c/structefd_1_1XbitToNumber.xhtml#ae645e4b0ccb9c25c534883843484f06a" target="_top" xlink:title="Returns an uint32_t number representing the qubit in this specific gate (if any). ...">
<polygon fill="none" stroke="black" points="305,-137 305,-167 410,-167 410,-137 305,-137"/>
<text text-anchor="start" x="313" y="-155" font-family="Helvetica,sans-Serif" font-size="10.00">efd::XbitToNumber::</text>
<text text-anchor="middle" x="357.5" y="-144" font-family="Helvetica,sans-Serif" font-size="10.00">getQUId</text>
</a>
</g>
</g>
<!-- Node56&#45;&gt;Node58 -->
<g id="edge16" class="edge"><title>Node56&#45;&gt;Node58</title>
<path fill="none" stroke="midnightblue" d="M250.908,-177.557C265.004,-174.146 280.429,-170.412 295.028,-166.879"/>
<polygon fill="midnightblue" stroke="midnightblue" points="296.081,-170.225 304.977,-164.471 294.434,-163.421 296.081,-170.225"/>
</g>
<!-- Node59 -->
<g id="node14" class="node"><title>Node59</title>
<g id="a_node14"><a xlink:href="../../d6/d6a/classefd_1_1Node.xhtml#a96ca13a5c2b971b68619ce4a34be0f66" target="_top" xlink:title="Returns a std::string representation of this Node and its childrem. ">
<polygon fill="none" stroke="black" points="308,-98.5 308,-117.5 407,-117.5 407,-98.5 308,-98.5"/>
<text text-anchor="middle" x="357.5" y="-105.5" font-family="Helvetica,sans-Serif" font-size="10.00">efd::Node::toString</text>
</a>
</g>
</g>
<!-- Node56&#45;&gt;Node59 -->
<g id="edge18" class="edge"><title>Node56&#45;&gt;Node59</title>
<path fill="none" stroke="midnightblue" d="M241.423,-174.949C246.854,-172.303 252.192,-169.317 257,-166 276.149,-152.789 273.274,-140.334 293,-128 297.073,-125.453 301.498,-123.206 306.052,-121.229"/>
<polygon fill="midnightblue" stroke="midnightblue" points="307.467,-124.434 315.511,-117.539 304.923,-117.912 307.467,-124.434"/>
</g>
<!-- Node57&#45;&gt;Node47 -->
<g id="edge15" class="edge"><title>Node57&#45;&gt;Node47</title>
<path fill="none" stroke="midnightblue" d="M396.765,-205.516C405.246,-208.153 414.066,-211.322 422,-215 446.512,-226.362 472.137,-243.812 489.273,-256.411"/>
<polygon fill="midnightblue" stroke="midnightblue" points="487.306,-259.31 497.409,-262.499 491.5,-253.706 487.306,-259.31"/>
</g>
<!-- Node58&#45;&gt;Node52 -->
<g id="edge17" class="edge"><title>Node58&#45;&gt;Node52</title>
<path fill="none" stroke="midnightblue" d="M410.043,-138.005C422.245,-134.692 435.379,-131.126 447.975,-127.706"/>
<polygon fill="midnightblue" stroke="midnightblue" points="449.199,-131 457.933,-125.002 447.365,-124.244 449.199,-131"/>
</g>
</g>
</svg>
