<?xml version="1.0" encoding="UTF-8" standalone="no"?>
<!DOCTYPE svg PUBLIC "-//W3C//DTD SVG 1.1//EN"
 "http://www.w3.org/Graphics/SVG/1.1/DTD/svg11.dtd">
<!-- Generated by graphviz version 2.40.1 (20161225.0304)
 -->
<!-- Title: efd::UsedBitsVisitor::visit Pages: 1 -->
<svg width="586pt" height="91pt"
 viewBox="0.00 0.00 586.00 91.00" xmlns="http://www.w3.org/2000/svg" xmlns:xlink="http://www.w3.org/1999/xlink">
<g id="graph0" class="graph" transform="scale(1 1) rotate(0) translate(4 87)">
<title>efd::UsedBitsVisitor::visit</title>
<!-- Node24 -->
<g id="node1" class="node">
<title>Node24</title>
<polygon fill="#bfbfbf" stroke="#000000" points="0,-36 0,-66 113,-66 113,-36 0,-36"/>
<text text-anchor="start" x="8" y="-54" font-family="Helvetica,sans-Serif" font-size="10.00" fill="#000000">efd::UsedBitsVisitor</text>
<text text-anchor="middle" x="56.5" y="-43" font-family="Helvetica,sans-Serif" font-size="10.00" fill="#000000">::visit</text>
</g>
<!-- Node25 -->
<g id="node2" class="node">
<title>Node25</title>
<g id="a_node2"><a xlink:href="../../dd/d88/classefd_1_1UsedBitsVisitor.xhtml#ac19c5380f0f028c48017ef544be8ed85" target="_top" xlink:title="efd::UsedBitsVisitor\l::visitQOp">
<polygon fill="none" stroke="#000000" points="149,-36 149,-66 262,-66 262,-36 149,-36"/>
<text text-anchor="start" x="157" y="-54" font-family="Helvetica,sans-Serif" font-size="10.00" fill="#000000">efd::UsedBitsVisitor</text>
<text text-anchor="middle" x="205.5" y="-43" font-family="Helvetica,sans-Serif" font-size="10.00" fill="#000000">::visitQOp</text>
</a>
</g>
</g>
<!-- Node24&#45;&gt;Node25 -->
<g id="edge1" class="edge">
<title>Node24&#45;&gt;Node25</title>
<path fill="none" stroke="#191970" d="M113.2556,-51C121.558,-51 130.1727,-51 138.6536,-51"/>
<polygon fill="#191970" stroke="#191970" points="138.9023,-54.5001 148.9022,-51 138.9022,-47.5001 138.9023,-54.5001"/>
</g>
<!-- Node26 -->
<g id="node3" class="node">
<title>Node26</title>
<g id="a_node3"><a xlink:href="../../dd/d94/classefd_1_1NDQOp.xhtml#af7ef43289355c5bb047a46419177c8ed" target="_top" xlink:title="Gets the quantum arguments. ">
<polygon fill="none" stroke="#000000" points="298,-63.5 298,-82.5 423,-82.5 423,-63.5 298,-63.5"/>
<text text-anchor="middle" x="360.5" y="-70.5" font-family="Helvetica,sans-Serif" font-size="10.00" fill="#000000">efd::NDQOp::getQArgs</text>
</a>
</g>
</g>
<!-- Node25&#45;&gt;Node26 -->
<g id="edge2" class="edge">
<title>Node25&#45;&gt;Node26</title>
<path fill="none" stroke="#191970" d="M262.3361,-59.0671C270.6576,-60.2482 279.3219,-61.4779 287.9056,-62.6963"/>
<polygon fill="#191970" stroke="#191970" points="287.5271,-66.1776 297.9198,-64.1176 288.5109,-59.247 287.5271,-66.1776"/>
</g>
<!-- Node27 -->
<g id="node4" class="node">
<title>Node27</title>
<g id="a_node4"><a xlink:href="../../db/d0c/structefd_1_1XbitToNumber.xhtml#ae645e4b0ccb9c25c534883843484f06a" target="_top" xlink:title="Returns an uint32_t number representing the qubit in this specific gate (if any). ...">
<polygon fill="none" stroke="#000000" points="303,-14 303,-44 418,-44 418,-14 303,-14"/>
<text text-anchor="start" x="311" y="-32" font-family="Helvetica,sans-Serif" font-size="10.00" fill="#000000">efd::XbitToNumber::</text>
<text text-anchor="middle" x="360.5" y="-21" font-family="Helvetica,sans-Serif" font-size="10.00" fill="#000000">getQUId</text>
</a>
</g>
</g>
<!-- Node25&#45;&gt;Node27 -->
<g id="edge3" class="edge">
<title>Node25&#45;&gt;Node27</title>
<path fill="none" stroke="#191970" d="M262.3361,-42.9329C272.2506,-41.5257 282.6517,-40.0494 292.8234,-38.6057"/>
<polygon fill="#191970" stroke="#191970" points="293.4833,-42.0472 302.8922,-37.1766 292.4995,-35.1167 293.4833,-42.0472"/>
</g>
<!-- Node28 -->
<g id="node5" class="node">
<title>Node28</title>
<g id="a_node5"><a xlink:href="../../d0/d9e/classefd_1_1NDDecl.xhtml#a34957c2122c38cebf80a264d5fa3863f" target="_top" xlink:title="Gets the id node. ">
<polygon fill="none" stroke="#000000" points="465.5,-38.5 465.5,-57.5 571.5,-57.5 571.5,-38.5 465.5,-38.5"/>
<text text-anchor="middle" x="518.5" y="-45.5" font-family="Helvetica,sans-Serif" font-size="10.00" fill="#000000">efd::NDDecl::getId</text>
</a>
</g>
</g>
<!-- Node27&#45;&gt;Node28 -->
<g id="edge4" class="edge">
<title>Node27&#45;&gt;Node28</title>
<path fill="none" stroke="#191970" d="M418.4362,-35.967C430.4086,-37.4067 443.0772,-38.9302 455.2284,-40.3914"/>
<polygon fill="#191970" stroke="#191970" points="454.9408,-43.8819 465.2872,-41.601 455.7766,-36.932 454.9408,-43.8819"/>
</g>
<!-- Node29 -->
<g id="node6" class="node">
<title>Node29</title>
<g id="a_node6"><a xlink:href="../../df/d1b/classefd_1_1NDValue.xhtml#a53ee724a8db3429bf30bb1936ad548b2" target="_top" xlink:title="Returns a copy to the setted value. ">
<polygon fill="none" stroke="#000000" points="459,-.5 459,-19.5 578,-19.5 578,-.5 459,-.5"/>
<text text-anchor="middle" x="518.5" y="-7.5" font-family="Helvetica,sans-Serif" font-size="10.00" fill="#000000">efd::NDValue::getVal</text>
</a>
</g>
</g>
<!-- Node27&#45;&gt;Node29 -->
<g id="edge5" class="edge">
<title>Node27&#45;&gt;Node29</title>
<path fill="none" stroke="#191970" d="M418.4362,-22.033C428.3444,-20.8415 438.7294,-19.5927 448.9034,-18.3692"/>
<polygon fill="#191970" stroke="#191970" points="449.471,-21.8263 458.9816,-17.1573 448.6352,-14.8763 449.471,-21.8263"/>
</g>
</g>
</svg>
