<?xml version="1.0" encoding="UTF-8" standalone="no"?>
<!DOCTYPE svg PUBLIC "-//W3C//DTD SVG 1.1//EN"
 "http://www.w3.org/Graphics/SVG/1.1/DTD/svg11.dtd">
<!-- Generated by graphviz version 2.38.0 (20140413.2041)
 -->
<!-- Title: efd::NDIdRef::toString Pages: 1 -->
<svg width="384pt" height="104pt"
 viewBox="0.00 0.00 384.00 104.00" xmlns="http://www.w3.org/2000/svg" xmlns:xlink="http://www.w3.org/1999/xlink">
<g id="graph0" class="graph" transform="scale(1 1) rotate(0) translate(4 100)">
<title>efd::NDIdRef::toString</title>
<!-- Node36 -->
<g id="node1" class="node"><title>Node36</title>
<polygon fill="#bfbfbf" stroke="black" points="0,-38.5 0,-57.5 115,-57.5 115,-38.5 0,-38.5"/>
<text text-anchor="middle" x="57.5" y="-45.5" font-family="Helvetica,sans-Serif" font-size="10.00">efd::NDIdRef::toString</text>
</g>
<!-- Node37 -->
<g id="node2" class="node"><title>Node37</title>
<g id="a_node2"><a xlink:href="../../d8/dd2/classefd_1_1NDIdRef.xhtml#aee4047da725c610abf28c2558ff5012f" target="_top" xlink:title="Gets the id. ">
<polygon fill="none" stroke="black" points="157.5,-76.5 157.5,-95.5 260.5,-95.5 260.5,-76.5 157.5,-76.5"/>
<text text-anchor="middle" x="209" y="-83.5" font-family="Helvetica,sans-Serif" font-size="10.00">efd::NDIdRef::getId</text>
</a>
</g>
</g>
<!-- Node36&#45;&gt;Node37 -->
<g id="edge1" class="edge"><title>Node36&#45;&gt;Node37</title>
<path fill="none" stroke="midnightblue" d="M96.2252,-57.589C115.776,-62.5583 139.847,-68.6767 160.637,-73.9613"/>
<polygon fill="midnightblue" stroke="midnightblue" points="159.992,-77.4085 170.546,-76.4799 161.717,-70.6243 159.992,-77.4085"/>
</g>
<!-- Node39 -->
<g id="node4" class="node"><title>Node39</title>
<g id="a_node4"><a xlink:href="../../d8/dd2/classefd_1_1NDIdRef.xhtml#ab2b468c0bd46cbfdcc01ceea43f5f49d" target="_top" xlink:title="Gets an integer representing the position. ">
<polygon fill="none" stroke="black" points="158,-38.5 158,-57.5 260,-57.5 260,-38.5 158,-38.5"/>
<text text-anchor="middle" x="209" y="-45.5" font-family="Helvetica,sans-Serif" font-size="10.00">efd::NDIdRef::getN</text>
</a>
</g>
</g>
<!-- Node36&#45;&gt;Node39 -->
<g id="edge3" class="edge"><title>Node36&#45;&gt;Node39</title>
<path fill="none" stroke="midnightblue" d="M115.02,-48C125.672,-48 136.85,-48 147.616,-48"/>
<polygon fill="midnightblue" stroke="midnightblue" points="147.78,-51.5001 157.78,-48 147.78,-44.5001 147.78,-51.5001"/>
</g>
<!-- Node40 -->
<g id="node5" class="node"><title>Node40</title>
<g id="a_node5"><a xlink:href="../../df/d1b/classefd_1_1NDValue.xhtml#a9ded6b0d00e7ea4d748be60c5cc3632b" target="_top" xlink:title="Returns a std::string representation of this Node and its childrem. ">
<polygon fill="none" stroke="black" points="151,-0.5 151,-19.5 267,-19.5 267,-0.5 151,-0.5"/>
<text text-anchor="middle" x="209" y="-7.5" font-family="Helvetica,sans-Serif" font-size="10.00">efd::NDValue::toString</text>
</a>
</g>
</g>
<!-- Node36&#45;&gt;Node40 -->
<g id="edge5" class="edge"><title>Node36&#45;&gt;Node40</title>
<path fill="none" stroke="midnightblue" d="M96.2252,-38.411C115.776,-33.4417 139.847,-27.3233 160.637,-22.0387"/>
<polygon fill="midnightblue" stroke="midnightblue" points="161.717,-25.3757 170.546,-19.5201 159.992,-18.5915 161.717,-25.3757"/>
</g>
<!-- Node38 -->
<g id="node3" class="node"><title>Node38</title>
<g id="a_node3"><a xlink:href="../../d4/deb/namespaceefd.xhtml#a2cef687225e13315fc282dc40b5a6909" target="_top" xlink:title="Returns src cast to TargetTy, iff it is of class TargetTy, otherwise it will return nullptr...">
<polygon fill="none" stroke="black" points="303,-57.5 303,-76.5 376,-76.5 376,-57.5 303,-57.5"/>
<text text-anchor="middle" x="339.5" y="-64.5" font-family="Helvetica,sans-Serif" font-size="10.00">efd::dynCast</text>
</a>
</g>
</g>
<!-- Node37&#45;&gt;Node38 -->
<g id="edge2" class="edge"><title>Node37&#45;&gt;Node38</title>
<path fill="none" stroke="midnightblue" d="M260.787,-78.4907C271.309,-76.9348 282.337,-75.3043 292.67,-73.7765"/>
<polygon fill="midnightblue" stroke="midnightblue" points="293.346,-77.2145 302.727,-72.2894 292.323,-70.2898 293.346,-77.2145"/>
</g>
<!-- Node39&#45;&gt;Node38 -->
<g id="edge4" class="edge"><title>Node39&#45;&gt;Node38</title>
<path fill="none" stroke="midnightblue" d="M260.049,-55.4003C270.837,-56.9953 282.186,-58.6735 292.798,-60.2425"/>
<polygon fill="midnightblue" stroke="midnightblue" points="292.298,-63.7066 302.703,-61.707 293.322,-56.7819 292.298,-63.7066"/>
</g>
</g>
</svg>
