<?xml version="1.0" encoding="UTF-8" standalone="no"?>
<!DOCTYPE svg PUBLIC "-//W3C//DTD SVG 1.1//EN"
 "http://www.w3.org/Graphics/SVG/1.1/DTD/svg11.dtd">
<!-- Generated by graphviz version 2.38.0 (20140413.2041)
 -->
<!-- Title: efd::NDIdRef::Create Pages: 1 -->
<svg width="579pt" height="66pt"
 viewBox="0.00 0.00 579.00 66.00" xmlns="http://www.w3.org/2000/svg" xmlns:xlink="http://www.w3.org/1999/xlink">
<g id="graph0" class="graph" transform="scale(1 1) rotate(0) translate(4 62)">
<title>efd::NDIdRef::Create</title>
<!-- Node20 -->
<g id="node1" class="node"><title>Node20</title>
<polygon fill="#bfbfbf" stroke="black" points="0,-19.5 0,-38.5 110,-38.5 110,-19.5 0,-19.5"/>
<text text-anchor="middle" x="55" y="-26.5" font-family="Helvetica,sans-Serif" font-size="10.00">efd::NDIdRef::Create</text>
</g>
<!-- Node21 -->
<g id="node2" class="node"><title>Node21</title>
<g id="a_node2"><a xlink:href="../../d8/dd2/classefd_1_1NDIdRef.xhtml#a18d042bd5764dee3b3e15c79017f78ba" target="_top" xlink:title="efd::NDIdRef::NDIdRef">
<polygon fill="none" stroke="black" points="146,-19.5 146,-38.5 266,-38.5 266,-19.5 146,-19.5"/>
<text text-anchor="middle" x="206" y="-26.5" font-family="Helvetica,sans-Serif" font-size="10.00">efd::NDIdRef::NDIdRef</text>
</a>
</g>
</g>
<!-- Node20&#45;&gt;Node21 -->
<g id="edge1" class="edge"><title>Node20&#45;&gt;Node21</title>
<path fill="none" stroke="midnightblue" d="M110.214,-29C118.527,-29 127.205,-29 135.789,-29"/>
<polygon fill="midnightblue" stroke="midnightblue" points="135.794,-32.5001 145.794,-29 135.794,-25.5001 135.794,-32.5001"/>
</g>
<!-- Node22 -->
<g id="node3" class="node"><title>Node22</title>
<g id="a_node3"><a xlink:href="../../d6/d6a/classefd_1_1Node.xhtml#a8ac8c3206c6f6817a8c8e515ac830f61" target="_top" xlink:title="Adds a child to this node. It should be used only for construction of each derived class...">
<polygon fill="none" stroke="black" points="302,-38.5 302,-57.5 428,-57.5 428,-38.5 302,-38.5"/>
<text text-anchor="middle" x="365" y="-45.5" font-family="Helvetica,sans-Serif" font-size="10.00">efd::Node::innerAddChild</text>
</a>
</g>
</g>
<!-- Node21&#45;&gt;Node22 -->
<g id="edge2" class="edge"><title>Node21&#45;&gt;Node22</title>
<path fill="none" stroke="midnightblue" d="M266.355,-36.1831C274.718,-37.1952 283.39,-38.2447 291.959,-39.2817"/>
<polygon fill="midnightblue" stroke="midnightblue" points="291.598,-42.7634 301.946,-40.4903 292.439,-35.8141 291.598,-42.7634"/>
</g>
<!-- Node24 -->
<g id="node5" class="node"><title>Node24</title>
<g id="a_node5"><a xlink:href="../../d6/d6a/classefd_1_1Node.xhtml#a09ac8cdf7898a3d17293d92ae956eece" target="_top" xlink:title="Constructs the node, initially empty (with no information). ">
<polygon fill="none" stroke="black" points="320.5,-0.5 320.5,-19.5 409.5,-19.5 409.5,-0.5 320.5,-0.5"/>
<text text-anchor="middle" x="365" y="-7.5" font-family="Helvetica,sans-Serif" font-size="10.00">efd::Node::Node</text>
</a>
</g>
</g>
<!-- Node21&#45;&gt;Node24 -->
<g id="edge4" class="edge"><title>Node21&#45;&gt;Node24</title>
<path fill="none" stroke="midnightblue" d="M266.355,-21.8169C280.749,-20.0749 296.058,-18.2223 310.181,-16.5132"/>
<polygon fill="midnightblue" stroke="midnightblue" points="310.717,-19.9738 320.224,-15.2977 309.876,-13.0246 310.717,-19.9738"/>
</g>
<!-- Node23 -->
<g id="node4" class="node"><title>Node23</title>
<g id="a_node4"><a xlink:href="../../d6/d6a/classefd_1_1Node.xhtml#a48e9d49d994b9023b8400316e2782e2b" target="_top" xlink:title="Sets the parent node of the current node. ">
<polygon fill="none" stroke="black" points="464,-38.5 464,-57.5 571,-57.5 571,-38.5 464,-38.5"/>
<text text-anchor="middle" x="517.5" y="-45.5" font-family="Helvetica,sans-Serif" font-size="10.00">efd::Node::setParent</text>
</a>
</g>
</g>
<!-- Node22&#45;&gt;Node23 -->
<g id="edge3" class="edge"><title>Node22&#45;&gt;Node23</title>
<path fill="none" stroke="midnightblue" d="M428.083,-48C436.488,-48 445.118,-48 453.538,-48"/>
<polygon fill="midnightblue" stroke="midnightblue" points="453.674,-51.5001 463.674,-48 453.674,-44.5001 453.674,-51.5001"/>
</g>
</g>
</svg>
