<?xml version="1.0" encoding="UTF-8" standalone="no"?>
<!DOCTYPE svg PUBLIC "-//W3C//DTD SVG 1.1//EN"
 "http://www.w3.org/Graphics/SVG/1.1/DTD/svg11.dtd">
<!-- Generated by graphviz version 2.38.0 (20140413.2041)
 -->
<!-- Title: efd::NDIdRef::cloneImpl Pages: 1 -->
<svg width="749pt" height="180pt"
 viewBox="0.00 0.00 749.00 180.00" xmlns="http://www.w3.org/2000/svg" xmlns:xlink="http://www.w3.org/1999/xlink">
<g id="graph0" class="graph" transform="scale(1 1) rotate(0) translate(4 176)">
<title>efd::NDIdRef::cloneImpl</title>
<!-- Node8 -->
<g id="node1" class="node"><title>Node8</title>
<polygon fill="#bfbfbf" stroke="black" points="0,-76.5 0,-95.5 123,-95.5 123,-76.5 0,-76.5"/>
<text text-anchor="middle" x="61.5" y="-83.5" font-family="Helvetica,sans-Serif" font-size="10.00">efd::NDIdRef::cloneImpl</text>
</g>
<!-- Node9 -->
<g id="node2" class="node"><title>Node9</title>
<g id="a_node2"><a xlink:href="../../d6/d6a/classefd_1_1Node.xhtml#a6c85c9bd21014b73497de741cc75f706" target="_top" xlink:title="Clones the current node (deep copy). ">
<polygon fill="none" stroke="black" points="175,-152.5 175,-171.5 264,-171.5 264,-152.5 175,-152.5"/>
<text text-anchor="middle" x="219.5" y="-159.5" font-family="Helvetica,sans-Serif" font-size="10.00">efd::Node::clone</text>
</a>
</g>
</g>
<!-- Node8&#45;&gt;Node9 -->
<g id="edge1" class="edge"><title>Node8&#45;&gt;Node9</title>
<path fill="none" stroke="midnightblue" d="M76.3502,-95.5363C94.6267,-107.797 128.104,-129.154 159,-143 163.948,-145.217 169.233,-147.293 174.534,-149.199"/>
<polygon fill="midnightblue" stroke="midnightblue" points="173.431,-152.52 184.025,-152.437 175.691,-145.895 173.431,-152.52"/>
</g>
<!-- Node11 -->
<g id="node4" class="node"><title>Node11</title>
<g id="a_node4"><a xlink:href="../../d8/dd2/classefd_1_1NDIdRef.xhtml#a9407354bbb835d0daffbeb30cafc1076" target="_top" xlink:title="Creates a new instance of this node. ">
<polygon fill="none" stroke="black" points="164.5,-114.5 164.5,-133.5 274.5,-133.5 274.5,-114.5 164.5,-114.5"/>
<text text-anchor="middle" x="219.5" y="-121.5" font-family="Helvetica,sans-Serif" font-size="10.00">efd::NDIdRef::Create</text>
</a>
</g>
</g>
<!-- Node8&#45;&gt;Node11 -->
<g id="edge3" class="edge"><title>Node8&#45;&gt;Node11</title>
<path fill="none" stroke="midnightblue" d="M101.865,-95.589C122.451,-100.604 147.84,-106.788 169.669,-112.105"/>
<polygon fill="midnightblue" stroke="midnightblue" points="168.873,-115.514 179.418,-114.48 170.53,-108.713 168.873,-115.514"/>
</g>
<!-- Node16 -->
<g id="node9" class="node"><title>Node16</title>
<g id="a_node9"><a xlink:href="../../d8/dd2/classefd_1_1NDIdRef.xhtml#aee4047da725c610abf28c2558ff5012f" target="_top" xlink:title="Gets the id. ">
<polygon fill="none" stroke="black" points="168,-76.5 168,-95.5 271,-95.5 271,-76.5 168,-76.5"/>
<text text-anchor="middle" x="219.5" y="-83.5" font-family="Helvetica,sans-Serif" font-size="10.00">efd::NDIdRef::getId</text>
</a>
</g>
</g>
<!-- Node8&#45;&gt;Node16 -->
<g id="edge8" class="edge"><title>Node8&#45;&gt;Node16</title>
<path fill="none" stroke="midnightblue" d="M123.26,-86C134.526,-86 146.297,-86 157.569,-86"/>
<polygon fill="midnightblue" stroke="midnightblue" points="157.75,-89.5001 167.75,-86 157.75,-82.5001 157.75,-89.5001"/>
</g>
<!-- Node18 -->
<g id="node11" class="node"><title>Node18</title>
<g id="a_node11"><a xlink:href="../../d8/dd2/classefd_1_1NDIdRef.xhtml#ab2b468c0bd46cbfdcc01ceea43f5f49d" target="_top" xlink:title="Gets an integer representing the position. ">
<polygon fill="none" stroke="black" points="168.5,-38.5 168.5,-57.5 270.5,-57.5 270.5,-38.5 168.5,-38.5"/>
<text text-anchor="middle" x="219.5" y="-45.5" font-family="Helvetica,sans-Serif" font-size="10.00">efd::NDIdRef::getN</text>
</a>
</g>
</g>
<!-- Node8&#45;&gt;Node18 -->
<g id="edge10" class="edge"><title>Node8&#45;&gt;Node18</title>
<path fill="none" stroke="midnightblue" d="M101.865,-76.411C122.451,-71.3965 147.84,-65.2119 169.669,-59.8947"/>
<polygon fill="midnightblue" stroke="midnightblue" points="170.53,-63.2874 179.418,-57.5201 168.873,-56.4863 170.53,-63.2874"/>
</g>
<!-- Node19 -->
<g id="node12" class="node"><title>Node19</title>
<g id="a_node12"><a xlink:href="../../d4/deb/namespaceefd.xhtml#ad7adca0e4de58074aa3f91827469a491" target="_top" xlink:title="Uses the RTTI framework to cast forwardly an unique_ptr. ">
<polygon fill="none" stroke="black" points="159,-0.5 159,-19.5 280,-19.5 280,-0.5 159,-0.5"/>
<text text-anchor="middle" x="219.5" y="-7.5" font-family="Helvetica,sans-Serif" font-size="10.00">efd::uniqueCastForward</text>
</a>
</g>
</g>
<!-- Node8&#45;&gt;Node19 -->
<g id="edge12" class="edge"><title>Node8&#45;&gt;Node19</title>
<path fill="none" stroke="midnightblue" d="M76.3502,-76.4637C94.6267,-64.2027 128.104,-42.846 159,-29 163.948,-26.7827 169.233,-24.7067 174.534,-22.8014"/>
<polygon fill="midnightblue" stroke="midnightblue" points="175.691,-26.1047 184.025,-19.5627 173.431,-19.4798 175.691,-26.1047"/>
</g>
<!-- Node10 -->
<g id="node3" class="node"><title>Node10</title>
<g id="a_node3"><a xlink:href="../../d6/d6a/classefd_1_1Node.xhtml#ac078ce64eb404cfdc24b9288908536e4" target="_top" xlink:title="Clones the current node (deep copy). ">
<polygon fill="none" stroke="black" points="322.5,-152.5 322.5,-171.5 429.5,-171.5 429.5,-152.5 322.5,-152.5"/>
<text text-anchor="middle" x="376" y="-159.5" font-family="Helvetica,sans-Serif" font-size="10.00">efd::Node::cloneImpl</text>
</a>
</g>
</g>
<!-- Node9&#45;&gt;Node10 -->
<g id="edge2" class="edge"><title>Node9&#45;&gt;Node10</title>
<path fill="none" stroke="midnightblue" d="M264.36,-162C279.143,-162 295.946,-162 311.913,-162"/>
<polygon fill="midnightblue" stroke="midnightblue" points="312.255,-165.5 322.255,-162 312.255,-158.5 312.255,-165.5"/>
</g>
<!-- Node12 -->
<g id="node5" class="node"><title>Node12</title>
<g id="a_node5"><a xlink:href="../../d8/dd2/classefd_1_1NDIdRef.xhtml#a18d042bd5764dee3b3e15c79017f78ba" target="_top" xlink:title="efd::NDIdRef::NDIdRef">
<polygon fill="none" stroke="black" points="316,-114.5 316,-133.5 436,-133.5 436,-114.5 316,-114.5"/>
<text text-anchor="middle" x="376" y="-121.5" font-family="Helvetica,sans-Serif" font-size="10.00">efd::NDIdRef::NDIdRef</text>
</a>
</g>
</g>
<!-- Node11&#45;&gt;Node12 -->
<g id="edge4" class="edge"><title>Node11&#45;&gt;Node12</title>
<path fill="none" stroke="midnightblue" d="M274.537,-124C284.692,-124 295.437,-124 305.976,-124"/>
<polygon fill="midnightblue" stroke="midnightblue" points="305.991,-127.5 315.991,-124 305.991,-120.5 305.991,-127.5"/>
</g>
<!-- Node13 -->
<g id="node6" class="node"><title>Node13</title>
<g id="a_node6"><a xlink:href="../../d6/d6a/classefd_1_1Node.xhtml#a8ac8c3206c6f6817a8c8e515ac830f61" target="_top" xlink:title="Adds a child to this node. It should be used only for construction of each derived class...">
<polygon fill="none" stroke="black" points="472,-133.5 472,-152.5 598,-152.5 598,-133.5 472,-133.5"/>
<text text-anchor="middle" x="535" y="-140.5" font-family="Helvetica,sans-Serif" font-size="10.00">efd::Node::innerAddChild</text>
</a>
</g>
</g>
<!-- Node12&#45;&gt;Node13 -->
<g id="edge5" class="edge"><title>Node12&#45;&gt;Node13</title>
<path fill="none" stroke="midnightblue" d="M436.355,-131.183C444.718,-132.195 453.39,-133.245 461.959,-134.282"/>
<polygon fill="midnightblue" stroke="midnightblue" points="461.598,-137.763 471.946,-135.49 462.439,-130.814 461.598,-137.763"/>
</g>
<!-- Node15 -->
<g id="node8" class="node"><title>Node15</title>
<g id="a_node8"><a xlink:href="../../d6/d6a/classefd_1_1Node.xhtml#a09ac8cdf7898a3d17293d92ae956eece" target="_top" xlink:title="Constructs the node, initially empty (with no information). ">
<polygon fill="none" stroke="black" points="490.5,-95.5 490.5,-114.5 579.5,-114.5 579.5,-95.5 490.5,-95.5"/>
<text text-anchor="middle" x="535" y="-102.5" font-family="Helvetica,sans-Serif" font-size="10.00">efd::Node::Node</text>
</a>
</g>
</g>
<!-- Node12&#45;&gt;Node15 -->
<g id="edge7" class="edge"><title>Node12&#45;&gt;Node15</title>
<path fill="none" stroke="midnightblue" d="M436.355,-116.817C450.749,-115.075 466.058,-113.222 480.181,-111.513"/>
<polygon fill="midnightblue" stroke="midnightblue" points="480.717,-114.974 490.224,-110.298 479.876,-108.025 480.717,-114.974"/>
</g>
<!-- Node14 -->
<g id="node7" class="node"><title>Node14</title>
<g id="a_node7"><a xlink:href="../../d6/d6a/classefd_1_1Node.xhtml#a48e9d49d994b9023b8400316e2782e2b" target="_top" xlink:title="Sets the parent node of the current node. ">
<polygon fill="none" stroke="black" points="634,-133.5 634,-152.5 741,-152.5 741,-133.5 634,-133.5"/>
<text text-anchor="middle" x="687.5" y="-140.5" font-family="Helvetica,sans-Serif" font-size="10.00">efd::Node::setParent</text>
</a>
</g>
</g>
<!-- Node13&#45;&gt;Node14 -->
<g id="edge6" class="edge"><title>Node13&#45;&gt;Node14</title>
<path fill="none" stroke="midnightblue" d="M598.083,-143C606.488,-143 615.118,-143 623.538,-143"/>
<polygon fill="midnightblue" stroke="midnightblue" points="623.674,-146.5 633.674,-143 623.674,-139.5 623.674,-146.5"/>
</g>
<!-- Node17 -->
<g id="node10" class="node"><title>Node17</title>
<g id="a_node10"><a xlink:href="../../d4/deb/namespaceefd.xhtml#a2cef687225e13315fc282dc40b5a6909" target="_top" xlink:title="Returns src cast to TargetTy, iff it is of class TargetTy, otherwise it will return nullptr...">
<polygon fill="none" stroke="black" points="339.5,-57.5 339.5,-76.5 412.5,-76.5 412.5,-57.5 339.5,-57.5"/>
<text text-anchor="middle" x="376" y="-64.5" font-family="Helvetica,sans-Serif" font-size="10.00">efd::dynCast</text>
</a>
</g>
</g>
<!-- Node16&#45;&gt;Node17 -->
<g id="edge9" class="edge"><title>Node16&#45;&gt;Node17</title>
<path fill="none" stroke="midnightblue" d="M271.089,-79.7787C289.862,-77.47 311.03,-74.8668 329.338,-72.6154"/>
<polygon fill="midnightblue" stroke="midnightblue" points="329.966,-76.0647 339.464,-71.3702 329.111,-69.117 329.966,-76.0647"/>
</g>
<!-- Node18&#45;&gt;Node17 -->
<g id="edge11" class="edge"><title>Node18&#45;&gt;Node17</title>
<path fill="none" stroke="midnightblue" d="M270.662,-54.1688C289.458,-56.4802 310.703,-59.093 329.095,-61.3547"/>
<polygon fill="midnightblue" stroke="midnightblue" points="328.916,-64.8589 339.268,-62.6058 329.77,-57.9113 328.916,-64.8589"/>
</g>
</g>
</svg>
