<?xml version="1.0" encoding="UTF-8" standalone="no"?>
<!DOCTYPE svg PUBLIC "-//W3C//DTD SVG 1.1//EN"
 "http://www.w3.org/Graphics/SVG/1.1/DTD/svg11.dtd">
<!-- Generated by graphviz version 2.38.0 (20140413.2041)
 -->
<!-- Title: efd::NDIdRef::NDIdRef Pages: 1 -->
<svg width="433pt" height="66pt"
 viewBox="0.00 0.00 433.00 66.00" xmlns="http://www.w3.org/2000/svg" xmlns:xlink="http://www.w3.org/1999/xlink">
<g id="graph0" class="graph" transform="scale(1 1) rotate(0) translate(4 62)">
<title>efd::NDIdRef::NDIdRef</title>
<!-- Node0 -->
<g id="node1" class="node"><title>Node0</title>
<polygon fill="#bfbfbf" stroke="black" points="0,-19.5 0,-38.5 120,-38.5 120,-19.5 0,-19.5"/>
<text text-anchor="middle" x="60" y="-26.5" font-family="Helvetica,sans-Serif" font-size="10.00">efd::NDIdRef::NDIdRef</text>
</g>
<!-- Node1 -->
<g id="node2" class="node"><title>Node1</title>
<g id="a_node2"><a xlink:href="../../d6/d6a/classefd_1_1Node.xhtml#a8ac8c3206c6f6817a8c8e515ac830f61" target="_top" xlink:title="Adds a child to this node. It should be used only for construction of each derived class...">
<polygon fill="none" stroke="black" points="156,-38.5 156,-57.5 282,-57.5 282,-38.5 156,-38.5"/>
<text text-anchor="middle" x="219" y="-45.5" font-family="Helvetica,sans-Serif" font-size="10.00">efd::Node::innerAddChild</text>
</a>
</g>
</g>
<!-- Node0&#45;&gt;Node1 -->
<g id="edge1" class="edge"><title>Node0&#45;&gt;Node1</title>
<path fill="none" stroke="midnightblue" d="M120.355,-36.1831C128.718,-37.1952 137.39,-38.2447 145.959,-39.2817"/>
<polygon fill="midnightblue" stroke="midnightblue" points="145.598,-42.7634 155.946,-40.4903 146.439,-35.8141 145.598,-42.7634"/>
</g>
<!-- Node3 -->
<g id="node4" class="node"><title>Node3</title>
<g id="a_node4"><a xlink:href="../../d6/d6a/classefd_1_1Node.xhtml#a09ac8cdf7898a3d17293d92ae956eece" target="_top" xlink:title="Constructs the node, initially empty (with no information). ">
<polygon fill="none" stroke="black" points="174.5,-0.5 174.5,-19.5 263.5,-19.5 263.5,-0.5 174.5,-0.5"/>
<text text-anchor="middle" x="219" y="-7.5" font-family="Helvetica,sans-Serif" font-size="10.00">efd::Node::Node</text>
</a>
</g>
</g>
<!-- Node0&#45;&gt;Node3 -->
<g id="edge3" class="edge"><title>Node0&#45;&gt;Node3</title>
<path fill="none" stroke="midnightblue" d="M120.355,-21.8169C134.749,-20.0749 150.058,-18.2223 164.181,-16.5132"/>
<polygon fill="midnightblue" stroke="midnightblue" points="164.717,-19.9738 174.224,-15.2977 163.876,-13.0246 164.717,-19.9738"/>
</g>
<!-- Node2 -->
<g id="node3" class="node"><title>Node2</title>
<g id="a_node3"><a xlink:href="../../d6/d6a/classefd_1_1Node.xhtml#a48e9d49d994b9023b8400316e2782e2b" target="_top" xlink:title="Sets the parent node of the current node. ">
<polygon fill="none" stroke="black" points="318,-38.5 318,-57.5 425,-57.5 425,-38.5 318,-38.5"/>
<text text-anchor="middle" x="371.5" y="-45.5" font-family="Helvetica,sans-Serif" font-size="10.00">efd::Node::setParent</text>
</a>
</g>
</g>
<!-- Node1&#45;&gt;Node2 -->
<g id="edge2" class="edge"><title>Node1&#45;&gt;Node2</title>
<path fill="none" stroke="midnightblue" d="M282.083,-48C290.488,-48 299.118,-48 307.538,-48"/>
<polygon fill="midnightblue" stroke="midnightblue" points="307.674,-51.5001 317.674,-48 307.674,-44.5001 307.674,-51.5001"/>
</g>
</g>
</svg>
