<?xml version="1.0" encoding="UTF-8" standalone="no"?>
<!DOCTYPE svg PUBLIC "-//W3C//DTD SVG 1.1//EN"
 "http://www.w3.org/Graphics/SVG/1.1/DTD/svg11.dtd">
<!-- Generated by graphviz version 2.38.0 (20140413.2041)
 -->
<!-- Title: efd::NDValue::cloneImpl Pages: 1 -->
<svg width="279pt" height="66pt"
 viewBox="0.00 0.00 279.00 66.00" xmlns="http://www.w3.org/2000/svg" xmlns:xlink="http://www.w3.org/1999/xlink">
<g id="graph0" class="graph" transform="scale(1 1) rotate(0) translate(4 62)">
<title>efd::NDValue::cloneImpl</title>
<!-- Node31 -->
<g id="node1" class="node"><title>Node31</title>
<polygon fill="#bfbfbf" stroke="black" points="0,-19.5 0,-38.5 124,-38.5 124,-19.5 0,-19.5"/>
<text text-anchor="middle" x="62" y="-26.5" font-family="Helvetica,sans-Serif" font-size="10.00">efd::NDValue::cloneImpl</text>
</g>
<!-- Node32 -->
<g id="node2" class="node"><title>Node32</title>
<g id="a_node2"><a xlink:href="../../df/d1b/classefd_1_1NDValue.xhtml#a96ab9dcd008523aa2f4cfc2eb95d7178" target="_top" xlink:title="Creates a new instance of this node. ">
<polygon fill="none" stroke="black" points="160,-38.5 160,-57.5 271,-57.5 271,-38.5 160,-38.5"/>
<text text-anchor="middle" x="215.5" y="-45.5" font-family="Helvetica,sans-Serif" font-size="10.00">efd::NDValue::Create</text>
</a>
</g>
</g>
<!-- Node31&#45;&gt;Node32 -->
<g id="edge1" class="edge"><title>Node31&#45;&gt;Node32</title>
<path fill="none" stroke="midnightblue" d="M124.184,-36.6733C132.684,-37.7392 141.438,-38.8371 149.996,-39.9104"/>
<polygon fill="midnightblue" stroke="midnightblue" points="149.568,-43.384 159.925,-41.1557 150.439,-36.4384 149.568,-43.384"/>
</g>
<!-- Node33 -->
<g id="node3" class="node"><title>Node33</title>
<g id="a_node3"><a xlink:href="../../df/d1b/classefd_1_1NDValue.xhtml#a53ee724a8db3429bf30bb1936ad548b2" target="_top" xlink:title="Returns a copy to the setted value. ">
<polygon fill="none" stroke="black" points="160.5,-0.5 160.5,-19.5 270.5,-19.5 270.5,-0.5 160.5,-0.5"/>
<text text-anchor="middle" x="215.5" y="-7.5" font-family="Helvetica,sans-Serif" font-size="10.00">efd::NDValue::getVal</text>
</a>
</g>
</g>
<!-- Node31&#45;&gt;Node33 -->
<g id="edge2" class="edge"><title>Node31&#45;&gt;Node33</title>
<path fill="none" stroke="midnightblue" d="M124.184,-21.3267C132.802,-20.246 141.681,-19.1324 150.352,-18.0449"/>
<polygon fill="midnightblue" stroke="midnightblue" points="150.922,-21.501 160.408,-16.7838 150.05,-14.5555 150.922,-21.501"/>
</g>
</g>
</svg>
