<?xml version="1.0" encoding="UTF-8" standalone="no"?>
<!DOCTYPE svg PUBLIC "-//W3C//DTD SVG 1.1//EN"
 "http://www.w3.org/Graphics/SVG/1.1/DTD/svg11.dtd">
<!-- Generated by graphviz version 2.38.0 (20140413.2041)
 -->
<!-- Title: efd::CircuitGraph::append Pages: 1 -->
<svg width="242pt" height="78pt"
 viewBox="0.00 0.00 242.00 77.50" xmlns="http://www.w3.org/2000/svg" xmlns:xlink="http://www.w3.org/1999/xlink">
<g id="graph0" class="graph" transform="scale(1 1) rotate(0) translate(4 73.5)">
<title>efd::CircuitGraph::append</title>
<!-- Node3 -->
<g id="node1" class="node"><title>Node3</title>
<polygon fill="#bfbfbf" stroke="black" points="0,-17 0,-47 97,-47 97,-17 0,-17"/>
<text text-anchor="start" x="8" y="-35" font-family="Helvetica,sans-Serif" font-size="10.00">efd::CircuitGraph::</text>
<text text-anchor="middle" x="48.5" y="-24" font-family="Helvetica,sans-Serif" font-size="10.00">append</text>
</g>
<!-- Node4 -->
<g id="node2" class="node"><title>Node4</title>
<g id="a_node2"><a xlink:href="../../d0/d54/classefd_1_1CircuitGraph.xhtml#a3b7cd29688c62411a7e561599a1dcbcb" target="_top" xlink:title="Checks if the CircuitGraph is initialized. Exits with error if not. ">
<polygon fill="none" stroke="black" points="135,-39 135,-69 232,-69 232,-39 135,-39"/>
<text text-anchor="start" x="143" y="-57" font-family="Helvetica,sans-Serif" font-size="10.00">efd::CircuitGraph::</text>
<text text-anchor="middle" x="183.5" y="-46" font-family="Helvetica,sans-Serif" font-size="10.00">checkInitialized</text>
</a>
</g>
</g>
<!-- Node3&#45;&gt;Node4 -->
<g id="edge1" class="edge"><title>Node3&#45;&gt;Node4</title>
<path fill="none" stroke="midnightblue" d="M97.1404,-39.8804C106.117,-41.3653 115.594,-42.9329 124.839,-44.4621"/>
<polygon fill="midnightblue" stroke="midnightblue" points="124.308,-47.9217 134.745,-46.1007 125.45,-41.0156 124.308,-47.9217"/>
</g>
<!-- Node5 -->
<g id="node3" class="node"><title>Node5</title>
<g id="a_node3"><a xlink:href="../../d9/d6b/classefd_1_1Xbit.xhtml#ad18f73714ed4aa4fe239a210280e7519" target="_top" xlink:title="Gets the real id for this bit. ">
<polygon fill="none" stroke="black" points="133,-0.5 133,-19.5 234,-19.5 234,-0.5 133,-0.5"/>
<text text-anchor="middle" x="183.5" y="-7.5" font-family="Helvetica,sans-Serif" font-size="10.00">efd::Xbit::getRealId</text>
</a>
</g>
</g>
<!-- Node3&#45;&gt;Node5 -->
<g id="edge2" class="edge"><title>Node3&#45;&gt;Node5</title>
<path fill="none" stroke="midnightblue" d="M97.1404,-24.1196C105.498,-22.7372 114.289,-21.2831 122.922,-19.855"/>
<polygon fill="midnightblue" stroke="midnightblue" points="123.654,-23.2815 132.949,-18.1964 122.512,-16.3753 123.654,-23.2815"/>
</g>
</g>
</svg>
