<?xml version="1.0" encoding="UTF-8" standalone="no"?>
<!DOCTYPE svg PUBLIC "-//W3C//DTD SVG 1.1//EN"
 "http://www.w3.org/Graphics/SVG/1.1/DTD/svg11.dtd">
<!-- Generated by graphviz version 2.38.0 (20140413.2041)
 -->
<!-- Title: efd::NDBinOp::CreateMul Pages: 1 -->
<svg width="753pt" height="66pt"
 viewBox="0.00 0.00 753.00 66.00" xmlns="http://www.w3.org/2000/svg" xmlns:xlink="http://www.w3.org/1999/xlink">
<g id="graph0" class="graph" transform="scale(1 1) rotate(0) translate(4 62)">
<title>efd::NDBinOp::CreateMul</title>
<!-- Node35 -->
<g id="node1" class="node"><title>Node35</title>
<polygon fill="#bfbfbf" stroke="black" points="0,-19.5 0,-38.5 129,-38.5 129,-19.5 0,-19.5"/>
<text text-anchor="middle" x="64.5" y="-26.5" font-family="Helvetica,sans-Serif" font-size="10.00">efd::NDBinOp::CreateMul</text>
</g>
<!-- Node36 -->
<g id="node2" class="node"><title>Node36</title>
<g id="a_node2"><a xlink:href="../../d8/df0/classefd_1_1NDBinOp.xhtml#ab7b3e5153777a8cbd64b201c8c9488e0" target="_top" xlink:title="Creates a new instance of this node. ">
<polygon fill="none" stroke="black" points="165,-19.5 165,-38.5 278,-38.5 278,-19.5 165,-19.5"/>
<text text-anchor="middle" x="221.5" y="-26.5" font-family="Helvetica,sans-Serif" font-size="10.00">efd::NDBinOp::Create</text>
</a>
</g>
</g>
<!-- Node35&#45;&gt;Node36 -->
<g id="edge1" class="edge"><title>Node35&#45;&gt;Node36</title>
<path fill="none" stroke="midnightblue" d="M129.439,-29C137.739,-29 146.254,-29 154.585,-29"/>
<polygon fill="midnightblue" stroke="midnightblue" points="154.63,-32.5001 164.63,-29 154.63,-25.5001 154.63,-32.5001"/>
</g>
<!-- Node37 -->
<g id="node3" class="node"><title>Node37</title>
<g id="a_node3"><a xlink:href="../../d8/df0/classefd_1_1NDBinOp.xhtml#a2e104ba9e32eba8e0cff96c9241a0b61" target="_top" xlink:title="efd::NDBinOp::NDBinOp">
<polygon fill="none" stroke="black" points="314,-19.5 314,-38.5 440,-38.5 440,-19.5 314,-19.5"/>
<text text-anchor="middle" x="377" y="-26.5" font-family="Helvetica,sans-Serif" font-size="10.00">efd::NDBinOp::NDBinOp</text>
</a>
</g>
</g>
<!-- Node36&#45;&gt;Node37 -->
<g id="edge2" class="edge"><title>Node36&#45;&gt;Node37</title>
<path fill="none" stroke="midnightblue" d="M278.351,-29C286.669,-29 295.341,-29 303.935,-29"/>
<polygon fill="midnightblue" stroke="midnightblue" points="303.961,-32.5001 313.961,-29 303.961,-25.5001 303.961,-32.5001"/>
</g>
<!-- Node38 -->
<g id="node4" class="node"><title>Node38</title>
<g id="a_node4"><a xlink:href="../../d6/d6a/classefd_1_1Node.xhtml#a8ac8c3206c6f6817a8c8e515ac830f61" target="_top" xlink:title="Adds a child to this node. It should be used only for construction of each derived class...">
<polygon fill="none" stroke="black" points="476,-38.5 476,-57.5 602,-57.5 602,-38.5 476,-38.5"/>
<text text-anchor="middle" x="539" y="-45.5" font-family="Helvetica,sans-Serif" font-size="10.00">efd::Node::innerAddChild</text>
</a>
</g>
</g>
<!-- Node37&#45;&gt;Node38 -->
<g id="edge3" class="edge"><title>Node37&#45;&gt;Node38</title>
<path fill="none" stroke="midnightblue" d="M440.318,-36.4003C448.706,-37.3964 457.367,-38.4248 465.907,-39.4389"/>
<polygon fill="midnightblue" stroke="midnightblue" points="465.509,-42.9162 475.852,-40.6199 466.334,-35.965 465.509,-42.9162"/>
</g>
<!-- Node40 -->
<g id="node6" class="node"><title>Node40</title>
<g id="a_node6"><a xlink:href="../../d6/d6a/classefd_1_1Node.xhtml#a09ac8cdf7898a3d17293d92ae956eece" target="_top" xlink:title="Constructs the node, initially empty (with no information). ">
<polygon fill="none" stroke="black" points="494.5,-0.5 494.5,-19.5 583.5,-19.5 583.5,-0.5 494.5,-0.5"/>
<text text-anchor="middle" x="539" y="-7.5" font-family="Helvetica,sans-Serif" font-size="10.00">efd::Node::Node</text>
</a>
</g>
</g>
<!-- Node37&#45;&gt;Node40 -->
<g id="edge5" class="edge"><title>Node37&#45;&gt;Node40</title>
<path fill="none" stroke="midnightblue" d="M440.318,-21.5997C454.863,-19.8725 470.229,-18.0478 484.36,-16.3698"/>
<polygon fill="midnightblue" stroke="midnightblue" points="484.884,-19.8322 494.402,-15.1773 484.059,-12.881 484.884,-19.8322"/>
</g>
<!-- Node39 -->
<g id="node5" class="node"><title>Node39</title>
<g id="a_node5"><a xlink:href="../../d6/d6a/classefd_1_1Node.xhtml#a48e9d49d994b9023b8400316e2782e2b" target="_top" xlink:title="Sets the parent node of the current node. ">
<polygon fill="none" stroke="black" points="638,-38.5 638,-57.5 745,-57.5 745,-38.5 638,-38.5"/>
<text text-anchor="middle" x="691.5" y="-45.5" font-family="Helvetica,sans-Serif" font-size="10.00">efd::Node::setParent</text>
</a>
</g>
</g>
<!-- Node38&#45;&gt;Node39 -->
<g id="edge4" class="edge"><title>Node38&#45;&gt;Node39</title>
<path fill="none" stroke="midnightblue" d="M602.083,-48C610.488,-48 619.118,-48 627.538,-48"/>
<polygon fill="midnightblue" stroke="midnightblue" points="627.674,-51.5001 637.674,-48 627.674,-44.5001 627.674,-51.5001"/>
</g>
</g>
</svg>
