<?xml version="1.0" encoding="UTF-8" standalone="no"?>
<!DOCTYPE svg PUBLIC "-//W3C//DTD SVG 1.1//EN"
 "http://www.w3.org/Graphics/SVG/1.1/DTD/svg11.dtd">
<!-- Generated by graphviz version 2.38.0 (20140413.2041)
 -->
<!-- Title: efd::NDBinOp::CreateDiv Pages: 1 -->
<svg width="752pt" height="66pt"
 viewBox="0.00 0.00 752.00 66.00" xmlns="http://www.w3.org/2000/svg" xmlns:xlink="http://www.w3.org/1999/xlink">
<g id="graph0" class="graph" transform="scale(1 1) rotate(0) translate(4 62)">
<title>efd::NDBinOp::CreateDiv</title>
<!-- Node29 -->
<g id="node1" class="node"><title>Node29</title>
<polygon fill="#bfbfbf" stroke="black" points="0,-19.5 0,-38.5 128,-38.5 128,-19.5 0,-19.5"/>
<text text-anchor="middle" x="64" y="-26.5" font-family="Helvetica,sans-Serif" font-size="10.00">efd::NDBinOp::CreateDiv</text>
</g>
<!-- Node30 -->
<g id="node2" class="node"><title>Node30</title>
<g id="a_node2"><a xlink:href="../../d8/df0/classefd_1_1NDBinOp.xhtml#ab7b3e5153777a8cbd64b201c8c9488e0" target="_top" xlink:title="Creates a new instance of this node. ">
<polygon fill="none" stroke="black" points="164,-19.5 164,-38.5 277,-38.5 277,-19.5 164,-19.5"/>
<text text-anchor="middle" x="220.5" y="-26.5" font-family="Helvetica,sans-Serif" font-size="10.00">efd::NDBinOp::Create</text>
</a>
</g>
</g>
<!-- Node29&#45;&gt;Node30 -->
<g id="edge1" class="edge"><title>Node29&#45;&gt;Node30</title>
<path fill="none" stroke="midnightblue" d="M128.287,-29C136.7,-29 145.341,-29 153.794,-29"/>
<polygon fill="midnightblue" stroke="midnightblue" points="153.983,-32.5001 163.983,-29 153.983,-25.5001 153.983,-32.5001"/>
</g>
<!-- Node31 -->
<g id="node3" class="node"><title>Node31</title>
<g id="a_node3"><a xlink:href="../../d8/df0/classefd_1_1NDBinOp.xhtml#a2e104ba9e32eba8e0cff96c9241a0b61" target="_top" xlink:title="efd::NDBinOp::NDBinOp">
<polygon fill="none" stroke="black" points="313,-19.5 313,-38.5 439,-38.5 439,-19.5 313,-19.5"/>
<text text-anchor="middle" x="376" y="-26.5" font-family="Helvetica,sans-Serif" font-size="10.00">efd::NDBinOp::NDBinOp</text>
</a>
</g>
</g>
<!-- Node30&#45;&gt;Node31 -->
<g id="edge2" class="edge"><title>Node30&#45;&gt;Node31</title>
<path fill="none" stroke="midnightblue" d="M277.351,-29C285.669,-29 294.341,-29 302.935,-29"/>
<polygon fill="midnightblue" stroke="midnightblue" points="302.961,-32.5001 312.961,-29 302.961,-25.5001 302.961,-32.5001"/>
</g>
<!-- Node32 -->
<g id="node4" class="node"><title>Node32</title>
<g id="a_node4"><a xlink:href="../../d6/d6a/classefd_1_1Node.xhtml#a8ac8c3206c6f6817a8c8e515ac830f61" target="_top" xlink:title="Adds a child to this node. It should be used only for construction of each derived class...">
<polygon fill="none" stroke="black" points="475,-38.5 475,-57.5 601,-57.5 601,-38.5 475,-38.5"/>
<text text-anchor="middle" x="538" y="-45.5" font-family="Helvetica,sans-Serif" font-size="10.00">efd::Node::innerAddChild</text>
</a>
</g>
</g>
<!-- Node31&#45;&gt;Node32 -->
<g id="edge3" class="edge"><title>Node31&#45;&gt;Node32</title>
<path fill="none" stroke="midnightblue" d="M439.318,-36.4003C447.706,-37.3964 456.367,-38.4248 464.907,-39.4389"/>
<polygon fill="midnightblue" stroke="midnightblue" points="464.509,-42.9162 474.852,-40.6199 465.334,-35.965 464.509,-42.9162"/>
</g>
<!-- Node34 -->
<g id="node6" class="node"><title>Node34</title>
<g id="a_node6"><a xlink:href="../../d6/d6a/classefd_1_1Node.xhtml#a09ac8cdf7898a3d17293d92ae956eece" target="_top" xlink:title="Constructs the node, initially empty (with no information). ">
<polygon fill="none" stroke="black" points="493.5,-0.5 493.5,-19.5 582.5,-19.5 582.5,-0.5 493.5,-0.5"/>
<text text-anchor="middle" x="538" y="-7.5" font-family="Helvetica,sans-Serif" font-size="10.00">efd::Node::Node</text>
</a>
</g>
</g>
<!-- Node31&#45;&gt;Node34 -->
<g id="edge5" class="edge"><title>Node31&#45;&gt;Node34</title>
<path fill="none" stroke="midnightblue" d="M439.318,-21.5997C453.863,-19.8725 469.229,-18.0478 483.36,-16.3698"/>
<polygon fill="midnightblue" stroke="midnightblue" points="483.884,-19.8322 493.402,-15.1773 483.059,-12.881 483.884,-19.8322"/>
</g>
<!-- Node33 -->
<g id="node5" class="node"><title>Node33</title>
<g id="a_node5"><a xlink:href="../../d6/d6a/classefd_1_1Node.xhtml#a48e9d49d994b9023b8400316e2782e2b" target="_top" xlink:title="Sets the parent node of the current node. ">
<polygon fill="none" stroke="black" points="637,-38.5 637,-57.5 744,-57.5 744,-38.5 637,-38.5"/>
<text text-anchor="middle" x="690.5" y="-45.5" font-family="Helvetica,sans-Serif" font-size="10.00">efd::Node::setParent</text>
</a>
</g>
</g>
<!-- Node32&#45;&gt;Node33 -->
<g id="edge4" class="edge"><title>Node32&#45;&gt;Node33</title>
<path fill="none" stroke="midnightblue" d="M601.083,-48C609.488,-48 618.118,-48 626.538,-48"/>
<polygon fill="midnightblue" stroke="midnightblue" points="626.674,-51.5001 636.674,-48 626.674,-44.5001 626.674,-51.5001"/>
</g>
</g>
</svg>
