<?xml version="1.0" encoding="UTF-8" standalone="no"?>
<!DOCTYPE svg PUBLIC "-//W3C//DTD SVG 1.1//EN"
 "http://www.w3.org/Graphics/SVG/1.1/DTD/svg11.dtd">
<!-- Generated by graphviz version 2.38.0 (20140413.2041)
 -->
<!-- Title: efd::NDBinOp::CreateSub Pages: 1 -->
<svg width="755pt" height="66pt"
 viewBox="0.00 0.00 755.00 66.00" xmlns="http://www.w3.org/2000/svg" xmlns:xlink="http://www.w3.org/1999/xlink">
<g id="graph0" class="graph" transform="scale(1 1) rotate(0) translate(4 62)">
<title>efd::NDBinOp::CreateSub</title>
<!-- Node47 -->
<g id="node1" class="node"><title>Node47</title>
<polygon fill="#bfbfbf" stroke="black" points="0,-19.5 0,-38.5 131,-38.5 131,-19.5 0,-19.5"/>
<text text-anchor="middle" x="65.5" y="-26.5" font-family="Helvetica,sans-Serif" font-size="10.00">efd::NDBinOp::CreateSub</text>
</g>
<!-- Node48 -->
<g id="node2" class="node"><title>Node48</title>
<g id="a_node2"><a xlink:href="../../d8/df0/classefd_1_1NDBinOp.xhtml#ab7b3e5153777a8cbd64b201c8c9488e0" target="_top" xlink:title="Creates a new instance of this node. ">
<polygon fill="none" stroke="black" points="167,-19.5 167,-38.5 280,-38.5 280,-19.5 167,-19.5"/>
<text text-anchor="middle" x="223.5" y="-26.5" font-family="Helvetica,sans-Serif" font-size="10.00">efd::NDBinOp::Create</text>
</a>
</g>
</g>
<!-- Node47&#45;&gt;Node48 -->
<g id="edge1" class="edge"><title>Node47&#45;&gt;Node48</title>
<path fill="none" stroke="midnightblue" d="M131.303,-29C139.635,-29 148.174,-29 156.524,-29"/>
<polygon fill="midnightblue" stroke="midnightblue" points="156.59,-32.5001 166.59,-29 156.59,-25.5001 156.59,-32.5001"/>
</g>
<!-- Node49 -->
<g id="node3" class="node"><title>Node49</title>
<g id="a_node3"><a xlink:href="../../d8/df0/classefd_1_1NDBinOp.xhtml#a2e104ba9e32eba8e0cff96c9241a0b61" target="_top" xlink:title="efd::NDBinOp::NDBinOp">
<polygon fill="none" stroke="black" points="316,-19.5 316,-38.5 442,-38.5 442,-19.5 316,-19.5"/>
<text text-anchor="middle" x="379" y="-26.5" font-family="Helvetica,sans-Serif" font-size="10.00">efd::NDBinOp::NDBinOp</text>
</a>
</g>
</g>
<!-- Node48&#45;&gt;Node49 -->
<g id="edge2" class="edge"><title>Node48&#45;&gt;Node49</title>
<path fill="none" stroke="midnightblue" d="M280.351,-29C288.669,-29 297.341,-29 305.935,-29"/>
<polygon fill="midnightblue" stroke="midnightblue" points="305.961,-32.5001 315.961,-29 305.961,-25.5001 305.961,-32.5001"/>
</g>
<!-- Node50 -->
<g id="node4" class="node"><title>Node50</title>
<g id="a_node4"><a xlink:href="../../d6/d6a/classefd_1_1Node.xhtml#a8ac8c3206c6f6817a8c8e515ac830f61" target="_top" xlink:title="Adds a child to this node. It should be used only for construction of each derived class...">
<polygon fill="none" stroke="black" points="478,-38.5 478,-57.5 604,-57.5 604,-38.5 478,-38.5"/>
<text text-anchor="middle" x="541" y="-45.5" font-family="Helvetica,sans-Serif" font-size="10.00">efd::Node::innerAddChild</text>
</a>
</g>
</g>
<!-- Node49&#45;&gt;Node50 -->
<g id="edge3" class="edge"><title>Node49&#45;&gt;Node50</title>
<path fill="none" stroke="midnightblue" d="M442.318,-36.4003C450.706,-37.3964 459.367,-38.4248 467.907,-39.4389"/>
<polygon fill="midnightblue" stroke="midnightblue" points="467.509,-42.9162 477.852,-40.6199 468.334,-35.965 467.509,-42.9162"/>
</g>
<!-- Node52 -->
<g id="node6" class="node"><title>Node52</title>
<g id="a_node6"><a xlink:href="../../d6/d6a/classefd_1_1Node.xhtml#a09ac8cdf7898a3d17293d92ae956eece" target="_top" xlink:title="Constructs the node, initially empty (with no information). ">
<polygon fill="none" stroke="black" points="496.5,-0.5 496.5,-19.5 585.5,-19.5 585.5,-0.5 496.5,-0.5"/>
<text text-anchor="middle" x="541" y="-7.5" font-family="Helvetica,sans-Serif" font-size="10.00">efd::Node::Node</text>
</a>
</g>
</g>
<!-- Node49&#45;&gt;Node52 -->
<g id="edge5" class="edge"><title>Node49&#45;&gt;Node52</title>
<path fill="none" stroke="midnightblue" d="M442.318,-21.5997C456.863,-19.8725 472.229,-18.0478 486.36,-16.3698"/>
<polygon fill="midnightblue" stroke="midnightblue" points="486.884,-19.8322 496.402,-15.1773 486.059,-12.881 486.884,-19.8322"/>
</g>
<!-- Node51 -->
<g id="node5" class="node"><title>Node51</title>
<g id="a_node5"><a xlink:href="../../d6/d6a/classefd_1_1Node.xhtml#a48e9d49d994b9023b8400316e2782e2b" target="_top" xlink:title="Sets the parent node of the current node. ">
<polygon fill="none" stroke="black" points="640,-38.5 640,-57.5 747,-57.5 747,-38.5 640,-38.5"/>
<text text-anchor="middle" x="693.5" y="-45.5" font-family="Helvetica,sans-Serif" font-size="10.00">efd::Node::setParent</text>
</a>
</g>
</g>
<!-- Node50&#45;&gt;Node51 -->
<g id="edge4" class="edge"><title>Node50&#45;&gt;Node51</title>
<path fill="none" stroke="midnightblue" d="M604.083,-48C612.488,-48 621.118,-48 629.538,-48"/>
<polygon fill="midnightblue" stroke="midnightblue" points="629.674,-51.5001 639.674,-48 629.674,-44.5001 629.674,-51.5001"/>
</g>
</g>
</svg>
