<?xml version="1.0" encoding="UTF-8" standalone="no"?>
<!DOCTYPE svg PUBLIC "-//W3C//DTD SVG 1.1//EN"
 "http://www.w3.org/Graphics/SVG/1.1/DTD/svg11.dtd">
<!-- Generated by graphviz version 2.38.0 (20140413.2041)
 -->
<!-- Title: efd::NDQOpMeasure Pages: 1 -->
<svg width="150pt" height="142pt"
 viewBox="0.00 0.00 150.00 142.00" xmlns="http://www.w3.org/2000/svg" xmlns:xlink="http://www.w3.org/1999/xlink">
<g id="graph0" class="graph" transform="scale(1 1) rotate(0) translate(4 138)">
<title>efd::NDQOpMeasure</title>
<!-- Node3 -->
<g id="node1" class="node"><title>Node3</title>
<polygon fill="#bfbfbf" stroke="black" points="0,-0.5 0,-19.5 109,-19.5 109,-0.5 0,-0.5"/>
<text text-anchor="middle" x="54.5" y="-7.5" font-family="Helvetica,sans-Serif" font-size="10.00">efd::NDQOpMeasure</text>
</g>
<!-- Node4 -->
<g id="node2" class="node"><title>Node4</title>
<g id="a_node2"><a xlink:href="../../dd/d94/classefd_1_1NDQOp.xhtml" target="_top" xlink:title="Generic node for quantum operations. This is also the base node for the other quantum gates...">
<polygon fill="none" stroke="black" points="19,-57.5 19,-76.5 90,-76.5 90,-57.5 19,-57.5"/>
<text text-anchor="middle" x="54.5" y="-64.5" font-family="Helvetica,sans-Serif" font-size="10.00">efd::NDQOp</text>
</a>
</g>
</g>
<!-- Node4&#45;&gt;Node3 -->
<g id="edge1" class="edge"><title>Node4&#45;&gt;Node3</title>
<path fill="none" stroke="midnightblue" d="M54.5,-47.1166C54.5,-37.8173 54.5,-27.0557 54.5,-19.7149"/>
<polygon fill="midnightblue" stroke="midnightblue" points="51.0001,-47.4062 54.5,-57.4062 58.0001,-47.4063 51.0001,-47.4062"/>
</g>
<!-- Node5 -->
<g id="node3" class="node"><title>Node5</title>
<g id="a_node3"><a xlink:href="../../d6/d6a/classefd_1_1Node.xhtml" target="_top" xlink:title="Base class for AST nodes. ">
<polygon fill="none" stroke="black" points="25,-114.5 25,-133.5 84,-133.5 84,-114.5 25,-114.5"/>
<text text-anchor="middle" x="54.5" y="-121.5" font-family="Helvetica,sans-Serif" font-size="10.00">efd::Node</text>
</a>
</g>
</g>
<!-- Node5&#45;&gt;Node4 -->
<g id="edge2" class="edge"><title>Node5&#45;&gt;Node4</title>
<path fill="none" stroke="midnightblue" d="M54.5,-104.117C54.5,-94.8173 54.5,-84.0557 54.5,-76.7149"/>
<polygon fill="midnightblue" stroke="midnightblue" points="51.0001,-104.406 54.5,-114.406 58.0001,-104.406 51.0001,-104.406"/>
</g>
<!-- Node5&#45;&gt;Node5 -->
<g id="edge3" class="edge"><title>Node5&#45;&gt;Node5</title>
<path fill="none" stroke="#9a32cd" stroke-dasharray="5,2" d="M94.1722,-128.512C98.9076,-127.691 102,-126.188 102,-124 102,-120.5 94.0833,-118.75 84.1875,-118.75"/>
<polygon fill="#9a32cd" stroke="#9a32cd" points="93.9022,-125.022 84.1875,-129.25 94.4184,-132.003 93.9022,-125.022"/>
<text text-anchor="middle" x="122" y="-121.5" font-family="Helvetica,sans-Serif" font-size="10.00"> mParent</text>
</g>
</g>
</svg>
