<?xml version="1.0" encoding="UTF-8" standalone="no"?>
<!DOCTYPE svg PUBLIC "-//W3C//DTD SVG 1.1//EN"
 "http://www.w3.org/Graphics/SVG/1.1/DTD/svg11.dtd">
<!-- Generated by graphviz version 2.40.1 (20161225.0304)
 -->
<!-- Title: include/enfield/Transform/Allocators/BMT/ImprovedBMTQAllocatorImpl.h Pages: 1 -->
<svg width="364pt" height="117pt"
 viewBox="0.00 0.00 364.00 117.00" xmlns="http://www.w3.org/2000/svg" xmlns:xlink="http://www.w3.org/1999/xlink">
<g id="graph0" class="graph" transform="scale(1 1) rotate(0) translate(4 113)">
<title>include/enfield/Transform/Allocators/BMT/ImprovedBMTQAllocatorImpl.h</title>
<!-- Node34 -->
<g id="node1" class="node">
<title>Node34</title>
<polygon fill="#bfbfbf" stroke="#000000" points="53,-67.5 53,-108.5 267,-108.5 267,-67.5 53,-67.5"/>
<text text-anchor="start" x="61" y="-96.5" font-family="Helvetica,sans-Serif" font-size="10.00" fill="#000000">include/enfield/Transform</text>
<text text-anchor="start" x="61" y="-85.5" font-family="Helvetica,sans-Serif" font-size="10.00" fill="#000000">/Allocators/BMT/ImprovedBMTQAllocator</text>
<text text-anchor="middle" x="160" y="-74.5" font-family="Helvetica,sans-Serif" font-size="10.00" fill="#000000">Impl.h</text>
</g>
<!-- Node35 -->
<g id="node2" class="node">
<title>Node35</title>
<g id="a_node2"><a xlink:href="../../dc/dea/Allocators_8cpp.xhtml" target="_top" xlink:title="lib/Transform/Allocators\l/Allocators.cpp">
<polygon fill="none" stroke="#000000" points="0,-.5 0,-30.5 134,-30.5 134,-.5 0,-.5"/>
<text text-anchor="start" x="8" y="-18.5" font-family="Helvetica,sans-Serif" font-size="10.00" fill="#000000">lib/Transform/Allocators</text>
<text text-anchor="middle" x="67" y="-7.5" font-family="Helvetica,sans-Serif" font-size="10.00" fill="#000000">/Allocators.cpp</text>
</a>
</g>
</g>
<!-- Node34&#45;&gt;Node35 -->
<g id="edge1" class="edge">
<title>Node34&#45;&gt;Node35</title>
<path fill="none" stroke="#191970" d="M125.58,-61.1672C112.3427,-50.8478 97.702,-39.4344 86.3685,-30.5991"/>
<polygon fill="#191970" stroke="#191970" points="123.5601,-64.0304 133.5987,-67.4183 127.8639,-58.5097 123.5601,-64.0304"/>
</g>
<!-- Node36 -->
<g id="node3" class="node">
<title>Node36</title>
<g id="a_node3"><a xlink:href="../../de/db6/ImprovedBMTQAllocatorImpl_8cpp.xhtml" target="_top" xlink:title="lib/Transform/Allocators\l/BMT/ImprovedBMTQAllocatorImpl.cpp">
<polygon fill="none" stroke="#000000" points="152,-.5 152,-30.5 356,-30.5 356,-.5 152,-.5"/>
<text text-anchor="start" x="160" y="-18.5" font-family="Helvetica,sans-Serif" font-size="10.00" fill="#000000">lib/Transform/Allocators</text>
<text text-anchor="middle" x="254" y="-7.5" font-family="Helvetica,sans-Serif" font-size="10.00" fill="#000000">/BMT/ImprovedBMTQAllocatorImpl.cpp</text>
</a>
</g>
</g>
<!-- Node34&#45;&gt;Node36 -->
<g id="edge2" class="edge">
<title>Node34&#45;&gt;Node36</title>
<path fill="none" stroke="#191970" d="M194.7901,-61.1672C208.1697,-50.8478 222.9678,-39.4344 234.4232,-30.5991"/>
<polygon fill="#191970" stroke="#191970" points="192.4661,-58.5396 186.6852,-67.4183 196.7412,-64.0825 192.4661,-58.5396"/>
</g>
</g>
</svg>
