<?xml version="1.0" encoding="UTF-8" standalone="no"?>
<!DOCTYPE svg PUBLIC "-//W3C//DTD SVG 1.1//EN"
 "http://www.w3.org/Graphics/SVG/1.1/DTD/svg11.dtd">
<!-- Generated by graphviz version 2.38.0 (20140413.2041)
 -->
<!-- Title: include/enfield/Transform/DependencyBuilderPass.h Pages: 1 -->
<svg width="582pt" height="330pt"
 viewBox="0.00 0.00 582.00 330.00" xmlns="http://www.w3.org/2000/svg" xmlns:xlink="http://www.w3.org/1999/xlink">
<g id="graph0" class="graph" transform="scale(1 1) rotate(0) translate(4 326)">
<title>include/enfield/Transform/DependencyBuilderPass.h</title>
<!-- Node0 -->
<g id="node1" class="node"><title>Node0</title>
<polygon fill="#bfbfbf" stroke="black" points="320.5,-291.5 320.5,-321.5 455.5,-321.5 455.5,-291.5 320.5,-291.5"/>
<text text-anchor="start" x="328.5" y="-309.5" font-family="Helvetica,sans-Serif" font-size="10.00">include/enfield/Transform</text>
<text text-anchor="middle" x="388" y="-298.5" font-family="Helvetica,sans-Serif" font-size="10.00">/DependencyBuilderPass.h</text>
</g>
<!-- Node1 -->
<g id="node2" class="node"><title>Node1</title>
<g id="a_node2"><a xlink:href="../../d4/daf/Nodes_8h.xhtml" target="_top" xlink:title="enfield/Analysis/Nodes.h">
<polygon fill="none" stroke="black" points="151.5,-112.5 151.5,-131.5 276.5,-131.5 276.5,-112.5 151.5,-112.5"/>
<text text-anchor="middle" x="214" y="-119.5" font-family="Helvetica,sans-Serif" font-size="10.00">enfield/Analysis/Nodes.h</text>
</a>
</g>
</g>
<!-- Node0&#45;&gt;Node1 -->
<g id="edge1" class="edge"><title>Node0&#45;&gt;Node1</title>
<path fill="none" stroke="midnightblue" d="M320.443,-296.958C257.51,-284.876 167.871,-256.061 130,-188 116.686,-164.073 147.08,-146.034 174.956,-135.103"/>
<polygon fill="midnightblue" stroke="midnightblue" points="176.463,-138.278 184.635,-131.535 174.042,-131.71 176.463,-138.278"/>
</g>
<!-- Node7 -->
<g id="node8" class="node"><title>Node7</title>
<polygon fill="none" stroke="#bfbfbf" points="530,-56.5 530,-75.5 574,-75.5 574,-56.5 530,-56.5"/>
<text text-anchor="middle" x="552" y="-63.5" font-family="Helvetica,sans-Serif" font-size="10.00">vector</text>
</g>
<!-- Node0&#45;&gt;Node7 -->
<g id="edge25" class="edge"><title>Node0&#45;&gt;Node7</title>
<path fill="none" stroke="midnightblue" d="M444.957,-291.424C465.953,-283.72 488.397,-272.132 504,-255 548.005,-206.684 552.88,-123.629 552.661,-86.236"/>
<polygon fill="midnightblue" stroke="midnightblue" points="556.151,-85.7302 552.453,-75.8017 549.153,-85.8692 556.151,-85.7302"/>
</g>
<!-- Node9 -->
<g id="node10" class="node"><title>Node9</title>
<g id="a_node10"><a xlink:href="../../df/d29/Pass_8h.xhtml" target="_top" xlink:title="enfield/Transform/Pass.h">
<polygon fill="none" stroke="black" points="7,-112.5 7,-131.5 133,-131.5 133,-112.5 7,-112.5"/>
<text text-anchor="middle" x="70" y="-119.5" font-family="Helvetica,sans-Serif" font-size="10.00">enfield/Transform/Pass.h</text>
</a>
</g>
</g>
<!-- Node0&#45;&gt;Node9 -->
<g id="edge9" class="edge"><title>Node0&#45;&gt;Node9</title>
<path fill="none" stroke="midnightblue" d="M320.412,-293.326C256.553,-278.584 161.87,-247.886 102,-188 88.9608,-174.957 80.3606,-155.532 75.392,-141.314"/>
<polygon fill="midnightblue" stroke="midnightblue" points="78.6778,-140.099 72.2869,-131.649 72.0133,-142.24 78.6778,-140.099"/>
</g>
<!-- Node10 -->
<g id="node11" class="node"><title>Node10</title>
<g id="a_node11"><a xlink:href="../../d4/d73/QModule_8h.xhtml" target="_top" xlink:title="enfield/Transform/QModule.h">
<polygon fill="none" stroke="black" points="139.5,-168.5 139.5,-187.5 282.5,-187.5 282.5,-168.5 139.5,-168.5"/>
<text text-anchor="middle" x="211" y="-175.5" font-family="Helvetica,sans-Serif" font-size="10.00">enfield/Transform/QModule.h</text>
</a>
</g>
</g>
<!-- Node0&#45;&gt;Node10 -->
<g id="edge11" class="edge"><title>Node0&#45;&gt;Node10</title>
<path fill="none" stroke="midnightblue" d="M342.301,-291.436C319.74,-283.101 292.942,-271.004 272,-255 250.649,-238.684 232.311,-213.359 221.466,-196.485"/>
<polygon fill="midnightblue" stroke="midnightblue" points="224.231,-194.304 215.98,-187.658 218.286,-197.999 224.231,-194.304"/>
</g>
<!-- Node11 -->
<g id="node12" class="node"><title>Node11</title>
<polygon fill="none" stroke="#bfbfbf" points="294.5,-112.5 294.5,-131.5 377.5,-131.5 377.5,-112.5 294.5,-112.5"/>
<text text-anchor="middle" x="336" y="-119.5" font-family="Helvetica,sans-Serif" font-size="10.00">unordered_map</text>
</g>
<!-- Node0&#45;&gt;Node11 -->
<g id="edge23" class="edge"><title>Node0&#45;&gt;Node11</title>
<path fill="none" stroke="midnightblue" d="M416.398,-291.499C462.073,-267.127 543.236,-215.006 507,-168 492.438,-149.11 432.547,-136.572 387.723,-129.635"/>
<polygon fill="midnightblue" stroke="midnightblue" points="387.959,-126.131 377.551,-128.115 386.925,-133.054 387.959,-126.131"/>
</g>
<!-- Node12 -->
<g id="node13" class="node"><title>Node12</title>
<g id="a_node13"><a xlink:href="../../d6/d94/XbitToNumberPass_8h.xhtml" target="_top" xlink:title="enfield/Transform/XbitTo\lNumberPass.h">
<polygon fill="none" stroke="black" points="281,-224.5 281,-254.5 405,-254.5 405,-224.5 281,-224.5"/>
<text text-anchor="start" x="289" y="-242.5" font-family="Helvetica,sans-Serif" font-size="10.00">enfield/Transform/XbitTo</text>
<text text-anchor="middle" x="343" y="-231.5" font-family="Helvetica,sans-Serif" font-size="10.00">NumberPass.h</text>
</a>
</g>
</g>
<!-- Node0&#45;&gt;Node12 -->
<g id="edge15" class="edge"><title>Node0&#45;&gt;Node12</title>
<path fill="none" stroke="midnightblue" d="M378.236,-291.396C372.457,-283.049 365.006,-272.287 358.446,-262.811"/>
<polygon fill="midnightblue" stroke="midnightblue" points="361.315,-260.806 352.745,-254.577 355.56,-264.791 361.315,-260.806"/>
</g>
<!-- Node13 -->
<g id="node14" class="node"><title>Node13</title>
<polygon fill="none" stroke="#bfbfbf" points="415,-168.5 415,-187.5 445,-187.5 445,-168.5 415,-168.5"/>
<text text-anchor="middle" x="430" y="-175.5" font-family="Helvetica,sans-Serif" font-size="10.00">set</text>
</g>
<!-- Node0&#45;&gt;Node13 -->
<g id="edge26" class="edge"><title>Node0&#45;&gt;Node13</title>
<path fill="none" stroke="midnightblue" d="M396.575,-291.376C402.244,-281.496 409.443,-267.823 414,-255 420.758,-235.984 425.083,-213.225 427.51,-197.6"/>
<polygon fill="midnightblue" stroke="midnightblue" points="430.983,-198.037 428.949,-187.639 424.055,-197.036 430.983,-198.037"/>
</g>
<!-- Node14 -->
<g id="node15" class="node"><title>Node14</title>
<polygon fill="none" stroke="#bfbfbf" points="463.5,-168.5 463.5,-187.5 498.5,-187.5 498.5,-168.5 463.5,-168.5"/>
<text text-anchor="middle" x="481" y="-175.5" font-family="Helvetica,sans-Serif" font-size="10.00">map</text>
</g>
<!-- Node0&#45;&gt;Node14 -->
<g id="edge24" class="edge"><title>Node0&#45;&gt;Node14</title>
<path fill="none" stroke="midnightblue" d="M401.654,-291.453C410.935,-281.608 423.25,-267.944 433,-255 447.463,-235.8 461.899,-212.191 471.104,-196.429"/>
<polygon fill="midnightblue" stroke="midnightblue" points="474.152,-198.151 476.113,-187.739 468.087,-194.655 474.152,-198.151"/>
</g>
<!-- Node2 -->
<g id="node3" class="node"><title>Node2</title>
<g id="a_node3"><a xlink:href="../../d1/d2e/WrapperVal_8h.xhtml" target="_top" xlink:title="enfield/Support/WrapperVal.h">
<polygon fill="none" stroke="black" points="142,-56.5 142,-75.5 286,-75.5 286,-56.5 142,-56.5"/>
<text text-anchor="middle" x="214" y="-63.5" font-family="Helvetica,sans-Serif" font-size="10.00">enfield/Support/WrapperVal.h</text>
</a>
</g>
</g>
<!-- Node1&#45;&gt;Node2 -->
<g id="edge2" class="edge"><title>Node1&#45;&gt;Node2</title>
<path fill="none" stroke="midnightblue" d="M214,-112.083C214,-105.006 214,-94.8611 214,-85.9865"/>
<polygon fill="midnightblue" stroke="midnightblue" points="217.5,-85.751 214,-75.7511 210.5,-85.7511 217.5,-85.751"/>
</g>
<!-- Node4 -->
<g id="node5" class="node"><title>Node4</title>
<g id="a_node5"><a xlink:href="../../d5/dfc/RTTI_8h.xhtml" target="_top" xlink:title="enfield/Support/RTTI.h">
<polygon fill="none" stroke="black" points="304,-56.5 304,-75.5 420,-75.5 420,-56.5 304,-56.5"/>
<text text-anchor="middle" x="362" y="-63.5" font-family="Helvetica,sans-Serif" font-size="10.00">enfield/Support/RTTI.h</text>
</a>
</g>
</g>
<!-- Node1&#45;&gt;Node4 -->
<g id="edge4" class="edge"><title>Node1&#45;&gt;Node4</title>
<path fill="none" stroke="midnightblue" d="M237.451,-112.444C262.133,-103.438 301.185,-89.1891 328.977,-79.049"/>
<polygon fill="midnightblue" stroke="midnightblue" points="330.464,-82.2321 338.659,-75.5164 328.065,-75.6561 330.464,-82.2321"/>
</g>
<!-- Node5 -->
<g id="node6" class="node"><title>Node5</title>
<polygon fill="none" stroke="#bfbfbf" points="438.5,-56.5 438.5,-75.5 511.5,-75.5 511.5,-56.5 438.5,-56.5"/>
<text text-anchor="middle" x="475" y="-63.5" font-family="Helvetica,sans-Serif" font-size="10.00">initializer_list</text>
</g>
<!-- Node1&#45;&gt;Node5 -->
<g id="edge5" class="edge"><title>Node1&#45;&gt;Node5</title>
<path fill="none" stroke="midnightblue" d="M255.356,-112.444C302.459,-102.698 379.24,-86.8124 428.416,-76.6381"/>
<polygon fill="midnightblue" stroke="midnightblue" points="429.386,-80.0115 438.47,-74.558 427.968,-73.1567 429.386,-80.0115"/>
</g>
<!-- Node6 -->
<g id="node7" class="node"><title>Node6</title>
<polygon fill="none" stroke="#bfbfbf" points="70,-56.5 70,-75.5 124,-75.5 124,-56.5 70,-56.5"/>
<text text-anchor="middle" x="97" y="-63.5" font-family="Helvetica,sans-Serif" font-size="10.00">iostream</text>
</g>
<!-- Node1&#45;&gt;Node6 -->
<g id="edge6" class="edge"><title>Node1&#45;&gt;Node6</title>
<path fill="none" stroke="midnightblue" d="M195.461,-112.444C176.377,-103.636 146.425,-89.8116 124.564,-79.722"/>
<polygon fill="midnightblue" stroke="midnightblue" points="125.999,-76.5292 115.452,-75.5164 123.065,-82.8849 125.999,-76.5292"/>
</g>
<!-- Node1&#45;&gt;Node7 -->
<g id="edge7" class="edge"><title>Node1&#45;&gt;Node7</title>
<path fill="none" stroke="midnightblue" d="M276.629,-112.755C347.946,-103.207 461.098,-87.5346 519.756,-75.7423"/>
<polygon fill="midnightblue" stroke="midnightblue" points="520.639,-79.1335 529.711,-73.6623 519.207,-72.2815 520.639,-79.1335"/>
</g>
<!-- Node8 -->
<g id="node9" class="node"><title>Node8</title>
<polygon fill="none" stroke="#bfbfbf" points="0,-56.5 0,-75.5 52,-75.5 52,-56.5 0,-56.5"/>
<text text-anchor="middle" x="26" y="-63.5" font-family="Helvetica,sans-Serif" font-size="10.00">memory</text>
</g>
<!-- Node1&#45;&gt;Node8 -->
<g id="edge8" class="edge"><title>Node1&#45;&gt;Node8</title>
<path fill="none" stroke="midnightblue" d="M184.211,-112.444C151.04,-102.916 97.4354,-87.5187 61.9568,-77.328"/>
<polygon fill="midnightblue" stroke="midnightblue" points="62.5948,-73.8698 52.0172,-74.473 60.6623,-80.5978 62.5948,-73.8698"/>
</g>
<!-- Node3 -->
<g id="node4" class="node"><title>Node3</title>
<polygon fill="none" stroke="#bfbfbf" points="193.5,-0.5 193.5,-19.5 234.5,-19.5 234.5,-0.5 193.5,-0.5"/>
<text text-anchor="middle" x="214" y="-7.5" font-family="Helvetica,sans-Serif" font-size="10.00">string</text>
</g>
<!-- Node2&#45;&gt;Node3 -->
<g id="edge3" class="edge"><title>Node2&#45;&gt;Node3</title>
<path fill="none" stroke="midnightblue" d="M214,-56.083C214,-49.0059 214,-38.8611 214,-29.9865"/>
<polygon fill="midnightblue" stroke="midnightblue" points="217.5,-29.751 214,-19.7511 210.5,-29.7511 217.5,-29.751"/>
</g>
<!-- Node9&#45;&gt;Node8 -->
<g id="edge10" class="edge"><title>Node9&#45;&gt;Node8</title>
<path fill="none" stroke="midnightblue" d="M62.7343,-112.083C56.4552,-104.377 47.2124,-93.0333 39.5692,-83.6531"/>
<polygon fill="midnightblue" stroke="midnightblue" points="42.1606,-81.2926 33.1305,-75.7511 36.7339,-85.7143 42.1606,-81.2926"/>
</g>
<!-- Node10&#45;&gt;Node1 -->
<g id="edge12" class="edge"><title>Node10&#45;&gt;Node1</title>
<path fill="none" stroke="midnightblue" d="M211.495,-168.083C211.889,-161.006 212.452,-150.861 212.945,-141.986"/>
<polygon fill="midnightblue" stroke="midnightblue" points="216.454,-141.93 213.514,-131.751 209.464,-141.542 216.454,-141.93"/>
</g>
<!-- Node10&#45;&gt;Node9 -->
<g id="edge13" class="edge"><title>Node10&#45;&gt;Node9</title>
<path fill="none" stroke="midnightblue" d="M188.658,-168.444C165.247,-159.478 128.264,-145.314 101.81,-135.183"/>
<polygon fill="midnightblue" stroke="midnightblue" points="102.828,-131.824 92.2373,-131.516 100.324,-138.361 102.828,-131.824"/>
</g>
<!-- Node10&#45;&gt;Node11 -->
<g id="edge14" class="edge"><title>Node10&#45;&gt;Node11</title>
<path fill="none" stroke="midnightblue" d="M230.807,-168.444C251.287,-159.596 283.483,-145.687 306.865,-135.586"/>
<polygon fill="midnightblue" stroke="midnightblue" points="308.494,-138.695 316.286,-131.516 305.718,-132.269 308.494,-138.695"/>
</g>
<!-- Node12&#45;&gt;Node1 -->
<g id="edge18" class="edge"><title>Node12&#45;&gt;Node1</title>
<path fill="none" stroke="midnightblue" d="M335.035,-224.467C325.871,-209.212 309.665,-184.774 291,-168 276.599,-155.058 257.895,-144.023 242.527,-136.119"/>
<polygon fill="midnightblue" stroke="midnightblue" points="243.971,-132.928 233.458,-131.614 240.857,-139.197 243.971,-132.928"/>
</g>
<!-- Node12&#45;&gt;Node7 -->
<g id="edge20" class="edge"><title>Node12&#45;&gt;Node7</title>
<path fill="none" stroke="midnightblue" d="M353.962,-224.359C365.887,-209.449 385.944,-185.71 406,-168 445.818,-132.84 498.196,-99.2442 528.175,-81.0425"/>
<polygon fill="midnightblue" stroke="midnightblue" points="530.31,-83.8431 537.077,-75.6913 526.703,-77.8436 530.31,-83.8431"/>
</g>
<!-- Node12&#45;&gt;Node9 -->
<g id="edge16" class="edge"><title>Node12&#45;&gt;Node9</title>
<path fill="none" stroke="midnightblue" d="M280.674,-233.458C236.177,-227.62 176.259,-215.047 130,-188 109.579,-176.06 92.0106,-154.957 81.2549,-140.039"/>
<polygon fill="midnightblue" stroke="midnightblue" points="84.0433,-137.918 75.4738,-131.688 78.2877,-141.902 84.0433,-137.918"/>
</g>
<!-- Node12&#45;&gt;Node10 -->
<g id="edge17" class="edge"><title>Node12&#45;&gt;Node10</title>
<path fill="none" stroke="midnightblue" d="M311.718,-224.399C289.768,-214.505 260.657,-201.383 239.379,-191.792"/>
<polygon fill="midnightblue" stroke="midnightblue" points="240.762,-188.576 230.207,-187.658 237.886,-194.958 240.762,-188.576"/>
</g>
<!-- Node12&#45;&gt;Node11 -->
<g id="edge19" class="edge"><title>Node12&#45;&gt;Node11</title>
<path fill="none" stroke="midnightblue" d="M342.142,-224.337C340.886,-203.622 338.546,-165.016 337.145,-141.899"/>
<polygon fill="midnightblue" stroke="midnightblue" points="340.624,-141.439 336.525,-131.669 333.637,-141.863 340.624,-141.439"/>
</g>
<!-- Node12&#45;&gt;Node13 -->
<g id="edge21" class="edge"><title>Node12&#45;&gt;Node13</title>
<path fill="none" stroke="midnightblue" d="M363.618,-224.399C377.303,-215.04 395.211,-202.792 408.978,-193.377"/>
<polygon fill="midnightblue" stroke="midnightblue" points="411.062,-196.192 417.341,-187.658 407.111,-190.414 411.062,-196.192"/>
</g>
<!-- Node12&#45;&gt;Node14 -->
<g id="edge22" class="edge"><title>Node12&#45;&gt;Node14</title>
<path fill="none" stroke="midnightblue" d="M375.704,-224.399C399.588,-214.102 431.583,-200.307 454.013,-190.636"/>
<polygon fill="midnightblue" stroke="midnightblue" points="455.488,-193.811 463.285,-186.638 452.717,-187.383 455.488,-193.811"/>
</g>
</g>
</svg>
