<?xml version="1.0" encoding="UTF-8" standalone="no"?>
<!DOCTYPE svg PUBLIC "-//W3C//DTD SVG 1.1//EN"
 "http://www.w3.org/Graphics/SVG/1.1/DTD/svg11.dtd">
<!-- Generated by graphviz version 2.38.0 (20140413.2041)
 -->
<!-- Title: efd::QArgsReplaceVisitor::visit Pages: 1 -->
<svg width="777pt" height="192pt"
 viewBox="0.00 0.00 777.00 192.00" xmlns="http://www.w3.org/2000/svg" xmlns:xlink="http://www.w3.org/1999/xlink">
<g id="graph0" class="graph" transform="scale(1 1) rotate(0) translate(4 188)">
<title>efd::QArgsReplaceVisitor::visit</title>
<!-- Node43 -->
<g id="node1" class="node"><title>Node43</title>
<polygon fill="#bfbfbf" stroke="black" points="0,-45 0,-75 128,-75 128,-45 0,-45"/>
<text text-anchor="start" x="8" y="-63" font-family="Helvetica,sans-Serif" font-size="10.00">efd::QArgsReplaceVisitor</text>
<text text-anchor="middle" x="64" y="-52" font-family="Helvetica,sans-Serif" font-size="10.00">::visit</text>
</g>
<!-- Node44 -->
<g id="node2" class="node"><title>Node44</title>
<g id="a_node2"><a xlink:href="../../dc/d43/classefd_1_1QArgsReplaceVisitor.xhtml#a0953381c6bb1aca40fc20efa2053661a" target="_top" xlink:title="efd::QArgsReplaceVisitor\l::substituteChildrem">
<polygon fill="none" stroke="black" points="173.5,-77 173.5,-107 301.5,-107 301.5,-77 173.5,-77"/>
<text text-anchor="start" x="181.5" y="-95" font-family="Helvetica,sans-Serif" font-size="10.00">efd::QArgsReplaceVisitor</text>
<text text-anchor="middle" x="237.5" y="-84" font-family="Helvetica,sans-Serif" font-size="10.00">::substituteChildrem</text>
</a>
</g>
</g>
<!-- Node43&#45;&gt;Node44 -->
<g id="edge1" class="edge"><title>Node43&#45;&gt;Node44</title>
<path fill="none" stroke="midnightblue" d="M128.373,-71.8247C139.738,-73.9453 151.667,-76.1711 163.283,-78.3385"/>
<polygon fill="midnightblue" stroke="midnightblue" points="162.915,-81.8302 173.387,-80.2239 164.199,-74.949 162.915,-81.8302"/>
</g>
<!-- Node53 -->
<g id="node11" class="node"><title>Node53</title>
<g id="a_node11"><a xlink:href="../../d8/d5d/classefd_1_1NodeVisitor.xhtml#ab909f7961825bd91e6382911632a5ef8" target="_top" xlink:title="Visits the children of ref. ">
<polygon fill="none" stroke="black" points="164,-19.5 164,-38.5 311,-38.5 311,-19.5 164,-19.5"/>
<text text-anchor="middle" x="237.5" y="-26.5" font-family="Helvetica,sans-Serif" font-size="10.00">efd::NodeVisitor::visitChildren</text>
</a>
</g>
</g>
<!-- Node43&#45;&gt;Node53 -->
<g id="edge10" class="edge"><title>Node43&#45;&gt;Node53</title>
<path fill="none" stroke="midnightblue" d="M128.373,-48.5448C143.181,-45.8682 158.946,-43.0186 173.727,-40.3467"/>
<polygon fill="midnightblue" stroke="midnightblue" points="174.561,-43.7527 183.779,-38.5297 173.316,-36.8643 174.561,-43.7527"/>
</g>
<!-- Node45 -->
<g id="node3" class="node"><title>Node45</title>
<g id="a_node3"><a xlink:href="../../d6/d6a/classefd_1_1Node.xhtml#a63e30243eca03b0c85d8c4856e91c79d" target="_top" xlink:title="Gets the i&#45;th child. ">
<polygon fill="none" stroke="black" points="364.5,-164.5 364.5,-183.5 465.5,-183.5 465.5,-164.5 364.5,-164.5"/>
<text text-anchor="middle" x="415" y="-171.5" font-family="Helvetica,sans-Serif" font-size="10.00">efd::Node::getChild</text>
</a>
</g>
</g>
<!-- Node44&#45;&gt;Node45 -->
<g id="edge2" class="edge"><title>Node44&#45;&gt;Node45</title>
<path fill="none" stroke="midnightblue" d="M260.914,-107.254C282.271,-121.239 315.718,-141.73 347,-155 352.49,-157.329 358.353,-159.466 364.24,-161.398"/>
<polygon fill="midnightblue" stroke="midnightblue" points="363.521,-164.84 374.109,-164.455 365.592,-158.153 363.521,-164.84"/>
</g>
<!-- Node46 -->
<g id="node4" class="node"><title>Node46</title>
<g id="a_node4"><a xlink:href="../../d6/d6a/classefd_1_1Node.xhtml#a11df06f4d8e590426340024cbb2db23e" target="_top" xlink:title="Returns the number of childrem of this node. ">
<polygon fill="none" stroke="black" points="347,-126.5 347,-145.5 483,-145.5 483,-126.5 347,-126.5"/>
<text text-anchor="middle" x="415" y="-133.5" font-family="Helvetica,sans-Serif" font-size="10.00">efd::Node::getChildNumber</text>
</a>
</g>
</g>
<!-- Node44&#45;&gt;Node46 -->
<g id="edge3" class="edge"><title>Node44&#45;&gt;Node46</title>
<path fill="none" stroke="midnightblue" d="M298.406,-107.019C320.508,-112.56 345.239,-118.761 366.136,-124"/>
<polygon fill="midnightblue" stroke="midnightblue" points="365.507,-127.451 376.058,-126.488 367.21,-120.661 365.507,-127.451"/>
</g>
<!-- Node47 -->
<g id="node5" class="node"><title>Node47</title>
<g id="a_node5"><a xlink:href="../../dc/d43/classefd_1_1QArgsReplaceVisitor.xhtml#a9bdff8b0ac5f10cb3d8619217436ebb1" target="_top" xlink:title="efd::QArgsReplaceVisitor\l::replaceChild">
<polygon fill="none" stroke="black" points="351,-77 351,-107 479,-107 479,-77 351,-77"/>
<text text-anchor="start" x="359" y="-95" font-family="Helvetica,sans-Serif" font-size="10.00">efd::QArgsReplaceVisitor</text>
<text text-anchor="middle" x="415" y="-84" font-family="Helvetica,sans-Serif" font-size="10.00">::replaceChild</text>
</a>
</g>
</g>
<!-- Node44&#45;&gt;Node47 -->
<g id="edge4" class="edge"><title>Node44&#45;&gt;Node47</title>
<path fill="none" stroke="midnightblue" d="M301.86,-92C314.41,-92 327.684,-92 340.537,-92"/>
<polygon fill="midnightblue" stroke="midnightblue" points="340.734,-95.5001 350.733,-92 340.733,-88.5001 340.734,-95.5001"/>
</g>
<!-- Node51 -->
<g id="node9" class="node"><title>Node51</title>
<g id="a_node9"><a xlink:href="../../d6/d6a/classefd_1_1Node.xhtml#aad4510814ff15bd26fe2f95f9d2a2279" target="_top" xlink:title="Sets the i&#45;th child. ">
<polygon fill="none" stroke="black" points="364.5,-38.5 364.5,-57.5 465.5,-57.5 465.5,-38.5 364.5,-38.5"/>
<text text-anchor="middle" x="415" y="-45.5" font-family="Helvetica,sans-Serif" font-size="10.00">efd::Node::setChild</text>
</a>
</g>
</g>
<!-- Node44&#45;&gt;Node51 -->
<g id="edge8" class="edge"><title>Node44&#45;&gt;Node51</title>
<path fill="none" stroke="midnightblue" d="M298.406,-76.9808C320.508,-71.4396 345.239,-65.2393 366.136,-60.0001"/>
<polygon fill="midnightblue" stroke="midnightblue" points="367.21,-63.3393 376.058,-57.5124 365.507,-56.5494 367.21,-63.3393"/>
</g>
<!-- Node48 -->
<g id="node6" class="node"><title>Node48</title>
<g id="a_node6"><a xlink:href="../../d6/d6a/classefd_1_1Node.xhtml#a6c85c9bd21014b73497de741cc75f706" target="_top" xlink:title="Clones the current node (deep copy). ">
<polygon fill="none" stroke="black" points="528,-117.5 528,-136.5 617,-136.5 617,-117.5 528,-117.5"/>
<text text-anchor="middle" x="572.5" y="-124.5" font-family="Helvetica,sans-Serif" font-size="10.00">efd::Node::clone</text>
</a>
</g>
</g>
<!-- Node47&#45;&gt;Node48 -->
<g id="edge5" class="edge"><title>Node47&#45;&gt;Node48</title>
<path fill="none" stroke="midnightblue" d="M479.248,-106.236C492.517,-109.223 506.371,-112.341 519.188,-115.226"/>
<polygon fill="midnightblue" stroke="midnightblue" points="518.69,-118.701 529.214,-117.482 520.227,-111.872 518.69,-118.701"/>
</g>
<!-- Node50 -->
<g id="node8" class="node"><title>Node50</title>
<g id="a_node8"><a xlink:href="../../d6/d6a/classefd_1_1Node.xhtml#a96ca13a5c2b971b68619ce4a34be0f66" target="_top" xlink:title="Returns a std::string representation of this Node and its childrem. ">
<polygon fill="none" stroke="black" points="523,-79.5 523,-98.5 622,-98.5 622,-79.5 523,-79.5"/>
<text text-anchor="middle" x="572.5" y="-86.5" font-family="Helvetica,sans-Serif" font-size="10.00">efd::Node::toString</text>
</a>
</g>
</g>
<!-- Node47&#45;&gt;Node50 -->
<g id="edge7" class="edge"><title>Node47&#45;&gt;Node50</title>
<path fill="none" stroke="midnightblue" d="M479.248,-90.7798C490.208,-90.5683 501.566,-90.3492 512.41,-90.14"/>
<polygon fill="midnightblue" stroke="midnightblue" points="512.688,-93.6354 522.619,-89.943 512.553,-86.6367 512.688,-93.6354"/>
</g>
<!-- Node49 -->
<g id="node7" class="node"><title>Node49</title>
<g id="a_node7"><a xlink:href="../../d6/d6a/classefd_1_1Node.xhtml#ac078ce64eb404cfdc24b9288908536e4" target="_top" xlink:title="Clones the current node (deep copy). ">
<polygon fill="none" stroke="black" points="662,-117.5 662,-136.5 769,-136.5 769,-117.5 662,-117.5"/>
<text text-anchor="middle" x="715.5" y="-124.5" font-family="Helvetica,sans-Serif" font-size="10.00">efd::Node::cloneImpl</text>
</a>
</g>
</g>
<!-- Node48&#45;&gt;Node49 -->
<g id="edge6" class="edge"><title>Node48&#45;&gt;Node49</title>
<path fill="none" stroke="midnightblue" d="M617.34,-127C628.22,-127 640.093,-127 651.685,-127"/>
<polygon fill="midnightblue" stroke="midnightblue" points="651.768,-130.5 661.768,-127 651.768,-123.5 651.768,-130.5"/>
</g>
<!-- Node52 -->
<g id="node10" class="node"><title>Node52</title>
<g id="a_node10"><a xlink:href="../../d6/d6a/classefd_1_1Node.xhtml#a48e9d49d994b9023b8400316e2782e2b" target="_top" xlink:title="Sets the parent node of the current node. ">
<polygon fill="none" stroke="black" points="519,-38.5 519,-57.5 626,-57.5 626,-38.5 519,-38.5"/>
<text text-anchor="middle" x="572.5" y="-45.5" font-family="Helvetica,sans-Serif" font-size="10.00">efd::Node::setParent</text>
</a>
</g>
</g>
<!-- Node51&#45;&gt;Node52 -->
<g id="edge9" class="edge"><title>Node51&#45;&gt;Node52</title>
<path fill="none" stroke="midnightblue" d="M465.629,-48C479.29,-48 494.289,-48 508.593,-48"/>
<polygon fill="midnightblue" stroke="midnightblue" points="508.856,-51.5001 518.856,-48 508.856,-44.5001 508.856,-51.5001"/>
</g>
<!-- Node54 -->
<g id="node12" class="node"><title>Node54</title>
<g id="a_node12"><a xlink:href="../../d6/d6a/classefd_1_1Node.xhtml#ab813c60af1717cf50e92a28b274c24ef" target="_top" xlink:title="Used by visitor classes. ">
<polygon fill="none" stroke="black" points="370.5,-0.5 370.5,-19.5 459.5,-19.5 459.5,-0.5 370.5,-0.5"/>
<text text-anchor="middle" x="415" y="-7.5" font-family="Helvetica,sans-Serif" font-size="10.00">efd::Node::apply</text>
</a>
</g>
</g>
<!-- Node53&#45;&gt;Node54 -->
<g id="edge11" class="edge"><title>Node53&#45;&gt;Node54</title>
<path fill="none" stroke="midnightblue" d="M311.149,-21.1348C327.469,-19.368 344.507,-17.5234 359.913,-15.8555"/>
<polygon fill="midnightblue" stroke="midnightblue" points="360.725,-19.2882 370.29,-14.7322 359.971,-12.3289 360.725,-19.2882"/>
</g>
</g>
</svg>
