<?xml version="1.0" encoding="UTF-8" standalone="no"?>
<!DOCTYPE svg PUBLIC "-//W3C//DTD SVG 1.1//EN"
 "http://www.w3.org/Graphics/SVG/1.1/DTD/svg11.dtd">
<!-- Generated by graphviz version 2.40.1 (20161225.0304)
 -->
<!-- Title: efd::QArgsReplaceVisitor::visit Pages: 1 -->
<svg width="304pt" height="104pt"
 viewBox="0.00 0.00 304.00 104.00" xmlns="http://www.w3.org/2000/svg" xmlns:xlink="http://www.w3.org/1999/xlink">
<g id="graph0" class="graph" transform="scale(1 1) rotate(0) translate(4 100)">
<title>efd::QArgsReplaceVisitor::visit</title>
<!-- Node12 -->
<g id="node1" class="node">
<title>Node12</title>
<polygon fill="#bfbfbf" stroke="#000000" points="0,-33 0,-63 138,-63 138,-33 0,-33"/>
<text text-anchor="start" x="8" y="-51" font-family="Helvetica,sans-Serif" font-size="10.00" fill="#000000">efd::QArgsReplaceVisitor</text>
<text text-anchor="middle" x="69" y="-40" font-family="Helvetica,sans-Serif" font-size="10.00" fill="#000000">::visit</text>
</g>
<!-- Node13 -->
<g id="node2" class="node">
<title>Node13</title>
<g id="a_node2"><a xlink:href="../../d6/d6a/classefd_1_1Node.xhtml#ab813c60af1717cf50e92a28b274c24ef" target="_top" xlink:title="Used by visitor classes. ">
<polygon fill="none" stroke="#000000" points="186.5,-76.5 186.5,-95.5 283.5,-95.5 283.5,-76.5 186.5,-76.5"/>
<text text-anchor="middle" x="235" y="-83.5" font-family="Helvetica,sans-Serif" font-size="10.00" fill="#000000">efd::Node::apply</text>
</a>
</g>
</g>
<!-- Node12&#45;&gt;Node13 -->
<g id="edge1" class="edge">
<title>Node12&#45;&gt;Node13</title>
<path fill="none" stroke="#191970" d="M134.6076,-63.0186C150.8138,-66.7285 167.9463,-70.6504 183.381,-74.1836"/>
<polygon fill="#191970" stroke="#191970" points="182.723,-77.6234 193.2518,-76.4432 184.285,-70.7999 182.723,-77.6234"/>
</g>
<!-- Node14 -->
<g id="node3" class="node">
<title>Node14</title>
<g id="a_node3"><a xlink:href="../../d8/df0/classefd_1_1NDBinOp.xhtml#aedf48dcf74c1dca8921de77810fbaf6f" target="_top" xlink:title="Gets the left hand side argument. ">
<polygon fill="none" stroke="#000000" points="174.5,-38.5 174.5,-57.5 295.5,-57.5 295.5,-38.5 174.5,-38.5"/>
<text text-anchor="middle" x="235" y="-45.5" font-family="Helvetica,sans-Serif" font-size="10.00" fill="#000000">efd::NDBinOp::getLhs</text>
</a>
</g>
</g>
<!-- Node12&#45;&gt;Node14 -->
<g id="edge2" class="edge">
<title>Node12&#45;&gt;Node14</title>
<path fill="none" stroke="#191970" d="M138.4371,-48C146.9009,-48 155.5581,-48 164.0438,-48"/>
<polygon fill="#191970" stroke="#191970" points="164.2847,-51.5001 174.2847,-48 164.2847,-44.5001 164.2847,-51.5001"/>
</g>
<!-- Node15 -->
<g id="node4" class="node">
<title>Node15</title>
<g id="a_node4"><a xlink:href="../../d8/df0/classefd_1_1NDBinOp.xhtml#af9332258a8ee96b82352e2a04d2e3af1" target="_top" xlink:title="Gets the right hand side argument. ">
<polygon fill="none" stroke="#000000" points="174,-.5 174,-19.5 296,-19.5 296,-.5 174,-.5"/>
<text text-anchor="middle" x="235" y="-7.5" font-family="Helvetica,sans-Serif" font-size="10.00" fill="#000000">efd::NDBinOp::getRhs</text>
</a>
</g>
</g>
<!-- Node12&#45;&gt;Node15 -->
<g id="edge3" class="edge">
<title>Node12&#45;&gt;Node15</title>
<path fill="none" stroke="#191970" d="M134.6076,-32.9814C150.8138,-29.2715 167.9463,-25.3496 183.381,-21.8164"/>
<polygon fill="#191970" stroke="#191970" points="184.285,-25.2001 193.2518,-19.5568 182.723,-18.3766 184.285,-25.2001"/>
</g>
</g>
</svg>
