<?xml version="1.0" encoding="UTF-8" standalone="no"?>
<!DOCTYPE svg PUBLIC "-//W3C//DTD SVG 1.1//EN"
 "http://www.w3.org/Graphics/SVG/1.1/DTD/svg11.dtd">
<!-- Generated by graphviz version 2.38.0 (20140413.2041)
 -->
<!-- Title: efd::QArgsReplaceVisitor::visit Pages: 1 -->
<!--zoomable 214 -->
<svg id="main" version="1.1" xmlns="http://www.w3.org/2000/svg" xmlns:xlink="http://www.w3.org/1999/xlink" xml:space="preserve" onload="init(evt)">
<style type="text/css"><![CDATA[
.edge:hover path { stroke: red; }
.edge:hover polygon { stroke: red; fill: red; }
]]></style>
<script type="text/javascript"><![CDATA[
var edges = document.getElementsByTagName('g');
if (edges && edges.length) {
  for (var i=0;i<edges.length;i++) {
    if (edges[i].id.substr(0,4)=='edge') {
      edges[i].setAttribute('class','edge');
    }
  }
}
]]></script>
        <defs>
                <circle id="rim" cx="0" cy="0" r="7"/>
                <circle id="rim2" cx="0" cy="0" r="3.5"/>
                <g id="zoomPlus">
                        <use xlink:href="#rim" fill="#404040">
                                <set attributeName="fill" to="#808080" begin="zoomplus.mouseover" end="zoomplus.mouseout"/>
                        </use>
                        <path d="M-4,0h8M0,-4v8" fill="none" stroke="white" stroke-width="1.5" pointer-events="none"/>
                </g>
                <g id="zoomMin">
                        <use xlink:href="#rim" fill="#404040">
                                <set attributeName="fill" to="#808080" begin="zoomminus.mouseover" end="zoomminus.mouseout"/>
                        </use>
                        <path d="M-4,0h8" fill="none" stroke="white" stroke-width="1.5" pointer-events="none"/>
                </g>
                <g id="dirArrow">
                        <path fill="none" stroke="white" stroke-width="1.5" d="M0,-3.0v7 M-2.5,-0.5L0,-3.0L2.5,-0.5"/>
                </g>
               <g id="resetDef">
                       <use xlink:href="#rim2" fill="#404040">
                               <set attributeName="fill" to="#808080" begin="reset.mouseover" end="reset.mouseout"/>
                       </use>
               </g>
        </defs>

<script type="text/javascript">
var viewWidth = 758;
var viewHeight = 214;
var sectionId = 'dynsection-5';
</script>
<script xlink:href="../../svgpan.js"/>
<svg id="graph" class="graph">
<g id="viewport">
<title>efd::QArgsReplaceVisitor::visit</title>
<!-- Node30 -->
<g id="node1" class="node"><title>Node30</title>
<polygon fill="#bfbfbf" stroke="black" points="0,-124 0,-154 128,-154 128,-124 0,-124"/>
<text text-anchor="start" x="8" y="-142" font-family="Helvetica,sans-Serif" font-size="10.00">efd::QArgsReplaceVisitor</text>
<text text-anchor="middle" x="64" y="-131" font-family="Helvetica,sans-Serif" font-size="10.00">::visit</text>
</g>
<!-- Node31 -->
<g id="node2" class="node"><title>Node31</title>
<g id="a_node2"><a xlink:href="../../d6/d6a/classefd_1_1Node.xhtml#ab813c60af1717cf50e92a28b274c24ef" target="_top" xlink:title="Used by visitor classes. ">
<polygon fill="none" stroke="black" points="183.5,-186.5 183.5,-205.5 272.5,-205.5 272.5,-186.5 183.5,-186.5"/>
<text text-anchor="middle" x="228" y="-193.5" font-family="Helvetica,sans-Serif" font-size="10.00">efd::Node::apply</text>
</a>
</g>
</g>
<!-- Node30&#45;&gt;Node31 -->
<g id="edge1" class="edge"><title>Node30&#45;&gt;Node31</title>
<path fill="none" stroke="midnightblue" d="M102.371,-154.091C120.806,-161.343 143.446,-169.967 164,-177 170.463,-179.212 177.344,-181.427 184.096,-183.523"/>
<polygon fill="midnightblue" stroke="midnightblue" points="183.244,-186.923 193.83,-186.495 185.288,-180.228 183.244,-186.923"/>
</g>
<!-- Node32 -->
<g id="node3" class="node"><title>Node32</title>
<g id="a_node3"><a xlink:href="../../d8/df0/classefd_1_1NDBinOp.xhtml#aedf48dcf74c1dca8921de77810fbaf6f" target="_top" xlink:title="Gets the left hand side argument. ">
<polygon fill="none" stroke="black" points="171.5,-148.5 171.5,-167.5 284.5,-167.5 284.5,-148.5 171.5,-148.5"/>
<text text-anchor="middle" x="228" y="-155.5" font-family="Helvetica,sans-Serif" font-size="10.00">efd::NDBinOp::getLhs</text>
</a>
</g>
</g>
<!-- Node30&#45;&gt;Node32 -->
<g id="edge2" class="edge"><title>Node30&#45;&gt;Node32</title>
<path fill="none" stroke="midnightblue" d="M128.097,-146.4C139.048,-147.685 150.459,-149.023 161.473,-150.315"/>
<polygon fill="midnightblue" stroke="midnightblue" points="161.113,-153.796 171.452,-151.485 161.928,-146.844 161.113,-153.796"/>
</g>
<!-- Node33 -->
<g id="node4" class="node"><title>Node33</title>
<g id="a_node4"><a xlink:href="../../d8/df0/classefd_1_1NDBinOp.xhtml#af9332258a8ee96b82352e2a04d2e3af1" target="_top" xlink:title="Gets the right hand side argument. ">
<polygon fill="none" stroke="black" points="170,-110.5 170,-129.5 286,-129.5 286,-110.5 170,-110.5"/>
<text text-anchor="middle" x="228" y="-117.5" font-family="Helvetica,sans-Serif" font-size="10.00">efd::NDBinOp::getRhs</text>
</a>
</g>
</g>
<!-- Node30&#45;&gt;Node33 -->
<g id="edge3" class="edge"><title>Node30&#45;&gt;Node33</title>
<path fill="none" stroke="midnightblue" d="M128.097,-131.6C138.533,-130.376 149.385,-129.103 159.915,-127.868"/>
<polygon fill="midnightblue" stroke="midnightblue" points="160.362,-131.34 169.887,-126.698 159.547,-124.387 160.362,-131.34"/>
</g>
<!-- Node34 -->
<g id="node5" class="node"><title>Node34</title>
<g id="a_node5"><a xlink:href="../../dc/d43/classefd_1_1QArgsReplaceVisitor.xhtml#a0953381c6bb1aca40fc20efa2053661a" target="_top" xlink:title="efd::QArgsReplaceVisitor\l::substituteChildrem">
<polygon fill="none" stroke="black" points="164,-61 164,-91 292,-91 292,-61 164,-61"/>
<text text-anchor="start" x="172" y="-79" font-family="Helvetica,sans-Serif" font-size="10.00">efd::QArgsReplaceVisitor</text>
<text text-anchor="middle" x="228" y="-68" font-family="Helvetica,sans-Serif" font-size="10.00">::substituteChildrem</text>
</a>
</g>
</g>
<!-- Node30&#45;&gt;Node34 -->
<g id="edge4" class="edge"><title>Node30&#45;&gt;Node34</title>
<path fill="none" stroke="midnightblue" d="M103.803,-123.91C126.263,-115.176 154.728,-104.106 178.638,-94.8076"/>
<polygon fill="midnightblue" stroke="midnightblue" points="180.182,-97.9625 188.233,-91.076 177.645,-91.4385 180.182,-97.9625"/>
</g>
<!-- Node35 -->
<g id="node6" class="node"><title>Node35</title>
<g id="a_node6"><a xlink:href="../../d6/d6a/classefd_1_1Node.xhtml#a63e30243eca03b0c85d8c4856e91c79d" target="_top" xlink:title="Gets the i&#45;th child. ">
<polygon fill="none" stroke="black" points="345.5,-126.5 345.5,-145.5 446.5,-145.5 446.5,-126.5 345.5,-126.5"/>
<text text-anchor="middle" x="396" y="-133.5" font-family="Helvetica,sans-Serif" font-size="10.00">efd::Node::getChild</text>
</a>
</g>
</g>
<!-- Node34&#45;&gt;Node35 -->
<g id="edge5" class="edge"><title>Node34&#45;&gt;Node35</title>
<path fill="none" stroke="midnightblue" d="M267.749,-91.0907C275.789,-94.3022 284.19,-97.7163 292,-101 308.141,-107.786 311.536,-111.041 328,-117 334.416,-119.322 341.26,-121.544 348.03,-123.597"/>
<polygon fill="midnightblue" stroke="midnightblue" points="347.259,-127.018 357.84,-126.475 349.23,-120.301 347.259,-127.018"/>
</g>
<!-- Node36 -->
<g id="node7" class="node"><title>Node36</title>
<g id="a_node7"><a xlink:href="../../d6/d6a/classefd_1_1Node.xhtml#a11df06f4d8e590426340024cbb2db23e" target="_top" xlink:title="Returns the number of childrem of this node. ">
<polygon fill="none" stroke="black" points="328,-88.5 328,-107.5 464,-107.5 464,-88.5 328,-88.5"/>
<text text-anchor="middle" x="396" y="-95.5" font-family="Helvetica,sans-Serif" font-size="10.00">efd::Node::getChildNumber</text>
</a>
</g>
</g>
<!-- Node34&#45;&gt;Node36 -->
<g id="edge6" class="edge"><title>Node34&#45;&gt;Node36</title>
<path fill="none" stroke="midnightblue" d="M292.231,-84.38C300.595,-85.4884 309.242,-86.6345 317.808,-87.7697"/>
<polygon fill="midnightblue" stroke="midnightblue" points="317.429,-91.25 327.802,-89.0942 318.349,-84.3107 317.429,-91.25"/>
</g>
<!-- Node37 -->
<g id="node8" class="node"><title>Node37</title>
<g id="a_node8"><a xlink:href="../../dc/d43/classefd_1_1QArgsReplaceVisitor.xhtml#a9bdff8b0ac5f10cb3d8619217436ebb1" target="_top" xlink:title="efd::QArgsReplaceVisitor\l::replaceChild">
<polygon fill="none" stroke="black" points="332,-39 332,-69 460,-69 460,-39 332,-39"/>
<text text-anchor="start" x="340" y="-57" font-family="Helvetica,sans-Serif" font-size="10.00">efd::QArgsReplaceVisitor</text>
<text text-anchor="middle" x="396" y="-46" font-family="Helvetica,sans-Serif" font-size="10.00">::replaceChild</text>
</a>
</g>
</g>
<!-- Node34&#45;&gt;Node37 -->
<g id="edge7" class="edge"><title>Node34&#45;&gt;Node37</title>
<path fill="none" stroke="midnightblue" d="M292.231,-67.62C301.887,-66.3402 311.923,-65.0102 321.772,-63.7049"/>
<polygon fill="midnightblue" stroke="midnightblue" points="322.491,-67.1403 331.945,-62.3567 321.572,-60.201 322.491,-67.1403"/>
</g>
<!-- Node41 -->
<g id="node12" class="node"><title>Node41</title>
<g id="a_node12"><a xlink:href="../../d6/d6a/classefd_1_1Node.xhtml#aad4510814ff15bd26fe2f95f9d2a2279" target="_top" xlink:title="Sets the i&#45;th child. ">
<polygon fill="none" stroke="black" points="345.5,-0.5 345.5,-19.5 446.5,-19.5 446.5,-0.5 345.5,-0.5"/>
<text text-anchor="middle" x="396" y="-7.5" font-family="Helvetica,sans-Serif" font-size="10.00">efd::Node::setChild</text>
</a>
</g>
</g>
<!-- Node34&#45;&gt;Node41 -->
<g id="edge11" class="edge"><title>Node34&#45;&gt;Node41</title>
<path fill="none" stroke="midnightblue" d="M257.473,-60.9233C276.966,-50.9922 303.603,-38.177 328,-29 334.09,-26.7093 340.58,-24.5421 347.033,-22.5477"/>
<polygon fill="midnightblue" stroke="midnightblue" points="348.49,-25.7659 357.08,-19.563 346.497,-19.0558 348.49,-25.7659"/>
</g>
<!-- Node38 -->
<g id="node9" class="node"><title>Node38</title>
<g id="a_node9"><a xlink:href="../../d6/d6a/classefd_1_1Node.xhtml#a6c85c9bd21014b73497de741cc75f706" target="_top" xlink:title="Clones the current node (deep copy). ">
<polygon fill="none" stroke="black" points="509,-79.5 509,-98.5 598,-98.5 598,-79.5 509,-79.5"/>
<text text-anchor="middle" x="553.5" y="-86.5" font-family="Helvetica,sans-Serif" font-size="10.00">efd::Node::clone</text>
</a>
</g>
</g>
<!-- Node37&#45;&gt;Node38 -->
<g id="edge8" class="edge"><title>Node37&#45;&gt;Node38</title>
<path fill="none" stroke="midnightblue" d="M460.248,-68.2358C473.517,-71.2225 487.371,-74.3408 500.188,-77.2257"/>
<polygon fill="midnightblue" stroke="midnightblue" points="499.69,-80.701 510.214,-79.4823 501.227,-73.8718 499.69,-80.701"/>
</g>
<!-- Node40 -->
<g id="node11" class="node"><title>Node40</title>
<g id="a_node11"><a xlink:href="../../d6/d6a/classefd_1_1Node.xhtml#a96ca13a5c2b971b68619ce4a34be0f66" target="_top" xlink:title="Returns a std::string representation of this Node and its childrem. ">
<polygon fill="none" stroke="black" points="504,-41.5 504,-60.5 603,-60.5 603,-41.5 504,-41.5"/>
<text text-anchor="middle" x="553.5" y="-48.5" font-family="Helvetica,sans-Serif" font-size="10.00">efd::Node::toString</text>
</a>
</g>
</g>
<!-- Node37&#45;&gt;Node40 -->
<g id="edge10" class="edge"><title>Node37&#45;&gt;Node40</title>
<path fill="none" stroke="midnightblue" d="M460.248,-52.7798C471.208,-52.5683 482.566,-52.3492 493.41,-52.14"/>
<polygon fill="midnightblue" stroke="midnightblue" points="493.688,-55.6354 503.619,-51.943 493.553,-48.6367 493.688,-55.6354"/>
</g>
<!-- Node39 -->
<g id="node10" class="node"><title>Node39</title>
<g id="a_node10"><a xlink:href="../../d6/d6a/classefd_1_1Node.xhtml#ac078ce64eb404cfdc24b9288908536e4" target="_top" xlink:title="Clones the current node (deep copy). ">
<polygon fill="none" stroke="black" points="643,-79.5 643,-98.5 750,-98.5 750,-79.5 643,-79.5"/>
<text text-anchor="middle" x="696.5" y="-86.5" font-family="Helvetica,sans-Serif" font-size="10.00">efd::Node::cloneImpl</text>
</a>
</g>
</g>
<!-- Node38&#45;&gt;Node39 -->
<g id="edge9" class="edge"><title>Node38&#45;&gt;Node39</title>
<path fill="none" stroke="midnightblue" d="M598.34,-89C609.22,-89 621.093,-89 632.685,-89"/>
<polygon fill="midnightblue" stroke="midnightblue" points="632.768,-92.5001 642.768,-89 632.768,-85.5001 632.768,-92.5001"/>
</g>
<!-- Node42 -->
<g id="node13" class="node"><title>Node42</title>
<g id="a_node13"><a xlink:href="../../d6/d6a/classefd_1_1Node.xhtml#a48e9d49d994b9023b8400316e2782e2b" target="_top" xlink:title="Sets the parent node of the current node. ">
<polygon fill="none" stroke="black" points="500,-0.5 500,-19.5 607,-19.5 607,-0.5 500,-0.5"/>
<text text-anchor="middle" x="553.5" y="-7.5" font-family="Helvetica,sans-Serif" font-size="10.00">efd::Node::setParent</text>
</a>
</g>
</g>
<!-- Node41&#45;&gt;Node42 -->
<g id="edge12" class="edge"><title>Node41&#45;&gt;Node42</title>
<path fill="none" stroke="midnightblue" d="M446.629,-10C460.29,-10 475.289,-10 489.593,-10"/>
<polygon fill="midnightblue" stroke="midnightblue" points="489.856,-13.5001 499.856,-10 489.856,-6.5001 489.856,-13.5001"/>
</g>
</g>
</svg>
        <g id="navigator" transform="translate(0 0)" fill="#404254">
                <rect fill="#f2f5e9" fill-opacity="0.5" stroke="#606060" stroke-width=".5" x="0" y="0" width="60" height="60"/>
                <use id="zoomplus" xlink:href="#zoomPlus" x="17" y="9" onmousedown="handleZoom(evt,'in')"/>
                <use id="zoomminus" xlink:href="#zoomMin" x="42" y="9" onmousedown="handleZoom(evt,'out')"/>
                <use id="reset" xlink:href="#resetDef" x="30" y="36" onmousedown="handleReset()"/>
                <g id="arrowUp" xlink:href="#dirArrow" transform="translate(30 24)" onmousedown="handlePan(0,-1)">
                  <use xlink:href="#rim" fill="#404040">
                        <set attributeName="fill" to="#808080" begin="arrowUp.mouseover" end="arrowUp.mouseout"/>
                  </use>
                  <path fill="none" stroke="white" stroke-width="1.5" d="M0,-3.0v7 M-2.5,-0.5L0,-3.0L2.5,-0.5"/>
                </g>
                <g id="arrowRight" xlink:href="#dirArrow" transform="rotate(90) translate(36 -43)" onmousedown="handlePan(1,0)">
                  <use xlink:href="#rim" fill="#404040">
                        <set attributeName="fill" to="#808080" begin="arrowRight.mouseover" end="arrowRight.mouseout"/>
                  </use>
                  <path fill="none" stroke="white" stroke-width="1.5" d="M0,-3.0v7 M-2.5,-0.5L0,-3.0L2.5,-0.5"/>
                </g>
                <g id="arrowDown" xlink:href="#dirArrow" transform="rotate(180) translate(-30 -48)" onmousedown="handlePan(0,1)">
                  <use xlink:href="#rim" fill="#404040">
                        <set attributeName="fill" to="#808080" begin="arrowDown.mouseover" end="arrowDown.mouseout"/>
                  </use>
                  <path fill="none" stroke="white" stroke-width="1.5" d="M0,-3.0v7 M-2.5,-0.5L0,-3.0L2.5,-0.5"/>
                </g>
                <g id="arrowLeft" xlink:href="#dirArrow" transform="rotate(270) translate(-36 17)" onmousedown="handlePan(-1,0)">
                  <use xlink:href="#rim" fill="#404040">
                        <set attributeName="fill" to="#808080" begin="arrowLeft.mouseover" end="arrowLeft.mouseout"/>
                  </use>
                  <path fill="none" stroke="white" stroke-width="1.5" d="M0,-3.0v7 M-2.5,-0.5L0,-3.0L2.5,-0.5"/>
                </g>
        </g>
        <svg viewBox="0 0 15 15" width="100%" height="30px" preserveAspectRatio="xMaxYMin meet">
         <g id="arrow_out" transform="scale(0.3 0.3)">
          <a xlink:href="classefd_1_1QArgsReplaceVisitor_a751990ab77c10efc6d2ed53dcb14bec2_cgraph_org.svg" target="_base">
           <rect id="button" ry="5" rx="5" y="6" x="6" height="38" width="38"
                fill="#f2f5e9" fill-opacity="0.5" stroke="#606060" stroke-width="1.0"/>
           <path id="arrow"
             d="M 11.500037,31.436501 C 11.940474,20.09759 22.043105,11.32322 32.158766,21.979434 L 37.068811,17.246167 C 37.068811,17.246167 37.088388,32 37.088388,32 L 22.160133,31.978069 C 22.160133,31.978069 26.997745,27.140456 26.997745,27.140456 C 18.528582,18.264221 13.291696,25.230495 11.500037,31.436501 z"
             style="fill:#404040;"/>
          </a>
         </g>
        </svg>
</svg>
