<?xml version="1.0" encoding="UTF-8" standalone="no"?>
<!DOCTYPE svg PUBLIC "-//W3C//DTD SVG 1.1//EN"
 "http://www.w3.org/Graphics/SVG/1.1/DTD/svg11.dtd">
<!-- Generated by graphviz version 2.38.0 (20140413.2041)
 -->
<!-- Title: efd::RandomMappingFinder::find Pages: 1 -->
<svg width="404pt" height="118pt"
 viewBox="0.00 0.00 404.00 118.27" xmlns="http://www.w3.org/2000/svg" xmlns:xlink="http://www.w3.org/1999/xlink">
<g id="graph0" class="graph" transform="scale(1 1) rotate(0) translate(4 114.266)">
<title>efd::RandomMappingFinder::find</title>
<!-- Node1 -->
<g id="node1" class="node"><title>Node1</title>
<polygon fill="#bfbfbf" stroke="black" points="0,-52 0,-82 137,-82 137,-52 0,-52"/>
<text text-anchor="start" x="8" y="-70" font-family="Helvetica,sans-Serif" font-size="10.00">efd::RandomMappingFinder</text>
<text text-anchor="middle" x="68.5" y="-59" font-family="Helvetica,sans-Serif" font-size="10.00">::find</text>
</g>
<!-- Node2 -->
<g id="node2" class="node"><title>Node2</title>
<g id="a_node2"><a xlink:href="../../de/d50/classefd_1_1Opt.xhtml#af670a67c3fd6e0c5cbea732b3749fb14" target="_top" xlink:title="Gets a const reference to the value of this command line option. ">
<polygon fill="none" stroke="black" points="310,-76.5 310,-95.5 396,-95.5 396,-76.5 310,-76.5"/>
<text text-anchor="middle" x="353" y="-83.5" font-family="Helvetica,sans-Serif" font-size="10.00">efd::Opt::getVal</text>
</a>
</g>
</g>
<!-- Node1&#45;&gt;Node2 -->
<g id="edge1" class="edge"><title>Node1&#45;&gt;Node2</title>
<path fill="none" stroke="midnightblue" d="M101.773,-82.1929C121.788,-90.7634 148.312,-100.611 173,-105 217.196,-112.857 229.431,-110.35 274,-105 285.987,-103.561 298.793,-100.92 310.491,-98.0561"/>
<polygon fill="midnightblue" stroke="midnightblue" points="311.62,-101.38 320.437,-95.506 309.881,-94.5993 311.62,-101.38"/>
</g>
<!-- Node3 -->
<g id="node3" class="node"><title>Node3</title>
<g id="a_node3"><a xlink:href="../../d6/d1d/classefd_1_1Stat.xhtml#a8618606575e5c9045c0ec670fbdadaab" target="_top" xlink:title="efd::Stat::operator=">
<polygon fill="none" stroke="black" points="173,-76.5 173,-95.5 274,-95.5 274,-76.5 173,-76.5"/>
<text text-anchor="middle" x="223.5" y="-83.5" font-family="Helvetica,sans-Serif" font-size="10.00">efd::Stat::operator=</text>
</a>
</g>
</g>
<!-- Node1&#45;&gt;Node3 -->
<g id="edge2" class="edge"><title>Node1&#45;&gt;Node3</title>
<path fill="none" stroke="midnightblue" d="M137.053,-75.389C145.59,-76.4491 154.278,-77.5279 162.683,-78.5717"/>
<polygon fill="midnightblue" stroke="midnightblue" points="162.411,-82.0647 172.766,-79.8239 163.273,-75.1181 162.411,-82.0647"/>
</g>
<!-- Node4 -->
<g id="node4" class="node"><title>Node4</title>
<g id="a_node4"><a xlink:href="../../d2/dd0/RandomMappingFinder_8cpp.xhtml#af12a7d781ed0408095848485197499f3" target="_top" xlink:title="rnd">
<polygon fill="none" stroke="black" points="208.5,-38.5 208.5,-57.5 238.5,-57.5 238.5,-38.5 208.5,-38.5"/>
<text text-anchor="middle" x="223.5" y="-45.5" font-family="Helvetica,sans-Serif" font-size="10.00">rnd</text>
</a>
</g>
</g>
<!-- Node1&#45;&gt;Node4 -->
<g id="edge3" class="edge"><title>Node1&#45;&gt;Node4</title>
<path fill="none" stroke="midnightblue" d="M137.053,-58.611C158.777,-55.9133 181.477,-53.0943 198.016,-51.0405"/>
<polygon fill="midnightblue" stroke="midnightblue" points="198.901,-54.4576 208.393,-49.7518 198.038,-47.511 198.901,-54.4576"/>
</g>
<!-- Node5 -->
<g id="node5" class="node"><title>Node5</title>
<g id="a_node5"><a xlink:href="../../db/db3/classefd_1_1Graph.xhtml#aa85ea20ad74d6a7df7a52c13a9fabe2d" target="_top" xlink:title="Return the number of vertices. ">
<polygon fill="none" stroke="black" points="180.5,-0.5 180.5,-19.5 266.5,-19.5 266.5,-0.5 180.5,-0.5"/>
<text text-anchor="middle" x="223.5" y="-7.5" font-family="Helvetica,sans-Serif" font-size="10.00">efd::Graph::size</text>
</a>
</g>
</g>
<!-- Node1&#45;&gt;Node5 -->
<g id="edge5" class="edge"><title>Node1&#45;&gt;Node5</title>
<path fill="none" stroke="midnightblue" d="M110.1,-51.8747C134.113,-42.9285 164.23,-31.7083 187.244,-23.1346"/>
<polygon fill="midnightblue" stroke="midnightblue" points="188.485,-26.4075 196.634,-19.6365 186.041,-19.8479 188.485,-26.4075"/>
</g>
<!-- Node4&#45;&gt;Node2 -->
<g id="edge4" class="edge"><title>Node4&#45;&gt;Node2</title>
<path fill="none" stroke="midnightblue" d="M238.632,-52.2119C255.784,-57.324 285.478,-66.174 310.174,-73.5343"/>
<polygon fill="midnightblue" stroke="midnightblue" points="309.468,-76.9759 320.051,-76.478 311.468,-70.2675 309.468,-76.9759"/>
</g>
</g>
</svg>
