<?xml version="1.0" encoding="UTF-8" standalone="no"?>
<!DOCTYPE svg PUBLIC "-//W3C//DTD SVG 1.1//EN"
 "http://www.w3.org/Graphics/SVG/1.1/DTD/svg11.dtd">
<!-- Generated by graphviz version 2.40.1 (20161225.0304)
 -->
<!-- Title: include/enfield/Transform/Driver.h Pages: 1 -->
<!--zoomable 531 -->
<svg id="main" version="1.1" xmlns="http://www.w3.org/2000/svg" xmlns:xlink="http://www.w3.org/1999/xlink" xml:space="preserve" onload="init(evt)">
<style type="text/css"><![CDATA[
.edge:hover path { stroke: red; }
.edge:hover polygon { stroke: red; fill: red; }
]]></style>
<script type="text/javascript"><![CDATA[
var edges = document.getElementsByTagName('g');
if (edges && edges.length) {
  for (var i=0;i<edges.length;i++) {
    if (edges[i].id.substr(0,4)=='edge') {
      edges[i].setAttribute('class','edge');
    }
  }
}
]]></script>
        <defs>
                <circle id="rim" cx="0" cy="0" r="7"/>
                <circle id="rim2" cx="0" cy="0" r="3.5"/>
                <g id="zoomPlus">
                        <use xlink:href="#rim" fill="#404040">
                                <set attributeName="fill" to="#808080" begin="zoomplus.mouseover" end="zoomplus.mouseout"/>
                        </use>
                        <path d="M-4,0h8M0,-4v8" fill="none" stroke="white" stroke-width="1.5" pointer-events="none"/>
                </g>
                <g id="zoomMin">
                        <use xlink:href="#rim" fill="#404040">
                                <set attributeName="fill" to="#808080" begin="zoomminus.mouseover" end="zoomminus.mouseout"/>
                        </use>
                        <path d="M-4,0h8" fill="none" stroke="white" stroke-width="1.5" pointer-events="none"/>
                </g>
                <g id="dirArrow">
                        <path fill="none" stroke="white" stroke-width="1.5" d="M0,-3.0v7 M-2.5,-0.5L0,-3.0L2.5,-0.5"/>
                </g>
               <g id="resetDef">
                       <use xlink:href="#rim2" fill="#404040">
                               <set attributeName="fill" to="#808080" begin="reset.mouseover" end="reset.mouseout"/>
                       </use>
               </g>
        </defs>

<script type="text/javascript">
var viewWidth = 1540;
var viewHeight = 531;
var sectionId = 'dynsection-0';
</script>
<script xlink:href="../../svgpan.js"/>
<svg id="graph" class="graph">
<g id="viewport">
<title>include/enfield/Transform/Driver.h</title>
<!-- Node0 -->
<g id="node1" class="node">
<title>Node0</title>
<polygon fill="#bfbfbf" stroke="#000000" points="487.5,-492.5 487.5,-522.5 629.5,-522.5 629.5,-492.5 487.5,-492.5"/>
<text text-anchor="start" x="495.5" y="-510.5" font-family="Helvetica,sans-Serif" font-size="10.00" fill="#000000">include/enfield/Transform</text>
<text text-anchor="middle" x="558.5" y="-499.5" font-family="Helvetica,sans-Serif" font-size="10.00" fill="#000000">/Driver.h</text>
</g>
<!-- Node1 -->
<g id="node2" class="node">
<title>Node1</title>
<g id="a_node2"><a xlink:href="../../d4/d73/QModule_8h.xhtml" target="_top" xlink:title="enfield/Transform/QModule.h">
<polygon fill="none" stroke="#000000" points="1307.5,-168.5 1307.5,-187.5 1465.5,-187.5 1465.5,-168.5 1307.5,-168.5"/>
<text text-anchor="middle" x="1386.5" y="-175.5" font-family="Helvetica,sans-Serif" font-size="10.00" fill="#000000">enfield/Transform/QModule.h</text>
</a>
</g>
</g>
<!-- Node0&#45;&gt;Node1 -->
<g id="edge1" class="edge">
<title>Node0&#45;&gt;Node1</title>
<path fill="none" stroke="#191970" d="M629.6528,-505.1865C853.9567,-496.9584 1531.5,-464.5673 1531.5,-373.5 1531.5,-373.5 1531.5,-373.5 1531.5,-306.5 1531.5,-248.3354 1465.3412,-210.118 1422.4009,-191.4387"/>
<polygon fill="#191970" stroke="#191970" points="1423.6707,-188.1759 1413.0952,-187.5356 1420.9632,-194.6311 1423.6707,-188.1759"/>
</g>
<!-- Node12 -->
<g id="node13" class="node">
<title>Node12</title>
<g id="a_node13"><a xlink:href="../../da/d8e/Architectures_8h.xhtml" target="_top" xlink:title="enfield/Arch/Architectures.h">
<polygon fill="none" stroke="#000000" points="80.5,-297 80.5,-316 232.5,-316 232.5,-297 80.5,-297"/>
<text text-anchor="middle" x="156.5" y="-304" font-family="Helvetica,sans-Serif" font-size="10.00" fill="#000000">enfield/Arch/Architectures.h</text>
</a>
</g>
</g>
<!-- Node0&#45;&gt;Node12 -->
<g id="edge13" class="edge">
<title>Node0&#45;&gt;Node12</title>
<path fill="none" stroke="#191970" d="M499.992,-492.4929C434.9334,-474.2117 328.2516,-439.3998 246.5,-389 216.9277,-370.7687 188.3311,-342.0657 171.5824,-323.7724"/>
<polygon fill="#191970" stroke="#191970" points="174.0454,-321.2767 164.7598,-316.1749 168.8371,-325.9537 174.0454,-321.2767"/>
</g>
<!-- Node27 -->
<g id="node28" class="node">
<title>Node27</title>
<g id="a_node28"><a xlink:href="../../db/db1/Allocators_8h.xhtml" target="_top" xlink:title="enfield/Transform/Allocators\l/Allocators.h">
<polygon fill="none" stroke="#000000" points="481,-425.5 481,-455.5 636,-455.5 636,-425.5 481,-425.5"/>
<text text-anchor="start" x="489" y="-443.5" font-family="Helvetica,sans-Serif" font-size="10.00" fill="#000000">enfield/Transform/Allocators</text>
<text text-anchor="middle" x="558.5" y="-432.5" font-family="Helvetica,sans-Serif" font-size="10.00" fill="#000000">/Allocators.h</text>
</a>
</g>
</g>
<!-- Node0&#45;&gt;Node27 -->
<g id="edge38" class="edge">
<title>Node0&#45;&gt;Node27</title>
<path fill="none" stroke="#191970" d="M558.5,-492.2967C558.5,-484.5013 558.5,-474.7991 558.5,-465.9064"/>
<polygon fill="#191970" stroke="#191970" points="562.0001,-465.6431 558.5,-455.6432 555.0001,-465.6432 562.0001,-465.6431"/>
</g>
<!-- Node2 -->
<g id="node3" class="node">
<title>Node2</title>
<g id="a_node3"><a xlink:href="../../d4/daf/Nodes_8h.xhtml" target="_top" xlink:title="enfield/Analysis/Nodes.h">
<polygon fill="none" stroke="#000000" points="1218,-112.5 1218,-131.5 1355,-131.5 1355,-112.5 1218,-112.5"/>
<text text-anchor="middle" x="1286.5" y="-119.5" font-family="Helvetica,sans-Serif" font-size="10.00" fill="#000000">enfield/Analysis/Nodes.h</text>
</a>
</g>
</g>
<!-- Node1&#45;&gt;Node2 -->
<g id="edge2" class="edge">
<title>Node1&#45;&gt;Node2</title>
<path fill="none" stroke="#191970" d="M1369.0813,-168.2455C1353.4515,-159.4928 1330.2981,-146.527 1312.4815,-136.5496"/>
<polygon fill="#191970" stroke="#191970" points="1314.1543,-133.475 1303.7191,-131.6427 1310.734,-139.5825 1314.1543,-133.475"/>
</g>
<!-- Node10 -->
<g id="node11" class="node">
<title>Node10</title>
<g id="a_node11"><a xlink:href="../../df/d29/Pass_8h.xhtml" target="_top" xlink:title="enfield/Transform/Pass.h">
<polygon fill="none" stroke="#000000" points="1061.5,-112.5 1061.5,-131.5 1199.5,-131.5 1199.5,-112.5 1061.5,-112.5"/>
<text text-anchor="middle" x="1130.5" y="-119.5" font-family="Helvetica,sans-Serif" font-size="10.00" fill="#000000">enfield/Transform/Pass.h</text>
</a>
</g>
</g>
<!-- Node1&#45;&gt;Node10 -->
<g id="edge10" class="edge">
<title>Node1&#45;&gt;Node10</title>
<path fill="none" stroke="#191970" d="M1342.7829,-168.4369C1298.8784,-158.8328 1231.1587,-144.0191 1184.055,-133.7152"/>
<polygon fill="#191970" stroke="#191970" points="1184.5537,-130.2416 1174.0368,-131.5237 1183.0578,-137.0799 1184.5537,-130.2416"/>
</g>
<!-- Node11 -->
<g id="node12" class="node">
<title>Node11</title>
<polygon fill="none" stroke="#bfbfbf" points="1373,-112.5 1373,-131.5 1466,-131.5 1466,-112.5 1373,-112.5"/>
<text text-anchor="middle" x="1419.5" y="-119.5" font-family="Helvetica,sans-Serif" font-size="10.00" fill="#000000">unordered_map</text>
</g>
<!-- Node1&#45;&gt;Node11 -->
<g id="edge12" class="edge">
<title>Node1&#45;&gt;Node11</title>
<path fill="none" stroke="#191970" d="M1392.2482,-168.2455C1396.7435,-160.617 1403.1248,-149.7881 1408.5825,-140.5267"/>
<polygon fill="#191970" stroke="#191970" points="1411.7561,-142.035 1413.8177,-131.6427 1405.7253,-138.4811 1411.7561,-142.035"/>
</g>
<!-- Node3 -->
<g id="node4" class="node">
<title>Node3</title>
<g id="a_node4"><a xlink:href="../../d1/d2e/WrapperVal_8h.xhtml" target="_top" xlink:title="enfield/Support/WrapperVal.h">
<polygon fill="none" stroke="#000000" points="1048.5,-56.5 1048.5,-75.5 1208.5,-75.5 1208.5,-56.5 1048.5,-56.5"/>
<text text-anchor="middle" x="1128.5" y="-63.5" font-family="Helvetica,sans-Serif" font-size="10.00" fill="#000000">enfield/Support/WrapperVal.h</text>
</a>
</g>
</g>
<!-- Node2&#45;&gt;Node3 -->
<g id="edge3" class="edge">
<title>Node2&#45;&gt;Node3</title>
<path fill="none" stroke="#191970" d="M1259.3388,-112.3733C1233.2933,-103.1419 1193.7884,-89.1402 1165.0021,-78.9375"/>
<polygon fill="#191970" stroke="#191970" points="1165.9015,-75.5429 1155.3067,-75.5011 1163.563,-82.1408 1165.9015,-75.5429"/>
</g>
<!-- Node5 -->
<g id="node6" class="node">
<title>Node5</title>
<g id="a_node6"><a xlink:href="../../d5/dfc/RTTI_8h.xhtml" target="_top" xlink:title="enfield/Support/RTTI.h">
<polygon fill="none" stroke="#000000" points="1337,-56.5 1337,-75.5 1462,-75.5 1462,-56.5 1337,-56.5"/>
<text text-anchor="middle" x="1399.5" y="-63.5" font-family="Helvetica,sans-Serif" font-size="10.00" fill="#000000">enfield/Support/RTTI.h</text>
</a>
</g>
</g>
<!-- Node2&#45;&gt;Node5 -->
<g id="edge5" class="edge">
<title>Node2&#45;&gt;Node5</title>
<path fill="none" stroke="#191970" d="M1305.9254,-112.3733C1323.9021,-103.4644 1350.8441,-90.1127 1371.209,-80.0203"/>
<polygon fill="#191970" stroke="#191970" points="1372.9222,-83.0776 1380.3281,-75.5011 1369.8139,-76.8055 1372.9222,-83.0776"/>
</g>
<!-- Node6 -->
<g id="node7" class="node">
<title>Node6</title>
<polygon fill="none" stroke="#bfbfbf" points="1236,-56.5 1236,-75.5 1319,-75.5 1319,-56.5 1236,-56.5"/>
<text text-anchor="middle" x="1277.5" y="-63.5" font-family="Helvetica,sans-Serif" font-size="10.00" fill="#000000">initializer_list</text>
</g>
<!-- Node2&#45;&gt;Node6 -->
<g id="edge6" class="edge">
<title>Node2&#45;&gt;Node6</title>
<path fill="none" stroke="#191970" d="M1284.9323,-112.2455C1283.7579,-104.9382 1282.1116,-94.6944 1280.6668,-85.7046"/>
<polygon fill="#191970" stroke="#191970" points="1284.0922,-84.9606 1279.0497,-75.6427 1277.1809,-86.0714 1284.0922,-84.9606"/>
</g>
<!-- Node7 -->
<g id="node8" class="node">
<title>Node7</title>
<polygon fill="none" stroke="#bfbfbf" points="861.5,-56.5 861.5,-75.5 921.5,-75.5 921.5,-56.5 861.5,-56.5"/>
<text text-anchor="middle" x="891.5" y="-63.5" font-family="Helvetica,sans-Serif" font-size="10.00" fill="#000000">iostream</text>
</g>
<!-- Node2&#45;&gt;Node7 -->
<g id="edge7" class="edge">
<title>Node2&#45;&gt;Node7</title>
<path fill="none" stroke="#191970" d="M1217.9342,-113.1555C1133.9161,-102.2468 996.4508,-84.1492 945.5,-76 941.0368,-75.2861 936.3749,-74.4938 931.7408,-73.6764"/>
<polygon fill="#191970" stroke="#191970" points="932.1916,-70.2013 921.7286,-71.868 930.9473,-77.0898 932.1916,-70.2013"/>
</g>
<!-- Node8 -->
<g id="node9" class="node">
<title>Node8</title>
<polygon fill="none" stroke="#bfbfbf" points="624,-56.5 624,-75.5 671,-75.5 671,-56.5 624,-56.5"/>
<text text-anchor="middle" x="647.5" y="-63.5" font-family="Helvetica,sans-Serif" font-size="10.00" fill="#000000">vector</text>
</g>
<!-- Node2&#45;&gt;Node8 -->
<g id="edge8" class="edge">
<title>Node2&#45;&gt;Node8</title>
<path fill="none" stroke="#191970" d="M1217.6164,-112.9954C1214.5369,-112.6475 1211.4871,-112.3138 1208.5,-112 1008.8452,-91.0272 768.3652,-74.0925 681.1503,-68.2205"/>
<polygon fill="#191970" stroke="#191970" points="681.2629,-64.7203 671.0513,-67.544 680.795,-71.7047 681.2629,-64.7203"/>
</g>
<!-- Node9 -->
<g id="node10" class="node">
<title>Node9</title>
<polygon fill="none" stroke="#bfbfbf" points="954.5,-56.5 954.5,-75.5 1012.5,-75.5 1012.5,-56.5 954.5,-56.5"/>
<text text-anchor="middle" x="983.5" y="-63.5" font-family="Helvetica,sans-Serif" font-size="10.00" fill="#000000">memory</text>
</g>
<!-- Node2&#45;&gt;Node9 -->
<g id="edge9" class="edge">
<title>Node2&#45;&gt;Node9</title>
<path fill="none" stroke="#191970" d="M1234.7567,-112.4369C1174.5752,-101.3142 1076.5876,-83.2043 1022.4797,-73.2042"/>
<polygon fill="#191970" stroke="#191970" points="1023.0563,-69.7515 1012.5867,-71.3758 1021.7841,-76.635 1023.0563,-69.7515"/>
</g>
<!-- Node4 -->
<g id="node5" class="node">
<title>Node4</title>
<polygon fill="none" stroke="#bfbfbf" points="511.5,-.5 511.5,-19.5 555.5,-19.5 555.5,-.5 511.5,-.5"/>
<text text-anchor="middle" x="533.5" y="-7.5" font-family="Helvetica,sans-Serif" font-size="10.00" fill="#000000">string</text>
</g>
<!-- Node3&#45;&gt;Node4 -->
<g id="edge4" class="edge">
<title>Node3&#45;&gt;Node4</title>
<path fill="none" stroke="#191970" d="M1048.2557,-58.4476C915.661,-45.9681 656.4653,-21.5732 565.7683,-13.037"/>
<polygon fill="#191970" stroke="#191970" points="565.8469,-9.529 555.5629,-12.0765 565.1909,-16.4982 565.8469,-9.529"/>
</g>
<!-- Node10&#45;&gt;Node9 -->
<g id="edge11" class="edge">
<title>Node10&#45;&gt;Node9</title>
<path fill="none" stroke="#191970" d="M1105.2298,-112.3733C1081.1034,-103.1822 1044.5638,-89.2624 1017.8123,-79.0713"/>
<polygon fill="#191970" stroke="#191970" points="1019.0313,-75.7904 1008.4404,-75.5011 1016.5393,-82.3318 1019.0313,-75.7904"/>
</g>
<!-- Node13 -->
<g id="node14" class="node">
<title>Node13</title>
<g id="a_node14"><a xlink:href="../../d7/d9d/ArchGraph_8h.xhtml" target="_top" xlink:title="enfield/Arch/ArchGraph.h">
<polygon fill="none" stroke="#000000" points="759.5,-230 759.5,-249 897.5,-249 897.5,-230 759.5,-230"/>
<text text-anchor="middle" x="828.5" y="-237" font-family="Helvetica,sans-Serif" font-size="10.00" fill="#000000">enfield/Arch/ArchGraph.h</text>
</a>
</g>
</g>
<!-- Node12&#45;&gt;Node13 -->
<g id="edge14" class="edge">
<title>Node12&#45;&gt;Node13</title>
<path fill="none" stroke="#191970" d="M232.6064,-298.912C360.7463,-286.1362 618.3261,-260.4548 748.8253,-247.4438"/>
<polygon fill="#191970" stroke="#191970" points="749.5395,-250.89 759.1429,-246.4151 748.8449,-243.9245 749.5395,-250.89"/>
</g>
<!-- Node16 -->
<g id="node17" class="node">
<title>Node16</title>
<g id="a_node17"><a xlink:href="../../da/d66/Registry_8h.xhtml" target="_top" xlink:title="enfield/Support/Registry.h">
<polygon fill="none" stroke="#000000" points="408,-230 408,-249 551,-249 551,-230 408,-230"/>
<text text-anchor="middle" x="479.5" y="-237" font-family="Helvetica,sans-Serif" font-size="10.00" fill="#000000">enfield/Support/Registry.h</text>
</a>
</g>
</g>
<!-- Node12&#45;&gt;Node16 -->
<g id="edge21" class="edge">
<title>Node12&#45;&gt;Node16</title>
<path fill="none" stroke="#191970" d="M202.435,-296.9717C260.592,-284.9082 360.7354,-264.1354 423.365,-251.1441"/>
<polygon fill="#191970" stroke="#191970" points="424.3816,-254.5078 433.4623,-249.0496 422.9598,-247.6537 424.3816,-254.5078"/>
</g>
<!-- Node17 -->
<g id="node18" class="node">
<title>Node17</title>
<g id="a_node18"><a xlink:href="../../dd/d62/EnumString_8h.xhtml" target="_top" xlink:title="enfield/Support/EnumString.h">
<polygon fill="none" stroke="#000000" points="170,-168.5 170,-187.5 329,-187.5 329,-168.5 170,-168.5"/>
<text text-anchor="middle" x="249.5" y="-175.5" font-family="Helvetica,sans-Serif" font-size="10.00" fill="#000000">enfield/Support/EnumString.h</text>
</a>
</g>
</g>
<!-- Node12&#45;&gt;Node17 -->
<g id="edge36" class="edge">
<title>Node12&#45;&gt;Node17</title>
<path fill="none" stroke="#191970" d="M162.9853,-296.716C173.3755,-281.1329 194.5165,-249.8014 213.5,-224 220.4583,-214.5426 228.4863,-204.2306 235.1931,-195.7715"/>
<polygon fill="#191970" stroke="#191970" points="238.1006,-197.7393 241.6038,-187.7404 232.6298,-193.3723 238.1006,-197.7393"/>
</g>
<!-- Node26 -->
<g id="node27" class="node">
<title>Node26</title>
<g id="a_node27"><a xlink:href="../../d4/d7d/Architectures_8def.xhtml" target="_top" xlink:title="enfield/Arch/Architectures.def">
<polygon fill="none" stroke="#000000" points="0,-230 0,-249 161,-249 161,-230 0,-230"/>
<text text-anchor="middle" x="80.5" y="-237" font-family="Helvetica,sans-Serif" font-size="10.00" fill="#000000">enfield/Arch/Architectures.def</text>
</a>
</g>
</g>
<!-- Node12&#45;&gt;Node26 -->
<g id="edge37" class="edge">
<title>Node12&#45;&gt;Node26</title>
<path fill="none" stroke="#191970" d="M145.6111,-296.9005C133.5338,-286.2535 113.8329,-268.8856 99.26,-256.0385"/>
<polygon fill="#191970" stroke="#191970" points="101.1846,-253.0692 91.3687,-249.0817 96.5555,-258.3201 101.1846,-253.0692"/>
</g>
<!-- Node13&#45;&gt;Node2 -->
<g id="edge20" class="edge">
<title>Node13&#45;&gt;Node2</title>
<path fill="none" stroke="#191970" d="M849.2406,-229.9518C883.1244,-214.7151 952.7708,-184.9023 1014.5,-168 1050.5283,-158.135 1143.6431,-143.2125 1210.8964,-133.0589"/>
<polygon fill="#191970" stroke="#191970" points="1211.6695,-136.4821 1221.038,-131.5343 1210.6287,-129.5599 1211.6695,-136.4821"/>
</g>
<!-- Node14 -->
<g id="node15" class="node">
<title>Node14</title>
<g id="a_node15"><a xlink:href="../../d7/d16/Graph_8h.xhtml" target="_top" xlink:title="enfield/Support/Graph.h">
<polygon fill="none" stroke="#000000" points="797.5,-168.5 797.5,-187.5 929.5,-187.5 929.5,-168.5 797.5,-168.5"/>
<text text-anchor="middle" x="863.5" y="-175.5" font-family="Helvetica,sans-Serif" font-size="10.00" fill="#000000">enfield/Support/Graph.h</text>
</a>
</g>
</g>
<!-- Node13&#45;&gt;Node14 -->
<g id="edge15" class="edge">
<title>Node13&#45;&gt;Node14</title>
<path fill="none" stroke="#191970" d="M833.9688,-229.8906C839.0246,-221.0068 846.6772,-207.5601 852.9254,-196.5811"/>
<polygon fill="#191970" stroke="#191970" points="856.0498,-198.1672 857.9541,-187.7449 849.966,-194.7048 856.0498,-198.1672"/>
</g>
<!-- Node14&#45;&gt;Node8 -->
<g id="edge17" class="edge">
<title>Node14&#45;&gt;Node8</title>
<path fill="none" stroke="#191970" d="M845.084,-168.4509C807.0651,-148.7375 719.7183,-103.4465 674.9905,-80.2543"/>
<polygon fill="#191970" stroke="#191970" points="676.3581,-77.021 665.8694,-75.5249 673.1359,-83.2353 676.3581,-77.021"/>
</g>
<!-- Node14&#45;&gt;Node9 -->
<g id="edge19" class="edge">
<title>Node14&#45;&gt;Node9</title>
<path fill="none" stroke="#191970" d="M903.6666,-168.434C924.5133,-161.539 948.8298,-150.1627 964.5,-132 975.5629,-119.1774 980.1987,-100.2673 982.1336,-85.9715"/>
<polygon fill="#191970" stroke="#191970" points="985.6484,-86.0029 983.1776,-75.7002 978.6843,-85.295 985.6484,-86.0029"/>
</g>
<!-- Node14&#45;&gt;Node11 -->
<g id="edge18" class="edge">
<title>Node14&#45;&gt;Node11</title>
<path fill="none" stroke="#191970" d="M929.7631,-173.787C1023.887,-167.3874 1201.8833,-153.7559 1362.6618,-132.1594"/>
<polygon fill="#191970" stroke="#191970" points="1363.2984,-135.6052 1372.737,-130.7924 1362.3572,-128.6688 1363.2984,-135.6052"/>
</g>
<!-- Node15 -->
<g id="node16" class="node">
<title>Node15</title>
<polygon fill="none" stroke="#bfbfbf" points="1011.5,-112.5 1011.5,-131.5 1043.5,-131.5 1043.5,-112.5 1011.5,-112.5"/>
<text text-anchor="middle" x="1027.5" y="-119.5" font-family="Helvetica,sans-Serif" font-size="10.00" fill="#000000">set</text>
</g>
<!-- Node14&#45;&gt;Node15 -->
<g id="edge16" class="edge">
<title>Node14&#45;&gt;Node15</title>
<path fill="none" stroke="#191970" d="M891.6926,-168.3733C922.4957,-157.8551 971.4354,-141.144 1001.3902,-130.9155"/>
<polygon fill="#191970" stroke="#191970" points="1002.8005,-134.1325 1011.133,-127.5887 1000.5385,-127.508 1002.8005,-134.1325"/>
</g>
<!-- Node16&#45;&gt;Node4 -->
<g id="edge35" class="edge">
<title>Node16&#45;&gt;Node4</title>
<path fill="none" stroke="#191970" d="M475.1275,-229.7733C469.4995,-216.0052 460.9562,-190.0518 465.5,-168 476.4979,-114.6258 506.3691,-57.0611 522.6184,-28.4009"/>
<polygon fill="#191970" stroke="#191970" points="525.7751,-29.9334 527.7446,-19.5232 519.7131,-26.433 525.7751,-29.9334"/>
</g>
<!-- Node16&#45;&gt;Node7 -->
<g id="edge32" class="edge">
<title>Node16&#45;&gt;Node7</title>
<path fill="none" stroke="#191970" d="M475.5745,-229.9834C470.1161,-215.0568 462.3957,-185.9907 476.5,-168 522.9377,-108.7667 756.446,-79.3541 851.3279,-69.7001"/>
<polygon fill="#191970" stroke="#191970" points="851.7931,-73.1711 861.3969,-68.6971 851.0992,-66.2056 851.7931,-73.1711"/>
</g>
<!-- Node16&#45;&gt;Node17 -->
<g id="edge22" class="edge">
<title>Node16&#45;&gt;Node17</title>
<path fill="none" stroke="#191970" d="M443.8149,-229.9581C403.7807,-219.2533 338.7429,-201.8628 295.065,-190.1837"/>
<polygon fill="#191970" stroke="#191970" points="295.8336,-186.7663 285.2689,-187.5643 294.0253,-193.5287 295.8336,-186.7663"/>
</g>
<!-- Node18 -->
<g id="node19" class="node">
<title>Node18</title>
<g id="a_node19"><a xlink:href="../../d1/d73/Defs_8h.xhtml" target="_top" xlink:title="enfield/Support/Defs.h">
<polygon fill="none" stroke="#000000" points="282,-112.5 282,-131.5 407,-131.5 407,-112.5 282,-112.5"/>
<text text-anchor="middle" x="344.5" y="-119.5" font-family="Helvetica,sans-Serif" font-size="10.00" fill="#000000">enfield/Support/Defs.h</text>
</a>
</g>
</g>
<!-- Node16&#45;&gt;Node18 -->
<g id="edge31" class="edge">
<title>Node16&#45;&gt;Node18</title>
<path fill="none" stroke="#191970" d="M463.7629,-229.9603C448.2699,-220.2508 424.2696,-204.3422 405.5,-188 388.154,-172.8973 370.5591,-153.3046 358.7531,-139.4"/>
<polygon fill="#191970" stroke="#191970" points="361.3042,-136.9945 352.2043,-131.5684 355.9342,-141.485 361.3042,-136.9945"/>
</g>
<!-- Node24 -->
<g id="node25" class="node">
<title>Node24</title>
<polygon fill="none" stroke="#bfbfbf" points="1023.5,-168.5 1023.5,-187.5 1061.5,-187.5 1061.5,-168.5 1023.5,-168.5"/>
<text text-anchor="middle" x="1042.5" y="-175.5" font-family="Helvetica,sans-Serif" font-size="10.00" fill="#000000">map</text>
</g>
<!-- Node16&#45;&gt;Node24 -->
<g id="edge33" class="edge">
<title>Node16&#45;&gt;Node24</title>
<path fill="none" stroke="#191970" d="M551.09,-231.6798C675.7742,-218.0597 927.6574,-190.545 1013.2606,-181.194"/>
<polygon fill="#191970" stroke="#191970" points="1013.7481,-184.6617 1023.3088,-180.0964 1012.9879,-177.7031 1013.7481,-184.6617"/>
</g>
<!-- Node25 -->
<g id="node26" class="node">
<title>Node25</title>
<polygon fill="none" stroke="#bfbfbf" points="486,-168.5 486,-187.5 551,-187.5 551,-168.5 486,-168.5"/>
<text text-anchor="middle" x="518.5" y="-175.5" font-family="Helvetica,sans-Serif" font-size="10.00" fill="#000000">functional</text>
</g>
<!-- Node16&#45;&gt;Node25 -->
<g id="edge34" class="edge">
<title>Node16&#45;&gt;Node25</title>
<path fill="none" stroke="#191970" d="M485.5938,-229.8906C491.2843,-220.917 499.9272,-207.2879 506.9274,-196.2491"/>
<polygon fill="#191970" stroke="#191970" points="509.9207,-198.0644 512.3203,-187.7449 504.0091,-194.3155 509.9207,-198.0644"/>
</g>
<!-- Node17&#45;&gt;Node8 -->
<g id="edge28" class="edge">
<title>Node17&#45;&gt;Node8</title>
<path fill="none" stroke="#191970" d="M284.1744,-168.4656C317.7706,-159.2102 370.1526,-144.7332 415.5,-132 486.192,-112.1502 568.8836,-88.5294 613.9735,-75.6154"/>
<polygon fill="#191970" stroke="#191970" points="615.1532,-78.9183 623.8024,-72.7993 613.2252,-72.1891 615.1532,-78.9183"/>
</g>
<!-- Node17&#45;&gt;Node18 -->
<g id="edge23" class="edge">
<title>Node17&#45;&gt;Node18</title>
<path fill="none" stroke="#191970" d="M266.0477,-168.2455C280.7599,-159.5731 302.4888,-146.7645 319.3505,-136.825"/>
<polygon fill="#191970" stroke="#191970" points="321.3046,-139.736 328.1419,-131.6427 317.7498,-133.7057 321.3046,-139.736"/>
</g>
<!-- Node22 -->
<g id="node23" class="node">
<title>Node22</title>
<polygon fill="none" stroke="#bfbfbf" points="199.5,-112.5 199.5,-131.5 263.5,-131.5 263.5,-112.5 199.5,-112.5"/>
<text text-anchor="middle" x="231.5" y="-119.5" font-family="Helvetica,sans-Serif" font-size="10.00" fill="#000000">algorithm</text>
</g>
<!-- Node17&#45;&gt;Node22 -->
<g id="edge29" class="edge">
<title>Node17&#45;&gt;Node22</title>
<path fill="none" stroke="#191970" d="M246.3646,-168.2455C243.99,-160.8579 240.6507,-150.4689 237.7385,-141.4087"/>
<polygon fill="#191970" stroke="#191970" points="240.9917,-140.0919 234.5994,-131.6427 234.3275,-142.234 240.9917,-140.0919"/>
</g>
<!-- Node23 -->
<g id="node24" class="node">
<title>Node23</title>
<polygon fill="none" stroke="#bfbfbf" points="124,-112.5 124,-131.5 181,-131.5 181,-112.5 124,-112.5"/>
<text text-anchor="middle" x="152.5" y="-119.5" font-family="Helvetica,sans-Serif" font-size="10.00" fill="#000000">typeinfo</text>
</g>
<!-- Node17&#45;&gt;Node23 -->
<g id="edge30" class="edge">
<title>Node17&#45;&gt;Node23</title>
<path fill="none" stroke="#191970" d="M232.6039,-168.2455C217.582,-159.5731 195.3957,-146.7645 178.179,-136.825"/>
<polygon fill="#191970" stroke="#191970" points="179.6128,-133.6114 169.2025,-131.6427 176.1129,-139.6737 179.6128,-133.6114"/>
</g>
<!-- Node18&#45;&gt;Node8 -->
<g id="edge24" class="edge">
<title>Node18&#45;&gt;Node8</title>
<path fill="none" stroke="#191970" d="M396.2433,-112.4369C458.5181,-100.9273 561.2749,-81.936 614.0038,-72.1907"/>
<polygon fill="#191970" stroke="#191970" points="614.6584,-75.6291 623.8557,-70.3699 613.3861,-68.7457 614.6584,-75.6291"/>
</g>
<!-- Node19 -->
<g id="node20" class="node">
<title>Node19</title>
<polygon fill="none" stroke="#bfbfbf" points="295.5,-56.5 295.5,-75.5 345.5,-75.5 345.5,-56.5 295.5,-56.5"/>
<text text-anchor="middle" x="320.5" y="-63.5" font-family="Helvetica,sans-Serif" font-size="10.00" fill="#000000">cstdint</text>
</g>
<!-- Node18&#45;&gt;Node19 -->
<g id="edge25" class="edge">
<title>Node18&#45;&gt;Node19</title>
<path fill="none" stroke="#191970" d="M340.3195,-112.2455C337.119,-104.7776 332.604,-94.2427 328.6916,-85.1137"/>
<polygon fill="#191970" stroke="#191970" points="331.7888,-83.4554 324.6326,-75.6427 325.3548,-86.2129 331.7888,-83.4554"/>
</g>
<!-- Node20 -->
<g id="node21" class="node">
<title>Node20</title>
<polygon fill="none" stroke="#bfbfbf" points="363.5,-56.5 363.5,-75.5 407.5,-75.5 407.5,-56.5 363.5,-56.5"/>
<text text-anchor="middle" x="385.5" y="-63.5" font-family="Helvetica,sans-Serif" font-size="10.00" fill="#000000">limits</text>
</g>
<!-- Node18&#45;&gt;Node20 -->
<g id="edge26" class="edge">
<title>Node18&#45;&gt;Node20</title>
<path fill="none" stroke="#191970" d="M351.6417,-112.2455C357.3444,-104.4564 365.49,-93.3308 372.3625,-83.9439"/>
<polygon fill="#191970" stroke="#191970" points="375.3568,-85.7789 378.4402,-75.6427 369.7087,-81.6437 375.3568,-85.7789"/>
</g>
<!-- Node21 -->
<g id="node22" class="node">
<title>Node21</title>
<polygon fill="none" stroke="#bfbfbf" points="220,-56.5 220,-75.5 277,-75.5 277,-56.5 220,-56.5"/>
<text text-anchor="middle" x="248.5" y="-63.5" font-family="Helvetica,sans-Serif" font-size="10.00" fill="#000000">ostream</text>
</g>
<!-- Node18&#45;&gt;Node21 -->
<g id="edge27" class="edge">
<title>Node18&#45;&gt;Node21</title>
<path fill="none" stroke="#191970" d="M327.7781,-112.2455C312.9111,-103.5731 290.9534,-90.7645 273.9142,-80.825"/>
<polygon fill="#191970" stroke="#191970" points="275.4317,-77.6582 265.0303,-75.6427 271.9045,-83.7047 275.4317,-77.6582"/>
</g>
<!-- Node27&#45;&gt;Node13 -->
<g id="edge39" class="edge">
<title>Node27&#45;&gt;Node13</title>
<path fill="none" stroke="#191970" d="M636.0037,-435.3758C703.7336,-429.1439 794.8436,-415.9167 818.5,-389 850.4514,-352.6451 841.2403,-290.1631 833.8228,-258.7371"/>
<polygon fill="#191970" stroke="#191970" points="837.2052,-257.8364 831.3443,-249.0102 830.422,-259.5648 837.2052,-257.8364"/>
</g>
<!-- Node27&#45;&gt;Node16 -->
<g id="edge67" class="edge">
<title>Node27&#45;&gt;Node16</title>
<path fill="none" stroke="#191970" d="M514.7587,-425.4993C498.1543,-417.424 480.9756,-405.6204 471.5,-389 447.8815,-347.5725 462.2255,-288.7385 472.2495,-258.7257"/>
<polygon fill="#191970" stroke="#191970" points="475.6341,-259.6528 475.6688,-249.058 469.0347,-257.3186 475.6341,-259.6528"/>
</g>
<!-- Node27&#45;&gt;Node17 -->
<g id="edge68" class="edge">
<title>Node27&#45;&gt;Node17</title>
<path fill="none" stroke="#191970" d="M500.192,-425.4686C425.5472,-402.6979 299.5365,-351.5098 246.5,-255 236.8676,-237.472 239.5086,-214.1562 243.3731,-197.7903"/>
<polygon fill="#191970" stroke="#191970" points="246.8629,-198.2949 246.1082,-187.727 240.108,-196.459 246.8629,-198.2949"/>
</g>
<!-- Node28 -->
<g id="node29" class="node">
<title>Node28</title>
<g id="a_node29"><a xlink:href="../../dd/d3b/QbitAllocator_8h.xhtml" target="_top" xlink:title="enfield/Transform/Allocators\l/QbitAllocator.h">
<polygon fill="none" stroke="#000000" points="654,-358.5 654,-388.5 809,-388.5 809,-358.5 654,-358.5"/>
<text text-anchor="start" x="662" y="-376.5" font-family="Helvetica,sans-Serif" font-size="10.00" fill="#000000">enfield/Transform/Allocators</text>
<text text-anchor="middle" x="731.5" y="-365.5" font-family="Helvetica,sans-Serif" font-size="10.00" fill="#000000">/QbitAllocator.h</text>
</a>
</g>
</g>
<!-- Node27&#45;&gt;Node28 -->
<g id="edge40" class="edge">
<title>Node27&#45;&gt;Node28</title>
<path fill="none" stroke="#191970" d="M597.3246,-425.4639C622.6113,-415.6708 655.8029,-402.8162 682.8468,-392.3426"/>
<polygon fill="#191970" stroke="#191970" points="684.445,-395.477 692.5061,-388.6017 681.917,-388.9494 684.445,-395.477"/>
</g>
<!-- Node34 -->
<g id="node35" class="node">
<title>Node34</title>
<g id="a_node35"><a xlink:href="../../d1/d9a/Allocators_8def.xhtml" target="_top" xlink:title="enfield/Transform/Allocators\l/Allocators.def">
<polygon fill="none" stroke="#000000" points="481,-358.5 481,-388.5 636,-388.5 636,-358.5 481,-358.5"/>
<text text-anchor="start" x="489" y="-376.5" font-family="Helvetica,sans-Serif" font-size="10.00" fill="#000000">enfield/Transform/Allocators</text>
<text text-anchor="middle" x="558.5" y="-365.5" font-family="Helvetica,sans-Serif" font-size="10.00" fill="#000000">/Allocators.def</text>
</a>
</g>
</g>
<!-- Node27&#45;&gt;Node34 -->
<g id="edge69" class="edge">
<title>Node27&#45;&gt;Node34</title>
<path fill="none" stroke="#191970" d="M558.5,-425.2967C558.5,-417.5013 558.5,-407.7991 558.5,-398.9064"/>
<polygon fill="#191970" stroke="#191970" points="562.0001,-398.6431 558.5,-388.6432 555.0001,-398.6432 562.0001,-398.6431"/>
</g>
<!-- Node28&#45;&gt;Node13 -->
<g id="edge41" class="edge">
<title>Node28&#45;&gt;Node13</title>
<path fill="none" stroke="#191970" d="M742.4386,-358.389C760.433,-333.5307 796.2016,-284.1184 815.4747,-257.4937"/>
<polygon fill="#191970" stroke="#191970" points="818.5191,-259.2569 821.5477,-249.1042 812.8488,-255.1523 818.5191,-259.2569"/>
</g>
<!-- Node29 -->
<g id="node30" class="node">
<title>Node29</title>
<g id="a_node30"><a xlink:href="../../d9/dcf/DependencyBuilderPass_8h.xhtml" target="_top" xlink:title="enfield/Transform/Dependency\lBuilderPass.h">
<polygon fill="none" stroke="#000000" points="1002,-291.5 1002,-321.5 1169,-321.5 1169,-291.5 1002,-291.5"/>
<text text-anchor="start" x="1010" y="-309.5" font-family="Helvetica,sans-Serif" font-size="10.00" fill="#000000">enfield/Transform/Dependency</text>
<text text-anchor="middle" x="1085.5" y="-298.5" font-family="Helvetica,sans-Serif" font-size="10.00" fill="#000000">BuilderPass.h</text>
</a>
</g>
</g>
<!-- Node28&#45;&gt;Node29 -->
<g id="edge42" class="edge">
<title>Node28&#45;&gt;Node29</title>
<path fill="none" stroke="#191970" d="M809.1868,-358.7966C864.4046,-348.3457 938.6882,-334.2864 996.3276,-323.3773"/>
<polygon fill="#191970" stroke="#191970" points="996.9824,-326.8155 1006.1571,-321.5169 995.6806,-319.9376 996.9824,-326.8155"/>
</g>
<!-- Node31 -->
<g id="node32" class="node">
<title>Node31</title>
<g id="a_node32"><a xlink:href="../../d9/d41/CommandLine_8h.xhtml" target="_top" xlink:title="enfield/Support/CommandLine.h">
<polygon fill="none" stroke="#000000" points="530,-297 530,-316 703,-316 703,-297 530,-297"/>
<text text-anchor="middle" x="616.5" y="-304" font-family="Helvetica,sans-Serif" font-size="10.00" fill="#000000">enfield/Support/CommandLine.h</text>
</a>
</g>
</g>
<!-- Node28&#45;&gt;Node31 -->
<g id="edge58" class="edge">
<title>Node28&#45;&gt;Node31</title>
<path fill="none" stroke="#191970" d="M705.6918,-358.4639C686.5701,-347.3234 660.6483,-332.2212 641.6782,-321.1691"/>
<polygon fill="#191970" stroke="#191970" points="643.3868,-318.1138 632.9843,-316.1039 639.8629,-324.1622 643.3868,-318.1138"/>
</g>
<!-- Node33 -->
<g id="node34" class="node">
<title>Node33</title>
<g id="a_node34"><a xlink:href="../../dc/d09/Stats_8h.xhtml" target="_top" xlink:title="enfield/Support/Stats.h">
<polygon fill="none" stroke="#000000" points="827.5,-112.5 827.5,-131.5 955.5,-131.5 955.5,-112.5 827.5,-112.5"/>
<text text-anchor="middle" x="891.5" y="-119.5" font-family="Helvetica,sans-Serif" font-size="10.00" fill="#000000">enfield/Support/Stats.h</text>
</a>
</g>
</g>
<!-- Node28&#45;&gt;Node33 -->
<g id="edge64" class="edge">
<title>Node28&#45;&gt;Node33</title>
<path fill="none" stroke="#191970" d="M731.1335,-358.0856C730.9731,-330.3282 732.9274,-270.5014 750.5,-224 761.1325,-195.8639 765.443,-187.3149 788.5,-168 806.0461,-153.3016 829.0396,-142.4362 848.8493,-134.9677"/>
<polygon fill="#191970" stroke="#191970" points="850.0573,-138.2527 858.2805,-131.5722 847.6861,-131.6666 850.0573,-138.2527"/>
</g>
<!-- Node29&#45;&gt;Node1 -->
<g id="edge45" class="edge">
<title>Node29&#45;&gt;Node1</title>
<path fill="none" stroke="#191970" d="M1169.0064,-294.6755C1208.251,-286.9362 1254.8036,-274.5172 1293.5,-255 1324.0128,-239.6103 1353.3796,-212.5936 1370.6852,-195.0005"/>
<polygon fill="#191970" stroke="#191970" points="1373.3394,-197.2898 1377.7484,-187.6559 1368.294,-192.4376 1373.3394,-197.2898"/>
</g>
<!-- Node29&#45;&gt;Node2 -->
<g id="edge43" class="edge">
<title>Node29&#45;&gt;Node2</title>
<path fill="none" stroke="#191970" d="M1165.1301,-291.4489C1204.798,-282.3553 1247.1171,-269.6914 1260.5,-255 1289.0336,-223.6765 1290.2883,-170.6029 1288.5238,-141.8833"/>
<polygon fill="#191970" stroke="#191970" points="1292.0067,-141.5295 1287.7182,-131.8415 1285.0292,-142.0893 1292.0067,-141.5295"/>
</g>
<!-- Node29&#45;&gt;Node8 -->
<g id="edge56" class="edge">
<title>Node29&#45;&gt;Node8</title>
<path fill="none" stroke="#191970" d="M1057.4157,-291.3408C1022.7853,-273.1731 961.7198,-242.8302 906.5,-224 838.7426,-200.8943 813.6216,-219.8332 749.5,-188 714.7386,-170.7427 706.9361,-162.1505 682.5,-132 670.9165,-117.7078 661.4243,-98.9914 655.262,-85.1413"/>
<polygon fill="#191970" stroke="#191970" points="658.3589,-83.4804 651.2193,-75.6525 651.919,-86.2242 658.3589,-83.4804"/>
</g>
<!-- Node29&#45;&gt;Node10 -->
<g id="edge44" class="edge">
<title>Node29&#45;&gt;Node10</title>
<path fill="none" stroke="#191970" d="M1088.8963,-291.2696C1092.6183,-274.6949 1098.8178,-247.4252 1104.5,-224 1111.5111,-195.0963 1120.1161,-161.7181 1125.4547,-141.2365"/>
<polygon fill="#191970" stroke="#191970" points="1128.8454,-142.1042 1127.9883,-131.5441 1122.073,-140.3338 1128.8454,-142.1042"/>
</g>
<!-- Node29&#45;&gt;Node11 -->
<g id="edge54" class="edge">
<title>Node29&#45;&gt;Node11</title>
<path fill="none" stroke="#191970" d="M1169.0114,-293.8049C1273.0666,-275.9689 1441.2931,-239.7753 1474.5,-188 1486.5106,-169.2734 1465.8545,-149.9635 1446.5205,-137.1071"/>
<polygon fill="#191970" stroke="#191970" points="1448.1854,-134.0202 1437.8524,-131.6796 1444.4705,-139.9531 1448.1854,-134.0202"/>
</g>
<!-- Node29&#45;&gt;Node15 -->
<g id="edge57" class="edge">
<title>Node29&#45;&gt;Node15</title>
<path fill="none" stroke="#191970" d="M1072.6134,-291.3016C1055.4068,-269.9046 1025.7863,-228.9221 1014.5,-188 1010.1879,-172.3652 1014.38,-154.2708 1019.1185,-140.9864"/>
<polygon fill="#191970" stroke="#191970" points="1022.4467,-142.0884 1022.8838,-131.5026 1015.9407,-139.5053 1022.4467,-142.0884"/>
</g>
<!-- Node29&#45;&gt;Node24 -->
<g id="edge55" class="edge">
<title>Node29&#45;&gt;Node24</title>
<path fill="none" stroke="#191970" d="M1080.3985,-291.2548C1072.5732,-267.87 1057.6125,-223.1619 1049.0141,-197.4665"/>
<polygon fill="#191970" stroke="#191970" points="1052.2504,-196.1082 1045.7579,-187.7358 1045.6122,-198.3296 1052.2504,-196.1082"/>
</g>
<!-- Node30 -->
<g id="node31" class="node">
<title>Node30</title>
<g id="a_node31"><a xlink:href="../../d6/d94/XbitToNumberPass_8h.xhtml" target="_top" xlink:title="enfield/Transform/XbitTo\lNumberPass.h">
<polygon fill="none" stroke="#000000" points="1113.5,-224.5 1113.5,-254.5 1251.5,-254.5 1251.5,-224.5 1113.5,-224.5"/>
<text text-anchor="start" x="1121.5" y="-242.5" font-family="Helvetica,sans-Serif" font-size="10.00" fill="#000000">enfield/Transform/XbitTo</text>
<text text-anchor="middle" x="1182.5" y="-231.5" font-family="Helvetica,sans-Serif" font-size="10.00" fill="#000000">NumberPass.h</text>
</a>
</g>
</g>
<!-- Node29&#45;&gt;Node30 -->
<g id="edge46" class="edge">
<title>Node29&#45;&gt;Node30</title>
<path fill="none" stroke="#191970" d="M1107.5108,-291.2967C1120.657,-282.2163 1137.5487,-270.5488 1151.971,-260.587"/>
<polygon fill="#191970" stroke="#191970" points="1154.3374,-263.2063 1160.5763,-254.6432 1150.3591,-257.4467 1154.3374,-263.2063"/>
</g>
<!-- Node30&#45;&gt;Node1 -->
<g id="edge48" class="edge">
<title>Node30&#45;&gt;Node1</title>
<path fill="none" stroke="#191970" d="M1232.404,-224.4554C1267.0391,-214.0139 1312.6288,-200.27 1345.2174,-190.4455"/>
<polygon fill="#191970" stroke="#191970" points="1346.3231,-193.7678 1354.8872,-187.5303 1344.3026,-187.0657 1346.3231,-193.7678"/>
</g>
<!-- Node30&#45;&gt;Node2 -->
<g id="edge49" class="edge">
<title>Node30&#45;&gt;Node2</title>
<path fill="none" stroke="#191970" d="M1190.0981,-224.2202C1198.1172,-208.9844 1211.7604,-185.4063 1227.5,-168 1237.9822,-156.4078 1251.6454,-145.5503 1263.1833,-137.2978"/>
<polygon fill="#191970" stroke="#191970" points="1265.2824,-140.1013 1271.5043,-131.5258 1261.2927,-134.3496 1265.2824,-140.1013"/>
</g>
<!-- Node30&#45;&gt;Node8 -->
<g id="edge51" class="edge">
<title>Node30&#45;&gt;Node8</title>
<path fill="none" stroke="#191970" d="M1113.1109,-235.2399C1015.9695,-228.4629 844.9916,-213.3379 788.5,-188 734.1315,-163.6143 685.0482,-111.219 661.7601,-83.7034"/>
<polygon fill="#191970" stroke="#191970" points="664.2093,-81.1739 655.1314,-75.711 658.8213,-85.6426 664.2093,-81.1739"/>
</g>
<!-- Node30&#45;&gt;Node10 -->
<g id="edge47" class="edge">
<title>Node30&#45;&gt;Node10</title>
<path fill="none" stroke="#191970" d="M1175.7019,-224.1389C1166.248,-202.7768 1149.1414,-164.1224 1138.9005,-140.982"/>
<polygon fill="#191970" stroke="#191970" points="1141.9782,-139.2876 1134.7306,-131.5595 1135.577,-142.1205 1141.9782,-139.2876"/>
</g>
<!-- Node30&#45;&gt;Node11 -->
<g id="edge50" class="edge">
<title>Node30&#45;&gt;Node11</title>
<path fill="none" stroke="#191970" d="M1204.4524,-224.224C1227.2622,-208.7747 1264.3345,-184.8352 1298.5,-168 1324.8999,-154.9913 1355.9538,-143.2544 1379.9918,-134.8922"/>
<polygon fill="#191970" stroke="#191970" points="1381.1729,-138.1873 1389.4974,-131.6335 1378.9028,-131.5656 1381.1729,-138.1873"/>
</g>
<!-- Node30&#45;&gt;Node15 -->
<g id="edge52" class="edge">
<title>Node30&#45;&gt;Node15</title>
<path fill="none" stroke="#191970" d="M1162.5538,-224.3795C1133.0843,-202.0397 1078.1798,-160.4185 1048.2535,-137.7325"/>
<polygon fill="#191970" stroke="#191970" points="1050.2534,-134.8565 1040.1699,-131.6046 1046.0246,-140.4349 1050.2534,-134.8565"/>
</g>
<!-- Node30&#45;&gt;Node24 -->
<g id="edge53" class="edge">
<title>Node30&#45;&gt;Node24</title>
<path fill="none" stroke="#191970" d="M1148.2521,-224.4554C1124.5589,-214.0473 1093.3956,-200.3577 1071.0457,-190.5397"/>
<polygon fill="#191970" stroke="#191970" points="1072.3185,-187.2761 1061.7552,-186.4586 1069.5031,-193.685 1072.3185,-187.2761"/>
</g>
<!-- Node31&#45;&gt;Node4 -->
<g id="edge61" class="edge">
<title>Node31&#45;&gt;Node4</title>
<path fill="none" stroke="#191970" d="M613.8324,-296.9707C602.1021,-255.0665 554.9751,-86.7153 538.9022,-29.2983"/>
<polygon fill="#191970" stroke="#191970" points="542.2655,-28.3291 536.1993,-19.6428 535.5247,-30.2161 542.2655,-28.3291"/>
</g>
<!-- Node31&#45;&gt;Node8 -->
<g id="edge62" class="edge">
<title>Node31&#45;&gt;Node8</title>
<path fill="none" stroke="#191970" d="M616.6384,-296.6861C617.1964,-267.9958 619.965,-181.8831 633.5,-112 635.2217,-103.1105 637.9978,-93.4958 640.6257,-85.3664"/>
<polygon fill="#191970" stroke="#191970" points="643.9996,-86.3153 643.8937,-75.721 637.3698,-84.069 643.9996,-86.3153"/>
</g>
<!-- Node31&#45;&gt;Node9 -->
<g id="edge63" class="edge">
<title>Node31&#45;&gt;Node9</title>
<path fill="none" stroke="#191970" d="M623.7232,-296.6862C647.6638,-264.8766 728.0458,-163.6928 818.5,-112 839.9078,-99.7659 902.8146,-84.0799 944.4748,-74.5475"/>
<polygon fill="#191970" stroke="#191970" points="945.331,-77.9423 954.3113,-72.3205 943.7852,-71.1151 945.331,-77.9423"/>
</g>
<!-- Node32 -->
<g id="node33" class="node">
<title>Node32</title>
<g id="a_node33"><a xlink:href="../../d1/d5e/PossibleValuesListTrait_8h.xhtml" target="_top" xlink:title="enfield/Support/Possible\lValuesListTrait.h">
<polygon fill="none" stroke="#000000" points="255.5,-224.5 255.5,-254.5 389.5,-254.5 389.5,-224.5 255.5,-224.5"/>
<text text-anchor="start" x="263.5" y="-242.5" font-family="Helvetica,sans-Serif" font-size="10.00" fill="#000000">enfield/Support/Possible</text>
<text text-anchor="middle" x="322.5" y="-231.5" font-family="Helvetica,sans-Serif" font-size="10.00" fill="#000000">ValuesListTrait.h</text>
</a>
</g>
</g>
<!-- Node31&#45;&gt;Node32 -->
<g id="edge59" class="edge">
<title>Node31&#45;&gt;Node32</title>
<path fill="none" stroke="#191970" d="M574.6892,-296.9717C528.9262,-286.5427 454.6012,-269.6047 398.4679,-256.8124"/>
<polygon fill="#191970" stroke="#191970" points="399.0915,-253.3649 388.5638,-254.5553 397.5361,-260.1899 399.0915,-253.3649"/>
</g>
<!-- Node32&#45;&gt;Node17 -->
<g id="edge60" class="edge">
<title>Node32&#45;&gt;Node17</title>
<path fill="none" stroke="#191970" d="M304.4551,-224.2977C293.6886,-215.2274 280.0149,-203.7077 269.0005,-194.4285"/>
<polygon fill="#191970" stroke="#191970" points="271.0911,-191.6132 261.1882,-187.8469 266.5809,-196.9667 271.0911,-191.6132"/>
</g>
<!-- Node33&#45;&gt;Node7 -->
<g id="edge65" class="edge">
<title>Node33&#45;&gt;Node7</title>
<path fill="none" stroke="#191970" d="M891.5,-112.2455C891.5,-104.9382 891.5,-94.6944 891.5,-85.7046"/>
<polygon fill="#191970" stroke="#191970" points="895.0001,-85.6426 891.5,-75.6427 888.0001,-85.6427 895.0001,-85.6426"/>
</g>
<!-- Node33&#45;&gt;Node9 -->
<g id="edge66" class="edge">
<title>Node33&#45;&gt;Node9</title>
<path fill="none" stroke="#191970" d="M907.5252,-112.2455C921.6408,-103.6534 942.4263,-91.0014 958.6899,-81.1018"/>
<polygon fill="#191970" stroke="#191970" points="960.9363,-83.8319 967.6585,-75.6427 957.2966,-77.8525 960.9363,-83.8319"/>
</g>
</g>
</svg>
        <g id="navigator" transform="translate(0 0)" fill="#404254">
                <rect fill="#f2f5e9" fill-opacity="0.5" stroke="#606060" stroke-width=".5" x="0" y="0" width="60" height="60"/>
                <use id="zoomplus" xlink:href="#zoomPlus" x="17" y="9" onmousedown="handleZoom(evt,'in')"/>
                <use id="zoomminus" xlink:href="#zoomMin" x="42" y="9" onmousedown="handleZoom(evt,'out')"/>
                <use id="reset" xlink:href="#resetDef" x="30" y="36" onmousedown="handleReset()"/>
                <g id="arrowUp" xlink:href="#dirArrow" transform="translate(30 24)" onmousedown="handlePan(0,-1)">
                  <use xlink:href="#rim" fill="#404040">
                        <set attributeName="fill" to="#808080" begin="arrowUp.mouseover" end="arrowUp.mouseout"/>
                  </use>
                  <path fill="none" stroke="white" stroke-width="1.5" d="M0,-3.0v7 M-2.5,-0.5L0,-3.0L2.5,-0.5"/>
                </g>
                <g id="arrowRight" xlink:href="#dirArrow" transform="rotate(90) translate(36 -43)" onmousedown="handlePan(1,0)">
                  <use xlink:href="#rim" fill="#404040">
                        <set attributeName="fill" to="#808080" begin="arrowRight.mouseover" end="arrowRight.mouseout"/>
                  </use>
                  <path fill="none" stroke="white" stroke-width="1.5" d="M0,-3.0v7 M-2.5,-0.5L0,-3.0L2.5,-0.5"/>
                </g>
                <g id="arrowDown" xlink:href="#dirArrow" transform="rotate(180) translate(-30 -48)" onmousedown="handlePan(0,1)">
                  <use xlink:href="#rim" fill="#404040">
                        <set attributeName="fill" to="#808080" begin="arrowDown.mouseover" end="arrowDown.mouseout"/>
                  </use>
                  <path fill="none" stroke="white" stroke-width="1.5" d="M0,-3.0v7 M-2.5,-0.5L0,-3.0L2.5,-0.5"/>
                </g>
                <g id="arrowLeft" xlink:href="#dirArrow" transform="rotate(270) translate(-36 17)" onmousedown="handlePan(-1,0)">
                  <use xlink:href="#rim" fill="#404040">
                        <set attributeName="fill" to="#808080" begin="arrowLeft.mouseover" end="arrowLeft.mouseout"/>
                  </use>
                  <path fill="none" stroke="white" stroke-width="1.5" d="M0,-3.0v7 M-2.5,-0.5L0,-3.0L2.5,-0.5"/>
                </g>
        </g>
        <svg viewBox="0 0 15 15" width="100%" height="30px" preserveAspectRatio="xMaxYMin meet">
         <g id="arrow_out" transform="scale(0.3 0.3)">
          <a xlink:href="Transform_2Driver_8h__incl_org.svg" target="_base">
           <rect id="button" ry="5" rx="5" y="6" x="6" height="38" width="38"
                fill="#f2f5e9" fill-opacity="0.5" stroke="#606060" stroke-width="1.0"/>
           <path id="arrow"
             d="M 11.500037,31.436501 C 11.940474,20.09759 22.043105,11.32322 32.158766,21.979434 L 37.068811,17.246167 C 37.068811,17.246167 37.088388,32 37.088388,32 L 22.160133,31.978069 C 22.160133,31.978069 26.997745,27.140456 26.997745,27.140456 C 18.528582,18.264221 13.291696,25.230495 11.500037,31.436501 z"
             style="fill:#404040;"/>
          </a>
         </g>
        </svg>
</svg>
