<?xml version="1.0" encoding="UTF-8" standalone="no"?>
<!DOCTYPE svg PUBLIC "-//W3C//DTD SVG 1.1//EN"
 "http://www.w3.org/Graphics/SVG/1.1/DTD/svg11.dtd">
<!-- Generated by graphviz version 2.38.0 (20140413.2041)
 -->
<!-- Title: include/enfield/Transform/Driver.h Pages: 1 -->
<!--zoomable 531 -->
<svg id="main" version="1.1" xmlns="http://www.w3.org/2000/svg" xmlns:xlink="http://www.w3.org/1999/xlink" xml:space="preserve" onload="init(evt)">
<style type="text/css"><![CDATA[
.edge:hover path { stroke: red; }
.edge:hover polygon { stroke: red; fill: red; }
]]></style>
<script type="text/javascript"><![CDATA[
var edges = document.getElementsByTagName('g');
if (edges && edges.length) {
  for (var i=0;i<edges.length;i++) {
    if (edges[i].id.substr(0,4)=='edge') {
      edges[i].setAttribute('class','edge');
    }
  }
}
]]></script>
        <defs>
                <circle id="rim" cx="0" cy="0" r="7"/>
                <circle id="rim2" cx="0" cy="0" r="3.5"/>
                <g id="zoomPlus">
                        <use xlink:href="#rim" fill="#404040">
                                <set attributeName="fill" to="#808080" begin="zoomplus.mouseover" end="zoomplus.mouseout"/>
                        </use>
                        <path d="M-4,0h8M0,-4v8" fill="none" stroke="white" stroke-width="1.5" pointer-events="none"/>
                </g>
                <g id="zoomMin">
                        <use xlink:href="#rim" fill="#404040">
                                <set attributeName="fill" to="#808080" begin="zoomminus.mouseover" end="zoomminus.mouseout"/>
                        </use>
                        <path d="M-4,0h8" fill="none" stroke="white" stroke-width="1.5" pointer-events="none"/>
                </g>
                <g id="dirArrow">
                        <path fill="none" stroke="white" stroke-width="1.5" d="M0,-3.0v7 M-2.5,-0.5L0,-3.0L2.5,-0.5"/>
                </g>
               <g id="resetDef">
                       <use xlink:href="#rim2" fill="#404040">
                               <set attributeName="fill" to="#808080" begin="reset.mouseover" end="reset.mouseout"/>
                       </use>
               </g>
        </defs>

<script type="text/javascript">
var viewWidth = 1508;
var viewHeight = 531;
var sectionId = 'dynsection-0';
</script>
<script xlink:href="../../svgpan.js"/>
<svg id="graph" class="graph">
<g id="viewport">
<title>include/enfield/Transform/Driver.h</title>
<!-- Node0 -->
<g id="node1" class="node"><title>Node0</title>
<polygon fill="#bfbfbf" stroke="black" points="636,-492.5 636,-522.5 762,-522.5 762,-492.5 636,-492.5"/>
<text text-anchor="start" x="644" y="-510.5" font-family="Helvetica,sans-Serif" font-size="10.00">include/enfield/Transform</text>
<text text-anchor="middle" x="699" y="-499.5" font-family="Helvetica,sans-Serif" font-size="10.00">/Driver.h</text>
</g>
<!-- Node1 -->
<g id="node2" class="node"><title>Node1</title>
<g id="a_node2"><a xlink:href="../../d4/d73/QModule_8h.xhtml" target="_top" xlink:title="enfield/Transform/QModule.h">
<polygon fill="none" stroke="black" points="1214.5,-168.5 1214.5,-187.5 1357.5,-187.5 1357.5,-168.5 1214.5,-168.5"/>
<text text-anchor="middle" x="1286" y="-175.5" font-family="Helvetica,sans-Serif" font-size="10.00">enfield/Transform/QModule.h</text>
</a>
</g>
</g>
<!-- Node0&#45;&gt;Node1 -->
<g id="edge1" class="edge"><title>Node0&#45;&gt;Node1</title>
<path fill="none" stroke="midnightblue" d="M762.188,-502.741C951.329,-490.653 1500,-449.153 1500,-374.5 1500,-374.5 1500,-374.5 1500,-305.5 1500,-236.061 1415.47,-203.938 1352.66,-189.654"/>
<polygon fill="midnightblue" stroke="midnightblue" points="1353.3,-186.211 1342.79,-187.512 1351.82,-193.052 1353.3,-186.211"/>
</g>
<!-- Node12 -->
<g id="node13" class="node"><title>Node12</title>
<g id="a_node13"><a xlink:href="../../da/d8e/Architectures_8h.xhtml" target="_top" xlink:title="enfield/Arch/Architectures.h">
<polygon fill="none" stroke="black" points="194.5,-297 194.5,-316 331.5,-316 331.5,-297 194.5,-297"/>
<text text-anchor="middle" x="263" y="-304" font-family="Helvetica,sans-Serif" font-size="10.00">enfield/Arch/Architectures.h</text>
</a>
</g>
</g>
<!-- Node0&#45;&gt;Node12 -->
<g id="edge13" class="edge"><title>Node0&#45;&gt;Node12</title>
<path fill="none" stroke="midnightblue" d="M635.688,-494.53C562.038,-478.618 438.715,-445.691 346,-389 317.571,-371.617 291.309,-342.785 276.23,-324.484"/>
<polygon fill="midnightblue" stroke="midnightblue" points="278.759,-322.043 269.766,-316.442 273.303,-326.429 278.759,-322.043"/>
</g>
<!-- Node28 -->
<g id="node29" class="node"><title>Node28</title>
<g id="a_node29"><a xlink:href="../../db/db1/Allocators_8h.xhtml" target="_top" xlink:title="enfield/Transform/Allocators\l/Allocators.h">
<polygon fill="none" stroke="black" points="629.5,-425.5 629.5,-455.5 768.5,-455.5 768.5,-425.5 629.5,-425.5"/>
<text text-anchor="start" x="637.5" y="-443.5" font-family="Helvetica,sans-Serif" font-size="10.00">enfield/Transform/Allocators</text>
<text text-anchor="middle" x="699" y="-432.5" font-family="Helvetica,sans-Serif" font-size="10.00">/Allocators.h</text>
</a>
</g>
</g>
<!-- Node0&#45;&gt;Node28 -->
<g id="edge40" class="edge"><title>Node0&#45;&gt;Node28</title>
<path fill="none" stroke="midnightblue" d="M699,-492.396C699,-484.645 699,-474.812 699,-465.86"/>
<polygon fill="midnightblue" stroke="midnightblue" points="702.5,-465.576 699,-455.577 695.5,-465.577 702.5,-465.576"/>
</g>
<!-- Node2 -->
<g id="node3" class="node"><title>Node2</title>
<g id="a_node3"><a xlink:href="../../d4/daf/Nodes_8h.xhtml" target="_top" xlink:title="enfield/Analysis/Nodes.h">
<polygon fill="none" stroke="black" points="1072.5,-112.5 1072.5,-131.5 1197.5,-131.5 1197.5,-112.5 1072.5,-112.5"/>
<text text-anchor="middle" x="1135" y="-119.5" font-family="Helvetica,sans-Serif" font-size="10.00">enfield/Analysis/Nodes.h</text>
</a>
</g>
</g>
<!-- Node1&#45;&gt;Node2 -->
<g id="edge2" class="edge"><title>Node1&#45;&gt;Node2</title>
<path fill="none" stroke="midnightblue" d="M1262.07,-168.444C1236.78,-159.399 1196.7,-145.064 1168.32,-134.916"/>
<polygon fill="midnightblue" stroke="midnightblue" points="1169.41,-131.588 1158.81,-131.516 1167.05,-138.179 1169.41,-131.588"/>
</g>
<!-- Node10 -->
<g id="node11" class="node"><title>Node10</title>
<g id="a_node11"><a xlink:href="../../df/d29/Pass_8h.xhtml" target="_top" xlink:title="enfield/Transform/Pass.h">
<polygon fill="none" stroke="black" points="1351,-112.5 1351,-131.5 1477,-131.5 1477,-112.5 1351,-112.5"/>
<text text-anchor="middle" x="1414" y="-119.5" font-family="Helvetica,sans-Serif" font-size="10.00">enfield/Transform/Pass.h</text>
</a>
</g>
</g>
<!-- Node1&#45;&gt;Node10 -->
<g id="edge10" class="edge"><title>Node1&#45;&gt;Node10</title>
<path fill="none" stroke="midnightblue" d="M1306.28,-168.444C1327.35,-159.557 1360.52,-145.563 1384.49,-135.451"/>
<polygon fill="midnightblue" stroke="midnightblue" points="1385.96,-138.628 1393.81,-131.516 1383.24,-132.179 1385.96,-138.628"/>
</g>
<!-- Node11 -->
<g id="node12" class="node"><title>Node11</title>
<polygon fill="none" stroke="#bfbfbf" points="1233.5,-112.5 1233.5,-131.5 1316.5,-131.5 1316.5,-112.5 1233.5,-112.5"/>
<text text-anchor="middle" x="1275" y="-119.5" font-family="Helvetica,sans-Serif" font-size="10.00">unordered_map</text>
</g>
<!-- Node1&#45;&gt;Node11 -->
<g id="edge12" class="edge"><title>Node1&#45;&gt;Node11</title>
<path fill="none" stroke="midnightblue" d="M1284.18,-168.083C1282.73,-160.927 1280.63,-150.635 1278.81,-141.691"/>
<polygon fill="midnightblue" stroke="midnightblue" points="1282.21,-140.851 1276.78,-131.751 1275.35,-142.248 1282.21,-140.851"/>
</g>
<!-- Node3 -->
<g id="node4" class="node"><title>Node3</title>
<g id="a_node4"><a xlink:href="../../d1/d2e/WrapperVal_8h.xhtml" target="_top" xlink:title="enfield/Support/WrapperVal.h">
<polygon fill="none" stroke="black" points="936,-56.5 936,-75.5 1080,-75.5 1080,-56.5 936,-56.5"/>
<text text-anchor="middle" x="1008" y="-63.5" font-family="Helvetica,sans-Serif" font-size="10.00">enfield/Support/WrapperVal.h</text>
</a>
</g>
</g>
<!-- Node2&#45;&gt;Node3 -->
<g id="edge3" class="edge"><title>Node2&#45;&gt;Node3</title>
<path fill="none" stroke="midnightblue" d="M1114.88,-112.444C1093.98,-103.557 1061.07,-89.5632 1037.28,-79.4514"/>
<polygon fill="midnightblue" stroke="midnightblue" points="1038.6,-76.2085 1028.03,-75.5164 1035.86,-82.6504 1038.6,-76.2085"/>
</g>
<!-- Node5 -->
<g id="node6" class="node"><title>Node5</title>
<g id="a_node6"><a xlink:href="../../d5/dfc/RTTI_8h.xhtml" target="_top" xlink:title="enfield/Support/RTTI.h">
<polygon fill="none" stroke="black" points="1190,-56.5 1190,-75.5 1306,-75.5 1306,-56.5 1190,-56.5"/>
<text text-anchor="middle" x="1248" y="-63.5" font-family="Helvetica,sans-Serif" font-size="10.00">enfield/Support/RTTI.h</text>
</a>
</g>
</g>
<!-- Node2&#45;&gt;Node5 -->
<g id="edge5" class="edge"><title>Node2&#45;&gt;Node5</title>
<path fill="none" stroke="midnightblue" d="M1152.91,-112.444C1171.25,-103.675 1200.01,-89.9355 1221.09,-79.8579"/>
<polygon fill="midnightblue" stroke="midnightblue" points="1222.67,-82.9862 1230.18,-75.5164 1219.65,-76.6703 1222.67,-82.9862"/>
</g>
<!-- Node6 -->
<g id="node7" class="node"><title>Node6</title>
<polygon fill="none" stroke="#bfbfbf" points="1098.5,-56.5 1098.5,-75.5 1171.5,-75.5 1171.5,-56.5 1098.5,-56.5"/>
<text text-anchor="middle" x="1135" y="-63.5" font-family="Helvetica,sans-Serif" font-size="10.00">initializer_list</text>
</g>
<!-- Node2&#45;&gt;Node6 -->
<g id="edge6" class="edge"><title>Node2&#45;&gt;Node6</title>
<path fill="none" stroke="midnightblue" d="M1135,-112.083C1135,-105.006 1135,-94.8611 1135,-85.9865"/>
<polygon fill="midnightblue" stroke="midnightblue" points="1138.5,-85.751 1135,-75.7511 1131.5,-85.7511 1138.5,-85.751"/>
</g>
<!-- Node7 -->
<g id="node8" class="node"><title>Node7</title>
<polygon fill="none" stroke="#bfbfbf" points="787,-56.5 787,-75.5 841,-75.5 841,-56.5 787,-56.5"/>
<text text-anchor="middle" x="814" y="-63.5" font-family="Helvetica,sans-Serif" font-size="10.00">iostream</text>
</g>
<!-- Node2&#45;&gt;Node7 -->
<g id="edge7" class="edge"><title>Node2&#45;&gt;Node7</title>
<path fill="none" stroke="midnightblue" d="M1077.63,-112.5C1021.33,-103.972 933.074,-90.1107 857,-76 855.088,-75.6453 853.13,-75.272 851.154,-74.8872"/>
<polygon fill="midnightblue" stroke="midnightblue" points="851.753,-71.4376 841.26,-72.902 850.376,-78.3009 851.753,-71.4376"/>
</g>
<!-- Node8 -->
<g id="node9" class="node"><title>Node8</title>
<polygon fill="none" stroke="#bfbfbf" points="668,-56.5 668,-75.5 712,-75.5 712,-56.5 668,-56.5"/>
<text text-anchor="middle" x="690" y="-63.5" font-family="Helvetica,sans-Serif" font-size="10.00">vector</text>
</g>
<!-- Node2&#45;&gt;Node8 -->
<g id="edge8" class="edge"><title>Node2&#45;&gt;Node8</title>
<path fill="none" stroke="midnightblue" d="M1072.19,-113.378C976.051,-101.712 795.856,-79.8455 722.408,-70.9327"/>
<polygon fill="midnightblue" stroke="midnightblue" points="722.718,-67.4447 712.369,-69.7144 721.875,-74.3937 722.718,-67.4447"/>
</g>
<!-- Node9 -->
<g id="node10" class="node"><title>Node9</title>
<polygon fill="none" stroke="#bfbfbf" points="866,-56.5 866,-75.5 918,-75.5 918,-56.5 866,-56.5"/>
<text text-anchor="middle" x="892" y="-63.5" font-family="Helvetica,sans-Serif" font-size="10.00">memory</text>
</g>
<!-- Node2&#45;&gt;Node9 -->
<g id="edge9" class="edge"><title>Node2&#45;&gt;Node9</title>
<path fill="none" stroke="midnightblue" d="M1093.06,-112.423C1053.11,-104.143 991.05,-90.992 928.402,-76.2672"/>
<polygon fill="midnightblue" stroke="midnightblue" points="928.883,-72.7845 918.346,-73.8909 927.273,-79.5969 928.883,-72.7845"/>
</g>
<!-- Node4 -->
<g id="node5" class="node"><title>Node4</title>
<polygon fill="none" stroke="#bfbfbf" points="555.5,-0.5 555.5,-19.5 596.5,-19.5 596.5,-0.5 555.5,-0.5"/>
<text text-anchor="middle" x="576" y="-7.5" font-family="Helvetica,sans-Serif" font-size="10.00">string</text>
</g>
<!-- Node3&#45;&gt;Node4 -->
<g id="edge4" class="edge"><title>Node3&#45;&gt;Node4</title>
<path fill="none" stroke="midnightblue" d="M939.548,-56.4435C844.473,-44.5591 676.34,-23.5425 607.113,-14.8892"/>
<polygon fill="midnightblue" stroke="midnightblue" points="607.235,-11.3773 596.878,-13.6098 606.367,-18.3232 607.235,-11.3773"/>
</g>
<!-- Node10&#45;&gt;Node9 -->
<g id="edge11" class="edge"><title>Node10&#45;&gt;Node9</title>
<path fill="none" stroke="midnightblue" d="M1350.8,-114.526C1342.13,-113.662 1333.35,-112.8 1325,-112 1151.48,-95.3792 1103.78,-105.811 928.362,-75.9772"/>
<polygon fill="midnightblue" stroke="midnightblue" points="928.723,-72.4879 918.275,-74.2415 927.536,-79.3866 928.723,-72.4879"/>
</g>
<!-- Node13 -->
<g id="node14" class="node"><title>Node13</title>
<g id="a_node14"><a xlink:href="../../d7/d9d/ArchGraph_8h.xhtml" target="_top" xlink:title="enfield/Arch/ArchGraph.h">
<polygon fill="none" stroke="black" points="734,-230 734,-249 860,-249 860,-230 734,-230"/>
<text text-anchor="middle" x="797" y="-237" font-family="Helvetica,sans-Serif" font-size="10.00">enfield/Arch/ArchGraph.h</text>
</a>
</g>
</g>
<!-- Node12&#45;&gt;Node13 -->
<g id="edge14" class="edge"><title>Node12&#45;&gt;Node13</title>
<path fill="none" stroke="midnightblue" d="M331.718,-297.135C432.72,-284.841 620.448,-261.99 723.896,-249.398"/>
<polygon fill="midnightblue" stroke="midnightblue" points="724.44,-252.858 733.944,-248.175 723.594,-245.909 724.44,-252.858"/>
</g>
<!-- Node16 -->
<g id="node17" class="node"><title>Node16</title>
<g id="a_node17"><a xlink:href="../../da/d66/Registry_8h.xhtml" target="_top" xlink:title="enfield/Support/Registry.h">
<polygon fill="none" stroke="black" points="0,-230 0,-249 130,-249 130,-230 0,-230"/>
<text text-anchor="middle" x="65" y="-237" font-family="Helvetica,sans-Serif" font-size="10.00">enfield/Support/Registry.h</text>
</a>
</g>
</g>
<!-- Node12&#45;&gt;Node16 -->
<g id="edge21" class="edge"><title>Node12&#45;&gt;Node16</title>
<path fill="none" stroke="midnightblue" d="M236.707,-296.869C201.773,-285.4 139.919,-265.094 100.763,-252.24"/>
<polygon fill="midnightblue" stroke="midnightblue" points="101.679,-248.857 91.0863,-249.064 99.4957,-255.508 101.679,-248.857"/>
</g>
<!-- Node17 -->
<g id="node18" class="node"><title>Node17</title>
<g id="a_node18"><a xlink:href="../../dd/d62/EnumString_8h.xhtml" target="_top" xlink:title="enfield/Support/EnumString.h">
<polygon fill="none" stroke="black" points="307,-168.5 307,-187.5 451,-187.5 451,-168.5 307,-168.5"/>
<text text-anchor="middle" x="379" y="-175.5" font-family="Helvetica,sans-Serif" font-size="10.00">enfield/Support/EnumString.h</text>
</a>
</g>
</g>
<!-- Node12&#45;&gt;Node17 -->
<g id="edge38" class="edge"><title>Node12&#45;&gt;Node17</title>
<path fill="none" stroke="midnightblue" d="M270.973,-296.805C290.178,-275.862 339.245,-222.354 364.096,-195.253"/>
<polygon fill="midnightblue" stroke="midnightblue" points="366.792,-197.492 370.971,-187.756 361.633,-192.761 366.792,-197.492"/>
</g>
<!-- Node27 -->
<g id="node28" class="node"><title>Node27</title>
<g id="a_node28"><a xlink:href="../../d4/d7d/Architectures_8def.xhtml" target="_top" xlink:title="enfield/Arch/Architectures.def">
<polygon fill="none" stroke="black" points="148,-230 148,-249 294,-249 294,-230 148,-230"/>
<text text-anchor="middle" x="221" y="-237" font-family="Helvetica,sans-Serif" font-size="10.00">enfield/Arch/Architectures.def</text>
</a>
</g>
</g>
<!-- Node12&#45;&gt;Node27 -->
<g id="edge39" class="edge"><title>Node12&#45;&gt;Node27</title>
<path fill="none" stroke="midnightblue" d="M257.336,-296.734C250.912,-286.793 240.28,-270.338 232.171,-257.789"/>
<polygon fill="midnightblue" stroke="midnightblue" points="234.941,-255.627 226.575,-249.127 229.062,-259.426 234.941,-255.627"/>
</g>
<!-- Node13&#45;&gt;Node2 -->
<g id="edge20" class="edge"><title>Node13&#45;&gt;Node2</title>
<path fill="none" stroke="midnightblue" d="M815.44,-229.839C846.17,-215.625 910.016,-187.034 966,-168 1006.12,-154.36 1052.72,-142.218 1086.82,-133.994"/>
<polygon fill="midnightblue" stroke="midnightblue" points="1088.06,-137.296 1096.98,-131.571 1086.44,-130.487 1088.06,-137.296"/>
</g>
<!-- Node14 -->
<g id="node15" class="node"><title>Node14</title>
<g id="a_node15"><a xlink:href="../../d7/d16/Graph_8h.xhtml" target="_top" xlink:title="enfield/Support/Graph.h">
<polygon fill="none" stroke="black" points="756.5,-168.5 756.5,-187.5 875.5,-187.5 875.5,-168.5 756.5,-168.5"/>
<text text-anchor="middle" x="816" y="-175.5" font-family="Helvetica,sans-Serif" font-size="10.00">enfield/Support/Graph.h</text>
</a>
</g>
</g>
<!-- Node13&#45;&gt;Node14 -->
<g id="edge15" class="edge"><title>Node13&#45;&gt;Node14</title>
<path fill="none" stroke="midnightblue" d="M799.722,-229.975C802.431,-221.492 806.674,-208.204 810.149,-197.322"/>
<polygon fill="midnightblue" stroke="midnightblue" points="813.575,-198.1 813.283,-187.509 806.907,-195.97 813.575,-198.1"/>
</g>
<!-- Node14&#45;&gt;Node8 -->
<g id="edge17" class="edge"><title>Node14&#45;&gt;Node8</title>
<path fill="none" stroke="midnightblue" d="M800.356,-168.456C785.791,-160.13 763.855,-146.617 747,-132 730.071,-117.319 713.501,-97.6546 702.63,-83.8122"/>
<polygon fill="midnightblue" stroke="midnightblue" points="705.234,-81.4579 696.362,-75.6676 699.687,-85.7271 705.234,-81.4579"/>
</g>
<!-- Node14&#45;&gt;Node9 -->
<g id="edge19" class="edge"><title>Node14&#45;&gt;Node9</title>
<path fill="none" stroke="midnightblue" d="M836.04,-168.428C850.885,-161 870.32,-148.793 881,-132 889.733,-118.268 892.158,-99.7382 892.589,-85.9763"/>
<polygon fill="midnightblue" stroke="midnightblue" points="896.089,-85.7433 892.576,-75.7477 889.089,-85.7522 896.089,-85.7433"/>
</g>
<!-- Node14&#45;&gt;Node11 -->
<g id="edge18" class="edge"><title>Node14&#45;&gt;Node11</title>
<path fill="none" stroke="midnightblue" d="M875.83,-170.375C952.403,-161.833 1089.14,-146.363 1206,-132 1211.55,-131.318 1217.34,-130.589 1223.11,-129.852"/>
<polygon fill="midnightblue" stroke="midnightblue" points="1223.95,-133.274 1233.42,-128.525 1223.05,-126.331 1223.95,-133.274"/>
</g>
<!-- Node15 -->
<g id="node16" class="node"><title>Node15</title>
<polygon fill="none" stroke="#bfbfbf" points="928,-112.5 928,-131.5 958,-131.5 958,-112.5 928,-112.5"/>
<text text-anchor="middle" x="943" y="-119.5" font-family="Helvetica,sans-Serif" font-size="10.00">set</text>
</g>
<!-- Node14&#45;&gt;Node15 -->
<g id="edge16" class="edge"><title>Node14&#45;&gt;Node15</title>
<path fill="none" stroke="midnightblue" d="M836.124,-168.444C858.4,-158.972 894.32,-143.699 918.288,-133.507"/>
<polygon fill="midnightblue" stroke="midnightblue" points="919.921,-136.617 927.754,-129.483 917.182,-130.175 919.921,-136.617"/>
</g>
<!-- Node16&#45;&gt;Node4 -->
<g id="edge36" class="edge"><title>Node16&#45;&gt;Node4</title>
<path fill="none" stroke="midnightblue" d="M62.2131,-229.707C53.5102,-200.338 30.1704,-104.747 78,-56 110.773,-22.5979 441.624,-13.5392 545.183,-11.5125"/>
<polygon fill="midnightblue" stroke="midnightblue" points="545.368,-15.0097 555.301,-11.323 545.237,-8.01096 545.368,-15.0097"/>
</g>
<!-- Node16&#45;&gt;Node7 -->
<g id="edge33" class="edge"><title>Node16&#45;&gt;Node7</title>
<path fill="none" stroke="midnightblue" d="M75.199,-229.679C103.666,-205.655 187.327,-139.055 270,-112 461.109,-49.4594 520.697,-93.6852 721,-76 739.332,-74.3814 759.681,-72.4298 776.659,-70.7583"/>
<polygon fill="midnightblue" stroke="midnightblue" points="777.14,-74.2279 786.746,-69.7592 776.45,-67.2619 777.14,-74.2279"/>
</g>
<!-- Node16&#45;&gt;Node17 -->
<g id="edge22" class="edge"><title>Node16&#45;&gt;Node17</title>
<path fill="none" stroke="midnightblue" d="M108.422,-229.93C118.46,-227.966 129.1,-225.898 139,-224 201.969,-211.928 274.303,-198.413 322.958,-189.374"/>
<polygon fill="midnightblue" stroke="midnightblue" points="323.776,-192.782 332.969,-187.516 322.498,-185.9 323.776,-192.782"/>
</g>
<!-- Node18 -->
<g id="node19" class="node"><title>Node18</title>
<g id="a_node19"><a xlink:href="../../d1/d73/Defs_8h.xhtml" target="_top" xlink:title="enfield/Support/Defs.h">
<polygon fill="none" stroke="black" points="87,-112.5 87,-131.5 201,-131.5 201,-112.5 87,-112.5"/>
<text text-anchor="middle" x="144" y="-119.5" font-family="Helvetica,sans-Serif" font-size="10.00">enfield/Support/Defs.h</text>
</a>
</g>
</g>
<!-- Node16&#45;&gt;Node18 -->
<g id="edge32" class="edge"><title>Node16&#45;&gt;Node18</title>
<path fill="none" stroke="midnightblue" d="M70.9378,-229.819C83.9198,-210.839 115.035,-165.348 132.175,-140.288"/>
<polygon fill="midnightblue" stroke="midnightblue" points="135.237,-142.012 137.993,-131.782 129.459,-138.06 135.237,-142.012"/>
</g>
<!-- Node24 -->
<g id="node25" class="node"><title>Node24</title>
<polygon fill="none" stroke="#bfbfbf" points="461.5,-112.5 461.5,-131.5 510.5,-131.5 510.5,-112.5 461.5,-112.5"/>
<text text-anchor="middle" x="486" y="-119.5" font-family="Helvetica,sans-Serif" font-size="10.00">cassert</text>
</g>
<!-- Node16&#45;&gt;Node24 -->
<g id="edge37" class="edge"><title>Node16&#45;&gt;Node24</title>
<path fill="none" stroke="midnightblue" d="M105.221,-229.998C116.149,-227.858 128.001,-225.691 139,-224 209.947,-213.09 402.9,-231.497 460,-188 474.33,-177.084 480.782,-157.019 483.675,-142.059"/>
<polygon fill="midnightblue" stroke="midnightblue" points="487.184,-142.269 485.265,-131.849 480.268,-141.192 487.184,-142.269"/>
</g>
<!-- Node25 -->
<g id="node26" class="node"><title>Node25</title>
<polygon fill="none" stroke="#bfbfbf" points="1008.5,-168.5 1008.5,-187.5 1043.5,-187.5 1043.5,-168.5 1008.5,-168.5"/>
<text text-anchor="middle" x="1026" y="-175.5" font-family="Helvetica,sans-Serif" font-size="10.00">map</text>
</g>
<!-- Node16&#45;&gt;Node25 -->
<g id="edge34" class="edge"><title>Node16&#45;&gt;Node25</title>
<path fill="none" stroke="midnightblue" d="M102.857,-229.984C114.405,-227.684 127.174,-225.437 139,-224 468.078,-184.023 553.018,-206.485 884,-188 923.584,-185.789 969.348,-182.813 997.984,-180.9"/>
<polygon fill="midnightblue" stroke="midnightblue" points="998.329,-184.385 1008.07,-180.223 997.86,-177.401 998.329,-184.385"/>
</g>
<!-- Node26 -->
<g id="node27" class="node"><title>Node26</title>
<polygon fill="none" stroke="#bfbfbf" points="229.5,-168.5 229.5,-187.5 288.5,-187.5 288.5,-168.5 229.5,-168.5"/>
<text text-anchor="middle" x="259" y="-175.5" font-family="Helvetica,sans-Serif" font-size="10.00">functional</text>
</g>
<!-- Node16&#45;&gt;Node26 -->
<g id="edge35" class="edge"><title>Node16&#45;&gt;Node26</title>
<path fill="none" stroke="midnightblue" d="M92.7955,-229.975C126.65,-219.592 183.971,-202.012 221.655,-190.454"/>
<polygon fill="midnightblue" stroke="midnightblue" points="222.722,-193.788 231.256,-187.509 220.669,-187.095 222.722,-193.788"/>
</g>
<!-- Node17&#45;&gt;Node8 -->
<g id="edge28" class="edge"><title>Node17&#45;&gt;Node8</title>
<path fill="none" stroke="midnightblue" d="M386.037,-168.203C397.975,-153.932 423.678,-125.933 452,-112 520.055,-78.521 610.35,-69.8796 657.768,-67.6959"/>
<polygon fill="midnightblue" stroke="midnightblue" points="657.908,-71.1932 667.763,-67.3032 657.633,-64.1985 657.908,-71.1932"/>
</g>
<!-- Node17&#45;&gt;Node18 -->
<g id="edge23" class="edge"><title>Node17&#45;&gt;Node18</title>
<path fill="none" stroke="midnightblue" d="M341.764,-168.444C300.94,-159.063 235.357,-143.993 191.016,-133.804"/>
<polygon fill="midnightblue" stroke="midnightblue" points="191.592,-130.345 181.062,-131.516 190.024,-137.167 191.592,-130.345"/>
</g>
<!-- Node22 -->
<g id="node23" class="node"><title>Node22</title>
<polygon fill="none" stroke="#bfbfbf" points="279,-112.5 279,-131.5 335,-131.5 335,-112.5 279,-112.5"/>
<text text-anchor="middle" x="307" y="-119.5" font-family="Helvetica,sans-Serif" font-size="10.00">algorithm</text>
</g>
<!-- Node17&#45;&gt;Node22 -->
<g id="edge29" class="edge"><title>Node17&#45;&gt;Node22</title>
<path fill="none" stroke="midnightblue" d="M367.432,-168.324C356.58,-160.185 340.119,-147.839 327.117,-138.087"/>
<polygon fill="midnightblue" stroke="midnightblue" points="328.879,-135.034 318.779,-131.834 324.679,-140.634 328.879,-135.034"/>
</g>
<!-- Node23 -->
<g id="node24" class="node"><title>Node23</title>
<polygon fill="none" stroke="#bfbfbf" points="353.5,-112.5 353.5,-131.5 404.5,-131.5 404.5,-112.5 353.5,-112.5"/>
<text text-anchor="middle" x="379" y="-119.5" font-family="Helvetica,sans-Serif" font-size="10.00">typeinfo</text>
</g>
<!-- Node17&#45;&gt;Node23 -->
<g id="edge30" class="edge"><title>Node17&#45;&gt;Node23</title>
<path fill="none" stroke="midnightblue" d="M379,-168.083C379,-161.006 379,-150.861 379,-141.986"/>
<polygon fill="midnightblue" stroke="midnightblue" points="382.5,-141.751 379,-131.751 375.5,-141.751 382.5,-141.751"/>
</g>
<!-- Node17&#45;&gt;Node24 -->
<g id="edge31" class="edge"><title>Node17&#45;&gt;Node24</title>
<path fill="none" stroke="midnightblue" d="M396.191,-168.324C413.351,-159.664 439.946,-146.242 459.747,-136.249"/>
<polygon fill="midnightblue" stroke="midnightblue" points="461.501,-139.285 468.851,-131.655 458.347,-133.035 461.501,-139.285"/>
</g>
<!-- Node18&#45;&gt;Node8 -->
<g id="edge24" class="edge"><title>Node18&#45;&gt;Node8</title>
<path fill="none" stroke="midnightblue" d="M201.333,-113.574C205.955,-113.024 210.554,-112.492 215,-112 381.309,-93.5862 580.904,-76.2139 657.71,-69.7042"/>
<polygon fill="midnightblue" stroke="midnightblue" points="658.047,-73.1883 667.716,-68.8588 657.457,-66.2132 658.047,-73.1883"/>
</g>
<!-- Node19 -->
<g id="node20" class="node"><title>Node19</title>
<polygon fill="none" stroke="#bfbfbf" points="87,-56.5 87,-75.5 133,-75.5 133,-56.5 87,-56.5"/>
<text text-anchor="middle" x="110" y="-63.5" font-family="Helvetica,sans-Serif" font-size="10.00">cstdint</text>
</g>
<!-- Node18&#45;&gt;Node19 -->
<g id="edge25" class="edge"><title>Node18&#45;&gt;Node19</title>
<path fill="none" stroke="midnightblue" d="M138.386,-112.083C133.633,-104.534 126.682,-93.4948 120.848,-84.2298"/>
<polygon fill="midnightblue" stroke="midnightblue" points="123.8,-82.3486 115.51,-75.7511 117.876,-86.0783 123.8,-82.3486"/>
</g>
<!-- Node20 -->
<g id="node21" class="node"><title>Node20</title>
<polygon fill="none" stroke="#bfbfbf" points="151,-56.5 151,-75.5 191,-75.5 191,-56.5 151,-56.5"/>
<text text-anchor="middle" x="171" y="-63.5" font-family="Helvetica,sans-Serif" font-size="10.00">limits</text>
</g>
<!-- Node18&#45;&gt;Node20 -->
<g id="edge26" class="edge"><title>Node18&#45;&gt;Node20</title>
<path fill="none" stroke="midnightblue" d="M148.459,-112.083C152.154,-104.691 157.523,-93.9533 162.094,-84.8111"/>
<polygon fill="midnightblue" stroke="midnightblue" points="165.283,-86.2606 166.624,-75.7511 159.022,-83.1301 165.283,-86.2606"/>
</g>
<!-- Node21 -->
<g id="node22" class="node"><title>Node21</title>
<polygon fill="none" stroke="#bfbfbf" points="209,-56.5 209,-75.5 261,-75.5 261,-56.5 209,-56.5"/>
<text text-anchor="middle" x="235" y="-63.5" font-family="Helvetica,sans-Serif" font-size="10.00">ostream</text>
</g>
<!-- Node18&#45;&gt;Node21 -->
<g id="edge27" class="edge"><title>Node18&#45;&gt;Node21</title>
<path fill="none" stroke="midnightblue" d="M158.621,-112.324C172.949,-103.822 195.013,-90.7288 211.749,-80.7975"/>
<polygon fill="midnightblue" stroke="midnightblue" points="213.602,-83.7677 220.416,-75.6545 210.03,-77.7478 213.602,-83.7677"/>
</g>
<!-- Node28&#45;&gt;Node13 -->
<g id="edge41" class="edge"><title>Node28&#45;&gt;Node13</title>
<path fill="none" stroke="midnightblue" d="M733.675,-425.312C749.439,-417.062 766.807,-405.077 777,-389 802.701,-348.463 801.744,-289.219 799.205,-259.291"/>
<polygon fill="midnightblue" stroke="midnightblue" points="802.656,-258.633 798.169,-249.035 795.692,-259.336 802.656,-258.633"/>
</g>
<!-- Node28&#45;&gt;Node16 -->
<g id="edge70" class="edge"><title>Node28&#45;&gt;Node16</title>
<path fill="none" stroke="midnightblue" d="M629.284,-434.74C557.307,-428.62 442.258,-415.456 346,-389 271.267,-368.46 253.184,-358.85 185,-322 147.642,-301.81 107.437,-272.859 84.3417,-255.448"/>
<polygon fill="midnightblue" stroke="midnightblue" points="86.1729,-252.443 76.0958,-249.171 81.9332,-258.013 86.1729,-252.443"/>
</g>
<!-- Node28&#45;&gt;Node17 -->
<g id="edge71" class="edge"><title>Node28&#45;&gt;Node17</title>
<path fill="none" stroke="midnightblue" d="M641.645,-425.433C565.908,-403.428 435.542,-352.867 379,-255 368.918,-237.549 370.867,-213.865 374.08,-197.6"/>
<polygon fill="midnightblue" stroke="midnightblue" points="377.528,-198.224 376.373,-187.692 370.708,-196.645 377.528,-198.224"/>
</g>
<!-- Node29 -->
<g id="node30" class="node"><title>Node29</title>
<g id="a_node30"><a xlink:href="../../dd/d3b/QbitAllocator_8h.xhtml" target="_top" xlink:title="enfield/Transform/Allocators\l/QbitAllocator.h">
<polygon fill="none" stroke="black" points="629.5,-358.5 629.5,-388.5 768.5,-388.5 768.5,-358.5 629.5,-358.5"/>
<text text-anchor="start" x="637.5" y="-376.5" font-family="Helvetica,sans-Serif" font-size="10.00">enfield/Transform/Allocators</text>
<text text-anchor="middle" x="699" y="-365.5" font-family="Helvetica,sans-Serif" font-size="10.00">/QbitAllocator.h</text>
</a>
</g>
</g>
<!-- Node28&#45;&gt;Node29 -->
<g id="edge42" class="edge"><title>Node28&#45;&gt;Node29</title>
<path fill="none" stroke="midnightblue" d="M699,-425.396C699,-417.645 699,-407.812 699,-398.86"/>
<polygon fill="midnightblue" stroke="midnightblue" points="702.5,-398.576 699,-388.577 695.5,-398.577 702.5,-398.576"/>
</g>
<!-- Node35 -->
<g id="node36" class="node"><title>Node35</title>
<g id="a_node36"><a xlink:href="../../d1/d9a/Allocators_8def.xhtml" target="_top" xlink:title="enfield/Transform/Allocators\l/Allocators.def">
<polygon fill="none" stroke="black" points="825.5,-358.5 825.5,-388.5 964.5,-388.5 964.5,-358.5 825.5,-358.5"/>
<text text-anchor="start" x="833.5" y="-376.5" font-family="Helvetica,sans-Serif" font-size="10.00">enfield/Transform/Allocators</text>
<text text-anchor="middle" x="895" y="-365.5" font-family="Helvetica,sans-Serif" font-size="10.00">/Allocators.def</text>
</a>
</g>
</g>
<!-- Node28&#45;&gt;Node35 -->
<g id="edge72" class="edge"><title>Node28&#45;&gt;Node35</title>
<path fill="none" stroke="midnightblue" d="M741.529,-425.396C771.323,-415.515 811.316,-402.252 843.006,-391.743"/>
<polygon fill="midnightblue" stroke="midnightblue" points="844.164,-395.046 852.554,-388.577 841.961,-388.402 844.164,-395.046"/>
</g>
<!-- Node29&#45;&gt;Node13 -->
<g id="edge43" class="edge"><title>Node29&#45;&gt;Node13</title>
<path fill="none" stroke="midnightblue" d="M709.488,-358.374C727.686,-333.862 765.029,-283.563 784.526,-257.302"/>
<polygon fill="midnightblue" stroke="midnightblue" points="787.466,-259.213 790.617,-249.097 781.846,-255.04 787.466,-259.213"/>
</g>
<!-- Node30 -->
<g id="node31" class="node"><title>Node30</title>
<g id="a_node31"><a xlink:href="../../d9/dcf/DependencyBuilderPass_8h.xhtml" target="_top" xlink:title="enfield/Transform/Dependency\lBuilderPass.h">
<polygon fill="none" stroke="black" points="951,-291.5 951,-321.5 1101,-321.5 1101,-291.5 951,-291.5"/>
<text text-anchor="start" x="959" y="-309.5" font-family="Helvetica,sans-Serif" font-size="10.00">enfield/Transform/Dependency</text>
<text text-anchor="middle" x="1026" y="-298.5" font-family="Helvetica,sans-Serif" font-size="10.00">BuilderPass.h</text>
</a>
</g>
</g>
<!-- Node29&#45;&gt;Node30 -->
<g id="edge44" class="edge"><title>Node29&#45;&gt;Node30</title>
<path fill="none" stroke="midnightblue" d="M768.749,-358.636C820.575,-348.334 891.383,-334.259 945.593,-323.483"/>
<polygon fill="midnightblue" stroke="midnightblue" points="946.388,-326.894 955.513,-321.511 945.023,-320.028 946.388,-326.894"/>
</g>
<!-- Node32 -->
<g id="node33" class="node"><title>Node32</title>
<g id="a_node33"><a xlink:href="../../d9/d41/CommandLine_8h.xhtml" target="_top" xlink:title="enfield/Support/CommandLine.h">
<polygon fill="none" stroke="black" points="518,-297 518,-316 674,-316 674,-297 518,-297"/>
<text text-anchor="middle" x="596" y="-304" font-family="Helvetica,sans-Serif" font-size="10.00">enfield/Support/CommandLine.h</text>
</a>
</g>
</g>
<!-- Node29&#45;&gt;Node32 -->
<g id="edge60" class="edge"><title>Node29&#45;&gt;Node32</title>
<path fill="none" stroke="midnightblue" d="M676.651,-358.396C659.378,-347.496 635.582,-332.479 618.317,-321.584"/>
<polygon fill="midnightblue" stroke="midnightblue" points="619.805,-318.384 609.48,-316.007 616.069,-324.304 619.805,-318.384"/>
</g>
<!-- Node34 -->
<g id="node35" class="node"><title>Node34</title>
<g id="a_node35"><a xlink:href="../../dc/d09/Stats_8h.xhtml" target="_top" xlink:title="enfield/Support/Stats.h">
<polygon fill="none" stroke="black" points="756,-112.5 756,-131.5 872,-131.5 872,-112.5 756,-112.5"/>
<text text-anchor="middle" x="814" y="-119.5" font-family="Helvetica,sans-Serif" font-size="10.00">enfield/Support/Stats.h</text>
</a>
</g>
</g>
<!-- Node29&#45;&gt;Node34 -->
<g id="edge67" class="edge"><title>Node29&#45;&gt;Node34</title>
<path fill="none" stroke="midnightblue" d="M698.381,-358.324C697.563,-322.356 700.175,-226.279 747,-168 757.553,-154.865 772.976,-144.141 786.364,-136.461"/>
<polygon fill="midnightblue" stroke="midnightblue" points="788.114,-139.493 795.223,-131.638 784.767,-133.345 788.114,-139.493"/>
</g>
<!-- Node30&#45;&gt;Node1 -->
<g id="edge47" class="edge"><title>Node30&#45;&gt;Node1</title>
<path fill="none" stroke="midnightblue" d="M1101.35,-292.115C1133.97,-284.31 1171.76,-272.461 1203,-255 1230.99,-239.354 1257.21,-212.527 1272.42,-195.29"/>
<polygon fill="midnightblue" stroke="midnightblue" points="1275.09,-197.552 1278.96,-187.689 1269.79,-192.985 1275.09,-197.552"/>
</g>
<!-- Node30&#45;&gt;Node2 -->
<g id="edge45" class="edge"><title>Node30&#45;&gt;Node2</title>
<path fill="none" stroke="midnightblue" d="M1016.65,-291.115C1000.51,-264.275 971.647,-205.862 999,-168 1013.78,-147.535 1038.23,-136.225 1062.35,-130.026"/>
<polygon fill="midnightblue" stroke="midnightblue" points="1063.31,-133.396 1072.27,-127.745 1061.74,-126.574 1063.31,-133.396"/>
</g>
<!-- Node30&#45;&gt;Node8 -->
<g id="edge58" class="edge"><title>Node30&#45;&gt;Node8</title>
<path fill="none" stroke="midnightblue" d="M1002.47,-291.461C972.341,-273.915 918.14,-243.791 869,-224 816.56,-202.88 789.919,-224.797 747,-188 715.378,-160.889 700.086,-112.365 693.764,-85.7452"/>
<polygon fill="midnightblue" stroke="midnightblue" points="697.145,-84.8216 691.582,-75.8043 690.307,-86.3221 697.145,-84.8216"/>
</g>
<!-- Node30&#45;&gt;Node10 -->
<g id="edge46" class="edge"><title>Node30&#45;&gt;Node10</title>
<path fill="none" stroke="midnightblue" d="M1101.23,-298.979C1178.73,-291.229 1293.48,-276.57 1332,-255 1376.03,-230.349 1399.49,-171.261 1408.94,-141.212"/>
<polygon fill="midnightblue" stroke="midnightblue" points="1412.31,-142.156 1411.8,-131.573 1405.6,-140.165 1412.31,-142.156"/>
</g>
<!-- Node30&#45;&gt;Node11 -->
<g id="edge56" class="edge"><title>Node30&#45;&gt;Node11</title>
<path fill="none" stroke="midnightblue" d="M1101.08,-305.091C1183.66,-299.982 1311.85,-277.139 1366,-188 1380.96,-163.37 1347.98,-145.449 1317.62,-134.738"/>
<polygon fill="midnightblue" stroke="midnightblue" points="1318.51,-131.347 1307.92,-131.514 1316.31,-137.989 1318.51,-131.347"/>
</g>
<!-- Node30&#45;&gt;Node15 -->
<g id="edge59" class="edge"><title>Node30&#45;&gt;Node15</title>
<path fill="none" stroke="midnightblue" d="M1002.21,-291.373C989.453,-282.536 974.619,-269.99 966,-255 945.294,-218.989 942.283,-168.988 942.357,-142.037"/>
<polygon fill="midnightblue" stroke="midnightblue" points="945.862,-141.769 942.545,-131.707 938.863,-141.642 945.862,-141.769"/>
</g>
<!-- Node30&#45;&gt;Node25 -->
<g id="edge57" class="edge"><title>Node30&#45;&gt;Node25</title>
<path fill="none" stroke="midnightblue" d="M1026,-291.479C1026,-268.719 1026,-223.702 1026,-198.058"/>
<polygon fill="midnightblue" stroke="midnightblue" points="1029.5,-197.789 1026,-187.789 1022.5,-197.789 1029.5,-197.789"/>
</g>
<!-- Node31 -->
<g id="node32" class="node"><title>Node31</title>
<g id="a_node32"><a xlink:href="../../d6/d94/XbitToNumberPass_8h.xhtml" target="_top" xlink:title="enfield/Transform/XbitTo\lNumberPass.h">
<polygon fill="none" stroke="black" points="1070,-224.5 1070,-254.5 1194,-254.5 1194,-224.5 1070,-224.5"/>
<text text-anchor="start" x="1078" y="-242.5" font-family="Helvetica,sans-Serif" font-size="10.00">enfield/Transform/XbitTo</text>
<text text-anchor="middle" x="1132" y="-231.5" font-family="Helvetica,sans-Serif" font-size="10.00">NumberPass.h</text>
</a>
</g>
</g>
<!-- Node30&#45;&gt;Node31 -->
<g id="edge48" class="edge"><title>Node30&#45;&gt;Node31</title>
<path fill="none" stroke="midnightblue" d="M1049,-291.396C1064,-282.197 1083.79,-270.066 1100.27,-259.955"/>
<polygon fill="midnightblue" stroke="midnightblue" points="1102.35,-262.788 1109.04,-254.577 1098.69,-256.82 1102.35,-262.788"/>
</g>
<!-- Node31&#45;&gt;Node1 -->
<g id="edge50" class="edge"><title>Node31&#45;&gt;Node1</title>
<path fill="none" stroke="midnightblue" d="M1168.5,-224.399C1194.57,-214.327 1229.29,-200.909 1254.22,-191.277"/>
<polygon fill="midnightblue" stroke="midnightblue" points="1255.53,-194.527 1263.59,-187.658 1253,-187.997 1255.53,-194.527"/>
</g>
<!-- Node31&#45;&gt;Node2 -->
<g id="edge51" class="edge"><title>Node31&#45;&gt;Node2</title>
<path fill="none" stroke="midnightblue" d="M1132.37,-224.337C1132.91,-203.622 1133.91,-165.016 1134.51,-141.899"/>
<polygon fill="midnightblue" stroke="midnightblue" points="1138.01,-141.757 1134.77,-131.669 1131.02,-141.575 1138.01,-141.757"/>
</g>
<!-- Node31&#45;&gt;Node8 -->
<g id="edge53" class="edge"><title>Node31&#45;&gt;Node8</title>
<path fill="none" stroke="midnightblue" d="M1124.25,-224.22C1115.27,-208.749 1099.23,-184.122 1080,-168 1037.05,-131.99 1020.37,-129.13 967,-112 921.832,-97.5027 785.099,-79.0224 722.24,-71.0074"/>
<polygon fill="midnightblue" stroke="midnightblue" points="722.465,-67.508 712.104,-69.7242 721.586,-74.4526 722.465,-67.508"/>
</g>
<!-- Node31&#45;&gt;Node10 -->
<g id="edge49" class="edge"><title>Node31&#45;&gt;Node10</title>
<path fill="none" stroke="midnightblue" d="M1194.22,-236.943C1244.2,-233.043 1314.34,-221.38 1366,-188 1383.81,-176.495 1397.32,-155.922 1405.4,-140.996"/>
<polygon fill="midnightblue" stroke="midnightblue" points="1408.69,-142.245 1410.11,-131.746 1402.45,-139.067 1408.69,-142.245"/>
</g>
<!-- Node31&#45;&gt;Node11 -->
<g id="edge52" class="edge"><title>Node31&#45;&gt;Node11</title>
<path fill="none" stroke="midnightblue" d="M1144.99,-224.405C1159.05,-209.533 1182.48,-185.826 1205,-168 1219.54,-156.488 1237.1,-145.205 1251,-136.817"/>
<polygon fill="midnightblue" stroke="midnightblue" points="1253.13,-139.619 1259.95,-131.505 1249.56,-133.599 1253.13,-139.619"/>
</g>
<!-- Node31&#45;&gt;Node15 -->
<g id="edge54" class="edge"><title>Node31&#45;&gt;Node15</title>
<path fill="none" stroke="midnightblue" d="M1118.69,-224.229C1103.67,-208.766 1077.93,-184.146 1052,-168 1025.02,-151.202 990.686,-138.23 967.833,-130.62"/>
<polygon fill="midnightblue" stroke="midnightblue" points="968.8,-127.255 958.208,-127.507 966.646,-133.915 968.8,-127.255"/>
</g>
<!-- Node31&#45;&gt;Node25 -->
<g id="edge55" class="edge"><title>Node31&#45;&gt;Node25</title>
<path fill="none" stroke="midnightblue" d="M1106.88,-224.399C1089.73,-214.773 1067.14,-202.09 1050.19,-192.577"/>
<polygon fill="midnightblue" stroke="midnightblue" points="1051.86,-189.501 1041.42,-187.658 1048.43,-195.605 1051.86,-189.501"/>
</g>
<!-- Node32&#45;&gt;Node4 -->
<g id="edge63" class="edge"><title>Node32&#45;&gt;Node4</title>
<path fill="none" stroke="midnightblue" d="M593.706,-296.984C588.452,-276.709 576,-223.914 576,-179 576,-179 576,-179 576,-121 576,-88.948 576,-51.6426 576,-29.7489"/>
<polygon fill="midnightblue" stroke="midnightblue" points="579.5,-29.5577 576,-19.5578 572.5,-29.5578 579.5,-29.5577"/>
</g>
<!-- Node32&#45;&gt;Node8 -->
<g id="edge64" class="edge"><title>Node32&#45;&gt;Node8</title>
<path fill="none" stroke="midnightblue" d="M595.989,-296.692C596.332,-267.974 600.457,-175.263 638,-112 645.235,-99.8079 656.947,-89.2441 667.426,-81.4213"/>
<polygon fill="midnightblue" stroke="midnightblue" points="669.649,-84.1368 675.812,-75.5193 665.62,-78.4123 669.649,-84.1368"/>
</g>
<!-- Node32&#45;&gt;Node9 -->
<g id="edge66" class="edge"><title>Node32&#45;&gt;Node9</title>
<path fill="none" stroke="midnightblue" d="M600.361,-296.636C615.836,-266.104 671.271,-164.315 747,-112 764.741,-99.744 819.035,-84.7724 855.911,-75.5629"/>
<polygon fill="midnightblue" stroke="midnightblue" points="856.933,-78.9159 865.805,-73.1252 855.258,-72.1192 856.933,-78.9159"/>
</g>
<!-- Node32&#45;&gt;Node24 -->
<g id="edge65" class="edge"><title>Node32&#45;&gt;Node24</title>
<path fill="none" stroke="midnightblue" d="M589.79,-296.684C582.823,-286.702 571.282,-269.889 562,-255 536.928,-214.785 509.715,-166.187 495.644,-140.65"/>
<polygon fill="midnightblue" stroke="midnightblue" points="498.652,-138.855 490.772,-131.773 492.516,-142.224 498.652,-138.855"/>
</g>
<!-- Node33 -->
<g id="node34" class="node"><title>Node33</title>
<g id="a_node34"><a xlink:href="../../d1/d5e/PossibleValuesListTrait_8h.xhtml" target="_top" xlink:title="enfield/Support/Possible\lValuesListTrait.h">
<polygon fill="none" stroke="black" points="388,-224.5 388,-254.5 510,-254.5 510,-224.5 388,-224.5"/>
<text text-anchor="start" x="396" y="-242.5" font-family="Helvetica,sans-Serif" font-size="10.00">enfield/Support/Possible</text>
<text text-anchor="middle" x="449" y="-231.5" font-family="Helvetica,sans-Serif" font-size="10.00">ValuesListTrait.h</text>
</a>
</g>
</g>
<!-- Node32&#45;&gt;Node33 -->
<g id="edge61" class="edge"><title>Node32&#45;&gt;Node33</title>
<path fill="none" stroke="midnightblue" d="M576.48,-296.869C554.517,-287.157 518.224,-271.109 489.967,-258.615"/>
<polygon fill="midnightblue" stroke="midnightblue" points="491.286,-255.371 480.725,-254.528 488.455,-261.773 491.286,-255.371"/>
</g>
<!-- Node33&#45;&gt;Node17 -->
<g id="edge62" class="edge"><title>Node33&#45;&gt;Node17</title>
<path fill="none" stroke="midnightblue" d="M432.411,-224.399C421.715,-215.308 407.812,-203.49 396.872,-194.191"/>
<polygon fill="midnightblue" stroke="midnightblue" points="399.072,-191.468 389.186,-187.658 394.538,-196.801 399.072,-191.468"/>
</g>
<!-- Node34&#45;&gt;Node7 -->
<g id="edge68" class="edge"><title>Node34&#45;&gt;Node7</title>
<path fill="none" stroke="midnightblue" d="M814,-112.083C814,-105.006 814,-94.8611 814,-85.9865"/>
<polygon fill="midnightblue" stroke="midnightblue" points="817.5,-85.751 814,-75.7511 810.5,-85.7511 817.5,-85.751"/>
</g>
<!-- Node34&#45;&gt;Node9 -->
<g id="edge69" class="edge"><title>Node34&#45;&gt;Node9</title>
<path fill="none" stroke="midnightblue" d="M826.532,-112.324C838.586,-103.979 857.027,-91.2122 871.269,-81.3524"/>
<polygon fill="midnightblue" stroke="midnightblue" points="873.269,-84.2243 879.499,-75.6545 869.285,-78.469 873.269,-84.2243"/>
</g>
</g>
</svg>
        <g id="navigator" transform="translate(0 0)" fill="#404254">
                <rect fill="#f2f5e9" fill-opacity="0.5" stroke="#606060" stroke-width=".5" x="0" y="0" width="60" height="60"/>
                <use id="zoomplus" xlink:href="#zoomPlus" x="17" y="9" onmousedown="handleZoom(evt,'in')"/>
                <use id="zoomminus" xlink:href="#zoomMin" x="42" y="9" onmousedown="handleZoom(evt,'out')"/>
                <use id="reset" xlink:href="#resetDef" x="30" y="36" onmousedown="handleReset()"/>
                <g id="arrowUp" xlink:href="#dirArrow" transform="translate(30 24)" onmousedown="handlePan(0,-1)">
                  <use xlink:href="#rim" fill="#404040">
                        <set attributeName="fill" to="#808080" begin="arrowUp.mouseover" end="arrowUp.mouseout"/>
                  </use>
                  <path fill="none" stroke="white" stroke-width="1.5" d="M0,-3.0v7 M-2.5,-0.5L0,-3.0L2.5,-0.5"/>
                </g>
                <g id="arrowRight" xlink:href="#dirArrow" transform="rotate(90) translate(36 -43)" onmousedown="handlePan(1,0)">
                  <use xlink:href="#rim" fill="#404040">
                        <set attributeName="fill" to="#808080" begin="arrowRight.mouseover" end="arrowRight.mouseout"/>
                  </use>
                  <path fill="none" stroke="white" stroke-width="1.5" d="M0,-3.0v7 M-2.5,-0.5L0,-3.0L2.5,-0.5"/>
                </g>
                <g id="arrowDown" xlink:href="#dirArrow" transform="rotate(180) translate(-30 -48)" onmousedown="handlePan(0,1)">
                  <use xlink:href="#rim" fill="#404040">
                        <set attributeName="fill" to="#808080" begin="arrowDown.mouseover" end="arrowDown.mouseout"/>
                  </use>
                  <path fill="none" stroke="white" stroke-width="1.5" d="M0,-3.0v7 M-2.5,-0.5L0,-3.0L2.5,-0.5"/>
                </g>
                <g id="arrowLeft" xlink:href="#dirArrow" transform="rotate(270) translate(-36 17)" onmousedown="handlePan(-1,0)">
                  <use xlink:href="#rim" fill="#404040">
                        <set attributeName="fill" to="#808080" begin="arrowLeft.mouseover" end="arrowLeft.mouseout"/>
                  </use>
                  <path fill="none" stroke="white" stroke-width="1.5" d="M0,-3.0v7 M-2.5,-0.5L0,-3.0L2.5,-0.5"/>
                </g>
        </g>
        <svg viewBox="0 0 15 15" width="100%" height="30px" preserveAspectRatio="xMaxYMin meet">
         <g id="arrow_out" transform="scale(0.3 0.3)">
          <a xlink:href="Transform_2Driver_8h__incl_org.svg" target="_base">
           <rect id="button" ry="5" rx="5" y="6" x="6" height="38" width="38"
                fill="#f2f5e9" fill-opacity="0.5" stroke="#606060" stroke-width="1.0"/>
           <path id="arrow"
             d="M 11.500037,31.436501 C 11.940474,20.09759 22.043105,11.32322 32.158766,21.979434 L 37.068811,17.246167 C 37.068811,17.246167 37.088388,32 37.088388,32 L 22.160133,31.978069 C 22.160133,31.978069 26.997745,27.140456 26.997745,27.140456 C 18.528582,18.264221 13.291696,25.230495 11.500037,31.436501 z"
             style="fill:#404040;"/>
          </a>
         </g>
        </svg>
</svg>
