<?xml version="1.0" encoding="UTF-8" standalone="no"?>
<!DOCTYPE svg PUBLIC "-//W3C//DTD SVG 1.1//EN"
 "http://www.w3.org/Graphics/SVG/1.1/DTD/svg11.dtd">
<!-- Generated by graphviz version 2.40.1 (20161225.0304)
 -->
<!-- Title: lib/Transform/FlattenPass.cpp Pages: 1 -->
<svg width="839pt" height="319pt"
 viewBox="0.00 0.00 839.00 319.00" xmlns="http://www.w3.org/2000/svg" xmlns:xlink="http://www.w3.org/1999/xlink">
<g id="graph0" class="graph" transform="scale(1 1) rotate(0) translate(4 315)">
<title>lib/Transform/FlattenPass.cpp</title>
<!-- Node0 -->
<g id="node1" class="node">
<title>Node0</title>
<polygon fill="#bfbfbf" stroke="#000000" points="415.5,-291.5 415.5,-310.5 576.5,-310.5 576.5,-291.5 415.5,-291.5"/>
<text text-anchor="middle" x="496" y="-298.5" font-family="Helvetica,sans-Serif" font-size="10.00" fill="#000000">lib/Transform/FlattenPass.cpp</text>
</g>
<!-- Node1 -->
<g id="node2" class="node">
<title>Node1</title>
<g id="a_node2"><a xlink:href="../../d6/da6/FlattenPass_8h.xhtml" target="_top" xlink:title="enfield/Transform/Flatten\lPass.h">
<polygon fill="none" stroke="#000000" points="144,-224.5 144,-254.5 284,-254.5 284,-224.5 144,-224.5"/>
<text text-anchor="start" x="152" y="-242.5" font-family="Helvetica,sans-Serif" font-size="10.00" fill="#000000">enfield/Transform/Flatten</text>
<text text-anchor="middle" x="214" y="-231.5" font-family="Helvetica,sans-Serif" font-size="10.00" fill="#000000">Pass.h</text>
</a>
</g>
</g>
<!-- Node0&#45;&gt;Node1 -->
<g id="edge1" class="edge">
<title>Node0&#45;&gt;Node1</title>
<path fill="none" stroke="#191970" d="M452.2469,-291.4581C409.7357,-282.187 344.2299,-267.9012 292.657,-256.6539"/>
<polygon fill="#191970" stroke="#191970" points="293.3852,-253.2305 282.869,-254.5193 291.8936,-260.0698 293.3852,-253.2305"/>
</g>
<!-- Node8 -->
<g id="node9" class="node">
<title>Node8</title>
<g id="a_node9"><a xlink:href="../../d5/dfc/RTTI_8h.xhtml" target="_top" xlink:title="enfield/Support/RTTI.h">
<polygon fill="none" stroke="#000000" points="434.5,-56.5 434.5,-75.5 559.5,-75.5 559.5,-56.5 434.5,-56.5"/>
<text text-anchor="middle" x="497" y="-63.5" font-family="Helvetica,sans-Serif" font-size="10.00" fill="#000000">enfield/Support/RTTI.h</text>
</a>
</g>
</g>
<!-- Node0&#45;&gt;Node8 -->
<g id="edge17" class="edge">
<title>Node0&#45;&gt;Node8</title>
<path fill="none" stroke="#191970" d="M496.0404,-291.4967C496.1896,-256.4391 496.711,-133.9096 496.9162,-85.7"/>
<polygon fill="#191970" stroke="#191970" points="500.4164,-85.6364 496.9591,-75.6216 493.4164,-85.6066 500.4164,-85.6364"/>
</g>
<!-- Node13 -->
<g id="node14" class="node">
<title>Node13</title>
<g id="a_node14"><a xlink:href="../../d0/d8d/NodeVisitor_8h.xhtml" target="_top" xlink:title="enfield/Analysis/NodeVisitor.h">
<polygon fill="none" stroke="#000000" points="304,-230 304,-249 468,-249 468,-230 304,-230"/>
<text text-anchor="middle" x="386" y="-237" font-family="Helvetica,sans-Serif" font-size="10.00" fill="#000000">enfield/Analysis/NodeVisitor.h</text>
</a>
</g>
</g>
<!-- Node0&#45;&gt;Node13 -->
<g id="edge15" class="edge">
<title>Node0&#45;&gt;Node13</title>
<path fill="none" stroke="#191970" d="M478.8125,-291.3906C460.8918,-281.3713 432.5905,-265.5483 411.9477,-254.0071"/>
<polygon fill="#191970" stroke="#191970" points="413.5033,-250.867 403.0668,-249.0419 410.0872,-256.9769 413.5033,-250.867"/>
</g>
<!-- Node14 -->
<g id="node15" class="node">
<title>Node14</title>
<g id="a_node15"><a xlink:href="../../dc/d09/uRefCast_8h.xhtml" target="_top" xlink:title="enfield/Support/uRefCast.h">
<polygon fill="none" stroke="#000000" points="524.5,-168.5 524.5,-187.5 671.5,-187.5 671.5,-168.5 524.5,-168.5"/>
<text text-anchor="middle" x="598" y="-175.5" font-family="Helvetica,sans-Serif" font-size="10.00" fill="#000000">enfield/Support/uRefCast.h</text>
</a>
</g>
</g>
<!-- Node0&#45;&gt;Node14 -->
<g id="edge18" class="edge">
<title>Node0&#45;&gt;Node14</title>
<path fill="none" stroke="#191970" d="M504.0038,-291.3484C521.1346,-270.6906 561.5651,-221.9362 583.4014,-195.6042"/>
<polygon fill="#191970" stroke="#191970" points="586.3442,-197.5386 590.0334,-187.6068 580.9559,-193.0702 586.3442,-197.5386"/>
</g>
<!-- Node17 -->
<g id="node18" class="node">
<title>Node17</title>
<polygon fill="none" stroke="#bfbfbf" points="787,-56.5 787,-75.5 831,-75.5 831,-56.5 787,-56.5"/>
<text text-anchor="middle" x="809" y="-63.5" font-family="Helvetica,sans-Serif" font-size="10.00" fill="#000000">limits</text>
</g>
<!-- Node0&#45;&gt;Node17 -->
<g id="edge27" class="edge">
<title>Node0&#45;&gt;Node17</title>
<path fill="none" stroke="#191970" d="M525.4857,-291.4564C583.3845,-271.2648 712.5872,-218.8122 785,-132 796.0923,-118.7019 802.2639,-99.8439 805.5606,-85.6888"/>
<polygon fill="#191970" stroke="#191970" points="809.0612,-86.0382 807.6271,-75.5409 802.2019,-84.6413 809.0612,-86.0382"/>
</g>
<!-- Node2 -->
<g id="node3" class="node">
<title>Node2</title>
<g id="a_node3"><a xlink:href="../../df/d29/Pass_8h.xhtml" target="_top" xlink:title="enfield/Transform/Pass.h">
<polygon fill="none" stroke="#000000" points="11,-112.5 11,-131.5 149,-131.5 149,-112.5 11,-112.5"/>
<text text-anchor="middle" x="80" y="-119.5" font-family="Helvetica,sans-Serif" font-size="10.00" fill="#000000">enfield/Transform/Pass.h</text>
</a>
</g>
</g>
<!-- Node1&#45;&gt;Node2 -->
<g id="edge2" class="edge">
<title>Node1&#45;&gt;Node2</title>
<path fill="none" stroke="#191970" d="M180.7983,-224.4233C163.2738,-215.4428 142.1234,-202.8944 126,-188 111.1625,-174.2935 98.4084,-155.0093 90.1191,-140.824"/>
<polygon fill="#191970" stroke="#191970" points="93.0786,-138.9464 85.123,-131.9493 86.9788,-142.3804 93.0786,-138.9464"/>
</g>
<!-- Node4 -->
<g id="node5" class="node">
<title>Node4</title>
<g id="a_node5"><a xlink:href="../../d4/d73/QModule_8h.xhtml" target="_top" xlink:title="enfield/Transform/QModule.h">
<polygon fill="none" stroke="#000000" points="135,-168.5 135,-187.5 293,-187.5 293,-168.5 135,-168.5"/>
<text text-anchor="middle" x="214" y="-175.5" font-family="Helvetica,sans-Serif" font-size="10.00" fill="#000000">enfield/Transform/QModule.h</text>
</a>
</g>
</g>
<!-- Node1&#45;&gt;Node4 -->
<g id="edge4" class="edge">
<title>Node1&#45;&gt;Node4</title>
<path fill="none" stroke="#191970" d="M214,-224.2977C214,-216.3834 214,-206.6043 214,-198.0759"/>
<polygon fill="#191970" stroke="#191970" points="217.5001,-197.8469 214,-187.8469 210.5001,-197.847 217.5001,-197.8469"/>
</g>
<!-- Node3 -->
<g id="node4" class="node">
<title>Node3</title>
<polygon fill="none" stroke="#bfbfbf" points="0,-56.5 0,-75.5 58,-75.5 58,-56.5 0,-56.5"/>
<text text-anchor="middle" x="29" y="-63.5" font-family="Helvetica,sans-Serif" font-size="10.00" fill="#000000">memory</text>
</g>
<!-- Node2&#45;&gt;Node3 -->
<g id="edge3" class="edge">
<title>Node2&#45;&gt;Node3</title>
<path fill="none" stroke="#191970" d="M71.1165,-112.2455C63.8034,-104.2155 53.2609,-92.6394 44.5533,-83.0781"/>
<polygon fill="#191970" stroke="#191970" points="47.1028,-80.6795 37.7817,-75.6427 41.9273,-85.3928 47.1028,-80.6795"/>
</g>
<!-- Node4&#45;&gt;Node2 -->
<g id="edge13" class="edge">
<title>Node4&#45;&gt;Node2</title>
<path fill="none" stroke="#191970" d="M190.9646,-168.3733C169.2612,-159.3032 136.5382,-145.6279 112.245,-135.4755"/>
<polygon fill="#191970" stroke="#191970" points="113.3111,-132.1278 102.7348,-131.5011 110.6119,-138.5865 113.3111,-132.1278"/>
</g>
<!-- Node5 -->
<g id="node6" class="node">
<title>Node5</title>
<g id="a_node6"><a xlink:href="../../d4/daf/Nodes_8h.xhtml" target="_top" xlink:title="enfield/Analysis/Nodes.h">
<polygon fill="none" stroke="#000000" points="317.5,-112.5 317.5,-131.5 454.5,-131.5 454.5,-112.5 317.5,-112.5"/>
<text text-anchor="middle" x="386" y="-119.5" font-family="Helvetica,sans-Serif" font-size="10.00" fill="#000000">enfield/Analysis/Nodes.h</text>
</a>
</g>
</g>
<!-- Node4&#45;&gt;Node5 -->
<g id="edge5" class="edge">
<title>Node4&#45;&gt;Node5</title>
<path fill="none" stroke="#191970" d="M243.5679,-168.3733C272.1688,-159.0613 315.6788,-144.8953 347.0819,-134.671"/>
<polygon fill="#191970" stroke="#191970" points="348.3928,-137.9251 356.818,-131.5011 346.2257,-131.269 348.3928,-137.9251"/>
</g>
<!-- Node12 -->
<g id="node13" class="node">
<title>Node12</title>
<polygon fill="none" stroke="#bfbfbf" points="167.5,-112.5 167.5,-131.5 260.5,-131.5 260.5,-112.5 167.5,-112.5"/>
<text text-anchor="middle" x="214" y="-119.5" font-family="Helvetica,sans-Serif" font-size="10.00" fill="#000000">unordered_map</text>
</g>
<!-- Node4&#45;&gt;Node12 -->
<g id="edge14" class="edge">
<title>Node4&#45;&gt;Node12</title>
<path fill="none" stroke="#191970" d="M214,-168.2455C214,-160.9382 214,-150.6944 214,-141.7046"/>
<polygon fill="#191970" stroke="#191970" points="217.5001,-141.6426 214,-131.6427 210.5001,-141.6427 217.5001,-141.6426"/>
</g>
<!-- Node5&#45;&gt;Node3 -->
<g id="edge12" class="edge">
<title>Node5&#45;&gt;Node3</title>
<path fill="none" stroke="#191970" d="M317.2691,-113.0248C242.7278,-103.1348 127.4621,-87.3504 68.392,-76.0674"/>
<polygon fill="#191970" stroke="#191970" points="68.87,-72.5942 58.3807,-74.0859 67.5109,-79.461 68.87,-72.5942"/>
</g>
<!-- Node6 -->
<g id="node7" class="node">
<title>Node6</title>
<g id="a_node7"><a xlink:href="../../d1/d2e/WrapperVal_8h.xhtml" target="_top" xlink:title="enfield/Support/WrapperVal.h">
<polygon fill="none" stroke="#000000" points="76,-56.5 76,-75.5 236,-75.5 236,-56.5 76,-56.5"/>
<text text-anchor="middle" x="156" y="-63.5" font-family="Helvetica,sans-Serif" font-size="10.00" fill="#000000">enfield/Support/WrapperVal.h</text>
</a>
</g>
</g>
<!-- Node5&#45;&gt;Node6 -->
<g id="edge6" class="edge">
<title>Node5&#45;&gt;Node6</title>
<path fill="none" stroke="#191970" d="M346.7229,-112.4369C307.5256,-102.8932 247.2,-88.2052 204.9165,-77.9101"/>
<polygon fill="#191970" stroke="#191970" points="205.6592,-74.4888 195.1151,-75.5237 204.0032,-81.2901 205.6592,-74.4888"/>
</g>
<!-- Node5&#45;&gt;Node8 -->
<g id="edge8" class="edge">
<title>Node5&#45;&gt;Node8</title>
<path fill="none" stroke="#191970" d="M405.0816,-112.3733C422.7402,-103.4644 449.2053,-90.1127 469.2098,-80.0203"/>
<polygon fill="#191970" stroke="#191970" points="470.8158,-83.1303 478.1674,-75.5011 467.6628,-76.8806 470.8158,-83.1303"/>
</g>
<!-- Node9 -->
<g id="node10" class="node">
<title>Node9</title>
<polygon fill="none" stroke="#bfbfbf" points="254.5,-56.5 254.5,-75.5 337.5,-75.5 337.5,-56.5 254.5,-56.5"/>
<text text-anchor="middle" x="296" y="-63.5" font-family="Helvetica,sans-Serif" font-size="10.00" fill="#000000">initializer_list</text>
</g>
<!-- Node5&#45;&gt;Node9 -->
<g id="edge9" class="edge">
<title>Node5&#45;&gt;Node9</title>
<path fill="none" stroke="#191970" d="M370.3232,-112.2455C356.5144,-103.6534 336.1807,-91.0014 320.2708,-81.1018"/>
<polygon fill="#191970" stroke="#191970" points="321.8368,-77.954 311.4972,-75.6427 318.1387,-83.8974 321.8368,-77.954"/>
</g>
<!-- Node10 -->
<g id="node11" class="node">
<title>Node10</title>
<polygon fill="none" stroke="#bfbfbf" points="356,-56.5 356,-75.5 416,-75.5 416,-56.5 356,-56.5"/>
<text text-anchor="middle" x="386" y="-63.5" font-family="Helvetica,sans-Serif" font-size="10.00" fill="#000000">iostream</text>
</g>
<!-- Node5&#45;&gt;Node10 -->
<g id="edge10" class="edge">
<title>Node5&#45;&gt;Node10</title>
<path fill="none" stroke="#191970" d="M386,-112.2455C386,-104.9382 386,-94.6944 386,-85.7046"/>
<polygon fill="#191970" stroke="#191970" points="389.5001,-85.6426 386,-75.6427 382.5001,-85.6427 389.5001,-85.6426"/>
</g>
<!-- Node11 -->
<g id="node12" class="node">
<title>Node11</title>
<polygon fill="none" stroke="#bfbfbf" points="577.5,-56.5 577.5,-75.5 624.5,-75.5 624.5,-56.5 577.5,-56.5"/>
<text text-anchor="middle" x="601" y="-63.5" font-family="Helvetica,sans-Serif" font-size="10.00" fill="#000000">vector</text>
</g>
<!-- Node5&#45;&gt;Node11 -->
<g id="edge11" class="edge">
<title>Node5&#45;&gt;Node11</title>
<path fill="none" stroke="#191970" d="M426.8778,-112.426C461.9735,-104.0495 514.1176,-91.2336 567.6289,-76.2909"/>
<polygon fill="#191970" stroke="#191970" points="568.6001,-79.6537 577.279,-73.5769 566.7048,-72.9151 568.6001,-79.6537"/>
</g>
<!-- Node7 -->
<g id="node8" class="node">
<title>Node7</title>
<polygon fill="none" stroke="#bfbfbf" points="134,-.5 134,-19.5 178,-19.5 178,-.5 134,-.5"/>
<text text-anchor="middle" x="156" y="-7.5" font-family="Helvetica,sans-Serif" font-size="10.00" fill="#000000">string</text>
</g>
<!-- Node6&#45;&gt;Node7 -->
<g id="edge7" class="edge">
<title>Node6&#45;&gt;Node7</title>
<path fill="none" stroke="#191970" d="M156,-56.2455C156,-48.9382 156,-38.6944 156,-29.7046"/>
<polygon fill="#191970" stroke="#191970" points="159.5001,-29.6426 156,-19.6427 152.5001,-29.6427 159.5001,-29.6426"/>
</g>
<!-- Node13&#45;&gt;Node5 -->
<g id="edge16" class="edge">
<title>Node13&#45;&gt;Node5</title>
<path fill="none" stroke="#191970" d="M386,-229.8845C386,-210.6913 386,-167.286 386,-141.7663"/>
<polygon fill="#191970" stroke="#191970" points="389.5001,-141.7483 386,-131.7484 382.5001,-141.7484 389.5001,-141.7483"/>
</g>
<!-- Node14&#45;&gt;Node3 -->
<g id="edge25" class="edge">
<title>Node14&#45;&gt;Node3</title>
<path fill="none" stroke="#191970" d="M524.3969,-172.7912C464.8607,-167.0524 379.4774,-155.3368 308,-132 289.4823,-125.9541 287.4592,-118.222 269,-112 185.6227,-83.8961 157.996,-94.7754 68.4429,-76.1458"/>
<polygon fill="#191970" stroke="#191970" points="68.9134,-72.6671 58.4013,-73.9885 67.4431,-79.511 68.9134,-72.6671"/>
</g>
<!-- Node14&#45;&gt;Node8 -->
<g id="edge19" class="edge">
<title>Node14&#45;&gt;Node8</title>
<path fill="none" stroke="#191970" d="M589.3888,-168.4509C572.3196,-149.5227 533.9859,-107.014 512.4457,-83.1279"/>
<polygon fill="#191970" stroke="#191970" points="514.8856,-80.6073 505.5894,-75.5249 509.6872,-85.2952 514.8856,-80.6073"/>
</g>
<!-- Node15 -->
<g id="node16" class="node">
<title>Node15</title>
<g id="a_node16"><a xlink:href="../../d1/d73/Defs_8h.xhtml" target="_top" xlink:title="enfield/Support/Defs.h">
<polygon fill="none" stroke="#000000" points="575.5,-112.5 575.5,-131.5 700.5,-131.5 700.5,-112.5 575.5,-112.5"/>
<text text-anchor="middle" x="638" y="-119.5" font-family="Helvetica,sans-Serif" font-size="10.00" fill="#000000">enfield/Support/Defs.h</text>
</a>
</g>
</g>
<!-- Node14&#45;&gt;Node15 -->
<g id="edge20" class="edge">
<title>Node14&#45;&gt;Node15</title>
<path fill="none" stroke="#191970" d="M604.9675,-168.2455C610.5311,-160.4564 618.478,-149.3308 625.1829,-139.9439"/>
<polygon fill="#191970" stroke="#191970" points="628.148,-141.8144 631.1124,-131.6427 622.4519,-137.7457 628.148,-141.8144"/>
</g>
<!-- Node19 -->
<g id="node20" class="node">
<title>Node19</title>
<polygon fill="none" stroke="#bfbfbf" points="718.5,-112.5 718.5,-131.5 775.5,-131.5 775.5,-112.5 718.5,-112.5"/>
<text text-anchor="middle" x="747" y="-119.5" font-family="Helvetica,sans-Serif" font-size="10.00" fill="#000000">typeinfo</text>
</g>
<!-- Node14&#45;&gt;Node19 -->
<g id="edge26" class="edge">
<title>Node14&#45;&gt;Node19</title>
<path fill="none" stroke="#191970" d="M623.614,-168.3733C648.0687,-159.1822 685.1054,-145.2624 712.2209,-135.0713"/>
<polygon fill="#191970" stroke="#191970" points="713.5909,-138.2956 721.7202,-131.5011 711.1281,-131.7431 713.5909,-138.2956"/>
</g>
<!-- Node15&#45;&gt;Node11 -->
<g id="edge21" class="edge">
<title>Node15&#45;&gt;Node11</title>
<path fill="none" stroke="#191970" d="M631.5551,-112.2455C626.4618,-104.5367 619.2092,-93.5598 613.048,-84.2348"/>
<polygon fill="#191970" stroke="#191970" points="615.8038,-82.0566 607.3711,-75.6427 609.9635,-85.9155 615.8038,-82.0566"/>
</g>
<!-- Node16 -->
<g id="node17" class="node">
<title>Node16</title>
<polygon fill="none" stroke="#bfbfbf" points="643,-56.5 643,-75.5 693,-75.5 693,-56.5 643,-56.5"/>
<text text-anchor="middle" x="668" y="-63.5" font-family="Helvetica,sans-Serif" font-size="10.00" fill="#000000">cstdint</text>
</g>
<!-- Node15&#45;&gt;Node16 -->
<g id="edge22" class="edge">
<title>Node15&#45;&gt;Node16</title>
<path fill="none" stroke="#191970" d="M643.2256,-112.2455C647.3123,-104.617 653.1135,-93.7881 658.075,-84.5267"/>
<polygon fill="#191970" stroke="#191970" points="661.1972,-86.1103 662.8343,-75.6427 655.0268,-82.8047 661.1972,-86.1103"/>
</g>
<!-- Node15&#45;&gt;Node17 -->
<g id="edge23" class="edge">
<title>Node15&#45;&gt;Node17</title>
<path fill="none" stroke="#191970" d="M667.3959,-112.3733C697.9848,-102.3559 745.7268,-86.721 777.1848,-76.419"/>
<polygon fill="#191970" stroke="#191970" points="778.3697,-79.7139 786.7838,-73.2755 776.1911,-73.0616 778.3697,-79.7139"/>
</g>
<!-- Node18 -->
<g id="node19" class="node">
<title>Node18</title>
<polygon fill="none" stroke="#bfbfbf" points="711.5,-56.5 711.5,-75.5 768.5,-75.5 768.5,-56.5 711.5,-56.5"/>
<text text-anchor="middle" x="740" y="-63.5" font-family="Helvetica,sans-Serif" font-size="10.00" fill="#000000">ostream</text>
</g>
<!-- Node15&#45;&gt;Node18 -->
<g id="edge24" class="edge">
<title>Node15&#45;&gt;Node18</title>
<path fill="none" stroke="#191970" d="M655.767,-112.2455C671.7095,-103.4928 695.3259,-90.527 713.4989,-80.5496"/>
<polygon fill="#191970" stroke="#191970" points="715.3552,-83.5233 722.4366,-75.6427 711.9863,-77.3873 715.3552,-83.5233"/>
</g>
</g>
</svg>
