<?xml version="1.0" encoding="UTF-8" standalone="no"?>
<!DOCTYPE svg PUBLIC "-//W3C//DTD SVG 1.1//EN"
 "http://www.w3.org/Graphics/SVG/1.1/DTD/svg11.dtd">
<!-- Generated by graphviz version 2.40.1 (20161225.0304)
 -->
<!-- Title: efd::NodeVisitor Pages: 1 -->
<!--zoomable 484 -->
<svg id="main" version="1.1" xmlns="http://www.w3.org/2000/svg" xmlns:xlink="http://www.w3.org/1999/xlink" xml:space="preserve" onload="init(evt)">
<style type="text/css"><![CDATA[
.edge:hover path { stroke: red; }
.edge:hover polygon { stroke: red; fill: red; }
]]></style>
<script type="text/javascript"><![CDATA[
var edges = document.getElementsByTagName('g');
if (edges && edges.length) {
  for (var i=0;i<edges.length;i++) {
    if (edges[i].id.substr(0,4)=='edge') {
      edges[i].setAttribute('class','edge');
    }
  }
}
]]></script>
        <defs>
                <circle id="rim" cx="0" cy="0" r="7"/>
                <circle id="rim2" cx="0" cy="0" r="3.5"/>
                <g id="zoomPlus">
                        <use xlink:href="#rim" fill="#404040">
                                <set attributeName="fill" to="#808080" begin="zoomplus.mouseover" end="zoomplus.mouseout"/>
                        </use>
                        <path d="M-4,0h8M0,-4v8" fill="none" stroke="white" stroke-width="1.5" pointer-events="none"/>
                </g>
                <g id="zoomMin">
                        <use xlink:href="#rim" fill="#404040">
                                <set attributeName="fill" to="#808080" begin="zoomminus.mouseover" end="zoomminus.mouseout"/>
                        </use>
                        <path d="M-4,0h8" fill="none" stroke="white" stroke-width="1.5" pointer-events="none"/>
                </g>
                <g id="dirArrow">
                        <path fill="none" stroke="white" stroke-width="1.5" d="M0,-3.0v7 M-2.5,-0.5L0,-3.0L2.5,-0.5"/>
                </g>
               <g id="resetDef">
                       <use xlink:href="#rim2" fill="#404040">
                               <set attributeName="fill" to="#808080" begin="reset.mouseover" end="reset.mouseout"/>
                       </use>
               </g>
        </defs>

<script type="text/javascript">
var viewWidth = 304;
var viewHeight = 484;
var sectionId = 'dynsection-0';
</script>
<script xlink:href="../../svgpan.js"/>
<svg id="graph" class="graph">
<g id="viewport">
<title>efd::NodeVisitor</title>
<!-- Node0 -->
<g id="node1" class="node">
<title>Node0</title>
<polygon fill="#bfbfbf" stroke="#000000" points="0,-228.5 0,-247.5 95,-247.5 95,-228.5 0,-228.5"/>
<text text-anchor="middle" x="47.5" y="-235.5" font-family="Helvetica,sans-Serif" font-size="10.00" fill="#000000">efd::NodeVisitor</text>
</g>
<!-- Node1 -->
<g id="node2" class="node">
<title>Node1</title>
<g id="a_node2"><a xlink:href="../../de/d7d/classefd_1_1ArchVerifierVisitor.xhtml" target="_top" xlink:title="efd::ArchVerifierVisitor">
<polygon fill="none" stroke="#000000" points="149.5,-456.5 149.5,-475.5 277.5,-475.5 277.5,-456.5 149.5,-456.5"/>
<text text-anchor="middle" x="213.5" y="-463.5" font-family="Helvetica,sans-Serif" font-size="10.00" fill="#000000">efd::ArchVerifierVisitor</text>
</a>
</g>
</g>
<!-- Node0&#45;&gt;Node1 -->
<g id="edge1" class="edge">
<title>Node0&#45;&gt;Node1</title>
<path fill="none" stroke="#191970" d="M49.3807,-257.6594C54.4563,-299.3018 72.2967,-396.6928 131,-447 136.357,-451.5908 142.6055,-455.128 149.2228,-457.8453"/>
<polygon fill="#191970" stroke="#191970" points="52.8567,-257.2483 48.2849,-247.6906 45.8986,-258.0132 52.8567,-257.2483"/>
</g>
<!-- Node2 -->
<g id="node3" class="node">
<title>Node2</title>
<g id="a_node3"><a xlink:href="../../df/de5/classefd_1_1DependencyBuilderVisitor.xhtml" target="_top" xlink:title="efd::DependencyBuilderVisitor">
<polygon fill="none" stroke="#000000" points="131,-418.5 131,-437.5 296,-437.5 296,-418.5 131,-418.5"/>
<text text-anchor="middle" x="213.5" y="-425.5" font-family="Helvetica,sans-Serif" font-size="10.00" fill="#000000">efd::DependencyBuilderVisitor</text>
</a>
</g>
</g>
<!-- Node0&#45;&gt;Node2 -->
<g id="edge2" class="edge">
<title>Node0&#45;&gt;Node2</title>
<path fill="none" stroke="#191970" d="M51.3232,-257.714C59.3625,-293.6405 81.5193,-369.6816 131,-409 135.833,-412.8404 141.3008,-415.9321 147.065,-418.4174"/>
<polygon fill="#191970" stroke="#191970" points="54.671,-256.6248 49.1924,-247.5565 47.8201,-258.062 54.671,-256.6248"/>
</g>
<!-- Node3 -->
<g id="node4" class="node">
<title>Node3</title>
<g id="a_node4"><a xlink:href="../../dd/dc6/classefd_1_1FlattenVisitor.xhtml" target="_top" xlink:title="efd::FlattenVisitor">
<polygon fill="none" stroke="#000000" points="161.5,-380.5 161.5,-399.5 265.5,-399.5 265.5,-380.5 161.5,-380.5"/>
<text text-anchor="middle" x="213.5" y="-387.5" font-family="Helvetica,sans-Serif" font-size="10.00" fill="#000000">efd::FlattenVisitor</text>
</a>
</g>
</g>
<!-- Node0&#45;&gt;Node3 -->
<g id="edge3" class="edge">
<title>Node0&#45;&gt;Node3</title>
<path fill="none" stroke="#191970" d="M53.9943,-256.9972C65.0153,-286.2593 90.2391,-342.0071 131,-371 139.863,-377.3042 150.4956,-381.5514 161.1341,-384.404"/>
<polygon fill="#191970" stroke="#191970" points="57.259,-255.7329 50.574,-247.5133 50.6742,-258.1077 57.259,-255.7329"/>
</g>
<!-- Node4 -->
<g id="node5" class="node">
<title>Node4</title>
<g id="a_node5"><a xlink:href="../../de/d71/classefd_1_1InlineAllVisitor.xhtml" target="_top" xlink:title="efd::InlineAllVisitor">
<polygon fill="none" stroke="#000000" points="158.5,-342.5 158.5,-361.5 268.5,-361.5 268.5,-342.5 158.5,-342.5"/>
<text text-anchor="middle" x="213.5" y="-349.5" font-family="Helvetica,sans-Serif" font-size="10.00" fill="#000000">efd::InlineAllVisitor</text>
</a>
</g>
</g>
<!-- Node0&#45;&gt;Node4 -->
<g id="edge4" class="edge">
<title>Node0&#45;&gt;Node4</title>
<path fill="none" stroke="#191970" d="M58.4046,-256.2022C72.4141,-277.9462 98.8065,-313.7877 131,-333 139.33,-337.9711 148.8484,-341.6419 158.3888,-344.3524"/>
<polygon fill="#191970" stroke="#191970" points="61.2838,-254.2049 53.0199,-247.5747 55.3455,-257.9112 61.2838,-254.2049"/>
</g>
<!-- Node5 -->
<g id="node6" class="node">
<title>Node5</title>
<g id="a_node6"><a xlink:href="../../d1/d38/classefd_1_1NodeRenameVisitor.xhtml" target="_top" xlink:title="efd::NodeRenameVisitor">
<polygon fill="none" stroke="#000000" points="145.5,-304.5 145.5,-323.5 281.5,-323.5 281.5,-304.5 145.5,-304.5"/>
<text text-anchor="middle" x="213.5" y="-311.5" font-family="Helvetica,sans-Serif" font-size="10.00" fill="#000000">efd::NodeRenameVisitor</text>
</a>
</g>
</g>
<!-- Node0&#45;&gt;Node5 -->
<g id="edge5" class="edge">
<title>Node0&#45;&gt;Node5</title>
<path fill="none" stroke="#191970" d="M66.675,-254.182C82.8502,-267.0408 107.1231,-284.5466 131,-295 139.7516,-298.8315 149.3777,-301.9422 158.87,-304.4512"/>
<polygon fill="#191970" stroke="#191970" points="68.5412,-251.1882 58.5759,-247.5906 64.1227,-256.6174 68.5412,-251.1882"/>
</g>
<!-- Node6 -->
<g id="node7" class="node">
<title>Node6</title>
<g id="a_node7"><a xlink:href="../../dc/d43/classefd_1_1QArgsReplaceVisitor.xhtml" target="_top" xlink:title="efd::QArgsReplaceVisitor">
<polygon fill="none" stroke="#000000" points="144.5,-266.5 144.5,-285.5 282.5,-285.5 282.5,-266.5 144.5,-266.5"/>
<text text-anchor="middle" x="213.5" y="-273.5" font-family="Helvetica,sans-Serif" font-size="10.00" fill="#000000">efd::QArgsReplaceVisitor</text>
</a>
</g>
</g>
<!-- Node0&#45;&gt;Node6 -->
<g id="edge6" class="edge">
<title>Node0&#45;&gt;Node6</title>
<path fill="none" stroke="#191970" d="M99.1534,-249.8243C122.5564,-255.1816 149.8571,-261.4311 171.9124,-266.4799"/>
<polygon fill="#191970" stroke="#191970" points="99.9177,-246.4088 89.3888,-247.589 98.3556,-253.2323 99.9177,-246.4088"/>
</g>
<!-- Node7 -->
<g id="node8" class="node">
<title>Node7</title>
<g id="a_node8"><a xlink:href="../../de/d71/classefd_1_1QModulefyVisitor.xhtml" target="_top" xlink:title="efd::QModulefyVisitor">
<polygon fill="none" stroke="#000000" points="152.5,-228.5 152.5,-247.5 274.5,-247.5 274.5,-228.5 152.5,-228.5"/>
<text text-anchor="middle" x="213.5" y="-235.5" font-family="Helvetica,sans-Serif" font-size="10.00" fill="#000000">efd::QModulefyVisitor</text>
</a>
</g>
</g>
<!-- Node0&#45;&gt;Node7 -->
<g id="edge7" class="edge">
<title>Node0&#45;&gt;Node7</title>
<path fill="none" stroke="#191970" d="M105.3472,-238C120.5204,-238 136.932,-238 152.2753,-238"/>
<polygon fill="#191970" stroke="#191970" points="105.069,-234.5001 95.0689,-238 105.0689,-241.5001 105.069,-234.5001"/>
</g>
<!-- Node8 -->
<g id="node9" class="node">
<title>Node8</title>
<g id="a_node9"><a xlink:href="../../db/da6/classefd_1_1RenameQbitVisitor.xhtml" target="_top" xlink:title="efd::RenameQbitVisitor">
<polygon fill="none" stroke="#000000" points="148,-190.5 148,-209.5 279,-209.5 279,-190.5 148,-190.5"/>
<text text-anchor="middle" x="213.5" y="-197.5" font-family="Helvetica,sans-Serif" font-size="10.00" fill="#000000">efd::RenameQbitVisitor</text>
</a>
</g>
</g>
<!-- Node0&#45;&gt;Node8 -->
<g id="edge8" class="edge">
<title>Node0&#45;&gt;Node8</title>
<path fill="none" stroke="#191970" d="M99.1534,-226.1757C122.5564,-220.8184 149.8571,-214.5689 171.9124,-209.5201"/>
<polygon fill="#191970" stroke="#191970" points="98.3556,-222.7677 89.3888,-228.411 99.9177,-229.5912 98.3556,-222.7677"/>
</g>
<!-- Node9 -->
<g id="node10" class="node">
<title>Node9</title>
<g id="a_node10"><a xlink:href="../../d7/d28/classefd_1_1ReverseEdgesVisitor.xhtml" target="_top" xlink:title="efd::ReverseEdgesVisitor">
<polygon fill="none" stroke="#000000" points="144,-152.5 144,-171.5 283,-171.5 283,-152.5 144,-152.5"/>
<text text-anchor="middle" x="213.5" y="-159.5" font-family="Helvetica,sans-Serif" font-size="10.00" fill="#000000">efd::ReverseEdgesVisitor</text>
</a>
</g>
</g>
<!-- Node0&#45;&gt;Node9 -->
<g id="edge9" class="edge">
<title>Node0&#45;&gt;Node9</title>
<path fill="none" stroke="#191970" d="M66.675,-221.818C82.8502,-208.9592 107.1231,-191.4534 131,-181 139.7516,-177.1685 149.3777,-174.0578 158.87,-171.5488"/>
<polygon fill="#191970" stroke="#191970" points="64.1227,-219.3826 58.5759,-228.4094 68.5412,-224.8118 64.1227,-219.3826"/>
</g>
<!-- Node10 -->
<g id="node11" class="node">
<title>Node10</title>
<g id="a_node11"><a xlink:href="../../d2/de5/classefd_1_1SemanticVerifierVisitor.xhtml" target="_top" xlink:title="efd::SemanticVerifierVisitor">
<polygon fill="none" stroke="#000000" points="137.5,-114.5 137.5,-133.5 289.5,-133.5 289.5,-114.5 137.5,-114.5"/>
<text text-anchor="middle" x="213.5" y="-121.5" font-family="Helvetica,sans-Serif" font-size="10.00" fill="#000000">efd::SemanticVerifierVisitor</text>
</a>
</g>
</g>
<!-- Node0&#45;&gt;Node10 -->
<g id="edge10" class="edge">
<title>Node0&#45;&gt;Node10</title>
<path fill="none" stroke="#191970" d="M58.4046,-219.7978C72.4141,-198.0538 98.8065,-162.2123 131,-143 137.563,-139.0833 144.8638,-135.9739 152.3317,-133.5053"/>
<polygon fill="#191970" stroke="#191970" points="55.3455,-218.0888 53.0199,-228.4253 61.2838,-221.7951 55.3455,-218.0888"/>
</g>
<!-- Node11 -->
<g id="node12" class="node">
<title>Node11</title>
<g id="a_node12"><a xlink:href="../../dc/dcc/classefd_1_1StdSolutionImplPass.xhtml" target="_top" xlink:title="efd::StdSolutionImplPass">
<polygon fill="none" stroke="#000000" points="144.5,-76.5 144.5,-95.5 282.5,-95.5 282.5,-76.5 144.5,-76.5"/>
<text text-anchor="middle" x="213.5" y="-83.5" font-family="Helvetica,sans-Serif" font-size="10.00" fill="#000000">efd::StdSolutionImplPass</text>
</a>
</g>
</g>
<!-- Node0&#45;&gt;Node11 -->
<g id="edge11" class="edge">
<title>Node0&#45;&gt;Node11</title>
<path fill="none" stroke="#191970" d="M53.9943,-219.0028C65.0153,-189.7407 90.2391,-133.9929 131,-105 136.3897,-101.1664 142.4337,-98.0934 148.7355,-95.6322"/>
<polygon fill="#191970" stroke="#191970" points="50.6742,-217.8923 50.574,-228.4867 57.259,-220.2671 50.6742,-217.8923"/>
</g>
<!-- Node12 -->
<g id="node13" class="node">
<title>Node12</title>
<g id="a_node13"><a xlink:href="../../dd/d88/classefd_1_1UsedBitsVisitor.xhtml" target="_top" xlink:title="efd::UsedBitsVisitor">
<polygon fill="none" stroke="#000000" points="157,-38.5 157,-57.5 270,-57.5 270,-38.5 157,-38.5"/>
<text text-anchor="middle" x="213.5" y="-45.5" font-family="Helvetica,sans-Serif" font-size="10.00" fill="#000000">efd::UsedBitsVisitor</text>
</a>
</g>
</g>
<!-- Node0&#45;&gt;Node12 -->
<g id="edge12" class="edge">
<title>Node0&#45;&gt;Node12</title>
<path fill="none" stroke="#191970" d="M51.3232,-218.286C59.3625,-182.3595 81.5193,-106.3184 131,-67 138.4797,-61.0565 147.4797,-56.9062 156.7459,-54.0218"/>
<polygon fill="#191970" stroke="#191970" points="47.8201,-217.938 49.1924,-228.4435 54.671,-219.3752 47.8201,-217.938"/>
</g>
<!-- Node13 -->
<g id="node14" class="node">
<title>Node13</title>
<g id="a_node14"><a xlink:href="../../d3/d66/classefd_1_1XbitToNumberVisitor.xhtml" target="_top" xlink:title="efd::XbitToNumberVisitor">
<polygon fill="none" stroke="#000000" points="143.5,-.5 143.5,-19.5 283.5,-19.5 283.5,-.5 143.5,-.5"/>
<text text-anchor="middle" x="213.5" y="-7.5" font-family="Helvetica,sans-Serif" font-size="10.00" fill="#000000">efd::XbitToNumberVisitor</text>
</a>
</g>
</g>
<!-- Node0&#45;&gt;Node13 -->
<g id="edge13" class="edge">
<title>Node0&#45;&gt;Node13</title>
<path fill="none" stroke="#191970" d="M49.3807,-218.3406C54.4563,-176.6982 72.2967,-79.3072 131,-29 135.4641,-25.1743 140.5474,-22.0803 145.9473,-19.5827"/>
<polygon fill="#191970" stroke="#191970" points="45.8986,-217.9868 48.2849,-228.3094 52.8567,-218.7517 45.8986,-217.9868"/>
</g>
</g>
</svg>
        <g id="navigator" transform="translate(0 0)" fill="#404254">
                <rect fill="#f2f5e9" fill-opacity="0.5" stroke="#606060" stroke-width=".5" x="0" y="0" width="60" height="60"/>
                <use id="zoomplus" xlink:href="#zoomPlus" x="17" y="9" onmousedown="handleZoom(evt,'in')"/>
                <use id="zoomminus" xlink:href="#zoomMin" x="42" y="9" onmousedown="handleZoom(evt,'out')"/>
                <use id="reset" xlink:href="#resetDef" x="30" y="36" onmousedown="handleReset()"/>
                <g id="arrowUp" xlink:href="#dirArrow" transform="translate(30 24)" onmousedown="handlePan(0,-1)">
                  <use xlink:href="#rim" fill="#404040">
                        <set attributeName="fill" to="#808080" begin="arrowUp.mouseover" end="arrowUp.mouseout"/>
                  </use>
                  <path fill="none" stroke="white" stroke-width="1.5" d="M0,-3.0v7 M-2.5,-0.5L0,-3.0L2.5,-0.5"/>
                </g>
                <g id="arrowRight" xlink:href="#dirArrow" transform="rotate(90) translate(36 -43)" onmousedown="handlePan(1,0)">
                  <use xlink:href="#rim" fill="#404040">
                        <set attributeName="fill" to="#808080" begin="arrowRight.mouseover" end="arrowRight.mouseout"/>
                  </use>
                  <path fill="none" stroke="white" stroke-width="1.5" d="M0,-3.0v7 M-2.5,-0.5L0,-3.0L2.5,-0.5"/>
                </g>
                <g id="arrowDown" xlink:href="#dirArrow" transform="rotate(180) translate(-30 -48)" onmousedown="handlePan(0,1)">
                  <use xlink:href="#rim" fill="#404040">
                        <set attributeName="fill" to="#808080" begin="arrowDown.mouseover" end="arrowDown.mouseout"/>
                  </use>
                  <path fill="none" stroke="white" stroke-width="1.5" d="M0,-3.0v7 M-2.5,-0.5L0,-3.0L2.5,-0.5"/>
                </g>
                <g id="arrowLeft" xlink:href="#dirArrow" transform="rotate(270) translate(-36 17)" onmousedown="handlePan(-1,0)">
                  <use xlink:href="#rim" fill="#404040">
                        <set attributeName="fill" to="#808080" begin="arrowLeft.mouseover" end="arrowLeft.mouseout"/>
                  </use>
                  <path fill="none" stroke="white" stroke-width="1.5" d="M0,-3.0v7 M-2.5,-0.5L0,-3.0L2.5,-0.5"/>
                </g>
        </g>
        <svg viewBox="0 0 15 15" width="100%" height="30px" preserveAspectRatio="xMaxYMin meet">
         <g id="arrow_out" transform="scale(0.3 0.3)">
          <a xlink:href="classefd_1_1NodeVisitor__inherit__graph_org.svg" target="_base">
           <rect id="button" ry="5" rx="5" y="6" x="6" height="38" width="38"
                fill="#f2f5e9" fill-opacity="0.5" stroke="#606060" stroke-width="1.0"/>
           <path id="arrow"
             d="M 11.500037,31.436501 C 11.940474,20.09759 22.043105,11.32322 32.158766,21.979434 L 37.068811,17.246167 C 37.068811,17.246167 37.088388,32 37.088388,32 L 22.160133,31.978069 C 22.160133,31.978069 26.997745,27.140456 26.997745,27.140456 C 18.528582,18.264221 13.291696,25.230495 11.500037,31.436501 z"
             style="fill:#404040;"/>
          </a>
         </g>
        </svg>
</svg>
