<?xml version="1.0" encoding="UTF-8" standalone="no"?>
<!DOCTYPE svg PUBLIC "-//W3C//DTD SVG 1.1//EN"
 "http://www.w3.org/Graphics/SVG/1.1/DTD/svg11.dtd">
<!-- Generated by graphviz version 2.38.0 (20140413.2041)
 -->
<!-- Title: efd::DepSolverQAllocator Pages: 1 -->
<svg width="257pt" height="286pt"
 viewBox="0.00 0.00 257.00 286.00" xmlns="http://www.w3.org/2000/svg" xmlns:xlink="http://www.w3.org/1999/xlink">
<g id="graph0" class="graph" transform="scale(1 1) rotate(0) translate(4 282)">
<title>efd::DepSolverQAllocator</title>
<!-- Node8 -->
<g id="node1" class="node"><title>Node8</title>
<polygon fill="#bfbfbf" stroke="black" points="118.5,-0.5 118.5,-19.5 246.5,-19.5 246.5,-0.5 118.5,-0.5"/>
<text text-anchor="middle" x="182.5" y="-7.5" font-family="Helvetica,sans-Serif" font-size="10.00">efd::DepSolverQAllocator</text>
</g>
<!-- Node9 -->
<g id="node2" class="node"><title>Node9</title>
<g id="a_node2"><a xlink:href="../../de/d5a/classefd_1_1QbitAllocator.xhtml" target="_top" xlink:title="Base abstract class that allocates the qbits used in the program to the qbits that are in the physica...">
<polygon fill="none" stroke="black" points="136.5,-57.5 136.5,-76.5 228.5,-76.5 228.5,-57.5 136.5,-57.5"/>
<text text-anchor="middle" x="182.5" y="-64.5" font-family="Helvetica,sans-Serif" font-size="10.00">efd::QbitAllocator</text>
</a>
</g>
</g>
<!-- Node9&#45;&gt;Node8 -->
<g id="edge1" class="edge"><title>Node9&#45;&gt;Node8</title>
<path fill="none" stroke="midnightblue" d="M182.5,-47.1166C182.5,-37.8173 182.5,-27.0557 182.5,-19.7149"/>
<polygon fill="midnightblue" stroke="midnightblue" points="179,-47.4062 182.5,-57.4062 186,-47.4063 179,-47.4062"/>
</g>
<!-- Node10 -->
<g id="node3" class="node"><title>Node10</title>
<g id="a_node3"><a xlink:href="../../db/d56/classefd_1_1PassT.xhtml" target="_top" xlink:title="efd::PassT\&lt; Solution \&gt;">
<polygon fill="none" stroke="black" points="37.5,-124.5 37.5,-143.5 155.5,-143.5 155.5,-124.5 37.5,-124.5"/>
<text text-anchor="middle" x="96.5" y="-131.5" font-family="Helvetica,sans-Serif" font-size="10.00">efd::PassT&lt; Solution &gt;</text>
</a>
</g>
</g>
<!-- Node10&#45;&gt;Node9 -->
<g id="edge2" class="edge"><title>Node10&#45;&gt;Node9</title>
<path fill="none" stroke="midnightblue" d="M116.256,-118.068C133.232,-105.238 157.116,-87.1853 171.085,-76.6273"/>
<polygon fill="midnightblue" stroke="midnightblue" points="113.966,-115.412 108.098,-124.234 118.186,-120.996 113.966,-115.412"/>
</g>
<!-- Node11 -->
<g id="node4" class="node"><title>Node11</title>
<g id="a_node4"><a xlink:href="../../d0/d98/classefd_1_1Pass.xhtml" target="_top" xlink:title="Base class for implementation of QModule passes. This information will be used when the QModule&#39;s fun...">
<polygon fill="none" stroke="black" points="0,-258.5 0,-277.5 59,-277.5 59,-258.5 0,-258.5"/>
<text text-anchor="middle" x="29.5" y="-265.5" font-family="Helvetica,sans-Serif" font-size="10.00">efd::Pass</text>
</a>
</g>
</g>
<!-- Node11&#45;&gt;Node10 -->
<g id="edge3" class="edge"><title>Node11&#45;&gt;Node10</title>
<path fill="none" stroke="midnightblue" d="M29.6846,-247.811C30.5439,-231.83 33.4564,-208.878 42.5,-191 52.4981,-171.235 71.8477,-153.812 84.4641,-143.841"/>
<polygon fill="midnightblue" stroke="midnightblue" points="26.179,-247.939 29.3635,-258.044 33.1756,-248.159 26.179,-247.939"/>
</g>
<!-- Node13 -->
<g id="node6" class="node"><title>Node13</title>
<g id="a_node6"><a xlink:href="../../db/d56/classefd_1_1PassT.xhtml" target="_top" xlink:title="Should serve as base class for classes that produces some data of type T. ">
<polygon fill="none" stroke="black" points="52,-191.5 52,-210.5 141,-210.5 141,-191.5 52,-191.5"/>
<text text-anchor="middle" x="96.5" y="-198.5" font-family="Helvetica,sans-Serif" font-size="10.00">efd::PassT&lt; T &gt;</text>
</a>
</g>
</g>
<!-- Node11&#45;&gt;Node13 -->
<g id="edge6" class="edge"><title>Node11&#45;&gt;Node13</title>
<path fill="none" stroke="midnightblue" d="M45.9956,-250.997C59.135,-238.25 77.0239,-220.895 87.6072,-210.627"/>
<polygon fill="midnightblue" stroke="midnightblue" points="43.2762,-248.759 38.5359,-258.234 48.1504,-253.783 43.2762,-248.759"/>
</g>
<!-- Node12 -->
<g id="node5" class="node"><title>Node12</title>
<g id="a_node5"><a xlink:href="../../d3/d2a/structefd_1_1Solution.xhtml" target="_top" xlink:title="The solution for the allocation problem. ">
<polygon fill="none" stroke="black" points="159,-191.5 159,-210.5 230,-210.5 230,-191.5 159,-191.5"/>
<text text-anchor="middle" x="194.5" y="-198.5" font-family="Helvetica,sans-Serif" font-size="10.00">efd::Solution</text>
</a>
</g>
</g>
<!-- Node12&#45;&gt;Node10 -->
<g id="edge4" class="edge"><title>Node12&#45;&gt;Node10</title>
<path fill="none" stroke="#9a32cd" stroke-dasharray="5,2" d="M180.856,-183.344C174.334,-176.122 166.085,-167.971 157.5,-162 146.471,-154.329 132.912,-148.066 121.381,-143.51"/>
<polygon fill="#9a32cd" stroke="#9a32cd" points="178.456,-185.92 187.636,-191.209 183.758,-181.35 178.456,-185.92"/>
<text text-anchor="middle" x="187" y="-165" font-family="Helvetica,sans-Serif" font-size="10.00"> mData</text>
</g>
<!-- Node13&#45;&gt;Node10 -->
<g id="edge5" class="edge"><title>Node13&#45;&gt;Node10</title>
<path fill="none" stroke="orange" stroke-dasharray="5,2" d="M96.5,-181.037C96.5,-168.67 96.5,-153.12 96.5,-143.627"/>
<polygon fill="orange" stroke="orange" points="93.0001,-181.234 96.5,-191.234 100,-181.234 93.0001,-181.234"/>
<text text-anchor="middle" x="125" y="-165" font-family="Helvetica,sans-Serif" font-size="10.00"> &lt; Solution &gt;</text>
</g>
<!-- Node14 -->
<g id="node7" class="node"><title>Node14</title>
<polygon fill="none" stroke="#bfbfbf" points="82,-258.5 82,-277.5 111,-277.5 111,-258.5 82,-258.5"/>
<text text-anchor="middle" x="96.5" y="-265.5" font-family="Helvetica,sans-Serif" font-size="10.00">T</text>
</g>
<!-- Node14&#45;&gt;Node13 -->
<g id="edge7" class="edge"><title>Node14&#45;&gt;Node13</title>
<path fill="none" stroke="#9a32cd" stroke-dasharray="5,2" d="M96.5,-248.037C96.5,-235.67 96.5,-220.12 96.5,-210.627"/>
<polygon fill="#9a32cd" stroke="#9a32cd" points="93.0001,-248.234 96.5,-258.234 100,-248.234 93.0001,-248.234"/>
<text text-anchor="middle" x="113" y="-232" font-family="Helvetica,sans-Serif" font-size="10.00"> mData</text>
</g>
<!-- Node15 -->
<g id="node8" class="node"><title>Node15</title>
<g id="a_node8"><a xlink:href="../../dd/d52/classefd_1_1QModule.xhtml" target="_top" xlink:title="Qasm module representation. ">
<polygon fill="none" stroke="black" points="174,-124.5 174,-143.5 249,-143.5 249,-124.5 174,-124.5"/>
<text text-anchor="middle" x="211.5" y="-131.5" font-family="Helvetica,sans-Serif" font-size="10.00">efd::QModule</text>
</a>
</g>
</g>
<!-- Node15&#45;&gt;Node9 -->
<g id="edge8" class="edge"><title>Node15&#45;&gt;Node9</title>
<path fill="none" stroke="#9a32cd" stroke-dasharray="5,2" d="M203.376,-114.79C197.806,-102.308 190.671,-86.3135 186.349,-76.6273"/>
<polygon fill="#9a32cd" stroke="#9a32cd" points="200.318,-116.528 207.589,-124.234 206.711,-113.675 200.318,-116.528"/>
<text text-anchor="middle" x="215" y="-98" font-family="Helvetica,sans-Serif" font-size="10.00"> mMod</text>
</g>
</g>
</svg>
