<?xml version="1.0" encoding="UTF-8" standalone="no"?>
<!DOCTYPE svg PUBLIC "-//W3C//DTD SVG 1.1//EN"
 "http://www.w3.org/Graphics/SVG/1.1/DTD/svg11.dtd">
<!-- Generated by graphviz version 2.38.0 (20140413.2041)
 -->
<!-- Title: efd::Node::equals Pages: 1 -->
<svg width="274pt" height="180pt"
 viewBox="0.00 0.00 274.00 180.00" xmlns="http://www.w3.org/2000/svg" xmlns:xlink="http://www.w3.org/1999/xlink">
<g id="graph0" class="graph" transform="scale(1 1) rotate(0) translate(4 176)">
<title>efd::Node::equals</title>
<!-- Node10 -->
<g id="node1" class="node"><title>Node10</title>
<polygon fill="#bfbfbf" stroke="black" points="0,-76.5 0,-95.5 94,-95.5 94,-76.5 0,-76.5"/>
<text text-anchor="middle" x="47" y="-83.5" font-family="Helvetica,sans-Serif" font-size="10.00">efd::Node::equals</text>
</g>
<!-- Node10&#45;&gt;Node10 -->
<g id="edge1" class="edge"><title>Node10&#45;&gt;Node10</title>
<path fill="none" stroke="midnightblue" d="M23.8806,-95.7571C12.6334,-104.565 20.3398,-114 47,-114 64.4957,-114 73.8288,-109.937 74.9991,-104.654"/>
<polygon fill="midnightblue" stroke="midnightblue" points="77.9971,-102.842 70.1194,-95.7571 71.8597,-106.208 77.9971,-102.842"/>
</g>
<!-- Node11 -->
<g id="node2" class="node"><title>Node11</title>
<g id="a_node2"><a xlink:href="../../d6/d6a/classefd_1_1Node.xhtml#a09d052b58e537bb983993baa68ab1cc9" target="_top" xlink:title="Extend the &#39;equals&#39; implementation by implementing this method. ">
<polygon fill="none" stroke="black" points="141.5,-152.5 141.5,-171.5 254.5,-171.5 254.5,-152.5 141.5,-152.5"/>
<text text-anchor="middle" x="198" y="-159.5" font-family="Helvetica,sans-Serif" font-size="10.00">efd::Node::equalsImpl</text>
</a>
</g>
</g>
<!-- Node10&#45;&gt;Node11 -->
<g id="edge2" class="edge"><title>Node10&#45;&gt;Node11</title>
<path fill="none" stroke="midnightblue" d="M59.1956,-95.6113C74.3255,-108.153 102.573,-130.025 130,-143 134.918,-145.327 140.178,-147.423 145.506,-149.297"/>
<polygon fill="midnightblue" stroke="midnightblue" points="144.521,-152.657 155.114,-152.433 146.694,-146.003 144.521,-152.657"/>
</g>
<!-- Node12 -->
<g id="node3" class="node"><title>Node12</title>
<g id="a_node3"><a xlink:href="../../d6/d6a/classefd_1_1Node.xhtml#a63e30243eca03b0c85d8c4856e91c79d" target="_top" xlink:title="Gets the i&#45;th child. ">
<polygon fill="none" stroke="black" points="147.5,-114.5 147.5,-133.5 248.5,-133.5 248.5,-114.5 147.5,-114.5"/>
<text text-anchor="middle" x="198" y="-121.5" font-family="Helvetica,sans-Serif" font-size="10.00">efd::Node::getChild</text>
</a>
</g>
</g>
<!-- Node10&#45;&gt;Node12 -->
<g id="edge3" class="edge"><title>Node10&#45;&gt;Node12</title>
<path fill="none" stroke="midnightblue" d="M85.599,-95.589C105.084,-100.558 129.075,-106.677 149.796,-111.961"/>
<polygon fill="midnightblue" stroke="midnightblue" points="149.117,-115.4 159.671,-114.48 150.846,-108.617 149.117,-115.4"/>
</g>
<!-- Node13 -->
<g id="node4" class="node"><title>Node13</title>
<g id="a_node4"><a xlink:href="../../d6/d6a/classefd_1_1Node.xhtml#a11df06f4d8e590426340024cbb2db23e" target="_top" xlink:title="Returns the number of childrem of this node. ">
<polygon fill="none" stroke="black" points="130,-76.5 130,-95.5 266,-95.5 266,-76.5 130,-76.5"/>
<text text-anchor="middle" x="198" y="-83.5" font-family="Helvetica,sans-Serif" font-size="10.00">efd::Node::getChildNumber</text>
</a>
</g>
</g>
<!-- Node10&#45;&gt;Node13 -->
<g id="edge4" class="edge"><title>Node10&#45;&gt;Node13</title>
<path fill="none" stroke="midnightblue" d="M94.3278,-86C102.433,-86 111.059,-86 119.736,-86"/>
<polygon fill="midnightblue" stroke="midnightblue" points="119.917,-89.5001 129.917,-86 119.917,-82.5001 119.917,-89.5001"/>
</g>
<!-- Node14 -->
<g id="node5" class="node"><title>Node14</title>
<g id="a_node5"><a xlink:href="../../d6/d6a/classefd_1_1Node.xhtml#a23e33e714f48070d9e8c090cd396d956" target="_top" xlink:title="Returns the kind of this node. ">
<polygon fill="none" stroke="black" points="149,-38.5 149,-57.5 247,-57.5 247,-38.5 149,-38.5"/>
<text text-anchor="middle" x="198" y="-45.5" font-family="Helvetica,sans-Serif" font-size="10.00">efd::Node::getKind</text>
</a>
</g>
</g>
<!-- Node10&#45;&gt;Node14 -->
<g id="edge5" class="edge"><title>Node10&#45;&gt;Node14</title>
<path fill="none" stroke="midnightblue" d="M85.599,-76.411C105.084,-71.4417 129.075,-65.3233 149.796,-60.0387"/>
<polygon fill="midnightblue" stroke="midnightblue" points="150.846,-63.3828 159.671,-57.5201 149.117,-56.5999 150.846,-63.3828"/>
</g>
<!-- Node15 -->
<g id="node6" class="node"><title>Node15</title>
<g id="a_node6"><a xlink:href="../../d6/d6a/classefd_1_1Node.xhtml#ae9f49bc3eeebb8d24af82ecaa8cc3636" target="_top" xlink:title="Returns a std::string representation of the operation. ">
<polygon fill="none" stroke="black" points="137.5,-0.5 137.5,-19.5 258.5,-19.5 258.5,-0.5 137.5,-0.5"/>
<text text-anchor="middle" x="198" y="-7.5" font-family="Helvetica,sans-Serif" font-size="10.00">efd::Node::getOperation</text>
</a>
</g>
</g>
<!-- Node10&#45;&gt;Node15 -->
<g id="edge6" class="edge"><title>Node10&#45;&gt;Node15</title>
<path fill="none" stroke="midnightblue" d="M59.1956,-76.3887C74.3255,-63.847 102.573,-41.9751 130,-29 134.918,-26.6733 140.178,-24.5775 145.506,-22.7033"/>
<polygon fill="midnightblue" stroke="midnightblue" points="146.694,-25.9975 155.114,-19.5671 144.521,-19.3431 146.694,-25.9975"/>
</g>
</g>
</svg>
