<?xml version="1.0" encoding="UTF-8" standalone="no"?>
<!DOCTYPE svg PUBLIC "-//W3C//DTD SVG 1.1//EN"
 "http://www.w3.org/Graphics/SVG/1.1/DTD/svg11.dtd">
<!-- Generated by graphviz version 2.40.1 (20161225.0304)
 -->
<!-- Title: efd::WeightedSIFinder::find Pages: 1 -->
<svg width="296pt" height="66pt"
 viewBox="0.00 0.00 296.00 66.00" xmlns="http://www.w3.org/2000/svg" xmlns:xlink="http://www.w3.org/1999/xlink">
<g id="graph0" class="graph" transform="scale(1 1) rotate(0) translate(4 62)">
<title>efd::WeightedSIFinder::find</title>
<!-- Node2 -->
<g id="node1" class="node">
<title>Node2</title>
<polygon fill="#bfbfbf" stroke="#000000" points="0,-14 0,-44 124,-44 124,-14 0,-14"/>
<text text-anchor="start" x="8" y="-32" font-family="Helvetica,sans-Serif" font-size="10.00" fill="#000000">efd::WeightedSIFinder</text>
<text text-anchor="middle" x="62" y="-21" font-family="Helvetica,sans-Serif" font-size="10.00" fill="#000000">::find</text>
</g>
<!-- Node3 -->
<g id="node2" class="node">
<title>Node3</title>
<g id="a_node2"><a xlink:href="../../d4/deb/namespaceefd.xhtml#af3487901a239a99750dc5dcdc3a8c868" target="_top" xlink:title="efd::ExitWith">
<polygon fill="none" stroke="#000000" points="184,-38.5 184,-57.5 264,-57.5 264,-38.5 184,-38.5"/>
<text text-anchor="middle" x="224" y="-45.5" font-family="Helvetica,sans-Serif" font-size="10.00" fill="#000000">efd::ExitWith</text>
</a>
</g>
</g>
<!-- Node2&#45;&gt;Node3 -->
<g id="edge1" class="edge">
<title>Node2&#45;&gt;Node3</title>
<path fill="none" stroke="#191970" d="M124.1701,-36.2916C140.5658,-38.2145 158.0512,-40.2653 173.7323,-42.1044"/>
<polygon fill="#191970" stroke="#191970" points="173.4073,-45.5902 183.7469,-43.279 174.2227,-38.6378 173.4073,-45.5902"/>
</g>
<!-- Node4 -->
<g id="node3" class="node">
<title>Node4</title>
<g id="a_node3"><a xlink:href="../../db/db3/classefd_1_1Graph.xhtml#a108a708923dcec909a20bd52417127b8" target="_top" xlink:title="Returns true if this is a weighted graph. ">
<polygon fill="none" stroke="#000000" points="160,-.5 160,-19.5 288,-19.5 288,-.5 160,-.5"/>
<text text-anchor="middle" x="224" y="-7.5" font-family="Helvetica,sans-Serif" font-size="10.00" fill="#000000">efd::Graph::isWeighted</text>
</a>
</g>
</g>
<!-- Node2&#45;&gt;Node4 -->
<g id="edge2" class="edge">
<title>Node2&#45;&gt;Node4</title>
<path fill="none" stroke="#191970" d="M124.1701,-21.7084C132.5715,-20.7231 141.259,-19.7042 149.8433,-18.6974"/>
<polygon fill="#191970" stroke="#191970" points="150.3255,-22.1649 159.8497,-17.5238 149.5101,-15.2126 150.3255,-22.1649"/>
</g>
</g>
</svg>
