<?xml version="1.0" encoding="UTF-8" standalone="no"?>
<!DOCTYPE svg PUBLIC "-//W3C//DTD SVG 1.1//EN"
 "http://www.w3.org/Graphics/SVG/1.1/DTD/svg11.dtd">
<!-- Generated by graphviz version 2.38.0 (20140413.2041)
 -->
<!-- Title: efd::WeightedSIFinder::find Pages: 1 -->
<svg width="400pt" height="183pt"
 viewBox="0.00 0.00 400.00 183.18" xmlns="http://www.w3.org/2000/svg" xmlns:xlink="http://www.w3.org/1999/xlink">
<g id="graph0" class="graph" transform="scale(1 1) rotate(0) translate(4 179.178)">
<title>efd::WeightedSIFinder::find</title>
<!-- Node2 -->
<g id="node1" class="node"><title>Node2</title>
<polygon fill="#bfbfbf" stroke="black" points="0,-77 0,-107 114,-107 114,-77 0,-77"/>
<text text-anchor="start" x="8" y="-95" font-family="Helvetica,sans-Serif" font-size="10.00">efd::WeightedSIFinder</text>
<text text-anchor="middle" x="57" y="-84" font-family="Helvetica,sans-Serif" font-size="10.00">::find</text>
</g>
<!-- Node3 -->
<g id="node2" class="node"><title>Node3</title>
<g id="a_node2"><a xlink:href="../../d5/db6/classefd_1_1WeightedSIFinder.xhtml#a185ffcb2e682e58ea81c2119337330dd" target="_top" xlink:title="efd::WeightedSIFinder\l::findBestVertex">
<polygon fill="none" stroke="black" points="151.5,-77 151.5,-107 265.5,-107 265.5,-77 151.5,-77"/>
<text text-anchor="start" x="159.5" y="-95" font-family="Helvetica,sans-Serif" font-size="10.00">efd::WeightedSIFinder</text>
<text text-anchor="middle" x="208.5" y="-84" font-family="Helvetica,sans-Serif" font-size="10.00">::findBestVertex</text>
</a>
</g>
</g>
<!-- Node2&#45;&gt;Node3 -->
<g id="edge1" class="edge"><title>Node2&#45;&gt;Node3</title>
<path fill="none" stroke="midnightblue" d="M114.094,-92C122.883,-92 132.039,-92 141.034,-92"/>
<polygon fill="midnightblue" stroke="midnightblue" points="141.092,-95.5001 151.092,-92 141.092,-88.5001 141.092,-95.5001"/>
</g>
<!-- Node4 -->
<g id="node3" class="node"><title>Node4</title>
<g id="a_node3"><a xlink:href="../../db/db3/classefd_1_1Graph.xhtml#aa85ea20ad74d6a7df7a52c13a9fabe2d" target="_top" xlink:title="Return the number of vertices. ">
<polygon fill="none" stroke="black" points="304.5,-131.5 304.5,-150.5 390.5,-150.5 390.5,-131.5 304.5,-131.5"/>
<text text-anchor="middle" x="347.5" y="-138.5" font-family="Helvetica,sans-Serif" font-size="10.00">efd::Graph::size</text>
</a>
</g>
</g>
<!-- Node2&#45;&gt;Node4 -->
<g id="edge9" class="edge"><title>Node2&#45;&gt;Node4</title>
<path fill="none" stroke="midnightblue" d="M70.7582,-107.205C86.9973,-125.249 116.94,-154.354 150,-166 205.318,-185.487 274.141,-167.914 313.924,-154.011"/>
<polygon fill="midnightblue" stroke="midnightblue" points="315.179,-157.279 323.387,-150.58 312.793,-150.698 315.179,-157.279"/>
</g>
<!-- Node7 -->
<g id="node6" class="node"><title>Node7</title>
<g id="a_node6"><a xlink:href="../../d5/db6/classefd_1_1WeightedSIFinder.xhtml#a1c1926b684230af5db0923894c51fa00" target="_top" xlink:title="efd::WeightedSIFinder\l::getFirstFree">
<polygon fill="none" stroke="black" points="151.5,-126 151.5,-156 265.5,-156 265.5,-126 151.5,-126"/>
<text text-anchor="start" x="159.5" y="-144" font-family="Helvetica,sans-Serif" font-size="10.00">efd::WeightedSIFinder</text>
<text text-anchor="middle" x="208.5" y="-133" font-family="Helvetica,sans-Serif" font-size="10.00">::getFirstFree</text>
</a>
</g>
</g>
<!-- Node2&#45;&gt;Node7 -->
<g id="edge5" class="edge"><title>Node2&#45;&gt;Node7</title>
<path fill="none" stroke="midnightblue" d="M104.075,-107.101C119.208,-112.062 136.19,-117.627 151.95,-122.793"/>
<polygon fill="midnightblue" stroke="midnightblue" points="150.985,-126.16 161.577,-125.948 153.165,-119.508 150.985,-126.16"/>
</g>
<!-- Node8 -->
<g id="node7" class="node"><title>Node8</title>
<g id="a_node7"><a xlink:href="../../db/db3/classefd_1_1Graph.xhtml#a108a708923dcec909a20bd52417127b8" target="_top" xlink:title="Returns true if this is a weighted graph. ">
<polygon fill="none" stroke="black" points="150,-38.5 150,-57.5 267,-57.5 267,-38.5 150,-38.5"/>
<text text-anchor="middle" x="208.5" y="-45.5" font-family="Helvetica,sans-Serif" font-size="10.00">efd::Graph::isWeighted</text>
</a>
</g>
</g>
<!-- Node2&#45;&gt;Node8 -->
<g id="edge7" class="edge"><title>Node2&#45;&gt;Node8</title>
<path fill="none" stroke="midnightblue" d="M109.031,-76.9808C127.275,-71.6115 147.621,-65.6234 165.061,-60.4905"/>
<polygon fill="midnightblue" stroke="midnightblue" points="166.351,-63.7594 174.956,-57.5783 164.374,-57.0442 166.351,-63.7594"/>
</g>
<!-- Node9 -->
<g id="node8" class="node"><title>Node9</title>
<g id="a_node8"><a xlink:href="../../db/db3/classefd_1_1Graph.xhtml#a50404ab95f921078eb31a9a7ebc7329d" target="_top" xlink:title="Return the degree leaving the vertex i. ">
<polygon fill="none" stroke="black" points="152,-0.5 152,-19.5 265,-19.5 265,-0.5 152,-0.5"/>
<text text-anchor="middle" x="208.5" y="-7.5" font-family="Helvetica,sans-Serif" font-size="10.00">efd::Graph::outDegree</text>
</a>
</g>
</g>
<!-- Node2&#45;&gt;Node9 -->
<g id="edge8" class="edge"><title>Node2&#45;&gt;Node9</title>
<path fill="none" stroke="midnightblue" d="M76.7587,-76.8056C94.6943,-62.8638 122.937,-42.401 150,-29 154.363,-26.8393 159.03,-24.8386 163.747,-23.0106"/>
<polygon fill="midnightblue" stroke="midnightblue" points="165.211,-26.203 173.42,-19.5053 162.826,-19.6218 165.211,-26.203"/>
</g>
<!-- Node3&#45;&gt;Node4 -->
<g id="edge2" class="edge"><title>Node3&#45;&gt;Node4</title>
<path fill="none" stroke="midnightblue" d="M251.722,-107.101C270.429,-113.792 292.218,-121.585 310.184,-128.011"/>
<polygon fill="midnightblue" stroke="midnightblue" points="309.133,-131.352 319.728,-131.425 311.491,-124.761 309.133,-131.352"/>
</g>
<!-- Node5 -->
<g id="node4" class="node"><title>Node5</title>
<g id="a_node4"><a xlink:href="../../db/db3/classefd_1_1Graph.xhtml#a64836ad3c96e79e02179787ce3bd42c9" target="_top" xlink:title="Return the set of succesors of some vertex i. ">
<polygon fill="none" stroke="black" points="303,-87.5 303,-106.5 392,-106.5 392,-87.5 303,-87.5"/>
<text text-anchor="middle" x="347.5" y="-94.5" font-family="Helvetica,sans-Serif" font-size="10.00">efd::Graph::succ</text>
</a>
</g>
</g>
<!-- Node3&#45;&gt;Node5 -->
<g id="edge3" class="edge"><title>Node3&#45;&gt;Node5</title>
<path fill="none" stroke="midnightblue" d="M265.618,-94.0481C274.541,-94.3738 283.754,-94.71 292.624,-95.0337"/>
<polygon fill="midnightblue" stroke="midnightblue" points="292.719,-98.5394 302.84,-95.4066 292.975,-91.5441 292.719,-98.5394"/>
</g>
<!-- Node6 -->
<g id="node5" class="node"><title>Node6</title>
<g id="a_node5"><a xlink:href="../../db/db3/classefd_1_1Graph.xhtml#ac63b24166d3aa01848e0bd2ad9d46f2e" target="_top" xlink:title="Return the set of predecessors of some vertex i. ">
<polygon fill="none" stroke="black" points="304,-49.5 304,-68.5 391,-68.5 391,-49.5 304,-49.5"/>
<text text-anchor="middle" x="347.5" y="-56.5" font-family="Helvetica,sans-Serif" font-size="10.00">efd::Graph::pred</text>
</a>
</g>
</g>
<!-- Node3&#45;&gt;Node6 -->
<g id="edge4" class="edge"><title>Node3&#45;&gt;Node6</title>
<path fill="none" stroke="midnightblue" d="M265.618,-78.4824C276.038,-75.9727 286.852,-73.3677 297.054,-70.9103"/>
<polygon fill="midnightblue" stroke="midnightblue" points="298.112,-74.2556 307.015,-68.5111 296.473,-67.4502 298.112,-74.2556"/>
</g>
<!-- Node7&#45;&gt;Node4 -->
<g id="edge6" class="edge"><title>Node7&#45;&gt;Node4</title>
<path fill="none" stroke="midnightblue" d="M265.618,-141C274.96,-141 284.62,-141 293.871,-141"/>
<polygon fill="midnightblue" stroke="midnightblue" points="294.104,-144.5 304.104,-141 294.104,-137.5 294.104,-144.5"/>
</g>
</g>
</svg>
