<?xml version="1.0" encoding="UTF-8" standalone="no"?>
<!DOCTYPE svg PUBLIC "-//W3C//DTD SVG 1.1//EN"
 "http://www.w3.org/Graphics/SVG/1.1/DTD/svg11.dtd">
<!-- Generated by graphviz version 2.38.0 (20140413.2041)
 -->
<!-- Title: efd::CNOTLBOWrapperPass::generate Pages: 1 -->
<!--zoomable 586 -->
<svg id="main" version="1.1" xmlns="http://www.w3.org/2000/svg" xmlns:xlink="http://www.w3.org/1999/xlink" xml:space="preserve" onload="init(evt)">
<style type="text/css"><![CDATA[
.edge:hover path { stroke: red; }
.edge:hover polygon { stroke: red; fill: red; }
]]></style>
<script type="text/javascript"><![CDATA[
var edges = document.getElementsByTagName('g');
if (edges && edges.length) {
  for (var i=0;i<edges.length;i++) {
    if (edges[i].id.substr(0,4)=='edge') {
      edges[i].setAttribute('class','edge');
    }
  }
}
]]></script>
        <defs>
                <circle id="rim" cx="0" cy="0" r="7"/>
                <circle id="rim2" cx="0" cy="0" r="3.5"/>
                <g id="zoomPlus">
                        <use xlink:href="#rim" fill="#404040">
                                <set attributeName="fill" to="#808080" begin="zoomplus.mouseover" end="zoomplus.mouseout"/>
                        </use>
                        <path d="M-4,0h8M0,-4v8" fill="none" stroke="white" stroke-width="1.5" pointer-events="none"/>
                </g>
                <g id="zoomMin">
                        <use xlink:href="#rim" fill="#404040">
                                <set attributeName="fill" to="#808080" begin="zoomminus.mouseover" end="zoomminus.mouseout"/>
                        </use>
                        <path d="M-4,0h8" fill="none" stroke="white" stroke-width="1.5" pointer-events="none"/>
                </g>
                <g id="dirArrow">
                        <path fill="none" stroke="white" stroke-width="1.5" d="M0,-3.0v7 M-2.5,-0.5L0,-3.0L2.5,-0.5"/>
                </g>
               <g id="resetDef">
                       <use xlink:href="#rim2" fill="#404040">
                               <set attributeName="fill" to="#808080" begin="reset.mouseover" end="reset.mouseout"/>
                       </use>
               </g>
        </defs>

<script type="text/javascript">
var viewWidth = 518;
var viewHeight = 586;
var sectionId = 'dynsection-2';
</script>
<script xlink:href="../../svgpan.js"/>
<svg id="graph" class="graph">
<g id="viewport">
<title>efd::CNOTLBOWrapperPass::generate</title>
<!-- Node1 -->
<g id="node1" class="node"><title>Node1</title>
<polygon fill="#bfbfbf" stroke="black" points="0,-268 0,-298 143,-298 143,-268 0,-268"/>
<text text-anchor="start" x="8" y="-286" font-family="Helvetica,sans-Serif" font-size="10.00">efd::CNOTLBOWrapperPass</text>
<text text-anchor="middle" x="71.5" y="-275" font-family="Helvetica,sans-Serif" font-size="10.00">::generate</text>
</g>
<!-- Node2 -->
<g id="node2" class="node"><title>Node2</title>
<g id="a_node2"><a xlink:href="../../d0/d54/classefd_1_1CircuitGraph.xhtml#ad1dbcb28dda3121f795a74944927de4a" target="_top" xlink:title="Builds an iterator instance for this CircuitGraph. ">
<polygon fill="none" stroke="black" points="211,-547 211,-577 308,-577 308,-547 211,-547"/>
<text text-anchor="start" x="219" y="-565" font-family="Helvetica,sans-Serif" font-size="10.00">efd::CircuitGraph::</text>
<text text-anchor="middle" x="259.5" y="-554" font-family="Helvetica,sans-Serif" font-size="10.00">build_iterator</text>
</a>
</g>
</g>
<!-- Node1&#45;&gt;Node2 -->
<g id="edge1" class="edge"><title>Node1&#45;&gt;Node2</title>
<path fill="none" stroke="midnightblue" d="M74.3923,-298.103C80.6671,-341.768 104.794,-469.349 179,-537 185.378,-542.815 193.101,-547.277 201.196,-550.702"/>
<polygon fill="midnightblue" stroke="midnightblue" points="200.217,-554.072 210.81,-554.264 202.649,-547.508 200.217,-554.072"/>
</g>
<!-- Node4 -->
<g id="node4" class="node"><title>Node4</title>
<g id="a_node4"><a xlink:href="../../d9/d6b/classefd_1_1Xbit.xhtml#a4cddd18c9e4ec4f08b28d1c3a81f67cc" target="_top" xlink:title="Creates a classical Xbit with id. ">
<polygon fill="none" stroke="black" points="226,-508.5 226,-527.5 293,-527.5 293,-508.5 226,-508.5"/>
<text text-anchor="middle" x="259.5" y="-515.5" font-family="Helvetica,sans-Serif" font-size="10.00">efd::Xbit::C</text>
</a>
</g>
</g>
<!-- Node1&#45;&gt;Node4 -->
<g id="edge3" class="edge"><title>Node1&#45;&gt;Node4</title>
<path fill="none" stroke="midnightblue" d="M75.3371,-298.063C83.6089,-337.626 111.522,-445.138 179,-499 189.414,-507.313 202.884,-512.084 215.767,-514.792"/>
<polygon fill="midnightblue" stroke="midnightblue" points="215.453,-518.29 225.904,-516.551 216.649,-511.393 215.453,-518.29"/>
</g>
<!-- Node5 -->
<g id="node5" class="node"><title>Node5</title>
<g id="a_node5"><a xlink:href="../../d0/d54/classefd_1_1CircuitGraph.xhtml#afccd427dbf207e52f0865b9cb10836f6" target="_top" xlink:title="Returns the number of cbits. ">
<polygon fill="none" stroke="black" points="211,-459 211,-489 308,-489 308,-459 211,-459"/>
<text text-anchor="start" x="219" y="-477" font-family="Helvetica,sans-Serif" font-size="10.00">efd::CircuitGraph::</text>
<text text-anchor="middle" x="259.5" y="-466" font-family="Helvetica,sans-Serif" font-size="10.00">getCSize</text>
</a>
</g>
</g>
<!-- Node1&#45;&gt;Node5 -->
<g id="edge4" class="edge"><title>Node1&#45;&gt;Node5</title>
<path fill="none" stroke="midnightblue" d="M77.8748,-298.006C90.3529,-330.691 124.447,-408.688 179,-450 185.691,-455.067 193.451,-459.071 201.447,-462.233"/>
<polygon fill="midnightblue" stroke="midnightblue" points="200.297,-465.539 210.892,-465.571 202.63,-458.939 200.297,-465.539"/>
</g>
<!-- Node6 -->
<g id="node6" class="node"><title>Node6</title>
<g id="a_node6"><a xlink:href="../../d6/de0/classefd_1_1LayerBasedOrderingWrapperPass.xhtml#a963054a3af9a814648cc2d567b47f10b" target="_top" xlink:title="efd::LayerBasedOrderingWrapper\lPass::getNodeId">
<polygon fill="none" stroke="black" points="179,-410 179,-440 340,-440 340,-410 179,-410"/>
<text text-anchor="start" x="187" y="-428" font-family="Helvetica,sans-Serif" font-size="10.00">efd::LayerBasedOrderingWrapper</text>
<text text-anchor="middle" x="259.5" y="-417" font-family="Helvetica,sans-Serif" font-size="10.00">Pass::getNodeId</text>
</a>
</g>
</g>
<!-- Node1&#45;&gt;Node6 -->
<g id="edge5" class="edge"><title>Node1&#45;&gt;Node6</title>
<path fill="none" stroke="midnightblue" d="M82.0404,-298.075C98.6766,-323.145 135.412,-373.375 179,-401 181.595,-402.645 184.31,-404.182 187.105,-405.618"/>
<polygon fill="midnightblue" stroke="midnightblue" points="185.718,-408.833 196.262,-409.87 188.666,-402.484 185.718,-408.833"/>
</g>
<!-- Node7 -->
<g id="node7" class="node"><title>Node7</title>
<g id="a_node7"><a xlink:href="../../d0/d54/classefd_1_1CircuitGraph.xhtml#adcb4c92728654114aa63ba37f853bac5" target="_top" xlink:title="Returns the number of qubits. ">
<polygon fill="none" stroke="black" points="211,-361 211,-391 308,-391 308,-361 211,-361"/>
<text text-anchor="start" x="219" y="-379" font-family="Helvetica,sans-Serif" font-size="10.00">efd::CircuitGraph::</text>
<text text-anchor="middle" x="259.5" y="-368" font-family="Helvetica,sans-Serif" font-size="10.00">getQSize</text>
</a>
</g>
</g>
<!-- Node1&#45;&gt;Node7 -->
<g id="edge6" class="edge"><title>Node1&#45;&gt;Node7</title>
<path fill="none" stroke="midnightblue" d="M91.9348,-298.006C112.572,-313.347 146.619,-336.991 179,-352 185.99,-355.24 193.526,-358.173 201.075,-360.786"/>
<polygon fill="midnightblue" stroke="midnightblue" points="200.011,-364.121 210.604,-363.924 202.201,-357.472 200.011,-364.121"/>
</g>
<!-- Node8 -->
<g id="node8" class="node"><title>Node8</title>
<g id="a_node8"><a xlink:href="../../d9/dbc/structefd_1_1CircuitGraph_1_1CircuitNode.xhtml#a3dd251562e11352a1e7dbaf93e5e9960" target="_top" xlink:title="True if this node is in the middle (gate node). ">
<polygon fill="none" stroke="black" points="196.5,-312 196.5,-342 322.5,-342 322.5,-312 196.5,-312"/>
<text text-anchor="start" x="204.5" y="-330" font-family="Helvetica,sans-Serif" font-size="10.00">efd::CircuitGraph::</text>
<text text-anchor="middle" x="259.5" y="-319" font-family="Helvetica,sans-Serif" font-size="10.00">CircuitNode::isGateNode</text>
</a>
</g>
</g>
<!-- Node1&#45;&gt;Node8 -->
<g id="edge7" class="edge"><title>Node1&#45;&gt;Node8</title>
<path fill="none" stroke="midnightblue" d="M135.99,-298.019C152.113,-301.833 169.557,-305.96 186.086,-309.87"/>
<polygon fill="midnightblue" stroke="midnightblue" points="185.703,-313.376 196.24,-312.272 187.315,-306.564 185.703,-313.376"/>
</g>
<!-- Node10 -->
<g id="node10" class="node"><title>Node10</title>
<g id="a_node10"><a xlink:href="../../d9/dbc/structefd_1_1CircuitGraph_1_1CircuitNode.xhtml#a05bee78f4954f7ac4bab2e16f99dc26c" target="_top" xlink:title="True if this node has reached the end (output node). ">
<polygon fill="none" stroke="black" points="376,-265 376,-295 510,-295 510,-265 376,-265"/>
<text text-anchor="start" x="384" y="-283" font-family="Helvetica,sans-Serif" font-size="10.00">efd::CircuitGraph::</text>
<text text-anchor="middle" x="443" y="-272" font-family="Helvetica,sans-Serif" font-size="10.00">CircuitNode::isOutputNode</text>
</a>
</g>
</g>
<!-- Node1&#45;&gt;Node10 -->
<g id="edge10" class="edge"><title>Node1&#45;&gt;Node10</title>
<path fill="none" stroke="midnightblue" d="M143.306,-282.425C206.957,-281.908 300.213,-281.151 365.544,-280.621"/>
<polygon fill="midnightblue" stroke="midnightblue" points="365.81,-284.119 375.781,-280.538 365.753,-277.119 365.81,-284.119"/>
</g>
<!-- Node11 -->
<g id="node11" class="node"><title>Node11</title>
<g id="a_node11"><a xlink:href="../../d7/d0b/classefd_1_1CircuitGraph_1_1Iterator.xhtml#aeee56d067ea9d2ef87f882279492a528" target="_top" xlink:title="efd::CircuitGraph::\lIterator::next">
<polygon fill="none" stroke="black" points="211,-224 211,-254 308,-254 308,-224 211,-224"/>
<text text-anchor="start" x="219" y="-242" font-family="Helvetica,sans-Serif" font-size="10.00">efd::CircuitGraph::</text>
<text text-anchor="middle" x="259.5" y="-231" font-family="Helvetica,sans-Serif" font-size="10.00">Iterator::next</text>
</a>
</g>
</g>
<!-- Node1&#45;&gt;Node11 -->
<g id="edge11" class="edge"><title>Node1&#45;&gt;Node11</title>
<path fill="none" stroke="midnightblue" d="M135.99,-267.981C157.063,-262.996 180.391,-257.477 200.987,-252.605"/>
<polygon fill="midnightblue" stroke="midnightblue" points="201.93,-255.979 210.856,-250.271 200.319,-249.167 201.93,-255.979"/>
</g>
<!-- Node12 -->
<g id="node12" class="node"><title>Node12</title>
<g id="a_node12"><a xlink:href="../../d9/dbc/structefd_1_1CircuitGraph_1_1CircuitNode.xhtml#a748e8cd12225a2d0268e84979726cd03" target="_top" xlink:title="Returns the Node::Ref associated with this circuit node. ">
<polygon fill="none" stroke="black" points="211,-175 211,-205 308,-205 308,-175 211,-175"/>
<text text-anchor="start" x="219" y="-193" font-family="Helvetica,sans-Serif" font-size="10.00">efd::CircuitGraph::</text>
<text text-anchor="middle" x="259.5" y="-182" font-family="Helvetica,sans-Serif" font-size="10.00">CircuitNode::node</text>
</a>
</g>
</g>
<!-- Node1&#45;&gt;Node12 -->
<g id="edge13" class="edge"><title>Node1&#45;&gt;Node12</title>
<path fill="none" stroke="midnightblue" d="M92.7779,-267.744C113.542,-252.691 147.191,-229.838 179,-215 186.007,-211.732 193.552,-208.738 201.107,-206.048"/>
<polygon fill="midnightblue" stroke="midnightblue" points="202.3,-209.339 210.64,-202.804 200.045,-202.712 202.3,-209.339"/>
</g>
<!-- Node13 -->
<g id="node13" class="node"><title>Node13</title>
<g id="a_node13"><a xlink:href="../../d9/dbc/structefd_1_1CircuitGraph_1_1CircuitNode.xhtml#acdd2fff3b8fbce45bf0fd84efab71ab1" target="_top" xlink:title="Returns the number of Xbit&#39;s in this node. ">
<polygon fill="none" stroke="black" points="189.5,-126 189.5,-156 329.5,-156 329.5,-126 189.5,-126"/>
<text text-anchor="start" x="197.5" y="-144" font-family="Helvetica,sans-Serif" font-size="10.00">efd::CircuitGraph::</text>
<text text-anchor="middle" x="259.5" y="-133" font-family="Helvetica,sans-Serif" font-size="10.00">CircuitNode::numberOfXbits</text>
</a>
</g>
</g>
<!-- Node1&#45;&gt;Node13 -->
<g id="edge14" class="edge"><title>Node1&#45;&gt;Node13</title>
<path fill="none" stroke="midnightblue" d="M82.3767,-267.71C99.2346,-242.805 135.947,-193.505 179,-166 182.174,-163.972 185.524,-162.098 188.983,-160.368"/>
<polygon fill="midnightblue" stroke="midnightblue" points="190.685,-163.439 198.341,-156.116 187.789,-157.066 190.685,-163.439"/>
</g>
<!-- Node14 -->
<g id="node14" class="node"><title>Node14</title>
<g id="a_node14"><a xlink:href="../../d7/d0b/classefd_1_1CircuitGraph_1_1Iterator.xhtml#acfeb22b7dd457c5c040e1d89e04c1127" target="_top" xlink:title="efd::CircuitGraph::\lIterator::operator[]">
<polygon fill="none" stroke="black" points="211,-77 211,-107 308,-107 308,-77 211,-77"/>
<text text-anchor="start" x="219" y="-95" font-family="Helvetica,sans-Serif" font-size="10.00">efd::CircuitGraph::</text>
<text text-anchor="middle" x="259.5" y="-84" font-family="Helvetica,sans-Serif" font-size="10.00">Iterator::operator[]</text>
</a>
</g>
</g>
<!-- Node1&#45;&gt;Node14 -->
<g id="edge15" class="edge"><title>Node1&#45;&gt;Node14</title>
<path fill="none" stroke="midnightblue" d="M78.1278,-267.638C90.8822,-234.955 125.132,-158.166 179,-117 185.693,-111.885 193.453,-107.804 201.449,-104.551"/>
<polygon fill="midnightblue" stroke="midnightblue" points="202.703,-107.819 210.895,-101.099 200.301,-101.244 202.703,-107.819"/>
</g>
<!-- Node17 -->
<g id="node17" class="node"><title>Node17</title>
<g id="a_node17"><a xlink:href="../../d9/d6b/classefd_1_1Xbit.xhtml#a9bc4937fc867235e1e7867529aee20e3" target="_top" xlink:title="Creates a quantum Xbit with id. ">
<polygon fill="none" stroke="black" points="226,-38.5 226,-57.5 293,-57.5 293,-38.5 226,-38.5"/>
<text text-anchor="middle" x="259.5" y="-45.5" font-family="Helvetica,sans-Serif" font-size="10.00">efd::Xbit::Q</text>
</a>
</g>
</g>
<!-- Node1&#45;&gt;Node17 -->
<g id="edge18" class="edge"><title>Node1&#45;&gt;Node17</title>
<path fill="none" stroke="midnightblue" d="M75.457,-267.764C83.9473,-228.259 112.205,-121.867 179,-68 189.402,-59.6108 202.869,-54.6851 215.753,-51.8107"/>
<polygon fill="midnightblue" stroke="midnightblue" points="216.703,-55.1939 225.891,-49.9183 215.419,-48.3128 216.703,-55.1939"/>
</g>
<!-- Node18 -->
<g id="node18" class="node"><title>Node18</title>
<g id="a_node18"><a xlink:href="../../d0/d54/classefd_1_1CircuitGraph.xhtml#af5bed18e4c713957e30e7c11d0995da1" target="_top" xlink:title="Returns the number of bits. ">
<polygon fill="none" stroke="black" points="202,-0.5 202,-19.5 317,-19.5 317,-0.5 202,-0.5"/>
<text text-anchor="middle" x="259.5" y="-7.5" font-family="Helvetica,sans-Serif" font-size="10.00">efd::CircuitGraph::size</text>
</a>
</g>
</g>
<!-- Node1&#45;&gt;Node18 -->
<g id="edge19" class="edge"><title>Node1&#45;&gt;Node18</title>
<path fill="none" stroke="midnightblue" d="M74.127,-267.957C79.7242,-223.899 102.287,-94.1645 179,-29 183.02,-25.5849 187.549,-22.761 192.354,-20.4286"/>
<polygon fill="midnightblue" stroke="midnightblue" points="193.951,-23.5567 201.874,-16.5228 191.294,-17.0805 193.951,-23.5567"/>
</g>
<!-- Node3 -->
<g id="node3" class="node"><title>Node3</title>
<g id="a_node3"><a xlink:href="../../d0/d54/classefd_1_1CircuitGraph.xhtml#a3b7cd29688c62411a7e561599a1dcbcb" target="_top" xlink:title="Checks if the CircuitGraph is initialized. Exits with error if not. ">
<polygon fill="none" stroke="black" points="394.5,-547 394.5,-577 491.5,-577 491.5,-547 394.5,-547"/>
<text text-anchor="start" x="402.5" y="-565" font-family="Helvetica,sans-Serif" font-size="10.00">efd::CircuitGraph::</text>
<text text-anchor="middle" x="443" y="-554" font-family="Helvetica,sans-Serif" font-size="10.00">checkInitialized</text>
</a>
</g>
</g>
<!-- Node2&#45;&gt;Node3 -->
<g id="edge2" class="edge"><title>Node2&#45;&gt;Node3</title>
<path fill="none" stroke="midnightblue" d="M308.187,-562C331.438,-562 359.599,-562 384.077,-562"/>
<polygon fill="midnightblue" stroke="midnightblue" points="384.317,-565.5 394.317,-562 384.317,-558.5 384.317,-565.5"/>
</g>
<!-- Node9 -->
<g id="node9" class="node"><title>Node9</title>
<g id="a_node9"><a xlink:href="../../d9/dbc/structefd_1_1CircuitGraph_1_1CircuitNode.xhtml#a08725ecabe57a0f5aa58ca11f1b9fce6" target="_top" xlink:title="True if this node is in the beginning (input node). ">
<polygon fill="none" stroke="black" points="379.5,-314 379.5,-344 506.5,-344 506.5,-314 379.5,-314"/>
<text text-anchor="start" x="387.5" y="-332" font-family="Helvetica,sans-Serif" font-size="10.00">efd::CircuitGraph::</text>
<text text-anchor="middle" x="443" y="-321" font-family="Helvetica,sans-Serif" font-size="10.00">CircuitNode::isInputNode</text>
</a>
</g>
</g>
<!-- Node8&#45;&gt;Node9 -->
<g id="edge8" class="edge"><title>Node8&#45;&gt;Node9</title>
<path fill="none" stroke="midnightblue" d="M322.708,-327.685C337.692,-327.851 353.832,-328.028 369.249,-328.198"/>
<polygon fill="midnightblue" stroke="midnightblue" points="369.219,-331.698 379.257,-328.309 369.296,-324.699 369.219,-331.698"/>
</g>
<!-- Node8&#45;&gt;Node10 -->
<g id="edge9" class="edge"><title>Node8&#45;&gt;Node10</title>
<path fill="none" stroke="midnightblue" d="M318.427,-312C336.191,-307.4 355.894,-302.298 374.252,-297.544"/>
<polygon fill="midnightblue" stroke="midnightblue" points="375.198,-300.914 384.001,-295.019 373.443,-294.138 375.198,-300.914"/>
</g>
<!-- Node11&#45;&gt;Node10 -->
<g id="edge12" class="edge"><title>Node11&#45;&gt;Node10</title>
<path fill="none" stroke="midnightblue" d="M308.187,-249.772C325.887,-253.771 346.433,-258.412 366.033,-262.84"/>
<polygon fill="midnightblue" stroke="midnightblue" points="365.343,-266.272 375.869,-265.061 366.886,-259.444 365.343,-266.272"/>
</g>
<!-- Node15 -->
<g id="node15" class="node"><title>Node15</title>
<g id="a_node15"><a xlink:href="../../d9/d6b/classefd_1_1Xbit.xhtml#ad18f73714ed4aa4fe239a210280e7519" target="_top" xlink:title="Gets the real id for this bit. ">
<polygon fill="none" stroke="black" points="392.5,-104.5 392.5,-123.5 493.5,-123.5 493.5,-104.5 392.5,-104.5"/>
<text text-anchor="middle" x="443" y="-111.5" font-family="Helvetica,sans-Serif" font-size="10.00">efd::Xbit::getRealId</text>
</a>
</g>
</g>
<!-- Node14&#45;&gt;Node15 -->
<g id="edge16" class="edge"><title>Node14&#45;&gt;Node15</title>
<path fill="none" stroke="midnightblue" d="M308.187,-97.7802C330.887,-100.532 358.266,-103.85 382.329,-106.767"/>
<polygon fill="midnightblue" stroke="midnightblue" points="382.067,-110.261 392.416,-107.99 382.909,-103.312 382.067,-110.261"/>
</g>
<!-- Node16 -->
<g id="node16" class="node"><title>Node16</title>
<g id="a_node16"><a xlink:href="../../d7/d0b/classefd_1_1CircuitGraph_1_1Iterator.xhtml#af67b0dc3050162bf837a9b5c18fe27e3" target="_top" xlink:title="efd::CircuitGraph::\lIterator::operator[]">
<polygon fill="none" stroke="black" points="394.5,-55 394.5,-85 491.5,-85 491.5,-55 394.5,-55"/>
<text text-anchor="start" x="402.5" y="-73" font-family="Helvetica,sans-Serif" font-size="10.00">efd::CircuitGraph::</text>
<text text-anchor="middle" x="443" y="-62" font-family="Helvetica,sans-Serif" font-size="10.00">Iterator::operator[]</text>
</a>
</g>
</g>
<!-- Node14&#45;&gt;Node16 -->
<g id="edge17" class="edge"><title>Node14&#45;&gt;Node16</title>
<path fill="none" stroke="midnightblue" d="M308.187,-86.2198C331.438,-83.4015 359.599,-79.988 384.077,-77.021"/>
<polygon fill="midnightblue" stroke="midnightblue" points="384.811,-80.4578 394.317,-75.7798 383.968,-73.5086 384.811,-80.4578"/>
</g>
</g>
</svg>
        <g id="navigator" transform="translate(0 0)" fill="#404254">
                <rect fill="#f2f5e9" fill-opacity="0.5" stroke="#606060" stroke-width=".5" x="0" y="0" width="60" height="60"/>
                <use id="zoomplus" xlink:href="#zoomPlus" x="17" y="9" onmousedown="handleZoom(evt,'in')"/>
                <use id="zoomminus" xlink:href="#zoomMin" x="42" y="9" onmousedown="handleZoom(evt,'out')"/>
                <use id="reset" xlink:href="#resetDef" x="30" y="36" onmousedown="handleReset()"/>
                <g id="arrowUp" xlink:href="#dirArrow" transform="translate(30 24)" onmousedown="handlePan(0,-1)">
                  <use xlink:href="#rim" fill="#404040">
                        <set attributeName="fill" to="#808080" begin="arrowUp.mouseover" end="arrowUp.mouseout"/>
                  </use>
                  <path fill="none" stroke="white" stroke-width="1.5" d="M0,-3.0v7 M-2.5,-0.5L0,-3.0L2.5,-0.5"/>
                </g>
                <g id="arrowRight" xlink:href="#dirArrow" transform="rotate(90) translate(36 -43)" onmousedown="handlePan(1,0)">
                  <use xlink:href="#rim" fill="#404040">
                        <set attributeName="fill" to="#808080" begin="arrowRight.mouseover" end="arrowRight.mouseout"/>
                  </use>
                  <path fill="none" stroke="white" stroke-width="1.5" d="M0,-3.0v7 M-2.5,-0.5L0,-3.0L2.5,-0.5"/>
                </g>
                <g id="arrowDown" xlink:href="#dirArrow" transform="rotate(180) translate(-30 -48)" onmousedown="handlePan(0,1)">
                  <use xlink:href="#rim" fill="#404040">
                        <set attributeName="fill" to="#808080" begin="arrowDown.mouseover" end="arrowDown.mouseout"/>
                  </use>
                  <path fill="none" stroke="white" stroke-width="1.5" d="M0,-3.0v7 M-2.5,-0.5L0,-3.0L2.5,-0.5"/>
                </g>
                <g id="arrowLeft" xlink:href="#dirArrow" transform="rotate(270) translate(-36 17)" onmousedown="handlePan(-1,0)">
                  <use xlink:href="#rim" fill="#404040">
                        <set attributeName="fill" to="#808080" begin="arrowLeft.mouseover" end="arrowLeft.mouseout"/>
                  </use>
                  <path fill="none" stroke="white" stroke-width="1.5" d="M0,-3.0v7 M-2.5,-0.5L0,-3.0L2.5,-0.5"/>
                </g>
        </g>
        <svg viewBox="0 0 15 15" width="100%" height="30px" preserveAspectRatio="xMaxYMin meet">
         <g id="arrow_out" transform="scale(0.3 0.3)">
          <a xlink:href="classefd_1_1CNOTLBOWrapperPass_ad2467d75427cd5cab79e005eb00acd69_cgraph_org.svg" target="_base">
           <rect id="button" ry="5" rx="5" y="6" x="6" height="38" width="38"
                fill="#f2f5e9" fill-opacity="0.5" stroke="#606060" stroke-width="1.0"/>
           <path id="arrow"
             d="M 11.500037,31.436501 C 11.940474,20.09759 22.043105,11.32322 32.158766,21.979434 L 37.068811,17.246167 C 37.068811,17.246167 37.088388,32 37.088388,32 L 22.160133,31.978069 C 22.160133,31.978069 26.997745,27.140456 26.997745,27.140456 C 18.528582,18.264221 13.291696,25.230495 11.500037,31.436501 z"
             style="fill:#404040;"/>
          </a>
         </g>
        </svg>
</svg>
