<?xml version="1.0" encoding="UTF-8" standalone="no"?>
<!DOCTYPE svg PUBLIC "-//W3C//DTD SVG 1.1//EN"
 "http://www.w3.org/Graphics/SVG/1.1/DTD/svg11.dtd">
<!-- Generated by graphviz version 2.40.1 (20161225.0304)
 -->
<!-- Title: efd::StatsPool::addStat Pages: 1 -->
<svg width="305pt" height="104pt"
 viewBox="0.00 0.00 305.00 104.00" xmlns="http://www.w3.org/2000/svg" xmlns:xlink="http://www.w3.org/1999/xlink">
<g id="graph0" class="graph" transform="scale(1 1) rotate(0) translate(4 100)">
<title>efd::StatsPool::addStat</title>
<!-- Node0 -->
<g id="node1" class="node">
<title>Node0</title>
<polygon fill="#bfbfbf" stroke="#000000" points="0,-38.5 0,-57.5 128,-57.5 128,-38.5 0,-38.5"/>
<text text-anchor="middle" x="64" y="-45.5" font-family="Helvetica,sans-Serif" font-size="10.00" fill="#000000">efd::StatsPool::addStat</text>
</g>
<!-- Node1 -->
<g id="node2" class="node">
<title>Node1</title>
<g id="a_node2"><a xlink:href="../../d4/deb/namespaceefd.xhtml#af3487901a239a99750dc5dcdc3a8c868" target="_top" xlink:title="efd::ExitWith">
<polygon fill="none" stroke="#000000" points="190.5,-76.5 190.5,-95.5 270.5,-95.5 270.5,-76.5 190.5,-76.5"/>
<text text-anchor="middle" x="230.5" y="-83.5" font-family="Helvetica,sans-Serif" font-size="10.00" fill="#000000">efd::ExitWith</text>
</a>
</g>
</g>
<!-- Node0&#45;&gt;Node1 -->
<g id="edge1" class="edge">
<title>Node0&#45;&gt;Node1</title>
<path fill="none" stroke="#191970" d="M106.015,-57.589C128.6059,-62.7449 156.6165,-69.1377 180.3434,-74.5529"/>
<polygon fill="#191970" stroke="#191970" points="179.6934,-77.9944 190.2215,-76.8073 181.251,-71.1699 179.6934,-77.9944"/>
</g>
<!-- Node2 -->
<g id="node3" class="node">
<title>Node2</title>
<g id="a_node3"><a xlink:href="../../db/d5d/classefd_1_1StatBase.xhtml#a8d981331871917e9365fecce9ff6c426" target="_top" xlink:title="Gets the name of the stat. ">
<polygon fill="none" stroke="#000000" points="164,-38.5 164,-57.5 297,-57.5 297,-38.5 164,-38.5"/>
<text text-anchor="middle" x="230.5" y="-45.5" font-family="Helvetica,sans-Serif" font-size="10.00" fill="#000000">efd::StatBase::getName</text>
</a>
</g>
</g>
<!-- Node0&#45;&gt;Node2 -->
<g id="edge2" class="edge">
<title>Node0&#45;&gt;Node2</title>
<path fill="none" stroke="#191970" d="M128.3732,-48C136.6356,-48 145.1598,-48 153.5966,-48"/>
<polygon fill="#191970" stroke="#191970" points="153.8208,-51.5001 163.8207,-48 153.8207,-44.5001 153.8208,-51.5001"/>
</g>
<!-- Node3 -->
<g id="node4" class="node">
<title>Node3</title>
<g id="a_node4"><a xlink:href="../../d8/d51/classefd_1_1StatsPool.xhtml#a6a1adb36d87c0cb9262864c5325150dd" target="_top" xlink:title="efd::StatsPool::hasStat">
<polygon fill="none" stroke="#000000" points="167,-.5 167,-19.5 294,-19.5 294,-.5 167,-.5"/>
<text text-anchor="middle" x="230.5" y="-7.5" font-family="Helvetica,sans-Serif" font-size="10.00" fill="#000000">efd::StatsPool::hasStat</text>
</a>
</g>
</g>
<!-- Node0&#45;&gt;Node3 -->
<g id="edge3" class="edge">
<title>Node0&#45;&gt;Node3</title>
<path fill="none" stroke="#191970" d="M106.015,-38.411C128.1844,-33.3513 155.5732,-27.1004 179.011,-21.7512"/>
<polygon fill="#191970" stroke="#191970" points="179.8166,-25.1575 188.7871,-19.5201 178.259,-18.3329 179.8166,-25.1575"/>
</g>
</g>
</svg>
