<?xml version="1.0" encoding="UTF-8" standalone="no"?>
<!DOCTYPE svg PUBLIC "-//W3C//DTD SVG 1.1//EN"
 "http://www.w3.org/Graphics/SVG/1.1/DTD/svg11.dtd">
<!-- Generated by graphviz version 2.38.0 (20140413.2041)
 -->
<!-- Title: efd::StatsPool::addStat Pages: 1 -->
<svg width="285pt" height="66pt"
 viewBox="0.00 0.00 285.00 66.00" xmlns="http://www.w3.org/2000/svg" xmlns:xlink="http://www.w3.org/1999/xlink">
<g id="graph0" class="graph" transform="scale(1 1) rotate(0) translate(4 62)">
<title>efd::StatsPool::addStat</title>
<!-- Node0 -->
<g id="node1" class="node"><title>Node0</title>
<polygon fill="#bfbfbf" stroke="black" points="0,-19.5 0,-38.5 119,-38.5 119,-19.5 0,-19.5"/>
<text text-anchor="middle" x="59.5" y="-26.5" font-family="Helvetica,sans-Serif" font-size="10.00">efd::StatsPool::addStat</text>
</g>
<!-- Node1 -->
<g id="node2" class="node"><title>Node1</title>
<g id="a_node2"><a xlink:href="../../db/d5d/classefd_1_1StatBase.xhtml#a8d981331871917e9365fecce9ff6c426" target="_top" xlink:title="Gets the name of the stat. ">
<polygon fill="none" stroke="black" points="155,-38.5 155,-57.5 277,-57.5 277,-38.5 155,-38.5"/>
<text text-anchor="middle" x="216" y="-45.5" font-family="Helvetica,sans-Serif" font-size="10.00">efd::StatBase::getName</text>
</a>
</g>
</g>
<!-- Node0&#45;&gt;Node1 -->
<g id="edge1" class="edge"><title>Node0&#45;&gt;Node1</title>
<path fill="none" stroke="midnightblue" d="M119.351,-36.2373C127.686,-37.2624 136.326,-38.3248 144.849,-39.373"/>
<polygon fill="midnightblue" stroke="midnightblue" points="144.423,-42.8469 154.775,-40.5937 145.277,-35.8992 144.423,-42.8469"/>
</g>
<!-- Node2 -->
<g id="node3" class="node"><title>Node2</title>
<g id="a_node3"><a xlink:href="../../d8/d51/classefd_1_1StatsPool.xhtml#a6a1adb36d87c0cb9262864c5325150dd" target="_top" xlink:title="efd::StatsPool::hasStat">
<polygon fill="none" stroke="black" points="156.5,-0.5 156.5,-19.5 275.5,-19.5 275.5,-0.5 156.5,-0.5"/>
<text text-anchor="middle" x="216" y="-7.5" font-family="Helvetica,sans-Serif" font-size="10.00">efd::StatsPool::hasStat</text>
</a>
</g>
</g>
<!-- Node0&#45;&gt;Node2 -->
<g id="edge2" class="edge"><title>Node0&#45;&gt;Node2</title>
<path fill="none" stroke="midnightblue" d="M119.351,-21.7627C128.149,-20.6807 137.285,-19.5572 146.266,-18.4528"/>
<polygon fill="midnightblue" stroke="midnightblue" points="146.815,-21.9117 156.313,-17.2172 145.961,-14.964 146.815,-21.9117"/>
</g>
</g>
</svg>
