<?xml version="1.0" encoding="UTF-8" standalone="no"?>
<!DOCTYPE svg PUBLIC "-//W3C//DTD SVG 1.1//EN"
 "http://www.w3.org/Graphics/SVG/1.1/DTD/svg11.dtd">
<!-- Generated by graphviz version 2.40.1 (20161225.0304)
 -->
<!-- Title: main Pages: 1 -->
<svg width="247pt" height="142pt"
 viewBox="0.00 0.00 247.00 142.00" xmlns="http://www.w3.org/2000/svg" xmlns:xlink="http://www.w3.org/1999/xlink">
<g id="graph0" class="graph" transform="scale(1 1) rotate(0) translate(4 138)">
<title>main</title>
<!-- Node0 -->
<g id="node1" class="node">
<title>Node0</title>
<polygon fill="#bfbfbf" stroke="#000000" points="0,-57.5 0,-76.5 41,-76.5 41,-57.5 0,-57.5"/>
<text text-anchor="middle" x="20.5" y="-64.5" font-family="Helvetica,sans-Serif" font-size="10.00" fill="#000000">main</text>
</g>
<!-- Node1 -->
<g id="node2" class="node">
<title>Node1</title>
<g id="a_node2"><a xlink:href="../../d4/deb/namespaceefd.xhtml#a033a77baa1aa02f207c7a918246aeb59" target="_top" xlink:title="Registers all available architectures in the register. ">
<polygon fill="none" stroke="#000000" points="79,-114.5 79,-133.5 237,-133.5 237,-114.5 79,-114.5"/>
<text text-anchor="middle" x="158" y="-121.5" font-family="Helvetica,sans-Serif" font-size="10.00" fill="#000000">efd::InitializeAllArchitectures</text>
</a>
</g>
</g>
<!-- Node0&#45;&gt;Node1 -->
<g id="edge1" class="edge">
<title>Node0&#45;&gt;Node1</title>
<path fill="none" stroke="#191970" d="M32.3137,-76.8247C43.2566,-85.4496 60.3132,-97.7228 77,-105 82.7345,-107.5009 88.8473,-109.6994 95.0461,-111.6262"/>
<polygon fill="#191970" stroke="#191970" points="94.2381,-115.0356 104.8159,-114.435 96.1722,-108.3081 94.2381,-115.0356"/>
</g>
<!-- Node2 -->
<g id="node3" class="node">
<title>Node2</title>
<g id="a_node3"><a xlink:href="../../d4/deb/namespaceefd.xhtml#ae4b41f17586b3bdf847d049e8994977c" target="_top" xlink:title="efd::InitializeAllQbitAllocators">
<polygon fill="none" stroke="#000000" points="77,-76.5 77,-95.5 239,-95.5 239,-76.5 77,-76.5"/>
<text text-anchor="middle" x="158" y="-83.5" font-family="Helvetica,sans-Serif" font-size="10.00" fill="#000000">efd::InitializeAllQbitAllocators</text>
</a>
</g>
</g>
<!-- Node0&#45;&gt;Node2 -->
<g id="edge2" class="edge">
<title>Node0&#45;&gt;Node2</title>
<path fill="none" stroke="#191970" d="M41.0851,-69.8445C51.5145,-71.2856 64.9157,-73.1374 78.9016,-75.07"/>
<polygon fill="#191970" stroke="#191970" points="78.7698,-78.585 89.1548,-76.4868 79.728,-71.6509 78.7698,-78.585"/>
</g>
<!-- Node3 -->
<g id="node4" class="node">
<title>Node3</title>
<g id="a_node4"><a xlink:href="../../d4/deb/namespaceefd.xhtml#a6bbed132b341f48d4aad4f970e3822bc" target="_top" xlink:title="Parses the command line arguments (this function should be used in the main function). ">
<polygon fill="none" stroke="#000000" points="98.5,-38.5 98.5,-57.5 217.5,-57.5 217.5,-38.5 98.5,-38.5"/>
<text text-anchor="middle" x="158" y="-45.5" font-family="Helvetica,sans-Serif" font-size="10.00" fill="#000000">efd::ParseArguments</text>
</a>
</g>
</g>
<!-- Node0&#45;&gt;Node3 -->
<g id="edge3" class="edge">
<title>Node0&#45;&gt;Node3</title>
<path fill="none" stroke="#191970" d="M41.0851,-64.1555C53.7983,-62.3988 70.9274,-60.0319 88.1486,-57.6522"/>
<polygon fill="#191970" stroke="#191970" points="88.8394,-61.0901 98.2662,-56.2541 87.8812,-54.156 88.8394,-61.0901"/>
</g>
<!-- Node4 -->
<g id="node5" class="node">
<title>Node4</title>
<g id="a_node5"><a xlink:href="../../d4/deb/namespaceefd.xhtml#ab4181eb2261a81187a3e8800ec2782ed" target="_top" xlink:title="Parse filename at path. ">
<polygon fill="none" stroke="#000000" points="116.5,-.5 116.5,-19.5 199.5,-19.5 199.5,-.5 116.5,-.5"/>
<text text-anchor="middle" x="158" y="-7.5" font-family="Helvetica,sans-Serif" font-size="10.00" fill="#000000">efd::ParseFile</text>
</a>
</g>
</g>
<!-- Node0&#45;&gt;Node4 -->
<g id="edge4" class="edge">
<title>Node0&#45;&gt;Node4</title>
<path fill="none" stroke="#191970" d="M32.3137,-57.1753C43.2566,-48.5504 60.3132,-36.2772 77,-29 86.2348,-24.9726 96.4505,-21.7294 106.4268,-19.142"/>
<polygon fill="#191970" stroke="#191970" points="107.3763,-22.5135 116.2783,-16.7684 105.7366,-15.7082 107.3763,-22.5135"/>
</g>
</g>
</svg>
