<?xml version="1.0" encoding="UTF-8" standalone="no"?>
<!DOCTYPE svg PUBLIC "-//W3C//DTD SVG 1.1//EN"
 "http://www.w3.org/Graphics/SVG/1.1/DTD/svg11.dtd">
<!-- Generated by graphviz version 2.40.1 (20161225.0304)
 -->
<!-- Title: efd::CircuitCandidatesGenerator Pages: 1 -->
<svg width="181pt" height="152pt"
 viewBox="0.00 0.00 181.00 152.00" xmlns="http://www.w3.org/2000/svg" xmlns:xlink="http://www.w3.org/1999/xlink">
<g id="graph0" class="graph" transform="scale(1 1) rotate(0) translate(4 148)">
<title>efd::CircuitCandidatesGenerator</title>
<!-- Node2 -->
<g id="node1" class="node">
<title>Node2</title>
<polygon fill="#bfbfbf" stroke="#000000" points="0,-.5 0,-19.5 173,-19.5 173,-.5 0,-.5"/>
<text text-anchor="middle" x="86.5" y="-7.5" font-family="Helvetica,sans-Serif" font-size="10.00" fill="#000000">efd::CircuitCandidatesGenerator</text>
</g>
<!-- Node3 -->
<g id="node2" class="node">
<title>Node3</title>
<g id="a_node2"><a xlink:href="../../d1/d29/structefd_1_1NodeCandidatesGenerator.xhtml" target="_top" xlink:title="Generates a vector with the Nodes that can be chosen as the next instruction. ">
<polygon fill="none" stroke="#000000" points="3,-57.5 3,-76.5 170,-76.5 170,-57.5 3,-57.5"/>
<text text-anchor="middle" x="86.5" y="-64.5" font-family="Helvetica,sans-Serif" font-size="10.00" fill="#000000">efd::NodeCandidatesGenerator</text>
</a>
</g>
</g>
<!-- Node3&#45;&gt;Node2 -->
<g id="edge1" class="edge">
<title>Node3&#45;&gt;Node2</title>
<path fill="none" stroke="#191970" d="M86.5,-47.2342C86.5,-37.8491 86.5,-27.0651 86.5,-19.5265"/>
<polygon fill="#191970" stroke="#191970" points="83.0001,-47.3307 86.5,-57.3307 90.0001,-47.3308 83.0001,-47.3307"/>
</g>
<!-- Node4 -->
<g id="node3" class="node">
<title>Node4</title>
<g id="a_node3"><a xlink:href="../../dd/d52/classefd_1_1QModule.xhtml" target="_top" xlink:title="Qasm module representation. ">
<polygon fill="none" stroke="#000000" points="46,-124.5 46,-143.5 127,-143.5 127,-124.5 46,-124.5"/>
<text text-anchor="middle" x="86.5" y="-131.5" font-family="Helvetica,sans-Serif" font-size="10.00" fill="#000000">efd::QModule</text>
</a>
</g>
</g>
<!-- Node4&#45;&gt;Node3 -->
<g id="edge2" class="edge">
<title>Node4&#45;&gt;Node3</title>
<path fill="none" stroke="#9a32cd" stroke-dasharray="5,2" d="M86.5,-114.1079C86.5,-101.714 86.5,-86.3263 86.5,-76.5817"/>
<polygon fill="#9a32cd" stroke="#9a32cd" points="83.0001,-114.4005 86.5,-124.4005 90.0001,-114.4006 83.0001,-114.4005"/>
<text text-anchor="middle" x="103.5" y="-98" font-family="Helvetica,sans-Serif" font-size="10.00" fill="#000000"> mMod</text>
</g>
</g>
</svg>
