<?xml version="1.0" encoding="UTF-8" standalone="no"?>
<!DOCTYPE svg PUBLIC "-//W3C//DTD SVG 1.1//EN"
 "http://www.w3.org/Graphics/SVG/1.1/DTD/svg11.dtd">
<!-- Generated by graphviz version 2.38.0 (20140413.2041)
 -->
<!-- Title: efd::NDQOpU::Create Pages: 1 -->
<!--zoomable 195 -->
<svg id="main" version="1.1" xmlns="http://www.w3.org/2000/svg" xmlns:xlink="http://www.w3.org/1999/xlink" xml:space="preserve" onload="init(evt)">
<style type="text/css"><![CDATA[
.edge:hover path { stroke: red; }
.edge:hover polygon { stroke: red; fill: red; }
]]></style>
<script type="text/javascript"><![CDATA[
var edges = document.getElementsByTagName('g');
if (edges && edges.length) {
  for (var i=0;i<edges.length;i++) {
    if (edges[i].id.substr(0,4)=='edge') {
      edges[i].setAttribute('class','edge');
    }
  }
}
]]></script>
        <defs>
                <circle id="rim" cx="0" cy="0" r="7"/>
                <circle id="rim2" cx="0" cy="0" r="3.5"/>
                <g id="zoomPlus">
                        <use xlink:href="#rim" fill="#404040">
                                <set attributeName="fill" to="#808080" begin="zoomplus.mouseover" end="zoomplus.mouseout"/>
                        </use>
                        <path d="M-4,0h8M0,-4v8" fill="none" stroke="white" stroke-width="1.5" pointer-events="none"/>
                </g>
                <g id="zoomMin">
                        <use xlink:href="#rim" fill="#404040">
                                <set attributeName="fill" to="#808080" begin="zoomminus.mouseover" end="zoomminus.mouseout"/>
                        </use>
                        <path d="M-4,0h8" fill="none" stroke="white" stroke-width="1.5" pointer-events="none"/>
                </g>
                <g id="dirArrow">
                        <path fill="none" stroke="white" stroke-width="1.5" d="M0,-3.0v7 M-2.5,-0.5L0,-3.0L2.5,-0.5"/>
                </g>
               <g id="resetDef">
                       <use xlink:href="#rim2" fill="#404040">
                               <set attributeName="fill" to="#808080" begin="reset.mouseover" end="reset.mouseout"/>
                       </use>
               </g>
        </defs>

<script type="text/javascript">
var viewWidth = 871;
var viewHeight = 195;
var sectionId = 'dynsection-6';
</script>
<script xlink:href="../../svgpan.js"/>
<svg id="graph" class="graph">
<g id="viewport">
<title>efd::NDQOpU::Create</title>
<!-- Node38 -->
<g id="node1" class="node"><title>Node38</title>
<polygon fill="#bfbfbf" stroke="black" points="0,-91.8878 0,-110.888 114,-110.888 114,-91.8878 0,-91.8878"/>
<text text-anchor="middle" x="57" y="-98.8878" font-family="Helvetica,sans-Serif" font-size="10.00">efd::NDQOpU::Create</text>
</g>
<!-- Node39 -->
<g id="node2" class="node"><title>Node39</title>
<g id="a_node2"><a xlink:href="../../d7/dbe/classefd_1_1NDQOpU.xhtml#a21cd5b24ccc7dcadf57c80b619544ede" target="_top" xlink:title="efd::NDQOpU::NDQOpU">
<polygon fill="none" stroke="black" points="150,-91.8878 150,-110.888 278,-110.888 278,-91.8878 150,-91.8878"/>
<text text-anchor="middle" x="214" y="-98.8878" font-family="Helvetica,sans-Serif" font-size="10.00">efd::NDQOpU::NDQOpU</text>
</a>
</g>
</g>
<!-- Node38&#45;&gt;Node39 -->
<g id="edge1" class="edge"><title>Node38&#45;&gt;Node39</title>
<path fill="none" stroke="midnightblue" d="M114.397,-101.388C122.582,-101.388 131.106,-101.388 139.566,-101.388"/>
<polygon fill="midnightblue" stroke="midnightblue" points="139.825,-104.888 149.825,-101.388 139.825,-97.8879 139.825,-104.888"/>
</g>
<!-- Node40 -->
<g id="node3" class="node"><title>Node40</title>
<g id="a_node3"><a xlink:href="../../da/ddd/classefd_1_1NDList.xhtml#a664c2f4a60746612062d7b112ff9842e" target="_top" xlink:title="Appends a child to the end of the list. ">
<polygon fill="none" stroke="black" points="476.5,-53.8878 476.5,-72.8878 587.5,-72.8878 587.5,-53.8878 476.5,-53.8878"/>
<text text-anchor="middle" x="532" y="-60.8878" font-family="Helvetica,sans-Serif" font-size="10.00">efd::NDList::addChild</text>
</a>
</g>
</g>
<!-- Node39&#45;&gt;Node40 -->
<g id="edge2" class="edge"><title>Node39&#45;&gt;Node40</title>
<path fill="none" stroke="midnightblue" d="M259.686,-91.8063C276.633,-88.4377 296.146,-84.876 314,-82.3878 364.973,-75.2838 423.076,-70.3634 466.323,-67.3126"/>
<polygon fill="midnightblue" stroke="midnightblue" points="466.691,-70.7955 476.426,-66.6147 466.209,-63.8122 466.691,-70.7955"/>
</g>
<!-- Node42 -->
<g id="node5" class="node"><title>Node42</title>
<g id="a_node5"><a xlink:href="../../df/d1b/classefd_1_1NDValue.xhtml#a96ab9dcd008523aa2f4cfc2eb95d7178" target="_top" xlink:title="Creates a new instance of this node. ">
<polygon fill="none" stroke="black" points="318,-129.888 318,-148.888 429,-148.888 429,-129.888 318,-129.888"/>
<text text-anchor="middle" x="373.5" y="-136.888" font-family="Helvetica,sans-Serif" font-size="10.00">efd::NDValue::Create</text>
</a>
</g>
</g>
<!-- Node39&#45;&gt;Node42 -->
<g id="edge4" class="edge"><title>Node39&#45;&gt;Node42</title>
<path fill="none" stroke="midnightblue" d="M254.744,-110.977C275.528,-115.991 301.161,-122.176 323.199,-127.493"/>
<polygon fill="midnightblue" stroke="midnightblue" points="322.5,-130.925 333.042,-129.868 324.142,-124.12 322.5,-130.925"/>
</g>
<!-- Node43 -->
<g id="node6" class="node"><title>Node43</title>
<g id="a_node6"><a xlink:href="../../da/ddd/classefd_1_1NDList.xhtml#a5e3e2ab6234caa816599eb51766210b7" target="_top" xlink:title="Creates a new instance of this node with the kind K_LIST. ">
<polygon fill="none" stroke="black" points="322.5,-167.888 322.5,-186.888 424.5,-186.888 424.5,-167.888 322.5,-167.888"/>
<text text-anchor="middle" x="373.5" y="-174.888" font-family="Helvetica,sans-Serif" font-size="10.00">efd::NDList::Create</text>
</a>
</g>
</g>
<!-- Node39&#45;&gt;Node43 -->
<g id="edge5" class="edge"><title>Node39&#45;&gt;Node43</title>
<path fill="none" stroke="midnightblue" d="M229.584,-111.083C248.458,-123.321 282.646,-144.453 314,-158.388 318.817,-160.528 323.951,-162.55 329.1,-164.419"/>
<polygon fill="midnightblue" stroke="midnightblue" points="328.35,-167.862 338.944,-167.815 330.633,-161.245 328.35,-167.862"/>
</g>
<!-- Node48 -->
<g id="node11" class="node"><title>Node48</title>
<g id="a_node11"><a xlink:href="../../dd/d94/classefd_1_1NDQOp.xhtml#af7ef43289355c5bb047a46419177c8ed" target="_top" xlink:title="Gets the quantum arguments. ">
<polygon fill="none" stroke="black" points="314,-91.8878 314,-110.888 433,-110.888 433,-91.8878 314,-91.8878"/>
<text text-anchor="middle" x="373.5" y="-98.8878" font-family="Helvetica,sans-Serif" font-size="10.00">efd::NDQOp::getQArgs</text>
</a>
</g>
</g>
<!-- Node39&#45;&gt;Node48 -->
<g id="edge10" class="edge"><title>Node39&#45;&gt;Node48</title>
<path fill="none" stroke="midnightblue" d="M278.154,-101.388C286.55,-101.388 295.193,-101.388 303.679,-101.388"/>
<polygon fill="midnightblue" stroke="midnightblue" points="303.926,-104.888 313.926,-101.388 303.926,-97.8879 303.926,-104.888"/>
</g>
<!-- Node50 -->
<g id="node13" class="node"><title>Node50</title>
<g id="a_node13"><a xlink:href="../../dd/d94/classefd_1_1NDQOp.xhtml#ab5f18eaba71bcb53806525fd5dc61403" target="_top" xlink:title="efd::NDQOp::NDQOp">
<polygon fill="none" stroke="black" points="317,-15.8878 317,-34.8878 430,-34.8878 430,-15.8878 317,-15.8878"/>
<text text-anchor="middle" x="373.5" y="-22.8878" font-family="Helvetica,sans-Serif" font-size="10.00">efd::NDQOp::NDQOp</text>
</a>
</g>
</g>
<!-- Node39&#45;&gt;Node50 -->
<g id="edge12" class="edge"><title>Node39&#45;&gt;Node50</title>
<path fill="none" stroke="midnightblue" d="M231.923,-91.8727C251.441,-81.0467 284.618,-63.0941 314,-49.3878 321.78,-45.7585 330.266,-42.1069 338.3,-38.7853"/>
<polygon fill="midnightblue" stroke="midnightblue" points="339.855,-41.9314 347.799,-34.9211 337.217,-35.4475 339.855,-41.9314"/>
</g>
<!-- Node41 -->
<g id="node4" class="node"><title>Node41</title>
<g id="a_node4"><a xlink:href="../../d6/d6a/classefd_1_1Node.xhtml#a48e9d49d994b9023b8400316e2782e2b" target="_top" xlink:title="Sets the parent node of the current node. ">
<polygon fill="none" stroke="black" points="631,-29.8878 631,-48.8878 738,-48.8878 738,-29.8878 631,-29.8878"/>
<text text-anchor="middle" x="684.5" y="-36.8878" font-family="Helvetica,sans-Serif" font-size="10.00">efd::Node::setParent</text>
</a>
</g>
</g>
<!-- Node40&#45;&gt;Node41 -->
<g id="edge3" class="edge"><title>Node40&#45;&gt;Node41</title>
<path fill="none" stroke="midnightblue" d="M587.76,-54.6553C598.506,-52.9417 609.855,-51.1318 620.837,-49.3806"/>
<polygon fill="midnightblue" stroke="midnightblue" points="621.467,-52.8245 630.791,-47.7933 620.364,-45.9118 621.467,-52.8245"/>
</g>
<!-- Node44 -->
<g id="node7" class="node"><title>Node44</title>
<g id="a_node7"><a xlink:href="../../da/ddd/classefd_1_1NDList.xhtml#a63e0eab4abb59c1c0783f90afe0bb3bb" target="_top" xlink:title="Creates a new instance of this node with a specific k. ">
<polygon fill="none" stroke="black" points="481,-148.888 481,-167.888 583,-167.888 583,-148.888 481,-148.888"/>
<text text-anchor="middle" x="532" y="-155.888" font-family="Helvetica,sans-Serif" font-size="10.00">efd::NDList::Create</text>
</a>
</g>
</g>
<!-- Node43&#45;&gt;Node44 -->
<g id="edge6" class="edge"><title>Node43&#45;&gt;Node44</title>
<path fill="none" stroke="midnightblue" d="M424.879,-171.271C439.472,-169.5 455.552,-167.548 470.687,-165.71"/>
<polygon fill="midnightblue" stroke="midnightblue" points="471.478,-169.14 480.983,-164.46 470.634,-162.191 471.478,-169.14"/>
</g>
<!-- Node45 -->
<g id="node8" class="node"><title>Node45</title>
<g id="a_node8"><a xlink:href="../../d4/deb/namespaceefd.xhtml#a3fd26bc2a0a0c6d9948d0d3cef2e1515" target="_top" xlink:title="Returns true if the pointer src is of class TargetTy. ">
<polygon fill="none" stroke="black" points="643,-148.888 643,-167.888 726,-167.888 726,-148.888 643,-148.888"/>
<text text-anchor="middle" x="684.5" y="-155.888" font-family="Helvetica,sans-Serif" font-size="10.00">efd::instanceOf</text>
</a>
</g>
</g>
<!-- Node44&#45;&gt;Node45 -->
<g id="edge7" class="edge"><title>Node44&#45;&gt;Node45</title>
<path fill="none" stroke="midnightblue" d="M583.114,-158.388C598.967,-158.388 616.501,-158.388 632.42,-158.388"/>
<polygon fill="midnightblue" stroke="midnightblue" points="632.614,-161.888 642.614,-158.388 632.614,-154.888 632.614,-161.888"/>
</g>
<!-- Node46 -->
<g id="node9" class="node"><title>Node46</title>
<g id="a_node9"><a xlink:href="../../da/ddd/classefd_1_1NDList.xhtml#a2642c91fda9d33512d1aa1aa7851b6bd" target="_top" xlink:title="efd::NDList::NDList">
<polygon fill="none" stroke="black" points="632.5,-82.8878 632.5,-101.888 736.5,-101.888 736.5,-82.8878 632.5,-82.8878"/>
<text text-anchor="middle" x="684.5" y="-89.8878" font-family="Helvetica,sans-Serif" font-size="10.00">efd::NDList::NDList</text>
</a>
</g>
</g>
<!-- Node44&#45;&gt;Node46 -->
<g id="edge8" class="edge"><title>Node44&#45;&gt;Node46</title>
<path fill="none" stroke="midnightblue" d="M554.884,-148.791C580.52,-137.549 623.18,-118.84 652.284,-106.077"/>
<polygon fill="midnightblue" stroke="midnightblue" points="653.837,-109.218 661.59,-101.996 651.026,-102.807 653.837,-109.218"/>
</g>
<!-- Node47 -->
<g id="node10" class="node"><title>Node47</title>
<g id="a_node10"><a xlink:href="../../d6/d6a/classefd_1_1Node.xhtml#a09ac8cdf7898a3d17293d92ae956eece" target="_top" xlink:title="Constructs the node, initially empty (with no information). ">
<polygon fill="none" stroke="black" points="774,-29.8878 774,-48.8878 863,-48.8878 863,-29.8878 774,-29.8878"/>
<text text-anchor="middle" x="818.5" y="-36.8878" font-family="Helvetica,sans-Serif" font-size="10.00">efd::Node::Node</text>
</a>
</g>
</g>
<!-- Node46&#45;&gt;Node47 -->
<g id="edge9" class="edge"><title>Node46&#45;&gt;Node47</title>
<path fill="none" stroke="midnightblue" d="M709.404,-82.7899C730.337,-74.3852 760.965,-62.0874 784.279,-52.7264"/>
<polygon fill="midnightblue" stroke="midnightblue" points="785.798,-55.8883 793.774,-48.9143 783.19,-49.3924 785.798,-55.8883"/>
</g>
<!-- Node49 -->
<g id="node12" class="node"><title>Node49</title>
<g id="a_node12"><a xlink:href="../../d4/deb/namespaceefd.xhtml#a2cef687225e13315fc282dc40b5a6909" target="_top" xlink:title="Returns src cast to TargetTy, iff it is of class TargetTy, otherwise it will return nullptr...">
<polygon fill="none" stroke="black" points="495.5,-91.8878 495.5,-110.888 568.5,-110.888 568.5,-91.8878 495.5,-91.8878"/>
<text text-anchor="middle" x="532" y="-98.8878" font-family="Helvetica,sans-Serif" font-size="10.00">efd::dynCast</text>
</a>
</g>
</g>
<!-- Node48&#45;&gt;Node49 -->
<g id="edge11" class="edge"><title>Node48&#45;&gt;Node49</title>
<path fill="none" stroke="midnightblue" d="M433.22,-101.388C450.296,-101.388 468.697,-101.388 484.879,-101.388"/>
<polygon fill="midnightblue" stroke="midnightblue" points="485.157,-104.888 495.157,-101.388 485.157,-97.8879 485.157,-104.888"/>
</g>
<!-- Node50&#45;&gt;Node47 -->
<g id="edge15" class="edge"><title>Node50&#45;&gt;Node47</title>
<path fill="none" stroke="midnightblue" d="M412.86,-15.8779C429.93,-12.1129 450.349,-8.24412 469,-6.38777 588.129,5.46949 619.93,-0.594948 738,-20.3878 749.144,-22.2559 761.047,-24.8 772.158,-27.4189"/>
<polygon fill="midnightblue" stroke="midnightblue" points="771.552,-30.8734 782.095,-29.8278 773.201,-24.0704 771.552,-30.8734"/>
</g>
<!-- Node51 -->
<g id="node14" class="node"><title>Node51</title>
<g id="a_node14"><a xlink:href="../../d6/d6a/classefd_1_1Node.xhtml#a8ac8c3206c6f6817a8c8e515ac830f61" target="_top" xlink:title="Adds a child to this node. It should be used only for construction of each derived class...">
<polygon fill="none" stroke="black" points="469,-15.8878 469,-34.8878 595,-34.8878 595,-15.8878 469,-15.8878"/>
<text text-anchor="middle" x="532" y="-22.8878" font-family="Helvetica,sans-Serif" font-size="10.00">efd::Node::innerAddChild</text>
</a>
</g>
</g>
<!-- Node50&#45;&gt;Node51 -->
<g id="edge13" class="edge"><title>Node50&#45;&gt;Node51</title>
<path fill="none" stroke="midnightblue" d="M430.117,-25.3878C439.441,-25.3878 449.235,-25.3878 458.902,-25.3878"/>
<polygon fill="midnightblue" stroke="midnightblue" points="458.907,-28.8879 468.906,-25.3878 458.906,-21.8879 458.907,-28.8879"/>
</g>
<!-- Node51&#45;&gt;Node41 -->
<g id="edge14" class="edge"><title>Node51&#45;&gt;Node41</title>
<path fill="none" stroke="midnightblue" d="M595.083,-31.1629C603.488,-31.9447 612.118,-32.7476 620.538,-33.5308"/>
<polygon fill="midnightblue" stroke="midnightblue" points="620.393,-37.0324 630.674,-34.4737 621.041,-30.0625 620.393,-37.0324"/>
</g>
</g>
</svg>
        <g id="navigator" transform="translate(0 0)" fill="#404254">
                <rect fill="#f2f5e9" fill-opacity="0.5" stroke="#606060" stroke-width=".5" x="0" y="0" width="60" height="60"/>
                <use id="zoomplus" xlink:href="#zoomPlus" x="17" y="9" onmousedown="handleZoom(evt,'in')"/>
                <use id="zoomminus" xlink:href="#zoomMin" x="42" y="9" onmousedown="handleZoom(evt,'out')"/>
                <use id="reset" xlink:href="#resetDef" x="30" y="36" onmousedown="handleReset()"/>
                <g id="arrowUp" xlink:href="#dirArrow" transform="translate(30 24)" onmousedown="handlePan(0,-1)">
                  <use xlink:href="#rim" fill="#404040">
                        <set attributeName="fill" to="#808080" begin="arrowUp.mouseover" end="arrowUp.mouseout"/>
                  </use>
                  <path fill="none" stroke="white" stroke-width="1.5" d="M0,-3.0v7 M-2.5,-0.5L0,-3.0L2.5,-0.5"/>
                </g>
                <g id="arrowRight" xlink:href="#dirArrow" transform="rotate(90) translate(36 -43)" onmousedown="handlePan(1,0)">
                  <use xlink:href="#rim" fill="#404040">
                        <set attributeName="fill" to="#808080" begin="arrowRight.mouseover" end="arrowRight.mouseout"/>
                  </use>
                  <path fill="none" stroke="white" stroke-width="1.5" d="M0,-3.0v7 M-2.5,-0.5L0,-3.0L2.5,-0.5"/>
                </g>
                <g id="arrowDown" xlink:href="#dirArrow" transform="rotate(180) translate(-30 -48)" onmousedown="handlePan(0,1)">
                  <use xlink:href="#rim" fill="#404040">
                        <set attributeName="fill" to="#808080" begin="arrowDown.mouseover" end="arrowDown.mouseout"/>
                  </use>
                  <path fill="none" stroke="white" stroke-width="1.5" d="M0,-3.0v7 M-2.5,-0.5L0,-3.0L2.5,-0.5"/>
                </g>
                <g id="arrowLeft" xlink:href="#dirArrow" transform="rotate(270) translate(-36 17)" onmousedown="handlePan(-1,0)">
                  <use xlink:href="#rim" fill="#404040">
                        <set attributeName="fill" to="#808080" begin="arrowLeft.mouseover" end="arrowLeft.mouseout"/>
                  </use>
                  <path fill="none" stroke="white" stroke-width="1.5" d="M0,-3.0v7 M-2.5,-0.5L0,-3.0L2.5,-0.5"/>
                </g>
        </g>
        <svg viewBox="0 0 15 15" width="100%" height="30px" preserveAspectRatio="xMaxYMin meet">
         <g id="arrow_out" transform="scale(0.3 0.3)">
          <a xlink:href="classefd_1_1NDQOpU_a57d2d0780b75ad6459a9852dfc5d1e8e_cgraph_org.svg" target="_base">
           <rect id="button" ry="5" rx="5" y="6" x="6" height="38" width="38"
                fill="#f2f5e9" fill-opacity="0.5" stroke="#606060" stroke-width="1.0"/>
           <path id="arrow"
             d="M 11.500037,31.436501 C 11.940474,20.09759 22.043105,11.32322 32.158766,21.979434 L 37.068811,17.246167 C 37.068811,17.246167 37.088388,32 37.088388,32 L 22.160133,31.978069 C 22.160133,31.978069 26.997745,27.140456 26.997745,27.140456 C 18.528582,18.264221 13.291696,25.230495 11.500037,31.436501 z"
             style="fill:#404040;"/>
          </a>
         </g>
        </svg>
</svg>
