<?xml version="1.0" encoding="UTF-8" standalone="no"?>
<!DOCTYPE svg PUBLIC "-//W3C//DTD SVG 1.1//EN"
 "http://www.w3.org/Graphics/SVG/1.1/DTD/svg11.dtd">
<!-- Generated by graphviz version 2.38.0 (20140413.2041)
 -->
<!-- Title: efd::NDQOpReset::Create Pages: 1 -->
<svg width="927pt" height="195pt"
 viewBox="0.00 0.00 927.00 195.39" xmlns="http://www.w3.org/2000/svg" xmlns:xlink="http://www.w3.org/1999/xlink">
<g id="graph0" class="graph" transform="scale(1 1) rotate(0) translate(4 191.388)">
<title>efd::NDQOpReset::Create</title>
<!-- Node36 -->
<g id="node1" class="node"><title>Node36</title>
<polygon fill="#bfbfbf" stroke="black" points="0,-91.8878 0,-110.888 133,-110.888 133,-91.8878 0,-91.8878"/>
<text text-anchor="middle" x="66.5" y="-98.8878" font-family="Helvetica,sans-Serif" font-size="10.00">efd::NDQOpReset::Create</text>
</g>
<!-- Node37 -->
<g id="node2" class="node"><title>Node37</title>
<g id="a_node2"><a xlink:href="../../d0/dd2/classefd_1_1NDQOpReset.xhtml#ae4a7e0da47e306c1c5d3878c6c61da9e" target="_top" xlink:title="efd::NDQOpReset::NDQOpReset">
<polygon fill="none" stroke="black" points="169,-91.8878 169,-110.888 334,-110.888 334,-91.8878 169,-91.8878"/>
<text text-anchor="middle" x="251.5" y="-98.8878" font-family="Helvetica,sans-Serif" font-size="10.00">efd::NDQOpReset::NDQOpReset</text>
</a>
</g>
</g>
<!-- Node36&#45;&gt;Node37 -->
<g id="edge1" class="edge"><title>Node36&#45;&gt;Node37</title>
<path fill="none" stroke="midnightblue" d="M133.05,-101.388C141.38,-101.388 150.022,-101.388 158.669,-101.388"/>
<polygon fill="midnightblue" stroke="midnightblue" points="158.802,-104.888 168.802,-101.388 158.802,-97.8879 158.802,-104.888"/>
</g>
<!-- Node38 -->
<g id="node3" class="node"><title>Node38</title>
<g id="a_node3"><a xlink:href="../../da/ddd/classefd_1_1NDList.xhtml#a664c2f4a60746612062d7b112ff9842e" target="_top" xlink:title="Appends a child to the end of the list. ">
<polygon fill="none" stroke="black" points="532.5,-53.8878 532.5,-72.8878 643.5,-72.8878 643.5,-53.8878 532.5,-53.8878"/>
<text text-anchor="middle" x="588" y="-60.8878" font-family="Helvetica,sans-Serif" font-size="10.00">efd::NDList::addChild</text>
</a>
</g>
</g>
<!-- Node37&#45;&gt;Node38 -->
<g id="edge2" class="edge"><title>Node37&#45;&gt;Node38</title>
<path fill="none" stroke="midnightblue" d="M306.197,-91.8592C326.182,-88.5361 349.084,-84.991 370,-82.3878 421.072,-76.0313 479.168,-71.0636 522.388,-67.8045"/>
<polygon fill="midnightblue" stroke="midnightblue" points="522.771,-71.2858 532.484,-67.0538 522.252,-64.305 522.771,-71.2858"/>
</g>
<!-- Node40 -->
<g id="node5" class="node"><title>Node40</title>
<g id="a_node5"><a xlink:href="../../df/d1b/classefd_1_1NDValue.xhtml#a96ab9dcd008523aa2f4cfc2eb95d7178" target="_top" xlink:title="Creates a new instance of this node. ">
<polygon fill="none" stroke="black" points="374,-129.888 374,-148.888 485,-148.888 485,-129.888 374,-129.888"/>
<text text-anchor="middle" x="429.5" y="-136.888" font-family="Helvetica,sans-Serif" font-size="10.00">efd::NDValue::Create</text>
</a>
</g>
</g>
<!-- Node37&#45;&gt;Node40 -->
<g id="edge4" class="edge"><title>Node37&#45;&gt;Node40</title>
<path fill="none" stroke="midnightblue" d="M296.912,-110.977C320.451,-116.059 349.557,-122.343 374.405,-127.708"/>
<polygon fill="midnightblue" stroke="midnightblue" points="373.894,-131.178 384.407,-129.868 375.371,-124.336 373.894,-131.178"/>
</g>
<!-- Node41 -->
<g id="node6" class="node"><title>Node41</title>
<g id="a_node6"><a xlink:href="../../da/ddd/classefd_1_1NDList.xhtml#a5e3e2ab6234caa816599eb51766210b7" target="_top" xlink:title="Creates a new instance of this node with the kind K_LIST. ">
<polygon fill="none" stroke="black" points="378.5,-167.888 378.5,-186.888 480.5,-186.888 480.5,-167.888 378.5,-167.888"/>
<text text-anchor="middle" x="429.5" y="-174.888" font-family="Helvetica,sans-Serif" font-size="10.00">efd::NDList::Create</text>
</a>
</g>
</g>
<!-- Node37&#45;&gt;Node41 -->
<g id="edge5" class="edge"><title>Node37&#45;&gt;Node41</title>
<path fill="none" stroke="midnightblue" d="M270.466,-111.066C293.219,-123.097 333.826,-143.82 370,-158.388 375.394,-160.56 381.14,-162.668 386.844,-164.64"/>
<polygon fill="midnightblue" stroke="midnightblue" points="385.741,-167.962 396.335,-167.819 387.965,-161.324 385.741,-167.962"/>
</g>
<!-- Node46 -->
<g id="node11" class="node"><title>Node46</title>
<g id="a_node11"><a xlink:href="../../dd/d94/classefd_1_1NDQOp.xhtml#af7ef43289355c5bb047a46419177c8ed" target="_top" xlink:title="Gets the quantum arguments. ">
<polygon fill="none" stroke="black" points="370,-91.8878 370,-110.888 489,-110.888 489,-91.8878 370,-91.8878"/>
<text text-anchor="middle" x="429.5" y="-98.8878" font-family="Helvetica,sans-Serif" font-size="10.00">efd::NDQOp::getQArgs</text>
</a>
</g>
</g>
<!-- Node37&#45;&gt;Node46 -->
<g id="edge10" class="edge"><title>Node37&#45;&gt;Node46</title>
<path fill="none" stroke="midnightblue" d="M334.06,-101.388C342.626,-101.388 351.274,-101.388 359.677,-101.388"/>
<polygon fill="midnightblue" stroke="midnightblue" points="359.783,-104.888 369.783,-101.388 359.783,-97.8879 359.783,-104.888"/>
</g>
<!-- Node48 -->
<g id="node13" class="node"><title>Node48</title>
<g id="a_node13"><a xlink:href="../../dd/d94/classefd_1_1NDQOp.xhtml#ab5f18eaba71bcb53806525fd5dc61403" target="_top" xlink:title="efd::NDQOp::NDQOp">
<polygon fill="none" stroke="black" points="373,-15.8878 373,-34.8878 486,-34.8878 486,-15.8878 373,-15.8878"/>
<text text-anchor="middle" x="429.5" y="-22.8878" font-family="Helvetica,sans-Serif" font-size="10.00">efd::NDQOp::NDQOp</text>
</a>
</g>
</g>
<!-- Node37&#45;&gt;Node48 -->
<g id="edge12" class="edge"><title>Node37&#45;&gt;Node48</title>
<path fill="none" stroke="midnightblue" d="M273.651,-91.819C297.116,-81.2517 336.141,-63.8223 370,-49.3878 378.202,-45.8913 387.088,-42.1977 395.398,-38.784"/>
<polygon fill="midnightblue" stroke="midnightblue" points="396.882,-41.9583 404.814,-34.9337 394.233,-35.4791 396.882,-41.9583"/>
</g>
<!-- Node39 -->
<g id="node4" class="node"><title>Node39</title>
<g id="a_node4"><a xlink:href="../../d6/d6a/classefd_1_1Node.xhtml#a48e9d49d994b9023b8400316e2782e2b" target="_top" xlink:title="Sets the parent node of the current node. ">
<polygon fill="none" stroke="black" points="687,-29.8878 687,-48.8878 794,-48.8878 794,-29.8878 687,-29.8878"/>
<text text-anchor="middle" x="740.5" y="-36.8878" font-family="Helvetica,sans-Serif" font-size="10.00">efd::Node::setParent</text>
</a>
</g>
</g>
<!-- Node38&#45;&gt;Node39 -->
<g id="edge3" class="edge"><title>Node38&#45;&gt;Node39</title>
<path fill="none" stroke="midnightblue" d="M643.76,-54.6553C654.506,-52.9417 665.855,-51.1318 676.837,-49.3806"/>
<polygon fill="midnightblue" stroke="midnightblue" points="677.467,-52.8245 686.791,-47.7933 676.364,-45.9118 677.467,-52.8245"/>
</g>
<!-- Node42 -->
<g id="node7" class="node"><title>Node42</title>
<g id="a_node7"><a xlink:href="../../da/ddd/classefd_1_1NDList.xhtml#a63e0eab4abb59c1c0783f90afe0bb3bb" target="_top" xlink:title="Creates a new instance of this node with a specific k. ">
<polygon fill="none" stroke="black" points="537,-148.888 537,-167.888 639,-167.888 639,-148.888 537,-148.888"/>
<text text-anchor="middle" x="588" y="-155.888" font-family="Helvetica,sans-Serif" font-size="10.00">efd::NDList::Create</text>
</a>
</g>
</g>
<!-- Node41&#45;&gt;Node42 -->
<g id="edge6" class="edge"><title>Node41&#45;&gt;Node42</title>
<path fill="none" stroke="midnightblue" d="M480.879,-171.271C495.472,-169.5 511.552,-167.548 526.687,-165.71"/>
<polygon fill="midnightblue" stroke="midnightblue" points="527.478,-169.14 536.983,-164.46 526.634,-162.191 527.478,-169.14"/>
</g>
<!-- Node43 -->
<g id="node8" class="node"><title>Node43</title>
<g id="a_node8"><a xlink:href="../../d4/deb/namespaceefd.xhtml#a3fd26bc2a0a0c6d9948d0d3cef2e1515" target="_top" xlink:title="Returns true if the pointer src is of class TargetTy. ">
<polygon fill="none" stroke="black" points="699,-148.888 699,-167.888 782,-167.888 782,-148.888 699,-148.888"/>
<text text-anchor="middle" x="740.5" y="-155.888" font-family="Helvetica,sans-Serif" font-size="10.00">efd::instanceOf</text>
</a>
</g>
</g>
<!-- Node42&#45;&gt;Node43 -->
<g id="edge7" class="edge"><title>Node42&#45;&gt;Node43</title>
<path fill="none" stroke="midnightblue" d="M639.114,-158.388C654.967,-158.388 672.501,-158.388 688.42,-158.388"/>
<polygon fill="midnightblue" stroke="midnightblue" points="688.614,-161.888 698.614,-158.388 688.614,-154.888 688.614,-161.888"/>
</g>
<!-- Node44 -->
<g id="node9" class="node"><title>Node44</title>
<g id="a_node9"><a xlink:href="../../da/ddd/classefd_1_1NDList.xhtml#a2642c91fda9d33512d1aa1aa7851b6bd" target="_top" xlink:title="efd::NDList::NDList">
<polygon fill="none" stroke="black" points="688.5,-82.8878 688.5,-101.888 792.5,-101.888 792.5,-82.8878 688.5,-82.8878"/>
<text text-anchor="middle" x="740.5" y="-89.8878" font-family="Helvetica,sans-Serif" font-size="10.00">efd::NDList::NDList</text>
</a>
</g>
</g>
<!-- Node42&#45;&gt;Node44 -->
<g id="edge8" class="edge"><title>Node42&#45;&gt;Node44</title>
<path fill="none" stroke="midnightblue" d="M610.884,-148.791C636.52,-137.549 679.18,-118.84 708.284,-106.077"/>
<polygon fill="midnightblue" stroke="midnightblue" points="709.837,-109.218 717.59,-101.996 707.026,-102.807 709.837,-109.218"/>
</g>
<!-- Node45 -->
<g id="node10" class="node"><title>Node45</title>
<g id="a_node10"><a xlink:href="../../d6/d6a/classefd_1_1Node.xhtml#a09ac8cdf7898a3d17293d92ae956eece" target="_top" xlink:title="Constructs the node, initially empty (with no information). ">
<polygon fill="none" stroke="black" points="830,-29.8878 830,-48.8878 919,-48.8878 919,-29.8878 830,-29.8878"/>
<text text-anchor="middle" x="874.5" y="-36.8878" font-family="Helvetica,sans-Serif" font-size="10.00">efd::Node::Node</text>
</a>
</g>
</g>
<!-- Node44&#45;&gt;Node45 -->
<g id="edge9" class="edge"><title>Node44&#45;&gt;Node45</title>
<path fill="none" stroke="midnightblue" d="M765.404,-82.7899C786.337,-74.3852 816.965,-62.0874 840.279,-52.7264"/>
<polygon fill="midnightblue" stroke="midnightblue" points="841.798,-55.8883 849.774,-48.9143 839.19,-49.3924 841.798,-55.8883"/>
</g>
<!-- Node47 -->
<g id="node12" class="node"><title>Node47</title>
<g id="a_node12"><a xlink:href="../../d4/deb/namespaceefd.xhtml#a2cef687225e13315fc282dc40b5a6909" target="_top" xlink:title="Returns src cast to TargetTy, iff it is of class TargetTy, otherwise it will return nullptr...">
<polygon fill="none" stroke="black" points="551.5,-91.8878 551.5,-110.888 624.5,-110.888 624.5,-91.8878 551.5,-91.8878"/>
<text text-anchor="middle" x="588" y="-98.8878" font-family="Helvetica,sans-Serif" font-size="10.00">efd::dynCast</text>
</a>
</g>
</g>
<!-- Node46&#45;&gt;Node47 -->
<g id="edge11" class="edge"><title>Node46&#45;&gt;Node47</title>
<path fill="none" stroke="midnightblue" d="M489.22,-101.388C506.296,-101.388 524.697,-101.388 540.879,-101.388"/>
<polygon fill="midnightblue" stroke="midnightblue" points="541.157,-104.888 551.157,-101.388 541.157,-97.8879 541.157,-104.888"/>
</g>
<!-- Node48&#45;&gt;Node45 -->
<g id="edge15" class="edge"><title>Node48&#45;&gt;Node45</title>
<path fill="none" stroke="midnightblue" d="M468.86,-15.8779C485.93,-12.1129 506.349,-8.24412 525,-6.38777 644.129,5.46949 675.93,-0.594948 794,-20.3878 805.144,-22.2559 817.047,-24.8 828.158,-27.4189"/>
<polygon fill="midnightblue" stroke="midnightblue" points="827.552,-30.8734 838.095,-29.8278 829.201,-24.0704 827.552,-30.8734"/>
</g>
<!-- Node49 -->
<g id="node14" class="node"><title>Node49</title>
<g id="a_node14"><a xlink:href="../../d6/d6a/classefd_1_1Node.xhtml#a8ac8c3206c6f6817a8c8e515ac830f61" target="_top" xlink:title="Adds a child to this node. It should be used only for construction of each derived class...">
<polygon fill="none" stroke="black" points="525,-15.8878 525,-34.8878 651,-34.8878 651,-15.8878 525,-15.8878"/>
<text text-anchor="middle" x="588" y="-22.8878" font-family="Helvetica,sans-Serif" font-size="10.00">efd::Node::innerAddChild</text>
</a>
</g>
</g>
<!-- Node48&#45;&gt;Node49 -->
<g id="edge13" class="edge"><title>Node48&#45;&gt;Node49</title>
<path fill="none" stroke="midnightblue" d="M486.117,-25.3878C495.441,-25.3878 505.235,-25.3878 514.902,-25.3878"/>
<polygon fill="midnightblue" stroke="midnightblue" points="514.907,-28.8879 524.906,-25.3878 514.906,-21.8879 514.907,-28.8879"/>
</g>
<!-- Node49&#45;&gt;Node39 -->
<g id="edge14" class="edge"><title>Node49&#45;&gt;Node39</title>
<path fill="none" stroke="midnightblue" d="M651.083,-31.1629C659.488,-31.9447 668.118,-32.7476 676.538,-33.5308"/>
<polygon fill="midnightblue" stroke="midnightblue" points="676.393,-37.0324 686.674,-34.4737 677.041,-30.0625 676.393,-37.0324"/>
</g>
</g>
</svg>
