<?xml version="1.0" encoding="UTF-8" standalone="no"?>
<!DOCTYPE svg PUBLIC "-//W3C//DTD SVG 1.1//EN"
 "http://www.w3.org/Graphics/SVG/1.1/DTD/svg11.dtd">
<!-- Generated by graphviz version 2.38.0 (20140413.2041)
 -->
<!-- Title: efd::CNOTLBOWrapperPass Pages: 1 -->
<svg width="242pt" height="266pt"
 viewBox="0.00 0.00 242.00 266.00" xmlns="http://www.w3.org/2000/svg" xmlns:xlink="http://www.w3.org/1999/xlink">
<g id="graph0" class="graph" transform="scale(1 1) rotate(0) translate(4 262)">
<title>efd::CNOTLBOWrapperPass</title>
<!-- Node0 -->
<g id="node1" class="node"><title>Node0</title>
<polygon fill="#bfbfbf" stroke="black" points="20.5,-0.5 20.5,-19.5 163.5,-19.5 163.5,-0.5 20.5,-0.5"/>
<text text-anchor="middle" x="92" y="-7.5" font-family="Helvetica,sans-Serif" font-size="10.00">efd::CNOTLBOWrapperPass</text>
</g>
<!-- Node1 -->
<g id="node2" class="node"><title>Node1</title>
<g id="a_node2"><a xlink:href="../../d6/de0/classefd_1_1LayerBasedOrderingWrapperPass.xhtml" target="_top" xlink:title="Interface for ordering the program by a specific layer&#45;based ordering. ">
<polygon fill="none" stroke="black" points="0,-57.5 0,-76.5 184,-76.5 184,-57.5 0,-57.5"/>
<text text-anchor="middle" x="92" y="-64.5" font-family="Helvetica,sans-Serif" font-size="10.00">efd::LayerBasedOrderingWrapperPass</text>
</a>
</g>
</g>
<!-- Node1&#45;&gt;Node0 -->
<g id="edge1" class="edge"><title>Node1&#45;&gt;Node0</title>
<path fill="none" stroke="midnightblue" d="M92,-47.1166C92,-37.8173 92,-27.0557 92,-19.7149"/>
<polygon fill="midnightblue" stroke="midnightblue" points="88.5001,-47.4062 92,-57.4062 95.5001,-47.4063 88.5001,-47.4062"/>
</g>
<!-- Node2 -->
<g id="node3" class="node"><title>Node2</title>
<g id="a_node3"><a xlink:href="../../db/d56/classefd_1_1PassT.xhtml" target="_top" xlink:title="efd::PassT\&lt; LayerBasedOrdering \&gt;">
<polygon fill="none" stroke="black" points="6.5,-114.5 6.5,-133.5 177.5,-133.5 177.5,-114.5 6.5,-114.5"/>
<text text-anchor="middle" x="92" y="-121.5" font-family="Helvetica,sans-Serif" font-size="10.00">efd::PassT&lt; LayerBasedOrdering &gt;</text>
</a>
</g>
</g>
<!-- Node2&#45;&gt;Node1 -->
<g id="edge2" class="edge"><title>Node2&#45;&gt;Node1</title>
<path fill="none" stroke="midnightblue" d="M92,-104.117C92,-94.8173 92,-84.0557 92,-76.7149"/>
<polygon fill="midnightblue" stroke="midnightblue" points="88.5001,-104.406 92,-114.406 95.5001,-104.406 88.5001,-104.406"/>
</g>
<!-- Node3 -->
<g id="node4" class="node"><title>Node3</title>
<g id="a_node4"><a xlink:href="../../d0/d98/classefd_1_1Pass.xhtml" target="_top" xlink:title="Base class for implementation of QModule passes. This information will be used when the QModule&#39;s fun...">
<polygon fill="none" stroke="black" points="70.5,-238.5 70.5,-257.5 129.5,-257.5 129.5,-238.5 70.5,-238.5"/>
<text text-anchor="middle" x="100" y="-245.5" font-family="Helvetica,sans-Serif" font-size="10.00">efd::Pass</text>
</a>
</g>
</g>
<!-- Node3&#45;&gt;Node2 -->
<g id="edge3" class="edge"><title>Node3&#45;&gt;Node2</title>
<path fill="none" stroke="midnightblue" d="M98.2076,-228.072C97.4593,-219.77 96.6214,-209.906 96,-201 94.3078,-176.748 92.9817,-148.096 92.3697,-133.898"/>
<polygon fill="midnightblue" stroke="midnightblue" points="94.7371,-228.554 99.1437,-238.189 101.707,-227.909 94.7371,-228.554"/>
</g>
<!-- Node4 -->
<g id="node5" class="node"><title>Node4</title>
<g id="a_node5"><a xlink:href="../../db/d56/classefd_1_1PassT.xhtml" target="_top" xlink:title="Should serve as base class for classes that produces some data of type T. ">
<polygon fill="none" stroke="black" points="104.5,-181.5 104.5,-200.5 193.5,-200.5 193.5,-181.5 104.5,-181.5"/>
<text text-anchor="middle" x="149" y="-188.5" font-family="Helvetica,sans-Serif" font-size="10.00">efd::PassT&lt; T &gt;</text>
</a>
</g>
</g>
<!-- Node3&#45;&gt;Node4 -->
<g id="edge5" class="edge"><title>Node3&#45;&gt;Node4</title>
<path fill="none" stroke="midnightblue" d="M114.408,-230.828C123.182,-220.979 134.049,-208.782 141.236,-200.715"/>
<polygon fill="midnightblue" stroke="midnightblue" points="111.695,-228.611 107.656,-238.406 116.922,-233.268 111.695,-228.611"/>
</g>
<!-- Node4&#45;&gt;Node2 -->
<g id="edge4" class="edge"><title>Node4&#45;&gt;Node2</title>
<path fill="none" stroke="orange" stroke-dasharray="5,2" d="M134.649,-173.635C123.502,-160.923 108.484,-143.798 99.5655,-133.627"/>
<polygon fill="orange" stroke="orange" points="132.088,-176.023 141.313,-181.234 137.351,-171.408 132.088,-176.023"/>
<text text-anchor="middle" x="179" y="-155" font-family="Helvetica,sans-Serif" font-size="10.00"> &lt; LayerBasedOrdering &gt;</text>
</g>
</g>
</svg>
