<?xml version="1.0" encoding="UTF-8" standalone="no"?>
<!DOCTYPE svg PUBLIC "-//W3C//DTD SVG 1.1//EN"
 "http://www.w3.org/Graphics/SVG/1.1/DTD/svg11.dtd">
<!-- Generated by graphviz version 2.38.0 (20140413.2041)
 -->
<!-- Title: efd::ExpTSFinder::Create Pages: 1 -->
<svg width="479pt" height="39pt"
 viewBox="0.00 0.00 479.00 39.00" xmlns="http://www.w3.org/2000/svg" xmlns:xlink="http://www.w3.org/1999/xlink">
<g id="graph0" class="graph" transform="scale(1 1) rotate(0) translate(4 35)">
<title>efd::ExpTSFinder::Create</title>
<!-- Node2 -->
<g id="node1" class="node"><title>Node2</title>
<polygon fill="#bfbfbf" stroke="black" points="0,-6 0,-25 128,-25 128,-6 0,-6"/>
<text text-anchor="middle" x="64" y="-13" font-family="Helvetica,sans-Serif" font-size="10.00">efd::ExpTSFinder::Create</text>
</g>
<!-- Node3 -->
<g id="node2" class="node"><title>Node3</title>
<g id="a_node2"><a xlink:href="../../d1/d42/classefd_1_1ExpTSFinder.xhtml#a9ac33b40a256ccd1201dbc41b7a14152" target="_top" xlink:title="efd::ExpTSFinder::ExpTSFinder">
<polygon fill="none" stroke="black" points="164,-6 164,-25 320,-25 320,-6 164,-6"/>
<text text-anchor="middle" x="242" y="-13" font-family="Helvetica,sans-Serif" font-size="10.00">efd::ExpTSFinder::ExpTSFinder</text>
</a>
</g>
</g>
<!-- Node2&#45;&gt;Node3 -->
<g id="edge1" class="edge"><title>Node2&#45;&gt;Node3</title>
<path fill="none" stroke="midnightblue" d="M128.043,-15.5C136.408,-15.5 145.102,-15.5 153.785,-15.5"/>
<polygon fill="midnightblue" stroke="midnightblue" points="153.954,-19.0001 163.954,-15.5 153.954,-12.0001 153.954,-19.0001"/>
</g>
<!-- Node4 -->
<g id="node3" class="node"><title>Node4</title>
<g id="a_node3"><a xlink:href="../../d1/dad/classefd_1_1TokenSwapFinder.xhtml#a4e88829212a32134fa42349ad5412f75" target="_top" xlink:title="efd::TokenSwapFinder\l::TokenSwapFinder">
<polygon fill="none" stroke="black" points="356,-0.5 356,-30.5 471,-30.5 471,-0.5 356,-0.5"/>
<text text-anchor="start" x="364" y="-18.5" font-family="Helvetica,sans-Serif" font-size="10.00">efd::TokenSwapFinder</text>
<text text-anchor="middle" x="413.5" y="-7.5" font-family="Helvetica,sans-Serif" font-size="10.00">::TokenSwapFinder</text>
</a>
</g>
</g>
<!-- Node3&#45;&gt;Node4 -->
<g id="edge2" class="edge"><title>Node3&#45;&gt;Node4</title>
<path fill="none" stroke="midnightblue" d="M320.31,-15.5C328.659,-15.5 337.105,-15.5 345.321,-15.5"/>
<polygon fill="midnightblue" stroke="midnightblue" points="345.58,-19.0001 355.58,-15.5 345.58,-12.0001 345.58,-19.0001"/>
</g>
</g>
</svg>
