<?xml version="1.0" encoding="UTF-8" standalone="no"?>
<!DOCTYPE svg PUBLIC "-//W3C//DTD SVG 1.1//EN"
 "http://www.w3.org/Graphics/SVG/1.1/DTD/svg11.dtd">
<!-- Generated by graphviz version 2.40.1 (20161225.0304)
 -->
<!-- Title: include/enfield/Transform/Allocators/IBMQAllocator.h Pages: 1 -->
<svg width="1476pt" height="542pt"
 viewBox="0.00 0.00 1476.00 542.00" xmlns="http://www.w3.org/2000/svg" xmlns:xlink="http://www.w3.org/1999/xlink">
<g id="graph0" class="graph" transform="scale(1 1) rotate(0) translate(4 538)">
<title>include/enfield/Transform/Allocators/IBMQAllocator.h</title>
<!-- Node0 -->
<g id="node1" class="node">
<title>Node0</title>
<polygon fill="#bfbfbf" stroke="#000000" points="829.5,-503.5 829.5,-533.5 978.5,-533.5 978.5,-503.5 829.5,-503.5"/>
<text text-anchor="start" x="837.5" y="-521.5" font-family="Helvetica,sans-Serif" font-size="10.00" fill="#000000">include/enfield/Transform</text>
<text text-anchor="middle" x="904" y="-510.5" font-family="Helvetica,sans-Serif" font-size="10.00" fill="#000000">/Allocators/IBMQAllocator.h</text>
</g>
<!-- Node1 -->
<g id="node2" class="node">
<title>Node1</title>
<g id="a_node2"><a xlink:href="../../d2/dc7/StdSolutionQAllocator_8h.xhtml" target="_top" xlink:title="enfield/Transform/Allocators\l/StdSolutionQAllocator.h">
<polygon fill="none" stroke="#000000" points="545.5,-436.5 545.5,-466.5 700.5,-466.5 700.5,-436.5 545.5,-436.5"/>
<text text-anchor="start" x="553.5" y="-454.5" font-family="Helvetica,sans-Serif" font-size="10.00" fill="#000000">enfield/Transform/Allocators</text>
<text text-anchor="middle" x="623" y="-443.5" font-family="Helvetica,sans-Serif" font-size="10.00" fill="#000000">/StdSolutionQAllocator.h</text>
</a>
</g>
</g>
<!-- Node0&#45;&gt;Node1 -->
<g id="edge1" class="edge">
<title>Node0&#45;&gt;Node1</title>
<path fill="none" stroke="#191970" d="M840.9381,-503.4639C798.064,-493.2412 741.1992,-479.6827 696.3061,-468.9787"/>
<polygon fill="#191970" stroke="#191970" points="696.876,-465.5165 686.3369,-466.6017 695.2525,-472.3257 696.876,-465.5165"/>
</g>
<!-- Node23 -->
<g id="node24" class="node">
<title>Node23</title>
<g id="a_node24"><a xlink:href="../../d1/d73/Defs_8h.xhtml" target="_top" xlink:title="enfield/Support/Defs.h">
<polygon fill="none" stroke="#000000" points="1280.5,-112.5 1280.5,-131.5 1405.5,-131.5 1405.5,-112.5 1280.5,-112.5"/>
<text text-anchor="middle" x="1343" y="-119.5" font-family="Helvetica,sans-Serif" font-size="10.00" fill="#000000">enfield/Support/Defs.h</text>
</a>
</g>
</g>
<!-- Node0&#45;&gt;Node23 -->
<g id="edge59" class="edge">
<title>Node0&#45;&gt;Node23</title>
<path fill="none" stroke="#191970" d="M978.6101,-509.7421C1097.3372,-493.7017 1316,-454.6388 1316,-384.5 1316,-384.5 1316,-384.5 1316,-250.5 1316,-210.9834 1328.38,-166.0638 1336.374,-141.1774"/>
<polygon fill="#191970" stroke="#191970" points="1339.7485,-142.1212 1339.5804,-131.5277 1333.1056,-139.9138 1339.7485,-142.1212"/>
</g>
<!-- Node30 -->
<g id="node31" class="node">
<title>Node30</title>
<g id="a_node31"><a xlink:href="../../dc/d33/LayersBuilderPass_8h.xhtml" target="_top" xlink:title="enfield/Transform/Layers\lBuilderPass.h">
<polygon fill="none" stroke="#000000" points="434.5,-168.5 434.5,-198.5 573.5,-198.5 573.5,-168.5 434.5,-168.5"/>
<text text-anchor="start" x="442.5" y="-186.5" font-family="Helvetica,sans-Serif" font-size="10.00" fill="#000000">enfield/Transform/Layers</text>
<text text-anchor="middle" x="504" y="-175.5" font-family="Helvetica,sans-Serif" font-size="10.00" fill="#000000">BuilderPass.h</text>
</a>
</g>
</g>
<!-- Node0&#45;&gt;Node30 -->
<g id="edge54" class="edge">
<title>Node0&#45;&gt;Node30</title>
<path fill="none" stroke="#191970" d="M904,-503.2271C904,-478.3518 904,-427.5382 904,-384.5 904,-384.5 904,-384.5 904,-317.5 904,-250.6064 700.323,-210.9485 583.6475,-193.7185"/>
<polygon fill="#191970" stroke="#191970" points="584.0742,-190.2438 573.6747,-192.269 583.0673,-197.171 584.0742,-190.2438"/>
</g>
<!-- Node2 -->
<g id="node3" class="node">
<title>Node2</title>
<g id="a_node3"><a xlink:href="../../dd/d3b/QbitAllocator_8h.xhtml" target="_top" xlink:title="enfield/Transform/Allocators\l/QbitAllocator.h">
<polygon fill="none" stroke="#000000" points="325.5,-369.5 325.5,-399.5 480.5,-399.5 480.5,-369.5 325.5,-369.5"/>
<text text-anchor="start" x="333.5" y="-387.5" font-family="Helvetica,sans-Serif" font-size="10.00" fill="#000000">enfield/Transform/Allocators</text>
<text text-anchor="middle" x="403" y="-376.5" font-family="Helvetica,sans-Serif" font-size="10.00" fill="#000000">/QbitAllocator.h</text>
</a>
</g>
</g>
<!-- Node1&#45;&gt;Node2 -->
<g id="edge2" class="edge">
<title>Node1&#45;&gt;Node2</title>
<path fill="none" stroke="#191970" d="M573.6277,-436.4639C540.625,-426.4131 497.0337,-413.1375 462.1727,-402.5208"/>
<polygon fill="#191970" stroke="#191970" points="463.1735,-399.1669 452.5876,-399.6017 461.1342,-405.8633 463.1735,-399.1669"/>
</g>
<!-- Node3 -->
<g id="node4" class="node">
<title>Node3</title>
<g id="a_node4"><a xlink:href="../../d7/d9d/ArchGraph_8h.xhtml" target="_top" xlink:title="enfield/Arch/ArchGraph.h">
<polygon fill="none" stroke="#000000" points="53,-241 53,-260 191,-260 191,-241 53,-241"/>
<text text-anchor="middle" x="122" y="-248" font-family="Helvetica,sans-Serif" font-size="10.00" fill="#000000">enfield/Arch/ArchGraph.h</text>
</a>
</g>
</g>
<!-- Node2&#45;&gt;Node3 -->
<g id="edge3" class="edge">
<title>Node2&#45;&gt;Node3</title>
<path fill="none" stroke="#191970" d="M371.312,-369.389C316.4523,-343.2281 204.5644,-289.8724 151.3639,-264.5027"/>
<polygon fill="#191970" stroke="#191970" points="152.6728,-261.2494 142.1401,-260.1042 149.6598,-267.5677 152.6728,-261.2494"/>
</g>
<!-- Node15 -->
<g id="node16" class="node">
<title>Node15</title>
<g id="a_node16"><a xlink:href="../../d9/dcf/DependencyBuilderPass_8h.xhtml" target="_top" xlink:title="enfield/Transform/Dependency\lBuilderPass.h">
<polygon fill="none" stroke="#000000" points="319.5,-302.5 319.5,-332.5 486.5,-332.5 486.5,-302.5 319.5,-302.5"/>
<text text-anchor="start" x="327.5" y="-320.5" font-family="Helvetica,sans-Serif" font-size="10.00" fill="#000000">enfield/Transform/Dependency</text>
<text text-anchor="middle" x="403" y="-309.5" font-family="Helvetica,sans-Serif" font-size="10.00" fill="#000000">BuilderPass.h</text>
</a>
</g>
</g>
<!-- Node2&#45;&gt;Node15 -->
<g id="edge17" class="edge">
<title>Node2&#45;&gt;Node15</title>
<path fill="none" stroke="#191970" d="M403,-369.2967C403,-361.5013 403,-351.7991 403,-342.9064"/>
<polygon fill="#191970" stroke="#191970" points="406.5001,-342.6431 403,-332.6432 399.5001,-342.6432 406.5001,-342.6431"/>
</g>
<!-- Node20 -->
<g id="node21" class="node">
<title>Node20</title>
<g id="a_node21"><a xlink:href="../../d9/d41/CommandLine_8h.xhtml" target="_top" xlink:title="enfield/Support/CommandLine.h">
<polygon fill="none" stroke="#000000" points="932.5,-308 932.5,-327 1105.5,-327 1105.5,-308 932.5,-308"/>
<text text-anchor="middle" x="1019" y="-315" font-family="Helvetica,sans-Serif" font-size="10.00" fill="#000000">enfield/Support/CommandLine.h</text>
</a>
</g>
</g>
<!-- Node2&#45;&gt;Node20 -->
<g id="edge37" class="edge">
<title>Node2&#45;&gt;Node20</title>
<path fill="none" stroke="#191970" d="M480.7047,-376.0484C592.9368,-363.8413 800.2889,-341.2884 922.2811,-328.0197"/>
<polygon fill="#191970" stroke="#191970" points="922.8004,-331.484 932.3633,-326.9232 922.0434,-324.525 922.8004,-331.484"/>
</g>
<!-- Node29 -->
<g id="node30" class="node">
<title>Node29</title>
<g id="a_node30"><a xlink:href="../../dc/d09/Stats_8h.xhtml" target="_top" xlink:title="enfield/Support/Stats.h">
<polygon fill="none" stroke="#000000" points="0,-112.5 0,-131.5 128,-131.5 128,-112.5 0,-112.5"/>
<text text-anchor="middle" x="64" y="-119.5" font-family="Helvetica,sans-Serif" font-size="10.00" fill="#000000">enfield/Support/Stats.h</text>
</a>
</g>
</g>
<!-- Node2&#45;&gt;Node29 -->
<g id="edge51" class="edge">
<title>Node2&#45;&gt;Node29</title>
<path fill="none" stroke="#191970" d="M325.2486,-370.7227C227.2585,-351.5817 67.4238,-313.836 33,-266 5.4889,-227.77 33.6096,-170.0133 51.5533,-140.6152"/>
<polygon fill="#191970" stroke="#191970" points="54.7445,-142.1191 57.1533,-131.8018 48.8362,-138.365 54.7445,-142.1191"/>
</g>
<!-- Node4 -->
<g id="node5" class="node">
<title>Node4</title>
<g id="a_node5"><a xlink:href="../../d7/d16/Graph_8h.xhtml" target="_top" xlink:title="enfield/Support/Graph.h">
<polygon fill="none" stroke="#000000" points="668,-174 668,-193 800,-193 800,-174 668,-174"/>
<text text-anchor="middle" x="734" y="-181" font-family="Helvetica,sans-Serif" font-size="10.00" fill="#000000">enfield/Support/Graph.h</text>
</a>
</g>
</g>
<!-- Node3&#45;&gt;Node4 -->
<g id="edge4" class="edge">
<title>Node3&#45;&gt;Node4</title>
<path fill="none" stroke="#191970" d="M191.0145,-242.9445C306.2883,-230.3247 537.1726,-205.0481 657.3431,-191.8922"/>
<polygon fill="#191970" stroke="#191970" points="658.0031,-195.3409 667.5627,-190.7734 657.2412,-188.3825 658.0031,-195.3409"/>
</g>
<!-- Node9 -->
<g id="node10" class="node">
<title>Node9</title>
<g id="a_node10"><a xlink:href="../../d4/daf/Nodes_8h.xhtml" target="_top" xlink:title="enfield/Analysis/Nodes.h">
<polygon fill="none" stroke="#000000" points="187.5,-112.5 187.5,-131.5 324.5,-131.5 324.5,-112.5 187.5,-112.5"/>
<text text-anchor="middle" x="256" y="-119.5" font-family="Helvetica,sans-Serif" font-size="10.00" fill="#000000">enfield/Analysis/Nodes.h</text>
</a>
</g>
</g>
<!-- Node3&#45;&gt;Node9 -->
<g id="edge9" class="edge">
<title>Node3&#45;&gt;Node9</title>
<path fill="none" stroke="#191970" d="M110.2856,-240.9579C91.9839,-224.9004 60.523,-191.8927 79,-168 91.4971,-151.84 136.1542,-140.3031 177.4819,-132.8248"/>
<polygon fill="#191970" stroke="#191970" points="178.0898,-136.2717 187.339,-131.1042 176.8861,-129.376 178.0898,-136.2717"/>
</g>
<!-- Node5 -->
<g id="node6" class="node">
<title>Node5</title>
<polygon fill="none" stroke="#bfbfbf" points="802,-112.5 802,-131.5 834,-131.5 834,-112.5 802,-112.5"/>
<text text-anchor="middle" x="818" y="-119.5" font-family="Helvetica,sans-Serif" font-size="10.00" fill="#000000">set</text>
</g>
<!-- Node4&#45;&gt;Node5 -->
<g id="edge5" class="edge">
<title>Node4&#45;&gt;Node5</title>
<path fill="none" stroke="#191970" d="M747.125,-173.8906C760.44,-164.1421 781.2594,-148.8994 796.8947,-137.4521"/>
<polygon fill="#191970" stroke="#191970" points="798.9661,-140.2734 804.9672,-131.5419 794.8309,-134.6253 798.9661,-140.2734"/>
</g>
<!-- Node6 -->
<g id="node7" class="node">
<title>Node6</title>
<polygon fill="none" stroke="#bfbfbf" points="956.5,-56.5 956.5,-75.5 1003.5,-75.5 1003.5,-56.5 956.5,-56.5"/>
<text text-anchor="middle" x="980" y="-63.5" font-family="Helvetica,sans-Serif" font-size="10.00" fill="#000000">vector</text>
</g>
<!-- Node4&#45;&gt;Node6 -->
<g id="edge6" class="edge">
<title>Node4&#45;&gt;Node6</title>
<path fill="none" stroke="#191970" d="M739.1364,-173.9583C747.9936,-158.4546 767.6547,-127.9272 793,-112 840.7119,-82.0175 906.6574,-71.5754 946.1452,-67.94"/>
<polygon fill="#191970" stroke="#191970" points="946.6265,-71.4123 956.3048,-67.1019 946.0509,-64.436 946.6265,-71.4123"/>
</g>
<!-- Node7 -->
<g id="node8" class="node">
<title>Node7</title>
<polygon fill="none" stroke="#bfbfbf" points="555.5,-112.5 555.5,-131.5 648.5,-131.5 648.5,-112.5 555.5,-112.5"/>
<text text-anchor="middle" x="602" y="-119.5" font-family="Helvetica,sans-Serif" font-size="10.00" fill="#000000">unordered_map</text>
</g>
<!-- Node4&#45;&gt;Node7 -->
<g id="edge7" class="edge">
<title>Node4&#45;&gt;Node7</title>
<path fill="none" stroke="#191970" d="M713.375,-173.8906C691.4827,-163.6908 656.6807,-147.4763 631.8073,-135.8875"/>
<polygon fill="#191970" stroke="#191970" points="633.0228,-132.5926 622.4802,-131.5419 630.0665,-138.9377 633.0228,-132.5926"/>
</g>
<!-- Node8 -->
<g id="node9" class="node">
<title>Node8</title>
<polygon fill="none" stroke="#bfbfbf" points="535,-56.5 535,-75.5 593,-75.5 593,-56.5 535,-56.5"/>
<text text-anchor="middle" x="564" y="-63.5" font-family="Helvetica,sans-Serif" font-size="10.00" fill="#000000">memory</text>
</g>
<!-- Node4&#45;&gt;Node8 -->
<g id="edge8" class="edge">
<title>Node4&#45;&gt;Node8</title>
<path fill="none" stroke="#191970" d="M725.4181,-173.7316C712.0907,-158.9797 685.1185,-130.7525 658,-112 639.2934,-99.0643 616.4054,-87.7805 597.8981,-79.6261"/>
<polygon fill="#191970" stroke="#191970" points="599.2339,-76.3906 588.6646,-75.6549 596.4682,-82.8211 599.2339,-76.3906"/>
</g>
<!-- Node9&#45;&gt;Node6 -->
<g id="edge15" class="edge">
<title>Node9&#45;&gt;Node6</title>
<path fill="none" stroke="#191970" d="M324.8795,-112.9552C327.9601,-112.6182 331.0112,-112.2978 334,-112 567.7762,-88.7098 850.2901,-72.7941 946.2446,-67.7303"/>
<polygon fill="#191970" stroke="#191970" points="946.6908,-71.2118 956.494,-67.1934 946.3245,-64.2214 946.6908,-71.2118"/>
</g>
<!-- Node9&#45;&gt;Node8 -->
<g id="edge16" class="edge">
<title>Node9&#45;&gt;Node8</title>
<path fill="none" stroke="#191970" d="M321.7827,-112.4602C374.2899,-104.4641 449.9142,-92.0989 524.5576,-76.1769"/>
<polygon fill="#191970" stroke="#191970" points="525.5659,-79.54 534.6036,-74.0109 524.0905,-72.6973 525.5659,-79.54"/>
</g>
<!-- Node10 -->
<g id="node11" class="node">
<title>Node10</title>
<g id="a_node11"><a xlink:href="../../d1/d2e/WrapperVal_8h.xhtml" target="_top" xlink:title="enfield/Support/WrapperVal.h">
<polygon fill="none" stroke="#000000" points="357,-56.5 357,-75.5 517,-75.5 517,-56.5 357,-56.5"/>
<text text-anchor="middle" x="437" y="-63.5" font-family="Helvetica,sans-Serif" font-size="10.00" fill="#000000">enfield/Support/WrapperVal.h</text>
</a>
</g>
</g>
<!-- Node9&#45;&gt;Node10 -->
<g id="edge10" class="edge">
<title>Node9&#45;&gt;Node10</title>
<path fill="none" stroke="#191970" d="M287.115,-112.3733C317.3429,-103.021 363.396,-88.7725 396.4739,-78.5385"/>
<polygon fill="#191970" stroke="#191970" points="397.7723,-81.8005 406.291,-75.5011 395.7033,-75.1133 397.7723,-81.8005"/>
</g>
<!-- Node12 -->
<g id="node13" class="node">
<title>Node12</title>
<g id="a_node13"><a xlink:href="../../d5/dfc/RTTI_8h.xhtml" target="_top" xlink:title="enfield/Support/RTTI.h">
<polygon fill="none" stroke="#000000" points="112.5,-56.5 112.5,-75.5 237.5,-75.5 237.5,-56.5 112.5,-56.5"/>
<text text-anchor="middle" x="175" y="-63.5" font-family="Helvetica,sans-Serif" font-size="10.00" fill="#000000">enfield/Support/RTTI.h</text>
</a>
</g>
</g>
<!-- Node9&#45;&gt;Node12 -->
<g id="edge12" class="edge">
<title>Node9&#45;&gt;Node12</title>
<path fill="none" stroke="#191970" d="M241.8909,-112.2455C229.5791,-103.7337 211.5042,-91.2375 197.2462,-81.3801"/>
<polygon fill="#191970" stroke="#191970" points="199.1634,-78.4506 188.9474,-75.6427 195.1826,-84.2085 199.1634,-78.4506"/>
</g>
<!-- Node13 -->
<g id="node14" class="node">
<title>Node13</title>
<polygon fill="none" stroke="#bfbfbf" points="255.5,-56.5 255.5,-75.5 338.5,-75.5 338.5,-56.5 255.5,-56.5"/>
<text text-anchor="middle" x="297" y="-63.5" font-family="Helvetica,sans-Serif" font-size="10.00" fill="#000000">initializer_list</text>
</g>
<!-- Node9&#45;&gt;Node13 -->
<g id="edge13" class="edge">
<title>Node9&#45;&gt;Node13</title>
<path fill="none" stroke="#191970" d="M263.1417,-112.2455C268.8444,-104.4564 276.99,-93.3308 283.8625,-83.9439"/>
<polygon fill="#191970" stroke="#191970" points="286.8568,-85.7789 289.9402,-75.6427 281.2087,-81.6437 286.8568,-85.7789"/>
</g>
<!-- Node14 -->
<g id="node15" class="node">
<title>Node14</title>
<polygon fill="none" stroke="#bfbfbf" points="34,-56.5 34,-75.5 94,-75.5 94,-56.5 34,-56.5"/>
<text text-anchor="middle" x="64" y="-63.5" font-family="Helvetica,sans-Serif" font-size="10.00" fill="#000000">iostream</text>
</g>
<!-- Node9&#45;&gt;Node14 -->
<g id="edge14" class="edge">
<title>Node9&#45;&gt;Node14</title>
<path fill="none" stroke="#191970" d="M222.994,-112.3733C190.0102,-102.753 139.2635,-87.9519 104.0071,-77.6687"/>
<polygon fill="#191970" stroke="#191970" points="104.6311,-74.205 94.0511,-74.7649 102.6711,-80.925 104.6311,-74.205"/>
</g>
<!-- Node11 -->
<g id="node12" class="node">
<title>Node11</title>
<polygon fill="none" stroke="#bfbfbf" points="820,-.5 820,-19.5 864,-19.5 864,-.5 820,-.5"/>
<text text-anchor="middle" x="842" y="-7.5" font-family="Helvetica,sans-Serif" font-size="10.00" fill="#000000">string</text>
</g>
<!-- Node10&#45;&gt;Node11 -->
<g id="edge11" class="edge">
<title>Node10&#45;&gt;Node11</title>
<path fill="none" stroke="#191970" d="M506.1618,-56.4369C594.5477,-44.2156 743.942,-23.5586 809.5069,-14.4929"/>
<polygon fill="#191970" stroke="#191970" points="810.2262,-17.9268 819.6525,-13.09 809.2673,-10.9928 810.2262,-17.9268"/>
</g>
<!-- Node15&#45;&gt;Node5 -->
<g id="edge36" class="edge">
<title>Node15&#45;&gt;Node5</title>
<path fill="none" stroke="#191970" d="M486.5033,-306.2804C598.3915,-289.3391 787.7244,-253.3243 829,-199 841.5836,-182.4382 835.0423,-157.9305 827.8347,-141.0345"/>
<polygon fill="#191970" stroke="#191970" points="830.8419,-139.2037 823.4259,-131.6371 824.5047,-142.1769 830.8419,-139.2037"/>
</g>
<!-- Node15&#45;&gt;Node6 -->
<g id="edge35" class="edge">
<title>Node15&#45;&gt;Node6</title>
<path fill="none" stroke="#191970" d="M486.5179,-312.941C556.7327,-307.2199 658.9668,-294.4283 744,-266 803.4093,-246.1383 816.5031,-234.6654 868,-199 905.2932,-173.1718 916.7884,-167.5244 945,-132 956.441,-117.5934 965.9486,-98.8895 972.153,-85.0731"/>
<polygon fill="#191970" stroke="#191970" points="975.4866,-86.1812 976.2309,-75.6125 969.0584,-83.4103 975.4866,-86.1812"/>
</g>
<!-- Node15&#45;&gt;Node7 -->
<g id="edge33" class="edge">
<title>Node15&#45;&gt;Node7</title>
<path fill="none" stroke="#191970" d="M456.6997,-302.4991C504.8709,-285.8712 572.6525,-253.8706 604,-199 613.9171,-181.6411 611.5692,-158.297 607.8994,-141.8782"/>
<polygon fill="#191970" stroke="#191970" points="611.1784,-140.5789 605.2821,-131.7764 604.4022,-142.3346 611.1784,-140.5789"/>
</g>
<!-- Node15&#45;&gt;Node9 -->
<g id="edge18" class="edge">
<title>Node15&#45;&gt;Node9</title>
<path fill="none" stroke="#191970" d="M319.4477,-311.2225C219.0587,-302.8154 61.8107,-286.5481 44,-266 22.7088,-241.4365 58.0344,-177.7627 69,-168 85.7147,-153.1188 136.0876,-141.222 180.3444,-133.2578"/>
<polygon fill="#191970" stroke="#191970" points="181.0184,-136.6931 190.2638,-131.5186 179.8095,-129.7982 181.0184,-136.6931"/>
</g>
<!-- Node16 -->
<g id="node17" class="node">
<title>Node16</title>
<g id="a_node17"><a xlink:href="../../df/d29/Pass_8h.xhtml" target="_top" xlink:title="enfield/Transform/Pass.h">
<polygon fill="none" stroke="#000000" points="343,-112.5 343,-131.5 481,-131.5 481,-112.5 343,-112.5"/>
<text text-anchor="middle" x="412" y="-119.5" font-family="Helvetica,sans-Serif" font-size="10.00" fill="#000000">enfield/Transform/Pass.h</text>
</a>
</g>
</g>
<!-- Node15&#45;&gt;Node16 -->
<g id="edge19" class="edge">
<title>Node15&#45;&gt;Node16</title>
<path fill="none" stroke="#191970" d="M414.4026,-302.1784C420.9619,-292.3846 428.5648,-279.1017 432,-266 435.4944,-252.6727 433.2052,-248.725 432,-235 431.5945,-230.3822 421.2049,-172.7376 415.5646,-141.6204"/>
<polygon fill="#191970" stroke="#191970" points="418.9581,-140.7181 413.7288,-131.5037 412.0706,-141.968 418.9581,-140.7181"/>
</g>
<!-- Node17 -->
<g id="node18" class="node">
<title>Node17</title>
<g id="a_node18"><a xlink:href="../../d4/d73/QModule_8h.xhtml" target="_top" xlink:title="enfield/Transform/QModule.h">
<polygon fill="none" stroke="#000000" points="182,-174 182,-193 340,-193 340,-174 182,-174"/>
<text text-anchor="middle" x="261" y="-181" font-family="Helvetica,sans-Serif" font-size="10.00" fill="#000000">enfield/Transform/QModule.h</text>
</a>
</g>
</g>
<!-- Node15&#45;&gt;Node17 -->
<g id="edge21" class="edge">
<title>Node15&#45;&gt;Node17</title>
<path fill="none" stroke="#191970" d="M331.4138,-302.4551C310.7589,-294.782 290.0348,-283.26 276,-266 261.6251,-248.3217 259.2205,-221.4218 259.5226,-203.1844"/>
<polygon fill="#191970" stroke="#191970" points="263.0228,-203.2561 259.9776,-193.1083 256.0299,-202.9402 263.0228,-203.2561"/>
</g>
<!-- Node18 -->
<g id="node19" class="node">
<title>Node18</title>
<g id="a_node19"><a xlink:href="../../d6/d94/XbitToNumberPass_8h.xhtml" target="_top" xlink:title="enfield/Transform/XbitTo\lNumberPass.h">
<polygon fill="none" stroke="#000000" points="285,-235.5 285,-265.5 423,-265.5 423,-235.5 285,-235.5"/>
<text text-anchor="start" x="293" y="-253.5" font-family="Helvetica,sans-Serif" font-size="10.00" fill="#000000">enfield/Transform/XbitTo</text>
<text text-anchor="middle" x="354" y="-242.5" font-family="Helvetica,sans-Serif" font-size="10.00" fill="#000000">NumberPass.h</text>
</a>
</g>
</g>
<!-- Node15&#45;&gt;Node18 -->
<g id="edge25" class="edge">
<title>Node15&#45;&gt;Node18</title>
<path fill="none" stroke="#191970" d="M391.8811,-302.2967C385.7415,-293.9016 377.9846,-283.2952 371.0914,-273.8698"/>
<polygon fill="#191970" stroke="#191970" points="373.8032,-271.6488 365.0749,-265.6432 368.153,-275.781 373.8032,-271.6488"/>
</g>
<!-- Node19 -->
<g id="node20" class="node">
<title>Node19</title>
<polygon fill="none" stroke="#bfbfbf" points="88,-174 88,-193 126,-193 126,-174 88,-174"/>
<text text-anchor="middle" x="107" y="-181" font-family="Helvetica,sans-Serif" font-size="10.00" fill="#000000">map</text>
</g>
<!-- Node15&#45;&gt;Node19 -->
<g id="edge34" class="edge">
<title>Node15&#45;&gt;Node19</title>
<path fill="none" stroke="#191970" d="M354.5752,-302.442C326.0299,-293.0397 289.4571,-280.0727 258,-266 251.6597,-263.1636 174.8121,-220.8929 133.2665,-197.9916"/>
<polygon fill="#191970" stroke="#191970" points="134.6975,-194.7839 124.2505,-193.0203 131.3175,-200.9139 134.6975,-194.7839"/>
</g>
<!-- Node16&#45;&gt;Node8 -->
<g id="edge20" class="edge">
<title>Node16&#45;&gt;Node8</title>
<path fill="none" stroke="#191970" d="M438.1297,-112.3733C463.0768,-103.1822 500.8592,-89.2624 528.5206,-79.0713"/>
<polygon fill="#191970" stroke="#191970" points="530.0378,-82.2424 538.2112,-75.5011 527.6178,-75.674 530.0378,-82.2424"/>
</g>
<!-- Node17&#45;&gt;Node7 -->
<g id="edge24" class="edge">
<title>Node17&#45;&gt;Node7</title>
<path fill="none" stroke="#191970" d="M313.9071,-173.9581C376.6787,-162.6371 480.9115,-143.8385 545.2998,-132.226"/>
<polygon fill="#191970" stroke="#191970" points="546.0592,-135.6456 555.2792,-130.4262 544.8167,-128.7567 546.0592,-135.6456"/>
</g>
<!-- Node17&#45;&gt;Node9 -->
<g id="edge22" class="edge">
<title>Node17&#45;&gt;Node9</title>
<path fill="none" stroke="#191970" d="M260.2188,-173.8906C259.5257,-165.3657 258.491,-152.6392 257.6198,-141.9235"/>
<polygon fill="#191970" stroke="#191970" points="261.0912,-141.4283 256.7923,-131.7449 254.1142,-141.9956 261.0912,-141.4283"/>
</g>
<!-- Node17&#45;&gt;Node16 -->
<g id="edge23" class="edge">
<title>Node17&#45;&gt;Node16</title>
<path fill="none" stroke="#191970" d="M284.5938,-173.8906C309.9696,-163.5554 350.5081,-147.0447 379.0293,-135.4284"/>
<polygon fill="#191970" stroke="#191970" points="380.6308,-138.5554 388.5719,-131.5419 377.9904,-132.0725 380.6308,-138.5554"/>
</g>
<!-- Node18&#45;&gt;Node5 -->
<g id="edge31" class="edge">
<title>Node18&#45;&gt;Node5</title>
<path fill="none" stroke="#191970" d="M423.3239,-247.3348C543.948,-241.1517 782.2149,-225.6876 809,-199 823.7037,-184.3498 823.9581,-159.4069 821.836,-141.8889"/>
<polygon fill="#191970" stroke="#191970" points="825.2345,-140.9685 820.2264,-131.6321 818.3192,-142.0538 825.2345,-140.9685"/>
</g>
<!-- Node18&#45;&gt;Node6 -->
<g id="edge30" class="edge">
<title>Node18&#45;&gt;Node6</title>
<path fill="none" stroke="#191970" d="M423.4528,-248.1087C537.289,-243.3381 758.028,-230.2738 829,-199 888.9703,-172.5741 942.1333,-113.4593 966.2629,-83.7537"/>
<polygon fill="#191970" stroke="#191970" points="969.3053,-85.5515 972.7946,-75.5477 963.8285,-81.192 969.3053,-85.5515"/>
</g>
<!-- Node18&#45;&gt;Node7 -->
<g id="edge29" class="edge">
<title>Node18&#45;&gt;Node7</title>
<path fill="none" stroke="#191970" d="M423.131,-242.9826C482.0131,-235.1791 560.5479,-220.9919 583,-199 598.1697,-184.1413 601.9576,-159.2411 602.5718,-141.79"/>
<polygon fill="#191970" stroke="#191970" points="606.0723,-141.5896 602.6048,-131.5783 599.0724,-141.5669 606.0723,-141.5896"/>
</g>
<!-- Node18&#45;&gt;Node9 -->
<g id="edge28" class="edge">
<title>Node18&#45;&gt;Node9</title>
<path fill="none" stroke="#191970" d="M284.6785,-239.6021C239.622,-230.9416 186.782,-217.2504 173,-199 164.6971,-188.0051 166.0068,-179.8711 173,-168 181.7946,-153.071 197.3717,-142.6447 212.6742,-135.541"/>
<polygon fill="#191970" stroke="#191970" points="214.2671,-138.6672 222.1035,-131.5368 211.531,-132.224 214.2671,-138.6672"/>
</g>
<!-- Node18&#45;&gt;Node16 -->
<g id="edge26" class="edge">
<title>Node18&#45;&gt;Node16</title>
<path fill="none" stroke="#191970" d="M360.8811,-235.2548C371.4832,-211.7656 391.796,-166.7623 403.3684,-141.1235"/>
<polygon fill="#191970" stroke="#191970" points="406.6817,-142.2903 407.6056,-131.7358 400.3015,-139.4105 406.6817,-142.2903"/>
</g>
<!-- Node18&#45;&gt;Node17 -->
<g id="edge27" class="edge">
<title>Node18&#45;&gt;Node17</title>
<path fill="none" stroke="#191970" d="M332.8969,-235.2967C317.8443,-224.4524 297.67,-209.9182 282.5233,-199.006"/>
<polygon fill="#191970" stroke="#191970" points="284.4225,-196.0606 274.2629,-193.055 280.3307,-201.7402 284.4225,-196.0606"/>
</g>
<!-- Node18&#45;&gt;Node19 -->
<g id="edge32" class="edge">
<title>Node18&#45;&gt;Node19</title>
<path fill="none" stroke="#191970" d="M284.5449,-237.516C242.1634,-228.6797 187.2333,-215.5827 140,-199 138.3576,-198.4234 136.6873,-197.7918 135.014,-197.1237"/>
<polygon fill="#191970" stroke="#191970" points="136.1382,-193.7963 125.5714,-193.0265 133.3518,-200.2178 136.1382,-193.7963"/>
</g>
<!-- Node20&#45;&gt;Node6 -->
<g id="edge49" class="edge">
<title>Node20&#45;&gt;Node6</title>
<path fill="none" stroke="#191970" d="M1018.4344,-307.9813C1016.5598,-278.5555 1009.7528,-186.5468 994,-112 992.1279,-103.1409 989.3289,-93.5309 986.7245,-85.3967"/>
<polygon fill="#191970" stroke="#191970" points="989.989,-84.1219 983.5073,-75.741 983.3479,-86.3347 989.989,-84.1219"/>
</g>
<!-- Node20&#45;&gt;Node8 -->
<g id="edge50" class="edge">
<title>Node20&#45;&gt;Node8</title>
<path fill="none" stroke="#191970" d="M1013.9269,-307.6637C995.9226,-273.8596 931.4024,-161.796 843,-112 802.6026,-89.2446 669.9193,-75.0255 603.1344,-69.1345"/>
<polygon fill="#191970" stroke="#191970" points="603.2698,-65.6333 593.0059,-68.2605 602.668,-72.6074 603.2698,-65.6333"/>
</g>
<!-- Node20&#45;&gt;Node11 -->
<g id="edge48" class="edge">
<title>Node20&#45;&gt;Node11</title>
<path fill="none" stroke="#191970" d="M1086.0807,-307.9923C1154.9135,-294.0065 1252,-260.6122 1252,-183.5 1252,-183.5 1252,-183.5 1252,-122 1252,-43.7653 970.691,-18.2925 874.1026,-11.8521"/>
<polygon fill="#191970" stroke="#191970" points="874.2471,-8.3543 864.0434,-11.2063 873.7986,-15.3399 874.2471,-8.3543"/>
</g>
<!-- Node21 -->
<g id="node22" class="node">
<title>Node21</title>
<g id="a_node22"><a xlink:href="../../d1/d5e/PossibleValuesListTrait_8h.xhtml" target="_top" xlink:title="enfield/Support/Possible\lValuesListTrait.h">
<polygon fill="none" stroke="#000000" points="1053,-235.5 1053,-265.5 1187,-265.5 1187,-235.5 1053,-235.5"/>
<text text-anchor="start" x="1061" y="-253.5" font-family="Helvetica,sans-Serif" font-size="10.00" fill="#000000">enfield/Support/Possible</text>
<text text-anchor="middle" x="1120" y="-242.5" font-family="Helvetica,sans-Serif" font-size="10.00" fill="#000000">ValuesListTrait.h</text>
</a>
</g>
</g>
<!-- Node20&#45;&gt;Node21 -->
<g id="edge38" class="edge">
<title>Node20&#45;&gt;Node21</title>
<path fill="none" stroke="#191970" d="M1033.4708,-307.9005C1047.8799,-298.3421 1070.4544,-283.3669 1088.9328,-271.1089"/>
<polygon fill="#191970" stroke="#191970" points="1090.9569,-273.9664 1097.3553,-265.5218 1087.0873,-268.1331 1090.9569,-273.9664"/>
</g>
<!-- Node22 -->
<g id="node23" class="node">
<title>Node22</title>
<g id="a_node23"><a xlink:href="../../dd/d62/EnumString_8h.xhtml" target="_top" xlink:title="enfield/Support/EnumString.h">
<polygon fill="none" stroke="#000000" points="1046.5,-174 1046.5,-193 1205.5,-193 1205.5,-174 1046.5,-174"/>
<text text-anchor="middle" x="1126" y="-181" font-family="Helvetica,sans-Serif" font-size="10.00" fill="#000000">enfield/Support/EnumString.h</text>
</a>
</g>
</g>
<!-- Node21&#45;&gt;Node22 -->
<g id="edge39" class="edge">
<title>Node21&#45;&gt;Node22</title>
<path fill="none" stroke="#191970" d="M1121.3615,-235.2967C1122.2146,-225.7699 1123.3228,-213.3954 1124.242,-203.1306"/>
<polygon fill="#191970" stroke="#191970" points="1127.7383,-203.3273 1125.1443,-193.055 1120.7662,-202.7029 1127.7383,-203.3273"/>
</g>
<!-- Node22&#45;&gt;Node6 -->
<g id="edge45" class="edge">
<title>Node22&#45;&gt;Node6</title>
<path fill="none" stroke="#191970" d="M1114.0522,-173.8845C1089.0273,-153.7446 1030.8763,-106.945 1000.0368,-82.1255"/>
<polygon fill="#191970" stroke="#191970" points="1002.0977,-79.2915 992.1129,-75.7484 997.7089,-84.7448 1002.0977,-79.2915"/>
</g>
<!-- Node22&#45;&gt;Node23 -->
<g id="edge40" class="edge">
<title>Node22&#45;&gt;Node23</title>
<path fill="none" stroke="#191970" d="M1159.9063,-173.8906C1197.5679,-163.2169 1258.4702,-145.9566 1299.5885,-134.3033"/>
<polygon fill="#191970" stroke="#191970" points="1300.6651,-137.6361 1309.3318,-131.5419 1298.7564,-130.9013 1300.6651,-137.6361"/>
</g>
<!-- Node27 -->
<g id="node28" class="node">
<title>Node27</title>
<polygon fill="none" stroke="#bfbfbf" points="1084,-112.5 1084,-131.5 1148,-131.5 1148,-112.5 1084,-112.5"/>
<text text-anchor="middle" x="1116" y="-119.5" font-family="Helvetica,sans-Serif" font-size="10.00" fill="#000000">algorithm</text>
</g>
<!-- Node22&#45;&gt;Node27 -->
<g id="edge46" class="edge">
<title>Node22&#45;&gt;Node27</title>
<path fill="none" stroke="#191970" d="M1124.4375,-173.8906C1123.0513,-165.3657 1120.982,-152.6392 1119.2396,-141.9235"/>
<polygon fill="#191970" stroke="#191970" points="1122.6442,-141.0535 1117.5845,-131.7449 1115.7349,-142.177 1122.6442,-141.0535"/>
</g>
<!-- Node28 -->
<g id="node29" class="node">
<title>Node28</title>
<polygon fill="none" stroke="#bfbfbf" points="1166.5,-112.5 1166.5,-131.5 1223.5,-131.5 1223.5,-112.5 1166.5,-112.5"/>
<text text-anchor="middle" x="1195" y="-119.5" font-family="Helvetica,sans-Serif" font-size="10.00" fill="#000000">typeinfo</text>
</g>
<!-- Node22&#45;&gt;Node28 -->
<g id="edge47" class="edge">
<title>Node22&#45;&gt;Node28</title>
<path fill="none" stroke="#191970" d="M1136.7813,-173.8906C1147.3526,-164.4683 1163.6825,-149.9134 1176.3603,-138.6137"/>
<polygon fill="#191970" stroke="#191970" points="1178.9304,-141.0114 1184.0667,-131.7449 1174.2728,-135.7858 1178.9304,-141.0114"/>
</g>
<!-- Node23&#45;&gt;Node6 -->
<g id="edge41" class="edge">
<title>Node23&#45;&gt;Node6</title>
<path fill="none" stroke="#191970" d="M1281.0105,-112.4369C1203.8364,-100.5312 1074.7687,-80.62 1013.8245,-71.2181"/>
<polygon fill="#191970" stroke="#191970" points="1014.0265,-67.7079 1003.6097,-69.6423 1012.9591,-74.6261 1014.0265,-67.7079"/>
</g>
<!-- Node24 -->
<g id="node25" class="node">
<title>Node24</title>
<polygon fill="none" stroke="#bfbfbf" points="1356,-56.5 1356,-75.5 1406,-75.5 1406,-56.5 1356,-56.5"/>
<text text-anchor="middle" x="1381" y="-63.5" font-family="Helvetica,sans-Serif" font-size="10.00" fill="#000000">cstdint</text>
</g>
<!-- Node23&#45;&gt;Node24 -->
<g id="edge42" class="edge">
<title>Node23&#45;&gt;Node24</title>
<path fill="none" stroke="#191970" d="M1349.6191,-112.2455C1354.9046,-104.4564 1362.4541,-93.3308 1368.8238,-83.9439"/>
<polygon fill="#191970" stroke="#191970" points="1371.7379,-85.8827 1374.4568,-75.6427 1365.9455,-81.9522 1371.7379,-85.8827"/>
</g>
<!-- Node25 -->
<g id="node26" class="node">
<title>Node25</title>
<polygon fill="none" stroke="#bfbfbf" points="1424,-56.5 1424,-75.5 1468,-75.5 1468,-56.5 1424,-56.5"/>
<text text-anchor="middle" x="1446" y="-63.5" font-family="Helvetica,sans-Serif" font-size="10.00" fill="#000000">limits</text>
</g>
<!-- Node23&#45;&gt;Node25 -->
<g id="edge43" class="edge">
<title>Node23&#45;&gt;Node25</title>
<path fill="none" stroke="#191970" d="M1360.9412,-112.2455C1377.04,-103.4928 1400.8879,-90.527 1419.2391,-80.5496"/>
<polygon fill="#191970" stroke="#191970" points="1421.1507,-83.4942 1428.2644,-75.6427 1417.8071,-77.3444 1421.1507,-83.4942"/>
</g>
<!-- Node26 -->
<g id="node27" class="node">
<title>Node26</title>
<polygon fill="none" stroke="#bfbfbf" points="1280.5,-56.5 1280.5,-75.5 1337.5,-75.5 1337.5,-56.5 1280.5,-56.5"/>
<text text-anchor="middle" x="1309" y="-63.5" font-family="Helvetica,sans-Serif" font-size="10.00" fill="#000000">ostream</text>
</g>
<!-- Node23&#45;&gt;Node26 -->
<g id="edge44" class="edge">
<title>Node23&#45;&gt;Node26</title>
<path fill="none" stroke="#191970" d="M1337.0777,-112.2455C1332.3973,-104.5367 1325.7327,-93.5598 1320.0711,-84.2348"/>
<polygon fill="#191970" stroke="#191970" points="1323.0361,-82.3741 1314.8545,-75.6427 1317.0525,-86.007 1323.0361,-82.3741"/>
</g>
<!-- Node29&#45;&gt;Node8 -->
<g id="edge53" class="edge">
<title>Node29&#45;&gt;Node8</title>
<path fill="none" stroke="#191970" d="M128.1284,-116.1831C238.9341,-106.0532 459.8919,-85.4805 524.468,-75.8763"/>
<polygon fill="#191970" stroke="#191970" points="525.3384,-79.2807 534.6441,-74.2156 524.2109,-72.3721 525.3384,-79.2807"/>
</g>
<!-- Node29&#45;&gt;Node14 -->
<g id="edge52" class="edge">
<title>Node29&#45;&gt;Node14</title>
<path fill="none" stroke="#191970" d="M64,-112.2455C64,-104.9382 64,-94.6944 64,-85.7046"/>
<polygon fill="#191970" stroke="#191970" points="67.5001,-85.6426 64,-75.6427 60.5001,-85.6427 67.5001,-85.6426"/>
</g>
<!-- Node30&#45;&gt;Node5 -->
<g id="edge57" class="edge">
<title>Node30&#45;&gt;Node5</title>
<path fill="none" stroke="#191970" d="M573.6868,-169.8512C642.5789,-156.3579 744.3594,-136.4232 791.8341,-127.1248"/>
<polygon fill="#191970" stroke="#191970" points="792.7577,-130.5105 801.8985,-125.1536 791.4122,-123.6411 792.7577,-130.5105"/>
</g>
<!-- Node30&#45;&gt;Node7 -->
<g id="edge58" class="edge">
<title>Node30&#45;&gt;Node7</title>
<path fill="none" stroke="#191970" d="M527.9735,-168.4554C543.1776,-158.9141 562.7759,-146.6151 577.9875,-137.0691"/>
<polygon fill="#191970" stroke="#191970" points="580.2037,-139.8105 586.8135,-131.5303 576.4828,-133.8813 580.2037,-139.8105"/>
</g>
<!-- Node30&#45;&gt;Node9 -->
<g id="edge56" class="edge">
<title>Node30&#45;&gt;Node9</title>
<path fill="none" stroke="#191970" d="M443.3324,-168.4554C400.501,-157.8339 343.8891,-143.7951 304.1517,-133.9408"/>
<polygon fill="#191970" stroke="#191970" points="304.9797,-130.5402 294.4312,-131.5303 303.2948,-137.3344 304.9797,-130.5402"/>
</g>
<!-- Node30&#45;&gt;Node16 -->
<g id="edge55" class="edge">
<title>Node30&#45;&gt;Node16</title>
<path fill="none" stroke="#191970" d="M481.2584,-168.2977C467.2033,-158.9022 449.217,-146.8787 435.0964,-137.4395"/>
<polygon fill="#191970" stroke="#191970" points="436.7143,-134.311 426.4556,-131.6633 432.8241,-140.1305 436.7143,-134.311"/>
</g>
</g>
</svg>
