<?xml version="1.0" encoding="UTF-8" standalone="no"?>
<!DOCTYPE svg PUBLIC "-//W3C//DTD SVG 1.1//EN"
 "http://www.w3.org/Graphics/SVG/1.1/DTD/svg11.dtd">
<!-- Generated by graphviz version 2.38.0 (20140413.2041)
 -->
<!-- Title: include/enfield/Transform/Allocators/IBMQAllocator.h Pages: 1 -->
<svg width="1477pt" height="475pt"
 viewBox="0.00 0.00 1476.85 475.00" xmlns="http://www.w3.org/2000/svg" xmlns:xlink="http://www.w3.org/1999/xlink">
<g id="graph0" class="graph" transform="scale(1 1) rotate(0) translate(4 471)">
<title>include/enfield/Transform/Allocators/IBMQAllocator.h</title>
<!-- Node0 -->
<g id="node1" class="node"><title>Node0</title>
<polygon fill="#bfbfbf" stroke="black" points="958.766,-436.5 958.766,-466.5 1096.77,-466.5 1096.77,-436.5 958.766,-436.5"/>
<text text-anchor="start" x="966.766" y="-454.5" font-family="Helvetica,sans-Serif" font-size="10.00">include/enfield/Transform</text>
<text text-anchor="middle" x="1027.77" y="-443.5" font-family="Helvetica,sans-Serif" font-size="10.00">/Allocators/IBMQAllocator.h</text>
</g>
<!-- Node1 -->
<g id="node2" class="node"><title>Node1</title>
<g id="a_node2"><a xlink:href="../../dd/d3b/QbitAllocator_8h.xhtml" target="_top" xlink:title="enfield/Transform/Allocators\l/QbitAllocator.h">
<polygon fill="none" stroke="black" points="958.266,-369.5 958.266,-399.5 1097.27,-399.5 1097.27,-369.5 958.266,-369.5"/>
<text text-anchor="start" x="966.266" y="-387.5" font-family="Helvetica,sans-Serif" font-size="10.00">enfield/Transform/Allocators</text>
<text text-anchor="middle" x="1027.77" y="-376.5" font-family="Helvetica,sans-Serif" font-size="10.00">/QbitAllocator.h</text>
</a>
</g>
</g>
<!-- Node0&#45;&gt;Node1 -->
<g id="edge1" class="edge"><title>Node0&#45;&gt;Node1</title>
<path fill="none" stroke="midnightblue" d="M1027.77,-436.396C1027.77,-428.645 1027.77,-418.812 1027.77,-409.86"/>
<polygon fill="midnightblue" stroke="midnightblue" points="1031.27,-409.576 1027.77,-399.577 1024.27,-409.577 1031.27,-409.576"/>
</g>
<!-- Node22 -->
<g id="node23" class="node"><title>Node22</title>
<g id="a_node23"><a xlink:href="../../d1/d73/Defs_8h.xhtml" target="_top" xlink:title="enfield/Support/Defs.h">
<polygon fill="none" stroke="black" points="31.7664,-112.5 31.7664,-131.5 145.766,-131.5 145.766,-112.5 31.7664,-112.5"/>
<text text-anchor="middle" x="88.7664" y="-119.5" font-family="Helvetica,sans-Serif" font-size="10.00">enfield/Support/Defs.h</text>
</a>
</g>
</g>
<!-- Node0&#45;&gt;Node22 -->
<g id="edge60" class="edge"><title>Node0&#45;&gt;Node22</title>
<path fill="none" stroke="midnightblue" d="M958.433,-448.52C733.998,-441.199 41.7664,-411.115 41.7664,-318.5 41.7664,-318.5 41.7664,-318.5 41.7664,-249.5 41.7664,-208.317 63.926,-164.048 77.8137,-140.348"/>
<polygon fill="midnightblue" stroke="midnightblue" points="80.8134,-142.151 83.0033,-131.785 74.827,-138.523 80.8134,-142.151"/>
</g>
<!-- Node30 -->
<g id="node31" class="node"><title>Node30</title>
<g id="a_node31"><a xlink:href="../../dc/d33/LayersBuilderPass_8h.xhtml" target="_top" xlink:title="enfield/Transform/Layers\lBuilderPass.h">
<polygon fill="none" stroke="black" points="945.266,-168.5 945.266,-198.5 1070.27,-198.5 1070.27,-168.5 945.266,-168.5"/>
<text text-anchor="start" x="953.266" y="-186.5" font-family="Helvetica,sans-Serif" font-size="10.00">enfield/Transform/Layers</text>
<text text-anchor="middle" x="1007.77" y="-175.5" font-family="Helvetica,sans-Serif" font-size="10.00">BuilderPass.h</text>
</a>
</g>
</g>
<!-- Node0&#45;&gt;Node30 -->
<g id="edge55" class="edge"><title>Node0&#45;&gt;Node30</title>
<path fill="none" stroke="midnightblue" d="M1096.94,-441.108C1241.78,-418.819 1554.9,-355.365 1445.77,-235 1419.75,-206.306 1151.17,-205.149 1080.6,-198.82"/>
<polygon fill="midnightblue" stroke="midnightblue" points="1080.75,-195.315 1070.42,-197.663 1079.96,-202.27 1080.75,-195.315"/>
</g>
<!-- Node2 -->
<g id="node3" class="node"><title>Node2</title>
<g id="a_node3"><a xlink:href="../../d7/d9d/ArchGraph_8h.xhtml" target="_top" xlink:title="enfield/Arch/ArchGraph.h">
<polygon fill="none" stroke="black" points="1310.77,-241 1310.77,-260 1436.77,-260 1436.77,-241 1310.77,-241"/>
<text text-anchor="middle" x="1373.77" y="-248" font-family="Helvetica,sans-Serif" font-size="10.00">enfield/Arch/ArchGraph.h</text>
</a>
</g>
</g>
<!-- Node1&#45;&gt;Node2 -->
<g id="edge2" class="edge"><title>Node1&#45;&gt;Node2</title>
<path fill="none" stroke="midnightblue" d="M1064.47,-369.499C1132.48,-343.55 1277.05,-288.398 1341.54,-263.794"/>
<polygon fill="midnightblue" stroke="midnightblue" points="1343.08,-266.952 1351.18,-260.117 1340.59,-260.412 1343.08,-266.952"/>
</g>
<!-- Node14 -->
<g id="node15" class="node"><title>Node14</title>
<g id="a_node15"><a xlink:href="../../d9/dcf/DependencyBuilderPass_8h.xhtml" target="_top" xlink:title="enfield/Transform/Dependency\lBuilderPass.h">
<polygon fill="none" stroke="black" points="803.766,-302.5 803.766,-332.5 953.766,-332.5 953.766,-302.5 803.766,-302.5"/>
<text text-anchor="start" x="811.766" y="-320.5" font-family="Helvetica,sans-Serif" font-size="10.00">enfield/Transform/Dependency</text>
<text text-anchor="middle" x="878.766" y="-309.5" font-family="Helvetica,sans-Serif" font-size="10.00">BuilderPass.h</text>
</a>
</g>
</g>
<!-- Node1&#45;&gt;Node14 -->
<g id="edge16" class="edge"><title>Node1&#45;&gt;Node14</title>
<path fill="none" stroke="midnightblue" d="M995.436,-369.396C973.47,-359.814 944.211,-347.05 920.49,-336.702"/>
<polygon fill="midnightblue" stroke="midnightblue" points="921.599,-333.367 911.034,-332.577 918.8,-339.783 921.599,-333.367"/>
</g>
<!-- Node19 -->
<g id="node20" class="node"><title>Node19</title>
<g id="a_node20"><a xlink:href="../../d9/d41/CommandLine_8h.xhtml" target="_top" xlink:title="enfield/Support/CommandLine.h">
<polygon fill="none" stroke="black" points="275.766,-308 275.766,-327 431.766,-327 431.766,-308 275.766,-308"/>
<text text-anchor="middle" x="353.766" y="-315" font-family="Helvetica,sans-Serif" font-size="10.00">enfield/Support/CommandLine.h</text>
</a>
</g>
</g>
<!-- Node1&#45;&gt;Node19 -->
<g id="edge36" class="edge"><title>Node1&#45;&gt;Node19</title>
<path fill="none" stroke="midnightblue" d="M958.175,-376.789C834.841,-364.894 578.141,-340.138 442.374,-327.045"/>
<polygon fill="midnightblue" stroke="midnightblue" points="442.303,-323.522 432.013,-326.046 441.631,-330.49 442.303,-323.522"/>
</g>
<!-- Node29 -->
<g id="node30" class="node"><title>Node29</title>
<g id="a_node30"><a xlink:href="../../dc/d09/Stats_8h.xhtml" target="_top" xlink:title="enfield/Support/Stats.h">
<polygon fill="none" stroke="black" points="1292.77,-112.5 1292.77,-131.5 1408.77,-131.5 1408.77,-112.5 1292.77,-112.5"/>
<text text-anchor="middle" x="1350.77" y="-119.5" font-family="Helvetica,sans-Serif" font-size="10.00">enfield/Support/Stats.h</text>
</a>
</g>
</g>
<!-- Node1&#45;&gt;Node29 -->
<g id="edge52" class="edge"><title>Node1&#45;&gt;Node29</title>
<path fill="none" stroke="midnightblue" d="M1097.6,-374.134C1205.32,-358.089 1404,-321.601 1445.77,-266 1479.91,-220.552 1410.46,-163.457 1372.81,-137.291"/>
<polygon fill="midnightblue" stroke="midnightblue" points="1374.68,-134.331 1364.44,-131.616 1370.76,-140.125 1374.68,-134.331"/>
</g>
<!-- Node3 -->
<g id="node4" class="node"><title>Node3</title>
<g id="a_node4"><a xlink:href="../../d7/d16/Graph_8h.xhtml" target="_top" xlink:title="enfield/Support/Graph.h">
<polygon fill="none" stroke="black" points="693.266,-174 693.266,-193 812.266,-193 812.266,-174 693.266,-174"/>
<text text-anchor="middle" x="752.766" y="-181" font-family="Helvetica,sans-Serif" font-size="10.00">enfield/Support/Graph.h</text>
</a>
</g>
</g>
<!-- Node2&#45;&gt;Node3 -->
<g id="edge3" class="edge"><title>Node2&#45;&gt;Node3</title>
<path fill="none" stroke="midnightblue" d="M1310.52,-242.88C1193.55,-230.637 944.305,-204.548 822.579,-191.807"/>
<polygon fill="midnightblue" stroke="midnightblue" points="822.931,-188.325 812.621,-190.765 822.202,-195.287 822.931,-188.325"/>
</g>
<!-- Node8 -->
<g id="node9" class="node"><title>Node8</title>
<g id="a_node9"><a xlink:href="../../d4/daf/Nodes_8h.xhtml" target="_top" xlink:title="enfield/Analysis/Nodes.h">
<polygon fill="none" stroke="black" points="1097.27,-112.5 1097.27,-131.5 1222.27,-131.5 1222.27,-112.5 1097.27,-112.5"/>
<text text-anchor="middle" x="1159.77" y="-119.5" font-family="Helvetica,sans-Serif" font-size="10.00">enfield/Analysis/Nodes.h</text>
</a>
</g>
</g>
<!-- Node2&#45;&gt;Node8 -->
<g id="edge8" class="edge"><title>Node2&#45;&gt;Node8</title>
<path fill="none" stroke="midnightblue" d="M1373.88,-240.938C1373.61,-224.337 1370.54,-187.682 1349.77,-168 1332.75,-151.871 1278.63,-140.033 1232.49,-132.558"/>
<polygon fill="midnightblue" stroke="midnightblue" points="1232.9,-129.079 1222.47,-130.983 1231.81,-135.994 1232.9,-129.079"/>
</g>
<!-- Node4 -->
<g id="node5" class="node"><title>Node4</title>
<polygon fill="none" stroke="#bfbfbf" points="664.766,-112.5 664.766,-131.5 694.766,-131.5 694.766,-112.5 664.766,-112.5"/>
<text text-anchor="middle" x="679.766" y="-119.5" font-family="Helvetica,sans-Serif" font-size="10.00">set</text>
</g>
<!-- Node3&#45;&gt;Node4 -->
<g id="edge4" class="edge"><title>Node3&#45;&gt;Node4</title>
<path fill="none" stroke="midnightblue" d="M742.307,-173.975C730.815,-164.608 712.137,-149.384 698.18,-138.008"/>
<polygon fill="midnightblue" stroke="midnightblue" points="700.169,-135.114 690.206,-131.509 695.746,-140.54 700.169,-135.114"/>
</g>
<!-- Node5 -->
<g id="node6" class="node"><title>Node5</title>
<polygon fill="none" stroke="#bfbfbf" points="439.766,-56.5 439.766,-75.5 483.766,-75.5 483.766,-56.5 439.766,-56.5"/>
<text text-anchor="middle" x="461.766" y="-63.5" font-family="Helvetica,sans-Serif" font-size="10.00">vector</text>
</g>
<!-- Node3&#45;&gt;Node5 -->
<g id="edge5" class="edge"><title>Node3&#45;&gt;Node5</title>
<path fill="none" stroke="midnightblue" d="M749.418,-173.923C743.023,-158.759 727.554,-127.369 703.766,-112 669.469,-89.8402 551.518,-75.6881 493.923,-69.9371"/>
<polygon fill="midnightblue" stroke="midnightblue" points="494.197,-66.4473 483.905,-68.9609 493.518,-73.4143 494.197,-66.4473"/>
</g>
<!-- Node6 -->
<g id="node7" class="node"><title>Node6</title>
<polygon fill="none" stroke="#bfbfbf" points="837.266,-112.5 837.266,-131.5 920.266,-131.5 920.266,-112.5 837.266,-112.5"/>
<text text-anchor="middle" x="878.766" y="-119.5" font-family="Helvetica,sans-Serif" font-size="10.00">unordered_map</text>
</g>
<!-- Node3&#45;&gt;Node6 -->
<g id="edge6" class="edge"><title>Node3&#45;&gt;Node6</title>
<path fill="none" stroke="midnightblue" d="M770.819,-173.975C791.965,-163.99 827.207,-147.348 851.645,-135.807"/>
<polygon fill="midnightblue" stroke="midnightblue" points="853.199,-138.944 860.747,-131.509 850.21,-132.614 853.199,-138.944"/>
</g>
<!-- Node7 -->
<g id="node8" class="node"><title>Node7</title>
<polygon fill="none" stroke="#bfbfbf" points="865.766,-56.5 865.766,-75.5 917.766,-75.5 917.766,-56.5 865.766,-56.5"/>
<text text-anchor="middle" x="891.766" y="-63.5" font-family="Helvetica,sans-Serif" font-size="10.00">memory</text>
</g>
<!-- Node3&#45;&gt;Node7 -->
<g id="edge7" class="edge"><title>Node3&#45;&gt;Node7</title>
<path fill="none" stroke="midnightblue" d="M761.178,-173.835C774.682,-160.103 802.274,-132.769 827.766,-112 841.239,-101.023 857.232,-89.7782 869.859,-81.2748"/>
<polygon fill="midnightblue" stroke="midnightblue" points="871.987,-84.063 878.376,-75.6107 868.111,-78.2344 871.987,-84.063"/>
</g>
<!-- Node8&#45;&gt;Node5 -->
<g id="edge14" class="edge"><title>Node8&#45;&gt;Node5</title>
<path fill="none" stroke="midnightblue" d="M1096.9,-113.692C1091.11,-113.09 1085.33,-112.516 1079.77,-112 855.917,-91.2667 585.716,-74.3967 494.003,-68.8986"/>
<polygon fill="midnightblue" stroke="midnightblue" points="494.154,-65.4014 483.963,-68.2994 493.737,-72.389 494.154,-65.4014"/>
</g>
<!-- Node8&#45;&gt;Node7 -->
<g id="edge15" class="edge"><title>Node8&#45;&gt;Node7</title>
<path fill="none" stroke="midnightblue" d="M1110.94,-112.465C1065.89,-104.388 996.916,-91.5165 928.227,-76.2272"/>
<polygon fill="midnightblue" stroke="midnightblue" points="928.622,-72.7288 918.098,-73.9542 927.089,-79.5589 928.622,-72.7288"/>
</g>
<!-- Node9 -->
<g id="node10" class="node"><title>Node9</title>
<g id="a_node10"><a xlink:href="../../d1/d2e/WrapperVal_8h.xhtml" target="_top" xlink:title="enfield/Support/WrapperVal.h">
<polygon fill="none" stroke="black" points="1161.77,-56.5 1161.77,-75.5 1305.77,-75.5 1305.77,-56.5 1161.77,-56.5"/>
<text text-anchor="middle" x="1233.77" y="-63.5" font-family="Helvetica,sans-Serif" font-size="10.00">enfield/Support/WrapperVal.h</text>
</a>
</g>
</g>
<!-- Node8&#45;&gt;Node9 -->
<g id="edge9" class="edge"><title>Node8&#45;&gt;Node9</title>
<path fill="none" stroke="midnightblue" d="M1171.66,-112.324C1182.92,-104.107 1200.05,-91.6017 1213.48,-81.8069"/>
<polygon fill="midnightblue" stroke="midnightblue" points="1215.65,-84.5559 1221.66,-75.8339 1211.52,-78.9014 1215.65,-84.5559"/>
</g>
<!-- Node11 -->
<g id="node12" class="node"><title>Node11</title>
<g id="a_node12"><a xlink:href="../../d5/dfc/RTTI_8h.xhtml" target="_top" xlink:title="enfield/Support/RTTI.h">
<polygon fill="none" stroke="black" points="935.766,-56.5 935.766,-75.5 1051.77,-75.5 1051.77,-56.5 935.766,-56.5"/>
<text text-anchor="middle" x="993.766" y="-63.5" font-family="Helvetica,sans-Serif" font-size="10.00">enfield/Support/RTTI.h</text>
</a>
</g>
</g>
<!-- Node8&#45;&gt;Node11 -->
<g id="edge11" class="edge"><title>Node8&#45;&gt;Node11</title>
<path fill="none" stroke="midnightblue" d="M1133.46,-112.444C1105.42,-103.32 1060.82,-88.8133 1029.58,-78.6509"/>
<polygon fill="midnightblue" stroke="midnightblue" points="1030.54,-75.2816 1019.95,-75.5164 1028.37,-81.9383 1030.54,-75.2816"/>
</g>
<!-- Node12 -->
<g id="node13" class="node"><title>Node12</title>
<polygon fill="none" stroke="#bfbfbf" points="1070.27,-56.5 1070.27,-75.5 1143.27,-75.5 1143.27,-56.5 1070.27,-56.5"/>
<text text-anchor="middle" x="1106.77" y="-63.5" font-family="Helvetica,sans-Serif" font-size="10.00">initializer_list</text>
</g>
<!-- Node8&#45;&gt;Node12 -->
<g id="edge12" class="edge"><title>Node8&#45;&gt;Node12</title>
<path fill="none" stroke="midnightblue" d="M1151.01,-112.083C1143.3,-104.22 1131.86,-92.5688 1122.55,-83.0813"/>
<polygon fill="midnightblue" stroke="midnightblue" points="1124.86,-80.4363 1115.36,-75.7511 1119.86,-85.3396 1124.86,-80.4363"/>
</g>
<!-- Node13 -->
<g id="node14" class="node"><title>Node13</title>
<polygon fill="none" stroke="#bfbfbf" points="1323.77,-56.5 1323.77,-75.5 1377.77,-75.5 1377.77,-56.5 1323.77,-56.5"/>
<text text-anchor="middle" x="1350.77" y="-63.5" font-family="Helvetica,sans-Serif" font-size="10.00">iostream</text>
</g>
<!-- Node8&#45;&gt;Node13 -->
<g id="edge13" class="edge"><title>Node8&#45;&gt;Node13</title>
<path fill="none" stroke="midnightblue" d="M1190.03,-112.444C1223.68,-102.929 1278.04,-87.5622 1314.08,-77.3713"/>
<polygon fill="midnightblue" stroke="midnightblue" points="1315.06,-80.732 1323.73,-74.6433 1313.16,-73.996 1315.06,-80.732"/>
</g>
<!-- Node10 -->
<g id="node11" class="node"><title>Node10</title>
<polygon fill="none" stroke="#bfbfbf" points="596.266,-0.5 596.266,-19.5 637.266,-19.5 637.266,-0.5 596.266,-0.5"/>
<text text-anchor="middle" x="616.766" y="-7.5" font-family="Helvetica,sans-Serif" font-size="10.00">string</text>
</g>
<!-- Node9&#45;&gt;Node10 -->
<g id="edge10" class="edge"><title>Node9&#45;&gt;Node10</title>
<path fill="none" stroke="midnightblue" d="M1161.34,-56.9498C1158.11,-56.6221 1154.9,-56.3039 1151.77,-56 960.205,-37.4341 729.616,-19.543 647.575,-13.316"/>
<polygon fill="midnightblue" stroke="midnightblue" points="647.675,-9.81364 637.439,-12.5488 647.147,-16.7937 647.675,-9.81364"/>
</g>
<!-- Node14&#45;&gt;Node4 -->
<g id="edge35" class="edge"><title>Node14&#45;&gt;Node4</title>
<path fill="none" stroke="midnightblue" d="M803.677,-315.618C723.304,-309.964 600.99,-286.519 553.766,-199 547.224,-186.875 545.83,-179.262 553.766,-168 576.528,-135.701 624.675,-126.457 654.42,-123.89"/>
<polygon fill="midnightblue" stroke="midnightblue" points="654.722,-127.378 664.465,-123.216 654.253,-120.394 654.722,-127.378"/>
</g>
<!-- Node14&#45;&gt;Node5 -->
<g id="edge34" class="edge"><title>Node14&#45;&gt;Node5</title>
<path fill="none" stroke="midnightblue" d="M803.669,-311.245C726.454,-304.577 612.588,-290.837 576.766,-266 511.424,-220.695 478.128,-125.35 466.58,-85.314"/>
<polygon fill="midnightblue" stroke="midnightblue" points="469.926,-84.2837 463.89,-75.5762 463.179,-86.1471 469.926,-84.2837"/>
</g>
<!-- Node14&#45;&gt;Node6 -->
<g id="edge32" class="edge"><title>Node14&#45;&gt;Node6</title>
<path fill="none" stroke="midnightblue" d="M878.766,-302.271C878.766,-267.944 878.766,-180.566 878.766,-141.9"/>
<polygon fill="midnightblue" stroke="midnightblue" points="882.266,-141.577 878.766,-131.577 875.266,-141.577 882.266,-141.577"/>
</g>
<!-- Node14&#45;&gt;Node8 -->
<g id="edge17" class="edge"><title>Node14&#45;&gt;Node8</title>
<path fill="none" stroke="midnightblue" d="M953.979,-310.655C1035.27,-303.297 1158.7,-288.79 1199.77,-266 1244.02,-241.44 1285.09,-210.606 1257.77,-168 1247.49,-151.976 1229.92,-141.582 1212.47,-134.874"/>
<polygon fill="midnightblue" stroke="midnightblue" points="1213.43,-131.502 1202.83,-131.514 1211.12,-138.111 1213.43,-131.502"/>
</g>
<!-- Node15 -->
<g id="node16" class="node"><title>Node15</title>
<g id="a_node16"><a xlink:href="../../df/d29/Pass_8h.xhtml" target="_top" xlink:title="enfield/Transform/Pass.h">
<polygon fill="none" stroke="black" points="944.766,-112.5 944.766,-131.5 1070.77,-131.5 1070.77,-112.5 944.766,-112.5"/>
<text text-anchor="middle" x="1007.77" y="-119.5" font-family="Helvetica,sans-Serif" font-size="10.00">enfield/Transform/Pass.h</text>
</a>
</g>
</g>
<!-- Node14&#45;&gt;Node15 -->
<g id="edge18" class="edge"><title>Node14&#45;&gt;Node15</title>
<path fill="none" stroke="midnightblue" d="M953.967,-316.176C1039.16,-311.269 1174.61,-288.731 1239.77,-199 1247.86,-187.851 1248.53,-178.63 1239.77,-168 1229.55,-155.606 1144.99,-141.534 1080.89,-132.476"/>
<polygon fill="midnightblue" stroke="midnightblue" points="1081.18,-128.982 1070.79,-131.066 1080.21,-135.915 1081.18,-128.982"/>
</g>
<!-- Node16 -->
<g id="node17" class="node"><title>Node16</title>
<g id="a_node17"><a xlink:href="../../d4/d73/QModule_8h.xhtml" target="_top" xlink:title="enfield/Transform/QModule.h">
<polygon fill="none" stroke="black" points="1088.27,-174 1088.27,-193 1231.27,-193 1231.27,-174 1088.27,-174"/>
<text text-anchor="middle" x="1159.77" y="-181" font-family="Helvetica,sans-Serif" font-size="10.00">enfield/Transform/QModule.h</text>
</a>
</g>
</g>
<!-- Node14&#45;&gt;Node16 -->
<g id="edge20" class="edge"><title>Node14&#45;&gt;Node16</title>
<path fill="none" stroke="midnightblue" d="M908.572,-302.499C963.356,-276.764 1079.29,-222.304 1132.29,-197.408"/>
<polygon fill="midnightblue" stroke="midnightblue" points="1133.86,-200.537 1141.42,-193.117 1130.88,-194.201 1133.86,-200.537"/>
</g>
<!-- Node17 -->
<g id="node18" class="node"><title>Node17</title>
<g id="a_node18"><a xlink:href="../../d6/d94/XbitToNumberPass_8h.xhtml" target="_top" xlink:title="enfield/Transform/XbitTo\lNumberPass.h">
<polygon fill="none" stroke="black" points="726.766,-235.5 726.766,-265.5 850.766,-265.5 850.766,-235.5 726.766,-235.5"/>
<text text-anchor="start" x="734.766" y="-253.5" font-family="Helvetica,sans-Serif" font-size="10.00">enfield/Transform/XbitTo</text>
<text text-anchor="middle" x="788.766" y="-242.5" font-family="Helvetica,sans-Serif" font-size="10.00">NumberPass.h</text>
</a>
</g>
</g>
<!-- Node14&#45;&gt;Node17 -->
<g id="edge24" class="edge"><title>Node14&#45;&gt;Node17</title>
<path fill="none" stroke="midnightblue" d="M859.238,-302.396C846.736,-293.367 830.324,-281.514 816.484,-271.518"/>
<polygon fill="midnightblue" stroke="midnightblue" points="818.413,-268.594 808.257,-265.577 814.315,-274.269 818.413,-268.594"/>
</g>
<!-- Node18 -->
<g id="node19" class="node"><title>Node18</title>
<polygon fill="none" stroke="#bfbfbf" points="563.266,-174 563.266,-193 598.266,-193 598.266,-174 563.266,-174"/>
<text text-anchor="middle" x="580.766" y="-181" font-family="Helvetica,sans-Serif" font-size="10.00">map</text>
</g>
<!-- Node14&#45;&gt;Node18 -->
<g id="edge33" class="edge"><title>Node14&#45;&gt;Node18</title>
<path fill="none" stroke="midnightblue" d="M822.824,-302.414C791.307,-293.629 751.598,-281.121 717.766,-266 674.371,-246.605 627.539,-216.551 601.414,-198.869"/>
<polygon fill="midnightblue" stroke="midnightblue" points="603.307,-195.924 593.077,-193.169 599.356,-201.702 603.307,-195.924"/>
</g>
<!-- Node15&#45;&gt;Node7 -->
<g id="edge19" class="edge"><title>Node15&#45;&gt;Node7</title>
<path fill="none" stroke="midnightblue" d="M989.386,-112.444C970.55,-103.675 941.035,-89.9355 919.387,-79.8579"/>
<polygon fill="midnightblue" stroke="midnightblue" points="920.604,-76.5637 910.061,-75.5164 917.65,-82.9098 920.604,-76.5637"/>
</g>
<!-- Node16&#45;&gt;Node6 -->
<g id="edge23" class="edge"><title>Node16&#45;&gt;Node6</title>
<path fill="none" stroke="midnightblue" d="M1119.51,-173.975C1069.32,-163.349 983.538,-145.185 929.074,-133.652"/>
<polygon fill="midnightblue" stroke="midnightblue" points="929.46,-130.157 918.952,-131.509 928.01,-137.005 929.46,-130.157"/>
</g>
<!-- Node16&#45;&gt;Node8 -->
<g id="edge21" class="edge"><title>Node16&#45;&gt;Node8</title>
<path fill="none" stroke="midnightblue" d="M1159.77,-173.975C1159.77,-165.58 1159.77,-152.481 1159.77,-141.663"/>
<polygon fill="midnightblue" stroke="midnightblue" points="1163.27,-141.509 1159.77,-131.509 1156.27,-141.509 1163.27,-141.509"/>
</g>
<!-- Node16&#45;&gt;Node15 -->
<g id="edge22" class="edge"><title>Node16&#45;&gt;Node15</title>
<path fill="none" stroke="midnightblue" d="M1137.99,-173.975C1112.03,-163.813 1068.46,-146.756 1038.93,-135.2"/>
<polygon fill="midnightblue" stroke="midnightblue" points="1040.09,-131.895 1029.5,-131.509 1037.54,-138.413 1040.09,-131.895"/>
</g>
<!-- Node17&#45;&gt;Node4 -->
<g id="edge30" class="edge"><title>Node17&#45;&gt;Node4</title>
<path fill="none" stroke="midnightblue" d="M733.182,-235.417C714.382,-227.79 695.259,-216.257 683.766,-199 672.579,-182.202 673.318,-158.392 675.734,-141.918"/>
<polygon fill="midnightblue" stroke="midnightblue" points="679.217,-142.325 677.549,-131.862 672.328,-141.082 679.217,-142.325"/>
</g>
<!-- Node17&#45;&gt;Node5 -->
<g id="edge29" class="edge"><title>Node17&#45;&gt;Node5</title>
<path fill="none" stroke="midnightblue" d="M751.921,-235.488C728.29,-226.076 697.199,-212.89 670.766,-199 598.972,-161.271 519.279,-107.311 482.475,-81.6449"/>
<polygon fill="midnightblue" stroke="midnightblue" points="484.271,-78.6295 474.073,-75.7563 480.254,-84.3618 484.271,-78.6295"/>
</g>
<!-- Node17&#45;&gt;Node6 -->
<g id="edge28" class="edge"><title>Node17&#45;&gt;Node6</title>
<path fill="none" stroke="midnightblue" d="M798.742,-235.479C815.372,-212.104 848.705,-165.253 866.656,-140.022"/>
<polygon fill="midnightblue" stroke="midnightblue" points="869.568,-141.966 872.514,-131.789 863.865,-137.908 869.568,-141.966"/>
</g>
<!-- Node17&#45;&gt;Node8 -->
<g id="edge27" class="edge"><title>Node17&#45;&gt;Node8</title>
<path fill="none" stroke="midnightblue" d="M850.831,-247.061C968.428,-241.798 1214.29,-227.484 1239.77,-199 1248.95,-188.73 1246.72,-179.893 1239.77,-168 1230.91,-152.85 1214.86,-142.406 1199.45,-135.424"/>
<polygon fill="midnightblue" stroke="midnightblue" points="1200.59,-132.106 1190.01,-131.512 1197.91,-138.573 1200.59,-132.106"/>
</g>
<!-- Node17&#45;&gt;Node15 -->
<g id="edge25" class="edge"><title>Node17&#45;&gt;Node15</title>
<path fill="none" stroke="midnightblue" d="M813.04,-235.479C855.386,-211.019 942.235,-160.853 984.13,-136.653"/>
<polygon fill="midnightblue" stroke="midnightblue" points="985.917,-139.663 992.825,-131.63 982.415,-133.601 985.917,-139.663"/>
</g>
<!-- Node17&#45;&gt;Node16 -->
<g id="edge26" class="edge"><title>Node17&#45;&gt;Node16</title>
<path fill="none" stroke="midnightblue" d="M851.009,-238.749C909.743,-228.583 1000.26,-212.863 1078.77,-199 1086.38,-197.655 1094.4,-196.23 1102.31,-194.82"/>
<polygon fill="midnightblue" stroke="midnightblue" points="1103,-198.252 1112.23,-193.048 1101.77,-191.361 1103,-198.252"/>
</g>
<!-- Node17&#45;&gt;Node18 -->
<g id="edge31" class="edge"><title>Node17&#45;&gt;Node18</title>
<path fill="none" stroke="midnightblue" d="M731.814,-235.419C697.02,-226.261 651.85,-213.375 612.766,-199 611.153,-198.407 609.507,-197.768 607.855,-197.101"/>
<polygon fill="midnightblue" stroke="midnightblue" points="609.085,-193.821 598.515,-193.097 606.326,-200.254 609.085,-193.821"/>
</g>
<!-- Node19&#45;&gt;Node5 -->
<g id="edge49" class="edge"><title>Node19&#45;&gt;Node5</title>
<path fill="none" stroke="midnightblue" d="M313.001,-307.936C287.882,-300.697 256.763,-287.887 236.766,-266 188.753,-213.448 146.772,-166.328 192.766,-112 222.763,-76.5691 364.625,-69.0142 429.387,-67.4187"/>
<polygon fill="midnightblue" stroke="midnightblue" points="429.531,-70.9165 439.454,-67.2038 429.381,-63.9181 429.531,-70.9165"/>
</g>
<!-- Node19&#45;&gt;Node7 -->
<g id="edge51" class="edge"><title>Node19&#45;&gt;Node7</title>
<path fill="none" stroke="midnightblue" d="M362.641,-307.717C396.805,-274.565 524.48,-156.651 655.766,-112 724.419,-88.6512 808.667,-76.2617 855.666,-70.7145"/>
<polygon fill="midnightblue" stroke="midnightblue" points="856.13,-74.1844 865.668,-69.5716 855.335,-67.2297 856.13,-74.1844"/>
</g>
<!-- Node19&#45;&gt;Node10 -->
<g id="edge48" class="edge"><title>Node19&#45;&gt;Node10</title>
<path fill="none" stroke="midnightblue" d="M324.527,-307.996C225.568,-277.896 -84.7477,-171.967 22.7664,-56 61.2943,-14.4429 469.268,-11.0595 585.828,-10.9459"/>
<polygon fill="midnightblue" stroke="midnightblue" points="586.177,-14.4459 596.176,-10.9439 586.176,-7.44591 586.177,-14.4459"/>
</g>
<!-- Node20 -->
<g id="node21" class="node"><title>Node20</title>
<g id="a_node21"><a xlink:href="../../d1/d5e/PossibleValuesListTrait_8h.xhtml" target="_top" xlink:title="enfield/Support/Possible\lValuesListTrait.h">
<polygon fill="none" stroke="black" points="245.766,-235.5 245.766,-265.5 367.766,-265.5 367.766,-235.5 245.766,-235.5"/>
<text text-anchor="start" x="253.766" y="-253.5" font-family="Helvetica,sans-Serif" font-size="10.00">enfield/Support/Possible</text>
<text text-anchor="middle" x="306.766" y="-242.5" font-family="Helvetica,sans-Serif" font-size="10.00">ValuesListTrait.h</text>
</a>
</g>
</g>
<!-- Node19&#45;&gt;Node20 -->
<g id="edge37" class="edge"><title>Node19&#45;&gt;Node20</title>
<path fill="none" stroke="midnightblue" d="M347.428,-307.734C341.198,-299.118 331.431,-285.61 323.03,-273.992"/>
<polygon fill="midnightblue" stroke="midnightblue" points="325.65,-271.642 316.954,-265.589 319.977,-275.743 325.65,-271.642"/>
</g>
<!-- Node28 -->
<g id="node29" class="node"><title>Node28</title>
<polygon fill="none" stroke="#bfbfbf" points="384.266,-112.5 384.266,-131.5 433.266,-131.5 433.266,-112.5 384.266,-112.5"/>
<text text-anchor="middle" x="408.766" y="-119.5" font-family="Helvetica,sans-Serif" font-size="10.00">cassert</text>
</g>
<!-- Node19&#45;&gt;Node28 -->
<g id="edge50" class="edge"><title>Node19&#45;&gt;Node28</title>
<path fill="none" stroke="midnightblue" d="M358.409,-307.785C363.518,-297.894 371.679,-281.161 376.766,-266 391.355,-222.526 401.264,-169.379 405.851,-141.733"/>
<polygon fill="midnightblue" stroke="midnightblue" points="409.357,-141.977 407.489,-131.548 402.445,-140.866 409.357,-141.977"/>
</g>
<!-- Node21 -->
<g id="node22" class="node"><title>Node21</title>
<g id="a_node22"><a xlink:href="../../dd/d62/EnumString_8h.xhtml" target="_top" xlink:title="enfield/Support/EnumString.h">
<polygon fill="none" stroke="black" points="229.766,-174 229.766,-193 373.766,-193 373.766,-174 229.766,-174"/>
<text text-anchor="middle" x="301.766" y="-181" font-family="Helvetica,sans-Serif" font-size="10.00">enfield/Support/EnumString.h</text>
</a>
</g>
</g>
<!-- Node20&#45;&gt;Node21 -->
<g id="edge38" class="edge"><title>Node20&#45;&gt;Node21</title>
<path fill="none" stroke="midnightblue" d="M305.681,-235.396C304.956,-225.963 303.993,-213.448 303.204,-203.189"/>
<polygon fill="midnightblue" stroke="midnightblue" points="306.692,-202.897 302.435,-193.195 299.713,-203.434 306.692,-202.897"/>
</g>
<!-- Node21&#45;&gt;Node5 -->
<g id="edge44" class="edge"><title>Node21&#45;&gt;Node5</title>
<path fill="none" stroke="midnightblue" d="M309.184,-173.856C321.672,-159.668 348.145,-131.112 374.766,-112 392.599,-99.1974 414.57,-87.8637 431.971,-79.773"/>
<polygon fill="midnightblue" stroke="midnightblue" points="433.454,-82.9437 441.112,-75.6231 430.56,-76.5697 433.454,-82.9437"/>
</g>
<!-- Node21&#45;&gt;Node22 -->
<g id="edge39" class="edge"><title>Node21&#45;&gt;Node22</title>
<path fill="none" stroke="midnightblue" d="M271.249,-173.975C233.842,-163.526 170.339,-145.787 128.98,-134.233"/>
<polygon fill="midnightblue" stroke="midnightblue" points="129.8,-130.829 119.227,-131.509 127.917,-137.571 129.8,-130.829"/>
</g>
<!-- Node26 -->
<g id="node27" class="node"><title>Node26</title>
<polygon fill="none" stroke="#bfbfbf" points="271.766,-112.5 271.766,-131.5 327.766,-131.5 327.766,-112.5 271.766,-112.5"/>
<text text-anchor="middle" x="299.766" y="-119.5" font-family="Helvetica,sans-Serif" font-size="10.00">algorithm</text>
</g>
<!-- Node21&#45;&gt;Node26 -->
<g id="edge45" class="edge"><title>Node21&#45;&gt;Node26</title>
<path fill="none" stroke="midnightblue" d="M301.48,-173.975C301.198,-165.58 300.757,-152.481 300.394,-141.663"/>
<polygon fill="midnightblue" stroke="midnightblue" points="303.886,-141.386 300.052,-131.509 296.89,-141.621 303.886,-141.386"/>
</g>
<!-- Node27 -->
<g id="node28" class="node"><title>Node27</title>
<polygon fill="none" stroke="#bfbfbf" points="202.266,-112.5 202.266,-131.5 253.266,-131.5 253.266,-112.5 202.266,-112.5"/>
<text text-anchor="middle" x="227.766" y="-119.5" font-family="Helvetica,sans-Serif" font-size="10.00">typeinfo</text>
</g>
<!-- Node21&#45;&gt;Node27 -->
<g id="edge46" class="edge"><title>Node21&#45;&gt;Node27</title>
<path fill="none" stroke="midnightblue" d="M291.164,-173.975C279.514,-164.608 260.58,-149.384 246.432,-138.008"/>
<polygon fill="midnightblue" stroke="midnightblue" points="248.336,-135.048 238.349,-131.509 243.949,-140.503 248.336,-135.048"/>
</g>
<!-- Node21&#45;&gt;Node28 -->
<g id="edge47" class="edge"><title>Node21&#45;&gt;Node28</title>
<path fill="none" stroke="midnightblue" d="M317.097,-173.975C334.736,-164.166 363.926,-147.935 384.624,-136.425"/>
<polygon fill="midnightblue" stroke="midnightblue" points="386.426,-139.428 393.464,-131.509 383.024,-133.31 386.426,-139.428"/>
</g>
<!-- Node22&#45;&gt;Node5 -->
<g id="edge40" class="edge"><title>Node22&#45;&gt;Node5</title>
<path fill="none" stroke="midnightblue" d="M145.823,-112.74C225.113,-101.261 365.997,-80.8648 429.338,-71.6948"/>
<polygon fill="midnightblue" stroke="midnightblue" points="430.13,-75.1167 439.525,-70.2199 429.127,-68.1889 430.13,-75.1167"/>
</g>
<!-- Node23 -->
<g id="node24" class="node"><title>Node23</title>
<polygon fill="none" stroke="#bfbfbf" points="159.766,-56.5 159.766,-75.5 205.766,-75.5 205.766,-56.5 159.766,-56.5"/>
<text text-anchor="middle" x="182.766" y="-63.5" font-family="Helvetica,sans-Serif" font-size="10.00">cstdint</text>
</g>
<!-- Node22&#45;&gt;Node23 -->
<g id="edge41" class="edge"><title>Node22&#45;&gt;Node23</title>
<path fill="none" stroke="midnightblue" d="M103.869,-112.324C118.67,-103.822 141.461,-90.7288 158.749,-80.7975"/>
<polygon fill="midnightblue" stroke="midnightblue" points="160.774,-83.6707 167.701,-75.6545 157.287,-77.6009 160.774,-83.6707"/>
</g>
<!-- Node24 -->
<g id="node25" class="node"><title>Node24</title>
<polygon fill="none" stroke="#bfbfbf" points="31.7664,-56.5 31.7664,-75.5 71.7664,-75.5 71.7664,-56.5 31.7664,-56.5"/>
<text text-anchor="middle" x="51.7664" y="-63.5" font-family="Helvetica,sans-Serif" font-size="10.00">limits</text>
</g>
<!-- Node22&#45;&gt;Node24 -->
<g id="edge42" class="edge"><title>Node22&#45;&gt;Node24</title>
<path fill="none" stroke="midnightblue" d="M82.6566,-112.083C77.4842,-104.534 69.9202,-93.4948 63.572,-84.2298"/>
<polygon fill="midnightblue" stroke="midnightblue" points="66.3021,-82.0221 57.7625,-75.7511 60.5276,-85.9787 66.3021,-82.0221"/>
</g>
<!-- Node25 -->
<g id="node26" class="node"><title>Node25</title>
<polygon fill="none" stroke="#bfbfbf" points="89.7664,-56.5 89.7664,-75.5 141.766,-75.5 141.766,-56.5 89.7664,-56.5"/>
<text text-anchor="middle" x="115.766" y="-63.5" font-family="Helvetica,sans-Serif" font-size="10.00">ostream</text>
</g>
<!-- Node22&#45;&gt;Node25 -->
<g id="edge43" class="edge"><title>Node22&#45;&gt;Node25</title>
<path fill="none" stroke="midnightblue" d="M93.2249,-112.083C96.9207,-104.691 102.29,-93.9533 106.861,-84.8111"/>
<polygon fill="midnightblue" stroke="midnightblue" points="110.049,-86.2606 111.391,-75.7511 103.788,-83.1301 110.049,-86.2606"/>
</g>
<!-- Node29&#45;&gt;Node7 -->
<g id="edge54" class="edge"><title>Node29&#45;&gt;Node7</title>
<path fill="none" stroke="midnightblue" d="M1292.59,-115.886C1197.35,-107.344 1011.2,-89.8901 927.919,-75.9253"/>
<polygon fill="midnightblue" stroke="midnightblue" points="928.503,-72.4743 918.049,-74.197 927.295,-79.3694 928.503,-72.4743"/>
</g>
<!-- Node29&#45;&gt;Node13 -->
<g id="edge53" class="edge"><title>Node29&#45;&gt;Node13</title>
<path fill="none" stroke="midnightblue" d="M1350.77,-112.083C1350.77,-105.006 1350.77,-94.8611 1350.77,-85.9865"/>
<polygon fill="midnightblue" stroke="midnightblue" points="1354.27,-85.751 1350.77,-75.7511 1347.27,-85.7511 1354.27,-85.751"/>
</g>
<!-- Node30&#45;&gt;Node4 -->
<g id="edge58" class="edge"><title>Node30&#45;&gt;Node4</title>
<path fill="none" stroke="midnightblue" d="M944.913,-171.098C872.127,-157.895 755.731,-136.78 704.894,-127.558"/>
<polygon fill="midnightblue" stroke="midnightblue" points="705.269,-124.069 694.805,-125.728 704.02,-130.957 705.269,-124.069"/>
</g>
<!-- Node30&#45;&gt;Node6 -->
<g id="edge59" class="edge"><title>Node30&#45;&gt;Node6</title>
<path fill="none" stroke="midnightblue" d="M977.195,-168.399C955.841,-158.55 927.551,-145.501 906.782,-135.922"/>
<polygon fill="midnightblue" stroke="midnightblue" points="908.084,-132.668 897.537,-131.658 905.152,-139.024 908.084,-132.668"/>
</g>
<!-- Node30&#45;&gt;Node8 -->
<g id="edge57" class="edge"><title>Node30&#45;&gt;Node8</title>
<path fill="none" stroke="midnightblue" d="M1043.79,-168.399C1069.41,-158.372 1103.49,-145.028 1128.08,-135.405"/>
<polygon fill="midnightblue" stroke="midnightblue" points="1129.61,-138.562 1137.65,-131.658 1127.06,-132.044 1129.61,-138.562"/>
</g>
<!-- Node30&#45;&gt;Node15 -->
<g id="edge56" class="edge"><title>Node30&#45;&gt;Node15</title>
<path fill="none" stroke="midnightblue" d="M1007.77,-168.399C1007.77,-160.466 1007.77,-150.458 1007.77,-141.858"/>
<polygon fill="midnightblue" stroke="midnightblue" points="1011.27,-141.658 1007.77,-131.658 1004.27,-141.658 1011.27,-141.658"/>
</g>
</g>
</svg>
