<?xml version="1.0" encoding="UTF-8" standalone="no"?>
<!DOCTYPE svg PUBLIC "-//W3C//DTD SVG 1.1//EN"
 "http://www.w3.org/Graphics/SVG/1.1/DTD/svg11.dtd">
<!-- Generated by graphviz version 2.38.0 (20140413.2041)
 -->
<!-- Title: efd::NDGateSign::Create Pages: 1 -->
<svg width="778pt" height="66pt"
 viewBox="0.00 0.00 778.00 66.00" xmlns="http://www.w3.org/2000/svg" xmlns:xlink="http://www.w3.org/1999/xlink">
<g id="graph0" class="graph" transform="scale(1 1) rotate(0) translate(4 62)">
<title>efd::NDGateSign::Create</title>
<!-- Node28 -->
<g id="node1" class="node"><title>Node28</title>
<polygon fill="#bfbfbf" stroke="black" points="0,-19.5 0,-38.5 127,-38.5 127,-19.5 0,-19.5"/>
<text text-anchor="middle" x="63.5" y="-26.5" font-family="Helvetica,sans-Serif" font-size="10.00">efd::NDGateSign::Create</text>
</g>
<!-- Node29 -->
<g id="node2" class="node"><title>Node29</title>
<g id="a_node2"><a xlink:href="../../db/d1f/classefd_1_1NDGateSign.xhtml#a30d0384e29c48466eb96710dc008cc97" target="_top" xlink:title="efd::NDGateSign::NDGateSign">
<polygon fill="none" stroke="black" points="163,-19.5 163,-38.5 316,-38.5 316,-19.5 163,-19.5"/>
<text text-anchor="middle" x="239.5" y="-26.5" font-family="Helvetica,sans-Serif" font-size="10.00">efd::NDGateSign::NDGateSign</text>
</a>
</g>
</g>
<!-- Node28&#45;&gt;Node29 -->
<g id="edge1" class="edge"><title>Node28&#45;&gt;Node29</title>
<path fill="none" stroke="midnightblue" d="M127.318,-29C135.574,-29 144.146,-29 152.702,-29"/>
<polygon fill="midnightblue" stroke="midnightblue" points="152.719,-32.5001 162.719,-29 152.719,-25.5001 152.719,-32.5001"/>
</g>
<!-- Node30 -->
<g id="node3" class="node"><title>Node30</title>
<g id="a_node3"><a xlink:href="../../d6/d6a/classefd_1_1Node.xhtml#a8ac8c3206c6f6817a8c8e515ac830f61" target="_top" xlink:title="Adds a child to this node. It should be used only for construction of each derived class...">
<polygon fill="none" stroke="black" points="501,-38.5 501,-57.5 627,-57.5 627,-38.5 501,-38.5"/>
<text text-anchor="middle" x="564" y="-45.5" font-family="Helvetica,sans-Serif" font-size="10.00">efd::Node::innerAddChild</text>
</a>
</g>
</g>
<!-- Node29&#45;&gt;Node30 -->
<g id="edge2" class="edge"><title>Node29&#45;&gt;Node30</title>
<path fill="none" stroke="midnightblue" d="M316.112,-33.4547C368.823,-36.5601 438.732,-40.6788 490.701,-43.7405"/>
<polygon fill="midnightblue" stroke="midnightblue" points="490.657,-47.2439 500.846,-44.3382 491.069,-40.256 490.657,-47.2439"/>
</g>
<!-- Node32 -->
<g id="node5" class="node"><title>Node32</title>
<g id="a_node5"><a xlink:href="../../d0/d9e/classefd_1_1NDDecl.xhtml#a1d2cdd96c460f6968ecd4ae2b4a5181c" target="_top" xlink:title="efd::NDDecl::NDDecl">
<polygon fill="none" stroke="black" points="352,-0.5 352,-19.5 465,-19.5 465,-0.5 352,-0.5"/>
<text text-anchor="middle" x="408.5" y="-7.5" font-family="Helvetica,sans-Serif" font-size="10.00">efd::NDDecl::NDDecl</text>
</a>
</g>
</g>
<!-- Node29&#45;&gt;Node32 -->
<g id="edge4" class="edge"><title>Node29&#45;&gt;Node32</title>
<path fill="none" stroke="midnightblue" d="M316.182,-20.3895C324.649,-19.4262 333.224,-18.4506 341.555,-17.5027"/>
<polygon fill="midnightblue" stroke="midnightblue" points="342.032,-20.9711 351.572,-16.3631 341.241,-14.016 342.032,-20.9711"/>
</g>
<!-- Node31 -->
<g id="node4" class="node"><title>Node31</title>
<g id="a_node4"><a xlink:href="../../d6/d6a/classefd_1_1Node.xhtml#a48e9d49d994b9023b8400316e2782e2b" target="_top" xlink:title="Sets the parent node of the current node. ">
<polygon fill="none" stroke="black" points="663,-38.5 663,-57.5 770,-57.5 770,-38.5 663,-38.5"/>
<text text-anchor="middle" x="716.5" y="-45.5" font-family="Helvetica,sans-Serif" font-size="10.00">efd::Node::setParent</text>
</a>
</g>
</g>
<!-- Node30&#45;&gt;Node31 -->
<g id="edge3" class="edge"><title>Node30&#45;&gt;Node31</title>
<path fill="none" stroke="midnightblue" d="M627.083,-48C635.488,-48 644.118,-48 652.538,-48"/>
<polygon fill="midnightblue" stroke="midnightblue" points="652.674,-51.5001 662.674,-48 652.674,-44.5001 652.674,-51.5001"/>
</g>
<!-- Node32&#45;&gt;Node30 -->
<g id="edge5" class="edge"><title>Node32&#45;&gt;Node30</title>
<path fill="none" stroke="midnightblue" d="M448.235,-19.589C468.399,-24.5809 493.248,-30.7324 514.661,-36.0334"/>
<polygon fill="midnightblue" stroke="midnightblue" points="513.996,-39.4743 524.544,-38.4799 515.678,-32.6794 513.996,-39.4743"/>
</g>
<!-- Node33 -->
<g id="node6" class="node"><title>Node33</title>
<g id="a_node6"><a xlink:href="../../d6/d6a/classefd_1_1Node.xhtml#a09ac8cdf7898a3d17293d92ae956eece" target="_top" xlink:title="Constructs the node, initially empty (with no information). ">
<polygon fill="none" stroke="black" points="519.5,-0.5 519.5,-19.5 608.5,-19.5 608.5,-0.5 519.5,-0.5"/>
<text text-anchor="middle" x="564" y="-7.5" font-family="Helvetica,sans-Serif" font-size="10.00">efd::Node::Node</text>
</a>
</g>
</g>
<!-- Node32&#45;&gt;Node33 -->
<g id="edge6" class="edge"><title>Node32&#45;&gt;Node33</title>
<path fill="none" stroke="midnightblue" d="M465.351,-10C479.699,-10 495.101,-10 509.336,-10"/>
<polygon fill="midnightblue" stroke="midnightblue" points="509.462,-13.5001 519.462,-10 509.462,-6.5001 509.462,-13.5001"/>
</g>
</g>
</svg>
