<?xml version="1.0" encoding="UTF-8" standalone="no"?>
<!DOCTYPE svg PUBLIC "-//W3C//DTD SVG 1.1//EN"
 "http://www.w3.org/Graphics/SVG/1.1/DTD/svg11.dtd">
<!-- Generated by graphviz version 2.40.1 (20161225.0304)
 -->
<!-- Title: efd::NDGateSign::toString Pages: 1 -->
<svg width="296pt" height="66pt"
 viewBox="0.00 0.00 296.00 66.00" xmlns="http://www.w3.org/2000/svg" xmlns:xlink="http://www.w3.org/1999/xlink">
<g id="graph0" class="graph" transform="scale(1 1) rotate(0) translate(4 62)">
<title>efd::NDGateSign::toString</title>
<!-- Node18 -->
<g id="node1" class="node">
<title>Node18</title>
<polygon fill="#bfbfbf" stroke="#000000" points="0,-19.5 0,-38.5 142,-38.5 142,-19.5 0,-19.5"/>
<text text-anchor="middle" x="71" y="-26.5" font-family="Helvetica,sans-Serif" font-size="10.00" fill="#000000">efd::NDGateSign::toString</text>
</g>
<!-- Node19 -->
<g id="node2" class="node">
<title>Node19</title>
<g id="a_node2"><a xlink:href="../../d6/d6a/classefd_1_1Node.xhtml#a3f8e26eafae005e4befadedeab9b6df4" target="_top" xlink:title="Returns whether this node has any information. ">
<polygon fill="none" stroke="#000000" points="178,-38.5 178,-57.5 288,-57.5 288,-38.5 178,-38.5"/>
<text text-anchor="middle" x="233" y="-45.5" font-family="Helvetica,sans-Serif" font-size="10.00" fill="#000000">efd::Node::isEmpty</text>
</a>
</g>
</g>
<!-- Node18&#45;&gt;Node19 -->
<g id="edge1" class="edge">
<title>Node18&#45;&gt;Node19</title>
<path fill="none" stroke="#191970" d="M142.0556,-37.3337C150.5171,-38.3261 159.1257,-39.3357 167.5044,-40.3184"/>
<polygon fill="#191970" stroke="#191970" points="167.2455,-43.812 177.5851,-41.5007 168.061,-36.8596 167.2455,-43.812"/>
</g>
<!-- Node20 -->
<g id="node3" class="node">
<title>Node20</title>
<g id="a_node3"><a xlink:href="../../d6/d6a/classefd_1_1Node.xhtml#a96ca13a5c2b971b68619ce4a34be0f66" target="_top" xlink:title="Returns a std::string representation of this Node and its childrem. ">
<polygon fill="none" stroke="#000000" points="179,-.5 179,-19.5 287,-19.5 287,-.5 179,-.5"/>
<text text-anchor="middle" x="233" y="-7.5" font-family="Helvetica,sans-Serif" font-size="10.00" fill="#000000">efd::Node::toString</text>
</a>
</g>
</g>
<!-- Node18&#45;&gt;Node20 -->
<g id="edge2" class="edge">
<title>Node18&#45;&gt;Node20</title>
<path fill="none" stroke="#191970" d="M142.0556,-20.6663C150.8546,-19.6343 159.8125,-18.5837 168.5056,-17.5642"/>
<polygon fill="#191970" stroke="#191970" points="169.0392,-21.0257 178.5634,-16.3845 168.2237,-14.0733 169.0392,-21.0257"/>
</g>
</g>
</svg>
