<?xml version="1.0" encoding="UTF-8" standalone="no"?>
<!DOCTYPE svg PUBLIC "-//W3C//DTD SVG 1.1//EN"
 "http://www.w3.org/Graphics/SVG/1.1/DTD/svg11.dtd">
<!-- Generated by graphviz version 2.38.0 (20140413.2041)
 -->
<!-- Title: efd::NDGateSign::cloneImpl Pages: 1 -->
<svg width="966pt" height="218pt"
 viewBox="0.00 0.00 966.00 218.00" xmlns="http://www.w3.org/2000/svg" xmlns:xlink="http://www.w3.org/1999/xlink">
<g id="graph0" class="graph" transform="scale(1 1) rotate(0) translate(4 214)">
<title>efd::NDGateSign::cloneImpl</title>
<!-- Node14 -->
<g id="node1" class="node"><title>Node14</title>
<polygon fill="#bfbfbf" stroke="black" points="0,-95.5 0,-114.5 140,-114.5 140,-95.5 0,-95.5"/>
<text text-anchor="middle" x="70" y="-102.5" font-family="Helvetica,sans-Serif" font-size="10.00">efd::NDGateSign::cloneImpl</text>
</g>
<!-- Node15 -->
<g id="node2" class="node"><title>Node15</title>
<g id="a_node2"><a xlink:href="../../d6/d6a/classefd_1_1Node.xhtml#a6c85c9bd21014b73497de741cc75f706" target="_top" xlink:title="Clones the current node (deep copy). ">
<polygon fill="none" stroke="black" points="201,-190.5 201,-209.5 290,-209.5 290,-190.5 201,-190.5"/>
<text text-anchor="middle" x="245.5" y="-197.5" font-family="Helvetica,sans-Serif" font-size="10.00">efd::Node::clone</text>
</a>
</g>
</g>
<!-- Node14&#45;&gt;Node15 -->
<g id="edge1" class="edge"><title>Node14&#45;&gt;Node15</title>
<path fill="none" stroke="midnightblue" d="M81.5079,-114.61C99.5333,-130.61 138.082,-162.751 176,-181 180.865,-183.341 186.068,-185.438 191.351,-187.304"/>
<polygon fill="midnightblue" stroke="midnightblue" points="190.299,-190.642 200.892,-190.418 192.472,-183.988 190.299,-190.642"/>
</g>
<!-- Node17 -->
<g id="node4" class="node"><title>Node17</title>
<g id="a_node4"><a xlink:href="../../db/d1f/classefd_1_1NDGateSign.xhtml#a968d272d94c9e4eca11c86a7e157932d" target="_top" xlink:title="Creates a new instance of this node. ">
<polygon fill="none" stroke="black" points="182,-152.5 182,-171.5 309,-171.5 309,-152.5 182,-152.5"/>
<text text-anchor="middle" x="245.5" y="-159.5" font-family="Helvetica,sans-Serif" font-size="10.00">efd::NDGateSign::Create</text>
</a>
</g>
</g>
<!-- Node14&#45;&gt;Node17 -->
<g id="edge3" class="edge"><title>Node14&#45;&gt;Node17</title>
<path fill="none" stroke="midnightblue" d="M95.8493,-114.603C117.01,-122.633 148.297,-134.159 176,-143 183.194,-145.296 190.862,-147.579 198.367,-149.726"/>
<polygon fill="midnightblue" stroke="midnightblue" points="197.511,-153.121 208.085,-152.458 199.406,-146.382 197.511,-153.121"/>
</g>
<!-- Node23 -->
<g id="node10" class="node"><title>Node23</title>
<g id="a_node10"><a xlink:href="../../db/d1f/classefd_1_1NDGateSign.xhtml#a0be5984f118128bc3e2bf64a8a390071" target="_top" xlink:title="Gets the args node. ">
<polygon fill="none" stroke="black" points="180,-114.5 180,-133.5 311,-133.5 311,-114.5 180,-114.5"/>
<text text-anchor="middle" x="245.5" y="-121.5" font-family="Helvetica,sans-Serif" font-size="10.00">efd::NDGateSign::getArgs</text>
</a>
</g>
</g>
<!-- Node14&#45;&gt;Node23 -->
<g id="edge10" class="edge"><title>Node14&#45;&gt;Node23</title>
<path fill="none" stroke="midnightblue" d="M140.07,-112.564C149.819,-113.632 159.879,-114.733 169.729,-115.812"/>
<polygon fill="midnightblue" stroke="midnightblue" points="169.574,-119.316 179.896,-116.925 170.336,-112.357 169.574,-119.316"/>
</g>
<!-- Node25 -->
<g id="node12" class="node"><title>Node25</title>
<g id="a_node12"><a xlink:href="../../d0/d9e/classefd_1_1NDDecl.xhtml#a34957c2122c38cebf80a264d5fa3863f" target="_top" xlink:title="Gets the id node. ">
<polygon fill="none" stroke="black" points="196,-76.5 196,-95.5 295,-95.5 295,-76.5 196,-76.5"/>
<text text-anchor="middle" x="245.5" y="-83.5" font-family="Helvetica,sans-Serif" font-size="10.00">efd::NDDecl::getId</text>
</a>
</g>
</g>
<!-- Node14&#45;&gt;Node25 -->
<g id="edge12" class="edge"><title>Node14&#45;&gt;Node25</title>
<path fill="none" stroke="midnightblue" d="M140.07,-97.4361C155.273,-95.7713 171.232,-94.0236 185.971,-92.4095"/>
<polygon fill="midnightblue" stroke="midnightblue" points="186.397,-95.8839 195.956,-91.316 185.634,-88.9255 186.397,-95.8839"/>
</g>
<!-- Node26 -->
<g id="node13" class="node"><title>Node26</title>
<g id="a_node13"><a xlink:href="../../db/d1f/classefd_1_1NDGateSign.xhtml#a081605b4c294930734e9d93b34ef85d0" target="_top" xlink:title="Gets the qargs node. ">
<polygon fill="none" stroke="black" points="176,-38.5 176,-57.5 315,-57.5 315,-38.5 176,-38.5"/>
<text text-anchor="middle" x="245.5" y="-45.5" font-family="Helvetica,sans-Serif" font-size="10.00">efd::NDGateSign::getQArgs</text>
</a>
</g>
</g>
<!-- Node14&#45;&gt;Node26 -->
<g id="edge14" class="edge"><title>Node14&#45;&gt;Node26</title>
<path fill="none" stroke="midnightblue" d="M95.8493,-95.3973C117.01,-87.3674 148.297,-75.8406 176,-67 183.194,-64.7043 190.862,-62.4205 198.367,-60.2742"/>
<polygon fill="midnightblue" stroke="midnightblue" points="199.406,-63.618 208.085,-57.5423 197.511,-56.8792 199.406,-63.618"/>
</g>
<!-- Node27 -->
<g id="node14" class="node"><title>Node27</title>
<g id="a_node14"><a xlink:href="../../d4/deb/namespaceefd.xhtml#ad7adca0e4de58074aa3f91827469a491" target="_top" xlink:title="Uses the RTTI framework to cast forwardly an unique_ptr. ">
<polygon fill="none" stroke="black" points="185,-0.5 185,-19.5 306,-19.5 306,-0.5 185,-0.5"/>
<text text-anchor="middle" x="245.5" y="-7.5" font-family="Helvetica,sans-Serif" font-size="10.00">efd::uniqueCastForward</text>
</a>
</g>
</g>
<!-- Node14&#45;&gt;Node27 -->
<g id="edge16" class="edge"><title>Node14&#45;&gt;Node27</title>
<path fill="none" stroke="midnightblue" d="M81.5079,-95.3899C99.5333,-79.3897 138.082,-47.2488 176,-29 180.865,-26.6585 186.068,-24.5624 191.351,-22.6963"/>
<polygon fill="midnightblue" stroke="midnightblue" points="192.472,-26.0124 200.892,-19.5821 190.299,-19.3579 192.472,-26.0124"/>
</g>
<!-- Node16 -->
<g id="node3" class="node"><title>Node16</title>
<g id="a_node3"><a xlink:href="../../d6/d6a/classefd_1_1Node.xhtml#ac078ce64eb404cfdc24b9288908536e4" target="_top" xlink:title="Clones the current node (deep copy). ">
<polygon fill="none" stroke="black" points="374,-190.5 374,-209.5 481,-209.5 481,-190.5 374,-190.5"/>
<text text-anchor="middle" x="427.5" y="-197.5" font-family="Helvetica,sans-Serif" font-size="10.00">efd::Node::cloneImpl</text>
</a>
</g>
</g>
<!-- Node15&#45;&gt;Node16 -->
<g id="edge2" class="edge"><title>Node15&#45;&gt;Node16</title>
<path fill="none" stroke="midnightblue" d="M290.073,-200C312.105,-200 339.248,-200 363.506,-200"/>
<polygon fill="midnightblue" stroke="midnightblue" points="363.703,-203.5 373.703,-200 363.703,-196.5 363.703,-203.5"/>
</g>
<!-- Node18 -->
<g id="node5" class="node"><title>Node18</title>
<g id="a_node5"><a xlink:href="../../db/d1f/classefd_1_1NDGateSign.xhtml#a30d0384e29c48466eb96710dc008cc97" target="_top" xlink:title="efd::NDGateSign::NDGateSign">
<polygon fill="none" stroke="black" points="351,-152.5 351,-171.5 504,-171.5 504,-152.5 351,-152.5"/>
<text text-anchor="middle" x="427.5" y="-159.5" font-family="Helvetica,sans-Serif" font-size="10.00">efd::NDGateSign::NDGateSign</text>
</a>
</g>
</g>
<!-- Node17&#45;&gt;Node18 -->
<g id="edge4" class="edge"><title>Node17&#45;&gt;Node18</title>
<path fill="none" stroke="midnightblue" d="M309.203,-162C319.352,-162 330.013,-162 340.598,-162"/>
<polygon fill="midnightblue" stroke="midnightblue" points="340.704,-165.5 350.704,-162 340.704,-158.5 340.704,-165.5"/>
</g>
<!-- Node19 -->
<g id="node6" class="node"><title>Node19</title>
<g id="a_node6"><a xlink:href="../../d6/d6a/classefd_1_1Node.xhtml#a8ac8c3206c6f6817a8c8e515ac830f61" target="_top" xlink:title="Adds a child to this node. It should be used only for construction of each derived class...">
<polygon fill="none" stroke="black" points="689,-171.5 689,-190.5 815,-190.5 815,-171.5 689,-171.5"/>
<text text-anchor="middle" x="752" y="-178.5" font-family="Helvetica,sans-Serif" font-size="10.00">efd::Node::innerAddChild</text>
</a>
</g>
</g>
<!-- Node18&#45;&gt;Node19 -->
<g id="edge5" class="edge"><title>Node18&#45;&gt;Node19</title>
<path fill="none" stroke="midnightblue" d="M504.112,-166.455C556.823,-169.56 626.732,-173.679 678.701,-176.741"/>
<polygon fill="midnightblue" stroke="midnightblue" points="678.657,-180.244 688.846,-177.338 679.069,-173.256 678.657,-180.244"/>
</g>
<!-- Node21 -->
<g id="node8" class="node"><title>Node21</title>
<g id="a_node8"><a xlink:href="../../d0/d9e/classefd_1_1NDDecl.xhtml#a1d2cdd96c460f6968ecd4ae2b4a5181c" target="_top" xlink:title="efd::NDDecl::NDDecl">
<polygon fill="none" stroke="black" points="540,-133.5 540,-152.5 653,-152.5 653,-133.5 540,-133.5"/>
<text text-anchor="middle" x="596.5" y="-140.5" font-family="Helvetica,sans-Serif" font-size="10.00">efd::NDDecl::NDDecl</text>
</a>
</g>
</g>
<!-- Node18&#45;&gt;Node21 -->
<g id="edge7" class="edge"><title>Node18&#45;&gt;Node21</title>
<path fill="none" stroke="midnightblue" d="M504.182,-153.389C512.649,-152.426 521.224,-151.451 529.555,-150.503"/>
<polygon fill="midnightblue" stroke="midnightblue" points="530.032,-153.971 539.572,-149.363 529.241,-147.016 530.032,-153.971"/>
</g>
<!-- Node20 -->
<g id="node7" class="node"><title>Node20</title>
<g id="a_node7"><a xlink:href="../../d6/d6a/classefd_1_1Node.xhtml#a48e9d49d994b9023b8400316e2782e2b" target="_top" xlink:title="Sets the parent node of the current node. ">
<polygon fill="none" stroke="black" points="851,-171.5 851,-190.5 958,-190.5 958,-171.5 851,-171.5"/>
<text text-anchor="middle" x="904.5" y="-178.5" font-family="Helvetica,sans-Serif" font-size="10.00">efd::Node::setParent</text>
</a>
</g>
</g>
<!-- Node19&#45;&gt;Node20 -->
<g id="edge6" class="edge"><title>Node19&#45;&gt;Node20</title>
<path fill="none" stroke="midnightblue" d="M815.083,-181C823.488,-181 832.118,-181 840.538,-181"/>
<polygon fill="midnightblue" stroke="midnightblue" points="840.674,-184.5 850.674,-181 840.674,-177.5 840.674,-184.5"/>
</g>
<!-- Node21&#45;&gt;Node19 -->
<g id="edge8" class="edge"><title>Node21&#45;&gt;Node19</title>
<path fill="none" stroke="midnightblue" d="M636.235,-152.589C656.399,-157.581 681.248,-163.732 702.661,-169.033"/>
<polygon fill="midnightblue" stroke="midnightblue" points="701.996,-172.474 712.544,-171.48 703.678,-165.679 701.996,-172.474"/>
</g>
<!-- Node22 -->
<g id="node9" class="node"><title>Node22</title>
<g id="a_node9"><a xlink:href="../../d6/d6a/classefd_1_1Node.xhtml#a09ac8cdf7898a3d17293d92ae956eece" target="_top" xlink:title="Constructs the node, initially empty (with no information). ">
<polygon fill="none" stroke="black" points="707.5,-133.5 707.5,-152.5 796.5,-152.5 796.5,-133.5 707.5,-133.5"/>
<text text-anchor="middle" x="752" y="-140.5" font-family="Helvetica,sans-Serif" font-size="10.00">efd::Node::Node</text>
</a>
</g>
</g>
<!-- Node21&#45;&gt;Node22 -->
<g id="edge9" class="edge"><title>Node21&#45;&gt;Node22</title>
<path fill="none" stroke="midnightblue" d="M653.351,-143C667.699,-143 683.101,-143 697.336,-143"/>
<polygon fill="midnightblue" stroke="midnightblue" points="697.462,-146.5 707.462,-143 697.462,-139.5 697.462,-146.5"/>
</g>
<!-- Node24 -->
<g id="node11" class="node"><title>Node24</title>
<g id="a_node11"><a xlink:href="../../d4/deb/namespaceefd.xhtml#a2cef687225e13315fc282dc40b5a6909" target="_top" xlink:title="Returns src cast to TargetTy, iff it is of class TargetTy, otherwise it will return nullptr...">
<polygon fill="none" stroke="black" points="391,-76.5 391,-95.5 464,-95.5 464,-76.5 391,-76.5"/>
<text text-anchor="middle" x="427.5" y="-83.5" font-family="Helvetica,sans-Serif" font-size="10.00">efd::dynCast</text>
</a>
</g>
</g>
<!-- Node23&#45;&gt;Node24 -->
<g id="edge11" class="edge"><title>Node23&#45;&gt;Node24</title>
<path fill="none" stroke="midnightblue" d="M291.922,-114.411C319.072,-108.679 353.464,-101.419 380.685,-95.6721"/>
<polygon fill="midnightblue" stroke="midnightblue" points="381.675,-99.0403 390.736,-93.5502 380.229,-92.1913 381.675,-99.0403"/>
</g>
<!-- Node25&#45;&gt;Node24 -->
<g id="edge13" class="edge"><title>Node25&#45;&gt;Node24</title>
<path fill="none" stroke="midnightblue" d="M295.211,-86C321.866,-86 354.691,-86 380.85,-86"/>
<polygon fill="midnightblue" stroke="midnightblue" points="380.886,-89.5001 390.886,-86 380.886,-82.5001 380.886,-89.5001"/>
</g>
<!-- Node26&#45;&gt;Node24 -->
<g id="edge15" class="edge"><title>Node26&#45;&gt;Node24</title>
<path fill="none" stroke="midnightblue" d="M291.922,-57.589C319.072,-63.3208 353.464,-70.5814 380.685,-76.3279"/>
<polygon fill="midnightblue" stroke="midnightblue" points="380.229,-79.8087 390.736,-78.4498 381.675,-72.9597 380.229,-79.8087"/>
</g>
</g>
</svg>
