<?xml version="1.0" encoding="UTF-8" standalone="no"?>
<!DOCTYPE svg PUBLIC "-//W3C//DTD SVG 1.1//EN"
 "http://www.w3.org/Graphics/SVG/1.1/DTD/svg11.dtd">
<!-- Generated by graphviz version 2.40.1 (20161225.0304)
 -->
<!-- Title: efd::DependencyBuilderWrapperPass::run Pages: 1 -->
<svg width="356pt" height="166pt"
 viewBox="0.00 0.00 356.00 165.50" xmlns="http://www.w3.org/2000/svg" xmlns:xlink="http://www.w3.org/1999/xlink">
<g id="graph0" class="graph" transform="scale(1 1) rotate(0) translate(4 161.5)">
<title>efd::DependencyBuilderWrapperPass::run</title>
<!-- Node1 -->
<g id="node1" class="node">
<title>Node1</title>
<polygon fill="#bfbfbf" stroke="#000000" points="0,-61 0,-91 175,-91 175,-61 0,-61"/>
<text text-anchor="start" x="8" y="-79" font-family="Helvetica,sans-Serif" font-size="10.00" fill="#000000">efd::DependencyBuilderWrapper</text>
<text text-anchor="middle" x="87.5" y="-68" font-family="Helvetica,sans-Serif" font-size="10.00" fill="#000000">Pass::run</text>
</g>
<!-- Node2 -->
<g id="node2" class="node">
<title>Node2</title>
<g id="a_node2"><a xlink:href="../../dd/d52/classefd_1_1QModule.xhtml#af560135001f7e189109fdd5330f1908f" target="_top" xlink:title="Iterator to the beginning of the gate declaration node vector. ">
<polygon fill="none" stroke="#000000" points="222.5,-127 222.5,-157 336.5,-157 336.5,-127 222.5,-127"/>
<text text-anchor="start" x="230.5" y="-145" font-family="Helvetica,sans-Serif" font-size="10.00" fill="#000000">efd::QModule::gates</text>
<text text-anchor="middle" x="279.5" y="-134" font-family="Helvetica,sans-Serif" font-size="10.00" fill="#000000">_begin</text>
</a>
</g>
</g>
<!-- Node1&#45;&gt;Node2 -->
<g id="edge1" class="edge">
<title>Node1&#45;&gt;Node2</title>
<path fill="none" stroke="#191970" d="M131.5487,-91.1417C159.5988,-100.784 196.1169,-113.337 225.8536,-123.5591"/>
<polygon fill="#191970" stroke="#191970" points="225.0616,-126.9878 235.6563,-126.9287 227.3372,-120.368 225.0616,-126.9878"/>
</g>
<!-- Node3 -->
<g id="node3" class="node">
<title>Node3</title>
<g id="a_node3"><a xlink:href="../../dd/d52/classefd_1_1QModule.xhtml#a674bb9ce9b51f508600c30ad781d8af3" target="_top" xlink:title="Iterator to the end of the gate declaration node vector. ">
<polygon fill="none" stroke="#000000" points="211,-88.5 211,-107.5 348,-107.5 348,-88.5 211,-88.5"/>
<text text-anchor="middle" x="279.5" y="-95.5" font-family="Helvetica,sans-Serif" font-size="10.00" fill="#000000">efd::QModule::gates_end</text>
</a>
</g>
</g>
<!-- Node1&#45;&gt;Node3 -->
<g id="edge2" class="edge">
<title>Node1&#45;&gt;Node3</title>
<path fill="none" stroke="#191970" d="M175.0722,-86.0343C183.5801,-87.0092 192.177,-87.9942 200.5928,-88.9585"/>
<polygon fill="#191970" stroke="#191970" points="200.4168,-92.4612 210.7502,-90.1224 201.2137,-85.5067 200.4168,-92.4612"/>
</g>
<!-- Node4 -->
<g id="node4" class="node">
<title>Node4</title>
<g id="a_node4"><a xlink:href="../../dd/d52/classefd_1_1QModule.xhtml#ac00e1eb93f94c00db1e6a661d8f95d9d" target="_top" xlink:title="Iterator to the beginning of the statement node vector. ">
<polygon fill="none" stroke="#000000" points="224.5,-39 224.5,-69 334.5,-69 334.5,-39 224.5,-39"/>
<text text-anchor="start" x="232.5" y="-57" font-family="Helvetica,sans-Serif" font-size="10.00" fill="#000000">efd::QModule::stmt</text>
<text text-anchor="middle" x="279.5" y="-46" font-family="Helvetica,sans-Serif" font-size="10.00" fill="#000000">_begin</text>
</a>
</g>
</g>
<!-- Node1&#45;&gt;Node4 -->
<g id="edge3" class="edge">
<title>Node1&#45;&gt;Node4</title>
<path fill="none" stroke="#191970" d="M175.0722,-65.9657C188.339,-64.4455 201.8222,-62.9006 214.4977,-61.4482"/>
<polygon fill="#191970" stroke="#191970" points="214.9339,-64.9212 224.4705,-60.3055 214.137,-57.9667 214.9339,-64.9212"/>
</g>
<!-- Node5 -->
<g id="node5" class="node">
<title>Node5</title>
<g id="a_node5"><a xlink:href="../../dd/d52/classefd_1_1QModule.xhtml#a23d45e3b6c65d5fa14b199da8b0617c7" target="_top" xlink:title="Iterator to the end of the statement node vector. ">
<polygon fill="none" stroke="#000000" points="213,-.5 213,-19.5 346,-19.5 346,-.5 213,-.5"/>
<text text-anchor="middle" x="279.5" y="-7.5" font-family="Helvetica,sans-Serif" font-size="10.00" fill="#000000">efd::QModule::stmt_end</text>
</a>
</g>
</g>
<!-- Node1&#45;&gt;Node5 -->
<g id="edge4" class="edge">
<title>Node1&#45;&gt;Node5</title>
<path fill="none" stroke="#191970" d="M125.631,-60.9826C149.9114,-51.6231 182.1174,-39.5814 211,-30 218.7746,-27.4209 227.1024,-24.8399 235.1792,-22.4301"/>
<polygon fill="#191970" stroke="#191970" points="236.2452,-25.7649 244.8525,-19.5872 234.2714,-19.049 236.2452,-25.7649"/>
</g>
</g>
</svg>
