<?xml version="1.0" encoding="UTF-8" standalone="no"?>
<!DOCTYPE svg PUBLIC "-//W3C//DTD SVG 1.1//EN"
 "http://www.w3.org/Graphics/SVG/1.1/DTD/svg11.dtd">
<!-- Generated by graphviz version 2.40.1 (20161225.0304)
 -->
<!-- Title: lib/Transform/Allocators/BMT/DefaultBMTQAllocatorImpl.cpp Pages: 1 -->
<!--zoomable 598 -->
<svg id="main" version="1.1" xmlns="http://www.w3.org/2000/svg" xmlns:xlink="http://www.w3.org/1999/xlink" xml:space="preserve" onload="init(evt)">
<style type="text/css"><![CDATA[
.edge:hover path { stroke: red; }
.edge:hover polygon { stroke: red; fill: red; }
]]></style>
<script type="text/javascript"><![CDATA[
var edges = document.getElementsByTagName('g');
if (edges && edges.length) {
  for (var i=0;i<edges.length;i++) {
    if (edges[i].id.substr(0,4)=='edge') {
      edges[i].setAttribute('class','edge');
    }
  }
}
]]></script>
        <defs>
                <circle id="rim" cx="0" cy="0" r="7"/>
                <circle id="rim2" cx="0" cy="0" r="3.5"/>
                <g id="zoomPlus">
                        <use xlink:href="#rim" fill="#404040">
                                <set attributeName="fill" to="#808080" begin="zoomplus.mouseover" end="zoomplus.mouseout"/>
                        </use>
                        <path d="M-4,0h8M0,-4v8" fill="none" stroke="white" stroke-width="1.5" pointer-events="none"/>
                </g>
                <g id="zoomMin">
                        <use xlink:href="#rim" fill="#404040">
                                <set attributeName="fill" to="#808080" begin="zoomminus.mouseover" end="zoomminus.mouseout"/>
                        </use>
                        <path d="M-4,0h8" fill="none" stroke="white" stroke-width="1.5" pointer-events="none"/>
                </g>
                <g id="dirArrow">
                        <path fill="none" stroke="white" stroke-width="1.5" d="M0,-3.0v7 M-2.5,-0.5L0,-3.0L2.5,-0.5"/>
                </g>
               <g id="resetDef">
                       <use xlink:href="#rim2" fill="#404040">
                               <set attributeName="fill" to="#808080" begin="reset.mouseover" end="reset.mouseout"/>
                       </use>
               </g>
        </defs>

<script type="text/javascript">
var viewWidth = 1288;
var viewHeight = 598;
var sectionId = 'dynsection-0';
</script>
<script xlink:href="../../svgpan.js"/>
<svg id="graph" class="graph">
<g id="viewport">
<title>lib/Transform/Allocators/BMT/DefaultBMTQAllocatorImpl.cpp</title>
<!-- Node0 -->
<g id="node1" class="node">
<title>Node0</title>
<polygon fill="#bfbfbf" stroke="#000000" points="504,-559.5 504,-589.5 698,-589.5 698,-559.5 504,-559.5"/>
<text text-anchor="start" x="512" y="-577.5" font-family="Helvetica,sans-Serif" font-size="10.00" fill="#000000">lib/Transform/Allocators</text>
<text text-anchor="middle" x="601" y="-566.5" font-family="Helvetica,sans-Serif" font-size="10.00" fill="#000000">/BMT/DefaultBMTQAllocatorImpl.cpp</text>
</g>
<!-- Node1 -->
<g id="node2" class="node">
<title>Node1</title>
<g id="a_node2"><a xlink:href="../../db/d1c/DefaultBMTQAllocatorImpl_8h.xhtml" target="_top" xlink:title="enfield/Transform/Allocators\l/BMT/DefaultBMTQAllocatorImpl.h">
<polygon fill="none" stroke="#000000" points="451,-492.5 451,-522.5 633,-522.5 633,-492.5 451,-492.5"/>
<text text-anchor="start" x="459" y="-510.5" font-family="Helvetica,sans-Serif" font-size="10.00" fill="#000000">enfield/Transform/Allocators</text>
<text text-anchor="middle" x="542" y="-499.5" font-family="Helvetica,sans-Serif" font-size="10.00" fill="#000000">/BMT/DefaultBMTQAllocatorImpl.h</text>
</a>
</g>
</g>
<!-- Node0&#45;&gt;Node1 -->
<g id="edge1" class="edge">
<title>Node0&#45;&gt;Node1</title>
<path fill="none" stroke="#191970" d="M587.612,-559.2967C580.0685,-550.7303 570.4973,-539.8614 562.0726,-530.2943"/>
<polygon fill="#191970" stroke="#191970" points="564.5706,-527.835 555.335,-522.6432 559.3171,-532.4612 564.5706,-527.835"/>
</g>
<!-- Node32 -->
<g id="node33" class="node">
<title>Node32</title>
<polygon fill="none" stroke="#bfbfbf" points="630.5,-364 630.5,-383 677.5,-383 677.5,-364 630.5,-364"/>
<text text-anchor="middle" x="654" y="-371" font-family="Helvetica,sans-Serif" font-size="10.00" fill="#000000">queue</text>
</g>
<!-- Node0&#45;&gt;Node32 -->
<g id="edge60" class="edge">
<title>Node0&#45;&gt;Node32</title>
<path fill="none" stroke="#191970" d="M617.0525,-559.3954C626.0538,-549.8823 636.5413,-536.8177 642,-523 659.314,-479.1727 658.1452,-422.5972 655.9732,-393.2013"/>
<polygon fill="#191970" stroke="#191970" points="659.442,-392.6876 655.0961,-383.0251 652.4679,-393.2887 659.442,-392.6876"/>
</g>
<!-- Node2 -->
<g id="node3" class="node">
<title>Node2</title>
<g id="a_node3"><a xlink:href="../../d6/daf/BoundedMappingTreeQAllocator_8h.xhtml" target="_top" xlink:title="enfield/Transform/Allocators\l/BoundedMappingTreeQAllocator.h">
<polygon fill="none" stroke="#000000" points="448.5,-425.5 448.5,-455.5 633.5,-455.5 633.5,-425.5 448.5,-425.5"/>
<text text-anchor="start" x="456.5" y="-443.5" font-family="Helvetica,sans-Serif" font-size="10.00" fill="#000000">enfield/Transform/Allocators</text>
<text text-anchor="middle" x="541" y="-432.5" font-family="Helvetica,sans-Serif" font-size="10.00" fill="#000000">/BoundedMappingTreeQAllocator.h</text>
</a>
</g>
</g>
<!-- Node1&#45;&gt;Node2 -->
<g id="edge2" class="edge">
<title>Node1&#45;&gt;Node2</title>
<path fill="none" stroke="#191970" d="M541.7731,-492.2967C541.6567,-484.5013 541.5119,-474.7991 541.3792,-465.9064"/>
<polygon fill="#191970" stroke="#191970" points="544.875,-465.5898 541.226,-455.6432 537.8757,-465.6943 544.875,-465.5898"/>
</g>
<!-- Node3 -->
<g id="node4" class="node">
<title>Node3</title>
<g id="a_node4"><a xlink:href="../../dd/d3b/QbitAllocator_8h.xhtml" target="_top" xlink:title="enfield/Transform/Allocators\l/QbitAllocator.h">
<polygon fill="none" stroke="#000000" points="351.5,-358.5 351.5,-388.5 506.5,-388.5 506.5,-358.5 351.5,-358.5"/>
<text text-anchor="start" x="359.5" y="-376.5" font-family="Helvetica,sans-Serif" font-size="10.00" fill="#000000">enfield/Transform/Allocators</text>
<text text-anchor="middle" x="429" y="-365.5" font-family="Helvetica,sans-Serif" font-size="10.00" fill="#000000">/QbitAllocator.h</text>
</a>
</g>
</g>
<!-- Node2&#45;&gt;Node3 -->
<g id="edge3" class="edge">
<title>Node2&#45;&gt;Node3</title>
<path fill="none" stroke="#191970" d="M515.865,-425.4639C500.4105,-416.2188 480.395,-404.2452 463.4729,-394.1222"/>
<polygon fill="#191970" stroke="#191970" points="464.8171,-390.8479 454.4386,-388.7177 461.2235,-396.8551 464.8171,-390.8479"/>
</g>
<!-- Node19 -->
<g id="node20" class="node">
<title>Node19</title>
<g id="a_node20"><a xlink:href="../../d6/d94/XbitToNumberPass_8h.xhtml" target="_top" xlink:title="enfield/Transform/XbitTo\lNumberPass.h">
<polygon fill="none" stroke="#000000" points="457,-224.5 457,-254.5 595,-254.5 595,-224.5 457,-224.5"/>
<text text-anchor="start" x="465" y="-242.5" font-family="Helvetica,sans-Serif" font-size="10.00" fill="#000000">enfield/Transform/XbitTo</text>
<text text-anchor="middle" x="526" y="-231.5" font-family="Helvetica,sans-Serif" font-size="10.00" fill="#000000">NumberPass.h</text>
</a>
</g>
</g>
<!-- Node2&#45;&gt;Node19 -->
<g id="edge55" class="edge">
<title>Node2&#45;&gt;Node19</title>
<path fill="none" stroke="#191970" d="M539.8726,-425.3923C537.3091,-391.0414 531.0217,-306.7914 527.8679,-264.5301"/>
<polygon fill="#191970" stroke="#191970" points="531.3546,-264.2206 527.1201,-254.5088 524.3741,-264.7416 531.3546,-264.2206"/>
</g>
<!-- Node31 -->
<g id="node32" class="node">
<title>Node31</title>
<g id="a_node32"><a xlink:href="../../dc/d2d/TokenSwapFinder_8h.xhtml" target="_top" xlink:title="enfield/Support/TokenSwap\lFinder.h">
<polygon fill="none" stroke="#000000" points="787,-224.5 787,-254.5 937,-254.5 937,-224.5 787,-224.5"/>
<text text-anchor="start" x="795" y="-242.5" font-family="Helvetica,sans-Serif" font-size="10.00" fill="#000000">enfield/Support/TokenSwap</text>
<text text-anchor="middle" x="862" y="-231.5" font-family="Helvetica,sans-Serif" font-size="10.00" fill="#000000">Finder.h</text>
</a>
</g>
</g>
<!-- Node2&#45;&gt;Node31 -->
<g id="edge56" class="edge">
<title>Node2&#45;&gt;Node31</title>
<path fill="none" stroke="#191970" d="M552.9911,-425.2636C567.6026,-407.4349 593.7333,-377.834 621,-358 681.5711,-313.9402 761.0253,-278.5138 811.8112,-258.2356"/>
<polygon fill="#191970" stroke="#191970" points="813.2442,-261.4329 821.2606,-254.5054 810.6739,-254.9218 813.2442,-261.4329"/>
</g>
<!-- Node2&#45;&gt;Node32 -->
<g id="edge59" class="edge">
<title>Node2&#45;&gt;Node32</title>
<path fill="none" stroke="#191970" d="M566.3594,-425.4639C585.0631,-414.3741 610.3881,-399.3584 629.005,-388.32"/>
<polygon fill="#191970" stroke="#191970" points="630.9857,-391.2147 637.8023,-383.1039 627.4156,-385.1935 630.9857,-391.2147"/>
</g>
<!-- Node4 -->
<g id="node5" class="node">
<title>Node4</title>
<g id="a_node5"><a xlink:href="../../d7/d9d/ArchGraph_8h.xhtml" target="_top" xlink:title="enfield/Arch/ArchGraph.h">
<polygon fill="none" stroke="#000000" points="129,-230 129,-249 267,-249 267,-230 129,-230"/>
<text text-anchor="middle" x="198" y="-237" font-family="Helvetica,sans-Serif" font-size="10.00" fill="#000000">enfield/Arch/ArchGraph.h</text>
</a>
</g>
</g>
<!-- Node3&#45;&gt;Node4 -->
<g id="edge4" class="edge">
<title>Node3&#45;&gt;Node4</title>
<path fill="none" stroke="#191970" d="M401.1936,-358.4147C382.6416,-348.2734 357.7541,-334.5214 336,-322 295.7902,-298.8558 249.6212,-270.9878 222.1812,-254.2862"/>
<polygon fill="#191970" stroke="#191970" points="223.9895,-251.2895 213.6291,-249.0732 220.3461,-257.2666 223.9895,-251.2895"/>
</g>
<!-- Node16 -->
<g id="node17" class="node">
<title>Node16</title>
<g id="a_node17"><a xlink:href="../../d9/dcf/DependencyBuilderPass_8h.xhtml" target="_top" xlink:title="enfield/Transform/Dependency\lBuilderPass.h">
<polygon fill="none" stroke="#000000" points="345.5,-291.5 345.5,-321.5 512.5,-321.5 512.5,-291.5 345.5,-291.5"/>
<text text-anchor="start" x="353.5" y="-309.5" font-family="Helvetica,sans-Serif" font-size="10.00" fill="#000000">enfield/Transform/Dependency</text>
<text text-anchor="middle" x="429" y="-298.5" font-family="Helvetica,sans-Serif" font-size="10.00" fill="#000000">BuilderPass.h</text>
</a>
</g>
</g>
<!-- Node3&#45;&gt;Node16 -->
<g id="edge18" class="edge">
<title>Node3&#45;&gt;Node16</title>
<path fill="none" stroke="#191970" d="M429,-358.2967C429,-350.5013 429,-340.7991 429,-331.9064"/>
<polygon fill="#191970" stroke="#191970" points="432.5001,-331.6431 429,-321.6432 425.5001,-331.6432 432.5001,-331.6431"/>
</g>
<!-- Node21 -->
<g id="node22" class="node">
<title>Node21</title>
<g id="a_node22"><a xlink:href="../../d9/d41/CommandLine_8h.xhtml" target="_top" xlink:title="enfield/Support/CommandLine.h">
<polygon fill="none" stroke="#000000" points="973.5,-297 973.5,-316 1146.5,-316 1146.5,-297 973.5,-297"/>
<text text-anchor="middle" x="1060" y="-304" font-family="Helvetica,sans-Serif" font-size="10.00" fill="#000000">enfield/Support/CommandLine.h</text>
</a>
</g>
</g>
<!-- Node3&#45;&gt;Node21 -->
<g id="edge38" class="edge">
<title>Node3&#45;&gt;Node21</title>
<path fill="none" stroke="#191970" d="M506.6892,-365.2509C621.9912,-353.0081 838.2377,-330.0469 963.5232,-316.744"/>
<polygon fill="#191970" stroke="#191970" points="963.9234,-320.2212 973.4979,-315.6848 963.1842,-313.2604 963.9234,-320.2212"/>
</g>
<!-- Node30 -->
<g id="node31" class="node">
<title>Node30</title>
<g id="a_node31"><a xlink:href="../../dc/d09/Stats_8h.xhtml" target="_top" xlink:title="enfield/Support/Stats.h">
<polygon fill="none" stroke="#000000" points="0,-112.5 0,-131.5 128,-131.5 128,-112.5 0,-112.5"/>
<text text-anchor="middle" x="64" y="-119.5" font-family="Helvetica,sans-Serif" font-size="10.00" fill="#000000">enfield/Support/Stats.h</text>
</a>
</g>
</g>
<!-- Node3&#45;&gt;Node30 -->
<g id="edge52" class="edge">
<title>Node3&#45;&gt;Node30</title>
<path fill="none" stroke="#191970" d="M351.3754,-364.5766C278.6131,-352.1911 171.6262,-323.0119 107,-255 76.8956,-223.3184 67.8669,-170.3906 65.1594,-141.7888"/>
<polygon fill="#191970" stroke="#191970" points="68.6467,-141.4893 64.3808,-131.7913 61.6679,-142.0328 68.6467,-141.4893"/>
</g>
<!-- Node5 -->
<g id="node6" class="node">
<title>Node5</title>
<g id="a_node6"><a xlink:href="../../d7/d16/Graph_8h.xhtml" target="_top" xlink:title="enfield/Support/Graph.h">
<polygon fill="none" stroke="#000000" points="533,-168.5 533,-187.5 665,-187.5 665,-168.5 533,-168.5"/>
<text text-anchor="middle" x="599" y="-175.5" font-family="Helvetica,sans-Serif" font-size="10.00" fill="#000000">enfield/Support/Graph.h</text>
</a>
</g>
</g>
<!-- Node4&#45;&gt;Node5 -->
<g id="edge5" class="edge">
<title>Node4&#45;&gt;Node5</title>
<path fill="none" stroke="#191970" d="M260.2163,-229.9581C332.3244,-218.8991 450.9583,-200.7047 526.9921,-189.0436"/>
<polygon fill="#191970" stroke="#191970" points="527.6139,-192.4893 536.9677,-187.5137 526.5527,-185.5702 527.6139,-192.4893"/>
</g>
<!-- Node10 -->
<g id="node11" class="node">
<title>Node10</title>
<g id="a_node11"><a xlink:href="../../d4/daf/Nodes_8h.xhtml" target="_top" xlink:title="enfield/Analysis/Nodes.h">
<polygon fill="none" stroke="#000000" points="146.5,-112.5 146.5,-131.5 283.5,-131.5 283.5,-112.5 146.5,-112.5"/>
<text text-anchor="middle" x="215" y="-119.5" font-family="Helvetica,sans-Serif" font-size="10.00" fill="#000000">enfield/Analysis/Nodes.h</text>
</a>
</g>
</g>
<!-- Node4&#45;&gt;Node10 -->
<g id="edge10" class="edge">
<title>Node4&#45;&gt;Node10</title>
<path fill="none" stroke="#191970" d="M187.4182,-229.8786C173.7635,-216.2354 152.8953,-190.4297 163,-168 168.5697,-155.6369 179.2863,-145.2563 189.5506,-137.5033"/>
<polygon fill="#191970" stroke="#191970" points="191.7618,-140.2277 197.9433,-131.623 187.7451,-134.4948 191.7618,-140.2277"/>
</g>
<!-- Node6 -->
<g id="node7" class="node">
<title>Node6</title>
<polygon fill="none" stroke="#bfbfbf" points="671,-112.5 671,-131.5 703,-131.5 703,-112.5 671,-112.5"/>
<text text-anchor="middle" x="687" y="-119.5" font-family="Helvetica,sans-Serif" font-size="10.00" fill="#000000">set</text>
</g>
<!-- Node5&#45;&gt;Node6 -->
<g id="edge6" class="edge">
<title>Node5&#45;&gt;Node6</title>
<path fill="none" stroke="#191970" d="M614.3284,-168.2455C627.8303,-159.6534 647.7122,-147.0014 663.2686,-137.1018"/>
<polygon fill="#191970" stroke="#191970" points="665.2897,-139.9643 671.8472,-131.6427 661.5315,-134.0587 665.2897,-139.9643"/>
</g>
<!-- Node7 -->
<g id="node8" class="node">
<title>Node7</title>
<polygon fill="none" stroke="#bfbfbf" points="839.5,-56.5 839.5,-75.5 886.5,-75.5 886.5,-56.5 839.5,-56.5"/>
<text text-anchor="middle" x="863" y="-63.5" font-family="Helvetica,sans-Serif" font-size="10.00" fill="#000000">vector</text>
</g>
<!-- Node5&#45;&gt;Node7 -->
<g id="edge7" class="edge">
<title>Node5&#45;&gt;Node7</title>
<path fill="none" stroke="#191970" d="M605.466,-168.2148C615.6674,-153.594 636.9355,-126.2452 662,-112 715.3958,-81.653 787.499,-71.3214 829.2529,-67.8075"/>
<polygon fill="#191970" stroke="#191970" points="829.7276,-71.2816 839.4346,-67.0361 829.1987,-64.3016 829.7276,-71.2816"/>
</g>
<!-- Node8 -->
<g id="node9" class="node">
<title>Node8</title>
<polygon fill="none" stroke="#bfbfbf" points="458.5,-112.5 458.5,-131.5 551.5,-131.5 551.5,-112.5 458.5,-112.5"/>
<text text-anchor="middle" x="505" y="-119.5" font-family="Helvetica,sans-Serif" font-size="10.00" fill="#000000">unordered_map</text>
</g>
<!-- Node5&#45;&gt;Node8 -->
<g id="edge8" class="edge">
<title>Node5&#45;&gt;Node8</title>
<path fill="none" stroke="#191970" d="M582.6264,-168.2455C568.0692,-159.5731 546.569,-146.7645 529.8848,-136.825"/>
<polygon fill="#191970" stroke="#191970" points="531.5683,-133.7539 521.1859,-131.6427 527.9856,-139.7676 531.5683,-133.7539"/>
</g>
<!-- Node9 -->
<g id="node10" class="node">
<title>Node9</title>
<polygon fill="none" stroke="#bfbfbf" points="536,-56.5 536,-75.5 594,-75.5 594,-56.5 536,-56.5"/>
<text text-anchor="middle" x="565" y="-63.5" font-family="Helvetica,sans-Serif" font-size="10.00" fill="#000000">memory</text>
</g>
<!-- Node5&#45;&gt;Node9 -->
<g id="edge9" class="edge">
<title>Node5&#45;&gt;Node9</title>
<path fill="none" stroke="#191970" d="M596.1012,-168.4509C590.5308,-150.1013 578.2329,-109.5908 570.88,-85.3693"/>
<polygon fill="#191970" stroke="#191970" points="574.1455,-84.077 567.8915,-75.5249 567.4473,-86.1104 574.1455,-84.077"/>
</g>
<!-- Node10&#45;&gt;Node7 -->
<g id="edge16" class="edge">
<title>Node10&#45;&gt;Node7</title>
<path fill="none" stroke="#191970" d="M283.8831,-112.9906C286.9628,-112.644 290.0127,-112.3119 293,-112 496.0873,-90.7987 740.7637,-73.9727 829.1189,-68.1763"/>
<polygon fill="#191970" stroke="#191970" points="829.5935,-71.6529 839.3444,-67.5091 829.1377,-64.6678 829.5935,-71.6529"/>
</g>
<!-- Node10&#45;&gt;Node9 -->
<g id="edge17" class="edge">
<title>Node10&#45;&gt;Node9</title>
<path fill="none" stroke="#191970" d="M283.706,-112.6893C356.4408,-102.6903 467.5135,-86.9807 525.7831,-75.823"/>
<polygon fill="#191970" stroke="#191970" points="526.5568,-79.2379 535.688,-73.8647 525.1991,-72.3708 526.5568,-79.2379"/>
</g>
<!-- Node11 -->
<g id="node12" class="node">
<title>Node11</title>
<g id="a_node12"><a xlink:href="../../d1/d2e/WrapperVal_8h.xhtml" target="_top" xlink:title="enfield/Support/WrapperVal.h">
<polygon fill="none" stroke="#000000" points="214,-56.5 214,-75.5 374,-75.5 374,-56.5 214,-56.5"/>
<text text-anchor="middle" x="294" y="-63.5" font-family="Helvetica,sans-Serif" font-size="10.00" fill="#000000">enfield/Support/WrapperVal.h</text>
</a>
</g>
</g>
<!-- Node10&#45;&gt;Node11 -->
<g id="edge11" class="edge">
<title>Node10&#45;&gt;Node11</title>
<path fill="none" stroke="#191970" d="M228.7607,-112.2455C240.6552,-103.814 258.065,-91.4729 271.9085,-81.6598"/>
<polygon fill="#191970" stroke="#191970" points="274.2628,-84.2811 280.3969,-75.6427 270.2146,-78.5704 274.2628,-84.2811"/>
</g>
<!-- Node13 -->
<g id="node14" class="node">
<title>Node13</title>
<g id="a_node14"><a xlink:href="../../d5/dfc/RTTI_8h.xhtml" target="_top" xlink:title="enfield/Support/RTTI.h">
<polygon fill="none" stroke="#000000" points="392.5,-56.5 392.5,-75.5 517.5,-75.5 517.5,-56.5 392.5,-56.5"/>
<text text-anchor="middle" x="455" y="-63.5" font-family="Helvetica,sans-Serif" font-size="10.00" fill="#000000">enfield/Support/RTTI.h</text>
</a>
</g>
</g>
<!-- Node10&#45;&gt;Node13 -->
<g id="edge13" class="edge">
<title>Node10&#45;&gt;Node13</title>
<path fill="none" stroke="#191970" d="M255.9848,-112.4369C296.9726,-102.8731 360.1004,-88.1432 404.2357,-77.845"/>
<polygon fill="#191970" stroke="#191970" points="405.2412,-81.2045 414.1843,-75.5237 403.6505,-74.3876 405.2412,-81.2045"/>
</g>
<!-- Node14 -->
<g id="node15" class="node">
<title>Node14</title>
<polygon fill="none" stroke="#bfbfbf" points="112.5,-56.5 112.5,-75.5 195.5,-75.5 195.5,-56.5 112.5,-56.5"/>
<text text-anchor="middle" x="154" y="-63.5" font-family="Helvetica,sans-Serif" font-size="10.00" fill="#000000">initializer_list</text>
</g>
<!-- Node10&#45;&gt;Node14 -->
<g id="edge14" class="edge">
<title>Node10&#45;&gt;Node14</title>
<path fill="none" stroke="#191970" d="M204.3746,-112.2455C195.4527,-104.0549 182.512,-92.1749 171.9808,-82.5069"/>
<polygon fill="#191970" stroke="#191970" points="174.2371,-79.8271 164.5036,-75.6427 169.5032,-84.9837 174.2371,-79.8271"/>
</g>
<!-- Node15 -->
<g id="node16" class="node">
<title>Node15</title>
<polygon fill="none" stroke="#bfbfbf" points="34,-56.5 34,-75.5 94,-75.5 94,-56.5 34,-56.5"/>
<text text-anchor="middle" x="64" y="-63.5" font-family="Helvetica,sans-Serif" font-size="10.00" fill="#000000">iostream</text>
</g>
<!-- Node10&#45;&gt;Node15 -->
<g id="edge15" class="edge">
<title>Node10&#45;&gt;Node15</title>
<path fill="none" stroke="#191970" d="M189.0422,-112.3733C164.2593,-103.1822 126.7254,-89.2624 99.246,-79.0713"/>
<polygon fill="#191970" stroke="#191970" points="100.2121,-75.6968 89.6191,-75.5011 97.7781,-82.26 100.2121,-75.6968"/>
</g>
<!-- Node12 -->
<g id="node13" class="node">
<title>Node12</title>
<polygon fill="none" stroke="#bfbfbf" points="764,-.5 764,-19.5 808,-19.5 808,-.5 764,-.5"/>
<text text-anchor="middle" x="786" y="-7.5" font-family="Helvetica,sans-Serif" font-size="10.00" fill="#000000">string</text>
</g>
<!-- Node11&#45;&gt;Node12 -->
<g id="edge12" class="edge">
<title>Node11&#45;&gt;Node12</title>
<path fill="none" stroke="#191970" d="M374.1433,-56.878C484.4092,-44.3274 677.8926,-22.3049 753.9781,-13.6448"/>
<polygon fill="#191970" stroke="#191970" points="754.374,-17.1224 763.914,-12.5139 753.5823,-10.1673 754.374,-17.1224"/>
</g>
<!-- Node16&#45;&gt;Node6 -->
<g id="edge37" class="edge">
<title>Node16&#45;&gt;Node6</title>
<path fill="none" stroke="#191970" d="M512.71,-291.4505C555.7756,-282.7005 608.7919,-270.3555 655,-255 672.4186,-249.2116 795.9933,-203.3876 806,-188 830.1108,-150.9242 755.3235,-132.7794 713.3865,-125.7048"/>
<polygon fill="#191970" stroke="#191970" points="713.6927,-122.2097 703.2685,-124.1037 712.5986,-129.1237 713.6927,-122.2097"/>
</g>
<!-- Node16&#45;&gt;Node7 -->
<g id="edge36" class="edge">
<title>Node16&#45;&gt;Node7</title>
<path fill="none" stroke="#191970" d="M512.5159,-298.7842C569.0396,-291.7172 644.6574,-278.6211 708,-255 735.5326,-244.7328 803.4813,-210.8148 822,-188 846.6561,-157.624 856.7644,-111.7298 860.691,-85.7539"/>
<polygon fill="#191970" stroke="#191970" points="864.1862,-86.0237 862.0552,-75.6454 857.2491,-85.0874 864.1862,-86.0237"/>
</g>
<!-- Node16&#45;&gt;Node8 -->
<g id="edge34" class="edge">
<title>Node16&#45;&gt;Node8</title>
<path fill="none" stroke="#191970" d="M431.1886,-291.2153C433.9049,-274.3593 439.2761,-246.628 448,-224 459.9152,-193.0944 479.8192,-160.1184 492.6739,-140.2857"/>
<polygon fill="#191970" stroke="#191970" points="495.7704,-141.9476 498.3523,-131.6722 489.9261,-138.0948 495.7704,-141.9476"/>
</g>
<!-- Node16&#45;&gt;Node10 -->
<g id="edge19" class="edge">
<title>Node16&#45;&gt;Node10</title>
<path fill="none" stroke="#191970" d="M345.1213,-298.0929C258.6742,-288.5638 134.5009,-272.1177 120,-255 85.7851,-214.6107 151.8785,-162.4623 190.2605,-137.1386"/>
<polygon fill="#191970" stroke="#191970" points="192.3756,-139.9396 198.8913,-131.5852 188.5879,-134.0529 192.3756,-139.9396"/>
</g>
<!-- Node17 -->
<g id="node18" class="node">
<title>Node17</title>
<g id="a_node18"><a xlink:href="../../df/d29/Pass_8h.xhtml" target="_top" xlink:title="enfield/Transform/Pass.h">
<polygon fill="none" stroke="#000000" points="302,-112.5 302,-131.5 440,-131.5 440,-112.5 302,-112.5"/>
<text text-anchor="middle" x="371" y="-119.5" font-family="Helvetica,sans-Serif" font-size="10.00" fill="#000000">enfield/Transform/Pass.h</text>
</a>
</g>
</g>
<!-- Node16&#45;&gt;Node17 -->
<g id="edge20" class="edge">
<title>Node16&#45;&gt;Node17</title>
<path fill="none" stroke="#191970" d="M400.6838,-291.3112C348.8962,-263.2472 243.3464,-204.6165 234,-188 217.1763,-158.0898 252.7573,-141.5379 291.8632,-132.4902"/>
<polygon fill="#191970" stroke="#191970" points="292.8079,-135.8672 301.8516,-130.348 291.3399,-129.0229 292.8079,-135.8672"/>
</g>
<!-- Node18 -->
<g id="node19" class="node">
<title>Node18</title>
<g id="a_node19"><a xlink:href="../../d4/d73/QModule_8h.xhtml" target="_top" xlink:title="enfield/Transform/QModule.h">
<polygon fill="none" stroke="#000000" points="243,-168.5 243,-187.5 401,-187.5 401,-168.5 243,-168.5"/>
<text text-anchor="middle" x="322" y="-175.5" font-family="Helvetica,sans-Serif" font-size="10.00" fill="#000000">enfield/Transform/QModule.h</text>
</a>
</g>
</g>
<!-- Node16&#45;&gt;Node18 -->
<g id="edge22" class="edge">
<title>Node16&#45;&gt;Node18</title>
<path fill="none" stroke="#191970" d="M416.3055,-291.2548C396.3118,-267.2437 357.5986,-220.7515 336.5248,-195.4434"/>
<polygon fill="#191970" stroke="#191970" points="339.1954,-193.1808 330.1068,-187.7358 333.8161,-197.6601 339.1954,-193.1808"/>
</g>
<!-- Node16&#45;&gt;Node19 -->
<g id="edge26" class="edge">
<title>Node16&#45;&gt;Node19</title>
<path fill="none" stroke="#191970" d="M451.0108,-291.2967C464.157,-282.2163 481.0487,-270.5488 495.471,-260.587"/>
<polygon fill="#191970" stroke="#191970" points="497.8374,-263.2063 504.0763,-254.6432 493.8591,-257.4467 497.8374,-263.2063"/>
</g>
<!-- Node20 -->
<g id="node21" class="node">
<title>Node20</title>
<polygon fill="none" stroke="#bfbfbf" points="759,-168.5 759,-187.5 797,-187.5 797,-168.5 759,-168.5"/>
<text text-anchor="middle" x="778" y="-175.5" font-family="Helvetica,sans-Serif" font-size="10.00" fill="#000000">map</text>
</g>
<!-- Node16&#45;&gt;Node20 -->
<g id="edge35" class="edge">
<title>Node16&#45;&gt;Node20</title>
<path fill="none" stroke="#191970" d="M487.154,-291.435C521.5056,-282.0303 565.6422,-269.0632 604,-255 656.3642,-235.8016 715.3406,-208.435 749.4318,-192.0245"/>
<polygon fill="#191970" stroke="#191970" points="751.2943,-195.0114 758.7697,-187.5034 748.2439,-188.711 751.2943,-195.0114"/>
</g>
<!-- Node17&#45;&gt;Node9 -->
<g id="edge21" class="edge">
<title>Node17&#45;&gt;Node9</title>
<path fill="none" stroke="#191970" d="M404.3498,-112.3733C438.0716,-102.6391 490.1686,-87.6008 525.8343,-77.3056"/>
<polygon fill="#191970" stroke="#191970" points="527.2454,-80.5412 535.8825,-74.4051 525.304,-73.8158 527.2454,-80.5412"/>
</g>
<!-- Node18&#45;&gt;Node8 -->
<g id="edge25" class="edge">
<title>Node18&#45;&gt;Node8</title>
<path fill="none" stroke="#191970" d="M353.4588,-168.3733C384.0207,-159.021 430.5826,-144.7725 464.0261,-134.5385"/>
<polygon fill="#191970" stroke="#191970" points="465.4136,-137.7742 473.9517,-131.5011 463.3652,-131.0806 465.4136,-137.7742"/>
</g>
<!-- Node18&#45;&gt;Node10 -->
<g id="edge23" class="edge">
<title>Node18&#45;&gt;Node10</title>
<path fill="none" stroke="#191970" d="M303.362,-168.2455C286.5614,-159.4527 261.6366,-146.4079 242.5382,-136.4125"/>
<polygon fill="#191970" stroke="#191970" points="243.9073,-133.1787 233.4244,-131.6427 240.6614,-139.3807 243.9073,-133.1787"/>
</g>
<!-- Node18&#45;&gt;Node17 -->
<g id="edge24" class="edge">
<title>Node18&#45;&gt;Node17</title>
<path fill="none" stroke="#191970" d="M330.5351,-168.2455C337.4912,-160.2958 347.4883,-148.8706 355.8051,-139.3656"/>
<polygon fill="#191970" stroke="#191970" points="358.6116,-141.4732 362.5627,-131.6427 353.3436,-136.8637 358.6116,-141.4732"/>
</g>
<!-- Node19&#45;&gt;Node6 -->
<g id="edge32" class="edge">
<title>Node19&#45;&gt;Node6</title>
<path fill="none" stroke="#191970" d="M588.2446,-224.498C623.2445,-214.8245 662.2252,-201.5558 674,-188 684.8774,-175.4774 687.6866,-156.5344 688.032,-142.1499"/>
<polygon fill="#191970" stroke="#191970" points="691.5269,-141.751 687.8879,-131.8007 684.5276,-141.8485 691.5269,-141.751"/>
</g>
<!-- Node19&#45;&gt;Node7 -->
<g id="edge31" class="edge">
<title>Node19&#45;&gt;Node7</title>
<path fill="none" stroke="#191970" d="M592.1157,-224.3997C623.5894,-215.8985 661.2043,-203.7848 693,-188 752.8224,-158.3014 814.4001,-108.3364 844.3574,-82.532"/>
<polygon fill="#191970" stroke="#191970" points="847.0296,-84.8461 852.2724,-75.6393 842.4325,-79.5671 847.0296,-84.8461"/>
</g>
<!-- Node19&#45;&gt;Node8 -->
<g id="edge30" class="edge">
<title>Node19&#45;&gt;Node8</title>
<path fill="none" stroke="#191970" d="M523.2546,-224.1389C519.4711,-202.9692 512.6525,-164.8174 508.505,-141.6112"/>
<polygon fill="#191970" stroke="#191970" points="511.9133,-140.7877 506.7085,-131.5595 505.0225,-142.0193 511.9133,-140.7877"/>
</g>
<!-- Node19&#45;&gt;Node10 -->
<g id="edge29" class="edge">
<title>Node19&#45;&gt;Node10</title>
<path fill="none" stroke="#191970" d="M456.9287,-235.628C381.168,-229.9816 266.0529,-216.8314 234,-188 221.1429,-176.4351 216.7555,-156.7909 215.3677,-141.9335"/>
<polygon fill="#191970" stroke="#191970" points="218.8496,-141.5087 214.8005,-131.7182 211.8604,-141.8968 218.8496,-141.5087"/>
</g>
<!-- Node19&#45;&gt;Node17 -->
<g id="edge27" class="edge">
<title>Node19&#45;&gt;Node17</title>
<path fill="none" stroke="#191970" d="M506.0538,-224.3795C476.5843,-202.0397 421.6798,-160.4185 391.7535,-137.7325"/>
<polygon fill="#191970" stroke="#191970" points="393.7534,-134.8565 383.6699,-131.6046 389.5246,-140.4349 393.7534,-134.8565"/>
</g>
<!-- Node19&#45;&gt;Node18 -->
<g id="edge28" class="edge">
<title>Node19&#45;&gt;Node18</title>
<path fill="none" stroke="#191970" d="M476.096,-224.4554C441.4609,-214.0139 395.8712,-200.27 363.2826,-190.4455"/>
<polygon fill="#191970" stroke="#191970" points="364.1974,-187.0657 353.6128,-187.5303 362.1769,-193.7678 364.1974,-187.0657"/>
</g>
<!-- Node19&#45;&gt;Node20 -->
<g id="edge33" class="edge">
<title>Node19&#45;&gt;Node20</title>
<path fill="none" stroke="#191970" d="M594.8339,-224.4871C638.1121,-214.7582 695.0223,-201.4343 745,-188 746.2683,-187.6591 747.5615,-187.3032 748.8661,-186.9373"/>
<polygon fill="#191970" stroke="#191970" points="750.2433,-190.1816 758.864,-184.0226 748.2841,-183.4613 750.2433,-190.1816"/>
</g>
<!-- Node21&#45;&gt;Node7 -->
<g id="edge50" class="edge">
<title>Node21&#45;&gt;Node7</title>
<path fill="none" stroke="#191970" d="M1085.4821,-296.8529C1103.1723,-288.6533 1125.3961,-274.9948 1136,-255 1163.7009,-202.7673 1107.035,-134.1583 1078,-112 1049.9079,-90.5613 949.9823,-76.0711 896.8282,-69.6931"/>
<polygon fill="#191970" stroke="#191970" points="897.1952,-66.2122 886.8561,-68.526 896.3814,-73.1648 897.1952,-66.2122"/>
</g>
<!-- Node21&#45;&gt;Node9 -->
<g id="edge51" class="edge">
<title>Node21&#45;&gt;Node9</title>
<path fill="none" stroke="#191970" d="M1044.8735,-296.8178C1029.3367,-286.742 1004.5837,-270.323 984,-255 966.5166,-241.9849 964.4045,-235.6763 946,-224 848.6416,-162.233 819.2932,-154.2136 712,-112 676.005,-97.8381 633.7552,-84.994 603.8108,-76.4999"/>
<polygon fill="#191970" stroke="#191970" points="604.728,-73.1221 594.1542,-73.7904 602.8369,-79.8619 604.728,-73.1221"/>
</g>
<!-- Node21&#45;&gt;Node12 -->
<g id="edge49" class="edge">
<title>Node21&#45;&gt;Node12</title>
<path fill="none" stroke="#191970" d="M1123.0501,-296.9676C1187.747,-283.1905 1279,-250.8465 1279,-178 1279,-178 1279,-178 1279,-122 1279,-91.4754 1283.4715,-75.5152 1260,-56 1226.11,-27.8225 919.8268,-14.6712 818.4322,-11.0634"/>
<polygon fill="#191970" stroke="#191970" points="818.3035,-7.5569 808.1877,-10.7067 818.0599,-14.5526 818.3035,-7.5569"/>
</g>
<!-- Node22 -->
<g id="node23" class="node">
<title>Node22</title>
<g id="a_node23"><a xlink:href="../../d1/d5e/PossibleValuesListTrait_8h.xhtml" target="_top" xlink:title="enfield/Support/Possible\lValuesListTrait.h">
<polygon fill="none" stroke="#000000" points="993,-224.5 993,-254.5 1127,-254.5 1127,-224.5 993,-224.5"/>
<text text-anchor="start" x="1001" y="-242.5" font-family="Helvetica,sans-Serif" font-size="10.00" fill="#000000">enfield/Support/Possible</text>
<text text-anchor="middle" x="1060" y="-231.5" font-family="Helvetica,sans-Serif" font-size="10.00" fill="#000000">ValuesListTrait.h</text>
</a>
</g>
</g>
<!-- Node21&#45;&gt;Node22 -->
<g id="edge39" class="edge">
<title>Node21&#45;&gt;Node22</title>
<path fill="none" stroke="#191970" d="M1060,-296.9005C1060,-288.5099 1060,-275.9451 1060,-264.7085"/>
<polygon fill="#191970" stroke="#191970" points="1063.5001,-264.5217 1060,-254.5218 1056.5001,-264.5218 1063.5001,-264.5217"/>
</g>
<!-- Node23 -->
<g id="node24" class="node">
<title>Node23</title>
<g id="a_node24"><a xlink:href="../../dd/d62/EnumString_8h.xhtml" target="_top" xlink:title="enfield/Support/EnumString.h">
<polygon fill="none" stroke="#000000" points="929.5,-168.5 929.5,-187.5 1088.5,-187.5 1088.5,-168.5 929.5,-168.5"/>
<text text-anchor="middle" x="1009" y="-175.5" font-family="Helvetica,sans-Serif" font-size="10.00" fill="#000000">enfield/Support/EnumString.h</text>
</a>
</g>
</g>
<!-- Node22&#45;&gt;Node23 -->
<g id="edge40" class="edge">
<title>Node22&#45;&gt;Node23</title>
<path fill="none" stroke="#191970" d="M1047.3933,-224.2977C1040.2402,-215.672 1031.2503,-204.8312 1023.7682,-195.8087"/>
<polygon fill="#191970" stroke="#191970" points="1026.2433,-193.3103 1017.1657,-187.8469 1020.855,-197.7787 1026.2433,-193.3103"/>
</g>
<!-- Node23&#45;&gt;Node7 -->
<g id="edge46" class="edge">
<title>Node23&#45;&gt;Node7</title>
<path fill="none" stroke="#191970" d="M984.4825,-168.363C965.7259,-160.3001 939.8034,-147.6166 920,-132 902.4462,-118.1574 886.1792,-98.3264 875.5543,-84.0201"/>
<polygon fill="#191970" stroke="#191970" points="878.1207,-81.5954 869.4303,-75.5351 872.4447,-85.6921 878.1207,-81.5954"/>
</g>
<!-- Node24 -->
<g id="node25" class="node">
<title>Node24</title>
<g id="a_node25"><a xlink:href="../../d1/d73/Defs_8h.xhtml" target="_top" xlink:title="enfield/Support/Defs.h">
<polygon fill="none" stroke="#000000" points="1125.5,-112.5 1125.5,-131.5 1250.5,-131.5 1250.5,-112.5 1125.5,-112.5"/>
<text text-anchor="middle" x="1188" y="-119.5" font-family="Helvetica,sans-Serif" font-size="10.00" fill="#000000">enfield/Support/Defs.h</text>
</a>
</g>
</g>
<!-- Node23&#45;&gt;Node24 -->
<g id="edge41" class="edge">
<title>Node23&#45;&gt;Node24</title>
<path fill="none" stroke="#191970" d="M1039.7712,-168.3733C1069.665,-159.021 1115.2093,-144.7725 1147.9217,-134.5385"/>
<polygon fill="#191970" stroke="#191970" points="1149.1315,-137.8273 1157.6303,-131.5011 1147.0414,-131.1466 1149.1315,-137.8273"/>
</g>
<!-- Node28 -->
<g id="node29" class="node">
<title>Node28</title>
<polygon fill="none" stroke="#bfbfbf" points="929,-112.5 929,-131.5 993,-131.5 993,-112.5 929,-112.5"/>
<text text-anchor="middle" x="961" y="-119.5" font-family="Helvetica,sans-Serif" font-size="10.00" fill="#000000">algorithm</text>
</g>
<!-- Node23&#45;&gt;Node28 -->
<g id="edge47" class="edge">
<title>Node23&#45;&gt;Node28</title>
<path fill="none" stroke="#191970" d="M1000.639,-168.2455C993.825,-160.2958 984.0319,-148.8706 975.8848,-139.3656"/>
<polygon fill="#191970" stroke="#191970" points="978.4305,-136.9575 969.2651,-131.6427 973.1157,-141.513 978.4305,-136.9575"/>
</g>
<!-- Node29 -->
<g id="node30" class="node">
<title>Node29</title>
<polygon fill="none" stroke="#bfbfbf" points="1011.5,-112.5 1011.5,-131.5 1068.5,-131.5 1068.5,-112.5 1011.5,-112.5"/>
<text text-anchor="middle" x="1040" y="-119.5" font-family="Helvetica,sans-Serif" font-size="10.00" fill="#000000">typeinfo</text>
</g>
<!-- Node23&#45;&gt;Node29 -->
<g id="edge48" class="edge">
<title>Node23&#45;&gt;Node29</title>
<path fill="none" stroke="#191970" d="M1014.3998,-168.2455C1018.6227,-160.617 1024.6173,-149.7881 1029.7441,-140.5267"/>
<polygon fill="#191970" stroke="#191970" points="1032.881,-142.0867 1034.6621,-131.6427 1026.7568,-138.6965 1032.881,-142.0867"/>
</g>
<!-- Node24&#45;&gt;Node7 -->
<g id="edge42" class="edge">
<title>Node24&#45;&gt;Node7</title>
<path fill="none" stroke="#191970" d="M1132.4998,-112.4369C1064.8829,-100.786 952.7716,-81.4683 896.8687,-71.8358"/>
<polygon fill="#191970" stroke="#191970" points="897.2365,-68.3477 886.7874,-70.0988 896.0479,-75.2461 897.2365,-68.3477"/>
</g>
<!-- Node25 -->
<g id="node26" class="node">
<title>Node25</title>
<polygon fill="none" stroke="#bfbfbf" points="1139,-56.5 1139,-75.5 1189,-75.5 1189,-56.5 1139,-56.5"/>
<text text-anchor="middle" x="1164" y="-63.5" font-family="Helvetica,sans-Serif" font-size="10.00" fill="#000000">cstdint</text>
</g>
<!-- Node24&#45;&gt;Node25 -->
<g id="edge43" class="edge">
<title>Node24&#45;&gt;Node25</title>
<path fill="none" stroke="#191970" d="M1183.8195,-112.2455C1180.619,-104.7776 1176.104,-94.2427 1172.1916,-85.1137"/>
<polygon fill="#191970" stroke="#191970" points="1175.2888,-83.4554 1168.1326,-75.6427 1168.8548,-86.2129 1175.2888,-83.4554"/>
</g>
<!-- Node26 -->
<g id="node27" class="node">
<title>Node26</title>
<polygon fill="none" stroke="#bfbfbf" points="1207,-56.5 1207,-75.5 1251,-75.5 1251,-56.5 1207,-56.5"/>
<text text-anchor="middle" x="1229" y="-63.5" font-family="Helvetica,sans-Serif" font-size="10.00" fill="#000000">limits</text>
</g>
<!-- Node24&#45;&gt;Node26 -->
<g id="edge44" class="edge">
<title>Node24&#45;&gt;Node26</title>
<path fill="none" stroke="#191970" d="M1195.1417,-112.2455C1200.8444,-104.4564 1208.99,-93.3308 1215.8625,-83.9439"/>
<polygon fill="#191970" stroke="#191970" points="1218.8568,-85.7789 1221.9402,-75.6427 1213.2087,-81.6437 1218.8568,-85.7789"/>
</g>
<!-- Node27 -->
<g id="node28" class="node">
<title>Node27</title>
<polygon fill="none" stroke="#bfbfbf" points="1063.5,-56.5 1063.5,-75.5 1120.5,-75.5 1120.5,-56.5 1063.5,-56.5"/>
<text text-anchor="middle" x="1092" y="-63.5" font-family="Helvetica,sans-Serif" font-size="10.00" fill="#000000">ostream</text>
</g>
<!-- Node24&#45;&gt;Node27 -->
<g id="edge45" class="edge">
<title>Node24&#45;&gt;Node27</title>
<path fill="none" stroke="#191970" d="M1171.2781,-112.2455C1156.4111,-103.5731 1134.4534,-90.7645 1117.4142,-80.825"/>
<polygon fill="#191970" stroke="#191970" points="1118.9317,-77.6582 1108.5303,-75.6427 1115.4045,-83.7047 1118.9317,-77.6582"/>
</g>
<!-- Node30&#45;&gt;Node9 -->
<g id="edge54" class="edge">
<title>Node30&#45;&gt;Node9</title>
<path fill="none" stroke="#191970" d="M128.0741,-113.0609C131.09,-112.6911 134.077,-112.3353 137,-112 306.2959,-92.5801 353.1942,-105.1683 525.7949,-75.7526"/>
<polygon fill="#191970" stroke="#191970" points="526.4621,-79.1893 535.7207,-74.0387 525.2709,-72.2914 526.4621,-79.1893"/>
</g>
<!-- Node30&#45;&gt;Node15 -->
<g id="edge53" class="edge">
<title>Node30&#45;&gt;Node15</title>
<path fill="none" stroke="#191970" d="M64,-112.2455C64,-104.9382 64,-94.6944 64,-85.7046"/>
<polygon fill="#191970" stroke="#191970" points="67.5001,-85.6426 64,-75.6427 60.5001,-85.6427 67.5001,-85.6426"/>
</g>
<!-- Node31&#45;&gt;Node5 -->
<g id="edge57" class="edge">
<title>Node31&#45;&gt;Node5</title>
<path fill="none" stroke="#191970" d="M797.663,-224.4554C752.0485,-213.7889 691.696,-199.6761 649.5294,-189.8158"/>
<polygon fill="#191970" stroke="#191970" points="650.29,-186.3993 639.7557,-187.5303 648.696,-193.2154 650.29,-186.3993"/>
</g>
<!-- Node31&#45;&gt;Node24 -->
<g id="edge58" class="edge">
<title>Node31&#45;&gt;Node24</title>
<path fill="none" stroke="#191970" d="M937.0761,-231.2639C984.7491,-224.0873 1046.8722,-211.0658 1098,-188 1125.6244,-175.5376 1153.0886,-153.6672 1170.2769,-138.5365"/>
<polygon fill="#191970" stroke="#191970" points="1172.7563,-141.0137 1177.8449,-131.7209 1168.0719,-135.8121 1172.7563,-141.0137"/>
</g>
</g>
</svg>
        <g id="navigator" transform="translate(0 0)" fill="#404254">
                <rect fill="#f2f5e9" fill-opacity="0.5" stroke="#606060" stroke-width=".5" x="0" y="0" width="60" height="60"/>
                <use id="zoomplus" xlink:href="#zoomPlus" x="17" y="9" onmousedown="handleZoom(evt,'in')"/>
                <use id="zoomminus" xlink:href="#zoomMin" x="42" y="9" onmousedown="handleZoom(evt,'out')"/>
                <use id="reset" xlink:href="#resetDef" x="30" y="36" onmousedown="handleReset()"/>
                <g id="arrowUp" xlink:href="#dirArrow" transform="translate(30 24)" onmousedown="handlePan(0,-1)">
                  <use xlink:href="#rim" fill="#404040">
                        <set attributeName="fill" to="#808080" begin="arrowUp.mouseover" end="arrowUp.mouseout"/>
                  </use>
                  <path fill="none" stroke="white" stroke-width="1.5" d="M0,-3.0v7 M-2.5,-0.5L0,-3.0L2.5,-0.5"/>
                </g>
                <g id="arrowRight" xlink:href="#dirArrow" transform="rotate(90) translate(36 -43)" onmousedown="handlePan(1,0)">
                  <use xlink:href="#rim" fill="#404040">
                        <set attributeName="fill" to="#808080" begin="arrowRight.mouseover" end="arrowRight.mouseout"/>
                  </use>
                  <path fill="none" stroke="white" stroke-width="1.5" d="M0,-3.0v7 M-2.5,-0.5L0,-3.0L2.5,-0.5"/>
                </g>
                <g id="arrowDown" xlink:href="#dirArrow" transform="rotate(180) translate(-30 -48)" onmousedown="handlePan(0,1)">
                  <use xlink:href="#rim" fill="#404040">
                        <set attributeName="fill" to="#808080" begin="arrowDown.mouseover" end="arrowDown.mouseout"/>
                  </use>
                  <path fill="none" stroke="white" stroke-width="1.5" d="M0,-3.0v7 M-2.5,-0.5L0,-3.0L2.5,-0.5"/>
                </g>
                <g id="arrowLeft" xlink:href="#dirArrow" transform="rotate(270) translate(-36 17)" onmousedown="handlePan(-1,0)">
                  <use xlink:href="#rim" fill="#404040">
                        <set attributeName="fill" to="#808080" begin="arrowLeft.mouseover" end="arrowLeft.mouseout"/>
                  </use>
                  <path fill="none" stroke="white" stroke-width="1.5" d="M0,-3.0v7 M-2.5,-0.5L0,-3.0L2.5,-0.5"/>
                </g>
        </g>
        <svg viewBox="0 0 15 15" width="100%" height="30px" preserveAspectRatio="xMaxYMin meet">
         <g id="arrow_out" transform="scale(0.3 0.3)">
          <a xlink:href="DefaultBMTQAllocatorImpl_8cpp__incl_org.svg" target="_base">
           <rect id="button" ry="5" rx="5" y="6" x="6" height="38" width="38"
                fill="#f2f5e9" fill-opacity="0.5" stroke="#606060" stroke-width="1.0"/>
           <path id="arrow"
             d="M 11.500037,31.436501 C 11.940474,20.09759 22.043105,11.32322 32.158766,21.979434 L 37.068811,17.246167 C 37.068811,17.246167 37.088388,32 37.088388,32 L 22.160133,31.978069 C 22.160133,31.978069 26.997745,27.140456 26.997745,27.140456 C 18.528582,18.264221 13.291696,25.230495 11.500037,31.436501 z"
             style="fill:#404040;"/>
          </a>
         </g>
        </svg>
</svg>
