<?xml version="1.0" encoding="UTF-8" standalone="no"?>
<!DOCTYPE svg PUBLIC "-//W3C//DTD SVG 1.1//EN"
 "http://www.w3.org/Graphics/SVG/1.1/DTD/svg11.dtd">
<!-- Generated by graphviz version 2.38.0 (20140413.2041)
 -->
<!-- Title: efd::SolutionImplPass::run Pages: 1 -->
<svg width="641pt" height="404pt"
 viewBox="0.00 0.00 641.00 404.00" xmlns="http://www.w3.org/2000/svg" xmlns:xlink="http://www.w3.org/1999/xlink">
<g id="graph0" class="graph" transform="scale(1 1) rotate(0) translate(4 400)">
<title>efd::SolutionImplPass::run</title>
<!-- Node1 -->
<g id="node1" class="node"><title>Node1</title>
<polygon fill="#bfbfbf" stroke="black" points="0,-212.5 0,-231.5 132,-231.5 132,-212.5 0,-212.5"/>
<text text-anchor="middle" x="66" y="-219.5" font-family="Helvetica,sans-Serif" font-size="10.00">efd::SolutionImplPass::run</text>
</g>
<!-- Node2 -->
<g id="node2" class="node"><title>Node2</title>
<g id="a_node2"><a xlink:href="../../d6/d6a/classefd_1_1Node.xhtml#ab813c60af1717cf50e92a28b274c24ef" target="_top" xlink:title="Used by visitor classes. ">
<polygon fill="none" stroke="black" points="202.5,-376.5 202.5,-395.5 291.5,-395.5 291.5,-376.5 202.5,-376.5"/>
<text text-anchor="middle" x="247" y="-383.5" font-family="Helvetica,sans-Serif" font-size="10.00">efd::Node::apply</text>
</a>
</g>
</g>
<!-- Node1&#45;&gt;Node2 -->
<g id="edge1" class="edge"><title>Node1&#45;&gt;Node2</title>
<path fill="none" stroke="midnightblue" d="M70.7687,-231.578C81.5835,-257.753 115.358,-330.934 168,-367 175.352,-372.037 183.896,-375.743 192.58,-378.468"/>
<polygon fill="midnightblue" stroke="midnightblue" points="191.818,-381.888 202.387,-381.148 193.663,-375.136 191.818,-381.888"/>
</g>
<!-- Node3 -->
<g id="node3" class="node"><title>Node3</title>
<g id="a_node3"><a xlink:href="../../d1/df9/classefd_1_1PassCache.xhtml#a8c54d0a438f35de5629ae78c886687a8" target="_top" xlink:title="Gets a shared pointer to the pass T run in qmod. If it does not exist, it tries to run...">
<polygon fill="none" stroke="black" points="192.5,-338.5 192.5,-357.5 301.5,-357.5 301.5,-338.5 192.5,-338.5"/>
<text text-anchor="middle" x="247" y="-345.5" font-family="Helvetica,sans-Serif" font-size="10.00">efd::PassCache::Get</text>
</a>
</g>
</g>
<!-- Node1&#45;&gt;Node3 -->
<g id="edge2" class="edge"><title>Node1&#45;&gt;Node3</title>
<path fill="none" stroke="midnightblue" d="M73.2555,-231.752C87.3988,-252.967 124.052,-303.451 168,-329 172.669,-331.714 177.712,-334.042 182.908,-336.039"/>
<polygon fill="midnightblue" stroke="midnightblue" points="181.785,-339.354 192.38,-339.286 184.055,-332.732 181.785,-339.354"/>
</g>
<!-- Node4 -->
<g id="node4" class="node"><title>Node4</title>
<g id="a_node4"><a xlink:href="../../db/d56/classefd_1_1PassT.xhtml#aae3442c1486bcec7622a64451262d684" target="_top" xlink:title="efd::PassT::getData">
<polygon fill="none" stroke="black" points="194.5,-300.5 194.5,-319.5 299.5,-319.5 299.5,-300.5 194.5,-300.5"/>
<text text-anchor="middle" x="247" y="-307.5" font-family="Helvetica,sans-Serif" font-size="10.00">efd::PassT::getData</text>
</a>
</g>
</g>
<!-- Node1&#45;&gt;Node4 -->
<g id="edge3" class="edge"><title>Node1&#45;&gt;Node4</title>
<path fill="none" stroke="midnightblue" d="M78.004,-231.53C95.7465,-246.41 132.308,-275.098 168,-291 173.464,-293.435 179.289,-295.587 185.2,-297.483"/>
<polygon fill="midnightblue" stroke="midnightblue" points="184.597,-300.955 195.18,-300.437 186.584,-294.243 184.597,-300.955"/>
</g>
<!-- Node5 -->
<g id="node5" class="node"><title>Node5</title>
<g id="a_node5"><a xlink:href="../../db/d0c/structefd_1_1XbitToNumber.xhtml#a5ec70df49186af44e04433433bd13090" target="_top" xlink:title="Get a Node::Ref, representing that qbit. ">
<polygon fill="none" stroke="black" points="194.5,-251 194.5,-281 299.5,-281 299.5,-251 194.5,-251"/>
<text text-anchor="start" x="202.5" y="-269" font-family="Helvetica,sans-Serif" font-size="10.00">efd::XbitToNumber::</text>
<text text-anchor="middle" x="247" y="-258" font-family="Helvetica,sans-Serif" font-size="10.00">getQNode</text>
</a>
</g>
</g>
<!-- Node1&#45;&gt;Node5 -->
<g id="edge4" class="edge"><title>Node1&#45;&gt;Node5</title>
<path fill="none" stroke="midnightblue" d="M105.84,-231.547C128.816,-237.195 158.434,-244.475 184.52,-250.888"/>
<polygon fill="midnightblue" stroke="midnightblue" points="183.777,-254.309 194.323,-253.297 185.448,-247.511 183.777,-254.309"/>
</g>
<!-- Node8 -->
<g id="node8" class="node"><title>Node8</title>
<g id="a_node8"><a xlink:href="../../db/d0c/structefd_1_1XbitToNumber.xhtml#ab395508705fe60ed3bd0cfb28eb5ffc6" target="_top" xlink:title="Returns the number of qbits in a given gate (if any). ">
<polygon fill="none" stroke="black" points="373.5,-207 373.5,-237 478.5,-237 478.5,-207 373.5,-207"/>
<text text-anchor="start" x="381.5" y="-225" font-family="Helvetica,sans-Serif" font-size="10.00">efd::XbitToNumber::</text>
<text text-anchor="middle" x="426" y="-214" font-family="Helvetica,sans-Serif" font-size="10.00">getQSize</text>
</a>
</g>
</g>
<!-- Node1&#45;&gt;Node8 -->
<g id="edge8" class="edge"><title>Node1&#45;&gt;Node8</title>
<path fill="none" stroke="midnightblue" d="M132.246,-222C198.005,-222 298.736,-222 363.229,-222"/>
<polygon fill="midnightblue" stroke="midnightblue" points="363.257,-225.5 373.257,-222 363.257,-218.5 363.257,-225.5"/>
</g>
<!-- Node9 -->
<g id="node9" class="node"><title>Node9</title>
<g id="a_node9"><a xlink:href="../../d4/deb/namespaceefd.xhtml#aac5a20e6db5d358cf72d4816441d0b0d" target="_top" xlink:title="Prints the mapping m to a string and returns it. ">
<polygon fill="none" stroke="black" points="192,-174.5 192,-193.5 302,-193.5 302,-174.5 192,-174.5"/>
<text text-anchor="middle" x="247" y="-181.5" font-family="Helvetica,sans-Serif" font-size="10.00">efd::MappingToString</text>
</a>
</g>
</g>
<!-- Node1&#45;&gt;Node9 -->
<g id="edge10" class="edge"><title>Node1&#45;&gt;Node9</title>
<path fill="none" stroke="midnightblue" d="M112.169,-212.411C136.216,-207.306 165.974,-200.989 191.319,-195.608"/>
<polygon fill="midnightblue" stroke="midnightblue" points="192.1,-199.02 201.156,-193.52 190.647,-192.173 192.1,-199.02"/>
</g>
<!-- Node10 -->
<g id="node10" class="node"><title>Node10</title>
<g id="a_node10"><a xlink:href="../../dd/d52/classefd_1_1QModule.xhtml#abaf0b3dd099e4b098b89772b6a134d07" target="_top" xlink:title="Replaces the stmt by the vector stmts. ">
<polygon fill="none" stroke="black" points="168,-98.5 168,-117.5 326,-117.5 326,-98.5 168,-98.5"/>
<text text-anchor="middle" x="247" y="-105.5" font-family="Helvetica,sans-Serif" font-size="10.00">efd::QModule::replaceStatement</text>
</a>
</g>
</g>
<!-- Node1&#45;&gt;Node10 -->
<g id="edge11" class="edge"><title>Node1&#45;&gt;Node10</title>
<path fill="none" stroke="midnightblue" d="M74.2084,-212.497C89.3533,-193.23 126.523,-149.49 168,-127 172.219,-124.712 176.715,-122.696 181.336,-120.92"/>
<polygon fill="midnightblue" stroke="midnightblue" points="182.64,-124.172 190.95,-117.601 180.356,-117.556 182.64,-124.172"/>
</g>
<!-- Node16 -->
<g id="node16" class="node"><title>Node16</title>
<g id="a_node16"><a xlink:href="../../dd/d52/classefd_1_1QModule.xhtml#ac00e1eb93f94c00db1e6a661d8f95d9d" target="_top" xlink:title="Iterator to the beginning of the statement node vector. ">
<polygon fill="none" stroke="black" points="196.5,-30 196.5,-60 297.5,-60 297.5,-30 196.5,-30"/>
<text text-anchor="start" x="204.5" y="-48" font-family="Helvetica,sans-Serif" font-size="10.00">efd::QModule::stmt</text>
<text text-anchor="middle" x="247" y="-37" font-family="Helvetica,sans-Serif" font-size="10.00">_begin</text>
</a>
</g>
</g>
<!-- Node1&#45;&gt;Node16 -->
<g id="edge17" class="edge"><title>Node1&#45;&gt;Node16</title>
<path fill="none" stroke="midnightblue" d="M72.4922,-212.234C86.1286,-188.653 123.652,-127.697 168,-89 178.549,-79.7953 191.327,-71.6221 203.462,-64.8937"/>
<polygon fill="midnightblue" stroke="midnightblue" points="205.391,-67.8312 212.568,-60.0368 202.097,-61.6548 205.391,-67.8312"/>
</g>
<!-- Node18 -->
<g id="node18" class="node"><title>Node18</title>
<g id="a_node18"><a xlink:href="../../dd/d52/classefd_1_1QModule.xhtml#a23d45e3b6c65d5fa14b199da8b0617c7" target="_top" xlink:title="Iterator to the end of the statement node vector. ">
<polygon fill="none" stroke="black" points="186,-136.5 186,-155.5 308,-155.5 308,-136.5 186,-136.5"/>
<text text-anchor="middle" x="247" y="-143.5" font-family="Helvetica,sans-Serif" font-size="10.00">efd::QModule::stmt_end</text>
</a>
</g>
</g>
<!-- Node1&#45;&gt;Node18 -->
<g id="edge19" class="edge"><title>Node1&#45;&gt;Node18</title>
<path fill="none" stroke="midnightblue" d="M81.0938,-212.381C100.066,-199.831 135.231,-177.951 168,-165 174.357,-162.487 181.142,-160.24 187.957,-158.249"/>
<polygon fill="midnightblue" stroke="midnightblue" points="189.2,-161.537 197.916,-155.513 187.346,-154.787 189.2,-161.537"/>
</g>
<!-- Node6 -->
<g id="node6" class="node"><title>Node6</title>
<g id="a_node6"><a xlink:href="../../db/d0c/structefd_1_1XbitToNumber.xhtml#a58b4d8cab140b577430f717ba0a9fde8" target="_top" xlink:title="Returns the std::string id representation of the corresponding qubit, represented by uint32_t id in t...">
<polygon fill="none" stroke="black" points="373.5,-295 373.5,-325 478.5,-325 478.5,-295 373.5,-295"/>
<text text-anchor="start" x="381.5" y="-313" font-family="Helvetica,sans-Serif" font-size="10.00">efd::XbitToNumber::</text>
<text text-anchor="middle" x="426" y="-302" font-family="Helvetica,sans-Serif" font-size="10.00">getQStrId</text>
</a>
</g>
</g>
<!-- Node5&#45;&gt;Node6 -->
<g id="edge5" class="edge"><title>Node5&#45;&gt;Node6</title>
<path fill="none" stroke="midnightblue" d="M299.672,-278.845C319.668,-283.816 342.717,-289.545 363.552,-294.725"/>
<polygon fill="midnightblue" stroke="midnightblue" points="362.715,-298.123 373.264,-297.139 364.404,-291.33 362.715,-298.123"/>
</g>
<!-- Node7 -->
<g id="node7" class="node"><title>Node7</title>
<g id="a_node7"><a xlink:href="../../db/d0c/structefd_1_1XbitToNumber.xhtml#a7d9474b325920d98f5832d5f1923ba2b" target="_top" xlink:title="Gets a constant reference to the mapping of qubtis of a gate. ">
<polygon fill="none" stroke="black" points="527,-251 527,-281 632,-281 632,-251 527,-251"/>
<text text-anchor="start" x="535" y="-269" font-family="Helvetica,sans-Serif" font-size="10.00">efd::XbitToNumber::</text>
<text text-anchor="middle" x="579.5" y="-258" font-family="Helvetica,sans-Serif" font-size="10.00">getQbitMap</text>
</a>
</g>
</g>
<!-- Node5&#45;&gt;Node7 -->
<g id="edge7" class="edge"><title>Node5&#45;&gt;Node7</title>
<path fill="none" stroke="midnightblue" d="M299.641,-266C358.37,-266 454.206,-266 516.815,-266"/>
<polygon fill="midnightblue" stroke="midnightblue" points="516.95,-269.5 526.95,-266 516.95,-262.5 516.95,-269.5"/>
</g>
<!-- Node6&#45;&gt;Node7 -->
<g id="edge6" class="edge"><title>Node6&#45;&gt;Node7</title>
<path fill="none" stroke="midnightblue" d="M478.714,-294.981C491.078,-291.39 504.394,-287.522 517.146,-283.819"/>
<polygon fill="midnightblue" stroke="midnightblue" points="518.135,-287.176 526.762,-281.026 516.183,-280.454 518.135,-287.176"/>
</g>
<!-- Node8&#45;&gt;Node7 -->
<g id="edge9" class="edge"><title>Node8&#45;&gt;Node7</title>
<path fill="none" stroke="midnightblue" d="M478.714,-237.019C491.078,-240.61 504.394,-244.478 517.146,-248.181"/>
<polygon fill="midnightblue" stroke="midnightblue" points="516.183,-251.546 526.762,-250.974 518.135,-244.824 516.183,-251.546"/>
</g>
<!-- Node11 -->
<g id="node11" class="node"><title>Node11</title>
<g id="a_node11"><a xlink:href="../../da/ddd/classefd_1_1NDList.xhtml#aa407fd205c6c9841cf866fa023337ece" target="_top" xlink:title="Inserts children in the iterator it. The iterator goes to the first new inserted element. ">
<polygon fill="none" stroke="black" points="363.5,-114.5 363.5,-133.5 488.5,-133.5 488.5,-114.5 363.5,-114.5"/>
<text text-anchor="middle" x="426" y="-121.5" font-family="Helvetica,sans-Serif" font-size="10.00">efd::NDList::addChildren</text>
</a>
</g>
</g>
<!-- Node10&#45;&gt;Node11 -->
<g id="edge12" class="edge"><title>Node10&#45;&gt;Node11</title>
<path fill="none" stroke="midnightblue" d="M326.15,-115.064C335.234,-115.886 344.465,-116.72 353.453,-117.533"/>
<polygon fill="midnightblue" stroke="midnightblue" points="353.204,-121.024 363.478,-118.439 353.834,-114.053 353.204,-121.024"/>
</g>
<!-- Node13 -->
<g id="node13" class="node"><title>Node13</title>
<g id="a_node13"><a xlink:href="../../d6/d6a/classefd_1_1Node.xhtml#a335606078a1d727de214982453c9dd1b" target="_top" xlink:title="Returns a iterator to the end of the vector. ">
<polygon fill="none" stroke="black" points="385.5,-152.5 385.5,-171.5 466.5,-171.5 466.5,-152.5 385.5,-152.5"/>
<text text-anchor="middle" x="426" y="-159.5" font-family="Helvetica,sans-Serif" font-size="10.00">efd::Node::end</text>
</a>
</g>
</g>
<!-- Node10&#45;&gt;Node13 -->
<g id="edge14" class="edge"><title>Node10&#45;&gt;Node13</title>
<path fill="none" stroke="midnightblue" d="M293.355,-117.593C304.161,-120.277 315.578,-123.447 326,-127 342.572,-132.65 345.586,-136.905 362,-143 367.974,-145.218 374.336,-147.372 380.632,-149.384"/>
<polygon fill="midnightblue" stroke="midnightblue" points="379.821,-152.797 390.409,-152.418 381.896,-146.111 379.821,-152.797"/>
</g>
<!-- Node14 -->
<g id="node14" class="node"><title>Node14</title>
<g id="a_node14"><a xlink:href="../../d6/d6a/classefd_1_1Node.xhtml#ae80bbf9487f0e43317c29c63a414ff34" target="_top" xlink:title="Returns a iterator pointing to the given child. ">
<polygon fill="none" stroke="black" points="374,-76.5 374,-95.5 478,-95.5 478,-76.5 374,-76.5"/>
<text text-anchor="middle" x="426" y="-83.5" font-family="Helvetica,sans-Serif" font-size="10.00">efd::Node::findChild</text>
</a>
</g>
</g>
<!-- Node10&#45;&gt;Node14 -->
<g id="edge15" class="edge"><title>Node10&#45;&gt;Node14</title>
<path fill="none" stroke="midnightblue" d="M324.605,-98.4784C337.728,-96.8474 351.206,-95.1722 363.857,-93.5997"/>
<polygon fill="midnightblue" stroke="midnightblue" points="364.311,-97.0704 373.802,-92.3635 363.447,-90.1238 364.311,-97.0704"/>
</g>
<!-- Node15 -->
<g id="node15" class="node"><title>Node15</title>
<g id="a_node15"><a xlink:href="../../da/ddd/classefd_1_1NDList.xhtml#ae7c4d5c8dcb0a7439b62e3f662cbb85f" target="_top" xlink:title="Removes the child in the iterator it. The iterator moves to the next element. ">
<polygon fill="none" stroke="black" points="362,-38.5 362,-57.5 490,-57.5 490,-38.5 362,-38.5"/>
<text text-anchor="middle" x="426" y="-45.5" font-family="Helvetica,sans-Serif" font-size="10.00">efd::NDList::removeChild</text>
</a>
</g>
</g>
<!-- Node10&#45;&gt;Node15 -->
<g id="edge16" class="edge"><title>Node10&#45;&gt;Node15</title>
<path fill="none" stroke="midnightblue" d="M273.224,-98.4993C296.238,-89.9337 331.244,-77.1606 362,-67 368.559,-64.833 375.535,-62.6297 382.364,-60.528"/>
<polygon fill="midnightblue" stroke="midnightblue" points="383.65,-63.7953 392.2,-57.5378 381.614,-57.098 383.65,-63.7953"/>
</g>
<!-- Node12 -->
<g id="node12" class="node"><title>Node12</title>
<g id="a_node12"><a xlink:href="../../d6/d6a/classefd_1_1Node.xhtml#a48e9d49d994b9023b8400316e2782e2b" target="_top" xlink:title="Sets the parent node of the current node. ">
<polygon fill="none" stroke="black" points="526,-114.5 526,-133.5 633,-133.5 633,-114.5 526,-114.5"/>
<text text-anchor="middle" x="579.5" y="-121.5" font-family="Helvetica,sans-Serif" font-size="10.00">efd::Node::setParent</text>
</a>
</g>
</g>
<!-- Node11&#45;&gt;Node12 -->
<g id="edge13" class="edge"><title>Node11&#45;&gt;Node12</title>
<path fill="none" stroke="midnightblue" d="M488.621,-124C497.453,-124 506.551,-124 515.411,-124"/>
<polygon fill="midnightblue" stroke="midnightblue" points="515.672,-127.5 525.672,-124 515.672,-120.5 515.672,-127.5"/>
</g>
<!-- Node17 -->
<g id="node17" class="node"><title>Node17</title>
<g id="a_node17"><a xlink:href="../../d6/d6a/classefd_1_1Node.xhtml#ae890d36b0dcb332d82616b3180da1886" target="_top" xlink:title="Returns a iterator to the beginning of the vector. ">
<polygon fill="none" stroke="black" points="381.5,-0.5 381.5,-19.5 470.5,-19.5 470.5,-0.5 381.5,-0.5"/>
<text text-anchor="middle" x="426" y="-7.5" font-family="Helvetica,sans-Serif" font-size="10.00">efd::Node::begin</text>
</a>
</g>
</g>
<!-- Node16&#45;&gt;Node17 -->
<g id="edge18" class="edge"><title>Node16&#45;&gt;Node17</title>
<path fill="none" stroke="midnightblue" d="M297.775,-35.1574C320.666,-30.631 347.863,-25.2531 371.223,-20.6338"/>
<polygon fill="midnightblue" stroke="midnightblue" points="372.184,-24.0116 381.316,-18.6382 370.826,-17.1446 372.184,-24.0116"/>
</g>
<!-- Node18&#45;&gt;Node13 -->
<g id="edge20" class="edge"><title>Node18&#45;&gt;Node13</title>
<path fill="none" stroke="midnightblue" d="M308.418,-151.462C330.179,-153.429 354.467,-155.624 375.218,-157.5"/>
<polygon fill="midnightblue" stroke="midnightblue" points="375.129,-161.006 385.403,-158.421 375.759,-154.034 375.129,-161.006"/>
</g>
</g>
</svg>
