<?xml version="1.0" encoding="UTF-8" standalone="no"?>
<!DOCTYPE svg PUBLIC "-//W3C//DTD SVG 1.1//EN"
 "http://www.w3.org/Graphics/SVG/1.1/DTD/svg11.dtd">
<!-- Generated by graphviz version 2.38.0 (20140413.2041)
 -->
<!-- Title: efd::DependencyBuilderWrapperPass Pages: 1 -->
<svg width="306pt" height="219pt"
 viewBox="0.00 0.00 305.50 219.00" xmlns="http://www.w3.org/2000/svg" xmlns:xlink="http://www.w3.org/1999/xlink">
<g id="graph0" class="graph" transform="scale(1 1) rotate(0) translate(4 215)">
<title>efd::DependencyBuilderWrapperPass</title>
<!-- Node4 -->
<g id="node1" class="node"><title>Node4</title>
<polygon fill="#bfbfbf" stroke="black" points="3.5,-0.5 3.5,-19.5 183.5,-19.5 183.5,-0.5 3.5,-0.5"/>
<text text-anchor="middle" x="93.5" y="-7.5" font-family="Helvetica,sans-Serif" font-size="10.00">efd::DependencyBuilderWrapperPass</text>
</g>
<!-- Node5 -->
<g id="node2" class="node"><title>Node5</title>
<g id="a_node2"><a xlink:href="../../db/d56/classefd_1_1PassT.xhtml" target="_top" xlink:title="efd::PassT\&lt; DependencyBuilder \&gt;">
<polygon fill="none" stroke="black" points="10,-57.5 10,-76.5 177,-76.5 177,-57.5 10,-57.5"/>
<text text-anchor="middle" x="93.5" y="-64.5" font-family="Helvetica,sans-Serif" font-size="10.00">efd::PassT&lt; DependencyBuilder &gt;</text>
</a>
</g>
</g>
<!-- Node5&#45;&gt;Node4 -->
<g id="edge1" class="edge"><title>Node5&#45;&gt;Node4</title>
<path fill="none" stroke="midnightblue" d="M93.5,-47.1166C93.5,-37.8173 93.5,-27.0557 93.5,-19.7149"/>
<polygon fill="midnightblue" stroke="midnightblue" points="90.0001,-47.4062 93.5,-57.4062 97.0001,-47.4063 90.0001,-47.4062"/>
</g>
<!-- Node6 -->
<g id="node3" class="node"><title>Node6</title>
<g id="a_node3"><a xlink:href="../../d0/d98/classefd_1_1Pass.xhtml" target="_top" xlink:title="Base class for implementation of QModule passes. This information will be used when the QModule&#39;s fun...">
<polygon fill="none" stroke="black" points="0,-191.5 0,-210.5 59,-210.5 59,-191.5 0,-191.5"/>
<text text-anchor="middle" x="29.5" y="-198.5" font-family="Helvetica,sans-Serif" font-size="10.00">efd::Pass</text>
</a>
</g>
</g>
<!-- Node6&#45;&gt;Node5 -->
<g id="edge2" class="edge"><title>Node6&#45;&gt;Node5</title>
<path fill="none" stroke="midnightblue" d="M29.817,-180.877C30.7564,-164.935 33.7122,-142.005 42.5,-124 52.0744,-104.383 70.676,-86.6605 82.572,-76.6238"/>
<polygon fill="midnightblue" stroke="midnightblue" points="26.3117,-180.955 29.4348,-191.079 33.3068,-181.217 26.3117,-180.955"/>
</g>
<!-- Node9 -->
<g id="node6" class="node"><title>Node9</title>
<g id="a_node6"><a xlink:href="../../db/d56/classefd_1_1PassT.xhtml" target="_top" xlink:title="Should serve as base class for classes that produces some data of type T. ">
<polygon fill="none" stroke="black" points="52,-124.5 52,-143.5 141,-143.5 141,-124.5 52,-124.5"/>
<text text-anchor="middle" x="96.5" y="-131.5" font-family="Helvetica,sans-Serif" font-size="10.00">efd::PassT&lt; T &gt;</text>
</a>
</g>
</g>
<!-- Node6&#45;&gt;Node9 -->
<g id="edge6" class="edge"><title>Node6&#45;&gt;Node9</title>
<path fill="none" stroke="midnightblue" d="M45.9956,-183.997C59.135,-171.25 77.0239,-153.895 87.6072,-143.627"/>
<polygon fill="midnightblue" stroke="midnightblue" points="43.2762,-181.759 38.5359,-191.234 48.1504,-186.783 43.2762,-181.759"/>
</g>
<!-- Node7 -->
<g id="node4" class="node"><title>Node7</title>
<g id="a_node4"><a xlink:href="../../d1/d76/structefd_1_1DependencyBuilder.xhtml" target="_top" xlink:title="Keep track of the dependencies of each qbit for the whole program, as well as the dependencies for ev...">
<polygon fill="none" stroke="black" points="162,-124.5 162,-143.5 283,-143.5 283,-124.5 162,-124.5"/>
<text text-anchor="middle" x="222.5" y="-131.5" font-family="Helvetica,sans-Serif" font-size="10.00">efd::DependencyBuilder</text>
</a>
</g>
</g>
<!-- Node7&#45;&gt;Node5 -->
<g id="edge3" class="edge"><title>Node7&#45;&gt;Node5</title>
<path fill="none" stroke="#9a32cd" stroke-dasharray="5,2" d="M215.614,-114.722C212.09,-107.616 207.122,-99.9988 200.5,-95 189.108,-86.4009 175.285,-80.5201 161.41,-76.5037"/>
<polygon fill="#9a32cd" stroke="#9a32cd" points="212.607,-116.592 219.767,-124.402 219.04,-113.832 212.607,-116.592"/>
<text text-anchor="middle" x="227" y="-98" font-family="Helvetica,sans-Serif" font-size="10.00"> mData</text>
</g>
<!-- Node8 -->
<g id="node5" class="node"><title>Node8</title>
<g id="a_node5"><a xlink:href="../../db/d0c/structefd_1_1XbitToNumber.xhtml" target="_top" xlink:title="Maps every quantum and classic bit (not register) to a number inside a vector. ">
<polygon fill="none" stroke="black" points="173,-191.5 173,-210.5 272,-210.5 272,-191.5 173,-191.5"/>
<text text-anchor="middle" x="222.5" y="-198.5" font-family="Helvetica,sans-Serif" font-size="10.00">efd::XbitToNumber</text>
</a>
</g>
</g>
<!-- Node8&#45;&gt;Node7 -->
<g id="edge4" class="edge"><title>Node8&#45;&gt;Node7</title>
<path fill="none" stroke="#9a32cd" stroke-dasharray="5,2" d="M222.5,-181.037C222.5,-168.67 222.5,-153.12 222.5,-143.627"/>
<polygon fill="#9a32cd" stroke="#9a32cd" points="219,-181.234 222.5,-191.234 226,-181.234 219,-181.234"/>
<text text-anchor="middle" x="260" y="-165" font-family="Helvetica,sans-Serif" font-size="10.00"> mXbitToNumber</text>
</g>
<!-- Node9&#45;&gt;Node5 -->
<g id="edge5" class="edge"><title>Node9&#45;&gt;Node5</title>
<path fill="none" stroke="orange" stroke-dasharray="5,2" d="M95.0041,-114.38C94.8124,-111.573 94.636,-108.711 94.5,-106 93.9974,-95.9813 93.7391,-84.4634 93.6122,-76.7585"/>
<polygon fill="orange" stroke="orange" points="91.5246,-114.785 95.7657,-124.494 98.5049,-114.26 91.5246,-114.785"/>
<text text-anchor="middle" x="147.5" y="-98" font-family="Helvetica,sans-Serif" font-size="10.00"> &lt; DependencyBuilder &gt;</text>
</g>
<!-- Node10 -->
<g id="node7" class="node"><title>Node10</title>
<polygon fill="none" stroke="#bfbfbf" points="82,-191.5 82,-210.5 111,-210.5 111,-191.5 82,-191.5"/>
<text text-anchor="middle" x="96.5" y="-198.5" font-family="Helvetica,sans-Serif" font-size="10.00">T</text>
</g>
<!-- Node10&#45;&gt;Node9 -->
<g id="edge7" class="edge"><title>Node10&#45;&gt;Node9</title>
<path fill="none" stroke="#9a32cd" stroke-dasharray="5,2" d="M96.5,-181.037C96.5,-168.67 96.5,-153.12 96.5,-143.627"/>
<polygon fill="#9a32cd" stroke="#9a32cd" points="93.0001,-181.234 96.5,-191.234 100,-181.234 93.0001,-181.234"/>
<text text-anchor="middle" x="113" y="-165" font-family="Helvetica,sans-Serif" font-size="10.00"> mData</text>
</g>
</g>
</svg>
