<?xml version="1.0" encoding="UTF-8" standalone="no"?>
<!DOCTYPE svg PUBLIC "-//W3C//DTD SVG 1.1//EN"
 "http://www.w3.org/Graphics/SVG/1.1/DTD/svg11.dtd">
<!-- Generated by graphviz version 2.38.0 (20140413.2041)
 -->
<!-- Title: include/enfield/Transform/CircuitGraphBuilderPass.h Pages: 1 -->
<svg width="619pt" height="274pt"
 viewBox="0.00 0.00 619.00 274.00" xmlns="http://www.w3.org/2000/svg" xmlns:xlink="http://www.w3.org/1999/xlink">
<g id="graph0" class="graph" transform="scale(1 1) rotate(0) translate(4 270)">
<title>include/enfield/Transform/CircuitGraphBuilderPass.h</title>
<!-- Node0 -->
<g id="node1" class="node"><title>Node0</title>
<polygon fill="#bfbfbf" stroke="black" points="307.5,-235.5 307.5,-265.5 442.5,-265.5 442.5,-235.5 307.5,-235.5"/>
<text text-anchor="start" x="315.5" y="-253.5" font-family="Helvetica,sans-Serif" font-size="10.00">include/enfield/Transform</text>
<text text-anchor="middle" x="375" y="-242.5" font-family="Helvetica,sans-Serif" font-size="10.00">/CircuitGraphBuilderPass.h</text>
</g>
<!-- Node1 -->
<g id="node2" class="node"><title>Node1</title>
<g id="a_node2"><a xlink:href="../../d4/daf/Nodes_8h.xhtml" target="_top" xlink:title="enfield/Analysis/Nodes.h">
<polygon fill="none" stroke="black" points="236.5,-112.5 236.5,-131.5 361.5,-131.5 361.5,-112.5 236.5,-112.5"/>
<text text-anchor="middle" x="299" y="-119.5" font-family="Helvetica,sans-Serif" font-size="10.00">enfield/Analysis/Nodes.h</text>
</a>
</g>
</g>
<!-- Node0&#45;&gt;Node1 -->
<g id="edge1" class="edge"><title>Node0&#45;&gt;Node1</title>
<path fill="none" stroke="midnightblue" d="M307.131,-243.486C277.799,-237.124 246.108,-224.368 228,-199 219.995,-187.786 221.359,-180.072 228,-168 235.887,-153.663 250.486,-143.253 264.403,-136.079"/>
<polygon fill="midnightblue" stroke="midnightblue" points="266.292,-139.058 273.839,-131.622 263.302,-132.728 266.292,-139.058"/>
</g>
<!-- Node9 -->
<g id="node10" class="node"><title>Node9</title>
<g id="a_node10"><a xlink:href="../../df/d29/Pass_8h.xhtml" target="_top" xlink:title="enfield/Transform/Pass.h">
<polygon fill="none" stroke="black" points="485,-112.5 485,-131.5 611,-131.5 611,-112.5 485,-112.5"/>
<text text-anchor="middle" x="548" y="-119.5" font-family="Helvetica,sans-Serif" font-size="10.00">enfield/Transform/Pass.h</text>
</a>
</g>
</g>
<!-- Node0&#45;&gt;Node9 -->
<g id="edge9" class="edge"><title>Node0&#45;&gt;Node9</title>
<path fill="none" stroke="midnightblue" d="M442.564,-243.256C473.958,-236.894 509.284,-224.203 532,-199 545.936,-183.538 548.883,-159.087 549.026,-142.111"/>
<polygon fill="midnightblue" stroke="midnightblue" points="552.517,-141.669 548.778,-131.755 545.519,-141.836 552.517,-141.669"/>
</g>
<!-- Node10 -->
<g id="node11" class="node"><title>Node10</title>
<g id="a_node11"><a xlink:href="../../d4/d73/QModule_8h.xhtml" target="_top" xlink:title="enfield/Transform/QModule.h">
<polygon fill="none" stroke="black" points="379.5,-174 379.5,-193 522.5,-193 522.5,-174 379.5,-174"/>
<text text-anchor="middle" x="451" y="-181" font-family="Helvetica,sans-Serif" font-size="10.00">enfield/Transform/QModule.h</text>
</a>
</g>
</g>
<!-- Node0&#45;&gt;Node10 -->
<g id="edge11" class="edge"><title>Node0&#45;&gt;Node10</title>
<path fill="none" stroke="midnightblue" d="M391.491,-235.396C403.693,-224.96 420.307,-210.751 432.879,-199.998"/>
<polygon fill="midnightblue" stroke="midnightblue" points="435.509,-202.354 440.834,-193.195 430.96,-197.034 435.509,-202.354"/>
</g>
<!-- Node12 -->
<g id="node13" class="node"><title>Node12</title>
<g id="a_node13"><a xlink:href="../../df/da6/CircuitGraph_8h.xhtml" target="_top" xlink:title="enfield/Transform/Circuit\lGraph.h">
<polygon fill="none" stroke="black" points="237,-168.5 237,-198.5 361,-198.5 361,-168.5 237,-168.5"/>
<text text-anchor="start" x="245" y="-186.5" font-family="Helvetica,sans-Serif" font-size="10.00">enfield/Transform/Circuit</text>
<text text-anchor="middle" x="299" y="-175.5" font-family="Helvetica,sans-Serif" font-size="10.00">Graph.h</text>
</a>
</g>
</g>
<!-- Node0&#45;&gt;Node12 -->
<g id="edge15" class="edge"><title>Node0&#45;&gt;Node12</title>
<path fill="none" stroke="midnightblue" d="M358.509,-235.396C348.152,-226.538 334.615,-214.96 323.07,-205.086"/>
<polygon fill="midnightblue" stroke="midnightblue" points="325.333,-202.416 315.459,-198.577 320.783,-207.736 325.333,-202.416"/>
</g>
<!-- Node2 -->
<g id="node3" class="node"><title>Node2</title>
<g id="a_node3"><a xlink:href="../../d1/d2e/WrapperVal_8h.xhtml" target="_top" xlink:title="enfield/Support/WrapperVal.h">
<polygon fill="none" stroke="black" points="134,-56.5 134,-75.5 278,-75.5 278,-56.5 134,-56.5"/>
<text text-anchor="middle" x="206" y="-63.5" font-family="Helvetica,sans-Serif" font-size="10.00">enfield/Support/WrapperVal.h</text>
</a>
</g>
</g>
<!-- Node1&#45;&gt;Node2 -->
<g id="edge2" class="edge"><title>Node1&#45;&gt;Node2</title>
<path fill="none" stroke="midnightblue" d="M284.058,-112.324C269.415,-103.822 246.866,-90.7288 229.762,-80.7975"/>
<polygon fill="midnightblue" stroke="midnightblue" points="231.31,-77.6491 220.905,-75.6545 227.795,-83.7027 231.31,-77.6491"/>
</g>
<!-- Node4 -->
<g id="node5" class="node"><title>Node4</title>
<g id="a_node5"><a xlink:href="../../d5/dfc/RTTI_8h.xhtml" target="_top" xlink:title="enfield/Support/RTTI.h">
<polygon fill="none" stroke="black" points="296,-56.5 296,-75.5 412,-75.5 412,-56.5 296,-56.5"/>
<text text-anchor="middle" x="354" y="-63.5" font-family="Helvetica,sans-Serif" font-size="10.00">enfield/Support/RTTI.h</text>
</a>
</g>
</g>
<!-- Node1&#45;&gt;Node4 -->
<g id="edge4" class="edge"><title>Node1&#45;&gt;Node4</title>
<path fill="none" stroke="midnightblue" d="M308.082,-112.083C316.171,-104.141 328.195,-92.3354 337.91,-82.7973"/>
<polygon fill="midnightblue" stroke="midnightblue" points="340.403,-85.2545 345.087,-75.7511 335.499,-80.2595 340.403,-85.2545"/>
</g>
<!-- Node5 -->
<g id="node6" class="node"><title>Node5</title>
<polygon fill="none" stroke="#bfbfbf" points="430.5,-56.5 430.5,-75.5 503.5,-75.5 503.5,-56.5 430.5,-56.5"/>
<text text-anchor="middle" x="467" y="-63.5" font-family="Helvetica,sans-Serif" font-size="10.00">initializer_list</text>
</g>
<!-- Node1&#45;&gt;Node5 -->
<g id="edge5" class="edge"><title>Node1&#45;&gt;Node5</title>
<path fill="none" stroke="midnightblue" d="M325.62,-112.444C354.006,-103.32 399.137,-88.8133 430.753,-78.6509"/>
<polygon fill="midnightblue" stroke="midnightblue" points="432.055,-81.9087 440.504,-75.5164 429.913,-75.2445 432.055,-81.9087"/>
</g>
<!-- Node6 -->
<g id="node7" class="node"><title>Node6</title>
<polygon fill="none" stroke="#bfbfbf" points="0,-56.5 0,-75.5 54,-75.5 54,-56.5 0,-56.5"/>
<text text-anchor="middle" x="27" y="-63.5" font-family="Helvetica,sans-Serif" font-size="10.00">iostream</text>
</g>
<!-- Node1&#45;&gt;Node6 -->
<g id="edge6" class="edge"><title>Node1&#45;&gt;Node6</title>
<path fill="none" stroke="midnightblue" d="M250.02,-112.495C204.323,-104.372 134.028,-91.4003 63.9695,-76.1179"/>
<polygon fill="midnightblue" stroke="midnightblue" points="64.6063,-72.6744 54.0881,-73.9464 63.1038,-79.5112 64.6063,-72.6744"/>
</g>
<!-- Node7 -->
<g id="node8" class="node"><title>Node7</title>
<polygon fill="none" stroke="#bfbfbf" points="72,-56.5 72,-75.5 116,-75.5 116,-56.5 72,-56.5"/>
<text text-anchor="middle" x="94" y="-63.5" font-family="Helvetica,sans-Serif" font-size="10.00">vector</text>
</g>
<!-- Node1&#45;&gt;Node7 -->
<g id="edge7" class="edge"><title>Node1&#45;&gt;Node7</title>
<path fill="none" stroke="midnightblue" d="M264.585,-112.418C231.418,-104.076 179.586,-90.8573 125.997,-76.2191"/>
<polygon fill="midnightblue" stroke="midnightblue" points="126.898,-72.8371 116.329,-73.5678 125.047,-79.5879 126.898,-72.8371"/>
</g>
<!-- Node8 -->
<g id="node9" class="node"><title>Node8</title>
<polygon fill="none" stroke="#bfbfbf" points="522,-56.5 522,-75.5 574,-75.5 574,-56.5 522,-56.5"/>
<text text-anchor="middle" x="548" y="-63.5" font-family="Helvetica,sans-Serif" font-size="10.00">memory</text>
</g>
<!-- Node1&#45;&gt;Node8 -->
<g id="edge8" class="edge"><title>Node1&#45;&gt;Node8</title>
<path fill="none" stroke="midnightblue" d="M342.571,-112.428C383.786,-104.188 447.606,-91.0887 511.775,-76.2121"/>
<polygon fill="midnightblue" stroke="midnightblue" points="512.714,-79.5872 521.658,-73.9074 511.124,-72.7702 512.714,-79.5872"/>
</g>
<!-- Node3 -->
<g id="node4" class="node"><title>Node3</title>
<polygon fill="none" stroke="#bfbfbf" points="185.5,-0.5 185.5,-19.5 226.5,-19.5 226.5,-0.5 185.5,-0.5"/>
<text text-anchor="middle" x="206" y="-7.5" font-family="Helvetica,sans-Serif" font-size="10.00">string</text>
</g>
<!-- Node2&#45;&gt;Node3 -->
<g id="edge3" class="edge"><title>Node2&#45;&gt;Node3</title>
<path fill="none" stroke="midnightblue" d="M206,-56.083C206,-49.0059 206,-38.8611 206,-29.9865"/>
<polygon fill="midnightblue" stroke="midnightblue" points="209.5,-29.751 206,-19.7511 202.5,-29.7511 209.5,-29.751"/>
</g>
<!-- Node9&#45;&gt;Node8 -->
<g id="edge10" class="edge"><title>Node9&#45;&gt;Node8</title>
<path fill="none" stroke="midnightblue" d="M548,-112.083C548,-105.006 548,-94.8611 548,-85.9865"/>
<polygon fill="midnightblue" stroke="midnightblue" points="551.5,-85.751 548,-75.7511 544.5,-85.7511 551.5,-85.751"/>
</g>
<!-- Node10&#45;&gt;Node1 -->
<g id="edge12" class="edge"><title>Node10&#45;&gt;Node1</title>
<path fill="none" stroke="midnightblue" d="M429.222,-173.975C403.262,-163.813 359.689,-146.756 330.165,-135.2"/>
<polygon fill="midnightblue" stroke="midnightblue" points="331.325,-131.895 320.737,-131.509 328.774,-138.413 331.325,-131.895"/>
</g>
<!-- Node10&#45;&gt;Node9 -->
<g id="edge13" class="edge"><title>Node10&#45;&gt;Node9</title>
<path fill="none" stroke="midnightblue" d="M464.898,-173.975C480.672,-164.299 506.637,-148.372 525.349,-136.894"/>
<polygon fill="midnightblue" stroke="midnightblue" points="527.434,-139.721 534.128,-131.509 523.774,-133.754 527.434,-139.721"/>
</g>
<!-- Node11 -->
<g id="node12" class="node"><title>Node11</title>
<polygon fill="none" stroke="#bfbfbf" points="381.5,-112.5 381.5,-131.5 464.5,-131.5 464.5,-112.5 381.5,-112.5"/>
<text text-anchor="middle" x="423" y="-119.5" font-family="Helvetica,sans-Serif" font-size="10.00">unordered_map</text>
</g>
<!-- Node10&#45;&gt;Node11 -->
<g id="edge14" class="edge"><title>Node10&#45;&gt;Node11</title>
<path fill="none" stroke="midnightblue" d="M446.988,-173.975C442.913,-165.315 436.482,-151.649 431.304,-140.645"/>
<polygon fill="midnightblue" stroke="midnightblue" points="434.429,-139.067 427.004,-131.509 428.095,-142.048 434.429,-139.067"/>
</g>
<!-- Node12&#45;&gt;Node1 -->
<g id="edge16" class="edge"><title>Node12&#45;&gt;Node1</title>
<path fill="none" stroke="midnightblue" d="M299,-168.399C299,-160.466 299,-150.458 299,-141.858"/>
<polygon fill="midnightblue" stroke="midnightblue" points="302.5,-141.658 299,-131.658 295.5,-141.658 302.5,-141.658"/>
</g>
<!-- Node12&#45;&gt;Node11 -->
<g id="edge17" class="edge"><title>Node12&#45;&gt;Node11</title>
<path fill="none" stroke="midnightblue" d="M328.386,-168.399C348.82,-158.595 375.86,-145.619 395.799,-136.052"/>
<polygon fill="midnightblue" stroke="midnightblue" points="397.455,-139.139 404.957,-131.658 394.427,-132.828 397.455,-139.139"/>
</g>
</g>
</svg>
