<?xml version="1.0" encoding="UTF-8" standalone="no"?>
<!DOCTYPE svg PUBLIC "-//W3C//DTD SVG 1.1//EN"
 "http://www.w3.org/Graphics/SVG/1.1/DTD/svg11.dtd">
<!-- Generated by graphviz version 2.38.0 (20140413.2041)
 -->
<!-- Title: efd::NDQOpLongCX Pages: 1 -->
<svg width="115pt" height="196pt"
 viewBox="0.00 0.00 115.00 196.00" xmlns="http://www.w3.org/2000/svg" xmlns:xlink="http://www.w3.org/1999/xlink">
<g id="graph0" class="graph" transform="scale(1 1) rotate(0) translate(4 192)">
<title>efd::NDQOpLongCX</title>
<!-- Node0 -->
<g id="node1" class="node"><title>Node0</title>
<polygon fill="#bfbfbf" stroke="black" points="-7.10543e-15,-0.5 -7.10543e-15,-19.5 107,-19.5 107,-0.5 -7.10543e-15,-0.5"/>
<text text-anchor="middle" x="53.5" y="-7.5" font-family="Helvetica,sans-Serif" font-size="10.00">efd::NDQOpLongCX</text>
</g>
<!-- Node1 -->
<g id="node2" class="node"><title>Node1</title>
<g id="a_node2"><a xlink:href="../../d2/dff/classefd_1_1NDQOpGen.xhtml" target="_top" xlink:title="NDQOp specialized for generic gates. ">
<polygon fill="none" stroke="black" points="9,-56.5 9,-75.5 98,-75.5 98,-56.5 9,-56.5"/>
<text text-anchor="middle" x="53.5" y="-63.5" font-family="Helvetica,sans-Serif" font-size="10.00">efd::NDQOpGen</text>
</a>
</g>
</g>
<!-- Node1&#45;&gt;Node0 -->
<g id="edge1" class="edge"><title>Node1&#45;&gt;Node0</title>
<path fill="none" stroke="midnightblue" d="M53.5,-45.8045C53.5,-36.9102 53.5,-26.7798 53.5,-19.7511"/>
<polygon fill="midnightblue" stroke="midnightblue" points="50.0001,-46.083 53.5,-56.083 57.0001,-46.083 50.0001,-46.083"/>
</g>
<!-- Node2 -->
<g id="node3" class="node"><title>Node2</title>
<g id="a_node3"><a xlink:href="../../dd/d94/classefd_1_1NDQOp.xhtml" target="_top" xlink:title="Generic node for quantum operations. This is also the base node for the other quantum gates...">
<polygon fill="none" stroke="black" points="18,-112.5 18,-131.5 89,-131.5 89,-112.5 18,-112.5"/>
<text text-anchor="middle" x="53.5" y="-119.5" font-family="Helvetica,sans-Serif" font-size="10.00">efd::NDQOp</text>
</a>
</g>
</g>
<!-- Node2&#45;&gt;Node1 -->
<g id="edge2" class="edge"><title>Node2&#45;&gt;Node1</title>
<path fill="none" stroke="midnightblue" d="M53.5,-101.805C53.5,-92.9102 53.5,-82.7798 53.5,-75.7511"/>
<polygon fill="midnightblue" stroke="midnightblue" points="50.0001,-102.083 53.5,-112.083 57.0001,-102.083 50.0001,-102.083"/>
</g>
<!-- Node3 -->
<g id="node4" class="node"><title>Node3</title>
<g id="a_node4"><a xlink:href="../../d6/d6a/classefd_1_1Node.xhtml" target="_top" xlink:title="Base class for AST nodes. ">
<polygon fill="none" stroke="black" points="24,-168.5 24,-187.5 83,-187.5 83,-168.5 24,-168.5"/>
<text text-anchor="middle" x="53.5" y="-175.5" font-family="Helvetica,sans-Serif" font-size="10.00">efd::Node</text>
</a>
</g>
</g>
<!-- Node3&#45;&gt;Node2 -->
<g id="edge3" class="edge"><title>Node3&#45;&gt;Node2</title>
<path fill="none" stroke="midnightblue" d="M53.5,-157.805C53.5,-148.91 53.5,-138.78 53.5,-131.751"/>
<polygon fill="midnightblue" stroke="midnightblue" points="50.0001,-158.083 53.5,-168.083 57.0001,-158.083 50.0001,-158.083"/>
</g>
</g>
</svg>
