<?xml version="1.0" encoding="UTF-8" standalone="no"?>
<!DOCTYPE svg PUBLIC "-//W3C//DTD SVG 1.1//EN"
 "http://www.w3.org/Graphics/SVG/1.1/DTD/svg11.dtd">
<!-- Generated by graphviz version 2.38.0 (20140413.2041)
 -->
<!-- Title: include/enfield/Support/SIFinder.h Pages: 1 -->
<svg width="464pt" height="151pt"
 viewBox="0.00 0.00 463.50 151.00" xmlns="http://www.w3.org/2000/svg" xmlns:xlink="http://www.w3.org/1999/xlink">
<g id="graph0" class="graph" transform="scale(1 1) rotate(0) translate(4 147)">
<title>include/enfield/Support/SIFinder.h</title>
<!-- Node0 -->
<g id="node1" class="node"><title>Node0</title>
<polygon fill="#bfbfbf" stroke="black" points="164.5,-112.5 164.5,-142.5 280.5,-142.5 280.5,-112.5 164.5,-112.5"/>
<text text-anchor="start" x="172.5" y="-130.5" font-family="Helvetica,sans-Serif" font-size="10.00">include/enfield/Support</text>
<text text-anchor="middle" x="222.5" y="-119.5" font-family="Helvetica,sans-Serif" font-size="10.00">/SIFinder.h</text>
</g>
<!-- Node1 -->
<g id="node2" class="node"><title>Node1</title>
<g id="a_node2"><a xlink:href="../../d7/d16/Graph_8h.xhtml" target="_top" xlink:title="enfield/Support/Graph.h">
<polygon fill="none" stroke="black" points="56,-56.5 56,-75.5 175,-75.5 175,-56.5 56,-56.5"/>
<text text-anchor="middle" x="115.5" y="-63.5" font-family="Helvetica,sans-Serif" font-size="10.00">enfield/Support/Graph.h</text>
</a>
</g>
</g>
<!-- Node0&#45;&gt;Node1 -->
<g id="edge1" class="edge"><title>Node0&#45;&gt;Node1</title>
<path fill="none" stroke="midnightblue" d="M197.142,-112.399C179.831,-102.773 157.024,-90.0902 139.916,-80.5772"/>
<polygon fill="midnightblue" stroke="midnightblue" points="141.51,-77.4588 131.069,-75.6578 138.108,-83.5766 141.51,-77.4588"/>
</g>
<!-- Node3 -->
<g id="node4" class="node"><title>Node3</title>
<polygon fill="none" stroke="#bfbfbf" points="219.5,-0.5 219.5,-19.5 263.5,-19.5 263.5,-0.5 219.5,-0.5"/>
<text text-anchor="middle" x="241.5" y="-7.5" font-family="Helvetica,sans-Serif" font-size="10.00">vector</text>
</g>
<!-- Node0&#45;&gt;Node3 -->
<g id="edge11" class="edge"><title>Node0&#45;&gt;Node3</title>
<path fill="none" stroke="midnightblue" d="M224.83,-112.337C228.253,-91.5271 234.646,-52.6632 238.443,-29.5834"/>
<polygon fill="midnightblue" stroke="midnightblue" points="241.904,-30.105 240.074,-19.6695 234.997,-28.9687 241.904,-30.105"/>
</g>
<!-- Node5 -->
<g id="node6" class="node"><title>Node5</title>
<polygon fill="none" stroke="#bfbfbf" points="149.5,-0.5 149.5,-19.5 201.5,-19.5 201.5,-0.5 149.5,-0.5"/>
<text text-anchor="middle" x="175.5" y="-7.5" font-family="Helvetica,sans-Serif" font-size="10.00">memory</text>
</g>
<!-- Node0&#45;&gt;Node5 -->
<g id="edge12" class="edge"><title>Node0&#45;&gt;Node5</title>
<path fill="none" stroke="midnightblue" d="M216.737,-112.337C208.192,-91.3379 192.166,-51.9551 182.808,-28.9579"/>
<polygon fill="midnightblue" stroke="midnightblue" points="186.039,-27.6127 179.028,-19.6695 179.555,-30.2512 186.039,-27.6127"/>
</g>
<!-- Node6 -->
<g id="node7" class="node"><title>Node6</title>
<g id="a_node7"><a xlink:href="../../d1/d73/Defs_8h.xhtml" target="_top" xlink:title="enfield/Support/Defs.h">
<polygon fill="none" stroke="black" points="269.5,-56.5 269.5,-75.5 383.5,-75.5 383.5,-56.5 269.5,-56.5"/>
<text text-anchor="middle" x="326.5" y="-63.5" font-family="Helvetica,sans-Serif" font-size="10.00">enfield/Support/Defs.h</text>
</a>
</g>
</g>
<!-- Node0&#45;&gt;Node6 -->
<g id="edge6" class="edge"><title>Node0&#45;&gt;Node6</title>
<path fill="none" stroke="midnightblue" d="M247.147,-112.399C263.817,-102.862 285.731,-90.3248 302.305,-80.8422"/>
<polygon fill="midnightblue" stroke="midnightblue" points="304.425,-83.6617 311.367,-75.6578 300.949,-77.5858 304.425,-83.6617"/>
</g>
<!-- Node2 -->
<g id="node3" class="node"><title>Node2</title>
<polygon fill="none" stroke="#bfbfbf" points="101.5,-0.5 101.5,-19.5 131.5,-19.5 131.5,-0.5 101.5,-0.5"/>
<text text-anchor="middle" x="116.5" y="-7.5" font-family="Helvetica,sans-Serif" font-size="10.00">set</text>
</g>
<!-- Node1&#45;&gt;Node2 -->
<g id="edge2" class="edge"><title>Node1&#45;&gt;Node2</title>
<path fill="none" stroke="midnightblue" d="M115.665,-56.083C115.796,-49.0059 115.984,-38.8611 116.148,-29.9865"/>
<polygon fill="midnightblue" stroke="midnightblue" points="119.652,-29.8142 116.338,-19.7511 112.653,-29.6845 119.652,-29.8142"/>
</g>
<!-- Node1&#45;&gt;Node3 -->
<g id="edge3" class="edge"><title>Node1&#45;&gt;Node3</title>
<path fill="none" stroke="midnightblue" d="M135.465,-56.4435C156.109,-47.5961 188.563,-33.6875 212.132,-23.5865"/>
<polygon fill="midnightblue" stroke="midnightblue" points="213.816,-26.6727 221.628,-19.5164 211.058,-20.2387 213.816,-26.6727"/>
</g>
<!-- Node4 -->
<g id="node5" class="node"><title>Node4</title>
<polygon fill="none" stroke="#bfbfbf" points="0,-0.5 0,-19.5 83,-19.5 83,-0.5 0,-0.5"/>
<text text-anchor="middle" x="41.5" y="-7.5" font-family="Helvetica,sans-Serif" font-size="10.00">unordered_map</text>
</g>
<!-- Node1&#45;&gt;Node4 -->
<g id="edge4" class="edge"><title>Node1&#45;&gt;Node4</title>
<path fill="none" stroke="midnightblue" d="M103.611,-56.324C92.3498,-48.1066 75.2134,-35.6017 61.7909,-25.8069"/>
<polygon fill="midnightblue" stroke="midnightblue" points="63.7468,-22.9014 53.6057,-19.8339 59.6205,-28.5559 63.7468,-22.9014"/>
</g>
<!-- Node1&#45;&gt;Node5 -->
<g id="edge5" class="edge"><title>Node1&#45;&gt;Node5</title>
<path fill="none" stroke="midnightblue" d="M125.14,-56.324C134.01,-48.3414 147.375,-36.3128 158.108,-26.6529"/>
<polygon fill="midnightblue" stroke="midnightblue" points="160.593,-29.1251 165.685,-19.8339 155.91,-23.922 160.593,-29.1251"/>
</g>
<!-- Node6&#45;&gt;Node3 -->
<g id="edge7" class="edge"><title>Node6&#45;&gt;Node3</title>
<path fill="none" stroke="midnightblue" d="M312.843,-56.324C299.584,-47.9002 279.232,-34.9709 263.654,-25.0741"/>
<polygon fill="midnightblue" stroke="midnightblue" points="265.44,-22.0626 255.123,-19.6545 261.687,-27.9711 265.44,-22.0626"/>
</g>
<!-- Node7 -->
<g id="node8" class="node"><title>Node7</title>
<polygon fill="none" stroke="#bfbfbf" points="281.5,-0.5 281.5,-19.5 327.5,-19.5 327.5,-0.5 281.5,-0.5"/>
<text text-anchor="middle" x="304.5" y="-7.5" font-family="Helvetica,sans-Serif" font-size="10.00">cstdint</text>
</g>
<!-- Node6&#45;&gt;Node7 -->
<g id="edge8" class="edge"><title>Node6&#45;&gt;Node7</title>
<path fill="none" stroke="midnightblue" d="M322.867,-56.083C319.888,-48.77 315.574,-38.1814 311.875,-29.1034"/>
<polygon fill="midnightblue" stroke="midnightblue" points="315.08,-27.6914 308.065,-19.7511 308.597,-30.3326 315.08,-27.6914"/>
</g>
<!-- Node8 -->
<g id="node9" class="node"><title>Node8</title>
<polygon fill="none" stroke="#bfbfbf" points="345.5,-0.5 345.5,-19.5 385.5,-19.5 385.5,-0.5 345.5,-0.5"/>
<text text-anchor="middle" x="365.5" y="-7.5" font-family="Helvetica,sans-Serif" font-size="10.00">limits</text>
</g>
<!-- Node6&#45;&gt;Node8 -->
<g id="edge9" class="edge"><title>Node6&#45;&gt;Node8</title>
<path fill="none" stroke="midnightblue" d="M332.94,-56.083C338.449,-48.4554 346.531,-37.2645 353.265,-27.9408"/>
<polygon fill="midnightblue" stroke="midnightblue" points="356.162,-29.9071 359.18,-19.7511 350.487,-25.8087 356.162,-29.9071"/>
</g>
<!-- Node9 -->
<g id="node10" class="node"><title>Node9</title>
<polygon fill="none" stroke="#bfbfbf" points="403.5,-0.5 403.5,-19.5 455.5,-19.5 455.5,-0.5 403.5,-0.5"/>
<text text-anchor="middle" x="429.5" y="-7.5" font-family="Helvetica,sans-Serif" font-size="10.00">ostream</text>
</g>
<!-- Node6&#45;&gt;Node9 -->
<g id="edge10" class="edge"><title>Node6&#45;&gt;Node9</title>
<path fill="none" stroke="midnightblue" d="M343.049,-56.324C359.492,-47.7034 384.935,-34.3643 403.968,-24.3855"/>
<polygon fill="midnightblue" stroke="midnightblue" points="405.761,-27.3977 412.992,-19.6545 402.511,-21.198 405.761,-27.3977"/>
</g>
</g>
</svg>
