<?xml version="1.0" encoding="UTF-8" standalone="no"?>
<!DOCTYPE svg PUBLIC "-//W3C//DTD SVG 1.1//EN"
 "http://www.w3.org/Graphics/SVG/1.1/DTD/svg11.dtd">
<!-- Generated by graphviz version 2.40.1 (20161225.0304)
 -->
<!-- Title: efd::IntrinsicGateCostPass::run Pages: 1 -->
<svg width="344pt" height="78pt"
 viewBox="0.00 0.00 344.00 77.50" xmlns="http://www.w3.org/2000/svg" xmlns:xlink="http://www.w3.org/1999/xlink">
<g id="graph0" class="graph" transform="scale(1 1) rotate(0) translate(4 73.5)">
<title>efd::IntrinsicGateCostPass::run</title>
<!-- Node1 -->
<g id="node1" class="node">
<title>Node1</title>
<polygon fill="#bfbfbf" stroke="#000000" points="0,-22.5 0,-41.5 167,-41.5 167,-22.5 0,-22.5"/>
<text text-anchor="middle" x="83.5" y="-29.5" font-family="Helvetica,sans-Serif" font-size="10.00" fill="#000000">efd::IntrinsicGateCostPass::run</text>
</g>
<!-- Node2 -->
<g id="node2" class="node">
<title>Node2</title>
<g id="a_node2"><a xlink:href="../../dd/d52/classefd_1_1QModule.xhtml#ac00e1eb93f94c00db1e6a661d8f95d9d" target="_top" xlink:title="Iterator to the beginning of the statement node vector. ">
<polygon fill="none" stroke="#000000" points="214.5,-39 214.5,-69 324.5,-69 324.5,-39 214.5,-39"/>
<text text-anchor="start" x="222.5" y="-57" font-family="Helvetica,sans-Serif" font-size="10.00" fill="#000000">efd::QModule::stmt</text>
<text text-anchor="middle" x="269.5" y="-46" font-family="Helvetica,sans-Serif" font-size="10.00" fill="#000000">_begin</text>
</a>
</g>
</g>
<!-- Node1&#45;&gt;Node2 -->
<g id="edge1" class="edge">
<title>Node1&#45;&gt;Node2</title>
<path fill="none" stroke="#191970" d="M164.0005,-41.5216C177.403,-43.1068 191.1582,-44.7338 204.1253,-46.2675"/>
<polygon fill="#191970" stroke="#191970" points="203.9921,-49.7761 214.334,-47.475 204.8143,-42.8245 203.9921,-49.7761"/>
</g>
<!-- Node3 -->
<g id="node3" class="node">
<title>Node3</title>
<g id="a_node3"><a xlink:href="../../dd/d52/classefd_1_1QModule.xhtml#a23d45e3b6c65d5fa14b199da8b0617c7" target="_top" xlink:title="Iterator to the end of the statement node vector. ">
<polygon fill="none" stroke="#000000" points="203,-.5 203,-19.5 336,-19.5 336,-.5 203,-.5"/>
<text text-anchor="middle" x="269.5" y="-7.5" font-family="Helvetica,sans-Serif" font-size="10.00" fill="#000000">efd::QModule::stmt_end</text>
</a>
</g>
</g>
<!-- Node1&#45;&gt;Node3 -->
<g id="edge2" class="edge">
<title>Node1&#45;&gt;Node3</title>
<path fill="none" stroke="#191970" d="M164.0005,-22.4784C173.5179,-21.3527 183.2132,-20.206 192.6779,-19.0865"/>
<polygon fill="#191970" stroke="#191970" points="193.3185,-22.5352 202.8382,-17.8847 192.4963,-15.5837 193.3185,-22.5352"/>
</g>
</g>
</svg>
