<?xml version="1.0" encoding="UTF-8" standalone="no"?>
<!DOCTYPE svg PUBLIC "-//W3C//DTD SVG 1.1//EN"
 "http://www.w3.org/Graphics/SVG/1.1/DTD/svg11.dtd">
<!-- Generated by graphviz version 2.38.0 (20140413.2041)
 -->
<!-- Title: efd::BoundedSIDepSolver::Create Pages: 1 -->
<svg width="596pt" height="39pt"
 viewBox="0.00 0.00 596.00 39.00" xmlns="http://www.w3.org/2000/svg" xmlns:xlink="http://www.w3.org/1999/xlink">
<g id="graph0" class="graph" transform="scale(1 1) rotate(0) translate(4 35)">
<title>efd::BoundedSIDepSolver::Create</title>
<!-- Node3 -->
<g id="node1" class="node"><title>Node3</title>
<polygon fill="#bfbfbf" stroke="black" points="0,-0.5 0,-30.5 130,-30.5 130,-0.5 0,-0.5"/>
<text text-anchor="start" x="8" y="-18.5" font-family="Helvetica,sans-Serif" font-size="10.00">efd::BoundedSIDepSolver</text>
<text text-anchor="middle" x="65" y="-7.5" font-family="Helvetica,sans-Serif" font-size="10.00">::Create</text>
</g>
<!-- Node4 -->
<g id="node2" class="node"><title>Node4</title>
<g id="a_node2"><a xlink:href="../../de/d80/classefd_1_1BoundedSIDepSolver.xhtml#a088f3bbc3e2602a296cd214f06202520" target="_top" xlink:title="efd::BoundedSIDepSolver\l::BoundedSIDepSolver">
<polygon fill="none" stroke="black" points="166,-0.5 166,-30.5 296,-30.5 296,-0.5 166,-0.5"/>
<text text-anchor="start" x="174" y="-18.5" font-family="Helvetica,sans-Serif" font-size="10.00">efd::BoundedSIDepSolver</text>
<text text-anchor="middle" x="231" y="-7.5" font-family="Helvetica,sans-Serif" font-size="10.00">::BoundedSIDepSolver</text>
</a>
</g>
</g>
<!-- Node3&#45;&gt;Node4 -->
<g id="edge1" class="edge"><title>Node3&#45;&gt;Node4</title>
<path fill="none" stroke="midnightblue" d="M130.346,-15.5C138.64,-15.5 147.187,-15.5 155.625,-15.5"/>
<polygon fill="midnightblue" stroke="midnightblue" points="155.839,-19.0001 165.839,-15.5 155.839,-12.0001 155.839,-19.0001"/>
</g>
<!-- Node5 -->
<g id="node3" class="node"><title>Node5</title>
<g id="a_node3"><a xlink:href="../../da/d6e/classefd_1_1DepSolverQAllocator.xhtml#a4ab0f7fa706eec4610c520607831092f" target="_top" xlink:title="efd::DepSolverQAllocator\l::DepSolverQAllocator">
<polygon fill="none" stroke="black" points="332,-0.5 332,-30.5 460,-30.5 460,-0.5 332,-0.5"/>
<text text-anchor="start" x="340" y="-18.5" font-family="Helvetica,sans-Serif" font-size="10.00">efd::DepSolverQAllocator</text>
<text text-anchor="middle" x="396" y="-7.5" font-family="Helvetica,sans-Serif" font-size="10.00">::DepSolverQAllocator</text>
</a>
</g>
</g>
<!-- Node4&#45;&gt;Node5 -->
<g id="edge2" class="edge"><title>Node4&#45;&gt;Node5</title>
<path fill="none" stroke="midnightblue" d="M296.422,-15.5C304.71,-15.5 313.244,-15.5 321.661,-15.5"/>
<polygon fill="midnightblue" stroke="midnightblue" points="321.845,-19.0001 331.845,-15.5 321.845,-12.0001 321.845,-19.0001"/>
</g>
<!-- Node6 -->
<g id="node4" class="node"><title>Node6</title>
<g id="a_node4"><a xlink:href="../../de/d5a/classefd_1_1QbitAllocator.xhtml#aa380bf007e46c8c8f09ffe7d4a552d54" target="_top" xlink:title="efd::QbitAllocator\l::QbitAllocator">
<polygon fill="none" stroke="black" points="496,-0.5 496,-30.5 588,-30.5 588,-0.5 496,-0.5"/>
<text text-anchor="start" x="504" y="-18.5" font-family="Helvetica,sans-Serif" font-size="10.00">efd::QbitAllocator</text>
<text text-anchor="middle" x="542" y="-7.5" font-family="Helvetica,sans-Serif" font-size="10.00">::QbitAllocator</text>
</a>
</g>
</g>
<!-- Node5&#45;&gt;Node6 -->
<g id="edge3" class="edge"><title>Node5&#45;&gt;Node6</title>
<path fill="none" stroke="midnightblue" d="M460.16,-15.5C468.556,-15.5 477.114,-15.5 485.368,-15.5"/>
<polygon fill="midnightblue" stroke="midnightblue" points="485.627,-19.0001 495.627,-15.5 485.627,-12.0001 485.627,-19.0001"/>
</g>
</g>
</svg>
