<?xml version="1.0" encoding="UTF-8" standalone="no"?>
<!DOCTYPE svg PUBLIC "-//W3C//DTD SVG 1.1//EN"
 "http://www.w3.org/Graphics/SVG/1.1/DTD/svg11.dtd">
<!-- Generated by graphviz version 2.38.0 (20140413.2041)
 -->
<!-- Title: efd::BoundedSIDepSolver::solve Pages: 1 -->
<!--zoomable 570 -->
<svg id="main" version="1.1" xmlns="http://www.w3.org/2000/svg" xmlns:xlink="http://www.w3.org/1999/xlink" xml:space="preserve" onload="init(evt)">
<style type="text/css"><![CDATA[
.edge:hover path { stroke: red; }
.edge:hover polygon { stroke: red; fill: red; }
]]></style>
<script type="text/javascript"><![CDATA[
var edges = document.getElementsByTagName('g');
if (edges && edges.length) {
  for (var i=0;i<edges.length;i++) {
    if (edges[i].id.substr(0,4)=='edge') {
      edges[i].setAttribute('class','edge');
    }
  }
}
]]></script>
        <defs>
                <circle id="rim" cx="0" cy="0" r="7"/>
                <circle id="rim2" cx="0" cy="0" r="3.5"/>
                <g id="zoomPlus">
                        <use xlink:href="#rim" fill="#404040">
                                <set attributeName="fill" to="#808080" begin="zoomplus.mouseover" end="zoomplus.mouseout"/>
                        </use>
                        <path d="M-4,0h8M0,-4v8" fill="none" stroke="white" stroke-width="1.5" pointer-events="none"/>
                </g>
                <g id="zoomMin">
                        <use xlink:href="#rim" fill="#404040">
                                <set attributeName="fill" to="#808080" begin="zoomminus.mouseover" end="zoomminus.mouseout"/>
                        </use>
                        <path d="M-4,0h8" fill="none" stroke="white" stroke-width="1.5" pointer-events="none"/>
                </g>
                <g id="dirArrow">
                        <path fill="none" stroke="white" stroke-width="1.5" d="M0,-3.0v7 M-2.5,-0.5L0,-3.0L2.5,-0.5"/>
                </g>
               <g id="resetDef">
                       <use xlink:href="#rim2" fill="#404040">
                               <set attributeName="fill" to="#808080" begin="reset.mouseover" end="reset.mouseout"/>
                       </use>
               </g>
        </defs>

<script type="text/javascript">
var viewWidth = 581;
var viewHeight = 570;
var sectionId = 'dynsection-4';
</script>
<script xlink:href="../../svgpan.js"/>
<svg id="graph" class="graph">
<g id="viewport">
<title>efd::BoundedSIDepSolver::solve</title>
<!-- Node7 -->
<g id="node1" class="node"><title>Node7</title>
<polygon fill="#bfbfbf" stroke="black" points="0,-254 0,-284 130,-284 130,-254 0,-254"/>
<text text-anchor="start" x="8" y="-272" font-family="Helvetica,sans-Serif" font-size="10.00">efd::BoundedSIDepSolver</text>
<text text-anchor="middle" x="65" y="-261" font-family="Helvetica,sans-Serif" font-size="10.00">::solve</text>
</g>
<!-- Node8 -->
<g id="node2" class="node"><title>Node8</title>
<g id="a_node2"><a xlink:href="../../d4/dfd/classefd_1_1ApproxTSFinder.xhtml#a48e2a69ee11d70c0d074cba522c48149" target="_top" xlink:title="efd::ApproxTSFinder\l::ApproxTSFinder">
<polygon fill="none" stroke="black" points="179.5,-531 179.5,-561 286.5,-561 286.5,-531 179.5,-531"/>
<text text-anchor="start" x="187.5" y="-549" font-family="Helvetica,sans-Serif" font-size="10.00">efd::ApproxTSFinder</text>
<text text-anchor="middle" x="233" y="-538" font-family="Helvetica,sans-Serif" font-size="10.00">::ApproxTSFinder</text>
</a>
</g>
</g>
<!-- Node7&#45;&gt;Node8 -->
<g id="edge1" class="edge"><title>Node7&#45;&gt;Node8</title>
<path fill="none" stroke="midnightblue" d="M67.7439,-284.075C73.5004,-327.101 95.7283,-451.822 166,-521 167.473,-522.451 169.039,-523.818 170.679,-525.108"/>
<polygon fill="midnightblue" stroke="midnightblue" points="169.147,-528.293 179.409,-530.929 173.031,-522.469 169.147,-528.293"/>
</g>
<!-- Node10 -->
<g id="node4" class="node"><title>Node10</title>
<g id="a_node4"><a xlink:href="../../d4/deb/namespaceefd.xhtml#a18b0007f75e6b8d651b15754ff89f910" target="_top" xlink:title="Fills the unmapped qubits with the ones missing. ">
<polygon fill="none" stroke="black" points="208.5,-492.5 208.5,-511.5 257.5,-511.5 257.5,-492.5 208.5,-492.5"/>
<text text-anchor="middle" x="233" y="-499.5" font-family="Helvetica,sans-Serif" font-size="10.00">efd::Fill</text>
</a>
</g>
</g>
<!-- Node7&#45;&gt;Node10 -->
<g id="edge3" class="edge"><title>Node7&#45;&gt;Node10</title>
<path fill="none" stroke="midnightblue" d="M69.1151,-284.262C77.6721,-322.397 105.069,-422.738 166,-478 175.081,-486.236 187.209,-491.704 198.591,-495.309"/>
<polygon fill="midnightblue" stroke="midnightblue" points="197.733,-498.703 208.306,-498.02 199.614,-491.961 197.733,-498.703"/>
</g>
<!-- Node12 -->
<g id="node6" class="node"><title>Node12</title>
<g id="a_node6"><a xlink:href="../../d4/deb/namespaceefd.xhtml#a5b9a652c9403e0dbe7115d9d7f5e7d62" target="_top" xlink:title="Generates an assignment mapping (maps the architecture&#39;s qubits to the logical ones) of size archQ...">
<polygon fill="none" stroke="black" points="340.5,-454.5 340.5,-473.5 446.5,-473.5 446.5,-454.5 340.5,-454.5"/>
<text text-anchor="middle" x="393.5" y="-461.5" font-family="Helvetica,sans-Serif" font-size="10.00">efd::GenAssignment</text>
</a>
</g>
</g>
<!-- Node7&#45;&gt;Node12 -->
<g id="edge10" class="edge"><title>Node7&#45;&gt;Node12</title>
<path fill="none" stroke="midnightblue" d="M69.4878,-284.085C78.5064,-319.286 106.192,-406.758 166,-445 214.73,-476.158 281.91,-477.865 330.438,-473.632"/>
<polygon fill="midnightblue" stroke="midnightblue" points="330.885,-477.105 340.497,-472.647 330.203,-470.138 330.885,-477.105"/>
</g>
<!-- Node13 -->
<g id="node7" class="node"><title>Node13</title>
<g id="a_node7"><a xlink:href="../../d4/dfd/classefd_1_1ApproxTSFinder.xhtml#a3142f7094125f35c011e0ffab5d6af7b" target="_top" xlink:title="Finds a swap sequence to reach to from from. ">
<polygon fill="none" stroke="black" points="179.5,-405 179.5,-435 286.5,-435 286.5,-405 179.5,-405"/>
<text text-anchor="start" x="187.5" y="-423" font-family="Helvetica,sans-Serif" font-size="10.00">efd::ApproxTSFinder</text>
<text text-anchor="middle" x="233" y="-412" font-family="Helvetica,sans-Serif" font-size="10.00">::find</text>
</a>
</g>
</g>
<!-- Node7&#45;&gt;Node13 -->
<g id="edge7" class="edge"><title>Node7&#45;&gt;Node13</title>
<path fill="none" stroke="midnightblue" d="M74.4455,-284.391C89.5483,-310.592 123.608,-364.025 166,-395 168.622,-396.916 171.408,-398.703 174.296,-400.367"/>
<polygon fill="midnightblue" stroke="midnightblue" points="172.719,-403.492 183.207,-404.998 175.948,-397.281 172.719,-403.492"/>
</g>
<!-- Node16 -->
<g id="node10" class="node"><title>Node16</title>
<g id="a_node10"><a xlink:href="../../d4/d89/classefd_1_1Timer.xhtml#a12124caea02f8efea63a4ed320acb06f" target="_top" xlink:title="Gets the number of milliseconds stored in mDuration. ">
<polygon fill="none" stroke="black" points="166,-366.5 166,-385.5 300,-385.5 300,-366.5 166,-366.5"/>
<text text-anchor="middle" x="233" y="-373.5" font-family="Helvetica,sans-Serif" font-size="10.00">efd::Timer::getMilliseconds</text>
</a>
</g>
</g>
<!-- Node7&#45;&gt;Node16 -->
<g id="edge11" class="edge"><title>Node7&#45;&gt;Node16</title>
<path fill="none" stroke="midnightblue" d="M79.0373,-284.017C96.8067,-303.577 130.503,-337.563 166,-357 170.16,-359.278 174.622,-361.307 179.19,-363.109"/>
<polygon fill="midnightblue" stroke="midnightblue" points="178.059,-366.422 188.654,-366.497 180.419,-359.832 178.059,-366.422"/>
</g>
<!-- Node17 -->
<g id="node11" class="node"><title>Node17</title>
<g id="a_node11"><a xlink:href="../../d1/dca/structefd_1_1Dependencies.xhtml#a162d900ef6a43cdd8e1097808f1f43c9" target="_top" xlink:title="Forwards to the mDeps attribute. ">
<polygon fill="none" stroke="black" points="181,-317 181,-347 285,-347 285,-317 181,-317"/>
<text text-anchor="start" x="189" y="-335" font-family="Helvetica,sans-Serif" font-size="10.00">efd::Dependencies::</text>
<text text-anchor="middle" x="233" y="-324" font-family="Helvetica,sans-Serif" font-size="10.00">getSize</text>
</a>
</g>
</g>
<!-- Node7&#45;&gt;Node17 -->
<g id="edge12" class="edge"><title>Node7&#45;&gt;Node17</title>
<path fill="none" stroke="midnightblue" d="M105.898,-284.172C124.209,-291.133 146.204,-299.49 166,-307 171.431,-309.06 177.114,-311.215 182.769,-313.358"/>
<polygon fill="midnightblue" stroke="midnightblue" points="181.619,-316.665 192.21,-316.936 184.099,-310.12 181.619,-316.665"/>
</g>
<!-- Node18 -->
<g id="node12" class="node"><title>Node18</title>
<g id="a_node12"><a xlink:href="../../de/d50/classefd_1_1Opt.xhtml#af670a67c3fd6e0c5cbea732b3749fb14" target="_top" xlink:title="Gets a const reference to the value of this command line option. ">
<polygon fill="none" stroke="black" points="190,-278.5 190,-297.5 276,-297.5 276,-278.5 190,-278.5"/>
<text text-anchor="middle" x="233" y="-285.5" font-family="Helvetica,sans-Serif" font-size="10.00">efd::Opt::getVal</text>
</a>
</g>
</g>
<!-- Node7&#45;&gt;Node18 -->
<g id="edge13" class="edge"><title>Node7&#45;&gt;Node18</title>
<path fill="none" stroke="midnightblue" d="M130.18,-276.346C146.495,-278.213 163.835,-280.198 179.493,-281.99"/>
<polygon fill="midnightblue" stroke="midnightblue" points="179.179,-285.477 189.512,-283.137 179.975,-278.522 179.179,-285.477"/>
</g>
<!-- Node19 -->
<g id="node13" class="node"><title>Node19</title>
<g id="a_node13"><a xlink:href="../../db/db3/classefd_1_1Graph.xhtml#aace719bbdaaef0e8787f8a0032a676d8" target="_top" xlink:title="Returns true whether it has an edge (i, j). ">
<polygon fill="none" stroke="black" points="179.5,-240.5 179.5,-259.5 286.5,-259.5 286.5,-240.5 179.5,-240.5"/>
<text text-anchor="middle" x="233" y="-247.5" font-family="Helvetica,sans-Serif" font-size="10.00">efd::Graph::hasEdge</text>
</a>
</g>
</g>
<!-- Node7&#45;&gt;Node19 -->
<g id="edge14" class="edge"><title>Node7&#45;&gt;Node19</title>
<path fill="none" stroke="midnightblue" d="M130.18,-261.654C142.994,-260.187 156.44,-258.648 169.207,-257.187"/>
<polygon fill="midnightblue" stroke="midnightblue" points="169.738,-260.649 179.275,-256.035 168.942,-253.695 169.738,-260.649"/>
</g>
<!-- Node21 -->
<g id="node15" class="node"><title>Node21</title>
<g id="a_node15"><a xlink:href="../../d4/deb/namespaceefd.xhtml#a186bbb1cec68c992374b8795b10af1a8" target="_top" xlink:title="Returns an identity mapping. ">
<polygon fill="none" stroke="black" points="180.5,-202.5 180.5,-221.5 285.5,-221.5 285.5,-202.5 180.5,-202.5"/>
<text text-anchor="middle" x="233" y="-209.5" font-family="Helvetica,sans-Serif" font-size="10.00">efd::IdentityMapping</text>
</a>
</g>
</g>
<!-- Node7&#45;&gt;Node21 -->
<g id="edge16" class="edge"><title>Node7&#45;&gt;Node21</title>
<path fill="none" stroke="midnightblue" d="M103.723,-253.819C122.338,-246.545 145.209,-237.93 166,-231 172.844,-228.719 180.139,-226.455 187.29,-224.327"/>
<polygon fill="midnightblue" stroke="midnightblue" points="188.278,-227.685 196.896,-221.522 186.316,-220.966 188.278,-227.685"/>
</g>
<!-- Node22 -->
<g id="node16" class="node"><title>Node22</title>
<g id="a_node16"><a xlink:href="../../d4/deb/namespaceefd.xhtml#aac5a20e6db5d358cf72d4816441d0b0d" target="_top" xlink:title="Prints the mapping m to a string and returns it. ">
<polygon fill="none" stroke="black" points="178,-164.5 178,-183.5 288,-183.5 288,-164.5 178,-164.5"/>
<text text-anchor="middle" x="233" y="-171.5" font-family="Helvetica,sans-Serif" font-size="10.00">efd::MappingToString</text>
</a>
</g>
</g>
<!-- Node7&#45;&gt;Node22 -->
<g id="edge17" class="edge"><title>Node7&#45;&gt;Node22</title>
<path fill="none" stroke="midnightblue" d="M82.0538,-253.752C100.814,-236.698 133.452,-209.333 166,-193 170.546,-190.719 175.409,-188.67 180.358,-186.84"/>
<polygon fill="midnightblue" stroke="midnightblue" points="181.58,-190.122 189.92,-183.587 179.325,-183.495 181.58,-190.122"/>
</g>
<!-- Node23 -->
<g id="node17" class="node"><title>Node23</title>
<g id="a_node17"><a xlink:href="../../d1/dca/structefd_1_1Dependencies.xhtml#a44ff7c580f8709701e476adb60daa220" target="_top" xlink:title="Forwards to the mDeps attribute. ">
<polygon fill="none" stroke="black" points="181,-115 181,-145 285,-145 285,-115 181,-115"/>
<text text-anchor="start" x="189" y="-133" font-family="Helvetica,sans-Serif" font-size="10.00">efd::Dependencies::</text>
<text text-anchor="middle" x="233" y="-122" font-family="Helvetica,sans-Serif" font-size="10.00">operator[]</text>
</a>
</g>
</g>
<!-- Node7&#45;&gt;Node23 -->
<g id="edge18" class="edge"><title>Node7&#45;&gt;Node23</title>
<path fill="none" stroke="midnightblue" d="M75.574,-253.963C91.5776,-229.931 125.979,-182.758 166,-155 168.718,-153.115 171.598,-151.349 174.573,-149.698"/>
<polygon fill="midnightblue" stroke="midnightblue" points="176.369,-152.713 183.726,-145.089 173.221,-146.461 176.369,-152.713"/>
</g>
<!-- Node24 -->
<g id="node18" class="node"><title>Node24</title>
<g id="a_node18"><a xlink:href="../../d4/d89/classefd_1_1Timer.xhtml#a04b2df0f873780111173bc5e2a1810aa" target="_top" xlink:title="Starts the timer. ">
<polygon fill="none" stroke="black" points="190,-76.5 190,-95.5 276,-95.5 276,-76.5 190,-76.5"/>
<text text-anchor="middle" x="233" y="-83.5" font-family="Helvetica,sans-Serif" font-size="10.00">efd::Timer::start</text>
</a>
</g>
</g>
<!-- Node7&#45;&gt;Node24 -->
<g id="edge19" class="edge"><title>Node7&#45;&gt;Node24</title>
<path fill="none" stroke="midnightblue" d="M71.0601,-253.876C82.6006,-221.708 113.964,-146.167 166,-106 170.383,-102.616 175.337,-99.8026 180.512,-97.4631"/>
<polygon fill="midnightblue" stroke="midnightblue" points="181.96,-100.655 189.991,-93.7438 179.403,-94.1386 181.96,-100.655"/>
</g>
<!-- Node25 -->
<g id="node19" class="node"><title>Node25</title>
<g id="a_node19"><a xlink:href="../../d4/d89/classefd_1_1Timer.xhtml#a0b9a3de677363a5d3f995ac03a3d0a5e" target="_top" xlink:title="Stops the timer. ">
<polygon fill="none" stroke="black" points="190,-38.5 190,-57.5 276,-57.5 276,-38.5 190,-38.5"/>
<text text-anchor="middle" x="233" y="-45.5" font-family="Helvetica,sans-Serif" font-size="10.00">efd::Timer::stop</text>
</a>
</g>
</g>
<!-- Node7&#45;&gt;Node25 -->
<g id="edge20" class="edge"><title>Node7&#45;&gt;Node25</title>
<path fill="none" stroke="midnightblue" d="M69.055,-253.991C77.4729,-216.538 104.574,-118.29 166,-67 170.29,-63.4177 175.222,-60.5103 180.417,-58.1506"/>
<polygon fill="midnightblue" stroke="midnightblue" points="181.898,-61.3307 189.97,-54.4675 179.38,-54.7993 181.898,-61.3307"/>
</g>
<!-- Node26 -->
<g id="node20" class="node"><title>Node26</title>
<g id="a_node20"><a xlink:href="../../d6/d6a/classefd_1_1Node.xhtml#a96ca13a5c2b971b68619ce4a34be0f66" target="_top" xlink:title="Returns a std::string representation of this Node and its childrem. ">
<polygon fill="none" stroke="black" points="183.5,-0.5 183.5,-19.5 282.5,-19.5 282.5,-0.5 183.5,-0.5"/>
<text text-anchor="middle" x="233" y="-7.5" font-family="Helvetica,sans-Serif" font-size="10.00">efd::Node::toString</text>
</a>
</g>
</g>
<!-- Node7&#45;&gt;Node26 -->
<g id="edge21" class="edge"><title>Node7&#45;&gt;Node26</title>
<path fill="none" stroke="midnightblue" d="M67.7953,-253.747C73.5982,-211.443 95.7524,-91.6325 166,-29 168.492,-26.7782 171.228,-24.8151 174.126,-23.0807"/>
<polygon fill="midnightblue" stroke="midnightblue" points="175.84,-26.1367 183.219,-18.5336 172.709,-19.8759 175.84,-26.1367"/>
</g>
<!-- Node9 -->
<g id="node3" class="node"><title>Node9</title>
<g id="a_node3"><a xlink:href="../../d1/dad/classefd_1_1TokenSwapFinder.xhtml#a4e88829212a32134fa42349ad5412f75" target="_top" xlink:title="efd::TokenSwapFinder\l::TokenSwapFinder">
<polygon fill="none" stroke="black" points="336,-531 336,-561 451,-561 451,-531 336,-531"/>
<text text-anchor="start" x="344" y="-549" font-family="Helvetica,sans-Serif" font-size="10.00">efd::TokenSwapFinder</text>
<text text-anchor="middle" x="393.5" y="-538" font-family="Helvetica,sans-Serif" font-size="10.00">::TokenSwapFinder</text>
</a>
</g>
</g>
<!-- Node8&#45;&gt;Node9 -->
<g id="edge2" class="edge"><title>Node8&#45;&gt;Node9</title>
<path fill="none" stroke="midnightblue" d="M286.778,-546C299.213,-546 312.631,-546 325.597,-546"/>
<polygon fill="midnightblue" stroke="midnightblue" points="325.871,-549.5 335.871,-546 325.871,-542.5 325.871,-549.5"/>
</g>
<!-- Node11 -->
<g id="node5" class="node"><title>Node11</title>
<g id="a_node5"><a xlink:href="../../d4/deb/namespaceefd.xhtml#a35884a2adaf86bf35e7e3f1f65acc522" target="_top" xlink:title="efd::Fill">
<polygon fill="none" stroke="black" points="505.5,-473.5 505.5,-492.5 554.5,-492.5 554.5,-473.5 505.5,-473.5"/>
<text text-anchor="middle" x="530" y="-480.5" font-family="Helvetica,sans-Serif" font-size="10.00">efd::Fill</text>
</a>
</g>
</g>
<!-- Node10&#45;&gt;Node11 -->
<g id="edge4" class="edge"><title>Node10&#45;&gt;Node11</title>
<path fill="none" stroke="midnightblue" d="M257.642,-500.477C309.75,-497.121 434.638,-489.078 495.084,-485.184"/>
<polygon fill="midnightblue" stroke="midnightblue" points="495.491,-488.666 505.245,-484.53 495.041,-481.68 495.491,-488.666"/>
</g>
<!-- Node10&#45;&gt;Node12 -->
<g id="edge5" class="edge"><title>Node10&#45;&gt;Node12</title>
<path fill="none" stroke="midnightblue" d="M257.729,-496.311C280.132,-490.94 314.431,-482.717 342.819,-475.911"/>
<polygon fill="midnightblue" stroke="midnightblue" points="343.677,-479.304 352.585,-473.569 342.045,-472.497 343.677,-479.304"/>
</g>
<!-- Node12&#45;&gt;Node11 -->
<g id="edge6" class="edge"><title>Node12&#45;&gt;Node11</title>
<path fill="none" stroke="midnightblue" d="M446.501,-471.346C462.8,-473.648 480.36,-476.129 495.073,-478.207"/>
<polygon fill="midnightblue" stroke="midnightblue" points="494.833,-481.708 505.224,-479.641 495.812,-474.777 494.833,-481.708"/>
</g>
<!-- Node14 -->
<g id="node8" class="node"><title>Node14</title>
<g id="a_node8"><a xlink:href="../../d4/dfd/classefd_1_1ApproxTSFinder.xhtml#a7edb103acffbe37cfbad6d4ea2bb36cc" target="_top" xlink:title="Finds a swap sequence to reach to from from in graph. ">
<polygon fill="none" stroke="black" points="340,-405 340,-435 447,-435 447,-405 340,-405"/>
<text text-anchor="start" x="348" y="-423" font-family="Helvetica,sans-Serif" font-size="10.00">efd::ApproxTSFinder</text>
<text text-anchor="middle" x="393.5" y="-412" font-family="Helvetica,sans-Serif" font-size="10.00">::find</text>
</a>
</g>
</g>
<!-- Node13&#45;&gt;Node14 -->
<g id="edge8" class="edge"><title>Node13&#45;&gt;Node14</title>
<path fill="none" stroke="midnightblue" d="M286.778,-420C300.547,-420 315.519,-420 329.75,-420"/>
<polygon fill="midnightblue" stroke="midnightblue" points="329.952,-423.5 339.952,-420 329.952,-416.5 329.952,-423.5"/>
</g>
<!-- Node15 -->
<g id="node9" class="node"><title>Node15</title>
<g id="a_node9"><a xlink:href="../../db/db3/classefd_1_1Graph.xhtml#aa85ea20ad74d6a7df7a52c13a9fabe2d" target="_top" xlink:title="Return the number of vertices. ">
<polygon fill="none" stroke="black" points="487,-410.5 487,-429.5 573,-429.5 573,-410.5 487,-410.5"/>
<text text-anchor="middle" x="530" y="-417.5" font-family="Helvetica,sans-Serif" font-size="10.00">efd::Graph::size</text>
</a>
</g>
</g>
<!-- Node14&#45;&gt;Node15 -->
<g id="edge9" class="edge"><title>Node14&#45;&gt;Node15</title>
<path fill="none" stroke="midnightblue" d="M447.272,-420C456.892,-420 466.928,-420 476.539,-420"/>
<polygon fill="midnightblue" stroke="midnightblue" points="476.762,-423.5 486.762,-420 476.762,-416.5 476.762,-423.5"/>
</g>
<!-- Node20 -->
<g id="node14" class="node"><title>Node20</title>
<g id="a_node14"><a xlink:href="../../db/db3/classefd_1_1Graph.xhtml#a64836ad3c96e79e02179787ce3bd42c9" target="_top" xlink:title="Return the set of succesors of some vertex i. ">
<polygon fill="none" stroke="black" points="349,-240.5 349,-259.5 438,-259.5 438,-240.5 349,-240.5"/>
<text text-anchor="middle" x="393.5" y="-247.5" font-family="Helvetica,sans-Serif" font-size="10.00">efd::Graph::succ</text>
</a>
</g>
</g>
<!-- Node19&#45;&gt;Node20 -->
<g id="edge15" class="edge"><title>Node19&#45;&gt;Node20</title>
<path fill="none" stroke="midnightblue" d="M286.778,-250C303.483,-250 321.961,-250 338.735,-250"/>
<polygon fill="midnightblue" stroke="midnightblue" points="338.927,-253.5 348.927,-250 338.927,-246.5 338.927,-253.5"/>
</g>
</g>
</svg>
        <g id="navigator" transform="translate(0 0)" fill="#404254">
                <rect fill="#f2f5e9" fill-opacity="0.5" stroke="#606060" stroke-width=".5" x="0" y="0" width="60" height="60"/>
                <use id="zoomplus" xlink:href="#zoomPlus" x="17" y="9" onmousedown="handleZoom(evt,'in')"/>
                <use id="zoomminus" xlink:href="#zoomMin" x="42" y="9" onmousedown="handleZoom(evt,'out')"/>
                <use id="reset" xlink:href="#resetDef" x="30" y="36" onmousedown="handleReset()"/>
                <g id="arrowUp" xlink:href="#dirArrow" transform="translate(30 24)" onmousedown="handlePan(0,-1)">
                  <use xlink:href="#rim" fill="#404040">
                        <set attributeName="fill" to="#808080" begin="arrowUp.mouseover" end="arrowUp.mouseout"/>
                  </use>
                  <path fill="none" stroke="white" stroke-width="1.5" d="M0,-3.0v7 M-2.5,-0.5L0,-3.0L2.5,-0.5"/>
                </g>
                <g id="arrowRight" xlink:href="#dirArrow" transform="rotate(90) translate(36 -43)" onmousedown="handlePan(1,0)">
                  <use xlink:href="#rim" fill="#404040">
                        <set attributeName="fill" to="#808080" begin="arrowRight.mouseover" end="arrowRight.mouseout"/>
                  </use>
                  <path fill="none" stroke="white" stroke-width="1.5" d="M0,-3.0v7 M-2.5,-0.5L0,-3.0L2.5,-0.5"/>
                </g>
                <g id="arrowDown" xlink:href="#dirArrow" transform="rotate(180) translate(-30 -48)" onmousedown="handlePan(0,1)">
                  <use xlink:href="#rim" fill="#404040">
                        <set attributeName="fill" to="#808080" begin="arrowDown.mouseover" end="arrowDown.mouseout"/>
                  </use>
                  <path fill="none" stroke="white" stroke-width="1.5" d="M0,-3.0v7 M-2.5,-0.5L0,-3.0L2.5,-0.5"/>
                </g>
                <g id="arrowLeft" xlink:href="#dirArrow" transform="rotate(270) translate(-36 17)" onmousedown="handlePan(-1,0)">
                  <use xlink:href="#rim" fill="#404040">
                        <set attributeName="fill" to="#808080" begin="arrowLeft.mouseover" end="arrowLeft.mouseout"/>
                  </use>
                  <path fill="none" stroke="white" stroke-width="1.5" d="M0,-3.0v7 M-2.5,-0.5L0,-3.0L2.5,-0.5"/>
                </g>
        </g>
        <svg viewBox="0 0 15 15" width="100%" height="30px" preserveAspectRatio="xMaxYMin meet">
         <g id="arrow_out" transform="scale(0.3 0.3)">
          <a xlink:href="classefd_1_1BoundedSIDepSolver_a0e0c689d281fd47ff601f6279a8f0367_cgraph_org.svg" target="_base">
           <rect id="button" ry="5" rx="5" y="6" x="6" height="38" width="38"
                fill="#f2f5e9" fill-opacity="0.5" stroke="#606060" stroke-width="1.0"/>
           <path id="arrow"
             d="M 11.500037,31.436501 C 11.940474,20.09759 22.043105,11.32322 32.158766,21.979434 L 37.068811,17.246167 C 37.068811,17.246167 37.088388,32 37.088388,32 L 22.160133,31.978069 C 22.160133,31.978069 26.997745,27.140456 26.997745,27.140456 C 18.528582,18.264221 13.291696,25.230495 11.500037,31.436501 z"
             style="fill:#404040;"/>
          </a>
         </g>
        </svg>
</svg>
