<?xml version="1.0" encoding="UTF-8" standalone="no"?>
<!DOCTYPE svg PUBLIC "-//W3C//DTD SVG 1.1//EN"
 "http://www.w3.org/Graphics/SVG/1.1/DTD/svg11.dtd">
<!-- Generated by graphviz version 2.38.0 (20140413.2041)
 -->
<!-- Title: efd::BoundedSIDepSolver::BoundedSIDepSolver Pages: 1 -->
<svg width="430pt" height="39pt"
 viewBox="0.00 0.00 430.00 39.00" xmlns="http://www.w3.org/2000/svg" xmlns:xlink="http://www.w3.org/1999/xlink">
<g id="graph0" class="graph" transform="scale(1 1) rotate(0) translate(4 35)">
<title>efd::BoundedSIDepSolver::BoundedSIDepSolver</title>
<!-- Node0 -->
<g id="node1" class="node"><title>Node0</title>
<polygon fill="#bfbfbf" stroke="black" points="0,-0.5 0,-30.5 130,-30.5 130,-0.5 0,-0.5"/>
<text text-anchor="start" x="8" y="-18.5" font-family="Helvetica,sans-Serif" font-size="10.00">efd::BoundedSIDepSolver</text>
<text text-anchor="middle" x="65" y="-7.5" font-family="Helvetica,sans-Serif" font-size="10.00">::BoundedSIDepSolver</text>
</g>
<!-- Node1 -->
<g id="node2" class="node"><title>Node1</title>
<g id="a_node2"><a xlink:href="../../da/d6e/classefd_1_1DepSolverQAllocator.xhtml#a4ab0f7fa706eec4610c520607831092f" target="_top" xlink:title="efd::DepSolverQAllocator\l::DepSolverQAllocator">
<polygon fill="none" stroke="black" points="166,-0.5 166,-30.5 294,-30.5 294,-0.5 166,-0.5"/>
<text text-anchor="start" x="174" y="-18.5" font-family="Helvetica,sans-Serif" font-size="10.00">efd::DepSolverQAllocator</text>
<text text-anchor="middle" x="230" y="-7.5" font-family="Helvetica,sans-Serif" font-size="10.00">::DepSolverQAllocator</text>
</a>
</g>
</g>
<!-- Node0&#45;&gt;Node1 -->
<g id="edge1" class="edge"><title>Node0&#45;&gt;Node1</title>
<path fill="none" stroke="midnightblue" d="M130.422,-15.5C138.71,-15.5 147.244,-15.5 155.661,-15.5"/>
<polygon fill="midnightblue" stroke="midnightblue" points="155.845,-19.0001 165.845,-15.5 155.845,-12.0001 155.845,-19.0001"/>
</g>
<!-- Node2 -->
<g id="node3" class="node"><title>Node2</title>
<g id="a_node3"><a xlink:href="../../de/d5a/classefd_1_1QbitAllocator.xhtml#aa380bf007e46c8c8f09ffe7d4a552d54" target="_top" xlink:title="efd::QbitAllocator\l::QbitAllocator">
<polygon fill="none" stroke="black" points="330,-0.5 330,-30.5 422,-30.5 422,-0.5 330,-0.5"/>
<text text-anchor="start" x="338" y="-18.5" font-family="Helvetica,sans-Serif" font-size="10.00">efd::QbitAllocator</text>
<text text-anchor="middle" x="376" y="-7.5" font-family="Helvetica,sans-Serif" font-size="10.00">::QbitAllocator</text>
</a>
</g>
</g>
<!-- Node1&#45;&gt;Node2 -->
<g id="edge2" class="edge"><title>Node1&#45;&gt;Node2</title>
<path fill="none" stroke="midnightblue" d="M294.16,-15.5C302.556,-15.5 311.114,-15.5 319.368,-15.5"/>
<polygon fill="midnightblue" stroke="midnightblue" points="319.627,-19.0001 329.627,-15.5 319.627,-12.0001 319.627,-19.0001"/>
</g>
</g>
</svg>
