<?xml version="1.0" encoding="UTF-8" standalone="no"?>
<!DOCTYPE svg PUBLIC "-//W3C//DTD SVG 1.1//EN"
 "http://www.w3.org/Graphics/SVG/1.1/DTD/svg11.dtd">
<!-- Generated by graphviz version 2.38.0 (20140413.2041)
 -->
<!-- Title: efd::SemanticVerifierVisitor::visit Pages: 1 -->
<svg width="484pt" height="230pt"
 viewBox="0.00 0.00 484.00 230.00" xmlns="http://www.w3.org/2000/svg" xmlns:xlink="http://www.w3.org/1999/xlink">
<g id="graph0" class="graph" transform="scale(1 1) rotate(0) translate(4 226)">
<title>efd::SemanticVerifierVisitor::visit</title>
<!-- Node25 -->
<g id="node1" class="node"><title>Node25</title>
<polygon fill="#bfbfbf" stroke="black" points="0,-99 0,-129 136,-129 136,-99 0,-99"/>
<text text-anchor="start" x="8" y="-117" font-family="Helvetica,sans-Serif" font-size="10.00">efd::SemanticVerifierVisitor</text>
<text text-anchor="middle" x="68" y="-106" font-family="Helvetica,sans-Serif" font-size="10.00">::visit</text>
</g>
<!-- Node26 -->
<g id="node2" class="node"><title>Node26</title>
<g id="a_node2"><a xlink:href="../../d6/d6a/classefd_1_1Node.xhtml#a63e30243eca03b0c85d8c4856e91c79d" target="_top" xlink:title="Gets the i&#45;th child. ">
<polygon fill="none" stroke="black" points="203,-202.5 203,-221.5 304,-221.5 304,-202.5 203,-202.5"/>
<text text-anchor="middle" x="253.5" y="-209.5" font-family="Helvetica,sans-Serif" font-size="10.00">efd::Node::getChild</text>
</a>
</g>
</g>
<!-- Node25&#45;&gt;Node26 -->
<g id="edge1" class="edge"><title>Node25&#45;&gt;Node26</title>
<path fill="none" stroke="midnightblue" d="M84.3436,-129.196C103.324,-147.128 137.388,-176.577 172,-193 178.6,-196.132 185.756,-198.769 192.987,-200.985"/>
<polygon fill="midnightblue" stroke="midnightblue" points="192.273,-204.42 202.847,-203.752 194.165,-197.68 192.273,-204.42"/>
</g>
<!-- Node27 -->
<g id="node3" class="node"><title>Node27</title>
<g id="a_node3"><a xlink:href="../../d2/dff/classefd_1_1NDQOpGen.xhtml#abbd4435ec926c38719e8af49bb89af6d" target="_top" xlink:title="Returns the intrinsic kind of this node. ">
<polygon fill="none" stroke="black" points="172,-164.5 172,-183.5 335,-183.5 335,-164.5 172,-164.5"/>
<text text-anchor="middle" x="253.5" y="-171.5" font-family="Helvetica,sans-Serif" font-size="10.00">efd::NDQOpGen::getIntrinsicKind</text>
</a>
</g>
</g>
<!-- Node25&#45;&gt;Node27 -->
<g id="edge2" class="edge"><title>Node25&#45;&gt;Node27</title>
<path fill="none" stroke="midnightblue" d="M103.345,-129.143C123.156,-137.505 148.687,-147.653 172,-155 179.973,-157.513 188.484,-159.866 196.874,-162.001"/>
<polygon fill="midnightblue" stroke="midnightblue" points="196.082,-165.41 206.629,-164.404 197.757,-158.614 196.082,-165.41"/>
</g>
<!-- Node28 -->
<g id="node4" class="node"><title>Node28</title>
<g id="a_node4"><a xlink:href="../../dd/d94/classefd_1_1NDQOp.xhtml#af7ef43289355c5bb047a46419177c8ed" target="_top" xlink:title="Gets the quantum arguments. ">
<polygon fill="none" stroke="black" points="194,-126.5 194,-145.5 313,-145.5 313,-126.5 194,-126.5"/>
<text text-anchor="middle" x="253.5" y="-133.5" font-family="Helvetica,sans-Serif" font-size="10.00">efd::NDQOp::getQArgs</text>
</a>
</g>
</g>
<!-- Node25&#45;&gt;Node28 -->
<g id="edge3" class="edge"><title>Node25&#45;&gt;Node28</title>
<path fill="none" stroke="midnightblue" d="M136.027,-122.036C151.564,-123.899 168.123,-125.884 183.734,-127.756"/>
<polygon fill="midnightblue" stroke="midnightblue" points="183.489,-131.251 193.835,-128.967 184.323,-124.301 183.489,-131.251"/>
</g>
<!-- Node30 -->
<g id="node6" class="node"><title>Node30</title>
<g id="a_node6"><a xlink:href="../../db/d0c/structefd_1_1XbitToNumber.xhtml#ae645e4b0ccb9c25c534883843484f06a" target="_top" xlink:title="Returns an uint32_t number representing the qubit in this specific gate (if any). ...">
<polygon fill="none" stroke="black" points="201,-77 201,-107 306,-107 306,-77 201,-77"/>
<text text-anchor="start" x="209" y="-95" font-family="Helvetica,sans-Serif" font-size="10.00">efd::XbitToNumber::</text>
<text text-anchor="middle" x="253.5" y="-84" font-family="Helvetica,sans-Serif" font-size="10.00">getQUId</text>
</a>
</g>
</g>
<!-- Node25&#45;&gt;Node30 -->
<g id="edge5" class="edge"><title>Node25&#45;&gt;Node30</title>
<path fill="none" stroke="midnightblue" d="M136.027,-105.964C153.914,-103.82 173.156,-101.513 190.745,-99.4039"/>
<polygon fill="midnightblue" stroke="midnightblue" points="191.375,-102.853 200.888,-98.1879 190.542,-95.9032 191.375,-102.853"/>
</g>
<!-- Node32 -->
<g id="node8" class="node"><title>Node32</title>
<g id="a_node8"><a xlink:href="../../d2/dff/classefd_1_1NDQOpGen.xhtml#a00f1b64c13766964893ec0cdb42bafdf" target="_top" xlink:title="Returns whether this node is in an intrinsic node. ">
<polygon fill="none" stroke="black" points="185,-38.5 185,-57.5 322,-57.5 322,-38.5 185,-38.5"/>
<text text-anchor="middle" x="253.5" y="-45.5" font-family="Helvetica,sans-Serif" font-size="10.00">efd::NDQOpGen::isIntrinsic</text>
</a>
</g>
</g>
<!-- Node25&#45;&gt;Node32 -->
<g id="edge7" class="edge"><title>Node25&#45;&gt;Node32</title>
<path fill="none" stroke="midnightblue" d="M99.0786,-98.8721C119.322,-89.1156 146.818,-76.6753 172,-68 180.408,-65.1032 189.445,-62.4402 198.317,-60.0666"/>
<polygon fill="midnightblue" stroke="midnightblue" points="199.412,-63.3988 208.222,-57.5128 197.665,-56.6204 199.412,-63.3988"/>
</g>
<!-- Node33 -->
<g id="node9" class="node"><title>Node33</title>
<g id="a_node9"><a xlink:href="../../d6/d6a/classefd_1_1Node.xhtml#a96ca13a5c2b971b68619ce4a34be0f66" target="_top" xlink:title="Returns a std::string representation of this Node and its childrem. ">
<polygon fill="none" stroke="black" points="204,-0.5 204,-19.5 303,-19.5 303,-0.5 204,-0.5"/>
<text text-anchor="middle" x="253.5" y="-7.5" font-family="Helvetica,sans-Serif" font-size="10.00">efd::Node::toString</text>
</a>
</g>
</g>
<!-- Node25&#45;&gt;Node33 -->
<g id="edge8" class="edge"><title>Node25&#45;&gt;Node33</title>
<path fill="none" stroke="midnightblue" d="M82.8118,-98.946C101.269,-79.7612 135.867,-46.9407 172,-29 178.963,-25.5425 186.582,-22.6977 194.267,-20.361"/>
<polygon fill="midnightblue" stroke="midnightblue" points="195.291,-23.7091 203.993,-17.665 193.421,-16.9635 195.291,-23.7091"/>
</g>
<!-- Node29 -->
<g id="node5" class="node"><title>Node29</title>
<g id="a_node5"><a xlink:href="../../d4/deb/namespaceefd.xhtml#a2cef687225e13315fc282dc40b5a6909" target="_top" xlink:title="Returns src cast to TargetTy, iff it is of class TargetTy, otherwise it will return nullptr...">
<polygon fill="none" stroke="black" points="387,-126.5 387,-145.5 460,-145.5 460,-126.5 387,-126.5"/>
<text text-anchor="middle" x="423.5" y="-133.5" font-family="Helvetica,sans-Serif" font-size="10.00">efd::dynCast</text>
</a>
</g>
</g>
<!-- Node28&#45;&gt;Node29 -->
<g id="edge4" class="edge"><title>Node28&#45;&gt;Node29</title>
<path fill="none" stroke="midnightblue" d="M313.258,-136C333.952,-136 356.898,-136 376.397,-136"/>
<polygon fill="midnightblue" stroke="midnightblue" points="376.544,-139.5 386.544,-136 376.544,-132.5 376.544,-139.5"/>
</g>
<!-- Node31 -->
<g id="node7" class="node"><title>Node31</title>
<g id="a_node7"><a xlink:href="../../db/d0c/structefd_1_1XbitToNumber.xhtml#a7d9474b325920d98f5832d5f1923ba2b" target="_top" xlink:title="Gets a constant reference to the mapping of qubtis of a gate. ">
<polygon fill="none" stroke="black" points="371,-77 371,-107 476,-107 476,-77 371,-77"/>
<text text-anchor="start" x="379" y="-95" font-family="Helvetica,sans-Serif" font-size="10.00">efd::XbitToNumber::</text>
<text text-anchor="middle" x="423.5" y="-84" font-family="Helvetica,sans-Serif" font-size="10.00">getQbitMap</text>
</a>
</g>
</g>
<!-- Node30&#45;&gt;Node31 -->
<g id="edge6" class="edge"><title>Node30&#45;&gt;Node31</title>
<path fill="none" stroke="midnightblue" d="M306.276,-92C323.523,-92 342.906,-92 360.827,-92"/>
<polygon fill="midnightblue" stroke="midnightblue" points="360.895,-95.5001 370.895,-92 360.895,-88.5001 360.895,-95.5001"/>
</g>
</g>
</svg>
