<?xml version="1.0" encoding="UTF-8" standalone="no"?>
<!DOCTYPE svg PUBLIC "-//W3C//DTD SVG 1.1//EN"
 "http://www.w3.org/Graphics/SVG/1.1/DTD/svg11.dtd">
<!-- Generated by graphviz version 2.38.0 (20140413.2041)
 -->
<!-- Title: efd::SemanticVerifierVisitor::SemanticVerifierVisitor Pages: 1 -->
<svg width="455pt" height="137pt"
 viewBox="0.00 0.00 455.00 137.00" xmlns="http://www.w3.org/2000/svg" xmlns:xlink="http://www.w3.org/1999/xlink">
<g id="graph0" class="graph" transform="scale(1 1) rotate(0) translate(4 133)">
<title>efd::SemanticVerifierVisitor::SemanticVerifierVisitor</title>
<!-- Node0 -->
<g id="node1" class="node"><title>Node0</title>
<polygon fill="#bfbfbf" stroke="black" points="0,-49.5 0,-79.5 136,-79.5 136,-49.5 0,-49.5"/>
<text text-anchor="start" x="8" y="-67.5" font-family="Helvetica,sans-Serif" font-size="10.00">efd::SemanticVerifierVisitor</text>
<text text-anchor="middle" x="68" y="-56.5" font-family="Helvetica,sans-Serif" font-size="10.00">::SemanticVerifierVisitor</text>
</g>
<!-- Node1 -->
<g id="node2" class="node"><title>Node1</title>
<g id="a_node2"><a xlink:href="../../db/d0c/structefd_1_1XbitToNumber.xhtml#aee01f34943dd3c3afa794cb45815268f" target="_top" xlink:title="Returns the number of cbits in a given gate (if any). ">
<polygon fill="none" stroke="black" points="172,-98.5 172,-128.5 277,-128.5 277,-98.5 172,-98.5"/>
<text text-anchor="start" x="180" y="-116.5" font-family="Helvetica,sans-Serif" font-size="10.00">efd::XbitToNumber::</text>
<text text-anchor="middle" x="224.5" y="-105.5" font-family="Helvetica,sans-Serif" font-size="10.00">getCSize</text>
</a>
</g>
</g>
<!-- Node0&#45;&gt;Node1 -->
<g id="edge1" class="edge"><title>Node0&#45;&gt;Node1</title>
<path fill="none" stroke="midnightblue" d="M116.616,-79.6014C132.255,-84.5615 149.805,-90.1274 166.092,-95.2929"/>
<polygon fill="midnightblue" stroke="midnightblue" points="165.451,-98.7615 176.041,-98.4484 167.567,-92.089 165.451,-98.7615"/>
</g>
<!-- Node2 -->
<g id="node3" class="node"><title>Node2</title>
<g id="a_node3"><a xlink:href="../../db/d0c/structefd_1_1XbitToNumber.xhtml#ab395508705fe60ed3bd0cfb28eb5ffc6" target="_top" xlink:title="Returns the number of qbits in a given gate (if any). ">
<polygon fill="none" stroke="black" points="172,-49.5 172,-79.5 277,-79.5 277,-49.5 172,-49.5"/>
<text text-anchor="start" x="180" y="-67.5" font-family="Helvetica,sans-Serif" font-size="10.00">efd::XbitToNumber::</text>
<text text-anchor="middle" x="224.5" y="-56.5" font-family="Helvetica,sans-Serif" font-size="10.00">getQSize</text>
</a>
</g>
</g>
<!-- Node0&#45;&gt;Node2 -->
<g id="edge2" class="edge"><title>Node0&#45;&gt;Node2</title>
<path fill="none" stroke="midnightblue" d="M136.317,-64.5C144.757,-64.5 153.358,-64.5 161.709,-64.5"/>
<polygon fill="midnightblue" stroke="midnightblue" points="161.742,-68.0001 171.742,-64.5 161.742,-61.0001 161.742,-68.0001"/>
</g>
<!-- Node4 -->
<g id="node5" class="node"><title>Node4</title>
<g id="a_node5"><a xlink:href="../../d7/d0b/classefd_1_1CircuitGraph_1_1Iterator.xhtml#aeee56d067ea9d2ef87f882279492a528" target="_top" xlink:title="efd::CircuitGraph::\lIterator::next">
<polygon fill="none" stroke="black" points="176,-0.5 176,-30.5 273,-30.5 273,-0.5 176,-0.5"/>
<text text-anchor="start" x="184" y="-18.5" font-family="Helvetica,sans-Serif" font-size="10.00">efd::CircuitGraph::</text>
<text text-anchor="middle" x="224.5" y="-7.5" font-family="Helvetica,sans-Serif" font-size="10.00">Iterator::next</text>
</a>
</g>
</g>
<!-- Node0&#45;&gt;Node4 -->
<g id="edge4" class="edge"><title>Node0&#45;&gt;Node4</title>
<path fill="none" stroke="midnightblue" d="M116.616,-49.3986C132.255,-44.4385 149.805,-38.8726 166.092,-33.7071"/>
<polygon fill="midnightblue" stroke="midnightblue" points="167.567,-36.911 176.041,-30.5516 165.451,-30.2385 167.567,-36.911"/>
</g>
<!-- Node3 -->
<g id="node4" class="node"><title>Node3</title>
<g id="a_node4"><a xlink:href="../../db/d0c/structefd_1_1XbitToNumber.xhtml#a7d9474b325920d98f5832d5f1923ba2b" target="_top" xlink:title="Gets a constant reference to the mapping of qubtis of a gate. ">
<polygon fill="none" stroke="black" points="327.5,-49.5 327.5,-79.5 432.5,-79.5 432.5,-49.5 327.5,-49.5"/>
<text text-anchor="start" x="335.5" y="-67.5" font-family="Helvetica,sans-Serif" font-size="10.00">efd::XbitToNumber::</text>
<text text-anchor="middle" x="380" y="-56.5" font-family="Helvetica,sans-Serif" font-size="10.00">getQbitMap</text>
</a>
</g>
</g>
<!-- Node2&#45;&gt;Node3 -->
<g id="edge3" class="edge"><title>Node2&#45;&gt;Node3</title>
<path fill="none" stroke="midnightblue" d="M277.04,-64.5C289.95,-64.5 303.929,-64.5 317.278,-64.5"/>
<polygon fill="midnightblue" stroke="midnightblue" points="317.334,-68.0001 327.334,-64.5 317.334,-61.0001 317.334,-68.0001"/>
</g>
<!-- Node5 -->
<g id="node6" class="node"><title>Node5</title>
<g id="a_node6"><a xlink:href="../../d9/dbc/structefd_1_1CircuitGraph_1_1CircuitNode.xhtml#a05bee78f4954f7ac4bab2e16f99dc26c" target="_top" xlink:title="True if this node has reached the end (output node). ">
<polygon fill="none" stroke="black" points="313,-0.5 313,-30.5 447,-30.5 447,-0.5 313,-0.5"/>
<text text-anchor="start" x="321" y="-18.5" font-family="Helvetica,sans-Serif" font-size="10.00">efd::CircuitGraph::</text>
<text text-anchor="middle" x="380" y="-7.5" font-family="Helvetica,sans-Serif" font-size="10.00">CircuitNode::isOutputNode</text>
</a>
</g>
</g>
<!-- Node4&#45;&gt;Node5 -->
<g id="edge5" class="edge"><title>Node4&#45;&gt;Node5</title>
<path fill="none" stroke="midnightblue" d="M273.227,-15.5C282.666,-15.5 292.792,-15.5 302.902,-15.5"/>
<polygon fill="midnightblue" stroke="midnightblue" points="302.982,-19.0001 312.982,-15.5 302.982,-12.0001 302.982,-19.0001"/>
</g>
</g>
</svg>
