<?xml version="1.0" encoding="UTF-8" standalone="no"?>
<!DOCTYPE svg PUBLIC "-//W3C//DTD SVG 1.1//EN"
 "http://www.w3.org/Graphics/SVG/1.1/DTD/svg11.dtd">
<!-- Generated by graphviz version 2.40.1 (20161225.0304)
 -->
<!-- Title: efd::SemanticVerifierVisitor::SemanticVerifierVisitor Pages: 1 -->
<svg width="563pt" height="39pt"
 viewBox="0.00 0.00 563.00 39.00" xmlns="http://www.w3.org/2000/svg" xmlns:xlink="http://www.w3.org/1999/xlink">
<g id="graph0" class="graph" transform="scale(1 1) rotate(0) translate(4 35)">
<title>efd::SemanticVerifierVisitor::SemanticVerifierVisitor</title>
<!-- Node0 -->
<g id="node1" class="node">
<title>Node0</title>
<polygon fill="#bfbfbf" stroke="#000000" points="0,-.5 0,-30.5 152,-30.5 152,-.5 0,-.5"/>
<text text-anchor="start" x="8" y="-18.5" font-family="Helvetica,sans-Serif" font-size="10.00" fill="#000000">efd::SemanticVerifierVisitor</text>
<text text-anchor="middle" x="76" y="-7.5" font-family="Helvetica,sans-Serif" font-size="10.00" fill="#000000">::SemanticVerifierVisitor</text>
</g>
<!-- Node1 -->
<g id="node2" class="node">
<title>Node1</title>
<g id="a_node2"><a xlink:href="../../d7/d0b/classefd_1_1CircuitGraph_1_1Iterator.xhtml#a53e088602bfc10b1de2a681b93cff134" target="_top" xlink:title="Advances the bit xbit. ">
<polygon fill="none" stroke="#000000" points="188,-.5 188,-30.5 293,-30.5 293,-.5 188,-.5"/>
<text text-anchor="start" x="196" y="-18.5" font-family="Helvetica,sans-Serif" font-size="10.00" fill="#000000">efd::CircuitGraph::</text>
<text text-anchor="middle" x="240.5" y="-7.5" font-family="Helvetica,sans-Serif" font-size="10.00" fill="#000000">Iterator::next</text>
</a>
</g>
</g>
<!-- Node0&#45;&gt;Node1 -->
<g id="edge1" class="edge">
<title>Node0&#45;&gt;Node1</title>
<path fill="none" stroke="#191970" d="M152.471,-15.5C160.8482,-15.5 169.3057,-15.5 177.4936,-15.5"/>
<polygon fill="#191970" stroke="#191970" points="177.6945,-19.0001 187.6945,-15.5 177.6945,-12.0001 177.6945,-19.0001"/>
</g>
<!-- Node2 -->
<g id="node3" class="node">
<title>Node2</title>
<g id="a_node3"><a xlink:href="../../d9/d6b/classefd_1_1Xbit.xhtml#ad18f73714ed4aa4fe239a210280e7519" target="_top" xlink:title="Gets the real id for this bit. ">
<polygon fill="none" stroke="#000000" points="329,-6 329,-25 439,-25 439,-6 329,-6"/>
<text text-anchor="middle" x="384" y="-13" font-family="Helvetica,sans-Serif" font-size="10.00" fill="#000000">efd::Xbit::getRealId</text>
</a>
</g>
</g>
<!-- Node1&#45;&gt;Node2 -->
<g id="edge2" class="edge">
<title>Node1&#45;&gt;Node2</title>
<path fill="none" stroke="#191970" d="M293.1193,-15.5C301.5132,-15.5 310.284,-15.5 318.9246,-15.5"/>
<polygon fill="#191970" stroke="#191970" points="318.9776,-19.0001 328.9776,-15.5 318.9776,-12.0001 318.9776,-19.0001"/>
</g>
<!-- Node3 -->
<g id="node4" class="node">
<title>Node3</title>
<g id="a_node4"><a xlink:href="../../d4/deb/namespaceefd.xhtml#af3487901a239a99750dc5dcdc3a8c868" target="_top" xlink:title="efd::ExitWith">
<polygon fill="none" stroke="#000000" points="475,-6 475,-25 555,-25 555,-6 475,-6"/>
<text text-anchor="middle" x="515" y="-13" font-family="Helvetica,sans-Serif" font-size="10.00" fill="#000000">efd::ExitWith</text>
</a>
</g>
</g>
<!-- Node2&#45;&gt;Node3 -->
<g id="edge3" class="edge">
<title>Node2&#45;&gt;Node3</title>
<path fill="none" stroke="#191970" d="M439.1761,-15.5C447.5343,-15.5 456.1225,-15.5 464.3779,-15.5"/>
<polygon fill="#191970" stroke="#191970" points="464.6142,-19.0001 474.6142,-15.5 464.6142,-12.0001 464.6142,-19.0001"/>
</g>
</g>
</svg>
