<?xml version="1.0" encoding="UTF-8" standalone="no"?>
<!DOCTYPE svg PUBLIC "-//W3C//DTD SVG 1.1//EN"
 "http://www.w3.org/Graphics/SVG/1.1/DTD/svg11.dtd">
<!-- Generated by graphviz version 2.40.1 (20161225.0304)
 -->
<!-- Title: efd::SemanticVerifierVisitor::visit Pages: 1 -->
<svg width="473pt" height="264pt"
 viewBox="0.00 0.00 473.00 263.50" xmlns="http://www.w3.org/2000/svg" xmlns:xlink="http://www.w3.org/1999/xlink">
<g id="graph0" class="graph" transform="scale(1 1) rotate(0) translate(4 259.5)">
<title>efd::SemanticVerifierVisitor::visit</title>
<!-- Node4 -->
<g id="node1" class="node">
<title>Node4</title>
<polygon fill="#bfbfbf" stroke="#000000" points="0,-110 0,-140 152,-140 152,-110 0,-110"/>
<text text-anchor="start" x="8" y="-128" font-family="Helvetica,sans-Serif" font-size="10.00" fill="#000000">efd::SemanticVerifierVisitor</text>
<text text-anchor="middle" x="76" y="-117" font-family="Helvetica,sans-Serif" font-size="10.00" fill="#000000">::visit</text>
</g>
<!-- Node5 -->
<g id="node2" class="node">
<title>Node5</title>
<g id="a_node2"><a xlink:href="../../d4/d64/classefd_1_1NDQOpMeasure.xhtml#addcc5fd8d95d5790f75b643e88e76c7e" target="_top" xlink:title="Gets the cbit node. ">
<polygon fill="none" stroke="#000000" points="188,-225 188,-255 310,-255 310,-225 188,-225"/>
<text text-anchor="start" x="196" y="-243" font-family="Helvetica,sans-Serif" font-size="10.00" fill="#000000">efd::NDQOpMeasure::</text>
<text text-anchor="middle" x="249" y="-232" font-family="Helvetica,sans-Serif" font-size="10.00" fill="#000000">getCBit</text>
</a>
</g>
</g>
<!-- Node4&#45;&gt;Node5 -->
<g id="edge1" class="edge">
<title>Node4&#45;&gt;Node5</title>
<path fill="none" stroke="#191970" d="M91.5253,-140.2618C112.1432,-159.8765 150.3561,-194.0156 188,-216 190.8008,-217.6357 193.734,-219.2046 196.7354,-220.7014"/>
<polygon fill="#191970" stroke="#191970" points="195.3383,-223.9118 205.8802,-224.9699 198.2991,-217.5687 195.3383,-223.9118"/>
</g>
<!-- Node6 -->
<g id="node3" class="node">
<title>Node6</title>
<g id="a_node3"><a xlink:href="../../db/d0c/structefd_1_1XbitToNumber.xhtml#ae9f84f1119a80e918cc3b3fd916a5922" target="_top" xlink:title="Returns an uint32_t number representing the classic bit;. ">
<polygon fill="none" stroke="#000000" points="191.5,-176 191.5,-206 306.5,-206 306.5,-176 191.5,-176"/>
<text text-anchor="start" x="199.5" y="-194" font-family="Helvetica,sans-Serif" font-size="10.00" fill="#000000">efd::XbitToNumber::</text>
<text text-anchor="middle" x="249" y="-183" font-family="Helvetica,sans-Serif" font-size="10.00" fill="#000000">getCUId</text>
</a>
</g>
</g>
<!-- Node4&#45;&gt;Node6 -->
<g id="edge2" class="edge">
<title>Node4&#45;&gt;Node6</title>
<path fill="none" stroke="#191970" d="M115.6897,-140.1417C140.7443,-149.7001 173.2966,-162.1189 199.962,-172.2919"/>
<polygon fill="#191970" stroke="#191970" points="198.9042,-175.6343 209.495,-175.9287 201.3994,-169.0941 198.9042,-175.6343"/>
</g>
<!-- Node8 -->
<g id="node5" class="node">
<title>Node8</title>
<g id="a_node5"><a xlink:href="../../d6/d6a/classefd_1_1Node.xhtml#a23e33e714f48070d9e8c090cd396d956" target="_top" xlink:title="Returns the kind of this node. ">
<polygon fill="none" stroke="#000000" points="195.5,-137.5 195.5,-156.5 302.5,-156.5 302.5,-137.5 195.5,-137.5"/>
<text text-anchor="middle" x="249" y="-144.5" font-family="Helvetica,sans-Serif" font-size="10.00" fill="#000000">efd::Node::getKind</text>
</a>
</g>
</g>
<!-- Node4&#45;&gt;Node8 -->
<g id="edge4" class="edge">
<title>Node4&#45;&gt;Node8</title>
<path fill="none" stroke="#191970" d="M152.1321,-134.6815C163.1923,-136.088 174.482,-137.5237 185.2637,-138.8948"/>
<polygon fill="#191970" stroke="#191970" points="185.0594,-142.3969 195.4211,-140.1865 185.9425,-135.4529 185.0594,-142.3969"/>
</g>
<!-- Node9 -->
<g id="node6" class="node">
<title>Node9</title>
<g id="a_node6"><a xlink:href="../../d4/d64/classefd_1_1NDQOpMeasure.xhtml#a96d21c24df543013ac4e88f537d40c9b" target="_top" xlink:title="Gets the qbit node. ">
<polygon fill="none" stroke="#000000" points="188,-88 188,-118 310,-118 310,-88 188,-88"/>
<text text-anchor="start" x="196" y="-106" font-family="Helvetica,sans-Serif" font-size="10.00" fill="#000000">efd::NDQOpMeasure::</text>
<text text-anchor="middle" x="249" y="-95" font-family="Helvetica,sans-Serif" font-size="10.00" fill="#000000">getQBit</text>
</a>
</g>
</g>
<!-- Node4&#45;&gt;Node9 -->
<g id="edge5" class="edge">
<title>Node4&#45;&gt;Node9</title>
<path fill="none" stroke="#191970" d="M152.1321,-115.3185C160.6392,-114.2366 169.2821,-113.1375 177.7251,-112.0639"/>
<polygon fill="#191970" stroke="#191970" points="178.4235,-115.5033 187.9021,-110.7697 177.5404,-108.5592 178.4235,-115.5033"/>
</g>
<!-- Node11 -->
<g id="node8" class="node">
<title>Node11</title>
<g id="a_node8"><a xlink:href="../../db/d0c/structefd_1_1XbitToNumber.xhtml#ae645e4b0ccb9c25c534883843484f06a" target="_top" xlink:title="Returns an uint32_t number representing the qubit in this specific gate (if any). ...">
<polygon fill="none" stroke="#000000" points="191.5,-39 191.5,-69 306.5,-69 306.5,-39 191.5,-39"/>
<text text-anchor="start" x="199.5" y="-57" font-family="Helvetica,sans-Serif" font-size="10.00" fill="#000000">efd::XbitToNumber::</text>
<text text-anchor="middle" x="249" y="-46" font-family="Helvetica,sans-Serif" font-size="10.00" fill="#000000">getQUId</text>
</a>
</g>
</g>
<!-- Node4&#45;&gt;Node11 -->
<g id="edge7" class="edge">
<title>Node4&#45;&gt;Node11</title>
<path fill="none" stroke="#191970" d="M112.5674,-109.9731C134.4506,-100.9826 162.8156,-89.3325 188,-79 192.7748,-77.041 197.7602,-74.9965 202.7338,-72.9573"/>
<polygon fill="#191970" stroke="#191970" points="204.3002,-76.0979 212.2253,-69.0664 201.645,-69.621 204.3002,-76.0979"/>
</g>
<!-- Node14 -->
<g id="node11" class="node">
<title>Node14</title>
<g id="a_node11"><a xlink:href="../../d6/d6a/classefd_1_1Node.xhtml#a96ca13a5c2b971b68619ce4a34be0f66" target="_top" xlink:title="Returns a std::string representation of this Node and its childrem. ">
<polygon fill="none" stroke="#000000" points="195,-.5 195,-19.5 303,-19.5 303,-.5 195,-.5"/>
<text text-anchor="middle" x="249" y="-7.5" font-family="Helvetica,sans-Serif" font-size="10.00" fill="#000000">efd::Node::toString</text>
</a>
</g>
</g>
<!-- Node4&#45;&gt;Node14 -->
<g id="edge10" class="edge">
<title>Node4&#45;&gt;Node14</title>
<path fill="none" stroke="#191970" d="M89.7472,-109.84C109.5452,-88.8587 148.1111,-51.0661 188,-29 191.9279,-26.8271 196.1383,-24.8664 200.4437,-23.1051"/>
<polygon fill="#191970" stroke="#191970" points="201.8001,-26.3349 209.9481,-19.5629 199.3554,-19.7756 201.8001,-26.3349"/>
</g>
<!-- Node7 -->
<g id="node4" class="node">
<title>Node7</title>
<g id="a_node4"><a xlink:href="../../d4/deb/namespaceefd.xhtml#af3487901a239a99750dc5dcdc3a8c868" target="_top" xlink:title="efd::ExitWith">
<polygon fill="none" stroke="#000000" points="365.5,-181.5 365.5,-200.5 445.5,-200.5 445.5,-181.5 365.5,-181.5"/>
<text text-anchor="middle" x="405.5" y="-188.5" font-family="Helvetica,sans-Serif" font-size="10.00" fill="#000000">efd::ExitWith</text>
</a>
</g>
</g>
<!-- Node6&#45;&gt;Node7 -->
<g id="edge3" class="edge">
<title>Node6&#45;&gt;Node7</title>
<path fill="none" stroke="#191970" d="M306.8302,-191C322.6773,-191 339.7259,-191 355.1193,-191"/>
<polygon fill="#191970" stroke="#191970" points="355.4768,-194.5001 365.4767,-191 355.4767,-187.5001 355.4768,-194.5001"/>
</g>
<!-- Node10 -->
<g id="node7" class="node">
<title>Node10</title>
<g id="a_node7"><a xlink:href="../../d6/d6a/classefd_1_1Node.xhtml#a63e30243eca03b0c85d8c4856e91c79d" target="_top" xlink:title="Gets the i&#45;th child. ">
<polygon fill="none" stroke="#000000" points="350.5,-93.5 350.5,-112.5 460.5,-112.5 460.5,-93.5 350.5,-93.5"/>
<text text-anchor="middle" x="405.5" y="-100.5" font-family="Helvetica,sans-Serif" font-size="10.00" fill="#000000">efd::Node::getChild</text>
</a>
</g>
</g>
<!-- Node9&#45;&gt;Node10 -->
<g id="edge6" class="edge">
<title>Node9&#45;&gt;Node10</title>
<path fill="none" stroke="#191970" d="M310.4038,-103C320.1914,-103 330.3482,-103 340.2216,-103"/>
<polygon fill="#191970" stroke="#191970" points="340.3807,-106.5001 350.3807,-103 340.3807,-99.5001 340.3807,-106.5001"/>
</g>
<!-- Node12 -->
<g id="node9" class="node">
<title>Node12</title>
<g id="a_node9"><a xlink:href="../../d0/d9e/classefd_1_1NDDecl.xhtml#a34957c2122c38cebf80a264d5fa3863f" target="_top" xlink:title="Gets the id node. ">
<polygon fill="none" stroke="#000000" points="352.5,-49.5 352.5,-68.5 458.5,-68.5 458.5,-49.5 352.5,-49.5"/>
<text text-anchor="middle" x="405.5" y="-56.5" font-family="Helvetica,sans-Serif" font-size="10.00" fill="#000000">efd::NDDecl::getId</text>
</a>
</g>
</g>
<!-- Node11&#45;&gt;Node12 -->
<g id="edge8" class="edge">
<title>Node11&#45;&gt;Node12</title>
<path fill="none" stroke="#191970" d="M306.8302,-55.8476C318.3462,-56.2155 330.4966,-56.6037 342.1852,-56.9772"/>
<polygon fill="#191970" stroke="#191970" points="342.204,-60.4795 352.3107,-57.3007 342.4276,-53.483 342.204,-60.4795"/>
</g>
<!-- Node13 -->
<g id="node10" class="node">
<title>Node13</title>
<g id="a_node10"><a xlink:href="../../df/d1b/classefd_1_1NDValue.xhtml#a53ee724a8db3429bf30bb1936ad548b2" target="_top" xlink:title="Returns a copy to the setted value. ">
<polygon fill="none" stroke="#000000" points="346,-11.5 346,-30.5 465,-30.5 465,-11.5 346,-11.5"/>
<text text-anchor="middle" x="405.5" y="-18.5" font-family="Helvetica,sans-Serif" font-size="10.00" fill="#000000">efd::NDValue::getVal</text>
</a>
</g>
</g>
<!-- Node11&#45;&gt;Node13 -->
<g id="edge9" class="edge">
<title>Node11&#45;&gt;Node13</title>
<path fill="none" stroke="#191970" d="M306.8302,-41.8058C320.9835,-38.8214 336.0951,-35.6349 350.1301,-32.6755"/>
<polygon fill="#191970" stroke="#191970" points="351.0676,-36.0548 360.1303,-30.5668 349.6233,-29.2054 351.0676,-36.0548"/>
</g>
</g>
</svg>
