<?xml version="1.0" encoding="UTF-8" standalone="no"?>
<!DOCTYPE svg PUBLIC "-//W3C//DTD SVG 1.1//EN"
 "http://www.w3.org/Graphics/SVG/1.1/DTD/svg11.dtd">
<!-- Generated by graphviz version 2.40.1 (20161225.0304)
 -->
<!-- Title: efd::SemanticVerifierVisitor::visit Pages: 1 -->
<svg width="527pt" height="154pt"
 viewBox="0.00 0.00 527.00 154.00" xmlns="http://www.w3.org/2000/svg" xmlns:xlink="http://www.w3.org/1999/xlink">
<g id="graph0" class="graph" transform="scale(1 1) rotate(0) translate(4 150)">
<title>efd::SemanticVerifierVisitor::visit</title>
<!-- Node19 -->
<g id="node1" class="node">
<title>Node19</title>
<polygon fill="#bfbfbf" stroke="#000000" points="0,-61 0,-91 152,-91 152,-61 0,-61"/>
<text text-anchor="start" x="8" y="-79" font-family="Helvetica,sans-Serif" font-size="10.00" fill="#000000">efd::SemanticVerifierVisitor</text>
<text text-anchor="middle" x="76" y="-68" font-family="Helvetica,sans-Serif" font-size="10.00" fill="#000000">::visit</text>
</g>
<!-- Node20 -->
<g id="node2" class="node">
<title>Node20</title>
<g id="a_node2"><a xlink:href="../../d2/dff/classefd_1_1NDQOpGen.xhtml#abbd4435ec926c38719e8af49bb89af6d" target="_top" xlink:title="Returns the intrinsic kind of this node. ">
<polygon fill="none" stroke="#000000" points="188,-126.5 188,-145.5 364,-145.5 364,-126.5 188,-126.5"/>
<text text-anchor="middle" x="276" y="-133.5" font-family="Helvetica,sans-Serif" font-size="10.00" fill="#000000">efd::NDQOpGen::getIntrinsicKind</text>
</a>
</g>
</g>
<!-- Node19&#45;&gt;Node20 -->
<g id="edge1" class="edge">
<title>Node19&#45;&gt;Node20</title>
<path fill="none" stroke="#191970" d="M113.1597,-91.0711C134.7599,-99.4601 162.6406,-109.6588 188,-117 197.0256,-119.6128 206.6651,-122.0462 216.1324,-124.2405"/>
<polygon fill="#191970" stroke="#191970" points="215.3788,-127.6583 225.9031,-126.438 216.9148,-120.8289 215.3788,-127.6583"/>
</g>
<!-- Node22 -->
<g id="node4" class="node">
<title>Node22</title>
<g id="a_node4"><a xlink:href="../../dd/d94/classefd_1_1NDQOp.xhtml#af7ef43289355c5bb047a46419177c8ed" target="_top" xlink:title="Gets the quantum arguments. ">
<polygon fill="none" stroke="#000000" points="213.5,-88.5 213.5,-107.5 338.5,-107.5 338.5,-88.5 213.5,-88.5"/>
<text text-anchor="middle" x="276" y="-95.5" font-family="Helvetica,sans-Serif" font-size="10.00" fill="#000000">efd::NDQOp::getQArgs</text>
</a>
</g>
</g>
<!-- Node19&#45;&gt;Node22 -->
<g id="edge3" class="edge">
<title>Node19&#45;&gt;Node22</title>
<path fill="none" stroke="#191970" d="M152.182,-84.38C168.9113,-86.2202 186.5849,-88.1643 203.1781,-89.9896"/>
<polygon fill="#191970" stroke="#191970" points="203.0293,-93.4942 213.3521,-91.1087 203.7947,-86.5362 203.0293,-93.4942"/>
</g>
<!-- Node23 -->
<g id="node5" class="node">
<title>Node23</title>
<g id="a_node5"><a xlink:href="../../db/d0c/structefd_1_1XbitToNumber.xhtml#ae645e4b0ccb9c25c534883843484f06a" target="_top" xlink:title="Returns an uint32_t number representing the qubit in this specific gate (if any). ...">
<polygon fill="none" stroke="#000000" points="218.5,-39 218.5,-69 333.5,-69 333.5,-39 218.5,-39"/>
<text text-anchor="start" x="226.5" y="-57" font-family="Helvetica,sans-Serif" font-size="10.00" fill="#000000">efd::XbitToNumber::</text>
<text text-anchor="middle" x="276" y="-46" font-family="Helvetica,sans-Serif" font-size="10.00" fill="#000000">getQUId</text>
</a>
</g>
</g>
<!-- Node19&#45;&gt;Node23 -->
<g id="edge4" class="edge">
<title>Node19&#45;&gt;Node23</title>
<path fill="none" stroke="#191970" d="M152.182,-67.62C170.6314,-65.5905 190.2293,-63.4348 208.26,-61.4514"/>
<polygon fill="#191970" stroke="#191970" points="208.8281,-64.9101 218.3855,-60.3376 208.0627,-57.9521 208.8281,-64.9101"/>
</g>
<!-- Node26 -->
<g id="node8" class="node">
<title>Node26</title>
<g id="a_node8"><a xlink:href="../../d2/dff/classefd_1_1NDQOpGen.xhtml#a00f1b64c13766964893ec0cdb42bafdf" target="_top" xlink:title="Returns whether this node is in an intrinsic node. ">
<polygon fill="none" stroke="#000000" points="202.5,-.5 202.5,-19.5 349.5,-19.5 349.5,-.5 202.5,-.5"/>
<text text-anchor="middle" x="276" y="-7.5" font-family="Helvetica,sans-Serif" font-size="10.00" fill="#000000">efd::NDQOpGen::isIntrinsic</text>
</a>
</g>
</g>
<!-- Node19&#45;&gt;Node26 -->
<g id="edge7" class="edge">
<title>Node19&#45;&gt;Node26</title>
<path fill="none" stroke="#191970" d="M107.7586,-60.8179C129.8653,-50.7132 160.2427,-37.7382 188,-29 196.3406,-26.3743 205.2385,-23.9888 214.0517,-21.864"/>
<polygon fill="#191970" stroke="#191970" points="214.979,-25.242 223.932,-19.5768 213.4003,-18.4223 214.979,-25.242"/>
</g>
<!-- Node21 -->
<g id="node3" class="node">
<title>Node21</title>
<g id="a_node3"><a xlink:href="../../d4/deb/namespaceefd.xhtml#af3487901a239a99750dc5dcdc3a8c868" target="_top" xlink:title="efd::ExitWith">
<polygon fill="none" stroke="#000000" points="419.5,-126.5 419.5,-145.5 499.5,-145.5 499.5,-126.5 419.5,-126.5"/>
<text text-anchor="middle" x="459.5" y="-133.5" font-family="Helvetica,sans-Serif" font-size="10.00" fill="#000000">efd::ExitWith</text>
</a>
</g>
</g>
<!-- Node20&#45;&gt;Node21 -->
<g id="edge2" class="edge">
<title>Node20&#45;&gt;Node21</title>
<path fill="none" stroke="#191970" d="M364.2564,-136C379.6211,-136 395.1167,-136 409.0162,-136"/>
<polygon fill="#191970" stroke="#191970" points="409.3055,-139.5001 419.3055,-136 409.3054,-132.5001 409.3055,-139.5001"/>
</g>
<!-- Node24 -->
<g id="node6" class="node">
<title>Node24</title>
<g id="a_node6"><a xlink:href="../../d0/d9e/classefd_1_1NDDecl.xhtml#a34957c2122c38cebf80a264d5fa3863f" target="_top" xlink:title="Gets the id node. ">
<polygon fill="none" stroke="#000000" points="406.5,-63.5 406.5,-82.5 512.5,-82.5 512.5,-63.5 406.5,-63.5"/>
<text text-anchor="middle" x="459.5" y="-70.5" font-family="Helvetica,sans-Serif" font-size="10.00" fill="#000000">efd::NDDecl::getId</text>
</a>
</g>
</g>
<!-- Node23&#45;&gt;Node24 -->
<g id="edge5" class="edge">
<title>Node23&#45;&gt;Node24</title>
<path fill="none" stroke="#191970" d="M333.5571,-59.9596C353.4284,-62.0171 375.7967,-64.3332 396.1086,-66.4363"/>
<polygon fill="#191970" stroke="#191970" points="395.8983,-69.9332 406.2056,-67.4818 396.6193,-62.9704 395.8983,-69.9332"/>
</g>
<!-- Node25 -->
<g id="node7" class="node">
<title>Node25</title>
<g id="a_node7"><a xlink:href="../../df/d1b/classefd_1_1NDValue.xhtml#a53ee724a8db3429bf30bb1936ad548b2" target="_top" xlink:title="Returns a copy to the setted value. ">
<polygon fill="none" stroke="#000000" points="400,-25.5 400,-44.5 519,-44.5 519,-25.5 400,-25.5"/>
<text text-anchor="middle" x="459.5" y="-32.5" font-family="Helvetica,sans-Serif" font-size="10.00" fill="#000000">efd::NDValue::getVal</text>
</a>
</g>
</g>
<!-- Node23&#45;&gt;Node25 -->
<g id="edge6" class="edge">
<title>Node23&#45;&gt;Node25</title>
<path fill="none" stroke="#191970" d="M333.5571,-48.0404C351.3825,-46.1947 371.2173,-44.141 389.7745,-42.2195"/>
<polygon fill="#191970" stroke="#191970" points="390.3454,-45.6792 399.9317,-41.1678 389.6244,-38.7164 390.3454,-45.6792"/>
</g>
</g>
</svg>
