<?xml version="1.0" encoding="UTF-8" standalone="no"?>
<!DOCTYPE svg PUBLIC "-//W3C//DTD SVG 1.1//EN"
 "http://www.w3.org/Graphics/SVG/1.1/DTD/svg11.dtd">
<!-- Generated by graphviz version 2.38.0 (20140413.2041)
 -->
<!-- Title: efd::SemanticVerifierVisitor::visit Pages: 1 -->
<svg width="407pt" height="39pt"
 viewBox="0.00 0.00 407.00 39.00" xmlns="http://www.w3.org/2000/svg" xmlns:xlink="http://www.w3.org/1999/xlink">
<g id="graph0" class="graph" transform="scale(1 1) rotate(0) translate(4 35)">
<title>efd::SemanticVerifierVisitor::visit</title>
<!-- Node34 -->
<g id="node1" class="node"><title>Node34</title>
<polygon fill="#bfbfbf" stroke="black" points="0,-0.5 0,-30.5 136,-30.5 136,-0.5 0,-0.5"/>
<text text-anchor="start" x="8" y="-18.5" font-family="Helvetica,sans-Serif" font-size="10.00">efd::SemanticVerifierVisitor</text>
<text text-anchor="middle" x="68" y="-7.5" font-family="Helvetica,sans-Serif" font-size="10.00">::visit</text>
</g>
<!-- Node35 -->
<g id="node2" class="node"><title>Node35</title>
<g id="a_node2"><a xlink:href="../../dc/d9d/classefd_1_1NDIfStmt.xhtml#ae5c408d49862e644f1d299ab5b2f121d" target="_top" xlink:title="Gets the qop. ">
<polygon fill="none" stroke="black" points="172,-6 172,-25 290,-25 290,-6 172,-6"/>
<text text-anchor="middle" x="231" y="-13" font-family="Helvetica,sans-Serif" font-size="10.00">efd::NDIfStmt::getQOp</text>
</a>
</g>
</g>
<!-- Node34&#45;&gt;Node35 -->
<g id="edge1" class="edge"><title>Node34&#45;&gt;Node35</title>
<path fill="none" stroke="midnightblue" d="M136.346,-15.5C144.738,-15.5 153.327,-15.5 161.734,-15.5"/>
<polygon fill="midnightblue" stroke="midnightblue" points="161.872,-19.0001 171.872,-15.5 161.872,-12.0001 161.872,-19.0001"/>
</g>
<!-- Node36 -->
<g id="node3" class="node"><title>Node36</title>
<g id="a_node3"><a xlink:href="../../d4/deb/namespaceefd.xhtml#a2cef687225e13315fc282dc40b5a6909" target="_top" xlink:title="Returns src cast to TargetTy, iff it is of class TargetTy, otherwise it will return nullptr...">
<polygon fill="none" stroke="black" points="326,-6 326,-25 399,-25 399,-6 326,-6"/>
<text text-anchor="middle" x="362.5" y="-13" font-family="Helvetica,sans-Serif" font-size="10.00">efd::dynCast</text>
</a>
</g>
</g>
<!-- Node35&#45;&gt;Node36 -->
<g id="edge2" class="edge"><title>Node35&#45;&gt;Node36</title>
<path fill="none" stroke="midnightblue" d="M290.31,-15.5C298.806,-15.5 307.452,-15.5 315.655,-15.5"/>
<polygon fill="midnightblue" stroke="midnightblue" points="315.763,-19.0001 325.763,-15.5 315.763,-12.0001 315.763,-19.0001"/>
</g>
</g>
</svg>
