<?xml version="1.0" encoding="UTF-8" standalone="no"?>
<!DOCTYPE svg PUBLIC "-//W3C//DTD SVG 1.1//EN"
 "http://www.w3.org/Graphics/SVG/1.1/DTD/svg11.dtd">
<!-- Generated by graphviz version 2.38.0 (20140413.2041)
 -->
<!-- Title: efd::SemanticVerifierVisitor::visit Pages: 1 -->
<svg width="476pt" height="449pt"
 viewBox="0.00 0.00 476.00 449.00" xmlns="http://www.w3.org/2000/svg" xmlns:xlink="http://www.w3.org/1999/xlink">
<g id="graph0" class="graph" transform="scale(1 1) rotate(0) translate(4 445)">
<title>efd::SemanticVerifierVisitor::visit</title>
<!-- Node6 -->
<g id="node1" class="node"><title>Node6</title>
<polygon fill="#bfbfbf" stroke="black" points="0,-210 0,-240 136,-240 136,-210 0,-210"/>
<text text-anchor="start" x="8" y="-228" font-family="Helvetica,sans-Serif" font-size="10.00">efd::SemanticVerifierVisitor</text>
<text text-anchor="middle" x="68" y="-217" font-family="Helvetica,sans-Serif" font-size="10.00">::visit</text>
</g>
<!-- Node7 -->
<g id="node2" class="node"><title>Node7</title>
<g id="a_node2"><a xlink:href="../../d4/deb/namespaceefd.xhtml#a2cef687225e13315fc282dc40b5a6909" target="_top" xlink:title="Returns src cast to TargetTy, iff it is of class TargetTy, otherwise it will return nullptr...">
<polygon fill="none" stroke="black" points="198.5,-421.5 198.5,-440.5 271.5,-440.5 271.5,-421.5 198.5,-421.5"/>
<text text-anchor="middle" x="235" y="-428.5" font-family="Helvetica,sans-Serif" font-size="10.00">efd::dynCast</text>
</a>
</g>
</g>
<!-- Node6&#45;&gt;Node7 -->
<g id="edge1" class="edge"><title>Node6&#45;&gt;Node7</title>
<path fill="none" stroke="midnightblue" d="M73.0592,-240.149C83.3568,-275.652 113.894,-364.786 172,-412 176.931,-416.007 182.701,-419.17 188.701,-421.668"/>
<polygon fill="midnightblue" stroke="midnightblue" points="187.636,-425.004 198.23,-425.069 189.989,-418.411 187.636,-425.004"/>
</g>
<!-- Node8 -->
<g id="node3" class="node"><title>Node8</title>
<g id="a_node3"><a xlink:href="../../d4/d64/classefd_1_1NDQOpMeasure.xhtml#addcc5fd8d95d5790f75b643e88e76c7e" target="_top" xlink:title="Gets the cbit node. ">
<polygon fill="none" stroke="black" points="177.5,-372 177.5,-402 292.5,-402 292.5,-372 177.5,-372"/>
<text text-anchor="start" x="185.5" y="-390" font-family="Helvetica,sans-Serif" font-size="10.00">efd::NDQOpMeasure::</text>
<text text-anchor="middle" x="235" y="-379" font-family="Helvetica,sans-Serif" font-size="10.00">getCBit</text>
</a>
</g>
</g>
<!-- Node6&#45;&gt;Node8 -->
<g id="edge2" class="edge"><title>Node6&#45;&gt;Node8</title>
<path fill="none" stroke="midnightblue" d="M76.5225,-240.054C91.2057,-268.018 126.286,-328.286 172,-363 173.792,-364.361 175.672,-365.654 177.614,-366.882"/>
<polygon fill="midnightblue" stroke="midnightblue" points="176.027,-370.005 186.46,-371.851 179.455,-363.902 176.027,-370.005"/>
</g>
<!-- Node9 -->
<g id="node4" class="node"><title>Node9</title>
<g id="a_node4"><a xlink:href="../../db/d0c/structefd_1_1XbitToNumber.xhtml#ae9f84f1119a80e918cc3b3fd916a5922" target="_top" xlink:title="Returns an uint32_t number representing the classic bit;. ">
<polygon fill="none" stroke="black" points="182.5,-323 182.5,-353 287.5,-353 287.5,-323 182.5,-323"/>
<text text-anchor="start" x="190.5" y="-341" font-family="Helvetica,sans-Serif" font-size="10.00">efd::XbitToNumber::</text>
<text text-anchor="middle" x="235" y="-330" font-family="Helvetica,sans-Serif" font-size="10.00">getCUId</text>
</a>
</g>
</g>
<!-- Node6&#45;&gt;Node9 -->
<g id="edge3" class="edge"><title>Node6&#45;&gt;Node9</title>
<path fill="none" stroke="midnightblue" d="M83.4892,-240.099C102.402,-259.131 137.209,-291.901 172,-313 175.216,-314.95 178.611,-316.807 182.089,-318.564"/>
<polygon fill="midnightblue" stroke="midnightblue" points="180.883,-321.865 191.42,-322.972 183.873,-315.536 180.883,-321.865"/>
</g>
<!-- Node10 -->
<g id="node5" class="node"><title>Node10</title>
<g id="a_node5"><a xlink:href="../../d6/d6a/classefd_1_1Node.xhtml#a23e33e714f48070d9e8c090cd396d956" target="_top" xlink:title="Returns the kind of this node. ">
<polygon fill="none" stroke="black" points="186,-284.5 186,-303.5 284,-303.5 284,-284.5 186,-284.5"/>
<text text-anchor="middle" x="235" y="-291.5" font-family="Helvetica,sans-Serif" font-size="10.00">efd::Node::getKind</text>
</a>
</g>
</g>
<!-- Node6&#45;&gt;Node10 -->
<g id="edge4" class="edge"><title>Node6&#45;&gt;Node10</title>
<path fill="none" stroke="midnightblue" d="M97.3266,-240.222C117.725,-250.817 146.102,-264.816 172,-275 177.638,-277.217 183.645,-279.341 189.617,-281.314"/>
<polygon fill="midnightblue" stroke="midnightblue" points="188.973,-284.782 199.564,-284.481 191.097,-278.112 188.973,-284.782"/>
</g>
<!-- Node11 -->
<g id="node6" class="node"><title>Node11</title>
<g id="a_node6"><a xlink:href="../../d4/d64/classefd_1_1NDQOpMeasure.xhtml#a96d21c24df543013ac4e88f537d40c9b" target="_top" xlink:title="Gets the qbit node. ">
<polygon fill="none" stroke="black" points="177.5,-235 177.5,-265 292.5,-265 292.5,-235 177.5,-235"/>
<text text-anchor="start" x="185.5" y="-253" font-family="Helvetica,sans-Serif" font-size="10.00">efd::NDQOpMeasure::</text>
<text text-anchor="middle" x="235" y="-242" font-family="Helvetica,sans-Serif" font-size="10.00">getQBit</text>
</a>
</g>
</g>
<!-- Node6&#45;&gt;Node11 -->
<g id="edge5" class="edge"><title>Node6&#45;&gt;Node11</title>
<path fill="none" stroke="midnightblue" d="M136.112,-235.168C146.35,-236.72 156.916,-238.321 167.148,-239.871"/>
<polygon fill="midnightblue" stroke="midnightblue" points="166.834,-243.363 177.245,-241.401 167.882,-236.442 166.834,-243.363"/>
</g>
<!-- Node13 -->
<g id="node8" class="node"><title>Node13</title>
<g id="a_node8"><a xlink:href="../../db/d0c/structefd_1_1XbitToNumber.xhtml#ae645e4b0ccb9c25c534883843484f06a" target="_top" xlink:title="Returns an uint32_t number representing the qubit in this specific gate (if any). ...">
<polygon fill="none" stroke="black" points="182.5,-186 182.5,-216 287.5,-216 287.5,-186 182.5,-186"/>
<text text-anchor="start" x="190.5" y="-204" font-family="Helvetica,sans-Serif" font-size="10.00">efd::XbitToNumber::</text>
<text text-anchor="middle" x="235" y="-193" font-family="Helvetica,sans-Serif" font-size="10.00">getQUId</text>
</a>
</g>
</g>
<!-- Node6&#45;&gt;Node13 -->
<g id="edge7" class="edge"><title>Node6&#45;&gt;Node13</title>
<path fill="none" stroke="midnightblue" d="M136.112,-215.238C148.05,-213.502 160.434,-211.701 172.215,-209.987"/>
<polygon fill="midnightblue" stroke="midnightblue" points="172.995,-213.41 182.387,-208.507 171.987,-206.483 172.995,-213.41"/>
</g>
<!-- Node15 -->
<g id="node10" class="node"><title>Node15</title>
<g id="a_node10"><a xlink:href="../../d9/dbc/structefd_1_1CircuitGraph_1_1CircuitNode.xhtml#a3dd251562e11352a1e7dbaf93e5e9960" target="_top" xlink:title="True if this node is in the middle (gate node). ">
<polygon fill="none" stroke="black" points="172,-137 172,-167 298,-167 298,-137 172,-137"/>
<text text-anchor="start" x="180" y="-155" font-family="Helvetica,sans-Serif" font-size="10.00">efd::CircuitGraph::</text>
<text text-anchor="middle" x="235" y="-144" font-family="Helvetica,sans-Serif" font-size="10.00">CircuitNode::isGateNode</text>
</a>
</g>
</g>
<!-- Node6&#45;&gt;Node15 -->
<g id="edge9" class="edge"><title>Node6&#45;&gt;Node15</title>
<path fill="none" stroke="midnightblue" d="M100.36,-209.861C120.668,-200.188 147.752,-187.53 172,-177 176.671,-174.972 181.562,-172.904 186.46,-170.871"/>
<polygon fill="midnightblue" stroke="midnightblue" points="187.913,-174.058 195.833,-167.021 185.253,-167.583 187.913,-174.058"/>
</g>
<!-- Node18 -->
<g id="node13" class="node"><title>Node18</title>
<g id="a_node13"><a xlink:href="../../d9/dbc/structefd_1_1CircuitGraph_1_1CircuitNode.xhtml#a748e8cd12225a2d0268e84979726cd03" target="_top" xlink:title="Returns the Node::Ref associated with this circuit node. ">
<polygon fill="none" stroke="black" points="186.5,-88 186.5,-118 283.5,-118 283.5,-88 186.5,-88"/>
<text text-anchor="start" x="194.5" y="-106" font-family="Helvetica,sans-Serif" font-size="10.00">efd::CircuitGraph::</text>
<text text-anchor="middle" x="235" y="-95" font-family="Helvetica,sans-Serif" font-size="10.00">CircuitNode::node</text>
</a>
</g>
</g>
<!-- Node6&#45;&gt;Node18 -->
<g id="edge12" class="edge"><title>Node6&#45;&gt;Node18</title>
<path fill="none" stroke="midnightblue" d="M81.9107,-209.685C100.161,-188.836 135.381,-151.438 172,-128 174.974,-126.097 178.116,-124.293 181.346,-122.591"/>
<polygon fill="midnightblue" stroke="midnightblue" points="183.156,-125.602 190.608,-118.071 180.086,-119.312 183.156,-125.602"/>
</g>
<!-- Node19 -->
<g id="node14" class="node"><title>Node19</title>
<g id="a_node14"><a xlink:href="../../d7/d0b/classefd_1_1CircuitGraph_1_1Iterator.xhtml#af67b0dc3050162bf837a9b5c18fe27e3" target="_top" xlink:title="efd::CircuitGraph::\lIterator::operator[]">
<polygon fill="none" stroke="black" points="186.5,-39 186.5,-69 283.5,-69 283.5,-39 186.5,-39"/>
<text text-anchor="start" x="194.5" y="-57" font-family="Helvetica,sans-Serif" font-size="10.00">efd::CircuitGraph::</text>
<text text-anchor="middle" x="235" y="-46" font-family="Helvetica,sans-Serif" font-size="10.00">Iterator::operator[]</text>
</a>
</g>
</g>
<!-- Node6&#45;&gt;Node19 -->
<g id="edge13" class="edge"><title>Node6&#45;&gt;Node19</title>
<path fill="none" stroke="midnightblue" d="M76.1165,-209.579C90.3579,-180.277 125.068,-116.17 172,-79 174.26,-77.2098 176.666,-75.5317 179.167,-73.9606"/>
<polygon fill="midnightblue" stroke="midnightblue" points="180.958,-76.969 187.968,-69.0248 177.534,-70.8636 180.958,-76.969"/>
</g>
<!-- Node20 -->
<g id="node15" class="node"><title>Node20</title>
<g id="a_node15"><a xlink:href="../../d6/d6a/classefd_1_1Node.xhtml#a96ca13a5c2b971b68619ce4a34be0f66" target="_top" xlink:title="Returns a std::string representation of this Node and its childrem. ">
<polygon fill="none" stroke="black" points="185.5,-0.5 185.5,-19.5 284.5,-19.5 284.5,-0.5 185.5,-0.5"/>
<text text-anchor="middle" x="235" y="-7.5" font-family="Helvetica,sans-Serif" font-size="10.00">efd::Node::toString</text>
</a>
</g>
</g>
<!-- Node6&#45;&gt;Node20 -->
<g id="edge14" class="edge"><title>Node6&#45;&gt;Node20</title>
<path fill="none" stroke="midnightblue" d="M72.7625,-209.813C82.5874,-173.31 112.477,-79.9771 172,-30 174.68,-27.75 177.617,-25.7518 180.711,-23.9773"/>
<polygon fill="midnightblue" stroke="midnightblue" points="182.319,-27.0872 189.76,-19.5455 179.24,-20.8007 182.319,-27.0872"/>
</g>
<!-- Node12 -->
<g id="node7" class="node"><title>Node12</title>
<g id="a_node7"><a xlink:href="../../d6/d6a/classefd_1_1Node.xhtml#a63e30243eca03b0c85d8c4856e91c79d" target="_top" xlink:title="Gets the i&#45;th child. ">
<polygon fill="none" stroke="black" points="350.5,-240.5 350.5,-259.5 451.5,-259.5 451.5,-240.5 350.5,-240.5"/>
<text text-anchor="middle" x="401" y="-247.5" font-family="Helvetica,sans-Serif" font-size="10.00">efd::Node::getChild</text>
</a>
</g>
</g>
<!-- Node11&#45;&gt;Node12 -->
<g id="edge6" class="edge"><title>Node11&#45;&gt;Node12</title>
<path fill="none" stroke="midnightblue" d="M292.899,-250C308.083,-250 324.537,-250 339.888,-250"/>
<polygon fill="midnightblue" stroke="midnightblue" points="340.31,-253.5 350.31,-250 340.309,-246.5 340.31,-253.5"/>
</g>
<!-- Node14 -->
<g id="node9" class="node"><title>Node14</title>
<g id="a_node9"><a xlink:href="../../db/d0c/structefd_1_1XbitToNumber.xhtml#a7d9474b325920d98f5832d5f1923ba2b" target="_top" xlink:title="Gets a constant reference to the mapping of qubtis of a gate. ">
<polygon fill="none" stroke="black" points="348.5,-186 348.5,-216 453.5,-216 453.5,-186 348.5,-186"/>
<text text-anchor="start" x="356.5" y="-204" font-family="Helvetica,sans-Serif" font-size="10.00">efd::XbitToNumber::</text>
<text text-anchor="middle" x="401" y="-193" font-family="Helvetica,sans-Serif" font-size="10.00">getQbitMap</text>
</a>
</g>
</g>
<!-- Node13&#45;&gt;Node14 -->
<g id="edge8" class="edge"><title>Node13&#45;&gt;Node14</title>
<path fill="none" stroke="midnightblue" d="M287.891,-201C303.899,-201 321.686,-201 338.289,-201"/>
<polygon fill="midnightblue" stroke="midnightblue" points="338.447,-204.5 348.447,-201 338.447,-197.5 338.447,-204.5"/>
</g>
<!-- Node16 -->
<g id="node11" class="node"><title>Node16</title>
<g id="a_node11"><a xlink:href="../../d9/dbc/structefd_1_1CircuitGraph_1_1CircuitNode.xhtml#a08725ecabe57a0f5aa58ca11f1b9fce6" target="_top" xlink:title="True if this node is in the beginning (input node). ">
<polygon fill="none" stroke="black" points="337.5,-137 337.5,-167 464.5,-167 464.5,-137 337.5,-137"/>
<text text-anchor="start" x="345.5" y="-155" font-family="Helvetica,sans-Serif" font-size="10.00">efd::CircuitGraph::</text>
<text text-anchor="middle" x="401" y="-144" font-family="Helvetica,sans-Serif" font-size="10.00">CircuitNode::isInputNode</text>
</a>
</g>
</g>
<!-- Node15&#45;&gt;Node16 -->
<g id="edge10" class="edge"><title>Node15&#45;&gt;Node16</title>
<path fill="none" stroke="midnightblue" d="M298.001,-152C307.561,-152 317.507,-152 327.275,-152"/>
<polygon fill="midnightblue" stroke="midnightblue" points="327.366,-155.5 337.366,-152 327.366,-148.5 327.366,-155.5"/>
</g>
<!-- Node17 -->
<g id="node12" class="node"><title>Node17</title>
<g id="a_node12"><a xlink:href="../../d9/dbc/structefd_1_1CircuitGraph_1_1CircuitNode.xhtml#a05bee78f4954f7ac4bab2e16f99dc26c" target="_top" xlink:title="True if this node has reached the end (output node). ">
<polygon fill="none" stroke="black" points="334,-88 334,-118 468,-118 468,-88 334,-88"/>
<text text-anchor="start" x="342" y="-106" font-family="Helvetica,sans-Serif" font-size="10.00">efd::CircuitGraph::</text>
<text text-anchor="middle" x="401" y="-95" font-family="Helvetica,sans-Serif" font-size="10.00">CircuitNode::isOutputNode</text>
</a>
</g>
</g>
<!-- Node15&#45;&gt;Node17 -->
<g id="edge11" class="edge"><title>Node15&#45;&gt;Node17</title>
<path fill="none" stroke="midnightblue" d="M286.544,-136.899C303.458,-131.845 322.477,-126.162 340.039,-120.915"/>
<polygon fill="midnightblue" stroke="midnightblue" points="341.044,-124.268 349.623,-118.052 339.04,-117.561 341.044,-124.268"/>
</g>
</g>
</svg>
