<?xml version="1.0" encoding="UTF-8" standalone="no"?>
<!DOCTYPE svg PUBLIC "-//W3C//DTD SVG 1.1//EN"
 "http://www.w3.org/Graphics/SVG/1.1/DTD/svg11.dtd">
<!-- Generated by graphviz version 2.40.1 (20161225.0304)
 -->
<!-- Title: lib/Transform/IntrinsicGateCostPass.cpp Pages: 1 -->
<!--zoomable 341 -->
<svg id="main" version="1.1" xmlns="http://www.w3.org/2000/svg" xmlns:xlink="http://www.w3.org/1999/xlink" xml:space="preserve" onload="init(evt)">
<style type="text/css"><![CDATA[
.edge:hover path { stroke: red; }
.edge:hover polygon { stroke: red; fill: red; }
]]></style>
<script type="text/javascript"><![CDATA[
var edges = document.getElementsByTagName('g');
if (edges && edges.length) {
  for (var i=0;i<edges.length;i++) {
    if (edges[i].id.substr(0,4)=='edge') {
      edges[i].setAttribute('class','edge');
    }
  }
}
]]></script>
        <defs>
                <circle id="rim" cx="0" cy="0" r="7"/>
                <circle id="rim2" cx="0" cy="0" r="3.5"/>
                <g id="zoomPlus">
                        <use xlink:href="#rim" fill="#404040">
                                <set attributeName="fill" to="#808080" begin="zoomplus.mouseover" end="zoomplus.mouseout"/>
                        </use>
                        <path d="M-4,0h8M0,-4v8" fill="none" stroke="white" stroke-width="1.5" pointer-events="none"/>
                </g>
                <g id="zoomMin">
                        <use xlink:href="#rim" fill="#404040">
                                <set attributeName="fill" to="#808080" begin="zoomminus.mouseover" end="zoomminus.mouseout"/>
                        </use>
                        <path d="M-4,0h8" fill="none" stroke="white" stroke-width="1.5" pointer-events="none"/>
                </g>
                <g id="dirArrow">
                        <path fill="none" stroke="white" stroke-width="1.5" d="M0,-3.0v7 M-2.5,-0.5L0,-3.0L2.5,-0.5"/>
                </g>
               <g id="resetDef">
                       <use xlink:href="#rim2" fill="#404040">
                               <set attributeName="fill" to="#808080" begin="reset.mouseover" end="reset.mouseout"/>
                       </use>
               </g>
        </defs>

<script type="text/javascript">
var viewWidth = 1097;
var viewHeight = 341;
var sectionId = 'dynsection-0';
</script>
<script xlink:href="../../svgpan.js"/>
<svg id="graph" class="graph">
<g id="viewport">
<title>lib/Transform/IntrinsicGateCostPass.cpp</title>
<!-- Node0 -->
<g id="node1" class="node">
<title>Node0</title>
<polygon fill="#bfbfbf" stroke="#000000" points="585.5,-302.5 585.5,-332.5 732.5,-332.5 732.5,-302.5 585.5,-302.5"/>
<text text-anchor="start" x="593.5" y="-320.5" font-family="Helvetica,sans-Serif" font-size="10.00" fill="#000000">lib/Transform/IntrinsicGate</text>
<text text-anchor="middle" x="659" y="-309.5" font-family="Helvetica,sans-Serif" font-size="10.00" fill="#000000">CostPass.cpp</text>
</g>
<!-- Node1 -->
<g id="node2" class="node">
<title>Node1</title>
<g id="a_node2"><a xlink:href="../../d3/db5/IntrinsicGateCostPass_8h.xhtml" target="_top" xlink:title="enfield/Transform/Intrinsic\lGateCostPass.h">
<polygon fill="none" stroke="#000000" points="841,-235.5 841,-265.5 987,-265.5 987,-235.5 841,-235.5"/>
<text text-anchor="start" x="849" y="-253.5" font-family="Helvetica,sans-Serif" font-size="10.00" fill="#000000">enfield/Transform/Intrinsic</text>
<text text-anchor="middle" x="914" y="-242.5" font-family="Helvetica,sans-Serif" font-size="10.00" fill="#000000">GateCostPass.h</text>
</a>
</g>
</g>
<!-- Node0&#45;&gt;Node1 -->
<g id="edge1" class="edge">
<title>Node0&#45;&gt;Node1</title>
<path fill="none" stroke="#191970" d="M716.227,-302.4639C754.8888,-292.3057 806.0874,-278.8535 846.7051,-268.1814"/>
<polygon fill="#191970" stroke="#191970" points="847.7411,-271.5281 856.5234,-265.6017 845.9623,-264.7579 847.7411,-271.5281"/>
</g>
<!-- Node13 -->
<g id="node14" class="node">
<title>Node13</title>
<g id="a_node14"><a xlink:href="../../d9/d41/CommandLine_8h.xhtml" target="_top" xlink:title="enfield/Support/CommandLine.h">
<polygon fill="none" stroke="#000000" points="328.5,-241 328.5,-260 501.5,-260 501.5,-241 328.5,-241"/>
<text text-anchor="middle" x="415" y="-248" font-family="Helvetica,sans-Serif" font-size="10.00" fill="#000000">enfield/Support/CommandLine.h</text>
</a>
</g>
</g>
<!-- Node0&#45;&gt;Node13 -->
<g id="edge15" class="edge">
<title>Node0&#45;&gt;Node13</title>
<path fill="none" stroke="#191970" d="M604.2416,-302.4639C560.4977,-290.4522 499.9811,-273.835 459.2637,-262.6544"/>
<polygon fill="#191970" stroke="#191970" points="460.1861,-259.2782 449.6163,-260.0053 458.3325,-266.0283 460.1861,-259.2782"/>
</g>
<!-- Node2 -->
<g id="node3" class="node">
<title>Node2</title>
<g id="a_node3"><a xlink:href="../../d4/d73/QModule_8h.xhtml" target="_top" xlink:title="enfield/Transform/QModule.h">
<polygon fill="none" stroke="#000000" points="835,-174 835,-193 993,-193 993,-174 835,-174"/>
<text text-anchor="middle" x="914" y="-181" font-family="Helvetica,sans-Serif" font-size="10.00" fill="#000000">enfield/Transform/QModule.h</text>
</a>
</g>
</g>
<!-- Node1&#45;&gt;Node2 -->
<g id="edge2" class="edge">
<title>Node1&#45;&gt;Node2</title>
<path fill="none" stroke="#191970" d="M914,-235.2967C914,-225.7699 914,-213.3954 914,-203.1306"/>
<polygon fill="#191970" stroke="#191970" points="917.5001,-203.0549 914,-193.055 910.5001,-203.055 917.5001,-203.0549"/>
</g>
<!-- Node11 -->
<g id="node12" class="node">
<title>Node11</title>
<g id="a_node12"><a xlink:href="../../df/d29/Pass_8h.xhtml" target="_top" xlink:title="enfield/Transform/Pass.h">
<polygon fill="none" stroke="#000000" points="951,-112.5 951,-131.5 1089,-131.5 1089,-112.5 951,-112.5"/>
<text text-anchor="middle" x="1020" y="-119.5" font-family="Helvetica,sans-Serif" font-size="10.00" fill="#000000">enfield/Transform/Pass.h</text>
</a>
</g>
</g>
<!-- Node1&#45;&gt;Node11 -->
<g id="edge14" class="edge">
<title>Node1&#45;&gt;Node11</title>
<path fill="none" stroke="#191970" d="M954.5849,-235.3135C971.5898,-227.0189 990.127,-215.0982 1002,-199 1014.3147,-182.3029 1018.3627,-158.4856 1019.6127,-141.7735"/>
<polygon fill="#191970" stroke="#191970" points="1023.1215,-141.6678 1020.0982,-131.5135 1016.1293,-141.3368 1023.1215,-141.6678"/>
</g>
<!-- Node3 -->
<g id="node4" class="node">
<title>Node3</title>
<g id="a_node4"><a xlink:href="../../d4/daf/Nodes_8h.xhtml" target="_top" xlink:title="enfield/Analysis/Nodes.h">
<polygon fill="none" stroke="#000000" points="643.5,-112.5 643.5,-131.5 780.5,-131.5 780.5,-112.5 643.5,-112.5"/>
<text text-anchor="middle" x="712" y="-119.5" font-family="Helvetica,sans-Serif" font-size="10.00" fill="#000000">enfield/Analysis/Nodes.h</text>
</a>
</g>
</g>
<!-- Node2&#45;&gt;Node3 -->
<g id="edge3" class="edge">
<title>Node2&#45;&gt;Node3</title>
<path fill="none" stroke="#191970" d="M882.4375,-173.8906C847.6015,-163.2846 791.405,-146.1753 753.1412,-134.5257"/>
<polygon fill="#191970" stroke="#191970" points="753.9267,-131.1063 743.3409,-131.5419 751.8879,-137.8028 753.9267,-131.1063"/>
</g>
<!-- Node2&#45;&gt;Node11 -->
<g id="edge11" class="edge">
<title>Node2&#45;&gt;Node11</title>
<path fill="none" stroke="#191970" d="M930.5625,-173.8906C947.7537,-163.9165 974.8582,-148.1908 994.7266,-136.6633"/>
<polygon fill="#191970" stroke="#191970" points="996.6606,-139.5877 1003.5538,-131.5419 993.1477,-133.533 996.6606,-139.5877"/>
</g>
<!-- Node12 -->
<g id="node13" class="node">
<title>Node12</title>
<polygon fill="none" stroke="#bfbfbf" points="839.5,-112.5 839.5,-131.5 932.5,-131.5 932.5,-112.5 839.5,-112.5"/>
<text text-anchor="middle" x="886" y="-119.5" font-family="Helvetica,sans-Serif" font-size="10.00" fill="#000000">unordered_map</text>
</g>
<!-- Node2&#45;&gt;Node12 -->
<g id="edge13" class="edge">
<title>Node2&#45;&gt;Node12</title>
<path fill="none" stroke="#191970" d="M909.625,-173.8906C905.6212,-165.0965 899.5817,-151.8312 894.6115,-140.9145"/>
<polygon fill="#191970" stroke="#191970" points="897.7657,-139.3957 890.4367,-131.7449 891.3949,-142.2963 897.7657,-139.3957"/>
</g>
<!-- Node4 -->
<g id="node5" class="node">
<title>Node4</title>
<g id="a_node5"><a xlink:href="../../d1/d2e/WrapperVal_8h.xhtml" target="_top" xlink:title="enfield/Support/WrapperVal.h">
<polygon fill="none" stroke="#000000" points="481,-56.5 481,-75.5 641,-75.5 641,-56.5 481,-56.5"/>
<text text-anchor="middle" x="561" y="-63.5" font-family="Helvetica,sans-Serif" font-size="10.00" fill="#000000">enfield/Support/WrapperVal.h</text>
</a>
</g>
</g>
<!-- Node3&#45;&gt;Node4 -->
<g id="edge4" class="edge">
<title>Node3&#45;&gt;Node4</title>
<path fill="none" stroke="#191970" d="M686.0422,-112.3733C661.2593,-103.1822 623.7254,-89.2624 596.246,-79.0713"/>
<polygon fill="#191970" stroke="#191970" points="597.2121,-75.6968 586.6191,-75.5011 594.7781,-82.26 597.2121,-75.6968"/>
</g>
<!-- Node6 -->
<g id="node7" class="node">
<title>Node6</title>
<g id="a_node7"><a xlink:href="../../d5/dfc/RTTI_8h.xhtml" target="_top" xlink:title="enfield/Support/RTTI.h">
<polygon fill="none" stroke="#000000" points="659.5,-56.5 659.5,-75.5 784.5,-75.5 784.5,-56.5 659.5,-56.5"/>
<text text-anchor="middle" x="722" y="-63.5" font-family="Helvetica,sans-Serif" font-size="10.00" fill="#000000">enfield/Support/RTTI.h</text>
</a>
</g>
</g>
<!-- Node3&#45;&gt;Node6 -->
<g id="edge6" class="edge">
<title>Node3&#45;&gt;Node6</title>
<path fill="none" stroke="#191970" d="M713.7419,-112.2455C715.0467,-104.9382 716.876,-94.6944 718.4813,-85.7046"/>
<polygon fill="#191970" stroke="#191970" points="721.9656,-86.1022 720.2781,-75.6427 715.0746,-84.8717 721.9656,-86.1022"/>
</g>
<!-- Node7 -->
<g id="node8" class="node">
<title>Node7</title>
<polygon fill="none" stroke="#bfbfbf" points="802.5,-56.5 802.5,-75.5 885.5,-75.5 885.5,-56.5 802.5,-56.5"/>
<text text-anchor="middle" x="844" y="-63.5" font-family="Helvetica,sans-Serif" font-size="10.00" fill="#000000">initializer_list</text>
</g>
<!-- Node3&#45;&gt;Node7 -->
<g id="edge7" class="edge">
<title>Node3&#45;&gt;Node7</title>
<path fill="none" stroke="#191970" d="M734.6916,-112.3733C756.0711,-103.3032 788.3057,-89.6279 812.2362,-79.4755"/>
<polygon fill="#191970" stroke="#191970" points="813.7656,-82.6287 821.6045,-75.5011 811.0317,-76.1846 813.7656,-82.6287"/>
</g>
<!-- Node8 -->
<g id="node9" class="node">
<title>Node8</title>
<polygon fill="none" stroke="#bfbfbf" points="904,-56.5 904,-75.5 964,-75.5 964,-56.5 904,-56.5"/>
<text text-anchor="middle" x="934" y="-63.5" font-family="Helvetica,sans-Serif" font-size="10.00" fill="#000000">iostream</text>
</g>
<!-- Node3&#45;&gt;Node8 -->
<g id="edge8" class="edge">
<title>Node3&#45;&gt;Node8</title>
<path fill="none" stroke="#191970" d="M749.9109,-112.4369C789.9827,-102.3287 852.9316,-86.4497 893.8364,-76.1314"/>
<polygon fill="#191970" stroke="#191970" points="894.8935,-79.4744 903.7336,-73.6348 893.1813,-72.687 894.8935,-79.4744"/>
</g>
<!-- Node9 -->
<g id="node10" class="node">
<title>Node9</title>
<polygon fill="none" stroke="#bfbfbf" points="334.5,-.5 334.5,-19.5 381.5,-19.5 381.5,-.5 334.5,-.5"/>
<text text-anchor="middle" x="358" y="-7.5" font-family="Helvetica,sans-Serif" font-size="10.00" fill="#000000">vector</text>
</g>
<!-- Node3&#45;&gt;Node9 -->
<g id="edge9" class="edge">
<title>Node3&#45;&gt;Node9</title>
<path fill="none" stroke="#191970" d="M643.365,-115.0475C594.4466,-108.6143 527.7479,-96.7982 472,-76 437.7257,-63.2131 401.7743,-40.6372 379.6235,-25.4981"/>
<polygon fill="#191970" stroke="#191970" points="381.5033,-22.5423 371.2943,-19.7091 377.5083,-28.2903 381.5033,-22.5423"/>
</g>
<!-- Node10 -->
<g id="node11" class="node">
<title>Node10</title>
<polygon fill="none" stroke="#bfbfbf" points="982,-56.5 982,-75.5 1040,-75.5 1040,-56.5 982,-56.5"/>
<text text-anchor="middle" x="1011" y="-63.5" font-family="Helvetica,sans-Serif" font-size="10.00" fill="#000000">memory</text>
</g>
<!-- Node3&#45;&gt;Node10 -->
<g id="edge10" class="edge">
<title>Node3&#45;&gt;Node10</title>
<path fill="none" stroke="#191970" d="M774.5127,-112.4755C825.2858,-104.3988 898.927,-91.9143 971.7922,-76.1388"/>
<polygon fill="#191970" stroke="#191970" points="972.5785,-79.5497 981.5999,-73.9941 971.083,-72.7113 972.5785,-79.5497"/>
</g>
<!-- Node5 -->
<g id="node6" class="node">
<title>Node5</title>
<polygon fill="none" stroke="#bfbfbf" points="466,-.5 466,-19.5 510,-19.5 510,-.5 466,-.5"/>
<text text-anchor="middle" x="488" y="-7.5" font-family="Helvetica,sans-Serif" font-size="10.00" fill="#000000">string</text>
</g>
<!-- Node4&#45;&gt;Node5 -->
<g id="edge5" class="edge">
<title>Node4&#45;&gt;Node5</title>
<path fill="none" stroke="#191970" d="M548.2844,-56.2455C537.398,-47.8943 521.5117,-35.7076 508.78,-25.9408"/>
<polygon fill="#191970" stroke="#191970" points="510.6346,-22.9523 500.5699,-19.6427 506.3739,-28.5063 510.6346,-22.9523"/>
</g>
<!-- Node11&#45;&gt;Node10 -->
<g id="edge12" class="edge">
<title>Node11&#45;&gt;Node10</title>
<path fill="none" stroke="#191970" d="M1018.4323,-112.2455C1017.2579,-104.9382 1015.6116,-94.6944 1014.1668,-85.7046"/>
<polygon fill="#191970" stroke="#191970" points="1017.5922,-84.9606 1012.5497,-75.6427 1010.6809,-86.0714 1017.5922,-84.9606"/>
</g>
<!-- Node13&#45;&gt;Node5 -->
<g id="edge26" class="edge">
<title>Node13&#45;&gt;Node5</title>
<path fill="none" stroke="#191970" d="M417.6769,-240.7336C425.5453,-212.172 449.4646,-126.3737 472,-56 474.8285,-47.1673 478.1705,-37.4588 481.0667,-29.2465"/>
<polygon fill="#191970" stroke="#191970" points="484.3648,-30.4177 484.4246,-19.823 477.7709,-28.068 484.3648,-30.4177"/>
</g>
<!-- Node13&#45;&gt;Node9 -->
<g id="edge27" class="edge">
<title>Node13&#45;&gt;Node9</title>
<path fill="none" stroke="#191970" d="M412.1935,-240.6591C409.2754,-230.3182 404.6345,-213.5634 401,-199 385.6999,-137.6927 369.7104,-64.6385 362.2744,-30.0537"/>
<polygon fill="#191970" stroke="#191970" points="365.6106,-28.9176 360.0939,-19.8723 358.7658,-30.3835 365.6106,-28.9176"/>
</g>
<!-- Node13&#45;&gt;Node10 -->
<g id="edge28" class="edge">
<title>Node13&#45;&gt;Node10</title>
<path fill="none" stroke="#191970" d="M451.1965,-240.9449C518.6896,-222.7097 667.8869,-180.422 789,-132 807.8258,-124.4733 810.9562,-118.9566 830,-112 888.6743,-90.5667 907.7504,-92.1304 972.1255,-76.1635"/>
<polygon fill="#191970" stroke="#191970" points="973.1256,-79.5208 981.9622,-73.6757 971.4093,-72.7345 973.1256,-79.5208"/>
</g>
<!-- Node14 -->
<g id="node15" class="node">
<title>Node14</title>
<g id="a_node15"><a xlink:href="../../d1/d5e/PossibleValuesListTrait_8h.xhtml" target="_top" xlink:title="enfield/Support/Possible\lValuesListTrait.h">
<polygon fill="none" stroke="#000000" points="209,-168.5 209,-198.5 343,-198.5 343,-168.5 209,-168.5"/>
<text text-anchor="start" x="217" y="-186.5" font-family="Helvetica,sans-Serif" font-size="10.00" fill="#000000">enfield/Support/Possible</text>
<text text-anchor="middle" x="276" y="-175.5" font-family="Helvetica,sans-Serif" font-size="10.00" fill="#000000">ValuesListTrait.h</text>
</a>
</g>
</g>
<!-- Node13&#45;&gt;Node14 -->
<g id="edge16" class="edge">
<title>Node13&#45;&gt;Node14</title>
<path fill="none" stroke="#191970" d="M395.0847,-240.9005C374.6264,-231.0393 342.2072,-215.4128 316.3568,-202.9526"/>
<polygon fill="#191970" stroke="#191970" points="317.6924,-199.711 307.1646,-198.5218 314.653,-206.0167 317.6924,-199.711"/>
</g>
<!-- Node15 -->
<g id="node16" class="node">
<title>Node15</title>
<g id="a_node16"><a xlink:href="../../dd/d62/EnumString_8h.xhtml" target="_top" xlink:title="enfield/Support/EnumString.h">
<polygon fill="none" stroke="#000000" points="189.5,-112.5 189.5,-131.5 348.5,-131.5 348.5,-112.5 189.5,-112.5"/>
<text text-anchor="middle" x="269" y="-119.5" font-family="Helvetica,sans-Serif" font-size="10.00" fill="#000000">enfield/Support/EnumString.h</text>
</a>
</g>
</g>
<!-- Node14&#45;&gt;Node15 -->
<g id="edge17" class="edge">
<title>Node14&#45;&gt;Node15</title>
<path fill="none" stroke="#191970" d="M274.2697,-168.2977C273.3587,-160.2945 272.2307,-150.3843 271.2524,-141.7889"/>
<polygon fill="#191970" stroke="#191970" points="274.7293,-141.3869 270.1208,-131.8469 267.7742,-142.1786 274.7293,-141.3869"/>
</g>
<!-- Node15&#45;&gt;Node9 -->
<g id="edge23" class="edge">
<title>Node15&#45;&gt;Node9</title>
<path fill="none" stroke="#191970" d="M281.4668,-112.2933C292.209,-103.5405 307.7212,-89.9368 319,-76 330.9925,-61.1812 341.7742,-42.2836 348.9457,-28.5105"/>
<polygon fill="#191970" stroke="#191970" points="352.1035,-30.0218 353.4953,-19.5187 345.8575,-26.8614 352.1035,-30.0218"/>
</g>
<!-- Node16 -->
<g id="node17" class="node">
<title>Node16</title>
<g id="a_node17"><a xlink:href="../../d1/d73/Defs_8h.xhtml" target="_top" xlink:title="enfield/Support/Defs.h">
<polygon fill="none" stroke="#000000" points="27.5,-56.5 27.5,-75.5 152.5,-75.5 152.5,-56.5 27.5,-56.5"/>
<text text-anchor="middle" x="90" y="-63.5" font-family="Helvetica,sans-Serif" font-size="10.00" fill="#000000">enfield/Support/Defs.h</text>
</a>
</g>
</g>
<!-- Node15&#45;&gt;Node16 -->
<g id="edge18" class="edge">
<title>Node15&#45;&gt;Node16</title>
<path fill="none" stroke="#191970" d="M238.2288,-112.3733C208.335,-103.021 162.7907,-88.7725 130.0783,-78.5385"/>
<polygon fill="#191970" stroke="#191970" points="130.9586,-75.1466 120.3697,-75.5011 128.8685,-81.8273 130.9586,-75.1466"/>
</g>
<!-- Node20 -->
<g id="node21" class="node">
<title>Node20</title>
<polygon fill="none" stroke="#bfbfbf" points="171,-56.5 171,-75.5 235,-75.5 235,-56.5 171,-56.5"/>
<text text-anchor="middle" x="203" y="-63.5" font-family="Helvetica,sans-Serif" font-size="10.00" fill="#000000">algorithm</text>
</g>
<!-- Node15&#45;&gt;Node20 -->
<g id="edge24" class="edge">
<title>Node15&#45;&gt;Node20</title>
<path fill="none" stroke="#191970" d="M257.5037,-112.2455C247.7558,-103.9746 233.5741,-91.9416 222.1202,-82.2232"/>
<polygon fill="#191970" stroke="#191970" points="224.2541,-79.4437 214.3646,-75.6427 219.7253,-84.7813 224.2541,-79.4437"/>
</g>
<!-- Node21 -->
<g id="node22" class="node">
<title>Node21</title>
<polygon fill="none" stroke="#bfbfbf" points="253.5,-56.5 253.5,-75.5 310.5,-75.5 310.5,-56.5 253.5,-56.5"/>
<text text-anchor="middle" x="282" y="-63.5" font-family="Helvetica,sans-Serif" font-size="10.00" fill="#000000">typeinfo</text>
</g>
<!-- Node15&#45;&gt;Node21 -->
<g id="edge25" class="edge">
<title>Node15&#45;&gt;Node21</title>
<path fill="none" stroke="#191970" d="M271.2644,-112.2455C272.9794,-104.8579 275.3912,-94.4689 277.4944,-85.4087"/>
<polygon fill="#191970" stroke="#191970" points="280.9095,-86.1751 279.7615,-75.6427 274.0908,-84.5922 280.9095,-86.1751"/>
</g>
<!-- Node16&#45;&gt;Node9 -->
<g id="edge19" class="edge">
<title>Node16&#45;&gt;Node9</title>
<path fill="none" stroke="#191970" d="M135.7663,-56.4369C189.3892,-45.2321 276.9468,-26.9365 324.5766,-16.984"/>
<polygon fill="#191970" stroke="#191970" points="325.3144,-20.4055 334.3871,-14.934 323.8826,-13.5535 325.3144,-20.4055"/>
</g>
<!-- Node17 -->
<g id="node18" class="node">
<title>Node17</title>
<polygon fill="none" stroke="#bfbfbf" points="0,-.5 0,-19.5 50,-19.5 50,-.5 0,-.5"/>
<text text-anchor="middle" x="25" y="-7.5" font-family="Helvetica,sans-Serif" font-size="10.00" fill="#000000">cstdint</text>
</g>
<!-- Node16&#45;&gt;Node17 -->
<g id="edge20" class="edge">
<title>Node16&#45;&gt;Node17</title>
<path fill="none" stroke="#191970" d="M78.6779,-56.2455C69.0777,-47.9746 55.1108,-35.9416 43.8305,-26.2232"/>
<polygon fill="#191970" stroke="#191970" points="46.053,-23.5182 36.1924,-19.6427 41.484,-28.8214 46.053,-23.5182"/>
</g>
<!-- Node18 -->
<g id="node19" class="node">
<title>Node18</title>
<polygon fill="none" stroke="#bfbfbf" points="68,-.5 68,-19.5 112,-19.5 112,-.5 68,-.5"/>
<text text-anchor="middle" x="90" y="-7.5" font-family="Helvetica,sans-Serif" font-size="10.00" fill="#000000">limits</text>
</g>
<!-- Node16&#45;&gt;Node18 -->
<g id="edge21" class="edge">
<title>Node16&#45;&gt;Node18</title>
<path fill="none" stroke="#191970" d="M90,-56.2455C90,-48.9382 90,-38.6944 90,-29.7046"/>
<polygon fill="#191970" stroke="#191970" points="93.5001,-29.6426 90,-19.6427 86.5001,-29.6427 93.5001,-29.6426"/>
</g>
<!-- Node19 -->
<g id="node20" class="node">
<title>Node19</title>
<polygon fill="none" stroke="#bfbfbf" points="130.5,-.5 130.5,-19.5 187.5,-19.5 187.5,-.5 130.5,-.5"/>
<text text-anchor="middle" x="159" y="-7.5" font-family="Helvetica,sans-Serif" font-size="10.00" fill="#000000">ostream</text>
</g>
<!-- Node16&#45;&gt;Node19 -->
<g id="edge22" class="edge">
<title>Node16&#45;&gt;Node19</title>
<path fill="none" stroke="#191970" d="M102.0189,-56.2455C112.2098,-47.9746 127.0362,-35.9416 139.0107,-26.2232"/>
<polygon fill="#191970" stroke="#191970" points="141.5598,-28.662 147.1188,-19.6427 137.1486,-23.2268 141.5598,-28.662"/>
</g>
</g>
</svg>
        <g id="navigator" transform="translate(0 0)" fill="#404254">
                <rect fill="#f2f5e9" fill-opacity="0.5" stroke="#606060" stroke-width=".5" x="0" y="0" width="60" height="60"/>
                <use id="zoomplus" xlink:href="#zoomPlus" x="17" y="9" onmousedown="handleZoom(evt,'in')"/>
                <use id="zoomminus" xlink:href="#zoomMin" x="42" y="9" onmousedown="handleZoom(evt,'out')"/>
                <use id="reset" xlink:href="#resetDef" x="30" y="36" onmousedown="handleReset()"/>
                <g id="arrowUp" xlink:href="#dirArrow" transform="translate(30 24)" onmousedown="handlePan(0,-1)">
                  <use xlink:href="#rim" fill="#404040">
                        <set attributeName="fill" to="#808080" begin="arrowUp.mouseover" end="arrowUp.mouseout"/>
                  </use>
                  <path fill="none" stroke="white" stroke-width="1.5" d="M0,-3.0v7 M-2.5,-0.5L0,-3.0L2.5,-0.5"/>
                </g>
                <g id="arrowRight" xlink:href="#dirArrow" transform="rotate(90) translate(36 -43)" onmousedown="handlePan(1,0)">
                  <use xlink:href="#rim" fill="#404040">
                        <set attributeName="fill" to="#808080" begin="arrowRight.mouseover" end="arrowRight.mouseout"/>
                  </use>
                  <path fill="none" stroke="white" stroke-width="1.5" d="M0,-3.0v7 M-2.5,-0.5L0,-3.0L2.5,-0.5"/>
                </g>
                <g id="arrowDown" xlink:href="#dirArrow" transform="rotate(180) translate(-30 -48)" onmousedown="handlePan(0,1)">
                  <use xlink:href="#rim" fill="#404040">
                        <set attributeName="fill" to="#808080" begin="arrowDown.mouseover" end="arrowDown.mouseout"/>
                  </use>
                  <path fill="none" stroke="white" stroke-width="1.5" d="M0,-3.0v7 M-2.5,-0.5L0,-3.0L2.5,-0.5"/>
                </g>
                <g id="arrowLeft" xlink:href="#dirArrow" transform="rotate(270) translate(-36 17)" onmousedown="handlePan(-1,0)">
                  <use xlink:href="#rim" fill="#404040">
                        <set attributeName="fill" to="#808080" begin="arrowLeft.mouseover" end="arrowLeft.mouseout"/>
                  </use>
                  <path fill="none" stroke="white" stroke-width="1.5" d="M0,-3.0v7 M-2.5,-0.5L0,-3.0L2.5,-0.5"/>
                </g>
        </g>
        <svg viewBox="0 0 15 15" width="100%" height="30px" preserveAspectRatio="xMaxYMin meet">
         <g id="arrow_out" transform="scale(0.3 0.3)">
          <a xlink:href="IntrinsicGateCostPass_8cpp__incl_org.svg" target="_base">
           <rect id="button" ry="5" rx="5" y="6" x="6" height="38" width="38"
                fill="#f2f5e9" fill-opacity="0.5" stroke="#606060" stroke-width="1.0"/>
           <path id="arrow"
             d="M 11.500037,31.436501 C 11.940474,20.09759 22.043105,11.32322 32.158766,21.979434 L 37.068811,17.246167 C 37.068811,17.246167 37.088388,32 37.088388,32 L 22.160133,31.978069 C 22.160133,31.978069 26.997745,27.140456 26.997745,27.140456 C 18.528582,18.264221 13.291696,25.230495 11.500037,31.436501 z"
             style="fill:#404040;"/>
          </a>
         </g>
        </svg>
</svg>
