<?xml version="1.0" encoding="UTF-8" standalone="no"?>
<!DOCTYPE svg PUBLIC "-//W3C//DTD SVG 1.1//EN"
 "http://www.w3.org/Graphics/SVG/1.1/DTD/svg11.dtd">
<!-- Generated by graphviz version 2.40.1 (20161225.0304)
 -->
<!-- Title: efd::IntrinsicGateCostPass Pages: 1 -->
<svg width="188pt" height="219pt"
 viewBox="0.00 0.00 188.00 219.00" xmlns="http://www.w3.org/2000/svg" xmlns:xlink="http://www.w3.org/1999/xlink">
<g id="graph0" class="graph" transform="scale(1 1) rotate(0) translate(4 215)">
<title>efd::IntrinsicGateCostPass</title>
<!-- Node4 -->
<g id="node1" class="node">
<title>Node4</title>
<polygon fill="#bfbfbf" stroke="#000000" points="0,-.5 0,-19.5 145,-19.5 145,-.5 0,-.5"/>
<text text-anchor="middle" x="72.5" y="-7.5" font-family="Helvetica,sans-Serif" font-size="10.00" fill="#000000">efd::IntrinsicGateCostPass</text>
</g>
<!-- Node5 -->
<g id="node2" class="node">
<title>Node5</title>
<g id="a_node2"><a xlink:href="../../db/d56/classefd_1_1PassT.xhtml" target="_top" xlink:title="efd::PassT\&lt; uint32_t \&gt;">
<polygon fill="none" stroke="#000000" points="8,-57.5 8,-76.5 137,-76.5 137,-57.5 8,-57.5"/>
<text text-anchor="middle" x="72.5" y="-64.5" font-family="Helvetica,sans-Serif" font-size="10.00" fill="#000000">efd::PassT&lt; uint32_t &gt;</text>
</a>
</g>
</g>
<!-- Node5&#45;&gt;Node4 -->
<g id="edge1" class="edge">
<title>Node5&#45;&gt;Node4</title>
<path fill="none" stroke="#191970" d="M72.5,-47.2342C72.5,-37.8491 72.5,-27.0651 72.5,-19.5265"/>
<polygon fill="#191970" stroke="#191970" points="69.0001,-47.3307 72.5,-57.3307 76.0001,-47.3308 69.0001,-47.3307"/>
</g>
<!-- Node6 -->
<g id="node3" class="node">
<title>Node6</title>
<g id="a_node3"><a xlink:href="../../d0/d98/classefd_1_1Pass.xhtml" target="_top" xlink:title="Base class for implementation of QModule passes. This information will be used when the QModule&#39;s fun...">
<polygon fill="none" stroke="#000000" points="33,-191.5 33,-210.5 94,-210.5 94,-191.5 33,-191.5"/>
<text text-anchor="middle" x="63.5" y="-198.5" font-family="Helvetica,sans-Serif" font-size="10.00" fill="#000000">efd::Pass</text>
</a>
</g>
</g>
<!-- Node6&#45;&gt;Node5 -->
<g id="edge2" class="edge">
<title>Node6&#45;&gt;Node5</title>
<path fill="none" stroke="#191970" d="M64.835,-181.124C66.8006,-151.8572 70.3983,-98.2914 71.8586,-76.5496"/>
<polygon fill="#191970" stroke="#191970" points="61.3253,-181.151 64.1473,-191.3631 68.3096,-181.6201 61.3253,-181.151"/>
</g>
<!-- Node7 -->
<g id="node4" class="node">
<title>Node7</title>
<g id="a_node4"><a xlink:href="../../db/d56/classefd_1_1PassT.xhtml" target="_top" xlink:title="Should serve as base class for classes that produces some data of type T. ">
<polygon fill="none" stroke="#000000" points="85,-124.5 85,-143.5 180,-143.5 180,-124.5 85,-124.5"/>
<text text-anchor="middle" x="132.5" y="-131.5" font-family="Helvetica,sans-Serif" font-size="10.00" fill="#000000">efd::PassT&lt; T &gt;</text>
</a>
</g>
</g>
<!-- Node6&#45;&gt;Node7 -->
<g id="edge4" class="edge">
<title>Node6&#45;&gt;Node7</title>
<path fill="none" stroke="#191970" d="M80.9266,-184.0785C94.1238,-171.2639 111.7775,-154.1218 122.6323,-143.5817"/>
<polygon fill="#191970" stroke="#191970" points="78.1221,-181.9232 73.386,-191.4005 82.9985,-186.9452 78.1221,-181.9232"/>
</g>
<!-- Node7&#45;&gt;Node5 -->
<g id="edge3" class="edge">
<title>Node7&#45;&gt;Node5</title>
<path fill="none" stroke="#ffa500" stroke-dasharray="5,2" d="M117.0206,-116.7147C105.5815,-103.941 90.4305,-87.0224 81.0806,-76.5817"/>
<polygon fill="#ffa500" stroke="#ffa500" points="114.6249,-119.2859 123.9035,-124.4005 119.8396,-114.6161 114.6249,-119.2859"/>
<text text-anchor="middle" x="139.5" y="-98" font-family="Helvetica,sans-Serif" font-size="10.00" fill="#000000"> &lt; uint32_t &gt;</text>
</g>
<!-- Node8 -->
<g id="node5" class="node">
<title>Node8</title>
<polygon fill="none" stroke="#bfbfbf" points="118,-191.5 118,-210.5 147,-210.5 147,-191.5 118,-191.5"/>
<text text-anchor="middle" x="132.5" y="-198.5" font-family="Helvetica,sans-Serif" font-size="10.00" fill="#000000">T</text>
</g>
<!-- Node8&#45;&gt;Node7 -->
<g id="edge5" class="edge">
<title>Node8&#45;&gt;Node7</title>
<path fill="none" stroke="#9a32cd" stroke-dasharray="5,2" d="M132.5,-181.1079C132.5,-168.714 132.5,-153.3263 132.5,-143.5817"/>
<polygon fill="#9a32cd" stroke="#9a32cd" points="129.0001,-181.4005 132.5,-191.4005 136.0001,-181.4006 129.0001,-181.4005"/>
<text text-anchor="middle" x="151" y="-165" font-family="Helvetica,sans-Serif" font-size="10.00" fill="#000000"> mData</text>
</g>
</g>
</svg>
