<?xml version="1.0" encoding="UTF-8" standalone="no"?>
<!DOCTYPE svg PUBLIC "-//W3C//DTD SVG 1.1//EN"
 "http://www.w3.org/Graphics/SVG/1.1/DTD/svg11.dtd">
<!-- Generated by graphviz version 2.38.0 (20140413.2041)
 -->
<!-- Title: efd::NDQOpLongCX Pages: 1 -->
<svg width="149pt" height="199pt"
 viewBox="0.00 0.00 149.00 199.00" xmlns="http://www.w3.org/2000/svg" xmlns:xlink="http://www.w3.org/1999/xlink">
<g id="graph0" class="graph" transform="scale(1 1) rotate(0) translate(4 195)">
<title>efd::NDQOpLongCX</title>
<!-- Node4 -->
<g id="node1" class="node"><title>Node4</title>
<polygon fill="#bfbfbf" stroke="black" points="-7.10543e-15,-0.5 -7.10543e-15,-19.5 107,-19.5 107,-0.5 -7.10543e-15,-0.5"/>
<text text-anchor="middle" x="53.5" y="-7.5" font-family="Helvetica,sans-Serif" font-size="10.00">efd::NDQOpLongCX</text>
</g>
<!-- Node5 -->
<g id="node2" class="node"><title>Node5</title>
<g id="a_node2"><a xlink:href="../../d2/dff/classefd_1_1NDQOpGen.xhtml" target="_top" xlink:title="NDQOp specialized for generic gates. ">
<polygon fill="none" stroke="black" points="9,-57.5 9,-76.5 98,-76.5 98,-57.5 9,-57.5"/>
<text text-anchor="middle" x="53.5" y="-64.5" font-family="Helvetica,sans-Serif" font-size="10.00">efd::NDQOpGen</text>
</a>
</g>
</g>
<!-- Node5&#45;&gt;Node4 -->
<g id="edge1" class="edge"><title>Node5&#45;&gt;Node4</title>
<path fill="none" stroke="midnightblue" d="M53.5,-47.1166C53.5,-37.8173 53.5,-27.0557 53.5,-19.7149"/>
<polygon fill="midnightblue" stroke="midnightblue" points="50.0001,-47.4062 53.5,-57.4062 57.0001,-47.4063 50.0001,-47.4062"/>
</g>
<!-- Node6 -->
<g id="node3" class="node"><title>Node6</title>
<g id="a_node3"><a xlink:href="../../dd/d94/classefd_1_1NDQOp.xhtml" target="_top" xlink:title="Generic node for quantum operations. This is also the base node for the other quantum gates...">
<polygon fill="none" stroke="black" points="18,-114.5 18,-133.5 89,-133.5 89,-114.5 18,-114.5"/>
<text text-anchor="middle" x="53.5" y="-121.5" font-family="Helvetica,sans-Serif" font-size="10.00">efd::NDQOp</text>
</a>
</g>
</g>
<!-- Node6&#45;&gt;Node5 -->
<g id="edge2" class="edge"><title>Node6&#45;&gt;Node5</title>
<path fill="none" stroke="midnightblue" d="M53.5,-104.117C53.5,-94.8173 53.5,-84.0557 53.5,-76.7149"/>
<polygon fill="midnightblue" stroke="midnightblue" points="50.0001,-104.406 53.5,-114.406 57.0001,-104.406 50.0001,-104.406"/>
</g>
<!-- Node7 -->
<g id="node4" class="node"><title>Node7</title>
<g id="a_node4"><a xlink:href="../../d6/d6a/classefd_1_1Node.xhtml" target="_top" xlink:title="Base class for AST nodes. ">
<polygon fill="none" stroke="black" points="24,-171.5 24,-190.5 83,-190.5 83,-171.5 24,-171.5"/>
<text text-anchor="middle" x="53.5" y="-178.5" font-family="Helvetica,sans-Serif" font-size="10.00">efd::Node</text>
</a>
</g>
</g>
<!-- Node7&#45;&gt;Node6 -->
<g id="edge3" class="edge"><title>Node7&#45;&gt;Node6</title>
<path fill="none" stroke="midnightblue" d="M53.5,-161.117C53.5,-151.817 53.5,-141.056 53.5,-133.715"/>
<polygon fill="midnightblue" stroke="midnightblue" points="50.0001,-161.406 53.5,-171.406 57.0001,-161.406 50.0001,-161.406"/>
</g>
<!-- Node7&#45;&gt;Node7 -->
<g id="edge4" class="edge"><title>Node7&#45;&gt;Node7</title>
<path fill="none" stroke="#9a32cd" stroke-dasharray="5,2" d="M93.1722,-185.512C97.9076,-184.691 101,-183.188 101,-181 101,-177.5 93.0833,-175.75 83.1875,-175.75"/>
<polygon fill="#9a32cd" stroke="#9a32cd" points="92.9022,-182.022 83.1875,-186.25 93.4184,-189.003 92.9022,-182.022"/>
<text text-anchor="middle" x="121" y="-178.5" font-family="Helvetica,sans-Serif" font-size="10.00"> mParent</text>
</g>
</g>
</svg>
