<?xml version="1.0" encoding="UTF-8" standalone="no"?>
<!DOCTYPE svg PUBLIC "-//W3C//DTD SVG 1.1//EN"
 "http://www.w3.org/Graphics/SVG/1.1/DTD/svg11.dtd">
<!-- Generated by graphviz version 2.38.0 (20140413.2041)
 -->
<!-- Title: efd::LayersBuilderPass Pages: 1 -->
<svg width="169pt" height="209pt"
 viewBox="0.00 0.00 168.50 209.00" xmlns="http://www.w3.org/2000/svg" xmlns:xlink="http://www.w3.org/1999/xlink">
<g id="graph0" class="graph" transform="scale(1 1) rotate(0) translate(4 205)">
<title>efd::LayersBuilderPass</title>
<!-- Node0 -->
<g id="node1" class="node"><title>Node0</title>
<polygon fill="#bfbfbf" stroke="black" points="0,-0.5 0,-19.5 118,-19.5 118,-0.5 0,-0.5"/>
<text text-anchor="middle" x="59" y="-7.5" font-family="Helvetica,sans-Serif" font-size="10.00">efd::LayersBuilderPass</text>
</g>
<!-- Node1 -->
<g id="node2" class="node"><title>Node1</title>
<g id="a_node2"><a xlink:href="../../db/d56/classefd_1_1PassT.xhtml" target="_top" xlink:title="efd::PassT\&lt; Layers \&gt;">
<polygon fill="none" stroke="black" points="3,-57.5 3,-76.5 115,-76.5 115,-57.5 3,-57.5"/>
<text text-anchor="middle" x="59" y="-64.5" font-family="Helvetica,sans-Serif" font-size="10.00">efd::PassT&lt; Layers &gt;</text>
</a>
</g>
</g>
<!-- Node1&#45;&gt;Node0 -->
<g id="edge1" class="edge"><title>Node1&#45;&gt;Node0</title>
<path fill="none" stroke="midnightblue" d="M59,-47.1166C59,-37.8173 59,-27.0557 59,-19.7149"/>
<polygon fill="midnightblue" stroke="midnightblue" points="55.5001,-47.4062 59,-57.4062 62.5001,-47.4063 55.5001,-47.4062"/>
</g>
<!-- Node2 -->
<g id="node3" class="node"><title>Node2</title>
<g id="a_node3"><a xlink:href="../../d0/d98/classefd_1_1Pass.xhtml" target="_top" xlink:title="Base class for implementation of QModule passes. This information will be used when the QModule&#39;s fun...">
<polygon fill="none" stroke="black" points="37.5,-181.5 37.5,-200.5 96.5,-200.5 96.5,-181.5 37.5,-181.5"/>
<text text-anchor="middle" x="67" y="-188.5" font-family="Helvetica,sans-Serif" font-size="10.00">efd::Pass</text>
</a>
</g>
</g>
<!-- Node2&#45;&gt;Node1 -->
<g id="edge2" class="edge"><title>Node2&#45;&gt;Node1</title>
<path fill="none" stroke="midnightblue" d="M65.2076,-171.072C64.4593,-162.77 63.6214,-152.906 63,-144 61.3078,-119.748 59.9817,-91.0963 59.3697,-76.8984"/>
<polygon fill="midnightblue" stroke="midnightblue" points="61.7371,-171.554 66.1437,-181.189 68.7073,-170.909 61.7371,-171.554"/>
</g>
<!-- Node3 -->
<g id="node4" class="node"><title>Node3</title>
<g id="a_node4"><a xlink:href="../../db/d56/classefd_1_1PassT.xhtml" target="_top" xlink:title="Should serve as base class for classes that produces some data of type T. ">
<polygon fill="none" stroke="black" points="71.5,-124.5 71.5,-143.5 160.5,-143.5 160.5,-124.5 71.5,-124.5"/>
<text text-anchor="middle" x="116" y="-131.5" font-family="Helvetica,sans-Serif" font-size="10.00">efd::PassT&lt; T &gt;</text>
</a>
</g>
</g>
<!-- Node2&#45;&gt;Node3 -->
<g id="edge4" class="edge"><title>Node2&#45;&gt;Node3</title>
<path fill="none" stroke="midnightblue" d="M81.4077,-173.828C90.182,-163.979 101.049,-151.782 108.236,-143.715"/>
<polygon fill="midnightblue" stroke="midnightblue" points="78.695,-171.611 74.6562,-181.406 83.9217,-176.268 78.695,-171.611"/>
</g>
<!-- Node3&#45;&gt;Node1 -->
<g id="edge3" class="edge"><title>Node3&#45;&gt;Node1</title>
<path fill="none" stroke="orange" stroke-dasharray="5,2" d="M101.649,-116.635C90.5015,-103.923 75.4842,-86.7978 66.5655,-76.6273"/>
<polygon fill="orange" stroke="orange" points="99.0879,-119.023 108.313,-124.234 104.351,-114.408 99.0879,-119.023"/>
<text text-anchor="middle" x="116.5" y="-98" font-family="Helvetica,sans-Serif" font-size="10.00"> &lt; Layers &gt;</text>
</g>
</g>
</svg>
