<?xml version="1.0" encoding="UTF-8" standalone="no"?>
<!DOCTYPE svg PUBLIC "-//W3C//DTD SVG 1.1//EN"
 "http://www.w3.org/Graphics/SVG/1.1/DTD/svg11.dtd">
<!-- Generated by graphviz version 2.38.0 (20140413.2041)
 -->
<!-- Title: tools/Generator.cpp Pages: 1 -->
<!--zoomable 319 -->
<svg id="main" version="1.1" xmlns="http://www.w3.org/2000/svg" xmlns:xlink="http://www.w3.org/1999/xlink" xml:space="preserve" onload="init(evt)">
<style type="text/css"><![CDATA[
.edge:hover path { stroke: red; }
.edge:hover polygon { stroke: red; fill: red; }
]]></style>
<script type="text/javascript"><![CDATA[
var edges = document.getElementsByTagName('g');
if (edges && edges.length) {
  for (var i=0;i<edges.length;i++) {
    if (edges[i].id.substr(0,4)=='edge') {
      edges[i].setAttribute('class','edge');
    }
  }
}
]]></script>
        <defs>
                <circle id="rim" cx="0" cy="0" r="7"/>
                <circle id="rim2" cx="0" cy="0" r="3.5"/>
                <g id="zoomPlus">
                        <use xlink:href="#rim" fill="#404040">
                                <set attributeName="fill" to="#808080" begin="zoomplus.mouseover" end="zoomplus.mouseout"/>
                        </use>
                        <path d="M-4,0h8M0,-4v8" fill="none" stroke="white" stroke-width="1.5" pointer-events="none"/>
                </g>
                <g id="zoomMin">
                        <use xlink:href="#rim" fill="#404040">
                                <set attributeName="fill" to="#808080" begin="zoomminus.mouseover" end="zoomminus.mouseout"/>
                        </use>
                        <path d="M-4,0h8" fill="none" stroke="white" stroke-width="1.5" pointer-events="none"/>
                </g>
                <g id="dirArrow">
                        <path fill="none" stroke="white" stroke-width="1.5" d="M0,-3.0v7 M-2.5,-0.5L0,-3.0L2.5,-0.5"/>
                </g>
               <g id="resetDef">
                       <use xlink:href="#rim2" fill="#404040">
                               <set attributeName="fill" to="#808080" begin="reset.mouseover" end="reset.mouseout"/>
                       </use>
               </g>
        </defs>

<script type="text/javascript">
var viewWidth = 1293;
var viewHeight = 319;
var sectionId = 'dynsection-0';
</script>
<script xlink:href="../../svgpan.js"/>
<svg id="graph" class="graph">
<g id="viewport">
<title>tools/Generator.cpp</title>
<!-- Node0 -->
<g id="node1" class="node"><title>Node0</title>
<polygon fill="#bfbfbf" stroke="black" points="533.5,-291.5 533.5,-310.5 635.5,-310.5 635.5,-291.5 533.5,-291.5"/>
<text text-anchor="middle" x="584.5" y="-298.5" font-family="Helvetica,sans-Serif" font-size="10.00">tools/Generator.cpp</text>
</g>
<!-- Node1 -->
<g id="node2" class="node"><title>Node1</title>
<g id="a_node2"><a xlink:href="../../d4/d73/QModule_8h.xhtml" target="_top" xlink:title="enfield/Transform/QModule.h">
<polygon fill="none" stroke="black" points="170,-174 170,-193 313,-193 313,-174 170,-174"/>
<text text-anchor="middle" x="241.5" y="-181" font-family="Helvetica,sans-Serif" font-size="10.00">enfield/Transform/QModule.h</text>
</a>
</g>
</g>
<!-- Node0&#45;&gt;Node1 -->
<g id="edge1" class="edge"><title>Node0&#45;&gt;Node1</title>
<path fill="none" stroke="midnightblue" d="M556.665,-291.454C527.977,-282.581 481.995,-268.181 442.5,-255 383.16,-235.196 314.476,-210.781 274.708,-196.496"/>
<polygon fill="midnightblue" stroke="midnightblue" points="275.839,-193.183 265.244,-193.092 273.469,-199.77 275.839,-193.183"/>
</g>
<!-- Node12 -->
<g id="node13" class="node"><title>Node12</title>
<g id="a_node13"><a xlink:href="../../d7/d9d/ArchGraph_8h.xhtml" target="_top" xlink:title="enfield/Arch/ArchGraph.h">
<polygon fill="none" stroke="black" points="331.5,-174 331.5,-193 457.5,-193 457.5,-174 331.5,-174"/>
<text text-anchor="middle" x="394.5" y="-181" font-family="Helvetica,sans-Serif" font-size="10.00">enfield/Arch/ArchGraph.h</text>
</a>
</g>
</g>
<!-- Node0&#45;&gt;Node12 -->
<g id="edge13" class="edge"><title>Node0&#45;&gt;Node12</title>
<path fill="none" stroke="midnightblue" d="M554.79,-291.443C531.153,-283.883 497.797,-271.493 471.5,-255 447.403,-239.886 423.913,-216.808 409.342,-201.211"/>
<polygon fill="midnightblue" stroke="midnightblue" points="411.546,-198.435 402.217,-193.413 406.378,-203.156 411.546,-198.435"/>
</g>
<!-- Node15 -->
<g id="node16" class="node"><title>Node15</title>
<g id="a_node16"><a xlink:href="../../da/d8e/Architectures_8h.xhtml" target="_top" xlink:title="enfield/Arch/Architectures.h">
<polygon fill="none" stroke="black" points="516,-235.5 516,-254.5 653,-254.5 653,-235.5 516,-235.5"/>
<text text-anchor="middle" x="584.5" y="-242.5" font-family="Helvetica,sans-Serif" font-size="10.00">enfield/Arch/Architectures.h</text>
</a>
</g>
</g>
<!-- Node0&#45;&gt;Node15 -->
<g id="edge20" class="edge"><title>Node0&#45;&gt;Node15</title>
<path fill="none" stroke="midnightblue" d="M584.5,-291.083C584.5,-284.006 584.5,-273.861 584.5,-264.986"/>
<polygon fill="midnightblue" stroke="midnightblue" points="588,-264.751 584.5,-254.751 581,-264.751 588,-264.751"/>
</g>
<!-- Node28 -->
<g id="node29" class="node"><title>Node28</title>
<g id="a_node29"><a xlink:href="../../d9/d41/CommandLine_8h.xhtml" target="_top" xlink:title="enfield/Support/CommandLine.h">
<polygon fill="none" stroke="black" points="671.5,-235.5 671.5,-254.5 827.5,-254.5 827.5,-235.5 671.5,-235.5"/>
<text text-anchor="middle" x="749.5" y="-242.5" font-family="Helvetica,sans-Serif" font-size="10.00">enfield/Support/CommandLine.h</text>
</a>
</g>
</g>
<!-- Node0&#45;&gt;Node28 -->
<g id="edge41" class="edge"><title>Node0&#45;&gt;Node28</title>
<path fill="none" stroke="midnightblue" d="M610.645,-291.444C638.523,-282.32 682.848,-267.813 713.9,-257.651"/>
<polygon fill="midnightblue" stroke="midnightblue" points="715.062,-260.953 723.478,-254.516 712.885,-254.3 715.062,-260.953"/>
</g>
<!-- Node30 -->
<g id="node31" class="node"><title>Node30</title>
<g id="a_node31"><a xlink:href="../../dc/d09/uRefCast_8h.xhtml" target="_top" xlink:title="enfield/Support/uRefCast.h">
<polygon fill="none" stroke="black" points="524,-112.5 524,-131.5 659,-131.5 659,-112.5 524,-112.5"/>
<text text-anchor="middle" x="591.5" y="-119.5" font-family="Helvetica,sans-Serif" font-size="10.00">enfield/Support/uRefCast.h</text>
</a>
</g>
</g>
<!-- Node0&#45;&gt;Node30 -->
<g id="edge48" class="edge"><title>Node0&#45;&gt;Node30</title>
<path fill="none" stroke="midnightblue" d="M555.988,-291.465C538.476,-284.61 517.38,-273.085 506.5,-255 486.561,-221.859 484.392,-201.039 504.5,-168 513.96,-152.457 530.71,-142.045 547.005,-135.191"/>
<polygon fill="midnightblue" stroke="midnightblue" points="548.403,-138.403 556.487,-131.555 545.897,-131.868 548.403,-138.403"/>
</g>
<!-- Node31 -->
<g id="node32" class="node"><title>Node31</title>
<polygon fill="none" stroke="#bfbfbf" points="845.5,-235.5 845.5,-254.5 895.5,-254.5 895.5,-235.5 845.5,-235.5"/>
<text text-anchor="middle" x="870.5" y="-242.5" font-family="Helvetica,sans-Serif" font-size="10.00">fstream</text>
</g>
<!-- Node0&#45;&gt;Node31 -->
<g id="edge52" class="edge"><title>Node0&#45;&gt;Node31</title>
<path fill="none" stroke="midnightblue" d="M635.905,-292.089C684.809,-284.278 760.642,-271.429 835.264,-255.131"/>
<polygon fill="midnightblue" stroke="midnightblue" points="836.294,-258.488 845.305,-252.916 834.786,-251.653 836.294,-258.488"/>
</g>
<!-- Node32 -->
<g id="node33" class="node"><title>Node32</title>
<polygon fill="none" stroke="#bfbfbf" points="914,-235.5 914,-254.5 963,-254.5 963,-235.5 914,-235.5"/>
<text text-anchor="middle" x="938.5" y="-242.5" font-family="Helvetica,sans-Serif" font-size="10.00">random</text>
</g>
<!-- Node0&#45;&gt;Node32 -->
<g id="edge53" class="edge"><title>Node0&#45;&gt;Node32</title>
<path fill="none" stroke="midnightblue" d="M635.529,-294.722C696.906,-287.953 803.197,-274.892 903.681,-254.946"/>
<polygon fill="midnightblue" stroke="midnightblue" points="904.585,-258.334 913.698,-252.93 903.204,-251.472 904.585,-258.334"/>
</g>
<!-- Node2 -->
<g id="node3" class="node"><title>Node2</title>
<g id="a_node3"><a xlink:href="../../d4/daf/Nodes_8h.xhtml" target="_top" xlink:title="enfield/Analysis/Nodes.h">
<polygon fill="none" stroke="black" points="381,-112.5 381,-131.5 506,-131.5 506,-112.5 381,-112.5"/>
<text text-anchor="middle" x="443.5" y="-119.5" font-family="Helvetica,sans-Serif" font-size="10.00">enfield/Analysis/Nodes.h</text>
</a>
</g>
</g>
<!-- Node1&#45;&gt;Node2 -->
<g id="edge2" class="edge"><title>Node1&#45;&gt;Node2</title>
<path fill="none" stroke="midnightblue" d="M270.442,-173.975C305.767,-163.57 365.631,-145.937 404.865,-134.38"/>
<polygon fill="midnightblue" stroke="midnightblue" points="406.008,-137.692 414.612,-131.509 404.031,-130.977 406.008,-137.692"/>
</g>
<!-- Node10 -->
<g id="node11" class="node"><title>Node10</title>
<g id="a_node11"><a xlink:href="../../df/d29/Pass_8h.xhtml" target="_top" xlink:title="enfield/Transform/Pass.h">
<polygon fill="none" stroke="black" points="198.5,-112.5 198.5,-131.5 324.5,-131.5 324.5,-112.5 198.5,-112.5"/>
<text text-anchor="middle" x="261.5" y="-119.5" font-family="Helvetica,sans-Serif" font-size="10.00">enfield/Transform/Pass.h</text>
</a>
</g>
</g>
<!-- Node1&#45;&gt;Node10 -->
<g id="edge10" class="edge"><title>Node1&#45;&gt;Node10</title>
<path fill="none" stroke="midnightblue" d="M244.366,-173.975C247.217,-165.492 251.683,-152.204 255.341,-141.322"/>
<polygon fill="midnightblue" stroke="midnightblue" points="258.771,-142.103 258.64,-131.509 252.136,-139.873 258.771,-142.103"/>
</g>
<!-- Node11 -->
<g id="node12" class="node"><title>Node11</title>
<polygon fill="none" stroke="#bfbfbf" points="0,-56.5 0,-75.5 83,-75.5 83,-56.5 0,-56.5"/>
<text text-anchor="middle" x="41.5" y="-63.5" font-family="Helvetica,sans-Serif" font-size="10.00">unordered_map</text>
</g>
<!-- Node1&#45;&gt;Node11 -->
<g id="edge12" class="edge"><title>Node1&#45;&gt;Node11</title>
<path fill="none" stroke="midnightblue" d="M182.452,-173.987C133.407,-165.669 68.9479,-151.425 51.5,-132 40.4229,-119.668 38.6938,-100.417 39.2724,-86.0612"/>
<polygon fill="midnightblue" stroke="midnightblue" points="42.7828,-86.0725 40.0967,-75.8238 35.8054,-85.5106 42.7828,-86.0725"/>
</g>
<!-- Node3 -->
<g id="node4" class="node"><title>Node3</title>
<g id="a_node4"><a xlink:href="../../d1/d2e/WrapperVal_8h.xhtml" target="_top" xlink:title="enfield/Support/WrapperVal.h">
<polygon fill="none" stroke="black" points="880.5,-56.5 880.5,-75.5 1024.5,-75.5 1024.5,-56.5 880.5,-56.5"/>
<text text-anchor="middle" x="952.5" y="-63.5" font-family="Helvetica,sans-Serif" font-size="10.00">enfield/Support/WrapperVal.h</text>
</a>
</g>
</g>
<!-- Node2&#45;&gt;Node3 -->
<g id="edge3" class="edge"><title>Node2&#45;&gt;Node3</title>
<path fill="none" stroke="midnightblue" d="M506.209,-112.963C509.01,-112.631 511.784,-112.309 514.5,-112 669.7,-94.3412 711.228,-92.8605 869.954,-76.1532"/>
<polygon fill="midnightblue" stroke="midnightblue" points="870.504,-79.6147 880.08,-75.0835 869.768,-72.6535 870.504,-79.6147"/>
</g>
<!-- Node5 -->
<g id="node6" class="node"><title>Node5</title>
<g id="a_node6"><a xlink:href="../../d5/dfc/RTTI_8h.xhtml" target="_top" xlink:title="enfield/Support/RTTI.h">
<polygon fill="none" stroke="black" points="466.5,-56.5 466.5,-75.5 582.5,-75.5 582.5,-56.5 466.5,-56.5"/>
<text text-anchor="middle" x="524.5" y="-63.5" font-family="Helvetica,sans-Serif" font-size="10.00">enfield/Support/RTTI.h</text>
</a>
</g>
</g>
<!-- Node2&#45;&gt;Node5 -->
<g id="edge5" class="edge"><title>Node2&#45;&gt;Node5</title>
<path fill="none" stroke="midnightblue" d="M456.514,-112.324C469.032,-103.979 488.182,-91.2122 502.971,-81.3524"/>
<polygon fill="midnightblue" stroke="midnightblue" points="505.139,-84.1137 511.518,-75.6545 501.256,-78.2894 505.139,-84.1137"/>
</g>
<!-- Node6 -->
<g id="node7" class="node"><title>Node6</title>
<polygon fill="none" stroke="#bfbfbf" points="375,-56.5 375,-75.5 448,-75.5 448,-56.5 375,-56.5"/>
<text text-anchor="middle" x="411.5" y="-63.5" font-family="Helvetica,sans-Serif" font-size="10.00">initializer_list</text>
</g>
<!-- Node2&#45;&gt;Node6 -->
<g id="edge6" class="edge"><title>Node2&#45;&gt;Node6</title>
<path fill="none" stroke="midnightblue" d="M438.216,-112.083C433.789,-104.613 427.337,-93.7244 421.882,-84.5199"/>
<polygon fill="midnightblue" stroke="midnightblue" points="424.795,-82.5697 416.686,-75.7511 418.773,-86.1383 424.795,-82.5697"/>
</g>
<!-- Node7 -->
<g id="node8" class="node"><title>Node7</title>
<polygon fill="none" stroke="#bfbfbf" points="600.5,-56.5 600.5,-75.5 654.5,-75.5 654.5,-56.5 600.5,-56.5"/>
<text text-anchor="middle" x="627.5" y="-63.5" font-family="Helvetica,sans-Serif" font-size="10.00">iostream</text>
</g>
<!-- Node2&#45;&gt;Node7 -->
<g id="edge7" class="edge"><title>Node2&#45;&gt;Node7</title>
<path fill="none" stroke="midnightblue" d="M472.655,-112.444C504.567,-103.078 555.802,-88.0419 590.517,-77.8536"/>
<polygon fill="midnightblue" stroke="midnightblue" points="591.671,-81.1628 600.281,-74.9883 589.7,-74.446 591.671,-81.1628"/>
</g>
<!-- Node8 -->
<g id="node9" class="node"><title>Node8</title>
<polygon fill="none" stroke="#bfbfbf" points="659.5,-0.5 659.5,-19.5 703.5,-19.5 703.5,-0.5 659.5,-0.5"/>
<text text-anchor="middle" x="681.5" y="-7.5" font-family="Helvetica,sans-Serif" font-size="10.00">vector</text>
</g>
<!-- Node2&#45;&gt;Node8 -->
<g id="edge8" class="edge"><title>Node2&#45;&gt;Node8</title>
<path fill="none" stroke="midnightblue" d="M418.688,-112.495C388.906,-100.994 345.341,-79.233 365.5,-56 402.018,-13.9127 576.177,-10.1802 649.183,-10.5145"/>
<polygon fill="midnightblue" stroke="midnightblue" points="649.166,-14.0144 659.192,-10.5893 649.218,-7.01461 649.166,-14.0144"/>
</g>
<!-- Node9 -->
<g id="node10" class="node"><title>Node9</title>
<polygon fill="none" stroke="#bfbfbf" points="266.5,-56.5 266.5,-75.5 318.5,-75.5 318.5,-56.5 266.5,-56.5"/>
<text text-anchor="middle" x="292.5" y="-63.5" font-family="Helvetica,sans-Serif" font-size="10.00">memory</text>
</g>
<!-- Node2&#45;&gt;Node9 -->
<g id="edge9" class="edge"><title>Node2&#45;&gt;Node9</title>
<path fill="none" stroke="midnightblue" d="M419.574,-112.444C394.281,-103.399 354.198,-89.064 325.82,-78.9158"/>
<polygon fill="midnightblue" stroke="midnightblue" points="326.909,-75.5882 316.314,-75.5164 324.552,-82.1794 326.909,-75.5882"/>
</g>
<!-- Node4 -->
<g id="node5" class="node"><title>Node4</title>
<polygon fill="none" stroke="#bfbfbf" points="1244,-0.5 1244,-19.5 1285,-19.5 1285,-0.5 1244,-0.5"/>
<text text-anchor="middle" x="1264.5" y="-7.5" font-family="Helvetica,sans-Serif" font-size="10.00">string</text>
</g>
<!-- Node3&#45;&gt;Node4 -->
<g id="edge4" class="edge"><title>Node3&#45;&gt;Node4</title>
<path fill="none" stroke="midnightblue" d="M1001.94,-56.4435C1067.02,-45.1798 1179.49,-25.7129 1233.63,-16.3431"/>
<polygon fill="midnightblue" stroke="midnightblue" points="1234.39,-19.7634 1243.65,-14.6092 1233.2,-12.866 1234.39,-19.7634"/>
</g>
<!-- Node10&#45;&gt;Node9 -->
<g id="edge11" class="edge"><title>Node10&#45;&gt;Node9</title>
<path fill="none" stroke="midnightblue" d="M266.619,-112.083C270.908,-104.613 277.158,-93.7244 282.442,-84.5199"/>
<polygon fill="midnightblue" stroke="midnightblue" points="285.533,-86.1662 287.476,-75.7511 279.462,-82.6811 285.533,-86.1662"/>
</g>
<!-- Node12&#45;&gt;Node2 -->
<g id="edge19" class="edge"><title>Node12&#45;&gt;Node2</title>
<path fill="none" stroke="midnightblue" d="M401.521,-173.975C408.943,-164.962 420.833,-150.525 430.067,-139.312"/>
<polygon fill="midnightblue" stroke="midnightblue" points="432.837,-141.453 436.493,-131.509 427.434,-137.003 432.837,-141.453"/>
</g>
<!-- Node13 -->
<g id="node14" class="node"><title>Node13</title>
<g id="a_node14"><a xlink:href="../../d7/d16/Graph_8h.xhtml" target="_top" xlink:title="enfield/Support/Graph.h">
<polygon fill="none" stroke="black" points="61,-112.5 61,-131.5 180,-131.5 180,-112.5 61,-112.5"/>
<text text-anchor="middle" x="120.5" y="-119.5" font-family="Helvetica,sans-Serif" font-size="10.00">enfield/Support/Graph.h</text>
</a>
</g>
</g>
<!-- Node12&#45;&gt;Node13 -->
<g id="edge14" class="edge"><title>Node12&#45;&gt;Node13</title>
<path fill="none" stroke="midnightblue" d="M355.242,-173.975C306.309,-163.349 222.662,-145.185 169.555,-133.652"/>
<polygon fill="midnightblue" stroke="midnightblue" points="170.2,-130.211 159.685,-131.509 168.714,-137.052 170.2,-130.211"/>
</g>
<!-- Node13&#45;&gt;Node8 -->
<g id="edge16" class="edge"><title>Node13&#45;&gt;Node8</title>
<path fill="none" stroke="midnightblue" d="M120.185,-112.18C120.206,-97.8757 122.56,-69.8289 139.5,-56 179.052,-23.7122 538.689,-13.8607 649.288,-11.5816"/>
<polygon fill="midnightblue" stroke="midnightblue" points="649.559,-15.0769 659.488,-11.3785 649.42,-8.07833 649.559,-15.0769"/>
</g>
<!-- Node13&#45;&gt;Node9 -->
<g id="edge18" class="edge"><title>Node13&#45;&gt;Node9</title>
<path fill="none" stroke="midnightblue" d="M147.754,-112.444C177.285,-103.172 224.517,-88.3435 256.946,-78.1622"/>
<polygon fill="midnightblue" stroke="midnightblue" points="258.007,-81.4977 266.5,-75.1629 255.91,-74.8191 258.007,-81.4977"/>
</g>
<!-- Node13&#45;&gt;Node11 -->
<g id="edge17" class="edge"><title>Node13&#45;&gt;Node11</title>
<path fill="none" stroke="midnightblue" d="M107.807,-112.324C95.5989,-103.979 76.9215,-91.2122 62.4971,-81.3524"/>
<polygon fill="midnightblue" stroke="midnightblue" points="64.392,-78.4082 54.1612,-75.6545 60.4418,-84.1871 64.392,-78.4082"/>
</g>
<!-- Node14 -->
<g id="node15" class="node"><title>Node14</title>
<polygon fill="none" stroke="#bfbfbf" points="148.5,-56.5 148.5,-75.5 178.5,-75.5 178.5,-56.5 148.5,-56.5"/>
<text text-anchor="middle" x="163.5" y="-63.5" font-family="Helvetica,sans-Serif" font-size="10.00">set</text>
</g>
<!-- Node13&#45;&gt;Node14 -->
<g id="edge15" class="edge"><title>Node13&#45;&gt;Node14</title>
<path fill="none" stroke="midnightblue" d="M127.601,-112.083C133.737,-104.377 142.77,-93.0333 150.239,-83.6531"/>
<polygon fill="midnightblue" stroke="midnightblue" points="153.04,-85.7542 156.532,-75.7511 147.564,-81.3936 153.04,-85.7542"/>
</g>
<!-- Node15&#45;&gt;Node12 -->
<g id="edge21" class="edge"><title>Node15&#45;&gt;Node12</title>
<path fill="none" stroke="midnightblue" d="M557.278,-235.475C524.263,-225.136 468.46,-207.661 431.547,-196.102"/>
<polygon fill="midnightblue" stroke="midnightblue" points="432.261,-192.658 421.672,-193.009 430.169,-199.338 432.261,-192.658"/>
</g>
<!-- Node16 -->
<g id="node17" class="node"><title>Node16</title>
<g id="a_node17"><a xlink:href="../../da/d66/Registry_8h.xhtml" target="_top" xlink:title="enfield/Support/Registry.h">
<polygon fill="none" stroke="black" points="765.5,-174 765.5,-193 895.5,-193 895.5,-174 765.5,-174"/>
<text text-anchor="middle" x="830.5" y="-181" font-family="Helvetica,sans-Serif" font-size="10.00">enfield/Support/Registry.h</text>
</a>
</g>
</g>
<!-- Node15&#45;&gt;Node16 -->
<g id="edge22" class="edge"><title>Node15&#45;&gt;Node16</title>
<path fill="none" stroke="midnightblue" d="M619.746,-235.475C663.405,-224.915 737.843,-206.911 785.563,-195.369"/>
<polygon fill="midnightblue" stroke="midnightblue" points="786.423,-198.762 795.32,-193.009 784.777,-191.958 786.423,-198.762"/>
</g>
<!-- Node17 -->
<g id="node18" class="node"><title>Node17</title>
<g id="a_node18"><a xlink:href="../../dd/d62/EnumString_8h.xhtml" target="_top" xlink:title="enfield/Support/EnumString.h">
<polygon fill="none" stroke="black" points="934.5,-112.5 934.5,-131.5 1078.5,-131.5 1078.5,-112.5 934.5,-112.5"/>
<text text-anchor="middle" x="1006.5" y="-119.5" font-family="Helvetica,sans-Serif" font-size="10.00">enfield/Support/EnumString.h</text>
</a>
</g>
</g>
<!-- Node15&#45;&gt;Node17 -->
<g id="edge39" class="edge"><title>Node15&#45;&gt;Node17</title>
<path fill="none" stroke="midnightblue" d="M651.952,-235.454C742.401,-223.857 893.046,-204.006 904.5,-199 924.472,-190.272 925.13,-181.166 942.5,-168 956.437,-157.437 972.543,-146.116 985.112,-137.472"/>
<polygon fill="midnightblue" stroke="midnightblue" points="987.276,-140.233 993.557,-131.7 983.326,-134.454 987.276,-140.233"/>
</g>
<!-- Node27 -->
<g id="node28" class="node"><title>Node27</title>
<g id="a_node28"><a xlink:href="../../d4/d7d/Architectures_8def.xhtml" target="_top" xlink:title="enfield/Arch/Architectures.def">
<polygon fill="none" stroke="black" points="513.5,-174 513.5,-193 659.5,-193 659.5,-174 513.5,-174"/>
<text text-anchor="middle" x="586.5" y="-181" font-family="Helvetica,sans-Serif" font-size="10.00">enfield/Arch/Architectures.def</text>
</a>
</g>
</g>
<!-- Node15&#45;&gt;Node27 -->
<g id="edge40" class="edge"><title>Node15&#45;&gt;Node27</title>
<path fill="none" stroke="midnightblue" d="M584.787,-235.475C585.069,-227.08 585.509,-213.981 585.873,-203.163"/>
<polygon fill="midnightblue" stroke="midnightblue" points="589.376,-203.121 586.214,-193.009 582.38,-202.886 589.376,-203.121"/>
</g>
<!-- Node16&#45;&gt;Node4 -->
<g id="edge37" class="edge"><title>Node16&#45;&gt;Node4</title>
<path fill="none" stroke="midnightblue" d="M891.597,-173.962C964.576,-163.422 1082.12,-145.267 1124.5,-132 1180.67,-114.418 1205.85,-120.389 1244.5,-76 1255.76,-63.0712 1260.68,-43.9002 1262.83,-29.7259"/>
<polygon fill="midnightblue" stroke="midnightblue" points="1266.32,-29.988 1264.03,-19.6444 1259.37,-29.1607 1266.32,-29.988"/>
</g>
<!-- Node16&#45;&gt;Node7 -->
<g id="edge34" class="edge"><title>Node16&#45;&gt;Node7</title>
<path fill="none" stroke="midnightblue" d="M815.242,-173.819C780.181,-153.87 693.649,-104.636 651.434,-80.6178"/>
<polygon fill="midnightblue" stroke="midnightblue" points="653.081,-77.5277 642.658,-75.6245 649.619,-83.6118 653.081,-77.5277"/>
</g>
<!-- Node16&#45;&gt;Node17 -->
<g id="edge23" class="edge"><title>Node16&#45;&gt;Node17</title>
<path fill="none" stroke="midnightblue" d="M855.717,-173.975C886.168,-163.68 937.549,-146.31 971.743,-134.75"/>
<polygon fill="midnightblue" stroke="midnightblue" points="972.978,-138.027 981.33,-131.509 970.736,-131.396 972.978,-138.027"/>
</g>
<!-- Node18 -->
<g id="node19" class="node"><title>Node18</title>
<g id="a_node19"><a xlink:href="../../d1/d73/Defs_8h.xhtml" target="_top" xlink:title="enfield/Support/Defs.h">
<polygon fill="none" stroke="black" points="748.5,-56.5 748.5,-75.5 862.5,-75.5 862.5,-56.5 748.5,-56.5"/>
<text text-anchor="middle" x="805.5" y="-63.5" font-family="Helvetica,sans-Serif" font-size="10.00">enfield/Support/Defs.h</text>
</a>
</g>
</g>
<!-- Node16&#45;&gt;Node18 -->
<g id="edge33" class="edge"><title>Node16&#45;&gt;Node18</title>
<path fill="none" stroke="midnightblue" d="M842.82,-173.805C859.793,-160.697 886.938,-134.962 874.5,-112 866.751,-97.6958 852.266,-87.2188 838.56,-79.992"/>
<polygon fill="midnightblue" stroke="midnightblue" points="839.814,-76.7104 829.288,-75.501 836.762,-83.0103 839.814,-76.7104"/>
</g>
<!-- Node24 -->
<g id="node25" class="node"><title>Node24</title>
<polygon fill="none" stroke="#bfbfbf" points="1187,-56.5 1187,-75.5 1236,-75.5 1236,-56.5 1187,-56.5"/>
<text text-anchor="middle" x="1211.5" y="-63.5" font-family="Helvetica,sans-Serif" font-size="10.00">cassert</text>
</g>
<!-- Node16&#45;&gt;Node24 -->
<g id="edge38" class="edge"><title>Node16&#45;&gt;Node24</title>
<path fill="none" stroke="midnightblue" d="M895.501,-175.012C948.298,-167.685 1024.13,-154.305 1087.5,-132 1125.15,-118.749 1165.52,-95.7551 1189.62,-80.9681"/>
<polygon fill="midnightblue" stroke="midnightblue" points="1191.68,-83.8107 1198.32,-75.5553 1187.98,-77.8677 1191.68,-83.8107"/>
</g>
<!-- Node25 -->
<g id="node26" class="node"><title>Node25</title>
<polygon fill="none" stroke="#bfbfbf" points="754,-112.5 754,-131.5 789,-131.5 789,-112.5 754,-112.5"/>
<text text-anchor="middle" x="771.5" y="-119.5" font-family="Helvetica,sans-Serif" font-size="10.00">map</text>
</g>
<!-- Node16&#45;&gt;Node25 -->
<g id="edge35" class="edge"><title>Node16&#45;&gt;Node25</title>
<path fill="none" stroke="midnightblue" d="M822.047,-173.975C812.934,-164.785 798.23,-149.956 787.024,-138.656"/>
<polygon fill="midnightblue" stroke="midnightblue" points="789.464,-136.146 779.938,-131.509 784.493,-141.074 789.464,-136.146"/>
</g>
<!-- Node26 -->
<g id="node27" class="node"><title>Node26</title>
<polygon fill="none" stroke="#bfbfbf" points="807,-112.5 807,-131.5 866,-131.5 866,-112.5 807,-112.5"/>
<text text-anchor="middle" x="836.5" y="-119.5" font-family="Helvetica,sans-Serif" font-size="10.00">functional</text>
</g>
<!-- Node16&#45;&gt;Node26 -->
<g id="edge36" class="edge"><title>Node16&#45;&gt;Node26</title>
<path fill="none" stroke="midnightblue" d="M831.36,-173.975C832.206,-165.58 833.527,-152.481 834.618,-141.663"/>
<polygon fill="midnightblue" stroke="midnightblue" points="838.121,-141.81 835.642,-131.509 831.156,-141.107 838.121,-141.81"/>
</g>
<!-- Node17&#45;&gt;Node8 -->
<g id="edge29" class="edge"><title>Node17&#45;&gt;Node8</title>
<path fill="none" stroke="midnightblue" d="M934.322,-114.262C866.989,-107.01 772.162,-94.0393 739.5,-76 719.108,-64.7373 702.257,-43.4962 692.069,-28.3618"/>
<polygon fill="midnightblue" stroke="midnightblue" points="694.965,-26.3929 686.615,-19.8714 689.075,-30.1766 694.965,-26.3929"/>
</g>
<!-- Node17&#45;&gt;Node18 -->
<g id="edge24" class="edge"><title>Node17&#45;&gt;Node18</title>
<path fill="none" stroke="midnightblue" d="M974.651,-112.444C940.102,-103.162 884.818,-88.3093 846.917,-78.127"/>
<polygon fill="midnightblue" stroke="midnightblue" points="847.766,-74.7309 837.2,-75.5164 845.949,-81.4912 847.766,-74.7309"/>
</g>
<!-- Node22 -->
<g id="node23" class="node"><title>Node22</title>
<polygon fill="none" stroke="#bfbfbf" points="1112.5,-56.5 1112.5,-75.5 1168.5,-75.5 1168.5,-56.5 1112.5,-56.5"/>
<text text-anchor="middle" x="1140.5" y="-63.5" font-family="Helvetica,sans-Serif" font-size="10.00">algorithm</text>
</g>
<!-- Node17&#45;&gt;Node22 -->
<g id="edge30" class="edge"><title>Node17&#45;&gt;Node22</title>
<path fill="none" stroke="midnightblue" d="M1027.73,-112.444C1049.88,-103.517 1084.82,-89.4387 1109.94,-79.3168"/>
<polygon fill="midnightblue" stroke="midnightblue" points="1111.4,-82.5006 1119.37,-75.5164 1108.78,-76.0079 1111.4,-82.5006"/>
</g>
<!-- Node23 -->
<g id="node24" class="node"><title>Node23</title>
<polygon fill="none" stroke="#bfbfbf" points="1043,-56.5 1043,-75.5 1094,-75.5 1094,-56.5 1043,-56.5"/>
<text text-anchor="middle" x="1068.5" y="-63.5" font-family="Helvetica,sans-Serif" font-size="10.00">typeinfo</text>
</g>
<!-- Node17&#45;&gt;Node23 -->
<g id="edge31" class="edge"><title>Node17&#45;&gt;Node23</title>
<path fill="none" stroke="midnightblue" d="M1016.46,-112.324C1025.63,-104.341 1039.44,-92.3128 1050.53,-82.6529"/>
<polygon fill="midnightblue" stroke="midnightblue" points="1053.12,-85.041 1058.36,-75.8339 1048.52,-79.7624 1053.12,-85.041"/>
</g>
<!-- Node17&#45;&gt;Node24 -->
<g id="edge32" class="edge"><title>Node17&#45;&gt;Node24</title>
<path fill="none" stroke="midnightblue" d="M1038.97,-112.471C1071.42,-103.943 1123,-90.3774 1177.2,-76.0762"/>
<polygon fill="midnightblue" stroke="midnightblue" points="1178.21,-79.4293 1186.99,-73.4932 1176.42,-72.6611 1178.21,-79.4293"/>
</g>
<!-- Node18&#45;&gt;Node8 -->
<g id="edge25" class="edge"><title>Node18&#45;&gt;Node8</title>
<path fill="none" stroke="midnightblue" d="M785.852,-56.4435C765.535,-47.5961 733.597,-33.6875 710.402,-23.5865"/>
<polygon fill="midnightblue" stroke="midnightblue" points="711.622,-20.3002 701.056,-19.5164 708.827,-26.7181 711.622,-20.3002"/>
</g>
<!-- Node19 -->
<g id="node20" class="node"><title>Node19</title>
<polygon fill="none" stroke="#bfbfbf" points="721.5,-0.5 721.5,-19.5 767.5,-19.5 767.5,-0.5 721.5,-0.5"/>
<text text-anchor="middle" x="744.5" y="-7.5" font-family="Helvetica,sans-Serif" font-size="10.00">cstdint</text>
</g>
<!-- Node18&#45;&gt;Node19 -->
<g id="edge26" class="edge"><title>Node18&#45;&gt;Node19</title>
<path fill="none" stroke="midnightblue" d="M795.699,-56.324C786.682,-48.3414 773.094,-36.3128 762.182,-26.6529"/>
<polygon fill="midnightblue" stroke="midnightblue" points="764.287,-23.8416 754.479,-19.8339 759.647,-29.083 764.287,-23.8416"/>
</g>
<!-- Node20 -->
<g id="node21" class="node"><title>Node20</title>
<polygon fill="none" stroke="#bfbfbf" points="785.5,-0.5 785.5,-19.5 825.5,-19.5 825.5,-0.5 785.5,-0.5"/>
<text text-anchor="middle" x="805.5" y="-7.5" font-family="Helvetica,sans-Serif" font-size="10.00">limits</text>
</g>
<!-- Node18&#45;&gt;Node20 -->
<g id="edge27" class="edge"><title>Node18&#45;&gt;Node20</title>
<path fill="none" stroke="midnightblue" d="M805.5,-56.083C805.5,-49.0059 805.5,-38.8611 805.5,-29.9865"/>
<polygon fill="midnightblue" stroke="midnightblue" points="809,-29.751 805.5,-19.7511 802,-29.7511 809,-29.751"/>
</g>
<!-- Node21 -->
<g id="node22" class="node"><title>Node21</title>
<polygon fill="none" stroke="#bfbfbf" points="843.5,-0.5 843.5,-19.5 895.5,-19.5 895.5,-0.5 843.5,-0.5"/>
<text text-anchor="middle" x="869.5" y="-7.5" font-family="Helvetica,sans-Serif" font-size="10.00">ostream</text>
</g>
<!-- Node18&#45;&gt;Node21 -->
<g id="edge28" class="edge"><title>Node18&#45;&gt;Node21</title>
<path fill="none" stroke="midnightblue" d="M815.783,-56.324C825.336,-48.2631 839.78,-36.0765 851.284,-26.3695"/>
<polygon fill="midnightblue" stroke="midnightblue" points="853.644,-28.9577 859.03,-19.8339 849.13,-23.6076 853.644,-28.9577"/>
</g>
<!-- Node28&#45;&gt;Node4 -->
<g id="edge44" class="edge"><title>Node28&#45;&gt;Node4</title>
<path fill="none" stroke="midnightblue" d="M827.501,-235.667C932.093,-224.326 1106.29,-204.777 1119.5,-199 1196.93,-165.139 1228.99,-152.685 1264.5,-76 1271.17,-61.5998 1270.51,-43.4064 1268.56,-29.9325"/>
<polygon fill="midnightblue" stroke="midnightblue" points="1271.98,-29.1317 1266.76,-19.9112 1265.09,-30.3736 1271.98,-29.1317"/>
</g>
<!-- Node28&#45;&gt;Node8 -->
<g id="edge45" class="edge"><title>Node28&#45;&gt;Node8</title>
<path fill="none" stroke="midnightblue" d="M746.999,-235.431C737.129,-201.612 700.746,-76.9457 686.899,-29.4984"/>
<polygon fill="midnightblue" stroke="midnightblue" points="690.258,-28.5147 684.096,-19.8958 683.538,-30.4759 690.258,-28.5147"/>
</g>
<!-- Node28&#45;&gt;Node9 -->
<g id="edge47" class="edge"><title>Node28&#45;&gt;Node9</title>
<path fill="none" stroke="midnightblue" d="M743.133,-235.064C730.834,-218.586 702.043,-183.673 668.5,-168 548.034,-111.714 493.733,-184.336 371.5,-132 345.601,-120.911 321.466,-98.6078 306.853,-83.2455"/>
<polygon fill="midnightblue" stroke="midnightblue" points="309.11,-80.5294 299.763,-75.5402 303.959,-85.269 309.11,-80.5294"/>
</g>
<!-- Node28&#45;&gt;Node24 -->
<g id="edge46" class="edge"><title>Node28&#45;&gt;Node24</title>
<path fill="none" stroke="midnightblue" d="M821.368,-235.492C915.756,-224.143 1070.95,-204.803 1082.5,-199 1136.26,-171.987 1180.56,-113.584 1200.35,-84.3734"/>
<polygon fill="midnightblue" stroke="midnightblue" points="1203.51,-85.9459 1206.1,-75.6737 1197.67,-82.0856 1203.51,-85.9459"/>
</g>
<!-- Node29 -->
<g id="node30" class="node"><title>Node29</title>
<g id="a_node30"><a xlink:href="../../d1/d5e/PossibleValuesListTrait_8h.xhtml" target="_top" xlink:title="enfield/Support/Possible\lValuesListTrait.h">
<polygon fill="none" stroke="black" points="951.5,-168.5 951.5,-198.5 1073.5,-198.5 1073.5,-168.5 951.5,-168.5"/>
<text text-anchor="start" x="959.5" y="-186.5" font-family="Helvetica,sans-Serif" font-size="10.00">enfield/Support/Possible</text>
<text text-anchor="middle" x="1012.5" y="-175.5" font-family="Helvetica,sans-Serif" font-size="10.00">ValuesListTrait.h</text>
</a>
</g>
</g>
<!-- Node28&#45;&gt;Node29 -->
<g id="edge42" class="edge"><title>Node28&#45;&gt;Node29</title>
<path fill="none" stroke="midnightblue" d="M787.181,-235.475C827.245,-226.411 891.551,-211.863 941.229,-200.624"/>
<polygon fill="midnightblue" stroke="midnightblue" points="942.294,-203.972 951.275,-198.351 940.749,-197.144 942.294,-203.972"/>
</g>
<!-- Node29&#45;&gt;Node17 -->
<g id="edge43" class="edge"><title>Node29&#45;&gt;Node17</title>
<path fill="none" stroke="midnightblue" d="M1011.08,-168.399C1010.28,-160.466 1009.27,-150.458 1008.4,-141.858"/>
<polygon fill="midnightblue" stroke="midnightblue" points="1011.86,-141.256 1007.37,-131.658 1004.89,-141.959 1011.86,-141.256"/>
</g>
<!-- Node30&#45;&gt;Node5 -->
<g id="edge49" class="edge"><title>Node30&#45;&gt;Node5</title>
<path fill="none" stroke="midnightblue" d="M580.735,-112.324C570.734,-104.263 555.613,-92.0765 543.57,-82.3695"/>
<polygon fill="midnightblue" stroke="midnightblue" points="545.443,-79.3841 535.461,-75.8339 541.05,-84.8343 545.443,-79.3841"/>
</g>
<!-- Node30&#45;&gt;Node9 -->
<g id="edge51" class="edge"><title>Node30&#45;&gt;Node9</title>
<path fill="none" stroke="midnightblue" d="M544.123,-112.444C484.379,-101.654 382.957,-83.3366 328.924,-73.5782"/>
<polygon fill="midnightblue" stroke="midnightblue" points="329.238,-70.0784 318.775,-71.7454 327.994,-76.967 329.238,-70.0784"/>
</g>
<!-- Node30&#45;&gt;Node24 -->
<g id="edge50" class="edge"><title>Node30&#45;&gt;Node24</title>
<path fill="none" stroke="midnightblue" d="M659.083,-116.507C795.627,-107.332 1097.46,-86.5314 1176.7,-75.6458"/>
<polygon fill="midnightblue" stroke="midnightblue" points="1177.37,-79.0836 1186.73,-74.1142 1176.32,-72.1638 1177.37,-79.0836"/>
</g>
</g>
</svg>
        <g id="navigator" transform="translate(0 0)" fill="#404254">
                <rect fill="#f2f5e9" fill-opacity="0.5" stroke="#606060" stroke-width=".5" x="0" y="0" width="60" height="60"/>
                <use id="zoomplus" xlink:href="#zoomPlus" x="17" y="9" onmousedown="handleZoom(evt,'in')"/>
                <use id="zoomminus" xlink:href="#zoomMin" x="42" y="9" onmousedown="handleZoom(evt,'out')"/>
                <use id="reset" xlink:href="#resetDef" x="30" y="36" onmousedown="handleReset()"/>
                <g id="arrowUp" xlink:href="#dirArrow" transform="translate(30 24)" onmousedown="handlePan(0,-1)">
                  <use xlink:href="#rim" fill="#404040">
                        <set attributeName="fill" to="#808080" begin="arrowUp.mouseover" end="arrowUp.mouseout"/>
                  </use>
                  <path fill="none" stroke="white" stroke-width="1.5" d="M0,-3.0v7 M-2.5,-0.5L0,-3.0L2.5,-0.5"/>
                </g>
                <g id="arrowRight" xlink:href="#dirArrow" transform="rotate(90) translate(36 -43)" onmousedown="handlePan(1,0)">
                  <use xlink:href="#rim" fill="#404040">
                        <set attributeName="fill" to="#808080" begin="arrowRight.mouseover" end="arrowRight.mouseout"/>
                  </use>
                  <path fill="none" stroke="white" stroke-width="1.5" d="M0,-3.0v7 M-2.5,-0.5L0,-3.0L2.5,-0.5"/>
                </g>
                <g id="arrowDown" xlink:href="#dirArrow" transform="rotate(180) translate(-30 -48)" onmousedown="handlePan(0,1)">
                  <use xlink:href="#rim" fill="#404040">
                        <set attributeName="fill" to="#808080" begin="arrowDown.mouseover" end="arrowDown.mouseout"/>
                  </use>
                  <path fill="none" stroke="white" stroke-width="1.5" d="M0,-3.0v7 M-2.5,-0.5L0,-3.0L2.5,-0.5"/>
                </g>
                <g id="arrowLeft" xlink:href="#dirArrow" transform="rotate(270) translate(-36 17)" onmousedown="handlePan(-1,0)">
                  <use xlink:href="#rim" fill="#404040">
                        <set attributeName="fill" to="#808080" begin="arrowLeft.mouseover" end="arrowLeft.mouseout"/>
                  </use>
                  <path fill="none" stroke="white" stroke-width="1.5" d="M0,-3.0v7 M-2.5,-0.5L0,-3.0L2.5,-0.5"/>
                </g>
        </g>
        <svg viewBox="0 0 15 15" width="100%" height="30px" preserveAspectRatio="xMaxYMin meet">
         <g id="arrow_out" transform="scale(0.3 0.3)">
          <a xlink:href="Generator_8cpp__incl_org.svg" target="_base">
           <rect id="button" ry="5" rx="5" y="6" x="6" height="38" width="38"
                fill="#f2f5e9" fill-opacity="0.5" stroke="#606060" stroke-width="1.0"/>
           <path id="arrow"
             d="M 11.500037,31.436501 C 11.940474,20.09759 22.043105,11.32322 32.158766,21.979434 L 37.068811,17.246167 C 37.068811,17.246167 37.088388,32 37.088388,32 L 22.160133,31.978069 C 22.160133,31.978069 26.997745,27.140456 26.997745,27.140456 C 18.528582,18.264221 13.291696,25.230495 11.500037,31.436501 z"
             style="fill:#404040;"/>
          </a>
         </g>
        </svg>
</svg>
