<?xml version="1.0" encoding="UTF-8" standalone="no"?>
<!DOCTYPE svg PUBLIC "-//W3C//DTD SVG 1.1//EN"
 "http://www.w3.org/Graphics/SVG/1.1/DTD/svg11.dtd">
<!-- Generated by graphviz version 2.40.1 (20161225.0304)
 -->
<!-- Title: efd::Stat::toString Pages: 1 -->
<svg width="407pt" height="39pt"
 viewBox="0.00 0.00 407.00 39.00" xmlns="http://www.w3.org/2000/svg" xmlns:xlink="http://www.w3.org/1999/xlink">
<g id="graph0" class="graph" transform="scale(1 1) rotate(0) translate(4 35)">
<title>efd::Stat::toString</title>
<!-- Node8 -->
<g id="node1" class="node">
<title>Node8</title>
<polygon fill="#bfbfbf" stroke="#000000" points="0,-6 0,-25 102,-25 102,-6 0,-6"/>
<text text-anchor="middle" x="51" y="-13" font-family="Helvetica,sans-Serif" font-size="10.00" fill="#000000">efd::Stat::toString</text>
</g>
<!-- Node9 -->
<g id="node2" class="node">
<title>Node9</title>
<g id="a_node2"><a xlink:href="../../d8/dcc/namespacestd.xhtml#a76fb98cd4a35566d53c2f0513c5d12d1" target="_top" xlink:title="std::to_string">
<polygon fill="none" stroke="#000000" points="138,-6 138,-25 218,-25 218,-6 138,-6"/>
<text text-anchor="middle" x="178" y="-13" font-family="Helvetica,sans-Serif" font-size="10.00" fill="#000000">std::to_string</text>
</a>
</g>
</g>
<!-- Node8&#45;&gt;Node9 -->
<g id="edge1" class="edge">
<title>Node8&#45;&gt;Node9</title>
<path fill="none" stroke="#191970" d="M102.2897,-15.5C110.7078,-15.5 119.4234,-15.5 127.8143,-15.5"/>
<polygon fill="#191970" stroke="#191970" points="127.8464,-19.0001 137.8464,-15.5 127.8463,-12.0001 127.8464,-19.0001"/>
</g>
<!-- Node10 -->
<g id="node3" class="node">
<title>Node10</title>
<g id="a_node3"><a xlink:href="../../dc/d5d/classefd_1_1EnumString.xhtml#a39d129d188c7746b7f8b65308d7d7b53" target="_top" xlink:title="Returns the string value of the enum. ">
<polygon fill="none" stroke="#000000" points="254,-.5 254,-30.5 399,-30.5 399,-.5 254,-.5"/>
<text text-anchor="start" x="262" y="-18.5" font-family="Helvetica,sans-Serif" font-size="10.00" fill="#000000">efd::EnumString::getString</text>
<text text-anchor="middle" x="326.5" y="-7.5" font-family="Helvetica,sans-Serif" font-size="10.00" fill="#000000">Value</text>
</a>
</g>
</g>
<!-- Node9&#45;&gt;Node10 -->
<g id="edge2" class="edge">
<title>Node9&#45;&gt;Node10</title>
<path fill="none" stroke="#191970" d="M218.1862,-15.5C226.237,-15.5 234.9699,-15.5 243.8654,-15.5"/>
<polygon fill="#191970" stroke="#191970" points="243.9502,-19.0001 253.9502,-15.5 243.9501,-12.0001 243.9502,-19.0001"/>
</g>
</g>
</svg>
