<?xml version="1.0" encoding="UTF-8" standalone="no"?>
<!DOCTYPE svg PUBLIC "-//W3C//DTD SVG 1.1//EN"
 "http://www.w3.org/Graphics/SVG/1.1/DTD/svg11.dtd">
<!-- Generated by graphviz version 2.38.0 (20140413.2041)
 -->
<!-- Title: include/enfield/Support/EnumString.h Pages: 1 -->
<svg width="383pt" height="151pt"
 viewBox="0.00 0.00 382.50 151.00" xmlns="http://www.w3.org/2000/svg" xmlns:xlink="http://www.w3.org/1999/xlink">
<g id="graph0" class="graph" transform="scale(1 1) rotate(0) translate(4 147)">
<title>include/enfield/Support/EnumString.h</title>
<!-- Node0 -->
<g id="node1" class="node"><title>Node0</title>
<polygon fill="#bfbfbf" stroke="black" points="152,-112.5 152,-142.5 268,-142.5 268,-112.5 152,-112.5"/>
<text text-anchor="start" x="160" y="-130.5" font-family="Helvetica,sans-Serif" font-size="10.00">include/enfield/Support</text>
<text text-anchor="middle" x="210" y="-119.5" font-family="Helvetica,sans-Serif" font-size="10.00">/EnumString.h</text>
</g>
<!-- Node1 -->
<g id="node2" class="node"><title>Node1</title>
<g id="a_node2"><a xlink:href="../../d1/d73/Defs_8h.xhtml" target="_top" xlink:title="enfield/Support/Defs.h">
<polygon fill="none" stroke="black" points="50,-56.5 50,-75.5 164,-75.5 164,-56.5 50,-56.5"/>
<text text-anchor="middle" x="107" y="-63.5" font-family="Helvetica,sans-Serif" font-size="10.00">enfield/Support/Defs.h</text>
</a>
</g>
</g>
<!-- Node0&#45;&gt;Node1 -->
<g id="edge1" class="edge"><title>Node0&#45;&gt;Node1</title>
<path fill="none" stroke="midnightblue" d="M185.59,-112.399C169.08,-102.862 147.377,-90.3248 130.962,-80.8422"/>
<polygon fill="midnightblue" stroke="midnightblue" points="132.397,-77.6292 121.987,-75.6578 128.896,-83.6906 132.397,-77.6292"/>
</g>
<!-- Node2 -->
<g id="node3" class="node"><title>Node2</title>
<polygon fill="none" stroke="#bfbfbf" points="0,-0.5 0,-19.5 44,-19.5 44,-0.5 0,-0.5"/>
<text text-anchor="middle" x="22" y="-7.5" font-family="Helvetica,sans-Serif" font-size="10.00">vector</text>
</g>
<!-- Node0&#45;&gt;Node2 -->
<g id="edge6" class="edge"><title>Node0&#45;&gt;Node2</title>
<path fill="none" stroke="midnightblue" d="M151.957,-122.969C115.548,-117.759 70.1441,-105.319 41,-76 28.9661,-63.8939 24.4707,-44.6125 22.8337,-30.1884"/>
<polygon fill="midnightblue" stroke="midnightblue" points="26.2986,-29.595 22.0443,-19.8918 19.3191,-30.1302 26.2986,-29.595"/>
</g>
<!-- Node6 -->
<g id="node7" class="node"><title>Node6</title>
<polygon fill="none" stroke="#bfbfbf" points="182,-56.5 182,-75.5 238,-75.5 238,-56.5 182,-56.5"/>
<text text-anchor="middle" x="210" y="-63.5" font-family="Helvetica,sans-Serif" font-size="10.00">algorithm</text>
</g>
<!-- Node0&#45;&gt;Node6 -->
<g id="edge7" class="edge"><title>Node0&#45;&gt;Node6</title>
<path fill="none" stroke="midnightblue" d="M210,-112.399C210,-104.466 210,-94.458 210,-85.8583"/>
<polygon fill="midnightblue" stroke="midnightblue" points="213.5,-85.6577 210,-75.6578 206.5,-85.6578 213.5,-85.6577"/>
</g>
<!-- Node7 -->
<g id="node8" class="node"><title>Node7</title>
<polygon fill="none" stroke="#bfbfbf" points="256.5,-56.5 256.5,-75.5 307.5,-75.5 307.5,-56.5 256.5,-56.5"/>
<text text-anchor="middle" x="282" y="-63.5" font-family="Helvetica,sans-Serif" font-size="10.00">typeinfo</text>
</g>
<!-- Node0&#45;&gt;Node7 -->
<g id="edge8" class="edge"><title>Node0&#45;&gt;Node7</title>
<path fill="none" stroke="midnightblue" d="M227.063,-112.399C238.065,-103.308 252.365,-91.4899 263.618,-82.1909"/>
<polygon fill="midnightblue" stroke="midnightblue" points="266.044,-84.726 271.523,-75.6578 261.585,-79.33 266.044,-84.726"/>
</g>
<!-- Node8 -->
<g id="node9" class="node"><title>Node8</title>
<polygon fill="none" stroke="#bfbfbf" points="325.5,-56.5 325.5,-75.5 374.5,-75.5 374.5,-56.5 325.5,-56.5"/>
<text text-anchor="middle" x="350" y="-63.5" font-family="Helvetica,sans-Serif" font-size="10.00">cassert</text>
</g>
<!-- Node0&#45;&gt;Node8 -->
<g id="edge9" class="edge"><title>Node0&#45;&gt;Node8</title>
<path fill="none" stroke="midnightblue" d="M243.178,-112.399C266.563,-102.461 297.612,-89.2649 320.206,-79.6625"/>
<polygon fill="midnightblue" stroke="midnightblue" points="321.794,-82.7904 329.629,-75.6578 319.056,-76.3481 321.794,-82.7904"/>
</g>
<!-- Node1&#45;&gt;Node2 -->
<g id="edge2" class="edge"><title>Node1&#45;&gt;Node2</title>
<path fill="none" stroke="midnightblue" d="M93.3433,-56.324C80.0837,-47.9002 59.732,-34.9709 44.1538,-25.0741"/>
<polygon fill="midnightblue" stroke="midnightblue" points="45.9404,-22.0626 35.6228,-19.6545 42.1867,-27.9711 45.9404,-22.0626"/>
</g>
<!-- Node3 -->
<g id="node4" class="node"><title>Node3</title>
<polygon fill="none" stroke="#bfbfbf" points="62,-0.5 62,-19.5 108,-19.5 108,-0.5 62,-0.5"/>
<text text-anchor="middle" x="85" y="-7.5" font-family="Helvetica,sans-Serif" font-size="10.00">cstdint</text>
</g>
<!-- Node1&#45;&gt;Node3 -->
<g id="edge3" class="edge"><title>Node1&#45;&gt;Node3</title>
<path fill="none" stroke="midnightblue" d="M103.367,-56.083C100.388,-48.77 96.0739,-38.1814 92.3755,-29.1034"/>
<polygon fill="midnightblue" stroke="midnightblue" points="95.5796,-27.6914 88.5653,-19.7511 89.097,-30.3326 95.5796,-27.6914"/>
</g>
<!-- Node4 -->
<g id="node5" class="node"><title>Node4</title>
<polygon fill="none" stroke="#bfbfbf" points="126,-0.5 126,-19.5 166,-19.5 166,-0.5 126,-0.5"/>
<text text-anchor="middle" x="146" y="-7.5" font-family="Helvetica,sans-Serif" font-size="10.00">limits</text>
</g>
<!-- Node1&#45;&gt;Node4 -->
<g id="edge4" class="edge"><title>Node1&#45;&gt;Node4</title>
<path fill="none" stroke="midnightblue" d="M113.44,-56.083C118.949,-48.4554 127.031,-37.2645 133.765,-27.9408"/>
<polygon fill="midnightblue" stroke="midnightblue" points="136.662,-29.9071 139.68,-19.7511 130.987,-25.8087 136.662,-29.9071"/>
</g>
<!-- Node5 -->
<g id="node6" class="node"><title>Node5</title>
<polygon fill="none" stroke="#bfbfbf" points="184,-0.5 184,-19.5 236,-19.5 236,-0.5 184,-0.5"/>
<text text-anchor="middle" x="210" y="-7.5" font-family="Helvetica,sans-Serif" font-size="10.00">ostream</text>
</g>
<!-- Node1&#45;&gt;Node5 -->
<g id="edge5" class="edge"><title>Node1&#45;&gt;Node5</title>
<path fill="none" stroke="midnightblue" d="M123.549,-56.324C139.992,-47.7034 165.435,-34.3643 184.468,-24.3855"/>
<polygon fill="midnightblue" stroke="midnightblue" points="186.261,-27.3977 193.492,-19.6545 183.011,-21.198 186.261,-27.3977"/>
</g>
</g>
</svg>
