<?xml version="1.0" encoding="UTF-8" standalone="no"?>
<!DOCTYPE svg PUBLIC "-//W3C//DTD SVG 1.1//EN"
 "http://www.w3.org/Graphics/SVG/1.1/DTD/svg11.dtd">
<!-- Generated by graphviz version 2.40.1 (20161225.0304)
 -->
<!-- Title: include/enfield/Support/EnumString.h Pages: 1 -->
<svg width="343pt" height="151pt"
 viewBox="0.00 0.00 343.00 151.00" xmlns="http://www.w3.org/2000/svg" xmlns:xlink="http://www.w3.org/1999/xlink">
<g id="graph0" class="graph" transform="scale(1 1) rotate(0) translate(4 147)">
<title>include/enfield/Support/EnumString.h</title>
<!-- Node0 -->
<g id="node1" class="node">
<title>Node0</title>
<polygon fill="#bfbfbf" stroke="#000000" points="106,-112.5 106,-142.5 235,-142.5 235,-112.5 106,-112.5"/>
<text text-anchor="start" x="114" y="-130.5" font-family="Helvetica,sans-Serif" font-size="10.00" fill="#000000">include/enfield/Support</text>
<text text-anchor="middle" x="170.5" y="-119.5" font-family="Helvetica,sans-Serif" font-size="10.00" fill="#000000">/EnumString.h</text>
</g>
<!-- Node1 -->
<g id="node2" class="node">
<title>Node1</title>
<g id="a_node2"><a xlink:href="../../d1/d73/Defs_8h.xhtml" target="_top" xlink:title="enfield/Support/Defs.h">
<polygon fill="none" stroke="#000000" points="52,-56.5 52,-75.5 177,-75.5 177,-56.5 52,-56.5"/>
<text text-anchor="middle" x="114.5" y="-63.5" font-family="Helvetica,sans-Serif" font-size="10.00" fill="#000000">enfield/Support/Defs.h</text>
</a>
</g>
</g>
<!-- Node0&#45;&gt;Node1 -->
<g id="edge1" class="edge">
<title>Node0&#45;&gt;Node1</title>
<path fill="none" stroke="#191970" d="M156.6573,-112.2977C148.641,-103.4941 138.5238,-92.3833 130.21,-83.2529"/>
<polygon fill="#191970" stroke="#191970" points="132.7869,-80.8845 123.4663,-75.8469 127.6112,-85.5974 132.7869,-80.8845"/>
</g>
<!-- Node2 -->
<g id="node3" class="node">
<title>Node2</title>
<polygon fill="none" stroke="#bfbfbf" points="0,-.5 0,-19.5 47,-19.5 47,-.5 0,-.5"/>
<text text-anchor="middle" x="23.5" y="-7.5" font-family="Helvetica,sans-Serif" font-size="10.00" fill="#000000">vector</text>
</g>
<!-- Node0&#45;&gt;Node2 -->
<g id="edge6" class="edge">
<title>Node0&#45;&gt;Node2</title>
<path fill="none" stroke="#191970" d="M105.7034,-113.9272C82.9812,-106.2282 59.0317,-94.3143 42.5,-76 31.1523,-63.4287 26.5478,-44.4911 24.6971,-30.1209"/>
<polygon fill="#191970" stroke="#191970" points="28.1461,-29.4136 23.727,-19.7844 21.1768,-30.0678 28.1461,-29.4136"/>
</g>
<!-- Node6 -->
<g id="node7" class="node">
<title>Node6</title>
<polygon fill="none" stroke="#bfbfbf" points="195.5,-56.5 195.5,-75.5 259.5,-75.5 259.5,-56.5 195.5,-56.5"/>
<text text-anchor="middle" x="227.5" y="-63.5" font-family="Helvetica,sans-Serif" font-size="10.00" fill="#000000">algorithm</text>
</g>
<!-- Node0&#45;&gt;Node6 -->
<g id="edge7" class="edge">
<title>Node0&#45;&gt;Node6</title>
<path fill="none" stroke="#191970" d="M184.5899,-112.2977C192.7493,-103.4941 203.0472,-92.3833 211.5095,-83.2529"/>
<polygon fill="#191970" stroke="#191970" points="214.1429,-85.5604 218.3736,-75.8469 209.0089,-80.8021 214.1429,-85.5604"/>
</g>
<!-- Node7 -->
<g id="node8" class="node">
<title>Node7</title>
<polygon fill="none" stroke="#bfbfbf" points="278,-56.5 278,-75.5 335,-75.5 335,-56.5 278,-56.5"/>
<text text-anchor="middle" x="306.5" y="-63.5" font-family="Helvetica,sans-Serif" font-size="10.00" fill="#000000">typeinfo</text>
</g>
<!-- Node0&#45;&gt;Node7 -->
<g id="edge8" class="edge">
<title>Node0&#45;&gt;Node7</title>
<path fill="none" stroke="#191970" d="M203.7693,-112.4554C225.8641,-102.464 254.646,-89.4487 276.1219,-79.7372"/>
<polygon fill="#191970" stroke="#191970" points="277.7553,-82.8398 285.4248,-75.5303 274.871,-76.4616 277.7553,-82.8398"/>
</g>
<!-- Node1&#45;&gt;Node2 -->
<g id="edge2" class="edge">
<title>Node1&#45;&gt;Node2</title>
<path fill="none" stroke="#191970" d="M98.649,-56.2455C84.6868,-47.6534 64.1272,-35.0014 48.0404,-25.1018"/>
<polygon fill="#191970" stroke="#191970" points="49.5203,-21.9029 39.1693,-19.6427 45.8516,-27.8645 49.5203,-21.9029"/>
</g>
<!-- Node3 -->
<g id="node4" class="node">
<title>Node3</title>
<polygon fill="none" stroke="#bfbfbf" points="65.5,-.5 65.5,-19.5 115.5,-19.5 115.5,-.5 65.5,-.5"/>
<text text-anchor="middle" x="90.5" y="-7.5" font-family="Helvetica,sans-Serif" font-size="10.00" fill="#000000">cstdint</text>
</g>
<!-- Node1&#45;&gt;Node3 -->
<g id="edge3" class="edge">
<title>Node1&#45;&gt;Node3</title>
<path fill="none" stroke="#191970" d="M110.3195,-56.2455C107.119,-48.7776 102.604,-38.2427 98.6916,-29.1137"/>
<polygon fill="#191970" stroke="#191970" points="101.7888,-27.4554 94.6326,-19.6427 95.3548,-30.2129 101.7888,-27.4554"/>
</g>
<!-- Node4 -->
<g id="node5" class="node">
<title>Node4</title>
<polygon fill="none" stroke="#bfbfbf" points="133.5,-.5 133.5,-19.5 177.5,-19.5 177.5,-.5 133.5,-.5"/>
<text text-anchor="middle" x="155.5" y="-7.5" font-family="Helvetica,sans-Serif" font-size="10.00" fill="#000000">limits</text>
</g>
<!-- Node1&#45;&gt;Node4 -->
<g id="edge4" class="edge">
<title>Node1&#45;&gt;Node4</title>
<path fill="none" stroke="#191970" d="M121.6417,-56.2455C127.3444,-48.4564 135.49,-37.3308 142.3625,-27.9439"/>
<polygon fill="#191970" stroke="#191970" points="145.3568,-29.7789 148.4402,-19.6427 139.7087,-25.6437 145.3568,-29.7789"/>
</g>
<!-- Node5 -->
<g id="node6" class="node">
<title>Node5</title>
<polygon fill="none" stroke="#bfbfbf" points="196,-.5 196,-19.5 253,-19.5 253,-.5 196,-.5"/>
<text text-anchor="middle" x="224.5" y="-7.5" font-family="Helvetica,sans-Serif" font-size="10.00" fill="#000000">ostream</text>
</g>
<!-- Node1&#45;&gt;Node5 -->
<g id="edge5" class="edge">
<title>Node1&#45;&gt;Node5</title>
<path fill="none" stroke="#191970" d="M133.6605,-56.2455C151.0111,-47.4125 176.7901,-34.2887 196.4583,-24.2758"/>
<polygon fill="#191970" stroke="#191970" points="198.2353,-27.2986 205.559,-19.6427 195.0595,-21.0605 198.2353,-27.2986"/>
</g>
</g>
</svg>
