<?xml version="1.0" encoding="UTF-8" standalone="no"?>
<!DOCTYPE svg PUBLIC "-//W3C//DTD SVG 1.1//EN"
 "http://www.w3.org/Graphics/SVG/1.1/DTD/svg11.dtd">
<!-- Generated by graphviz version 2.38.0 (20140413.2041)
 -->
<!-- Title: include/enfield/Transform/InlineAllPass.h Pages: 1 -->
<svg width="573pt" height="106pt"
 viewBox="0.00 0.00 572.50 106.00" xmlns="http://www.w3.org/2000/svg" xmlns:xlink="http://www.w3.org/1999/xlink">
<g id="graph0" class="graph" transform="scale(1 1) rotate(0) translate(4 102)">
<title>include/enfield/Transform/InlineAllPass.h</title>
<!-- Node13 -->
<g id="node1" class="node"><title>Node13</title>
<polygon fill="#bfbfbf" stroke="black" points="235,-67.5 235,-97.5 361,-97.5 361,-67.5 235,-67.5"/>
<text text-anchor="start" x="243" y="-85.5" font-family="Helvetica,sans-Serif" font-size="10.00">include/enfield/Transform</text>
<text text-anchor="middle" x="298" y="-74.5" font-family="Helvetica,sans-Serif" font-size="10.00">/InlineAllPass.h</text>
</g>
<!-- Node14 -->
<g id="node2" class="node"><title>Node14</title>
<g id="a_node2"><a xlink:href="../../d0/d91/QbitAllocator_8cpp.xhtml" target="_top" xlink:title="lib/Transform/Allocators\l/QbitAllocator.cpp">
<polygon fill="none" stroke="black" points="0,-0.5 0,-30.5 120,-30.5 120,-0.5 0,-0.5"/>
<text text-anchor="start" x="8" y="-18.5" font-family="Helvetica,sans-Serif" font-size="10.00">lib/Transform/Allocators</text>
<text text-anchor="middle" x="60" y="-7.5" font-family="Helvetica,sans-Serif" font-size="10.00">/QbitAllocator.cpp</text>
</a>
</g>
</g>
<!-- Node13&#45;&gt;Node14 -->
<g id="edge1" class="edge"><title>Node13&#45;&gt;Node14</title>
<path fill="none" stroke="midnightblue" d="M236.541,-64.7149C197.811,-54.1373 148.371,-40.6348 111.668,-30.6109"/>
<polygon fill="midnightblue" stroke="midnightblue" points="236.082,-68.2177 246.651,-67.476 237.926,-61.465 236.082,-68.2177"/>
</g>
<!-- Node15 -->
<g id="node3" class="node"><title>Node15</title>
<g id="a_node3"><a xlink:href="../../dd/d93/InlineAllPass_8cpp.xhtml" target="_top" xlink:title="lib/Transform/InlineAllPass.cpp">
<polygon fill="none" stroke="black" points="138,-6 138,-25 290,-25 290,-6 138,-6"/>
<text text-anchor="middle" x="214" y="-13" font-family="Helvetica,sans-Serif" font-size="10.00">lib/Transform/InlineAllPass.cpp</text>
</a>
</g>
</g>
<!-- Node13&#45;&gt;Node15 -->
<g id="edge2" class="edge"><title>Node13&#45;&gt;Node15</title>
<path fill="none" stroke="midnightblue" d="M271.518,-61.008C255.924,-48.9412 237.009,-34.3046 225.236,-25.1945"/>
<polygon fill="midnightblue" stroke="midnightblue" points="269.723,-64.0442 279.773,-67.396 274.006,-58.508 269.723,-64.0442"/>
</g>
<!-- Node16 -->
<g id="node4" class="node"><title>Node16</title>
<g id="a_node4"><a xlink:href="../../dd/d49/SemanticVerifierPass_8cpp.xhtml" target="_top" xlink:title="lib/Transform/SemanticVerifier\lPass.cpp">
<polygon fill="none" stroke="black" points="308.5,-0.5 308.5,-30.5 457.5,-30.5 457.5,-0.5 308.5,-0.5"/>
<text text-anchor="start" x="316.5" y="-18.5" font-family="Helvetica,sans-Serif" font-size="10.00">lib/Transform/SemanticVerifier</text>
<text text-anchor="middle" x="383" y="-7.5" font-family="Helvetica,sans-Serif" font-size="10.00">Pass.cpp</text>
</a>
</g>
</g>
<!-- Node13&#45;&gt;Node16 -->
<g id="edge3" class="edge"><title>Node13&#45;&gt;Node16</title>
<path fill="none" stroke="midnightblue" d="M324.588,-61.1677C337.586,-51.2283 352.904,-39.5144 364.592,-30.5765"/>
<polygon fill="midnightblue" stroke="midnightblue" points="322.261,-58.5412 316.444,-67.396 326.513,-64.1017 322.261,-58.5412"/>
</g>
<!-- Node17 -->
<g id="node5" class="node"><title>Node17</title>
<g id="a_node5"><a xlink:href="../../de/d8e/Enfield_8cpp.xhtml" target="_top" xlink:title="tools/Enfield.cpp">
<polygon fill="none" stroke="black" points="475.5,-6 475.5,-25 564.5,-25 564.5,-6 475.5,-6"/>
<text text-anchor="middle" x="520" y="-13" font-family="Helvetica,sans-Serif" font-size="10.00">tools/Enfield.cpp</text>
</a>
</g>
</g>
<!-- Node13&#45;&gt;Node17 -->
<g id="edge4" class="edge"><title>Node13&#45;&gt;Node17</title>
<path fill="none" stroke="midnightblue" d="M355.753,-64.5904C399.109,-51.896 456.669,-35.0429 490.871,-25.0287"/>
<polygon fill="midnightblue" stroke="midnightblue" points="354.511,-61.307 345.897,-67.476 356.478,-68.0249 354.511,-61.307"/>
</g>
</g>
</svg>
