<?xml version="1.0" encoding="UTF-8" standalone="no"?>
<!DOCTYPE svg PUBLIC "-//W3C//DTD SVG 1.1//EN"
 "http://www.w3.org/Graphics/SVG/1.1/DTD/svg11.dtd">
<!-- Generated by graphviz version 2.38.0 (20140413.2041)
 -->
<!-- Title: efd::NDGOpList::cloneImpl Pages: 1 -->
<svg width="762pt" height="104pt"
 viewBox="0.00 0.00 762.00 104.00" xmlns="http://www.w3.org/2000/svg" xmlns:xlink="http://www.w3.org/1999/xlink">
<g id="graph0" class="graph" transform="scale(1 1) rotate(0) translate(4 100)">
<title>efd::NDGOpList::cloneImpl</title>
<!-- Node7 -->
<g id="node1" class="node"><title>Node7</title>
<polygon fill="#bfbfbf" stroke="black" points="0,-19.5 0,-38.5 135,-38.5 135,-19.5 0,-19.5"/>
<text text-anchor="middle" x="67.5" y="-26.5" font-family="Helvetica,sans-Serif" font-size="10.00">efd::NDGOpList::cloneImpl</text>
</g>
<!-- Node8 -->
<g id="node2" class="node"><title>Node8</title>
<g id="a_node2"><a xlink:href="../../da/ddd/classefd_1_1NDList.xhtml#aed2ba2ed453bc5ec3f84b45b836f041e" target="_top" xlink:title="Deep&#45;copies the childrem of list. ">
<polygon fill="none" stroke="black" points="171,-38.5 171,-57.5 306,-57.5 306,-38.5 171,-38.5"/>
<text text-anchor="middle" x="238.5" y="-45.5" font-family="Helvetica,sans-Serif" font-size="10.00">efd::NDList::cloneChildrem</text>
</a>
</g>
</g>
<!-- Node7&#45;&gt;Node8 -->
<g id="edge1" class="edge"><title>Node7&#45;&gt;Node8</title>
<path fill="none" stroke="midnightblue" d="M135.293,-36.5093C143.715,-37.4561 152.383,-38.4306 160.941,-39.3927"/>
<polygon fill="midnightblue" stroke="midnightblue" points="160.587,-42.8749 170.915,-40.5141 161.369,-35.9187 160.587,-42.8749"/>
</g>
<!-- Node13 -->
<g id="node7" class="node"><title>Node13</title>
<g id="a_node7"><a xlink:href="../../da/d14/classefd_1_1NDGOpList.xhtml#ad763f42c1ceddbf4aab2808682bc1e1b" target="_top" xlink:title="Creates a new instance of this node. ">
<polygon fill="none" stroke="black" points="177.5,-0.5 177.5,-19.5 299.5,-19.5 299.5,-0.5 177.5,-0.5"/>
<text text-anchor="middle" x="238.5" y="-7.5" font-family="Helvetica,sans-Serif" font-size="10.00">efd::NDGOpList::Create</text>
</a>
</g>
</g>
<!-- Node7&#45;&gt;Node13 -->
<g id="edge6" class="edge"><title>Node7&#45;&gt;Node13</title>
<path fill="none" stroke="midnightblue" d="M135.293,-21.4907C145.851,-20.3038 156.795,-19.0734 167.424,-17.8783"/>
<polygon fill="midnightblue" stroke="midnightblue" points="167.951,-21.3413 177.497,-16.7459 167.168,-14.3851 167.951,-21.3413"/>
</g>
<!-- Node9 -->
<g id="node3" class="node"><title>Node9</title>
<g id="a_node3"><a xlink:href="../../da/ddd/classefd_1_1NDList.xhtml#a664c2f4a60746612062d7b112ff9842e" target="_top" xlink:title="Appends a child to the end of the list. ">
<polygon fill="none" stroke="black" points="358.5,-76.5 358.5,-95.5 469.5,-95.5 469.5,-76.5 358.5,-76.5"/>
<text text-anchor="middle" x="414" y="-83.5" font-family="Helvetica,sans-Serif" font-size="10.00">efd::NDList::addChild</text>
</a>
</g>
</g>
<!-- Node8&#45;&gt;Node9 -->
<g id="edge2" class="edge"><title>Node8&#45;&gt;Node9</title>
<path fill="none" stroke="midnightblue" d="M283.281,-57.589C306.486,-62.6713 335.178,-68.9554 359.673,-74.3203"/>
<polygon fill="midnightblue" stroke="midnightblue" points="359.016,-77.7593 369.533,-76.4799 360.514,-70.9214 359.016,-77.7593"/>
</g>
<!-- Node11 -->
<g id="node5" class="node"><title>Node11</title>
<g id="a_node5"><a xlink:href="../../d6/d6a/classefd_1_1Node.xhtml#a6c85c9bd21014b73497de741cc75f706" target="_top" xlink:title="Clones the current node (deep copy). ">
<polygon fill="none" stroke="black" points="369.5,-38.5 369.5,-57.5 458.5,-57.5 458.5,-38.5 369.5,-38.5"/>
<text text-anchor="middle" x="414" y="-45.5" font-family="Helvetica,sans-Serif" font-size="10.00">efd::Node::clone</text>
</a>
</g>
</g>
<!-- Node8&#45;&gt;Node11 -->
<g id="edge4" class="edge"><title>Node8&#45;&gt;Node11</title>
<path fill="none" stroke="midnightblue" d="M306.083,-48C323.652,-48 342.389,-48 359.19,-48"/>
<polygon fill="midnightblue" stroke="midnightblue" points="359.373,-51.5001 369.373,-48 359.373,-44.5001 359.373,-51.5001"/>
</g>
<!-- Node10 -->
<g id="node4" class="node"><title>Node10</title>
<g id="a_node4"><a xlink:href="../../d6/d6a/classefd_1_1Node.xhtml#a48e9d49d994b9023b8400316e2782e2b" target="_top" xlink:title="Sets the parent node of the current node. ">
<polygon fill="none" stroke="black" points="522,-76.5 522,-95.5 629,-95.5 629,-76.5 522,-76.5"/>
<text text-anchor="middle" x="575.5" y="-83.5" font-family="Helvetica,sans-Serif" font-size="10.00">efd::Node::setParent</text>
</a>
</g>
</g>
<!-- Node9&#45;&gt;Node10 -->
<g id="edge3" class="edge"><title>Node9&#45;&gt;Node10</title>
<path fill="none" stroke="midnightblue" d="M469.891,-86C483.319,-86 497.792,-86 511.564,-86"/>
<polygon fill="midnightblue" stroke="midnightblue" points="511.93,-89.5001 521.93,-86 511.93,-82.5001 511.93,-89.5001"/>
</g>
<!-- Node12 -->
<g id="node6" class="node"><title>Node12</title>
<g id="a_node6"><a xlink:href="../../d6/d6a/classefd_1_1Node.xhtml#ac078ce64eb404cfdc24b9288908536e4" target="_top" xlink:title="Clones the current node (deep copy). ">
<polygon fill="none" stroke="black" points="522,-38.5 522,-57.5 629,-57.5 629,-38.5 522,-38.5"/>
<text text-anchor="middle" x="575.5" y="-45.5" font-family="Helvetica,sans-Serif" font-size="10.00">efd::Node::cloneImpl</text>
</a>
</g>
</g>
<!-- Node11&#45;&gt;Node12 -->
<g id="edge5" class="edge"><title>Node11&#45;&gt;Node12</title>
<path fill="none" stroke="midnightblue" d="M458.584,-48C474.93,-48 493.848,-48 511.599,-48"/>
<polygon fill="midnightblue" stroke="midnightblue" points="511.887,-51.5001 521.887,-48 511.887,-44.5001 511.887,-51.5001"/>
</g>
<!-- Node14 -->
<g id="node8" class="node"><title>Node14</title>
<g id="a_node8"><a xlink:href="../../da/d14/classefd_1_1NDGOpList.xhtml#aa2ec8dc00392f74e5d4bd261fb1a43c5" target="_top" xlink:title="efd::NDGOpList::NDGOpList">
<polygon fill="none" stroke="black" points="342,-0.5 342,-19.5 486,-19.5 486,-0.5 342,-0.5"/>
<text text-anchor="middle" x="414" y="-7.5" font-family="Helvetica,sans-Serif" font-size="10.00">efd::NDGOpList::NDGOpList</text>
</a>
</g>
</g>
<!-- Node13&#45;&gt;Node14 -->
<g id="edge7" class="edge"><title>Node13&#45;&gt;Node14</title>
<path fill="none" stroke="midnightblue" d="M299.695,-10C310.004,-10 320.868,-10 331.621,-10"/>
<polygon fill="midnightblue" stroke="midnightblue" points="331.875,-13.5001 341.875,-10 331.875,-6.5001 331.875,-13.5001"/>
</g>
<!-- Node15 -->
<g id="node9" class="node"><title>Node15</title>
<g id="a_node9"><a xlink:href="../../da/ddd/classefd_1_1NDList.xhtml#a2642c91fda9d33512d1aa1aa7851b6bd" target="_top" xlink:title="efd::NDList::NDList">
<polygon fill="none" stroke="black" points="523.5,-0.5 523.5,-19.5 627.5,-19.5 627.5,-0.5 523.5,-0.5"/>
<text text-anchor="middle" x="575.5" y="-7.5" font-family="Helvetica,sans-Serif" font-size="10.00">efd::NDList::NDList</text>
</a>
</g>
</g>
<!-- Node14&#45;&gt;Node15 -->
<g id="edge8" class="edge"><title>Node14&#45;&gt;Node15</title>
<path fill="none" stroke="midnightblue" d="M486.353,-10C495.295,-10 504.38,-10 513.151,-10"/>
<polygon fill="midnightblue" stroke="midnightblue" points="513.276,-13.5001 523.275,-10 513.275,-6.5001 513.276,-13.5001"/>
</g>
<!-- Node16 -->
<g id="node10" class="node"><title>Node16</title>
<g id="a_node10"><a xlink:href="../../d6/d6a/classefd_1_1Node.xhtml#a09ac8cdf7898a3d17293d92ae956eece" target="_top" xlink:title="Constructs the node, initially empty (with no information). ">
<polygon fill="none" stroke="black" points="665,-0.5 665,-19.5 754,-19.5 754,-0.5 665,-0.5"/>
<text text-anchor="middle" x="709.5" y="-7.5" font-family="Helvetica,sans-Serif" font-size="10.00">efd::Node::Node</text>
</a>
</g>
</g>
<!-- Node15&#45;&gt;Node16 -->
<g id="edge9" class="edge"><title>Node15&#45;&gt;Node16</title>
<path fill="none" stroke="midnightblue" d="M627.535,-10C636.496,-10 645.845,-10 654.874,-10"/>
<polygon fill="midnightblue" stroke="midnightblue" points="654.894,-13.5001 664.894,-10 654.894,-6.5001 654.894,-13.5001"/>
</g>
</g>
</svg>
