<?xml version="1.0" encoding="UTF-8" standalone="no"?>
<!DOCTYPE svg PUBLIC "-//W3C//DTD SVG 1.1//EN"
 "http://www.w3.org/Graphics/SVG/1.1/DTD/svg11.dtd">
<!-- Generated by graphviz version 2.38.0 (20140413.2041)
 -->
<!-- Title: efd::XbitToNumberWrapperPass Pages: 1 -->
<svg width="266pt" height="219pt"
 viewBox="0.00 0.00 266.00 219.00" xmlns="http://www.w3.org/2000/svg" xmlns:xlink="http://www.w3.org/1999/xlink">
<g id="graph0" class="graph" transform="scale(1 1) rotate(0) translate(4 215)">
<title>efd::XbitToNumberWrapperPass</title>
<!-- Node4 -->
<g id="node1" class="node"><title>Node4</title>
<polygon fill="#bfbfbf" stroke="black" points="17.5,-0.5 17.5,-19.5 175.5,-19.5 175.5,-0.5 17.5,-0.5"/>
<text text-anchor="middle" x="96.5" y="-7.5" font-family="Helvetica,sans-Serif" font-size="10.00">efd::XbitToNumberWrapperPass</text>
</g>
<!-- Node5 -->
<g id="node2" class="node"><title>Node5</title>
<g id="a_node2"><a xlink:href="../../db/d56/classefd_1_1PassT.xhtml" target="_top" xlink:title="efd::PassT\&lt; XbitToNumber \&gt;">
<polygon fill="none" stroke="black" points="23.5,-57.5 23.5,-76.5 169.5,-76.5 169.5,-57.5 23.5,-57.5"/>
<text text-anchor="middle" x="96.5" y="-64.5" font-family="Helvetica,sans-Serif" font-size="10.00">efd::PassT&lt; XbitToNumber &gt;</text>
</a>
</g>
</g>
<!-- Node5&#45;&gt;Node4 -->
<g id="edge1" class="edge"><title>Node5&#45;&gt;Node4</title>
<path fill="none" stroke="midnightblue" d="M96.5,-47.1166C96.5,-37.8173 96.5,-27.0557 96.5,-19.7149"/>
<polygon fill="midnightblue" stroke="midnightblue" points="93.0001,-47.4062 96.5,-57.4062 100,-47.4063 93.0001,-47.4062"/>
</g>
<!-- Node6 -->
<g id="node3" class="node"><title>Node6</title>
<g id="a_node3"><a xlink:href="../../d0/d98/classefd_1_1Pass.xhtml" target="_top" xlink:title="Base class for implementation of QModule passes. This information will be used when the QModule&#39;s fun...">
<polygon fill="none" stroke="black" points="0,-191.5 0,-210.5 59,-210.5 59,-191.5 0,-191.5"/>
<text text-anchor="middle" x="29.5" y="-198.5" font-family="Helvetica,sans-Serif" font-size="10.00">efd::Pass</text>
</a>
</g>
</g>
<!-- Node6&#45;&gt;Node5 -->
<g id="edge2" class="edge"><title>Node6&#45;&gt;Node5</title>
<path fill="none" stroke="midnightblue" d="M29.6846,-180.811C30.5439,-164.83 33.4564,-141.878 42.5,-124 52.4981,-104.235 71.8477,-86.8115 84.4641,-76.841"/>
<polygon fill="midnightblue" stroke="midnightblue" points="26.179,-180.939 29.3635,-191.044 33.1756,-181.159 26.179,-180.939"/>
</g>
<!-- Node8 -->
<g id="node5" class="node"><title>Node8</title>
<g id="a_node5"><a xlink:href="../../db/d56/classefd_1_1PassT.xhtml" target="_top" xlink:title="Should serve as base class for classes that produces some data of type T. ">
<polygon fill="none" stroke="black" points="52,-124.5 52,-143.5 141,-143.5 141,-124.5 52,-124.5"/>
<text text-anchor="middle" x="96.5" y="-131.5" font-family="Helvetica,sans-Serif" font-size="10.00">efd::PassT&lt; T &gt;</text>
</a>
</g>
</g>
<!-- Node6&#45;&gt;Node8 -->
<g id="edge5" class="edge"><title>Node6&#45;&gt;Node8</title>
<path fill="none" stroke="midnightblue" d="M45.9956,-183.997C59.135,-171.25 77.0239,-153.895 87.6072,-143.627"/>
<polygon fill="midnightblue" stroke="midnightblue" points="43.2762,-181.759 38.5359,-191.234 48.1504,-186.783 43.2762,-181.759"/>
</g>
<!-- Node7 -->
<g id="node4" class="node"><title>Node7</title>
<g id="a_node4"><a xlink:href="../../db/d0c/structefd_1_1XbitToNumber.xhtml" target="_top" xlink:title="Maps every quantum and classic bit (not register) to a number inside a vector. ">
<polygon fill="none" stroke="black" points="159,-124.5 159,-143.5 258,-143.5 258,-124.5 159,-124.5"/>
<text text-anchor="middle" x="208.5" y="-131.5" font-family="Helvetica,sans-Serif" font-size="10.00">efd::XbitToNumber</text>
</a>
</g>
</g>
<!-- Node7&#45;&gt;Node5 -->
<g id="edge3" class="edge"><title>Node7&#45;&gt;Node5</title>
<path fill="none" stroke="#9a32cd" stroke-dasharray="5,2" d="M201.266,-115.365C197.516,-108.146 192.282,-100.269 185.5,-95 174.535,-86.4803 160.892,-80.6377 147.61,-76.635"/>
<polygon fill="#9a32cd" stroke="#9a32cd" points="198.106,-116.87 205.464,-124.492 204.465,-113.945 198.106,-116.87"/>
<text text-anchor="middle" x="212" y="-98" font-family="Helvetica,sans-Serif" font-size="10.00"> mData</text>
</g>
<!-- Node8&#45;&gt;Node5 -->
<g id="edge4" class="edge"><title>Node8&#45;&gt;Node5</title>
<path fill="none" stroke="orange" stroke-dasharray="5,2" d="M96.5,-114.037C96.5,-101.67 96.5,-86.1198 96.5,-76.6273"/>
<polygon fill="orange" stroke="orange" points="93.0001,-114.234 96.5,-124.234 100,-114.234 93.0001,-114.234"/>
<text text-anchor="middle" x="139" y="-98" font-family="Helvetica,sans-Serif" font-size="10.00"> &lt; XbitToNumber &gt;</text>
</g>
<!-- Node9 -->
<g id="node6" class="node"><title>Node9</title>
<polygon fill="none" stroke="#bfbfbf" points="82,-191.5 82,-210.5 111,-210.5 111,-191.5 82,-191.5"/>
<text text-anchor="middle" x="96.5" y="-198.5" font-family="Helvetica,sans-Serif" font-size="10.00">T</text>
</g>
<!-- Node9&#45;&gt;Node8 -->
<g id="edge6" class="edge"><title>Node9&#45;&gt;Node8</title>
<path fill="none" stroke="#9a32cd" stroke-dasharray="5,2" d="M96.5,-181.037C96.5,-168.67 96.5,-153.12 96.5,-143.627"/>
<polygon fill="#9a32cd" stroke="#9a32cd" points="93.0001,-181.234 96.5,-191.234 100,-181.234 93.0001,-181.234"/>
<text text-anchor="middle" x="113" y="-165" font-family="Helvetica,sans-Serif" font-size="10.00"> mData</text>
</g>
</g>
</svg>
