<?xml version="1.0" encoding="UTF-8" standalone="no"?>
<!DOCTYPE svg PUBLIC "-//W3C//DTD SVG 1.1//EN"
 "http://www.w3.org/Graphics/SVG/1.1/DTD/svg11.dtd">
<!-- Generated by graphviz version 2.38.0 (20140413.2041)
 -->
<!-- Title: efd::QbitAllocator Pages: 1 -->
<svg width="257pt" height="229pt"
 viewBox="0.00 0.00 257.00 229.00" xmlns="http://www.w3.org/2000/svg" xmlns:xlink="http://www.w3.org/1999/xlink">
<g id="graph0" class="graph" transform="scale(1 1) rotate(0) translate(4 225)">
<title>efd::QbitAllocator</title>
<!-- Node10 -->
<g id="node1" class="node"><title>Node10</title>
<polygon fill="#bfbfbf" stroke="black" points="136.5,-0.5 136.5,-19.5 228.5,-19.5 228.5,-0.5 136.5,-0.5"/>
<text text-anchor="middle" x="182.5" y="-7.5" font-family="Helvetica,sans-Serif" font-size="10.00">efd::QbitAllocator</text>
</g>
<!-- Node11 -->
<g id="node2" class="node"><title>Node11</title>
<g id="a_node2"><a xlink:href="../../db/d56/classefd_1_1PassT.xhtml" target="_top" xlink:title="efd::PassT\&lt; Solution \&gt;">
<polygon fill="none" stroke="black" points="37.5,-67.5 37.5,-86.5 155.5,-86.5 155.5,-67.5 37.5,-67.5"/>
<text text-anchor="middle" x="96.5" y="-74.5" font-family="Helvetica,sans-Serif" font-size="10.00">efd::PassT&lt; Solution &gt;</text>
</a>
</g>
</g>
<!-- Node11&#45;&gt;Node10 -->
<g id="edge1" class="edge"><title>Node11&#45;&gt;Node10</title>
<path fill="none" stroke="midnightblue" d="M116.256,-61.0678C133.232,-48.2376 157.116,-30.1853 171.085,-19.6273"/>
<polygon fill="midnightblue" stroke="midnightblue" points="113.966,-58.4119 108.098,-67.2338 118.186,-63.9963 113.966,-58.4119"/>
</g>
<!-- Node12 -->
<g id="node3" class="node"><title>Node12</title>
<g id="a_node3"><a xlink:href="../../d0/d98/classefd_1_1Pass.xhtml" target="_top" xlink:title="Base class for implementation of QModule passes. This information will be used when the QModule&#39;s fun...">
<polygon fill="none" stroke="black" points="0,-201.5 0,-220.5 59,-220.5 59,-201.5 0,-201.5"/>
<text text-anchor="middle" x="29.5" y="-208.5" font-family="Helvetica,sans-Serif" font-size="10.00">efd::Pass</text>
</a>
</g>
</g>
<!-- Node12&#45;&gt;Node11 -->
<g id="edge2" class="edge"><title>Node12&#45;&gt;Node11</title>
<path fill="none" stroke="midnightblue" d="M29.6846,-190.811C30.5439,-174.83 33.4564,-151.878 42.5,-134 52.4981,-114.235 71.8477,-96.8115 84.4641,-86.841"/>
<polygon fill="midnightblue" stroke="midnightblue" points="26.179,-190.939 29.3635,-201.044 33.1756,-191.159 26.179,-190.939"/>
</g>
<!-- Node14 -->
<g id="node5" class="node"><title>Node14</title>
<g id="a_node5"><a xlink:href="../../db/d56/classefd_1_1PassT.xhtml" target="_top" xlink:title="Should serve as base class for classes that produces some data of type T. ">
<polygon fill="none" stroke="black" points="52,-134.5 52,-153.5 141,-153.5 141,-134.5 52,-134.5"/>
<text text-anchor="middle" x="96.5" y="-141.5" font-family="Helvetica,sans-Serif" font-size="10.00">efd::PassT&lt; T &gt;</text>
</a>
</g>
</g>
<!-- Node12&#45;&gt;Node14 -->
<g id="edge5" class="edge"><title>Node12&#45;&gt;Node14</title>
<path fill="none" stroke="midnightblue" d="M45.9956,-193.997C59.135,-181.25 77.0239,-163.895 87.6072,-153.627"/>
<polygon fill="midnightblue" stroke="midnightblue" points="43.2762,-191.759 38.5359,-201.234 48.1504,-196.783 43.2762,-191.759"/>
</g>
<!-- Node13 -->
<g id="node4" class="node"><title>Node13</title>
<g id="a_node4"><a xlink:href="../../d3/d2a/structefd_1_1Solution.xhtml" target="_top" xlink:title="The solution for the allocation problem. ">
<polygon fill="none" stroke="black" points="159,-134.5 159,-153.5 230,-153.5 230,-134.5 159,-134.5"/>
<text text-anchor="middle" x="194.5" y="-141.5" font-family="Helvetica,sans-Serif" font-size="10.00">efd::Solution</text>
</a>
</g>
</g>
<!-- Node13&#45;&gt;Node11 -->
<g id="edge3" class="edge"><title>Node13&#45;&gt;Node11</title>
<path fill="none" stroke="#9a32cd" stroke-dasharray="5,2" d="M180.856,-126.344C174.334,-119.122 166.085,-110.971 157.5,-105 146.471,-97.3291 132.912,-91.0662 121.381,-86.5104"/>
<polygon fill="#9a32cd" stroke="#9a32cd" points="178.456,-128.92 187.636,-134.209 183.758,-124.35 178.456,-128.92"/>
<text text-anchor="middle" x="187" y="-108" font-family="Helvetica,sans-Serif" font-size="10.00"> mData</text>
</g>
<!-- Node14&#45;&gt;Node11 -->
<g id="edge4" class="edge"><title>Node14&#45;&gt;Node11</title>
<path fill="none" stroke="orange" stroke-dasharray="5,2" d="M96.5,-124.037C96.5,-111.67 96.5,-96.1198 96.5,-86.6273"/>
<polygon fill="orange" stroke="orange" points="93.0001,-124.234 96.5,-134.234 100,-124.234 93.0001,-124.234"/>
<text text-anchor="middle" x="125" y="-108" font-family="Helvetica,sans-Serif" font-size="10.00"> &lt; Solution &gt;</text>
</g>
<!-- Node15 -->
<g id="node6" class="node"><title>Node15</title>
<polygon fill="none" stroke="#bfbfbf" points="82,-201.5 82,-220.5 111,-220.5 111,-201.5 82,-201.5"/>
<text text-anchor="middle" x="96.5" y="-208.5" font-family="Helvetica,sans-Serif" font-size="10.00">T</text>
</g>
<!-- Node15&#45;&gt;Node14 -->
<g id="edge6" class="edge"><title>Node15&#45;&gt;Node14</title>
<path fill="none" stroke="#9a32cd" stroke-dasharray="5,2" d="M96.5,-191.037C96.5,-178.67 96.5,-163.12 96.5,-153.627"/>
<polygon fill="#9a32cd" stroke="#9a32cd" points="93.0001,-191.234 96.5,-201.234 100,-191.234 93.0001,-191.234"/>
<text text-anchor="middle" x="113" y="-175" font-family="Helvetica,sans-Serif" font-size="10.00"> mData</text>
</g>
<!-- Node16 -->
<g id="node7" class="node"><title>Node16</title>
<g id="a_node7"><a xlink:href="../../dd/d52/classefd_1_1QModule.xhtml" target="_top" xlink:title="Qasm module representation. ">
<polygon fill="none" stroke="black" points="174,-67.5 174,-86.5 249,-86.5 249,-67.5 174,-67.5"/>
<text text-anchor="middle" x="211.5" y="-74.5" font-family="Helvetica,sans-Serif" font-size="10.00">efd::QModule</text>
</a>
</g>
</g>
<!-- Node16&#45;&gt;Node10 -->
<g id="edge7" class="edge"><title>Node16&#45;&gt;Node10</title>
<path fill="none" stroke="#9a32cd" stroke-dasharray="5,2" d="M203.376,-57.79C197.806,-45.3076 190.671,-29.3135 186.349,-19.6273"/>
<polygon fill="#9a32cd" stroke="#9a32cd" points="200.318,-59.5276 207.589,-67.2338 206.711,-56.6754 200.318,-59.5276"/>
<text text-anchor="middle" x="215" y="-41" font-family="Helvetica,sans-Serif" font-size="10.00"> mMod</text>
</g>
</g>
</svg>
