<?xml version="1.0" encoding="UTF-8" standalone="no"?>
<!DOCTYPE svg PUBLIC "-//W3C//DTD SVG 1.1//EN"
 "http://www.w3.org/Graphics/SVG/1.1/DTD/svg11.dtd">
<!-- Generated by graphviz version 2.40.1 (20161225.0304)
 -->
<!-- Title: efd::IntrinsicGateCostPass Pages: 1 -->
<svg width="188pt" height="209pt"
 viewBox="0.00 0.00 188.00 209.00" xmlns="http://www.w3.org/2000/svg" xmlns:xlink="http://www.w3.org/1999/xlink">
<g id="graph0" class="graph" transform="scale(1 1) rotate(0) translate(4 205)">
<title>efd::IntrinsicGateCostPass</title>
<!-- Node0 -->
<g id="node1" class="node">
<title>Node0</title>
<polygon fill="#bfbfbf" stroke="#000000" points="0,-.5 0,-19.5 145,-19.5 145,-.5 0,-.5"/>
<text text-anchor="middle" x="72.5" y="-7.5" font-family="Helvetica,sans-Serif" font-size="10.00" fill="#000000">efd::IntrinsicGateCostPass</text>
</g>
<!-- Node1 -->
<g id="node2" class="node">
<title>Node1</title>
<g id="a_node2"><a xlink:href="../../db/d56/classefd_1_1PassT.xhtml" target="_top" xlink:title="efd::PassT\&lt; uint32_t \&gt;">
<polygon fill="none" stroke="#000000" points="8,-57.5 8,-76.5 137,-76.5 137,-57.5 8,-57.5"/>
<text text-anchor="middle" x="72.5" y="-64.5" font-family="Helvetica,sans-Serif" font-size="10.00" fill="#000000">efd::PassT&lt; uint32_t &gt;</text>
</a>
</g>
</g>
<!-- Node1&#45;&gt;Node0 -->
<g id="edge1" class="edge">
<title>Node1&#45;&gt;Node0</title>
<path fill="none" stroke="#191970" d="M72.5,-47.2342C72.5,-37.8491 72.5,-27.0651 72.5,-19.5265"/>
<polygon fill="#191970" stroke="#191970" points="69.0001,-47.3307 72.5,-57.3307 76.0001,-47.3308 69.0001,-47.3307"/>
</g>
<!-- Node2 -->
<g id="node3" class="node">
<title>Node2</title>
<g id="a_node3"><a xlink:href="../../d0/d98/classefd_1_1Pass.xhtml" target="_top" xlink:title="Base class for implementation of QModule passes. This information will be used when the QModule&#39;s fun...">
<polygon fill="none" stroke="#000000" points="38,-181.5 38,-200.5 99,-200.5 99,-181.5 38,-181.5"/>
<text text-anchor="middle" x="68.5" y="-188.5" font-family="Helvetica,sans-Serif" font-size="10.00" fill="#000000">efd::Pass</text>
</a>
</g>
</g>
<!-- Node2&#45;&gt;Node1 -->
<g id="edge2" class="edge">
<title>Node2&#45;&gt;Node1</title>
<path fill="none" stroke="#191970" d="M69.1429,-171.0697C70.0138,-144.0713 71.5346,-96.9273 72.1876,-76.6849"/>
<polygon fill="#191970" stroke="#191970" points="65.6382,-171.1622 68.8139,-181.2699 72.6346,-171.388 65.6382,-171.1622"/>
</g>
<!-- Node3 -->
<g id="node4" class="node">
<title>Node3</title>
<g id="a_node4"><a xlink:href="../../db/d56/classefd_1_1PassT.xhtml" target="_top" xlink:title="Should serve as base class for classes that produces some data of type T. ">
<polygon fill="none" stroke="#000000" points="85,-124.5 85,-143.5 180,-143.5 180,-124.5 85,-124.5"/>
<text text-anchor="middle" x="132.5" y="-131.5" font-family="Helvetica,sans-Serif" font-size="10.00" fill="#000000">efd::PassT&lt; T &gt;</text>
</a>
</g>
</g>
<!-- Node2&#45;&gt;Node3 -->
<g id="edge4" class="edge">
<title>Node2&#45;&gt;Node3</title>
<path fill="none" stroke="#191970" d="M86.9896,-174.5327C98.2833,-164.4742 112.3271,-151.9664 121.8036,-143.5265"/>
<polygon fill="#191970" stroke="#191970" points="84.4966,-172.0661 79.3567,-181.3307 89.1522,-177.2935 84.4966,-172.0661"/>
</g>
<!-- Node3&#45;&gt;Node1 -->
<g id="edge3" class="edge">
<title>Node3&#45;&gt;Node1</title>
<path fill="none" stroke="#ffa500" stroke-dasharray="5,2" d="M117.0206,-116.7147C105.5815,-103.941 90.4305,-87.0224 81.0806,-76.5817"/>
<polygon fill="#ffa500" stroke="#ffa500" points="114.6249,-119.2859 123.9035,-124.4005 119.8396,-114.6161 114.6249,-119.2859"/>
<text text-anchor="middle" x="138.5" y="-98" font-family="Helvetica,sans-Serif" font-size="10.00" fill="#000000"> &lt; uint32_t &gt;</text>
</g>
</g>
</svg>
