<?xml version="1.0" encoding="UTF-8" standalone="no"?>
<!DOCTYPE svg PUBLIC "-//W3C//DTD SVG 1.1//EN"
 "http://www.w3.org/Graphics/SVG/1.1/DTD/svg11.dtd">
<!-- Generated by graphviz version 2.38.0 (20140413.2041)
 -->
<!-- Title: include/enfield/Arch/Architectures.h Pages: 1 -->
<svg width="478pt" height="162pt"
 viewBox="0.00 0.00 477.50 162.00" xmlns="http://www.w3.org/2000/svg" xmlns:xlink="http://www.w3.org/1999/xlink">
<g id="graph0" class="graph" transform="scale(1 1) rotate(0) translate(4 158)">
<title>include/enfield/Arch/Architectures.h</title>
<!-- Node25 -->
<g id="node1" class="node"><title>Node25</title>
<polygon fill="#bfbfbf" stroke="black" points="197.5,-123.5 197.5,-153.5 299.5,-153.5 299.5,-123.5 197.5,-123.5"/>
<text text-anchor="start" x="205.5" y="-141.5" font-family="Helvetica,sans-Serif" font-size="10.00">include/enfield/Arch</text>
<text text-anchor="middle" x="248.5" y="-130.5" font-family="Helvetica,sans-Serif" font-size="10.00">/Architectures.h</text>
</g>
<!-- Node26 -->
<g id="node2" class="node"><title>Node26</title>
<g id="a_node2"><a xlink:href="../../d5/d6e/Architectures_8cpp.xhtml" target="_top" xlink:title="lib/Arch/Architectures.cpp">
<polygon fill="none" stroke="black" points="0,-62 0,-81 129,-81 129,-62 0,-62"/>
<text text-anchor="middle" x="64.5" y="-69" font-family="Helvetica,sans-Serif" font-size="10.00">lib/Arch/Architectures.cpp</text>
</a>
</g>
</g>
<!-- Node25&#45;&gt;Node26 -->
<g id="edge1" class="edge"><title>Node25&#45;&gt;Node26</title>
<path fill="none" stroke="midnightblue" d="M198.808,-119.946C163.071,-107.321 116.445,-90.8502 88.5814,-81.007"/>
<polygon fill="midnightblue" stroke="midnightblue" points="197.98,-123.365 208.575,-123.396 200.312,-116.765 197.98,-123.365"/>
</g>
<!-- Node27 -->
<g id="node3" class="node"><title>Node27</title>
<g id="a_node3"><a xlink:href="../../d6/d91/Transform_2Driver_8h.xhtml" target="_top" xlink:title="include/enfield/Transform\l/Driver.h">
<polygon fill="none" stroke="black" points="185.5,-56.5 185.5,-86.5 311.5,-86.5 311.5,-56.5 185.5,-56.5"/>
<text text-anchor="start" x="193.5" y="-74.5" font-family="Helvetica,sans-Serif" font-size="10.00">include/enfield/Transform</text>
<text text-anchor="middle" x="248.5" y="-63.5" font-family="Helvetica,sans-Serif" font-size="10.00">/Driver.h</text>
</a>
</g>
</g>
<!-- Node25&#45;&gt;Node27 -->
<g id="edge2" class="edge"><title>Node25&#45;&gt;Node27</title>
<path fill="none" stroke="midnightblue" d="M248.5,-113.108C248.5,-104.154 248.5,-94.3227 248.5,-86.5765"/>
<polygon fill="midnightblue" stroke="midnightblue" points="245,-113.396 248.5,-123.396 252,-113.396 245,-113.396"/>
</g>
<!-- Node28 -->
<g id="node4" class="node"><title>Node28</title>
<g id="a_node4"><a xlink:href="../../df/dd9/Driver_8cpp.xhtml" target="_top" xlink:title="lib/Transform/Driver.cpp">
<polygon fill="none" stroke="black" points="110.5,-0.5 110.5,-19.5 232.5,-19.5 232.5,-0.5 110.5,-0.5"/>
<text text-anchor="middle" x="171.5" y="-7.5" font-family="Helvetica,sans-Serif" font-size="10.00">lib/Transform/Driver.cpp</text>
</a>
</g>
</g>
<!-- Node25&#45;&gt;Node28 -->
<g id="edge5" class="edge"><title>Node25&#45;&gt;Node28</title>
<path fill="none" stroke="midnightblue" d="M207.915,-118.087C195.748,-110.191 183.728,-99.8497 176.5,-87 164.312,-65.3337 167.329,-34.5025 169.791,-19.6521"/>
<polygon fill="midnightblue" stroke="midnightblue" points="206.364,-121.239 216.735,-123.406 209.979,-115.245 206.364,-121.239"/>
</g>
<!-- Node29 -->
<g id="node5" class="node"><title>Node29</title>
<g id="a_node5"><a xlink:href="../../de/d8e/Enfield_8cpp.xhtml" target="_top" xlink:title="tools/Enfield.cpp">
<polygon fill="none" stroke="black" points="280,-0.5 280,-19.5 369,-19.5 369,-0.5 280,-0.5"/>
<text text-anchor="middle" x="324.5" y="-7.5" font-family="Helvetica,sans-Serif" font-size="10.00">tools/Enfield.cpp</text>
</a>
</g>
</g>
<!-- Node25&#45;&gt;Node29 -->
<g id="edge6" class="edge"><title>Node25&#45;&gt;Node29</title>
<path fill="none" stroke="midnightblue" d="M289.183,-118.142C301.357,-110.249 313.356,-99.8968 320.5,-87 332.536,-65.2711 329.052,-34.4692 326.351,-19.6388"/>
<polygon fill="midnightblue" stroke="midnightblue" points="287.117,-115.3 280.354,-123.456 290.727,-121.298 287.117,-115.3"/>
</g>
<!-- Node30 -->
<g id="node6" class="node"><title>Node30</title>
<g id="a_node6"><a xlink:href="../../d0/dfd/Generator_8cpp.xhtml" target="_top" xlink:title="tools/Generator.cpp">
<polygon fill="none" stroke="black" points="367.5,-62 367.5,-81 469.5,-81 469.5,-62 367.5,-62"/>
<text text-anchor="middle" x="418.5" y="-69" font-family="Helvetica,sans-Serif" font-size="10.00">tools/Generator.cpp</text>
</a>
</g>
</g>
<!-- Node25&#45;&gt;Node30 -->
<g id="edge7" class="edge"><title>Node25&#45;&gt;Node30</title>
<path fill="none" stroke="midnightblue" d="M294.835,-119.784C327.797,-107.181 370.617,-90.8082 396.251,-81.007"/>
<polygon fill="midnightblue" stroke="midnightblue" points="293.478,-116.555 285.387,-123.396 295.978,-123.094 293.478,-116.555"/>
</g>
<!-- Node27&#45;&gt;Node28 -->
<g id="edge3" class="edge"><title>Node27&#45;&gt;Node28</title>
<path fill="none" stroke="midnightblue" d="M222.215,-50.1886C208.734,-39.7719 193.025,-27.6329 182.704,-19.6578"/>
<polygon fill="midnightblue" stroke="midnightblue" points="220.199,-53.0543 230.252,-56.3993 224.479,-47.5153 220.199,-53.0543"/>
</g>
<!-- Node27&#45;&gt;Node29 -->
<g id="edge4" class="edge"><title>Node27&#45;&gt;Node29</title>
<path fill="none" stroke="midnightblue" d="M274.444,-50.1886C287.749,-39.7719 303.255,-27.6329 313.441,-19.6578"/>
<polygon fill="midnightblue" stroke="midnightblue" points="272.227,-47.4789 266.511,-56.3993 276.542,-52.9907 272.227,-47.4789"/>
</g>
</g>
</svg>
