<?xml version="1.0" encoding="UTF-8" standalone="no"?>
<!DOCTYPE svg PUBLIC "-//W3C//DTD SVG 1.1//EN"
 "http://www.w3.org/Graphics/SVG/1.1/DTD/svg11.dtd">
<!-- Generated by graphviz version 2.40.1 (20161225.0304)
 -->
<!-- Title: include/enfield/Arch/Architectures.h Pages: 1 -->
<svg width="517pt" height="162pt"
 viewBox="0.00 0.00 517.00 162.00" xmlns="http://www.w3.org/2000/svg" xmlns:xlink="http://www.w3.org/1999/xlink">
<g id="graph0" class="graph" transform="scale(1 1) rotate(0) translate(4 158)">
<title>include/enfield/Arch/Architectures.h</title>
<!-- Node24 -->
<g id="node1" class="node">
<title>Node24</title>
<polygon fill="#bfbfbf" stroke="#000000" points="212,-123.5 212,-153.5 325,-153.5 325,-123.5 212,-123.5"/>
<text text-anchor="start" x="220" y="-141.5" font-family="Helvetica,sans-Serif" font-size="10.00" fill="#000000">include/enfield/Arch</text>
<text text-anchor="middle" x="268.5" y="-130.5" font-family="Helvetica,sans-Serif" font-size="10.00" fill="#000000">/Architectures.h</text>
</g>
<!-- Node25 -->
<g id="node2" class="node">
<title>Node25</title>
<g id="a_node2"><a xlink:href="../../d5/d6e/Architectures_8cpp.xhtml" target="_top" xlink:title="lib/Arch/Architectures.cpp">
<polygon fill="none" stroke="#000000" points="0,-62 0,-81 141,-81 141,-62 0,-62"/>
<text text-anchor="middle" x="70.5" y="-69" font-family="Helvetica,sans-Serif" font-size="10.00" fill="#000000">lib/Arch/Architectures.cpp</text>
</a>
</g>
</g>
<!-- Node24&#45;&gt;Node25 -->
<g id="edge1" class="edge">
<title>Node24&#45;&gt;Node25</title>
<path fill="none" stroke="#191970" d="M214.3079,-120.1623C176.8667,-107.4928 128.5887,-91.1563 98.5902,-81.0053"/>
<polygon fill="#191970" stroke="#191970" points="213.4707,-123.5739 224.0649,-123.4639 215.7144,-116.9432 213.4707,-123.5739"/>
</g>
<!-- Node26 -->
<g id="node3" class="node">
<title>Node26</title>
<g id="a_node3"><a xlink:href="../../d6/d91/Transform_2Driver_8h.xhtml" target="_top" xlink:title="include/enfield/Transform\l/Driver.h">
<polygon fill="none" stroke="#000000" points="197.5,-56.5 197.5,-86.5 339.5,-86.5 339.5,-56.5 197.5,-56.5"/>
<text text-anchor="start" x="205.5" y="-74.5" font-family="Helvetica,sans-Serif" font-size="10.00" fill="#000000">include/enfield/Transform</text>
<text text-anchor="middle" x="268.5" y="-63.5" font-family="Helvetica,sans-Serif" font-size="10.00" fill="#000000">/Driver.h</text>
</a>
</g>
</g>
<!-- Node24&#45;&gt;Node26 -->
<g id="edge2" class="edge">
<title>Node24&#45;&gt;Node26</title>
<path fill="none" stroke="#191970" d="M268.5,-113.0249C268.5,-104.128 268.5,-94.4287 268.5,-86.6432"/>
<polygon fill="#191970" stroke="#191970" points="265.0001,-113.2966 268.5,-123.2967 272.0001,-113.2967 265.0001,-113.2966"/>
</g>
<!-- Node27 -->
<g id="node4" class="node">
<title>Node27</title>
<g id="a_node4"><a xlink:href="../../df/dd9/Driver_8cpp.xhtml" target="_top" xlink:title="lib/Transform/Driver.cpp">
<polygon fill="none" stroke="#000000" points="133,-.5 133,-19.5 268,-19.5 268,-.5 133,-.5"/>
<text text-anchor="middle" x="200.5" y="-7.5" font-family="Helvetica,sans-Serif" font-size="10.00" fill="#000000">lib/Transform/Driver.cpp</text>
</a>
</g>
</g>
<!-- Node24&#45;&gt;Node27 -->
<g id="edge5" class="edge">
<title>Node24&#45;&gt;Node27</title>
<path fill="none" stroke="#191970" d="M220.6107,-118.3409C207.8882,-110.5172 195.6987,-100.1954 188.5,-87 176.5779,-65.1464 187.9931,-34.929 195.3571,-19.6604"/>
<polygon fill="#191970" stroke="#191970" points="219.0254,-121.4657 229.449,-123.3629 222.4836,-115.3795 219.0254,-121.4657"/>
</g>
<!-- Node28 -->
<g id="node5" class="node">
<title>Node28</title>
<g id="a_node5"><a xlink:href="../../de/d8e/Enfield_8cpp.xhtml" target="_top" xlink:title="tools/Enfield.cpp">
<polygon fill="none" stroke="#000000" points="302.5,-.5 302.5,-19.5 400.5,-19.5 400.5,-.5 302.5,-.5"/>
<text text-anchor="middle" x="351.5" y="-7.5" font-family="Helvetica,sans-Serif" font-size="10.00" fill="#000000">tools/Enfield.cpp</text>
</a>
</g>
</g>
<!-- Node24&#45;&gt;Node28 -->
<g id="edge6" class="edge">
<title>Node24&#45;&gt;Node28</title>
<path fill="none" stroke="#191970" d="M315.7302,-118.3723C328.563,-110.5167 340.9792,-100.1693 348.5,-87 360.7073,-65.6242 356.9164,-35.1978 353.8184,-19.7738"/>
<polygon fill="#191970" stroke="#191970" points="313.8067,-115.4394 306.8344,-123.4167 317.2596,-121.5285 313.8067,-115.4394"/>
</g>
<!-- Node29 -->
<g id="node6" class="node">
<title>Node29</title>
<g id="a_node6"><a xlink:href="../../d0/dfd/Generator_8cpp.xhtml" target="_top" xlink:title="tools/Generator.cpp">
<polygon fill="none" stroke="#000000" points="396,-62 396,-81 509,-81 509,-62 396,-62"/>
<text text-anchor="middle" x="452.5" y="-69" font-family="Helvetica,sans-Serif" font-size="10.00" fill="#000000">tools/Generator.cpp</text>
</a>
</g>
</g>
<!-- Node24&#45;&gt;Node29 -->
<g id="edge7" class="edge">
<title>Node24&#45;&gt;Node29</title>
<path fill="none" stroke="#191970" d="M319.3051,-120.0003C354.0357,-107.3538 398.6372,-91.1131 426.3959,-81.0053"/>
<polygon fill="#191970" stroke="#191970" points="317.9921,-116.7535 309.7932,-123.4639 320.3872,-123.3311 317.9921,-116.7535"/>
</g>
<!-- Node26&#45;&gt;Node27 -->
<g id="edge3" class="edge">
<title>Node26&#45;&gt;Node27</title>
<path fill="none" stroke="#191970" d="M244.2294,-49.5494C232.9971,-39.3907 220.2177,-27.8329 211.3877,-19.8469"/>
<polygon fill="#191970" stroke="#191970" points="241.9266,-52.1858 251.691,-56.2977 246.622,-46.9942 241.9266,-52.1858"/>
</g>
<!-- Node26&#45;&gt;Node28 -->
<g id="edge4" class="edge">
<title>Node26&#45;&gt;Node28</title>
<path fill="none" stroke="#191970" d="M297.3355,-50.1339C311.2327,-39.8366 327.2255,-27.9865 338.2106,-19.8469"/>
<polygon fill="#191970" stroke="#191970" points="294.9679,-47.5321 289.0169,-56.2977 299.1353,-53.1564 294.9679,-47.5321"/>
</g>
</g>
</svg>
