<?xml version="1.0" encoding="UTF-8" standalone="no"?>
<!DOCTYPE svg PUBLIC "-//W3C//DTD SVG 1.1//EN"
 "http://www.w3.org/Graphics/SVG/1.1/DTD/svg11.dtd">
<!-- Generated by graphviz version 2.40.1 (20161225.0304)
 -->
<!-- Title: include/enfield/Support/WeightedSIFinder.h Pages: 1 -->
<!--zoomable 218 -->
<svg id="main" version="1.1" xmlns="http://www.w3.org/2000/svg" xmlns:xlink="http://www.w3.org/1999/xlink" xml:space="preserve" onload="init(evt)">
<style type="text/css"><![CDATA[
.edge:hover path { stroke: red; }
.edge:hover polygon { stroke: red; fill: red; }
]]></style>
<script type="text/javascript"><![CDATA[
var edges = document.getElementsByTagName('g');
if (edges && edges.length) {
  for (var i=0;i<edges.length;i++) {
    if (edges[i].id.substr(0,4)=='edge') {
      edges[i].setAttribute('class','edge');
    }
  }
}
]]></script>
        <defs>
                <circle id="rim" cx="0" cy="0" r="7"/>
                <circle id="rim2" cx="0" cy="0" r="3.5"/>
                <g id="zoomPlus">
                        <use xlink:href="#rim" fill="#404040">
                                <set attributeName="fill" to="#808080" begin="zoomplus.mouseover" end="zoomplus.mouseout"/>
                        </use>
                        <path d="M-4,0h8M0,-4v8" fill="none" stroke="white" stroke-width="1.5" pointer-events="none"/>
                </g>
                <g id="zoomMin">
                        <use xlink:href="#rim" fill="#404040">
                                <set attributeName="fill" to="#808080" begin="zoomminus.mouseover" end="zoomminus.mouseout"/>
                        </use>
                        <path d="M-4,0h8" fill="none" stroke="white" stroke-width="1.5" pointer-events="none"/>
                </g>
                <g id="dirArrow">
                        <path fill="none" stroke="white" stroke-width="1.5" d="M0,-3.0v7 M-2.5,-0.5L0,-3.0L2.5,-0.5"/>
                </g>
               <g id="resetDef">
                       <use xlink:href="#rim2" fill="#404040">
                               <set attributeName="fill" to="#808080" begin="reset.mouseover" end="reset.mouseout"/>
                       </use>
               </g>
        </defs>

<script type="text/javascript">
var viewWidth = 941;
var viewHeight = 218;
var sectionId = 'dynsection-0';
</script>
<script xlink:href="../../svgpan.js"/>
<svg id="graph" class="graph">
<g id="viewport">
<title>include/enfield/Support/WeightedSIFinder.h</title>
<!-- Node0 -->
<g id="node1" class="node">
<title>Node0</title>
<polygon fill="#bfbfbf" stroke="#000000" points="625.5,-179.5 625.5,-209.5 754.5,-209.5 754.5,-179.5 625.5,-179.5"/>
<text text-anchor="start" x="633.5" y="-197.5" font-family="Helvetica,sans-Serif" font-size="10.00" fill="#000000">include/enfield/Support</text>
<text text-anchor="middle" x="690" y="-186.5" font-family="Helvetica,sans-Serif" font-size="10.00" fill="#000000">/WeightedSIFinder.h</text>
</g>
<!-- Node1 -->
<g id="node2" class="node">
<title>Node1</title>
<g id="a_node2"><a xlink:href="../../d6/df7/WeightedGraph_8h.xhtml" target="_top" xlink:title="enfield/Support/Weighted\lGraph.h">
<polygon fill="none" stroke="#000000" points="356,-112.5 356,-142.5 496,-142.5 496,-112.5 356,-112.5"/>
<text text-anchor="start" x="364" y="-130.5" font-family="Helvetica,sans-Serif" font-size="10.00" fill="#000000">enfield/Support/Weighted</text>
<text text-anchor="middle" x="426" y="-119.5" font-family="Helvetica,sans-Serif" font-size="10.00" fill="#000000">Graph.h</text>
</a>
</g>
</g>
<!-- Node0&#45;&gt;Node1 -->
<g id="edge1" class="edge">
<title>Node0&#45;&gt;Node1</title>
<path fill="none" stroke="#191970" d="M630.7532,-179.4639C590.6422,-169.2842 537.4971,-155.7966 495.4034,-145.1138"/>
<polygon fill="#191970" stroke="#191970" points="496.0589,-141.6692 485.5052,-142.6017 494.3369,-148.4541 496.0589,-141.6692"/>
</g>
<!-- Node14 -->
<g id="node15" class="node">
<title>Node14</title>
<g id="a_node15"><a xlink:href="../../d7/dd6/SIFinder_8h.xhtml" target="_top" xlink:title="enfield/Support/SIFinder.h">
<polygon fill="none" stroke="#000000" points="180,-118 180,-137 322,-137 322,-118 180,-118"/>
<text text-anchor="middle" x="251" y="-125" font-family="Helvetica,sans-Serif" font-size="10.00" fill="#000000">enfield/Support/SIFinder.h</text>
</a>
</g>
</g>
<!-- Node0&#45;&gt;Node14 -->
<g id="edge15" class="edge">
<title>Node0&#45;&gt;Node14</title>
<path fill="none" stroke="#191970" d="M625.4859,-185.0305C556.5196,-174.8567 443.9823,-158.1096 347,-143 338.0573,-141.6067 328.6501,-140.1173 319.3651,-138.633"/>
<polygon fill="#191970" stroke="#191970" points="319.7937,-135.1571 309.3656,-137.0293 318.6851,-142.0688 319.7937,-135.1571"/>
</g>
<!-- Node15 -->
<g id="node16" class="node">
<title>Node15</title>
<g id="a_node16"><a xlink:href="../../d5/dfc/RTTI_8h.xhtml" target="_top" xlink:title="enfield/Support/RTTI.h">
<polygon fill="none" stroke="#000000" points="514.5,-118 514.5,-137 639.5,-137 639.5,-118 514.5,-118"/>
<text text-anchor="middle" x="577" y="-125" font-family="Helvetica,sans-Serif" font-size="10.00" fill="#000000">enfield/Support/RTTI.h</text>
</a>
</g>
</g>
<!-- Node0&#45;&gt;Node15 -->
<g id="edge20" class="edge">
<title>Node0&#45;&gt;Node15</title>
<path fill="none" stroke="#191970" d="M664.6406,-179.4639C645.9369,-168.3741 620.6119,-153.3584 601.995,-142.32"/>
<polygon fill="#191970" stroke="#191970" points="603.5844,-139.1935 593.1977,-137.1039 600.0143,-145.2147 603.5844,-139.1935"/>
</g>
<!-- Node16 -->
<g id="node17" class="node">
<title>Node16</title>
<polygon fill="none" stroke="#bfbfbf" points="658,-118 658,-137 722,-137 722,-118 658,-118"/>
<text text-anchor="middle" x="690" y="-125" font-family="Helvetica,sans-Serif" font-size="10.00" fill="#000000">algorithm</text>
</g>
<!-- Node0&#45;&gt;Node16 -->
<g id="edge21" class="edge">
<title>Node0&#45;&gt;Node16</title>
<path fill="none" stroke="#191970" d="M690,-179.2967C690,-169.7699 690,-157.3954 690,-147.1306"/>
<polygon fill="#191970" stroke="#191970" points="693.5001,-147.0549 690,-137.055 686.5001,-147.055 693.5001,-147.0549"/>
</g>
<!-- Node17 -->
<g id="node18" class="node">
<title>Node17</title>
<polygon fill="none" stroke="#bfbfbf" points="740.5,-118 740.5,-137 789.5,-137 789.5,-118 740.5,-118"/>
<text text-anchor="middle" x="765" y="-125" font-family="Helvetica,sans-Serif" font-size="10.00" fill="#000000">cstdlib</text>
</g>
<!-- Node0&#45;&gt;Node17 -->
<g id="edge22" class="edge">
<title>Node0&#45;&gt;Node17</title>
<path fill="none" stroke="#191970" d="M707.0187,-179.2967C718.8175,-168.7564 734.5184,-154.7303 746.6057,-143.9323"/>
<polygon fill="#191970" stroke="#191970" points="749.1783,-146.3273 754.3041,-137.055 744.5147,-141.107 749.1783,-146.3273"/>
</g>
<!-- Node18 -->
<g id="node19" class="node">
<title>Node18</title>
<polygon fill="none" stroke="#bfbfbf" points="807.5,-118 807.5,-137 854.5,-137 854.5,-118 807.5,-118"/>
<text text-anchor="middle" x="831" y="-125" font-family="Helvetica,sans-Serif" font-size="10.00" fill="#000000">queue</text>
</g>
<!-- Node0&#45;&gt;Node18 -->
<g id="edge23" class="edge">
<title>Node0&#45;&gt;Node18</title>
<path fill="none" stroke="#191970" d="M721.9942,-179.483C743.7362,-169.2536 773.1343,-155.3745 799,-143 800.0023,-142.5205 801.0219,-142.0317 802.0514,-141.5375"/>
<polygon fill="#191970" stroke="#191970" points="803.8955,-144.534 811.3836,-137.0387 800.8558,-138.2284 803.8955,-144.534"/>
</g>
<!-- Node19 -->
<g id="node20" class="node">
<title>Node19</title>
<polygon fill="none" stroke="#bfbfbf" points="873,-118 873,-137 933,-137 933,-118 873,-118"/>
<text text-anchor="middle" x="903" y="-125" font-family="Helvetica,sans-Serif" font-size="10.00" fill="#000000">iostream</text>
</g>
<!-- Node0&#45;&gt;Node19 -->
<g id="edge24" class="edge">
<title>Node0&#45;&gt;Node19</title>
<path fill="none" stroke="#191970" d="M745.653,-179.4152C780.0079,-169.7613 824.8488,-156.5429 864,-143 866.1259,-142.2646 868.3064,-141.4811 870.4972,-140.6719"/>
<polygon fill="#191970" stroke="#191970" points="871.9407,-143.8672 880.0324,-137.0281 869.4418,-137.3284 871.9407,-143.8672"/>
</g>
<!-- Node2 -->
<g id="node3" class="node">
<title>Node2</title>
<g id="a_node3"><a xlink:href="../../d7/d16/Graph_8h.xhtml" target="_top" xlink:title="enfield/Support/Graph.h">
<polygon fill="none" stroke="#000000" points="91,-56.5 91,-75.5 223,-75.5 223,-56.5 91,-56.5"/>
<text text-anchor="middle" x="157" y="-63.5" font-family="Helvetica,sans-Serif" font-size="10.00" fill="#000000">enfield/Support/Graph.h</text>
</a>
</g>
</g>
<!-- Node1&#45;&gt;Node2 -->
<g id="edge2" class="edge">
<title>Node1&#45;&gt;Node2</title>
<path fill="none" stroke="#191970" d="M360.1952,-112.4554C313.5401,-101.7889 251.8107,-87.6761 208.6821,-77.8158"/>
<polygon fill="#191970" stroke="#191970" points="209.214,-74.3472 198.6855,-75.5303 207.6538,-81.1711 209.214,-74.3472"/>
</g>
<!-- Node7 -->
<g id="node8" class="node">
<title>Node7</title>
<g id="a_node8"><a xlink:href="../../d1/d73/Defs_8h.xhtml" target="_top" xlink:title="enfield/Support/Defs.h">
<polygon fill="none" stroke="#000000" points="279.5,-56.5 279.5,-75.5 404.5,-75.5 404.5,-56.5 279.5,-56.5"/>
<text text-anchor="middle" x="342" y="-63.5" font-family="Helvetica,sans-Serif" font-size="10.00" fill="#000000">enfield/Support/Defs.h</text>
</a>
</g>
</g>
<!-- Node1&#45;&gt;Node7 -->
<g id="edge7" class="edge">
<title>Node1&#45;&gt;Node7</title>
<path fill="none" stroke="#191970" d="M405.2359,-112.2977C392.6042,-103.0495 376.4947,-91.2551 363.6969,-81.8853"/>
<polygon fill="#191970" stroke="#191970" points="365.5857,-78.9303 355.4495,-75.8469 361.4505,-84.5784 365.5857,-78.9303"/>
</g>
<!-- Node11 -->
<g id="node12" class="node">
<title>Node11</title>
<polygon fill="none" stroke="#bfbfbf" points="423,-56.5 423,-75.5 461,-75.5 461,-56.5 423,-56.5"/>
<text text-anchor="middle" x="442" y="-63.5" font-family="Helvetica,sans-Serif" font-size="10.00" fill="#000000">map</text>
</g>
<!-- Node1&#45;&gt;Node11 -->
<g id="edge12" class="edge">
<title>Node1&#45;&gt;Node11</title>
<path fill="none" stroke="#191970" d="M429.9551,-112.2977C432.0372,-104.2945 434.6155,-94.3843 436.8517,-85.7889"/>
<polygon fill="#191970" stroke="#191970" points="440.3076,-86.406 439.4382,-75.8469 433.5331,-84.6435 440.3076,-86.406"/>
</g>
<!-- Node12 -->
<g id="node13" class="node">
<title>Node12</title>
<polygon fill="none" stroke="#bfbfbf" points="479.5,-56.5 479.5,-75.5 534.5,-75.5 534.5,-56.5 479.5,-56.5"/>
<text text-anchor="middle" x="507" y="-63.5" font-family="Helvetica,sans-Serif" font-size="10.00" fill="#000000">fstream</text>
</g>
<!-- Node1&#45;&gt;Node12 -->
<g id="edge13" class="edge">
<title>Node1&#45;&gt;Node12</title>
<path fill="none" stroke="#191970" d="M446.0225,-112.2977C458.086,-103.1384 473.4388,-91.4816 485.7211,-82.1562"/>
<polygon fill="#191970" stroke="#191970" points="488.1829,-84.6816 494.0309,-75.8469 483.9499,-79.1065 488.1829,-84.6816"/>
</g>
<!-- Node13 -->
<g id="node14" class="node">
<title>Node13</title>
<polygon fill="none" stroke="#bfbfbf" points="553,-56.5 553,-75.5 609,-75.5 609,-56.5 553,-56.5"/>
<text text-anchor="middle" x="581" y="-63.5" font-family="Helvetica,sans-Serif" font-size="10.00" fill="#000000">sstream</text>
</g>
<!-- Node1&#45;&gt;Node13 -->
<g id="edge14" class="edge">
<title>Node1&#45;&gt;Node13</title>
<path fill="none" stroke="#191970" d="M463.9173,-112.4554C489.4391,-102.329 522.7896,-89.0964 547.3656,-79.3453"/>
<polygon fill="#191970" stroke="#191970" points="548.9763,-82.4717 556.9805,-75.5303 546.3946,-75.9651 548.9763,-82.4717"/>
</g>
<!-- Node3 -->
<g id="node4" class="node">
<title>Node3</title>
<polygon fill="none" stroke="#bfbfbf" points="188,-.5 188,-19.5 220,-19.5 220,-.5 188,-.5"/>
<text text-anchor="middle" x="204" y="-7.5" font-family="Helvetica,sans-Serif" font-size="10.00" fill="#000000">set</text>
</g>
<!-- Node2&#45;&gt;Node3 -->
<g id="edge3" class="edge">
<title>Node2&#45;&gt;Node3</title>
<path fill="none" stroke="#191970" d="M165.1868,-56.2455C171.8589,-48.2958 181.4479,-36.8706 189.4253,-27.3656"/>
<polygon fill="#191970" stroke="#191970" points="192.1592,-29.5525 195.907,-19.6427 186.7974,-25.0524 192.1592,-29.5525"/>
</g>
<!-- Node4 -->
<g id="node5" class="node">
<title>Node4</title>
<polygon fill="none" stroke="#bfbfbf" points="238.5,-.5 238.5,-19.5 285.5,-19.5 285.5,-.5 238.5,-.5"/>
<text text-anchor="middle" x="262" y="-7.5" font-family="Helvetica,sans-Serif" font-size="10.00" fill="#000000">vector</text>
</g>
<!-- Node2&#45;&gt;Node4 -->
<g id="edge4" class="edge">
<title>Node2&#45;&gt;Node4</title>
<path fill="none" stroke="#191970" d="M175.2896,-56.2455C191.7762,-47.4527 216.2352,-34.4079 234.9765,-24.4125"/>
<polygon fill="#191970" stroke="#191970" points="236.7435,-27.4368 243.92,-19.6427 233.4494,-21.2604 236.7435,-27.4368"/>
</g>
<!-- Node5 -->
<g id="node6" class="node">
<title>Node5</title>
<polygon fill="none" stroke="#bfbfbf" points="76.5,-.5 76.5,-19.5 169.5,-19.5 169.5,-.5 76.5,-.5"/>
<text text-anchor="middle" x="123" y="-7.5" font-family="Helvetica,sans-Serif" font-size="10.00" fill="#000000">unordered_map</text>
</g>
<!-- Node2&#45;&gt;Node5 -->
<g id="edge5" class="edge">
<title>Node2&#45;&gt;Node5</title>
<path fill="none" stroke="#191970" d="M151.0777,-56.2455C146.3973,-48.5367 139.7327,-37.5598 134.0711,-28.2348"/>
<polygon fill="#191970" stroke="#191970" points="137.0361,-26.3741 128.8545,-19.6427 131.0525,-30.007 137.0361,-26.3741"/>
</g>
<!-- Node6 -->
<g id="node7" class="node">
<title>Node6</title>
<polygon fill="none" stroke="#bfbfbf" points="0,-.5 0,-19.5 58,-19.5 58,-.5 0,-.5"/>
<text text-anchor="middle" x="29" y="-7.5" font-family="Helvetica,sans-Serif" font-size="10.00" fill="#000000">memory</text>
</g>
<!-- Node2&#45;&gt;Node6 -->
<g id="edge6" class="edge">
<title>Node2&#45;&gt;Node6</title>
<path fill="none" stroke="#191970" d="M134.996,-56.3733C114.3565,-47.3435 83.2842,-33.7494 60.1111,-23.6111"/>
<polygon fill="#191970" stroke="#191970" points="61.2813,-20.3028 50.7169,-19.5011 58.4755,-26.7159 61.2813,-20.3028"/>
</g>
<!-- Node7&#45;&gt;Node4 -->
<g id="edge8" class="edge">
<title>Node7&#45;&gt;Node4</title>
<path fill="none" stroke="#191970" d="M328.0651,-56.2455C315.9053,-47.7337 298.0536,-35.2375 283.9715,-25.3801"/>
<polygon fill="#191970" stroke="#191970" points="285.9747,-22.51 275.7752,-19.6427 281.9605,-28.2447 285.9747,-22.51"/>
</g>
<!-- Node8 -->
<g id="node9" class="node">
<title>Node8</title>
<polygon fill="none" stroke="#bfbfbf" points="379,-.5 379,-19.5 429,-19.5 429,-.5 379,-.5"/>
<text text-anchor="middle" x="404" y="-7.5" font-family="Helvetica,sans-Serif" font-size="10.00" fill="#000000">cstdint</text>
</g>
<!-- Node7&#45;&gt;Node8 -->
<g id="edge9" class="edge">
<title>Node7&#45;&gt;Node8</title>
<path fill="none" stroke="#191970" d="M352.7996,-56.2455C361.8678,-48.0549 375.0206,-36.1749 385.7245,-26.5069"/>
<polygon fill="#191970" stroke="#191970" points="388.2491,-28.9429 393.3242,-19.6427 383.5571,-23.7482 388.2491,-28.9429"/>
</g>
<!-- Node9 -->
<g id="node10" class="node">
<title>Node9</title>
<polygon fill="none" stroke="#bfbfbf" points="447,-.5 447,-19.5 491,-19.5 491,-.5 447,-.5"/>
<text text-anchor="middle" x="469" y="-7.5" font-family="Helvetica,sans-Serif" font-size="10.00" fill="#000000">limits</text>
</g>
<!-- Node7&#45;&gt;Node9 -->
<g id="edge10" class="edge">
<title>Node7&#45;&gt;Node9</title>
<path fill="none" stroke="#191970" d="M363.8321,-56.3733C384.3103,-47.3435 415.1399,-33.7494 438.1319,-23.6111"/>
<polygon fill="#191970" stroke="#191970" points="439.715,-26.7383 447.4528,-19.5011 436.8907,-20.3333 439.715,-26.7383"/>
</g>
<!-- Node10 -->
<g id="node11" class="node">
<title>Node10</title>
<polygon fill="none" stroke="#bfbfbf" points="303.5,-.5 303.5,-19.5 360.5,-19.5 360.5,-.5 303.5,-.5"/>
<text text-anchor="middle" x="332" y="-7.5" font-family="Helvetica,sans-Serif" font-size="10.00" fill="#000000">ostream</text>
</g>
<!-- Node7&#45;&gt;Node10 -->
<g id="edge11" class="edge">
<title>Node7&#45;&gt;Node10</title>
<path fill="none" stroke="#191970" d="M340.2581,-56.2455C338.9533,-48.9382 337.124,-38.6944 335.5187,-29.7046"/>
<polygon fill="#191970" stroke="#191970" points="338.9254,-28.8717 333.7219,-19.6427 332.0344,-30.1022 338.9254,-28.8717"/>
</g>
<!-- Node14&#45;&gt;Node2 -->
<g id="edge16" class="edge">
<title>Node14&#45;&gt;Node2</title>
<path fill="none" stroke="#191970" d="M236.3125,-117.8906C221.2744,-108.0519 197.6824,-92.6167 180.1333,-81.1351"/>
<polygon fill="#191970" stroke="#191970" points="181.8687,-78.088 171.5844,-75.5419 178.0363,-83.9457 181.8687,-78.088"/>
</g>
<!-- Node14&#45;&gt;Node4 -->
<g id="edge18" class="edge">
<title>Node14&#45;&gt;Node4</title>
<path fill="none" stroke="#191970" d="M251.9002,-117.8845C253.697,-98.6913 257.7605,-55.286 260.1495,-29.7663"/>
<polygon fill="#191970" stroke="#191970" points="263.64,-30.0311 261.0874,-19.7484 256.6704,-29.3786 263.64,-30.0311"/>
</g>
<!-- Node14&#45;&gt;Node6 -->
<g id="edge19" class="edge">
<title>Node14&#45;&gt;Node6</title>
<path fill="none" stroke="#191970" d="M189.6823,-117.993C155.7747,-110.578 114.1325,-97.7481 82,-76 63.8305,-63.7024 48.8276,-43.3011 39.4776,-28.4307"/>
<polygon fill="#191970" stroke="#191970" points="42.3221,-26.369 34.1731,-19.5982 36.3212,-29.973 42.3221,-26.369"/>
</g>
<!-- Node14&#45;&gt;Node7 -->
<g id="edge17" class="edge">
<title>Node14&#45;&gt;Node7</title>
<path fill="none" stroke="#191970" d="M265.2188,-117.8906C279.6434,-108.1421 302.1976,-92.8994 319.136,-81.4521"/>
<polygon fill="#191970" stroke="#191970" points="321.5556,-84.0412 327.8811,-75.5419 317.6359,-78.2415 321.5556,-84.0412"/>
</g>
</g>
</svg>
        <g id="navigator" transform="translate(0 0)" fill="#404254">
                <rect fill="#f2f5e9" fill-opacity="0.5" stroke="#606060" stroke-width=".5" x="0" y="0" width="60" height="60"/>
                <use id="zoomplus" xlink:href="#zoomPlus" x="17" y="9" onmousedown="handleZoom(evt,'in')"/>
                <use id="zoomminus" xlink:href="#zoomMin" x="42" y="9" onmousedown="handleZoom(evt,'out')"/>
                <use id="reset" xlink:href="#resetDef" x="30" y="36" onmousedown="handleReset()"/>
                <g id="arrowUp" xlink:href="#dirArrow" transform="translate(30 24)" onmousedown="handlePan(0,-1)">
                  <use xlink:href="#rim" fill="#404040">
                        <set attributeName="fill" to="#808080" begin="arrowUp.mouseover" end="arrowUp.mouseout"/>
                  </use>
                  <path fill="none" stroke="white" stroke-width="1.5" d="M0,-3.0v7 M-2.5,-0.5L0,-3.0L2.5,-0.5"/>
                </g>
                <g id="arrowRight" xlink:href="#dirArrow" transform="rotate(90) translate(36 -43)" onmousedown="handlePan(1,0)">
                  <use xlink:href="#rim" fill="#404040">
                        <set attributeName="fill" to="#808080" begin="arrowRight.mouseover" end="arrowRight.mouseout"/>
                  </use>
                  <path fill="none" stroke="white" stroke-width="1.5" d="M0,-3.0v7 M-2.5,-0.5L0,-3.0L2.5,-0.5"/>
                </g>
                <g id="arrowDown" xlink:href="#dirArrow" transform="rotate(180) translate(-30 -48)" onmousedown="handlePan(0,1)">
                  <use xlink:href="#rim" fill="#404040">
                        <set attributeName="fill" to="#808080" begin="arrowDown.mouseover" end="arrowDown.mouseout"/>
                  </use>
                  <path fill="none" stroke="white" stroke-width="1.5" d="M0,-3.0v7 M-2.5,-0.5L0,-3.0L2.5,-0.5"/>
                </g>
                <g id="arrowLeft" xlink:href="#dirArrow" transform="rotate(270) translate(-36 17)" onmousedown="handlePan(-1,0)">
                  <use xlink:href="#rim" fill="#404040">
                        <set attributeName="fill" to="#808080" begin="arrowLeft.mouseover" end="arrowLeft.mouseout"/>
                  </use>
                  <path fill="none" stroke="white" stroke-width="1.5" d="M0,-3.0v7 M-2.5,-0.5L0,-3.0L2.5,-0.5"/>
                </g>
        </g>
        <svg viewBox="0 0 15 15" width="100%" height="30px" preserveAspectRatio="xMaxYMin meet">
         <g id="arrow_out" transform="scale(0.3 0.3)">
          <a xlink:href="WeightedSIFinder_8h__incl_org.svg" target="_base">
           <rect id="button" ry="5" rx="5" y="6" x="6" height="38" width="38"
                fill="#f2f5e9" fill-opacity="0.5" stroke="#606060" stroke-width="1.0"/>
           <path id="arrow"
             d="M 11.500037,31.436501 C 11.940474,20.09759 22.043105,11.32322 32.158766,21.979434 L 37.068811,17.246167 C 37.068811,17.246167 37.088388,32 37.088388,32 L 22.160133,31.978069 C 22.160133,31.978069 26.997745,27.140456 26.997745,27.140456 C 18.528582,18.264221 13.291696,25.230495 11.500037,31.436501 z"
             style="fill:#404040;"/>
          </a>
         </g>
        </svg>
</svg>
