<?xml version="1.0" encoding="UTF-8" standalone="no"?>
<!DOCTYPE svg PUBLIC "-//W3C//DTD SVG 1.1//EN"
 "http://www.w3.org/Graphics/SVG/1.1/DTD/svg11.dtd">
<!-- Generated by graphviz version 2.38.0 (20140413.2041)
 -->
<!-- Title: include/enfield/Support/WeightedSIFinder.h Pages: 1 -->
<svg width="1000pt" height="218pt"
 viewBox="0.00 0.00 1000.00 218.00" xmlns="http://www.w3.org/2000/svg" xmlns:xlink="http://www.w3.org/1999/xlink">
<g id="graph0" class="graph" transform="scale(1 1) rotate(0) translate(4 214)">
<title>include/enfield/Support/WeightedSIFinder.h</title>
<!-- Node0 -->
<g id="node1" class="node"><title>Node0</title>
<polygon fill="#bfbfbf" stroke="black" points="657,-179.5 657,-209.5 773,-209.5 773,-179.5 657,-179.5"/>
<text text-anchor="start" x="665" y="-197.5" font-family="Helvetica,sans-Serif" font-size="10.00">include/enfield/Support</text>
<text text-anchor="middle" x="715" y="-186.5" font-family="Helvetica,sans-Serif" font-size="10.00">/WeightedSIFinder.h</text>
</g>
<!-- Node1 -->
<g id="node2" class="node"><title>Node1</title>
<g id="a_node2"><a xlink:href="../../d6/df7/WeightedGraph_8h.xhtml" target="_top" xlink:title="enfield/Support/Weighted\lGraph.h">
<polygon fill="none" stroke="black" points="423,-112.5 423,-142.5 549,-142.5 549,-112.5 423,-112.5"/>
<text text-anchor="start" x="431" y="-130.5" font-family="Helvetica,sans-Serif" font-size="10.00">enfield/Support/Weighted</text>
<text text-anchor="middle" x="486" y="-119.5" font-family="Helvetica,sans-Serif" font-size="10.00">Graph.h</text>
</a>
</g>
</g>
<!-- Node0&#45;&gt;Node1 -->
<g id="edge1" class="edge"><title>Node0&#45;&gt;Node1</title>
<path fill="none" stroke="midnightblue" d="M665.592,-179.476C630.349,-169.472 582.784,-155.971 545.459,-145.377"/>
<polygon fill="midnightblue" stroke="midnightblue" points="546.29,-141.975 535.714,-142.611 544.378,-148.709 546.29,-141.975"/>
</g>
<!-- Node14 -->
<g id="node15" class="node"><title>Node14</title>
<polygon fill="none" stroke="#bfbfbf" points="621.5,-56.5 621.5,-75.5 670.5,-75.5 670.5,-56.5 621.5,-56.5"/>
<text text-anchor="middle" x="646" y="-63.5" font-family="Helvetica,sans-Serif" font-size="10.00">cassert</text>
</g>
<!-- Node0&#45;&gt;Node14 -->
<g id="edge24" class="edge"><title>Node0&#45;&gt;Node14</title>
<path fill="none" stroke="midnightblue" d="M656.95,-183.242C633.949,-176.026 609.751,-163.773 596,-143 588.395,-131.511 590.395,-124.586 596,-112 601.568,-99.4981 612.516,-89.0124 622.751,-81.3167"/>
<polygon fill="midnightblue" stroke="midnightblue" points="624.851,-84.1193 631.048,-75.5256 620.844,-78.3794 624.851,-84.1193"/>
</g>
<!-- Node15 -->
<g id="node16" class="node"><title>Node15</title>
<g id="a_node16"><a xlink:href="../../d7/dd6/SIFinder_8h.xhtml" target="_top" xlink:title="enfield/Support/SIFinder.h">
<polygon fill="none" stroke="black" points="198,-118 198,-137 328,-137 328,-118 198,-118"/>
<text text-anchor="middle" x="263" y="-125" font-family="Helvetica,sans-Serif" font-size="10.00">enfield/Support/SIFinder.h</text>
</a>
</g>
</g>
<!-- Node0&#45;&gt;Node15 -->
<g id="edge16" class="edge"><title>Node0&#45;&gt;Node15</title>
<path fill="none" stroke="midnightblue" d="M656.834,-185.135C573.724,-173.184 421.241,-151.256 332.363,-138.475"/>
<polygon fill="midnightblue" stroke="midnightblue" points="332.774,-134.998 322.378,-137.039 331.778,-141.927 332.774,-134.998"/>
</g>
<!-- Node16 -->
<g id="node17" class="node"><title>Node16</title>
<g id="a_node17"><a xlink:href="../../d5/dfc/RTTI_8h.xhtml" target="_top" xlink:title="enfield/Support/RTTI.h">
<polygon fill="none" stroke="black" points="605,-118 605,-137 721,-137 721,-118 605,-118"/>
<text text-anchor="middle" x="663" y="-125" font-family="Helvetica,sans-Serif" font-size="10.00">enfield/Support/RTTI.h</text>
</a>
</g>
</g>
<!-- Node0&#45;&gt;Node16 -->
<g id="edge21" class="edge"><title>Node0&#45;&gt;Node16</title>
<path fill="none" stroke="midnightblue" d="M703.717,-179.396C695.689,-169.361 684.871,-155.838 676.403,-145.253"/>
<polygon fill="midnightblue" stroke="midnightblue" points="678.936,-142.817 669.956,-137.195 673.47,-147.19 678.936,-142.817"/>
</g>
<!-- Node17 -->
<g id="node18" class="node"><title>Node17</title>
<polygon fill="none" stroke="#bfbfbf" points="739,-118 739,-137 795,-137 795,-118 739,-118"/>
<text text-anchor="middle" x="767" y="-125" font-family="Helvetica,sans-Serif" font-size="10.00">algorithm</text>
</g>
<!-- Node0&#45;&gt;Node17 -->
<g id="edge22" class="edge"><title>Node0&#45;&gt;Node17</title>
<path fill="none" stroke="midnightblue" d="M726.283,-179.396C734.311,-169.361 745.129,-155.838 753.597,-145.253"/>
<polygon fill="midnightblue" stroke="midnightblue" points="756.53,-147.19 760.044,-137.195 751.064,-142.817 756.53,-147.19"/>
</g>
<!-- Node18 -->
<g id="node19" class="node"><title>Node18</title>
<polygon fill="none" stroke="#bfbfbf" points="813.5,-118 813.5,-137 858.5,-137 858.5,-118 813.5,-118"/>
<text text-anchor="middle" x="836" y="-125" font-family="Helvetica,sans-Serif" font-size="10.00">cstdlib</text>
</g>
<!-- Node0&#45;&gt;Node18 -->
<g id="edge23" class="edge"><title>Node0&#45;&gt;Node18</title>
<path fill="none" stroke="midnightblue" d="M741.255,-179.396C762.016,-168.243 790.8,-152.781 811.179,-141.834"/>
<polygon fill="midnightblue" stroke="midnightblue" points="813.011,-144.823 820.164,-137.007 809.698,-138.656 813.011,-144.823"/>
</g>
<!-- Node19 -->
<g id="node20" class="node"><title>Node19</title>
<polygon fill="none" stroke="#bfbfbf" points="876.5,-118 876.5,-137 919.5,-137 919.5,-118 876.5,-118"/>
<text text-anchor="middle" x="898" y="-125" font-family="Helvetica,sans-Serif" font-size="10.00">queue</text>
</g>
<!-- Node0&#45;&gt;Node19 -->
<g id="edge25" class="edge"><title>Node0&#45;&gt;Node19</title>
<path fill="none" stroke="midnightblue" d="M762.794,-179.499C793.264,-170.139 833.384,-157.008 868,-143 869.374,-142.444 870.774,-141.854 872.18,-141.242"/>
<polygon fill="midnightblue" stroke="midnightblue" points="873.732,-144.381 881.356,-137.024 870.808,-138.021 873.732,-144.381"/>
</g>
<!-- Node20 -->
<g id="node21" class="node"><title>Node20</title>
<polygon fill="none" stroke="#bfbfbf" points="938,-118 938,-137 992,-137 992,-118 938,-118"/>
<text text-anchor="middle" x="965" y="-125" font-family="Helvetica,sans-Serif" font-size="10.00">iostream</text>
</g>
<!-- Node0&#45;&gt;Node20 -->
<g id="edge26" class="edge"><title>Node0&#45;&gt;Node20</title>
<path fill="none" stroke="midnightblue" d="M773.321,-182.226C816.718,-173.239 877.152,-159.455 929,-143 931.276,-142.278 933.612,-141.478 935.947,-140.635"/>
<polygon fill="midnightblue" stroke="midnightblue" points="937.301,-143.864 945.39,-137.022 934.8,-137.326 937.301,-143.864"/>
</g>
<!-- Node2 -->
<g id="node3" class="node"><title>Node2</title>
<g id="a_node3"><a xlink:href="../../d7/d16/Graph_8h.xhtml" target="_top" xlink:title="enfield/Support/Graph.h">
<polygon fill="none" stroke="black" points="291.5,-56.5 291.5,-75.5 410.5,-75.5 410.5,-56.5 291.5,-56.5"/>
<text text-anchor="middle" x="351" y="-63.5" font-family="Helvetica,sans-Serif" font-size="10.00">enfield/Support/Graph.h</text>
</a>
</g>
</g>
<!-- Node1&#45;&gt;Node2 -->
<g id="edge2" class="edge"><title>Node1&#45;&gt;Node2</title>
<path fill="none" stroke="midnightblue" d="M454.007,-112.399C431.558,-102.505 401.785,-89.3832 380.024,-79.7919"/>
<polygon fill="midnightblue" stroke="midnightblue" points="381.206,-76.4882 370.644,-75.6578 378.383,-82.8936 381.206,-76.4882"/>
</g>
<!-- Node7 -->
<g id="node8" class="node"><title>Node7</title>
<g id="a_node8"><a xlink:href="../../d1/d73/Defs_8h.xhtml" target="_top" xlink:title="enfield/Support/Defs.h">
<polygon fill="none" stroke="black" points="83,-56.5 83,-75.5 197,-75.5 197,-56.5 83,-56.5"/>
<text text-anchor="middle" x="140" y="-63.5" font-family="Helvetica,sans-Serif" font-size="10.00">enfield/Support/Defs.h</text>
</a>
</g>
</g>
<!-- Node1&#45;&gt;Node7 -->
<g id="edge7" class="edge"><title>Node1&#45;&gt;Node7</title>
<path fill="none" stroke="midnightblue" d="M422.941,-115.656C359.332,-104.718 261.866,-87.9568 199.543,-77.2392"/>
<polygon fill="midnightblue" stroke="midnightblue" points="199.921,-73.753 189.472,-75.5075 198.735,-80.6518 199.921,-73.753"/>
</g>
<!-- Node11 -->
<g id="node12" class="node"><title>Node11</title>
<polygon fill="none" stroke="#bfbfbf" points="499.5,-56.5 499.5,-75.5 534.5,-75.5 534.5,-56.5 499.5,-56.5"/>
<text text-anchor="middle" x="517" y="-63.5" font-family="Helvetica,sans-Serif" font-size="10.00">map</text>
</g>
<!-- Node1&#45;&gt;Node11 -->
<g id="edge12" class="edge"><title>Node1&#45;&gt;Node11</title>
<path fill="none" stroke="midnightblue" d="M493.347,-112.399C497.665,-104.11 503.165,-93.5542 507.774,-84.7077"/>
<polygon fill="midnightblue" stroke="midnightblue" points="510.973,-86.1435 512.489,-75.6578 504.765,-82.9091 510.973,-86.1435"/>
</g>
<!-- Node12 -->
<g id="node13" class="node"><title>Node12</title>
<polygon fill="none" stroke="#bfbfbf" points="553,-56.5 553,-75.5 603,-75.5 603,-56.5 553,-56.5"/>
<text text-anchor="middle" x="578" y="-63.5" font-family="Helvetica,sans-Serif" font-size="10.00">fstream</text>
</g>
<!-- Node1&#45;&gt;Node12 -->
<g id="edge13" class="edge"><title>Node1&#45;&gt;Node12</title>
<path fill="none" stroke="midnightblue" d="M507.803,-112.399C522.412,-102.951 541.573,-90.5589 556.185,-81.1089"/>
<polygon fill="midnightblue" stroke="midnightblue" points="558.117,-84.0274 564.613,-75.6578 554.316,-78.1495 558.117,-84.0274"/>
</g>
<!-- Node13 -->
<g id="node14" class="node"><title>Node13</title>
<polygon fill="none" stroke="#bfbfbf" points="429,-56.5 429,-75.5 481,-75.5 481,-56.5 429,-56.5"/>
<text text-anchor="middle" x="455" y="-63.5" font-family="Helvetica,sans-Serif" font-size="10.00">sstream</text>
</g>
<!-- Node1&#45;&gt;Node13 -->
<g id="edge14" class="edge"><title>Node1&#45;&gt;Node13</title>
<path fill="none" stroke="midnightblue" d="M478.653,-112.399C474.335,-104.11 468.835,-93.5542 464.226,-84.7077"/>
<polygon fill="midnightblue" stroke="midnightblue" points="467.235,-82.9091 459.511,-75.6578 461.027,-86.1435 467.235,-82.9091"/>
</g>
<!-- Node1&#45;&gt;Node14 -->
<g id="edge15" class="edge"><title>Node1&#45;&gt;Node14</title>
<path fill="none" stroke="midnightblue" d="M523.918,-112.399C551.123,-102.283 587.404,-88.7905 613.33,-79.1493"/>
<polygon fill="midnightblue" stroke="midnightblue" points="614.566,-82.4239 622.719,-75.6578 612.126,-75.8629 614.566,-82.4239"/>
</g>
<!-- Node3 -->
<g id="node4" class="node"><title>Node3</title>
<polygon fill="none" stroke="#bfbfbf" points="426,-0.5 426,-19.5 456,-19.5 456,-0.5 426,-0.5"/>
<text text-anchor="middle" x="441" y="-7.5" font-family="Helvetica,sans-Serif" font-size="10.00">set</text>
</g>
<!-- Node2&#45;&gt;Node3 -->
<g id="edge3" class="edge"><title>Node2&#45;&gt;Node3</title>
<path fill="none" stroke="midnightblue" d="M365.46,-56.324C379.5,-47.9002 401.048,-34.9709 417.543,-25.0741"/>
<polygon fill="midnightblue" stroke="midnightblue" points="419.802,-27.8007 426.576,-19.6545 416.2,-21.7983 419.802,-27.8007"/>
</g>
<!-- Node4 -->
<g id="node5" class="node"><title>Node4</title>
<polygon fill="none" stroke="#bfbfbf" points="192,-0.5 192,-19.5 236,-19.5 236,-0.5 192,-0.5"/>
<text text-anchor="middle" x="214" y="-7.5" font-family="Helvetica,sans-Serif" font-size="10.00">vector</text>
</g>
<!-- Node2&#45;&gt;Node4 -->
<g id="edge4" class="edge"><title>Node2&#45;&gt;Node4</title>
<path fill="none" stroke="midnightblue" d="M329.292,-56.4435C306.645,-47.5171 270.928,-33.4387 245.248,-23.3168"/>
<polygon fill="midnightblue" stroke="midnightblue" points="246.193,-19.9273 235.606,-19.5164 243.626,-26.4397 246.193,-19.9273"/>
</g>
<!-- Node5 -->
<g id="node6" class="node"><title>Node5</title>
<polygon fill="none" stroke="#bfbfbf" points="324.5,-0.5 324.5,-19.5 407.5,-19.5 407.5,-0.5 324.5,-0.5"/>
<text text-anchor="middle" x="366" y="-7.5" font-family="Helvetica,sans-Serif" font-size="10.00">unordered_map</text>
</g>
<!-- Node2&#45;&gt;Node5 -->
<g id="edge5" class="edge"><title>Node2&#45;&gt;Node5</title>
<path fill="none" stroke="midnightblue" d="M353.477,-56.083C355.486,-48.8486 358.386,-38.4087 360.89,-29.3968"/>
<polygon fill="midnightblue" stroke="midnightblue" points="364.265,-30.323 363.569,-19.7511 357.52,-28.4495 364.265,-30.323"/>
</g>
<!-- Node6 -->
<g id="node7" class="node"><title>Node6</title>
<polygon fill="none" stroke="#bfbfbf" points="254,-0.5 254,-19.5 306,-19.5 306,-0.5 254,-0.5"/>
<text text-anchor="middle" x="280" y="-7.5" font-family="Helvetica,sans-Serif" font-size="10.00">memory</text>
</g>
<!-- Node2&#45;&gt;Node6 -->
<g id="edge6" class="edge"><title>Node2&#45;&gt;Node6</title>
<path fill="none" stroke="midnightblue" d="M339.593,-56.324C328.891,-48.1849 312.659,-35.8395 299.837,-26.0874"/>
<polygon fill="midnightblue" stroke="midnightblue" points="301.693,-23.1018 291.615,-19.8339 297.456,-28.6734 301.693,-23.1018"/>
</g>
<!-- Node7&#45;&gt;Node4 -->
<g id="edge8" class="edge"><title>Node7&#45;&gt;Node4</title>
<path fill="none" stroke="midnightblue" d="M151.889,-56.324C163.15,-48.1066 180.287,-35.6017 193.709,-25.8069"/>
<polygon fill="midnightblue" stroke="midnightblue" points="195.88,-28.5559 201.894,-19.8339 191.753,-22.9014 195.88,-28.5559"/>
</g>
<!-- Node8 -->
<g id="node9" class="node"><title>Node8</title>
<polygon fill="none" stroke="#bfbfbf" points="128,-0.5 128,-19.5 174,-19.5 174,-0.5 128,-0.5"/>
<text text-anchor="middle" x="151" y="-7.5" font-family="Helvetica,sans-Serif" font-size="10.00">cstdint</text>
</g>
<!-- Node7&#45;&gt;Node8 -->
<g id="edge9" class="edge"><title>Node7&#45;&gt;Node8</title>
<path fill="none" stroke="midnightblue" d="M141.816,-56.083C143.274,-48.9272 145.371,-38.6353 147.193,-29.6911"/>
<polygon fill="midnightblue" stroke="midnightblue" points="150.651,-30.2485 149.217,-19.7511 143.792,-28.8512 150.651,-30.2485"/>
</g>
<!-- Node9 -->
<g id="node10" class="node"><title>Node9</title>
<polygon fill="none" stroke="#bfbfbf" points="0,-0.5 0,-19.5 40,-19.5 40,-0.5 0,-0.5"/>
<text text-anchor="middle" x="20" y="-7.5" font-family="Helvetica,sans-Serif" font-size="10.00">limits</text>
</g>
<!-- Node7&#45;&gt;Node9 -->
<g id="edge10" class="edge"><title>Node7&#45;&gt;Node9</title>
<path fill="none" stroke="midnightblue" d="M120.986,-56.4435C101.412,-47.6356 70.6924,-33.8116 48.2711,-23.722"/>
<polygon fill="midnightblue" stroke="midnightblue" points="49.4809,-20.4284 38.9254,-19.5164 46.6083,-26.8119 49.4809,-20.4284"/>
</g>
<!-- Node10 -->
<g id="node11" class="node"><title>Node10</title>
<polygon fill="none" stroke="#bfbfbf" points="58,-0.5 58,-19.5 110,-19.5 110,-0.5 58,-0.5"/>
<text text-anchor="middle" x="84" y="-7.5" font-family="Helvetica,sans-Serif" font-size="10.00">ostream</text>
</g>
<!-- Node7&#45;&gt;Node10 -->
<g id="edge11" class="edge"><title>Node7&#45;&gt;Node10</title>
<path fill="none" stroke="midnightblue" d="M131.003,-56.324C122.806,-48.4196 110.494,-36.5482 100.528,-26.9377"/>
<polygon fill="midnightblue" stroke="midnightblue" points="102.789,-24.2558 93.1611,-19.8339 97.9301,-29.2947 102.789,-24.2558"/>
</g>
<!-- Node15&#45;&gt;Node2 -->
<g id="edge17" class="edge"><title>Node15&#45;&gt;Node2</title>
<path fill="none" stroke="midnightblue" d="M275.608,-117.975C289.723,-108.431 312.831,-92.8073 329.749,-81.3683"/>
<polygon fill="midnightblue" stroke="midnightblue" points="332.091,-84.0098 338.415,-75.5091 328.171,-78.2109 332.091,-84.0098"/>
</g>
<!-- Node15&#45;&gt;Node4 -->
<g id="edge19" class="edge"><title>Node15&#45;&gt;Node4</title>
<path fill="none" stroke="midnightblue" d="M259.317,-117.819C251.371,-99.0896 232.474,-54.5458 221.76,-29.2924"/>
<polygon fill="midnightblue" stroke="midnightblue" points="224.853,-27.6209 217.726,-19.782 218.409,-30.3548 224.853,-27.6209"/>
</g>
<!-- Node15&#45;&gt;Node6 -->
<g id="edge20" class="edge"><title>Node15&#45;&gt;Node6</title>
<path fill="none" stroke="midnightblue" d="M264.278,-117.819C267.01,-99.2568 273.474,-55.3391 277.207,-29.9734"/>
<polygon fill="midnightblue" stroke="midnightblue" points="280.714,-30.1851 278.707,-19.782 273.788,-29.1657 280.714,-30.1851"/>
</g>
<!-- Node15&#45;&gt;Node7 -->
<g id="edge18" class="edge"><title>Node15&#45;&gt;Node7</title>
<path fill="none" stroke="midnightblue" d="M245.377,-117.975C224.826,-108.034 190.636,-91.4947 166.793,-79.961"/>
<polygon fill="midnightblue" stroke="midnightblue" points="168.116,-76.7131 157.59,-75.5091 165.068,-83.0145 168.116,-76.7131"/>
</g>
</g>
</svg>
