<?xml version="1.0" encoding="UTF-8" standalone="no"?>
<!DOCTYPE svg PUBLIC "-//W3C//DTD SVG 1.1//EN"
 "http://www.w3.org/Graphics/SVG/1.1/DTD/svg11.dtd">
<!-- Generated by graphviz version 2.38.0 (20140413.2041)
 -->
<!-- Title: include/enfield/Transform/ReverseEdgesPass.h Pages: 1 -->
<svg width="735pt" height="263pt"
 viewBox="0.00 0.00 734.50 263.00" xmlns="http://www.w3.org/2000/svg" xmlns:xlink="http://www.w3.org/1999/xlink">
<g id="graph0" class="graph" transform="scale(1 1) rotate(0) translate(4 259)">
<title>include/enfield/Transform/ReverseEdgesPass.h</title>
<!-- Node0 -->
<g id="node1" class="node"><title>Node0</title>
<polygon fill="#bfbfbf" stroke="black" points="401,-224.5 401,-254.5 527,-254.5 527,-224.5 401,-224.5"/>
<text text-anchor="start" x="409" y="-242.5" font-family="Helvetica,sans-Serif" font-size="10.00">include/enfield/Transform</text>
<text text-anchor="middle" x="464" y="-231.5" font-family="Helvetica,sans-Serif" font-size="10.00">/ReverseEdgesPass.h</text>
</g>
<!-- Node1 -->
<g id="node2" class="node"><title>Node1</title>
<g id="a_node2"><a xlink:href="../../df/d29/Pass_8h.xhtml" target="_top" xlink:title="enfield/Transform/Pass.h">
<polygon fill="none" stroke="black" points="399,-112.5 399,-131.5 525,-131.5 525,-112.5 399,-112.5"/>
<text text-anchor="middle" x="462" y="-119.5" font-family="Helvetica,sans-Serif" font-size="10.00">enfield/Transform/Pass.h</text>
</a>
</g>
</g>
<!-- Node0&#45;&gt;Node1 -->
<g id="edge1" class="edge"><title>Node0&#45;&gt;Node1</title>
<path fill="none" stroke="midnightblue" d="M501.336,-224.414C528.446,-211.859 558.097,-191.817 544,-168 535.027,-152.84 518.933,-142.448 503.365,-135.504"/>
<polygon fill="midnightblue" stroke="midnightblue" points="504.39,-132.143 493.809,-131.615 501.752,-138.627 504.39,-132.143"/>
</g>
<!-- Node3 -->
<g id="node4" class="node"><title>Node3</title>
<g id="a_node4"><a xlink:href="../../d4/d73/QModule_8h.xhtml" target="_top" xlink:title="enfield/Transform/QModule.h">
<polygon fill="none" stroke="black" points="392.5,-168.5 392.5,-187.5 535.5,-187.5 535.5,-168.5 392.5,-168.5"/>
<text text-anchor="middle" x="464" y="-175.5" font-family="Helvetica,sans-Serif" font-size="10.00">enfield/Transform/QModule.h</text>
</a>
</g>
</g>
<!-- Node0&#45;&gt;Node3 -->
<g id="edge3" class="edge"><title>Node0&#45;&gt;Node3</title>
<path fill="none" stroke="midnightblue" d="M464,-224.399C464,-216.466 464,-206.458 464,-197.858"/>
<polygon fill="midnightblue" stroke="midnightblue" points="467.5,-197.658 464,-187.658 460.5,-197.658 467.5,-197.658"/>
</g>
<!-- Node12 -->
<g id="node13" class="node"><title>Node12</title>
<g id="a_node13"><a xlink:href="../../d7/d9d/ArchGraph_8h.xhtml" target="_top" xlink:title="enfield/Arch/ArchGraph.h">
<polygon fill="none" stroke="black" points="248,-168.5 248,-187.5 374,-187.5 374,-168.5 248,-168.5"/>
<text text-anchor="middle" x="311" y="-175.5" font-family="Helvetica,sans-Serif" font-size="10.00">enfield/Arch/ArchGraph.h</text>
</a>
</g>
</g>
<!-- Node0&#45;&gt;Node12 -->
<g id="edge14" class="edge"><title>Node0&#45;&gt;Node12</title>
<path fill="none" stroke="midnightblue" d="M427.741,-224.399C401.956,-214.372 367.643,-201.028 342.899,-191.405"/>
<polygon fill="midnightblue" stroke="midnightblue" points="343.851,-188.02 333.263,-187.658 341.314,-194.544 343.851,-188.02"/>
</g>
<!-- Node2 -->
<g id="node3" class="node"><title>Node2</title>
<polygon fill="none" stroke="#bfbfbf" points="460,-56.5 460,-75.5 512,-75.5 512,-56.5 460,-56.5"/>
<text text-anchor="middle" x="486" y="-63.5" font-family="Helvetica,sans-Serif" font-size="10.00">memory</text>
</g>
<!-- Node1&#45;&gt;Node2 -->
<g id="edge2" class="edge"><title>Node1&#45;&gt;Node2</title>
<path fill="none" stroke="midnightblue" d="M465.963,-112.083C469.213,-104.77 473.919,-94.1814 477.954,-85.1034"/>
<polygon fill="midnightblue" stroke="midnightblue" points="481.248,-86.3107 482.111,-75.7511 474.851,-83.4677 481.248,-86.3107"/>
</g>
<!-- Node3&#45;&gt;Node1 -->
<g id="edge12" class="edge"><title>Node3&#45;&gt;Node1</title>
<path fill="none" stroke="midnightblue" d="M463.67,-168.083C463.408,-161.006 463.032,-150.861 462.703,-141.986"/>
<polygon fill="midnightblue" stroke="midnightblue" points="466.192,-141.615 462.324,-131.751 459.197,-141.874 466.192,-141.615"/>
</g>
<!-- Node4 -->
<g id="node5" class="node"><title>Node4</title>
<g id="a_node5"><a xlink:href="../../d4/daf/Nodes_8h.xhtml" target="_top" xlink:title="enfield/Analysis/Nodes.h">
<polygon fill="none" stroke="black" points="252.5,-112.5 252.5,-131.5 377.5,-131.5 377.5,-112.5 252.5,-112.5"/>
<text text-anchor="middle" x="315" y="-119.5" font-family="Helvetica,sans-Serif" font-size="10.00">enfield/Analysis/Nodes.h</text>
</a>
</g>
</g>
<!-- Node3&#45;&gt;Node4 -->
<g id="edge4" class="edge"><title>Node3&#45;&gt;Node4</title>
<path fill="none" stroke="midnightblue" d="M440.391,-168.444C415.542,-159.438 376.226,-145.189 348.246,-135.049"/>
<polygon fill="midnightblue" stroke="midnightblue" points="349.093,-131.633 338.499,-131.516 346.708,-138.214 349.093,-131.633"/>
</g>
<!-- Node11 -->
<g id="node12" class="node"><title>Node11</title>
<polygon fill="none" stroke="#bfbfbf" points="643.5,-56.5 643.5,-75.5 726.5,-75.5 726.5,-56.5 643.5,-56.5"/>
<text text-anchor="middle" x="685" y="-63.5" font-family="Helvetica,sans-Serif" font-size="10.00">unordered_map</text>
</g>
<!-- Node3&#45;&gt;Node11 -->
<g id="edge13" class="edge"><title>Node3&#45;&gt;Node11</title>
<path fill="none" stroke="midnightblue" d="M535.575,-169.705C587.595,-162.925 652.067,-150.969 671,-132 682.968,-120.009 685.815,-100.403 686.066,-85.8544"/>
<polygon fill="midnightblue" stroke="midnightblue" points="689.557,-85.4326 685.834,-75.5133 682.559,-85.5891 689.557,-85.4326"/>
</g>
<!-- Node4&#45;&gt;Node2 -->
<g id="edge11" class="edge"><title>Node4&#45;&gt;Node2</title>
<path fill="none" stroke="midnightblue" d="M342.095,-112.444C371.243,-103.239 417.737,-88.5568 449.954,-78.3829"/>
<polygon fill="midnightblue" stroke="midnightblue" points="451.391,-81.5997 459.872,-75.2508 449.283,-74.9246 451.391,-81.5997"/>
</g>
<!-- Node5 -->
<g id="node6" class="node"><title>Node5</title>
<g id="a_node6"><a xlink:href="../../d1/d2e/WrapperVal_8h.xhtml" target="_top" xlink:title="enfield/Support/WrapperVal.h">
<polygon fill="none" stroke="black" points="298,-56.5 298,-75.5 442,-75.5 442,-56.5 298,-56.5"/>
<text text-anchor="middle" x="370" y="-63.5" font-family="Helvetica,sans-Serif" font-size="10.00">enfield/Support/WrapperVal.h</text>
</a>
</g>
</g>
<!-- Node4&#45;&gt;Node5 -->
<g id="edge5" class="edge"><title>Node4&#45;&gt;Node5</title>
<path fill="none" stroke="midnightblue" d="M324.082,-112.083C332.171,-104.141 344.195,-92.3354 353.91,-82.7973"/>
<polygon fill="midnightblue" stroke="midnightblue" points="356.403,-85.2545 361.087,-75.7511 351.499,-80.2595 356.403,-85.2545"/>
</g>
<!-- Node7 -->
<g id="node8" class="node"><title>Node7</title>
<g id="a_node8"><a xlink:href="../../d5/dfc/RTTI_8h.xhtml" target="_top" xlink:title="enfield/Support/RTTI.h">
<polygon fill="none" stroke="black" points="0,-56.5 0,-75.5 116,-75.5 116,-56.5 0,-56.5"/>
<text text-anchor="middle" x="58" y="-63.5" font-family="Helvetica,sans-Serif" font-size="10.00">enfield/Support/RTTI.h</text>
</a>
</g>
</g>
<!-- Node4&#45;&gt;Node7 -->
<g id="edge7" class="edge"><title>Node4&#45;&gt;Node7</title>
<path fill="none" stroke="midnightblue" d="M274.278,-112.444C229.351,-103.004 157.002,-87.802 108.501,-77.6111"/>
<polygon fill="midnightblue" stroke="midnightblue" points="109.038,-74.1476 98.5319,-75.5164 107.598,-80.998 109.038,-74.1476"/>
</g>
<!-- Node8 -->
<g id="node9" class="node"><title>Node8</title>
<polygon fill="none" stroke="#bfbfbf" points="134.5,-56.5 134.5,-75.5 207.5,-75.5 207.5,-56.5 134.5,-56.5"/>
<text text-anchor="middle" x="171" y="-63.5" font-family="Helvetica,sans-Serif" font-size="10.00">initializer_list</text>
</g>
<!-- Node4&#45;&gt;Node8 -->
<g id="edge8" class="edge"><title>Node4&#45;&gt;Node8</title>
<path fill="none" stroke="midnightblue" d="M292.183,-112.444C268.168,-103.438 230.171,-89.1891 203.131,-79.049"/>
<polygon fill="midnightblue" stroke="midnightblue" points="204.303,-75.7506 193.71,-75.5164 201.845,-82.3049 204.303,-75.7506"/>
</g>
<!-- Node9 -->
<g id="node10" class="node"><title>Node9</title>
<polygon fill="none" stroke="#bfbfbf" points="226,-56.5 226,-75.5 280,-75.5 280,-56.5 226,-56.5"/>
<text text-anchor="middle" x="253" y="-63.5" font-family="Helvetica,sans-Serif" font-size="10.00">iostream</text>
</g>
<!-- Node4&#45;&gt;Node9 -->
<g id="edge9" class="edge"><title>Node4&#45;&gt;Node9</title>
<path fill="none" stroke="midnightblue" d="M305.039,-112.324C295.873,-104.341 282.063,-92.3128 270.972,-82.6529"/>
<polygon fill="midnightblue" stroke="midnightblue" points="272.982,-79.7624 263.143,-75.8339 268.385,-85.041 272.982,-79.7624"/>
</g>
<!-- Node10 -->
<g id="node11" class="node"><title>Node10</title>
<polygon fill="none" stroke="#bfbfbf" points="530,-56.5 530,-75.5 574,-75.5 574,-56.5 530,-56.5"/>
<text text-anchor="middle" x="552" y="-63.5" font-family="Helvetica,sans-Serif" font-size="10.00">vector</text>
</g>
<!-- Node4&#45;&gt;Node10 -->
<g id="edge10" class="edge"><title>Node4&#45;&gt;Node10</title>
<path fill="none" stroke="midnightblue" d="M358.204,-112.446C397.9,-104.39 458.568,-91.582 519.859,-76.166"/>
<polygon fill="midnightblue" stroke="midnightblue" points="520.866,-79.5215 529.698,-73.6698 519.145,-72.7365 520.866,-79.5215"/>
</g>
<!-- Node6 -->
<g id="node7" class="node"><title>Node6</title>
<polygon fill="none" stroke="#bfbfbf" points="349.5,-0.5 349.5,-19.5 390.5,-19.5 390.5,-0.5 349.5,-0.5"/>
<text text-anchor="middle" x="370" y="-7.5" font-family="Helvetica,sans-Serif" font-size="10.00">string</text>
</g>
<!-- Node5&#45;&gt;Node6 -->
<g id="edge6" class="edge"><title>Node5&#45;&gt;Node6</title>
<path fill="none" stroke="midnightblue" d="M370,-56.083C370,-49.0059 370,-38.8611 370,-29.9865"/>
<polygon fill="midnightblue" stroke="midnightblue" points="373.5,-29.751 370,-19.7511 366.5,-29.7511 373.5,-29.751"/>
</g>
<!-- Node12&#45;&gt;Node4 -->
<g id="edge20" class="edge"><title>Node12&#45;&gt;Node4</title>
<path fill="none" stroke="midnightblue" d="M311.661,-168.083C312.185,-161.006 312.936,-150.861 313.594,-141.986"/>
<polygon fill="midnightblue" stroke="midnightblue" points="317.103,-141.982 314.352,-131.751 310.123,-141.465 317.103,-141.982"/>
</g>
<!-- Node13 -->
<g id="node14" class="node"><title>Node13</title>
<g id="a_node14"><a xlink:href="../../d7/d16/Graph_8h.xhtml" target="_top" xlink:title="enfield/Support/Graph.h">
<polygon fill="none" stroke="black" points="543.5,-112.5 543.5,-131.5 662.5,-131.5 662.5,-112.5 543.5,-112.5"/>
<text text-anchor="middle" x="603" y="-119.5" font-family="Helvetica,sans-Serif" font-size="10.00">enfield/Support/Graph.h</text>
</a>
</g>
</g>
<!-- Node12&#45;&gt;Node13 -->
<g id="edge15" class="edge"><title>Node12&#45;&gt;Node13</title>
<path fill="none" stroke="midnightblue" d="M357.268,-168.444C408.741,-158.925 491.893,-143.547 546.999,-133.356"/>
<polygon fill="midnightblue" stroke="midnightblue" points="547.751,-136.777 556.948,-131.516 546.478,-129.893 547.751,-136.777"/>
</g>
<!-- Node13&#45;&gt;Node2 -->
<g id="edge19" class="edge"><title>Node13&#45;&gt;Node2</title>
<path fill="none" stroke="midnightblue" d="M584.461,-112.444C565.377,-103.636 535.425,-89.8116 513.564,-79.722"/>
<polygon fill="midnightblue" stroke="midnightblue" points="514.999,-76.5292 504.452,-75.5164 512.065,-82.8849 514.999,-76.5292"/>
</g>
<!-- Node13&#45;&gt;Node10 -->
<g id="edge17" class="edge"><title>Node13&#45;&gt;Node10</title>
<path fill="none" stroke="midnightblue" d="M594.578,-112.083C587.152,-104.22 576.148,-92.5688 567.188,-83.0813"/>
<polygon fill="midnightblue" stroke="midnightblue" points="569.676,-80.618 560.265,-75.7511 564.587,-85.4244 569.676,-80.618"/>
</g>
<!-- Node13&#45;&gt;Node11 -->
<g id="edge18" class="edge"><title>Node13&#45;&gt;Node11</title>
<path fill="none" stroke="midnightblue" d="M616.175,-112.324C628.847,-103.979 648.233,-91.2122 663.206,-81.3524"/>
<polygon fill="midnightblue" stroke="midnightblue" points="665.431,-84.0776 671.858,-75.6545 661.581,-78.2313 665.431,-84.0776"/>
</g>
<!-- Node14 -->
<g id="node15" class="node"><title>Node14</title>
<polygon fill="none" stroke="#bfbfbf" points="592,-56.5 592,-75.5 622,-75.5 622,-56.5 592,-56.5"/>
<text text-anchor="middle" x="607" y="-63.5" font-family="Helvetica,sans-Serif" font-size="10.00">set</text>
</g>
<!-- Node13&#45;&gt;Node14 -->
<g id="edge16" class="edge"><title>Node13&#45;&gt;Node14</title>
<path fill="none" stroke="midnightblue" d="M603.661,-112.083C604.185,-105.006 604.936,-94.8611 605.594,-85.9865"/>
<polygon fill="midnightblue" stroke="midnightblue" points="609.103,-85.9823 606.352,-75.7511 602.123,-85.4652 609.103,-85.9823"/>
</g>
</g>
</svg>
