<?xml version="1.0" encoding="UTF-8" standalone="no"?>
<!DOCTYPE svg PUBLIC "-//W3C//DTD SVG 1.1//EN"
 "http://www.w3.org/Graphics/SVG/1.1/DTD/svg11.dtd">
<!-- Generated by graphviz version 2.38.0 (20140413.2041)
 -->
<!-- Title: lib/Support/ExpTSFinder.cpp Pages: 1 -->
<svg width="578pt" height="263pt"
 viewBox="0.00 0.00 577.50 263.00" xmlns="http://www.w3.org/2000/svg" xmlns:xlink="http://www.w3.org/1999/xlink">
<g id="graph0" class="graph" transform="scale(1 1) rotate(0) translate(4 259)">
<title>lib/Support/ExpTSFinder.cpp</title>
<!-- Node0 -->
<g id="node1" class="node"><title>Node0</title>
<polygon fill="#bfbfbf" stroke="black" points="376,-235.5 376,-254.5 518,-254.5 518,-235.5 376,-235.5"/>
<text text-anchor="middle" x="447" y="-242.5" font-family="Helvetica,sans-Serif" font-size="10.00">lib/Support/ExpTSFinder.cpp</text>
</g>
<!-- Node1 -->
<g id="node2" class="node"><title>Node1</title>
<g id="a_node2"><a xlink:href="../../de/d31/ExpTSFinder_8h.xhtml" target="_top" xlink:title="enfield/Support/ExpTSFinder.h">
<polygon fill="none" stroke="black" points="217,-179.5 217,-198.5 367,-198.5 367,-179.5 217,-179.5"/>
<text text-anchor="middle" x="292" y="-186.5" font-family="Helvetica,sans-Serif" font-size="10.00">enfield/Support/ExpTSFinder.h</text>
</a>
</g>
</g>
<!-- Node0&#45;&gt;Node1 -->
<g id="edge1" class="edge"><title>Node0&#45;&gt;Node1</title>
<path fill="none" stroke="midnightblue" d="M422.44,-235.444C396.477,-226.399 355.332,-212.064 326.203,-201.916"/>
<polygon fill="midnightblue" stroke="midnightblue" points="327.04,-198.501 316.445,-198.516 324.737,-205.112 327.04,-198.501"/>
</g>
<!-- Node13 -->
<g id="node14" class="node"><title>Node13</title>
<polygon fill="none" stroke="#bfbfbf" points="385,-179.5 385,-198.5 441,-198.5 441,-179.5 385,-179.5"/>
<text text-anchor="middle" x="413" y="-186.5" font-family="Helvetica,sans-Serif" font-size="10.00">algorithm</text>
</g>
<!-- Node0&#45;&gt;Node13 -->
<g id="edge14" class="edge"><title>Node0&#45;&gt;Node13</title>
<path fill="none" stroke="midnightblue" d="M441.386,-235.083C436.633,-227.534 429.682,-216.495 423.848,-207.23"/>
<polygon fill="midnightblue" stroke="midnightblue" points="426.8,-205.349 418.51,-198.751 420.876,-209.078 426.8,-205.349"/>
</g>
<!-- Node14 -->
<g id="node15" class="node"><title>Node14</title>
<polygon fill="none" stroke="#bfbfbf" points="459.5,-179.5 459.5,-198.5 502.5,-198.5 502.5,-179.5 459.5,-179.5"/>
<text text-anchor="middle" x="481" y="-186.5" font-family="Helvetica,sans-Serif" font-size="10.00">queue</text>
</g>
<!-- Node0&#45;&gt;Node14 -->
<g id="edge15" class="edge"><title>Node0&#45;&gt;Node14</title>
<path fill="none" stroke="midnightblue" d="M452.614,-235.083C457.367,-227.534 464.318,-216.495 470.152,-207.23"/>
<polygon fill="midnightblue" stroke="midnightblue" points="473.124,-209.078 475.49,-198.751 467.2,-205.349 473.124,-209.078"/>
</g>
<!-- Node15 -->
<g id="node16" class="node"><title>Node15</title>
<polygon fill="none" stroke="#bfbfbf" points="520.5,-179.5 520.5,-198.5 569.5,-198.5 569.5,-179.5 520.5,-179.5"/>
<text text-anchor="middle" x="545" y="-186.5" font-family="Helvetica,sans-Serif" font-size="10.00">cassert</text>
</g>
<!-- Node0&#45;&gt;Node15 -->
<g id="edge16" class="edge"><title>Node0&#45;&gt;Node15</title>
<path fill="none" stroke="midnightblue" d="M462.745,-235.324C478.319,-226.743 502.377,-213.486 520.459,-203.522"/>
<polygon fill="midnightblue" stroke="midnightblue" points="522.224,-206.546 529.294,-198.655 518.846,-200.415 522.224,-206.546"/>
</g>
<!-- Node2 -->
<g id="node3" class="node"><title>Node2</title>
<g id="a_node3"><a xlink:href="../../dc/d2d/TokenSwapFinder_8h.xhtml" target="_top" xlink:title="enfield/Support/TokenSwap\lFinder.h">
<polygon fill="none" stroke="black" points="171.5,-112.5 171.5,-142.5 308.5,-142.5 308.5,-112.5 171.5,-112.5"/>
<text text-anchor="start" x="179.5" y="-130.5" font-family="Helvetica,sans-Serif" font-size="10.00">enfield/Support/TokenSwap</text>
<text text-anchor="middle" x="240" y="-119.5" font-family="Helvetica,sans-Serif" font-size="10.00">Finder.h</text>
</a>
</g>
</g>
<!-- Node1&#45;&gt;Node2 -->
<g id="edge2" class="edge"><title>Node1&#45;&gt;Node2</title>
<path fill="none" stroke="midnightblue" d="M284.55,-179.475C277.902,-171.869 267.878,-160.399 259.021,-150.265"/>
<polygon fill="midnightblue" stroke="midnightblue" points="261.471,-147.749 252.255,-142.523 256.201,-152.356 261.471,-147.749"/>
</g>
<!-- Node12 -->
<g id="node13" class="node"><title>Node12</title>
<polygon fill="none" stroke="#bfbfbf" points="326.5,-118 326.5,-137 361.5,-137 361.5,-118 326.5,-118"/>
<text text-anchor="middle" x="344" y="-125" font-family="Helvetica,sans-Serif" font-size="10.00">map</text>
</g>
<!-- Node1&#45;&gt;Node12 -->
<g id="edge13" class="edge"><title>Node1&#45;&gt;Node12</title>
<path fill="none" stroke="midnightblue" d="M299.45,-179.475C307.328,-170.462 319.945,-156.025 329.744,-144.812"/>
<polygon fill="midnightblue" stroke="midnightblue" points="332.618,-146.842 336.563,-137.009 327.347,-142.236 332.618,-146.842"/>
</g>
<!-- Node3 -->
<g id="node4" class="node"><title>Node3</title>
<g id="a_node4"><a xlink:href="../../d7/d16/Graph_8h.xhtml" target="_top" xlink:title="enfield/Support/Graph.h">
<polygon fill="none" stroke="black" points="113.5,-56.5 113.5,-75.5 232.5,-75.5 232.5,-56.5 113.5,-56.5"/>
<text text-anchor="middle" x="173" y="-63.5" font-family="Helvetica,sans-Serif" font-size="10.00">enfield/Support/Graph.h</text>
</a>
</g>
</g>
<!-- Node2&#45;&gt;Node3 -->
<g id="edge3" class="edge"><title>Node2&#45;&gt;Node3</title>
<path fill="none" stroke="midnightblue" d="M224.122,-112.399C213.985,-103.397 200.838,-91.7214 190.415,-82.4652"/>
<polygon fill="midnightblue" stroke="midnightblue" points="192.55,-79.681 182.749,-75.6578 187.902,-84.915 192.55,-79.681"/>
</g>
<!-- Node8 -->
<g id="node9" class="node"><title>Node8</title>
<g id="a_node9"><a xlink:href="../../d1/d73/Defs_8h.xhtml" target="_top" xlink:title="enfield/Support/Defs.h">
<polygon fill="none" stroke="black" points="251,-56.5 251,-75.5 365,-75.5 365,-56.5 251,-56.5"/>
<text text-anchor="middle" x="308" y="-63.5" font-family="Helvetica,sans-Serif" font-size="10.00">enfield/Support/Defs.h</text>
</a>
</g>
</g>
<!-- Node2&#45;&gt;Node8 -->
<g id="edge8" class="edge"><title>Node2&#45;&gt;Node8</title>
<path fill="none" stroke="midnightblue" d="M256.115,-112.399C266.404,-103.397 279.747,-91.7214 290.326,-82.4652"/>
<polygon fill="midnightblue" stroke="midnightblue" points="292.884,-84.8769 298.105,-75.6578 288.275,-79.6088 292.884,-84.8769"/>
</g>
<!-- Node4 -->
<g id="node5" class="node"><title>Node4</title>
<polygon fill="none" stroke="#bfbfbf" points="0,-0.5 0,-19.5 30,-19.5 30,-0.5 0,-0.5"/>
<text text-anchor="middle" x="15" y="-7.5" font-family="Helvetica,sans-Serif" font-size="10.00">set</text>
</g>
<!-- Node3&#45;&gt;Node4 -->
<g id="edge4" class="edge"><title>Node3&#45;&gt;Node4</title>
<path fill="none" stroke="midnightblue" d="M146.717,-56.4731C121.536,-48.2387 82.2531,-35.2236 39.8708,-20.2283"/>
<polygon fill="midnightblue" stroke="midnightblue" points="40.8009,-16.8445 30.2062,-16.7933 38.4566,-23.4402 40.8009,-16.8445"/>
</g>
<!-- Node5 -->
<g id="node6" class="node"><title>Node5</title>
<polygon fill="none" stroke="#bfbfbf" points="220,-0.5 220,-19.5 264,-19.5 264,-0.5 220,-0.5"/>
<text text-anchor="middle" x="242" y="-7.5" font-family="Helvetica,sans-Serif" font-size="10.00">vector</text>
</g>
<!-- Node3&#45;&gt;Node5 -->
<g id="edge5" class="edge"><title>Node3&#45;&gt;Node5</title>
<path fill="none" stroke="midnightblue" d="M184.086,-56.324C194.486,-48.1849 210.261,-35.8395 222.722,-26.0874"/>
<polygon fill="midnightblue" stroke="midnightblue" points="224.994,-28.7533 230.712,-19.8339 220.68,-23.2407 224.994,-28.7533"/>
</g>
<!-- Node6 -->
<g id="node7" class="node"><title>Node6</title>
<polygon fill="none" stroke="#bfbfbf" points="48.5,-0.5 48.5,-19.5 131.5,-19.5 131.5,-0.5 48.5,-0.5"/>
<text text-anchor="middle" x="90" y="-7.5" font-family="Helvetica,sans-Serif" font-size="10.00">unordered_map</text>
</g>
<!-- Node3&#45;&gt;Node6 -->
<g id="edge6" class="edge"><title>Node3&#45;&gt;Node6</title>
<path fill="none" stroke="midnightblue" d="M159.665,-56.324C146.838,-47.979 127.215,-35.2122 112.06,-25.3524"/>
<polygon fill="midnightblue" stroke="midnightblue" points="113.593,-22.1742 103.302,-19.6545 109.776,-28.0417 113.593,-22.1742"/>
</g>
<!-- Node7 -->
<g id="node8" class="node"><title>Node7</title>
<polygon fill="none" stroke="#bfbfbf" points="150,-0.5 150,-19.5 202,-19.5 202,-0.5 150,-0.5"/>
<text text-anchor="middle" x="176" y="-7.5" font-family="Helvetica,sans-Serif" font-size="10.00">memory</text>
</g>
<!-- Node3&#45;&gt;Node7 -->
<g id="edge7" class="edge"><title>Node3&#45;&gt;Node7</title>
<path fill="none" stroke="midnightblue" d="M173.495,-56.083C173.889,-49.0059 174.452,-38.8611 174.945,-29.9865"/>
<polygon fill="midnightblue" stroke="midnightblue" points="178.454,-29.9299 175.514,-19.7511 171.464,-29.5415 178.454,-29.9299"/>
</g>
<!-- Node8&#45;&gt;Node5 -->
<g id="edge9" class="edge"><title>Node8&#45;&gt;Node5</title>
<path fill="none" stroke="midnightblue" d="M297.396,-56.324C287.544,-48.2631 272.649,-36.0765 260.785,-26.3695"/>
<polygon fill="midnightblue" stroke="midnightblue" points="262.753,-23.4575 252.797,-19.8339 258.32,-28.8752 262.753,-23.4575"/>
</g>
<!-- Node9 -->
<g id="node10" class="node"><title>Node9</title>
<polygon fill="none" stroke="#bfbfbf" points="282,-0.5 282,-19.5 328,-19.5 328,-0.5 282,-0.5"/>
<text text-anchor="middle" x="305" y="-7.5" font-family="Helvetica,sans-Serif" font-size="10.00">cstdint</text>
</g>
<!-- Node8&#45;&gt;Node9 -->
<g id="edge10" class="edge"><title>Node8&#45;&gt;Node9</title>
<path fill="none" stroke="midnightblue" d="M307.505,-56.083C307.111,-49.0059 306.548,-38.8611 306.055,-29.9865"/>
<polygon fill="midnightblue" stroke="midnightblue" points="309.536,-29.5415 305.486,-19.7511 302.546,-29.9299 309.536,-29.5415"/>
</g>
<!-- Node10 -->
<g id="node11" class="node"><title>Node10</title>
<polygon fill="none" stroke="#bfbfbf" points="346,-0.5 346,-19.5 386,-19.5 386,-0.5 346,-0.5"/>
<text text-anchor="middle" x="366" y="-7.5" font-family="Helvetica,sans-Serif" font-size="10.00">limits</text>
</g>
<!-- Node8&#45;&gt;Node10 -->
<g id="edge11" class="edge"><title>Node8&#45;&gt;Node10</title>
<path fill="none" stroke="midnightblue" d="M317.319,-56.324C325.893,-48.3414 338.812,-36.3128 349.188,-26.6529"/>
<polygon fill="midnightblue" stroke="midnightblue" points="351.578,-29.2098 356.512,-19.8339 346.808,-24.0865 351.578,-29.2098"/>
</g>
<!-- Node11 -->
<g id="node12" class="node"><title>Node11</title>
<polygon fill="none" stroke="#bfbfbf" points="404,-0.5 404,-19.5 456,-19.5 456,-0.5 404,-0.5"/>
<text text-anchor="middle" x="430" y="-7.5" font-family="Helvetica,sans-Serif" font-size="10.00">ostream</text>
</g>
<!-- Node8&#45;&gt;Node11 -->
<g id="edge12" class="edge"><title>Node8&#45;&gt;Node11</title>
<path fill="none" stroke="midnightblue" d="M327.331,-56.4435C347.32,-47.5961 378.743,-33.6875 401.564,-23.5865"/>
<polygon fill="midnightblue" stroke="midnightblue" points="403.032,-26.7645 410.759,-19.5164 400.198,-20.3635 403.032,-26.7645"/>
</g>
</g>
</svg>
