<?xml version="1.0" encoding="UTF-8" standalone="no"?>
<!DOCTYPE svg PUBLIC "-//W3C//DTD SVG 1.1//EN"
 "http://www.w3.org/Graphics/SVG/1.1/DTD/svg11.dtd">
<!-- Generated by graphviz version 2.40.1 (20161225.0304)
 -->
<!-- Title: include/enfield/Transform/Allocators/SimpleQAllocator.h Pages: 1 -->
<svg width="1441pt" height="184pt"
 viewBox="0.00 0.00 1440.50 184.00" xmlns="http://www.w3.org/2000/svg" xmlns:xlink="http://www.w3.org/1999/xlink">
<g id="graph0" class="graph" transform="scale(1 1) rotate(0) translate(4 180)">
<title>include/enfield/Transform/Allocators/SimpleQAllocator.h</title>
<!-- Node32 -->
<g id="node1" class="node">
<title>Node32</title>
<polygon fill="#bfbfbf" stroke="#000000" points="689,-145.5 689,-175.5 854,-175.5 854,-145.5 689,-145.5"/>
<text text-anchor="start" x="697" y="-163.5" font-family="Helvetica,sans-Serif" font-size="10.00" fill="#000000">include/enfield/Transform</text>
<text text-anchor="middle" x="771.5" y="-152.5" font-family="Helvetica,sans-Serif" font-size="10.00" fill="#000000">/Allocators/SimpleQAllocator.h</text>
</g>
<!-- Node33 -->
<g id="node2" class="node">
<title>Node33</title>
<g id="a_node2"><a xlink:href="../../dc/dea/Allocators_8cpp.xhtml" target="_top" xlink:title="lib/Transform/Allocators\l/Allocators.cpp">
<polygon fill="none" stroke="#000000" points="588.5,-.5 588.5,-30.5 722.5,-30.5 722.5,-.5 588.5,-.5"/>
<text text-anchor="start" x="596.5" y="-18.5" font-family="Helvetica,sans-Serif" font-size="10.00" fill="#000000">lib/Transform/Allocators</text>
<text text-anchor="middle" x="655.5" y="-7.5" font-family="Helvetica,sans-Serif" font-size="10.00" fill="#000000">/Allocators.cpp</text>
</a>
</g>
</g>
<!-- Node32&#45;&gt;Node33 -->
<g id="edge1" class="edge">
<title>Node32&#45;&gt;Node33</title>
<path fill="none" stroke="#191970" d="M709.3307,-141.2576C693.767,-133.5881 678.6365,-123.1193 668.5,-109 651.7739,-85.7019 651.8406,-50.5641 653.5573,-30.6609"/>
<polygon fill="#191970" stroke="#191970" points="707.9602,-144.4794 718.5099,-145.4562 710.8719,-138.1137 707.9602,-144.4794"/>
</g>
<!-- Node34 -->
<g id="node3" class="node">
<title>Node34</title>
<g id="a_node3"><a xlink:href="../../d3/d1b/WeightedSIMappingFinder_8h.xhtml" target="_top" xlink:title="include/enfield/Transform\l/Allocators/Simple/WeightedSIMapping\lFinder.h">
<polygon fill="none" stroke="#000000" points="202,-67.5 202,-108.5 407,-108.5 407,-67.5 202,-67.5"/>
<text text-anchor="start" x="210" y="-96.5" font-family="Helvetica,sans-Serif" font-size="10.00" fill="#000000">include/enfield/Transform</text>
<text text-anchor="start" x="210" y="-85.5" font-family="Helvetica,sans-Serif" font-size="10.00" fill="#000000">/Allocators/Simple/WeightedSIMapping</text>
<text text-anchor="middle" x="304.5" y="-74.5" font-family="Helvetica,sans-Serif" font-size="10.00" fill="#000000">Finder.h</text>
</a>
</g>
</g>
<!-- Node32&#45;&gt;Node34 -->
<g id="edge2" class="edge">
<title>Node32&#45;&gt;Node34</title>
<path fill="none" stroke="#191970" d="M678.7187,-147.5713C608.3276,-137.5778 509.2145,-123.1109 422.5,-109 417.4682,-108.1812 412.3188,-107.3268 407.1203,-106.451"/>
<polygon fill="#191970" stroke="#191970" points="678.4988,-151.0751 688.8909,-149.0128 679.4809,-144.1443 678.4988,-151.0751"/>
</g>
<!-- Node37 -->
<g id="node6" class="node">
<title>Node37</title>
<g id="a_node6"><a xlink:href="../../da/d43/RandomMappingFinder_8h.xhtml" target="_top" xlink:title="include/enfield/Transform\l/Allocators/Simple/RandomMapping\lFinder.h">
<polygon fill="none" stroke="#000000" points="431.5,-67.5 431.5,-108.5 621.5,-108.5 621.5,-67.5 431.5,-67.5"/>
<text text-anchor="start" x="439.5" y="-96.5" font-family="Helvetica,sans-Serif" font-size="10.00" fill="#000000">include/enfield/Transform</text>
<text text-anchor="start" x="439.5" y="-85.5" font-family="Helvetica,sans-Serif" font-size="10.00" fill="#000000">/Allocators/Simple/RandomMapping</text>
<text text-anchor="middle" x="526.5" y="-74.5" font-family="Helvetica,sans-Serif" font-size="10.00" fill="#000000">Finder.h</text>
</a>
</g>
</g>
<!-- Node32&#45;&gt;Node37 -->
<g id="edge6" class="edge">
<title>Node32&#45;&gt;Node37</title>
<path fill="none" stroke="#191970" d="M711.1418,-142.6389C676.2146,-132.3033 632.1199,-119.2549 595.781,-108.5015"/>
<polygon fill="#191970" stroke="#191970" points="710.1537,-145.9965 720.7358,-145.478 712.14,-139.2842 710.1537,-145.9965"/>
</g>
<!-- Node39 -->
<g id="node8" class="node">
<title>Node39</title>
<g id="a_node8"><a xlink:href="../../da/d8b/IdentityMappingFinder_8h.xhtml" target="_top" xlink:title="include/enfield/Transform\l/Allocators/Simple/IdentityMapping\lFinder.h">
<polygon fill="none" stroke="#000000" points="678,-67.5 678,-108.5 865,-108.5 865,-67.5 678,-67.5"/>
<text text-anchor="start" x="686" y="-96.5" font-family="Helvetica,sans-Serif" font-size="10.00" fill="#000000">include/enfield/Transform</text>
<text text-anchor="start" x="686" y="-85.5" font-family="Helvetica,sans-Serif" font-size="10.00" fill="#000000">/Allocators/Simple/IdentityMapping</text>
<text text-anchor="middle" x="771.5" y="-74.5" font-family="Helvetica,sans-Serif" font-size="10.00" fill="#000000">Finder.h</text>
</a>
</g>
</g>
<!-- Node32&#45;&gt;Node39 -->
<g id="edge9" class="edge">
<title>Node32&#45;&gt;Node39</title>
<path fill="none" stroke="#191970" d="M771.5,-135.4016C771.5,-126.6173 771.5,-116.8652 771.5,-108.5015"/>
<polygon fill="#191970" stroke="#191970" points="768.0001,-135.4779 771.5,-145.478 775.0001,-135.478 768.0001,-135.4779"/>
</g>
<!-- Node41 -->
<g id="node10" class="node">
<title>Node41</title>
<g id="a_node10"><a xlink:href="../../dd/de8/PathGuidedSolBuilder_8h.xhtml" target="_top" xlink:title="include/enfield/Transform\l/Allocators/Simple/PathGuidedSol\lBuilder.h">
<polygon fill="none" stroke="#000000" points="883,-67.5 883,-108.5 1062,-108.5 1062,-67.5 883,-67.5"/>
<text text-anchor="start" x="891" y="-96.5" font-family="Helvetica,sans-Serif" font-size="10.00" fill="#000000">include/enfield/Transform</text>
<text text-anchor="start" x="891" y="-85.5" font-family="Helvetica,sans-Serif" font-size="10.00" fill="#000000">/Allocators/Simple/PathGuidedSol</text>
<text text-anchor="middle" x="972.5" y="-74.5" font-family="Helvetica,sans-Serif" font-size="10.00" fill="#000000">Builder.h</text>
</a>
</g>
</g>
<!-- Node32&#45;&gt;Node41 -->
<g id="edge12" class="edge">
<title>Node32&#45;&gt;Node41</title>
<path fill="none" stroke="#191970" d="M822.8654,-141.9727C851.216,-131.7467 886.4856,-119.0251 915.6613,-108.5015"/>
<polygon fill="#191970" stroke="#191970" points="821.3665,-138.7925 813.1473,-145.478 823.7417,-145.3773 821.3665,-138.7925"/>
</g>
<!-- Node43 -->
<g id="node12" class="node">
<title>Node43</title>
<g id="a_node12"><a xlink:href="../../de/d8c/QbitterSolBuilder_8h.xhtml" target="_top" xlink:title="include/enfield/Transform\l/Allocators/Simple/QbitterSolBuilder.h">
<polygon fill="none" stroke="#000000" points="1080.5,-73 1080.5,-103 1280.5,-103 1280.5,-73 1080.5,-73"/>
<text text-anchor="start" x="1088.5" y="-91" font-family="Helvetica,sans-Serif" font-size="10.00" fill="#000000">include/enfield/Transform</text>
<text text-anchor="middle" x="1180.5" y="-80" font-family="Helvetica,sans-Serif" font-size="10.00" fill="#000000">/Allocators/Simple/QbitterSolBuilder.h</text>
</a>
</g>
</g>
<!-- Node32&#45;&gt;Node43 -->
<g id="edge15" class="edge">
<title>Node32&#45;&gt;Node43</title>
<path fill="none" stroke="#191970" d="M864.1267,-145.0985C923.4622,-135.1091 1002.0804,-121.6444 1071.5,-109 1081.833,-107.1179 1092.7066,-105.0854 1103.4222,-103.0518"/>
<polygon fill="#191970" stroke="#191970" points="863.3091,-141.6868 854.0279,-146.7965 864.4698,-148.5899 863.3091,-141.6868"/>
</g>
<!-- Node45 -->
<g id="node14" class="node">
<title>Node45</title>
<g id="a_node14"><a xlink:href="../../d2/d79/SimpleQAllocator_8cpp.xhtml" target="_top" xlink:title="lib/Transform/Allocators\l/SimpleQAllocator.cpp">
<polygon fill="none" stroke="#000000" points="1298.5,-73 1298.5,-103 1432.5,-103 1432.5,-73 1298.5,-73"/>
<text text-anchor="start" x="1306.5" y="-91" font-family="Helvetica,sans-Serif" font-size="10.00" fill="#000000">lib/Transform/Allocators</text>
<text text-anchor="middle" x="1365.5" y="-80" font-family="Helvetica,sans-Serif" font-size="10.00" fill="#000000">/SimpleQAllocator.cpp</text>
</a>
</g>
</g>
<!-- Node32&#45;&gt;Node45 -->
<g id="edge18" class="edge">
<title>Node32&#45;&gt;Node45</title>
<path fill="none" stroke="#191970" d="M864.3753,-156.0465C968.5633,-149.9456 1142.2599,-136.4542 1289.5,-109 1298.1124,-107.3941 1307.1687,-105.2787 1315.9085,-103.0088"/>
<polygon fill="#191970" stroke="#191970" points="863.9843,-152.5631 854.2018,-156.6317 864.3863,-159.5516 863.9843,-152.5631"/>
</g>
<!-- Node34&#45;&gt;Node33 -->
<g id="edge3" class="edge">
<title>Node34&#45;&gt;Node33</title>
<path fill="none" stroke="#191970" d="M413.9412,-65.3946C471.059,-53.5968 539.1072,-39.5412 588.401,-29.3595"/>
<polygon fill="#191970" stroke="#191970" points="413.2289,-61.9678 404.1436,-67.4183 414.6449,-68.8231 413.2289,-61.9678"/>
</g>
<!-- Node35 -->
<g id="node4" class="node">
<title>Node35</title>
<g id="a_node4"><a xlink:href="../../d4/dd0/GreedyCktQAllocator_8cpp.xhtml" target="_top" xlink:title="lib/Transform/Allocators\l/GreedyCktQAllocator.cpp">
<polygon fill="none" stroke="#000000" points="221,-.5 221,-30.5 364,-30.5 364,-.5 221,-.5"/>
<text text-anchor="start" x="229" y="-18.5" font-family="Helvetica,sans-Serif" font-size="10.00" fill="#000000">lib/Transform/Allocators</text>
<text text-anchor="middle" x="292.5" y="-7.5" font-family="Helvetica,sans-Serif" font-size="10.00" fill="#000000">/GreedyCktQAllocator.cpp</text>
</a>
</g>
</g>
<!-- Node34&#45;&gt;Node35 -->
<g id="edge4" class="edge">
<title>Node34&#45;&gt;Node35</title>
<path fill="none" stroke="#191970" d="M299.4232,-57.3279C297.8937,-48.0871 296.2822,-38.3508 294.9992,-30.5991"/>
<polygon fill="#191970" stroke="#191970" points="296.0073,-58.1241 301.0934,-67.4183 302.9134,-56.981 296.0073,-58.1241"/>
</g>
<!-- Node36 -->
<g id="node5" class="node">
<title>Node36</title>
<g id="a_node5"><a xlink:href="../../d9/ddd/WeightedSIMappingFinder_8cpp.xhtml" target="_top" xlink:title="lib/Transform/Allocators\l/Simple/WeightedSIMappingFinder.cpp">
<polygon fill="none" stroke="#000000" points="0,-.5 0,-30.5 203,-30.5 203,-.5 0,-.5"/>
<text text-anchor="start" x="8" y="-18.5" font-family="Helvetica,sans-Serif" font-size="10.00" fill="#000000">lib/Transform/Allocators</text>
<text text-anchor="middle" x="101.5" y="-7.5" font-family="Helvetica,sans-Serif" font-size="10.00" fill="#000000">/Simple/WeightedSIMappingFinder.cpp</text>
</a>
</g>
</g>
<!-- Node34&#45;&gt;Node36 -->
<g id="edge5" class="edge">
<title>Node34&#45;&gt;Node36</title>
<path fill="none" stroke="#191970" d="M237.0558,-63.9128C206.2601,-52.9143 170.7334,-40.2262 143.7775,-30.5991"/>
<polygon fill="#191970" stroke="#191970" points="236.2767,-67.351 246.8713,-67.4183 238.6311,-60.7588 236.2767,-67.351"/>
</g>
<!-- Node37&#45;&gt;Node33 -->
<g id="edge7" class="edge">
<title>Node37&#45;&gt;Node33</title>
<path fill="none" stroke="#191970" d="M571.9163,-62.4753C590.8727,-51.8215 612.2459,-39.8095 628.634,-30.5991"/>
<polygon fill="#191970" stroke="#191970" points="570.1239,-59.4677 563.1212,-67.4183 573.5535,-65.57 570.1239,-59.4677"/>
</g>
<!-- Node38 -->
<g id="node7" class="node">
<title>Node38</title>
<g id="a_node7"><a xlink:href="../../d2/dd0/RandomMappingFinder_8cpp.xhtml" target="_top" xlink:title="lib/Transform/Allocators\l/Simple/RandomMappingFinder.cpp">
<polygon fill="none" stroke="#000000" points="382.5,-.5 382.5,-30.5 570.5,-30.5 570.5,-.5 382.5,-.5"/>
<text text-anchor="start" x="390.5" y="-18.5" font-family="Helvetica,sans-Serif" font-size="10.00" fill="#000000">lib/Transform/Allocators</text>
<text text-anchor="middle" x="476.5" y="-7.5" font-family="Helvetica,sans-Serif" font-size="10.00" fill="#000000">/Simple/RandomMappingFinder.cpp</text>
</a>
</g>
</g>
<!-- Node37&#45;&gt;Node38 -->
<g id="edge8" class="edge">
<title>Node37&#45;&gt;Node38</title>
<path fill="none" stroke="#191970" d="M506.5756,-59.1096C499.8459,-49.3516 492.6041,-38.8509 486.9132,-30.5991"/>
<polygon fill="#191970" stroke="#191970" points="503.7471,-61.1733 512.3057,-67.4183 509.5096,-57.1991 503.7471,-61.1733"/>
</g>
<!-- Node39&#45;&gt;Node33 -->
<g id="edge10" class="edge">
<title>Node39&#45;&gt;Node33</title>
<path fill="none" stroke="#191970" d="M729.9651,-62.0407C713.0935,-51.4959 694.1951,-39.6844 679.6586,-30.5991"/>
<polygon fill="#191970" stroke="#191970" points="728.2343,-65.0863 738.5693,-67.4183 731.9444,-59.1503 728.2343,-65.0863"/>
</g>
<!-- Node40 -->
<g id="node9" class="node">
<title>Node40</title>
<g id="a_node9"><a xlink:href="../../d8/dcc/IdentityMappingFinder_8cpp.xhtml" target="_top" xlink:title="lib/Transform/Allocators\l/Simple/IdentityMappingFinder.cpp">
<polygon fill="none" stroke="#000000" points="741,-.5 741,-30.5 926,-30.5 926,-.5 741,-.5"/>
<text text-anchor="start" x="749" y="-18.5" font-family="Helvetica,sans-Serif" font-size="10.00" fill="#000000">lib/Transform/Allocators</text>
<text text-anchor="middle" x="833.5" y="-7.5" font-family="Helvetica,sans-Serif" font-size="10.00" fill="#000000">/Simple/IdentityMappingFinder.cpp</text>
</a>
</g>
</g>
<!-- Node39&#45;&gt;Node40 -->
<g id="edge11" class="edge">
<title>Node39&#45;&gt;Node40</title>
<path fill="none" stroke="#191970" d="M795.7014,-59.7C804.1874,-49.7768 813.3884,-39.0176 820.5877,-30.5991"/>
<polygon fill="#191970" stroke="#191970" points="792.9402,-57.5436 789.1009,-67.4183 798.2602,-62.0931 792.9402,-57.5436"/>
</g>
<!-- Node41&#45;&gt;Node33 -->
<g id="edge13" class="edge">
<title>Node41&#45;&gt;Node33</title>
<path fill="none" stroke="#191970" d="M873.1512,-65.2783C823.6142,-53.9488 765.0776,-40.5611 721.1939,-30.5246"/>
<polygon fill="#191970" stroke="#191970" points="872.403,-68.6974 882.9316,-67.5151 873.9637,-61.8736 872.403,-68.6974"/>
</g>
<!-- Node42 -->
<g id="node11" class="node">
<title>Node42</title>
<g id="a_node11"><a xlink:href="../../d3/d84/PathGuidedSolBuilder_8cpp.xhtml" target="_top" xlink:title="lib/Transform/Allocators\l/Simple/PathGuidedSolBuilder.cpp">
<polygon fill="none" stroke="#000000" points="944.5,-.5 944.5,-30.5 1126.5,-30.5 1126.5,-.5 944.5,-.5"/>
<text text-anchor="start" x="952.5" y="-18.5" font-family="Helvetica,sans-Serif" font-size="10.00" fill="#000000">lib/Transform/Allocators</text>
<text text-anchor="middle" x="1035.5" y="-7.5" font-family="Helvetica,sans-Serif" font-size="10.00" fill="#000000">/Simple/PathGuidedSolBuilder.cpp</text>
</a>
</g>
</g>
<!-- Node41&#45;&gt;Node42 -->
<g id="edge14" class="edge">
<title>Node41&#45;&gt;Node42</title>
<path fill="none" stroke="#191970" d="M997.0917,-59.7C1005.7146,-49.7768 1015.064,-39.0176 1022.3794,-30.5991"/>
<polygon fill="#191970" stroke="#191970" points="994.3021,-57.5743 990.3848,-67.4183 999.5859,-62.1658 994.3021,-57.5743"/>
</g>
<!-- Node43&#45;&gt;Node33 -->
<g id="edge16" class="edge">
<title>Node43&#45;&gt;Node33</title>
<path fill="none" stroke="#191970" d="M1097.0023,-71.1651C1088.4064,-69.6563 1079.7886,-68.235 1071.5,-67 921.2033,-44.6062 881.6729,-54.2095 731.5,-31 728.5722,-30.5475 725.5864,-30.0583 722.5741,-29.5421"/>
<polygon fill="#191970" stroke="#191970" points="1096.6011,-74.6489 1107.0621,-72.9704 1097.8376,-67.759 1096.6011,-74.6489"/>
</g>
<!-- Node44 -->
<g id="node13" class="node">
<title>Node44</title>
<g id="a_node13"><a xlink:href="../../db/de4/QbitterSolBuilder_8cpp.xhtml" target="_top" xlink:title="lib/Transform/Allocators\l/Simple/QbitterSolBuilder.cpp">
<polygon fill="none" stroke="#000000" points="1144.5,-.5 1144.5,-30.5 1304.5,-30.5 1304.5,-.5 1144.5,-.5"/>
<text text-anchor="start" x="1152.5" y="-18.5" font-family="Helvetica,sans-Serif" font-size="10.00" fill="#000000">lib/Transform/Allocators</text>
<text text-anchor="middle" x="1224.5" y="-7.5" font-family="Helvetica,sans-Serif" font-size="10.00" fill="#000000">/Simple/QbitterSolBuilder.cpp</text>
</a>
</g>
</g>
<!-- Node43&#45;&gt;Node44 -->
<g id="edge17" class="edge">
<title>Node43&#45;&gt;Node44</title>
<path fill="none" stroke="#191970" d="M1194.9559,-64.1807C1201.6903,-53.0842 1209.4978,-40.2196 1215.3949,-30.5028"/>
<polygon fill="#191970" stroke="#191970" points="1191.813,-62.6132 1189.6168,-72.978 1197.7972,-66.245 1191.813,-62.6132"/>
</g>
</g>
</svg>
