<?xml version="1.0" encoding="UTF-8" standalone="no"?>
<!DOCTYPE svg PUBLIC "-//W3C//DTD SVG 1.1//EN"
 "http://www.w3.org/Graphics/SVG/1.1/DTD/svg11.dtd">
<!-- Generated by graphviz version 2.40.1 (20161225.0304)
 -->
<!-- Title: efd::PathGuidedSolBuilder::build Pages: 1 -->
<svg width="355pt" height="154pt"
 viewBox="0.00 0.00 355.00 153.50" xmlns="http://www.w3.org/2000/svg" xmlns:xlink="http://www.w3.org/1999/xlink">
<g id="graph0" class="graph" transform="scale(1 1) rotate(0) translate(4 149.5)">
<title>efd::PathGuidedSolBuilder::build</title>
<!-- Node0 -->
<g id="node1" class="node">
<title>Node0</title>
<polygon fill="#bfbfbf" stroke="#000000" points="0,-52 0,-82 144,-82 144,-52 0,-52"/>
<text text-anchor="start" x="8" y="-70" font-family="Helvetica,sans-Serif" font-size="10.00" fill="#000000">efd::PathGuidedSolBuilder</text>
<text text-anchor="middle" x="72" y="-59" font-family="Helvetica,sans-Serif" font-size="10.00" fill="#000000">::build</text>
</g>
<!-- Node1 -->
<g id="node2" class="node">
<title>Node1</title>
<g id="a_node2"><a xlink:href="../../d8/d45/classefd_1_1BFSPathFinder.xhtml#a795602a2f10b312f8917cf0ed4122834" target="_top" xlink:title="Creates one instance of this finder. ">
<polygon fill="none" stroke="#000000" points="209.5,-115 209.5,-145 317.5,-145 317.5,-115 209.5,-115"/>
<text text-anchor="start" x="217.5" y="-133" font-family="Helvetica,sans-Serif" font-size="10.00" fill="#000000">efd::BFSPathFinder</text>
<text text-anchor="middle" x="263.5" y="-122" font-family="Helvetica,sans-Serif" font-size="10.00" fill="#000000">::Create</text>
</a>
</g>
</g>
<!-- Node0&#45;&gt;Node1 -->
<g id="edge1" class="edge">
<title>Node0&#45;&gt;Node1</title>
<path fill="none" stroke="#191970" d="M113.3849,-82.0783C133.4265,-89.2477 157.8857,-97.8035 180,-105 187.1037,-107.3117 194.5728,-109.6615 202.0022,-111.9488"/>
<polygon fill="#191970" stroke="#191970" points="201.1259,-115.3406 211.712,-114.9111 203.1686,-108.6453 201.1259,-115.3406"/>
</g>
<!-- Node2 -->
<g id="node3" class="node">
<title>Node2</title>
<g id="a_node3"><a xlink:href="../../d4/deb/namespaceefd.xhtml#adb4ffc373d7273aefb15d2f9dcd4aeb4" target="_top" xlink:title="Generates an assignment mapping (maps the architecture&#39;s qubits to the logical ones) of size archQ...">
<polygon fill="none" stroke="#000000" points="209.5,-76.5 209.5,-95.5 317.5,-95.5 317.5,-76.5 209.5,-76.5"/>
<text text-anchor="middle" x="263.5" y="-83.5" font-family="Helvetica,sans-Serif" font-size="10.00" fill="#000000">efd::InvertMapping</text>
</a>
</g>
</g>
<!-- Node0&#45;&gt;Node2 -->
<g id="edge2" class="edge">
<title>Node0&#45;&gt;Node2</title>
<path fill="none" stroke="#191970" d="M144.1251,-74.156C162.2055,-75.9499 181.4847,-77.8627 199.1584,-79.6162"/>
<polygon fill="#191970" stroke="#191970" points="199.061,-83.1237 209.3577,-80.6282 199.7522,-76.1579 199.061,-83.1237"/>
</g>
<!-- Node3 -->
<g id="node4" class="node">
<title>Node3</title>
<g id="a_node4"><a xlink:href="../../d5/dae/classefd_1_1ArchGraph.xhtml#a10786b155e3d2d397b9d94227080155a" target="_top" xlink:title="Returns true if the edge (i, j) is a reverse edge. i.e.: if (i, j) is not in the graph, but (j, i) is. ">
<polygon fill="none" stroke="#000000" points="180,-38.5 180,-57.5 347,-57.5 347,-38.5 180,-38.5"/>
<text text-anchor="middle" x="263.5" y="-45.5" font-family="Helvetica,sans-Serif" font-size="10.00" fill="#000000">efd::ArchGraph::isReverseEdge</text>
</a>
</g>
</g>
<!-- Node0&#45;&gt;Node3 -->
<g id="edge3" class="edge">
<title>Node0&#45;&gt;Node3</title>
<path fill="none" stroke="#191970" d="M144.1251,-59.844C152.5076,-59.0123 161.1478,-58.155 169.7663,-57.3"/>
<polygon fill="#191970" stroke="#191970" points="170.2512,-60.7691 179.8568,-56.2988 169.5601,-53.8033 170.2512,-60.7691"/>
</g>
<!-- Node4 -->
<g id="node5" class="node">
<title>Node4</title>
<g id="a_node5"><a xlink:href="../../db/db3/classefd_1_1Graph.xhtml#aa85ea20ad74d6a7df7a52c13a9fabe2d" target="_top" xlink:title="Return the number of vertices. ">
<polygon fill="none" stroke="#000000" points="217,-.5 217,-19.5 310,-19.5 310,-.5 217,-.5"/>
<text text-anchor="middle" x="263.5" y="-7.5" font-family="Helvetica,sans-Serif" font-size="10.00" fill="#000000">efd::Graph::size</text>
</a>
</g>
</g>
<!-- Node0&#45;&gt;Node4 -->
<g id="edge4" class="edge">
<title>Node0&#45;&gt;Node4</title>
<path fill="none" stroke="#191970" d="M111.4,-51.9151C131.7111,-44.4514 156.9881,-35.6428 180,-29 188.8114,-26.4564 198.2246,-24.0355 207.4382,-21.8257"/>
<polygon fill="#191970" stroke="#191970" points="208.3791,-25.2002 217.3194,-19.515 206.7851,-18.384 208.3791,-25.2002"/>
</g>
</g>
</svg>
