<?xml version="1.0" encoding="UTF-8" standalone="no"?>
<!DOCTYPE svg PUBLIC "-//W3C//DTD SVG 1.1//EN"
 "http://www.w3.org/Graphics/SVG/1.1/DTD/svg11.dtd">
<!-- Generated by graphviz version 2.38.0 (20140413.2041)
 -->
<!-- Title: efd::PathGuidedSolBuilder::build Pages: 1 -->
<!--zoomable 470 -->
<svg id="main" version="1.1" xmlns="http://www.w3.org/2000/svg" xmlns:xlink="http://www.w3.org/1999/xlink" xml:space="preserve" onload="init(evt)">
<style type="text/css"><![CDATA[
.edge:hover path { stroke: red; }
.edge:hover polygon { stroke: red; fill: red; }
]]></style>
<script type="text/javascript"><![CDATA[
var edges = document.getElementsByTagName('g');
if (edges && edges.length) {
  for (var i=0;i<edges.length;i++) {
    if (edges[i].id.substr(0,4)=='edge') {
      edges[i].setAttribute('class','edge');
    }
  }
}
]]></script>
        <defs>
                <circle id="rim" cx="0" cy="0" r="7"/>
                <circle id="rim2" cx="0" cy="0" r="3.5"/>
                <g id="zoomPlus">
                        <use xlink:href="#rim" fill="#404040">
                                <set attributeName="fill" to="#808080" begin="zoomplus.mouseover" end="zoomplus.mouseout"/>
                        </use>
                        <path d="M-4,0h8M0,-4v8" fill="none" stroke="white" stroke-width="1.5" pointer-events="none"/>
                </g>
                <g id="zoomMin">
                        <use xlink:href="#rim" fill="#404040">
                                <set attributeName="fill" to="#808080" begin="zoomminus.mouseover" end="zoomminus.mouseout"/>
                        </use>
                        <path d="M-4,0h8" fill="none" stroke="white" stroke-width="1.5" pointer-events="none"/>
                </g>
                <g id="dirArrow">
                        <path fill="none" stroke="white" stroke-width="1.5" d="M0,-3.0v7 M-2.5,-0.5L0,-3.0L2.5,-0.5"/>
                </g>
               <g id="resetDef">
                       <use xlink:href="#rim2" fill="#404040">
                               <set attributeName="fill" to="#808080" begin="reset.mouseover" end="reset.mouseout"/>
                       </use>
               </g>
        </defs>

<script type="text/javascript">
var viewWidth = 469;
var viewHeight = 470;
var sectionId = 'dynsection-2';
</script>
<script xlink:href="../../svgpan.js"/>
<svg id="graph" class="graph">
<g id="viewport">
<title>efd::PathGuidedSolBuilder::build</title>
<!-- Node0 -->
<g id="node1" class="node"><title>Node0</title>
<polygon fill="#bfbfbf" stroke="black" points="0,-216 0,-246 131,-246 131,-216 0,-216"/>
<text text-anchor="start" x="8" y="-234" font-family="Helvetica,sans-Serif" font-size="10.00">efd::PathGuidedSolBuilder</text>
<text text-anchor="middle" x="65.5" y="-223" font-family="Helvetica,sans-Serif" font-size="10.00">::build</text>
</g>
<!-- Node1 -->
<g id="node2" class="node"><title>Node1</title>
<g id="a_node2"><a xlink:href="../../d8/d45/classefd_1_1BFSPathFinder.xhtml#a795602a2f10b312f8917cf0ed4122834" target="_top" xlink:title="Creates one instance of this finder. ">
<polygon fill="none" stroke="black" points="193,-431 193,-461 296,-461 296,-431 193,-431"/>
<text text-anchor="start" x="201" y="-449" font-family="Helvetica,sans-Serif" font-size="10.00">efd::BFSPathFinder</text>
<text text-anchor="middle" x="244.5" y="-438" font-family="Helvetica,sans-Serif" font-size="10.00">::Create</text>
</a>
</g>
</g>
<!-- Node0&#45;&gt;Node1 -->
<g id="edge1" class="edge"><title>Node0&#45;&gt;Node1</title>
<path fill="none" stroke="midnightblue" d="M70.261,-246.047C79.9609,-281.767 109.207,-372.316 167,-421 171.909,-425.135 177.519,-428.591 183.422,-431.479"/>
<polygon fill="midnightblue" stroke="midnightblue" points="182.31,-434.811 192.878,-435.565 185.086,-428.385 182.31,-434.811"/>
</g>
<!-- Node3 -->
<g id="node4" class="node"><title>Node3</title>
<g id="a_node4"><a xlink:href="../../d1/df1/classefd_1_1PathFinder.xhtml#a0fdddf7200df832f1c10913c9b0f7207" target="_top" xlink:title="Searches for a path from u to v in the graph g. ">
<polygon fill="none" stroke="black" points="192,-392.5 192,-411.5 297,-411.5 297,-392.5 192,-392.5"/>
<text text-anchor="middle" x="244.5" y="-399.5" font-family="Helvetica,sans-Serif" font-size="10.00">efd::PathFinder::find</text>
</a>
</g>
</g>
<!-- Node0&#45;&gt;Node3 -->
<g id="edge3" class="edge"><title>Node0&#45;&gt;Node3</title>
<path fill="none" stroke="midnightblue" d="M72.1283,-246.239C84.3495,-277.131 116.356,-347.224 167,-383 171.611,-386.257 176.722,-388.958 182.052,-391.197"/>
<polygon fill="midnightblue" stroke="midnightblue" points="181.229,-394.622 191.823,-394.749 183.621,-388.043 181.229,-394.622"/>
</g>
<!-- Node4 -->
<g id="node5" class="node"><title>Node4</title>
<g id="a_node5"><a xlink:href="../../d4/deb/namespaceefd.xhtml#a5b9a652c9403e0dbe7115d9d7f5e7d62" target="_top" xlink:title="Generates an assignment mapping (maps the architecture&#39;s qubits to the logical ones) of size archQ...">
<polygon fill="none" stroke="black" points="191.5,-354.5 191.5,-373.5 297.5,-373.5 297.5,-354.5 191.5,-354.5"/>
<text text-anchor="middle" x="244.5" y="-361.5" font-family="Helvetica,sans-Serif" font-size="10.00">efd::GenAssignment</text>
</a>
</g>
</g>
<!-- Node0&#45;&gt;Node4 -->
<g id="edge4" class="edge"><title>Node0&#45;&gt;Node4</title>
<path fill="none" stroke="midnightblue" d="M75.5251,-246.195C91.0087,-270.887 125.056,-319.523 167,-345 171.49,-347.727 176.354,-350.064 181.379,-352.066"/>
<polygon fill="midnightblue" stroke="midnightblue" points="180.588,-355.498 191.183,-355.517 182.913,-348.895 180.588,-355.498"/>
</g>
<!-- Node6 -->
<g id="node7" class="node"><title>Node6</title>
<g id="a_node7"><a xlink:href="../../d8/db9/classefd_1_1BitOptions.xhtml#a7a46d7d9a192e778e1d3c4094ab6935a" target="_top" xlink:title="Gets the value related to the bit that option represents. ">
<polygon fill="none" stroke="black" points="194,-316.5 194,-335.5 295,-335.5 295,-316.5 194,-316.5"/>
<text text-anchor="middle" x="244.5" y="-323.5" font-family="Helvetica,sans-Serif" font-size="10.00">efd::BitOptions::get</text>
</a>
</g>
</g>
<!-- Node0&#45;&gt;Node6 -->
<g id="edge6" class="edge"><title>Node0&#45;&gt;Node6</title>
<path fill="none" stroke="midnightblue" d="M82.2057,-246.154C100.918,-263.383 133.836,-291.165 167,-307 172.38,-309.569 178.144,-311.813 184.005,-313.77"/>
<polygon fill="midnightblue" stroke="midnightblue" points="183.326,-317.222 193.912,-316.797 185.371,-310.527 183.326,-317.222"/>
</g>
<!-- Node7 -->
<g id="node8" class="node"><title>Node7</title>
<g id="a_node8"><a xlink:href="../../d6/d1d/classefd_1_1Stat.xhtml#a080a49d5ae6f48b13fc26d33a4b14f34" target="_top" xlink:title="Gets a copy of the value stored. ">
<polygon fill="none" stroke="black" points="200.5,-278.5 200.5,-297.5 288.5,-297.5 288.5,-278.5 200.5,-278.5"/>
<text text-anchor="middle" x="244.5" y="-285.5" font-family="Helvetica,sans-Serif" font-size="10.00">efd::Stat::getVal</text>
</a>
</g>
</g>
<!-- Node0&#45;&gt;Node7 -->
<g id="edge7" class="edge"><title>Node0&#45;&gt;Node7</title>
<path fill="none" stroke="midnightblue" d="M103.363,-246.134C122.214,-253.566 145.632,-262.332 167,-269 174.801,-271.434 183.126,-273.767 191.305,-275.913"/>
<polygon fill="midnightblue" stroke="midnightblue" points="190.61,-279.347 201.165,-278.432 192.342,-272.565 190.61,-279.347"/>
</g>
<!-- Node8 -->
<g id="node9" class="node"><title>Node8</title>
<g id="a_node9"><a xlink:href="../../de/d50/classefd_1_1Opt.xhtml#af670a67c3fd6e0c5cbea732b3749fb14" target="_top" xlink:title="Gets a const reference to the value of this command line option. ">
<polygon fill="none" stroke="black" points="201.5,-240.5 201.5,-259.5 287.5,-259.5 287.5,-240.5 201.5,-240.5"/>
<text text-anchor="middle" x="244.5" y="-247.5" font-family="Helvetica,sans-Serif" font-size="10.00">efd::Opt::getVal</text>
</a>
</g>
</g>
<!-- Node0&#45;&gt;Node8 -->
<g id="edge8" class="edge"><title>Node0&#45;&gt;Node8</title>
<path fill="none" stroke="midnightblue" d="M131.152,-237.94C150.9,-240.06 172.36,-242.364 191.182,-244.384"/>
<polygon fill="midnightblue" stroke="midnightblue" points="191.023,-247.887 201.34,-245.474 191.771,-240.927 191.023,-247.887"/>
</g>
<!-- Node9 -->
<g id="node10" class="node"><title>Node9</title>
<g id="a_node10"><a xlink:href="../../db/db3/classefd_1_1Graph.xhtml#aace719bbdaaef0e8787f8a0032a676d8" target="_top" xlink:title="Returns true whether it has an edge (i, j). ">
<polygon fill="none" stroke="black" points="191,-202.5 191,-221.5 298,-221.5 298,-202.5 191,-202.5"/>
<text text-anchor="middle" x="244.5" y="-209.5" font-family="Helvetica,sans-Serif" font-size="10.00">efd::Graph::hasEdge</text>
</a>
</g>
</g>
<!-- Node0&#45;&gt;Node9 -->
<g id="edge9" class="edge"><title>Node0&#45;&gt;Node9</title>
<path fill="none" stroke="midnightblue" d="M131.152,-224.06C147.273,-222.329 164.535,-220.476 180.572,-218.755"/>
<polygon fill="midnightblue" stroke="midnightblue" points="181.339,-222.193 190.908,-217.645 180.592,-215.233 181.339,-222.193"/>
</g>
<!-- Node11 -->
<g id="node12" class="node"><title>Node11</title>
<g id="a_node12"><a xlink:href="../../d5/dae/classefd_1_1ArchGraph.xhtml#a10786b155e3d2d397b9d94227080155a" target="_top" xlink:title="Returns true if the edge (i, j) is a reverse edge. i.e.: if (i, j) is not in the graph, but (j, i) is. ">
<polygon fill="none" stroke="black" points="167,-164.5 167,-183.5 322,-183.5 322,-164.5 167,-164.5"/>
<text text-anchor="middle" x="244.5" y="-171.5" font-family="Helvetica,sans-Serif" font-size="10.00">efd::ArchGraph::isReverseEdge</text>
</a>
</g>
</g>
<!-- Node0&#45;&gt;Node11 -->
<g id="edge11" class="edge"><title>Node0&#45;&gt;Node11</title>
<path fill="none" stroke="midnightblue" d="M103.363,-215.866C122.214,-208.434 145.632,-199.668 167,-193 174.801,-190.566 183.126,-188.233 191.305,-186.087"/>
<polygon fill="midnightblue" stroke="midnightblue" points="192.342,-189.435 201.165,-183.568 190.61,-182.653 192.342,-189.435"/>
</g>
<!-- Node12 -->
<g id="node13" class="node"><title>Node12</title>
<g id="a_node13"><a xlink:href="../../d6/d1d/classefd_1_1Stat.xhtml#a2febb473f64f46e3b63b29713bb78b30" target="_top" xlink:title="efd::Stat::operator+=">
<polygon fill="none" stroke="black" points="191,-126.5 191,-145.5 298,-145.5 298,-126.5 191,-126.5"/>
<text text-anchor="middle" x="244.5" y="-133.5" font-family="Helvetica,sans-Serif" font-size="10.00">efd::Stat::operator+=</text>
</a>
</g>
</g>
<!-- Node0&#45;&gt;Node12 -->
<g id="edge12" class="edge"><title>Node0&#45;&gt;Node12</title>
<path fill="none" stroke="midnightblue" d="M82.2057,-215.846C100.918,-198.617 133.836,-170.835 167,-155 172.017,-152.605 177.368,-150.491 182.821,-148.63"/>
<polygon fill="midnightblue" stroke="midnightblue" points="184.193,-151.868 192.696,-145.547 182.107,-145.186 184.193,-151.868"/>
</g>
<!-- Node13 -->
<g id="node14" class="node"><title>Node13</title>
<g id="a_node14"><a xlink:href="../../d6/d1d/classefd_1_1Stat.xhtml#aa8ec5fbc5d1199f264fdc3e95bd3f659" target="_top" xlink:title="efd::Stat::operator/=">
<polygon fill="none" stroke="black" points="192.5,-88.5 192.5,-107.5 296.5,-107.5 296.5,-88.5 192.5,-88.5"/>
<text text-anchor="middle" x="244.5" y="-95.5" font-family="Helvetica,sans-Serif" font-size="10.00">efd::Stat::operator/=</text>
</a>
</g>
</g>
<!-- Node0&#45;&gt;Node13 -->
<g id="edge13" class="edge"><title>Node0&#45;&gt;Node13</title>
<path fill="none" stroke="midnightblue" d="M75.5251,-215.805C91.0087,-191.113 125.056,-142.477 167,-117 171.945,-113.996 177.344,-111.466 182.911,-109.336"/>
<polygon fill="midnightblue" stroke="midnightblue" points="184.048,-112.646 192.389,-106.114 181.795,-106.019 184.048,-112.646"/>
</g>
<!-- Node14 -->
<g id="node15" class="node"><title>Node14</title>
<g id="a_node15"><a xlink:href="../../d1/dca/structefd_1_1Dependencies.xhtml#a44ff7c580f8709701e476adb60daa220" target="_top" xlink:title="Forwards to the mDeps attribute. ">
<polygon fill="none" stroke="black" points="192.5,-39 192.5,-69 296.5,-69 296.5,-39 192.5,-39"/>
<text text-anchor="start" x="200.5" y="-57" font-family="Helvetica,sans-Serif" font-size="10.00">efd::Dependencies::</text>
<text text-anchor="middle" x="244.5" y="-46" font-family="Helvetica,sans-Serif" font-size="10.00">operator[]</text>
</a>
</g>
</g>
<!-- Node0&#45;&gt;Node14 -->
<g id="edge14" class="edge"><title>Node0&#45;&gt;Node14</title>
<path fill="none" stroke="midnightblue" d="M72.542,-215.592C85.3063,-185.013 117.936,-116.394 167,-79 171.77,-75.3647 177.091,-72.2456 182.644,-69.5719"/>
<polygon fill="midnightblue" stroke="midnightblue" points="184.35,-72.648 192.152,-65.4801 181.583,-66.2181 184.35,-72.648"/>
</g>
<!-- Node15 -->
<g id="node16" class="node"><title>Node15</title>
<g id="a_node16"><a xlink:href="../../db/db3/classefd_1_1Graph.xhtml#aa85ea20ad74d6a7df7a52c13a9fabe2d" target="_top" xlink:title="Return the number of vertices. ">
<polygon fill="none" stroke="black" points="201.5,-0.5 201.5,-19.5 287.5,-19.5 287.5,-0.5 201.5,-0.5"/>
<text text-anchor="middle" x="244.5" y="-7.5" font-family="Helvetica,sans-Serif" font-size="10.00">efd::Graph::size</text>
</a>
</g>
</g>
<!-- Node0&#45;&gt;Node15 -->
<g id="edge15" class="edge"><title>Node0&#45;&gt;Node15</title>
<path fill="none" stroke="midnightblue" d="M69.5419,-215.971C77.9363,-178.484 105.033,-80.2571 167,-30 174.125,-24.2213 182.743,-20.0967 191.59,-17.1564"/>
<polygon fill="midnightblue" stroke="midnightblue" points="192.563,-20.5185 201.219,-14.4085 190.642,-13.7872 192.563,-20.5185"/>
</g>
<!-- Node2 -->
<g id="node3" class="node"><title>Node2</title>
<g id="a_node3"><a xlink:href="../../d8/d45/classefd_1_1BFSPathFinder.xhtml#a576be3bbb9c43840eea330b7035159a9" target="_top" xlink:title="efd::BFSPathFinder\l::BFSPathFinder">
<polygon fill="none" stroke="black" points="358,-431 358,-461 461,-461 461,-431 358,-431"/>
<text text-anchor="start" x="366" y="-449" font-family="Helvetica,sans-Serif" font-size="10.00">efd::BFSPathFinder</text>
<text text-anchor="middle" x="409.5" y="-438" font-family="Helvetica,sans-Serif" font-size="10.00">::BFSPathFinder</text>
</a>
</g>
</g>
<!-- Node1&#45;&gt;Node2 -->
<g id="edge2" class="edge"><title>Node1&#45;&gt;Node2</title>
<path fill="none" stroke="midnightblue" d="M296.181,-446C312.433,-446 330.603,-446 347.513,-446"/>
<polygon fill="midnightblue" stroke="midnightblue" points="347.851,-449.5 357.851,-446 347.851,-442.5 347.851,-449.5"/>
</g>
<!-- Node5 -->
<g id="node6" class="node"><title>Node5</title>
<g id="a_node6"><a xlink:href="../../d4/deb/namespaceefd.xhtml#a35884a2adaf86bf35e7e3f1f65acc522" target="_top" xlink:title="efd::Fill">
<polygon fill="none" stroke="black" points="385,-354.5 385,-373.5 434,-373.5 434,-354.5 385,-354.5"/>
<text text-anchor="middle" x="409.5" y="-361.5" font-family="Helvetica,sans-Serif" font-size="10.00">efd::Fill</text>
</a>
</g>
</g>
<!-- Node4&#45;&gt;Node5 -->
<g id="edge5" class="edge"><title>Node4&#45;&gt;Node5</title>
<path fill="none" stroke="midnightblue" d="M297.522,-364C322.664,-364 352.13,-364 374.38,-364"/>
<polygon fill="midnightblue" stroke="midnightblue" points="374.672,-367.5 384.672,-364 374.672,-360.5 374.672,-367.5"/>
</g>
<!-- Node10 -->
<g id="node11" class="node"><title>Node10</title>
<g id="a_node11"><a xlink:href="../../db/db3/classefd_1_1Graph.xhtml#a64836ad3c96e79e02179787ce3bd42c9" target="_top" xlink:title="Return the set of succesors of some vertex i. ">
<polygon fill="none" stroke="black" points="365,-202.5 365,-221.5 454,-221.5 454,-202.5 365,-202.5"/>
<text text-anchor="middle" x="409.5" y="-209.5" font-family="Helvetica,sans-Serif" font-size="10.00">efd::Graph::succ</text>
</a>
</g>
</g>
<!-- Node9&#45;&gt;Node10 -->
<g id="edge10" class="edge"><title>Node9&#45;&gt;Node10</title>
<path fill="none" stroke="midnightblue" d="M298.421,-212C316.456,-212 336.628,-212 354.728,-212"/>
<polygon fill="midnightblue" stroke="midnightblue" points="354.828,-215.5 364.828,-212 354.828,-208.5 354.828,-215.5"/>
</g>
</g>
</svg>
        <g id="navigator" transform="translate(0 0)" fill="#404254">
                <rect fill="#f2f5e9" fill-opacity="0.5" stroke="#606060" stroke-width=".5" x="0" y="0" width="60" height="60"/>
                <use id="zoomplus" xlink:href="#zoomPlus" x="17" y="9" onmousedown="handleZoom(evt,'in')"/>
                <use id="zoomminus" xlink:href="#zoomMin" x="42" y="9" onmousedown="handleZoom(evt,'out')"/>
                <use id="reset" xlink:href="#resetDef" x="30" y="36" onmousedown="handleReset()"/>
                <g id="arrowUp" xlink:href="#dirArrow" transform="translate(30 24)" onmousedown="handlePan(0,-1)">
                  <use xlink:href="#rim" fill="#404040">
                        <set attributeName="fill" to="#808080" begin="arrowUp.mouseover" end="arrowUp.mouseout"/>
                  </use>
                  <path fill="none" stroke="white" stroke-width="1.5" d="M0,-3.0v7 M-2.5,-0.5L0,-3.0L2.5,-0.5"/>
                </g>
                <g id="arrowRight" xlink:href="#dirArrow" transform="rotate(90) translate(36 -43)" onmousedown="handlePan(1,0)">
                  <use xlink:href="#rim" fill="#404040">
                        <set attributeName="fill" to="#808080" begin="arrowRight.mouseover" end="arrowRight.mouseout"/>
                  </use>
                  <path fill="none" stroke="white" stroke-width="1.5" d="M0,-3.0v7 M-2.5,-0.5L0,-3.0L2.5,-0.5"/>
                </g>
                <g id="arrowDown" xlink:href="#dirArrow" transform="rotate(180) translate(-30 -48)" onmousedown="handlePan(0,1)">
                  <use xlink:href="#rim" fill="#404040">
                        <set attributeName="fill" to="#808080" begin="arrowDown.mouseover" end="arrowDown.mouseout"/>
                  </use>
                  <path fill="none" stroke="white" stroke-width="1.5" d="M0,-3.0v7 M-2.5,-0.5L0,-3.0L2.5,-0.5"/>
                </g>
                <g id="arrowLeft" xlink:href="#dirArrow" transform="rotate(270) translate(-36 17)" onmousedown="handlePan(-1,0)">
                  <use xlink:href="#rim" fill="#404040">
                        <set attributeName="fill" to="#808080" begin="arrowLeft.mouseover" end="arrowLeft.mouseout"/>
                  </use>
                  <path fill="none" stroke="white" stroke-width="1.5" d="M0,-3.0v7 M-2.5,-0.5L0,-3.0L2.5,-0.5"/>
                </g>
        </g>
        <svg viewBox="0 0 15 15" width="100%" height="30px" preserveAspectRatio="xMaxYMin meet">
         <g id="arrow_out" transform="scale(0.3 0.3)">
          <a xlink:href="classefd_1_1PathGuidedSolBuilder_a84b086c52b39686558430baf87887c63_cgraph_org.svg" target="_base">
           <rect id="button" ry="5" rx="5" y="6" x="6" height="38" width="38"
                fill="#f2f5e9" fill-opacity="0.5" stroke="#606060" stroke-width="1.0"/>
           <path id="arrow"
             d="M 11.500037,31.436501 C 11.940474,20.09759 22.043105,11.32322 32.158766,21.979434 L 37.068811,17.246167 C 37.068811,17.246167 37.088388,32 37.088388,32 L 22.160133,31.978069 C 22.160133,31.978069 26.997745,27.140456 26.997745,27.140456 C 18.528582,18.264221 13.291696,25.230495 11.500037,31.436501 z"
             style="fill:#404040;"/>
          </a>
         </g>
        </svg>
</svg>
