<?xml version="1.0" encoding="UTF-8" standalone="no"?>
<!DOCTYPE svg PUBLIC "-//W3C//DTD SVG 1.1//EN"
 "http://www.w3.org/Graphics/SVG/1.1/DTD/svg11.dtd">
<!-- Generated by graphviz version 2.38.0 (20140413.2041)
 -->
<!-- Title: efd::NDQOpRevCX::NDQOpRevCX Pages: 1 -->
<svg width="824pt" height="180pt"
 viewBox="0.00 0.00 824.00 180.00" xmlns="http://www.w3.org/2000/svg" xmlns:xlink="http://www.w3.org/1999/xlink">
<g id="graph0" class="graph" transform="scale(1 1) rotate(0) translate(4 176)">
<title>efd::NDQOpRevCX::NDQOpRevCX</title>
<!-- Node0 -->
<g id="node1" class="node"><title>Node0</title>
<polygon fill="#bfbfbf" stroke="black" points="0,-76.5 0,-95.5 177,-95.5 177,-76.5 0,-76.5"/>
<text text-anchor="middle" x="88.5" y="-83.5" font-family="Helvetica,sans-Serif" font-size="10.00">efd::NDQOpRevCX::NDQOpRevCX</text>
</g>
<!-- Node1 -->
<g id="node2" class="node"><title>Node1</title>
<g id="a_node2"><a xlink:href="../../da/ddd/classefd_1_1NDList.xhtml#a664c2f4a60746612062d7b112ff9842e" target="_top" xlink:title="Appends a child to the end of the list. ">
<polygon fill="none" stroke="black" points="399,-152.5 399,-171.5 510,-171.5 510,-152.5 399,-152.5"/>
<text text-anchor="middle" x="454.5" y="-159.5" font-family="Helvetica,sans-Serif" font-size="10.00">efd::NDList::addChild</text>
</a>
</g>
</g>
<!-- Node0&#45;&gt;Node1 -->
<g id="edge1" class="edge"><title>Node0&#45;&gt;Node1</title>
<path fill="none" stroke="midnightblue" d="M105.583,-95.6902C128.511,-108.966 172.332,-132.372 213,-143 271.072,-158.176 339.492,-162.316 388.477,-163.019"/>
<polygon fill="midnightblue" stroke="midnightblue" points="388.59,-166.52 398.624,-163.119 388.659,-159.52 388.59,-166.52"/>
</g>
<!-- Node3 -->
<g id="node4" class="node"><title>Node3</title>
<g id="a_node4"><a xlink:href="../../df/d1b/classefd_1_1NDValue.xhtml#a96ab9dcd008523aa2f4cfc2eb95d7178" target="_top" xlink:title="Creates a new instance of this node. ">
<polygon fill="none" stroke="black" points="232,-114.5 232,-133.5 343,-133.5 343,-114.5 232,-114.5"/>
<text text-anchor="middle" x="287.5" y="-121.5" font-family="Helvetica,sans-Serif" font-size="10.00">efd::NDValue::Create</text>
</a>
</g>
</g>
<!-- Node0&#45;&gt;Node3 -->
<g id="edge3" class="edge"><title>Node0&#45;&gt;Node3</title>
<path fill="none" stroke="midnightblue" d="M138.957,-95.54C165.654,-100.69 198.804,-107.084 226.915,-112.506"/>
<polygon fill="midnightblue" stroke="midnightblue" points="226.541,-115.999 237.023,-114.456 227.866,-109.125 226.541,-115.999"/>
</g>
<!-- Node4 -->
<g id="node5" class="node"><title>Node4</title>
<g id="a_node5"><a xlink:href="../../da/ddd/classefd_1_1NDList.xhtml#a5e3e2ab6234caa816599eb51766210b7" target="_top" xlink:title="Creates a new instance of this node with the kind K_LIST. ">
<polygon fill="none" stroke="black" points="236.5,-0.5 236.5,-19.5 338.5,-19.5 338.5,-0.5 236.5,-0.5"/>
<text text-anchor="middle" x="287.5" y="-7.5" font-family="Helvetica,sans-Serif" font-size="10.00">efd::NDList::Create</text>
</a>
</g>
</g>
<!-- Node0&#45;&gt;Node4 -->
<g id="edge4" class="edge"><title>Node0&#45;&gt;Node4</title>
<path fill="none" stroke="midnightblue" d="M107.484,-76.4516C131.154,-64.1775 174.3,-42.8067 213,-29 219.827,-26.5642 227.114,-24.2981 234.347,-22.2411"/>
<polygon fill="midnightblue" stroke="midnightblue" points="235.404,-25.5806 244.129,-19.5695 233.56,-18.8279 235.404,-25.5806"/>
</g>
<!-- Node9 -->
<g id="node10" class="node"><title>Node9</title>
<g id="a_node10"><a xlink:href="../../dd/d94/classefd_1_1NDQOp.xhtml#af7ef43289355c5bb047a46419177c8ed" target="_top" xlink:title="Gets the quantum arguments. ">
<polygon fill="none" stroke="black" points="228,-38.5 228,-57.5 347,-57.5 347,-38.5 228,-38.5"/>
<text text-anchor="middle" x="287.5" y="-45.5" font-family="Helvetica,sans-Serif" font-size="10.00">efd::NDQOp::getQArgs</text>
</a>
</g>
</g>
<!-- Node0&#45;&gt;Node9 -->
<g id="edge9" class="edge"><title>Node0&#45;&gt;Node9</title>
<path fill="none" stroke="midnightblue" d="M138.957,-76.46C165.654,-71.3104 198.804,-64.916 226.915,-59.4935"/>
<polygon fill="midnightblue" stroke="midnightblue" points="227.866,-62.8746 237.023,-57.5439 226.541,-56.0013 227.866,-62.8746"/>
</g>
<!-- Node11 -->
<g id="node12" class="node"><title>Node11</title>
<g id="a_node12"><a xlink:href="../../d2/dff/classefd_1_1NDQOpGen.xhtml#a2334f46b3e6d6b273409f5b9a7181e0b" target="_top" xlink:title="efd::NDQOpGen::NDQOpGen">
<polygon fill="none" stroke="black" points="213,-76.5 213,-95.5 362,-95.5 362,-76.5 213,-76.5"/>
<text text-anchor="middle" x="287.5" y="-83.5" font-family="Helvetica,sans-Serif" font-size="10.00">efd::NDQOpGen::NDQOpGen</text>
</a>
</g>
</g>
<!-- Node0&#45;&gt;Node11 -->
<g id="edge11" class="edge"><title>Node0&#45;&gt;Node11</title>
<path fill="none" stroke="midnightblue" d="M177.054,-86C185.529,-86 194.113,-86 202.551,-86"/>
<polygon fill="midnightblue" stroke="midnightblue" points="202.755,-89.5001 212.755,-86 202.755,-82.5001 202.755,-89.5001"/>
</g>
<!-- Node2 -->
<g id="node3" class="node"><title>Node2</title>
<g id="a_node3"><a xlink:href="../../d6/d6a/classefd_1_1Node.xhtml#a48e9d49d994b9023b8400316e2782e2b" target="_top" xlink:title="Sets the parent node of the current node. ">
<polygon fill="none" stroke="black" points="709,-133.5 709,-152.5 816,-152.5 816,-133.5 709,-133.5"/>
<text text-anchor="middle" x="762.5" y="-140.5" font-family="Helvetica,sans-Serif" font-size="10.00">efd::Node::setParent</text>
</a>
</g>
</g>
<!-- Node1&#45;&gt;Node2 -->
<g id="edge2" class="edge"><title>Node1&#45;&gt;Node2</title>
<path fill="none" stroke="midnightblue" d="M510.207,-158.603C563.127,-155.317 643.253,-150.342 698.74,-146.897"/>
<polygon fill="midnightblue" stroke="midnightblue" points="699.038,-150.385 708.802,-146.272 698.604,-143.399 699.038,-150.385"/>
</g>
<!-- Node5 -->
<g id="node6" class="node"><title>Node5</title>
<g id="a_node6"><a xlink:href="../../da/ddd/classefd_1_1NDList.xhtml#a63e0eab4abb59c1c0783f90afe0bb3bb" target="_top" xlink:title="Creates a new instance of this node with a specific k. ">
<polygon fill="none" stroke="black" points="403.5,-0.5 403.5,-19.5 505.5,-19.5 505.5,-0.5 403.5,-0.5"/>
<text text-anchor="middle" x="454.5" y="-7.5" font-family="Helvetica,sans-Serif" font-size="10.00">efd::NDList::Create</text>
</a>
</g>
</g>
<!-- Node4&#45;&gt;Node5 -->
<g id="edge5" class="edge"><title>Node4&#45;&gt;Node5</title>
<path fill="none" stroke="midnightblue" d="M338.902,-10C356.014,-10 375.31,-10 393.12,-10"/>
<polygon fill="midnightblue" stroke="midnightblue" points="393.407,-13.5001 403.407,-10 393.407,-6.5001 393.407,-13.5001"/>
</g>
<!-- Node6 -->
<g id="node7" class="node"><title>Node6</title>
<g id="a_node7"><a xlink:href="../../d4/deb/namespaceefd.xhtml#a3fd26bc2a0a0c6d9948d0d3cef2e1515" target="_top" xlink:title="Returns true if the pointer src is of class TargetTy. ">
<polygon fill="none" stroke="black" points="568.5,-38.5 568.5,-57.5 651.5,-57.5 651.5,-38.5 568.5,-38.5"/>
<text text-anchor="middle" x="610" y="-45.5" font-family="Helvetica,sans-Serif" font-size="10.00">efd::instanceOf</text>
</a>
</g>
</g>
<!-- Node5&#45;&gt;Node6 -->
<g id="edge6" class="edge"><title>Node5&#45;&gt;Node6</title>
<path fill="none" stroke="midnightblue" d="M494.235,-19.589C514.399,-24.5809 539.248,-30.7324 560.661,-36.0334"/>
<polygon fill="midnightblue" stroke="midnightblue" points="559.996,-39.4743 570.544,-38.4799 561.678,-32.6794 559.996,-39.4743"/>
</g>
<!-- Node7 -->
<g id="node8" class="node"><title>Node7</title>
<g id="a_node8"><a xlink:href="../../da/ddd/classefd_1_1NDList.xhtml#a2642c91fda9d33512d1aa1aa7851b6bd" target="_top" xlink:title="efd::NDList::NDList">
<polygon fill="none" stroke="black" points="558,-0.5 558,-19.5 662,-19.5 662,-0.5 558,-0.5"/>
<text text-anchor="middle" x="610" y="-7.5" font-family="Helvetica,sans-Serif" font-size="10.00">efd::NDList::NDList</text>
</a>
</g>
</g>
<!-- Node5&#45;&gt;Node7 -->
<g id="edge7" class="edge"><title>Node5&#45;&gt;Node7</title>
<path fill="none" stroke="midnightblue" d="M505.762,-10C519.2,-10 533.873,-10 547.829,-10"/>
<polygon fill="midnightblue" stroke="midnightblue" points="547.837,-13.5001 557.837,-10 547.837,-6.5001 547.837,-13.5001"/>
</g>
<!-- Node8 -->
<g id="node9" class="node"><title>Node8</title>
<g id="a_node9"><a xlink:href="../../d6/d6a/classefd_1_1Node.xhtml#a09ac8cdf7898a3d17293d92ae956eece" target="_top" xlink:title="Constructs the node, initially empty (with no information). ">
<polygon fill="none" stroke="black" points="718,-57.5 718,-76.5 807,-76.5 807,-57.5 718,-57.5"/>
<text text-anchor="middle" x="762.5" y="-64.5" font-family="Helvetica,sans-Serif" font-size="10.00">efd::Node::Node</text>
</a>
</g>
</g>
<!-- Node7&#45;&gt;Node8 -->
<g id="edge8" class="edge"><title>Node7&#45;&gt;Node8</title>
<path fill="none" stroke="midnightblue" d="M644.685,-19.5983C653.93,-22.4288 663.91,-25.6668 673,-29 692.816,-36.2665 714.607,-45.6057 731.607,-53.2071"/>
<polygon fill="midnightblue" stroke="midnightblue" points="730.458,-56.5282 741.012,-57.453 733.338,-50.1482 730.458,-56.5282"/>
</g>
<!-- Node10 -->
<g id="node11" class="node"><title>Node10</title>
<g id="a_node11"><a xlink:href="../../d4/deb/namespaceefd.xhtml#a2cef687225e13315fc282dc40b5a6909" target="_top" xlink:title="Returns src cast to TargetTy, iff it is of class TargetTy, otherwise it will return nullptr...">
<polygon fill="none" stroke="black" points="418,-38.5 418,-57.5 491,-57.5 491,-38.5 418,-38.5"/>
<text text-anchor="middle" x="454.5" y="-45.5" font-family="Helvetica,sans-Serif" font-size="10.00">efd::dynCast</text>
</a>
</g>
</g>
<!-- Node9&#45;&gt;Node10 -->
<g id="edge10" class="edge"><title>Node9&#45;&gt;Node10</title>
<path fill="none" stroke="midnightblue" d="M347.137,-48C366.989,-48 388.857,-48 407.576,-48"/>
<polygon fill="midnightblue" stroke="midnightblue" points="407.618,-51.5001 417.618,-48 407.618,-44.5001 407.618,-51.5001"/>
</g>
<!-- Node12 -->
<g id="node13" class="node"><title>Node12</title>
<g id="a_node13"><a xlink:href="../../dd/d94/classefd_1_1NDQOp.xhtml#ab5f18eaba71bcb53806525fd5dc61403" target="_top" xlink:title="efd::NDQOp::NDQOp">
<polygon fill="none" stroke="black" points="398,-76.5 398,-95.5 511,-95.5 511,-76.5 398,-76.5"/>
<text text-anchor="middle" x="454.5" y="-83.5" font-family="Helvetica,sans-Serif" font-size="10.00">efd::NDQOp::NDQOp</text>
</a>
</g>
</g>
<!-- Node11&#45;&gt;Node12 -->
<g id="edge12" class="edge"><title>Node11&#45;&gt;Node12</title>
<path fill="none" stroke="midnightblue" d="M362.313,-86C370.639,-86 379.084,-86 387.304,-86"/>
<polygon fill="midnightblue" stroke="midnightblue" points="387.57,-89.5001 397.57,-86 387.57,-82.5001 387.57,-89.5001"/>
</g>
<!-- Node12&#45;&gt;Node8 -->
<g id="edge15" class="edge"><title>Node12&#45;&gt;Node8</title>
<path fill="none" stroke="midnightblue" d="M511.269,-82.5372C567.141,-79.068 652.55,-73.7649 707.711,-70.3398"/>
<polygon fill="midnightblue" stroke="midnightblue" points="708.219,-73.8151 717.983,-69.702 707.786,-66.8286 708.219,-73.8151"/>
</g>
<!-- Node13 -->
<g id="node14" class="node"><title>Node13</title>
<g id="a_node14"><a xlink:href="../../d6/d6a/classefd_1_1Node.xhtml#a8ac8c3206c6f6817a8c8e515ac830f61" target="_top" xlink:title="Adds a child to this node. It should be used only for construction of each derived class...">
<polygon fill="none" stroke="black" points="547,-114.5 547,-133.5 673,-133.5 673,-114.5 547,-114.5"/>
<text text-anchor="middle" x="610" y="-121.5" font-family="Helvetica,sans-Serif" font-size="10.00">efd::Node::innerAddChild</text>
</a>
</g>
</g>
<!-- Node12&#45;&gt;Node13 -->
<g id="edge13" class="edge"><title>Node12&#45;&gt;Node13</title>
<path fill="none" stroke="midnightblue" d="M494.235,-95.589C514.399,-100.581 539.248,-106.732 560.661,-112.033"/>
<polygon fill="midnightblue" stroke="midnightblue" points="559.996,-115.474 570.544,-114.48 561.678,-108.679 559.996,-115.474"/>
</g>
<!-- Node13&#45;&gt;Node2 -->
<g id="edge14" class="edge"><title>Node13&#45;&gt;Node2</title>
<path fill="none" stroke="midnightblue" d="M673.083,-131.838C681.488,-132.899 690.118,-133.988 698.538,-135.051"/>
<polygon fill="midnightblue" stroke="midnightblue" points="698.314,-138.551 708.674,-136.331 699.191,-131.606 698.314,-138.551"/>
</g>
</g>
</svg>
