<?xml version="1.0" encoding="UTF-8" standalone="no"?>
<!DOCTYPE svg PUBLIC "-//W3C//DTD SVG 1.1//EN"
 "http://www.w3.org/Graphics/SVG/1.1/DTD/svg11.dtd">
<!-- Generated by graphviz version 2.38.0 (20140413.2041)
 -->
<!-- Title: lib/Transform/PassCache.cpp Pages: 1 -->
<!--zoomable 308 -->
<svg id="main" version="1.1" xmlns="http://www.w3.org/2000/svg" xmlns:xlink="http://www.w3.org/1999/xlink" xml:space="preserve" onload="init(evt)">
<style type="text/css"><![CDATA[
.edge:hover path { stroke: red; }
.edge:hover polygon { stroke: red; fill: red; }
]]></style>
<script type="text/javascript"><![CDATA[
var edges = document.getElementsByTagName('g');
if (edges && edges.length) {
  for (var i=0;i<edges.length;i++) {
    if (edges[i].id.substr(0,4)=='edge') {
      edges[i].setAttribute('class','edge');
    }
  }
}
]]></script>
        <defs>
                <circle id="rim" cx="0" cy="0" r="7"/>
                <circle id="rim2" cx="0" cy="0" r="3.5"/>
                <g id="zoomPlus">
                        <use xlink:href="#rim" fill="#404040">
                                <set attributeName="fill" to="#808080" begin="zoomplus.mouseover" end="zoomplus.mouseout"/>
                        </use>
                        <path d="M-4,0h8M0,-4v8" fill="none" stroke="white" stroke-width="1.5" pointer-events="none"/>
                </g>
                <g id="zoomMin">
                        <use xlink:href="#rim" fill="#404040">
                                <set attributeName="fill" to="#808080" begin="zoomminus.mouseover" end="zoomminus.mouseout"/>
                        </use>
                        <path d="M-4,0h8" fill="none" stroke="white" stroke-width="1.5" pointer-events="none"/>
                </g>
                <g id="dirArrow">
                        <path fill="none" stroke="white" stroke-width="1.5" d="M0,-3.0v7 M-2.5,-0.5L0,-3.0L2.5,-0.5"/>
                </g>
               <g id="resetDef">
                       <use xlink:href="#rim2" fill="#404040">
                               <set attributeName="fill" to="#808080" begin="reset.mouseover" end="reset.mouseout"/>
                       </use>
               </g>
        </defs>

<script type="text/javascript">
var viewWidth = 582;
var viewHeight = 308;
var sectionId = 'dynsection-0';
</script>
<script xlink:href="../../svgpan.js"/>
<svg id="graph" class="graph">
<g id="viewport">
<title>lib/Transform/PassCache.cpp</title>
<!-- Node0 -->
<g id="node1" class="node"><title>Node0</title>
<polygon fill="#bfbfbf" stroke="black" points="206,-280.5 206,-299.5 352,-299.5 352,-280.5 206,-280.5"/>
<text text-anchor="middle" x="279" y="-287.5" font-family="Helvetica,sans-Serif" font-size="10.00">lib/Transform/PassCache.cpp</text>
</g>
<!-- Node1 -->
<g id="node2" class="node"><title>Node1</title>
<g id="a_node2"><a xlink:href="../../db/d82/PassCache_8h.xhtml" target="_top" xlink:title="enfield/Transform/PassCache.h">
<polygon fill="none" stroke="black" points="201.5,-224.5 201.5,-243.5 356.5,-243.5 356.5,-224.5 201.5,-224.5"/>
<text text-anchor="middle" x="279" y="-231.5" font-family="Helvetica,sans-Serif" font-size="10.00">enfield/Transform/PassCache.h</text>
</a>
</g>
</g>
<!-- Node0&#45;&gt;Node1 -->
<g id="edge1" class="edge"><title>Node0&#45;&gt;Node1</title>
<path fill="none" stroke="midnightblue" d="M279,-280.083C279,-273.006 279,-262.861 279,-253.986"/>
<polygon fill="midnightblue" stroke="midnightblue" points="282.5,-253.751 279,-243.751 275.5,-253.751 282.5,-253.751"/>
</g>
<!-- Node2 -->
<g id="node3" class="node"><title>Node2</title>
<g id="a_node3"><a xlink:href="../../df/d29/Pass_8h.xhtml" target="_top" xlink:title="enfield/Transform/Pass.h">
<polygon fill="none" stroke="black" points="83,-112.5 83,-131.5 209,-131.5 209,-112.5 83,-112.5"/>
<text text-anchor="middle" x="146" y="-119.5" font-family="Helvetica,sans-Serif" font-size="10.00">enfield/Transform/Pass.h</text>
</a>
</g>
</g>
<!-- Node1&#45;&gt;Node2 -->
<g id="edge2" class="edge"><title>Node1&#45;&gt;Node2</title>
<path fill="none" stroke="midnightblue" d="M258.663,-224.412C241.401,-216.517 216.554,-203.678 198,-188 181.677,-174.207 166.861,-154.661 157.257,-140.61"/>
<polygon fill="midnightblue" stroke="midnightblue" points="159.927,-138.302 151.487,-131.898 154.091,-142.168 159.927,-138.302"/>
</g>
<!-- Node4 -->
<g id="node5" class="node"><title>Node4</title>
<g id="a_node5"><a xlink:href="../../d4/d73/QModule_8h.xhtml" target="_top" xlink:title="enfield/Transform/QModule.h">
<polygon fill="none" stroke="black" points="207.5,-168.5 207.5,-187.5 350.5,-187.5 350.5,-168.5 207.5,-168.5"/>
<text text-anchor="middle" x="279" y="-175.5" font-family="Helvetica,sans-Serif" font-size="10.00">enfield/Transform/QModule.h</text>
</a>
</g>
</g>
<!-- Node1&#45;&gt;Node4 -->
<g id="edge4" class="edge"><title>Node1&#45;&gt;Node4</title>
<path fill="none" stroke="midnightblue" d="M279,-224.083C279,-217.006 279,-206.861 279,-197.986"/>
<polygon fill="midnightblue" stroke="midnightblue" points="282.5,-197.751 279,-187.751 275.5,-197.751 282.5,-197.751"/>
</g>
<!-- Node13 -->
<g id="node14" class="node"><title>Node13</title>
<polygon fill="none" stroke="#bfbfbf" points="369,-168.5 369,-187.5 399,-187.5 399,-168.5 369,-168.5"/>
<text text-anchor="middle" x="384" y="-175.5" font-family="Helvetica,sans-Serif" font-size="10.00">set</text>
</g>
<!-- Node1&#45;&gt;Node13 -->
<g id="edge15" class="edge"><title>Node1&#45;&gt;Node13</title>
<path fill="none" stroke="midnightblue" d="M295.87,-224.324C313.207,-215.408 340.359,-201.444 359.945,-191.371"/>
<polygon fill="midnightblue" stroke="midnightblue" points="361.584,-194.464 368.876,-186.778 358.382,-188.239 361.584,-194.464"/>
</g>
<!-- Node3 -->
<g id="node4" class="node"><title>Node3</title>
<polygon fill="none" stroke="#bfbfbf" points="0,-56.5 0,-75.5 52,-75.5 52,-56.5 0,-56.5"/>
<text text-anchor="middle" x="26" y="-63.5" font-family="Helvetica,sans-Serif" font-size="10.00">memory</text>
</g>
<!-- Node2&#45;&gt;Node3 -->
<g id="edge3" class="edge"><title>Node2&#45;&gt;Node3</title>
<path fill="none" stroke="midnightblue" d="M126.986,-112.444C107.412,-103.636 76.6924,-89.8116 54.2711,-79.722"/>
<polygon fill="midnightblue" stroke="midnightblue" points="55.4809,-76.4284 44.9254,-75.5164 52.6083,-82.8119 55.4809,-76.4284"/>
</g>
<!-- Node4&#45;&gt;Node2 -->
<g id="edge13" class="edge"><title>Node4&#45;&gt;Node2</title>
<path fill="none" stroke="midnightblue" d="M257.926,-168.444C235.94,-159.517 201.266,-145.439 176.336,-135.317"/>
<polygon fill="midnightblue" stroke="midnightblue" points="177.558,-132.035 166.976,-131.516 174.924,-138.521 177.558,-132.035"/>
</g>
<!-- Node5 -->
<g id="node6" class="node"><title>Node5</title>
<g id="a_node6"><a xlink:href="../../d4/daf/Nodes_8h.xhtml" target="_top" xlink:title="enfield/Analysis/Nodes.h">
<polygon fill="none" stroke="black" points="227.5,-112.5 227.5,-131.5 352.5,-131.5 352.5,-112.5 227.5,-112.5"/>
<text text-anchor="middle" x="290" y="-119.5" font-family="Helvetica,sans-Serif" font-size="10.00">enfield/Analysis/Nodes.h</text>
</a>
</g>
</g>
<!-- Node4&#45;&gt;Node5 -->
<g id="edge5" class="edge"><title>Node4&#45;&gt;Node5</title>
<path fill="none" stroke="midnightblue" d="M280.816,-168.083C282.274,-160.927 284.371,-150.635 286.193,-141.691"/>
<polygon fill="midnightblue" stroke="midnightblue" points="289.651,-142.248 288.217,-131.751 282.792,-140.851 289.651,-142.248"/>
</g>
<!-- Node12 -->
<g id="node13" class="node"><title>Node12</title>
<polygon fill="none" stroke="#bfbfbf" points="370.5,-112.5 370.5,-131.5 453.5,-131.5 453.5,-112.5 370.5,-112.5"/>
<text text-anchor="middle" x="412" y="-119.5" font-family="Helvetica,sans-Serif" font-size="10.00">unordered_map</text>
</g>
<!-- Node4&#45;&gt;Node12 -->
<g id="edge14" class="edge"><title>Node4&#45;&gt;Node12</title>
<path fill="none" stroke="midnightblue" d="M300.074,-168.444C322.06,-159.517 356.734,-145.439 381.664,-135.317"/>
<polygon fill="midnightblue" stroke="midnightblue" points="383.076,-138.521 391.024,-131.516 380.442,-132.035 383.076,-138.521"/>
</g>
<!-- Node5&#45;&gt;Node3 -->
<g id="edge12" class="edge"><title>Node5&#45;&gt;Node3</title>
<path fill="none" stroke="midnightblue" d="M242.465,-112.486C198.208,-104.373 130.183,-91.4337 62.3393,-76.2077"/>
<polygon fill="midnightblue" stroke="midnightblue" points="62.8595,-72.737 52.3338,-73.9449 61.3154,-79.5646 62.8595,-72.737"/>
</g>
<!-- Node6 -->
<g id="node7" class="node"><title>Node6</title>
<g id="a_node7"><a xlink:href="../../d1/d2e/WrapperVal_8h.xhtml" target="_top" xlink:title="enfield/Support/WrapperVal.h">
<polygon fill="none" stroke="black" points="70,-56.5 70,-75.5 214,-75.5 214,-56.5 70,-56.5"/>
<text text-anchor="middle" x="142" y="-63.5" font-family="Helvetica,sans-Serif" font-size="10.00">enfield/Support/WrapperVal.h</text>
</a>
</g>
</g>
<!-- Node5&#45;&gt;Node6 -->
<g id="edge6" class="edge"><title>Node5&#45;&gt;Node6</title>
<path fill="none" stroke="midnightblue" d="M266.549,-112.444C241.867,-103.438 202.815,-89.1891 175.023,-79.049"/>
<polygon fill="midnightblue" stroke="midnightblue" points="175.935,-75.6561 165.341,-75.5164 173.536,-82.2321 175.935,-75.6561"/>
</g>
<!-- Node8 -->
<g id="node9" class="node"><title>Node8</title>
<g id="a_node9"><a xlink:href="../../d5/dfc/RTTI_8h.xhtml" target="_top" xlink:title="enfield/Support/RTTI.h">
<polygon fill="none" stroke="black" points="232,-56.5 232,-75.5 348,-75.5 348,-56.5 232,-56.5"/>
<text text-anchor="middle" x="290" y="-63.5" font-family="Helvetica,sans-Serif" font-size="10.00">enfield/Support/RTTI.h</text>
</a>
</g>
</g>
<!-- Node5&#45;&gt;Node8 -->
<g id="edge8" class="edge"><title>Node5&#45;&gt;Node8</title>
<path fill="none" stroke="midnightblue" d="M290,-112.083C290,-105.006 290,-94.8611 290,-85.9865"/>
<polygon fill="midnightblue" stroke="midnightblue" points="293.5,-85.751 290,-75.7511 286.5,-85.7511 293.5,-85.751"/>
</g>
<!-- Node9 -->
<g id="node10" class="node"><title>Node9</title>
<polygon fill="none" stroke="#bfbfbf" points="366.5,-56.5 366.5,-75.5 439.5,-75.5 439.5,-56.5 366.5,-56.5"/>
<text text-anchor="middle" x="403" y="-63.5" font-family="Helvetica,sans-Serif" font-size="10.00">initializer_list</text>
</g>
<!-- Node5&#45;&gt;Node9 -->
<g id="edge9" class="edge"><title>Node5&#45;&gt;Node9</title>
<path fill="none" stroke="midnightblue" d="M307.905,-112.444C326.254,-103.675 355.005,-89.9355 376.094,-79.8579"/>
<polygon fill="midnightblue" stroke="midnightblue" points="377.665,-82.9862 385.179,-75.5164 374.647,-76.6703 377.665,-82.9862"/>
</g>
<!-- Node10 -->
<g id="node11" class="node"><title>Node10</title>
<polygon fill="none" stroke="#bfbfbf" points="458,-56.5 458,-75.5 512,-75.5 512,-56.5 458,-56.5"/>
<text text-anchor="middle" x="485" y="-63.5" font-family="Helvetica,sans-Serif" font-size="10.00">iostream</text>
</g>
<!-- Node5&#45;&gt;Node10 -->
<g id="edge10" class="edge"><title>Node5&#45;&gt;Node10</title>
<path fill="none" stroke="midnightblue" d="M320.898,-112.444C355.354,-102.902 411.065,-87.4744 447.863,-77.2841"/>
<polygon fill="midnightblue" stroke="midnightblue" points="449.004,-80.5999 457.707,-74.558 447.136,-73.8538 449.004,-80.5999"/>
</g>
<!-- Node11 -->
<g id="node12" class="node"><title>Node11</title>
<polygon fill="none" stroke="#bfbfbf" points="530,-56.5 530,-75.5 574,-75.5 574,-56.5 530,-56.5"/>
<text text-anchor="middle" x="552" y="-63.5" font-family="Helvetica,sans-Serif" font-size="10.00">vector</text>
</g>
<!-- Node5&#45;&gt;Node11 -->
<g id="edge11" class="edge"><title>Node5&#45;&gt;Node11</title>
<path fill="none" stroke="midnightblue" d="M340.754,-112.471C385.545,-104.638 452.78,-92.139 519.825,-76.1197"/>
<polygon fill="midnightblue" stroke="midnightblue" points="520.815,-79.4815 529.713,-73.7308 519.171,-72.6772 520.815,-79.4815"/>
</g>
<!-- Node7 -->
<g id="node8" class="node"><title>Node7</title>
<polygon fill="none" stroke="#bfbfbf" points="121.5,-0.5 121.5,-19.5 162.5,-19.5 162.5,-0.5 121.5,-0.5"/>
<text text-anchor="middle" x="142" y="-7.5" font-family="Helvetica,sans-Serif" font-size="10.00">string</text>
</g>
<!-- Node6&#45;&gt;Node7 -->
<g id="edge7" class="edge"><title>Node6&#45;&gt;Node7</title>
<path fill="none" stroke="midnightblue" d="M142,-56.083C142,-49.0059 142,-38.8611 142,-29.9865"/>
<polygon fill="midnightblue" stroke="midnightblue" points="145.5,-29.751 142,-19.7511 138.5,-29.7511 145.5,-29.751"/>
</g>
</g>
</svg>
        <g id="navigator" transform="translate(0 0)" fill="#404254">
                <rect fill="#f2f5e9" fill-opacity="0.5" stroke="#606060" stroke-width=".5" x="0" y="0" width="60" height="60"/>
                <use id="zoomplus" xlink:href="#zoomPlus" x="17" y="9" onmousedown="handleZoom(evt,'in')"/>
                <use id="zoomminus" xlink:href="#zoomMin" x="42" y="9" onmousedown="handleZoom(evt,'out')"/>
                <use id="reset" xlink:href="#resetDef" x="30" y="36" onmousedown="handleReset()"/>
                <g id="arrowUp" xlink:href="#dirArrow" transform="translate(30 24)" onmousedown="handlePan(0,-1)">
                  <use xlink:href="#rim" fill="#404040">
                        <set attributeName="fill" to="#808080" begin="arrowUp.mouseover" end="arrowUp.mouseout"/>
                  </use>
                  <path fill="none" stroke="white" stroke-width="1.5" d="M0,-3.0v7 M-2.5,-0.5L0,-3.0L2.5,-0.5"/>
                </g>
                <g id="arrowRight" xlink:href="#dirArrow" transform="rotate(90) translate(36 -43)" onmousedown="handlePan(1,0)">
                  <use xlink:href="#rim" fill="#404040">
                        <set attributeName="fill" to="#808080" begin="arrowRight.mouseover" end="arrowRight.mouseout"/>
                  </use>
                  <path fill="none" stroke="white" stroke-width="1.5" d="M0,-3.0v7 M-2.5,-0.5L0,-3.0L2.5,-0.5"/>
                </g>
                <g id="arrowDown" xlink:href="#dirArrow" transform="rotate(180) translate(-30 -48)" onmousedown="handlePan(0,1)">
                  <use xlink:href="#rim" fill="#404040">
                        <set attributeName="fill" to="#808080" begin="arrowDown.mouseover" end="arrowDown.mouseout"/>
                  </use>
                  <path fill="none" stroke="white" stroke-width="1.5" d="M0,-3.0v7 M-2.5,-0.5L0,-3.0L2.5,-0.5"/>
                </g>
                <g id="arrowLeft" xlink:href="#dirArrow" transform="rotate(270) translate(-36 17)" onmousedown="handlePan(-1,0)">
                  <use xlink:href="#rim" fill="#404040">
                        <set attributeName="fill" to="#808080" begin="arrowLeft.mouseover" end="arrowLeft.mouseout"/>
                  </use>
                  <path fill="none" stroke="white" stroke-width="1.5" d="M0,-3.0v7 M-2.5,-0.5L0,-3.0L2.5,-0.5"/>
                </g>
        </g>
        <svg viewBox="0 0 15 15" width="100%" height="30px" preserveAspectRatio="xMaxYMin meet">
         <g id="arrow_out" transform="scale(0.3 0.3)">
          <a xlink:href="PassCache_8cpp__incl_org.svg" target="_base">
           <rect id="button" ry="5" rx="5" y="6" x="6" height="38" width="38"
                fill="#f2f5e9" fill-opacity="0.5" stroke="#606060" stroke-width="1.0"/>
           <path id="arrow"
             d="M 11.500037,31.436501 C 11.940474,20.09759 22.043105,11.32322 32.158766,21.979434 L 37.068811,17.246167 C 37.068811,17.246167 37.088388,32 37.088388,32 L 22.160133,31.978069 C 22.160133,31.978069 26.997745,27.140456 26.997745,27.140456 C 18.528582,18.264221 13.291696,25.230495 11.500037,31.436501 z"
             style="fill:#404040;"/>
          </a>
         </g>
        </svg>
</svg>
