<?xml version="1.0" encoding="UTF-8" standalone="no"?>
<!DOCTYPE svg PUBLIC "-//W3C//DTD SVG 1.1//EN"
 "http://www.w3.org/Graphics/SVG/1.1/DTD/svg11.dtd">
<!-- Generated by graphviz version 2.38.0 (20140413.2041)
 -->
<!-- Title: efd::QbitterSolBuilder Pages: 1 -->
<svg width="199pt" height="264pt"
 viewBox="0.00 0.00 199.00 264.00" xmlns="http://www.w3.org/2000/svg" xmlns:xlink="http://www.w3.org/1999/xlink">
<g id="graph0" class="graph" transform="scale(1 1) rotate(0) translate(4 260)">
<title>efd::QbitterSolBuilder</title>
<!-- Node4 -->
<g id="node1" class="node"><title>Node4</title>
<polygon fill="#bfbfbf" stroke="black" points="21,-0.5 21,-19.5 131,-19.5 131,-0.5 21,-0.5"/>
<text text-anchor="middle" x="76" y="-7.5" font-family="Helvetica,sans-Serif" font-size="10.00">efd::QbitterSolBuilder</text>
</g>
<!-- Node5 -->
<g id="node2" class="node"><title>Node5</title>
<g id="a_node2"><a xlink:href="../../d7/d30/classefd_1_1SolutionBuilder.xhtml" target="_top" xlink:title="Interface for building the solution from an initial mapping. ">
<polygon fill="none" stroke="black" points="25.5,-57.5 25.5,-76.5 126.5,-76.5 126.5,-57.5 25.5,-57.5"/>
<text text-anchor="middle" x="76" y="-64.5" font-family="Helvetica,sans-Serif" font-size="10.00">efd::SolutionBuilder</text>
</a>
</g>
</g>
<!-- Node5&#45;&gt;Node4 -->
<g id="edge1" class="edge"><title>Node5&#45;&gt;Node4</title>
<path fill="none" stroke="midnightblue" d="M76,-47.1166C76,-37.8173 76,-27.0557 76,-19.7149"/>
<polygon fill="midnightblue" stroke="midnightblue" points="72.5001,-47.4062 76,-57.4062 79.5001,-47.4063 72.5001,-47.4062"/>
</g>
<!-- Node6 -->
<g id="node3" class="node"><title>Node6</title>
<g id="a_node3"><a xlink:href="../../d8/db9/classefd_1_1BitOptions.xhtml" target="_top" xlink:title="efd::BitOptions\&lt; Solution\lBuilderOptions, SolutionBuilder\lOptions::KeepStats \&gt;">
<polygon fill="none" stroke="black" points="0,-114.5 0,-155.5 152,-155.5 152,-114.5 0,-114.5"/>
<text text-anchor="start" x="8" y="-143.5" font-family="Helvetica,sans-Serif" font-size="10.00">efd::BitOptions&lt; Solution</text>
<text text-anchor="start" x="8" y="-132.5" font-family="Helvetica,sans-Serif" font-size="10.00">BuilderOptions, SolutionBuilder</text>
<text text-anchor="middle" x="76" y="-121.5" font-family="Helvetica,sans-Serif" font-size="10.00">Options::KeepStats &gt;</text>
</a>
</g>
</g>
<!-- Node6&#45;&gt;Node5 -->
<g id="edge2" class="edge"><title>Node6&#45;&gt;Node5</title>
<path fill="none" stroke="midnightblue" d="M76,-104.12C76,-94.1695 76,-83.8372 76,-76.7856"/>
<polygon fill="midnightblue" stroke="midnightblue" points="72.5001,-104.198 76,-114.198 79.5001,-104.198 72.5001,-104.198"/>
</g>
<!-- Node7 -->
<g id="node4" class="node"><title>Node7</title>
<g id="a_node4"><a xlink:href="../../d8/db9/classefd_1_1BitOptions.xhtml" target="_top" xlink:title="Implements bit options for size last. ">
<polygon fill="none" stroke="black" points="20,-225.5 20,-255.5 132,-255.5 132,-225.5 20,-225.5"/>
<text text-anchor="start" x="28" y="-243.5" font-family="Helvetica,sans-Serif" font-size="10.00">efd::BitOptions&lt; ETy,</text>
<text text-anchor="middle" x="76" y="-232.5" font-family="Helvetica,sans-Serif" font-size="10.00"> last &gt;</text>
</a>
</g>
</g>
<!-- Node7&#45;&gt;Node6 -->
<g id="edge3" class="edge"><title>Node7&#45;&gt;Node6</title>
<path fill="none" stroke="orange" stroke-dasharray="5,2" d="M76,-214.992C76,-196.836 76,-172.424 76,-155.566"/>
<polygon fill="orange" stroke="orange" points="72.5001,-215.109 76,-225.109 79.5001,-215.109 72.5001,-215.109"/>
<text text-anchor="start" x="76" y="-199" font-family="Helvetica,sans-Serif" font-size="10.00"> &lt; SolutionBuilderOptions,</text>
<text text-anchor="start" x="76" y="-188" font-family="Helvetica,sans-Serif" font-size="10.00"> SolutionBuilderOptions</text>
<text text-anchor="middle" x="133.5" y="-177" font-family="Helvetica,sans-Serif" font-size="10.00">::KeepStats &gt;</text>
</g>
</g>
</svg>
