<?xml version="1.0" encoding="UTF-8" standalone="no"?>
<!DOCTYPE svg PUBLIC "-//W3C//DTD SVG 1.1//EN"
 "http://www.w3.org/Graphics/SVG/1.1/DTD/svg11.dtd">
<!-- Generated by graphviz version 2.40.1 (20161225.0304)
 -->
<!-- Title: lib/Transform/ArchVerifierPass.cpp Pages: 1 -->
<!--zoomable 330 -->
<svg id="main" version="1.1" xmlns="http://www.w3.org/2000/svg" xmlns:xlink="http://www.w3.org/1999/xlink" xml:space="preserve" onload="init(evt)">
<style type="text/css"><![CDATA[
.edge:hover path { stroke: red; }
.edge:hover polygon { stroke: red; fill: red; }
]]></style>
<script type="text/javascript"><![CDATA[
var edges = document.getElementsByTagName('g');
if (edges && edges.length) {
  for (var i=0;i<edges.length;i++) {
    if (edges[i].id.substr(0,4)=='edge') {
      edges[i].setAttribute('class','edge');
    }
  }
}
]]></script>
        <defs>
                <circle id="rim" cx="0" cy="0" r="7"/>
                <circle id="rim2" cx="0" cy="0" r="3.5"/>
                <g id="zoomPlus">
                        <use xlink:href="#rim" fill="#404040">
                                <set attributeName="fill" to="#808080" begin="zoomplus.mouseover" end="zoomplus.mouseout"/>
                        </use>
                        <path d="M-4,0h8M0,-4v8" fill="none" stroke="white" stroke-width="1.5" pointer-events="none"/>
                </g>
                <g id="zoomMin">
                        <use xlink:href="#rim" fill="#404040">
                                <set attributeName="fill" to="#808080" begin="zoomminus.mouseover" end="zoomminus.mouseout"/>
                        </use>
                        <path d="M-4,0h8" fill="none" stroke="white" stroke-width="1.5" pointer-events="none"/>
                </g>
                <g id="dirArrow">
                        <path fill="none" stroke="white" stroke-width="1.5" d="M0,-3.0v7 M-2.5,-0.5L0,-3.0L2.5,-0.5"/>
                </g>
               <g id="resetDef">
                       <use xlink:href="#rim2" fill="#404040">
                               <set attributeName="fill" to="#808080" begin="reset.mouseover" end="reset.mouseout"/>
                       </use>
               </g>
        </defs>

<script type="text/javascript">
var viewWidth = 1023;
var viewHeight = 330;
var sectionId = 'dynsection-0';
</script>
<script xlink:href="../../svgpan.js"/>
<svg id="graph" class="graph">
<g id="viewport">
<title>lib/Transform/ArchVerifierPass.cpp</title>
<!-- Node0 -->
<g id="node1" class="node">
<title>Node0</title>
<polygon fill="#bfbfbf" stroke="#000000" points="432.5,-291.5 432.5,-321.5 575.5,-321.5 575.5,-291.5 432.5,-291.5"/>
<text text-anchor="start" x="440.5" y="-309.5" font-family="Helvetica,sans-Serif" font-size="10.00" fill="#000000">lib/Transform/ArchVerifier</text>
<text text-anchor="middle" x="504" y="-298.5" font-family="Helvetica,sans-Serif" font-size="10.00" fill="#000000">Pass.cpp</text>
</g>
<!-- Node1 -->
<g id="node2" class="node">
<title>Node1</title>
<g id="a_node2"><a xlink:href="../../de/de8/ArchVerifierPass_8h.xhtml" target="_top" xlink:title="enfield/Transform/ArchVerifier\lPass.h">
<polygon fill="none" stroke="#000000" points="253,-224.5 253,-254.5 417,-254.5 417,-224.5 253,-224.5"/>
<text text-anchor="start" x="261" y="-242.5" font-family="Helvetica,sans-Serif" font-size="10.00" fill="#000000">enfield/Transform/ArchVerifier</text>
<text text-anchor="middle" x="335" y="-231.5" font-family="Helvetica,sans-Serif" font-size="10.00" fill="#000000">Pass.h</text>
</a>
</g>
</g>
<!-- Node0&#45;&gt;Node1 -->
<g id="edge1" class="edge">
<title>Node0&#45;&gt;Node1</title>
<path fill="none" stroke="#191970" d="M466.0731,-291.4639C441.3711,-281.6708 408.9469,-268.8162 382.5283,-258.3426"/>
<polygon fill="#191970" stroke="#191970" points="383.6784,-255.0335 373.0923,-254.6017 381.0985,-261.5408 383.6784,-255.0335"/>
</g>
<!-- Node20 -->
<g id="node21" class="node">
<title>Node20</title>
<g id="a_node21"><a xlink:href="../../d9/ded/Utils_8h.xhtml" target="_top" xlink:title="enfield/Transform/Utils.h">
<polygon fill="none" stroke="#000000" points="435,-230 435,-249 573,-249 573,-230 435,-230"/>
<text text-anchor="middle" x="504" y="-237" font-family="Helvetica,sans-Serif" font-size="10.00" fill="#000000">enfield/Transform/Utils.h</text>
</a>
</g>
</g>
<!-- Node0&#45;&gt;Node20 -->
<g id="edge27" class="edge">
<title>Node0&#45;&gt;Node20</title>
<path fill="none" stroke="#191970" d="M504,-291.2967C504,-281.7699 504,-269.3954 504,-259.1306"/>
<polygon fill="#191970" stroke="#191970" points="507.5001,-259.0549 504,-249.055 500.5001,-259.055 507.5001,-259.0549"/>
</g>
<!-- Node21 -->
<g id="node22" class="node">
<title>Node21</title>
<g id="a_node22"><a xlink:href="../../d0/d8d/NodeVisitor_8h.xhtml" target="_top" xlink:title="enfield/Analysis/NodeVisitor.h">
<polygon fill="none" stroke="#000000" points="591,-230 591,-249 755,-249 755,-230 591,-230"/>
<text text-anchor="middle" x="673" y="-237" font-family="Helvetica,sans-Serif" font-size="10.00" fill="#000000">enfield/Analysis/NodeVisitor.h</text>
</a>
</g>
</g>
<!-- Node0&#45;&gt;Node21 -->
<g id="edge30" class="edge">
<title>Node0&#45;&gt;Node21</title>
<path fill="none" stroke="#191970" d="M541.9269,-291.4639C571.177,-279.8677 611.2547,-263.9789 639.3676,-252.8335"/>
<polygon fill="#191970" stroke="#191970" points="640.769,-256.0431 648.7752,-249.1039 638.1892,-249.5358 640.769,-256.0431"/>
</g>
<!-- Node2 -->
<g id="node3" class="node">
<title>Node2</title>
<g id="a_node3"><a xlink:href="../../df/d29/Pass_8h.xhtml" target="_top" xlink:title="enfield/Transform/Pass.h">
<polygon fill="none" stroke="#000000" points="432,-112.5 432,-131.5 570,-131.5 570,-112.5 432,-112.5"/>
<text text-anchor="middle" x="501" y="-119.5" font-family="Helvetica,sans-Serif" font-size="10.00" fill="#000000">enfield/Transform/Pass.h</text>
</a>
</g>
</g>
<!-- Node1&#45;&gt;Node2 -->
<g id="edge2" class="edge">
<title>Node1&#45;&gt;Node2</title>
<path fill="none" stroke="#191970" d="M299.8268,-224.3903C272.6725,-210.6057 242.4565,-189.2087 260,-168 270.4587,-155.3562 355.6412,-141.2675 421.8038,-132.0542"/>
<polygon fill="#191970" stroke="#191970" points="422.4005,-135.5052 431.8301,-130.6748 421.4463,-128.5705 422.4005,-135.5052"/>
</g>
<!-- Node4 -->
<g id="node5" class="node">
<title>Node4</title>
<g id="a_node5"><a xlink:href="../../d4/d73/QModule_8h.xhtml" target="_top" xlink:title="enfield/Transform/QModule.h">
<polygon fill="none" stroke="#000000" points="425,-168.5 425,-187.5 583,-187.5 583,-168.5 425,-168.5"/>
<text text-anchor="middle" x="504" y="-175.5" font-family="Helvetica,sans-Serif" font-size="10.00" fill="#000000">enfield/Transform/QModule.h</text>
</a>
</g>
</g>
<!-- Node1&#45;&gt;Node4 -->
<g id="edge4" class="edge">
<title>Node1&#45;&gt;Node4</title>
<path fill="none" stroke="#191970" d="M376.3421,-224.4554C404.5401,-214.194 441.5031,-200.7429 468.3943,-190.9571"/>
<polygon fill="#191970" stroke="#191970" points="469.6108,-194.239 477.811,-187.5303 467.217,-187.6611 469.6108,-194.239"/>
</g>
<!-- Node13 -->
<g id="node14" class="node">
<title>Node13</title>
<g id="a_node14"><a xlink:href="../../d7/d9d/ArchGraph_8h.xhtml" target="_top" xlink:title="enfield/Arch/ArchGraph.h">
<polygon fill="none" stroke="#000000" points="269,-168.5 269,-187.5 407,-187.5 407,-168.5 269,-168.5"/>
<text text-anchor="middle" x="338" y="-175.5" font-family="Helvetica,sans-Serif" font-size="10.00" fill="#000000">enfield/Arch/ArchGraph.h</text>
</a>
</g>
</g>
<!-- Node1&#45;&gt;Node13 -->
<g id="edge15" class="edge">
<title>Node1&#45;&gt;Node13</title>
<path fill="none" stroke="#191970" d="M335.7416,-224.2977C336.1276,-216.3834 336.6047,-206.6043 337.0207,-198.0759"/>
<polygon fill="#191970" stroke="#191970" points="340.5282,-198.0056 337.5197,-187.8469 333.5365,-197.6645 340.5282,-198.0056"/>
</g>
<!-- Node16 -->
<g id="node17" class="node">
<title>Node16</title>
<g id="a_node17"><a xlink:href="../../d1/d73/Defs_8h.xhtml" target="_top" xlink:title="enfield/Support/Defs.h">
<polygon fill="none" stroke="#000000" points="87.5,-168.5 87.5,-187.5 212.5,-187.5 212.5,-168.5 87.5,-168.5"/>
<text text-anchor="middle" x="150" y="-175.5" font-family="Helvetica,sans-Serif" font-size="10.00" fill="#000000">enfield/Support/Defs.h</text>
</a>
</g>
</g>
<!-- Node1&#45;&gt;Node16 -->
<g id="edge22" class="edge">
<title>Node1&#45;&gt;Node16</title>
<path fill="none" stroke="#191970" d="M289.7439,-224.4554C258.6054,-214.104 217.7031,-200.5067 188.2045,-190.7004"/>
<polygon fill="#191970" stroke="#191970" points="189.262,-187.3637 178.6684,-187.5303 187.0537,-194.0063 189.262,-187.3637"/>
</g>
<!-- Node3 -->
<g id="node4" class="node">
<title>Node3</title>
<polygon fill="none" stroke="#bfbfbf" points="456,-56.5 456,-75.5 514,-75.5 514,-56.5 456,-56.5"/>
<text text-anchor="middle" x="485" y="-63.5" font-family="Helvetica,sans-Serif" font-size="10.00" fill="#000000">memory</text>
</g>
<!-- Node2&#45;&gt;Node3 -->
<g id="edge3" class="edge">
<title>Node2&#45;&gt;Node3</title>
<path fill="none" stroke="#191970" d="M498.213,-112.2455C496.1023,-104.8579 493.134,-94.4689 490.5453,-85.4087"/>
<polygon fill="#191970" stroke="#191970" points="493.8677,-84.2964 487.755,-75.6427 487.137,-86.2195 493.8677,-84.2964"/>
</g>
<!-- Node4&#45;&gt;Node2 -->
<g id="edge13" class="edge">
<title>Node4&#45;&gt;Node2</title>
<path fill="none" stroke="#191970" d="M503.4774,-168.2455C503.086,-160.9382 502.5372,-150.6944 502.0556,-141.7046"/>
<polygon fill="#191970" stroke="#191970" points="505.5466,-141.4411 501.5166,-131.6427 498.5566,-141.8156 505.5466,-141.4411"/>
</g>
<!-- Node5 -->
<g id="node6" class="node">
<title>Node5</title>
<g id="a_node6"><a xlink:href="../../d4/daf/Nodes_8h.xhtml" target="_top" xlink:title="enfield/Analysis/Nodes.h">
<polygon fill="none" stroke="#000000" points="588.5,-112.5 588.5,-131.5 725.5,-131.5 725.5,-112.5 588.5,-112.5"/>
<text text-anchor="middle" x="657" y="-119.5" font-family="Helvetica,sans-Serif" font-size="10.00" fill="#000000">enfield/Analysis/Nodes.h</text>
</a>
</g>
</g>
<!-- Node4&#45;&gt;Node5 -->
<g id="edge5" class="edge">
<title>Node4&#45;&gt;Node5</title>
<path fill="none" stroke="#191970" d="M530.3016,-168.3733C555.4128,-159.1822 593.4438,-145.2624 621.2872,-135.0713"/>
<polygon fill="#191970" stroke="#191970" points="622.8538,-138.2251 631.0416,-131.5011 620.4478,-131.6516 622.8538,-138.2251"/>
</g>
<!-- Node12 -->
<g id="node13" class="node">
<title>Node12</title>
<polygon fill="none" stroke="#bfbfbf" points="344.5,-56.5 344.5,-75.5 437.5,-75.5 437.5,-56.5 344.5,-56.5"/>
<text text-anchor="middle" x="391" y="-63.5" font-family="Helvetica,sans-Serif" font-size="10.00" fill="#000000">unordered_map</text>
</g>
<!-- Node4&#45;&gt;Node12 -->
<g id="edge14" class="edge">
<title>Node4&#45;&gt;Node12</title>
<path fill="none" stroke="#191970" d="M478.7141,-168.4015C461.2541,-160.7298 438.4805,-148.5214 423,-132 410.5111,-118.6713 401.9712,-99.5588 396.8759,-85.3283"/>
<polygon fill="#191970" stroke="#191970" points="400.1114,-83.9652 393.6425,-75.5744 393.4669,-86.1678 400.1114,-83.9652"/>
</g>
<!-- Node5&#45;&gt;Node3 -->
<g id="edge12" class="edge">
<title>Node5&#45;&gt;Node3</title>
<path fill="none" stroke="#191970" d="M627.4321,-112.3733C598.8312,-103.0613 555.3212,-88.8953 523.9181,-78.671"/>
<polygon fill="#191970" stroke="#191970" points="524.7743,-75.269 514.182,-75.5011 522.6072,-81.9251 524.7743,-75.269"/>
</g>
<!-- Node6 -->
<g id="node7" class="node">
<title>Node6</title>
<g id="a_node7"><a xlink:href="../../d1/d2e/WrapperVal_8h.xhtml" target="_top" xlink:title="enfield/Support/WrapperVal.h">
<polygon fill="none" stroke="#000000" points="532,-56.5 532,-75.5 692,-75.5 692,-56.5 532,-56.5"/>
<text text-anchor="middle" x="612" y="-63.5" font-family="Helvetica,sans-Serif" font-size="10.00" fill="#000000">enfield/Support/WrapperVal.h</text>
</a>
</g>
</g>
<!-- Node5&#45;&gt;Node6 -->
<g id="edge6" class="edge">
<title>Node5&#45;&gt;Node6</title>
<path fill="none" stroke="#191970" d="M649.1616,-112.2455C642.838,-104.3761 633.7776,-93.101 626.1864,-83.6542"/>
<polygon fill="#191970" stroke="#191970" points="628.7408,-81.2454 619.7486,-75.6427 623.2842,-85.6302 628.7408,-81.2454"/>
</g>
<!-- Node8 -->
<g id="node9" class="node">
<title>Node8</title>
<g id="a_node9"><a xlink:href="../../d5/dfc/RTTI_8h.xhtml" target="_top" xlink:title="enfield/Support/RTTI.h">
<polygon fill="none" stroke="#000000" points="710.5,-56.5 710.5,-75.5 835.5,-75.5 835.5,-56.5 710.5,-56.5"/>
<text text-anchor="middle" x="773" y="-63.5" font-family="Helvetica,sans-Serif" font-size="10.00" fill="#000000">enfield/Support/RTTI.h</text>
</a>
</g>
</g>
<!-- Node5&#45;&gt;Node8 -->
<g id="edge8" class="edge">
<title>Node5&#45;&gt;Node8</title>
<path fill="none" stroke="#191970" d="M676.9411,-112.3733C695.4786,-103.4241 723.3028,-89.9917 744.2413,-79.8835"/>
<polygon fill="#191970" stroke="#191970" points="745.8352,-83.0006 753.3191,-75.5011 742.7919,-76.6967 745.8352,-83.0006"/>
</g>
<!-- Node9 -->
<g id="node10" class="node">
<title>Node9</title>
<polygon fill="none" stroke="#bfbfbf" points="853.5,-56.5 853.5,-75.5 936.5,-75.5 936.5,-56.5 853.5,-56.5"/>
<text text-anchor="middle" x="895" y="-63.5" font-family="Helvetica,sans-Serif" font-size="10.00" fill="#000000">initializer_list</text>
</g>
<!-- Node5&#45;&gt;Node9 -->
<g id="edge9" class="edge">
<title>Node5&#45;&gt;Node9</title>
<path fill="none" stroke="#191970" d="M697.6432,-112.4369C738.2895,-102.8731 800.8913,-88.1432 844.6587,-77.845"/>
<polygon fill="#191970" stroke="#191970" points="845.5919,-81.2211 854.5244,-75.5237 843.9886,-74.4072 845.5919,-81.2211"/>
</g>
<!-- Node10 -->
<g id="node11" class="node">
<title>Node10</title>
<polygon fill="none" stroke="#bfbfbf" points="955,-56.5 955,-75.5 1015,-75.5 1015,-56.5 955,-56.5"/>
<text text-anchor="middle" x="985" y="-63.5" font-family="Helvetica,sans-Serif" font-size="10.00" fill="#000000">iostream</text>
</g>
<!-- Node5&#45;&gt;Node10 -->
<g id="edge10" class="edge">
<title>Node5&#45;&gt;Node10</title>
<path fill="none" stroke="#191970" d="M725.6455,-112.9105C782.1127,-105.0129 864.3977,-92.5433 945.0104,-76.0613"/>
<polygon fill="#191970" stroke="#191970" points="945.7465,-79.4832 954.8311,-74.0315 944.3296,-72.6281 945.7465,-79.4832"/>
</g>
<!-- Node11 -->
<g id="node12" class="node">
<title>Node11</title>
<polygon fill="none" stroke="#bfbfbf" points="228.5,-56.5 228.5,-75.5 275.5,-75.5 275.5,-56.5 228.5,-56.5"/>
<text text-anchor="middle" x="252" y="-63.5" font-family="Helvetica,sans-Serif" font-size="10.00" fill="#000000">vector</text>
</g>
<!-- Node5&#45;&gt;Node11 -->
<g id="edge11" class="edge">
<title>Node5&#45;&gt;Node11</title>
<path fill="none" stroke="#191970" d="M588.0992,-113.1451C585.0243,-112.7567 581.9802,-112.3735 579,-112 451.5682,-96.0295 415.5496,-102.8347 285.6013,-75.7991"/>
<polygon fill="#191970" stroke="#191970" points="286.1729,-72.3428 275.666,-73.705 284.7291,-79.1923 286.1729,-72.3428"/>
</g>
<!-- Node7 -->
<g id="node8" class="node">
<title>Node7</title>
<polygon fill="none" stroke="#bfbfbf" points="590,-.5 590,-19.5 634,-19.5 634,-.5 590,-.5"/>
<text text-anchor="middle" x="612" y="-7.5" font-family="Helvetica,sans-Serif" font-size="10.00" fill="#000000">string</text>
</g>
<!-- Node6&#45;&gt;Node7 -->
<g id="edge7" class="edge">
<title>Node6&#45;&gt;Node7</title>
<path fill="none" stroke="#191970" d="M612,-56.2455C612,-48.9382 612,-38.6944 612,-29.7046"/>
<polygon fill="#191970" stroke="#191970" points="615.5001,-29.6426 612,-19.6427 608.5001,-29.6427 615.5001,-29.6426"/>
</g>
<!-- Node13&#45;&gt;Node5 -->
<g id="edge21" class="edge">
<title>Node13&#45;&gt;Node5</title>
<path fill="none" stroke="#191970" d="M392.4756,-168.4369C447.9875,-158.6918 534.0529,-143.5832 592.8328,-133.2645"/>
<polygon fill="#191970" stroke="#191970" points="593.5049,-136.7001 602.7491,-131.5237 592.2945,-129.8055 593.5049,-136.7001"/>
</g>
<!-- Node14 -->
<g id="node15" class="node">
<title>Node14</title>
<g id="a_node15"><a xlink:href="../../d7/d16/Graph_8h.xhtml" target="_top" xlink:title="enfield/Support/Graph.h">
<polygon fill="none" stroke="#000000" points="244,-112.5 244,-131.5 376,-131.5 376,-112.5 244,-112.5"/>
<text text-anchor="middle" x="310" y="-119.5" font-family="Helvetica,sans-Serif" font-size="10.00" fill="#000000">enfield/Support/Graph.h</text>
</a>
</g>
</g>
<!-- Node13&#45;&gt;Node14 -->
<g id="edge16" class="edge">
<title>Node13&#45;&gt;Node14</title>
<path fill="none" stroke="#191970" d="M333.1228,-168.2455C329.3487,-160.6973 324.0079,-150.0158 319.4099,-140.8197"/>
<polygon fill="#191970" stroke="#191970" points="322.424,-139.0217 314.8213,-131.6427 316.163,-142.1522 322.424,-139.0217"/>
</g>
<!-- Node14&#45;&gt;Node3 -->
<g id="edge20" class="edge">
<title>Node14&#45;&gt;Node3</title>
<path fill="none" stroke="#191970" d="M340.0836,-112.3733C369.3598,-103.0049 413.9894,-88.7234 445.9826,-78.4856"/>
<polygon fill="#191970" stroke="#191970" points="447.433,-81.6964 455.8905,-75.315 445.2995,-75.0294 447.433,-81.6964"/>
</g>
<!-- Node14&#45;&gt;Node11 -->
<g id="edge18" class="edge">
<title>Node14&#45;&gt;Node11</title>
<path fill="none" stroke="#191970" d="M299.8972,-112.2455C291.4972,-104.1352 279.3506,-92.4075 269.3916,-82.7919"/>
<polygon fill="#191970" stroke="#191970" points="271.6122,-80.0707 261.9871,-75.6427 266.75,-85.1066 271.6122,-80.0707"/>
</g>
<!-- Node14&#45;&gt;Node12 -->
<g id="edge19" class="edge">
<title>Node14&#45;&gt;Node12</title>
<path fill="none" stroke="#191970" d="M324.1091,-112.2455C336.4209,-103.7337 354.4958,-91.2375 368.7538,-81.3801"/>
<polygon fill="#191970" stroke="#191970" points="370.8174,-84.2085 377.0526,-75.6427 366.8366,-78.4506 370.8174,-84.2085"/>
</g>
<!-- Node15 -->
<g id="node16" class="node">
<title>Node15</title>
<polygon fill="none" stroke="#bfbfbf" points="294,-56.5 294,-75.5 326,-75.5 326,-56.5 294,-56.5"/>
<text text-anchor="middle" x="310" y="-63.5" font-family="Helvetica,sans-Serif" font-size="10.00" fill="#000000">set</text>
</g>
<!-- Node14&#45;&gt;Node15 -->
<g id="edge17" class="edge">
<title>Node14&#45;&gt;Node15</title>
<path fill="none" stroke="#191970" d="M310,-112.2455C310,-104.9382 310,-94.6944 310,-85.7046"/>
<polygon fill="#191970" stroke="#191970" points="313.5001,-85.6426 310,-75.6427 306.5001,-85.6427 313.5001,-85.6426"/>
</g>
<!-- Node16&#45;&gt;Node11 -->
<g id="edge23" class="edge">
<title>Node16&#45;&gt;Node11</title>
<path fill="none" stroke="#191970" d="M160.3816,-168.4175C170.1086,-159.3061 184.9186,-145.0875 197,-132 211.6066,-116.177 227.231,-97.2095 238.0796,-83.6769"/>
<polygon fill="#191970" stroke="#191970" points="240.9735,-85.6612 244.4603,-75.6566 235.4955,-81.3032 240.9735,-85.6612"/>
</g>
<!-- Node17 -->
<g id="node18" class="node">
<title>Node17</title>
<polygon fill="none" stroke="#bfbfbf" points="138,-112.5 138,-131.5 188,-131.5 188,-112.5 138,-112.5"/>
<text text-anchor="middle" x="163" y="-119.5" font-family="Helvetica,sans-Serif" font-size="10.00" fill="#000000">cstdint</text>
</g>
<!-- Node16&#45;&gt;Node17 -->
<g id="edge24" class="edge">
<title>Node16&#45;&gt;Node17</title>
<path fill="none" stroke="#191970" d="M152.2644,-168.2455C153.9794,-160.8579 156.3912,-150.4689 158.4944,-141.4087"/>
<polygon fill="#191970" stroke="#191970" points="161.9095,-142.1751 160.7615,-131.6427 155.0908,-140.5922 161.9095,-142.1751"/>
</g>
<!-- Node18 -->
<g id="node19" class="node">
<title>Node18</title>
<polygon fill="none" stroke="#bfbfbf" points="0,-112.5 0,-131.5 44,-131.5 44,-112.5 0,-112.5"/>
<text text-anchor="middle" x="22" y="-119.5" font-family="Helvetica,sans-Serif" font-size="10.00" fill="#000000">limits</text>
</g>
<!-- Node16&#45;&gt;Node18 -->
<g id="edge25" class="edge">
<title>Node16&#45;&gt;Node18</title>
<path fill="none" stroke="#191970" d="M127.996,-168.3733C107.3565,-159.3435 76.2842,-145.7494 53.1111,-135.6111"/>
<polygon fill="#191970" stroke="#191970" points="54.2813,-132.3028 43.7169,-131.5011 51.4755,-138.7159 54.2813,-132.3028"/>
</g>
<!-- Node19 -->
<g id="node20" class="node">
<title>Node19</title>
<polygon fill="none" stroke="#bfbfbf" points="62.5,-112.5 62.5,-131.5 119.5,-131.5 119.5,-112.5 62.5,-112.5"/>
<text text-anchor="middle" x="91" y="-119.5" font-family="Helvetica,sans-Serif" font-size="10.00" fill="#000000">ostream</text>
</g>
<!-- Node16&#45;&gt;Node19 -->
<g id="edge26" class="edge">
<title>Node16&#45;&gt;Node19</title>
<path fill="none" stroke="#191970" d="M139.723,-168.2455C131.1782,-160.1352 118.8222,-148.4075 108.6915,-138.7919"/>
<polygon fill="#191970" stroke="#191970" points="110.8218,-135.9884 101.1592,-131.6427 106.0028,-141.0655 110.8218,-135.9884"/>
</g>
<!-- Node20&#45;&gt;Node4 -->
<g id="edge29" class="edge">
<title>Node20&#45;&gt;Node4</title>
<path fill="none" stroke="#191970" d="M504,-229.8906C504,-221.3657 504,-208.6392 504,-197.9235"/>
<polygon fill="#191970" stroke="#191970" points="507.5001,-197.7448 504,-187.7449 500.5001,-197.7449 507.5001,-197.7448"/>
</g>
<!-- Node20&#45;&gt;Node5 -->
<g id="edge28" class="edge">
<title>Node20&#45;&gt;Node5</title>
<path fill="none" stroke="#191970" d="M523.8163,-229.8274C542.2956,-220.3727 570.2059,-204.9585 592,-188 610.8859,-173.3044 629.7769,-153.3948 642.2866,-139.2971"/>
<polygon fill="#191970" stroke="#191970" points="644.9321,-141.5887 648.8665,-131.7515 639.6562,-136.9881 644.9321,-141.5887"/>
</g>
<!-- Node21&#45;&gt;Node5 -->
<g id="edge31" class="edge">
<title>Node21&#45;&gt;Node5</title>
<path fill="none" stroke="#191970" d="M671.6907,-229.8845C669.0771,-210.6913 663.1666,-167.286 659.6916,-141.7663"/>
<polygon fill="#191970" stroke="#191970" points="663.1448,-141.1847 658.3274,-131.7484 656.2088,-142.1292 663.1448,-141.1847"/>
</g>
</g>
</svg>
        <g id="navigator" transform="translate(0 0)" fill="#404254">
                <rect fill="#f2f5e9" fill-opacity="0.5" stroke="#606060" stroke-width=".5" x="0" y="0" width="60" height="60"/>
                <use id="zoomplus" xlink:href="#zoomPlus" x="17" y="9" onmousedown="handleZoom(evt,'in')"/>
                <use id="zoomminus" xlink:href="#zoomMin" x="42" y="9" onmousedown="handleZoom(evt,'out')"/>
                <use id="reset" xlink:href="#resetDef" x="30" y="36" onmousedown="handleReset()"/>
                <g id="arrowUp" xlink:href="#dirArrow" transform="translate(30 24)" onmousedown="handlePan(0,-1)">
                  <use xlink:href="#rim" fill="#404040">
                        <set attributeName="fill" to="#808080" begin="arrowUp.mouseover" end="arrowUp.mouseout"/>
                  </use>
                  <path fill="none" stroke="white" stroke-width="1.5" d="M0,-3.0v7 M-2.5,-0.5L0,-3.0L2.5,-0.5"/>
                </g>
                <g id="arrowRight" xlink:href="#dirArrow" transform="rotate(90) translate(36 -43)" onmousedown="handlePan(1,0)">
                  <use xlink:href="#rim" fill="#404040">
                        <set attributeName="fill" to="#808080" begin="arrowRight.mouseover" end="arrowRight.mouseout"/>
                  </use>
                  <path fill="none" stroke="white" stroke-width="1.5" d="M0,-3.0v7 M-2.5,-0.5L0,-3.0L2.5,-0.5"/>
                </g>
                <g id="arrowDown" xlink:href="#dirArrow" transform="rotate(180) translate(-30 -48)" onmousedown="handlePan(0,1)">
                  <use xlink:href="#rim" fill="#404040">
                        <set attributeName="fill" to="#808080" begin="arrowDown.mouseover" end="arrowDown.mouseout"/>
                  </use>
                  <path fill="none" stroke="white" stroke-width="1.5" d="M0,-3.0v7 M-2.5,-0.5L0,-3.0L2.5,-0.5"/>
                </g>
                <g id="arrowLeft" xlink:href="#dirArrow" transform="rotate(270) translate(-36 17)" onmousedown="handlePan(-1,0)">
                  <use xlink:href="#rim" fill="#404040">
                        <set attributeName="fill" to="#808080" begin="arrowLeft.mouseover" end="arrowLeft.mouseout"/>
                  </use>
                  <path fill="none" stroke="white" stroke-width="1.5" d="M0,-3.0v7 M-2.5,-0.5L0,-3.0L2.5,-0.5"/>
                </g>
        </g>
        <svg viewBox="0 0 15 15" width="100%" height="30px" preserveAspectRatio="xMaxYMin meet">
         <g id="arrow_out" transform="scale(0.3 0.3)">
          <a xlink:href="ArchVerifierPass_8cpp__incl_org.svg" target="_base">
           <rect id="button" ry="5" rx="5" y="6" x="6" height="38" width="38"
                fill="#f2f5e9" fill-opacity="0.5" stroke="#606060" stroke-width="1.0"/>
           <path id="arrow"
             d="M 11.500037,31.436501 C 11.940474,20.09759 22.043105,11.32322 32.158766,21.979434 L 37.068811,17.246167 C 37.068811,17.246167 37.088388,32 37.088388,32 L 22.160133,31.978069 C 22.160133,31.978069 26.997745,27.140456 26.997745,27.140456 C 18.528582,18.264221 13.291696,25.230495 11.500037,31.436501 z"
             style="fill:#404040;"/>
          </a>
         </g>
        </svg>
</svg>
