<?xml version="1.0" encoding="UTF-8" standalone="no"?>
<!DOCTYPE svg PUBLIC "-//W3C//DTD SVG 1.1//EN"
 "http://www.w3.org/Graphics/SVG/1.1/DTD/svg11.dtd">
<!-- Generated by graphviz version 2.38.0 (20140413.2041)
 -->
<!-- Title: lib/Transform/ArchVerifierPass.cpp Pages: 1 -->
<!--zoomable 330 -->
<svg id="main" version="1.1" xmlns="http://www.w3.org/2000/svg" xmlns:xlink="http://www.w3.org/1999/xlink" xml:space="preserve" onload="init(evt)">
<style type="text/css"><![CDATA[
.edge:hover path { stroke: red; }
.edge:hover polygon { stroke: red; fill: red; }
]]></style>
<script type="text/javascript"><![CDATA[
var edges = document.getElementsByTagName('g');
if (edges && edges.length) {
  for (var i=0;i<edges.length;i++) {
    if (edges[i].id.substr(0,4)=='edge') {
      edges[i].setAttribute('class','edge');
    }
  }
}
]]></script>
        <defs>
                <circle id="rim" cx="0" cy="0" r="7"/>
                <circle id="rim2" cx="0" cy="0" r="3.5"/>
                <g id="zoomPlus">
                        <use xlink:href="#rim" fill="#404040">
                                <set attributeName="fill" to="#808080" begin="zoomplus.mouseover" end="zoomplus.mouseout"/>
                        </use>
                        <path d="M-4,0h8M0,-4v8" fill="none" stroke="white" stroke-width="1.5" pointer-events="none"/>
                </g>
                <g id="zoomMin">
                        <use xlink:href="#rim" fill="#404040">
                                <set attributeName="fill" to="#808080" begin="zoomminus.mouseover" end="zoomminus.mouseout"/>
                        </use>
                        <path d="M-4,0h8" fill="none" stroke="white" stroke-width="1.5" pointer-events="none"/>
                </g>
                <g id="dirArrow">
                        <path fill="none" stroke="white" stroke-width="1.5" d="M0,-3.0v7 M-2.5,-0.5L0,-3.0L2.5,-0.5"/>
                </g>
               <g id="resetDef">
                       <use xlink:href="#rim2" fill="#404040">
                               <set attributeName="fill" to="#808080" begin="reset.mouseover" end="reset.mouseout"/>
                       </use>
               </g>
        </defs>

<script type="text/javascript">
var viewWidth = 945;
var viewHeight = 330;
var sectionId = 'dynsection-0';
</script>
<script xlink:href="../../svgpan.js"/>
<svg id="graph" class="graph">
<g id="viewport">
<title>lib/Transform/ArchVerifierPass.cpp</title>
<!-- Node0 -->
<g id="node1" class="node"><title>Node0</title>
<polygon fill="#bfbfbf" stroke="black" points="505,-291.5 505,-321.5 633,-321.5 633,-291.5 505,-291.5"/>
<text text-anchor="start" x="513" y="-309.5" font-family="Helvetica,sans-Serif" font-size="10.00">lib/Transform/ArchVerifier</text>
<text text-anchor="middle" x="569" y="-298.5" font-family="Helvetica,sans-Serif" font-size="10.00">Pass.cpp</text>
</g>
<!-- Node1 -->
<g id="node2" class="node"><title>Node1</title>
<g id="a_node2"><a xlink:href="../../de/de8/ArchVerifierPass_8h.xhtml" target="_top" xlink:title="enfield/Transform/ArchVerifier\lPass.h">
<polygon fill="none" stroke="black" points="248,-224.5 248,-254.5 394,-254.5 394,-224.5 248,-224.5"/>
<text text-anchor="start" x="256" y="-242.5" font-family="Helvetica,sans-Serif" font-size="10.00">enfield/Transform/ArchVerifier</text>
<text text-anchor="middle" x="321" y="-231.5" font-family="Helvetica,sans-Serif" font-size="10.00">Pass.h</text>
</a>
</g>
</g>
<!-- Node0&#45;&gt;Node1 -->
<g id="edge1" class="edge"><title>Node0&#45;&gt;Node1</title>
<path fill="none" stroke="midnightblue" d="M515.493,-291.476C477.081,-281.408 425.156,-267.799 384.619,-257.174"/>
<polygon fill="midnightblue" stroke="midnightblue" points="385.399,-253.761 374.839,-254.611 383.624,-260.532 385.399,-253.761"/>
</g>
<!-- Node20 -->
<g id="node21" class="node"><title>Node20</title>
<g id="a_node21"><a xlink:href="../../d9/ded/Utils_8h.xhtml" target="_top" xlink:title="enfield/Transform/Utils.h">
<polygon fill="none" stroke="black" points="462,-230 462,-249 586,-249 586,-230 462,-230"/>
<text text-anchor="middle" x="524" y="-237" font-family="Helvetica,sans-Serif" font-size="10.00">enfield/Transform/Utils.h</text>
</a>
</g>
</g>
<!-- Node0&#45;&gt;Node20 -->
<g id="edge27" class="edge"><title>Node0&#45;&gt;Node20</title>
<path fill="none" stroke="midnightblue" d="M559.236,-291.396C552.358,-281.462 543.113,-268.108 535.819,-257.572"/>
<polygon fill="midnightblue" stroke="midnightblue" points="538.589,-255.424 530.019,-249.195 532.834,-259.409 538.589,-255.424"/>
</g>
<!-- Node21 -->
<g id="node22" class="node"><title>Node21</title>
<g id="a_node22"><a xlink:href="../../d0/d8d/NodeVisitor_8h.xhtml" target="_top" xlink:title="enfield/Analysis/NodeVisitor.h">
<polygon fill="none" stroke="black" points="602,-168.5 602,-187.5 750,-187.5 750,-168.5 602,-168.5"/>
<text text-anchor="middle" x="676" y="-175.5" font-family="Helvetica,sans-Serif" font-size="10.00">enfield/Analysis/NodeVisitor.h</text>
</a>
</g>
</g>
<!-- Node0&#45;&gt;Node21 -->
<g id="edge30" class="edge"><title>Node0&#45;&gt;Node21</title>
<path fill="none" stroke="midnightblue" d="M579.47,-291.326C591.827,-274.8 613.203,-246.838 633,-224 641.582,-214.1 651.681,-203.483 659.934,-195.049"/>
<polygon fill="midnightblue" stroke="midnightblue" points="662.631,-197.299 667.172,-187.727 657.653,-192.378 662.631,-197.299"/>
</g>
<!-- Node22 -->
<g id="node23" class="node"><title>Node22</title>
<polygon fill="none" stroke="#bfbfbf" points="642.5,-230 642.5,-249 691.5,-249 691.5,-230 642.5,-230"/>
<text text-anchor="middle" x="667" y="-237" font-family="Helvetica,sans-Serif" font-size="10.00">cassert</text>
</g>
<!-- Node0&#45;&gt;Node22 -->
<g id="edge32" class="edge"><title>Node0&#45;&gt;Node22</title>
<path fill="none" stroke="midnightblue" d="M590.265,-291.396C606.699,-280.496 629.34,-265.479 645.766,-254.584"/>
<polygon fill="midnightblue" stroke="midnightblue" points="647.775,-257.451 654.174,-249.007 643.906,-251.618 647.775,-257.451"/>
</g>
<!-- Node2 -->
<g id="node3" class="node"><title>Node2</title>
<g id="a_node3"><a xlink:href="../../df/d29/Pass_8h.xhtml" target="_top" xlink:title="enfield/Transform/Pass.h">
<polygon fill="none" stroke="black" points="406,-112.5 406,-131.5 532,-131.5 532,-112.5 406,-112.5"/>
<text text-anchor="middle" x="469" y="-119.5" font-family="Helvetica,sans-Serif" font-size="10.00">enfield/Transform/Pass.h</text>
</a>
</g>
</g>
<!-- Node1&#45;&gt;Node2 -->
<g id="edge2" class="edge"><title>Node1&#45;&gt;Node2</title>
<path fill="none" stroke="midnightblue" d="M288.979,-224.441C262.451,-210.836 231.688,-189.211 249,-168 267.4,-145.456 339.154,-133.902 395.778,-128.187"/>
<polygon fill="midnightblue" stroke="midnightblue" points="396.182,-131.664 405.799,-127.22 395.509,-124.697 396.182,-131.664"/>
</g>
<!-- Node4 -->
<g id="node5" class="node"><title>Node4</title>
<g id="a_node5"><a xlink:href="../../d4/d73/QModule_8h.xhtml" target="_top" xlink:title="enfield/Transform/QModule.h">
<polygon fill="none" stroke="black" points="402.5,-168.5 402.5,-187.5 545.5,-187.5 545.5,-168.5 402.5,-168.5"/>
<text text-anchor="middle" x="474" y="-175.5" font-family="Helvetica,sans-Serif" font-size="10.00">enfield/Transform/QModule.h</text>
</a>
</g>
</g>
<!-- Node1&#45;&gt;Node4 -->
<g id="edge4" class="edge"><title>Node1&#45;&gt;Node4</title>
<path fill="none" stroke="midnightblue" d="M357.259,-224.399C383.044,-214.372 417.357,-201.028 442.101,-191.405"/>
<polygon fill="midnightblue" stroke="midnightblue" points="443.686,-194.544 451.737,-187.658 441.149,-188.02 443.686,-194.544"/>
</g>
<!-- Node13 -->
<g id="node14" class="node"><title>Node13</title>
<g id="a_node14"><a xlink:href="../../d7/d9d/ArchGraph_8h.xhtml" target="_top" xlink:title="enfield/Arch/ArchGraph.h">
<polygon fill="none" stroke="black" points="258,-168.5 258,-187.5 384,-187.5 384,-168.5 258,-168.5"/>
<text text-anchor="middle" x="321" y="-175.5" font-family="Helvetica,sans-Serif" font-size="10.00">enfield/Arch/ArchGraph.h</text>
</a>
</g>
</g>
<!-- Node1&#45;&gt;Node13 -->
<g id="edge15" class="edge"><title>Node1&#45;&gt;Node13</title>
<path fill="none" stroke="midnightblue" d="M321,-224.399C321,-216.466 321,-206.458 321,-197.858"/>
<polygon fill="midnightblue" stroke="midnightblue" points="324.5,-197.658 321,-187.658 317.5,-197.658 324.5,-197.658"/>
</g>
<!-- Node16 -->
<g id="node17" class="node"><title>Node16</title>
<g id="a_node17"><a xlink:href="../../d1/d73/Defs_8h.xhtml" target="_top" xlink:title="enfield/Support/Defs.h">
<polygon fill="none" stroke="black" points="88,-168.5 88,-187.5 202,-187.5 202,-168.5 88,-168.5"/>
<text text-anchor="middle" x="145" y="-175.5" font-family="Helvetica,sans-Serif" font-size="10.00">enfield/Support/Defs.h</text>
</a>
</g>
</g>
<!-- Node1&#45;&gt;Node16 -->
<g id="edge22" class="edge"><title>Node1&#45;&gt;Node16</title>
<path fill="none" stroke="midnightblue" d="M279.29,-224.399C249.011,-214.163 208.509,-200.47 179.928,-190.808"/>
<polygon fill="midnightblue" stroke="midnightblue" points="180.947,-187.458 170.353,-187.571 178.705,-194.089 180.947,-187.458"/>
</g>
<!-- Node3 -->
<g id="node4" class="node"><title>Node3</title>
<polygon fill="none" stroke="#bfbfbf" points="425,-56.5 425,-75.5 477,-75.5 477,-56.5 425,-56.5"/>
<text text-anchor="middle" x="451" y="-63.5" font-family="Helvetica,sans-Serif" font-size="10.00">memory</text>
</g>
<!-- Node2&#45;&gt;Node3 -->
<g id="edge3" class="edge"><title>Node2&#45;&gt;Node3</title>
<path fill="none" stroke="midnightblue" d="M466.028,-112.083C463.616,-104.849 460.136,-94.4087 457.132,-85.3968"/>
<polygon fill="midnightblue" stroke="midnightblue" points="460.4,-84.1311 453.917,-75.7511 453.759,-86.3447 460.4,-84.1311"/>
</g>
<!-- Node4&#45;&gt;Node2 -->
<g id="edge13" class="edge"><title>Node4&#45;&gt;Node2</title>
<path fill="none" stroke="midnightblue" d="M473.174,-168.083C472.519,-161.006 471.58,-150.861 470.758,-141.986"/>
<polygon fill="midnightblue" stroke="midnightblue" points="474.217,-141.386 469.81,-131.751 467.247,-142.031 474.217,-141.386"/>
</g>
<!-- Node5 -->
<g id="node6" class="node"><title>Node5</title>
<g id="a_node6"><a xlink:href="../../d4/daf/Nodes_8h.xhtml" target="_top" xlink:title="enfield/Analysis/Nodes.h">
<polygon fill="none" stroke="black" points="550.5,-112.5 550.5,-131.5 675.5,-131.5 675.5,-112.5 550.5,-112.5"/>
<text text-anchor="middle" x="613" y="-119.5" font-family="Helvetica,sans-Serif" font-size="10.00">enfield/Analysis/Nodes.h</text>
</a>
</g>
</g>
<!-- Node4&#45;&gt;Node5 -->
<g id="edge5" class="edge"><title>Node4&#45;&gt;Node5</title>
<path fill="none" stroke="midnightblue" d="M496.025,-168.444C519.104,-159.478 555.562,-145.314 581.641,-135.183"/>
<polygon fill="midnightblue" stroke="midnightblue" points="583.024,-138.4 591.078,-131.516 580.489,-131.875 583.024,-138.4"/>
</g>
<!-- Node12 -->
<g id="node13" class="node"><title>Node12</title>
<polygon fill="none" stroke="#bfbfbf" points="323.5,-56.5 323.5,-75.5 406.5,-75.5 406.5,-56.5 323.5,-56.5"/>
<text text-anchor="middle" x="365" y="-63.5" font-family="Helvetica,sans-Serif" font-size="10.00">unordered_map</text>
</g>
<!-- Node4&#45;&gt;Node12 -->
<g id="edge14" class="edge"><title>Node4&#45;&gt;Node12</title>
<path fill="none" stroke="midnightblue" d="M452.1,-168.379C435.283,-160.855 412.404,-148.545 397,-132 384.433,-118.502 375.764,-99.1429 370.65,-85.0647"/>
<polygon fill="midnightblue" stroke="midnightblue" points="373.941,-83.8691 367.428,-75.513 367.308,-86.1072 373.941,-83.8691"/>
</g>
<!-- Node5&#45;&gt;Node3 -->
<g id="edge12" class="edge"><title>Node5&#45;&gt;Node3</title>
<path fill="none" stroke="midnightblue" d="M587.331,-112.444C560.077,-103.359 516.816,-88.9388 486.349,-78.7831"/>
<polygon fill="midnightblue" stroke="midnightblue" points="487.143,-75.3584 476.549,-75.5164 484.929,-81.9992 487.143,-75.3584"/>
</g>
<!-- Node6 -->
<g id="node7" class="node"><title>Node6</title>
<g id="a_node7"><a xlink:href="../../d1/d2e/WrapperVal_8h.xhtml" target="_top" xlink:title="enfield/Support/WrapperVal.h">
<polygon fill="none" stroke="black" points="495,-56.5 495,-75.5 639,-75.5 639,-56.5 495,-56.5"/>
<text text-anchor="middle" x="567" y="-63.5" font-family="Helvetica,sans-Serif" font-size="10.00">enfield/Support/WrapperVal.h</text>
</a>
</g>
</g>
<!-- Node5&#45;&gt;Node6 -->
<g id="edge6" class="edge"><title>Node5&#45;&gt;Node6</title>
<path fill="none" stroke="midnightblue" d="M605.404,-112.083C598.773,-104.298 588.979,-92.8015 580.942,-83.3665"/>
<polygon fill="midnightblue" stroke="midnightblue" points="583.604,-81.0939 574.455,-75.7511 578.275,-85.6332 583.604,-81.0939"/>
</g>
<!-- Node8 -->
<g id="node9" class="node"><title>Node8</title>
<g id="a_node9"><a xlink:href="../../d5/dfc/RTTI_8h.xhtml" target="_top" xlink:title="enfield/Support/RTTI.h">
<polygon fill="none" stroke="black" points="657,-56.5 657,-75.5 773,-75.5 773,-56.5 657,-56.5"/>
<text text-anchor="middle" x="715" y="-63.5" font-family="Helvetica,sans-Serif" font-size="10.00">enfield/Support/RTTI.h</text>
</a>
</g>
</g>
<!-- Node5&#45;&gt;Node8 -->
<g id="edge8" class="edge"><title>Node5&#45;&gt;Node8</title>
<path fill="none" stroke="midnightblue" d="M629.388,-112.324C645.671,-103.703 670.867,-90.3643 689.716,-80.3855"/>
<polygon fill="midnightblue" stroke="midnightblue" points="691.452,-83.4267 698.653,-75.6545 688.177,-77.2402 691.452,-83.4267"/>
</g>
<!-- Node9 -->
<g id="node10" class="node"><title>Node9</title>
<polygon fill="none" stroke="#bfbfbf" points="791.5,-56.5 791.5,-75.5 864.5,-75.5 864.5,-56.5 791.5,-56.5"/>
<text text-anchor="middle" x="828" y="-63.5" font-family="Helvetica,sans-Serif" font-size="10.00">initializer_list</text>
</g>
<!-- Node5&#45;&gt;Node9 -->
<g id="edge9" class="edge"><title>Node5&#45;&gt;Node9</title>
<path fill="none" stroke="midnightblue" d="M647.067,-112.444C684.18,-103.122 743.661,-88.1828 784.215,-77.9972"/>
<polygon fill="midnightblue" stroke="midnightblue" points="785.246,-81.347 794.092,-75.5164 783.541,-74.5579 785.246,-81.347"/>
</g>
<!-- Node10 -->
<g id="node11" class="node"><title>Node10</title>
<polygon fill="none" stroke="#bfbfbf" points="883,-56.5 883,-75.5 937,-75.5 937,-56.5 883,-56.5"/>
<text text-anchor="middle" x="910" y="-63.5" font-family="Helvetica,sans-Serif" font-size="10.00">iostream</text>
</g>
<!-- Node5&#45;&gt;Node10 -->
<g id="edge10" class="edge"><title>Node5&#45;&gt;Node10</title>
<path fill="none" stroke="midnightblue" d="M668.742,-112.464C721.53,-104.119 802.921,-90.5705 873,-76 873.101,-75.979 873.202,-75.9579 873.304,-75.9367"/>
<polygon fill="midnightblue" stroke="midnightblue" points="873.962,-79.3757 882.97,-73.7971 872.449,-72.5412 873.962,-79.3757"/>
</g>
<!-- Node11 -->
<g id="node12" class="node"><title>Node11</title>
<polygon fill="none" stroke="#bfbfbf" points="213,-56.5 213,-75.5 257,-75.5 257,-56.5 213,-56.5"/>
<text text-anchor="middle" x="235" y="-63.5" font-family="Helvetica,sans-Serif" font-size="10.00">vector</text>
</g>
<!-- Node5&#45;&gt;Node11 -->
<g id="edge11" class="edge"><title>Node5&#45;&gt;Node11</title>
<path fill="none" stroke="midnightblue" d="M550.125,-113.1C462.73,-102.086 311.036,-82.8375 267.093,-75.681"/>
<polygon fill="midnightblue" stroke="midnightblue" points="267.711,-72.2361 257.248,-73.9026 266.466,-79.1246 267.711,-72.2361"/>
</g>
<!-- Node7 -->
<g id="node8" class="node"><title>Node7</title>
<polygon fill="none" stroke="#bfbfbf" points="546.5,-0.5 546.5,-19.5 587.5,-19.5 587.5,-0.5 546.5,-0.5"/>
<text text-anchor="middle" x="567" y="-7.5" font-family="Helvetica,sans-Serif" font-size="10.00">string</text>
</g>
<!-- Node6&#45;&gt;Node7 -->
<g id="edge7" class="edge"><title>Node6&#45;&gt;Node7</title>
<path fill="none" stroke="midnightblue" d="M567,-56.083C567,-49.0059 567,-38.8611 567,-29.9865"/>
<polygon fill="midnightblue" stroke="midnightblue" points="570.5,-29.751 567,-19.7511 563.5,-29.7511 570.5,-29.751"/>
</g>
<!-- Node13&#45;&gt;Node5 -->
<g id="edge21" class="edge"><title>Node13&#45;&gt;Node5</title>
<path fill="none" stroke="midnightblue" d="M367.268,-168.444C418.741,-158.925 501.893,-143.547 556.999,-133.356"/>
<polygon fill="midnightblue" stroke="midnightblue" points="557.751,-136.777 566.948,-131.516 556.478,-129.893 557.751,-136.777"/>
</g>
<!-- Node14 -->
<g id="node15" class="node"><title>Node14</title>
<g id="a_node15"><a xlink:href="../../d7/d16/Graph_8h.xhtml" target="_top" xlink:title="enfield/Support/Graph.h">
<polygon fill="none" stroke="black" points="230.5,-112.5 230.5,-131.5 349.5,-131.5 349.5,-112.5 230.5,-112.5"/>
<text text-anchor="middle" x="290" y="-119.5" font-family="Helvetica,sans-Serif" font-size="10.00">enfield/Support/Graph.h</text>
</a>
</g>
</g>
<!-- Node13&#45;&gt;Node14 -->
<g id="edge16" class="edge"><title>Node13&#45;&gt;Node14</title>
<path fill="none" stroke="midnightblue" d="M315.881,-168.083C311.592,-160.613 305.342,-149.724 300.058,-140.52"/>
<polygon fill="midnightblue" stroke="midnightblue" points="303.038,-138.681 295.024,-131.751 296.967,-142.166 303.038,-138.681"/>
</g>
<!-- Node14&#45;&gt;Node3 -->
<g id="edge20" class="edge"><title>Node14&#45;&gt;Node3</title>
<path fill="none" stroke="midnightblue" d="M315.511,-112.444C342.596,-103.359 385.59,-88.9388 415.869,-78.7831"/>
<polygon fill="midnightblue" stroke="midnightblue" points="417.24,-82.0148 425.608,-75.5164 415.014,-75.3781 417.24,-82.0148"/>
</g>
<!-- Node14&#45;&gt;Node11 -->
<g id="edge18" class="edge"><title>Node14&#45;&gt;Node11</title>
<path fill="none" stroke="midnightblue" d="M280.918,-112.083C272.829,-104.141 260.805,-92.3354 251.09,-82.7973"/>
<polygon fill="midnightblue" stroke="midnightblue" points="253.501,-80.2595 243.913,-75.7511 248.597,-85.2545 253.501,-80.2595"/>
</g>
<!-- Node14&#45;&gt;Node12 -->
<g id="edge19" class="edge"><title>Node14&#45;&gt;Node12</title>
<path fill="none" stroke="midnightblue" d="M302.05,-112.324C313.463,-104.107 330.831,-91.6017 344.435,-81.8069"/>
<polygon fill="midnightblue" stroke="midnightblue" points="346.66,-84.5174 352.731,-75.8339 342.57,-78.8366 346.66,-84.5174"/>
</g>
<!-- Node15 -->
<g id="node16" class="node"><title>Node15</title>
<polygon fill="none" stroke="#bfbfbf" points="275,-56.5 275,-75.5 305,-75.5 305,-56.5 275,-56.5"/>
<text text-anchor="middle" x="290" y="-63.5" font-family="Helvetica,sans-Serif" font-size="10.00">set</text>
</g>
<!-- Node14&#45;&gt;Node15 -->
<g id="edge17" class="edge"><title>Node14&#45;&gt;Node15</title>
<path fill="none" stroke="midnightblue" d="M290,-112.083C290,-105.006 290,-94.8611 290,-85.9865"/>
<polygon fill="midnightblue" stroke="midnightblue" points="293.5,-85.751 290,-75.7511 286.5,-85.7511 293.5,-85.751"/>
</g>
<!-- Node16&#45;&gt;Node11 -->
<g id="edge23" class="edge"><title>Node16&#45;&gt;Node11</title>
<path fill="none" stroke="midnightblue" d="M152.353,-168.43C160.058,-159.418 172.481,-144.797 183,-132 196.272,-115.854 211.144,-97.2058 221.573,-84.0357"/>
<polygon fill="midnightblue" stroke="midnightblue" points="224.555,-85.9073 228.009,-75.8912 219.063,-81.5673 224.555,-85.9073"/>
</g>
<!-- Node17 -->
<g id="node18" class="node"><title>Node17</title>
<polygon fill="none" stroke="#bfbfbf" points="128,-112.5 128,-131.5 174,-131.5 174,-112.5 128,-112.5"/>
<text text-anchor="middle" x="151" y="-119.5" font-family="Helvetica,sans-Serif" font-size="10.00">cstdint</text>
</g>
<!-- Node16&#45;&gt;Node17 -->
<g id="edge24" class="edge"><title>Node16&#45;&gt;Node17</title>
<path fill="none" stroke="midnightblue" d="M145.991,-168.083C146.786,-160.927 147.929,-150.635 148.923,-141.691"/>
<polygon fill="midnightblue" stroke="midnightblue" points="152.402,-142.076 150.028,-131.751 145.445,-141.303 152.402,-142.076"/>
</g>
<!-- Node18 -->
<g id="node19" class="node"><title>Node18</title>
<polygon fill="none" stroke="#bfbfbf" points="0,-112.5 0,-131.5 40,-131.5 40,-112.5 0,-112.5"/>
<text text-anchor="middle" x="20" y="-119.5" font-family="Helvetica,sans-Serif" font-size="10.00">limits</text>
</g>
<!-- Node16&#45;&gt;Node18 -->
<g id="edge25" class="edge"><title>Node16&#45;&gt;Node18</title>
<path fill="none" stroke="midnightblue" d="M125.193,-168.444C104.713,-159.596 72.5173,-145.687 49.1353,-135.586"/>
<polygon fill="midnightblue" stroke="midnightblue" points="50.282,-132.269 39.714,-131.516 47.5059,-138.695 50.282,-132.269"/>
</g>
<!-- Node19 -->
<g id="node20" class="node"><title>Node19</title>
<polygon fill="none" stroke="#bfbfbf" points="58,-112.5 58,-131.5 110,-131.5 110,-112.5 58,-112.5"/>
<text text-anchor="middle" x="84" y="-119.5" font-family="Helvetica,sans-Serif" font-size="10.00">ostream</text>
</g>
<!-- Node16&#45;&gt;Node19 -->
<g id="edge26" class="edge"><title>Node16&#45;&gt;Node19</title>
<path fill="none" stroke="midnightblue" d="M135.199,-168.324C126.182,-160.341 112.594,-148.313 101.682,-138.653"/>
<polygon fill="midnightblue" stroke="midnightblue" points="103.787,-135.842 93.979,-131.834 99.1467,-141.083 103.787,-135.842"/>
</g>
<!-- Node20&#45;&gt;Node4 -->
<g id="edge29" class="edge"><title>Node20&#45;&gt;Node4</title>
<path fill="none" stroke="midnightblue" d="M516.836,-229.975C509.262,-220.962 497.13,-206.525 487.707,-195.312"/>
<polygon fill="midnightblue" stroke="midnightblue" points="490.263,-192.913 481.15,-187.509 484.904,-197.417 490.263,-192.913"/>
</g>
<!-- Node20&#45;&gt;Node5 -->
<g id="edge28" class="edge"><title>Node20&#45;&gt;Node5</title>
<path fill="none" stroke="midnightblue" d="M530.689,-229.819C545.379,-210.755 580.677,-164.947 599.933,-139.958"/>
<polygon fill="midnightblue" stroke="midnightblue" points="602.902,-141.839 606.233,-131.782 597.357,-137.567 602.902,-141.839"/>
</g>
<!-- Node21&#45;&gt;Node5 -->
<g id="edge31" class="edge"><title>Node21&#45;&gt;Node5</title>
<path fill="none" stroke="midnightblue" d="M665.878,-168.324C656.474,-160.263 642.256,-148.077 630.931,-138.369"/>
<polygon fill="midnightblue" stroke="midnightblue" points="633.177,-135.684 623.306,-131.834 628.621,-140.999 633.177,-135.684"/>
</g>
</g>
</svg>
        <g id="navigator" transform="translate(0 0)" fill="#404254">
                <rect fill="#f2f5e9" fill-opacity="0.5" stroke="#606060" stroke-width=".5" x="0" y="0" width="60" height="60"/>
                <use id="zoomplus" xlink:href="#zoomPlus" x="17" y="9" onmousedown="handleZoom(evt,'in')"/>
                <use id="zoomminus" xlink:href="#zoomMin" x="42" y="9" onmousedown="handleZoom(evt,'out')"/>
                <use id="reset" xlink:href="#resetDef" x="30" y="36" onmousedown="handleReset()"/>
                <g id="arrowUp" xlink:href="#dirArrow" transform="translate(30 24)" onmousedown="handlePan(0,-1)">
                  <use xlink:href="#rim" fill="#404040">
                        <set attributeName="fill" to="#808080" begin="arrowUp.mouseover" end="arrowUp.mouseout"/>
                  </use>
                  <path fill="none" stroke="white" stroke-width="1.5" d="M0,-3.0v7 M-2.5,-0.5L0,-3.0L2.5,-0.5"/>
                </g>
                <g id="arrowRight" xlink:href="#dirArrow" transform="rotate(90) translate(36 -43)" onmousedown="handlePan(1,0)">
                  <use xlink:href="#rim" fill="#404040">
                        <set attributeName="fill" to="#808080" begin="arrowRight.mouseover" end="arrowRight.mouseout"/>
                  </use>
                  <path fill="none" stroke="white" stroke-width="1.5" d="M0,-3.0v7 M-2.5,-0.5L0,-3.0L2.5,-0.5"/>
                </g>
                <g id="arrowDown" xlink:href="#dirArrow" transform="rotate(180) translate(-30 -48)" onmousedown="handlePan(0,1)">
                  <use xlink:href="#rim" fill="#404040">
                        <set attributeName="fill" to="#808080" begin="arrowDown.mouseover" end="arrowDown.mouseout"/>
                  </use>
                  <path fill="none" stroke="white" stroke-width="1.5" d="M0,-3.0v7 M-2.5,-0.5L0,-3.0L2.5,-0.5"/>
                </g>
                <g id="arrowLeft" xlink:href="#dirArrow" transform="rotate(270) translate(-36 17)" onmousedown="handlePan(-1,0)">
                  <use xlink:href="#rim" fill="#404040">
                        <set attributeName="fill" to="#808080" begin="arrowLeft.mouseover" end="arrowLeft.mouseout"/>
                  </use>
                  <path fill="none" stroke="white" stroke-width="1.5" d="M0,-3.0v7 M-2.5,-0.5L0,-3.0L2.5,-0.5"/>
                </g>
        </g>
        <svg viewBox="0 0 15 15" width="100%" height="30px" preserveAspectRatio="xMaxYMin meet">
         <g id="arrow_out" transform="scale(0.3 0.3)">
          <a xlink:href="ArchVerifierPass_8cpp__incl_org.svg" target="_base">
           <rect id="button" ry="5" rx="5" y="6" x="6" height="38" width="38"
                fill="#f2f5e9" fill-opacity="0.5" stroke="#606060" stroke-width="1.0"/>
           <path id="arrow"
             d="M 11.500037,31.436501 C 11.940474,20.09759 22.043105,11.32322 32.158766,21.979434 L 37.068811,17.246167 C 37.068811,17.246167 37.088388,32 37.088388,32 L 22.160133,31.978069 C 22.160133,31.978069 26.997745,27.140456 26.997745,27.140456 C 18.528582,18.264221 13.291696,25.230495 11.500037,31.436501 z"
             style="fill:#404040;"/>
          </a>
         </g>
        </svg>
</svg>
