<?xml version="1.0" encoding="UTF-8" standalone="no"?>
<!DOCTYPE svg PUBLIC "-//W3C//DTD SVG 1.1//EN"
 "http://www.w3.org/Graphics/SVG/1.1/DTD/svg11.dtd">
<!-- Generated by graphviz version 2.38.0 (20140413.2041)
 -->
<!-- Title: efd::ApproxTSFinder::Create Pages: 1 -->
<svg width="409pt" height="39pt"
 viewBox="0.00 0.00 409.00 39.00" xmlns="http://www.w3.org/2000/svg" xmlns:xlink="http://www.w3.org/1999/xlink">
<g id="graph0" class="graph" transform="scale(1 1) rotate(0) translate(4 35)">
<title>efd::ApproxTSFinder::Create</title>
<!-- Node2 -->
<g id="node1" class="node"><title>Node2</title>
<polygon fill="#bfbfbf" stroke="black" points="0,-0.5 0,-30.5 107,-30.5 107,-0.5 0,-0.5"/>
<text text-anchor="start" x="8" y="-18.5" font-family="Helvetica,sans-Serif" font-size="10.00">efd::ApproxTSFinder</text>
<text text-anchor="middle" x="53.5" y="-7.5" font-family="Helvetica,sans-Serif" font-size="10.00">::Create</text>
</g>
<!-- Node3 -->
<g id="node2" class="node"><title>Node3</title>
<g id="a_node2"><a xlink:href="../../d4/dfd/classefd_1_1ApproxTSFinder.xhtml#a48e2a69ee11d70c0d074cba522c48149" target="_top" xlink:title="efd::ApproxTSFinder\l::ApproxTSFinder">
<polygon fill="none" stroke="black" points="143,-0.5 143,-30.5 250,-30.5 250,-0.5 143,-0.5"/>
<text text-anchor="start" x="151" y="-18.5" font-family="Helvetica,sans-Serif" font-size="10.00">efd::ApproxTSFinder</text>
<text text-anchor="middle" x="196.5" y="-7.5" font-family="Helvetica,sans-Serif" font-size="10.00">::ApproxTSFinder</text>
</a>
</g>
</g>
<!-- Node2&#45;&gt;Node3 -->
<g id="edge1" class="edge"><title>Node2&#45;&gt;Node3</title>
<path fill="none" stroke="midnightblue" d="M107.003,-15.5C115.445,-15.5 124.255,-15.5 132.905,-15.5"/>
<polygon fill="midnightblue" stroke="midnightblue" points="132.953,-19.0001 142.953,-15.5 132.953,-12.0001 132.953,-19.0001"/>
</g>
<!-- Node4 -->
<g id="node3" class="node"><title>Node4</title>
<g id="a_node3"><a xlink:href="../../d1/dad/classefd_1_1TokenSwapFinder.xhtml#a4e88829212a32134fa42349ad5412f75" target="_top" xlink:title="efd::TokenSwapFinder\l::TokenSwapFinder">
<polygon fill="none" stroke="black" points="286,-0.5 286,-30.5 401,-30.5 401,-0.5 286,-0.5"/>
<text text-anchor="start" x="294" y="-18.5" font-family="Helvetica,sans-Serif" font-size="10.00">efd::TokenSwapFinder</text>
<text text-anchor="middle" x="343.5" y="-7.5" font-family="Helvetica,sans-Serif" font-size="10.00">::TokenSwapFinder</text>
</a>
</g>
</g>
<!-- Node3&#45;&gt;Node4 -->
<g id="edge2" class="edge"><title>Node3&#45;&gt;Node4</title>
<path fill="none" stroke="midnightblue" d="M250.259,-15.5C258.433,-15.5 266.97,-15.5 275.409,-15.5"/>
<polygon fill="midnightblue" stroke="midnightblue" points="275.623,-19.0001 285.623,-15.5 275.623,-12.0001 275.623,-19.0001"/>
</g>
</g>
</svg>
