<?xml version="1.0" encoding="UTF-8" standalone="no"?>
<!DOCTYPE svg PUBLIC "-//W3C//DTD SVG 1.1//EN"
 "http://www.w3.org/Graphics/SVG/1.1/DTD/svg11.dtd">
<!-- Generated by graphviz version 2.40.1 (20161225.0304)
 -->
<!-- Title: lib/Support/TokenSwapFinder.cpp Pages: 1 -->
<svg width="500pt" height="207pt"
 viewBox="0.00 0.00 499.50 207.00" xmlns="http://www.w3.org/2000/svg" xmlns:xlink="http://www.w3.org/1999/xlink">
<g id="graph0" class="graph" transform="scale(1 1) rotate(0) translate(4 203)">
<title>lib/Support/TokenSwapFinder.cpp</title>
<!-- Node0 -->
<g id="node1" class="node">
<title>Node0</title>
<polygon fill="#bfbfbf" stroke="#000000" points="169.5,-179.5 169.5,-198.5 348.5,-198.5 348.5,-179.5 169.5,-179.5"/>
<text text-anchor="middle" x="259" y="-186.5" font-family="Helvetica,sans-Serif" font-size="10.00" fill="#000000">lib/Support/TokenSwapFinder.cpp</text>
</g>
<!-- Node1 -->
<g id="node2" class="node">
<title>Node1</title>
<g id="a_node2"><a xlink:href="../../dc/d2d/TokenSwapFinder_8h.xhtml" target="_top" xlink:title="enfield/Support/TokenSwap\lFinder.h">
<polygon fill="none" stroke="#000000" points="184,-112.5 184,-142.5 334,-142.5 334,-112.5 184,-112.5"/>
<text text-anchor="start" x="192" y="-130.5" font-family="Helvetica,sans-Serif" font-size="10.00" fill="#000000">enfield/Support/TokenSwap</text>
<text text-anchor="middle" x="259" y="-119.5" font-family="Helvetica,sans-Serif" font-size="10.00" fill="#000000">Finder.h</text>
</a>
</g>
</g>
<!-- Node0&#45;&gt;Node1 -->
<g id="edge1" class="edge">
<title>Node0&#45;&gt;Node1</title>
<path fill="none" stroke="#191970" d="M259,-179.3906C259,-172.2234 259,-162.0862 259,-152.671"/>
<polygon fill="#191970" stroke="#191970" points="262.5001,-152.5446 259,-142.5446 255.5001,-152.5446 262.5001,-152.5446"/>
</g>
<!-- Node2 -->
<g id="node3" class="node">
<title>Node2</title>
<g id="a_node3"><a xlink:href="../../d7/d16/Graph_8h.xhtml" target="_top" xlink:title="enfield/Support/Graph.h">
<polygon fill="none" stroke="#000000" points="120,-56.5 120,-75.5 252,-75.5 252,-56.5 120,-56.5"/>
<text text-anchor="middle" x="186" y="-63.5" font-family="Helvetica,sans-Serif" font-size="10.00" fill="#000000">enfield/Support/Graph.h</text>
</a>
</g>
</g>
<!-- Node1&#45;&gt;Node2 -->
<g id="edge2" class="edge">
<title>Node1&#45;&gt;Node2</title>
<path fill="none" stroke="#191970" d="M240.9551,-112.2977C230.1886,-103.2274 216.5149,-91.7077 205.5005,-82.4285"/>
<polygon fill="#191970" stroke="#191970" points="207.5911,-79.6132 197.6882,-75.8469 203.0809,-84.9667 207.5911,-79.6132"/>
</g>
<!-- Node7 -->
<g id="node8" class="node">
<title>Node7</title>
<g id="a_node8"><a xlink:href="../../d1/d73/Defs_8h.xhtml" target="_top" xlink:title="enfield/Support/Defs.h">
<polygon fill="none" stroke="#000000" points="270.5,-56.5 270.5,-75.5 395.5,-75.5 395.5,-56.5 270.5,-56.5"/>
<text text-anchor="middle" x="333" y="-63.5" font-family="Helvetica,sans-Serif" font-size="10.00" fill="#000000">enfield/Support/Defs.h</text>
</a>
</g>
</g>
<!-- Node1&#45;&gt;Node7 -->
<g id="edge7" class="edge">
<title>Node1&#45;&gt;Node7</title>
<path fill="none" stroke="#191970" d="M277.2921,-112.2977C288.2061,-103.2274 302.0671,-91.7077 313.2324,-82.4285"/>
<polygon fill="#191970" stroke="#191970" points="315.698,-84.9303 321.1517,-75.8469 311.2238,-79.5468 315.698,-84.9303"/>
</g>
<!-- Node3 -->
<g id="node4" class="node">
<title>Node3</title>
<polygon fill="none" stroke="#bfbfbf" points="0,-.5 0,-19.5 32,-19.5 32,-.5 0,-.5"/>
<text text-anchor="middle" x="16" y="-7.5" font-family="Helvetica,sans-Serif" font-size="10.00" fill="#000000">set</text>
</g>
<!-- Node2&#45;&gt;Node3 -->
<g id="edge3" class="edge">
<title>Node2&#45;&gt;Node3</title>
<path fill="none" stroke="#191970" d="M153.5222,-56.4414C126.0042,-48.1786 85.3304,-35.5828 41.7159,-20.0872"/>
<polygon fill="#191970" stroke="#191970" points="42.6663,-16.7098 32.0717,-16.6299 40.3041,-23.2992 42.6663,-16.7098"/>
</g>
<!-- Node4 -->
<g id="node5" class="node">
<title>Node4</title>
<polygon fill="none" stroke="#bfbfbf" points="238.5,-.5 238.5,-19.5 285.5,-19.5 285.5,-.5 238.5,-.5"/>
<text text-anchor="middle" x="262" y="-7.5" font-family="Helvetica,sans-Serif" font-size="10.00" fill="#000000">vector</text>
</g>
<!-- Node2&#45;&gt;Node4 -->
<g id="edge4" class="edge">
<title>Node2&#45;&gt;Node4</title>
<path fill="none" stroke="#191970" d="M199.2382,-56.2455C210.681,-47.814 227.4296,-35.4729 240.7475,-25.6598"/>
<polygon fill="#191970" stroke="#191970" points="242.9391,-28.3924 248.9135,-19.6427 238.7867,-22.757 242.9391,-28.3924"/>
</g>
<!-- Node5 -->
<g id="node6" class="node">
<title>Node5</title>
<polygon fill="none" stroke="#bfbfbf" points="50.5,-.5 50.5,-19.5 143.5,-19.5 143.5,-.5 50.5,-.5"/>
<text text-anchor="middle" x="97" y="-7.5" font-family="Helvetica,sans-Serif" font-size="10.00" fill="#000000">unordered_map</text>
</g>
<!-- Node2&#45;&gt;Node5 -->
<g id="edge5" class="edge">
<title>Node2&#45;&gt;Node5</title>
<path fill="none" stroke="#191970" d="M170.4974,-56.2455C156.842,-47.6534 136.7343,-35.0014 121.0011,-25.1018"/>
<polygon fill="#191970" stroke="#191970" points="122.6529,-22.006 112.325,-19.6427 118.9249,-27.9307 122.6529,-22.006"/>
</g>
<!-- Node6 -->
<g id="node7" class="node">
<title>Node6</title>
<polygon fill="none" stroke="#bfbfbf" points="162,-.5 162,-19.5 220,-19.5 220,-.5 162,-.5"/>
<text text-anchor="middle" x="191" y="-7.5" font-family="Helvetica,sans-Serif" font-size="10.00" fill="#000000">memory</text>
</g>
<!-- Node2&#45;&gt;Node6 -->
<g id="edge6" class="edge">
<title>Node2&#45;&gt;Node6</title>
<path fill="none" stroke="#191970" d="M186.8709,-56.2455C187.5234,-48.9382 188.438,-38.6944 189.2407,-29.7046"/>
<polygon fill="#191970" stroke="#191970" points="192.7358,-29.9143 190.139,-19.6427 185.7635,-29.2918 192.7358,-29.9143"/>
</g>
<!-- Node7&#45;&gt;Node4 -->
<g id="edge8" class="edge">
<title>Node7&#45;&gt;Node4</title>
<path fill="none" stroke="#191970" d="M320.6327,-56.2455C310.0446,-47.8943 294.5936,-35.7076 282.2107,-25.9408"/>
<polygon fill="#191970" stroke="#191970" points="284.2447,-23.0875 274.2255,-19.6427 279.9097,-28.5837 284.2447,-23.0875"/>
</g>
<!-- Node8 -->
<g id="node9" class="node">
<title>Node8</title>
<polygon fill="none" stroke="#bfbfbf" points="304,-.5 304,-19.5 354,-19.5 354,-.5 304,-.5"/>
<text text-anchor="middle" x="329" y="-7.5" font-family="Helvetica,sans-Serif" font-size="10.00" fill="#000000">cstdint</text>
</g>
<!-- Node7&#45;&gt;Node8 -->
<g id="edge9" class="edge">
<title>Node7&#45;&gt;Node8</title>
<path fill="none" stroke="#191970" d="M332.3033,-56.2455C331.7813,-48.9382 331.0496,-38.6944 330.4075,-29.7046"/>
<polygon fill="#191970" stroke="#191970" points="333.8924,-29.3679 329.6888,-19.6427 326.9102,-29.8667 333.8924,-29.3679"/>
</g>
<!-- Node9 -->
<g id="node10" class="node">
<title>Node9</title>
<polygon fill="none" stroke="#bfbfbf" points="372,-.5 372,-19.5 416,-19.5 416,-.5 372,-.5"/>
<text text-anchor="middle" x="394" y="-7.5" font-family="Helvetica,sans-Serif" font-size="10.00" fill="#000000">limits</text>
</g>
<!-- Node7&#45;&gt;Node9 -->
<g id="edge10" class="edge">
<title>Node7&#45;&gt;Node9</title>
<path fill="none" stroke="#191970" d="M343.6254,-56.2455C352.5473,-48.0549 365.488,-36.1749 376.0192,-26.5069"/>
<polygon fill="#191970" stroke="#191970" points="378.4968,-28.9837 383.4964,-19.6427 373.7629,-23.8271 378.4968,-28.9837"/>
</g>
<!-- Node10 -->
<g id="node11" class="node">
<title>Node10</title>
<polygon fill="none" stroke="#bfbfbf" points="434.5,-.5 434.5,-19.5 491.5,-19.5 491.5,-.5 434.5,-.5"/>
<text text-anchor="middle" x="463" y="-7.5" font-family="Helvetica,sans-Serif" font-size="10.00" fill="#000000">ostream</text>
</g>
<!-- Node7&#45;&gt;Node10 -->
<g id="edge11" class="edge">
<title>Node7&#45;&gt;Node10</title>
<path fill="none" stroke="#191970" d="M355.3478,-56.3733C376.4033,-47.3032 408.1495,-33.6279 431.7175,-23.4755"/>
<polygon fill="#191970" stroke="#191970" points="433.1444,-26.6719 440.9438,-19.5011 430.375,-20.243 433.1444,-26.6719"/>
</g>
</g>
</svg>
