<?xml version="1.0" encoding="UTF-8" standalone="no"?>
<!DOCTYPE svg PUBLIC "-//W3C//DTD SVG 1.1//EN"
 "http://www.w3.org/Graphics/SVG/1.1/DTD/svg11.dtd">
<!-- Generated by graphviz version 2.38.0 (20140413.2041)
 -->
<!-- Title: efd::NDDecl Pages: 1 -->
<svg width="131pt" height="85pt"
 viewBox="0.00 0.00 131.00 85.00" xmlns="http://www.w3.org/2000/svg" xmlns:xlink="http://www.w3.org/1999/xlink">
<g id="graph0" class="graph" transform="scale(1 1) rotate(0) translate(4 81)">
<title>efd::NDDecl</title>
<!-- Node5 -->
<g id="node1" class="node"><title>Node5</title>
<polygon fill="#bfbfbf" stroke="black" points="0,-0.5 0,-19.5 71,-19.5 71,-0.5 0,-0.5"/>
<text text-anchor="middle" x="35.5" y="-7.5" font-family="Helvetica,sans-Serif" font-size="10.00">efd::NDDecl</text>
</g>
<!-- Node6 -->
<g id="node2" class="node"><title>Node6</title>
<g id="a_node2"><a xlink:href="../../d6/d6a/classefd_1_1Node.xhtml" target="_top" xlink:title="Base class for AST nodes. ">
<polygon fill="none" stroke="black" points="6,-57.5 6,-76.5 65,-76.5 65,-57.5 6,-57.5"/>
<text text-anchor="middle" x="35.5" y="-64.5" font-family="Helvetica,sans-Serif" font-size="10.00">efd::Node</text>
</a>
</g>
</g>
<!-- Node6&#45;&gt;Node5 -->
<g id="edge1" class="edge"><title>Node6&#45;&gt;Node5</title>
<path fill="none" stroke="midnightblue" d="M35.5,-47.1166C35.5,-37.8173 35.5,-27.0557 35.5,-19.7149"/>
<polygon fill="midnightblue" stroke="midnightblue" points="32.0001,-47.4062 35.5,-57.4062 39.0001,-47.4063 32.0001,-47.4062"/>
</g>
<!-- Node6&#45;&gt;Node6 -->
<g id="edge2" class="edge"><title>Node6&#45;&gt;Node6</title>
<path fill="none" stroke="#9a32cd" stroke-dasharray="5,2" d="M75.1722,-71.5117C79.9076,-70.6914 83,-69.1875 83,-67 83,-63.5 75.0833,-61.75 65.1875,-61.75"/>
<polygon fill="#9a32cd" stroke="#9a32cd" points="74.9022,-68.022 65.1875,-72.25 75.4184,-75.003 74.9022,-68.022"/>
<text text-anchor="middle" x="103" y="-64.5" font-family="Helvetica,sans-Serif" font-size="10.00"> mParent</text>
</g>
</g>
</svg>
