<?xml version="1.0" encoding="UTF-8" standalone="no"?>
<!DOCTYPE svg PUBLIC "-//W3C//DTD SVG 1.1//EN"
 "http://www.w3.org/Graphics/SVG/1.1/DTD/svg11.dtd">
<!-- Generated by graphviz version 2.38.0 (20140413.2041)
 -->
<!-- Title: efd::Graph Pages: 1 -->
<svg width="299pt" height="140pt"
 viewBox="0.00 0.00 299.00 140.00" xmlns="http://www.w3.org/2000/svg" xmlns:xlink="http://www.w3.org/1999/xlink">
<g id="graph0" class="graph" transform="scale(1 1) rotate(0) translate(4 136)">
<title>efd::Graph</title>
<!-- Node0 -->
<g id="node1" class="node"><title>Node0</title>
<polygon fill="#bfbfbf" stroke="black" points="134,-112.5 134,-131.5 196,-131.5 196,-112.5 134,-112.5"/>
<text text-anchor="middle" x="165" y="-119.5" font-family="Helvetica,sans-Serif" font-size="10.00">efd::Graph</text>
</g>
<!-- Node1 -->
<g id="node2" class="node"><title>Node1</title>
<g id="a_node2"><a xlink:href="../../d5/dae/classefd_1_1ArchGraph.xhtml" target="_top" xlink:title="This is the base class for the architectures that this project will be supporting. ">
<polygon fill="none" stroke="black" points="61.5,-56.5 61.5,-75.5 144.5,-75.5 144.5,-56.5 61.5,-56.5"/>
<text text-anchor="middle" x="103" y="-63.5" font-family="Helvetica,sans-Serif" font-size="10.00">efd::ArchGraph</text>
</a>
</g>
</g>
<!-- Node0&#45;&gt;Node1 -->
<g id="edge1" class="edge"><title>Node0&#45;&gt;Node1</title>
<path fill="none" stroke="midnightblue" d="M147.246,-105.537C136.192,-95.9087 122.369,-83.8694 113.143,-75.8339"/>
<polygon fill="midnightblue" stroke="midnightblue" points="145.199,-108.395 155.039,-112.324 149.797,-103.117 145.199,-108.395"/>
</g>
<!-- Node4 -->
<g id="node5" class="node"><title>Node4</title>
<g id="a_node5"><a xlink:href="../../d2/d54/classefd_1_1WeightedGraph.xhtml" target="_top" xlink:title="efd::WeightedGraph\&lt; T \&gt;">
<polygon fill="none" stroke="black" points="163,-56.5 163,-75.5 291,-75.5 291,-56.5 163,-56.5"/>
<text text-anchor="middle" x="227" y="-63.5" font-family="Helvetica,sans-Serif" font-size="10.00">efd::WeightedGraph&lt; T &gt;</text>
</a>
</g>
</g>
<!-- Node0&#45;&gt;Node4 -->
<g id="edge4" class="edge"><title>Node0&#45;&gt;Node4</title>
<path fill="none" stroke="midnightblue" d="M182.754,-105.537C193.808,-95.9087 207.631,-83.8694 216.857,-75.8339"/>
<polygon fill="midnightblue" stroke="midnightblue" points="180.203,-103.117 174.961,-112.324 184.801,-108.395 180.203,-103.117"/>
</g>
<!-- Node2 -->
<g id="node3" class="node"><title>Node2</title>
<g id="a_node3"><a xlink:href="../../d7/db8/classefd_1_1ArchIBMQX2.xhtml" target="_top" xlink:title="efd::ArchIBMQX2">
<polygon fill="none" stroke="black" points="0,-0.5 0,-19.5 94,-19.5 94,-0.5 0,-0.5"/>
<text text-anchor="middle" x="47" y="-7.5" font-family="Helvetica,sans-Serif" font-size="10.00">efd::ArchIBMQX2</text>
</a>
</g>
</g>
<!-- Node1&#45;&gt;Node2 -->
<g id="edge2" class="edge"><title>Node1&#45;&gt;Node2</title>
<path fill="none" stroke="midnightblue" d="M86.6701,-49.2533C76.735,-39.6731 64.4125,-27.7906 56.1611,-19.8339"/>
<polygon fill="midnightblue" stroke="midnightblue" points="84.3747,-51.902 94.0026,-56.324 89.2336,-46.8631 84.3747,-51.902"/>
</g>
<!-- Node3 -->
<g id="node4" class="node"><title>Node3</title>
<g id="a_node4"><a xlink:href="../../d6/df8/classefd_1_1ArchIBMQX3.xhtml" target="_top" xlink:title="efd::ArchIBMQX3">
<polygon fill="none" stroke="black" points="112,-0.5 112,-19.5 206,-19.5 206,-0.5 112,-0.5"/>
<text text-anchor="middle" x="159" y="-7.5" font-family="Helvetica,sans-Serif" font-size="10.00">efd::ArchIBMQX3</text>
</a>
</g>
</g>
<!-- Node1&#45;&gt;Node3 -->
<g id="edge3" class="edge"><title>Node1&#45;&gt;Node3</title>
<path fill="none" stroke="midnightblue" d="M119.33,-49.2533C129.265,-39.6731 141.588,-27.7906 149.839,-19.8339"/>
<polygon fill="midnightblue" stroke="midnightblue" points="116.766,-46.8631 111.997,-56.324 121.625,-51.902 116.766,-46.8631"/>
</g>
</g>
</svg>
