<?xml version="1.0" encoding="UTF-8" standalone="no"?>
<!DOCTYPE svg PUBLIC "-//W3C//DTD SVG 1.1//EN"
 "http://www.w3.org/Graphics/SVG/1.1/DTD/svg11.dtd">
<!-- Generated by graphviz version 2.38.0 (20140413.2041)
 -->
<!-- Title: lib/Transform/CNOTLBOWrapperPass.cpp Pages: 1 -->
<!--zoomable 475 -->
<svg id="main" version="1.1" xmlns="http://www.w3.org/2000/svg" xmlns:xlink="http://www.w3.org/1999/xlink" xml:space="preserve" onload="init(evt)">
<style type="text/css"><![CDATA[
.edge:hover path { stroke: red; }
.edge:hover polygon { stroke: red; fill: red; }
]]></style>
<script type="text/javascript"><![CDATA[
var edges = document.getElementsByTagName('g');
if (edges && edges.length) {
  for (var i=0;i<edges.length;i++) {
    if (edges[i].id.substr(0,4)=='edge') {
      edges[i].setAttribute('class','edge');
    }
  }
}
]]></script>
        <defs>
                <circle id="rim" cx="0" cy="0" r="7"/>
                <circle id="rim2" cx="0" cy="0" r="3.5"/>
                <g id="zoomPlus">
                        <use xlink:href="#rim" fill="#404040">
                                <set attributeName="fill" to="#808080" begin="zoomplus.mouseover" end="zoomplus.mouseout"/>
                        </use>
                        <path d="M-4,0h8M0,-4v8" fill="none" stroke="white" stroke-width="1.5" pointer-events="none"/>
                </g>
                <g id="zoomMin">
                        <use xlink:href="#rim" fill="#404040">
                                <set attributeName="fill" to="#808080" begin="zoomminus.mouseover" end="zoomminus.mouseout"/>
                        </use>
                        <path d="M-4,0h8" fill="none" stroke="white" stroke-width="1.5" pointer-events="none"/>
                </g>
                <g id="dirArrow">
                        <path fill="none" stroke="white" stroke-width="1.5" d="M0,-3.0v7 M-2.5,-0.5L0,-3.0L2.5,-0.5"/>
                </g>
               <g id="resetDef">
                       <use xlink:href="#rim2" fill="#404040">
                               <set attributeName="fill" to="#808080" begin="reset.mouseover" end="reset.mouseout"/>
                       </use>
               </g>
        </defs>

<script type="text/javascript">
var viewWidth = 754;
var viewHeight = 475;
var sectionId = 'dynsection-0';
</script>
<script xlink:href="../../svgpan.js"/>
<svg id="graph" class="graph">
<g id="viewport">
<title>lib/Transform/CNOTLBOWrapperPass.cpp</title>
<!-- Node0 -->
<g id="node1" class="node"><title>Node0</title>
<polygon fill="#bfbfbf" stroke="black" points="369.5,-436.5 369.5,-466.5 530.5,-466.5 530.5,-436.5 369.5,-436.5"/>
<text text-anchor="start" x="377.5" y="-454.5" font-family="Helvetica,sans-Serif" font-size="10.00">lib/Transform/CNOTLBOWrapper</text>
<text text-anchor="middle" x="450" y="-443.5" font-family="Helvetica,sans-Serif" font-size="10.00">Pass.cpp</text>
</g>
<!-- Node1 -->
<g id="node2" class="node"><title>Node1</title>
<g id="a_node2"><a xlink:href="../../d1/dc9/CNOTLBOWrapperPass_8h.xhtml" target="_top" xlink:title="enfield/Transform/CNOTLBOWrapper\lPass.h">
<polygon fill="none" stroke="black" points="135,-369.5 135,-399.5 315,-399.5 315,-369.5 135,-369.5"/>
<text text-anchor="start" x="143" y="-387.5" font-family="Helvetica,sans-Serif" font-size="10.00">enfield/Transform/CNOTLBOWrapper</text>
<text text-anchor="middle" x="225" y="-376.5" font-family="Helvetica,sans-Serif" font-size="10.00">Pass.h</text>
</a>
</g>
</g>
<!-- Node0&#45;&gt;Node1 -->
<g id="edge1" class="edge"><title>Node0&#45;&gt;Node1</title>
<path fill="none" stroke="midnightblue" d="M401.455,-436.476C366.974,-426.515 320.491,-413.086 283.889,-402.512"/>
<polygon fill="midnightblue" stroke="midnightblue" points="284.424,-399.024 273.845,-399.611 282.481,-405.749 284.424,-399.024"/>
</g>
<!-- Node7 -->
<g id="node8" class="node"><title>Node7</title>
<g id="a_node8"><a xlink:href="../../d5/dfc/RTTI_8h.xhtml" target="_top" xlink:title="enfield/Support/RTTI.h">
<polygon fill="none" stroke="black" points="630,-56.5 630,-75.5 746,-75.5 746,-56.5 630,-56.5"/>
<text text-anchor="middle" x="688" y="-63.5" font-family="Helvetica,sans-Serif" font-size="10.00">enfield/Support/RTTI.h</text>
</a>
</g>
</g>
<!-- Node0&#45;&gt;Node7 -->
<g id="edge29" class="edge"><title>Node0&#45;&gt;Node7</title>
<path fill="none" stroke="midnightblue" d="M510.008,-436.459C566.664,-419.216 643,-383.857 643,-318.5 643,-318.5 643,-318.5 643,-182.5 643,-145.383 663.426,-105.852 676.755,-84.0083"/>
<polygon fill="midnightblue" stroke="midnightblue" points="679.726,-85.8595 682.117,-75.538 673.811,-82.1154 679.726,-85.8595"/>
</g>
<!-- Node13 -->
<g id="node14" class="node"><title>Node13</title>
<g id="a_node14"><a xlink:href="../../d4/d73/QModule_8h.xhtml" target="_top" xlink:title="enfield/Transform/QModule.h">
<polygon fill="none" stroke="black" points="378.5,-174 378.5,-193 521.5,-193 521.5,-174 378.5,-174"/>
<text text-anchor="middle" x="450" y="-181" font-family="Helvetica,sans-Serif" font-size="10.00">enfield/Transform/QModule.h</text>
</a>
</g>
</g>
<!-- Node0&#45;&gt;Node13 -->
<g id="edge28" class="edge"><title>Node0&#45;&gt;Node13</title>
<path fill="none" stroke="midnightblue" d="M450,-436.199C450,-391.348 450,-253.453 450,-203.129"/>
<polygon fill="midnightblue" stroke="midnightblue" points="453.5,-203.049 450,-193.049 446.5,-203.049 453.5,-203.049"/>
</g>
<!-- Node2 -->
<g id="node3" class="node"><title>Node2</title>
<g id="a_node3"><a xlink:href="../../df/d01/LayerBasedOrderingWrapperPass_8h.xhtml" target="_top" xlink:title="enfield/Transform/LayerBased\lOrderingWrapperPass.h">
<polygon fill="none" stroke="black" points="43.5,-302.5 43.5,-332.5 190.5,-332.5 190.5,-302.5 43.5,-302.5"/>
<text text-anchor="start" x="51.5" y="-320.5" font-family="Helvetica,sans-Serif" font-size="10.00">enfield/Transform/LayerBased</text>
<text text-anchor="middle" x="117" y="-309.5" font-family="Helvetica,sans-Serif" font-size="10.00">OrderingWrapperPass.h</text>
</a>
</g>
</g>
<!-- Node1&#45;&gt;Node2 -->
<g id="edge2" class="edge"><title>Node1&#45;&gt;Node2</title>
<path fill="none" stroke="midnightblue" d="M201.566,-369.396C186.281,-360.197 166.125,-348.066 149.325,-337.955"/>
<polygon fill="midnightblue" stroke="midnightblue" points="150.761,-334.734 140.389,-332.577 147.152,-340.732 150.761,-334.734"/>
</g>
<!-- Node3 -->
<g id="node4" class="node"><title>Node3</title>
<g id="a_node4"><a xlink:href="../../d8/d9b/CircuitGraphBuilderPass_8h.xhtml" target="_top" xlink:title="enfield/Transform/Circuit\lGraphBuilderPass.h">
<polygon fill="none" stroke="black" points="236,-235.5 236,-265.5 360,-265.5 360,-235.5 236,-235.5"/>
<text text-anchor="start" x="244" y="-253.5" font-family="Helvetica,sans-Serif" font-size="10.00">enfield/Transform/Circuit</text>
<text text-anchor="middle" x="298" y="-242.5" font-family="Helvetica,sans-Serif" font-size="10.00">GraphBuilderPass.h</text>
</a>
</g>
</g>
<!-- Node2&#45;&gt;Node3 -->
<g id="edge3" class="edge"><title>Node2&#45;&gt;Node3</title>
<path fill="none" stroke="midnightblue" d="M156.274,-302.396C183.551,-292.601 220.084,-279.481 249.227,-269.015"/>
<polygon fill="midnightblue" stroke="midnightblue" points="250.574,-272.25 258.802,-265.577 248.208,-265.662 250.574,-272.25"/>
</g>
<!-- Node14 -->
<g id="node15" class="node"><title>Node14</title>
<polygon fill="none" stroke="#bfbfbf" points="59.5,-112.5 59.5,-131.5 142.5,-131.5 142.5,-112.5 59.5,-112.5"/>
<text text-anchor="middle" x="101" y="-119.5" font-family="Helvetica,sans-Serif" font-size="10.00">unordered_map</text>
</g>
<!-- Node2&#45;&gt;Node14 -->
<g id="edge27" class="edge"><title>Node2&#45;&gt;Node14</title>
<path fill="none" stroke="midnightblue" d="M104.532,-302.191C87.1938,-281.241 56.6239,-240.217 45,-199 41.2603,-185.739 39.0451,-180.424 45,-168 51.2527,-154.954 63.3358,-144.492 74.6821,-136.951"/>
<polygon fill="midnightblue" stroke="midnightblue" points="76.8094,-139.752 83.4983,-131.535 73.1455,-133.787 76.8094,-139.752"/>
</g>
<!-- Node16 -->
<g id="node17" class="node"><title>Node16</title>
<g id="a_node17"><a xlink:href="../../dc/d33/LayersBuilderPass_8h.xhtml" target="_top" xlink:title="enfield/Transform/Layers\lBuilderPass.h">
<polygon fill="none" stroke="black" points="54.5,-168.5 54.5,-198.5 179.5,-198.5 179.5,-168.5 54.5,-168.5"/>
<text text-anchor="start" x="62.5" y="-186.5" font-family="Helvetica,sans-Serif" font-size="10.00">enfield/Transform/Layers</text>
<text text-anchor="middle" x="117" y="-175.5" font-family="Helvetica,sans-Serif" font-size="10.00">BuilderPass.h</text>
</a>
</g>
</g>
<!-- Node2&#45;&gt;Node16 -->
<g id="edge21" class="edge"><title>Node2&#45;&gt;Node16</title>
<path fill="none" stroke="midnightblue" d="M117,-302.374C117,-280.044 117,-236.313 117,-208.851"/>
<polygon fill="midnightblue" stroke="midnightblue" points="120.5,-208.525 117,-198.525 113.5,-208.525 120.5,-208.525"/>
</g>
<!-- Node17 -->
<g id="node18" class="node"><title>Node17</title>
<polygon fill="none" stroke="#bfbfbf" points="0,-112.5 0,-131.5 30,-131.5 30,-112.5 0,-112.5"/>
<text text-anchor="middle" x="15" y="-119.5" font-family="Helvetica,sans-Serif" font-size="10.00">set</text>
</g>
<!-- Node2&#45;&gt;Node17 -->
<g id="edge26" class="edge"><title>Node2&#45;&gt;Node17</title>
<path fill="none" stroke="midnightblue" d="M94.441,-302.404C81.7623,-293.415 66.602,-280.707 57,-266 31.2639,-226.582 20.8953,-170.967 17.0499,-142.085"/>
<polygon fill="midnightblue" stroke="midnightblue" points="20.4797,-141.292 15.8088,-131.782 13.5299,-142.129 20.4797,-141.292"/>
</g>
<!-- Node4 -->
<g id="node5" class="node"><title>Node4</title>
<g id="a_node5"><a xlink:href="../../d4/daf/Nodes_8h.xhtml" target="_top" xlink:title="enfield/Analysis/Nodes.h">
<polygon fill="none" stroke="black" points="331.5,-112.5 331.5,-131.5 456.5,-131.5 456.5,-112.5 331.5,-112.5"/>
<text text-anchor="middle" x="394" y="-119.5" font-family="Helvetica,sans-Serif" font-size="10.00">enfield/Analysis/Nodes.h</text>
</a>
</g>
</g>
<!-- Node3&#45;&gt;Node4 -->
<g id="edge4" class="edge"><title>Node3&#45;&gt;Node4</title>
<path fill="none" stroke="midnightblue" d="M360.111,-244.619C421.441,-238.357 509.019,-225.04 530,-199 556.434,-166.193 500.347,-145.172 452.376,-133.741"/>
<polygon fill="midnightblue" stroke="midnightblue" points="453.134,-130.324 442.606,-131.514 451.578,-137.149 453.134,-130.324"/>
</g>
<!-- Node12 -->
<g id="node13" class="node"><title>Node12</title>
<g id="a_node13"><a xlink:href="../../df/d29/Pass_8h.xhtml" target="_top" xlink:title="enfield/Transform/Pass.h">
<polygon fill="none" stroke="black" points="161,-112.5 161,-131.5 287,-131.5 287,-112.5 161,-112.5"/>
<text text-anchor="middle" x="224" y="-119.5" font-family="Helvetica,sans-Serif" font-size="10.00">enfield/Transform/Pass.h</text>
</a>
</g>
</g>
<!-- Node3&#45;&gt;Node12 -->
<g id="edge12" class="edge"><title>Node3&#45;&gt;Node12</title>
<path fill="none" stroke="midnightblue" d="M266.49,-235.402C251.779,-227.058 235.639,-214.964 227,-199 217.493,-181.431 218.175,-158.086 220.323,-141.928"/>
<polygon fill="midnightblue" stroke="midnightblue" points="223.849,-142.053 222.022,-131.617 216.943,-140.915 223.849,-142.053"/>
</g>
<!-- Node3&#45;&gt;Node13 -->
<g id="edge14" class="edge"><title>Node3&#45;&gt;Node13</title>
<path fill="none" stroke="midnightblue" d="M330.982,-235.396C357.77,-223.941 395.19,-207.938 420.881,-196.952"/>
<polygon fill="midnightblue" stroke="midnightblue" points="422.288,-200.157 430.107,-193.007 419.536,-193.721 422.288,-200.157"/>
</g>
<!-- Node15 -->
<g id="node16" class="node"><title>Node15</title>
<g id="a_node16"><a xlink:href="../../df/da6/CircuitGraph_8h.xhtml" target="_top" xlink:title="enfield/Transform/Circuit\lGraph.h">
<polygon fill="none" stroke="black" points="236,-168.5 236,-198.5 360,-198.5 360,-168.5 236,-168.5"/>
<text text-anchor="start" x="244" y="-186.5" font-family="Helvetica,sans-Serif" font-size="10.00">enfield/Transform/Circuit</text>
<text text-anchor="middle" x="298" y="-175.5" font-family="Helvetica,sans-Serif" font-size="10.00">Graph.h</text>
</a>
</g>
</g>
<!-- Node3&#45;&gt;Node15 -->
<g id="edge18" class="edge"><title>Node3&#45;&gt;Node15</title>
<path fill="none" stroke="midnightblue" d="M298,-235.396C298,-227.645 298,-217.812 298,-208.86"/>
<polygon fill="midnightblue" stroke="midnightblue" points="301.5,-208.576 298,-198.577 294.5,-208.577 301.5,-208.576"/>
</g>
<!-- Node5 -->
<g id="node6" class="node"><title>Node5</title>
<g id="a_node6"><a xlink:href="../../d1/d2e/WrapperVal_8h.xhtml" target="_top" xlink:title="enfield/Support/WrapperVal.h">
<polygon fill="none" stroke="black" points="468,-56.5 468,-75.5 612,-75.5 612,-56.5 468,-56.5"/>
<text text-anchor="middle" x="540" y="-63.5" font-family="Helvetica,sans-Serif" font-size="10.00">enfield/Support/WrapperVal.h</text>
</a>
</g>
</g>
<!-- Node4&#45;&gt;Node5 -->
<g id="edge5" class="edge"><title>Node4&#45;&gt;Node5</title>
<path fill="none" stroke="midnightblue" d="M417.134,-112.444C441.482,-103.438 480.007,-89.1891 507.423,-79.049"/>
<polygon fill="midnightblue" stroke="midnightblue" points="508.809,-82.2681 516.974,-75.5164 506.381,-75.7028 508.809,-82.2681"/>
</g>
<!-- Node4&#45;&gt;Node7 -->
<g id="edge7" class="edge"><title>Node4&#45;&gt;Node7</title>
<path fill="none" stroke="midnightblue" d="M440.585,-112.444C492.41,-102.925 576.132,-87.5472 631.615,-77.3563"/>
<polygon fill="midnightblue" stroke="midnightblue" points="632.43,-80.7654 641.633,-75.5164 631.165,-73.8806 632.43,-80.7654"/>
</g>
<!-- Node8 -->
<g id="node9" class="node"><title>Node8</title>
<polygon fill="none" stroke="#bfbfbf" points="242.5,-56.5 242.5,-75.5 315.5,-75.5 315.5,-56.5 242.5,-56.5"/>
<text text-anchor="middle" x="279" y="-63.5" font-family="Helvetica,sans-Serif" font-size="10.00">initializer_list</text>
</g>
<!-- Node4&#45;&gt;Node8 -->
<g id="edge8" class="edge"><title>Node4&#45;&gt;Node8</title>
<path fill="none" stroke="midnightblue" d="M375.778,-112.444C357.104,-103.675 327.844,-89.9355 306.383,-79.8579"/>
<polygon fill="midnightblue" stroke="midnightblue" points="307.676,-76.5988 297.137,-75.5164 304.701,-82.935 307.676,-76.5988"/>
</g>
<!-- Node9 -->
<g id="node10" class="node"><title>Node9</title>
<polygon fill="none" stroke="#bfbfbf" points="334,-56.5 334,-75.5 388,-75.5 388,-56.5 334,-56.5"/>
<text text-anchor="middle" x="361" y="-63.5" font-family="Helvetica,sans-Serif" font-size="10.00">iostream</text>
</g>
<!-- Node4&#45;&gt;Node9 -->
<g id="edge9" class="edge"><title>Node4&#45;&gt;Node9</title>
<path fill="none" stroke="midnightblue" d="M388.551,-112.083C383.986,-104.613 377.332,-93.7244 371.707,-84.5199"/>
<polygon fill="midnightblue" stroke="midnightblue" points="374.549,-82.4588 366.348,-75.7511 368.576,-86.109 374.549,-82.4588"/>
</g>
<!-- Node10 -->
<g id="node11" class="node"><title>Node10</title>
<polygon fill="none" stroke="#bfbfbf" points="406,-56.5 406,-75.5 450,-75.5 450,-56.5 406,-56.5"/>
<text text-anchor="middle" x="428" y="-63.5" font-family="Helvetica,sans-Serif" font-size="10.00">vector</text>
</g>
<!-- Node4&#45;&gt;Node10 -->
<g id="edge10" class="edge"><title>Node4&#45;&gt;Node10</title>
<path fill="none" stroke="midnightblue" d="M399.614,-112.083C404.367,-104.534 411.318,-93.4948 417.152,-84.2298"/>
<polygon fill="midnightblue" stroke="midnightblue" points="420.124,-86.0783 422.49,-75.7511 414.2,-82.3486 420.124,-86.0783"/>
</g>
<!-- Node11 -->
<g id="node12" class="node"><title>Node11</title>
<polygon fill="none" stroke="#bfbfbf" points="172,-56.5 172,-75.5 224,-75.5 224,-56.5 172,-56.5"/>
<text text-anchor="middle" x="198" y="-63.5" font-family="Helvetica,sans-Serif" font-size="10.00">memory</text>
</g>
<!-- Node4&#45;&gt;Node11 -->
<g id="edge11" class="edge"><title>Node4&#45;&gt;Node11</title>
<path fill="none" stroke="midnightblue" d="M362.943,-112.444C327.917,-102.793 271.035,-87.122 234.07,-76.9377"/>
<polygon fill="midnightblue" stroke="midnightblue" points="234.778,-73.5022 224.207,-74.2203 232.918,-80.2508 234.778,-73.5022"/>
</g>
<!-- Node6 -->
<g id="node7" class="node"><title>Node6</title>
<polygon fill="none" stroke="#bfbfbf" points="519.5,-0.5 519.5,-19.5 560.5,-19.5 560.5,-0.5 519.5,-0.5"/>
<text text-anchor="middle" x="540" y="-7.5" font-family="Helvetica,sans-Serif" font-size="10.00">string</text>
</g>
<!-- Node5&#45;&gt;Node6 -->
<g id="edge6" class="edge"><title>Node5&#45;&gt;Node6</title>
<path fill="none" stroke="midnightblue" d="M540,-56.083C540,-49.0059 540,-38.8611 540,-29.9865"/>
<polygon fill="midnightblue" stroke="midnightblue" points="543.5,-29.751 540,-19.7511 536.5,-29.7511 543.5,-29.751"/>
</g>
<!-- Node12&#45;&gt;Node11 -->
<g id="edge13" class="edge"><title>Node12&#45;&gt;Node11</title>
<path fill="none" stroke="midnightblue" d="M219.707,-112.083C216.148,-104.691 210.978,-93.9533 206.576,-84.8111"/>
<polygon fill="midnightblue" stroke="midnightblue" points="209.705,-83.2427 202.213,-75.7511 203.398,-86.2795 209.705,-83.2427"/>
</g>
<!-- Node13&#45;&gt;Node4 -->
<g id="edge15" class="edge"><title>Node13&#45;&gt;Node4</title>
<path fill="none" stroke="midnightblue" d="M441.977,-173.975C433.41,-164.873 419.639,-150.241 409.043,-138.983"/>
<polygon fill="midnightblue" stroke="midnightblue" points="411.411,-136.392 402.009,-131.509 406.314,-141.19 411.411,-136.392"/>
</g>
<!-- Node13&#45;&gt;Node12 -->
<g id="edge16" class="edge"><title>Node13&#45;&gt;Node12</title>
<path fill="none" stroke="midnightblue" d="M417.62,-173.975C377.762,-163.482 309.981,-145.637 266.112,-134.087"/>
<polygon fill="midnightblue" stroke="midnightblue" points="266.882,-130.67 256.32,-131.509 265.1,-137.44 266.882,-130.67"/>
</g>
<!-- Node13&#45;&gt;Node14 -->
<g id="edge17" class="edge"><title>Node13&#45;&gt;Node14</title>
<path fill="none" stroke="midnightblue" d="M402.903,-173.965C391.79,-171.979 379.981,-169.894 369,-168 275.764,-151.922 250.002,-148.696 152.705,-132.105"/>
<polygon fill="midnightblue" stroke="midnightblue" points="153.189,-128.637 142.742,-130.402 152.01,-135.537 153.189,-128.637"/>
</g>
<!-- Node15&#45;&gt;Node4 -->
<g id="edge19" class="edge"><title>Node15&#45;&gt;Node4</title>
<path fill="none" stroke="midnightblue" d="M320.751,-168.399C335.995,-158.951 355.989,-146.559 371.236,-137.109"/>
<polygon fill="midnightblue" stroke="midnightblue" points="373.375,-139.901 380.031,-131.658 369.687,-133.951 373.375,-139.901"/>
</g>
<!-- Node15&#45;&gt;Node14 -->
<g id="edge20" class="edge"><title>Node15&#45;&gt;Node14</title>
<path fill="none" stroke="midnightblue" d="M251.314,-168.399C217.125,-158.073 171.294,-144.231 139.261,-134.556"/>
<polygon fill="midnightblue" stroke="midnightblue" points="139.963,-131.112 129.378,-131.571 137.939,-137.813 139.963,-131.112"/>
</g>
<!-- Node16&#45;&gt;Node4 -->
<g id="edge23" class="edge"><title>Node16&#45;&gt;Node4</title>
<path fill="none" stroke="midnightblue" d="M179.51,-169.073C229.354,-158.366 298.218,-143.574 344.339,-133.667"/>
<polygon fill="midnightblue" stroke="midnightblue" points="345.354,-137.029 354.395,-131.507 343.883,-130.185 345.354,-137.029"/>
</g>
<!-- Node16&#45;&gt;Node12 -->
<g id="edge22" class="edge"><title>Node16&#45;&gt;Node12</title>
<path fill="none" stroke="midnightblue" d="M142.358,-168.399C159.669,-158.773 182.476,-146.09 199.584,-136.577"/>
<polygon fill="midnightblue" stroke="midnightblue" points="201.392,-139.577 208.431,-131.658 197.99,-133.459 201.392,-139.577"/>
</g>
<!-- Node16&#45;&gt;Node14 -->
<g id="edge25" class="edge"><title>Node16&#45;&gt;Node14</title>
<path fill="none" stroke="midnightblue" d="M113.208,-168.399C111.051,-160.377 108.323,-150.233 105.993,-141.569"/>
<polygon fill="midnightblue" stroke="midnightblue" points="109.305,-140.406 103.328,-131.658 102.545,-142.224 109.305,-140.406"/>
</g>
<!-- Node16&#45;&gt;Node17 -->
<g id="edge24" class="edge"><title>Node16&#45;&gt;Node17</title>
<path fill="none" stroke="midnightblue" d="M92.8274,-168.399C76.4776,-158.862 54.9853,-146.325 38.7295,-136.842"/>
<polygon fill="midnightblue" stroke="midnightblue" points="40.2433,-133.673 29.8419,-131.658 36.7161,-139.72 40.2433,-133.673"/>
</g>
</g>
</svg>
        <g id="navigator" transform="translate(0 0)" fill="#404254">
                <rect fill="#f2f5e9" fill-opacity="0.5" stroke="#606060" stroke-width=".5" x="0" y="0" width="60" height="60"/>
                <use id="zoomplus" xlink:href="#zoomPlus" x="17" y="9" onmousedown="handleZoom(evt,'in')"/>
                <use id="zoomminus" xlink:href="#zoomMin" x="42" y="9" onmousedown="handleZoom(evt,'out')"/>
                <use id="reset" xlink:href="#resetDef" x="30" y="36" onmousedown="handleReset()"/>
                <g id="arrowUp" xlink:href="#dirArrow" transform="translate(30 24)" onmousedown="handlePan(0,-1)">
                  <use xlink:href="#rim" fill="#404040">
                        <set attributeName="fill" to="#808080" begin="arrowUp.mouseover" end="arrowUp.mouseout"/>
                  </use>
                  <path fill="none" stroke="white" stroke-width="1.5" d="M0,-3.0v7 M-2.5,-0.5L0,-3.0L2.5,-0.5"/>
                </g>
                <g id="arrowRight" xlink:href="#dirArrow" transform="rotate(90) translate(36 -43)" onmousedown="handlePan(1,0)">
                  <use xlink:href="#rim" fill="#404040">
                        <set attributeName="fill" to="#808080" begin="arrowRight.mouseover" end="arrowRight.mouseout"/>
                  </use>
                  <path fill="none" stroke="white" stroke-width="1.5" d="M0,-3.0v7 M-2.5,-0.5L0,-3.0L2.5,-0.5"/>
                </g>
                <g id="arrowDown" xlink:href="#dirArrow" transform="rotate(180) translate(-30 -48)" onmousedown="handlePan(0,1)">
                  <use xlink:href="#rim" fill="#404040">
                        <set attributeName="fill" to="#808080" begin="arrowDown.mouseover" end="arrowDown.mouseout"/>
                  </use>
                  <path fill="none" stroke="white" stroke-width="1.5" d="M0,-3.0v7 M-2.5,-0.5L0,-3.0L2.5,-0.5"/>
                </g>
                <g id="arrowLeft" xlink:href="#dirArrow" transform="rotate(270) translate(-36 17)" onmousedown="handlePan(-1,0)">
                  <use xlink:href="#rim" fill="#404040">
                        <set attributeName="fill" to="#808080" begin="arrowLeft.mouseover" end="arrowLeft.mouseout"/>
                  </use>
                  <path fill="none" stroke="white" stroke-width="1.5" d="M0,-3.0v7 M-2.5,-0.5L0,-3.0L2.5,-0.5"/>
                </g>
        </g>
        <svg viewBox="0 0 15 15" width="100%" height="30px" preserveAspectRatio="xMaxYMin meet">
         <g id="arrow_out" transform="scale(0.3 0.3)">
          <a xlink:href="CNOTLBOWrapperPass_8cpp__incl_org.svg" target="_base">
           <rect id="button" ry="5" rx="5" y="6" x="6" height="38" width="38"
                fill="#f2f5e9" fill-opacity="0.5" stroke="#606060" stroke-width="1.0"/>
           <path id="arrow"
             d="M 11.500037,31.436501 C 11.940474,20.09759 22.043105,11.32322 32.158766,21.979434 L 37.068811,17.246167 C 37.068811,17.246167 37.088388,32 37.088388,32 L 22.160133,31.978069 C 22.160133,31.978069 26.997745,27.140456 26.997745,27.140456 C 18.528582,18.264221 13.291696,25.230495 11.500037,31.436501 z"
             style="fill:#404040;"/>
          </a>
         </g>
        </svg>
</svg>
