<?xml version="1.0" encoding="UTF-8" standalone="no"?>
<!DOCTYPE svg PUBLIC "-//W3C//DTD SVG 1.1//EN"
 "http://www.w3.org/Graphics/SVG/1.1/DTD/svg11.dtd">
<!-- Generated by graphviz version 2.40.1 (20161225.0304)
 -->
<!-- Title: lib/Support/BFSPathFinder.cpp Pages: 1 -->
<svg width="497pt" height="252pt"
 viewBox="0.00 0.00 496.50 252.00" xmlns="http://www.w3.org/2000/svg" xmlns:xlink="http://www.w3.org/1999/xlink">
<g id="graph0" class="graph" transform="scale(1 1) rotate(0) translate(4 248)">
<title>lib/Support/BFSPathFinder.cpp</title>
<!-- Node0 -->
<g id="node1" class="node">
<title>Node0</title>
<polygon fill="#bfbfbf" stroke="#000000" points="247.5,-224.5 247.5,-243.5 409.5,-243.5 409.5,-224.5 247.5,-224.5"/>
<text text-anchor="middle" x="328.5" y="-231.5" font-family="Helvetica,sans-Serif" font-size="10.00" fill="#000000">lib/Support/BFSPathFinder.cpp</text>
</g>
<!-- Node1 -->
<g id="node2" class="node">
<title>Node1</title>
<g id="a_node2"><a xlink:href="../../d7/d2d/BFSPathFinder_8h.xhtml" target="_top" xlink:title="enfield/Support/BFSPathFinder.h">
<polygon fill="none" stroke="#000000" points="67,-168.5 67,-187.5 240,-187.5 240,-168.5 67,-168.5"/>
<text text-anchor="middle" x="153.5" y="-175.5" font-family="Helvetica,sans-Serif" font-size="10.00" fill="#000000">enfield/Support/BFSPathFinder.h</text>
</a>
</g>
</g>
<!-- Node0&#45;&gt;Node1 -->
<g id="edge1" class="edge">
<title>Node0&#45;&gt;Node1</title>
<path fill="none" stroke="#191970" d="M298.4164,-224.3733C269.3166,-215.0613 225.0477,-200.8953 193.097,-190.671"/>
<polygon fill="#191970" stroke="#191970" points="193.782,-187.2155 183.191,-187.5011 191.6485,-193.8824 193.782,-187.2155"/>
</g>
<!-- Node4 -->
<g id="node5" class="node">
<title>Node4</title>
<polygon fill="none" stroke="#bfbfbf" points="252.5,-.5 252.5,-19.5 284.5,-19.5 284.5,-.5 252.5,-.5"/>
<text text-anchor="middle" x="268.5" y="-7.5" font-family="Helvetica,sans-Serif" font-size="10.00" fill="#000000">set</text>
</g>
<!-- Node0&#45;&gt;Node4 -->
<g id="edge10" class="edge">
<title>Node0&#45;&gt;Node4</title>
<path fill="none" stroke="#191970" d="M316.5772,-224.4171C306.9604,-215.942 294.0017,-202.6707 287.5,-188 263.8556,-134.6478 264.6749,-63.7968 266.791,-29.8214"/>
<polygon fill="#191970" stroke="#191970" points="270.2857,-30.0202 267.5249,-19.7915 263.3044,-29.5094 270.2857,-30.0202"/>
</g>
<!-- Node8 -->
<g id="node9" class="node">
<title>Node8</title>
<polygon fill="none" stroke="#bfbfbf" points="296.5,-168.5 296.5,-187.5 360.5,-187.5 360.5,-168.5 296.5,-168.5"/>
<text text-anchor="middle" x="328.5" y="-175.5" font-family="Helvetica,sans-Serif" font-size="10.00" fill="#000000">algorithm</text>
</g>
<!-- Node0&#45;&gt;Node8 -->
<g id="edge8" class="edge">
<title>Node0&#45;&gt;Node8</title>
<path fill="none" stroke="#191970" d="M328.5,-224.2455C328.5,-216.9382 328.5,-206.6944 328.5,-197.7046"/>
<polygon fill="#191970" stroke="#191970" points="332.0001,-197.6426 328.5,-187.6427 325.0001,-197.6427 332.0001,-197.6426"/>
</g>
<!-- Node9 -->
<g id="node10" class="node">
<title>Node9</title>
<polygon fill="none" stroke="#bfbfbf" points="379,-168.5 379,-187.5 426,-187.5 426,-168.5 379,-168.5"/>
<text text-anchor="middle" x="402.5" y="-175.5" font-family="Helvetica,sans-Serif" font-size="10.00" fill="#000000">queue</text>
</g>
<!-- Node0&#45;&gt;Node9 -->
<g id="edge9" class="edge">
<title>Node0&#45;&gt;Node9</title>
<path fill="none" stroke="#191970" d="M341.3898,-224.2455C352.4254,-215.8943 368.5292,-203.7076 381.4353,-193.9408"/>
<polygon fill="#191970" stroke="#191970" points="383.8959,-196.4681 389.7579,-187.6427 379.6717,-190.8862 383.8959,-196.4681"/>
</g>
<!-- Node10 -->
<g id="node11" class="node">
<title>Node10</title>
<polygon fill="none" stroke="#bfbfbf" points="444.5,-168.5 444.5,-187.5 488.5,-187.5 488.5,-168.5 444.5,-168.5"/>
<text text-anchor="middle" x="466.5" y="-175.5" font-family="Helvetica,sans-Serif" font-size="10.00" fill="#000000">limits</text>
</g>
<!-- Node0&#45;&gt;Node10 -->
<g id="edge11" class="edge">
<title>Node0&#45;&gt;Node10</title>
<path fill="none" stroke="#191970" d="M352.223,-224.3733C375.0818,-215.0972 409.8104,-201.0045 434.983,-190.7895"/>
<polygon fill="#191970" stroke="#191970" points="436.5022,-193.9503 444.4522,-186.9469 433.87,-187.464 436.5022,-193.9503"/>
</g>
<!-- Node2 -->
<g id="node3" class="node">
<title>Node2</title>
<g id="a_node3"><a xlink:href="../../de/de3/PathFinder_8h.xhtml" target="_top" xlink:title="enfield/Support/PathFinder.h">
<polygon fill="none" stroke="#000000" points="76,-112.5 76,-131.5 231,-131.5 231,-112.5 76,-112.5"/>
<text text-anchor="middle" x="153.5" y="-119.5" font-family="Helvetica,sans-Serif" font-size="10.00" fill="#000000">enfield/Support/PathFinder.h</text>
</a>
</g>
</g>
<!-- Node1&#45;&gt;Node2 -->
<g id="edge2" class="edge">
<title>Node1&#45;&gt;Node2</title>
<path fill="none" stroke="#191970" d="M153.5,-168.2455C153.5,-160.9382 153.5,-150.6944 153.5,-141.7046"/>
<polygon fill="#191970" stroke="#191970" points="157.0001,-141.6426 153.5,-131.6427 150.0001,-141.6427 157.0001,-141.6426"/>
</g>
<!-- Node3 -->
<g id="node4" class="node">
<title>Node3</title>
<g id="a_node4"><a xlink:href="../../d7/d16/Graph_8h.xhtml" target="_top" xlink:title="enfield/Support/Graph.h">
<polygon fill="none" stroke="#000000" points="87.5,-56.5 87.5,-75.5 219.5,-75.5 219.5,-56.5 87.5,-56.5"/>
<text text-anchor="middle" x="153.5" y="-63.5" font-family="Helvetica,sans-Serif" font-size="10.00" fill="#000000">enfield/Support/Graph.h</text>
</a>
</g>
</g>
<!-- Node2&#45;&gt;Node3 -->
<g id="edge3" class="edge">
<title>Node2&#45;&gt;Node3</title>
<path fill="none" stroke="#191970" d="M153.5,-112.2455C153.5,-104.9382 153.5,-94.6944 153.5,-85.7046"/>
<polygon fill="#191970" stroke="#191970" points="157.0001,-85.6426 153.5,-75.6427 150.0001,-85.6427 157.0001,-85.6426"/>
</g>
<!-- Node3&#45;&gt;Node4 -->
<g id="edge4" class="edge">
<title>Node3&#45;&gt;Node4</title>
<path fill="none" stroke="#191970" d="M173.2692,-56.3733C192.6493,-46.936 222.2678,-32.5131 243.3225,-22.2604"/>
<polygon fill="#191970" stroke="#191970" points="244.8677,-25.4009 252.3261,-17.876 241.803,-19.1074 244.8677,-25.4009"/>
</g>
<!-- Node5 -->
<g id="node6" class="node">
<title>Node5</title>
<polygon fill="none" stroke="#bfbfbf" points="0,-.5 0,-19.5 47,-19.5 47,-.5 0,-.5"/>
<text text-anchor="middle" x="23.5" y="-7.5" font-family="Helvetica,sans-Serif" font-size="10.00" fill="#000000">vector</text>
</g>
<!-- Node3&#45;&gt;Node5 -->
<g id="edge5" class="edge">
<title>Node3&#45;&gt;Node5</title>
<path fill="none" stroke="#191970" d="M131.1522,-56.3733C110.0967,-47.3032 78.3505,-33.6279 54.7825,-23.4755"/>
<polygon fill="#191970" stroke="#191970" points="56.125,-20.243 45.5562,-19.5011 53.3556,-26.6719 56.125,-20.243"/>
</g>
<!-- Node6 -->
<g id="node7" class="node">
<title>Node6</title>
<polygon fill="none" stroke="#bfbfbf" points="65,-.5 65,-19.5 158,-19.5 158,-.5 65,-.5"/>
<text text-anchor="middle" x="111.5" y="-7.5" font-family="Helvetica,sans-Serif" font-size="10.00" fill="#000000">unordered_map</text>
</g>
<!-- Node3&#45;&gt;Node6 -->
<g id="edge6" class="edge">
<title>Node3&#45;&gt;Node6</title>
<path fill="none" stroke="#191970" d="M146.1842,-56.2455C140.2821,-48.3761 131.8258,-37.101 124.7406,-27.6542"/>
<polygon fill="#191970" stroke="#191970" points="127.5321,-25.5427 118.732,-19.6427 121.932,-29.7427 127.5321,-25.5427"/>
</g>
<!-- Node7 -->
<g id="node8" class="node">
<title>Node7</title>
<polygon fill="none" stroke="#bfbfbf" points="176.5,-.5 176.5,-19.5 234.5,-19.5 234.5,-.5 176.5,-.5"/>
<text text-anchor="middle" x="205.5" y="-7.5" font-family="Helvetica,sans-Serif" font-size="10.00" fill="#000000">memory</text>
</g>
<!-- Node3&#45;&gt;Node7 -->
<g id="edge7" class="edge">
<title>Node3&#45;&gt;Node7</title>
<path fill="none" stroke="#191970" d="M162.5577,-56.2455C170.0142,-48.2155 180.7634,-36.6394 189.6417,-27.0781"/>
<polygon fill="#191970" stroke="#191970" points="192.3063,-29.3522 196.5461,-19.6427 187.1768,-24.589 192.3063,-29.3522"/>
</g>
</g>
</svg>
