<?xml version="1.0" encoding="UTF-8" standalone="no"?>
<!DOCTYPE svg PUBLIC "-//W3C//DTD SVG 1.1//EN"
 "http://www.w3.org/Graphics/SVG/1.1/DTD/svg11.dtd">
<!-- Generated by graphviz version 2.40.1 (20161225.0304)
 -->
<!-- Title: efd::SeqNCandidatesGenerator Pages: 1 -->
<svg width="175pt" height="152pt"
 viewBox="0.00 0.00 175.00 152.00" xmlns="http://www.w3.org/2000/svg" xmlns:xlink="http://www.w3.org/1999/xlink">
<g id="graph0" class="graph" transform="scale(1 1) rotate(0) translate(4 148)">
<title>efd::SeqNCandidatesGenerator</title>
<!-- Node2 -->
<g id="node1" class="node">
<title>Node2</title>
<polygon fill="#bfbfbf" stroke="#000000" points="0,-.5 0,-19.5 167,-19.5 167,-.5 0,-.5"/>
<text text-anchor="middle" x="83.5" y="-7.5" font-family="Helvetica,sans-Serif" font-size="10.00" fill="#000000">efd::SeqNCandidatesGenerator</text>
</g>
<!-- Node3 -->
<g id="node2" class="node">
<title>Node3</title>
<g id="a_node2"><a xlink:href="../../d1/d29/structefd_1_1NodeCandidatesGenerator.xhtml" target="_top" xlink:title="Generates a vector with the Nodes that can be chosen as the next instruction. ">
<polygon fill="none" stroke="#000000" points="0,-57.5 0,-76.5 167,-76.5 167,-57.5 0,-57.5"/>
<text text-anchor="middle" x="83.5" y="-64.5" font-family="Helvetica,sans-Serif" font-size="10.00" fill="#000000">efd::NodeCandidatesGenerator</text>
</a>
</g>
</g>
<!-- Node3&#45;&gt;Node2 -->
<g id="edge1" class="edge">
<title>Node3&#45;&gt;Node2</title>
<path fill="none" stroke="#191970" d="M83.5,-47.2342C83.5,-37.8491 83.5,-27.0651 83.5,-19.5265"/>
<polygon fill="#191970" stroke="#191970" points="80.0001,-47.3307 83.5,-57.3307 87.0001,-47.3308 80.0001,-47.3307"/>
</g>
<!-- Node4 -->
<g id="node3" class="node">
<title>Node4</title>
<g id="a_node3"><a xlink:href="../../dd/d52/classefd_1_1QModule.xhtml" target="_top" xlink:title="Qasm module representation. ">
<polygon fill="none" stroke="#000000" points="43,-124.5 43,-143.5 124,-143.5 124,-124.5 43,-124.5"/>
<text text-anchor="middle" x="83.5" y="-131.5" font-family="Helvetica,sans-Serif" font-size="10.00" fill="#000000">efd::QModule</text>
</a>
</g>
</g>
<!-- Node4&#45;&gt;Node3 -->
<g id="edge2" class="edge">
<title>Node4&#45;&gt;Node3</title>
<path fill="none" stroke="#9a32cd" stroke-dasharray="5,2" d="M83.5,-114.1079C83.5,-101.714 83.5,-86.3263 83.5,-76.5817"/>
<polygon fill="#9a32cd" stroke="#9a32cd" points="80.0001,-114.4005 83.5,-124.4005 87.0001,-114.4006 80.0001,-114.4005"/>
<text text-anchor="middle" x="100.5" y="-98" font-family="Helvetica,sans-Serif" font-size="10.00" fill="#000000"> mMod</text>
</g>
</g>
</svg>
