<?xml version="1.0" encoding="UTF-8" standalone="no"?>
<!DOCTYPE svg PUBLIC "-//W3C//DTD SVG 1.1//EN"
 "http://www.w3.org/Graphics/SVG/1.1/DTD/svg11.dtd">
<!-- Generated by graphviz version 2.38.0 (20140413.2041)
 -->
<!-- Title: lib/Transform/Utils.cpp Pages: 1 -->
<!--zoomable 308 -->
<svg id="main" version="1.1" xmlns="http://www.w3.org/2000/svg" xmlns:xlink="http://www.w3.org/1999/xlink" xml:space="preserve" onload="init(evt)">
<style type="text/css"><![CDATA[
.edge:hover path { stroke: red; }
.edge:hover polygon { stroke: red; fill: red; }
]]></style>
<script type="text/javascript"><![CDATA[
var edges = document.getElementsByTagName('g');
if (edges && edges.length) {
  for (var i=0;i<edges.length;i++) {
    if (edges[i].id.substr(0,4)=='edge') {
      edges[i].setAttribute('class','edge');
    }
  }
}
]]></script>
        <defs>
                <circle id="rim" cx="0" cy="0" r="7"/>
                <circle id="rim2" cx="0" cy="0" r="3.5"/>
                <g id="zoomPlus">
                        <use xlink:href="#rim" fill="#404040">
                                <set attributeName="fill" to="#808080" begin="zoomplus.mouseover" end="zoomplus.mouseout"/>
                        </use>
                        <path d="M-4,0h8M0,-4v8" fill="none" stroke="white" stroke-width="1.5" pointer-events="none"/>
                </g>
                <g id="zoomMin">
                        <use xlink:href="#rim" fill="#404040">
                                <set attributeName="fill" to="#808080" begin="zoomminus.mouseover" end="zoomminus.mouseout"/>
                        </use>
                        <path d="M-4,0h8" fill="none" stroke="white" stroke-width="1.5" pointer-events="none"/>
                </g>
                <g id="dirArrow">
                        <path fill="none" stroke="white" stroke-width="1.5" d="M0,-3.0v7 M-2.5,-0.5L0,-3.0L2.5,-0.5"/>
                </g>
               <g id="resetDef">
                       <use xlink:href="#rim2" fill="#404040">
                               <set attributeName="fill" to="#808080" begin="reset.mouseover" end="reset.mouseout"/>
                       </use>
               </g>
        </defs>

<script type="text/javascript">
var viewWidth = 1000;
var viewHeight = 308;
var sectionId = 'dynsection-0';
</script>
<script xlink:href="../../svgpan.js"/>
<svg id="graph" class="graph">
<g id="viewport">
<title>lib/Transform/Utils.cpp</title>
<!-- Node0 -->
<g id="node1" class="node"><title>Node0</title>
<polygon fill="#bfbfbf" stroke="black" points="530,-280.5 530,-299.5 646,-299.5 646,-280.5 530,-280.5"/>
<text text-anchor="middle" x="588" y="-287.5" font-family="Helvetica,sans-Serif" font-size="10.00">lib/Transform/Utils.cpp</text>
</g>
<!-- Node1 -->
<g id="node2" class="node"><title>Node1</title>
<g id="a_node2"><a xlink:href="../../d9/ded/Utils_8h.xhtml" target="_top" xlink:title="enfield/Transform/Utils.h">
<polygon fill="none" stroke="black" points="383,-224.5 383,-243.5 507,-243.5 507,-224.5 383,-224.5"/>
<text text-anchor="middle" x="445" y="-231.5" font-family="Helvetica,sans-Serif" font-size="10.00">enfield/Transform/Utils.h</text>
</a>
</g>
</g>
<!-- Node0&#45;&gt;Node1 -->
<g id="edge1" class="edge"><title>Node0&#45;&gt;Node1</title>
<path fill="none" stroke="midnightblue" d="M565.341,-280.444C541.598,-271.478 504.091,-257.314 477.262,-247.183"/>
<polygon fill="midnightblue" stroke="midnightblue" points="478.144,-243.775 467.553,-243.516 475.671,-250.324 478.144,-243.775"/>
</g>
<!-- Node5 -->
<g id="node6" class="node"><title>Node5</title>
<g id="a_node6"><a xlink:href="../../d5/dfc/RTTI_8h.xhtml" target="_top" xlink:title="enfield/Support/RTTI.h">
<polygon fill="none" stroke="black" points="606,-56.5 606,-75.5 722,-75.5 722,-56.5 606,-56.5"/>
<text text-anchor="middle" x="664" y="-63.5" font-family="Helvetica,sans-Serif" font-size="10.00">enfield/Support/RTTI.h</text>
</a>
</g>
</g>
<!-- Node0&#45;&gt;Node5 -->
<g id="edge21" class="edge"><title>Node0&#45;&gt;Node5</title>
<path fill="none" stroke="midnightblue" d="M646.22,-283.097C675.033,-277.37 708.393,-266.111 731,-244 755.892,-219.656 762.026,-200.674 750,-168 736.786,-132.098 704.511,-100.263 683.475,-82.3329"/>
<polygon fill="midnightblue" stroke="midnightblue" points="685.437,-79.4136 675.499,-75.7394 680.976,-84.8087 685.437,-79.4136"/>
</g>
<!-- Node7 -->
<g id="node8" class="node"><title>Node7</title>
<polygon fill="none" stroke="#bfbfbf" points="0,-56.5 0,-75.5 54,-75.5 54,-56.5 0,-56.5"/>
<text text-anchor="middle" x="27" y="-63.5" font-family="Helvetica,sans-Serif" font-size="10.00">iostream</text>
</g>
<!-- Node0&#45;&gt;Node7 -->
<g id="edge29" class="edge"><title>Node0&#45;&gt;Node7</title>
<path fill="none" stroke="midnightblue" d="M529.965,-288.072C397.652,-284.569 80.2706,-267.841 18,-188 -5.2277,-158.218 8.49573,-110.799 18.8046,-85.0575"/>
<polygon fill="midnightblue" stroke="midnightblue" points="22.0682,-86.3267 22.7656,-75.7548 15.6277,-83.5844 22.0682,-86.3267"/>
</g>
<!-- Node12 -->
<g id="node13" class="node"><title>Node12</title>
<polygon fill="none" stroke="#bfbfbf" points="514.5,-112.5 514.5,-131.5 597.5,-131.5 597.5,-112.5 514.5,-112.5"/>
<text text-anchor="middle" x="556" y="-119.5" font-family="Helvetica,sans-Serif" font-size="10.00">unordered_map</text>
</g>
<!-- Node0&#45;&gt;Node12 -->
<g id="edge27" class="edge"><title>Node0&#45;&gt;Node12</title>
<path fill="none" stroke="midnightblue" d="M580.404,-280.436C573.354,-271.887 563.32,-258.035 559,-244 548.273,-209.151 550.709,-165.954 553.393,-141.735"/>
<polygon fill="midnightblue" stroke="midnightblue" points="556.872,-142.122 554.635,-131.766 549.925,-141.256 556.872,-142.122"/>
</g>
<!-- Node13 -->
<g id="node14" class="node"><title>Node13</title>
<g id="a_node14"><a xlink:href="../../d0/d8d/NodeVisitor_8h.xhtml" target="_top" xlink:title="enfield/Analysis/NodeVisitor.h">
<polygon fill="none" stroke="black" points="169,-168.5 169,-187.5 317,-187.5 317,-168.5 169,-168.5"/>
<text text-anchor="middle" x="243" y="-175.5" font-family="Helvetica,sans-Serif" font-size="10.00">enfield/Analysis/NodeVisitor.h</text>
</a>
</g>
</g>
<!-- Node0&#45;&gt;Node13 -->
<g id="edge15" class="edge"><title>Node0&#45;&gt;Node13</title>
<path fill="none" stroke="midnightblue" d="M529.703,-280.838C486.055,-273.75 425.292,-261.794 374,-244 334.652,-230.35 291.941,-207.503 266.334,-192.852"/>
<polygon fill="midnightblue" stroke="midnightblue" points="267.807,-189.66 257.4,-187.674 264.297,-195.716 267.807,-189.66"/>
</g>
<!-- Node14 -->
<g id="node15" class="node"><title>Node14</title>
<g id="a_node15"><a xlink:href="../../d0/d5c/Analysis_2Driver_8h.xhtml" target="_top" xlink:title="enfield/Analysis/Driver.h">
<polygon fill="none" stroke="black" points="27.5,-168.5 27.5,-187.5 150.5,-187.5 150.5,-168.5 27.5,-168.5"/>
<text text-anchor="middle" x="89" y="-175.5" font-family="Helvetica,sans-Serif" font-size="10.00">enfield/Analysis/Driver.h</text>
</a>
</g>
</g>
<!-- Node0&#45;&gt;Node14 -->
<g id="edge17" class="edge"><title>Node0&#45;&gt;Node14</title>
<path fill="none" stroke="midnightblue" d="M529.804,-280.944C475.685,-273.03 392.964,-259.856 322,-244 251.889,-228.335 171.44,-204.582 125.774,-190.545"/>
<polygon fill="midnightblue" stroke="midnightblue" points="126.616,-187.142 116.029,-187.534 124.55,-193.83 126.616,-187.142"/>
</g>
<!-- Node15 -->
<g id="node16" class="node"><title>Node15</title>
<g id="a_node16"><a xlink:href="../../dc/d09/uRefCast_8h.xhtml" target="_top" xlink:title="enfield/Support/uRefCast.h">
<polygon fill="none" stroke="black" points="568.5,-224.5 568.5,-243.5 703.5,-243.5 703.5,-224.5 568.5,-224.5"/>
<text text-anchor="middle" x="636" y="-231.5" font-family="Helvetica,sans-Serif" font-size="10.00">enfield/Support/uRefCast.h</text>
</a>
</g>
</g>
<!-- Node0&#45;&gt;Node15 -->
<g id="edge22" class="edge"><title>Node0&#45;&gt;Node15</title>
<path fill="none" stroke="midnightblue" d="M595.926,-280.083C602.846,-272.298 613.065,-260.801 621.452,-251.367"/>
<polygon fill="midnightblue" stroke="midnightblue" points="624.194,-253.55 628.221,-243.751 618.962,-248.9 624.194,-253.55"/>
</g>
<!-- Node16 -->
<g id="node17" class="node"><title>Node16</title>
<polygon fill="none" stroke="#bfbfbf" points="692.5,-168.5 692.5,-187.5 741.5,-187.5 741.5,-168.5 692.5,-168.5"/>
<text text-anchor="middle" x="717" y="-175.5" font-family="Helvetica,sans-Serif" font-size="10.00">cassert</text>
</g>
<!-- Node0&#45;&gt;Node16 -->
<g id="edge26" class="edge"><title>Node0&#45;&gt;Node16</title>
<path fill="none" stroke="midnightblue" d="M646.194,-281.852C670.35,-275.789 696.344,-264.606 712,-244 721.941,-230.916 722.214,-211.766 720.588,-197.639"/>
<polygon fill="midnightblue" stroke="midnightblue" points="724.022,-196.94 719.026,-187.598 717.105,-198.017 724.022,-196.94"/>
</g>
<!-- Node17 -->
<g id="node18" class="node"><title>Node17</title>
<polygon fill="none" stroke="#bfbfbf" points="798.5,-224.5 798.5,-243.5 845.5,-243.5 845.5,-224.5 798.5,-224.5"/>
<text text-anchor="middle" x="822" y="-231.5" font-family="Helvetica,sans-Serif" font-size="10.00">iterator</text>
</g>
<!-- Node0&#45;&gt;Node17 -->
<g id="edge28" class="edge"><title>Node0&#45;&gt;Node17</title>
<path fill="none" stroke="midnightblue" d="M625.592,-280.45C665.061,-271.454 728.919,-256.846 784,-244 785.444,-243.663 786.919,-243.318 788.409,-242.969"/>
<polygon fill="midnightblue" stroke="midnightblue" points="789.358,-246.341 798.289,-240.642 787.753,-239.528 789.358,-246.341"/>
</g>
<!-- Node18 -->
<g id="node19" class="node"><title>Node18</title>
<g id="a_node19"><a xlink:href="../../d3/da1/intrinsic_8inc.xhtml" target="_top" xlink:title="enfield/StdLib/intrinsic.inc">
<polygon fill="none" stroke="black" points="864,-224.5 864,-243.5 992,-243.5 992,-224.5 864,-224.5"/>
<text text-anchor="middle" x="928" y="-231.5" font-family="Helvetica,sans-Serif" font-size="10.00">enfield/StdLib/intrinsic.inc</text>
</a>
</g>
</g>
<!-- Node0&#45;&gt;Node18 -->
<g id="edge30" class="edge"><title>Node0&#45;&gt;Node18</title>
<path fill="none" stroke="midnightblue" d="M641.874,-280.444C702.305,-270.846 800.238,-255.292 864.384,-245.104"/>
<polygon fill="midnightblue" stroke="midnightblue" points="865.051,-248.542 874.378,-243.516 863.953,-241.628 865.051,-248.542"/>
</g>
<!-- Node2 -->
<g id="node3" class="node"><title>Node2</title>
<g id="a_node3"><a xlink:href="../../d4/daf/Nodes_8h.xhtml" target="_top" xlink:title="enfield/Analysis/Nodes.h">
<polygon fill="none" stroke="black" points="226.5,-112.5 226.5,-131.5 351.5,-131.5 351.5,-112.5 226.5,-112.5"/>
<text text-anchor="middle" x="289" y="-119.5" font-family="Helvetica,sans-Serif" font-size="10.00">enfield/Analysis/Nodes.h</text>
</a>
</g>
</g>
<!-- Node1&#45;&gt;Node2 -->
<g id="edge2" class="edge"><title>Node1&#45;&gt;Node2</title>
<path fill="none" stroke="midnightblue" d="M426.989,-224.352C410.142,-215.951 384.561,-202.389 364,-188 342.322,-172.829 319.664,-152.47 305.003,-138.606"/>
<polygon fill="midnightblue" stroke="midnightblue" points="307.379,-136.037 297.737,-131.647 302.537,-141.092 307.379,-136.037"/>
</g>
<!-- Node10 -->
<g id="node11" class="node"><title>Node10</title>
<g id="a_node11"><a xlink:href="../../d4/d73/QModule_8h.xhtml" target="_top" xlink:title="enfield/Transform/QModule.h">
<polygon fill="none" stroke="black" points="373.5,-168.5 373.5,-187.5 516.5,-187.5 516.5,-168.5 373.5,-168.5"/>
<text text-anchor="middle" x="445" y="-175.5" font-family="Helvetica,sans-Serif" font-size="10.00">enfield/Transform/QModule.h</text>
</a>
</g>
</g>
<!-- Node1&#45;&gt;Node10 -->
<g id="edge10" class="edge"><title>Node1&#45;&gt;Node10</title>
<path fill="none" stroke="midnightblue" d="M445,-224.083C445,-217.006 445,-206.861 445,-197.986"/>
<polygon fill="midnightblue" stroke="midnightblue" points="448.5,-197.751 445,-187.751 441.5,-197.751 448.5,-197.751"/>
</g>
<!-- Node3 -->
<g id="node4" class="node"><title>Node3</title>
<g id="a_node4"><a xlink:href="../../d1/d2e/WrapperVal_8h.xhtml" target="_top" xlink:title="enfield/Support/WrapperVal.h">
<polygon fill="none" stroke="black" points="110,-56.5 110,-75.5 254,-75.5 254,-56.5 110,-56.5"/>
<text text-anchor="middle" x="182" y="-63.5" font-family="Helvetica,sans-Serif" font-size="10.00">enfield/Support/WrapperVal.h</text>
</a>
</g>
</g>
<!-- Node2&#45;&gt;Node3 -->
<g id="edge3" class="edge"><title>Node2&#45;&gt;Node3</title>
<path fill="none" stroke="midnightblue" d="M271.809,-112.324C254.649,-103.664 228.054,-90.2424 208.253,-80.249"/>
<polygon fill="midnightblue" stroke="midnightblue" points="209.653,-77.0354 199.149,-75.6545 206.499,-83.2847 209.653,-77.0354"/>
</g>
<!-- Node2&#45;&gt;Node5 -->
<g id="edge5" class="edge"><title>Node2&#45;&gt;Node5</title>
<path fill="none" stroke="midnightblue" d="M348.42,-112.444C415.642,-102.764 524.935,-87.0253 595.641,-76.8437"/>
<polygon fill="midnightblue" stroke="midnightblue" points="596.384,-80.2729 605.783,-75.3832 595.386,-73.3443 596.384,-80.2729"/>
</g>
<!-- Node6 -->
<g id="node7" class="node"><title>Node6</title>
<polygon fill="none" stroke="#bfbfbf" points="272.5,-56.5 272.5,-75.5 345.5,-75.5 345.5,-56.5 272.5,-56.5"/>
<text text-anchor="middle" x="309" y="-63.5" font-family="Helvetica,sans-Serif" font-size="10.00">initializer_list</text>
</g>
<!-- Node2&#45;&gt;Node6 -->
<g id="edge6" class="edge"><title>Node2&#45;&gt;Node6</title>
<path fill="none" stroke="midnightblue" d="M292.303,-112.083C294.982,-104.849 298.849,-94.4087 302.186,-85.3968"/>
<polygon fill="midnightblue" stroke="midnightblue" points="305.568,-86.3442 305.759,-75.7511 299.004,-83.9129 305.568,-86.3442"/>
</g>
<!-- Node2&#45;&gt;Node7 -->
<g id="edge7" class="edge"><title>Node2&#45;&gt;Node7</title>
<path fill="none" stroke="midnightblue" d="M247.485,-112.444C197.075,-102.054 112.801,-84.6841 64.348,-74.6977"/>
<polygon fill="midnightblue" stroke="midnightblue" points="64.7892,-71.2151 54.2885,-72.6243 63.3761,-78.071 64.7892,-71.2151"/>
</g>
<!-- Node8 -->
<g id="node9" class="node"><title>Node8</title>
<polygon fill="none" stroke="#bfbfbf" points="364,-56.5 364,-75.5 408,-75.5 408,-56.5 364,-56.5"/>
<text text-anchor="middle" x="386" y="-63.5" font-family="Helvetica,sans-Serif" font-size="10.00">vector</text>
</g>
<!-- Node2&#45;&gt;Node8 -->
<g id="edge8" class="edge"><title>Node2&#45;&gt;Node8</title>
<path fill="none" stroke="midnightblue" d="M304.585,-112.324C319.999,-103.743 343.812,-90.486 361.71,-80.5224"/>
<polygon fill="midnightblue" stroke="midnightblue" points="363.419,-83.5767 370.454,-75.6545 360.014,-77.4606 363.419,-83.5767"/>
</g>
<!-- Node9 -->
<g id="node10" class="node"><title>Node9</title>
<polygon fill="none" stroke="#bfbfbf" points="426,-56.5 426,-75.5 478,-75.5 478,-56.5 426,-56.5"/>
<text text-anchor="middle" x="452" y="-63.5" font-family="Helvetica,sans-Serif" font-size="10.00">memory</text>
</g>
<!-- Node2&#45;&gt;Node9 -->
<g id="edge9" class="edge"><title>Node2&#45;&gt;Node9</title>
<path fill="none" stroke="midnightblue" d="M314.828,-112.444C342.249,-103.359 385.777,-88.9388 416.432,-78.7831"/>
<polygon fill="midnightblue" stroke="midnightblue" points="417.901,-81.9837 426.293,-75.5164 415.7,-75.3389 417.901,-81.9837"/>
</g>
<!-- Node4 -->
<g id="node5" class="node"><title>Node4</title>
<polygon fill="none" stroke="#bfbfbf" points="111.5,-0.5 111.5,-19.5 152.5,-19.5 152.5,-0.5 111.5,-0.5"/>
<text text-anchor="middle" x="132" y="-7.5" font-family="Helvetica,sans-Serif" font-size="10.00">string</text>
</g>
<!-- Node3&#45;&gt;Node4 -->
<g id="edge4" class="edge"><title>Node3&#45;&gt;Node4</title>
<path fill="none" stroke="midnightblue" d="M173.744,-56.083C166.535,-48.2982 155.89,-36.8015 147.154,-27.3665"/>
<polygon fill="midnightblue" stroke="midnightblue" points="149.465,-24.7108 140.103,-19.7511 144.329,-29.4666 149.465,-24.7108"/>
</g>
<!-- Node10&#45;&gt;Node2 -->
<g id="edge11" class="edge"><title>Node10&#45;&gt;Node2</title>
<path fill="none" stroke="midnightblue" d="M420.281,-168.444C394.152,-159.399 352.741,-145.064 323.424,-134.916"/>
<polygon fill="midnightblue" stroke="midnightblue" points="324.198,-131.48 313.603,-131.516 321.908,-138.095 324.198,-131.48"/>
</g>
<!-- Node11 -->
<g id="node12" class="node"><title>Node11</title>
<g id="a_node12"><a xlink:href="../../df/d29/Pass_8h.xhtml" target="_top" xlink:title="enfield/Transform/Pass.h">
<polygon fill="none" stroke="black" points="370,-112.5 370,-131.5 496,-131.5 496,-112.5 370,-112.5"/>
<text text-anchor="middle" x="433" y="-119.5" font-family="Helvetica,sans-Serif" font-size="10.00">enfield/Transform/Pass.h</text>
</a>
</g>
</g>
<!-- Node10&#45;&gt;Node11 -->
<g id="edge12" class="edge"><title>Node10&#45;&gt;Node11</title>
<path fill="none" stroke="midnightblue" d="M443.018,-168.083C441.428,-160.927 439.141,-150.635 437.154,-141.691"/>
<polygon fill="midnightblue" stroke="midnightblue" points="440.531,-140.754 434.945,-131.751 433.697,-142.272 440.531,-140.754"/>
</g>
<!-- Node10&#45;&gt;Node12 -->
<g id="edge14" class="edge"><title>Node10&#45;&gt;Node12</title>
<path fill="none" stroke="midnightblue" d="M462.834,-168.324C480.716,-159.625 508.475,-146.12 529.046,-136.113"/>
<polygon fill="midnightblue" stroke="midnightblue" points="530.749,-139.177 538.21,-131.655 527.687,-132.882 530.749,-139.177"/>
</g>
<!-- Node11&#45;&gt;Node9 -->
<g id="edge13" class="edge"><title>Node11&#45;&gt;Node9</title>
<path fill="none" stroke="midnightblue" d="M436.137,-112.083C438.683,-104.849 442.356,-94.4087 445.527,-85.3968"/>
<polygon fill="midnightblue" stroke="midnightblue" points="448.903,-86.3459 448.921,-75.7511 442.3,-84.0225 448.903,-86.3459"/>
</g>
<!-- Node13&#45;&gt;Node2 -->
<g id="edge16" class="edge"><title>Node13&#45;&gt;Node2</title>
<path fill="none" stroke="midnightblue" d="M250.596,-168.083C257.227,-160.298 267.021,-148.801 275.058,-139.367"/>
<polygon fill="midnightblue" stroke="midnightblue" points="277.725,-141.633 281.545,-131.751 272.396,-137.094 277.725,-141.633"/>
</g>
<!-- Node14&#45;&gt;Node2 -->
<g id="edge18" class="edge"><title>Node14&#45;&gt;Node2</title>
<path fill="none" stroke="midnightblue" d="M120.691,-168.444C155.068,-159.162 210.077,-144.309 247.789,-134.127"/>
<polygon fill="midnightblue" stroke="midnightblue" points="248.716,-137.502 257.458,-131.516 246.891,-130.744 248.716,-137.502"/>
</g>
<!-- Node14&#45;&gt;Node4 -->
<g id="edge20" class="edge"><title>Node14&#45;&gt;Node4</title>
<path fill="none" stroke="midnightblue" d="M88.4192,-168.465C87.3424,-148.23 86.3364,-96.0417 101,-56 104.785,-45.6636 111.508,-35.4526 117.727,-27.3768"/>
<polygon fill="midnightblue" stroke="midnightblue" points="120.506,-29.5076 124.116,-19.5467 115.082,-25.0824 120.506,-29.5076"/>
</g>
<!-- Node14&#45;&gt;Node7 -->
<g id="edge19" class="edge"><title>Node14&#45;&gt;Node7</title>
<path fill="none" stroke="midnightblue" d="M84.135,-168.368C73.9485,-150.296 50.2085,-108.176 36.7551,-84.3074"/>
<polygon fill="midnightblue" stroke="midnightblue" points="39.8017,-82.5844 31.8424,-75.5914 33.7036,-86.0215 39.8017,-82.5844"/>
</g>
<!-- Node15&#45;&gt;Node5 -->
<g id="edge23" class="edge"><title>Node15&#45;&gt;Node5</title>
<path fill="none" stroke="midnightblue" d="M637.505,-224.075C641.913,-197.945 654.856,-121.211 660.867,-85.577"/>
<polygon fill="midnightblue" stroke="midnightblue" points="664.343,-86.011 662.555,-75.5681 657.44,-84.8467 664.343,-86.011"/>
</g>
<!-- Node15&#45;&gt;Node9 -->
<g id="edge25" class="edge"><title>Node15&#45;&gt;Node9</title>
<path fill="none" stroke="midnightblue" d="M636.56,-224.318C637.477,-202.347 636.719,-144.013 606,-112 575.327,-80.0348 523.325,-70.4188 488.336,-67.7199"/>
<polygon fill="midnightblue" stroke="midnightblue" points="488.262,-64.2088 478.066,-67.0873 487.832,-71.1956 488.262,-64.2088"/>
</g>
<!-- Node15&#45;&gt;Node16 -->
<g id="edge24" class="edge"><title>Node15&#45;&gt;Node16</title>
<path fill="none" stroke="midnightblue" d="M649.014,-224.324C661.532,-215.979 680.682,-203.212 695.471,-193.352"/>
<polygon fill="midnightblue" stroke="midnightblue" points="697.639,-196.114 704.018,-187.655 693.756,-190.289 697.639,-196.114"/>
</g>
</g>
</svg>
        <g id="navigator" transform="translate(0 0)" fill="#404254">
                <rect fill="#f2f5e9" fill-opacity="0.5" stroke="#606060" stroke-width=".5" x="0" y="0" width="60" height="60"/>
                <use id="zoomplus" xlink:href="#zoomPlus" x="17" y="9" onmousedown="handleZoom(evt,'in')"/>
                <use id="zoomminus" xlink:href="#zoomMin" x="42" y="9" onmousedown="handleZoom(evt,'out')"/>
                <use id="reset" xlink:href="#resetDef" x="30" y="36" onmousedown="handleReset()"/>
                <g id="arrowUp" xlink:href="#dirArrow" transform="translate(30 24)" onmousedown="handlePan(0,-1)">
                  <use xlink:href="#rim" fill="#404040">
                        <set attributeName="fill" to="#808080" begin="arrowUp.mouseover" end="arrowUp.mouseout"/>
                  </use>
                  <path fill="none" stroke="white" stroke-width="1.5" d="M0,-3.0v7 M-2.5,-0.5L0,-3.0L2.5,-0.5"/>
                </g>
                <g id="arrowRight" xlink:href="#dirArrow" transform="rotate(90) translate(36 -43)" onmousedown="handlePan(1,0)">
                  <use xlink:href="#rim" fill="#404040">
                        <set attributeName="fill" to="#808080" begin="arrowRight.mouseover" end="arrowRight.mouseout"/>
                  </use>
                  <path fill="none" stroke="white" stroke-width="1.5" d="M0,-3.0v7 M-2.5,-0.5L0,-3.0L2.5,-0.5"/>
                </g>
                <g id="arrowDown" xlink:href="#dirArrow" transform="rotate(180) translate(-30 -48)" onmousedown="handlePan(0,1)">
                  <use xlink:href="#rim" fill="#404040">
                        <set attributeName="fill" to="#808080" begin="arrowDown.mouseover" end="arrowDown.mouseout"/>
                  </use>
                  <path fill="none" stroke="white" stroke-width="1.5" d="M0,-3.0v7 M-2.5,-0.5L0,-3.0L2.5,-0.5"/>
                </g>
                <g id="arrowLeft" xlink:href="#dirArrow" transform="rotate(270) translate(-36 17)" onmousedown="handlePan(-1,0)">
                  <use xlink:href="#rim" fill="#404040">
                        <set attributeName="fill" to="#808080" begin="arrowLeft.mouseover" end="arrowLeft.mouseout"/>
                  </use>
                  <path fill="none" stroke="white" stroke-width="1.5" d="M0,-3.0v7 M-2.5,-0.5L0,-3.0L2.5,-0.5"/>
                </g>
        </g>
        <svg viewBox="0 0 15 15" width="100%" height="30px" preserveAspectRatio="xMaxYMin meet">
         <g id="arrow_out" transform="scale(0.3 0.3)">
          <a xlink:href="Utils_8cpp__incl_org.svg" target="_base">
           <rect id="button" ry="5" rx="5" y="6" x="6" height="38" width="38"
                fill="#f2f5e9" fill-opacity="0.5" stroke="#606060" stroke-width="1.0"/>
           <path id="arrow"
             d="M 11.500037,31.436501 C 11.940474,20.09759 22.043105,11.32322 32.158766,21.979434 L 37.068811,17.246167 C 37.068811,17.246167 37.088388,32 37.088388,32 L 22.160133,31.978069 C 22.160133,31.978069 26.997745,27.140456 26.997745,27.140456 C 18.528582,18.264221 13.291696,25.230495 11.500037,31.436501 z"
             style="fill:#404040;"/>
          </a>
         </g>
        </svg>
</svg>
