<?xml version="1.0" encoding="UTF-8" standalone="no"?>
<!DOCTYPE svg PUBLIC "-//W3C//DTD SVG 1.1//EN"
 "http://www.w3.org/Graphics/SVG/1.1/DTD/svg11.dtd">
<!-- Generated by graphviz version 2.40.1 (20161225.0304)
 -->
<!-- Title: lib/Transform/Utils.cpp Pages: 1 -->
<!--zoomable 308 -->
<svg id="main" version="1.1" xmlns="http://www.w3.org/2000/svg" xmlns:xlink="http://www.w3.org/1999/xlink" xml:space="preserve" onload="init(evt)">
<style type="text/css"><![CDATA[
.edge:hover path { stroke: red; }
.edge:hover polygon { stroke: red; fill: red; }
]]></style>
<script type="text/javascript"><![CDATA[
var edges = document.getElementsByTagName('g');
if (edges && edges.length) {
  for (var i=0;i<edges.length;i++) {
    if (edges[i].id.substr(0,4)=='edge') {
      edges[i].setAttribute('class','edge');
    }
  }
}
]]></script>
        <defs>
                <circle id="rim" cx="0" cy="0" r="7"/>
                <circle id="rim2" cx="0" cy="0" r="3.5"/>
                <g id="zoomPlus">
                        <use xlink:href="#rim" fill="#404040">
                                <set attributeName="fill" to="#808080" begin="zoomplus.mouseover" end="zoomplus.mouseout"/>
                        </use>
                        <path d="M-4,0h8M0,-4v8" fill="none" stroke="white" stroke-width="1.5" pointer-events="none"/>
                </g>
                <g id="zoomMin">
                        <use xlink:href="#rim" fill="#404040">
                                <set attributeName="fill" to="#808080" begin="zoomminus.mouseover" end="zoomminus.mouseout"/>
                        </use>
                        <path d="M-4,0h8" fill="none" stroke="white" stroke-width="1.5" pointer-events="none"/>
                </g>
                <g id="dirArrow">
                        <path fill="none" stroke="white" stroke-width="1.5" d="M0,-3.0v7 M-2.5,-0.5L0,-3.0L2.5,-0.5"/>
                </g>
               <g id="resetDef">
                       <use xlink:href="#rim2" fill="#404040">
                               <set attributeName="fill" to="#808080" begin="reset.mouseover" end="reset.mouseout"/>
                       </use>
               </g>
        </defs>

<script type="text/javascript">
var viewWidth = 1092;
var viewHeight = 308;
var sectionId = 'dynsection-0';
</script>
<script xlink:href="../../svgpan.js"/>
<svg id="graph" class="graph">
<g id="viewport">
<title>lib/Transform/Utils.cpp</title>
<!-- Node0 -->
<g id="node1" class="node">
<title>Node0</title>
<polygon fill="#bfbfbf" stroke="#000000" points="586.5,-280.5 586.5,-299.5 714.5,-299.5 714.5,-280.5 586.5,-280.5"/>
<text text-anchor="middle" x="650.5" y="-287.5" font-family="Helvetica,sans-Serif" font-size="10.00" fill="#000000">lib/Transform/Utils.cpp</text>
</g>
<!-- Node1 -->
<g id="node2" class="node">
<title>Node1</title>
<g id="a_node2"><a xlink:href="../../d9/ded/Utils_8h.xhtml" target="_top" xlink:title="enfield/Transform/Utils.h">
<polygon fill="none" stroke="#000000" points="423.5,-224.5 423.5,-243.5 561.5,-243.5 561.5,-224.5 423.5,-224.5"/>
<text text-anchor="middle" x="492.5" y="-231.5" font-family="Helvetica,sans-Serif" font-size="10.00" fill="#000000">enfield/Transform/Utils.h</text>
</a>
</g>
</g>
<!-- Node0&#45;&gt;Node1 -->
<g id="edge1" class="edge">
<title>Node0&#45;&gt;Node1</title>
<path fill="none" stroke="#191970" d="M623.3388,-280.3733C597.2933,-271.1419 557.7884,-257.1402 529.0021,-246.9375"/>
<polygon fill="#191970" stroke="#191970" points="529.9015,-243.5429 519.3067,-243.5011 527.563,-250.1408 529.9015,-243.5429"/>
</g>
<!-- Node5 -->
<g id="node6" class="node">
<title>Node5</title>
<g id="a_node6"><a xlink:href="../../d5/dfc/RTTI_8h.xhtml" target="_top" xlink:title="enfield/Support/RTTI.h">
<polygon fill="none" stroke="#000000" points="611,-56.5 611,-75.5 736,-75.5 736,-56.5 611,-56.5"/>
<text text-anchor="middle" x="673.5" y="-63.5" font-family="Helvetica,sans-Serif" font-size="10.00" fill="#000000">enfield/Support/RTTI.h</text>
</a>
</g>
</g>
<!-- Node0&#45;&gt;Node5 -->
<g id="edge21" class="edge">
<title>Node0&#45;&gt;Node5</title>
<path fill="none" stroke="#191970" d="M673.5357,-280.4723C705.3217,-265.9026 761.3274,-234.761 784.5,-188 799.4981,-157.7346 803.2635,-140.0868 784.5,-112 773.9407,-96.1939 756.8344,-85.8119 739.1799,-78.9953"/>
<polygon fill="#191970" stroke="#191970" points="739.9484,-75.5564 729.3536,-75.5633 737.6402,-82.165 739.9484,-75.5564"/>
</g>
<!-- Node7 -->
<g id="node8" class="node">
<title>Node7</title>
<polygon fill="none" stroke="#bfbfbf" points="96.5,-56.5 96.5,-75.5 156.5,-75.5 156.5,-56.5 96.5,-56.5"/>
<text text-anchor="middle" x="126.5" y="-63.5" font-family="Helvetica,sans-Serif" font-size="10.00" fill="#000000">iostream</text>
</g>
<!-- Node0&#45;&gt;Node7 -->
<g id="edge34" class="edge">
<title>Node0&#45;&gt;Node7</title>
<path fill="none" stroke="#191970" d="M586.2889,-283.5432C473.0229,-270.9503 244.0594,-239.7244 184.5,-188 152.9075,-160.5635 137.179,-112.1111 130.5473,-85.2635"/>
<polygon fill="#191970" stroke="#191970" points="133.9565,-84.4709 128.3066,-75.5083 127.1342,-86.038 133.9565,-84.4709"/>
</g>
<!-- Node12 -->
<g id="node13" class="node">
<title>Node12</title>
<polygon fill="none" stroke="#bfbfbf" points="530,-112.5 530,-131.5 623,-131.5 623,-112.5 530,-112.5"/>
<text text-anchor="middle" x="576.5" y="-119.5" font-family="Helvetica,sans-Serif" font-size="10.00" fill="#000000">unordered_map</text>
</g>
<!-- Node0&#45;&gt;Node12 -->
<g id="edge32" class="edge">
<title>Node0&#45;&gt;Node12</title>
<path fill="none" stroke="#191970" d="M646.3094,-280.4862C634.5105,-253.6994 600.8392,-177.2565 584.9699,-141.2289"/>
<polygon fill="#191970" stroke="#191970" points="588.0631,-139.5686 580.8289,-131.8279 581.657,-142.3903 588.0631,-139.5686"/>
</g>
<!-- Node13 -->
<g id="node14" class="node">
<title>Node13</title>
<g id="a_node14"><a xlink:href="../../d0/d8d/NodeVisitor_8h.xhtml" target="_top" xlink:title="enfield/Analysis/NodeVisitor.h">
<polygon fill="none" stroke="#000000" points="193.5,-168.5 193.5,-187.5 357.5,-187.5 357.5,-168.5 193.5,-168.5"/>
<text text-anchor="middle" x="275.5" y="-175.5" font-family="Helvetica,sans-Serif" font-size="10.00" fill="#000000">enfield/Analysis/NodeVisitor.h</text>
</a>
</g>
</g>
<!-- Node0&#45;&gt;Node13 -->
<g id="edge15" class="edge">
<title>Node0&#45;&gt;Node13</title>
<path fill="none" stroke="#191970" d="M586.2905,-281.9307C538.1955,-274.8251 471.2019,-262.6584 414.5,-244 373.1874,-230.4056 328.2036,-207.409 300.9266,-192.4672"/>
<polygon fill="#191970" stroke="#191970" points="302.4947,-189.3347 292.0518,-187.5466 299.1003,-195.4566 302.4947,-189.3347"/>
</g>
<!-- Node14 -->
<g id="node15" class="node">
<title>Node14</title>
<g id="a_node15"><a xlink:href="../../d0/d5c/Analysis_2Driver_8h.xhtml" target="_top" xlink:title="enfield/Analysis/Driver.h">
<polygon fill="none" stroke="#000000" points="0,-168.5 0,-187.5 137,-187.5 137,-168.5 0,-168.5"/>
<text text-anchor="middle" x="68.5" y="-175.5" font-family="Helvetica,sans-Serif" font-size="10.00" fill="#000000">enfield/Analysis/Driver.h</text>
</a>
</g>
</g>
<!-- Node0&#45;&gt;Node14 -->
<g id="edge17" class="edge">
<title>Node0&#45;&gt;Node14</title>
<path fill="none" stroke="#191970" d="M586.1534,-288.6229C469.6804,-285.3828 228.8018,-275.0422 151.5,-244 124.7313,-233.2505 99.6374,-210.9349 84.1962,-195.2384"/>
<polygon fill="#191970" stroke="#191970" points="86.4752,-192.5564 77.0436,-187.7299 81.4068,-197.3846 86.4752,-192.5564"/>
</g>
<!-- Node15 -->
<g id="node16" class="node">
<title>Node15</title>
<g id="a_node16"><a xlink:href="../../dc/d09/uRefCast_8h.xhtml" target="_top" xlink:title="enfield/Support/uRefCast.h">
<polygon fill="none" stroke="#000000" points="628,-168.5 628,-187.5 775,-187.5 775,-168.5 628,-168.5"/>
<text text-anchor="middle" x="701.5" y="-175.5" font-family="Helvetica,sans-Serif" font-size="10.00" fill="#000000">enfield/Support/uRefCast.h</text>
</a>
</g>
</g>
<!-- Node0&#45;&gt;Node15 -->
<g id="edge22" class="edge">
<title>Node0&#45;&gt;Node15</title>
<path fill="none" stroke="#191970" d="M654.8482,-280.4509C663.2791,-261.936 681.9838,-220.8591 692.9763,-196.7187"/>
<polygon fill="#191970" stroke="#191970" points="696.2039,-198.0762 697.1628,-187.5249 689.8333,-195.1753 696.2039,-198.0762"/>
</g>
<!-- Node16 -->
<g id="node17" class="node">
<title>Node16</title>
<g id="a_node17"><a xlink:href="../../d1/d73/Defs_8h.xhtml" target="_top" xlink:title="enfield/Support/Defs.h">
<polygon fill="none" stroke="#000000" points="832,-112.5 832,-131.5 957,-131.5 957,-112.5 832,-112.5"/>
<text text-anchor="middle" x="894.5" y="-119.5" font-family="Helvetica,sans-Serif" font-size="10.00" fill="#000000">enfield/Support/Defs.h</text>
</a>
</g>
</g>
<!-- Node0&#45;&gt;Node16 -->
<g id="edge31" class="edge">
<title>Node0&#45;&gt;Node16</title>
<path fill="none" stroke="#191970" d="M714.8352,-283.499C748.0806,-277.5191 787.793,-266.0391 817.5,-244 853.5486,-217.2561 876.8607,-168.1687 887.6025,-141.1266"/>
<polygon fill="#191970" stroke="#191970" points="890.932,-142.2179 891.2161,-131.6269 884.3894,-139.7291 890.932,-142.2179"/>
</g>
<!-- Node21 -->
<g id="node22" class="node">
<title>Node21</title>
<polygon fill="none" stroke="#bfbfbf" points="870,-224.5 870,-243.5 923,-243.5 923,-224.5 870,-224.5"/>
<text text-anchor="middle" x="896.5" y="-231.5" font-family="Helvetica,sans-Serif" font-size="10.00" fill="#000000">iterator</text>
</g>
<!-- Node0&#45;&gt;Node21 -->
<g id="edge33" class="edge">
<title>Node0&#45;&gt;Node21</title>
<path fill="none" stroke="#191970" d="M694.1432,-280.4521C735.6816,-271.3067 799.9192,-257.0129 855.5,-244 856.9268,-243.666 858.3808,-243.3231 859.8492,-242.9748"/>
<polygon fill="#191970" stroke="#191970" points="860.7028,-246.3694 869.6108,-240.6337 859.0702,-239.5624 860.7028,-246.3694"/>
</g>
<!-- Node22 -->
<g id="node23" class="node">
<title>Node22</title>
<g id="a_node23"><a xlink:href="../../d3/da1/intrinsic_8inc.xhtml" target="_top" xlink:title="enfield/StdLib/intrinsic.inc">
<polygon fill="none" stroke="#000000" points="941,-224.5 941,-243.5 1084,-243.5 1084,-224.5 941,-224.5"/>
<text text-anchor="middle" x="1012.5" y="-231.5" font-family="Helvetica,sans-Serif" font-size="10.00" fill="#000000">enfield/StdLib/intrinsic.inc</text>
</a>
</g>
</g>
<!-- Node0&#45;&gt;Node22 -->
<g id="edge35" class="edge">
<title>Node0&#45;&gt;Node22</title>
<path fill="none" stroke="#191970" d="M712.3187,-280.4369C775.7039,-270.6314 874.1921,-255.3957 940.92,-245.0731"/>
<polygon fill="#191970" stroke="#191970" points="941.5889,-248.5114 950.9363,-243.5237 940.5187,-241.5937 941.5889,-248.5114"/>
</g>
<!-- Node2 -->
<g id="node3" class="node">
<title>Node2</title>
<g id="a_node3"><a xlink:href="../../d4/daf/Nodes_8h.xhtml" target="_top" xlink:title="enfield/Analysis/Nodes.h">
<polygon fill="none" stroke="#000000" points="218,-112.5 218,-131.5 355,-131.5 355,-112.5 218,-112.5"/>
<text text-anchor="middle" x="286.5" y="-119.5" font-family="Helvetica,sans-Serif" font-size="10.00" fill="#000000">enfield/Analysis/Nodes.h</text>
</a>
</g>
</g>
<!-- Node1&#45;&gt;Node2 -->
<g id="edge2" class="edge">
<title>Node1&#45;&gt;Node2</title>
<path fill="none" stroke="#191970" d="M473.878,-224.4597C456.0107,-215.2604 428.3062,-200.8764 404.5,-188 372.4209,-170.6489 335.8141,-150.0474 311.9926,-136.5327"/>
<polygon fill="#191970" stroke="#191970" points="313.6461,-133.4467 303.2224,-131.5495 310.1879,-139.5329 313.6461,-133.4467"/>
</g>
<!-- Node10 -->
<g id="node11" class="node">
<title>Node10</title>
<g id="a_node11"><a xlink:href="../../d4/d73/QModule_8h.xhtml" target="_top" xlink:title="enfield/Transform/QModule.h">
<polygon fill="none" stroke="#000000" points="413.5,-168.5 413.5,-187.5 571.5,-187.5 571.5,-168.5 413.5,-168.5"/>
<text text-anchor="middle" x="492.5" y="-175.5" font-family="Helvetica,sans-Serif" font-size="10.00" fill="#000000">enfield/Transform/QModule.h</text>
</a>
</g>
</g>
<!-- Node1&#45;&gt;Node10 -->
<g id="edge10" class="edge">
<title>Node1&#45;&gt;Node10</title>
<path fill="none" stroke="#191970" d="M492.5,-224.2455C492.5,-216.9382 492.5,-206.6944 492.5,-197.7046"/>
<polygon fill="#191970" stroke="#191970" points="496.0001,-197.6426 492.5,-187.6427 489.0001,-197.6427 496.0001,-197.6426"/>
</g>
<!-- Node3 -->
<g id="node4" class="node">
<title>Node3</title>
<g id="a_node4"><a xlink:href="../../d1/d2e/WrapperVal_8h.xhtml" target="_top" xlink:title="enfield/Support/WrapperVal.h">
<polygon fill="none" stroke="#000000" points="276.5,-56.5 276.5,-75.5 436.5,-75.5 436.5,-56.5 276.5,-56.5"/>
<text text-anchor="middle" x="356.5" y="-63.5" font-family="Helvetica,sans-Serif" font-size="10.00" fill="#000000">enfield/Support/WrapperVal.h</text>
</a>
</g>
</g>
<!-- Node2&#45;&gt;Node3 -->
<g id="edge3" class="edge">
<title>Node2&#45;&gt;Node3</title>
<path fill="none" stroke="#191970" d="M298.6931,-112.2455C309.1321,-103.8943 324.3655,-91.7076 336.574,-81.9408"/>
<polygon fill="#191970" stroke="#191970" points="338.8244,-84.6227 344.4467,-75.6427 334.4515,-79.1566 338.8244,-84.6227"/>
</g>
<!-- Node2&#45;&gt;Node5 -->
<g id="edge5" class="edge">
<title>Node2&#45;&gt;Node5</title>
<path fill="none" stroke="#191970" d="M352.5879,-112.4369C421.5185,-102.4624 529.2812,-86.8689 600.6347,-76.5438"/>
<polygon fill="#191970" stroke="#191970" points="601.4935,-79.9561 610.8891,-75.06 600.4909,-73.0282 601.4935,-79.9561"/>
</g>
<!-- Node6 -->
<g id="node7" class="node">
<title>Node6</title>
<polygon fill="none" stroke="#bfbfbf" points="175,-56.5 175,-75.5 258,-75.5 258,-56.5 175,-56.5"/>
<text text-anchor="middle" x="216.5" y="-63.5" font-family="Helvetica,sans-Serif" font-size="10.00" fill="#000000">initializer_list</text>
</g>
<!-- Node2&#45;&gt;Node6 -->
<g id="edge6" class="edge">
<title>Node2&#45;&gt;Node6</title>
<path fill="none" stroke="#191970" d="M274.3069,-112.2455C263.8679,-103.8943 248.6345,-91.7076 236.426,-81.9408"/>
<polygon fill="#191970" stroke="#191970" points="238.5485,-79.1566 228.5533,-75.6427 234.1756,-84.6227 238.5485,-79.1566"/>
</g>
<!-- Node2&#45;&gt;Node7 -->
<g id="edge7" class="edge">
<title>Node2&#45;&gt;Node7</title>
<path fill="none" stroke="#191970" d="M258.995,-112.3733C232.6198,-103.1419 192.6149,-89.1402 163.4642,-78.9375"/>
<polygon fill="#191970" stroke="#191970" points="164.2409,-75.5012 153.6461,-75.5011 161.9284,-82.1082 164.2409,-75.5012"/>
</g>
<!-- Node8 -->
<g id="node9" class="node">
<title>Node8</title>
<polygon fill="none" stroke="#bfbfbf" points="754,-56.5 754,-75.5 801,-75.5 801,-56.5 754,-56.5"/>
<text text-anchor="middle" x="777.5" y="-63.5" font-family="Helvetica,sans-Serif" font-size="10.00" fill="#000000">vector</text>
</g>
<!-- Node2&#45;&gt;Node8 -->
<g id="edge8" class="edge">
<title>Node2&#45;&gt;Node8</title>
<path fill="none" stroke="#191970" d="M355.3886,-113.0418C358.4668,-112.6813 361.5149,-112.3323 364.5,-112 530.2418,-93.5504 576.9407,-108.923 743.7632,-76.0108"/>
<polygon fill="#191970" stroke="#191970" points="744.7593,-79.3809 753.8775,-73.9858 743.385,-72.5171 744.7593,-79.3809"/>
</g>
<!-- Node9 -->
<g id="node10" class="node">
<title>Node9</title>
<polygon fill="none" stroke="#bfbfbf" points="454.5,-56.5 454.5,-75.5 512.5,-75.5 512.5,-56.5 454.5,-56.5"/>
<text text-anchor="middle" x="483.5" y="-63.5" font-family="Helvetica,sans-Serif" font-size="10.00" fill="#000000">memory</text>
</g>
<!-- Node2&#45;&gt;Node9 -->
<g id="edge9" class="edge">
<title>Node2&#45;&gt;Node9</title>
<path fill="none" stroke="#191970" d="M320.3655,-112.3733C354.8563,-102.5688 408.2772,-87.3831 444.5114,-77.0831"/>
<polygon fill="#191970" stroke="#191970" points="445.5837,-80.417 454.2455,-74.316 443.6696,-73.6837 445.5837,-80.417"/>
</g>
<!-- Node4 -->
<g id="node5" class="node">
<title>Node4</title>
<polygon fill="none" stroke="#bfbfbf" points="190.5,-.5 190.5,-19.5 234.5,-19.5 234.5,-.5 190.5,-.5"/>
<text text-anchor="middle" x="212.5" y="-7.5" font-family="Helvetica,sans-Serif" font-size="10.00" fill="#000000">string</text>
</g>
<!-- Node3&#45;&gt;Node4 -->
<g id="edge4" class="edge">
<title>Node3&#45;&gt;Node4</title>
<path fill="none" stroke="#191970" d="M331.7455,-56.3733C307.5021,-46.9453 270.4637,-32.5414 244.1045,-22.2906"/>
<polygon fill="#191970" stroke="#191970" points="245.1625,-18.9468 234.5739,-18.5843 242.6253,-25.4708 245.1625,-18.9468"/>
</g>
<!-- Node10&#45;&gt;Node2 -->
<g id="edge11" class="edge">
<title>Node10&#45;&gt;Node2</title>
<path fill="none" stroke="#191970" d="M457.0873,-168.3733C422.2395,-158.9001 368.9118,-144.4032 331.1707,-134.1435"/>
<polygon fill="#191970" stroke="#191970" points="332.0185,-130.747 321.4506,-131.5011 330.1822,-137.5019 332.0185,-130.747"/>
</g>
<!-- Node11 -->
<g id="node12" class="node">
<title>Node11</title>
<g id="a_node12"><a xlink:href="../../df/d29/Pass_8h.xhtml" target="_top" xlink:title="enfield/Transform/Pass.h">
<polygon fill="none" stroke="#000000" points="373.5,-112.5 373.5,-131.5 511.5,-131.5 511.5,-112.5 373.5,-112.5"/>
<text text-anchor="middle" x="442.5" y="-119.5" font-family="Helvetica,sans-Serif" font-size="10.00" fill="#000000">enfield/Transform/Pass.h</text>
</a>
</g>
</g>
<!-- Node10&#45;&gt;Node11 -->
<g id="edge12" class="edge">
<title>Node10&#45;&gt;Node11</title>
<path fill="none" stroke="#191970" d="M483.7907,-168.2455C476.6927,-160.2958 466.4916,-148.8706 458.005,-139.3656"/>
<polygon fill="#191970" stroke="#191970" points="460.3805,-136.771 451.1095,-131.6427 455.1589,-141.4331 460.3805,-136.771"/>
</g>
<!-- Node10&#45;&gt;Node12 -->
<g id="edge14" class="edge">
<title>Node10&#45;&gt;Node12</title>
<path fill="none" stroke="#191970" d="M507.1317,-168.2455C519.8994,-159.7337 538.6438,-147.2375 553.4299,-137.3801"/>
<polygon fill="#191970" stroke="#191970" points="555.6569,-140.1019 562.036,-131.6427 551.774,-134.2775 555.6569,-140.1019"/>
</g>
<!-- Node11&#45;&gt;Node9 -->
<g id="edge13" class="edge">
<title>Node11&#45;&gt;Node9</title>
<path fill="none" stroke="#191970" d="M449.6417,-112.2455C455.3444,-104.4564 463.49,-93.3308 470.3625,-83.9439"/>
<polygon fill="#191970" stroke="#191970" points="473.3568,-85.7789 476.4402,-75.6427 467.7087,-81.6437 473.3568,-85.7789"/>
</g>
<!-- Node13&#45;&gt;Node2 -->
<g id="edge16" class="edge">
<title>Node13&#45;&gt;Node2</title>
<path fill="none" stroke="#191970" d="M277.4161,-168.2455C278.8514,-160.9382 280.8636,-150.6944 282.6295,-141.7046"/>
<polygon fill="#191970" stroke="#191970" points="286.1127,-142.1298 284.6059,-131.6427 279.244,-140.7805 286.1127,-142.1298"/>
</g>
<!-- Node14&#45;&gt;Node2 -->
<g id="edge18" class="edge">
<title>Node14&#45;&gt;Node2</title>
<path fill="none" stroke="#191970" d="M105.9755,-168.3733C143.0103,-158.8598 199.7682,-144.2797 239.7361,-134.0127"/>
<polygon fill="#191970" stroke="#191970" points="240.6988,-137.3792 249.5135,-131.5011 238.9571,-130.5993 240.6988,-137.3792"/>
</g>
<!-- Node14&#45;&gt;Node4 -->
<g id="edge20" class="edge">
<title>Node14&#45;&gt;Node4</title>
<path fill="none" stroke="#191970" d="M67.0168,-168.4762C64.094,-146.0907 60.0602,-89.4961 87.5,-56 110.2091,-28.2788 151.23,-17.263 180.0711,-12.8858"/>
<polygon fill="#191970" stroke="#191970" points="180.6373,-16.3414 190.0893,-11.5549 179.7154,-9.4024 180.6373,-16.3414"/>
</g>
<!-- Node14&#45;&gt;Node7 -->
<g id="edge19" class="edge">
<title>Node14&#45;&gt;Node7</title>
<path fill="none" stroke="#191970" d="M73.445,-168.4509C83.0331,-149.936 104.3051,-108.8591 116.8064,-84.7187"/>
<polygon fill="#191970" stroke="#191970" points="120.0769,-86.0144 121.5675,-75.5249 113.8609,-82.7953 120.0769,-86.0144"/>
</g>
<!-- Node15&#45;&gt;Node5 -->
<g id="edge23" class="edge">
<title>Node15&#45;&gt;Node5</title>
<path fill="none" stroke="#191970" d="M699.1127,-168.4509C694.5253,-150.1013 684.3977,-109.5908 678.3423,-85.3693"/>
<polygon fill="#191970" stroke="#191970" points="681.7022,-84.3774 675.8812,-75.5249 674.9112,-86.0752 681.7022,-84.3774"/>
</g>
<!-- Node15&#45;&gt;Node9 -->
<g id="edge29" class="edge">
<title>Node15&#45;&gt;Node9</title>
<path fill="none" stroke="#191970" d="M694.057,-168.4757C682.4123,-154.1958 658.5108,-127.286 632.5,-112 598.1091,-91.7892 553.9469,-79.605 522.6542,-72.9031"/>
<polygon fill="#191970" stroke="#191970" points="523.0669,-69.4151 512.5679,-70.8368 521.662,-76.2726 523.0669,-69.4151"/>
</g>
<!-- Node15&#45;&gt;Node16 -->
<g id="edge24" class="edge">
<title>Node15&#45;&gt;Node16</title>
<path fill="none" stroke="#191970" d="M734.6779,-168.3733C767.0487,-158.9807 816.4398,-144.6496 851.7424,-134.4064"/>
<polygon fill="#191970" stroke="#191970" points="853.1265,-137.6492 861.7551,-131.5011 851.1758,-130.9264 853.1265,-137.6492"/>
</g>
<!-- Node20 -->
<g id="node21" class="node">
<title>Node20</title>
<polygon fill="none" stroke="#bfbfbf" points="718,-112.5 718,-131.5 775,-131.5 775,-112.5 718,-112.5"/>
<text text-anchor="middle" x="746.5" y="-119.5" font-family="Helvetica,sans-Serif" font-size="10.00" fill="#000000">typeinfo</text>
</g>
<!-- Node15&#45;&gt;Node20 -->
<g id="edge30" class="edge">
<title>Node15&#45;&gt;Node20</title>
<path fill="none" stroke="#191970" d="M709.3384,-168.2455C715.662,-160.3761 724.7224,-149.101 732.3136,-139.6542"/>
<polygon fill="#191970" stroke="#191970" points="735.2158,-141.6302 738.7514,-131.6427 729.7592,-137.2454 735.2158,-141.6302"/>
</g>
<!-- Node16&#45;&gt;Node8 -->
<g id="edge25" class="edge">
<title>Node16&#45;&gt;Node8</title>
<path fill="none" stroke="#191970" d="M874.387,-112.3733C855.6897,-103.4241 827.6256,-89.9917 806.5066,-79.8835"/>
<polygon fill="#191970" stroke="#191970" points="807.8817,-76.6614 797.3506,-75.5011 804.8595,-82.9755 807.8817,-76.6614"/>
</g>
<!-- Node17 -->
<g id="node18" class="node">
<title>Node17</title>
<polygon fill="none" stroke="#bfbfbf" points="819.5,-56.5 819.5,-75.5 869.5,-75.5 869.5,-56.5 819.5,-56.5"/>
<text text-anchor="middle" x="844.5" y="-63.5" font-family="Helvetica,sans-Serif" font-size="10.00" fill="#000000">cstdint</text>
</g>
<!-- Node16&#45;&gt;Node17 -->
<g id="edge26" class="edge">
<title>Node16&#45;&gt;Node17</title>
<path fill="none" stroke="#191970" d="M885.7907,-112.2455C878.6927,-104.2958 868.4916,-92.8706 860.005,-83.3656"/>
<polygon fill="#191970" stroke="#191970" points="862.3805,-80.771 853.1095,-75.6427 857.1589,-85.4331 862.3805,-80.771"/>
</g>
<!-- Node18 -->
<g id="node19" class="node">
<title>Node18</title>
<polygon fill="none" stroke="#bfbfbf" points="887.5,-56.5 887.5,-75.5 931.5,-75.5 931.5,-56.5 887.5,-56.5"/>
<text text-anchor="middle" x="909.5" y="-63.5" font-family="Helvetica,sans-Serif" font-size="10.00" fill="#000000">limits</text>
</g>
<!-- Node16&#45;&gt;Node18 -->
<g id="edge27" class="edge">
<title>Node16&#45;&gt;Node18</title>
<path fill="none" stroke="#191970" d="M897.1128,-112.2455C899.0916,-104.8579 901.8744,-94.4689 904.3012,-85.4087"/>
<polygon fill="#191970" stroke="#191970" points="907.7105,-86.2078 906.9171,-75.6427 900.9489,-84.3966 907.7105,-86.2078"/>
</g>
<!-- Node19 -->
<g id="node20" class="node">
<title>Node19</title>
<polygon fill="none" stroke="#bfbfbf" points="950,-56.5 950,-75.5 1007,-75.5 1007,-56.5 950,-56.5"/>
<text text-anchor="middle" x="978.5" y="-63.5" font-family="Helvetica,sans-Serif" font-size="10.00" fill="#000000">ostream</text>
</g>
<!-- Node16&#45;&gt;Node19 -->
<g id="edge28" class="edge">
<title>Node16&#45;&gt;Node19</title>
<path fill="none" stroke="#191970" d="M909.1317,-112.2455C921.8994,-103.7337 940.6438,-91.2375 955.4299,-81.3801"/>
<polygon fill="#191970" stroke="#191970" points="957.6569,-84.1019 964.036,-75.6427 953.774,-78.2775 957.6569,-84.1019"/>
</g>
</g>
</svg>
        <g id="navigator" transform="translate(0 0)" fill="#404254">
                <rect fill="#f2f5e9" fill-opacity="0.5" stroke="#606060" stroke-width=".5" x="0" y="0" width="60" height="60"/>
                <use id="zoomplus" xlink:href="#zoomPlus" x="17" y="9" onmousedown="handleZoom(evt,'in')"/>
                <use id="zoomminus" xlink:href="#zoomMin" x="42" y="9" onmousedown="handleZoom(evt,'out')"/>
                <use id="reset" xlink:href="#resetDef" x="30" y="36" onmousedown="handleReset()"/>
                <g id="arrowUp" xlink:href="#dirArrow" transform="translate(30 24)" onmousedown="handlePan(0,-1)">
                  <use xlink:href="#rim" fill="#404040">
                        <set attributeName="fill" to="#808080" begin="arrowUp.mouseover" end="arrowUp.mouseout"/>
                  </use>
                  <path fill="none" stroke="white" stroke-width="1.5" d="M0,-3.0v7 M-2.5,-0.5L0,-3.0L2.5,-0.5"/>
                </g>
                <g id="arrowRight" xlink:href="#dirArrow" transform="rotate(90) translate(36 -43)" onmousedown="handlePan(1,0)">
                  <use xlink:href="#rim" fill="#404040">
                        <set attributeName="fill" to="#808080" begin="arrowRight.mouseover" end="arrowRight.mouseout"/>
                  </use>
                  <path fill="none" stroke="white" stroke-width="1.5" d="M0,-3.0v7 M-2.5,-0.5L0,-3.0L2.5,-0.5"/>
                </g>
                <g id="arrowDown" xlink:href="#dirArrow" transform="rotate(180) translate(-30 -48)" onmousedown="handlePan(0,1)">
                  <use xlink:href="#rim" fill="#404040">
                        <set attributeName="fill" to="#808080" begin="arrowDown.mouseover" end="arrowDown.mouseout"/>
                  </use>
                  <path fill="none" stroke="white" stroke-width="1.5" d="M0,-3.0v7 M-2.5,-0.5L0,-3.0L2.5,-0.5"/>
                </g>
                <g id="arrowLeft" xlink:href="#dirArrow" transform="rotate(270) translate(-36 17)" onmousedown="handlePan(-1,0)">
                  <use xlink:href="#rim" fill="#404040">
                        <set attributeName="fill" to="#808080" begin="arrowLeft.mouseover" end="arrowLeft.mouseout"/>
                  </use>
                  <path fill="none" stroke="white" stroke-width="1.5" d="M0,-3.0v7 M-2.5,-0.5L0,-3.0L2.5,-0.5"/>
                </g>
        </g>
        <svg viewBox="0 0 15 15" width="100%" height="30px" preserveAspectRatio="xMaxYMin meet">
         <g id="arrow_out" transform="scale(0.3 0.3)">
          <a xlink:href="Utils_8cpp__incl_org.svg" target="_base">
           <rect id="button" ry="5" rx="5" y="6" x="6" height="38" width="38"
                fill="#f2f5e9" fill-opacity="0.5" stroke="#606060" stroke-width="1.0"/>
           <path id="arrow"
             d="M 11.500037,31.436501 C 11.940474,20.09759 22.043105,11.32322 32.158766,21.979434 L 37.068811,17.246167 C 37.068811,17.246167 37.088388,32 37.088388,32 L 22.160133,31.978069 C 22.160133,31.978069 26.997745,27.140456 26.997745,27.140456 C 18.528582,18.264221 13.291696,25.230495 11.500037,31.436501 z"
             style="fill:#404040;"/>
          </a>
         </g>
        </svg>
</svg>
