<?xml version="1.0" encoding="UTF-8" standalone="no"?>
<!DOCTYPE svg PUBLIC "-//W3C//DTD SVG 1.1//EN"
 "http://www.w3.org/Graphics/SVG/1.1/DTD/svg11.dtd">
<!-- Generated by graphviz version 2.38.0 (20140413.2041)
 -->
<!-- Title: efd::QModule::insertStatementLast Pages: 1 -->
<svg width="499pt" height="104pt"
 viewBox="0.00 0.00 499.00 104.00" xmlns="http://www.w3.org/2000/svg" xmlns:xlink="http://www.w3.org/1999/xlink">
<g id="graph0" class="graph" transform="scale(1 1) rotate(0) translate(4 100)">
<title>efd::QModule::insertStatementLast</title>
<!-- Node110 -->
<g id="node1" class="node"><title>Node110</title>
<polygon fill="#bfbfbf" stroke="black" points="0,-38.5 0,-57.5 169,-57.5 169,-38.5 0,-38.5"/>
<text text-anchor="middle" x="84.5" y="-45.5" font-family="Helvetica,sans-Serif" font-size="10.00">efd::QModule::insertStatementLast</text>
</g>
<!-- Node111 -->
<g id="node2" class="node"><title>Node111</title>
<g id="a_node2"><a xlink:href="../../da/ddd/classefd_1_1NDList.xhtml#a664c2f4a60746612062d7b112ff9842e" target="_top" xlink:title="Appends a child to the end of the list. ">
<polygon fill="none" stroke="black" points="221,-76.5 221,-95.5 332,-95.5 332,-76.5 221,-76.5"/>
<text text-anchor="middle" x="276.5" y="-83.5" font-family="Helvetica,sans-Serif" font-size="10.00">efd::NDList::addChild</text>
</a>
</g>
</g>
<!-- Node110&#45;&gt;Node111 -->
<g id="edge1" class="edge"><title>Node110&#45;&gt;Node111</title>
<path fill="none" stroke="midnightblue" d="M133.445,-57.589C159.082,-62.7165 190.836,-69.0672 217.816,-74.4632"/>
<polygon fill="midnightblue" stroke="midnightblue" points="217.408,-77.9507 227.9,-76.4799 218.78,-71.0867 217.408,-77.9507"/>
</g>
<!-- Node113 -->
<g id="node4" class="node"><title>Node113</title>
<g id="a_node4"><a xlink:href="../../d6/d6a/classefd_1_1Node.xhtml#ae890d36b0dcb332d82616b3180da1886" target="_top" xlink:title="Returns a iterator to the beginning of the vector. ">
<polygon fill="none" stroke="black" points="232,-38.5 232,-57.5 321,-57.5 321,-38.5 232,-38.5"/>
<text text-anchor="middle" x="276.5" y="-45.5" font-family="Helvetica,sans-Serif" font-size="10.00">efd::Node::begin</text>
</a>
</g>
</g>
<!-- Node110&#45;&gt;Node113 -->
<g id="edge3" class="edge"><title>Node110&#45;&gt;Node113</title>
<path fill="none" stroke="midnightblue" d="M169.113,-48C186.836,-48 205.095,-48 221.375,-48"/>
<polygon fill="midnightblue" stroke="midnightblue" points="221.762,-51.5001 231.762,-48 221.762,-44.5001 221.762,-51.5001"/>
</g>
<!-- Node114 -->
<g id="node5" class="node"><title>Node114</title>
<g id="a_node5"><a xlink:href="../../da/ddd/classefd_1_1NDList.xhtml#a7d1b691a45689241a8138539a2be8596" target="_top" xlink:title="Returns the number of childrem of this node. ">
<polygon fill="none" stroke="black" points="205,-0.5 205,-19.5 348,-19.5 348,-0.5 205,-0.5"/>
<text text-anchor="middle" x="276.5" y="-7.5" font-family="Helvetica,sans-Serif" font-size="10.00">efd::NDList::getChildNumber</text>
</a>
</g>
</g>
<!-- Node110&#45;&gt;Node114 -->
<g id="edge4" class="edge"><title>Node110&#45;&gt;Node114</title>
<path fill="none" stroke="midnightblue" d="M133.445,-38.411C159.082,-33.2835 190.836,-26.9328 217.816,-21.5368"/>
<polygon fill="midnightblue" stroke="midnightblue" points="218.78,-24.9133 227.9,-19.5201 217.408,-18.0493 218.78,-24.9133"/>
</g>
<!-- Node112 -->
<g id="node3" class="node"><title>Node112</title>
<g id="a_node3"><a xlink:href="../../d6/d6a/classefd_1_1Node.xhtml#a48e9d49d994b9023b8400316e2782e2b" target="_top" xlink:title="Sets the parent node of the current node. ">
<polygon fill="none" stroke="black" points="384,-76.5 384,-95.5 491,-95.5 491,-76.5 384,-76.5"/>
<text text-anchor="middle" x="437.5" y="-83.5" font-family="Helvetica,sans-Serif" font-size="10.00">efd::Node::setParent</text>
</a>
</g>
</g>
<!-- Node111&#45;&gt;Node112 -->
<g id="edge2" class="edge"><title>Node111&#45;&gt;Node112</title>
<path fill="none" stroke="midnightblue" d="M332.219,-86C345.533,-86 359.878,-86 373.541,-86"/>
<polygon fill="midnightblue" stroke="midnightblue" points="373.828,-89.5001 383.828,-86 373.828,-82.5001 373.828,-89.5001"/>
</g>
</g>
</svg>
