<?xml version="1.0" encoding="UTF-8" standalone="no"?>
<!DOCTYPE svg PUBLIC "-//W3C//DTD SVG 1.1//EN"
 "http://www.w3.org/Graphics/SVG/1.1/DTD/svg11.dtd">
<!-- Generated by graphviz version 2.38.0 (20140413.2041)
 -->
<!-- Title: efd::QModule::ParseString Pages: 1 -->
<svg width="777pt" height="230pt"
 viewBox="0.00 0.00 777.00 229.50" xmlns="http://www.w3.org/2000/svg" xmlns:xlink="http://www.w3.org/1999/xlink">
<g id="graph0" class="graph" transform="scale(1 1) rotate(0) translate(4 225.5)">
<title>efd::QModule::ParseString</title>
<!-- Node130 -->
<g id="node1" class="node"><title>Node130</title>
<polygon fill="#bfbfbf" stroke="black" points="0,-88 0,-107 132,-107 132,-88 0,-88"/>
<text text-anchor="middle" x="66" y="-95" font-family="Helvetica,sans-Serif" font-size="10.00">efd::QModule::ParseString</text>
</g>
<!-- Node131 -->
<g id="node2" class="node"><title>Node131</title>
<g id="a_node2"><a xlink:href="../../dd/d52/classefd_1_1QModule.xhtml#a1acae6e0a197d578c8e5987863443dd7" target="_top" xlink:title="Process the AST in order to obtain the QModule. ">
<polygon fill="none" stroke="black" points="168,-107 168,-126 307,-126 307,-107 168,-107"/>
<text text-anchor="middle" x="237.5" y="-114" font-family="Helvetica,sans-Serif" font-size="10.00">efd::QModule::GetFromAST</text>
</a>
</g>
</g>
<!-- Node130&#45;&gt;Node131 -->
<g id="edge1" class="edge"><title>Node130&#45;&gt;Node131</title>
<path fill="none" stroke="midnightblue" d="M132.048,-104.792C140.503,-105.739 149.235,-106.718 157.881,-107.687"/>
<polygon fill="midnightblue" stroke="midnightblue" points="157.642,-111.182 167.97,-108.818 158.422,-104.226 157.642,-111.182"/>
</g>
<!-- Node143 -->
<g id="node14" class="node"><title>Node143</title>
<g id="a_node14"><a xlink:href="../../d4/deb/namespaceefd.xhtml#a93709641ce1593c2f8143206beb0a699" target="_top" xlink:title="Parse the string program. ">
<polygon fill="none" stroke="black" points="194,-69 194,-88 281,-88 281,-69 194,-69"/>
<text text-anchor="middle" x="237.5" y="-76" font-family="Helvetica,sans-Serif" font-size="10.00">efd::ParseString</text>
</a>
</g>
</g>
<!-- Node130&#45;&gt;Node143 -->
<g id="edge13" class="edge"><title>Node130&#45;&gt;Node143</title>
<path fill="none" stroke="midnightblue" d="M132.048,-90.2084C149.212,-88.2845 167.517,-86.2326 183.93,-84.3928"/>
<polygon fill="midnightblue" stroke="midnightblue" points="184.331,-87.8699 193.878,-83.2776 183.551,-80.9135 184.331,-87.8699"/>
</g>
<!-- Node132 -->
<g id="node3" class="node"><title>Node132</title>
<g id="a_node3"><a xlink:href="../../d4/deb/namespaceefd.xhtml#a194305909125a1398a1f0e00fbae1cf5" target="_top" xlink:title="Returns a vector with the intrinsic gates implementation. ">
<polygon fill="none" stroke="black" points="349.5,-164 349.5,-183 462.5,-183 462.5,-164 349.5,-164"/>
<text text-anchor="middle" x="406" y="-171" font-family="Helvetica,sans-Serif" font-size="10.00">efd::GetIntrinsicGates</text>
</a>
</g>
</g>
<!-- Node131&#45;&gt;Node132 -->
<g id="edge2" class="edge"><title>Node131&#45;&gt;Node132</title>
<path fill="none" stroke="midnightblue" d="M266.368,-126.041C294.102,-135.535 336.842,-150.167 367.534,-160.674"/>
<polygon fill="midnightblue" stroke="midnightblue" points="366.446,-164.001 377.041,-163.928 368.713,-157.378 366.446,-164.001"/>
</g>
<!-- Node136 -->
<g id="node7" class="node"><title>Node136</title>
<g id="a_node7"><a xlink:href="../../dd/d52/classefd_1_1QModule.xhtml#a7a0b91ad23bdaf49e197692f453808b8" target="_top" xlink:title="Inserts a gate to the QModule. ">
<polygon fill="none" stroke="black" points="343,-107 343,-126 469,-126 469,-107 343,-107"/>
<text text-anchor="middle" x="406" y="-114" font-family="Helvetica,sans-Serif" font-size="10.00">efd::QModule::insertGate</text>
</a>
</g>
</g>
<!-- Node131&#45;&gt;Node136 -->
<g id="edge6" class="edge"><title>Node131&#45;&gt;Node136</title>
<path fill="none" stroke="midnightblue" d="M307.183,-116.5C315.59,-116.5 324.201,-116.5 332.659,-116.5"/>
<polygon fill="midnightblue" stroke="midnightblue" points="332.876,-120 342.876,-116.5 332.876,-113 332.876,-120"/>
</g>
<!-- Node140 -->
<g id="node11" class="node"><title>Node140</title>
<g id="a_node11"><a xlink:href="../../d4/deb/namespaceefd.xhtml#a5b8442e2de32a9529d7a4fcd5829ef62" target="_top" xlink:title="Processes the root node, and transform the entire AST into a QModule. ">
<polygon fill="none" stroke="black" points="360,-50 360,-69 452,-69 452,-50 360,-50"/>
<text text-anchor="middle" x="406" y="-57" font-family="Helvetica,sans-Serif" font-size="10.00">efd::ProcessAST</text>
</a>
</g>
</g>
<!-- Node131&#45;&gt;Node140 -->
<g id="edge10" class="edge"><title>Node131&#45;&gt;Node140</title>
<path fill="none" stroke="midnightblue" d="M275.675,-106.912C285.89,-104.082 296.926,-100.841 307,-97.5 329.272,-90.1135 353.895,-80.5602 372.888,-72.8803"/>
<polygon fill="midnightblue" stroke="midnightblue" points="374.326,-76.0735 382.264,-69.0564 371.683,-69.5917 374.326,-76.0735"/>
</g>
<!-- Node133 -->
<g id="node4" class="node"><title>Node133</title>
<g id="a_node4"><a xlink:href="../../d6/d6a/classefd_1_1Node.xhtml#a6c85c9bd21014b73497de741cc75f706" target="_top" xlink:title="Clones the current node (deep copy). ">
<polygon fill="none" stroke="black" points="521,-202 521,-221 610,-221 610,-202 521,-202"/>
<text text-anchor="middle" x="565.5" y="-209" font-family="Helvetica,sans-Serif" font-size="10.00">efd::Node::clone</text>
</a>
</g>
</g>
<!-- Node132&#45;&gt;Node133 -->
<g id="edge3" class="edge"><title>Node132&#45;&gt;Node133</title>
<path fill="none" stroke="midnightblue" d="M446.744,-183.089C467.528,-188.104 493.161,-194.288 515.199,-199.605"/>
<polygon fill="midnightblue" stroke="midnightblue" points="514.5,-203.037 525.042,-201.98 516.142,-196.232 514.5,-203.037"/>
</g>
<!-- Node135 -->
<g id="node6" class="node"><title>Node135</title>
<g id="a_node6"><a xlink:href="../../d4/deb/namespaceefd.xhtml#ad7adca0e4de58074aa3f91827469a491" target="_top" xlink:title="Uses the RTTI framework to cast forwardly an unique_ptr. ">
<polygon fill="none" stroke="black" points="505,-164 505,-183 626,-183 626,-164 505,-164"/>
<text text-anchor="middle" x="565.5" y="-171" font-family="Helvetica,sans-Serif" font-size="10.00">efd::uniqueCastForward</text>
</a>
</g>
</g>
<!-- Node132&#45;&gt;Node135 -->
<g id="edge5" class="edge"><title>Node132&#45;&gt;Node135</title>
<path fill="none" stroke="midnightblue" d="M462.529,-173.5C472.932,-173.5 483.928,-173.5 494.699,-173.5"/>
<polygon fill="midnightblue" stroke="midnightblue" points="494.929,-177 504.929,-173.5 494.929,-170 494.929,-177"/>
</g>
<!-- Node134 -->
<g id="node5" class="node"><title>Node134</title>
<g id="a_node5"><a xlink:href="../../d6/d6a/classefd_1_1Node.xhtml#ac078ce64eb404cfdc24b9288908536e4" target="_top" xlink:title="Clones the current node (deep copy). ">
<polygon fill="none" stroke="black" points="662,-202 662,-221 769,-221 769,-202 662,-202"/>
<text text-anchor="middle" x="715.5" y="-209" font-family="Helvetica,sans-Serif" font-size="10.00">efd::Node::cloneImpl</text>
</a>
</g>
</g>
<!-- Node133&#45;&gt;Node134 -->
<g id="edge4" class="edge"><title>Node133&#45;&gt;Node134</title>
<path fill="none" stroke="midnightblue" d="M610.104,-211.5C623.141,-211.5 637.701,-211.5 651.711,-211.5"/>
<polygon fill="midnightblue" stroke="midnightblue" points="651.787,-215 661.787,-211.5 651.787,-208 651.787,-215"/>
</g>
<!-- Node137 -->
<g id="node8" class="node"><title>Node137</title>
<g id="a_node8"><a xlink:href="../../d0/d9e/classefd_1_1NDDecl.xhtml#a34957c2122c38cebf80a264d5fa3863f" target="_top" xlink:title="Gets the id node. ">
<polygon fill="none" stroke="black" points="516,-126 516,-145 615,-145 615,-126 516,-126"/>
<text text-anchor="middle" x="565.5" y="-133" font-family="Helvetica,sans-Serif" font-size="10.00">efd::NDDecl::getId</text>
</a>
</g>
</g>
<!-- Node136&#45;&gt;Node137 -->
<g id="edge7" class="edge"><title>Node136&#45;&gt;Node137</title>
<path fill="none" stroke="midnightblue" d="M469.248,-124.009C481.219,-125.453 493.722,-126.962 505.583,-128.393"/>
<polygon fill="midnightblue" stroke="midnightblue" points="505.465,-131.904 515.812,-129.627 506.303,-124.954 505.465,-131.904"/>
</g>
<!-- Node139 -->
<g id="node10" class="node"><title>Node139</title>
<g id="a_node10"><a xlink:href="../../df/d1b/classefd_1_1NDValue.xhtml#a53ee724a8db3429bf30bb1936ad548b2" target="_top" xlink:title="Returns a copy to the setted value. ">
<polygon fill="none" stroke="black" points="510.5,-88 510.5,-107 620.5,-107 620.5,-88 510.5,-88"/>
<text text-anchor="middle" x="565.5" y="-95" font-family="Helvetica,sans-Serif" font-size="10.00">efd::NDValue::getVal</text>
</a>
</g>
</g>
<!-- Node136&#45;&gt;Node139 -->
<g id="edge9" class="edge"><title>Node136&#45;&gt;Node139</title>
<path fill="none" stroke="midnightblue" d="M469.248,-108.991C479.437,-107.762 490.012,-106.486 500.249,-105.251"/>
<polygon fill="midnightblue" stroke="midnightblue" points="500.837,-108.705 510.346,-104.033 499.998,-101.756 500.837,-108.705"/>
</g>
<!-- Node138 -->
<g id="node9" class="node"><title>Node138</title>
<g id="a_node9"><a xlink:href="../../d4/deb/namespaceefd.xhtml#a2cef687225e13315fc282dc40b5a6909" target="_top" xlink:title="Returns src cast to TargetTy, iff it is of class TargetTy, otherwise it will return nullptr...">
<polygon fill="none" stroke="black" points="679,-126 679,-145 752,-145 752,-126 679,-126"/>
<text text-anchor="middle" x="715.5" y="-133" font-family="Helvetica,sans-Serif" font-size="10.00">efd::dynCast</text>
</a>
</g>
</g>
<!-- Node137&#45;&gt;Node138 -->
<g id="edge8" class="edge"><title>Node137&#45;&gt;Node138</title>
<path fill="none" stroke="midnightblue" d="M615.371,-135.5C632.524,-135.5 651.72,-135.5 668.619,-135.5"/>
<polygon fill="midnightblue" stroke="midnightblue" points="668.805,-139 678.805,-135.5 668.804,-132 668.805,-139"/>
</g>
<!-- Node141 -->
<g id="node12" class="node"><title>Node141</title>
<g id="a_node12"><a xlink:href="../../d6/d6a/classefd_1_1Node.xhtml#ab813c60af1717cf50e92a28b274c24ef" target="_top" xlink:title="Used by visitor classes. ">
<polygon fill="none" stroke="black" points="521,-50 521,-69 610,-69 610,-50 521,-50"/>
<text text-anchor="middle" x="565.5" y="-57" font-family="Helvetica,sans-Serif" font-size="10.00">efd::Node::apply</text>
</a>
</g>
</g>
<!-- Node140&#45;&gt;Node141 -->
<g id="edge11" class="edge"><title>Node140&#45;&gt;Node141</title>
<path fill="none" stroke="midnightblue" d="M452.133,-59.5C470.472,-59.5 491.804,-59.5 510.924,-59.5"/>
<polygon fill="midnightblue" stroke="midnightblue" points="510.988,-63.0001 520.988,-59.5 510.988,-56.0001 510.988,-63.0001"/>
</g>
<!-- Node142 -->
<g id="node13" class="node"><title>Node142</title>
<g id="a_node13"><a xlink:href="../../de/d71/classefd_1_1QModulefyVisitor.xhtml#abb023fa145e1e3b6c9f55493781ea874" target="_top" xlink:title="efd::QModulefyVisitor\l::QModulefyVisitor">
<polygon fill="none" stroke="black" points="510,-0.5 510,-30.5 621,-30.5 621,-0.5 510,-0.5"/>
<text text-anchor="start" x="518" y="-18.5" font-family="Helvetica,sans-Serif" font-size="10.00">efd::QModulefyVisitor</text>
<text text-anchor="middle" x="565.5" y="-7.5" font-family="Helvetica,sans-Serif" font-size="10.00">::QModulefyVisitor</text>
</a>
</g>
</g>
<!-- Node140&#45;&gt;Node142 -->
<g id="edge12" class="edge"><title>Node140&#45;&gt;Node142</title>
<path fill="none" stroke="midnightblue" d="M441.175,-49.9527C458.591,-45.0872 480.344,-39.0102 500.711,-33.3204"/>
<polygon fill="midnightblue" stroke="midnightblue" points="501.883,-36.627 510.573,-30.5654 500,-29.8851 501.883,-36.627"/>
</g>
</g>
</svg>
