<?xml version="1.0" encoding="UTF-8" standalone="no"?>
<!DOCTYPE svg PUBLIC "-//W3C//DTD SVG 1.1//EN"
 "http://www.w3.org/Graphics/SVG/1.1/DTD/svg11.dtd">
<!-- Generated by graphviz version 2.38.0 (20140413.2041)
 -->
<!-- Title: efd::QModule::insertGate Pages: 1 -->
<svg width="389pt" height="66pt"
 viewBox="0.00 0.00 389.00 66.00" xmlns="http://www.w3.org/2000/svg" xmlns:xlink="http://www.w3.org/1999/xlink">
<g id="graph0" class="graph" transform="scale(1 1) rotate(0) translate(4 62)">
<title>efd::QModule::insertGate</title>
<!-- Node91 -->
<g id="node1" class="node"><title>Node91</title>
<polygon fill="#bfbfbf" stroke="black" points="0,-19.5 0,-38.5 126,-38.5 126,-19.5 0,-19.5"/>
<text text-anchor="middle" x="63" y="-26.5" font-family="Helvetica,sans-Serif" font-size="10.00">efd::QModule::insertGate</text>
</g>
<!-- Node92 -->
<g id="node2" class="node"><title>Node92</title>
<g id="a_node2"><a xlink:href="../../d0/d9e/classefd_1_1NDDecl.xhtml#a34957c2122c38cebf80a264d5fa3863f" target="_top" xlink:title="Gets the id node. ">
<polygon fill="none" stroke="black" points="167.5,-38.5 167.5,-57.5 266.5,-57.5 266.5,-38.5 167.5,-38.5"/>
<text text-anchor="middle" x="217" y="-45.5" font-family="Helvetica,sans-Serif" font-size="10.00">efd::NDDecl::getId</text>
</a>
</g>
</g>
<!-- Node91&#45;&gt;Node92 -->
<g id="edge1" class="edge"><title>Node91&#45;&gt;Node92</title>
<path fill="none" stroke="midnightblue" d="M126.263,-36.7828C136.47,-38.0588 147.019,-39.3774 157.141,-40.6426"/>
<polygon fill="midnightblue" stroke="midnightblue" points="156.734,-44.1189 167.091,-41.8864 157.602,-37.1729 156.734,-44.1189"/>
</g>
<!-- Node94 -->
<g id="node4" class="node"><title>Node94</title>
<g id="a_node4"><a xlink:href="../../df/d1b/classefd_1_1NDValue.xhtml#a53ee724a8db3429bf30bb1936ad548b2" target="_top" xlink:title="Returns a copy to the setted value. ">
<polygon fill="none" stroke="black" points="162,-0.5 162,-19.5 272,-19.5 272,-0.5 162,-0.5"/>
<text text-anchor="middle" x="217" y="-7.5" font-family="Helvetica,sans-Serif" font-size="10.00">efd::NDValue::getVal</text>
</a>
</g>
</g>
<!-- Node91&#45;&gt;Node94 -->
<g id="edge3" class="edge"><title>Node91&#45;&gt;Node94</title>
<path fill="none" stroke="midnightblue" d="M126.263,-21.2172C134.656,-20.168 143.281,-19.0899 151.708,-18.0364"/>
<polygon fill="midnightblue" stroke="midnightblue" points="152.373,-21.4807 161.862,-16.7672 151.505,-14.5347 152.373,-21.4807"/>
</g>
<!-- Node93 -->
<g id="node3" class="node"><title>Node93</title>
<g id="a_node3"><a xlink:href="../../d4/deb/namespaceefd.xhtml#a2cef687225e13315fc282dc40b5a6909" target="_top" xlink:title="Returns src cast to TargetTy, iff it is of class TargetTy, otherwise it will return nullptr...">
<polygon fill="none" stroke="black" points="308,-38.5 308,-57.5 381,-57.5 381,-38.5 308,-38.5"/>
<text text-anchor="middle" x="344.5" y="-45.5" font-family="Helvetica,sans-Serif" font-size="10.00">efd::dynCast</text>
</a>
</g>
</g>
<!-- Node92&#45;&gt;Node93 -->
<g id="edge2" class="edge"><title>Node92&#45;&gt;Node93</title>
<path fill="none" stroke="midnightblue" d="M266.522,-48C276.76,-48 287.532,-48 297.668,-48"/>
<polygon fill="midnightblue" stroke="midnightblue" points="297.951,-51.5001 307.951,-48 297.951,-44.5001 297.951,-51.5001"/>
</g>
</g>
</svg>
