<?xml version="1.0" encoding="UTF-8" standalone="no"?>
<!DOCTYPE svg PUBLIC "-//W3C//DTD SVG 1.1//EN"
 "http://www.w3.org/Graphics/SVG/1.1/DTD/svg11.dtd">
<!-- Generated by graphviz version 2.38.0 (20140413.2041)
 -->
<!-- Title: efd::QModule::inlineCall Pages: 1 -->
<svg width="785pt" height="829pt"
 viewBox="0.00 0.00 785.00 829.17" xmlns="http://www.w3.org/2000/svg" xmlns:xlink="http://www.w3.org/1999/xlink">
<g id="graph0" class="graph" transform="scale(1 1) rotate(0) translate(4 825.166)">
<title>efd::QModule::inlineCall</title>
<!-- Node59 -->
<g id="node1" class="node"><title>Node59</title>
<polygon fill="#bfbfbf" stroke="black" points="0,-506.666 0,-525.666 121,-525.666 121,-506.666 0,-506.666"/>
<text text-anchor="middle" x="60.5" y="-513.666" font-family="Helvetica,sans-Serif" font-size="10.00">efd::QModule::inlineCall</text>
</g>
<!-- Node60 -->
<g id="node2" class="node"><title>Node60</title>
<g id="a_node2"><a xlink:href="../../d6/d6a/classefd_1_1Node.xhtml#ae890d36b0dcb332d82616b3180da1886" target="_top" xlink:title="Returns a iterator to the beginning of the vector. ">
<polygon fill="none" stroke="black" points="172,-801.666 172,-820.666 261,-820.666 261,-801.666 172,-801.666"/>
<text text-anchor="middle" x="216.5" y="-808.666" font-family="Helvetica,sans-Serif" font-size="10.00">efd::Node::begin</text>
</a>
</g>
</g>
<!-- Node59&#45;&gt;Node60 -->
<g id="edge1" class="edge"><title>Node59&#45;&gt;Node60</title>
<path fill="none" stroke="midnightblue" d="M62.1278,-525.755C65.1301,-564.005 81.2103,-707.448 157,-787.166 160.641,-790.996 164.982,-794.234 169.63,-796.968"/>
<polygon fill="midnightblue" stroke="midnightblue" points="168.341,-800.238 178.844,-801.625 171.499,-793.99 168.341,-800.238"/>
</g>
<!-- Node61 -->
<g id="node3" class="node"><title>Node61</title>
<g id="a_node3"><a xlink:href="../../d6/d6a/classefd_1_1Node.xhtml#ae80bbf9487f0e43317c29c63a414ff34" target="_top" xlink:title="Returns a iterator pointing to the given child. ">
<polygon fill="none" stroke="black" points="518,-763.666 518,-782.666 622,-782.666 622,-763.666 518,-763.666"/>
<text text-anchor="middle" x="570" y="-770.666" font-family="Helvetica,sans-Serif" font-size="10.00">efd::Node::findChild</text>
</a>
</g>
</g>
<!-- Node59&#45;&gt;Node61 -->
<g id="edge2" class="edge"><title>Node59&#45;&gt;Node61</title>
<path fill="none" stroke="midnightblue" d="M65.5087,-525.865C76.6286,-551.803 110.159,-623.807 157,-668.166 214.202,-722.337 236.511,-731.625 312,-754.166 376.706,-773.487 454.451,-776.63 507.366,-775.955"/>
<polygon fill="midnightblue" stroke="midnightblue" points="507.671,-779.45 517.607,-775.772 507.546,-772.451 507.671,-779.45"/>
</g>
<!-- Node62 -->
<g id="node4" class="node"><title>Node62</title>
<g id="a_node4"><a xlink:href="../../d6/d6a/classefd_1_1Node.xhtml#a7df493996977432aee05df57ae6dc375" target="_top" xlink:title="Returns the parent node of the current node. ">
<polygon fill="none" stroke="black" points="337.5,-725.666 337.5,-744.666 444.5,-744.666 444.5,-725.666 337.5,-725.666"/>
<text text-anchor="middle" x="391" y="-732.666" font-family="Helvetica,sans-Serif" font-size="10.00">efd::Node::getParent</text>
</a>
</g>
</g>
<!-- Node59&#45;&gt;Node62 -->
<g id="edge3" class="edge"><title>Node59&#45;&gt;Node62</title>
<path fill="none" stroke="midnightblue" d="M70.4531,-525.855C100.91,-558.209 204.596,-663.439 312,-716.166 316.926,-718.584 322.183,-720.708 327.55,-722.571"/>
<polygon fill="midnightblue" stroke="midnightblue" points="326.697,-725.972 337.287,-725.649 328.807,-719.297 326.697,-725.972"/>
</g>
<!-- Node63 -->
<g id="node5" class="node"><title>Node63</title>
<g id="a_node5"><a xlink:href="../../d4/deb/namespaceefd.xhtml#acd4cde60c75b526798dab375aa82125c" target="_top" xlink:title="If found, inlines the gate that qop calls. ">
<polygon fill="none" stroke="black" points="176.5,-421.666 176.5,-440.666 256.5,-440.666 256.5,-421.666 176.5,-421.666"/>
<text text-anchor="middle" x="216.5" y="-428.666" font-family="Helvetica,sans-Serif" font-size="10.00">efd::InlineGate</text>
</a>
</g>
</g>
<!-- Node59&#45;&gt;Node63 -->
<g id="edge4" class="edge"><title>Node59&#45;&gt;Node63</title>
<path fill="none" stroke="midnightblue" d="M78.8664,-506.58C105.67,-491.786 157.316,-463.28 188.865,-445.867"/>
<polygon fill="midnightblue" stroke="midnightblue" points="190.897,-448.743 197.961,-440.846 187.515,-442.614 190.897,-448.743"/>
</g>
<!-- Node89 -->
<g id="node31" class="node"><title>Node89</title>
<g id="a_node31"><a xlink:href="../../d4/deb/namespaceefd.xhtml#a3fd26bc2a0a0c6d9948d0d3cef2e1515" target="_top" xlink:title="Returns true if the pointer src is of class TargetTy. ">
<polygon fill="none" stroke="black" points="175,-383.666 175,-402.666 258,-402.666 258,-383.666 175,-383.666"/>
<text text-anchor="middle" x="216.5" y="-390.666" font-family="Helvetica,sans-Serif" font-size="10.00">efd::instanceOf</text>
</a>
</g>
</g>
<!-- Node59&#45;&gt;Node89 -->
<g id="edge39" class="edge"><title>Node59&#45;&gt;Node89</title>
<path fill="none" stroke="midnightblue" d="M67.6965,-506.609C81.3675,-486.266 116.164,-438.398 157,-412.166 160.15,-410.142 163.535,-408.316 167.031,-406.672"/>
<polygon fill="midnightblue" stroke="midnightblue" points="168.581,-409.818 176.459,-402.733 165.883,-403.359 168.581,-409.818"/>
</g>
<!-- Node90 -->
<g id="node32" class="node"><title>Node90</title>
<g id="a_node32"><a xlink:href="../../dd/d94/classefd_1_1NDQOp.xhtml#a8700a0eb5ff3cee0e3b52c56f3cc2b3c" target="_top" xlink:title="Returns true if this is a generic node. ">
<polygon fill="none" stroke="black" points="157,-168.666 157,-187.666 276,-187.666 276,-168.666 157,-168.666"/>
<text text-anchor="middle" x="216.5" y="-175.666" font-family="Helvetica,sans-Serif" font-size="10.00">efd::NDQOp::isGeneric</text>
</a>
</g>
</g>
<!-- Node59&#45;&gt;Node90 -->
<g id="edge40" class="edge"><title>Node59&#45;&gt;Node90</title>
<path fill="none" stroke="midnightblue" d="M65.9428,-506.414C87.1517,-459.865 178.248,-259.925 206.864,-197.12"/>
<polygon fill="midnightblue" stroke="midnightblue" points="210.078,-198.508 211.039,-187.956 203.708,-195.605 210.078,-198.508"/>
</g>
<!-- Node63&#45;&gt;Node62 -->
<g id="edge19" class="edge"><title>Node63&#45;&gt;Node62</title>
<path fill="none" stroke="midnightblue" d="M221.482,-440.985C231.374,-465.552 257.592,-531.754 276,-588.166 294.333,-644.346 269.483,-675.121 312,-716.166 316.606,-720.612 322.071,-724.075 327.938,-726.764"/>
<polygon fill="midnightblue" stroke="midnightblue" points="326.832,-730.088 337.423,-730.382 329.327,-723.548 326.832,-730.088"/>
</g>
<!-- Node64 -->
<g id="node6" class="node"><title>Node64</title>
<g id="a_node6"><a xlink:href="../../d6/d6a/classefd_1_1Node.xhtml#ab813c60af1717cf50e92a28b274c24ef" target="_top" xlink:title="Used by visitor classes. ">
<polygon fill="none" stroke="black" points="346.5,-573.666 346.5,-592.666 435.5,-592.666 435.5,-573.666 346.5,-573.666"/>
<text text-anchor="middle" x="391" y="-580.666" font-family="Helvetica,sans-Serif" font-size="10.00">efd::Node::apply</text>
</a>
</g>
</g>
<!-- Node63&#45;&gt;Node64 -->
<g id="edge5" class="edge"><title>Node63&#45;&gt;Node64</title>
<path fill="none" stroke="midnightblue" d="M221.535,-441.017C232.255,-465.892 263.944,-531.571 312,-564.166 319.375,-569.168 327.932,-572.857 336.619,-575.576"/>
<polygon fill="midnightblue" stroke="midnightblue" points="335.86,-578.996 346.428,-578.252 337.702,-572.243 335.86,-578.996"/>
</g>
<!-- Node65 -->
<g id="node7" class="node"><title>Node65</title>
<g id="a_node7"><a xlink:href="../../d6/d6a/classefd_1_1Node.xhtml#a6c85c9bd21014b73497de741cc75f706" target="_top" xlink:title="Clones the current node (deep copy). ">
<polygon fill="none" stroke="black" points="346.5,-535.666 346.5,-554.666 435.5,-554.666 435.5,-535.666 346.5,-535.666"/>
<text text-anchor="middle" x="391" y="-542.666" font-family="Helvetica,sans-Serif" font-size="10.00">efd::Node::clone</text>
</a>
</g>
</g>
<!-- Node63&#45;&gt;Node65 -->
<g id="edge6" class="edge"><title>Node63&#45;&gt;Node65</title>
<path fill="none" stroke="midnightblue" d="M224.997,-440.82C239.717,-459.137 274.267,-499.07 312,-521.166 319.639,-525.639 328.196,-529.359 336.768,-532.426"/>
<polygon fill="midnightblue" stroke="midnightblue" points="335.81,-535.796 346.404,-535.617 338.011,-529.15 335.81,-535.796"/>
</g>
<!-- Node67 -->
<g id="node9" class="node"><title>Node67</title>
<g id="a_node9"><a xlink:href="../../d4/deb/namespaceefd.xhtml#a2cef687225e13315fc282dc40b5a6909" target="_top" xlink:title="Returns src cast to TargetTy, iff it is of class TargetTy, otherwise it will return nullptr...">
<polygon fill="none" stroke="black" points="533.5,-307.666 533.5,-326.666 606.5,-326.666 606.5,-307.666 533.5,-307.666"/>
<text text-anchor="middle" x="570" y="-314.666" font-family="Helvetica,sans-Serif" font-size="10.00">efd::dynCast</text>
</a>
</g>
</g>
<!-- Node63&#45;&gt;Node67 -->
<g id="edge8" class="edge"><title>Node63&#45;&gt;Node67</title>
<path fill="none" stroke="midnightblue" d="M228.756,-440.81C245.553,-454.497 278.775,-478.921 312,-488.166 379.652,-506.989 409.165,-523.24 470,-488.166 527.366,-455.091 554.508,-374.671 564.39,-337.11"/>
<polygon fill="midnightblue" stroke="midnightblue" points="567.905,-337.478 566.917,-326.929 561.111,-335.792 567.905,-337.478"/>
</g>
<!-- Node68 -->
<g id="node10" class="node"><title>Node68</title>
<g id="a_node10"><a xlink:href="../../db/d1f/classefd_1_1NDGateSign.xhtml#a0be5984f118128bc3e2bf64a8a390071" target="_top" xlink:title="Gets the args node. ">
<polygon fill="none" stroke="black" points="325.5,-459.666 325.5,-478.666 456.5,-478.666 456.5,-459.666 325.5,-459.666"/>
<text text-anchor="middle" x="391" y="-466.666" font-family="Helvetica,sans-Serif" font-size="10.00">efd::NDGateSign::getArgs</text>
</a>
</g>
</g>
<!-- Node63&#45;&gt;Node68 -->
<g id="edge9" class="edge"><title>Node63&#45;&gt;Node68</title>
<path fill="none" stroke="midnightblue" d="M256.643,-439.788C280.337,-445.008 310.872,-451.735 336.744,-457.434"/>
<polygon fill="midnightblue" stroke="midnightblue" points="336.255,-460.91 346.774,-459.643 337.761,-454.074 336.255,-460.91"/>
</g>
<!-- Node69 -->
<g id="node11" class="node"><title>Node69</title>
<g id="a_node11"><a xlink:href="../../dd/d94/classefd_1_1NDQOp.xhtml#a38dbbb3a5ca8faaeb9973512f04c6f64" target="_top" xlink:title="Gets the arguments. ">
<polygon fill="none" stroke="black" points="335.5,-421.666 335.5,-440.666 446.5,-440.666 446.5,-421.666 335.5,-421.666"/>
<text text-anchor="middle" x="391" y="-428.666" font-family="Helvetica,sans-Serif" font-size="10.00">efd::NDQOp::getArgs</text>
</a>
</g>
</g>
<!-- Node63&#45;&gt;Node69 -->
<g id="edge11" class="edge"><title>Node63&#45;&gt;Node69</title>
<path fill="none" stroke="midnightblue" d="M256.643,-431.166C276.905,-431.166 302.17,-431.166 325.244,-431.166"/>
<polygon fill="midnightblue" stroke="midnightblue" points="325.32,-434.666 335.32,-431.166 325.32,-427.666 325.32,-434.666"/>
</g>
<!-- Node70 -->
<g id="node12" class="node"><title>Node70</title>
<g id="a_node12"><a xlink:href="../../d6/d6a/classefd_1_1Node.xhtml#a63e30243eca03b0c85d8c4856e91c79d" target="_top" xlink:title="Gets the i&#45;th child. ">
<polygon fill="none" stroke="black" points="340.5,-383.666 340.5,-402.666 441.5,-402.666 441.5,-383.666 340.5,-383.666"/>
<text text-anchor="middle" x="391" y="-390.666" font-family="Helvetica,sans-Serif" font-size="10.00">efd::Node::getChild</text>
</a>
</g>
</g>
<!-- Node63&#45;&gt;Node70 -->
<g id="edge13" class="edge"><title>Node63&#45;&gt;Node70</title>
<path fill="none" stroke="midnightblue" d="M256.643,-422.543C280.337,-417.323 310.872,-410.597 336.744,-404.897"/>
<polygon fill="midnightblue" stroke="midnightblue" points="337.761,-408.257 346.774,-402.688 336.255,-401.421 337.761,-408.257"/>
</g>
<!-- Node71 -->
<g id="node13" class="node"><title>Node71</title>
<g id="a_node13"><a xlink:href="../../d6/d6a/classefd_1_1Node.xhtml#a11df06f4d8e590426340024cbb2db23e" target="_top" xlink:title="Returns the number of childrem of this node. ">
<polygon fill="none" stroke="black" points="323,-345.666 323,-364.666 459,-364.666 459,-345.666 323,-345.666"/>
<text text-anchor="middle" x="391" y="-352.666" font-family="Helvetica,sans-Serif" font-size="10.00">efd::Node::getChildNumber</text>
</a>
</g>
</g>
<!-- Node63&#45;&gt;Node71 -->
<g id="edge14" class="edge"><title>Node63&#45;&gt;Node71</title>
<path fill="none" stroke="midnightblue" d="M256.184,-421.635C263.061,-419.107 269.951,-415.986 276,-412.166 295.671,-399.744 291.877,-385.84 312,-374.166 315.73,-372.002 319.697,-370.084 323.79,-368.383"/>
<polygon fill="midnightblue" stroke="midnightblue" points="325.345,-371.54 333.517,-364.797 322.923,-364.973 325.345,-371.54"/>
</g>
<!-- Node72 -->
<g id="node14" class="node"><title>Node72</title>
<g id="a_node14"><a xlink:href="../../d1/d4b/classefd_1_1NDGateDecl.xhtml#aa45195dbaf1b921fcece3cac5caaceac" target="_top" xlink:title="Gets the goplist node. ">
<polygon fill="none" stroke="black" points="317,-307.666 317,-326.666 465,-326.666 465,-307.666 317,-307.666"/>
<text text-anchor="middle" x="391" y="-314.666" font-family="Helvetica,sans-Serif" font-size="10.00">efd::NDGateDecl::getGOpList</text>
</a>
</g>
</g>
<!-- Node63&#45;&gt;Node72 -->
<g id="edge15" class="edge"><title>Node63&#45;&gt;Node72</title>
<path fill="none" stroke="midnightblue" d="M256.684,-423.351C263.666,-420.654 270.467,-417.031 276,-412.166 304.069,-387.486 283.024,-359.774 312,-336.166 314.08,-334.471 316.288,-332.924 318.594,-331.511"/>
<polygon fill="midnightblue" stroke="midnightblue" points="320.622,-334.403 327.902,-326.705 317.411,-328.183 320.622,-334.403"/>
</g>
<!-- Node73 -->
<g id="node15" class="node"><title>Node73</title>
<g id="a_node15"><a xlink:href="../../dd/d94/classefd_1_1NDQOp.xhtml#aa9d90f493865fe9cdc3fecd468eaa33b" target="_top" xlink:title="Gets the id. ">
<polygon fill="none" stroke="black" points="341.5,-269.666 341.5,-288.666 440.5,-288.666 440.5,-269.666 341.5,-269.666"/>
<text text-anchor="middle" x="391" y="-276.666" font-family="Helvetica,sans-Serif" font-size="10.00">efd::NDQOp::getId</text>
</a>
</g>
</g>
<!-- Node63&#45;&gt;Node73 -->
<g id="edge17" class="edge"><title>Node63&#45;&gt;Node73</title>
<path fill="none" stroke="midnightblue" d="M256.632,-424.173C263.783,-421.407 270.661,-417.549 276,-412.166 313.417,-374.442 273.193,-334.458 312,-298.166 317.529,-292.995 324.223,-289.163 331.338,-286.335"/>
<polygon fill="midnightblue" stroke="midnightblue" points="332.834,-289.527 341.233,-283.068 330.639,-282.88 332.834,-289.527"/>
</g>
<!-- Node74 -->
<g id="node16" class="node"><title>Node74</title>
<g id="a_node16"><a xlink:href="../../db/d1f/classefd_1_1NDGateSign.xhtml#a081605b4c294930734e9d93b34ef85d0" target="_top" xlink:title="Gets the qargs node. ">
<polygon fill="none" stroke="black" points="321.5,-231.666 321.5,-250.666 460.5,-250.666 460.5,-231.666 321.5,-231.666"/>
<text text-anchor="middle" x="391" y="-238.666" font-family="Helvetica,sans-Serif" font-size="10.00">efd::NDGateSign::getQArgs</text>
</a>
</g>
</g>
<!-- Node63&#45;&gt;Node74 -->
<g id="edge20" class="edge"><title>Node63&#45;&gt;Node74</title>
<path fill="none" stroke="midnightblue" d="M256.645,-424.591C263.882,-421.795 270.789,-417.819 276,-412.166 323.05,-361.116 263.066,-309.412 312,-260.166 313.283,-258.874 314.639,-257.665 316.055,-256.533"/>
<polygon fill="midnightblue" stroke="midnightblue" points="318.297,-259.25 324.767,-250.861 314.477,-253.384 318.297,-259.25"/>
</g>
<!-- Node75 -->
<g id="node17" class="node"><title>Node75</title>
<g id="a_node17"><a xlink:href="../../dd/d94/classefd_1_1NDQOp.xhtml#af7ef43289355c5bb047a46419177c8ed" target="_top" xlink:title="Gets the quantum arguments. ">
<polygon fill="none" stroke="black" points="331.5,-193.666 331.5,-212.666 450.5,-212.666 450.5,-193.666 331.5,-193.666"/>
<text text-anchor="middle" x="391" y="-200.666" font-family="Helvetica,sans-Serif" font-size="10.00">efd::NDQOp::getQArgs</text>
</a>
</g>
</g>
<!-- Node63&#45;&gt;Node75 -->
<g id="edge22" class="edge"><title>Node63&#45;&gt;Node75</title>
<path fill="none" stroke="midnightblue" d="M256.544,-424.888C263.878,-422.075 270.848,-418.016 276,-412.166 332.802,-347.664 252.817,-284.489 312,-222.166 315.023,-218.982 318.483,-216.294 322.227,-214.028"/>
<polygon fill="midnightblue" stroke="midnightblue" points="324.004,-217.054 331.405,-209.472 320.892,-210.784 324.004,-217.054"/>
</g>
<!-- Node76 -->
<g id="node18" class="node"><title>Node76</title>
<g id="a_node18"><a xlink:href="../../dd/d52/classefd_1_1QModule.xhtml#a2cbccf2cf8dd0e4e2dc30bf12e146644" target="_top" xlink:title="Gets the quantum gate mapped to id. ">
<polygon fill="none" stroke="black" points="329.5,-155.666 329.5,-174.666 452.5,-174.666 452.5,-155.666 329.5,-155.666"/>
<text text-anchor="middle" x="391" y="-162.666" font-family="Helvetica,sans-Serif" font-size="10.00">efd::QModule::getQGate</text>
</a>
</g>
</g>
<!-- Node63&#45;&gt;Node76 -->
<g id="edge24" class="edge"><title>Node63&#45;&gt;Node76</title>
<path fill="none" stroke="midnightblue" d="M256.683,-425.008C264.007,-422.186 270.938,-418.094 276,-412.166 342.612,-334.145 242.506,-259.631 312,-184.166 314.483,-181.469 317.279,-179.127 320.297,-177.093"/>
<polygon fill="midnightblue" stroke="midnightblue" points="322.233,-180.023 329.317,-172.145 318.866,-173.886 322.233,-180.023"/>
</g>
<!-- Node77 -->
<g id="node19" class="node"><title>Node77</title>
<g id="a_node19"><a xlink:href="../../df/d1b/classefd_1_1NDValue.xhtml#a53ee724a8db3429bf30bb1936ad548b2" target="_top" xlink:title="Returns a copy to the setted value. ">
<polygon fill="none" stroke="black" points="336,-117.666 336,-136.666 446,-136.666 446,-117.666 336,-117.666"/>
<text text-anchor="middle" x="391" y="-124.666" font-family="Helvetica,sans-Serif" font-size="10.00">efd::NDValue::getVal</text>
</a>
</g>
</g>
<!-- Node63&#45;&gt;Node77 -->
<g id="edge25" class="edge"><title>Node63&#45;&gt;Node77</title>
<path fill="none" stroke="midnightblue" d="M256.784,-425.093C264.101,-422.266 271.004,-418.15 276,-412.166 352.457,-320.586 232.159,-234.811 312,-146.166 316.063,-141.654 321.002,-138.128 326.402,-135.382"/>
<polygon fill="midnightblue" stroke="midnightblue" points="327.954,-138.528 335.849,-131.462 325.271,-132.062 327.954,-138.528"/>
</g>
<!-- Node78 -->
<g id="node20" class="node"><title>Node78</title>
<g id="a_node20"><a xlink:href="../../db/d1f/classefd_1_1NDGateSign.xhtml#ac0f41d3a80cca36d590d3f7bcc1b7dc2" target="_top" xlink:title="Returns true if this is an opaque gate. ">
<polygon fill="none" stroke="black" points="321.5,-79.6656 321.5,-98.6656 460.5,-98.6656 460.5,-79.6656 321.5,-79.6656"/>
<text text-anchor="middle" x="391" y="-86.6656" font-family="Helvetica,sans-Serif" font-size="10.00">efd::NDGateSign::isOpaque</text>
</a>
</g>
</g>
<!-- Node63&#45;&gt;Node78 -->
<g id="edge26" class="edge"><title>Node63&#45;&gt;Node78</title>
<path fill="none" stroke="midnightblue" d="M256.56,-425.272C263.983,-422.438 270.986,-418.274 276,-412.166 362.322,-307.001 221.791,-210.015 312,-108.166 313.04,-106.992 314.139,-105.885 315.289,-104.84"/>
<polygon fill="midnightblue" stroke="midnightblue" points="317.535,-107.534 323.564,-98.8222 313.418,-101.873 317.535,-107.534"/>
</g>
<!-- Node80 -->
<g id="node22" class="node"><title>Node80</title>
<g id="a_node22"><a xlink:href="../../dc/d43/classefd_1_1QArgsReplaceVisitor.xhtml#a7dfbaca5bd21d40d429c27293195818e" target="_top" xlink:title="efd::QArgsReplaceVisitor\l::QArgsReplaceVisitor">
<polygon fill="none" stroke="black" points="327,-30.1656 327,-60.1656 455,-60.1656 455,-30.1656 327,-30.1656"/>
<text text-anchor="start" x="335" y="-48.1656" font-family="Helvetica,sans-Serif" font-size="10.00">efd::QArgsReplaceVisitor</text>
<text text-anchor="middle" x="391" y="-37.1656" font-family="Helvetica,sans-Serif" font-size="10.00">::QArgsReplaceVisitor</text>
</a>
</g>
</g>
<!-- Node63&#45;&gt;Node80 -->
<g id="edge28" class="edge"><title>Node63&#45;&gt;Node80</title>
<path fill="none" stroke="midnightblue" d="M256.62,-425.321C264.04,-422.484 271.026,-418.306 276,-412.166 372.202,-293.4 215.569,-188.745 312,-70.1656 313.935,-67.7867 316.097,-65.6312 318.434,-63.6783"/>
<polygon fill="midnightblue" stroke="midnightblue" points="320.733,-66.3448 326.982,-57.789 316.761,-60.5806 320.733,-66.3448"/>
</g>
<!-- Node81 -->
<g id="node23" class="node"><title>Node81</title>
<g id="a_node23"><a xlink:href="../../dd/d52/classefd_1_1QModule.xhtml#abaf0b3dd099e4b098b89772b6a134d07" target="_top" xlink:title="Replaces the stmt by the vector stmts. ">
<polygon fill="none" stroke="black" points="312,-687.666 312,-706.666 470,-706.666 470,-687.666 312,-687.666"/>
<text text-anchor="middle" x="391" y="-694.666" font-family="Helvetica,sans-Serif" font-size="10.00">efd::QModule::replaceStatement</text>
</a>
</g>
</g>
<!-- Node63&#45;&gt;Node81 -->
<g id="edge29" class="edge"><title>Node63&#45;&gt;Node81</title>
<path fill="none" stroke="midnightblue" d="M220.998,-440.666C237.519,-485.496 307.144,-673.888 312,-678.166 313.784,-679.738 315.678,-681.184 317.657,-682.516"/>
<polygon fill="midnightblue" stroke="midnightblue" points="316.383,-685.813 326.818,-687.644 319.802,-679.705 316.383,-685.813"/>
</g>
<!-- Node86 -->
<g id="node28" class="node"><title>Node86</title>
<g id="a_node28"><a xlink:href="../../dc/d9d/classefd_1_1NDIfStmt.xhtml#acf7a372c40a8d67d3d642d2bdffb9472" target="_top" xlink:title="Sets the qop. ">
<polygon fill="none" stroke="black" points="332,-649.666 332,-668.666 450,-668.666 450,-649.666 332,-649.666"/>
<text text-anchor="middle" x="391" y="-656.666" font-family="Helvetica,sans-Serif" font-size="10.00">efd::NDIfStmt::setQOp</text>
</a>
</g>
</g>
<!-- Node63&#45;&gt;Node86 -->
<g id="edge35" class="edge"><title>Node63&#45;&gt;Node86</title>
<path fill="none" stroke="midnightblue" d="M220.581,-440.743C232.728,-477.948 278.288,-612.197 312,-640.166 315.258,-642.869 318.841,-645.198 322.627,-647.204"/>
<polygon fill="midnightblue" stroke="midnightblue" points="321.212,-650.405 331.767,-651.321 324.087,-644.023 321.212,-650.405"/>
</g>
<!-- Node88 -->
<g id="node30" class="node"><title>Node88</title>
<g id="a_node30"><a xlink:href="../../d4/deb/namespaceefd.xhtml#ad7adca0e4de58074aa3f91827469a491" target="_top" xlink:title="Uses the RTTI framework to cast forwardly an unique_ptr. ">
<polygon fill="none" stroke="black" points="330.5,-611.666 330.5,-630.666 451.5,-630.666 451.5,-611.666 330.5,-611.666"/>
<text text-anchor="middle" x="391" y="-618.666" font-family="Helvetica,sans-Serif" font-size="10.00">efd::uniqueCastForward</text>
</a>
</g>
</g>
<!-- Node63&#45;&gt;Node88 -->
<g id="edge38" class="edge"><title>Node63&#45;&gt;Node88</title>
<path fill="none" stroke="midnightblue" d="M219.851,-440.715C227.551,-469.888 254.861,-558.508 312,-602.166 314.798,-604.304 317.804,-606.205 320.949,-607.895"/>
<polygon fill="midnightblue" stroke="midnightblue" points="319.576,-611.116 330.123,-612.12 322.505,-604.758 319.576,-611.116"/>
</g>
<!-- Node66 -->
<g id="node8" class="node"><title>Node66</title>
<g id="a_node8"><a xlink:href="../../d6/d6a/classefd_1_1Node.xhtml#ac078ce64eb404cfdc24b9288908536e4" target="_top" xlink:title="Clones the current node (deep copy). ">
<polygon fill="none" stroke="black" points="516.5,-535.666 516.5,-554.666 623.5,-554.666 623.5,-535.666 516.5,-535.666"/>
<text text-anchor="middle" x="570" y="-542.666" font-family="Helvetica,sans-Serif" font-size="10.00">efd::Node::cloneImpl</text>
</a>
</g>
</g>
<!-- Node65&#45;&gt;Node66 -->
<g id="edge7" class="edge"><title>Node65&#45;&gt;Node66</title>
<path fill="none" stroke="midnightblue" d="M435.753,-545.166C456.977,-545.166 482.86,-545.166 506.15,-545.166"/>
<polygon fill="midnightblue" stroke="midnightblue" points="506.295,-548.666 516.295,-545.166 506.295,-541.666 506.295,-548.666"/>
</g>
<!-- Node68&#45;&gt;Node67 -->
<g id="edge10" class="edge"><title>Node68&#45;&gt;Node67</title>
<path fill="none" stroke="midnightblue" d="M450.949,-459.531C457.674,-457.083 464.19,-454.013 470,-450.166 514.01,-421.021 545.768,-365.385 560.244,-336.166"/>
<polygon fill="midnightblue" stroke="midnightblue" points="563.463,-337.548 564.636,-327.019 557.153,-334.519 563.463,-337.548"/>
</g>
<!-- Node69&#45;&gt;Node67 -->
<g id="edge12" class="edge"><title>Node69&#45;&gt;Node67</title>
<path fill="none" stroke="midnightblue" d="M446.673,-421.756C454.762,-419.263 462.791,-416.121 470,-412.166 505.975,-392.425 538.362,-356.235 555.7,-334.672"/>
<polygon fill="midnightblue" stroke="midnightblue" points="558.558,-336.701 561.98,-326.674 553.052,-332.378 558.558,-336.701"/>
</g>
<!-- Node72&#45;&gt;Node67 -->
<g id="edge16" class="edge"><title>Node72&#45;&gt;Node67</title>
<path fill="none" stroke="midnightblue" d="M465.015,-317.166C484.756,-317.166 505.56,-317.166 523.328,-317.166"/>
<polygon fill="midnightblue" stroke="midnightblue" points="523.408,-320.666 533.408,-317.166 523.408,-313.666 523.408,-320.666"/>
</g>
<!-- Node73&#45;&gt;Node67 -->
<g id="edge18" class="edge"><title>Node73&#45;&gt;Node67</title>
<path fill="none" stroke="midnightblue" d="M436.665,-288.755C463.181,-294.447 496.722,-301.648 523.401,-307.376"/>
<polygon fill="midnightblue" stroke="midnightblue" points="522.749,-310.816 533.261,-309.493 524.219,-303.972 522.749,-310.816"/>
</g>
<!-- Node74&#45;&gt;Node67 -->
<g id="edge21" class="edge"><title>Node74&#45;&gt;Node67</title>
<path fill="none" stroke="midnightblue" d="M440.522,-250.724C450.437,-253.303 460.683,-256.437 470,-260.166 497.817,-271.298 527.28,-289.142 546.759,-301.899"/>
<polygon fill="midnightblue" stroke="midnightblue" points="544.953,-304.901 555.216,-307.53 548.832,-299.075 544.953,-304.901"/>
</g>
<!-- Node75&#45;&gt;Node67 -->
<g id="edge23" class="edge"><title>Node75&#45;&gt;Node67</title>
<path fill="none" stroke="midnightblue" d="M447.084,-212.703C455.034,-215.175 462.913,-218.277 470,-222.166 505.975,-241.906 538.362,-278.096 555.7,-299.659"/>
<polygon fill="midnightblue" stroke="midnightblue" points="553.052,-301.953 561.98,-307.658 558.558,-297.631 553.052,-301.953"/>
</g>
<!-- Node79 -->
<g id="node21" class="node"><title>Node79</title>
<g id="a_node21"><a xlink:href="../../d6/d6a/classefd_1_1Node.xhtml#a23e33e714f48070d9e8c090cd396d956" target="_top" xlink:title="Returns the kind of this node. ">
<polygon fill="none" stroke="black" points="521,-35.6656 521,-54.6656 619,-54.6656 619,-35.6656 521,-35.6656"/>
<text text-anchor="middle" x="570" y="-42.6656" font-family="Helvetica,sans-Serif" font-size="10.00">efd::Node::getKind</text>
</a>
</g>
</g>
<!-- Node78&#45;&gt;Node79 -->
<g id="edge27" class="edge"><title>Node78&#45;&gt;Node79</title>
<path fill="none" stroke="midnightblue" d="M430.406,-79.6183C456.964,-73.0164 492.495,-64.1837 520.932,-57.1147"/>
<polygon fill="midnightblue" stroke="midnightblue" points="521.808,-60.5035 530.669,-54.6943 520.12,-53.7102 521.808,-60.5035"/>
</g>
<!-- Node81&#45;&gt;Node61 -->
<g id="edge30" class="edge"><title>Node81&#45;&gt;Node61</title>
<path fill="none" stroke="midnightblue" d="M448.483,-706.797C455.987,-709.248 463.369,-712.319 470,-716.166 490.123,-727.84 486.199,-741.953 506,-754.166 509.403,-756.265 513.053,-758.145 516.819,-759.827"/>
<polygon fill="midnightblue" stroke="midnightblue" points="515.759,-763.172 526.345,-763.611 518.344,-756.666 515.759,-763.172"/>
</g>
<!-- Node82 -->
<g id="node24" class="node"><title>Node82</title>
<g id="a_node24"><a xlink:href="../../d6/d6a/classefd_1_1Node.xhtml#a335606078a1d727de214982453c9dd1b" target="_top" xlink:title="Returns a iterator to the end of the vector. ">
<polygon fill="none" stroke="black" points="529.5,-649.666 529.5,-668.666 610.5,-668.666 610.5,-649.666 529.5,-649.666"/>
<text text-anchor="middle" x="570" y="-656.666" font-family="Helvetica,sans-Serif" font-size="10.00">efd::Node::end</text>
</a>
</g>
</g>
<!-- Node81&#45;&gt;Node82 -->
<g id="edge31" class="edge"><title>Node81&#45;&gt;Node82</title>
<path fill="none" stroke="midnightblue" d="M436.665,-687.577C461.889,-682.161 493.47,-675.381 519.454,-669.803"/>
<polygon fill="midnightblue" stroke="midnightblue" points="520.435,-673.172 529.477,-667.651 518.965,-666.328 520.435,-673.172"/>
</g>
<!-- Node83 -->
<g id="node25" class="node"><title>Node83</title>
<g id="a_node25"><a xlink:href="../../da/ddd/classefd_1_1NDList.xhtml#aa407fd205c6c9841cf866fa023337ece" target="_top" xlink:title="Inserts children in the iterator it. The iterator goes to the first new inserted element. ">
<polygon fill="none" stroke="black" points="507.5,-725.666 507.5,-744.666 632.5,-744.666 632.5,-725.666 507.5,-725.666"/>
<text text-anchor="middle" x="570" y="-732.666" font-family="Helvetica,sans-Serif" font-size="10.00">efd::NDList::addChildren</text>
</a>
</g>
</g>
<!-- Node81&#45;&gt;Node83 -->
<g id="edge32" class="edge"><title>Node81&#45;&gt;Node83</title>
<path fill="none" stroke="midnightblue" d="M436.665,-706.755C460.337,-711.837 489.608,-718.121 514.597,-723.486"/>
<polygon fill="midnightblue" stroke="midnightblue" points="514.145,-726.968 524.657,-725.646 515.614,-720.124 514.145,-726.968"/>
</g>
<!-- Node85 -->
<g id="node27" class="node"><title>Node85</title>
<g id="a_node27"><a xlink:href="../../da/ddd/classefd_1_1NDList.xhtml#ae7c4d5c8dcb0a7439b62e3f662cbb85f" target="_top" xlink:title="Removes the child in the iterator it. The iterator moves to the next element. ">
<polygon fill="none" stroke="black" points="506,-687.666 506,-706.666 634,-706.666 634,-687.666 506,-687.666"/>
<text text-anchor="middle" x="570" y="-694.666" font-family="Helvetica,sans-Serif" font-size="10.00">efd::NDList::removeChild</text>
</a>
</g>
</g>
<!-- Node81&#45;&gt;Node85 -->
<g id="edge34" class="edge"><title>Node81&#45;&gt;Node85</title>
<path fill="none" stroke="midnightblue" d="M470.15,-697.166C478.643,-697.166 487.265,-697.166 495.698,-697.166"/>
<polygon fill="midnightblue" stroke="midnightblue" points="495.868,-700.666 505.868,-697.166 495.868,-693.666 495.868,-700.666"/>
</g>
<!-- Node84 -->
<g id="node26" class="node"><title>Node84</title>
<g id="a_node26"><a xlink:href="../../d6/d6a/classefd_1_1Node.xhtml#a48e9d49d994b9023b8400316e2782e2b" target="_top" xlink:title="Sets the parent node of the current node. ">
<polygon fill="none" stroke="black" points="670,-668.666 670,-687.666 777,-687.666 777,-668.666 670,-668.666"/>
<text text-anchor="middle" x="723.5" y="-675.666" font-family="Helvetica,sans-Serif" font-size="10.00">efd::Node::setParent</text>
</a>
</g>
</g>
<!-- Node83&#45;&gt;Node84 -->
<g id="edge33" class="edge"><title>Node83&#45;&gt;Node84</title>
<path fill="none" stroke="midnightblue" d="M605.235,-725.605C614.629,-722.775 624.768,-719.528 634,-716.166 653.832,-708.943 675.623,-699.605 692.62,-691.993"/>
<polygon fill="midnightblue" stroke="midnightblue" points="694.353,-695.05 702.022,-687.739 691.468,-688.672 694.353,-695.05"/>
</g>
<!-- Node87 -->
<g id="node29" class="node"><title>Node87</title>
<g id="a_node29"><a xlink:href="../../d6/d6a/classefd_1_1Node.xhtml#aad4510814ff15bd26fe2f95f9d2a2279" target="_top" xlink:title="Sets the i&#45;th child. ">
<polygon fill="none" stroke="black" points="519.5,-611.666 519.5,-630.666 620.5,-630.666 620.5,-611.666 519.5,-611.666"/>
<text text-anchor="middle" x="570" y="-618.666" font-family="Helvetica,sans-Serif" font-size="10.00">efd::Node::setChild</text>
</a>
</g>
</g>
<!-- Node86&#45;&gt;Node87 -->
<g id="edge36" class="edge"><title>Node86&#45;&gt;Node87</title>
<path fill="none" stroke="midnightblue" d="M436.665,-649.577C460.337,-644.494 489.608,-638.21 514.597,-632.845"/>
<polygon fill="midnightblue" stroke="midnightblue" points="515.614,-636.207 524.657,-630.686 514.145,-629.363 515.614,-636.207"/>
</g>
<!-- Node87&#45;&gt;Node84 -->
<g id="edge37" class="edge"><title>Node87&#45;&gt;Node84</title>
<path fill="none" stroke="midnightblue" d="M605.235,-630.726C614.629,-633.556 624.768,-636.804 634,-640.166 653.832,-647.388 675.623,-656.727 692.62,-664.339"/>
<polygon fill="midnightblue" stroke="midnightblue" points="691.468,-667.659 702.022,-668.592 694.353,-661.281 691.468,-667.659"/>
</g>
<!-- Node90&#45;&gt;Node79 -->
<g id="edge41" class="edge"><title>Node90&#45;&gt;Node79</title>
<path fill="none" stroke="midnightblue" d="M219.795,-168.32C227.179,-139.197 253.336,-53.4346 312,-20.1656 384.932,21.195 488.474,-11.2238 538.971,-31.6937"/>
<polygon fill="midnightblue" stroke="midnightblue" points="537.762,-34.9816 548.338,-35.603 540.458,-28.5215 537.762,-34.9816"/>
</g>
</g>
</svg>
