<?xml version="1.0" encoding="UTF-8" standalone="no"?>
<!DOCTYPE svg PUBLIC "-//W3C//DTD SVG 1.1//EN"
 "http://www.w3.org/Graphics/SVG/1.1/DTD/svg11.dtd">
<!-- Generated by graphviz version 2.40.1 (20161225.0304)
 -->
<!-- Title: efd::QModule::GetFromAST Pages: 1 -->
<svg width="448pt" height="66pt"
 viewBox="0.00 0.00 448.00 66.00" xmlns="http://www.w3.org/2000/svg" xmlns:xlink="http://www.w3.org/1999/xlink">
<g id="graph0" class="graph" transform="scale(1 1) rotate(0) translate(4 62)">
<title>efd::QModule::GetFromAST</title>
<!-- Node13 -->
<g id="node1" class="node">
<title>Node13</title>
<polygon fill="#bfbfbf" stroke="#000000" points="0,-19.5 0,-38.5 148,-38.5 148,-19.5 0,-19.5"/>
<text text-anchor="middle" x="74" y="-26.5" font-family="Helvetica,sans-Serif" font-size="10.00" fill="#000000">efd::QModule::GetFromAST</text>
</g>
<!-- Node14 -->
<g id="node2" class="node">
<title>Node14</title>
<g id="a_node2"><a xlink:href="../../d4/deb/namespaceefd.xhtml#a194305909125a1398a1f0e00fbae1cf5" target="_top" xlink:title="Returns a vector with the intrinsic gates implementation. ">
<polygon fill="none" stroke="#000000" points="184,-38.5 184,-57.5 307,-57.5 307,-38.5 184,-38.5"/>
<text text-anchor="middle" x="245.5" y="-45.5" font-family="Helvetica,sans-Serif" font-size="10.00" fill="#000000">efd::GetIntrinsicGates</text>
</a>
</g>
</g>
<!-- Node13&#45;&gt;Node14 -->
<g id="edge1" class="edge">
<title>Node13&#45;&gt;Node14</title>
<path fill="none" stroke="#191970" d="M148.2249,-37.2232C156.656,-38.1572 165.2384,-39.108 173.6382,-40.0386"/>
<polygon fill="#191970" stroke="#191970" points="173.4464,-43.5387 183.771,-41.1612 174.2173,-36.5813 173.4464,-43.5387"/>
</g>
<!-- Node15 -->
<g id="node3" class="node">
<title>Node15</title>
<g id="a_node3"><a xlink:href="../../d4/deb/namespaceefd.xhtml#a5b8442e2de32a9529d7a4fcd5829ef62" target="_top" xlink:title="Processes the root node, and transform the entire AST into a QModule. ">
<polygon fill="none" stroke="#000000" points="198,-.5 198,-19.5 293,-19.5 293,-.5 198,-.5"/>
<text text-anchor="middle" x="245.5" y="-7.5" font-family="Helvetica,sans-Serif" font-size="10.00" fill="#000000">efd::ProcessAST</text>
</a>
</g>
</g>
<!-- Node13&#45;&gt;Node15 -->
<g id="edge2" class="edge">
<title>Node13&#45;&gt;Node15</title>
<path fill="none" stroke="#191970" d="M148.2249,-20.7768C161.5112,-19.3049 175.1734,-17.7913 187.9043,-16.3809"/>
<polygon fill="#191970" stroke="#191970" points="188.3359,-19.8546 197.8896,-15.2746 187.565,-12.8971 188.3359,-19.8546"/>
</g>
<!-- Node16 -->
<g id="node4" class="node">
<title>Node16</title>
<g id="a_node4"><a xlink:href="../../d6/d6a/classefd_1_1Node.xhtml#ab813c60af1717cf50e92a28b274c24ef" target="_top" xlink:title="Used by visitor classes. ">
<polygon fill="none" stroke="#000000" points="343,-.5 343,-19.5 440,-19.5 440,-.5 343,-.5"/>
<text text-anchor="middle" x="391.5" y="-7.5" font-family="Helvetica,sans-Serif" font-size="10.00" fill="#000000">efd::Node::apply</text>
</a>
</g>
</g>
<!-- Node15&#45;&gt;Node16 -->
<g id="edge3" class="edge">
<title>Node15&#45;&gt;Node16</title>
<path fill="none" stroke="#191970" d="M293.3059,-10C305.8395,-10 319.5026,-10 332.5442,-10"/>
<polygon fill="#191970" stroke="#191970" points="332.8366,-13.5001 342.8366,-10 332.8365,-6.5001 332.8366,-13.5001"/>
</g>
</g>
</svg>
