<?xml version="1.0" encoding="UTF-8" standalone="no"?>
<!DOCTYPE svg PUBLIC "-//W3C//DTD SVG 1.1//EN"
 "http://www.w3.org/Graphics/SVG/1.1/DTD/svg11.dtd">
<!-- Generated by graphviz version 2.38.0 (20140413.2041)
 -->
<!-- Title: efd::QModule::Parse Pages: 1 -->
<svg width="752pt" height="230pt"
 viewBox="0.00 0.00 752.00 229.50" xmlns="http://www.w3.org/2000/svg" xmlns:xlink="http://www.w3.org/1999/xlink">
<g id="graph0" class="graph" transform="scale(1 1) rotate(0) translate(4 225.5)">
<title>efd::QModule::Parse</title>
<!-- Node116 -->
<g id="node1" class="node"><title>Node116</title>
<polygon fill="#bfbfbf" stroke="black" points="0,-88 0,-107 107,-107 107,-88 0,-88"/>
<text text-anchor="middle" x="53.5" y="-95" font-family="Helvetica,sans-Serif" font-size="10.00">efd::QModule::Parse</text>
</g>
<!-- Node117 -->
<g id="node2" class="node"><title>Node117</title>
<g id="a_node2"><a xlink:href="../../dd/d52/classefd_1_1QModule.xhtml#a1acae6e0a197d578c8e5987863443dd7" target="_top" xlink:title="Process the AST in order to obtain the QModule. ">
<polygon fill="none" stroke="black" points="143,-107 143,-126 282,-126 282,-107 143,-107"/>
<text text-anchor="middle" x="212.5" y="-114" font-family="Helvetica,sans-Serif" font-size="10.00">efd::QModule::GetFromAST</text>
</a>
</g>
</g>
<!-- Node116&#45;&gt;Node117 -->
<g id="edge1" class="edge"><title>Node116&#45;&gt;Node117</title>
<path fill="none" stroke="midnightblue" d="M107.215,-103.88C115.411,-104.871 124.028,-105.914 132.651,-106.958"/>
<polygon fill="midnightblue" stroke="midnightblue" points="132.404,-110.453 142.752,-108.18 133.245,-103.504 132.404,-110.453"/>
</g>
<!-- Node129 -->
<g id="node14" class="node"><title>Node129</title>
<g id="a_node14"><a xlink:href="../../d4/deb/namespaceefd.xhtml#ab4181eb2261a81187a3e8800ec2782ed" target="_top" xlink:title="Parse filename at path. ">
<polygon fill="none" stroke="black" points="174,-69 174,-88 251,-88 251,-69 174,-69"/>
<text text-anchor="middle" x="212.5" y="-76" font-family="Helvetica,sans-Serif" font-size="10.00">efd::ParseFile</text>
</a>
</g>
</g>
<!-- Node116&#45;&gt;Node129 -->
<g id="edge13" class="edge"><title>Node116&#45;&gt;Node129</title>
<path fill="none" stroke="midnightblue" d="M107.215,-91.1204C125.385,-88.9215 145.629,-86.4717 163.41,-84.3198"/>
<polygon fill="midnightblue" stroke="midnightblue" points="164.053,-87.7676 173.56,-83.0914 163.212,-80.8183 164.053,-87.7676"/>
</g>
<!-- Node118 -->
<g id="node3" class="node"><title>Node118</title>
<g id="a_node3"><a xlink:href="../../d4/deb/namespaceefd.xhtml#a194305909125a1398a1f0e00fbae1cf5" target="_top" xlink:title="Returns a vector with the intrinsic gates implementation. ">
<polygon fill="none" stroke="black" points="324.5,-164 324.5,-183 437.5,-183 437.5,-164 324.5,-164"/>
<text text-anchor="middle" x="381" y="-171" font-family="Helvetica,sans-Serif" font-size="10.00">efd::GetIntrinsicGates</text>
</a>
</g>
</g>
<!-- Node117&#45;&gt;Node118 -->
<g id="edge2" class="edge"><title>Node117&#45;&gt;Node118</title>
<path fill="none" stroke="midnightblue" d="M241.368,-126.041C269.102,-135.535 311.842,-150.167 342.534,-160.674"/>
<polygon fill="midnightblue" stroke="midnightblue" points="341.446,-164.001 352.041,-163.928 343.713,-157.378 341.446,-164.001"/>
</g>
<!-- Node122 -->
<g id="node7" class="node"><title>Node122</title>
<g id="a_node7"><a xlink:href="../../dd/d52/classefd_1_1QModule.xhtml#a7a0b91ad23bdaf49e197692f453808b8" target="_top" xlink:title="Inserts a gate to the QModule. ">
<polygon fill="none" stroke="black" points="318,-107 318,-126 444,-126 444,-107 318,-107"/>
<text text-anchor="middle" x="381" y="-114" font-family="Helvetica,sans-Serif" font-size="10.00">efd::QModule::insertGate</text>
</a>
</g>
</g>
<!-- Node117&#45;&gt;Node122 -->
<g id="edge6" class="edge"><title>Node117&#45;&gt;Node122</title>
<path fill="none" stroke="midnightblue" d="M282.183,-116.5C290.59,-116.5 299.201,-116.5 307.659,-116.5"/>
<polygon fill="midnightblue" stroke="midnightblue" points="307.876,-120 317.876,-116.5 307.876,-113 307.876,-120"/>
</g>
<!-- Node126 -->
<g id="node11" class="node"><title>Node126</title>
<g id="a_node11"><a xlink:href="../../d4/deb/namespaceefd.xhtml#a5b8442e2de32a9529d7a4fcd5829ef62" target="_top" xlink:title="Processes the root node, and transform the entire AST into a QModule. ">
<polygon fill="none" stroke="black" points="335,-50 335,-69 427,-69 427,-50 335,-50"/>
<text text-anchor="middle" x="381" y="-57" font-family="Helvetica,sans-Serif" font-size="10.00">efd::ProcessAST</text>
</a>
</g>
</g>
<!-- Node117&#45;&gt;Node126 -->
<g id="edge10" class="edge"><title>Node117&#45;&gt;Node126</title>
<path fill="none" stroke="midnightblue" d="M250.675,-106.912C260.89,-104.082 271.926,-100.841 282,-97.5 304.272,-90.1135 328.895,-80.5602 347.888,-72.8803"/>
<polygon fill="midnightblue" stroke="midnightblue" points="349.326,-76.0735 357.264,-69.0564 346.683,-69.5917 349.326,-76.0735"/>
</g>
<!-- Node119 -->
<g id="node4" class="node"><title>Node119</title>
<g id="a_node4"><a xlink:href="../../d6/d6a/classefd_1_1Node.xhtml#a6c85c9bd21014b73497de741cc75f706" target="_top" xlink:title="Clones the current node (deep copy). ">
<polygon fill="none" stroke="black" points="496,-202 496,-221 585,-221 585,-202 496,-202"/>
<text text-anchor="middle" x="540.5" y="-209" font-family="Helvetica,sans-Serif" font-size="10.00">efd::Node::clone</text>
</a>
</g>
</g>
<!-- Node118&#45;&gt;Node119 -->
<g id="edge3" class="edge"><title>Node118&#45;&gt;Node119</title>
<path fill="none" stroke="midnightblue" d="M421.744,-183.089C442.528,-188.104 468.161,-194.288 490.199,-199.605"/>
<polygon fill="midnightblue" stroke="midnightblue" points="489.5,-203.037 500.042,-201.98 491.142,-196.232 489.5,-203.037"/>
</g>
<!-- Node121 -->
<g id="node6" class="node"><title>Node121</title>
<g id="a_node6"><a xlink:href="../../d4/deb/namespaceefd.xhtml#ad7adca0e4de58074aa3f91827469a491" target="_top" xlink:title="Uses the RTTI framework to cast forwardly an unique_ptr. ">
<polygon fill="none" stroke="black" points="480,-164 480,-183 601,-183 601,-164 480,-164"/>
<text text-anchor="middle" x="540.5" y="-171" font-family="Helvetica,sans-Serif" font-size="10.00">efd::uniqueCastForward</text>
</a>
</g>
</g>
<!-- Node118&#45;&gt;Node121 -->
<g id="edge5" class="edge"><title>Node118&#45;&gt;Node121</title>
<path fill="none" stroke="midnightblue" d="M437.529,-173.5C447.932,-173.5 458.928,-173.5 469.699,-173.5"/>
<polygon fill="midnightblue" stroke="midnightblue" points="469.929,-177 479.929,-173.5 469.929,-170 469.929,-177"/>
</g>
<!-- Node120 -->
<g id="node5" class="node"><title>Node120</title>
<g id="a_node5"><a xlink:href="../../d6/d6a/classefd_1_1Node.xhtml#ac078ce64eb404cfdc24b9288908536e4" target="_top" xlink:title="Clones the current node (deep copy). ">
<polygon fill="none" stroke="black" points="637,-202 637,-221 744,-221 744,-202 637,-202"/>
<text text-anchor="middle" x="690.5" y="-209" font-family="Helvetica,sans-Serif" font-size="10.00">efd::Node::cloneImpl</text>
</a>
</g>
</g>
<!-- Node119&#45;&gt;Node120 -->
<g id="edge4" class="edge"><title>Node119&#45;&gt;Node120</title>
<path fill="none" stroke="midnightblue" d="M585.104,-211.5C598.141,-211.5 612.701,-211.5 626.711,-211.5"/>
<polygon fill="midnightblue" stroke="midnightblue" points="626.787,-215 636.787,-211.5 626.787,-208 626.787,-215"/>
</g>
<!-- Node123 -->
<g id="node8" class="node"><title>Node123</title>
<g id="a_node8"><a xlink:href="../../d0/d9e/classefd_1_1NDDecl.xhtml#a34957c2122c38cebf80a264d5fa3863f" target="_top" xlink:title="Gets the id node. ">
<polygon fill="none" stroke="black" points="491,-126 491,-145 590,-145 590,-126 491,-126"/>
<text text-anchor="middle" x="540.5" y="-133" font-family="Helvetica,sans-Serif" font-size="10.00">efd::NDDecl::getId</text>
</a>
</g>
</g>
<!-- Node122&#45;&gt;Node123 -->
<g id="edge7" class="edge"><title>Node122&#45;&gt;Node123</title>
<path fill="none" stroke="midnightblue" d="M444.248,-124.009C456.219,-125.453 468.722,-126.962 480.583,-128.393"/>
<polygon fill="midnightblue" stroke="midnightblue" points="480.465,-131.904 490.812,-129.627 481.303,-124.954 480.465,-131.904"/>
</g>
<!-- Node125 -->
<g id="node10" class="node"><title>Node125</title>
<g id="a_node10"><a xlink:href="../../df/d1b/classefd_1_1NDValue.xhtml#a53ee724a8db3429bf30bb1936ad548b2" target="_top" xlink:title="Returns a copy to the setted value. ">
<polygon fill="none" stroke="black" points="485.5,-88 485.5,-107 595.5,-107 595.5,-88 485.5,-88"/>
<text text-anchor="middle" x="540.5" y="-95" font-family="Helvetica,sans-Serif" font-size="10.00">efd::NDValue::getVal</text>
</a>
</g>
</g>
<!-- Node122&#45;&gt;Node125 -->
<g id="edge9" class="edge"><title>Node122&#45;&gt;Node125</title>
<path fill="none" stroke="midnightblue" d="M444.248,-108.991C454.437,-107.762 465.012,-106.486 475.249,-105.251"/>
<polygon fill="midnightblue" stroke="midnightblue" points="475.837,-108.705 485.346,-104.033 474.998,-101.756 475.837,-108.705"/>
</g>
<!-- Node124 -->
<g id="node9" class="node"><title>Node124</title>
<g id="a_node9"><a xlink:href="../../d4/deb/namespaceefd.xhtml#a2cef687225e13315fc282dc40b5a6909" target="_top" xlink:title="Returns src cast to TargetTy, iff it is of class TargetTy, otherwise it will return nullptr...">
<polygon fill="none" stroke="black" points="654,-126 654,-145 727,-145 727,-126 654,-126"/>
<text text-anchor="middle" x="690.5" y="-133" font-family="Helvetica,sans-Serif" font-size="10.00">efd::dynCast</text>
</a>
</g>
</g>
<!-- Node123&#45;&gt;Node124 -->
<g id="edge8" class="edge"><title>Node123&#45;&gt;Node124</title>
<path fill="none" stroke="midnightblue" d="M590.371,-135.5C607.524,-135.5 626.72,-135.5 643.619,-135.5"/>
<polygon fill="midnightblue" stroke="midnightblue" points="643.805,-139 653.805,-135.5 643.804,-132 643.805,-139"/>
</g>
<!-- Node127 -->
<g id="node12" class="node"><title>Node127</title>
<g id="a_node12"><a xlink:href="../../d6/d6a/classefd_1_1Node.xhtml#ab813c60af1717cf50e92a28b274c24ef" target="_top" xlink:title="Used by visitor classes. ">
<polygon fill="none" stroke="black" points="496,-50 496,-69 585,-69 585,-50 496,-50"/>
<text text-anchor="middle" x="540.5" y="-57" font-family="Helvetica,sans-Serif" font-size="10.00">efd::Node::apply</text>
</a>
</g>
</g>
<!-- Node126&#45;&gt;Node127 -->
<g id="edge11" class="edge"><title>Node126&#45;&gt;Node127</title>
<path fill="none" stroke="midnightblue" d="M427.133,-59.5C445.472,-59.5 466.804,-59.5 485.924,-59.5"/>
<polygon fill="midnightblue" stroke="midnightblue" points="485.988,-63.0001 495.988,-59.5 485.988,-56.0001 485.988,-63.0001"/>
</g>
<!-- Node128 -->
<g id="node13" class="node"><title>Node128</title>
<g id="a_node13"><a xlink:href="../../de/d71/classefd_1_1QModulefyVisitor.xhtml#abb023fa145e1e3b6c9f55493781ea874" target="_top" xlink:title="efd::QModulefyVisitor\l::QModulefyVisitor">
<polygon fill="none" stroke="black" points="485,-0.5 485,-30.5 596,-30.5 596,-0.5 485,-0.5"/>
<text text-anchor="start" x="493" y="-18.5" font-family="Helvetica,sans-Serif" font-size="10.00">efd::QModulefyVisitor</text>
<text text-anchor="middle" x="540.5" y="-7.5" font-family="Helvetica,sans-Serif" font-size="10.00">::QModulefyVisitor</text>
</a>
</g>
</g>
<!-- Node126&#45;&gt;Node128 -->
<g id="edge12" class="edge"><title>Node126&#45;&gt;Node128</title>
<path fill="none" stroke="midnightblue" d="M416.175,-49.9527C433.591,-45.0872 455.344,-39.0102 475.711,-33.3204"/>
<polygon fill="midnightblue" stroke="midnightblue" points="476.883,-36.627 485.573,-30.5654 475,-29.8851 476.883,-36.627"/>
</g>
</g>
</svg>
