<?xml version="1.0" encoding="UTF-8" standalone="no"?>
<!DOCTYPE svg PUBLIC "-//W3C//DTD SVG 1.1//EN"
 "http://www.w3.org/Graphics/SVG/1.1/DTD/svg11.dtd">
<!-- Generated by graphviz version 2.38.0 (20140413.2041)
 -->
<!-- Title: efd::QModule::toString Pages: 1 -->
<svg width="616pt" height="764pt"
 viewBox="0.00 0.00 616.00 764.35" xmlns="http://www.w3.org/2000/svg" xmlns:xlink="http://www.w3.org/1999/xlink">
<g id="graph0" class="graph" transform="scale(1 1) rotate(0) translate(4 760.348)">
<title>efd::QModule::toString</title>
<!-- Node197 -->
<g id="node1" class="node"><title>Node197</title>
<polygon fill="#bfbfbf" stroke="black" points="0,-547.5 0,-566.5 115,-566.5 115,-547.5 0,-547.5"/>
<text text-anchor="middle" x="57.5" y="-554.5" font-family="Helvetica,sans-Serif" font-size="10.00">efd::QModule::toString</text>
</g>
<!-- Node198 -->
<g id="node2" class="node"><title>Node198</title>
<g id="a_node2"><a xlink:href="../../d4/deb/namespaceefd.xhtml#a2cef687225e13315fc282dc40b5a6909" target="_top" xlink:title="Returns src cast to TargetTy, iff it is of class TargetTy, otherwise it will return nullptr...">
<polygon fill="none" stroke="black" points="521,-506.5 521,-525.5 594,-525.5 594,-506.5 521,-506.5"/>
<text text-anchor="middle" x="557.5" y="-513.5" font-family="Helvetica,sans-Serif" font-size="10.00">efd::dynCast</text>
</a>
</g>
</g>
<!-- Node197&#45;&gt;Node198 -->
<g id="edge1" class="edge"><title>Node197&#45;&gt;Node198</title>
<path fill="none" stroke="midnightblue" d="M59.7117,-566.841C64.3346,-599.589 84.1225,-705.177 151,-747 184.928,-768.218 455.967,-745.984 471,-735 537.091,-686.711 552.103,-579.685 555.506,-535.581"/>
<polygon fill="midnightblue" stroke="midnightblue" points="559,-535.78 556.157,-525.574 552.015,-535.326 559,-535.78"/>
</g>
<!-- Node199 -->
<g id="node3" class="node"><title>Node199</title>
<g id="a_node3"><a xlink:href="../../d0/d9e/classefd_1_1NDDecl.xhtml#a34957c2122c38cebf80a264d5fa3863f" target="_top" xlink:title="Gets the id node. ">
<polygon fill="none" stroke="black" points="345,-528.5 345,-547.5 444,-547.5 444,-528.5 345,-528.5"/>
<text text-anchor="middle" x="394.5" y="-535.5" font-family="Helvetica,sans-Serif" font-size="10.00">efd::NDDecl::getId</text>
</a>
</g>
</g>
<!-- Node197&#45;&gt;Node199 -->
<g id="edge2" class="edge"><title>Node197&#45;&gt;Node199</title>
<path fill="none" stroke="midnightblue" d="M75.9314,-547.421C94.0614,-538.048 123.577,-524.413 151,-519 217.141,-505.944 295.096,-516.56 344.408,-526.402"/>
<polygon fill="midnightblue" stroke="midnightblue" points="343.98,-529.888 354.481,-528.482 345.395,-523.032 343.98,-529.888"/>
</g>
<!-- Node200 -->
<g id="node4" class="node"><title>Node200</title>
<g id="a_node4"><a xlink:href="../../dd/d94/classefd_1_1NDQOp.xhtml#aa9d90f493865fe9cdc3fecd468eaa33b" target="_top" xlink:title="Gets the id. ">
<polygon fill="none" stroke="black" points="167,-718.5 167,-737.5 266,-737.5 266,-718.5 167,-718.5"/>
<text text-anchor="middle" x="216.5" y="-725.5" font-family="Helvetica,sans-Serif" font-size="10.00">efd::NDQOp::getId</text>
</a>
</g>
</g>
<!-- Node197&#45;&gt;Node200 -->
<g id="edge4" class="edge"><title>Node197&#45;&gt;Node200</title>
<path fill="none" stroke="midnightblue" d="M61.5324,-566.511C70.5507,-593.243 99.8102,-669.656 151,-709 153.466,-710.895 156.117,-712.602 158.888,-714.138"/>
<polygon fill="midnightblue" stroke="midnightblue" points="157.532,-717.369 168.067,-718.49 160.531,-711.043 157.532,-717.369"/>
</g>
<!-- Node201 -->
<g id="node5" class="node"><title>Node201</title>
<g id="a_node5"><a xlink:href="../../dc/d9d/classefd_1_1NDIfStmt.xhtml#ae5c408d49862e644f1d299ab5b2f121d" target="_top" xlink:title="Gets the qop. ">
<polygon fill="none" stroke="black" points="157.5,-680.5 157.5,-699.5 275.5,-699.5 275.5,-680.5 157.5,-680.5"/>
<text text-anchor="middle" x="216.5" y="-687.5" font-family="Helvetica,sans-Serif" font-size="10.00">efd::NDIfStmt::getQOp</text>
</a>
</g>
</g>
<!-- Node197&#45;&gt;Node201 -->
<g id="edge6" class="edge"><title>Node197&#45;&gt;Node201</title>
<path fill="none" stroke="midnightblue" d="M63.5709,-566.591C75.6584,-588.516 108.369,-642.591 151,-671 154.096,-673.063 157.422,-674.908 160.871,-676.555"/>
<polygon fill="midnightblue" stroke="midnightblue" points="159.643,-679.835 170.218,-680.472 162.348,-673.379 159.643,-679.835"/>
</g>
<!-- Node202 -->
<g id="node6" class="node"><title>Node202</title>
<g id="a_node6"><a xlink:href="../../df/d1b/classefd_1_1NDValue.xhtml#a53ee724a8db3429bf30bb1936ad548b2" target="_top" xlink:title="Returns a copy to the setted value. ">
<polygon fill="none" stroke="black" points="161.5,-604.5 161.5,-623.5 271.5,-623.5 271.5,-604.5 161.5,-604.5"/>
<text text-anchor="middle" x="216.5" y="-611.5" font-family="Helvetica,sans-Serif" font-size="10.00">efd::NDValue::getVal</text>
</a>
</g>
</g>
<!-- Node197&#45;&gt;Node202 -->
<g id="edge8" class="edge"><title>Node197&#45;&gt;Node202</title>
<path fill="none" stroke="midnightblue" d="M79.9369,-566.545C98.5305,-574.645 126.269,-586.304 151,-595 157.437,-597.264 164.298,-599.484 171.052,-601.563"/>
<polygon fill="midnightblue" stroke="midnightblue" points="170.227,-604.97 180.811,-604.496 172.242,-598.266 170.227,-604.97"/>
</g>
<!-- Node203 -->
<g id="node7" class="node"><title>Node203</title>
<g id="a_node7"><a xlink:href="../../dd/d94/classefd_1_1NDQOp.xhtml#a8700a0eb5ff3cee0e3b52c56f3cc2b3c" target="_top" xlink:title="Returns true if this is a generic node. ">
<polygon fill="none" stroke="black" points="157,-642.5 157,-661.5 276,-661.5 276,-642.5 157,-642.5"/>
<text text-anchor="middle" x="216.5" y="-649.5" font-family="Helvetica,sans-Serif" font-size="10.00">efd::NDQOp::isGeneric</text>
</a>
</g>
</g>
<!-- Node197&#45;&gt;Node203 -->
<g id="edge9" class="edge"><title>Node197&#45;&gt;Node203</title>
<path fill="none" stroke="midnightblue" d="M67.5518,-566.622C83.129,-582.64 116.654,-614.807 151,-633 155.226,-635.239 159.752,-637.247 164.372,-639.042"/>
<polygon fill="midnightblue" stroke="midnightblue" points="163.331,-642.387 173.925,-642.432 165.671,-635.79 163.331,-642.387"/>
</g>
<!-- Node205 -->
<g id="node9" class="node"><title>Node205</title>
<g id="a_node9"><a xlink:href="../../d6/d6a/classefd_1_1Node.xhtml#a0c2aac79f80799e7b16fb370f8cf88b8" target="_top" xlink:title="Returns whether this node is in a include node. ">
<polygon fill="none" stroke="black" points="160,-528.5 160,-547.5 273,-547.5 273,-528.5 160,-528.5"/>
<text text-anchor="middle" x="216.5" y="-535.5" font-family="Helvetica,sans-Serif" font-size="10.00">efd::Node::isInInclude</text>
</a>
</g>
</g>
<!-- Node197&#45;&gt;Node205 -->
<g id="edge11" class="edge"><title>Node197&#45;&gt;Node205</title>
<path fill="none" stroke="midnightblue" d="M115.181,-550.141C126.458,-548.776 138.387,-547.332 149.933,-545.935"/>
<polygon fill="midnightblue" stroke="midnightblue" points="150.447,-549.398 159.954,-544.722 149.606,-542.449 150.447,-549.398"/>
</g>
<!-- Node206 -->
<g id="node10" class="node"><title>Node206</title>
<g id="a_node10"><a xlink:href="../../da/d97/classefd_1_1NDRegDecl.xhtml#a3bf9bff2803d9e5c9a838d47a81c2d20" target="_top" xlink:title="Returns a std::string representation of this Node and its childrem. ">
<polygon fill="none" stroke="black" points="152,-566.5 152,-585.5 281,-585.5 281,-566.5 152,-566.5"/>
<text text-anchor="middle" x="216.5" y="-573.5" font-family="Helvetica,sans-Serif" font-size="10.00">efd::NDRegDecl::toString</text>
</a>
</g>
</g>
<!-- Node197&#45;&gt;Node206 -->
<g id="edge12" class="edge"><title>Node197&#45;&gt;Node206</title>
<path fill="none" stroke="midnightblue" d="M115.181,-563.859C123.86,-564.91 132.925,-566.007 141.905,-567.094"/>
<polygon fill="midnightblue" stroke="midnightblue" points="141.633,-570.586 151.982,-568.313 142.475,-563.637 141.633,-570.586"/>
</g>
<!-- Node210 -->
<g id="node14" class="node"><title>Node210</title>
<g id="a_node14"><a xlink:href="../../da/d7f/classefd_1_1NDStmtList.xhtml#ae7b4ee3d6f2f0c533a0a9b552b595586" target="_top" xlink:title="Returns a std::string representation of this Node and its childrem. ">
<polygon fill="none" stroke="black" points="330.5,-228.5 330.5,-247.5 458.5,-247.5 458.5,-228.5 330.5,-228.5"/>
<text text-anchor="middle" x="394.5" y="-235.5" font-family="Helvetica,sans-Serif" font-size="10.00">efd::NDStmtList::toString</text>
</a>
</g>
</g>
<!-- Node197&#45;&gt;Node210 -->
<g id="edge18" class="edge"><title>Node197&#45;&gt;Node210</title>
<path fill="none" stroke="midnightblue" d="M59.3304,-547.046C62.9087,-510.509 80.2157,-382.363 151,-314 196.466,-270.089 266.993,-251.524 320.29,-243.688"/>
<polygon fill="midnightblue" stroke="midnightblue" points="320.939,-247.132 330.369,-242.303 319.986,-240.197 320.939,-247.132"/>
</g>
<!-- Node212 -->
<g id="node16" class="node"><title>Node212</title>
<g id="a_node16"><a xlink:href="../../d9/dcb/classefd_1_1NDQasmVersion.xhtml#aa569f393e93eb260839f5885f145ee47" target="_top" xlink:title="Returns a std::string representation of this Node and its childrem. ">
<polygon fill="none" stroke="black" points="161.5,-406 161.5,-436 271.5,-436 271.5,-406 161.5,-406"/>
<text text-anchor="start" x="169.5" y="-424" font-family="Helvetica,sans-Serif" font-size="10.00">efd::NDQasmVersion</text>
<text text-anchor="middle" x="216.5" y="-413" font-family="Helvetica,sans-Serif" font-size="10.00">::toString</text>
</a>
</g>
</g>
<!-- Node197&#45;&gt;Node212 -->
<g id="edge20" class="edge"><title>Node197&#45;&gt;Node212</title>
<path fill="none" stroke="midnightblue" d="M69.7911,-547.219C94.7862,-525.567 155.318,-473.132 189.987,-443.1"/>
<polygon fill="midnightblue" stroke="midnightblue" points="192.528,-445.53 197.795,-436.337 187.945,-440.239 192.528,-445.53"/>
</g>
<!-- Node216 -->
<g id="node20" class="node"><title>Node216</title>
<g id="a_node20"><a xlink:href="../../d3/d29/classefd_1_1NDInclude.xhtml#a9efdb70f8a37e017bbce53679ce3a0ec" target="_top" xlink:title="Returns a std::string representation of this Node and its childrem. ">
<polygon fill="none" stroke="black" points="155.5,-323.5 155.5,-342.5 277.5,-342.5 277.5,-323.5 155.5,-323.5"/>
<text text-anchor="middle" x="216.5" y="-330.5" font-family="Helvetica,sans-Serif" font-size="10.00">efd::NDInclude::toString</text>
</a>
</g>
</g>
<!-- Node197&#45;&gt;Node216 -->
<g id="edge28" class="edge"><title>Node197&#45;&gt;Node216</title>
<path fill="none" stroke="midnightblue" d="M62.8765,-547.36C74.8731,-521.456 110.123,-448.743 151,-396 164.341,-378.787 182.231,-361.676 195.786,-349.64"/>
<polygon fill="midnightblue" stroke="midnightblue" points="198.344,-352.054 203.586,-342.847 193.746,-346.775 198.344,-352.054"/>
</g>
<!-- Node219 -->
<g id="node23" class="node"><title>Node219</title>
<g id="a_node23"><a xlink:href="../../db/d1f/classefd_1_1NDGateSign.xhtml#a6f90ad90fc61c1ed70d2a1c2da6a3d0a" target="_top" xlink:title="Returns a std::string representation of this Node and its childrem. ">
<polygon fill="none" stroke="black" points="151,-152.5 151,-171.5 282,-171.5 282,-152.5 151,-152.5"/>
<text text-anchor="middle" x="216.5" y="-159.5" font-family="Helvetica,sans-Serif" font-size="10.00">efd::NDGateSign::toString</text>
</a>
</g>
</g>
<!-- Node197&#45;&gt;Node219 -->
<g id="edge33" class="edge"><title>Node197&#45;&gt;Node219</title>
<path fill="none" stroke="midnightblue" d="M59.9653,-547.246C66.2213,-507.48 93.061,-354.432 151,-243 163.711,-218.553 184.324,-194.342 198.82,-178.85"/>
<polygon fill="midnightblue" stroke="midnightblue" points="201.384,-181.233 205.768,-171.587 196.326,-176.393 201.384,-181.233"/>
</g>
<!-- Node199&#45;&gt;Node198 -->
<g id="edge3" class="edge"><title>Node199&#45;&gt;Node198</title>
<path fill="none" stroke="midnightblue" d="M444.242,-531.34C465.382,-528.451 490.002,-525.087 510.789,-522.246"/>
<polygon fill="midnightblue" stroke="midnightblue" points="511.528,-525.678 520.962,-520.856 510.58,-518.742 511.528,-525.678"/>
</g>
<!-- Node200&#45;&gt;Node198 -->
<g id="edge5" class="edge"><title>Node200&#45;&gt;Node198</title>
<path fill="none" stroke="midnightblue" d="M266.327,-736.346C321.344,-742.958 410.914,-744.993 471,-702 527.296,-661.719 547.421,-575.063 553.828,-535.917"/>
<polygon fill="midnightblue" stroke="midnightblue" points="557.323,-536.212 555.346,-525.803 550.4,-535.173 557.323,-536.212"/>
</g>
<!-- Node201&#45;&gt;Node198 -->
<g id="edge7" class="edge"><title>Node201&#45;&gt;Node198</title>
<path fill="none" stroke="midnightblue" d="M268.589,-699.553C323.187,-706.904 410.093,-710.105 471,-671 520.004,-639.537 543.308,-569.727 552.109,-535.578"/>
<polygon fill="midnightblue" stroke="midnightblue" points="555.515,-536.381 554.471,-525.838 548.713,-534.731 555.515,-536.381"/>
</g>
<!-- Node204 -->
<g id="node8" class="node"><title>Node204</title>
<g id="a_node8"><a xlink:href="../../d6/d6a/classefd_1_1Node.xhtml#a23e33e714f48070d9e8c090cd396d956" target="_top" xlink:title="Returns the kind of this node. ">
<polygon fill="none" stroke="black" points="345.5,-642.5 345.5,-661.5 443.5,-661.5 443.5,-642.5 345.5,-642.5"/>
<text text-anchor="middle" x="394.5" y="-649.5" font-family="Helvetica,sans-Serif" font-size="10.00">efd::Node::getKind</text>
</a>
</g>
</g>
<!-- Node203&#45;&gt;Node204 -->
<g id="edge10" class="edge"><title>Node203&#45;&gt;Node204</title>
<path fill="none" stroke="midnightblue" d="M276.105,-652C295.177,-652 316.33,-652 335.367,-652"/>
<polygon fill="midnightblue" stroke="midnightblue" points="335.402,-655.5 345.402,-652 335.402,-648.5 335.402,-655.5"/>
</g>
<!-- Node206&#45;&gt;Node199 -->
<g id="edge13" class="edge"><title>Node206&#45;&gt;Node199</title>
<path fill="none" stroke="midnightblue" d="M261.912,-566.411C285.451,-561.329 314.557,-555.045 339.405,-549.68"/>
<polygon fill="midnightblue" stroke="midnightblue" points="340.371,-553.052 349.407,-547.52 338.894,-546.209 340.371,-553.052"/>
</g>
<!-- Node207 -->
<g id="node11" class="node"><title>Node207</title>
<g id="a_node11"><a xlink:href="../../da/d97/classefd_1_1NDRegDecl.xhtml#ae1a4518aa5a5ba67545587381c9e0fa1" target="_top" xlink:title="Returns a std::string representation of the operation. ">
<polygon fill="none" stroke="black" points="319,-604.5 319,-623.5 470,-623.5 470,-604.5 319,-604.5"/>
<text text-anchor="middle" x="394.5" y="-611.5" font-family="Helvetica,sans-Serif" font-size="10.00">efd::NDRegDecl::getOperation</text>
</a>
</g>
</g>
<!-- Node206&#45;&gt;Node207 -->
<g id="edge14" class="edge"><title>Node206&#45;&gt;Node207</title>
<path fill="none" stroke="midnightblue" d="M261.912,-585.589C285.451,-590.671 314.557,-596.955 339.405,-602.32"/>
<polygon fill="midnightblue" stroke="midnightblue" points="338.894,-605.791 349.407,-604.48 340.371,-598.948 338.894,-605.791"/>
</g>
<!-- Node208 -->
<g id="node12" class="node"><title>Node208</title>
<g id="a_node12"><a xlink:href="../../da/d97/classefd_1_1NDRegDecl.xhtml#aa0cfc2736f15ea67553ea975b3b207f9" target="_top" xlink:title="Gets the size node. ">
<polygon fill="none" stroke="black" points="330.5,-566.5 330.5,-585.5 458.5,-585.5 458.5,-566.5 330.5,-566.5"/>
<text text-anchor="middle" x="394.5" y="-573.5" font-family="Helvetica,sans-Serif" font-size="10.00">efd::NDRegDecl::getSize</text>
</a>
</g>
</g>
<!-- Node206&#45;&gt;Node208 -->
<g id="edge15" class="edge"><title>Node206&#45;&gt;Node208</title>
<path fill="none" stroke="midnightblue" d="M281.04,-576C293.704,-576 307.102,-576 320.067,-576"/>
<polygon fill="midnightblue" stroke="midnightblue" points="320.348,-579.5 330.348,-576 320.348,-572.5 320.348,-579.5"/>
</g>
<!-- Node209 -->
<g id="node13" class="node"><title>Node209</title>
<g id="a_node13"><a xlink:href="../../df/d1b/classefd_1_1NDValue.xhtml#a9ded6b0d00e7ea4d748be60c5cc3632b" target="_top" xlink:title="Returns a std::string representation of this Node and its childrem. ">
<polygon fill="none" stroke="black" points="336.5,-342.5 336.5,-361.5 452.5,-361.5 452.5,-342.5 336.5,-342.5"/>
<text text-anchor="middle" x="394.5" y="-349.5" font-family="Helvetica,sans-Serif" font-size="10.00">efd::NDValue::toString</text>
</a>
</g>
</g>
<!-- Node206&#45;&gt;Node209 -->
<g id="edge17" class="edge"><title>Node206&#45;&gt;Node209</title>
<path fill="none" stroke="midnightblue" d="M269.521,-566.477C274.182,-563.995 278.467,-560.887 282,-557 338.636,-494.693 260.131,-432.164 318,-371 320.794,-368.047 323.974,-365.525 327.41,-363.375"/>
<polygon fill="midnightblue" stroke="midnightblue" points="329.107,-366.438 336.406,-358.759 325.911,-360.21 329.107,-366.438"/>
</g>
<!-- Node208&#45;&gt;Node198 -->
<g id="edge16" class="edge"><title>Node208&#45;&gt;Node198</title>
<path fill="none" stroke="midnightblue" d="M439.864,-566.415C450.203,-563.748 461.085,-560.584 471,-557 491.448,-549.609 513.555,-538.931 530.167,-530.325"/>
<polygon fill="midnightblue" stroke="midnightblue" points="532.041,-533.294 539.258,-525.538 528.779,-527.1 532.041,-533.294"/>
</g>
<!-- Node211 -->
<g id="node15" class="node"><title>Node211</title>
<g id="a_node15"><a xlink:href="../../d6/d6a/classefd_1_1Node.xhtml#a96ca13a5c2b971b68619ce4a34be0f66" target="_top" xlink:title="Returns a std::string representation of this Node and its childrem. ">
<polygon fill="none" stroke="black" points="508,-76.5 508,-95.5 607,-95.5 607,-76.5 508,-76.5"/>
<text text-anchor="middle" x="557.5" y="-83.5" font-family="Helvetica,sans-Serif" font-size="10.00">efd::Node::toString</text>
</a>
</g>
</g>
<!-- Node210&#45;&gt;Node211 -->
<g id="edge19" class="edge"><title>Node210&#45;&gt;Node211</title>
<path fill="none" stroke="midnightblue" d="M453.21,-228.402C459.535,-225.945 465.621,-222.864 471,-219 511.702,-189.758 537.836,-134.576 549.479,-105.329"/>
<polygon fill="midnightblue" stroke="midnightblue" points="552.812,-106.414 553.113,-95.8231 546.273,-103.914 552.812,-106.414"/>
</g>
<!-- Node212&#45;&gt;Node209 -->
<g id="edge26" class="edge"><title>Node212&#45;&gt;Node209</title>
<path fill="none" stroke="midnightblue" d="M244.097,-405.794C263.961,-394.93 292.044,-380.595 318,-371 324.711,-368.519 331.875,-366.252 339.018,-364.216"/>
<polygon fill="midnightblue" stroke="midnightblue" points="339.968,-367.584 348.7,-361.584 338.132,-360.829 339.968,-367.584"/>
</g>
<!-- Node212&#45;&gt;Node210 -->
<g id="edge27" class="edge"><title>Node212&#45;&gt;Node210</title>
<path fill="none" stroke="midnightblue" d="M235.116,-405.784C249.353,-392.712 269.084,-372.74 282,-352 305.868,-313.672 284.28,-287.028 318,-257 319.763,-255.43 321.638,-253.985 323.599,-252.657"/>
<polygon fill="midnightblue" stroke="midnightblue" points="325.689,-255.497 332.689,-247.544 322.257,-249.396 325.689,-255.497"/>
</g>
<!-- Node213 -->
<g id="node17" class="node"><title>Node213</title>
<g id="a_node17"><a xlink:href="../../d9/dcb/classefd_1_1NDQasmVersion.xhtml#ae1e5b466eb6ffcf37fea383e5f49c4bf" target="_top" xlink:title="Returns a std::string representation of the operation. ">
<polygon fill="none" stroke="black" points="339.5,-381 339.5,-411 449.5,-411 449.5,-381 339.5,-381"/>
<text text-anchor="start" x="347.5" y="-399" font-family="Helvetica,sans-Serif" font-size="10.00">efd::NDQasmVersion</text>
<text text-anchor="middle" x="394.5" y="-388" font-family="Helvetica,sans-Serif" font-size="10.00">::getOperation</text>
</a>
</g>
</g>
<!-- Node212&#45;&gt;Node213 -->
<g id="edge21" class="edge"><title>Node212&#45;&gt;Node213</title>
<path fill="none" stroke="midnightblue" d="M271.742,-413.295C289.978,-410.705 310.494,-407.791 329.413,-405.103"/>
<polygon fill="midnightblue" stroke="midnightblue" points="330.029,-408.551 339.437,-403.679 329.044,-401.621 330.029,-408.551"/>
</g>
<!-- Node214 -->
<g id="node18" class="node"><title>Node214</title>
<g id="a_node18"><a xlink:href="../../d9/dcb/classefd_1_1NDQasmVersion.xhtml#a8a8428b4ee1b54ab5009981511133ecf" target="_top" xlink:title="Gets the node that holds the statements. ">
<polygon fill="none" stroke="black" points="339.5,-479 339.5,-509 449.5,-509 449.5,-479 339.5,-479"/>
<text text-anchor="start" x="347.5" y="-497" font-family="Helvetica,sans-Serif" font-size="10.00">efd::NDQasmVersion</text>
<text text-anchor="middle" x="394.5" y="-486" font-family="Helvetica,sans-Serif" font-size="10.00">::getStatements</text>
</a>
</g>
</g>
<!-- Node212&#45;&gt;Node214 -->
<g id="edge22" class="edge"><title>Node212&#45;&gt;Node214</title>
<path fill="none" stroke="midnightblue" d="M246.529,-436.061C266.371,-446.057 293.426,-459.109 318,-469 323.498,-471.213 329.274,-473.387 335.082,-475.472"/>
<polygon fill="midnightblue" stroke="midnightblue" points="334.246,-478.887 344.841,-478.889 336.559,-472.281 334.246,-478.887"/>
</g>
<!-- Node215 -->
<g id="node19" class="node"><title>Node215</title>
<g id="a_node19"><a xlink:href="../../d9/dcb/classefd_1_1NDQasmVersion.xhtml#adb0f8cedefb3c43a5e8346f31feaa9c0" target="_top" xlink:title="Gets the node that holds the version. ">
<polygon fill="none" stroke="black" points="339.5,-430 339.5,-460 449.5,-460 449.5,-430 339.5,-430"/>
<text text-anchor="start" x="347.5" y="-448" font-family="Helvetica,sans-Serif" font-size="10.00">efd::NDQasmVersion</text>
<text text-anchor="middle" x="394.5" y="-437" font-family="Helvetica,sans-Serif" font-size="10.00">::getVersion</text>
</a>
</g>
</g>
<!-- Node212&#45;&gt;Node215 -->
<g id="edge24" class="edge"><title>Node212&#45;&gt;Node215</title>
<path fill="none" stroke="midnightblue" d="M271.742,-428.397C289.978,-430.883 310.494,-433.681 329.413,-436.261"/>
<polygon fill="midnightblue" stroke="midnightblue" points="329.056,-439.744 339.437,-437.628 330.002,-432.809 329.056,-439.744"/>
</g>
<!-- Node214&#45;&gt;Node198 -->
<g id="edge23" class="edge"><title>Node214&#45;&gt;Node198</title>
<path fill="none" stroke="midnightblue" d="M449.559,-501.387C469.382,-504.096 491.612,-507.133 510.647,-509.734"/>
<polygon fill="midnightblue" stroke="midnightblue" points="510.187,-513.204 520.569,-511.09 511.135,-506.268 510.187,-513.204"/>
</g>
<!-- Node215&#45;&gt;Node198 -->
<g id="edge25" class="edge"><title>Node215&#45;&gt;Node198</title>
<path fill="none" stroke="midnightblue" d="M447.569,-460.08C455.512,-462.802 463.542,-465.801 471,-469 492.541,-478.24 515.775,-491.223 532.579,-501.203"/>
<polygon fill="midnightblue" stroke="midnightblue" points="530.829,-504.235 541.201,-506.396 534.441,-498.238 530.829,-504.235"/>
</g>
<!-- Node216&#45;&gt;Node209 -->
<g id="edge32" class="edge"><title>Node216&#45;&gt;Node209</title>
<path fill="none" stroke="midnightblue" d="M277.577,-339.486C293.179,-341.17 310.088,-342.995 326.043,-344.718"/>
<polygon fill="midnightblue" stroke="midnightblue" points="326.048,-348.239 336.366,-345.832 326.8,-341.279 326.048,-348.239"/>
</g>
<!-- Node217 -->
<g id="node21" class="node"><title>Node217</title>
<g id="a_node21"><a xlink:href="../../d3/d29/classefd_1_1NDInclude.xhtml#a08ec207974cdeaf086c7978dc23b9a30" target="_top" xlink:title="Gets the node that holds the filename. ">
<polygon fill="none" stroke="black" points="323.5,-266.5 323.5,-285.5 465.5,-285.5 465.5,-266.5 323.5,-266.5"/>
<text text-anchor="middle" x="394.5" y="-273.5" font-family="Helvetica,sans-Serif" font-size="10.00">efd::NDInclude::getFilename</text>
</a>
</g>
</g>
<!-- Node216&#45;&gt;Node217 -->
<g id="edge29" class="edge"><title>Node216&#45;&gt;Node217</title>
<path fill="none" stroke="midnightblue" d="M240.388,-323.484C260.589,-315.293 290.947,-303.488 318,-295 325.793,-292.555 334.114,-290.205 342.28,-288.043"/>
<polygon fill="midnightblue" stroke="midnightblue" points="343.309,-291.392 352.116,-285.503 341.559,-284.614 343.309,-291.392"/>
</g>
<!-- Node218 -->
<g id="node22" class="node"><title>Node218</title>
<g id="a_node22"><a xlink:href="../../d3/d29/classefd_1_1NDInclude.xhtml#a5f3cf747332884d41b1bd84f15d91cd4" target="_top" xlink:title="Returns a std::string representation of the operation. ">
<polygon fill="none" stroke="black" points="322.5,-304.5 322.5,-323.5 466.5,-323.5 466.5,-304.5 322.5,-304.5"/>
<text text-anchor="middle" x="394.5" y="-311.5" font-family="Helvetica,sans-Serif" font-size="10.00">efd::NDInclude::getOperation</text>
</a>
</g>
</g>
<!-- Node216&#45;&gt;Node218 -->
<g id="edge31" class="edge"><title>Node216&#45;&gt;Node218</title>
<path fill="none" stroke="midnightblue" d="M277.577,-326.514C288.745,-325.309 300.582,-324.031 312.26,-322.77"/>
<polygon fill="midnightblue" stroke="midnightblue" points="312.893,-326.222 322.46,-321.669 312.142,-319.263 312.893,-326.222"/>
</g>
<!-- Node217&#45;&gt;Node198 -->
<g id="edge30" class="edge"><title>Node217&#45;&gt;Node198</title>
<path fill="none" stroke="midnightblue" d="M456.283,-285.576C461.625,-288.057 466.646,-291.15 471,-295 532.388,-349.288 550.009,-452.9 554.807,-496.206"/>
<polygon fill="midnightblue" stroke="midnightblue" points="551.337,-496.688 555.808,-506.293 558.303,-495.996 551.337,-496.688"/>
</g>
<!-- Node219&#45;&gt;Node199 -->
<g id="edge36" class="edge"><title>Node219&#45;&gt;Node199</title>
<path fill="none" stroke="midnightblue" d="M222.524,-171.673C234.599,-195.319 265.472,-258.204 282,-314 308.15,-402.276 255.699,-450.214 318,-518 322.747,-523.165 328.659,-527.059 335.071,-529.985"/>
<polygon fill="midnightblue" stroke="midnightblue" points="334.153,-533.379 344.745,-533.615 336.612,-526.825 334.153,-533.379"/>
</g>
<!-- Node219&#45;&gt;Node209 -->
<g id="edge42" class="edge"><title>Node219&#45;&gt;Node209</title>
<path fill="none" stroke="midnightblue" d="M220.208,-171.539C228.995,-200.683 259.576,-289.228 318,-333 320.845,-335.131 323.901,-337.025 327.097,-338.708"/>
<polygon fill="midnightblue" stroke="midnightblue" points="325.854,-341.987 336.408,-342.913 328.735,-335.607 325.854,-341.987"/>
</g>
<!-- Node219&#45;&gt;Node211 -->
<g id="edge41" class="edge"><title>Node219&#45;&gt;Node211</title>
<path fill="none" stroke="midnightblue" d="M229.991,-152.49C248.216,-139.203 283.674,-115.532 318,-105 377.317,-86.7997 448.613,-83.3701 497.713,-83.6706"/>
<polygon fill="midnightblue" stroke="midnightblue" points="497.802,-87.1717 507.842,-83.7873 497.883,-80.1722 497.802,-87.1717"/>
</g>
<!-- Node220 -->
<g id="node24" class="node"><title>Node220</title>
<g id="a_node24"><a xlink:href="../../db/d1f/classefd_1_1NDGateSign.xhtml#a0be5984f118128bc3e2bf64a8a390071" target="_top" xlink:title="Gets the args node. ">
<polygon fill="none" stroke="black" points="329,-190.5 329,-209.5 460,-209.5 460,-190.5 329,-190.5"/>
<text text-anchor="middle" x="394.5" y="-197.5" font-family="Helvetica,sans-Serif" font-size="10.00">efd::NDGateSign::getArgs</text>
</a>
</g>
</g>
<!-- Node219&#45;&gt;Node220 -->
<g id="edge34" class="edge"><title>Node219&#45;&gt;Node220</title>
<path fill="none" stroke="midnightblue" d="M261.912,-171.589C285.451,-176.671 314.557,-182.955 339.405,-188.32"/>
<polygon fill="midnightblue" stroke="midnightblue" points="338.894,-191.791 349.407,-190.48 340.371,-184.948 338.894,-191.791"/>
</g>
<!-- Node221 -->
<g id="node25" class="node"><title>Node221</title>
<g id="a_node25"><a xlink:href="../../db/d1f/classefd_1_1NDGateSign.xhtml#aeed807d0af0556f34747b69cc1bc4d00" target="_top" xlink:title="Returns a std::string representation of the operation. ">
<polygon fill="none" stroke="black" points="318,-0.5 318,-19.5 471,-19.5 471,-0.5 318,-0.5"/>
<text text-anchor="middle" x="394.5" y="-7.5" font-family="Helvetica,sans-Serif" font-size="10.00">efd::NDGateSign::getOperation</text>
</a>
</g>
</g>
<!-- Node219&#45;&gt;Node221 -->
<g id="edge37" class="edge"><title>Node219&#45;&gt;Node221</title>
<path fill="none" stroke="midnightblue" d="M221.988,-152.169C233.848,-127.342 268.54,-61.7674 318,-29 321.113,-26.9378 324.433,-25.0994 327.879,-23.4605"/>
<polygon fill="midnightblue" stroke="midnightblue" points="329.349,-26.6399 337.242,-19.5717 326.664,-20.1754 329.349,-26.6399"/>
</g>
<!-- Node222 -->
<g id="node26" class="node"><title>Node222</title>
<g id="a_node26"><a xlink:href="../../db/d1f/classefd_1_1NDGateSign.xhtml#a081605b4c294930734e9d93b34ef85d0" target="_top" xlink:title="Gets the qargs node. ">
<polygon fill="none" stroke="black" points="325,-114.5 325,-133.5 464,-133.5 464,-114.5 325,-114.5"/>
<text text-anchor="middle" x="394.5" y="-121.5" font-family="Helvetica,sans-Serif" font-size="10.00">efd::NDGateSign::getQArgs</text>
</a>
</g>
</g>
<!-- Node219&#45;&gt;Node222 -->
<g id="edge38" class="edge"><title>Node219&#45;&gt;Node222</title>
<path fill="none" stroke="midnightblue" d="M261.912,-152.411C285.451,-147.329 314.557,-141.045 339.405,-135.68"/>
<polygon fill="midnightblue" stroke="midnightblue" points="340.371,-139.052 349.407,-133.52 338.894,-132.209 340.371,-139.052"/>
</g>
<!-- Node223 -->
<g id="node27" class="node"><title>Node223</title>
<g id="a_node27"><a xlink:href="../../d6/d6a/classefd_1_1Node.xhtml#a3f8e26eafae005e4befadedeab9b6df4" target="_top" xlink:title="Returns whether this node has any information. ">
<polygon fill="none" stroke="black" points="344,-152.5 344,-171.5 445,-171.5 445,-152.5 344,-152.5"/>
<text text-anchor="middle" x="394.5" y="-159.5" font-family="Helvetica,sans-Serif" font-size="10.00">efd::Node::isEmpty</text>
</a>
</g>
</g>
<!-- Node219&#45;&gt;Node223 -->
<g id="edge40" class="edge"><title>Node219&#45;&gt;Node223</title>
<path fill="none" stroke="midnightblue" d="M282.037,-162C298.935,-162 317.079,-162 333.718,-162"/>
<polygon fill="midnightblue" stroke="midnightblue" points="333.859,-165.5 343.859,-162 333.859,-158.5 333.859,-165.5"/>
</g>
<!-- Node224 -->
<g id="node28" class="node"><title>Node224</title>
<g id="a_node28"><a xlink:href="../../da/ddd/classefd_1_1NDList.xhtml#acfa25f299fc8d811fcada96273aa8550" target="_top" xlink:title="Returns a std::string representation of this Node and its childrem. ">
<polygon fill="none" stroke="black" points="341,-38.5 341,-57.5 448,-57.5 448,-38.5 341,-38.5"/>
<text text-anchor="middle" x="394.5" y="-45.5" font-family="Helvetica,sans-Serif" font-size="10.00">efd::NDList::toString</text>
</a>
</g>
</g>
<!-- Node219&#45;&gt;Node224 -->
<g id="edge43" class="edge"><title>Node219&#45;&gt;Node224</title>
<path fill="none" stroke="midnightblue" d="M225.633,-152.405C241.56,-134.19 278.75,-94.4238 318,-72 325.722,-67.5881 334.361,-63.8737 342.96,-60.786"/>
<polygon fill="midnightblue" stroke="midnightblue" points="344.226,-64.053 352.6,-57.5624 342.006,-57.4143 344.226,-64.053"/>
</g>
<!-- Node220&#45;&gt;Node198 -->
<g id="edge35" class="edge"><title>Node220&#45;&gt;Node198</title>
<path fill="none" stroke="midnightblue" d="M457.38,-209.543C462.371,-212.043 467.016,-215.148 471,-219 550.964,-296.309 557.489,-443.15 557.077,-496.231"/>
<polygon fill="midnightblue" stroke="midnightblue" points="553.575,-496.277 556.9,-506.336 560.574,-496.399 553.575,-496.277"/>
</g>
<!-- Node222&#45;&gt;Node198 -->
<g id="edge39" class="edge"><title>Node222&#45;&gt;Node198</title>
<path fill="none" stroke="midnightblue" d="M457.968,-133.502C462.774,-136.017 467.218,-139.137 471,-143 521.41,-194.49 547.78,-426.539 554.655,-496.18"/>
<polygon fill="midnightblue" stroke="midnightblue" points="551.182,-496.623 555.623,-506.242 558.15,-495.953 551.182,-496.623"/>
</g>
<!-- Node224&#45;&gt;Node211 -->
<g id="edge45" class="edge"><title>Node224&#45;&gt;Node211</title>
<path fill="none" stroke="midnightblue" d="M436.127,-57.589C457.468,-62.6261 483.812,-68.8438 506.408,-74.1771"/>
<polygon fill="midnightblue" stroke="midnightblue" points="505.628,-77.5891 516.165,-76.4799 507.236,-70.7763 505.628,-77.5891"/>
</g>
<!-- Node225 -->
<g id="node29" class="node"><title>Node225</title>
<g id="a_node29"><a xlink:href="../../d6/d6a/classefd_1_1Node.xhtml#a63e30243eca03b0c85d8c4856e91c79d" target="_top" xlink:title="Gets the i&#45;th child. ">
<polygon fill="none" stroke="black" points="507,-38.5 507,-57.5 608,-57.5 608,-38.5 507,-38.5"/>
<text text-anchor="middle" x="557.5" y="-45.5" font-family="Helvetica,sans-Serif" font-size="10.00">efd::Node::getChild</text>
</a>
</g>
</g>
<!-- Node224&#45;&gt;Node225 -->
<g id="edge44" class="edge"><title>Node224&#45;&gt;Node225</title>
<path fill="none" stroke="midnightblue" d="M448.217,-48C463.715,-48 480.778,-48 496.685,-48"/>
<polygon fill="midnightblue" stroke="midnightblue" points="496.943,-51.5001 506.943,-48 496.943,-44.5001 496.943,-51.5001"/>
</g>
</g>
</svg>
