<?xml version="1.0" encoding="UTF-8" standalone="no"?>
<!DOCTYPE svg PUBLIC "-//W3C//DTD SVG 1.1//EN"
 "http://www.w3.org/Graphics/SVG/1.1/DTD/svg11.dtd">
<!-- Generated by graphviz version 2.40.1 (20161225.0304)
 -->
<!-- Title: include/enfield/Transform/LayersBuilderPass.h Pages: 1 -->
<svg width="855pt" height="240pt"
 viewBox="0.00 0.00 854.50 240.00" xmlns="http://www.w3.org/2000/svg" xmlns:xlink="http://www.w3.org/1999/xlink">
<g id="graph0" class="graph" transform="scale(1 1) rotate(0) translate(4 236)">
<title>include/enfield/Transform/LayersBuilderPass.h</title>
<!-- Node12 -->
<g id="node1" class="node">
<title>Node12</title>
<polygon fill="#bfbfbf" stroke="#000000" points="423,-201.5 423,-231.5 565,-231.5 565,-201.5 423,-201.5"/>
<text text-anchor="start" x="431" y="-219.5" font-family="Helvetica,sans-Serif" font-size="10.00" fill="#000000">include/enfield/Transform</text>
<text text-anchor="middle" x="494" y="-208.5" font-family="Helvetica,sans-Serif" font-size="10.00" fill="#000000">/LayersBuilderPass.h</text>
</g>
<!-- Node13 -->
<g id="node2" class="node">
<title>Node13</title>
<g id="a_node2"><a xlink:href="../../d3/d48/IBMQAllocator_8h.xhtml" target="_top" xlink:title="include/enfield/Transform\l/Allocators/IBMQAllocator.h">
<polygon fill="none" stroke="#000000" points="136.5,-134.5 136.5,-164.5 285.5,-164.5 285.5,-134.5 136.5,-134.5"/>
<text text-anchor="start" x="144.5" y="-152.5" font-family="Helvetica,sans-Serif" font-size="10.00" fill="#000000">include/enfield/Transform</text>
<text text-anchor="middle" x="211" y="-141.5" font-family="Helvetica,sans-Serif" font-size="10.00" fill="#000000">/Allocators/IBMQAllocator.h</text>
</a>
</g>
</g>
<!-- Node12&#45;&gt;Node13 -->
<g id="edge1" class="edge">
<title>Node12&#45;&gt;Node13</title>
<path fill="none" stroke="#191970" d="M420.7463,-199.1573C375.5416,-188.4551 318.1179,-174.8601 274.7877,-164.6017"/>
<polygon fill="#191970" stroke="#191970" points="419.9519,-202.5659 430.4893,-201.4639 421.5646,-195.7542 419.9519,-202.5659"/>
</g>
<!-- Node16 -->
<g id="node5" class="node">
<title>Node16</title>
<g id="a_node5"><a xlink:href="../../df/d01/LayerBasedOrderingWrapperPass_8h.xhtml" target="_top" xlink:title="include/enfield/Transform\l/LayerBasedOrderingWrapperPass.h">
<polygon fill="none" stroke="#000000" points="303.5,-134.5 303.5,-164.5 494.5,-164.5 494.5,-134.5 303.5,-134.5"/>
<text text-anchor="start" x="311.5" y="-152.5" font-family="Helvetica,sans-Serif" font-size="10.00" fill="#000000">include/enfield/Transform</text>
<text text-anchor="middle" x="399" y="-141.5" font-family="Helvetica,sans-Serif" font-size="10.00" fill="#000000">/LayerBasedOrderingWrapperPass.h</text>
</a>
</g>
</g>
<!-- Node12&#45;&gt;Node16 -->
<g id="edge4" class="edge">
<title>Node12&#45;&gt;Node16</title>
<path fill="none" stroke="#191970" d="M464.0068,-195.3469C449.8712,-185.3776 433.3305,-173.7121 420.4717,-164.6432"/>
<polygon fill="#191970" stroke="#191970" points="462.2537,-198.3934 472.443,-201.2967 466.2882,-192.6729 462.2537,-198.3934"/>
</g>
<!-- Node21 -->
<g id="node10" class="node">
<title>Node21</title>
<g id="a_node10"><a xlink:href="../../d8/d9d/LayersBuilderPass_8cpp.xhtml" target="_top" xlink:title="lib/Transform/LayersBuilder\lPass.cpp">
<polygon fill="none" stroke="#000000" points="513,-134.5 513,-164.5 665,-164.5 665,-134.5 513,-134.5"/>
<text text-anchor="start" x="521" y="-152.5" font-family="Helvetica,sans-Serif" font-size="10.00" fill="#000000">lib/Transform/LayersBuilder</text>
<text text-anchor="middle" x="589" y="-141.5" font-family="Helvetica,sans-Serif" font-size="10.00" fill="#000000">Pass.cpp</text>
</a>
</g>
</g>
<!-- Node12&#45;&gt;Node21 -->
<g id="edge9" class="edge">
<title>Node12&#45;&gt;Node21</title>
<path fill="none" stroke="#191970" d="M523.9932,-195.3469C538.1288,-185.3776 554.6695,-173.7121 567.5283,-164.6432"/>
<polygon fill="#191970" stroke="#191970" points="521.7118,-192.6729 515.557,-201.2967 525.7463,-198.3934 521.7118,-192.6729"/>
</g>
<!-- Node22 -->
<g id="node11" class="node">
<title>Node22</title>
<g id="a_node11"><a xlink:href="../../d9/dac/QModuleQualityEvalPass_8cpp.xhtml" target="_top" xlink:title="lib/Transform/QModuleQuality\lEvalPass.cpp">
<polygon fill="none" stroke="#000000" points="683.5,-134.5 683.5,-164.5 846.5,-164.5 846.5,-134.5 683.5,-134.5"/>
<text text-anchor="start" x="691.5" y="-152.5" font-family="Helvetica,sans-Serif" font-size="10.00" fill="#000000">lib/Transform/QModuleQuality</text>
<text text-anchor="middle" x="765" y="-141.5" font-family="Helvetica,sans-Serif" font-size="10.00" fill="#000000">EvalPass.cpp</text>
</a>
</g>
</g>
<!-- Node12&#45;&gt;Node22 -->
<g id="edge10" class="edge">
<title>Node12&#45;&gt;Node22</title>
<path fill="none" stroke="#191970" d="M564.6927,-199.0225C607.8963,-188.3411 662.5982,-174.8171 703.9171,-164.6017"/>
<polygon fill="#191970" stroke="#191970" points="563.6854,-195.6661 554.8177,-201.4639 565.3655,-202.4615 563.6854,-195.6661"/>
</g>
<!-- Node14 -->
<g id="node3" class="node">
<title>Node14</title>
<g id="a_node3"><a xlink:href="../../dc/dea/Allocators_8cpp.xhtml" target="_top" xlink:title="lib/Transform/Allocators\l/Allocators.cpp">
<polygon fill="none" stroke="#000000" points="0,-67.5 0,-97.5 134,-97.5 134,-67.5 0,-67.5"/>
<text text-anchor="start" x="8" y="-85.5" font-family="Helvetica,sans-Serif" font-size="10.00" fill="#000000">lib/Transform/Allocators</text>
<text text-anchor="middle" x="67" y="-74.5" font-family="Helvetica,sans-Serif" font-size="10.00" fill="#000000">/Allocators.cpp</text>
</a>
</g>
</g>
<!-- Node13&#45;&gt;Node14 -->
<g id="edge2" class="edge">
<title>Node13&#45;&gt;Node14</title>
<path fill="none" stroke="#191970" d="M169.4983,-130.1902C147.3144,-119.8685 120.3919,-107.3421 99.7068,-97.7177"/>
<polygon fill="#191970" stroke="#191970" points="168.1404,-133.4187 178.6836,-134.4639 171.0934,-127.072 168.1404,-133.4187"/>
</g>
<!-- Node15 -->
<g id="node4" class="node">
<title>Node15</title>
<g id="a_node4"><a xlink:href="../../dd/d90/IBMQAllocator_8cpp.xhtml" target="_top" xlink:title="lib/Transform/Allocators\l/IBMQAllocator.cpp">
<polygon fill="none" stroke="#000000" points="152,-67.5 152,-97.5 286,-97.5 286,-67.5 152,-67.5"/>
<text text-anchor="start" x="160" y="-85.5" font-family="Helvetica,sans-Serif" font-size="10.00" fill="#000000">lib/Transform/Allocators</text>
<text text-anchor="middle" x="219" y="-74.5" font-family="Helvetica,sans-Serif" font-size="10.00" fill="#000000">/IBMQAllocator.cpp</text>
</a>
</g>
</g>
<!-- Node13&#45;&gt;Node15 -->
<g id="edge3" class="edge">
<title>Node13&#45;&gt;Node15</title>
<path fill="none" stroke="#191970" d="M214.0068,-124.3179C215.0786,-115.3414 216.252,-105.5143 217.1919,-97.6432"/>
<polygon fill="#191970" stroke="#191970" points="210.5257,-123.9522 212.8153,-134.2967 217.4763,-124.7822 210.5257,-123.9522"/>
</g>
<!-- Node17 -->
<g id="node6" class="node">
<title>Node17</title>
<g id="a_node6"><a xlink:href="../../d1/dc9/CNOTLBOWrapperPass_8h.xhtml" target="_top" xlink:title="include/enfield/Transform\l/CNOTLBOWrapperPass.h">
<polygon fill="none" stroke="#000000" points="320,-67.5 320,-97.5 462,-97.5 462,-67.5 320,-67.5"/>
<text text-anchor="start" x="328" y="-85.5" font-family="Helvetica,sans-Serif" font-size="10.00" fill="#000000">include/enfield/Transform</text>
<text text-anchor="middle" x="391" y="-74.5" font-family="Helvetica,sans-Serif" font-size="10.00" fill="#000000">/CNOTLBOWrapperPass.h</text>
</a>
</g>
</g>
<!-- Node16&#45;&gt;Node17 -->
<g id="edge5" class="edge">
<title>Node16&#45;&gt;Node17</title>
<path fill="none" stroke="#191970" d="M395.9932,-124.3179C394.9214,-115.3414 393.748,-105.5143 392.8081,-97.6432"/>
<polygon fill="#191970" stroke="#191970" points="392.5237,-124.7822 397.1847,-134.2967 399.4743,-123.9522 392.5237,-124.7822"/>
</g>
<!-- Node20 -->
<g id="node9" class="node">
<title>Node20</title>
<g id="a_node9"><a xlink:href="../../d7/d43/LayerBasedOrderingWrapperPass_8cpp.xhtml" target="_top" xlink:title="lib/Transform/LayerBased\lOrderingWrapperPass.cpp">
<polygon fill="none" stroke="#000000" points="480.5,-67.5 480.5,-97.5 623.5,-97.5 623.5,-67.5 480.5,-67.5"/>
<text text-anchor="start" x="488.5" y="-85.5" font-family="Helvetica,sans-Serif" font-size="10.00" fill="#000000">lib/Transform/LayerBased</text>
<text text-anchor="middle" x="552" y="-74.5" font-family="Helvetica,sans-Serif" font-size="10.00" fill="#000000">OrderingWrapperPass.cpp</text>
</a>
</g>
</g>
<!-- Node16&#45;&gt;Node20 -->
<g id="edge8" class="edge">
<title>Node16&#45;&gt;Node20</title>
<path fill="none" stroke="#191970" d="M442.4986,-130.4516C466.2762,-120.0392 495.316,-107.3224 517.5141,-97.6017"/>
<polygon fill="#191970" stroke="#191970" points="441.0924,-127.2464 433.3362,-134.4639 443.9004,-133.6586 441.0924,-127.2464"/>
</g>
<!-- Node18 -->
<g id="node7" class="node">
<title>Node18</title>
<g id="a_node7"><a xlink:href="../../d0/d2e/CNOTLBOWrapperPass_8cpp.xhtml" target="_top" xlink:title="lib/Transform/CNOTLBOWrapper\lPass.cpp">
<polygon fill="none" stroke="#000000" points="218.5,-.5 218.5,-30.5 391.5,-30.5 391.5,-.5 218.5,-.5"/>
<text text-anchor="start" x="226.5" y="-18.5" font-family="Helvetica,sans-Serif" font-size="10.00" fill="#000000">lib/Transform/CNOTLBOWrapper</text>
<text text-anchor="middle" x="305" y="-7.5" font-family="Helvetica,sans-Serif" font-size="10.00" fill="#000000">Pass.cpp</text>
</a>
</g>
</g>
<!-- Node17&#45;&gt;Node18 -->
<g id="edge6" class="edge">
<title>Node17&#45;&gt;Node18</title>
<path fill="none" stroke="#191970" d="M363.4855,-61.0643C350.7696,-51.1577 335.9684,-39.6265 324.4375,-30.6432"/>
<polygon fill="#191970" stroke="#191970" points="361.4456,-63.9119 371.4853,-67.2967 365.7477,-58.3899 361.4456,-63.9119"/>
</g>
<!-- Node19 -->
<g id="node8" class="node">
<title>Node19</title>
<g id="a_node8"><a xlink:href="../../df/dd9/Driver_8cpp.xhtml" target="_top" xlink:title="lib/Transform/Driver.cpp">
<polygon fill="none" stroke="#000000" points="409.5,-6 409.5,-25 544.5,-25 544.5,-6 409.5,-6"/>
<text text-anchor="middle" x="477" y="-13" font-family="Helvetica,sans-Serif" font-size="10.00" fill="#000000">lib/Transform/Driver.cpp</text>
</a>
</g>
</g>
<!-- Node17&#45;&gt;Node19 -->
<g id="edge7" class="edge">
<title>Node17&#45;&gt;Node19</title>
<path fill="none" stroke="#191970" d="M418.7552,-60.8767C434.261,-48.7967 452.8048,-34.3498 464.7354,-25.055"/>
<polygon fill="#191970" stroke="#191970" points="416.2523,-58.3899 410.5147,-67.2967 420.5544,-63.9119 416.2523,-58.3899"/>
</g>
</g>
</svg>
