<?xml version="1.0" encoding="UTF-8" standalone="no"?>
<!DOCTYPE svg PUBLIC "-//W3C//DTD SVG 1.1//EN"
 "http://www.w3.org/Graphics/SVG/1.1/DTD/svg11.dtd">
<!-- Generated by graphviz version 2.38.0 (20140413.2041)
 -->
<!-- Title: include/enfield/Transform/Allocators/IdentityMappingFinder.h Pages: 1 -->
<svg width="280pt" height="106pt"
 viewBox="0.00 0.00 280.00 106.00" xmlns="http://www.w3.org/2000/svg" xmlns:xlink="http://www.w3.org/1999/xlink">
<g id="graph0" class="graph" transform="scale(1 1) rotate(0) translate(4 102)">
<title>include/enfield/Transform/Allocators/IdentityMappingFinder.h</title>
<!-- Node31 -->
<g id="node1" class="node"><title>Node31</title>
<polygon fill="#bfbfbf" stroke="black" points="47,-67.5 47,-97.5 217,-97.5 217,-67.5 47,-67.5"/>
<text text-anchor="start" x="55" y="-85.5" font-family="Helvetica,sans-Serif" font-size="10.00">include/enfield/Transform</text>
<text text-anchor="middle" x="132" y="-74.5" font-family="Helvetica,sans-Serif" font-size="10.00">/Allocators/IdentityMappingFinder.h</text>
</g>
<!-- Node32 -->
<g id="node2" class="node"><title>Node32</title>
<g id="a_node2"><a xlink:href="../../dc/dea/Allocators_8cpp.xhtml" target="_top" xlink:title="lib/Transform/Allocators\l/Allocators.cpp">
<polygon fill="none" stroke="black" points="0,-0.5 0,-30.5 120,-30.5 120,-0.5 0,-0.5"/>
<text text-anchor="start" x="8" y="-18.5" font-family="Helvetica,sans-Serif" font-size="10.00">lib/Transform/Allocators</text>
<text text-anchor="middle" x="60" y="-7.5" font-family="Helvetica,sans-Serif" font-size="10.00">/Allocators.cpp</text>
</a>
</g>
</g>
<!-- Node31&#45;&gt;Node32 -->
<g id="edge1" class="edge"><title>Node31&#45;&gt;Node32</title>
<path fill="none" stroke="midnightblue" d="M108.847,-60.5978C97.9751,-50.7831 85.3043,-39.3442 75.5924,-30.5765"/>
<polygon fill="midnightblue" stroke="midnightblue" points="106.609,-63.2929 116.377,-67.396 111.3,-58.097 106.609,-63.2929"/>
</g>
<!-- Node33 -->
<g id="node3" class="node"><title>Node33</title>
<g id="a_node3"><a xlink:href="../../d8/dcc/IdentityMappingFinder_8cpp.xhtml" target="_top" xlink:title="lib/Transform/Allocators\l/IdentityMappingFinder.cpp">
<polygon fill="none" stroke="black" points="138,-0.5 138,-30.5 272,-30.5 272,-0.5 138,-0.5"/>
<text text-anchor="start" x="146" y="-18.5" font-family="Helvetica,sans-Serif" font-size="10.00">lib/Transform/Allocators</text>
<text text-anchor="middle" x="205" y="-7.5" font-family="Helvetica,sans-Serif" font-size="10.00">/IdentityMappingFinder.cpp</text>
</a>
</g>
</g>
<!-- Node31&#45;&gt;Node33 -->
<g id="edge2" class="edge"><title>Node31&#45;&gt;Node33</title>
<path fill="none" stroke="midnightblue" d="M155.475,-60.5978C166.497,-50.7831 179.344,-39.3442 189.191,-30.5765"/>
<polygon fill="midnightblue" stroke="midnightblue" points="152.981,-58.132 147.84,-67.396 157.636,-63.3599 152.981,-58.132"/>
</g>
</g>
</svg>
