<?xml version="1.0" encoding="UTF-8" standalone="no"?>
<!DOCTYPE svg PUBLIC "-//W3C//DTD SVG 1.1//EN"
 "http://www.w3.org/Graphics/SVG/1.1/DTD/svg11.dtd">
<!-- Generated by graphviz version 2.40.1 (20161225.0304)
 -->
<!-- Title: lib/Support/Stats.cpp Pages: 1 -->
<svg width="418pt" height="140pt"
 viewBox="0.00 0.00 417.50 140.00" xmlns="http://www.w3.org/2000/svg" xmlns:xlink="http://www.w3.org/1999/xlink">
<g id="graph0" class="graph" transform="scale(1 1) rotate(0) translate(4 136)">
<title>lib/Support/Stats.cpp</title>
<!-- Node0 -->
<g id="node1" class="node">
<title>Node0</title>
<polygon fill="#bfbfbf" stroke="#000000" points="142.5,-112.5 142.5,-131.5 259.5,-131.5 259.5,-112.5 142.5,-112.5"/>
<text text-anchor="middle" x="201" y="-119.5" font-family="Helvetica,sans-Serif" font-size="10.00" fill="#000000">lib/Support/Stats.cpp</text>
</g>
<!-- Node1 -->
<g id="node2" class="node">
<title>Node1</title>
<g id="a_node2"><a xlink:href="../../dc/d09/Stats_8h.xhtml" target="_top" xlink:title="enfield/Support/Stats.h">
<polygon fill="none" stroke="#000000" points="0,-56.5 0,-75.5 128,-75.5 128,-56.5 0,-56.5"/>
<text text-anchor="middle" x="64" y="-63.5" font-family="Helvetica,sans-Serif" font-size="10.00" fill="#000000">enfield/Support/Stats.h</text>
</a>
</g>
</g>
<!-- Node0&#45;&gt;Node1 -->
<g id="edge1" class="edge">
<title>Node0&#45;&gt;Node1</title>
<path fill="none" stroke="#191970" d="M177.4489,-112.3733C155.1609,-103.2629 121.5063,-89.5062 96.6363,-79.3404"/>
<polygon fill="#191970" stroke="#191970" points="97.8247,-76.0451 87.2438,-75.5011 95.1761,-82.5247 97.8247,-76.0451"/>
</g>
<!-- Node3 -->
<g id="node4" class="node">
<title>Node3</title>
<polygon fill="none" stroke="#bfbfbf" points="80,-.5 80,-19.5 138,-19.5 138,-.5 80,-.5"/>
<text text-anchor="middle" x="109" y="-7.5" font-family="Helvetica,sans-Serif" font-size="10.00" fill="#000000">memory</text>
</g>
<!-- Node0&#45;&gt;Node3 -->
<g id="edge9" class="edge">
<title>Node0&#45;&gt;Node3</title>
<path fill="none" stroke="#191970" d="M193.1561,-112.4509C177.6758,-93.6054 142.9947,-51.3849 123.3273,-27.4419"/>
<polygon fill="#191970" stroke="#191970" points="125.876,-25.0306 116.824,-19.5249 120.4669,-29.4738 125.876,-25.0306"/>
</g>
<!-- Node4 -->
<g id="node5" class="node">
<title>Node4</title>
<g id="a_node5"><a xlink:href="../../d1/d73/Defs_8h.xhtml" target="_top" xlink:title="enfield/Support/Defs.h">
<polygon fill="none" stroke="#000000" points="184.5,-56.5 184.5,-75.5 309.5,-75.5 309.5,-56.5 184.5,-56.5"/>
<text text-anchor="middle" x="247" y="-63.5" font-family="Helvetica,sans-Serif" font-size="10.00" fill="#000000">enfield/Support/Defs.h</text>
</a>
</g>
</g>
<!-- Node0&#45;&gt;Node4 -->
<g id="edge4" class="edge">
<title>Node0&#45;&gt;Node4</title>
<path fill="none" stroke="#191970" d="M209.0126,-112.2455C215.4768,-104.3761 224.7385,-93.101 232.4983,-83.6542"/>
<polygon fill="#191970" stroke="#191970" points="235.4364,-85.5916 239.0792,-75.6427 230.0273,-81.1484 235.4364,-85.5916"/>
</g>
<!-- Node9 -->
<g id="node10" class="node">
<title>Node9</title>
<polygon fill="none" stroke="#bfbfbf" points="328,-56.5 328,-75.5 366,-75.5 366,-56.5 328,-56.5"/>
<text text-anchor="middle" x="347" y="-63.5" font-family="Helvetica,sans-Serif" font-size="10.00" fill="#000000">map</text>
</g>
<!-- Node0&#45;&gt;Node9 -->
<g id="edge10" class="edge">
<title>Node0&#45;&gt;Node9</title>
<path fill="none" stroke="#191970" d="M226.0983,-112.3733C251.6906,-102.557 291.3459,-87.3468 318.2012,-77.0461"/>
<polygon fill="#191970" stroke="#191970" points="319.7277,-80.2093 327.8111,-73.3601 317.2209,-73.6736 319.7277,-80.2093"/>
</g>
<!-- Node2 -->
<g id="node3" class="node">
<title>Node2</title>
<polygon fill="none" stroke="#bfbfbf" points="2,-.5 2,-19.5 62,-19.5 62,-.5 2,-.5"/>
<text text-anchor="middle" x="32" y="-7.5" font-family="Helvetica,sans-Serif" font-size="10.00" fill="#000000">iostream</text>
</g>
<!-- Node1&#45;&gt;Node2 -->
<g id="edge2" class="edge">
<title>Node1&#45;&gt;Node2</title>
<path fill="none" stroke="#191970" d="M58.426,-56.2455C54.0669,-48.617 47.8789,-37.7881 42.5867,-28.5267"/>
<polygon fill="#191970" stroke="#191970" points="45.5104,-26.5886 37.5101,-19.6427 39.4327,-30.0616 45.5104,-26.5886"/>
</g>
<!-- Node1&#45;&gt;Node3 -->
<g id="edge3" class="edge">
<title>Node1&#45;&gt;Node3</title>
<path fill="none" stroke="#191970" d="M71.8384,-56.2455C78.162,-48.3761 87.2224,-37.101 94.8136,-27.6542"/>
<polygon fill="#191970" stroke="#191970" points="97.7158,-29.6302 101.2514,-19.6427 92.2592,-25.2454 97.7158,-29.6302"/>
</g>
<!-- Node5 -->
<g id="node6" class="node">
<title>Node5</title>
<polygon fill="none" stroke="#bfbfbf" points="156.5,-.5 156.5,-19.5 203.5,-19.5 203.5,-.5 156.5,-.5"/>
<text text-anchor="middle" x="180" y="-7.5" font-family="Helvetica,sans-Serif" font-size="10.00" fill="#000000">vector</text>
</g>
<!-- Node4&#45;&gt;Node5 -->
<g id="edge5" class="edge">
<title>Node4&#45;&gt;Node5</title>
<path fill="none" stroke="#191970" d="M235.3295,-56.2455C225.4339,-47.9746 211.0373,-35.9416 199.4099,-26.2232"/>
<polygon fill="#191970" stroke="#191970" points="201.4542,-23.3703 191.5368,-19.6427 196.965,-28.7413 201.4542,-23.3703"/>
</g>
<!-- Node6 -->
<g id="node7" class="node">
<title>Node6</title>
<polygon fill="none" stroke="#bfbfbf" points="222,-.5 222,-19.5 272,-19.5 272,-.5 222,-.5"/>
<text text-anchor="middle" x="247" y="-7.5" font-family="Helvetica,sans-Serif" font-size="10.00" fill="#000000">cstdint</text>
</g>
<!-- Node4&#45;&gt;Node6 -->
<g id="edge6" class="edge">
<title>Node4&#45;&gt;Node6</title>
<path fill="none" stroke="#191970" d="M247,-56.2455C247,-48.9382 247,-38.6944 247,-29.7046"/>
<polygon fill="#191970" stroke="#191970" points="250.5001,-29.6426 247,-19.6427 243.5001,-29.6427 250.5001,-29.6426"/>
</g>
<!-- Node7 -->
<g id="node8" class="node">
<title>Node7</title>
<polygon fill="none" stroke="#bfbfbf" points="290,-.5 290,-19.5 334,-19.5 334,-.5 290,-.5"/>
<text text-anchor="middle" x="312" y="-7.5" font-family="Helvetica,sans-Serif" font-size="10.00" fill="#000000">limits</text>
</g>
<!-- Node4&#45;&gt;Node7 -->
<g id="edge7" class="edge">
<title>Node4&#45;&gt;Node7</title>
<path fill="none" stroke="#191970" d="M258.3221,-56.2455C267.9223,-47.9746 281.8892,-35.9416 293.1695,-26.2232"/>
<polygon fill="#191970" stroke="#191970" points="295.516,-28.8214 300.8076,-19.6427 290.947,-23.5182 295.516,-28.8214"/>
</g>
<!-- Node8 -->
<g id="node9" class="node">
<title>Node8</title>
<polygon fill="none" stroke="#bfbfbf" points="352.5,-.5 352.5,-19.5 409.5,-19.5 409.5,-.5 352.5,-.5"/>
<text text-anchor="middle" x="381" y="-7.5" font-family="Helvetica,sans-Serif" font-size="10.00" fill="#000000">ostream</text>
</g>
<!-- Node4&#45;&gt;Node8 -->
<g id="edge8" class="edge">
<title>Node4&#45;&gt;Node8</title>
<path fill="none" stroke="#191970" d="M270.0354,-56.3733C291.7388,-47.3032 324.4618,-33.6279 348.755,-23.4755"/>
<polygon fill="#191970" stroke="#191970" points="350.3881,-26.5865 358.2652,-19.5011 347.6889,-20.1278 350.3881,-26.5865"/>
</g>
</g>
</svg>
