<?xml version="1.0" encoding="UTF-8" standalone="no"?>
<!DOCTYPE svg PUBLIC "-//W3C//DTD SVG 1.1//EN"
 "http://www.w3.org/Graphics/SVG/1.1/DTD/svg11.dtd">
<!-- Generated by graphviz version 2.38.0 (20140413.2041)
 -->
<!-- Title: efd::ArchVerifierPass Pages: 1 -->
<svg width="155pt" height="219pt"
 viewBox="0.00 0.00 154.50 219.00" xmlns="http://www.w3.org/2000/svg" xmlns:xlink="http://www.w3.org/1999/xlink">
<g id="graph0" class="graph" transform="scale(1 1) rotate(0) translate(4 215)">
<title>efd::ArchVerifierPass</title>
<!-- Node4 -->
<g id="node1" class="node"><title>Node4</title>
<polygon fill="#bfbfbf" stroke="black" points="0,-0.5 0,-19.5 110,-19.5 110,-0.5 0,-0.5"/>
<text text-anchor="middle" x="55" y="-7.5" font-family="Helvetica,sans-Serif" font-size="10.00">efd::ArchVerifierPass</text>
</g>
<!-- Node5 -->
<g id="node2" class="node"><title>Node5</title>
<g id="a_node2"><a xlink:href="../../db/d56/classefd_1_1PassT.xhtml" target="_top" xlink:title="efd::PassT\&lt; bool \&gt;">
<polygon fill="none" stroke="black" points="4.5,-57.5 4.5,-76.5 105.5,-76.5 105.5,-57.5 4.5,-57.5"/>
<text text-anchor="middle" x="55" y="-64.5" font-family="Helvetica,sans-Serif" font-size="10.00">efd::PassT&lt; bool &gt;</text>
</a>
</g>
</g>
<!-- Node5&#45;&gt;Node4 -->
<g id="edge1" class="edge"><title>Node5&#45;&gt;Node4</title>
<path fill="none" stroke="midnightblue" d="M55,-47.1166C55,-37.8173 55,-27.0557 55,-19.7149"/>
<polygon fill="midnightblue" stroke="midnightblue" points="51.5001,-47.4062 55,-57.4062 58.5001,-47.4063 51.5001,-47.4062"/>
</g>
<!-- Node6 -->
<g id="node3" class="node"><title>Node6</title>
<g id="a_node3"><a xlink:href="../../d0/d98/classefd_1_1Pass.xhtml" target="_top" xlink:title="Base class for implementation of QModule passes. This information will be used when the QModule&#39;s fun...">
<polygon fill="none" stroke="black" points="5.5,-191.5 5.5,-210.5 64.5,-210.5 64.5,-191.5 5.5,-191.5"/>
<text text-anchor="middle" x="35" y="-198.5" font-family="Helvetica,sans-Serif" font-size="10.00">efd::Pass</text>
</a>
</g>
</g>
<!-- Node6&#45;&gt;Node5 -->
<g id="edge2" class="edge"><title>Node6&#45;&gt;Node5</title>
<path fill="none" stroke="midnightblue" d="M37.8371,-181.275C42.2354,-152.246 50.5245,-97.5381 53.7089,-76.5212"/>
<polygon fill="midnightblue" stroke="midnightblue" points="34.3499,-180.928 36.3123,-191.339 41.2709,-181.976 34.3499,-180.928"/>
</g>
<!-- Node7 -->
<g id="node4" class="node"><title>Node7</title>
<g id="a_node4"><a xlink:href="../../db/d56/classefd_1_1PassT.xhtml" target="_top" xlink:title="Should serve as base class for classes that produces some data of type T. ">
<polygon fill="none" stroke="black" points="57.5,-124.5 57.5,-143.5 146.5,-143.5 146.5,-124.5 57.5,-124.5"/>
<text text-anchor="middle" x="102" y="-131.5" font-family="Helvetica,sans-Serif" font-size="10.00">efd::PassT&lt; T &gt;</text>
</a>
</g>
</g>
<!-- Node6&#45;&gt;Node7 -->
<g id="edge4" class="edge"><title>Node6&#45;&gt;Node7</title>
<path fill="none" stroke="midnightblue" d="M51.4956,-183.997C64.635,-171.25 82.5239,-153.895 93.1072,-143.627"/>
<polygon fill="midnightblue" stroke="midnightblue" points="48.7762,-181.759 44.0359,-191.234 53.6504,-186.783 48.7762,-181.759"/>
</g>
<!-- Node7&#45;&gt;Node5 -->
<g id="edge3" class="edge"><title>Node7&#45;&gt;Node5</title>
<path fill="none" stroke="orange" stroke-dasharray="5,2" d="M89.6381,-115.904C80.505,-103.273 68.4522,-86.6041 61.2382,-76.6273"/>
<polygon fill="orange" stroke="orange" points="86.9656,-118.181 95.6614,-124.234 92.6381,-114.079 86.9656,-118.181"/>
<text text-anchor="middle" x="102" y="-98" font-family="Helvetica,sans-Serif" font-size="10.00"> &lt; bool &gt;</text>
</g>
<!-- Node8 -->
<g id="node5" class="node"><title>Node8</title>
<polygon fill="none" stroke="#bfbfbf" points="87.5,-191.5 87.5,-210.5 116.5,-210.5 116.5,-191.5 87.5,-191.5"/>
<text text-anchor="middle" x="102" y="-198.5" font-family="Helvetica,sans-Serif" font-size="10.00">T</text>
</g>
<!-- Node8&#45;&gt;Node7 -->
<g id="edge5" class="edge"><title>Node8&#45;&gt;Node7</title>
<path fill="none" stroke="#9a32cd" stroke-dasharray="5,2" d="M102,-181.037C102,-168.67 102,-153.12 102,-143.627"/>
<polygon fill="#9a32cd" stroke="#9a32cd" points="98.5001,-181.234 102,-191.234 105.5,-181.234 98.5001,-181.234"/>
<text text-anchor="middle" x="118.5" y="-165" font-family="Helvetica,sans-Serif" font-size="10.00"> mData</text>
</g>
</g>
</svg>
