<?xml version="1.0" encoding="UTF-8" standalone="no"?>
<!DOCTYPE svg PUBLIC "-//W3C//DTD SVG 1.1//EN"
 "http://www.w3.org/Graphics/SVG/1.1/DTD/svg11.dtd">
<!-- Generated by graphviz version 2.40.1 (20161225.0304)
 -->
<!-- Title: include/enfield/Transform/Allocators/DynprogQAllocator.h Pages: 1 -->
<!--zoomable 531 -->
<svg id="main" version="1.1" xmlns="http://www.w3.org/2000/svg" xmlns:xlink="http://www.w3.org/1999/xlink" xml:space="preserve" onload="init(evt)">
<style type="text/css"><![CDATA[
.edge:hover path { stroke: red; }
.edge:hover polygon { stroke: red; fill: red; }
]]></style>
<script type="text/javascript"><![CDATA[
var edges = document.getElementsByTagName('g');
if (edges && edges.length) {
  for (var i=0;i<edges.length;i++) {
    if (edges[i].id.substr(0,4)=='edge') {
      edges[i].setAttribute('class','edge');
    }
  }
}
]]></script>
        <defs>
                <circle id="rim" cx="0" cy="0" r="7"/>
                <circle id="rim2" cx="0" cy="0" r="3.5"/>
                <g id="zoomPlus">
                        <use xlink:href="#rim" fill="#404040">
                                <set attributeName="fill" to="#808080" begin="zoomplus.mouseover" end="zoomplus.mouseout"/>
                        </use>
                        <path d="M-4,0h8M0,-4v8" fill="none" stroke="white" stroke-width="1.5" pointer-events="none"/>
                </g>
                <g id="zoomMin">
                        <use xlink:href="#rim" fill="#404040">
                                <set attributeName="fill" to="#808080" begin="zoomminus.mouseover" end="zoomminus.mouseout"/>
                        </use>
                        <path d="M-4,0h8" fill="none" stroke="white" stroke-width="1.5" pointer-events="none"/>
                </g>
                <g id="dirArrow">
                        <path fill="none" stroke="white" stroke-width="1.5" d="M0,-3.0v7 M-2.5,-0.5L0,-3.0L2.5,-0.5"/>
                </g>
               <g id="resetDef">
                       <use xlink:href="#rim2" fill="#404040">
                               <set attributeName="fill" to="#808080" begin="reset.mouseover" end="reset.mouseout"/>
                       </use>
               </g>
        </defs>

<script type="text/javascript">
var viewWidth = 1396;
var viewHeight = 531;
var sectionId = 'dynsection-0';
</script>
<script xlink:href="../../svgpan.js"/>
<svg id="graph" class="graph">
<g id="viewport">
<title>include/enfield/Transform/Allocators/DynprogQAllocator.h</title>
<!-- Node0 -->
<g id="node1" class="node">
<title>Node0</title>
<polygon fill="#bfbfbf" stroke="#000000" points="986.5,-492.5 986.5,-522.5 1159.5,-522.5 1159.5,-492.5 986.5,-492.5"/>
<text text-anchor="start" x="994.5" y="-510.5" font-family="Helvetica,sans-Serif" font-size="10.00" fill="#000000">include/enfield/Transform</text>
<text text-anchor="middle" x="1073" y="-499.5" font-family="Helvetica,sans-Serif" font-size="10.00" fill="#000000">/Allocators/DynprogQAllocator.h</text>
</g>
<!-- Node1 -->
<g id="node2" class="node">
<title>Node1</title>
<g id="a_node2"><a xlink:href="../../d2/dc7/StdSolutionQAllocator_8h.xhtml" target="_top" xlink:title="enfield/Transform/Allocators\l/StdSolutionQAllocator.h">
<polygon fill="none" stroke="#000000" points="995.5,-425.5 995.5,-455.5 1150.5,-455.5 1150.5,-425.5 995.5,-425.5"/>
<text text-anchor="start" x="1003.5" y="-443.5" font-family="Helvetica,sans-Serif" font-size="10.00" fill="#000000">enfield/Transform/Allocators</text>
<text text-anchor="middle" x="1073" y="-432.5" font-family="Helvetica,sans-Serif" font-size="10.00" fill="#000000">/StdSolutionQAllocator.h</text>
</a>
</g>
</g>
<!-- Node0&#45;&gt;Node1 -->
<g id="edge1" class="edge">
<title>Node0&#45;&gt;Node1</title>
<path fill="none" stroke="#191970" d="M1073,-492.2967C1073,-484.5013 1073,-474.7991 1073,-465.9064"/>
<polygon fill="#191970" stroke="#191970" points="1076.5001,-465.6431 1073,-455.6432 1069.5001,-465.6432 1076.5001,-465.6431"/>
</g>
<!-- Node7 -->
<g id="node8" class="node">
<title>Node7</title>
<polygon fill="none" stroke="#bfbfbf" points="903.5,-112.5 903.5,-131.5 996.5,-131.5 996.5,-112.5 903.5,-112.5"/>
<text text-anchor="middle" x="950" y="-119.5" font-family="Helvetica,sans-Serif" font-size="10.00" fill="#000000">unordered_map</text>
</g>
<!-- Node0&#45;&gt;Node7 -->
<g id="edge54" class="edge">
<title>Node0&#45;&gt;Node7</title>
<path fill="none" stroke="#191970" d="M1142.9087,-492.4919C1235.7103,-470.5151 1388,-426.3927 1388,-373.5 1388,-373.5 1388,-373.5 1388,-239.5 1388,-139.2206 1270.8443,-194.0217 1174,-168 1143.1396,-159.7079 1062.5154,-143.6548 1006.9164,-132.8803"/>
<polygon fill="#191970" stroke="#191970" points="1007.3263,-129.3948 996.8437,-130.933 1005.9975,-136.2676 1007.3263,-129.3948"/>
</g>
<!-- Node11 -->
<g id="node12" class="node">
<title>Node11</title>
<polygon fill="none" stroke="#bfbfbf" points="355,-.5 355,-19.5 399,-19.5 399,-.5 355,-.5"/>
<text text-anchor="middle" x="377" y="-7.5" font-family="Helvetica,sans-Serif" font-size="10.00" fill="#000000">string</text>
</g>
<!-- Node0&#45;&gt;Node11 -->
<g id="edge55" class="edge">
<title>Node0&#45;&gt;Node11</title>
<path fill="none" stroke="#191970" d="M986.1008,-505.7364C730.6565,-499.4092 0,-472.6458 0,-373.5 0,-373.5 0,-373.5 0,-122 0,-50.3287 253.5377,-20.8867 344.7761,-12.6121"/>
<polygon fill="#191970" stroke="#191970" points="345.1699,-16.091 354.8244,-11.7274 344.556,-9.118 345.1699,-16.091"/>
</g>
<!-- Node2 -->
<g id="node3" class="node">
<title>Node2</title>
<g id="a_node3"><a xlink:href="../../dd/d3b/QbitAllocator_8h.xhtml" target="_top" xlink:title="enfield/Transform/Allocators\l/QbitAllocator.h">
<polygon fill="none" stroke="#000000" points="995.5,-358.5 995.5,-388.5 1150.5,-388.5 1150.5,-358.5 995.5,-358.5"/>
<text text-anchor="start" x="1003.5" y="-376.5" font-family="Helvetica,sans-Serif" font-size="10.00" fill="#000000">enfield/Transform/Allocators</text>
<text text-anchor="middle" x="1073" y="-365.5" font-family="Helvetica,sans-Serif" font-size="10.00" fill="#000000">/QbitAllocator.h</text>
</a>
</g>
</g>
<!-- Node1&#45;&gt;Node2 -->
<g id="edge2" class="edge">
<title>Node1&#45;&gt;Node2</title>
<path fill="none" stroke="#191970" d="M1073,-425.2967C1073,-417.5013 1073,-407.7991 1073,-398.9064"/>
<polygon fill="#191970" stroke="#191970" points="1076.5001,-398.6431 1073,-388.6432 1069.5001,-398.6432 1076.5001,-398.6431"/>
</g>
<!-- Node3 -->
<g id="node4" class="node">
<title>Node3</title>
<g id="a_node4"><a xlink:href="../../d7/d9d/ArchGraph_8h.xhtml" target="_top" xlink:title="enfield/Arch/ArchGraph.h">
<polygon fill="none" stroke="#000000" points="1184,-230 1184,-249 1322,-249 1322,-230 1184,-230"/>
<text text-anchor="middle" x="1253" y="-237" font-family="Helvetica,sans-Serif" font-size="10.00" fill="#000000">enfield/Arch/ArchGraph.h</text>
</a>
</g>
</g>
<!-- Node2&#45;&gt;Node3 -->
<g id="edge3" class="edge">
<title>Node2&#45;&gt;Node3</title>
<path fill="none" stroke="#191970" d="M1093.2984,-358.389C1127.7108,-332.7709 1197.1535,-281.0746 1232.0215,-255.1174"/>
<polygon fill="#191970" stroke="#191970" points="1234.1675,-257.8831 1240.0989,-249.1042 1229.9875,-252.2682 1234.1675,-257.8831"/>
</g>
<!-- Node15 -->
<g id="node16" class="node">
<title>Node15</title>
<g id="a_node16"><a xlink:href="../../d9/dcf/DependencyBuilderPass_8h.xhtml" target="_top" xlink:title="enfield/Transform/Dependency\lBuilderPass.h">
<polygon fill="none" stroke="#000000" points="892.5,-291.5 892.5,-321.5 1059.5,-321.5 1059.5,-291.5 892.5,-291.5"/>
<text text-anchor="start" x="900.5" y="-309.5" font-family="Helvetica,sans-Serif" font-size="10.00" fill="#000000">enfield/Transform/Dependency</text>
<text text-anchor="middle" x="976" y="-298.5" font-family="Helvetica,sans-Serif" font-size="10.00" fill="#000000">BuilderPass.h</text>
</a>
</g>
</g>
<!-- Node2&#45;&gt;Node15 -->
<g id="edge17" class="edge">
<title>Node2&#45;&gt;Node15</title>
<path fill="none" stroke="#191970" d="M1050.9892,-358.2967C1037.843,-349.2163 1020.9513,-337.5488 1006.529,-327.587"/>
<polygon fill="#191970" stroke="#191970" points="1008.1409,-324.4467 997.9237,-321.6432 1004.1626,-330.2063 1008.1409,-324.4467"/>
</g>
<!-- Node20 -->
<g id="node21" class="node">
<title>Node20</title>
<g id="a_node21"><a xlink:href="../../d9/d41/CommandLine_8h.xhtml" target="_top" xlink:title="enfield/Support/CommandLine.h">
<polygon fill="none" stroke="#000000" points="328.5,-297 328.5,-316 501.5,-316 501.5,-297 328.5,-297"/>
<text text-anchor="middle" x="415" y="-304" font-family="Helvetica,sans-Serif" font-size="10.00" fill="#000000">enfield/Support/CommandLine.h</text>
</a>
</g>
</g>
<!-- Node2&#45;&gt;Node20 -->
<g id="edge37" class="edge">
<title>Node2&#45;&gt;Node20</title>
<path fill="none" stroke="#191970" d="M995.2598,-365.5842C874.6989,-353.3082 642.898,-329.7054 511.7054,-316.3469"/>
<polygon fill="#191970" stroke="#191970" points="511.9636,-312.8552 501.6604,-315.3241 511.2544,-319.8192 511.9636,-312.8552"/>
</g>
<!-- Node29 -->
<g id="node30" class="node">
<title>Node29</title>
<g id="a_node30"><a xlink:href="../../dc/d09/Stats_8h.xhtml" target="_top" xlink:title="enfield/Support/Stats.h">
<polygon fill="none" stroke="#000000" points="1208,-112.5 1208,-131.5 1336,-131.5 1336,-112.5 1208,-112.5"/>
<text text-anchor="middle" x="1272" y="-119.5" font-family="Helvetica,sans-Serif" font-size="10.00" fill="#000000">enfield/Support/Stats.h</text>
</a>
</g>
</g>
<!-- Node2&#45;&gt;Node29 -->
<g id="edge51" class="edge">
<title>Node2&#45;&gt;Node29</title>
<path fill="none" stroke="#191970" d="M1150.6822,-360.8865C1211.2773,-346.5236 1291.5603,-316.5156 1331,-255 1355.9583,-216.0717 1315.0521,-164.808 1289.7168,-138.7568"/>
<polygon fill="#191970" stroke="#191970" points="1292.0024,-136.0936 1282.4442,-131.5229 1287.0659,-141.0566 1292.0024,-136.0936"/>
</g>
<!-- Node4 -->
<g id="node5" class="node">
<title>Node4</title>
<g id="a_node5"><a xlink:href="../../d7/d16/Graph_8h.xhtml" target="_top" xlink:title="enfield/Support/Graph.h">
<polygon fill="none" stroke="#000000" points="709,-168.5 709,-187.5 841,-187.5 841,-168.5 709,-168.5"/>
<text text-anchor="middle" x="775" y="-175.5" font-family="Helvetica,sans-Serif" font-size="10.00" fill="#000000">enfield/Support/Graph.h</text>
</a>
</g>
</g>
<!-- Node3&#45;&gt;Node4 -->
<g id="edge4" class="edge">
<title>Node3&#45;&gt;Node4</title>
<path fill="none" stroke="#191970" d="M1183.7501,-230.5902C1095.3424,-219.2156 942.8876,-199.6006 851.2459,-187.8099"/>
<polygon fill="#191970" stroke="#191970" points="851.5676,-184.3225 841.2027,-186.5177 850.6743,-191.2653 851.5676,-184.3225"/>
</g>
<!-- Node9 -->
<g id="node10" class="node">
<title>Node9</title>
<g id="a_node10"><a xlink:href="../../d4/daf/Nodes_8h.xhtml" target="_top" xlink:title="enfield/Analysis/Nodes.h">
<polygon fill="none" stroke="#000000" points="1014.5,-112.5 1014.5,-131.5 1151.5,-131.5 1151.5,-112.5 1014.5,-112.5"/>
<text text-anchor="middle" x="1083" y="-119.5" font-family="Helvetica,sans-Serif" font-size="10.00" fill="#000000">enfield/Analysis/Nodes.h</text>
</a>
</g>
</g>
<!-- Node3&#45;&gt;Node9 -->
<g id="edge9" class="edge">
<title>Node3&#45;&gt;Node9</title>
<path fill="none" stroke="#191970" d="M1252.4528,-229.719C1251.0701,-214.4302 1246.194,-184.8767 1229,-168 1215.7813,-155.0252 1173.6703,-142.5416 1138.0506,-133.8612"/>
<polygon fill="#191970" stroke="#191970" points="1138.7443,-130.4286 1128.2055,-131.5165 1137.1225,-137.2382 1138.7443,-130.4286"/>
</g>
<!-- Node5 -->
<g id="node6" class="node">
<title>Node5</title>
<polygon fill="none" stroke="#bfbfbf" points="713,-112.5 713,-131.5 745,-131.5 745,-112.5 713,-112.5"/>
<text text-anchor="middle" x="729" y="-119.5" font-family="Helvetica,sans-Serif" font-size="10.00" fill="#000000">set</text>
</g>
<!-- Node4&#45;&gt;Node5 -->
<g id="edge5" class="edge">
<title>Node4&#45;&gt;Node5</title>
<path fill="none" stroke="#191970" d="M766.9874,-168.2455C760.5232,-160.3761 751.2615,-149.101 743.5017,-139.6542"/>
<polygon fill="#191970" stroke="#191970" points="745.9727,-137.1484 736.9208,-131.6427 740.5636,-141.5916 745.9727,-137.1484"/>
</g>
<!-- Node6 -->
<g id="node7" class="node">
<title>Node6</title>
<polygon fill="none" stroke="#bfbfbf" points="429.5,-56.5 429.5,-75.5 476.5,-75.5 476.5,-56.5 429.5,-56.5"/>
<text text-anchor="middle" x="453" y="-63.5" font-family="Helvetica,sans-Serif" font-size="10.00" fill="#000000">vector</text>
</g>
<!-- Node4&#45;&gt;Node6 -->
<g id="edge6" class="edge">
<title>Node4&#45;&gt;Node6</title>
<path fill="none" stroke="#191970" d="M774.9206,-168.2081C774.2319,-153.5785 770.6362,-126.2184 754,-112 714.3426,-78.1062 556.922,-69.1324 486.8939,-66.7998"/>
<polygon fill="#191970" stroke="#191970" points="486.9307,-63.2994 476.8279,-66.4906 486.7157,-70.2961 486.9307,-63.2994"/>
</g>
<!-- Node4&#45;&gt;Node7 -->
<g id="edge7" class="edge">
<title>Node4&#45;&gt;Node7</title>
<path fill="none" stroke="#191970" d="M805.0836,-168.3733C834.1834,-159.0613 878.4523,-144.8953 910.403,-134.671"/>
<polygon fill="#191970" stroke="#191970" points="911.8515,-137.8824 920.309,-131.5011 909.718,-131.2155 911.8515,-137.8824"/>
</g>
<!-- Node8 -->
<g id="node9" class="node">
<title>Node8</title>
<polygon fill="none" stroke="#bfbfbf" points="743,-56.5 743,-75.5 801,-75.5 801,-56.5 743,-56.5"/>
<text text-anchor="middle" x="772" y="-63.5" font-family="Helvetica,sans-Serif" font-size="10.00" fill="#000000">memory</text>
</g>
<!-- Node4&#45;&gt;Node8 -->
<g id="edge8" class="edge">
<title>Node4&#45;&gt;Node8</title>
<path fill="none" stroke="#191970" d="M778.8839,-168.1833C783.4939,-155.3113 790.1806,-132.0132 787,-112 785.5699,-103.0016 782.6588,-93.3703 779.7784,-85.2579"/>
<polygon fill="#191970" stroke="#191970" points="782.9537,-83.7599 776.1368,-75.6493 776.408,-86.2407 782.9537,-83.7599"/>
</g>
<!-- Node9&#45;&gt;Node6 -->
<g id="edge15" class="edge">
<title>Node9&#45;&gt;Node6</title>
<path fill="none" stroke="#191970" d="M1014.1159,-113.0003C1011.0365,-112.6511 1007.9869,-112.3158 1005,-112 808.9994,-91.2795 573.0286,-74.2527 486.7135,-68.2861"/>
<polygon fill="#191970" stroke="#191970" points="486.9246,-64.7925 476.7079,-67.5978 486.4441,-71.7759 486.9246,-64.7925"/>
</g>
<!-- Node9&#45;&gt;Node8 -->
<g id="edge16" class="edge">
<title>Node9&#45;&gt;Node8</title>
<path fill="none" stroke="#191970" d="M1016.2028,-112.4696C963.1173,-104.5009 886.793,-92.1687 811.5249,-76.1904"/>
<polygon fill="#191970" stroke="#191970" points="811.9071,-72.6928 801.3953,-74.0162 810.4381,-79.5369 811.9071,-72.6928"/>
</g>
<!-- Node10 -->
<g id="node11" class="node">
<title>Node10</title>
<g id="a_node11"><a xlink:href="../../d1/d2e/WrapperVal_8h.xhtml" target="_top" xlink:title="enfield/Support/WrapperVal.h">
<polygon fill="none" stroke="#000000" points="1064,-56.5 1064,-75.5 1224,-75.5 1224,-56.5 1064,-56.5"/>
<text text-anchor="middle" x="1144" y="-63.5" font-family="Helvetica,sans-Serif" font-size="10.00" fill="#000000">enfield/Support/WrapperVal.h</text>
</a>
</g>
</g>
<!-- Node9&#45;&gt;Node10 -->
<g id="edge10" class="edge">
<title>Node9&#45;&gt;Node10</title>
<path fill="none" stroke="#191970" d="M1093.6254,-112.2455C1102.5473,-104.0549 1115.488,-92.1749 1126.0192,-82.5069"/>
<polygon fill="#191970" stroke="#191970" points="1128.4968,-84.9837 1133.4964,-75.6427 1123.7629,-79.8271 1128.4968,-84.9837"/>
</g>
<!-- Node12 -->
<g id="node13" class="node">
<title>Node12</title>
<g id="a_node13"><a xlink:href="../../d5/dfc/RTTI_8h.xhtml" target="_top" xlink:title="enfield/Support/RTTI.h">
<polygon fill="none" stroke="#000000" points="920.5,-56.5 920.5,-75.5 1045.5,-75.5 1045.5,-56.5 920.5,-56.5"/>
<text text-anchor="middle" x="983" y="-63.5" font-family="Helvetica,sans-Serif" font-size="10.00" fill="#000000">enfield/Support/RTTI.h</text>
</a>
</g>
</g>
<!-- Node9&#45;&gt;Node12 -->
<g id="edge12" class="edge">
<title>Node9&#45;&gt;Node12</title>
<path fill="none" stroke="#191970" d="M1065.5813,-112.2455C1049.9515,-103.4928 1026.7981,-90.527 1008.9815,-80.5496"/>
<polygon fill="#191970" stroke="#191970" points="1010.6543,-77.475 1000.2191,-75.6427 1007.234,-83.5825 1010.6543,-77.475"/>
</g>
<!-- Node13 -->
<g id="node14" class="node">
<title>Node13</title>
<polygon fill="none" stroke="#bfbfbf" points="819.5,-56.5 819.5,-75.5 902.5,-75.5 902.5,-56.5 819.5,-56.5"/>
<text text-anchor="middle" x="861" y="-63.5" font-family="Helvetica,sans-Serif" font-size="10.00" fill="#000000">initializer_list</text>
</g>
<!-- Node9&#45;&gt;Node13 -->
<g id="edge13" class="edge">
<title>Node9&#45;&gt;Node13</title>
<path fill="none" stroke="#191970" d="M1045.0891,-112.4369C1007.335,-102.9133 949.2735,-88.2672 908.4736,-77.9753"/>
<polygon fill="#191970" stroke="#191970" points="909.3069,-74.576 898.7546,-75.5237 907.5947,-81.3633 909.3069,-74.576"/>
</g>
<!-- Node14 -->
<g id="node15" class="node">
<title>Node14</title>
<polygon fill="none" stroke="#bfbfbf" points="1242,-56.5 1242,-75.5 1302,-75.5 1302,-56.5 1242,-56.5"/>
<text text-anchor="middle" x="1272" y="-63.5" font-family="Helvetica,sans-Serif" font-size="10.00" fill="#000000">iostream</text>
</g>
<!-- Node9&#45;&gt;Node14 -->
<g id="edge14" class="edge">
<title>Node9&#45;&gt;Node14</title>
<path fill="none" stroke="#191970" d="M1115.4903,-112.3733C1147.7666,-102.8099 1197.3219,-88.1268 1232.0004,-77.8517"/>
<polygon fill="#191970" stroke="#191970" points="1233.2105,-81.1437 1241.8042,-74.9469 1231.2218,-74.4321 1233.2105,-81.1437"/>
</g>
<!-- Node10&#45;&gt;Node11 -->
<g id="edge11" class="edge">
<title>Node10&#45;&gt;Node11</title>
<path fill="none" stroke="#191970" d="M1063.5466,-56.8881C1060.3234,-56.5777 1057.1317,-56.2802 1054,-56 806.3173,-33.8355 506.8024,-16.9476 409.3312,-11.7041"/>
<polygon fill="#191970" stroke="#191970" points="409.4073,-8.2033 399.2346,-11.1639 409.0333,-15.1933 409.4073,-8.2033"/>
</g>
<!-- Node15&#45;&gt;Node5 -->
<g id="edge36" class="edge">
<title>Node15&#45;&gt;Node5</title>
<path fill="none" stroke="#191970" d="M916.3806,-291.4534C872.7394,-280.0622 817.5382,-264.7605 796,-255 745.9188,-232.3046 718.3241,-236.2727 692,-188 682.7998,-171.1289 696.1966,-151.9875 709.3688,-138.6796"/>
<polygon fill="#191970" stroke="#191970" points="712.0345,-140.9776 716.926,-131.5796 707.2414,-135.876 712.0345,-140.9776"/>
</g>
<!-- Node15&#45;&gt;Node6 -->
<g id="edge35" class="edge">
<title>Node15&#45;&gt;Node6</title>
<path fill="none" stroke="#191970" d="M892.3703,-296.0823C819.4829,-286.2245 719.8429,-270.6451 683,-255 587.9131,-214.6219 501.096,-122.0763 467.6032,-83.4431"/>
<polygon fill="#191970" stroke="#191970" points="470.0974,-80.9745 460.9385,-75.6486 464.7771,-85.5237 470.0974,-80.9745"/>
</g>
<!-- Node15&#45;&gt;Node7 -->
<g id="edge33" class="edge">
<title>Node15&#45;&gt;Node7</title>
<path fill="none" stroke="#191970" d="M1007.0981,-291.3482C1065.1618,-262.0839 1182.115,-198.0308 1158,-168 1153.1842,-162.0028 1066.7744,-144.3716 1006.8609,-132.7614"/>
<polygon fill="#191970" stroke="#191970" points="1007.2317,-129.2685 996.7497,-130.8103 1005.9054,-136.1417 1007.2317,-129.2685"/>
</g>
<!-- Node15&#45;&gt;Node9 -->
<g id="edge18" class="edge">
<title>Node15&#45;&gt;Node9</title>
<path fill="none" stroke="#191970" d="M1037.3556,-291.4297C1086.8303,-275.3598 1151.7129,-244.2369 1174,-188 1183.9697,-162.8436 1156.4459,-145.5766 1129.1178,-135.0324"/>
<polygon fill="#191970" stroke="#191970" points="1130.1159,-131.6719 1119.5214,-131.5813 1127.747,-138.2589 1130.1159,-131.6719"/>
</g>
<!-- Node16 -->
<g id="node17" class="node">
<title>Node16</title>
<g id="a_node17"><a xlink:href="../../df/d29/Pass_8h.xhtml" target="_top" xlink:title="enfield/Transform/Pass.h">
<polygon fill="none" stroke="#000000" points="557,-112.5 557,-131.5 695,-131.5 695,-112.5 557,-112.5"/>
<text text-anchor="middle" x="626" y="-119.5" font-family="Helvetica,sans-Serif" font-size="10.00" fill="#000000">enfield/Transform/Pass.h</text>
</a>
</g>
</g>
<!-- Node15&#45;&gt;Node16 -->
<g id="edge19" class="edge">
<title>Node15&#45;&gt;Node16</title>
<path fill="none" stroke="#191970" d="M892.4195,-296.5769C828.6754,-287.7637 747.1821,-273.4307 719,-255 675.7374,-226.7068 646.7183,-170.6558 633.7475,-141.1657"/>
<polygon fill="#191970" stroke="#191970" points="636.8205,-139.4469 629.6982,-131.6033 630.3746,-142.1765 636.8205,-139.4469"/>
</g>
<!-- Node17 -->
<g id="node18" class="node">
<title>Node17</title>
<g id="a_node18"><a xlink:href="../../d4/d73/QModule_8h.xhtml" target="_top" xlink:title="enfield/Transform/QModule.h">
<polygon fill="none" stroke="#000000" points="897,-168.5 897,-187.5 1055,-187.5 1055,-168.5 897,-168.5"/>
<text text-anchor="middle" x="976" y="-175.5" font-family="Helvetica,sans-Serif" font-size="10.00" fill="#000000">enfield/Transform/QModule.h</text>
</a>
</g>
</g>
<!-- Node15&#45;&gt;Node17 -->
<g id="edge21" class="edge">
<title>Node15&#45;&gt;Node17</title>
<path fill="none" stroke="#191970" d="M976,-291.2548C976,-267.9744 976,-223.5607 976,-197.8117"/>
<polygon fill="#191970" stroke="#191970" points="979.5001,-197.7358 976,-187.7358 972.5001,-197.7358 979.5001,-197.7358"/>
</g>
<!-- Node18 -->
<g id="node19" class="node">
<title>Node18</title>
<g id="a_node19"><a xlink:href="../../d6/d94/XbitToNumberPass_8h.xhtml" target="_top" xlink:title="enfield/Transform/XbitTo\lNumberPass.h">
<polygon fill="none" stroke="#000000" points="805,-224.5 805,-254.5 943,-254.5 943,-224.5 805,-224.5"/>
<text text-anchor="start" x="813" y="-242.5" font-family="Helvetica,sans-Serif" font-size="10.00" fill="#000000">enfield/Transform/XbitTo</text>
<text text-anchor="middle" x="874" y="-231.5" font-family="Helvetica,sans-Serif" font-size="10.00" fill="#000000">NumberPass.h</text>
</a>
</g>
</g>
<!-- Node15&#45;&gt;Node18 -->
<g id="edge25" class="edge">
<title>Node15&#45;&gt;Node18</title>
<path fill="none" stroke="#191970" d="M953.1092,-291.4639C939.1648,-282.3044 921.1433,-270.4667 905.8238,-260.4038"/>
<polygon fill="#191970" stroke="#191970" points="907.447,-257.2826 897.1673,-254.7177 903.6039,-263.1333 907.447,-257.2826"/>
</g>
<!-- Node19 -->
<g id="node20" class="node">
<title>Node19</title>
<polygon fill="none" stroke="#bfbfbf" points="1111,-168.5 1111,-187.5 1149,-187.5 1149,-168.5 1111,-168.5"/>
<text text-anchor="middle" x="1130" y="-175.5" font-family="Helvetica,sans-Serif" font-size="10.00" fill="#000000">map</text>
</g>
<!-- Node15&#45;&gt;Node19 -->
<g id="edge34" class="edge">
<title>Node15&#45;&gt;Node19</title>
<path fill="none" stroke="#191970" d="M994.2706,-291.2548C1023.4219,-266.9305 1080.2228,-219.5349 1110.2689,-194.464"/>
<polygon fill="#191970" stroke="#191970" points="1112.8964,-196.8299 1118.3322,-187.7358 1108.4117,-191.4552 1112.8964,-196.8299"/>
</g>
<!-- Node16&#45;&gt;Node8 -->
<g id="edge20" class="edge">
<title>Node16&#45;&gt;Node8</title>
<path fill="none" stroke="#191970" d="M651.0983,-112.3733C674.9555,-103.2226 711.0335,-89.3844 737.571,-79.2057"/>
<polygon fill="#191970" stroke="#191970" points="739.1459,-82.3503 747.2292,-75.5011 736.639,-75.8145 739.1459,-82.3503"/>
</g>
<!-- Node17&#45;&gt;Node7 -->
<g id="edge24" class="edge">
<title>Node17&#45;&gt;Node7</title>
<path fill="none" stroke="#191970" d="M971.4711,-168.2455C967.9666,-160.6973 963.0073,-150.0158 958.7377,-140.8197"/>
<polygon fill="#191970" stroke="#191970" points="961.8627,-139.2389 954.477,-131.6427 955.5136,-142.1867 961.8627,-139.2389"/>
</g>
<!-- Node17&#45;&gt;Node9 -->
<g id="edge22" class="edge">
<title>Node17&#45;&gt;Node9</title>
<path fill="none" stroke="#191970" d="M994.638,-168.2455C1011.4386,-159.4527 1036.3634,-146.4079 1055.4618,-136.4125"/>
<polygon fill="#191970" stroke="#191970" points="1057.3386,-139.3807 1064.5756,-131.6427 1054.0927,-133.1787 1057.3386,-139.3807"/>
</g>
<!-- Node17&#45;&gt;Node16 -->
<g id="edge23" class="edge">
<title>Node17&#45;&gt;Node16</title>
<path fill="none" stroke="#191970" d="M916.2305,-168.4369C855.0723,-158.6516 760.114,-143.4582 695.605,-133.1368"/>
<polygon fill="#191970" stroke="#191970" points="695.9503,-129.6476 685.5229,-131.5237 694.8444,-136.5597 695.9503,-129.6476"/>
</g>
<!-- Node18&#45;&gt;Node5 -->
<g id="edge31" class="edge">
<title>Node18&#45;&gt;Node5</title>
<path fill="none" stroke="#191970" d="M804.9991,-227.7659C762.1956,-218.9219 712.9609,-205.3528 700,-188 688.8558,-173.0795 700.4638,-153.2065 712.14,-139.1788"/>
<polygon fill="#191970" stroke="#191970" points="714.7925,-141.4632 718.8511,-131.6766 709.5753,-136.7961 714.7925,-141.4632"/>
</g>
<!-- Node18&#45;&gt;Node6 -->
<g id="edge30" class="edge">
<title>Node18&#45;&gt;Node6</title>
<path fill="none" stroke="#191970" d="M804.8348,-226.3519C763.3586,-217.5324 709.9227,-204.5099 664,-188 610.1269,-168.6319 597.4389,-160.8657 548,-132 521.3501,-116.44 492.4649,-95.78 473.6298,-81.7488"/>
<polygon fill="#191970" stroke="#191970" points="475.5827,-78.8382 465.486,-75.6277 471.3769,-84.4339 475.5827,-78.8382"/>
</g>
<!-- Node18&#45;&gt;Node7 -->
<g id="edge29" class="edge">
<title>Node18&#45;&gt;Node7</title>
<path fill="none" stroke="#191970" d="M873.8631,-224.3841C874.3968,-209.0622 877.1322,-185.2225 888,-168 896.2305,-154.9569 909.5886,-144.3453 921.8018,-136.6147"/>
<polygon fill="#191970" stroke="#191970" points="923.5958,-139.62 930.4028,-131.5011 920.0186,-133.603 923.5958,-139.62"/>
</g>
<!-- Node18&#45;&gt;Node9 -->
<g id="edge28" class="edge">
<title>Node18&#45;&gt;Node9</title>
<path fill="none" stroke="#191970" d="M943.1893,-228.0853C990.1409,-219.0072 1046.7085,-205.0237 1064,-188 1076.3231,-175.8677 1080.7816,-156.299 1082.3313,-141.6137"/>
<polygon fill="#191970" stroke="#191970" points="1085.8296,-141.7583 1083.0315,-131.5397 1078.8465,-141.2729 1085.8296,-141.7583"/>
</g>
<!-- Node18&#45;&gt;Node16 -->
<g id="edge26" class="edge">
<title>Node18&#45;&gt;Node16</title>
<path fill="none" stroke="#191970" d="M804.5716,-228.5094C769.1564,-220.8155 726.4126,-208.1897 692,-188 670.7358,-175.5245 651.4356,-154.5667 639.2753,-139.6149"/>
<polygon fill="#191970" stroke="#191970" points="641.9144,-137.3089 632.9796,-131.6151 636.4135,-141.638 641.9144,-137.3089"/>
</g>
<!-- Node18&#45;&gt;Node17 -->
<g id="edge27" class="edge">
<title>Node18&#45;&gt;Node17</title>
<path fill="none" stroke="#191970" d="M898.952,-224.4554C914.9259,-214.8241 935.5602,-202.3828 951.4543,-192.7996"/>
<polygon fill="#191970" stroke="#191970" points="953.437,-195.6912 960.1936,-187.5303 949.8226,-189.6965 953.437,-195.6912"/>
</g>
<!-- Node18&#45;&gt;Node19 -->
<g id="edge32" class="edge">
<title>Node18&#45;&gt;Node19</title>
<path fill="none" stroke="#191970" d="M943.1097,-224.7973C987.3041,-215.0855 1045.7457,-201.6676 1097,-188 1098.2689,-187.6616 1099.5627,-187.3078 1100.8678,-186.9437"/>
<polygon fill="#191970" stroke="#191970" points="1102.2427,-190.1889 1110.8675,-184.0357 1100.288,-183.4674 1102.2427,-190.1889"/>
</g>
<!-- Node20&#45;&gt;Node6 -->
<g id="edge49" class="edge">
<title>Node20&#45;&gt;Node6</title>
<path fill="none" stroke="#191970" d="M415.6096,-296.6871C417.5199,-267.9992 424.1681,-181.8929 439,-112 440.8796,-103.1425 443.6798,-93.5327 446.283,-85.3983"/>
<polygon fill="#191970" stroke="#191970" points="449.6598,-86.3357 449.4977,-75.7421 443.0181,-84.1246 449.6598,-86.3357"/>
</g>
<!-- Node20&#45;&gt;Node8 -->
<g id="edge50" class="edge">
<title>Node20&#45;&gt;Node8</title>
<path fill="none" stroke="#191970" d="M418.5059,-296.8784C430.7309,-264.7863 474.7614,-160.6967 548,-112 577.8156,-92.1754 676.8198,-77.4507 732.7115,-70.481"/>
<polygon fill="#191970" stroke="#191970" points="733.4487,-73.9171 742.9507,-69.2308 732.6002,-66.9687 733.4487,-73.9171"/>
</g>
<!-- Node20&#45;&gt;Node11 -->
<g id="edge48" class="edge">
<title>Node20&#45;&gt;Node11</title>
<path fill="none" stroke="#191970" d="M410.0322,-296.7942C399.7318,-275.7416 377,-224.0628 377,-178 377,-178 377,-178 377,-122 377,-89.7116 377,-52.1872 377,-29.8048"/>
<polygon fill="#191970" stroke="#191970" points="380.5001,-29.5883 377,-19.5884 373.5001,-29.5884 380.5001,-29.5883"/>
</g>
<!-- Node21 -->
<g id="node22" class="node">
<title>Node21</title>
<g id="a_node22"><a xlink:href="../../d1/d5e/PossibleValuesListTrait_8h.xhtml" target="_top" xlink:title="enfield/Support/Possible\lValuesListTrait.h">
<polygon fill="none" stroke="#000000" points="198,-224.5 198,-254.5 332,-254.5 332,-224.5 198,-224.5"/>
<text text-anchor="start" x="206" y="-242.5" font-family="Helvetica,sans-Serif" font-size="10.00" fill="#000000">enfield/Support/Possible</text>
<text text-anchor="middle" x="265" y="-231.5" font-family="Helvetica,sans-Serif" font-size="10.00" fill="#000000">ValuesListTrait.h</text>
</a>
</g>
</g>
<!-- Node20&#45;&gt;Node21 -->
<g id="edge38" class="edge">
<title>Node20&#45;&gt;Node21</title>
<path fill="none" stroke="#191970" d="M393.5087,-296.9005C371.2377,-286.9528 335.8318,-271.1382 307.8181,-258.6254"/>
<polygon fill="#191970" stroke="#191970" points="309.1888,-255.4044 298.6308,-254.5218 306.334,-261.7958 309.1888,-255.4044"/>
</g>
<!-- Node22 -->
<g id="node23" class="node">
<title>Node22</title>
<g id="a_node23"><a xlink:href="../../dd/d62/EnumString_8h.xhtml" target="_top" xlink:title="enfield/Support/EnumString.h">
<polygon fill="none" stroke="#000000" points="168.5,-168.5 168.5,-187.5 327.5,-187.5 327.5,-168.5 168.5,-168.5"/>
<text text-anchor="middle" x="248" y="-175.5" font-family="Helvetica,sans-Serif" font-size="10.00" fill="#000000">enfield/Support/EnumString.h</text>
</a>
</g>
</g>
<!-- Node21&#45;&gt;Node22 -->
<g id="edge39" class="edge">
<title>Node21&#45;&gt;Node22</title>
<path fill="none" stroke="#191970" d="M260.7978,-224.2977C258.5609,-216.2055 255.7851,-206.1639 253.391,-197.5029"/>
<polygon fill="#191970" stroke="#191970" points="256.7598,-196.5529 250.7219,-187.8469 250.0128,-198.418 256.7598,-196.5529"/>
</g>
<!-- Node22&#45;&gt;Node6 -->
<g id="edge45" class="edge">
<title>Node22&#45;&gt;Node6</title>
<path fill="none" stroke="#191970" d="M265.4782,-168.4509C301.4852,-148.7788 384.1121,-103.6363 426.642,-80.4005"/>
<polygon fill="#191970" stroke="#191970" points="428.4685,-83.3909 435.5661,-75.5249 425.1123,-77.248 428.4685,-83.3909"/>
</g>
<!-- Node23 -->
<g id="node24" class="node">
<title>Node23</title>
<g id="a_node24"><a xlink:href="../../d1/d73/Defs_8h.xhtml" target="_top" xlink:title="enfield/Support/Defs.h">
<polygon fill="none" stroke="#000000" points="185.5,-112.5 185.5,-131.5 310.5,-131.5 310.5,-112.5 185.5,-112.5"/>
<text text-anchor="middle" x="248" y="-119.5" font-family="Helvetica,sans-Serif" font-size="10.00" fill="#000000">enfield/Support/Defs.h</text>
</a>
</g>
</g>
<!-- Node22&#45;&gt;Node23 -->
<g id="edge40" class="edge">
<title>Node22&#45;&gt;Node23</title>
<path fill="none" stroke="#191970" d="M248,-168.2455C248,-160.9382 248,-150.6944 248,-141.7046"/>
<polygon fill="#191970" stroke="#191970" points="251.5001,-141.6426 248,-131.6427 244.5001,-141.6427 251.5001,-141.6426"/>
</g>
<!-- Node27 -->
<g id="node28" class="node">
<title>Node27</title>
<polygon fill="none" stroke="#bfbfbf" points="28,-112.5 28,-131.5 92,-131.5 92,-112.5 28,-112.5"/>
<text text-anchor="middle" x="60" y="-119.5" font-family="Helvetica,sans-Serif" font-size="10.00" fill="#000000">algorithm</text>
</g>
<!-- Node22&#45;&gt;Node27 -->
<g id="edge46" class="edge">
<title>Node22&#45;&gt;Node27</title>
<path fill="none" stroke="#191970" d="M215.6816,-168.3733C184.1494,-158.9807 136.0379,-144.6496 101.6499,-134.4064"/>
<polygon fill="#191970" stroke="#191970" points="102.4797,-131.0016 91.8966,-131.5011 100.4813,-137.7103 102.4797,-131.0016"/>
</g>
<!-- Node28 -->
<g id="node29" class="node">
<title>Node28</title>
<polygon fill="none" stroke="#bfbfbf" points="110.5,-112.5 110.5,-131.5 167.5,-131.5 167.5,-112.5 110.5,-112.5"/>
<text text-anchor="middle" x="139" y="-119.5" font-family="Helvetica,sans-Serif" font-size="10.00" fill="#000000">typeinfo</text>
</g>
<!-- Node22&#45;&gt;Node28 -->
<g id="edge47" class="edge">
<title>Node22&#45;&gt;Node28</title>
<path fill="none" stroke="#191970" d="M229.0136,-168.2455C211.8208,-159.4125 186.2762,-146.2887 166.7868,-136.2758"/>
<polygon fill="#191970" stroke="#191970" points="168.263,-133.0993 157.7688,-131.6427 165.0641,-139.3257 168.263,-133.0993"/>
</g>
<!-- Node23&#45;&gt;Node6 -->
<g id="edge41" class="edge">
<title>Node23&#45;&gt;Node6</title>
<path fill="none" stroke="#191970" d="M283.2408,-112.3733C321.4342,-101.9399 381.9346,-85.413 419.4528,-75.1641"/>
<polygon fill="#191970" stroke="#191970" points="420.6635,-78.4617 429.3878,-72.4502 418.8189,-71.7091 420.6635,-78.4617"/>
</g>
<!-- Node24 -->
<g id="node25" class="node">
<title>Node24</title>
<polygon fill="none" stroke="#bfbfbf" points="295,-56.5 295,-75.5 345,-75.5 345,-56.5 295,-56.5"/>
<text text-anchor="middle" x="320" y="-63.5" font-family="Helvetica,sans-Serif" font-size="10.00" fill="#000000">cstdint</text>
</g>
<!-- Node23&#45;&gt;Node24 -->
<g id="edge42" class="edge">
<title>Node23&#45;&gt;Node24</title>
<path fill="none" stroke="#191970" d="M260.5414,-112.2455C271.2787,-103.8943 286.9473,-91.7076 299.5047,-81.9408"/>
<polygon fill="#191970" stroke="#191970" points="301.8575,-84.5449 307.6023,-75.6427 297.5599,-79.0194 301.8575,-84.5449"/>
</g>
<!-- Node25 -->
<g id="node26" class="node">
<title>Node25</title>
<polygon fill="none" stroke="#bfbfbf" points="157,-56.5 157,-75.5 201,-75.5 201,-56.5 157,-56.5"/>
<text text-anchor="middle" x="179" y="-63.5" font-family="Helvetica,sans-Serif" font-size="10.00" fill="#000000">limits</text>
</g>
<!-- Node23&#45;&gt;Node25 -->
<g id="edge43" class="edge">
<title>Node23&#45;&gt;Node25</title>
<path fill="none" stroke="#191970" d="M235.9811,-112.2455C225.7902,-103.9746 210.9638,-91.9416 198.9893,-82.2232"/>
<polygon fill="#191970" stroke="#191970" points="200.8514,-79.2268 190.8812,-75.6427 196.4402,-84.662 200.8514,-79.2268"/>
</g>
<!-- Node26 -->
<g id="node27" class="node">
<title>Node26</title>
<polygon fill="none" stroke="#bfbfbf" points="219.5,-56.5 219.5,-75.5 276.5,-75.5 276.5,-56.5 219.5,-56.5"/>
<text text-anchor="middle" x="248" y="-63.5" font-family="Helvetica,sans-Serif" font-size="10.00" fill="#000000">ostream</text>
</g>
<!-- Node23&#45;&gt;Node26 -->
<g id="edge44" class="edge">
<title>Node23&#45;&gt;Node26</title>
<path fill="none" stroke="#191970" d="M248,-112.2455C248,-104.9382 248,-94.6944 248,-85.7046"/>
<polygon fill="#191970" stroke="#191970" points="251.5001,-85.6426 248,-75.6427 244.5001,-85.6427 251.5001,-85.6426"/>
</g>
<!-- Node29&#45;&gt;Node8 -->
<g id="edge53" class="edge">
<title>Node29&#45;&gt;Node8</title>
<path fill="none" stroke="#191970" d="M1207.8716,-116.1831C1097.0659,-106.0532 876.1081,-85.4805 811.532,-75.8763"/>
<polygon fill="#191970" stroke="#191970" points="811.7891,-72.3721 801.3559,-74.2156 810.6616,-79.2807 811.7891,-72.3721"/>
</g>
<!-- Node29&#45;&gt;Node14 -->
<g id="edge52" class="edge">
<title>Node29&#45;&gt;Node14</title>
<path fill="none" stroke="#191970" d="M1272,-112.2455C1272,-104.9382 1272,-94.6944 1272,-85.7046"/>
<polygon fill="#191970" stroke="#191970" points="1275.5001,-85.6426 1272,-75.6427 1268.5001,-85.6427 1275.5001,-85.6426"/>
</g>
</g>
</svg>
        <g id="navigator" transform="translate(0 0)" fill="#404254">
                <rect fill="#f2f5e9" fill-opacity="0.5" stroke="#606060" stroke-width=".5" x="0" y="0" width="60" height="60"/>
                <use id="zoomplus" xlink:href="#zoomPlus" x="17" y="9" onmousedown="handleZoom(evt,'in')"/>
                <use id="zoomminus" xlink:href="#zoomMin" x="42" y="9" onmousedown="handleZoom(evt,'out')"/>
                <use id="reset" xlink:href="#resetDef" x="30" y="36" onmousedown="handleReset()"/>
                <g id="arrowUp" xlink:href="#dirArrow" transform="translate(30 24)" onmousedown="handlePan(0,-1)">
                  <use xlink:href="#rim" fill="#404040">
                        <set attributeName="fill" to="#808080" begin="arrowUp.mouseover" end="arrowUp.mouseout"/>
                  </use>
                  <path fill="none" stroke="white" stroke-width="1.5" d="M0,-3.0v7 M-2.5,-0.5L0,-3.0L2.5,-0.5"/>
                </g>
                <g id="arrowRight" xlink:href="#dirArrow" transform="rotate(90) translate(36 -43)" onmousedown="handlePan(1,0)">
                  <use xlink:href="#rim" fill="#404040">
                        <set attributeName="fill" to="#808080" begin="arrowRight.mouseover" end="arrowRight.mouseout"/>
                  </use>
                  <path fill="none" stroke="white" stroke-width="1.5" d="M0,-3.0v7 M-2.5,-0.5L0,-3.0L2.5,-0.5"/>
                </g>
                <g id="arrowDown" xlink:href="#dirArrow" transform="rotate(180) translate(-30 -48)" onmousedown="handlePan(0,1)">
                  <use xlink:href="#rim" fill="#404040">
                        <set attributeName="fill" to="#808080" begin="arrowDown.mouseover" end="arrowDown.mouseout"/>
                  </use>
                  <path fill="none" stroke="white" stroke-width="1.5" d="M0,-3.0v7 M-2.5,-0.5L0,-3.0L2.5,-0.5"/>
                </g>
                <g id="arrowLeft" xlink:href="#dirArrow" transform="rotate(270) translate(-36 17)" onmousedown="handlePan(-1,0)">
                  <use xlink:href="#rim" fill="#404040">
                        <set attributeName="fill" to="#808080" begin="arrowLeft.mouseover" end="arrowLeft.mouseout"/>
                  </use>
                  <path fill="none" stroke="white" stroke-width="1.5" d="M0,-3.0v7 M-2.5,-0.5L0,-3.0L2.5,-0.5"/>
                </g>
        </g>
        <svg viewBox="0 0 15 15" width="100%" height="30px" preserveAspectRatio="xMaxYMin meet">
         <g id="arrow_out" transform="scale(0.3 0.3)">
          <a xlink:href="DynprogQAllocator_8h__incl_org.svg" target="_base">
           <rect id="button" ry="5" rx="5" y="6" x="6" height="38" width="38"
                fill="#f2f5e9" fill-opacity="0.5" stroke="#606060" stroke-width="1.0"/>
           <path id="arrow"
             d="M 11.500037,31.436501 C 11.940474,20.09759 22.043105,11.32322 32.158766,21.979434 L 37.068811,17.246167 C 37.068811,17.246167 37.088388,32 37.088388,32 L 22.160133,31.978069 C 22.160133,31.978069 26.997745,27.140456 26.997745,27.140456 C 18.528582,18.264221 13.291696,25.230495 11.500037,31.436501 z"
             style="fill:#404040;"/>
          </a>
         </g>
        </svg>
</svg>
