<?xml version="1.0" encoding="UTF-8" standalone="no"?>
<!DOCTYPE svg PUBLIC "-//W3C//DTD SVG 1.1//EN"
 "http://www.w3.org/Graphics/SVG/1.1/DTD/svg11.dtd">
<!-- Generated by graphviz version 2.40.1 (20161225.0304)
 -->
<!-- Title: lib/Analysis/Nodes.cpp Pages: 1 -->
<!--zoomable 252 -->
<svg id="main" version="1.1" xmlns="http://www.w3.org/2000/svg" xmlns:xlink="http://www.w3.org/1999/xlink" xml:space="preserve" onload="init(evt)">
<style type="text/css"><![CDATA[
.edge:hover path { stroke: red; }
.edge:hover polygon { stroke: red; fill: red; }
]]></style>
<script type="text/javascript"><![CDATA[
var edges = document.getElementsByTagName('g');
if (edges && edges.length) {
  for (var i=0;i<edges.length;i++) {
    if (edges[i].id.substr(0,4)=='edge') {
      edges[i].setAttribute('class','edge');
    }
  }
}
]]></script>
        <defs>
                <circle id="rim" cx="0" cy="0" r="7"/>
                <circle id="rim2" cx="0" cy="0" r="3.5"/>
                <g id="zoomPlus">
                        <use xlink:href="#rim" fill="#404040">
                                <set attributeName="fill" to="#808080" begin="zoomplus.mouseover" end="zoomplus.mouseout"/>
                        </use>
                        <path d="M-4,0h8M0,-4v8" fill="none" stroke="white" stroke-width="1.5" pointer-events="none"/>
                </g>
                <g id="zoomMin">
                        <use xlink:href="#rim" fill="#404040">
                                <set attributeName="fill" to="#808080" begin="zoomminus.mouseover" end="zoomminus.mouseout"/>
                        </use>
                        <path d="M-4,0h8" fill="none" stroke="white" stroke-width="1.5" pointer-events="none"/>
                </g>
                <g id="dirArrow">
                        <path fill="none" stroke="white" stroke-width="1.5" d="M0,-3.0v7 M-2.5,-0.5L0,-3.0L2.5,-0.5"/>
                </g>
               <g id="resetDef">
                       <use xlink:href="#rim2" fill="#404040">
                               <set attributeName="fill" to="#808080" begin="reset.mouseover" end="reset.mouseout"/>
                       </use>
               </g>
        </defs>

<script type="text/javascript">
var viewWidth = 839;
var viewHeight = 252;
var sectionId = 'dynsection-0';
</script>
<script xlink:href="../../svgpan.js"/>
<svg id="graph" class="graph">
<g id="viewport">
<title>lib/Analysis/Nodes.cpp</title>
<!-- Node0 -->
<g id="node1" class="node">
<title>Node0</title>
<polygon fill="#bfbfbf" stroke="#000000" points="404,-224.5 404,-243.5 531,-243.5 531,-224.5 404,-224.5"/>
<text text-anchor="middle" x="467.5" y="-231.5" font-family="Helvetica,sans-Serif" font-size="10.00" fill="#000000">lib/Analysis/Nodes.cpp</text>
</g>
<!-- Node1 -->
<g id="node2" class="node">
<title>Node1</title>
<g id="a_node2"><a xlink:href="../../d4/daf/Nodes_8h.xhtml" target="_top" xlink:title="enfield/Analysis/Nodes.h">
<polygon fill="none" stroke="#000000" points="306,-112.5 306,-131.5 443,-131.5 443,-112.5 306,-112.5"/>
<text text-anchor="middle" x="374.5" y="-119.5" font-family="Helvetica,sans-Serif" font-size="10.00" fill="#000000">enfield/Analysis/Nodes.h</text>
</a>
</g>
</g>
<!-- Node0&#45;&gt;Node1 -->
<g id="edge1" class="edge">
<title>Node0&#45;&gt;Node1</title>
<path fill="none" stroke="#191970" d="M403.6493,-225.7989C358.5118,-218.5383 303.6198,-206.2326 289.5,-188 272.3133,-165.8072 304.5755,-146.9313 334.1654,-135.1228"/>
<polygon fill="#191970" stroke="#191970" points="335.5022,-138.3591 343.6125,-131.5419 333.0211,-131.8136 335.5022,-138.3591"/>
</g>
<!-- Node4 -->
<g id="node5" class="node">
<title>Node4</title>
<g id="a_node5"><a xlink:href="../../d5/dfc/RTTI_8h.xhtml" target="_top" xlink:title="enfield/Support/RTTI.h">
<polygon fill="none" stroke="#000000" points="0,-56.5 0,-75.5 125,-75.5 125,-56.5 0,-56.5"/>
<text text-anchor="middle" x="62.5" y="-63.5" font-family="Helvetica,sans-Serif" font-size="10.00" fill="#000000">enfield/Support/RTTI.h</text>
</a>
</g>
</g>
<!-- Node0&#45;&gt;Node4 -->
<g id="edge11" class="edge">
<title>Node0&#45;&gt;Node4</title>
<path fill="none" stroke="#191970" d="M413.0076,-224.4981C375.2894,-216.9685 324.3638,-204.8899 281.5,-188 205.7763,-158.1622 123.82,-106.8146 85.1453,-81.3053"/>
<polygon fill="#191970" stroke="#191970" points="86.9691,-78.3149 76.7038,-75.6928 83.0934,-84.1441 86.9691,-78.3149"/>
</g>
<!-- Node9 -->
<g id="node10" class="node">
<title>Node9</title>
<g id="a_node10"><a xlink:href="../../d0/d8d/NodeVisitor_8h.xhtml" target="_top" xlink:title="enfield/Analysis/NodeVisitor.h">
<polygon fill="none" stroke="#000000" points="298.5,-168.5 298.5,-187.5 462.5,-187.5 462.5,-168.5 298.5,-168.5"/>
<text text-anchor="middle" x="380.5" y="-175.5" font-family="Helvetica,sans-Serif" font-size="10.00" fill="#000000">enfield/Analysis/NodeVisitor.h</text>
</a>
</g>
</g>
<!-- Node0&#45;&gt;Node9 -->
<g id="edge9" class="edge">
<title>Node0&#45;&gt;Node9</title>
<path fill="none" stroke="#191970" d="M452.3458,-224.2455C438.9973,-215.6534 419.3414,-203.0014 403.9617,-193.1018"/>
<polygon fill="#191970" stroke="#191970" points="405.7836,-190.1121 395.4806,-187.6427 401.9949,-195.9982 405.7836,-190.1121"/>
</g>
<!-- Node10 -->
<g id="node11" class="node">
<title>Node10</title>
<g id="a_node11"><a xlink:href="../../dc/d09/uRefCast_8h.xhtml" target="_top" xlink:title="enfield/Support/uRefCast.h">
<polygon fill="none" stroke="#000000" points="481,-168.5 481,-187.5 628,-187.5 628,-168.5 481,-168.5"/>
<text text-anchor="middle" x="554.5" y="-175.5" font-family="Helvetica,sans-Serif" font-size="10.00" fill="#000000">enfield/Support/uRefCast.h</text>
</a>
</g>
</g>
<!-- Node0&#45;&gt;Node10 -->
<g id="edge12" class="edge">
<title>Node0&#45;&gt;Node10</title>
<path fill="none" stroke="#191970" d="M482.6542,-224.2455C496.0027,-215.6534 515.6586,-203.0014 531.0383,-193.1018"/>
<polygon fill="#191970" stroke="#191970" points="533.0051,-195.9982 539.5194,-187.6427 529.2164,-190.1121 533.0051,-195.9982"/>
</g>
<!-- Node11 -->
<g id="node12" class="node">
<title>Node11</title>
<g id="a_node12"><a xlink:href="../../d1/d73/Defs_8h.xhtml" target="_top" xlink:title="enfield/Support/Defs.h">
<polygon fill="none" stroke="#000000" points="606,-112.5 606,-131.5 731,-131.5 731,-112.5 606,-112.5"/>
<text text-anchor="middle" x="668.5" y="-119.5" font-family="Helvetica,sans-Serif" font-size="10.00" fill="#000000">enfield/Support/Defs.h</text>
</a>
</g>
</g>
<!-- Node0&#45;&gt;Node11 -->
<g id="edge21" class="edge">
<title>Node0&#45;&gt;Node11</title>
<path fill="none" stroke="#191970" d="M521.7653,-224.4513C564.5859,-215.9971 619.9311,-202.7372 637.5,-188 651.7044,-176.085 659.8022,-156.2023 664.1316,-141.3679"/>
<polygon fill="#191970" stroke="#191970" points="667.5309,-142.2027 666.6515,-131.6444 660.7547,-140.4465 667.5309,-142.2027"/>
</g>
<!-- Node16 -->
<g id="node17" class="node">
<title>Node16</title>
<polygon fill="none" stroke="#bfbfbf" points="684.5,-168.5 684.5,-187.5 748.5,-187.5 748.5,-168.5 684.5,-168.5"/>
<text text-anchor="middle" x="716.5" y="-175.5" font-family="Helvetica,sans-Serif" font-size="10.00" fill="#000000">algorithm</text>
</g>
<!-- Node0&#45;&gt;Node16 -->
<g id="edge22" class="edge">
<title>Node0&#45;&gt;Node16</title>
<path fill="none" stroke="#191970" d="M510.0217,-224.4369C555.9936,-214.0978 628.8106,-197.7213 674.5561,-187.4332"/>
<polygon fill="#191970" stroke="#191970" points="675.4591,-190.8176 684.4474,-185.2086 673.9231,-183.9882 675.4591,-190.8176"/>
</g>
<!-- Node2 -->
<g id="node3" class="node">
<title>Node2</title>
<g id="a_node3"><a xlink:href="../../d1/d2e/WrapperVal_8h.xhtml" target="_top" xlink:title="enfield/Support/WrapperVal.h">
<polygon fill="none" stroke="#000000" points="143.5,-56.5 143.5,-75.5 303.5,-75.5 303.5,-56.5 143.5,-56.5"/>
<text text-anchor="middle" x="223.5" y="-63.5" font-family="Helvetica,sans-Serif" font-size="10.00" fill="#000000">enfield/Support/WrapperVal.h</text>
</a>
</g>
</g>
<!-- Node1&#45;&gt;Node2 -->
<g id="edge2" class="edge">
<title>Node1&#45;&gt;Node2</title>
<path fill="none" stroke="#191970" d="M348.5422,-112.3733C323.7593,-103.1822 286.2254,-89.2624 258.746,-79.0713"/>
<polygon fill="#191970" stroke="#191970" points="259.7121,-75.6968 249.1191,-75.5011 257.2781,-82.26 259.7121,-75.6968"/>
</g>
<!-- Node1&#45;&gt;Node4 -->
<g id="edge4" class="edge">
<title>Node1&#45;&gt;Node4</title>
<path fill="none" stroke="#191970" d="M321.2198,-112.4369C267.0382,-102.712 183.0969,-87.6456 125.6159,-77.3285"/>
<polygon fill="#191970" stroke="#191970" points="126.0215,-73.8454 115.5605,-75.5237 124.7848,-80.7353 126.0215,-73.8454"/>
</g>
<!-- Node5 -->
<g id="node6" class="node">
<title>Node5</title>
<polygon fill="none" stroke="#bfbfbf" points="322,-56.5 322,-75.5 405,-75.5 405,-56.5 322,-56.5"/>
<text text-anchor="middle" x="363.5" y="-63.5" font-family="Helvetica,sans-Serif" font-size="10.00" fill="#000000">initializer_list</text>
</g>
<!-- Node1&#45;&gt;Node5 -->
<g id="edge5" class="edge">
<title>Node1&#45;&gt;Node5</title>
<path fill="none" stroke="#191970" d="M372.5839,-112.2455C371.1486,-104.9382 369.1364,-94.6944 367.3705,-85.7046"/>
<polygon fill="#191970" stroke="#191970" points="370.756,-84.7805 365.3941,-75.6427 363.8873,-86.1298 370.756,-84.7805"/>
</g>
<!-- Node6 -->
<g id="node7" class="node">
<title>Node6</title>
<polygon fill="none" stroke="#bfbfbf" points="423.5,-56.5 423.5,-75.5 483.5,-75.5 483.5,-56.5 423.5,-56.5"/>
<text text-anchor="middle" x="453.5" y="-63.5" font-family="Helvetica,sans-Serif" font-size="10.00" fill="#000000">iostream</text>
</g>
<!-- Node1&#45;&gt;Node6 -->
<g id="edge6" class="edge">
<title>Node1&#45;&gt;Node6</title>
<path fill="none" stroke="#191970" d="M388.2607,-112.2455C400.1552,-103.814 417.565,-91.4729 431.4085,-81.6598"/>
<polygon fill="#191970" stroke="#191970" points="433.7628,-84.2811 439.8969,-75.6427 429.7146,-78.5704 433.7628,-84.2811"/>
</g>
<!-- Node7 -->
<g id="node8" class="node">
<title>Node7</title>
<polygon fill="none" stroke="#bfbfbf" points="578,-56.5 578,-75.5 625,-75.5 625,-56.5 578,-56.5"/>
<text text-anchor="middle" x="601.5" y="-63.5" font-family="Helvetica,sans-Serif" font-size="10.00" fill="#000000">vector</text>
</g>
<!-- Node1&#45;&gt;Node7 -->
<g id="edge7" class="edge">
<title>Node1&#45;&gt;Node7</title>
<path fill="none" stroke="#191970" d="M418.2256,-112.4385C455.5145,-104.1037 510.7502,-91.3328 567.8345,-76.0604"/>
<polygon fill="#191970" stroke="#191970" points="569.013,-79.3677 577.7571,-73.3851 567.1907,-72.6091 569.013,-79.3677"/>
</g>
<!-- Node8 -->
<g id="node9" class="node">
<title>Node8</title>
<polygon fill="none" stroke="#bfbfbf" points="501.5,-56.5 501.5,-75.5 559.5,-75.5 559.5,-56.5 501.5,-56.5"/>
<text text-anchor="middle" x="530.5" y="-63.5" font-family="Helvetica,sans-Serif" font-size="10.00" fill="#000000">memory</text>
</g>
<!-- Node1&#45;&gt;Node8 -->
<g id="edge8" class="edge">
<title>Node1&#45;&gt;Node8</title>
<path fill="none" stroke="#191970" d="M401.3174,-112.3733C427.0332,-103.1419 466.038,-89.1402 494.4599,-78.9375"/>
<polygon fill="#191970" stroke="#191970" points="495.8032,-82.174 504.0326,-75.5011 493.4381,-75.5857 495.8032,-82.174"/>
</g>
<!-- Node3 -->
<g id="node4" class="node">
<title>Node3</title>
<polygon fill="none" stroke="#bfbfbf" points="201.5,-.5 201.5,-19.5 245.5,-19.5 245.5,-.5 201.5,-.5"/>
<text text-anchor="middle" x="223.5" y="-7.5" font-family="Helvetica,sans-Serif" font-size="10.00" fill="#000000">string</text>
</g>
<!-- Node2&#45;&gt;Node3 -->
<g id="edge3" class="edge">
<title>Node2&#45;&gt;Node3</title>
<path fill="none" stroke="#191970" d="M223.5,-56.2455C223.5,-48.9382 223.5,-38.6944 223.5,-29.7046"/>
<polygon fill="#191970" stroke="#191970" points="227.0001,-29.6426 223.5,-19.6427 220.0001,-29.6427 227.0001,-29.6426"/>
</g>
<!-- Node9&#45;&gt;Node1 -->
<g id="edge10" class="edge">
<title>Node9&#45;&gt;Node1</title>
<path fill="none" stroke="#191970" d="M379.4549,-168.2455C378.672,-160.9382 377.5744,-150.6944 376.6112,-141.7046"/>
<polygon fill="#191970" stroke="#191970" points="380.0786,-141.2129 375.5331,-131.6427 373.1185,-141.9587 380.0786,-141.2129"/>
</g>
<!-- Node10&#45;&gt;Node4 -->
<g id="edge13" class="edge">
<title>Node10&#45;&gt;Node4</title>
<path fill="none" stroke="#191970" d="M491.0608,-168.4759C438.6194,-160.1758 362.3514,-147.1186 296.5,-132 227.5107,-116.161 148.4954,-92.7522 102.193,-78.4875"/>
<polygon fill="#191970" stroke="#191970" points="103.1336,-75.1148 92.5459,-75.5017 101.064,-81.8019 103.1336,-75.1148"/>
</g>
<!-- Node10&#45;&gt;Node8 -->
<g id="edge19" class="edge">
<title>Node10&#45;&gt;Node8</title>
<path fill="none" stroke="#191970" d="M544.8508,-168.4346C536.85,-159.7723 526.0738,-146.2221 521.5,-132 516.5831,-116.7111 519.6494,-98.5873 523.4845,-85.2036"/>
<polygon fill="#191970" stroke="#191970" points="526.8332,-86.223 526.587,-75.6311 520.1742,-84.0647 526.8332,-86.223"/>
</g>
<!-- Node10&#45;&gt;Node11 -->
<g id="edge14" class="edge">
<title>Node10&#45;&gt;Node11</title>
<path fill="none" stroke="#191970" d="M574.0973,-168.3733C592.2331,-159.4644 619.4135,-146.1127 639.9587,-136.0203"/>
<polygon fill="#191970" stroke="#191970" points="641.7261,-139.0517 649.1584,-131.5011 638.6397,-132.7688 641.7261,-139.0517"/>
</g>
<!-- Node15 -->
<g id="node16" class="node">
<title>Node15</title>
<polygon fill="none" stroke="#bfbfbf" points="531,-112.5 531,-131.5 588,-131.5 588,-112.5 531,-112.5"/>
<text text-anchor="middle" x="559.5" y="-119.5" font-family="Helvetica,sans-Serif" font-size="10.00" fill="#000000">typeinfo</text>
</g>
<!-- Node10&#45;&gt;Node15 -->
<g id="edge20" class="edge">
<title>Node10&#45;&gt;Node15</title>
<path fill="none" stroke="#191970" d="M555.3709,-168.2455C556.0234,-160.9382 556.938,-150.6944 557.7407,-141.7046"/>
<polygon fill="#191970" stroke="#191970" points="561.2358,-141.9143 558.639,-131.6427 554.2635,-141.2918 561.2358,-141.9143"/>
</g>
<!-- Node11&#45;&gt;Node7 -->
<g id="edge15" class="edge">
<title>Node11&#45;&gt;Node7</title>
<path fill="none" stroke="#191970" d="M656.8295,-112.2455C646.9339,-103.9746 632.5373,-91.9416 620.9099,-82.2232"/>
<polygon fill="#191970" stroke="#191970" points="622.9542,-79.3703 613.0368,-75.6427 618.465,-84.7413 622.9542,-79.3703"/>
</g>
<!-- Node12 -->
<g id="node13" class="node">
<title>Node12</title>
<polygon fill="none" stroke="#bfbfbf" points="643.5,-56.5 643.5,-75.5 693.5,-75.5 693.5,-56.5 643.5,-56.5"/>
<text text-anchor="middle" x="668.5" y="-63.5" font-family="Helvetica,sans-Serif" font-size="10.00" fill="#000000">cstdint</text>
</g>
<!-- Node11&#45;&gt;Node12 -->
<g id="edge16" class="edge">
<title>Node11&#45;&gt;Node12</title>
<path fill="none" stroke="#191970" d="M668.5,-112.2455C668.5,-104.9382 668.5,-94.6944 668.5,-85.7046"/>
<polygon fill="#191970" stroke="#191970" points="672.0001,-85.6426 668.5,-75.6427 665.0001,-85.6427 672.0001,-85.6426"/>
</g>
<!-- Node13 -->
<g id="node14" class="node">
<title>Node13</title>
<polygon fill="none" stroke="#bfbfbf" points="711.5,-56.5 711.5,-75.5 755.5,-75.5 755.5,-56.5 711.5,-56.5"/>
<text text-anchor="middle" x="733.5" y="-63.5" font-family="Helvetica,sans-Serif" font-size="10.00" fill="#000000">limits</text>
</g>
<!-- Node11&#45;&gt;Node13 -->
<g id="edge17" class="edge">
<title>Node11&#45;&gt;Node13</title>
<path fill="none" stroke="#191970" d="M679.8221,-112.2455C689.4223,-103.9746 703.3892,-91.9416 714.6695,-82.2232"/>
<polygon fill="#191970" stroke="#191970" points="717.016,-84.8214 722.3076,-75.6427 712.447,-79.5182 717.016,-84.8214"/>
</g>
<!-- Node14 -->
<g id="node15" class="node">
<title>Node14</title>
<polygon fill="none" stroke="#bfbfbf" points="774,-56.5 774,-75.5 831,-75.5 831,-56.5 774,-56.5"/>
<text text-anchor="middle" x="802.5" y="-63.5" font-family="Helvetica,sans-Serif" font-size="10.00" fill="#000000">ostream</text>
</g>
<!-- Node11&#45;&gt;Node14 -->
<g id="edge18" class="edge">
<title>Node11&#45;&gt;Node14</title>
<path fill="none" stroke="#191970" d="M691.5354,-112.3733C713.2388,-103.3032 745.9618,-89.6279 770.255,-79.4755"/>
<polygon fill="#191970" stroke="#191970" points="771.8881,-82.5865 779.7652,-75.5011 769.1889,-76.1278 771.8881,-82.5865"/>
</g>
</g>
</svg>
        <g id="navigator" transform="translate(0 0)" fill="#404254">
                <rect fill="#f2f5e9" fill-opacity="0.5" stroke="#606060" stroke-width=".5" x="0" y="0" width="60" height="60"/>
                <use id="zoomplus" xlink:href="#zoomPlus" x="17" y="9" onmousedown="handleZoom(evt,'in')"/>
                <use id="zoomminus" xlink:href="#zoomMin" x="42" y="9" onmousedown="handleZoom(evt,'out')"/>
                <use id="reset" xlink:href="#resetDef" x="30" y="36" onmousedown="handleReset()"/>
                <g id="arrowUp" xlink:href="#dirArrow" transform="translate(30 24)" onmousedown="handlePan(0,-1)">
                  <use xlink:href="#rim" fill="#404040">
                        <set attributeName="fill" to="#808080" begin="arrowUp.mouseover" end="arrowUp.mouseout"/>
                  </use>
                  <path fill="none" stroke="white" stroke-width="1.5" d="M0,-3.0v7 M-2.5,-0.5L0,-3.0L2.5,-0.5"/>
                </g>
                <g id="arrowRight" xlink:href="#dirArrow" transform="rotate(90) translate(36 -43)" onmousedown="handlePan(1,0)">
                  <use xlink:href="#rim" fill="#404040">
                        <set attributeName="fill" to="#808080" begin="arrowRight.mouseover" end="arrowRight.mouseout"/>
                  </use>
                  <path fill="none" stroke="white" stroke-width="1.5" d="M0,-3.0v7 M-2.5,-0.5L0,-3.0L2.5,-0.5"/>
                </g>
                <g id="arrowDown" xlink:href="#dirArrow" transform="rotate(180) translate(-30 -48)" onmousedown="handlePan(0,1)">
                  <use xlink:href="#rim" fill="#404040">
                        <set attributeName="fill" to="#808080" begin="arrowDown.mouseover" end="arrowDown.mouseout"/>
                  </use>
                  <path fill="none" stroke="white" stroke-width="1.5" d="M0,-3.0v7 M-2.5,-0.5L0,-3.0L2.5,-0.5"/>
                </g>
                <g id="arrowLeft" xlink:href="#dirArrow" transform="rotate(270) translate(-36 17)" onmousedown="handlePan(-1,0)">
                  <use xlink:href="#rim" fill="#404040">
                        <set attributeName="fill" to="#808080" begin="arrowLeft.mouseover" end="arrowLeft.mouseout"/>
                  </use>
                  <path fill="none" stroke="white" stroke-width="1.5" d="M0,-3.0v7 M-2.5,-0.5L0,-3.0L2.5,-0.5"/>
                </g>
        </g>
        <svg viewBox="0 0 15 15" width="100%" height="30px" preserveAspectRatio="xMaxYMin meet">
         <g id="arrow_out" transform="scale(0.3 0.3)">
          <a xlink:href="Nodes_8cpp__incl_org.svg" target="_base">
           <rect id="button" ry="5" rx="5" y="6" x="6" height="38" width="38"
                fill="#f2f5e9" fill-opacity="0.5" stroke="#606060" stroke-width="1.0"/>
           <path id="arrow"
             d="M 11.500037,31.436501 C 11.940474,20.09759 22.043105,11.32322 32.158766,21.979434 L 37.068811,17.246167 C 37.068811,17.246167 37.088388,32 37.088388,32 L 22.160133,31.978069 C 22.160133,31.978069 26.997745,27.140456 26.997745,27.140456 C 18.528582,18.264221 13.291696,25.230495 11.500037,31.436501 z"
             style="fill:#404040;"/>
          </a>
         </g>
        </svg>
</svg>
