<?xml version="1.0" encoding="UTF-8" standalone="no"?>
<!DOCTYPE svg PUBLIC "-//W3C//DTD SVG 1.1//EN"
 "http://www.w3.org/Graphics/SVG/1.1/DTD/svg11.dtd">
<!-- Generated by graphviz version 2.38.0 (20140413.2041)
 -->
<!-- Title: include/enfield/Support/TokenSwapFinder.h Pages: 1 -->
<svg width="613pt" height="173pt"
 viewBox="0.00 0.00 613.00 173.00" xmlns="http://www.w3.org/2000/svg" xmlns:xlink="http://www.w3.org/1999/xlink">
<g id="graph0" class="graph" transform="scale(1 1) rotate(0) translate(4 169)">
<title>include/enfield/Support/TokenSwapFinder.h</title>
<!-- Node10 -->
<g id="node1" class="node"><title>Node10</title>
<polygon fill="#bfbfbf" stroke="black" points="258.5,-134.5 258.5,-164.5 374.5,-164.5 374.5,-134.5 258.5,-134.5"/>
<text text-anchor="start" x="266.5" y="-152.5" font-family="Helvetica,sans-Serif" font-size="10.00">include/enfield/Support</text>
<text text-anchor="middle" x="316.5" y="-141.5" font-family="Helvetica,sans-Serif" font-size="10.00">/TokenSwapFinder.h</text>
</g>
<!-- Node11 -->
<g id="node2" class="node"><title>Node11</title>
<g id="a_node2"><a xlink:href="../../db/dfc/ApproxTSFinder_8h.xhtml" target="_top" xlink:title="include/enfield/Support\l/ApproxTSFinder.h">
<polygon fill="none" stroke="black" points="181.5,-67.5 181.5,-97.5 297.5,-97.5 297.5,-67.5 181.5,-67.5"/>
<text text-anchor="start" x="189.5" y="-85.5" font-family="Helvetica,sans-Serif" font-size="10.00">include/enfield/Support</text>
<text text-anchor="middle" x="239.5" y="-74.5" font-family="Helvetica,sans-Serif" font-size="10.00">/ApproxTSFinder.h</text>
</a>
</g>
</g>
<!-- Node10&#45;&gt;Node11 -->
<g id="edge1" class="edge"><title>Node10&#45;&gt;Node11</title>
<path fill="none" stroke="midnightblue" d="M292.077,-127.883C280.376,-118.005 266.662,-106.429 256.175,-97.5765"/>
<polygon fill="midnightblue" stroke="midnightblue" points="289.893,-130.62 299.792,-134.396 294.408,-125.271 289.893,-130.62"/>
</g>
<!-- Node14 -->
<g id="node5" class="node"><title>Node14</title>
<g id="a_node5"><a xlink:href="../../de/d31/ExpTSFinder_8h.xhtml" target="_top" xlink:title="include/enfield/Support\l/ExpTSFinder.h">
<polygon fill="none" stroke="black" points="336.5,-67.5 336.5,-97.5 452.5,-97.5 452.5,-67.5 336.5,-67.5"/>
<text text-anchor="start" x="344.5" y="-85.5" font-family="Helvetica,sans-Serif" font-size="10.00">include/enfield/Support</text>
<text text-anchor="middle" x="394.5" y="-74.5" font-family="Helvetica,sans-Serif" font-size="10.00">/ExpTSFinder.h</text>
</a>
</g>
</g>
<!-- Node10&#45;&gt;Node14 -->
<g id="edge4" class="edge"><title>Node10&#45;&gt;Node14</title>
<path fill="none" stroke="midnightblue" d="M341.24,-127.883C353.093,-118.005 366.985,-106.429 377.608,-97.5765"/>
<polygon fill="midnightblue" stroke="midnightblue" points="338.866,-125.305 333.425,-134.396 343.348,-130.683 338.866,-125.305"/>
</g>
<!-- Node12 -->
<g id="node3" class="node"><title>Node12</title>
<g id="a_node3"><a xlink:href="../../dd/d0b/ApproxTSFinder_8cpp.xhtml" target="_top" xlink:title="lib/Support/ApproxTSFinder.cpp">
<polygon fill="none" stroke="black" points="0,-6 0,-25 155,-25 155,-6 0,-6"/>
<text text-anchor="middle" x="77.5" y="-13" font-family="Helvetica,sans-Serif" font-size="10.00">lib/Support/ApproxTSFinder.cpp</text>
</a>
</g>
</g>
<!-- Node11&#45;&gt;Node12 -->
<g id="edge2" class="edge"><title>Node11&#45;&gt;Node12</title>
<path fill="none" stroke="midnightblue" d="M194.941,-63.6214C163.585,-51.0403 123.025,-34.7661 98.7021,-25.007"/>
<polygon fill="midnightblue" stroke="midnightblue" points="193.764,-66.9204 204.348,-67.396 196.371,-60.4238 193.764,-66.9204"/>
</g>
<!-- Node13 -->
<g id="node4" class="node"><title>Node13</title>
<g id="a_node4"><a xlink:href="../../d5/d8f/BoundedSIDepSolver_8cpp.xhtml" target="_top" xlink:title="lib/Transform/Allocators\l/BoundedSIDepSolver.cpp">
<polygon fill="none" stroke="black" points="173.5,-0.5 173.5,-30.5 305.5,-30.5 305.5,-0.5 173.5,-0.5"/>
<text text-anchor="start" x="181.5" y="-18.5" font-family="Helvetica,sans-Serif" font-size="10.00">lib/Transform/Allocators</text>
<text text-anchor="middle" x="239.5" y="-7.5" font-family="Helvetica,sans-Serif" font-size="10.00">/BoundedSIDepSolver.cpp</text>
</a>
</g>
</g>
<!-- Node11&#45;&gt;Node13 -->
<g id="edge3" class="edge"><title>Node11&#45;&gt;Node13</title>
<path fill="none" stroke="midnightblue" d="M239.5,-57.1081C239.5,-48.1539 239.5,-38.3227 239.5,-30.5765"/>
<polygon fill="midnightblue" stroke="midnightblue" points="236,-57.3959 239.5,-67.396 243,-57.396 236,-57.3959"/>
</g>
<!-- Node15 -->
<g id="node6" class="node"><title>Node15</title>
<g id="a_node6"><a xlink:href="../../d9/d47/ExpTSFinder_8cpp.xhtml" target="_top" xlink:title="lib/Support/ExpTSFinder.cpp">
<polygon fill="none" stroke="black" points="323.5,-6 323.5,-25 465.5,-25 465.5,-6 323.5,-6"/>
<text text-anchor="middle" x="394.5" y="-13" font-family="Helvetica,sans-Serif" font-size="10.00">lib/Support/ExpTSFinder.cpp</text>
</a>
</g>
</g>
<!-- Node14&#45;&gt;Node15 -->
<g id="edge5" class="edge"><title>Node14&#45;&gt;Node15</title>
<path fill="none" stroke="midnightblue" d="M394.5,-57.2495C394.5,-46.017 394.5,-33.3767 394.5,-25.1945"/>
<polygon fill="midnightblue" stroke="midnightblue" points="391,-57.3959 394.5,-67.396 398,-57.396 391,-57.3959"/>
</g>
<!-- Node16 -->
<g id="node7" class="node"><title>Node16</title>
<g id="a_node7"><a xlink:href="../../d1/d31/DynprogDepSolver_8cpp.xhtml" target="_top" xlink:title="lib/Transform/Allocators\l/DynprogDepSolver.cpp">
<polygon fill="none" stroke="black" points="484,-0.5 484,-30.5 605,-30.5 605,-0.5 484,-0.5"/>
<text text-anchor="start" x="492" y="-18.5" font-family="Helvetica,sans-Serif" font-size="10.00">lib/Transform/Allocators</text>
<text text-anchor="middle" x="544.5" y="-7.5" font-family="Helvetica,sans-Serif" font-size="10.00">/DynprogDepSolver.cpp</text>
</a>
</g>
</g>
<!-- Node14&#45;&gt;Node16 -->
<g id="edge6" class="edge"><title>Node14&#45;&gt;Node16</title>
<path fill="none" stroke="midnightblue" d="M436.254,-63.4066C460.201,-53.0294 489.818,-40.1954 512.016,-30.5765"/>
<polygon fill="midnightblue" stroke="midnightblue" points="434.832,-60.2084 427.048,-67.396 437.615,-66.6313 434.832,-60.2084"/>
</g>
</g>
</svg>
