<?xml version="1.0" encoding="UTF-8" standalone="no"?>
<!DOCTYPE svg PUBLIC "-//W3C//DTD SVG 1.1//EN"
 "http://www.w3.org/Graphics/SVG/1.1/DTD/svg11.dtd">
<!-- Generated by graphviz version 2.40.1 (20161225.0304)
 -->
<!-- Title: include/enfield/Transform/Allocators/QbitAllocator.h Pages: 1 -->
<svg width="2652pt" height="329pt"
 viewBox="0.00 0.00 2652.00 329.00" xmlns="http://www.w3.org/2000/svg" xmlns:xlink="http://www.w3.org/1999/xlink">
<g id="graph0" class="graph" transform="scale(1 1) rotate(0) translate(4 325)">
<title>include/enfield/Transform/Allocators/QbitAllocator.h</title>
<!-- Node28 -->
<g id="node1" class="node">
<title>Node28</title>
<polygon fill="#bfbfbf" stroke="#000000" points="2210.5,-290.5 2210.5,-320.5 2354.5,-320.5 2354.5,-290.5 2210.5,-290.5"/>
<text text-anchor="start" x="2218.5" y="-308.5" font-family="Helvetica,sans-Serif" font-size="10.00" fill="#000000">include/enfield/Transform</text>
<text text-anchor="middle" x="2282.5" y="-297.5" font-family="Helvetica,sans-Serif" font-size="10.00" fill="#000000">/Allocators/QbitAllocator.h</text>
</g>
<!-- Node29 -->
<g id="node2" class="node">
<title>Node29</title>
<g id="a_node2"><a xlink:href="../../db/db1/Allocators_8h.xhtml" target="_top" xlink:title="include/enfield/Transform\l/Allocators/Allocators.h">
<polygon fill="none" stroke="#000000" points="2270.5,-223.5 2270.5,-253.5 2412.5,-253.5 2412.5,-223.5 2270.5,-223.5"/>
<text text-anchor="start" x="2278.5" y="-241.5" font-family="Helvetica,sans-Serif" font-size="10.00" fill="#000000">include/enfield/Transform</text>
<text text-anchor="middle" x="2341.5" y="-230.5" font-family="Helvetica,sans-Serif" font-size="10.00" fill="#000000">/Allocators/Allocators.h</text>
</a>
</g>
</g>
<!-- Node28&#45;&gt;Node29 -->
<g id="edge1" class="edge">
<title>Node28&#45;&gt;Node29</title>
<path fill="none" stroke="#191970" d="M2302.6318,-282.6385C2311.0619,-273.0653 2320.631,-262.1987 2328.165,-253.6432"/>
<polygon fill="#191970" stroke="#191970" points="2299.8701,-280.4786 2295.888,-290.2967 2305.1236,-285.1048 2299.8701,-280.4786"/>
</g>
<!-- Node34 -->
<g id="node7" class="node">
<title>Node34</title>
<g id="a_node7"><a xlink:href="../../d2/dc7/StdSolutionQAllocator_8h.xhtml" target="_top" xlink:title="include/enfield/Transform\l/Allocators/StdSolutionQAllocator.h">
<polygon fill="none" stroke="#000000" points="982,-223.5 982,-253.5 1169,-253.5 1169,-223.5 982,-223.5"/>
<text text-anchor="start" x="990" y="-241.5" font-family="Helvetica,sans-Serif" font-size="10.00" fill="#000000">include/enfield/Transform</text>
<text text-anchor="middle" x="1075.5" y="-230.5" font-family="Helvetica,sans-Serif" font-size="10.00" fill="#000000">/Allocators/StdSolutionQAllocator.h</text>
</a>
</g>
</g>
<!-- Node28&#45;&gt;Node34 -->
<g id="edge8" class="edge">
<title>Node28&#45;&gt;Node34</title>
<path fill="none" stroke="#191970" d="M2200.1227,-300.9273C1983.3503,-288.8943 1398.0439,-256.4043 1169.1025,-243.6958"/>
<polygon fill="#191970" stroke="#191970" points="2199.9851,-304.4249 2210.1637,-301.4846 2200.3731,-297.4357 2199.9851,-304.4249"/>
</g>
<!-- Node54 -->
<g id="node27" class="node">
<title>Node54</title>
<g id="a_node27"><a xlink:href="../../d6/daf/BoundedMappingTreeQAllocator_8h.xhtml" target="_top" xlink:title="include/enfield/Transform\l/Allocators/BoundedMappingTree\lQAllocator.h">
<polygon fill="none" stroke="#000000" points="2141,-145.5 2141,-186.5 2318,-186.5 2318,-145.5 2141,-145.5"/>
<text text-anchor="start" x="2149" y="-174.5" font-family="Helvetica,sans-Serif" font-size="10.00" fill="#000000">include/enfield/Transform</text>
<text text-anchor="start" x="2149" y="-163.5" font-family="Helvetica,sans-Serif" font-size="10.00" fill="#000000">/Allocators/BoundedMappingTree</text>
<text text-anchor="middle" x="2229.5" y="-152.5" font-family="Helvetica,sans-Serif" font-size="10.00" fill="#000000">QAllocator.h</text>
</a>
</g>
</g>
<!-- Node28&#45;&gt;Node54 -->
<g id="edge38" class="edge">
<title>Node28&#45;&gt;Node54</title>
<path fill="none" stroke="#191970" d="M2272.2394,-280.8875C2268.7595,-272.3965 2264.8953,-262.8066 2261.5,-254 2252.6696,-231.0959 2243.123,-204.5949 2236.7773,-186.7089"/>
<polygon fill="#191970" stroke="#191970" points="2269.0476,-282.3283 2276.097,-290.2377 2275.5185,-279.6586 2269.0476,-282.3283"/>
</g>
<!-- Node60 -->
<g id="node33" class="node">
<title>Node60</title>
<g id="a_node33"><a xlink:href="../../d0/d91/QbitAllocator_8cpp.xhtml" target="_top" xlink:title="lib/Transform/Allocators\l/QbitAllocator.cpp">
<polygon fill="none" stroke="#000000" points="2430.5,-223.5 2430.5,-253.5 2564.5,-253.5 2564.5,-223.5 2430.5,-223.5"/>
<text text-anchor="start" x="2438.5" y="-241.5" font-family="Helvetica,sans-Serif" font-size="10.00" fill="#000000">lib/Transform/Allocators</text>
<text text-anchor="middle" x="2497.5" y="-230.5" font-family="Helvetica,sans-Serif" font-size="10.00" fill="#000000">/QbitAllocator.cpp</text>
</a>
</g>
</g>
<!-- Node28&#45;&gt;Node60 -->
<g id="edge48" class="edge">
<title>Node28&#45;&gt;Node60</title>
<path fill="none" stroke="#191970" d="M2340.5426,-287.4123C2374.5013,-276.8298 2416.8798,-263.6235 2449.0394,-253.6017"/>
<polygon fill="#191970" stroke="#191970" points="2339.256,-284.1471 2330.7502,-290.4639 2341.3387,-290.8302 2339.256,-284.1471"/>
</g>
<!-- Node30 -->
<g id="node3" class="node">
<title>Node30</title>
<g id="a_node3"><a xlink:href="../../dc/dea/Allocators_8cpp.xhtml" target="_top" xlink:title="lib/Transform/Allocators\l/Allocators.cpp">
<polygon fill="none" stroke="#000000" points="1190.5,-.5 1190.5,-30.5 1324.5,-30.5 1324.5,-.5 1190.5,-.5"/>
<text text-anchor="start" x="1198.5" y="-18.5" font-family="Helvetica,sans-Serif" font-size="10.00" fill="#000000">lib/Transform/Allocators</text>
<text text-anchor="middle" x="1257.5" y="-7.5" font-family="Helvetica,sans-Serif" font-size="10.00" fill="#000000">/Allocators.cpp</text>
</a>
</g>
</g>
<!-- Node29&#45;&gt;Node30 -->
<g id="edge2" class="edge">
<title>Node29&#45;&gt;Node30</title>
<path fill="none" stroke="#191970" d="M2268.2064,-221.0666C2227.8099,-211.3221 2176.8065,-198.7965 2131.5,-187 2005.2418,-154.1259 1957.1366,-181.249 1848.5,-109 1828.733,-95.8539 1836.3576,-78.3366 1815.5,-67 1738.0581,-24.9085 1508.2619,-39.172 1420.5,-31 1388.9412,-28.0614 1353.9518,-24.7422 1324.5069,-21.9315"/>
<polygon fill="#191970" stroke="#191970" points="2267.4318,-224.48 2277.9733,-223.4183 2269.0705,-217.6745 2267.4318,-224.48"/>
</g>
<!-- Node31 -->
<g id="node4" class="node">
<title>Node31</title>
<g id="a_node4"><a xlink:href="../../d6/d91/Transform_2Driver_8h.xhtml" target="_top" xlink:title="include/enfield/Transform\l/Driver.h">
<polygon fill="none" stroke="#000000" points="2374.5,-151 2374.5,-181 2516.5,-181 2516.5,-151 2374.5,-151"/>
<text text-anchor="start" x="2382.5" y="-169" font-family="Helvetica,sans-Serif" font-size="10.00" fill="#000000">include/enfield/Transform</text>
<text text-anchor="middle" x="2445.5" y="-158" font-family="Helvetica,sans-Serif" font-size="10.00" fill="#000000">/Driver.h</text>
</a>
</g>
</g>
<!-- Node29&#45;&gt;Node31 -->
<g id="edge3" class="edge">
<title>Node29&#45;&gt;Node31</title>
<path fill="none" stroke="#191970" d="M2371.4374,-217.6302C2388.2278,-205.9253 2408.7857,-191.5941 2423.9787,-181.0028"/>
<polygon fill="#191970" stroke="#191970" points="2369.2507,-214.888 2363.0489,-223.478 2373.2539,-220.6304 2369.2507,-214.888"/>
</g>
<!-- Node32 -->
<g id="node5" class="node">
<title>Node32</title>
<g id="a_node5"><a xlink:href="../../df/dd9/Driver_8cpp.xhtml" target="_top" xlink:title="lib/Transform/Driver.cpp">
<polygon fill="none" stroke="#000000" points="2509,-78.5 2509,-97.5 2644,-97.5 2644,-78.5 2509,-78.5"/>
<text text-anchor="middle" x="2576.5" y="-85.5" font-family="Helvetica,sans-Serif" font-size="10.00" fill="#000000">lib/Transform/Driver.cpp</text>
</a>
</g>
</g>
<!-- Node29&#45;&gt;Node32 -->
<g id="edge6" class="edge">
<title>Node29&#45;&gt;Node32</title>
<path fill="none" stroke="#191970" d="M2422.7622,-222.446C2464.213,-212.9622 2509.2553,-200.2444 2525.5,-187 2555.0201,-162.932 2569.308,-117.2805 2574.3259,-97.5164"/>
<polygon fill="#191970" stroke="#191970" points="2421.8703,-219.059 2412.8789,-224.6631 2423.4026,-225.8892 2421.8703,-219.059"/>
</g>
<!-- Node33 -->
<g id="node6" class="node">
<title>Node33</title>
<g id="a_node6"><a xlink:href="../../de/d8e/Enfield_8cpp.xhtml" target="_top" xlink:title="tools/Enfield.cpp">
<polygon fill="none" stroke="#000000" points="2392.5,-78.5 2392.5,-97.5 2490.5,-97.5 2490.5,-78.5 2392.5,-78.5"/>
<text text-anchor="middle" x="2441.5" y="-85.5" font-family="Helvetica,sans-Serif" font-size="10.00" fill="#000000">tools/Enfield.cpp</text>
</a>
</g>
</g>
<!-- Node29&#45;&gt;Node33 -->
<g id="edge7" class="edge">
<title>Node29&#45;&gt;Node33</title>
<path fill="none" stroke="#191970" d="M2343.4111,-213.1451C2345.9424,-193.1991 2351.826,-165.4544 2365.5,-145 2379.7993,-123.6103 2404.893,-107.123 2422.3155,-97.5062"/>
<polygon fill="#191970" stroke="#191970" points="2339.9054,-213.0124 2342.3215,-223.328 2346.8656,-213.7572 2339.9054,-213.0124"/>
</g>
<!-- Node31&#45;&gt;Node32 -->
<g id="edge4" class="edge">
<title>Node31&#45;&gt;Node32</title>
<path fill="none" stroke="#191970" d="M2479.5722,-145.7127C2505.6247,-130.2006 2540.3712,-109.5118 2560.404,-97.5839"/>
<polygon fill="#191970" stroke="#191970" points="2477.5598,-142.8375 2470.7581,-150.9608 2481.141,-148.8521 2477.5598,-142.8375"/>
</g>
<!-- Node31&#45;&gt;Node33 -->
<g id="edge5" class="edge">
<title>Node31&#45;&gt;Node33</title>
<path fill="none" stroke="#191970" d="M2444.2126,-140.8962C2443.4555,-126.1331 2442.5417,-108.3138 2441.9915,-97.5839"/>
<polygon fill="#191970" stroke="#191970" points="2440.7211,-141.1532 2444.7288,-150.9608 2447.7119,-140.7947 2440.7211,-141.1532"/>
</g>
<!-- Node35 -->
<g id="node8" class="node">
<title>Node35</title>
<g id="a_node8"><a xlink:href="../../d4/da3/DynprogQAllocator_8h.xhtml" target="_top" xlink:title="include/enfield/Transform\l/Allocators/DynprogQAllocator.h">
<polygon fill="none" stroke="#000000" points="895,-151 895,-181 1068,-181 1068,-151 895,-151"/>
<text text-anchor="start" x="903" y="-169" font-family="Helvetica,sans-Serif" font-size="10.00" fill="#000000">include/enfield/Transform</text>
<text text-anchor="middle" x="981.5" y="-158" font-family="Helvetica,sans-Serif" font-size="10.00" fill="#000000">/Allocators/DynprogQAllocator.h</text>
</a>
</g>
</g>
<!-- Node34&#45;&gt;Node35 -->
<g id="edge9" class="edge">
<title>Node34&#45;&gt;Node35</title>
<path fill="none" stroke="#191970" d="M1048.0227,-217.3074C1032.9247,-205.6627 1014.5581,-191.4969 1000.9519,-181.0028"/>
<polygon fill="#191970" stroke="#191970" points="1045.9672,-220.1421 1056.0231,-223.478 1050.2423,-214.5992 1045.9672,-220.1421"/>
</g>
<!-- Node37 -->
<g id="node10" class="node">
<title>Node37</title>
<g id="a_node10"><a xlink:href="../../d0/d2e/GreedyCktQAllocator_8h.xhtml" target="_top" xlink:title="include/enfield/Transform\l/Allocators/GreedyCktQAllocator.h">
<polygon fill="none" stroke="#000000" points="0,-73 0,-103 183,-103 183,-73 0,-73"/>
<text text-anchor="start" x="8" y="-91" font-family="Helvetica,sans-Serif" font-size="10.00" fill="#000000">include/enfield/Transform</text>
<text text-anchor="middle" x="91.5" y="-80" font-family="Helvetica,sans-Serif" font-size="10.00" fill="#000000">/Allocators/GreedyCktQAllocator.h</text>
</a>
</g>
</g>
<!-- Node34&#45;&gt;Node37 -->
<g id="edge12" class="edge">
<title>Node34&#45;&gt;Node37</title>
<path fill="none" stroke="#191970" d="M971.919,-221.7453C942.5697,-214.0661 911.5458,-202.9697 885.5,-187 864.0397,-173.8419 870.22,-155.8389 847.5,-145 715.93,-82.2326 337.0461,-127.8907 192.5,-109 180.7792,-107.4682 168.3888,-105.3304 156.453,-103.001"/>
<polygon fill="#191970" stroke="#191970" points="971.2477,-225.1852 981.7985,-224.2207 972.949,-218.3951 971.2477,-225.1852"/>
</g>
<!-- Node39 -->
<g id="node12" class="node">
<title>Node39</title>
<g id="a_node12"><a xlink:href="../../d3/d48/IBMQAllocator_8h.xhtml" target="_top" xlink:title="include/enfield/Transform\l/Allocators/IBMQAllocator.h">
<polygon fill="none" stroke="#000000" points="1570,-151 1570,-181 1719,-181 1719,-151 1570,-151"/>
<text text-anchor="start" x="1578" y="-169" font-family="Helvetica,sans-Serif" font-size="10.00" fill="#000000">include/enfield/Transform</text>
<text text-anchor="middle" x="1644.5" y="-158" font-family="Helvetica,sans-Serif" font-size="10.00" fill="#000000">/Allocators/IBMQAllocator.h</text>
</a>
</g>
</g>
<!-- Node34&#45;&gt;Node39 -->
<g id="edge15" class="edge">
<title>Node34&#45;&gt;Node39</title>
<path fill="none" stroke="#191970" d="M1179.1819,-225.2892C1292.091,-210.9027 1469.8882,-188.2484 1569.8457,-175.5122"/>
<polygon fill="#191970" stroke="#191970" points="1178.6174,-221.8328 1169.14,-226.5687 1179.5022,-228.7766 1178.6174,-221.8328"/>
</g>
<!-- Node41 -->
<g id="node14" class="node">
<title>Node41</title>
<g id="a_node14"><a xlink:href="../../d1/d5d/SimpleQAllocator_8h.xhtml" target="_top" xlink:title="include/enfield/Transform\l/Allocators/SimpleQAllocator.h">
<polygon fill="none" stroke="#000000" points="1086,-151 1086,-181 1251,-181 1251,-151 1086,-151"/>
<text text-anchor="start" x="1094" y="-169" font-family="Helvetica,sans-Serif" font-size="10.00" fill="#000000">include/enfield/Transform</text>
<text text-anchor="middle" x="1168.5" y="-158" font-family="Helvetica,sans-Serif" font-size="10.00" fill="#000000">/Allocators/SimpleQAllocator.h</text>
</a>
</g>
</g>
<!-- Node34&#45;&gt;Node41 -->
<g id="edge18" class="edge">
<title>Node34&#45;&gt;Node41</title>
<path fill="none" stroke="#191970" d="M1102.685,-217.3074C1117.6224,-205.6627 1135.7936,-191.4969 1149.255,-181.0028"/>
<polygon fill="#191970" stroke="#191970" points="1100.5045,-214.5694 1094.7697,-223.478 1104.8082,-220.09 1100.5045,-214.5694"/>
</g>
<!-- Node53 -->
<g id="node26" class="node">
<title>Node53</title>
<g id="a_node26"><a xlink:href="../../dd/d13/StdSolutionQAllocator_8cpp.xhtml" target="_top" xlink:title="lib/Transform/Allocators\l/StdSolutionQAllocator.cpp">
<polygon fill="none" stroke="#000000" points="692.5,-151 692.5,-181 838.5,-181 838.5,-151 692.5,-151"/>
<text text-anchor="start" x="700.5" y="-169" font-family="Helvetica,sans-Serif" font-size="10.00" fill="#000000">lib/Transform/Allocators</text>
<text text-anchor="middle" x="765.5" y="-158" font-family="Helvetica,sans-Serif" font-size="10.00" fill="#000000">/StdSolutionQAllocator.cpp</text>
</a>
</g>
</g>
<!-- Node34&#45;&gt;Node53 -->
<g id="edge37" class="edge">
<title>Node34&#45;&gt;Node53</title>
<path fill="none" stroke="#191970" d="M999.7327,-221.1977C956.5607,-211.2899 901.4708,-198.5647 852.5,-187 844.4853,-185.1073 836.0603,-183.0982 827.7382,-181.102"/>
<polygon fill="#191970" stroke="#191970" points="999.0664,-224.6357 1009.5958,-223.4598 1000.6313,-217.8129 999.0664,-224.6357"/>
</g>
<!-- Node35&#45;&gt;Node30 -->
<g id="edge10" class="edge">
<title>Node35&#45;&gt;Node30</title>
<path fill="none" stroke="#191970" d="M1055.3233,-148.5637C1111.1132,-134.9523 1180.0031,-117.0454 1191.5,-109 1199.1512,-103.6457 1231.1589,-55.7304 1247.6232,-30.6531"/>
<polygon fill="#191970" stroke="#191970" points="1054.3227,-145.2049 1045.4311,-150.9659 1055.9747,-152.0072 1054.3227,-145.2049"/>
</g>
<!-- Node36 -->
<g id="node9" class="node">
<title>Node36</title>
<g id="a_node9"><a xlink:href="../../d4/d00/DynprogQAllocator_8cpp.xhtml" target="_top" xlink:title="lib/Transform/Allocators\l/DynprogQAllocator.cpp">
<polygon fill="none" stroke="#000000" points="201.5,-73 201.5,-103 335.5,-103 335.5,-73 201.5,-73"/>
<text text-anchor="start" x="209.5" y="-91" font-family="Helvetica,sans-Serif" font-size="10.00" fill="#000000">lib/Transform/Allocators</text>
<text text-anchor="middle" x="268.5" y="-80" font-family="Helvetica,sans-Serif" font-size="10.00" fill="#000000">/DynprogQAllocator.cpp</text>
</a>
</g>
</g>
<!-- Node35&#45;&gt;Node36 -->
<g id="edge11" class="edge">
<title>Node35&#45;&gt;Node36</title>
<path fill="none" stroke="#191970" d="M905.7866,-149.0819C897.2851,-147.5328 888.7261,-146.126 880.5,-145 643.9467,-112.6213 579.8844,-148.9999 344.5,-109 335.593,-107.4864 326.2272,-105.3574 317.2311,-103.031"/>
<polygon fill="#191970" stroke="#191970" points="905.241,-152.5406 915.7168,-150.9573 906.5401,-145.6622 905.241,-152.5406"/>
</g>
<!-- Node37&#45;&gt;Node30 -->
<g id="edge13" class="edge">
<title>Node37&#45;&gt;Node30</title>
<path fill="none" stroke="#191970" d="M165.7039,-71.0903C174.695,-69.4806 183.7804,-68.0575 192.5,-67 629.147,-14.0427 744.7528,-83.125 1181.5,-31 1184.4417,-30.6489 1187.439,-30.2437 1190.4607,-29.7963"/>
<polygon fill="#191970" stroke="#191970" points="164.8029,-67.698 155.6172,-72.9775 166.0903,-74.5786 164.8029,-67.698"/>
</g>
<!-- Node38 -->
<g id="node11" class="node">
<title>Node38</title>
<g id="a_node11"><a xlink:href="../../d4/dd0/GreedyCktQAllocator_8cpp.xhtml" target="_top" xlink:title="lib/Transform/Allocators\l/GreedyCktQAllocator.cpp">
<polygon fill="none" stroke="#000000" points="107,-.5 107,-30.5 250,-30.5 250,-.5 107,-.5"/>
<text text-anchor="start" x="115" y="-18.5" font-family="Helvetica,sans-Serif" font-size="10.00" fill="#000000">lib/Transform/Allocators</text>
<text text-anchor="middle" x="178.5" y="-7.5" font-family="Helvetica,sans-Serif" font-size="10.00" fill="#000000">/GreedyCktQAllocator.cpp</text>
</a>
</g>
</g>
<!-- Node37&#45;&gt;Node38 -->
<g id="edge14" class="edge">
<title>Node37&#45;&gt;Node38</title>
<path fill="none" stroke="#191970" d="M117.3201,-66.4833C131.2192,-54.9007 148.0203,-40.8998 160.4966,-30.5028"/>
<polygon fill="#191970" stroke="#191970" points="114.968,-63.8873 109.5265,-72.978 119.4493,-69.2649 114.968,-63.8873"/>
</g>
<!-- Node39&#45;&gt;Node30 -->
<g id="edge16" class="edge">
<title>Node39&#45;&gt;Node30</title>
<path fill="none" stroke="#191970" d="M1646.8597,-140.4942C1647.431,-117.8656 1644.2455,-85.5964 1624.5,-67 1613.6981,-56.8267 1427.8416,-34.5675 1324.8659,-22.9272"/>
<polygon fill="#191970" stroke="#191970" points="1643.3518,-140.5597 1646.3336,-150.7262 1650.3426,-140.9192 1643.3518,-140.5597"/>
</g>
<!-- Node40 -->
<g id="node13" class="node">
<title>Node40</title>
<g id="a_node13"><a xlink:href="../../dd/d90/IBMQAllocator_8cpp.xhtml" target="_top" xlink:title="lib/Transform/Allocators\l/IBMQAllocator.cpp">
<polygon fill="none" stroke="#000000" points="1672.5,-73 1672.5,-103 1806.5,-103 1806.5,-73 1672.5,-73"/>
<text text-anchor="start" x="1680.5" y="-91" font-family="Helvetica,sans-Serif" font-size="10.00" fill="#000000">lib/Transform/Allocators</text>
<text text-anchor="middle" x="1739.5" y="-80" font-family="Helvetica,sans-Serif" font-size="10.00" fill="#000000">/IBMQAllocator.cpp</text>
</a>
</g>
</g>
<!-- Node39&#45;&gt;Node40 -->
<g id="edge17" class="edge">
<title>Node39&#45;&gt;Node40</title>
<path fill="none" stroke="#191970" d="M1670.7292,-144.4644C1686.6588,-131.3854 1706.6106,-115.0039 1720.9151,-103.2592"/>
<polygon fill="#191970" stroke="#191970" points="1668.3247,-141.9101 1662.817,-150.9608 1672.7667,-147.3202 1668.3247,-141.9101"/>
</g>
<!-- Node41&#45;&gt;Node30 -->
<g id="edge19" class="edge">
<title>Node41&#45;&gt;Node30</title>
<path fill="none" stroke="#191970" d="M1194.7206,-143.9367C1205.1182,-134.1044 1216.4819,-121.8484 1224.5,-109 1240.2663,-83.7357 1249.7939,-49.9181 1254.3147,-30.6452"/>
<polygon fill="#191970" stroke="#191970" points="1192.0585,-141.6276 1187.0292,-150.9527 1196.776,-146.7993 1192.0585,-141.6276"/>
</g>
<!-- Node42 -->
<g id="node15" class="node">
<title>Node42</title>
<g id="a_node15"><a xlink:href="../../d3/d1b/WeightedSIMappingFinder_8h.xhtml" target="_top" xlink:title="include/enfield/Transform\l/Allocators/Simple/WeightedSIMapping\lFinder.h">
<polygon fill="none" stroke="#000000" points="354,-67.5 354,-108.5 559,-108.5 559,-67.5 354,-67.5"/>
<text text-anchor="start" x="362" y="-96.5" font-family="Helvetica,sans-Serif" font-size="10.00" fill="#000000">include/enfield/Transform</text>
<text text-anchor="start" x="362" y="-85.5" font-family="Helvetica,sans-Serif" font-size="10.00" fill="#000000">/Allocators/Simple/WeightedSIMapping</text>
<text text-anchor="middle" x="456.5" y="-74.5" font-family="Helvetica,sans-Serif" font-size="10.00" fill="#000000">Finder.h</text>
</a>
</g>
</g>
<!-- Node41&#45;&gt;Node42 -->
<g id="edge20" class="edge">
<title>Node41&#45;&gt;Node42</title>
<path fill="none" stroke="#191970" d="M1098.9885,-148.9463C1091.4293,-147.4468 1083.824,-146.0883 1076.5,-145 852.1756,-111.6672 792.409,-138.1282 567.5,-109 564.777,-108.6473 562.0198,-108.2704 559.2404,-107.873"/>
<polygon fill="#191970" stroke="#191970" points="1098.3704,-152.3924 1108.8717,-150.9878 1099.7865,-145.5371 1098.3704,-152.3924"/>
</g>
<!-- Node44 -->
<g id="node17" class="node">
<title>Node44</title>
<g id="a_node17"><a xlink:href="../../da/d43/RandomMappingFinder_8h.xhtml" target="_top" xlink:title="include/enfield/Transform\l/Allocators/Simple/RandomMapping\lFinder.h">
<polygon fill="none" stroke="#000000" points="992.5,-67.5 992.5,-108.5 1182.5,-108.5 1182.5,-67.5 992.5,-67.5"/>
<text text-anchor="start" x="1000.5" y="-96.5" font-family="Helvetica,sans-Serif" font-size="10.00" fill="#000000">include/enfield/Transform</text>
<text text-anchor="start" x="1000.5" y="-85.5" font-family="Helvetica,sans-Serif" font-size="10.00" fill="#000000">/Allocators/Simple/RandomMapping</text>
<text text-anchor="middle" x="1087.5" y="-74.5" font-family="Helvetica,sans-Serif" font-size="10.00" fill="#000000">Finder.h</text>
</a>
</g>
</g>
<!-- Node41&#45;&gt;Node44 -->
<g id="edge24" class="edge">
<title>Node41&#45;&gt;Node44</title>
<path fill="none" stroke="#191970" d="M1145.3632,-143.7201C1133.8868,-132.6687 1120.1158,-119.4078 1108.8877,-108.5956"/>
<polygon fill="#191970" stroke="#191970" points="1143.2514,-146.5455 1152.8824,-150.9608 1148.1069,-141.5032 1143.2514,-146.5455"/>
</g>
<!-- Node46 -->
<g id="node19" class="node">
<title>Node46</title>
<g id="a_node19"><a xlink:href="../../da/d8b/IdentityMappingFinder_8h.xhtml" target="_top" xlink:title="include/enfield/Transform\l/Allocators/Simple/IdentityMapping\lFinder.h">
<polygon fill="none" stroke="#000000" points="1429,-67.5 1429,-108.5 1616,-108.5 1616,-67.5 1429,-67.5"/>
<text text-anchor="start" x="1437" y="-96.5" font-family="Helvetica,sans-Serif" font-size="10.00" fill="#000000">include/enfield/Transform</text>
<text text-anchor="start" x="1437" y="-85.5" font-family="Helvetica,sans-Serif" font-size="10.00" fill="#000000">/Allocators/Simple/IdentityMapping</text>
<text text-anchor="middle" x="1522.5" y="-74.5" font-family="Helvetica,sans-Serif" font-size="10.00" fill="#000000">Finder.h</text>
</a>
</g>
</g>
<!-- Node41&#45;&gt;Node46 -->
<g id="edge27" class="edge">
<title>Node41&#45;&gt;Node46</title>
<path fill="none" stroke="#191970" d="M1246.6041,-148.7906C1300.5176,-136.9114 1372.4585,-121.06 1429.3605,-108.5223"/>
<polygon fill="#191970" stroke="#191970" points="1245.7674,-145.3909 1236.7548,-150.9608 1247.2737,-152.227 1245.7674,-145.3909"/>
</g>
<!-- Node48 -->
<g id="node21" class="node">
<title>Node48</title>
<g id="a_node21"><a xlink:href="../../dd/de8/PathGuidedSolBuilder_8h.xhtml" target="_top" xlink:title="include/enfield/Transform\l/Allocators/Simple/PathGuidedSol\lBuilder.h">
<polygon fill="none" stroke="#000000" points="577,-67.5 577,-108.5 756,-108.5 756,-67.5 577,-67.5"/>
<text text-anchor="start" x="585" y="-96.5" font-family="Helvetica,sans-Serif" font-size="10.00" fill="#000000">include/enfield/Transform</text>
<text text-anchor="start" x="585" y="-85.5" font-family="Helvetica,sans-Serif" font-size="10.00" fill="#000000">/Allocators/Simple/PathGuidedSol</text>
<text text-anchor="middle" x="666.5" y="-74.5" font-family="Helvetica,sans-Serif" font-size="10.00" fill="#000000">Builder.h</text>
</a>
</g>
</g>
<!-- Node41&#45;&gt;Node48 -->
<g id="edge30" class="edge">
<title>Node41&#45;&gt;Node48</title>
<path fill="none" stroke="#191970" d="M1096.8246,-148.8441C1089.9748,-147.4446 1083.1179,-146.1348 1076.5,-145 939.3566,-121.4825 902.8203,-131.4613 765.5,-109 762.3789,-108.4895 759.2072,-107.9469 756.0076,-107.3794"/>
<polygon fill="#191970" stroke="#191970" points="1096.3201,-152.3145 1106.8265,-150.9489 1097.7616,-145.4645 1096.3201,-152.3145"/>
</g>
<!-- Node50 -->
<g id="node23" class="node">
<title>Node50</title>
<g id="a_node23"><a xlink:href="../../de/d8c/QbitterSolBuilder_8h.xhtml" target="_top" xlink:title="include/enfield/Transform\l/Allocators/Simple/QbitterSolBuilder.h">
<polygon fill="none" stroke="#000000" points="774.5,-73 774.5,-103 974.5,-103 974.5,-73 774.5,-73"/>
<text text-anchor="start" x="782.5" y="-91" font-family="Helvetica,sans-Serif" font-size="10.00" fill="#000000">include/enfield/Transform</text>
<text text-anchor="middle" x="874.5" y="-80" font-family="Helvetica,sans-Serif" font-size="10.00" fill="#000000">/Allocators/Simple/QbitterSolBuilder.h</text>
</a>
</g>
</g>
<!-- Node41&#45;&gt;Node50 -->
<g id="edge33" class="edge">
<title>Node41&#45;&gt;Node50</title>
<path fill="none" stroke="#191970" d="M1102.1131,-148.3871C1050.6541,-134.7348 980.1151,-116.0203 931.2624,-103.0594"/>
<polygon fill="#191970" stroke="#191970" points="1101.2507,-151.7794 1111.8138,-150.9608 1103.0458,-145.0134 1101.2507,-151.7794"/>
</g>
<!-- Node52 -->
<g id="node25" class="node">
<title>Node52</title>
<g id="a_node25"><a xlink:href="../../d2/d79/SimpleQAllocator_8cpp.xhtml" target="_top" xlink:title="lib/Transform/Allocators\l/SimpleQAllocator.cpp">
<polygon fill="none" stroke="#000000" points="1276.5,-73 1276.5,-103 1410.5,-103 1410.5,-73 1276.5,-73"/>
<text text-anchor="start" x="1284.5" y="-91" font-family="Helvetica,sans-Serif" font-size="10.00" fill="#000000">lib/Transform/Allocators</text>
<text text-anchor="middle" x="1343.5" y="-80" font-family="Helvetica,sans-Serif" font-size="10.00" fill="#000000">/SimpleQAllocator.cpp</text>
</a>
</g>
</g>
<!-- Node41&#45;&gt;Node52 -->
<g id="edge36" class="edge">
<title>Node41&#45;&gt;Node52</title>
<path fill="none" stroke="#191970" d="M1211.6817,-146.7533C1241.8757,-133.2954 1281.6359,-115.5737 1309.5637,-103.1259"/>
<polygon fill="#191970" stroke="#191970" points="1209.9507,-143.6929 1202.2418,-150.9608 1212.8005,-150.0865 1209.9507,-143.6929"/>
</g>
<!-- Node42&#45;&gt;Node30 -->
<g id="edge21" class="edge">
<title>Node42&#45;&gt;Node30</title>
<path fill="none" stroke="#191970" d="M569.3806,-66.8473C840.5788,-34.3161 913.7535,-65.9708 1181.5,-31 1184.4376,-30.6163 1187.4315,-30.1841 1190.4505,-29.7145"/>
<polygon fill="#191970" stroke="#191970" points="568.7383,-63.3996 559.2348,-68.083 569.5846,-70.3482 568.7383,-63.3996"/>
</g>
<!-- Node42&#45;&gt;Node38 -->
<g id="edge22" class="edge">
<title>Node42&#45;&gt;Node38</title>
<path fill="none" stroke="#191970" d="M367.6823,-64.8371C324.7119,-53.6308 274.351,-40.4971 236.3973,-30.5991"/>
<polygon fill="#191970" stroke="#191970" points="367.0204,-68.2815 377.58,-67.4183 368.7869,-61.508 367.0204,-68.2815"/>
</g>
<!-- Node43 -->
<g id="node16" class="node">
<title>Node43</title>
<g id="a_node16"><a xlink:href="../../d9/ddd/WeightedSIMappingFinder_8cpp.xhtml" target="_top" xlink:title="lib/Transform/Allocators\l/Simple/WeightedSIMappingFinder.cpp">
<polygon fill="none" stroke="#000000" points="354,-.5 354,-30.5 557,-30.5 557,-.5 354,-.5"/>
<text text-anchor="start" x="362" y="-18.5" font-family="Helvetica,sans-Serif" font-size="10.00" fill="#000000">lib/Transform/Allocators</text>
<text text-anchor="middle" x="455.5" y="-7.5" font-family="Helvetica,sans-Serif" font-size="10.00" fill="#000000">/Simple/WeightedSIMappingFinder.cpp</text>
</a>
</g>
</g>
<!-- Node42&#45;&gt;Node43 -->
<g id="edge23" class="edge">
<title>Node42&#45;&gt;Node43</title>
<path fill="none" stroke="#191970" d="M456.0769,-57.3279C455.9495,-48.0871 455.8152,-38.3508 455.7083,-30.5991"/>
<polygon fill="#191970" stroke="#191970" points="452.5784,-57.4676 456.2161,-67.4183 459.5778,-57.371 452.5784,-57.4676"/>
</g>
<!-- Node44&#45;&gt;Node30 -->
<g id="edge25" class="edge">
<title>Node44&#45;&gt;Node30</title>
<path fill="none" stroke="#191970" d="M1144.9871,-63.4834C1170.5414,-52.5853 1199.8145,-40.1012 1222.0952,-30.5991"/>
<polygon fill="#191970" stroke="#191970" points="1143.5859,-60.276 1135.7605,-67.4183 1146.3319,-66.7149 1143.5859,-60.276"/>
</g>
<!-- Node45 -->
<g id="node18" class="node">
<title>Node45</title>
<g id="a_node18"><a xlink:href="../../d2/dd0/RandomMappingFinder_8cpp.xhtml" target="_top" xlink:title="lib/Transform/Allocators\l/Simple/RandomMappingFinder.cpp">
<polygon fill="none" stroke="#000000" points="984.5,-.5 984.5,-30.5 1172.5,-30.5 1172.5,-.5 984.5,-.5"/>
<text text-anchor="start" x="992.5" y="-18.5" font-family="Helvetica,sans-Serif" font-size="10.00" fill="#000000">lib/Transform/Allocators</text>
<text text-anchor="middle" x="1078.5" y="-7.5" font-family="Helvetica,sans-Serif" font-size="10.00" fill="#000000">/Simple/RandomMappingFinder.cpp</text>
</a>
</g>
</g>
<!-- Node44&#45;&gt;Node45 -->
<g id="edge26" class="edge">
<title>Node44&#45;&gt;Node45</title>
<path fill="none" stroke="#191970" d="M1083.6924,-57.3279C1082.5453,-48.0871 1081.3367,-38.3508 1080.3744,-30.5991"/>
<polygon fill="#191970" stroke="#191970" points="1080.2397,-57.9257 1084.945,-67.4183 1087.1864,-57.0633 1080.2397,-57.9257"/>
</g>
<!-- Node46&#45;&gt;Node30 -->
<g id="edge28" class="edge">
<title>Node46&#45;&gt;Node30</title>
<path fill="none" stroke="#191970" d="M1437.5769,-64.7663C1396.6726,-53.5755 1348.7926,-40.4763 1312.6898,-30.5991"/>
<polygon fill="#191970" stroke="#191970" points="1436.7013,-68.1553 1447.2705,-67.4183 1438.5486,-61.4035 1436.7013,-68.1553"/>
</g>
<!-- Node47 -->
<g id="node20" class="node">
<title>Node47</title>
<g id="a_node20"><a xlink:href="../../d8/dcc/IdentityMappingFinder_8cpp.xhtml" target="_top" xlink:title="lib/Transform/Allocators\l/Simple/IdentityMappingFinder.cpp">
<polygon fill="none" stroke="#000000" points="1430,-.5 1430,-30.5 1615,-30.5 1615,-.5 1430,-.5"/>
<text text-anchor="start" x="1438" y="-18.5" font-family="Helvetica,sans-Serif" font-size="10.00" fill="#000000">lib/Transform/Allocators</text>
<text text-anchor="middle" x="1522.5" y="-7.5" font-family="Helvetica,sans-Serif" font-size="10.00" fill="#000000">/Simple/IdentityMappingFinder.cpp</text>
</a>
</g>
</g>
<!-- Node46&#45;&gt;Node47 -->
<g id="edge29" class="edge">
<title>Node46&#45;&gt;Node47</title>
<path fill="none" stroke="#191970" d="M1522.5,-57.3279C1522.5,-48.0871 1522.5,-38.3508 1522.5,-30.5991"/>
<polygon fill="#191970" stroke="#191970" points="1519.0001,-57.4183 1522.5,-67.4183 1526.0001,-57.4184 1519.0001,-57.4183"/>
</g>
<!-- Node48&#45;&gt;Node30 -->
<g id="edge31" class="edge">
<title>Node48&#45;&gt;Node30</title>
<path fill="none" stroke="#191970" d="M766.2917,-66.9849C950.8165,-40.3096 1001.0629,-57.1191 1181.5,-31 1184.432,-30.5756 1187.4213,-30.1096 1190.4365,-29.6124"/>
<polygon fill="#191970" stroke="#191970" points="765.6414,-63.5427 756.2563,-68.459 766.6588,-70.4684 765.6414,-63.5427"/>
</g>
<!-- Node49 -->
<g id="node22" class="node">
<title>Node49</title>
<g id="a_node22"><a xlink:href="../../d3/d84/PathGuidedSolBuilder_8cpp.xhtml" target="_top" xlink:title="lib/Transform/Allocators\l/Simple/PathGuidedSolBuilder.cpp">
<polygon fill="none" stroke="#000000" points="575.5,-.5 575.5,-30.5 757.5,-30.5 757.5,-.5 575.5,-.5"/>
<text text-anchor="start" x="583.5" y="-18.5" font-family="Helvetica,sans-Serif" font-size="10.00" fill="#000000">lib/Transform/Allocators</text>
<text text-anchor="middle" x="666.5" y="-7.5" font-family="Helvetica,sans-Serif" font-size="10.00" fill="#000000">/Simple/PathGuidedSolBuilder.cpp</text>
</a>
</g>
</g>
<!-- Node48&#45;&gt;Node49 -->
<g id="edge32" class="edge">
<title>Node48&#45;&gt;Node49</title>
<path fill="none" stroke="#191970" d="M666.5,-57.3279C666.5,-48.0871 666.5,-38.3508 666.5,-30.5991"/>
<polygon fill="#191970" stroke="#191970" points="663.0001,-57.4183 666.5,-67.4183 670.0001,-57.4184 663.0001,-57.4183"/>
</g>
<!-- Node50&#45;&gt;Node30 -->
<g id="edge34" class="edge">
<title>Node50&#45;&gt;Node30</title>
<path fill="none" stroke="#191970" d="M961.866,-71.0843C969.1826,-69.6932 976.4676,-68.3167 983.5,-67 1071.415,-50.5393 1093.6757,-47.9378 1181.5,-31 1184.4089,-30.439 1187.3792,-29.8599 1190.3787,-29.2701"/>
<polygon fill="#191970" stroke="#191970" points="961.0577,-67.6753 951.8901,-72.9863 962.3687,-74.5515 961.0577,-67.6753"/>
</g>
<!-- Node51 -->
<g id="node24" class="node">
<title>Node51</title>
<g id="a_node24"><a xlink:href="../../db/de4/QbitterSolBuilder_8cpp.xhtml" target="_top" xlink:title="lib/Transform/Allocators\l/Simple/QbitterSolBuilder.cpp">
<polygon fill="none" stroke="#000000" points="794.5,-.5 794.5,-30.5 954.5,-30.5 954.5,-.5 794.5,-.5"/>
<text text-anchor="start" x="802.5" y="-18.5" font-family="Helvetica,sans-Serif" font-size="10.00" fill="#000000">lib/Transform/Allocators</text>
<text text-anchor="middle" x="874.5" y="-7.5" font-family="Helvetica,sans-Serif" font-size="10.00" fill="#000000">/Simple/QbitterSolBuilder.cpp</text>
</a>
</g>
</g>
<!-- Node50&#45;&gt;Node51 -->
<g id="edge35" class="edge">
<title>Node50&#45;&gt;Node51</title>
<path fill="none" stroke="#191970" d="M874.5,-62.8409C874.5,-52.0601 874.5,-39.8309 874.5,-30.5028"/>
<polygon fill="#191970" stroke="#191970" points="871.0001,-62.9779 874.5,-72.978 878.0001,-62.978 871.0001,-62.9779"/>
</g>
<!-- Node54&#45;&gt;Node30 -->
<g id="edge39" class="edge">
<title>Node54&#45;&gt;Node30</title>
<path fill="none" stroke="#191970" d="M2130.7212,-155.9525C2046.3494,-146.1732 1932.3436,-129.7652 1891.5,-109 1867.6862,-96.8929 1872.7964,-78.1068 1848.5,-67 1761.6933,-27.3173 1515.5661,-39.5179 1420.5,-31 1389.0727,-28.1841 1354.2542,-24.8961 1324.8938,-22.0747"/>
<polygon fill="#191970" stroke="#191970" points="2130.5236,-159.4526 2140.8567,-157.1121 2131.3194,-152.498 2130.5236,-159.4526"/>
</g>
<!-- Node55 -->
<g id="node28" class="node">
<title>Node55</title>
<g id="a_node28"><a xlink:href="../../db/d1c/DefaultBMTQAllocatorImpl_8h.xhtml" target="_top" xlink:title="include/enfield/Transform\l/Allocators/BMT/DefaultBMTQAllocator\lImpl.h">
<polygon fill="none" stroke="#000000" points="2133,-67.5 2133,-108.5 2336,-108.5 2336,-67.5 2133,-67.5"/>
<text text-anchor="start" x="2141" y="-96.5" font-family="Helvetica,sans-Serif" font-size="10.00" fill="#000000">include/enfield/Transform</text>
<text text-anchor="start" x="2141" y="-85.5" font-family="Helvetica,sans-Serif" font-size="10.00" fill="#000000">/Allocators/BMT/DefaultBMTQAllocator</text>
<text text-anchor="middle" x="2234.5" y="-74.5" font-family="Helvetica,sans-Serif" font-size="10.00" fill="#000000">Impl.h</text>
</a>
</g>
</g>
<!-- Node54&#45;&gt;Node55 -->
<g id="edge40" class="edge">
<title>Node54&#45;&gt;Node55</title>
<path fill="none" stroke="#191970" d="M2231.4821,-135.0789C2232.0501,-126.2178 2232.6555,-116.7747 2233.1737,-108.6898"/>
<polygon fill="#191970" stroke="#191970" points="2227.9869,-134.894 2230.8399,-145.0974 2234.9725,-135.3418 2227.9869,-134.894"/>
</g>
<!-- Node57 -->
<g id="node30" class="node">
<title>Node57</title>
<g id="a_node30"><a xlink:href="../../d6/dab/BoundedMappingTreeQAllocator_8cpp.xhtml" target="_top" xlink:title="lib/Transform/Allocators\l/BoundedMappingTreeQAllocator.cpp">
<polygon fill="none" stroke="#000000" points="2303,-.5 2303,-30.5 2500,-30.5 2500,-.5 2303,-.5"/>
<text text-anchor="start" x="2311" y="-18.5" font-family="Helvetica,sans-Serif" font-size="10.00" fill="#000000">lib/Transform/Allocators</text>
<text text-anchor="middle" x="2401.5" y="-7.5" font-family="Helvetica,sans-Serif" font-size="10.00" fill="#000000">/BoundedMappingTreeQAllocator.cpp</text>
</a>
</g>
</g>
<!-- Node54&#45;&gt;Node57 -->
<g id="edge47" class="edge">
<title>Node54&#45;&gt;Node57</title>
<path fill="none" stroke="#191970" d="M2295.8084,-140.997C2312.9038,-132.5378 2330.43,-121.8923 2344.5,-109 2369.1695,-86.3954 2386.8599,-50.6788 2395.5072,-30.5633"/>
<polygon fill="#191970" stroke="#191970" points="2293.9133,-138.0222 2286.38,-145.472 2296.9149,-144.346 2293.9133,-138.0222"/>
</g>
<!-- Node58 -->
<g id="node31" class="node">
<title>Node58</title>
<g id="a_node31"><a xlink:href="../../d3/de5/ImprovedBMTQAllocatorImpl_8h.xhtml" target="_top" xlink:title="include/enfield/Transform\l/Allocators/BMT/ImprovedBMTQAllocator\lImpl.h">
<polygon fill="none" stroke="#000000" points="1900.5,-67.5 1900.5,-108.5 2114.5,-108.5 2114.5,-67.5 1900.5,-67.5"/>
<text text-anchor="start" x="1908.5" y="-96.5" font-family="Helvetica,sans-Serif" font-size="10.00" fill="#000000">include/enfield/Transform</text>
<text text-anchor="start" x="1908.5" y="-85.5" font-family="Helvetica,sans-Serif" font-size="10.00" fill="#000000">/Allocators/BMT/ImprovedBMTQAllocator</text>
<text text-anchor="middle" x="2007.5" y="-74.5" font-family="Helvetica,sans-Serif" font-size="10.00" fill="#000000">Impl.h</text>
</a>
</g>
</g>
<!-- Node54&#45;&gt;Node58 -->
<g id="edge44" class="edge">
<title>Node54&#45;&gt;Node58</title>
<path fill="none" stroke="#191970" d="M2161.1914,-141.9997C2130.7541,-131.3055 2095.2642,-118.8361 2066.0615,-108.5757"/>
<polygon fill="#191970" stroke="#191970" points="2160.2869,-145.3916 2170.8817,-145.4044 2162.6073,-138.7874 2160.2869,-145.3916"/>
</g>
<!-- Node55&#45;&gt;Node30 -->
<g id="edge41" class="edge">
<title>Node55&#45;&gt;Node30</title>
<path fill="none" stroke="#191970" d="M2122.7288,-67.0032C1811.1086,-30.3456 1729.1692,-53.5685 1420.5,-31 1389.0308,-28.6991 1354.2068,-25.4795 1324.8534,-22.5704"/>
<polygon fill="#191970" stroke="#191970" points="2122.619,-70.5147 2132.9621,-68.2187 2123.4447,-63.5636 2122.619,-70.5147"/>
</g>
<!-- Node56 -->
<g id="node29" class="node">
<title>Node56</title>
<g id="a_node29"><a xlink:href="../../d3/d95/DefaultBMTQAllocatorImpl_8cpp.xhtml" target="_top" xlink:title="lib/Transform/Allocators\l/BMT/DefaultBMTQAllocatorImpl.cpp">
<polygon fill="none" stroke="#000000" points="2090.5,-.5 2090.5,-30.5 2284.5,-30.5 2284.5,-.5 2090.5,-.5"/>
<text text-anchor="start" x="2098.5" y="-18.5" font-family="Helvetica,sans-Serif" font-size="10.00" fill="#000000">lib/Transform/Allocators</text>
<text text-anchor="middle" x="2187.5" y="-7.5" font-family="Helvetica,sans-Serif" font-size="10.00" fill="#000000">/BMT/DefaultBMTQAllocatorImpl.cpp</text>
</a>
</g>
</g>
<!-- Node55&#45;&gt;Node56 -->
<g id="edge42" class="edge">
<title>Node55&#45;&gt;Node56</title>
<path fill="none" stroke="#191970" d="M2215.5792,-58.8136C2209.3078,-49.1397 2202.5838,-38.7676 2197.2884,-30.5991"/>
<polygon fill="#191970" stroke="#191970" points="2212.7808,-60.9312 2221.1574,-67.4183 2218.6545,-57.1234 2212.7808,-60.9312"/>
</g>
<!-- Node55&#45;&gt;Node57 -->
<g id="edge43" class="edge">
<title>Node55&#45;&gt;Node57</title>
<path fill="none" stroke="#191970" d="M2291.3031,-63.34C2316.3281,-52.4758 2344.9284,-40.0595 2366.72,-30.5991"/>
<polygon fill="#191970" stroke="#191970" points="2289.6879,-60.2255 2281.9088,-67.4183 2292.4755,-66.6466 2289.6879,-60.2255"/>
</g>
<!-- Node58&#45;&gt;Node30 -->
<g id="edge45" class="edge">
<title>Node58&#45;&gt;Node30</title>
<path fill="none" stroke="#191970" d="M1890.358,-67.4924C1889.0656,-67.3243 1887.7793,-67.1601 1886.5,-67 1680.3789,-41.2106 1627.4613,-48.833 1420.5,-31 1389.0633,-28.2912 1354.2436,-25.0174 1324.8847,-22.1778"/>
<polygon fill="#191970" stroke="#191970" points="1889.9867,-70.974 1900.3669,-68.8521 1890.9291,-64.0377 1889.9867,-70.974"/>
</g>
<!-- Node59 -->
<g id="node32" class="node">
<title>Node59</title>
<g id="a_node32"><a xlink:href="../../de/db6/ImprovedBMTQAllocatorImpl_8cpp.xhtml" target="_top" xlink:title="lib/Transform/Allocators\l/BMT/ImprovedBMTQAllocatorImpl.cpp">
<polygon fill="none" stroke="#000000" points="1868.5,-.5 1868.5,-30.5 2072.5,-30.5 2072.5,-.5 1868.5,-.5"/>
<text text-anchor="start" x="1876.5" y="-18.5" font-family="Helvetica,sans-Serif" font-size="10.00" fill="#000000">lib/Transform/Allocators</text>
<text text-anchor="middle" x="1970.5" y="-7.5" font-family="Helvetica,sans-Serif" font-size="10.00" fill="#000000">/BMT/ImprovedBMTQAllocatorImpl.cpp</text>
</a>
</g>
</g>
<!-- Node58&#45;&gt;Node59 -->
<g id="edge46" class="edge">
<title>Node58&#45;&gt;Node59</title>
<path fill="none" stroke="#191970" d="M1992.3022,-58.2205C1987.4523,-48.7173 1982.2894,-38.6009 1978.2058,-30.5991"/>
<polygon fill="#191970" stroke="#191970" points="1989.333,-60.1022 1996.9963,-67.4183 1995.568,-56.9202 1989.333,-60.1022"/>
</g>
</g>
</svg>
