<?xml version="1.0" encoding="UTF-8" standalone="no"?>
<!DOCTYPE svg PUBLIC "-//W3C//DTD SVG 1.1//EN"
 "http://www.w3.org/Graphics/SVG/1.1/DTD/svg11.dtd">
<!-- Generated by graphviz version 2.38.0 (20140413.2041)
 -->
<!-- Title: efd::SimpleDepSolver::SimpleDepSolver Pages: 1 -->
<svg width="412pt" height="39pt"
 viewBox="0.00 0.00 412.00 39.00" xmlns="http://www.w3.org/2000/svg" xmlns:xlink="http://www.w3.org/1999/xlink">
<g id="graph0" class="graph" transform="scale(1 1) rotate(0) translate(4 35)">
<title>efd::SimpleDepSolver::SimpleDepSolver</title>
<!-- Node0 -->
<g id="node1" class="node"><title>Node0</title>
<polygon fill="#bfbfbf" stroke="black" points="0,-0.5 0,-30.5 112,-30.5 112,-0.5 0,-0.5"/>
<text text-anchor="start" x="8" y="-18.5" font-family="Helvetica,sans-Serif" font-size="10.00">efd::SimpleDepSolver</text>
<text text-anchor="middle" x="56" y="-7.5" font-family="Helvetica,sans-Serif" font-size="10.00">::SimpleDepSolver</text>
</g>
<!-- Node1 -->
<g id="node2" class="node"><title>Node1</title>
<g id="a_node2"><a xlink:href="../../da/d6e/classefd_1_1DepSolverQAllocator.xhtml#a4ab0f7fa706eec4610c520607831092f" target="_top" xlink:title="efd::DepSolverQAllocator\l::DepSolverQAllocator">
<polygon fill="none" stroke="black" points="148,-0.5 148,-30.5 276,-30.5 276,-0.5 148,-0.5"/>
<text text-anchor="start" x="156" y="-18.5" font-family="Helvetica,sans-Serif" font-size="10.00">efd::DepSolverQAllocator</text>
<text text-anchor="middle" x="212" y="-7.5" font-family="Helvetica,sans-Serif" font-size="10.00">::DepSolverQAllocator</text>
</a>
</g>
</g>
<!-- Node0&#45;&gt;Node1 -->
<g id="edge1" class="edge"><title>Node0&#45;&gt;Node1</title>
<path fill="none" stroke="midnightblue" d="M112.163,-15.5C120.475,-15.5 129.157,-15.5 137.777,-15.5"/>
<polygon fill="midnightblue" stroke="midnightblue" points="137.84,-19.0001 147.84,-15.5 137.84,-12.0001 137.84,-19.0001"/>
</g>
<!-- Node2 -->
<g id="node3" class="node"><title>Node2</title>
<g id="a_node3"><a xlink:href="../../de/d5a/classefd_1_1QbitAllocator.xhtml#aa380bf007e46c8c8f09ffe7d4a552d54" target="_top" xlink:title="efd::QbitAllocator\l::QbitAllocator">
<polygon fill="none" stroke="black" points="312,-0.5 312,-30.5 404,-30.5 404,-0.5 312,-0.5"/>
<text text-anchor="start" x="320" y="-18.5" font-family="Helvetica,sans-Serif" font-size="10.00">efd::QbitAllocator</text>
<text text-anchor="middle" x="358" y="-7.5" font-family="Helvetica,sans-Serif" font-size="10.00">::QbitAllocator</text>
</a>
</g>
</g>
<!-- Node1&#45;&gt;Node2 -->
<g id="edge2" class="edge"><title>Node1&#45;&gt;Node2</title>
<path fill="none" stroke="midnightblue" d="M276.16,-15.5C284.556,-15.5 293.114,-15.5 301.368,-15.5"/>
<polygon fill="midnightblue" stroke="midnightblue" points="301.627,-19.0001 311.627,-15.5 301.627,-12.0001 301.627,-19.0001"/>
</g>
</g>
</svg>
