<?xml version="1.0" encoding="UTF-8" standalone="no"?>
<!DOCTYPE svg PUBLIC "-//W3C//DTD SVG 1.1//EN"
 "http://www.w3.org/Graphics/SVG/1.1/DTD/svg11.dtd">
<!-- Generated by graphviz version 2.38.0 (20140413.2041)
 -->
<!-- Title: efd::NDQasmVersion::cloneImpl Pages: 1 -->
<svg width="726pt" height="214pt"
 viewBox="0.00 0.00 726.00 214.00" xmlns="http://www.w3.org/2000/svg" xmlns:xlink="http://www.w3.org/1999/xlink">
<g id="graph0" class="graph" transform="scale(1 1) rotate(0) translate(4 210)">
<title>efd::NDQasmVersion::cloneImpl</title>
<!-- Node8 -->
<g id="node1" class="node"><title>Node8</title>
<polygon fill="#bfbfbf" stroke="black" points="0,-88 0,-118 110,-118 110,-88 0,-88"/>
<text text-anchor="start" x="8" y="-106" font-family="Helvetica,sans-Serif" font-size="10.00">efd::NDQasmVersion</text>
<text text-anchor="middle" x="55" y="-95" font-family="Helvetica,sans-Serif" font-size="10.00">::cloneImpl</text>
</g>
<!-- Node9 -->
<g id="node2" class="node"><title>Node9</title>
<g id="a_node2"><a xlink:href="../../d6/d6a/classefd_1_1Node.xhtml#a6c85c9bd21014b73497de741cc75f706" target="_top" xlink:title="Clones the current node (deep copy). ">
<polygon fill="none" stroke="black" points="162,-186.5 162,-205.5 251,-205.5 251,-186.5 162,-186.5"/>
<text text-anchor="middle" x="206.5" y="-193.5" font-family="Helvetica,sans-Serif" font-size="10.00">efd::Node::clone</text>
</a>
</g>
</g>
<!-- Node8&#45;&gt;Node9 -->
<g id="edge1" class="edge"><title>Node8&#45;&gt;Node9</title>
<path fill="none" stroke="midnightblue" d="M70.6148,-118.053C87.4219,-134.594 116.509,-160.942 146,-177 149.964,-179.159 154.212,-181.117 158.547,-182.885"/>
<polygon fill="midnightblue" stroke="midnightblue" points="157.506,-186.232 168.099,-186.45 159.954,-179.674 157.506,-186.232"/>
</g>
<!-- Node11 -->
<g id="node4" class="node"><title>Node11</title>
<g id="a_node4"><a xlink:href="../../d9/dcb/classefd_1_1NDQasmVersion.xhtml#a797ca00ee47d3e341eea1be65f0c8615" target="_top" xlink:title="Creates a new instance of this node. ">
<polygon fill="none" stroke="black" points="151.5,-137 151.5,-167 261.5,-167 261.5,-137 151.5,-137"/>
<text text-anchor="start" x="159.5" y="-155" font-family="Helvetica,sans-Serif" font-size="10.00">efd::NDQasmVersion</text>
<text text-anchor="middle" x="206.5" y="-144" font-family="Helvetica,sans-Serif" font-size="10.00">::Create</text>
</a>
</g>
</g>
<!-- Node8&#45;&gt;Node11 -->
<g id="edge3" class="edge"><title>Node8&#45;&gt;Node11</title>
<path fill="none" stroke="midnightblue" d="M102.075,-118.101C117.208,-123.062 134.19,-128.627 149.95,-133.793"/>
<polygon fill="midnightblue" stroke="midnightblue" points="148.985,-137.16 159.577,-136.948 151.165,-130.508 148.985,-137.16"/>
</g>
<!-- Node16 -->
<g id="node9" class="node"><title>Node16</title>
<g id="a_node9"><a xlink:href="../../d9/dcb/classefd_1_1NDQasmVersion.xhtml#a8a8428b4ee1b54ab5009981511133ecf" target="_top" xlink:title="Gets the node that holds the statements. ">
<polygon fill="none" stroke="black" points="151.5,-88 151.5,-118 261.5,-118 261.5,-88 151.5,-88"/>
<text text-anchor="start" x="159.5" y="-106" font-family="Helvetica,sans-Serif" font-size="10.00">efd::NDQasmVersion</text>
<text text-anchor="middle" x="206.5" y="-95" font-family="Helvetica,sans-Serif" font-size="10.00">::getStatements</text>
</a>
</g>
</g>
<!-- Node8&#45;&gt;Node16 -->
<g id="edge8" class="edge"><title>Node8&#45;&gt;Node16</title>
<path fill="none" stroke="midnightblue" d="M110.396,-103C120.414,-103 130.961,-103 141.238,-103"/>
<polygon fill="midnightblue" stroke="midnightblue" points="141.395,-106.5 151.395,-103 141.395,-99.5001 141.395,-106.5"/>
</g>
<!-- Node18 -->
<g id="node11" class="node"><title>Node18</title>
<g id="a_node11"><a xlink:href="../../d9/dcb/classefd_1_1NDQasmVersion.xhtml#adb0f8cedefb3c43a5e8346f31feaa9c0" target="_top" xlink:title="Gets the node that holds the version. ">
<polygon fill="none" stroke="black" points="151.5,-39 151.5,-69 261.5,-69 261.5,-39 151.5,-39"/>
<text text-anchor="start" x="159.5" y="-57" font-family="Helvetica,sans-Serif" font-size="10.00">efd::NDQasmVersion</text>
<text text-anchor="middle" x="206.5" y="-46" font-family="Helvetica,sans-Serif" font-size="10.00">::getVersion</text>
</a>
</g>
</g>
<!-- Node8&#45;&gt;Node18 -->
<g id="edge10" class="edge"><title>Node8&#45;&gt;Node18</title>
<path fill="none" stroke="midnightblue" d="M102.075,-87.8986C117.208,-82.9385 134.19,-77.3726 149.95,-72.2071"/>
<polygon fill="midnightblue" stroke="midnightblue" points="151.165,-75.4921 159.577,-69.0516 148.985,-68.8403 151.165,-75.4921"/>
</g>
<!-- Node19 -->
<g id="node12" class="node"><title>Node19</title>
<g id="a_node12"><a xlink:href="../../d4/deb/namespaceefd.xhtml#ad7adca0e4de58074aa3f91827469a491" target="_top" xlink:title="Uses the RTTI framework to cast forwardly an unique_ptr. ">
<polygon fill="none" stroke="black" points="146,-0.5 146,-19.5 267,-19.5 267,-0.5 146,-0.5"/>
<text text-anchor="middle" x="206.5" y="-7.5" font-family="Helvetica,sans-Serif" font-size="10.00">efd::uniqueCastForward</text>
</a>
</g>
</g>
<!-- Node8&#45;&gt;Node19 -->
<g id="edge12" class="edge"><title>Node8&#45;&gt;Node19</title>
<path fill="none" stroke="midnightblue" d="M70.6148,-87.9467C87.4219,-71.4057 116.509,-45.0581 146,-29 149.964,-26.8415 154.212,-24.8826 158.547,-23.1155"/>
<polygon fill="midnightblue" stroke="midnightblue" points="159.954,-26.3262 168.099,-19.5502 157.506,-19.7681 159.954,-26.3262"/>
</g>
<!-- Node10 -->
<g id="node3" class="node"><title>Node10</title>
<g id="a_node3"><a xlink:href="../../d6/d6a/classefd_1_1Node.xhtml#ac078ce64eb404cfdc24b9288908536e4" target="_top" xlink:title="Clones the current node (deep copy). ">
<polygon fill="none" stroke="black" points="304.5,-186.5 304.5,-205.5 411.5,-205.5 411.5,-186.5 304.5,-186.5"/>
<text text-anchor="middle" x="358" y="-193.5" font-family="Helvetica,sans-Serif" font-size="10.00">efd::Node::cloneImpl</text>
</a>
</g>
</g>
<!-- Node9&#45;&gt;Node10 -->
<g id="edge2" class="edge"><title>Node9&#45;&gt;Node10</title>
<path fill="none" stroke="midnightblue" d="M251.143,-196C264.528,-196 279.533,-196 293.943,-196"/>
<polygon fill="midnightblue" stroke="midnightblue" points="294.299,-199.5 304.299,-196 294.299,-192.5 294.299,-199.5"/>
</g>
<!-- Node12 -->
<g id="node5" class="node"><title>Node12</title>
<g id="a_node5"><a xlink:href="../../d9/dcb/classefd_1_1NDQasmVersion.xhtml#aaff201c726ac39af5cda849e3e0d27c1" target="_top" xlink:title="efd::NDQasmVersion\l::NDQasmVersion">
<polygon fill="none" stroke="black" points="303,-137 303,-167 413,-167 413,-137 303,-137"/>
<text text-anchor="start" x="311" y="-155" font-family="Helvetica,sans-Serif" font-size="10.00">efd::NDQasmVersion</text>
<text text-anchor="middle" x="358" y="-144" font-family="Helvetica,sans-Serif" font-size="10.00">::NDQasmVersion</text>
</a>
</g>
</g>
<!-- Node11&#45;&gt;Node12 -->
<g id="edge4" class="edge"><title>Node11&#45;&gt;Node12</title>
<path fill="none" stroke="midnightblue" d="M261.896,-152C271.914,-152 282.461,-152 292.738,-152"/>
<polygon fill="midnightblue" stroke="midnightblue" points="292.895,-155.5 302.895,-152 292.895,-148.5 292.895,-155.5"/>
</g>
<!-- Node13 -->
<g id="node6" class="node"><title>Node13</title>
<g id="a_node6"><a xlink:href="../../d6/d6a/classefd_1_1Node.xhtml#a8ac8c3206c6f6817a8c8e515ac830f61" target="_top" xlink:title="Adds a child to this node. It should be used only for construction of each derived class...">
<polygon fill="none" stroke="black" points="449,-161.5 449,-180.5 575,-180.5 575,-161.5 449,-161.5"/>
<text text-anchor="middle" x="512" y="-168.5" font-family="Helvetica,sans-Serif" font-size="10.00">efd::Node::innerAddChild</text>
</a>
</g>
</g>
<!-- Node12&#45;&gt;Node13 -->
<g id="edge5" class="edge"><title>Node12&#45;&gt;Node13</title>
<path fill="none" stroke="midnightblue" d="M413.017,-158.752C421.359,-159.795 430.086,-160.886 438.749,-161.969"/>
<polygon fill="midnightblue" stroke="midnightblue" points="438.504,-165.465 448.861,-163.233 439.372,-158.519 438.504,-165.465"/>
</g>
<!-- Node15 -->
<g id="node8" class="node"><title>Node15</title>
<g id="a_node8"><a xlink:href="../../d6/d6a/classefd_1_1Node.xhtml#a09ac8cdf7898a3d17293d92ae956eece" target="_top" xlink:title="Constructs the node, initially empty (with no information). ">
<polygon fill="none" stroke="black" points="467.5,-123.5 467.5,-142.5 556.5,-142.5 556.5,-123.5 467.5,-123.5"/>
<text text-anchor="middle" x="512" y="-130.5" font-family="Helvetica,sans-Serif" font-size="10.00">efd::Node::Node</text>
</a>
</g>
</g>
<!-- Node12&#45;&gt;Node15 -->
<g id="edge7" class="edge"><title>Node12&#45;&gt;Node15</title>
<path fill="none" stroke="midnightblue" d="M413.017,-145.248C427.3,-143.463 442.715,-141.536 456.997,-139.75"/>
<polygon fill="midnightblue" stroke="midnightblue" points="457.674,-143.193 467.163,-138.48 456.806,-136.247 457.674,-143.193"/>
</g>
<!-- Node14 -->
<g id="node7" class="node"><title>Node14</title>
<g id="a_node7"><a xlink:href="../../d6/d6a/classefd_1_1Node.xhtml#a48e9d49d994b9023b8400316e2782e2b" target="_top" xlink:title="Sets the parent node of the current node. ">
<polygon fill="none" stroke="black" points="611,-161.5 611,-180.5 718,-180.5 718,-161.5 611,-161.5"/>
<text text-anchor="middle" x="664.5" y="-168.5" font-family="Helvetica,sans-Serif" font-size="10.00">efd::Node::setParent</text>
</a>
</g>
</g>
<!-- Node13&#45;&gt;Node14 -->
<g id="edge6" class="edge"><title>Node13&#45;&gt;Node14</title>
<path fill="none" stroke="midnightblue" d="M575.083,-171C583.488,-171 592.118,-171 600.538,-171"/>
<polygon fill="midnightblue" stroke="midnightblue" points="600.674,-174.5 610.674,-171 600.674,-167.5 600.674,-174.5"/>
</g>
<!-- Node17 -->
<g id="node10" class="node"><title>Node17</title>
<g id="a_node10"><a xlink:href="../../d4/deb/namespaceefd.xhtml#a2cef687225e13315fc282dc40b5a6909" target="_top" xlink:title="Returns src cast to TargetTy, iff it is of class TargetTy, otherwise it will return nullptr...">
<polygon fill="none" stroke="black" points="321.5,-69.5 321.5,-88.5 394.5,-88.5 394.5,-69.5 321.5,-69.5"/>
<text text-anchor="middle" x="358" y="-76.5" font-family="Helvetica,sans-Serif" font-size="10.00">efd::dynCast</text>
</a>
</g>
</g>
<!-- Node16&#45;&gt;Node17 -->
<g id="edge9" class="edge"><title>Node16&#45;&gt;Node17</title>
<path fill="none" stroke="midnightblue" d="M261.896,-94.2676C278.059,-91.6729 295.596,-88.8576 311.157,-86.3594"/>
<polygon fill="midnightblue" stroke="midnightblue" points="311.744,-89.81 321.063,-84.7691 310.635,-82.8985 311.744,-89.81"/>
</g>
<!-- Node18&#45;&gt;Node17 -->
<g id="edge11" class="edge"><title>Node18&#45;&gt;Node17</title>
<path fill="none" stroke="midnightblue" d="M261.896,-63.0963C278.059,-65.7991 295.596,-68.7317 311.157,-71.3339"/>
<polygon fill="midnightblue" stroke="midnightblue" points="310.623,-74.7932 321.063,-72.9905 311.777,-67.889 310.623,-74.7932"/>
</g>
</g>
</svg>
