<?xml version="1.0" encoding="UTF-8" standalone="no"?>
<!DOCTYPE svg PUBLIC "-//W3C//DTD SVG 1.1//EN"
 "http://www.w3.org/Graphics/SVG/1.1/DTD/svg11.dtd">
<!-- Generated by graphviz version 2.38.0 (20140413.2041)
 -->
<!-- Title: efd::WeightedSIMappingFinder::find Pages: 1 -->
<!--zoomable 253 -->
<svg id="main" version="1.1" xmlns="http://www.w3.org/2000/svg" xmlns:xlink="http://www.w3.org/1999/xlink" xml:space="preserve" onload="init(evt)">
<style type="text/css"><![CDATA[
.edge:hover path { stroke: red; }
.edge:hover polygon { stroke: red; fill: red; }
]]></style>
<script type="text/javascript"><![CDATA[
var edges = document.getElementsByTagName('g');
if (edges && edges.length) {
  for (var i=0;i<edges.length;i++) {
    if (edges[i].id.substr(0,4)=='edge') {
      edges[i].setAttribute('class','edge');
    }
  }
}
]]></script>
        <defs>
                <circle id="rim" cx="0" cy="0" r="7"/>
                <circle id="rim2" cx="0" cy="0" r="3.5"/>
                <g id="zoomPlus">
                        <use xlink:href="#rim" fill="#404040">
                                <set attributeName="fill" to="#808080" begin="zoomplus.mouseover" end="zoomplus.mouseout"/>
                        </use>
                        <path d="M-4,0h8M0,-4v8" fill="none" stroke="white" stroke-width="1.5" pointer-events="none"/>
                </g>
                <g id="zoomMin">
                        <use xlink:href="#rim" fill="#404040">
                                <set attributeName="fill" to="#808080" begin="zoomminus.mouseover" end="zoomminus.mouseout"/>
                        </use>
                        <path d="M-4,0h8" fill="none" stroke="white" stroke-width="1.5" pointer-events="none"/>
                </g>
                <g id="dirArrow">
                        <path fill="none" stroke="white" stroke-width="1.5" d="M0,-3.0v7 M-2.5,-0.5L0,-3.0L2.5,-0.5"/>
                </g>
               <g id="resetDef">
                       <use xlink:href="#rim2" fill="#404040">
                               <set attributeName="fill" to="#808080" begin="reset.mouseover" end="reset.mouseout"/>
                       </use>
               </g>
        </defs>

<script type="text/javascript">
var viewWidth = 624;
var viewHeight = 253;
var sectionId = 'dynsection-2';
</script>
<script xlink:href="../../svgpan.js"/>
<svg id="graph" class="graph">
<g id="viewport">
<title>efd::WeightedSIMappingFinder::find</title>
<!-- Node1 -->
<g id="node1" class="node"><title>Node1</title>
<polygon fill="#bfbfbf" stroke="black" points="0,-99 0,-129 151,-129 151,-99 0,-99"/>
<text text-anchor="start" x="8" y="-117" font-family="Helvetica,sans-Serif" font-size="10.00">efd::WeightedSIMappingFinder</text>
<text text-anchor="middle" x="75.5" y="-106" font-family="Helvetica,sans-Serif" font-size="10.00">::find</text>
</g>
<!-- Node2 -->
<g id="node2" class="node"><title>Node2</title>
<g id="a_node2"><a xlink:href="../../d5/db6/classefd_1_1WeightedSIFinder.xhtml#a5bcd8385114a9ef46c78edefc57abd12" target="_top" xlink:title="Creates an instance of this class. ">
<polygon fill="none" stroke="black" points="187,-214 187,-244 301,-244 301,-214 187,-214"/>
<text text-anchor="start" x="195" y="-232" font-family="Helvetica,sans-Serif" font-size="10.00">efd::WeightedSIFinder</text>
<text text-anchor="middle" x="244" y="-221" font-family="Helvetica,sans-Serif" font-size="10.00">::Create</text>
</a>
</g>
</g>
<!-- Node1&#45;&gt;Node2 -->
<g id="edge1" class="edge"><title>Node1&#45;&gt;Node2</title>
<path fill="none" stroke="midnightblue" d="M91.8804,-129.107C112.29,-148.554 150.065,-182.512 187,-205 189.456,-206.496 192.022,-207.944 194.647,-209.339"/>
<polygon fill="midnightblue" stroke="midnightblue" points="193.214,-212.535 203.725,-213.863 196.336,-206.27 193.214,-212.535"/>
</g>
<!-- Node3 -->
<g id="node3" class="node"><title>Node3</title>
<g id="a_node3"><a xlink:href="../../d2/d54/classefd_1_1WeightedGraph.xhtml#a38be91c7b4b1b647d6924dd187482bd2" target="_top" xlink:title="Encapsulates the creation of a new Graph. ">
<polygon fill="none" stroke="black" points="192,-165 192,-195 296,-195 296,-165 192,-165"/>
<text text-anchor="start" x="200" y="-183" font-family="Helvetica,sans-Serif" font-size="10.00">efd::WeightedGraph</text>
<text text-anchor="middle" x="244" y="-172" font-family="Helvetica,sans-Serif" font-size="10.00">::Create</text>
</a>
</g>
</g>
<!-- Node1&#45;&gt;Node3 -->
<g id="edge2" class="edge"><title>Node1&#45;&gt;Node3</title>
<path fill="none" stroke="midnightblue" d="M114.698,-129.142C138.706,-138.658 169.866,-151.01 195.467,-161.158"/>
<polygon fill="midnightblue" stroke="midnightblue" points="194.393,-164.497 204.979,-164.929 196.973,-157.99 194.393,-164.497"/>
</g>
<!-- Node4 -->
<g id="node4" class="node"><title>Node4</title>
<g id="a_node4"><a xlink:href="../../d6/d1e/classefd_1_1SIFinder.xhtml#a103eba12aca0f90381b197e5902777d6" target="_top" xlink:title="Returns a valid matching of h in g. ">
<polygon fill="none" stroke="black" points="196.5,-126.5 196.5,-145.5 291.5,-145.5 291.5,-126.5 196.5,-126.5"/>
<text text-anchor="middle" x="244" y="-133.5" font-family="Helvetica,sans-Serif" font-size="10.00">efd::SIFinder::find</text>
</a>
</g>
</g>
<!-- Node1&#45;&gt;Node4 -->
<g id="edge3" class="edge"><title>Node1&#45;&gt;Node4</title>
<path fill="none" stroke="midnightblue" d="M151.47,-123.906C163.101,-125.443 174.949,-127.008 186.096,-128.481"/>
<polygon fill="midnightblue" stroke="midnightblue" points="185.736,-131.964 196.108,-129.804 186.653,-125.024 185.736,-131.964"/>
</g>
<!-- Node5 -->
<g id="node5" class="node"><title>Node5</title>
<g id="a_node5"><a xlink:href="../../d2/d54/classefd_1_1WeightedGraph.xhtml#ab686ed750280f96379b4dbf552fa4ff5" target="_top" xlink:title="Insert the edge (i, j) with weight w(i, j) = w. ">
<polygon fill="none" stroke="black" points="192,-77 192,-107 296,-107 296,-77 192,-77"/>
<text text-anchor="start" x="200" y="-95" font-family="Helvetica,sans-Serif" font-size="10.00">efd::WeightedGraph</text>
<text text-anchor="middle" x="244" y="-84" font-family="Helvetica,sans-Serif" font-size="10.00">::putEdge</text>
</a>
</g>
</g>
<!-- Node1&#45;&gt;Node5 -->
<g id="edge4" class="edge"><title>Node1&#45;&gt;Node5</title>
<path fill="none" stroke="midnightblue" d="M151.47,-104.094C161.592,-102.757 171.878,-101.397 181.723,-100.097"/>
<polygon fill="midnightblue" stroke="midnightblue" points="182.342,-103.545 191.798,-98.7655 181.425,-96.6056 182.342,-103.545"/>
</g>
<!-- Node8 -->
<g id="node8" class="node"><title>Node8</title>
<g id="a_node8"><a xlink:href="../../db/db3/classefd_1_1Graph.xhtml#aa85ea20ad74d6a7df7a52c13a9fabe2d" target="_top" xlink:title="Return the number of vertices. ">
<polygon fill="none" stroke="black" points="201,-38.5 201,-57.5 287,-57.5 287,-38.5 201,-38.5"/>
<text text-anchor="middle" x="244" y="-45.5" font-family="Helvetica,sans-Serif" font-size="10.00">efd::Graph::size</text>
</a>
</g>
</g>
<!-- Node1&#45;&gt;Node8 -->
<g id="edge8" class="edge"><title>Node1&#45;&gt;Node8</title>
<path fill="none" stroke="midnightblue" d="M111.646,-98.8265C133.268,-89.6274 161.608,-77.812 187,-68 193.004,-65.6801 199.404,-63.304 205.652,-61.0367"/>
<polygon fill="midnightblue" stroke="midnightblue" points="207.036,-64.2586 215.267,-57.5869 204.672,-57.6699 207.036,-64.2586"/>
</g>
<!-- Node9 -->
<g id="node9" class="node"><title>Node9</title>
<g id="a_node9"><a xlink:href="../../d4/deb/namespaceefd.xhtml#a5d73093d1b1ab771a2e970412a565f39" target="_top" xlink:title="Wrapper function that &quot;transforms&quot; a std::unique_ptr into a std::shared_ptr. ">
<polygon fill="none" stroke="black" points="206.5,-0.5 206.5,-19.5 281.5,-19.5 281.5,-0.5 206.5,-0.5"/>
<text text-anchor="middle" x="244" y="-7.5" font-family="Helvetica,sans-Serif" font-size="10.00">efd::toShared</text>
</a>
</g>
</g>
<!-- Node1&#45;&gt;Node9 -->
<g id="edge9" class="edge"><title>Node1&#45;&gt;Node9</title>
<path fill="none" stroke="midnightblue" d="M92.5286,-98.8956C113.032,-80.2612 150.296,-48.6432 187,-29 190.977,-26.8715 195.239,-24.914 199.57,-23.1314"/>
<polygon fill="midnightblue" stroke="midnightblue" points="200.98,-26.3398 209.079,-19.51 198.488,-19.7981 200.98,-26.3398"/>
</g>
<!-- Node6 -->
<g id="node6" class="node"><title>Node6</title>
<g id="a_node6"><a xlink:href="../../db/db3/classefd_1_1Graph.xhtml#a9010eb5a297272371c090f47098e2ccf" target="_top" xlink:title="Returns true if this is a directed graph. ">
<polygon fill="none" stroke="black" points="477,-82.5 477,-101.5 616,-101.5 616,-82.5 477,-82.5"/>
<text text-anchor="middle" x="546.5" y="-89.5" font-family="Helvetica,sans-Serif" font-size="10.00">efd::Graph::isDirectedGraph</text>
</a>
</g>
</g>
<!-- Node5&#45;&gt;Node6 -->
<g id="edge5" class="edge"><title>Node5&#45;&gt;Node6</title>
<path fill="none" stroke="midnightblue" d="M296.316,-92C343.088,-92 412.884,-92 466.721,-92"/>
<polygon fill="midnightblue" stroke="midnightblue" points="466.92,-95.5001 476.92,-92 466.92,-88.5001 466.92,-95.5001"/>
</g>
<!-- Node7 -->
<g id="node7" class="node"><title>Node7</title>
<g id="a_node7"><a xlink:href="../../db/db3/classefd_1_1Graph.xhtml#a3ecb9d2571e0ca6798a8de8a9efa08ed" target="_top" xlink:title="Inserts an edge (i, j) in the successor&#39;s list and an edge (j, i) in the predecessor&#39;s list...">
<polygon fill="none" stroke="black" points="337,-63.5 337,-82.5 441,-82.5 441,-63.5 337,-63.5"/>
<text text-anchor="middle" x="389" y="-70.5" font-family="Helvetica,sans-Serif" font-size="10.00">efd::Graph::putEdge</text>
</a>
</g>
</g>
<!-- Node5&#45;&gt;Node7 -->
<g id="edge6" class="edge"><title>Node5&#45;&gt;Node7</title>
<path fill="none" stroke="midnightblue" d="M296.222,-85.1942C306.08,-83.8845 316.498,-82.5003 326.638,-81.153"/>
<polygon fill="midnightblue" stroke="midnightblue" points="327.203,-84.6088 336.655,-79.8221 326.281,-77.6698 327.203,-84.6088"/>
</g>
<!-- Node7&#45;&gt;Node6 -->
<g id="edge7" class="edge"><title>Node7&#45;&gt;Node6</title>
<path fill="none" stroke="midnightblue" d="M441.347,-79.274C449.486,-80.2684 458.063,-81.3164 466.657,-82.3665"/>
<polygon fill="midnightblue" stroke="midnightblue" points="466.379,-85.8584 476.73,-83.5972 467.228,-78.9101 466.379,-85.8584"/>
</g>
</g>
</svg>
        <g id="navigator" transform="translate(0 0)" fill="#404254">
                <rect fill="#f2f5e9" fill-opacity="0.5" stroke="#606060" stroke-width=".5" x="0" y="0" width="60" height="60"/>
                <use id="zoomplus" xlink:href="#zoomPlus" x="17" y="9" onmousedown="handleZoom(evt,'in')"/>
                <use id="zoomminus" xlink:href="#zoomMin" x="42" y="9" onmousedown="handleZoom(evt,'out')"/>
                <use id="reset" xlink:href="#resetDef" x="30" y="36" onmousedown="handleReset()"/>
                <g id="arrowUp" xlink:href="#dirArrow" transform="translate(30 24)" onmousedown="handlePan(0,-1)">
                  <use xlink:href="#rim" fill="#404040">
                        <set attributeName="fill" to="#808080" begin="arrowUp.mouseover" end="arrowUp.mouseout"/>
                  </use>
                  <path fill="none" stroke="white" stroke-width="1.5" d="M0,-3.0v7 M-2.5,-0.5L0,-3.0L2.5,-0.5"/>
                </g>
                <g id="arrowRight" xlink:href="#dirArrow" transform="rotate(90) translate(36 -43)" onmousedown="handlePan(1,0)">
                  <use xlink:href="#rim" fill="#404040">
                        <set attributeName="fill" to="#808080" begin="arrowRight.mouseover" end="arrowRight.mouseout"/>
                  </use>
                  <path fill="none" stroke="white" stroke-width="1.5" d="M0,-3.0v7 M-2.5,-0.5L0,-3.0L2.5,-0.5"/>
                </g>
                <g id="arrowDown" xlink:href="#dirArrow" transform="rotate(180) translate(-30 -48)" onmousedown="handlePan(0,1)">
                  <use xlink:href="#rim" fill="#404040">
                        <set attributeName="fill" to="#808080" begin="arrowDown.mouseover" end="arrowDown.mouseout"/>
                  </use>
                  <path fill="none" stroke="white" stroke-width="1.5" d="M0,-3.0v7 M-2.5,-0.5L0,-3.0L2.5,-0.5"/>
                </g>
                <g id="arrowLeft" xlink:href="#dirArrow" transform="rotate(270) translate(-36 17)" onmousedown="handlePan(-1,0)">
                  <use xlink:href="#rim" fill="#404040">
                        <set attributeName="fill" to="#808080" begin="arrowLeft.mouseover" end="arrowLeft.mouseout"/>
                  </use>
                  <path fill="none" stroke="white" stroke-width="1.5" d="M0,-3.0v7 M-2.5,-0.5L0,-3.0L2.5,-0.5"/>
                </g>
        </g>
        <svg viewBox="0 0 15 15" width="100%" height="30px" preserveAspectRatio="xMaxYMin meet">
         <g id="arrow_out" transform="scale(0.3 0.3)">
          <a xlink:href="classefd_1_1WeightedSIMappingFinder_a093d61927d15ffcf545c657889fdb237_cgraph_org.svg" target="_base">
           <rect id="button" ry="5" rx="5" y="6" x="6" height="38" width="38"
                fill="#f2f5e9" fill-opacity="0.5" stroke="#606060" stroke-width="1.0"/>
           <path id="arrow"
             d="M 11.500037,31.436501 C 11.940474,20.09759 22.043105,11.32322 32.158766,21.979434 L 37.068811,17.246167 C 37.068811,17.246167 37.088388,32 37.088388,32 L 22.160133,31.978069 C 22.160133,31.978069 26.997745,27.140456 26.997745,27.140456 C 18.528582,18.264221 13.291696,25.230495 11.500037,31.436501 z"
             style="fill:#404040;"/>
          </a>
         </g>
        </svg>
</svg>
