<?xml version="1.0" encoding="UTF-8" standalone="no"?>
<!DOCTYPE svg PUBLIC "-//W3C//DTD SVG 1.1//EN"
 "http://www.w3.org/Graphics/SVG/1.1/DTD/svg11.dtd">
<!-- Generated by graphviz version 2.40.1 (20161225.0304)
 -->
<!-- Title: efd::RenameQbitVisitor::visit Pages: 1 -->
<svg width="469pt" height="66pt"
 viewBox="0.00 0.00 469.00 66.00" xmlns="http://www.w3.org/2000/svg" xmlns:xlink="http://www.w3.org/1999/xlink">
<g id="graph0" class="graph" transform="scale(1 1) rotate(0) translate(4 62)">
<title>efd::RenameQbitVisitor::visit</title>
<!-- Node5 -->
<g id="node1" class="node">
<title>Node5</title>
<polygon fill="#bfbfbf" stroke="#000000" points="0,-14 0,-44 131,-44 131,-14 0,-14"/>
<text text-anchor="start" x="8" y="-32" font-family="Helvetica,sans-Serif" font-size="10.00" fill="#000000">efd::RenameQbitVisitor</text>
<text text-anchor="middle" x="65.5" y="-21" font-family="Helvetica,sans-Serif" font-size="10.00" fill="#000000">::visit</text>
</g>
<!-- Node6 -->
<g id="node2" class="node">
<title>Node6</title>
<g id="a_node2"><a xlink:href="../../d0/dd2/classefd_1_1NDQOpReset.xhtml#a48d635fc9db4958d55ea6fc2433b87eb" target="_top" xlink:title="Gets the quantum argument. ">
<polygon fill="none" stroke="#000000" points="167,-38.5 167,-57.5 315,-57.5 315,-38.5 167,-38.5"/>
<text text-anchor="middle" x="241" y="-45.5" font-family="Helvetica,sans-Serif" font-size="10.00" fill="#000000">efd::NDQOpReset::getQArg</text>
</a>
</g>
</g>
<!-- Node5&#45;&gt;Node6 -->
<g id="edge1" class="edge">
<title>Node5&#45;&gt;Node6</title>
<path fill="none" stroke="#191970" d="M131.349,-36.129C139.6681,-37.0296 148.2677,-37.9606 156.822,-38.8867"/>
<polygon fill="#191970" stroke="#191970" points="156.5049,-42.3728 166.8236,-39.9695 157.2584,-35.4134 156.5049,-42.3728"/>
</g>
<!-- Node8 -->
<g id="node4" class="node">
<title>Node8</title>
<g id="a_node4"><a xlink:href="../../d0/dd2/classefd_1_1NDQOpReset.xhtml#a0521bf5e0db35601cf780c72c852e263" target="_top" xlink:title="Sets the quantum argument. ">
<polygon fill="none" stroke="#000000" points="167.5,-.5 167.5,-19.5 314.5,-19.5 314.5,-.5 167.5,-.5"/>
<text text-anchor="middle" x="241" y="-7.5" font-family="Helvetica,sans-Serif" font-size="10.00" fill="#000000">efd::NDQOpReset::setQArg</text>
</a>
</g>
</g>
<!-- Node5&#45;&gt;Node8 -->
<g id="edge3" class="edge">
<title>Node5&#45;&gt;Node8</title>
<path fill="none" stroke="#191970" d="M131.349,-21.871C139.8079,-20.9553 148.5568,-20.0081 157.2532,-19.0666"/>
<polygon fill="#191970" stroke="#191970" points="157.8522,-22.5223 167.4174,-17.9662 157.0987,-15.563 157.8522,-22.5223"/>
</g>
<!-- Node7 -->
<g id="node3" class="node">
<title>Node7</title>
<g id="a_node3"><a xlink:href="../../d6/d6a/classefd_1_1Node.xhtml#a63e30243eca03b0c85d8c4856e91c79d" target="_top" xlink:title="Gets the i&#45;th child. ">
<polygon fill="none" stroke="#000000" points="351,-38.5 351,-57.5 461,-57.5 461,-38.5 351,-38.5"/>
<text text-anchor="middle" x="406" y="-45.5" font-family="Helvetica,sans-Serif" font-size="10.00" fill="#000000">efd::Node::getChild</text>
</a>
</g>
</g>
<!-- Node6&#45;&gt;Node7 -->
<g id="edge2" class="edge">
<title>Node6&#45;&gt;Node7</title>
<path fill="none" stroke="#191970" d="M315.2943,-48C323.808,-48 332.4394,-48 340.821,-48"/>
<polygon fill="#191970" stroke="#191970" points="340.8961,-51.5001 350.8961,-48 340.8961,-44.5001 340.8961,-51.5001"/>
</g>
</g>
</svg>
