<?xml version="1.0" encoding="UTF-8" standalone="no"?>
<!DOCTYPE svg PUBLIC "-//W3C//DTD SVG 1.1//EN"
 "http://www.w3.org/Graphics/SVG/1.1/DTD/svg11.dtd">
<!-- Generated by graphviz version 2.38.0 (20140413.2041)
 -->
<!-- Title: efd::RenameQbitVisitor::visit Pages: 1 -->
<svg width="583pt" height="66pt"
 viewBox="0.00 0.00 583.00 66.00" xmlns="http://www.w3.org/2000/svg" xmlns:xlink="http://www.w3.org/1999/xlink">
<g id="graph0" class="graph" transform="scale(1 1) rotate(0) translate(4 62)">
<title>efd::RenameQbitVisitor::visit</title>
<!-- Node7 -->
<g id="node1" class="node"><title>Node7</title>
<polygon fill="#bfbfbf" stroke="black" points="0,-14 0,-44 119,-44 119,-14 0,-14"/>
<text text-anchor="start" x="8" y="-32" font-family="Helvetica,sans-Serif" font-size="10.00">efd::RenameQbitVisitor</text>
<text text-anchor="middle" x="59.5" y="-21" font-family="Helvetica,sans-Serif" font-size="10.00">::visit</text>
</g>
<!-- Node8 -->
<g id="node2" class="node"><title>Node8</title>
<g id="a_node2"><a xlink:href="../../d0/dd2/classefd_1_1NDQOpReset.xhtml#a48d635fc9db4958d55ea6fc2433b87eb" target="_top" xlink:title="Gets the quantum argument. ">
<polygon fill="none" stroke="black" points="155,-38.5 155,-57.5 295,-57.5 295,-38.5 155,-38.5"/>
<text text-anchor="middle" x="225" y="-45.5" font-family="Helvetica,sans-Serif" font-size="10.00">efd::NDQOpReset::getQArg</text>
</a>
</g>
</g>
<!-- Node7&#45;&gt;Node8 -->
<g id="edge1" class="edge"><title>Node7&#45;&gt;Node8</title>
<path fill="none" stroke="midnightblue" d="M119.065,-35.8058C127.43,-36.7777 136.147,-37.7907 144.825,-38.7992"/>
<polygon fill="midnightblue" stroke="midnightblue" points="144.634,-42.3005 154.971,-39.9783 145.442,-35.3473 144.634,-42.3005"/>
</g>
<!-- Node10 -->
<g id="node4" class="node"><title>Node10</title>
<g id="a_node4"><a xlink:href="../../d0/dd2/classefd_1_1NDQOpReset.xhtml#a0521bf5e0db35601cf780c72c852e263" target="_top" xlink:title="Sets the quantum argument. ">
<polygon fill="none" stroke="black" points="155,-0.5 155,-19.5 295,-19.5 295,-0.5 155,-0.5"/>
<text text-anchor="middle" x="225" y="-7.5" font-family="Helvetica,sans-Serif" font-size="10.00">efd::NDQOpReset::setQArg</text>
</a>
</g>
</g>
<!-- Node7&#45;&gt;Node10 -->
<g id="edge3" class="edge"><title>Node7&#45;&gt;Node10</title>
<path fill="none" stroke="midnightblue" d="M119.065,-22.1942C127.43,-21.2223 136.147,-20.2093 144.825,-19.2008"/>
<polygon fill="midnightblue" stroke="midnightblue" points="145.442,-22.6527 154.971,-18.0217 144.634,-15.6995 145.442,-22.6527"/>
</g>
<!-- Node9 -->
<g id="node3" class="node"><title>Node9</title>
<g id="a_node3"><a xlink:href="../../d6/d6a/classefd_1_1Node.xhtml#a63e30243eca03b0c85d8c4856e91c79d" target="_top" xlink:title="Gets the i&#45;th child. ">
<polygon fill="none" stroke="black" points="331,-38.5 331,-57.5 432,-57.5 432,-38.5 331,-38.5"/>
<text text-anchor="middle" x="381.5" y="-45.5" font-family="Helvetica,sans-Serif" font-size="10.00">efd::Node::getChild</text>
</a>
</g>
</g>
<!-- Node8&#45;&gt;Node9 -->
<g id="edge2" class="edge"><title>Node8&#45;&gt;Node9</title>
<path fill="none" stroke="midnightblue" d="M295.116,-48C303.684,-48 312.387,-48 320.797,-48"/>
<polygon fill="midnightblue" stroke="midnightblue" points="320.881,-51.5001 330.881,-48 320.881,-44.5001 320.881,-51.5001"/>
</g>
<!-- Node11 -->
<g id="node5" class="node"><title>Node11</title>
<g id="a_node5"><a xlink:href="../../d6/d6a/classefd_1_1Node.xhtml#aad4510814ff15bd26fe2f95f9d2a2279" target="_top" xlink:title="Sets the i&#45;th child. ">
<polygon fill="none" stroke="black" points="331,-0.5 331,-19.5 432,-19.5 432,-0.5 331,-0.5"/>
<text text-anchor="middle" x="381.5" y="-7.5" font-family="Helvetica,sans-Serif" font-size="10.00">efd::Node::setChild</text>
</a>
</g>
</g>
<!-- Node10&#45;&gt;Node11 -->
<g id="edge4" class="edge"><title>Node10&#45;&gt;Node11</title>
<path fill="none" stroke="midnightblue" d="M295.116,-10C303.684,-10 312.387,-10 320.797,-10"/>
<polygon fill="midnightblue" stroke="midnightblue" points="320.881,-13.5001 330.881,-10 320.881,-6.5001 320.881,-13.5001"/>
</g>
<!-- Node12 -->
<g id="node6" class="node"><title>Node12</title>
<g id="a_node6"><a xlink:href="../../d6/d6a/classefd_1_1Node.xhtml#a48e9d49d994b9023b8400316e2782e2b" target="_top" xlink:title="Sets the parent node of the current node. ">
<polygon fill="none" stroke="black" points="468,-0.5 468,-19.5 575,-19.5 575,-0.5 468,-0.5"/>
<text text-anchor="middle" x="521.5" y="-7.5" font-family="Helvetica,sans-Serif" font-size="10.00">efd::Node::setParent</text>
</a>
</g>
</g>
<!-- Node11&#45;&gt;Node12 -->
<g id="edge5" class="edge"><title>Node11&#45;&gt;Node12</title>
<path fill="none" stroke="midnightblue" d="M432.321,-10C440.554,-10 449.183,-10 457.686,-10"/>
<polygon fill="midnightblue" stroke="midnightblue" points="457.959,-13.5001 467.959,-10 457.959,-6.5001 457.959,-13.5001"/>
</g>
</g>
</svg>
