<?xml version="1.0" encoding="UTF-8" standalone="no"?>
<!DOCTYPE svg PUBLIC "-//W3C//DTD SVG 1.1//EN"
 "http://www.w3.org/Graphics/SVG/1.1/DTD/svg11.dtd">
<!-- Generated by graphviz version 2.40.1 (20161225.0304)
 -->
<!-- Title: efd::RenameQbitVisitor::visit Pages: 1 -->
<svg width="458pt" height="66pt"
 viewBox="0.00 0.00 458.00 66.00" xmlns="http://www.w3.org/2000/svg" xmlns:xlink="http://www.w3.org/1999/xlink">
<g id="graph0" class="graph" transform="scale(1 1) rotate(0) translate(4 62)">
<title>efd::RenameQbitVisitor::visit</title>
<!-- Node23 -->
<g id="node1" class="node">
<title>Node23</title>
<polygon fill="#bfbfbf" stroke="#000000" points="0,-14 0,-44 131,-44 131,-14 0,-14"/>
<text text-anchor="start" x="8" y="-32" font-family="Helvetica,sans-Serif" font-size="10.00" fill="#000000">efd::RenameQbitVisitor</text>
<text text-anchor="middle" x="65.5" y="-21" font-family="Helvetica,sans-Serif" font-size="10.00" fill="#000000">::visit</text>
</g>
<!-- Node24 -->
<g id="node2" class="node">
<title>Node24</title>
<g id="a_node2"><a xlink:href="../../da/ddd/classefd_1_1NDList.xhtml#a0c627fa9aac8afe1562eae8f64830bff" target="_top" xlink:title="Used by visitor classes. ">
<polygon fill="none" stroke="#000000" points="177.5,-38.5 177.5,-57.5 281.5,-57.5 281.5,-38.5 177.5,-38.5"/>
<text text-anchor="middle" x="229.5" y="-45.5" font-family="Helvetica,sans-Serif" font-size="10.00" fill="#000000">efd::NDList::apply</text>
</a>
</g>
</g>
<!-- Node23&#45;&gt;Node24 -->
<g id="edge1" class="edge">
<title>Node23&#45;&gt;Node24</title>
<path fill="none" stroke="#191970" d="M131.2601,-36.6185C143.115,-37.992 155.4416,-39.4201 167.1945,-40.7817"/>
<polygon fill="#191970" stroke="#191970" points="167.0124,-44.2839 177.3488,-41.9581 167.8181,-37.3304 167.0124,-44.2839"/>
</g>
<!-- Node26 -->
<g id="node4" class="node">
<title>Node26</title>
<g id="a_node4"><a xlink:href="../../dd/d94/classefd_1_1NDQOp.xhtml#af7ef43289355c5bb047a46419177c8ed" target="_top" xlink:title="Gets the quantum arguments. ">
<polygon fill="none" stroke="#000000" points="167,-.5 167,-19.5 292,-19.5 292,-.5 167,-.5"/>
<text text-anchor="middle" x="229.5" y="-7.5" font-family="Helvetica,sans-Serif" font-size="10.00" fill="#000000">efd::NDQOp::getQArgs</text>
</a>
</g>
</g>
<!-- Node23&#45;&gt;Node26 -->
<g id="edge3" class="edge">
<title>Node23&#45;&gt;Node26</title>
<path fill="none" stroke="#191970" d="M131.2601,-21.3815C139.7147,-20.402 148.4093,-19.3947 156.9646,-18.4035"/>
<polygon fill="#191970" stroke="#191970" points="157.3903,-21.8777 166.9211,-17.25 156.5847,-14.9242 157.3903,-21.8777"/>
</g>
<!-- Node25 -->
<g id="node3" class="node">
<title>Node25</title>
<g id="a_node3"><a xlink:href="../../d8/d5d/classefd_1_1NodeVisitor.xhtml#ab06816b86084fc851dfc34ca445a58f2" target="_top" xlink:title="efd::NodeVisitor::visit">
<polygon fill="none" stroke="#000000" points="328,-38.5 328,-57.5 450,-57.5 450,-38.5 328,-38.5"/>
<text text-anchor="middle" x="389" y="-45.5" font-family="Helvetica,sans-Serif" font-size="10.00" fill="#000000">efd::NodeVisitor::visit</text>
</a>
</g>
</g>
<!-- Node24&#45;&gt;Node25 -->
<g id="edge2" class="edge">
<title>Node24&#45;&gt;Node25</title>
<path fill="none" stroke="#191970" d="M281.7263,-48C293.2249,-48 305.5936,-48 317.6997,-48"/>
<polygon fill="#191970" stroke="#191970" points="317.7822,-51.5001 327.7822,-48 317.7821,-44.5001 317.7822,-51.5001"/>
</g>
</g>
</svg>
