<?xml version="1.0" encoding="UTF-8" standalone="no"?>
<!DOCTYPE svg PUBLIC "-//W3C//DTD SVG 1.1//EN"
 "http://www.w3.org/Graphics/SVG/1.1/DTD/svg11.dtd">
<!-- Generated by graphviz version 2.40.1 (20161225.0304)
 -->
<!-- Title: efd::RenameQbitVisitor::visit Pages: 1 -->
<svg width="449pt" height="66pt"
 viewBox="0.00 0.00 449.00 66.00" xmlns="http://www.w3.org/2000/svg" xmlns:xlink="http://www.w3.org/1999/xlink">
<g id="graph0" class="graph" transform="scale(1 1) rotate(0) translate(4 62)">
<title>efd::RenameQbitVisitor::visit</title>
<!-- Node9 -->
<g id="node1" class="node">
<title>Node9</title>
<polygon fill="#bfbfbf" stroke="#000000" points="0,-14 0,-44 131,-44 131,-14 0,-14"/>
<text text-anchor="start" x="8" y="-32" font-family="Helvetica,sans-Serif" font-size="10.00" fill="#000000">efd::RenameQbitVisitor</text>
<text text-anchor="middle" x="65.5" y="-21" font-family="Helvetica,sans-Serif" font-size="10.00" fill="#000000">::visit</text>
</g>
<!-- Node10 -->
<g id="node2" class="node">
<title>Node10</title>
<g id="a_node2"><a xlink:href="../../d7/dbe/classefd_1_1NDQOpU.xhtml#ae838a9f802b7225b1a0909fb205779a4" target="_top" xlink:title="Gets the quantum argument. ">
<polygon fill="none" stroke="#000000" points="167,-38.5 167,-57.5 295,-57.5 295,-38.5 167,-38.5"/>
<text text-anchor="middle" x="231" y="-45.5" font-family="Helvetica,sans-Serif" font-size="10.00" fill="#000000">efd::NDQOpU::getQArg</text>
</a>
</g>
</g>
<!-- Node9&#45;&gt;Node10 -->
<g id="edge1" class="edge">
<title>Node9&#45;&gt;Node10</title>
<path fill="none" stroke="#191970" d="M131.3855,-36.5639C139.8081,-37.5308 148.4742,-38.5257 157.0143,-39.5062"/>
<polygon fill="#191970" stroke="#191970" points="156.6258,-42.9845 166.9597,-40.6479 157.4242,-36.0301 156.6258,-42.9845"/>
</g>
<!-- Node12 -->
<g id="node4" class="node">
<title>Node12</title>
<g id="a_node4"><a xlink:href="../../d7/dbe/classefd_1_1NDQOpU.xhtml#a300b862eb501b2cf6a8311377136bf72" target="_top" xlink:title="Sets the quantum argument. ">
<polygon fill="none" stroke="#000000" points="167.5,-.5 167.5,-19.5 294.5,-19.5 294.5,-.5 167.5,-.5"/>
<text text-anchor="middle" x="231" y="-7.5" font-family="Helvetica,sans-Serif" font-size="10.00" fill="#000000">efd::NDQOpU::setQArg</text>
</a>
</g>
</g>
<!-- Node9&#45;&gt;Node12 -->
<g id="edge3" class="edge">
<title>Node9&#45;&gt;Node12</title>
<path fill="none" stroke="#191970" d="M131.3855,-21.4361C139.9377,-20.4543 148.7409,-19.4436 157.4084,-18.4486"/>
<polygon fill="#191970" stroke="#191970" points="157.9623,-21.9081 167.4978,-17.2903 157.1638,-14.9538 157.9623,-21.9081"/>
</g>
<!-- Node11 -->
<g id="node3" class="node">
<title>Node11</title>
<g id="a_node3"><a xlink:href="../../d6/d6a/classefd_1_1Node.xhtml#a63e30243eca03b0c85d8c4856e91c79d" target="_top" xlink:title="Gets the i&#45;th child. ">
<polygon fill="none" stroke="#000000" points="331,-38.5 331,-57.5 441,-57.5 441,-38.5 331,-38.5"/>
<text text-anchor="middle" x="386" y="-45.5" font-family="Helvetica,sans-Serif" font-size="10.00" fill="#000000">efd::Node::getChild</text>
</a>
</g>
</g>
<!-- Node10&#45;&gt;Node11 -->
<g id="edge2" class="edge">
<title>Node10&#45;&gt;Node11</title>
<path fill="none" stroke="#191970" d="M295.3874,-48C303.7843,-48 312.3926,-48 320.8027,-48"/>
<polygon fill="#191970" stroke="#191970" points="320.9352,-51.5001 330.9351,-48 320.9351,-44.5001 320.9352,-51.5001"/>
</g>
</g>
</svg>
