<?xml version="1.0" encoding="UTF-8" standalone="no"?>
<!DOCTYPE svg PUBLIC "-//W3C//DTD SVG 1.1//EN"
 "http://www.w3.org/Graphics/SVG/1.1/DTD/svg11.dtd">
<!-- Generated by graphviz version 2.38.0 (20140413.2041)
 -->
<!-- Title: efd::RenameQbitVisitor::visit Pages: 1 -->
<svg width="566pt" height="142pt"
 viewBox="0.00 0.00 566.00 142.00" xmlns="http://www.w3.org/2000/svg" xmlns:xlink="http://www.w3.org/1999/xlink">
<g id="graph0" class="graph" transform="scale(1 1) rotate(0) translate(4 138)">
<title>efd::RenameQbitVisitor::visit</title>
<!-- Node19 -->
<g id="node1" class="node"><title>Node19</title>
<polygon fill="#bfbfbf" stroke="black" points="0,-52 0,-82 119,-82 119,-52 0,-52"/>
<text text-anchor="start" x="8" y="-70" font-family="Helvetica,sans-Serif" font-size="10.00">efd::RenameQbitVisitor</text>
<text text-anchor="middle" x="59.5" y="-59" font-family="Helvetica,sans-Serif" font-size="10.00">::visit</text>
</g>
<!-- Node20 -->
<g id="node2" class="node"><title>Node20</title>
<g id="a_node2"><a xlink:href="../../d3/d14/classefd_1_1NDQOpCX.xhtml#aebb2d70f1197065d1b127c2925dd33e6" target="_top" xlink:title="Gets the left hand side of the gate. ">
<polygon fill="none" stroke="black" points="156,-114.5 156,-133.5 277,-133.5 277,-114.5 156,-114.5"/>
<text text-anchor="middle" x="216.5" y="-121.5" font-family="Helvetica,sans-Serif" font-size="10.00">efd::NDQOpCX::getLhs</text>
</a>
</g>
</g>
<!-- Node19&#45;&gt;Node20 -->
<g id="edge1" class="edge"><title>Node19&#45;&gt;Node20</title>
<path fill="none" stroke="midnightblue" d="M96.1471,-82.0991C113.739,-89.354 135.352,-97.9764 155,-105 160.987,-107.14 167.351,-109.282 173.619,-111.315"/>
<polygon fill="midnightblue" stroke="midnightblue" points="172.728,-114.704 183.318,-114.405 174.853,-108.035 172.728,-114.704"/>
</g>
<!-- Node22 -->
<g id="node4" class="node"><title>Node22</title>
<g id="a_node4"><a xlink:href="../../d3/d14/classefd_1_1NDQOpCX.xhtml#a7b526a26be080f963c70e7001b7e9ff5" target="_top" xlink:title="Gets the right hand side of the gate. ">
<polygon fill="none" stroke="black" points="155,-76.5 155,-95.5 278,-95.5 278,-76.5 155,-76.5"/>
<text text-anchor="middle" x="216.5" y="-83.5" font-family="Helvetica,sans-Serif" font-size="10.00">efd::NDQOpCX::getRhs</text>
</a>
</g>
</g>
<!-- Node19&#45;&gt;Node22 -->
<g id="edge3" class="edge"><title>Node19&#45;&gt;Node22</title>
<path fill="none" stroke="midnightblue" d="M119.099,-74.1831C127.479,-75.2103 136.173,-76.276 144.756,-77.3281"/>
<polygon fill="midnightblue" stroke="midnightblue" points="144.403,-80.811 154.754,-78.5537 145.254,-73.863 144.403,-80.811"/>
</g>
<!-- Node23 -->
<g id="node5" class="node"><title>Node23</title>
<g id="a_node5"><a xlink:href="../../d3/d14/classefd_1_1NDQOpCX.xhtml#a78a4447b7eebbca4ce27c1a3d34fb402" target="_top" xlink:title="Sets the left hand side of the gate. ">
<polygon fill="none" stroke="black" points="156,-38.5 156,-57.5 277,-57.5 277,-38.5 156,-38.5"/>
<text text-anchor="middle" x="216.5" y="-45.5" font-family="Helvetica,sans-Serif" font-size="10.00">efd::NDQOpCX::setLhs</text>
</a>
</g>
</g>
<!-- Node19&#45;&gt;Node23 -->
<g id="edge5" class="edge"><title>Node19&#45;&gt;Node23</title>
<path fill="none" stroke="midnightblue" d="M119.099,-59.8169C127.819,-58.748 136.879,-57.6374 145.8,-56.5438"/>
<polygon fill="midnightblue" stroke="midnightblue" points="146.288,-60.0104 155.788,-55.3196 145.436,-53.0624 146.288,-60.0104"/>
</g>
<!-- Node26 -->
<g id="node8" class="node"><title>Node26</title>
<g id="a_node8"><a xlink:href="../../d3/d14/classefd_1_1NDQOpCX.xhtml#ad3e6eee14fad4c750688c2d8d81d8d48" target="_top" xlink:title="Sets the right hand side of the gate. ">
<polygon fill="none" stroke="black" points="155,-0.5 155,-19.5 278,-19.5 278,-0.5 155,-0.5"/>
<text text-anchor="middle" x="216.5" y="-7.5" font-family="Helvetica,sans-Serif" font-size="10.00">efd::NDQOpCX::setRhs</text>
</a>
</g>
</g>
<!-- Node19&#45;&gt;Node26 -->
<g id="edge8" class="edge"><title>Node19&#45;&gt;Node26</title>
<path fill="none" stroke="midnightblue" d="M96.1471,-51.9009C113.739,-44.646 135.352,-36.0236 155,-29 160.987,-26.8599 167.351,-24.7185 173.619,-22.6852"/>
<polygon fill="midnightblue" stroke="midnightblue" points="174.853,-25.9654 183.318,-19.5948 172.728,-19.2957 174.853,-25.9654"/>
</g>
<!-- Node21 -->
<g id="node3" class="node"><title>Node21</title>
<g id="a_node3"><a xlink:href="../../d6/d6a/classefd_1_1Node.xhtml#a63e30243eca03b0c85d8c4856e91c79d" target="_top" xlink:title="Gets the i&#45;th child. ">
<polygon fill="none" stroke="black" points="314,-85.5 314,-104.5 415,-104.5 415,-85.5 314,-85.5"/>
<text text-anchor="middle" x="364.5" y="-92.5" font-family="Helvetica,sans-Serif" font-size="10.00">efd::Node::getChild</text>
</a>
</g>
</g>
<!-- Node20&#45;&gt;Node21 -->
<g id="edge2" class="edge"><title>Node20&#45;&gt;Node21</title>
<path fill="none" stroke="midnightblue" d="M265.71,-114.424C278.419,-111.9 292.264,-109.15 305.432,-106.534"/>
<polygon fill="midnightblue" stroke="midnightblue" points="306.214,-109.947 315.34,-104.566 304.85,-103.081 306.214,-109.947"/>
</g>
<!-- Node22&#45;&gt;Node21 -->
<g id="edge4" class="edge"><title>Node22&#45;&gt;Node21</title>
<path fill="none" stroke="midnightblue" d="M278.149,-89.7386C286.615,-90.2605 295.31,-90.7965 303.759,-91.3173"/>
<polygon fill="midnightblue" stroke="midnightblue" points="303.715,-94.8212 313.912,-91.9432 304.146,-87.8345 303.715,-94.8212"/>
</g>
<!-- Node24 -->
<g id="node6" class="node"><title>Node24</title>
<g id="a_node6"><a xlink:href="../../d6/d6a/classefd_1_1Node.xhtml#aad4510814ff15bd26fe2f95f9d2a2279" target="_top" xlink:title="Sets the i&#45;th child. ">
<polygon fill="none" stroke="black" points="314,-28.5 314,-47.5 415,-47.5 415,-28.5 314,-28.5"/>
<text text-anchor="middle" x="364.5" y="-35.5" font-family="Helvetica,sans-Serif" font-size="10.00">efd::Node::setChild</text>
</a>
</g>
</g>
<!-- Node23&#45;&gt;Node24 -->
<g id="edge6" class="edge"><title>Node23&#45;&gt;Node24</title>
<path fill="none" stroke="midnightblue" d="M277.305,-43.9038C286.022,-43.3067 294.998,-42.6919 303.714,-42.0949"/>
<polygon fill="midnightblue" stroke="midnightblue" points="304.058,-45.5796 313.796,-41.4044 303.58,-38.596 304.058,-45.5796"/>
</g>
<!-- Node25 -->
<g id="node7" class="node"><title>Node25</title>
<g id="a_node7"><a xlink:href="../../d6/d6a/classefd_1_1Node.xhtml#a48e9d49d994b9023b8400316e2782e2b" target="_top" xlink:title="Sets the parent node of the current node. ">
<polygon fill="none" stroke="black" points="451,-28.5 451,-47.5 558,-47.5 558,-28.5 451,-28.5"/>
<text text-anchor="middle" x="504.5" y="-35.5" font-family="Helvetica,sans-Serif" font-size="10.00">efd::Node::setParent</text>
</a>
</g>
</g>
<!-- Node24&#45;&gt;Node25 -->
<g id="edge7" class="edge"><title>Node24&#45;&gt;Node25</title>
<path fill="none" stroke="midnightblue" d="M415.321,-38C423.554,-38 432.183,-38 440.686,-38"/>
<polygon fill="midnightblue" stroke="midnightblue" points="440.959,-41.5001 450.959,-38 440.959,-34.5001 440.959,-41.5001"/>
</g>
<!-- Node26&#45;&gt;Node24 -->
<g id="edge9" class="edge"><title>Node26&#45;&gt;Node24</title>
<path fill="none" stroke="midnightblue" d="M267.337,-19.5577C279.082,-21.8103 291.721,-24.2341 303.85,-26.5603"/>
<polygon fill="midnightblue" stroke="midnightblue" points="303.408,-30.0392 313.888,-28.4854 304.726,-23.1645 303.408,-30.0392"/>
</g>
</g>
</svg>
