<?xml version="1.0" encoding="UTF-8" standalone="no"?>
<!DOCTYPE svg PUBLIC "-//W3C//DTD SVG 1.1//EN"
 "http://www.w3.org/Graphics/SVG/1.1/DTD/svg11.dtd">
<!-- Generated by graphviz version 2.40.1 (20161225.0304)
 -->
<!-- Title: efd::DependencyBuilder::getDepsVector Pages: 1 -->
<svg width="297pt" height="104pt"
 viewBox="0.00 0.00 297.00 104.00" xmlns="http://www.w3.org/2000/svg" xmlns:xlink="http://www.w3.org/1999/xlink">
<g id="graph0" class="graph" transform="scale(1 1) rotate(0) translate(4 100)">
<title>efd::DependencyBuilder::getDepsVector</title>
<!-- Node7 -->
<g id="node1" class="node">
<title>Node7</title>
<polygon fill="#bfbfbf" stroke="#000000" points="0,-33 0,-63 134,-63 134,-33 0,-33"/>
<text text-anchor="start" x="8" y="-51" font-family="Helvetica,sans-Serif" font-size="10.00" fill="#000000">efd::DependencyBuilder</text>
<text text-anchor="middle" x="67" y="-40" font-family="Helvetica,sans-Serif" font-size="10.00" fill="#000000">::getDepsVector</text>
</g>
<!-- Node8 -->
<g id="node2" class="node">
<title>Node8</title>
<g id="a_node2"><a xlink:href="../../d4/deb/namespaceefd.xhtml#af3487901a239a99750dc5dcdc3a8c868" target="_top" xlink:title="efd::ExitWith">
<polygon fill="none" stroke="#000000" points="189.5,-76.5 189.5,-95.5 269.5,-95.5 269.5,-76.5 189.5,-76.5"/>
<text text-anchor="middle" x="229.5" y="-83.5" font-family="Helvetica,sans-Serif" font-size="10.00" fill="#000000">efd::ExitWith</text>
</a>
</g>
</g>
<!-- Node7&#45;&gt;Node8 -->
<g id="edge1" class="edge">
<title>Node7&#45;&gt;Node8</title>
<path fill="none" stroke="#191970" d="M131.2243,-63.0186C147.0819,-66.7268 163.8455,-70.6469 178.9496,-74.179"/>
<polygon fill="#191970" stroke="#191970" points="178.5753,-77.6858 189.1096,-76.5549 180.1693,-70.8697 178.5753,-77.6858"/>
</g>
<!-- Node9 -->
<g id="node3" class="node">
<title>Node9</title>
<g id="a_node3"><a xlink:href="../../d0/d9e/classefd_1_1NDDecl.xhtml#a34957c2122c38cebf80a264d5fa3863f" target="_top" xlink:title="Gets the id node. ">
<polygon fill="none" stroke="#000000" points="176.5,-38.5 176.5,-57.5 282.5,-57.5 282.5,-38.5 176.5,-38.5"/>
<text text-anchor="middle" x="229.5" y="-45.5" font-family="Helvetica,sans-Serif" font-size="10.00" fill="#000000">efd::NDDecl::getId</text>
</a>
</g>
</g>
<!-- Node7&#45;&gt;Node9 -->
<g id="edge2" class="edge">
<title>Node7&#45;&gt;Node9</title>
<path fill="none" stroke="#191970" d="M134.0332,-48C144.5899,-48 155.4772,-48 165.9519,-48"/>
<polygon fill="#191970" stroke="#191970" points="166.2616,-51.5001 176.2615,-48 166.2615,-44.5001 166.2616,-51.5001"/>
</g>
<!-- Node10 -->
<g id="node4" class="node">
<title>Node10</title>
<g id="a_node4"><a xlink:href="../../df/d1b/classefd_1_1NDValue.xhtml#a53ee724a8db3429bf30bb1936ad548b2" target="_top" xlink:title="Returns a copy to the setted value. ">
<polygon fill="none" stroke="#000000" points="170,-.5 170,-19.5 289,-19.5 289,-.5 170,-.5"/>
<text text-anchor="middle" x="229.5" y="-7.5" font-family="Helvetica,sans-Serif" font-size="10.00" fill="#000000">efd::NDValue::getVal</text>
</a>
</g>
</g>
<!-- Node7&#45;&gt;Node10 -->
<g id="edge3" class="edge">
<title>Node7&#45;&gt;Node10</title>
<path fill="none" stroke="#191970" d="M131.2243,-32.9814C146.9378,-29.3069 163.5408,-25.4243 178.5372,-21.9174"/>
<polygon fill="#191970" stroke="#191970" points="179.6918,-25.242 188.6321,-19.5568 178.0978,-18.4259 179.6918,-25.242"/>
</g>
</g>
</svg>
