<?xml version="1.0" encoding="UTF-8" standalone="no"?>
<!DOCTYPE svg PUBLIC "-//W3C//DTD SVG 1.1//EN"
 "http://www.w3.org/Graphics/SVG/1.1/DTD/svg11.dtd">
<!-- Generated by graphviz version 2.38.0 (20140413.2041)
 -->
<!-- Title: efd::Pass Pages: 1 -->
<svg width="1090pt" height="641pt"
 viewBox="0.00 0.00 1090.00 641.22" xmlns="http://www.w3.org/2000/svg" xmlns:xlink="http://www.w3.org/1999/xlink">
<g id="graph0" class="graph" transform="scale(1 1) rotate(0) translate(4 637.223)">
<title>efd::Pass</title>
<!-- Node0 -->
<g id="node1" class="node"><title>Node0</title>
<polygon fill="#bfbfbf" stroke="black" points="0,-342.5 0,-361.5 59,-361.5 59,-342.5 0,-342.5"/>
<text text-anchor="middle" x="29.5" y="-349.5" font-family="Helvetica,sans-Serif" font-size="10.00">efd::Pass</text>
</g>
<!-- Node1 -->
<g id="node2" class="node"><title>Node1</title>
<g id="a_node2"><a xlink:href="../../db/d56/classefd_1_1PassT.xhtml" target="_top" xlink:title="Should serve as base class for classes that produces some data of type T. ">
<polygon fill="none" stroke="black" points="102,-386.5 102,-405.5 191,-405.5 191,-386.5 102,-386.5"/>
<text text-anchor="middle" x="146.5" y="-393.5" font-family="Helvetica,sans-Serif" font-size="10.00">efd::PassT&lt; T &gt;</text>
</a>
</g>
</g>
<!-- Node0&#45;&gt;Node1 -->
<g id="edge1" class="edge"><title>Node0&#45;&gt;Node1</title>
<path fill="none" stroke="midnightblue" d="M64.9732,-365.19C82.8694,-372.037 104.33,-380.248 120.595,-386.471"/>
<polygon fill="midnightblue" stroke="midnightblue" points="66.0437,-361.852 55.4533,-361.547 63.5423,-368.39 66.0437,-361.852"/>
</g>
<!-- Node2 -->
<g id="node3" class="node"><title>Node2</title>
<g id="a_node3"><a xlink:href="../../db/d56/classefd_1_1PassT.xhtml" target="_top" xlink:title="efd::PassT\&lt; DependencyBuilder \&gt;">
<polygon fill="none" stroke="black" points="345,-480.5 345,-499.5 512,-499.5 512,-480.5 345,-480.5"/>
<text text-anchor="middle" x="428.5" y="-487.5" font-family="Helvetica,sans-Serif" font-size="10.00">efd::PassT&lt; DependencyBuilder &gt;</text>
</a>
</g>
</g>
<!-- Node0&#45;&gt;Node2 -->
<g id="edge34" class="edge"><title>Node0&#45;&gt;Node2</title>
<path fill="none" stroke="midnightblue" d="M39.5199,-370.835C50.7307,-393.024 71.4164,-430.248 96,-457 140.688,-505.629 152.331,-525.157 215,-546 261.39,-561.429 280.34,-565.89 325,-546 335.924,-541.135 333.27,-532.952 343,-526 359.218,-514.413 379.745,-505.558 396.506,-499.53"/>
<polygon fill="midnightblue" stroke="midnightblue" points="42.6201,-369.208 35.0558,-361.789 36.3429,-372.306 42.6201,-369.208"/>
</g>
<!-- Node4 -->
<g id="node5" class="node"><title>Node4</title>
<g id="a_node5"><a xlink:href="../../db/d56/classefd_1_1PassT.xhtml" target="_top" xlink:title="efd::PassT\&lt; XbitToNumber \&gt;">
<polygon fill="none" stroke="black" points="355.5,-431.5 355.5,-450.5 501.5,-450.5 501.5,-431.5 355.5,-431.5"/>
<text text-anchor="middle" x="428.5" y="-438.5" font-family="Helvetica,sans-Serif" font-size="10.00">efd::PassT&lt; XbitToNumber &gt;</text>
</a>
</g>
</g>
<!-- Node0&#45;&gt;Node4 -->
<g id="edge39" class="edge"><title>Node0&#45;&gt;Node4</title>
<path fill="none" stroke="midnightblue" d="M46.0661,-369.557C58.6457,-383.073 77.2814,-401.642 96,-415 144.377,-449.523 157.226,-462.055 215,-476 262.524,-487.471 276.771,-484.007 325,-476 332.675,-474.726 373.266,-460.471 401.005,-450.552"/>
<polygon fill="midnightblue" stroke="midnightblue" points="48.3943,-366.916 39.0695,-361.886 43.2224,-371.633 48.3943,-366.916"/>
</g>
<!-- Node6 -->
<g id="node7" class="node"><title>Node6</title>
<g id="a_node7"><a xlink:href="../../db/d56/classefd_1_1PassT.xhtml" target="_top" xlink:title="efd::PassT\&lt; LayerBasedOrdering \&gt;">
<polygon fill="none" stroke="black" points="343,-602.5 343,-621.5 514,-621.5 514,-602.5 343,-602.5"/>
<text text-anchor="middle" x="428.5" y="-609.5" font-family="Helvetica,sans-Serif" font-size="10.00">efd::PassT&lt; LayerBasedOrdering &gt;</text>
</a>
</g>
</g>
<!-- Node0&#45;&gt;Node6 -->
<g id="edge36" class="edge"><title>Node0&#45;&gt;Node6</title>
<path fill="none" stroke="midnightblue" d="M31.2131,-371.666C33.7207,-413.096 45.0315,-510.358 96,-569 168.238,-652.115 315.513,-635.642 386.901,-621.55"/>
<polygon fill="midnightblue" stroke="midnightblue" points="34.7021,-371.354 30.7136,-361.539 27.7106,-371.699 34.7021,-371.354"/>
</g>
<!-- Node9 -->
<g id="node10" class="node"><title>Node9</title>
<g id="a_node10"><a xlink:href="../../db/d56/classefd_1_1PassT.xhtml" target="_top" xlink:title="efd::PassT\&lt; DependencyGraph\l::sRef \&gt;">
<polygon fill="none" stroke="black" points="351,-535 351,-565 506,-565 506,-535 351,-535"/>
<text text-anchor="start" x="359" y="-553" font-family="Helvetica,sans-Serif" font-size="10.00">efd::PassT&lt; DependencyGraph</text>
<text text-anchor="middle" x="428.5" y="-542" font-family="Helvetica,sans-Serif" font-size="10.00">::sRef &gt;</text>
</a>
</g>
</g>
<!-- Node0&#45;&gt;Node9 -->
<g id="edge35" class="edge"><title>Node0&#45;&gt;Node9</title>
<path fill="none" stroke="midnightblue" d="M34.8914,-371.472C42.8457,-403.521 62.0423,-468.287 96,-513 136.432,-566.239 151.735,-583.396 215,-605 261.266,-620.799 278.209,-619.167 325,-605 334.202,-602.214 334.701,-597.855 343,-593 360.049,-583.025 379.681,-572.954 395.729,-565.068"/>
<polygon fill="midnightblue" stroke="midnightblue" points="38.2593,-370.505 32.5409,-361.586 31.4491,-372.124 38.2593,-370.505"/>
</g>
<!-- Node11 -->
<g id="node12" class="node"><title>Node11</title>
<g id="a_node12"><a xlink:href="../../db/d56/classefd_1_1PassT.xhtml" target="_top" xlink:title="efd::PassT\&lt; CircuitGraph \&gt;">
<polygon fill="none" stroke="black" points="360,-382.5 360,-401.5 497,-401.5 497,-382.5 360,-382.5"/>
<text text-anchor="middle" x="428.5" y="-389.5" font-family="Helvetica,sans-Serif" font-size="10.00">efd::PassT&lt; CircuitGraph &gt;</text>
</a>
</g>
</g>
<!-- Node0&#45;&gt;Node11 -->
<g id="edge33" class="edge"><title>Node0&#45;&gt;Node11</title>
<path fill="none" stroke="midnightblue" d="M69.0448,-347.124C125.964,-341.127 235.429,-334.212 325,-356 333.691,-358.114 334.715,-361.629 343,-365 359.262,-371.617 377.797,-377.695 393.356,-382.402"/>
<polygon fill="midnightblue" stroke="midnightblue" points="68.6012,-343.652 59.0448,-348.226 69.368,-350.61 68.6012,-343.652"/>
</g>
<!-- Node13 -->
<g id="node14" class="node"><title>Node13</title>
<g id="a_node14"><a xlink:href="../../db/d56/classefd_1_1PassT.xhtml" target="_top" xlink:title="efd::PassT\&lt; Solution \&gt;">
<polygon fill="none" stroke="black" points="369.5,-336.5 369.5,-355.5 487.5,-355.5 487.5,-336.5 369.5,-336.5"/>
<text text-anchor="middle" x="428.5" y="-343.5" font-family="Helvetica,sans-Serif" font-size="10.00">efd::PassT&lt; Solution &gt;</text>
</a>
</g>
</g>
<!-- Node0&#45;&gt;Node13 -->
<g id="edge38" class="edge"><title>Node0&#45;&gt;Node13</title>
<path fill="none" stroke="midnightblue" d="M46.8091,-335.04C55.0942,-327.54 65.7719,-319.43 77,-315 179.63,-274.504 216.749,-282.682 325,-304 356.322,-310.168 390.122,-325.997 410.016,-336.364"/>
<polygon fill="midnightblue" stroke="midnightblue" points="44.1695,-332.722 39.3897,-342.178 49.0227,-337.767 44.1695,-332.722"/>
</g>
<!-- Node21 -->
<g id="node22" class="node"><title>Node21</title>
<g id="a_node22"><a xlink:href="../../db/d56/classefd_1_1PassT.xhtml" target="_top" xlink:title="efd::PassT\&lt; bool \&gt;">
<polygon fill="none" stroke="black" points="378,-277.5 378,-296.5 479,-296.5 479,-277.5 378,-277.5"/>
<text text-anchor="middle" x="428.5" y="-284.5" font-family="Helvetica,sans-Serif" font-size="10.00">efd::PassT&lt; bool &gt;</text>
</a>
</g>
</g>
<!-- Node0&#45;&gt;Node21 -->
<g id="edge32" class="edge"><title>Node0&#45;&gt;Node21</title>
<path fill="none" stroke="midnightblue" d="M43.7602,-334.011C55.8833,-318.654 75.07,-296.907 96,-283 143.095,-251.707 159.377,-248.166 215,-238 263.092,-229.211 277.321,-227.19 325,-238 358.47,-245.589 393.794,-265.498 412.99,-277.474"/>
<polygon fill="midnightblue" stroke="midnightblue" points="40.7839,-332.141 37.4787,-342.207 46.3398,-336.399 40.7839,-332.141"/>
</g>
<!-- Node24 -->
<g id="node25" class="node"><title>Node24</title>
<g id="a_node25"><a xlink:href="../../db/d56/classefd_1_1PassT.xhtml" target="_top" xlink:title="efd::PassT\&lt; Layers \&gt;">
<polygon fill="none" stroke="black" points="372.5,-212.5 372.5,-231.5 484.5,-231.5 484.5,-212.5 372.5,-212.5"/>
<text text-anchor="middle" x="428.5" y="-219.5" font-family="Helvetica,sans-Serif" font-size="10.00">efd::PassT&lt; Layers &gt;</text>
</a>
</g>
</g>
<!-- Node0&#45;&gt;Node24 -->
<g id="edge37" class="edge"><title>Node0&#45;&gt;Node24</title>
<path fill="none" stroke="midnightblue" d="M35.5767,-332.608C43.5935,-306.25 61.8981,-259.894 96,-238 187.276,-179.4 323.568,-198.331 389.314,-212.456"/>
<polygon fill="midnightblue" stroke="midnightblue" points="32.2042,-331.672 32.8345,-342.248 38.9371,-333.587 32.2042,-331.672"/>
</g>
<!-- Node26 -->
<g id="node27" class="node"><title>Node26</title>
<g id="a_node27"><a xlink:href="../../d6/d84/classefd_1_1PassT_3_01void_01_4.xhtml" target="_top" xlink:title="efd::PassT\&lt; void \&gt;">
<polygon fill="none" stroke="black" points="96,-93.5 96,-112.5 197,-112.5 197,-93.5 96,-93.5"/>
<text text-anchor="middle" x="146.5" y="-100.5" font-family="Helvetica,sans-Serif" font-size="10.00">efd::PassT&lt; void &gt;</text>
</a>
</g>
</g>
<!-- Node0&#45;&gt;Node26 -->
<g id="edge26" class="edge"><title>Node0&#45;&gt;Node26</title>
<path fill="none" stroke="midnightblue" d="M31.7187,-332.349C34.6884,-296.808 44.6301,-220.483 77,-166 90.6171,-143.08 115.137,-123.534 130.849,-112.534"/>
<polygon fill="midnightblue" stroke="midnightblue" points="28.2243,-332.146 30.98,-342.376 35.2054,-332.66 28.2243,-332.146"/>
</g>
<!-- Node1&#45;&gt;Node2 -->
<g id="edge2" class="edge"><title>Node1&#45;&gt;Node2</title>
<path fill="none" stroke="orange" stroke-dasharray="5,2" d="M167.83,-411.936C180.708,-421.329 198.073,-432.756 215,-440 261.864,-460.056 318.142,-472.84 361.005,-480.456"/>
<polygon fill="orange" stroke="orange" points="169.793,-409.033 159.692,-405.834 165.593,-414.633 169.793,-409.033"/>
<text text-anchor="middle" x="270" y="-476" font-family="Helvetica,sans-Serif" font-size="10.00"> &lt; DependencyBuilder &gt;</text>
</g>
<!-- Node1&#45;&gt;Node4 -->
<g id="edge4" class="edge"><title>Node1&#45;&gt;Node4</title>
<path fill="none" stroke="orange" stroke-dasharray="5,2" d="M201.217,-405.659C205.876,-406.464 210.52,-407.254 215,-408 264.901,-416.309 321.51,-425.068 363.746,-431.472"/>
<polygon fill="orange" stroke="orange" points="201.501,-402.156 191.048,-403.886 200.298,-409.052 201.501,-402.156"/>
<text text-anchor="middle" x="270" y="-428" font-family="Helvetica,sans-Serif" font-size="10.00"> &lt; XbitToNumber &gt;</text>
</g>
<!-- Node1&#45;&gt;Node6 -->
<g id="edge6" class="edge"><title>Node1&#45;&gt;Node6</title>
<path fill="none" stroke="orange" stroke-dasharray="5,2" d="M149.911,-416.205C155.167,-450.999 170.952,-522.127 215,-560 250.207,-590.272 300.248,-603.49 342.926,-609.038"/>
<polygon fill="orange" stroke="orange" points="153.324,-415.335 148.506,-405.899 146.389,-416.28 153.324,-415.335"/>
<text text-anchor="middle" x="270" y="-608" font-family="Helvetica,sans-Serif" font-size="10.00"> &lt; LayerBasedOrdering &gt;</text>
</g>
<!-- Node1&#45;&gt;Node9 -->
<g id="edge9" class="edge"><title>Node1&#45;&gt;Node9</title>
<path fill="none" stroke="orange" stroke-dasharray="5,2" d="M156.532,-414.853C167.501,-435.768 187.945,-469.057 215,-488 255.138,-516.104 308.006,-531.593 350.967,-540.061"/>
<polygon fill="orange" stroke="orange" points="159.544,-413.053 151.92,-405.696 153.292,-416.202 159.544,-413.053"/>
<text text-anchor="start" x="220" y="-548" font-family="Helvetica,sans-Serif" font-size="10.00"> &lt; DependencyGraph::</text>
<text text-anchor="middle" x="270" y="-537" font-family="Helvetica,sans-Serif" font-size="10.00">sRef &gt;</text>
</g>
<!-- Node1&#45;&gt;Node11 -->
<g id="edge11" class="edge"><title>Node1&#45;&gt;Node11</title>
<path fill="none" stroke="orange" stroke-dasharray="5,2" d="M201.425,-395.23C246.56,-394.585 311.2,-393.661 359.809,-392.967"/>
<polygon fill="orange" stroke="orange" points="201.199,-391.732 191.25,-395.375 201.299,-398.732 201.199,-391.732"/>
<text text-anchor="middle" x="270" y="-399" font-family="Helvetica,sans-Serif" font-size="10.00"> &lt; CircuitGraph &gt;</text>
</g>
<!-- Node1&#45;&gt;Node13 -->
<g id="edge13" class="edge"><title>Node1&#45;&gt;Node13</title>
<path fill="none" stroke="orange" stroke-dasharray="5,2" d="M192.686,-384.006C200.115,-382.211 207.754,-380.472 215,-379 266.771,-368.484 326.233,-359.511 369.067,-353.588"/>
<polygon fill="orange" stroke="orange" points="191.607,-380.668 182.741,-386.469 193.289,-387.463 191.607,-380.668"/>
<text text-anchor="middle" x="270" y="-382" font-family="Helvetica,sans-Serif" font-size="10.00"> &lt; Solution &gt;</text>
</g>
<!-- Node1&#45;&gt;Node21 -->
<g id="edge21" class="edge"><title>Node1&#45;&gt;Node21</title>
<path fill="none" stroke="orange" stroke-dasharray="5,2" d="M165.302,-379.53C178.232,-368.359 196.617,-354.033 215,-345 267.684,-319.111 333.589,-303.416 377.918,-294.998"/>
<polygon fill="orange" stroke="orange" points="162.8,-377.071 157.648,-386.329 167.449,-382.305 162.8,-377.071"/>
<text text-anchor="middle" x="270" y="-348" font-family="Helvetica,sans-Serif" font-size="10.00"> &lt; bool &gt;</text>
</g>
<!-- Node1&#45;&gt;Node24 -->
<g id="edge24" class="edge"><title>Node1&#45;&gt;Node24</title>
<path fill="none" stroke="orange" stroke-dasharray="5,2" d="M155.335,-376.789C165.692,-353.702 186.069,-315.294 215,-293 261.215,-257.386 326.228,-239.131 372.143,-230.12"/>
<polygon fill="orange" stroke="orange" points="152.021,-375.636 151.287,-386.206 158.452,-378.401 152.021,-375.636"/>
<text text-anchor="middle" x="270" y="-296" font-family="Helvetica,sans-Serif" font-size="10.00"> &lt; Layers &gt;</text>
</g>
<!-- Node3 -->
<g id="node4" class="node"><title>Node3</title>
<g id="a_node4"><a xlink:href="../../d1/d06/classefd_1_1DependencyBuilderWrapperPass.xhtml" target="_top" xlink:title="WrapperPass that yields a DependencyBuilder structure. ">
<polygon fill="none" stroke="black" points="553,-480.5 553,-499.5 733,-499.5 733,-480.5 553,-480.5"/>
<text text-anchor="middle" x="643" y="-487.5" font-family="Helvetica,sans-Serif" font-size="10.00">efd::DependencyBuilderWrapperPass</text>
</a>
</g>
</g>
<!-- Node2&#45;&gt;Node3 -->
<g id="edge3" class="edge"><title>Node2&#45;&gt;Node3</title>
<path fill="none" stroke="midnightblue" d="M522.313,-490C532.429,-490 542.709,-490 552.78,-490"/>
<polygon fill="midnightblue" stroke="midnightblue" points="522.267,-486.5 512.267,-490 522.266,-493.5 522.267,-486.5"/>
</g>
<!-- Node5 -->
<g id="node6" class="node"><title>Node5</title>
<g id="a_node6"><a xlink:href="../../de/d2b/classefd_1_1XbitToNumberWrapperPass.xhtml" target="_top" xlink:title="WrapperPass that yields a XbitToNumber structure. ">
<polygon fill="none" stroke="black" points="564,-431.5 564,-450.5 722,-450.5 722,-431.5 564,-431.5"/>
<text text-anchor="middle" x="643" y="-438.5" font-family="Helvetica,sans-Serif" font-size="10.00">efd::XbitToNumberWrapperPass</text>
</a>
</g>
</g>
<!-- Node4&#45;&gt;Node5 -->
<g id="edge5" class="edge"><title>Node4&#45;&gt;Node5</title>
<path fill="none" stroke="midnightblue" d="M512.18,-441C529.151,-441 546.967,-441 563.775,-441"/>
<polygon fill="midnightblue" stroke="midnightblue" points="511.739,-437.5 501.739,-441 511.739,-444.5 511.739,-437.5"/>
</g>
<!-- Node7 -->
<g id="node8" class="node"><title>Node7</title>
<g id="a_node8"><a xlink:href="../../d6/de0/classefd_1_1LayerBasedOrderingWrapperPass.xhtml" target="_top" xlink:title="Interface for ordering the program by a specific layer&#45;based ordering. ">
<polygon fill="none" stroke="black" points="551,-602.5 551,-621.5 735,-621.5 735,-602.5 551,-602.5"/>
<text text-anchor="middle" x="643" y="-609.5" font-family="Helvetica,sans-Serif" font-size="10.00">efd::LayerBasedOrderingWrapperPass</text>
</a>
</g>
</g>
<!-- Node6&#45;&gt;Node7 -->
<g id="edge7" class="edge"><title>Node6&#45;&gt;Node7</title>
<path fill="none" stroke="midnightblue" d="M524.33,-612C533.101,-612 541.977,-612 550.715,-612"/>
<polygon fill="midnightblue" stroke="midnightblue" points="524.096,-608.5 514.096,-612 524.096,-615.5 524.096,-608.5"/>
</g>
<!-- Node8 -->
<g id="node9" class="node"><title>Node8</title>
<g id="a_node9"><a xlink:href="../../dd/db9/classefd_1_1CNOTLBOWrapperPass.xhtml" target="_top" xlink:title="Layer&#45;based Ordering with CNOT priority. ">
<polygon fill="none" stroke="black" points="772,-602.5 772,-621.5 915,-621.5 915,-602.5 772,-602.5"/>
<text text-anchor="middle" x="843.5" y="-609.5" font-family="Helvetica,sans-Serif" font-size="10.00">efd::CNOTLBOWrapperPass</text>
</a>
</g>
</g>
<!-- Node7&#45;&gt;Node8 -->
<g id="edge8" class="edge"><title>Node7&#45;&gt;Node8</title>
<path fill="none" stroke="midnightblue" d="M745.255,-612C754.24,-612 763.204,-612 771.85,-612"/>
<polygon fill="midnightblue" stroke="midnightblue" points="745.117,-608.5 735.117,-612 745.116,-615.5 745.117,-608.5"/>
</g>
<!-- Node10 -->
<g id="node11" class="node"><title>Node10</title>
<g id="a_node11"><a xlink:href="../../d6/d27/classefd_1_1DependencyGraphBuilderPass.xhtml" target="_top" xlink:title="Constructs the dependency graph for a QModule. ">
<polygon fill="none" stroke="black" points="558,-540.5 558,-559.5 728,-559.5 728,-540.5 558,-540.5"/>
<text text-anchor="middle" x="643" y="-547.5" font-family="Helvetica,sans-Serif" font-size="10.00">efd::DependencyGraphBuilderPass</text>
</a>
</g>
</g>
<!-- Node9&#45;&gt;Node10 -->
<g id="edge10" class="edge"><title>Node9&#45;&gt;Node10</title>
<path fill="none" stroke="midnightblue" d="M516.548,-550C530.19,-550 544.268,-550 557.843,-550"/>
<polygon fill="midnightblue" stroke="midnightblue" points="516.217,-546.5 506.217,-550 516.217,-553.5 516.217,-546.5"/>
</g>
<!-- Node12 -->
<g id="node13" class="node"><title>Node12</title>
<g id="a_node13"><a xlink:href="../../de/dd0/classefd_1_1CircuitGraphBuilderPass.xhtml" target="_top" xlink:title="Builds the circuit graph corresponding to the QModule given. ">
<polygon fill="none" stroke="black" points="571.5,-382.5 571.5,-401.5 714.5,-401.5 714.5,-382.5 571.5,-382.5"/>
<text text-anchor="middle" x="643" y="-389.5" font-family="Helvetica,sans-Serif" font-size="10.00">efd::CircuitGraphBuilderPass</text>
</a>
</g>
</g>
<!-- Node11&#45;&gt;Node12 -->
<g id="edge12" class="edge"><title>Node11&#45;&gt;Node12</title>
<path fill="none" stroke="midnightblue" d="M507.187,-392C528.175,-392 550.77,-392 571.35,-392"/>
<polygon fill="midnightblue" stroke="midnightblue" points="507.028,-388.5 497.028,-392 507.028,-395.5 507.028,-388.5"/>
</g>
<!-- Node14 -->
<g id="node15" class="node"><title>Node14</title>
<g id="a_node15"><a xlink:href="../../de/d5a/classefd_1_1QbitAllocator.xhtml" target="_top" xlink:title="Base abstract class that allocates the qbits used in the program to the qbits that are in the physica...">
<polygon fill="none" stroke="black" points="597,-336.5 597,-355.5 689,-355.5 689,-336.5 597,-336.5"/>
<text text-anchor="middle" x="643" y="-343.5" font-family="Helvetica,sans-Serif" font-size="10.00">efd::QbitAllocator</text>
</a>
</g>
</g>
<!-- Node13&#45;&gt;Node14 -->
<g id="edge14" class="edge"><title>Node13&#45;&gt;Node14</title>
<path fill="none" stroke="midnightblue" d="M497.873,-346C530.26,-346 568.048,-346 596.804,-346"/>
<polygon fill="midnightblue" stroke="midnightblue" points="497.567,-342.5 487.567,-346 497.567,-349.5 497.567,-342.5"/>
</g>
<!-- Node15 -->
<g id="node16" class="node"><title>Node15</title>
<g id="a_node16"><a xlink:href="../../da/d6e/classefd_1_1DepSolverQAllocator.xhtml" target="_top" xlink:title="Wrapper for making it easier to implement algorithms for Qubit Allocation. ">
<polygon fill="none" stroke="black" points="779.5,-374.5 779.5,-393.5 907.5,-393.5 907.5,-374.5 779.5,-374.5"/>
<text text-anchor="middle" x="843.5" y="-381.5" font-family="Helvetica,sans-Serif" font-size="10.00">efd::DepSolverQAllocator</text>
</a>
</g>
</g>
<!-- Node14&#45;&gt;Node15 -->
<g id="edge15" class="edge"><title>Node14&#45;&gt;Node15</title>
<path fill="none" stroke="midnightblue" d="M699.129,-356.554C728.471,-362.171 764.272,-369.024 792.758,-374.478"/>
<polygon fill="midnightblue" stroke="midnightblue" points="699.522,-353.066 689.043,-354.623 698.206,-359.941 699.522,-353.066"/>
</g>
<!-- Node19 -->
<g id="node20" class="node"><title>Node19</title>
<g id="a_node20"><a xlink:href="../../d4/d23/classefd_1_1GreedyCktQAllocator.xhtml" target="_top" xlink:title="efd::GreedyCktQAllocator">
<polygon fill="none" stroke="black" points="779,-336.5 779,-355.5 908,-355.5 908,-336.5 779,-336.5"/>
<text text-anchor="middle" x="843.5" y="-343.5" font-family="Helvetica,sans-Serif" font-size="10.00">efd::GreedyCktQAllocator</text>
</a>
</g>
</g>
<!-- Node14&#45;&gt;Node19 -->
<g id="edge19" class="edge"><title>Node14&#45;&gt;Node19</title>
<path fill="none" stroke="midnightblue" d="M699.32,-346C724.005,-346 753.232,-346 778.823,-346"/>
<polygon fill="midnightblue" stroke="midnightblue" points="699.043,-342.5 689.043,-346 699.043,-349.5 699.043,-342.5"/>
</g>
<!-- Node20 -->
<g id="node21" class="node"><title>Node20</title>
<g id="a_node21"><a xlink:href="../../d3/d6c/classefd_1_1IBMQAllocator.xhtml" target="_top" xlink:title="Port of IBM&#39;s allocator. ">
<polygon fill="none" stroke="black" points="793.5,-298.5 793.5,-317.5 893.5,-317.5 893.5,-298.5 793.5,-298.5"/>
<text text-anchor="middle" x="843.5" y="-305.5" font-family="Helvetica,sans-Serif" font-size="10.00">efd::IBMQAllocator</text>
</a>
</g>
</g>
<!-- Node14&#45;&gt;Node20 -->
<g id="edge20" class="edge"><title>Node14&#45;&gt;Node20</title>
<path fill="none" stroke="midnightblue" d="M699.206,-335.432C728.776,-329.771 764.89,-322.857 793.464,-317.387"/>
<polygon fill="midnightblue" stroke="midnightblue" points="698.206,-332.059 689.043,-337.377 699.522,-338.934 698.206,-332.059"/>
</g>
<!-- Node16 -->
<g id="node17" class="node"><title>Node16</title>
<g id="a_node17"><a xlink:href="../../de/d80/classefd_1_1BoundedSIDepSolver.xhtml" target="_top" xlink:title="Implementation of DepSolverQAllocator that bounds the subgraph isomorphism search. ">
<polygon fill="none" stroke="black" points="952,-412.5 952,-431.5 1082,-431.5 1082,-412.5 952,-412.5"/>
<text text-anchor="middle" x="1017" y="-419.5" font-family="Helvetica,sans-Serif" font-size="10.00">efd::BoundedSIDepSolver</text>
</a>
</g>
</g>
<!-- Node15&#45;&gt;Node16 -->
<g id="edge16" class="edge"><title>Node15&#45;&gt;Node16</title>
<path fill="none" stroke="midnightblue" d="M897.541,-395.753C921.791,-401.126 950.147,-407.409 973.035,-412.48"/>
<polygon fill="midnightblue" stroke="midnightblue" points="898.297,-392.335 887.777,-393.589 896.783,-399.169 898.297,-392.335"/>
</g>
<!-- Node17 -->
<g id="node18" class="node"><title>Node17</title>
<g id="a_node18"><a xlink:href="../../df/d73/classefd_1_1DynprogDepSolver.xhtml" target="_top" xlink:title="Implementation of DepSolverQAllocator that uses dynamic programming to obtain an optimal solution...">
<polygon fill="none" stroke="black" points="957.5,-374.5 957.5,-393.5 1076.5,-393.5 1076.5,-374.5 957.5,-374.5"/>
<text text-anchor="middle" x="1017" y="-381.5" font-family="Helvetica,sans-Serif" font-size="10.00">efd::DynprogDepSolver</text>
</a>
</g>
</g>
<!-- Node15&#45;&gt;Node17 -->
<g id="edge17" class="edge"><title>Node15&#45;&gt;Node17</title>
<path fill="none" stroke="midnightblue" d="M917.879,-384C931.093,-384 944.707,-384 957.431,-384"/>
<polygon fill="midnightblue" stroke="midnightblue" points="917.873,-380.5 907.873,-384 917.873,-387.5 917.873,-380.5"/>
</g>
<!-- Node18 -->
<g id="node19" class="node"><title>Node18</title>
<g id="a_node19"><a xlink:href="../../d2/d8a/classefd_1_1SimpleDepSolver.xhtml" target="_top" xlink:title="DependencySolver that allocates the logical qubits from an initial mapping. ">
<polygon fill="none" stroke="black" points="961,-336.5 961,-355.5 1073,-355.5 1073,-336.5 961,-336.5"/>
<text text-anchor="middle" x="1017" y="-343.5" font-family="Helvetica,sans-Serif" font-size="10.00">efd::SimpleDepSolver</text>
</a>
</g>
</g>
<!-- Node15&#45;&gt;Node18 -->
<g id="edge18" class="edge"><title>Node15&#45;&gt;Node18</title>
<path fill="none" stroke="midnightblue" d="M897.541,-372.247C921.791,-366.874 950.147,-360.591 973.035,-355.52"/>
<polygon fill="midnightblue" stroke="midnightblue" points="896.783,-368.831 887.777,-374.411 898.297,-375.665 896.783,-368.831"/>
</g>
<!-- Node22 -->
<g id="node23" class="node"><title>Node22</title>
<g id="a_node23"><a xlink:href="../../d0/de6/classefd_1_1ArchVerifierPass.xhtml" target="_top" xlink:title="Verifies if the CNOT relations between every qubit respects the architecture constraints. ">
<polygon fill="none" stroke="black" points="588,-255.5 588,-274.5 698,-274.5 698,-255.5 588,-255.5"/>
<text text-anchor="middle" x="643" y="-262.5" font-family="Helvetica,sans-Serif" font-size="10.00">efd::ArchVerifierPass</text>
</a>
</g>
</g>
<!-- Node21&#45;&gt;Node22 -->
<g id="edge22" class="edge"><title>Node21&#45;&gt;Node22</title>
<path fill="none" stroke="midnightblue" d="M489.285,-280.81C520.256,-277.604 557.786,-273.719 587.891,-270.602"/>
<polygon fill="midnightblue" stroke="midnightblue" points="488.64,-277.358 479.054,-281.87 489.361,-284.321 488.64,-277.358"/>
</g>
<!-- Node23 -->
<g id="node24" class="node"><title>Node23</title>
<g id="a_node24"><a xlink:href="../../d6/dd7/classefd_1_1SemanticVerifierPass.xhtml" target="_top" xlink:title="Verifies the CNOT relations between every qubit. ">
<polygon fill="none" stroke="black" points="577.5,-293.5 577.5,-312.5 708.5,-312.5 708.5,-293.5 577.5,-293.5"/>
<text text-anchor="middle" x="643" y="-300.5" font-family="Helvetica,sans-Serif" font-size="10.00">efd::SemanticVerifierPass</text>
</a>
</g>
</g>
<!-- Node21&#45;&gt;Node23 -->
<g id="edge23" class="edge"><title>Node21&#45;&gt;Node23</title>
<path fill="none" stroke="midnightblue" d="M489.308,-291.503C516.775,-293.571 549.397,-296.028 577.423,-298.138"/>
<polygon fill="midnightblue" stroke="midnightblue" points="489.288,-287.992 479.054,-290.731 488.763,-294.972 489.288,-287.992"/>
</g>
<!-- Node25 -->
<g id="node26" class="node"><title>Node25</title>
<g id="a_node26"><a xlink:href="../../d4/d1b/classefd_1_1LayersBuilderPass.xhtml" target="_top" xlink:title="Create the layers of the &#39;QModule&#39;. ">
<polygon fill="none" stroke="black" points="584,-212.5 584,-231.5 702,-231.5 702,-212.5 584,-212.5"/>
<text text-anchor="middle" x="643" y="-219.5" font-family="Helvetica,sans-Serif" font-size="10.00">efd::LayersBuilderPass</text>
</a>
</g>
</g>
<!-- Node24&#45;&gt;Node25 -->
<g id="edge25" class="edge"><title>Node24&#45;&gt;Node25</title>
<path fill="none" stroke="midnightblue" d="M494.755,-222C523.207,-222 556.292,-222 583.885,-222"/>
<polygon fill="midnightblue" stroke="midnightblue" points="494.5,-218.5 484.5,-222 494.5,-225.5 494.5,-218.5"/>
</g>
<!-- Node27 -->
<g id="node28" class="node"><title>Node27</title>
<g id="a_node28"><a xlink:href="../../d8/df2/classefd_1_1FlattenPass.xhtml" target="_top" xlink:title="Flattens the given QModule. ">
<polygon fill="none" stroke="black" points="384,-38.5 384,-57.5 473,-57.5 473,-38.5 384,-38.5"/>
<text text-anchor="middle" x="428.5" y="-45.5" font-family="Helvetica,sans-Serif" font-size="10.00">efd::FlattenPass</text>
</a>
</g>
</g>
<!-- Node26&#45;&gt;Node27 -->
<g id="edge27" class="edge"><title>Node26&#45;&gt;Node27</title>
<path fill="none" stroke="midnightblue" d="M203.177,-91.3886C207.177,-90.5739 211.149,-89.7708 215,-89 273.395,-77.3115 340.939,-64.3799 383.918,-56.2251"/>
<polygon fill="midnightblue" stroke="midnightblue" points="202.327,-87.99 193.232,-93.4251 203.731,-94.8477 202.327,-87.99"/>
</g>
<!-- Node28 -->
<g id="node29" class="node"><title>Node28</title>
<g id="a_node29"><a xlink:href="../../d5/de3/classefd_1_1InlineAllPass.xhtml" target="_top" xlink:title="efd::InlineAllPass">
<polygon fill="none" stroke="black" points="382,-0.5 382,-19.5 475,-19.5 475,-0.5 382,-0.5"/>
<text text-anchor="middle" x="428.5" y="-7.5" font-family="Helvetica,sans-Serif" font-size="10.00">efd::InlineAllPass</text>
</a>
</g>
</g>
<!-- Node26&#45;&gt;Node28 -->
<g id="edge28" class="edge"><title>Node26&#45;&gt;Node28</title>
<path fill="none" stroke="midnightblue" d="M170.571,-88.1943C183.301,-80.497 199.608,-71.3891 215,-65 270.434,-41.9894 338.092,-26.4744 381.951,-17.9417"/>
<polygon fill="midnightblue" stroke="midnightblue" points="168.666,-85.2572 161.999,-93.4909 172.345,-91.2123 168.666,-85.2572"/>
</g>
<!-- Node29 -->
<g id="node30" class="node"><title>Node29</title>
<g id="a_node30"><a xlink:href="../../d8/dd7/classefd_1_1RenameQbitPass.xhtml" target="_top" xlink:title="Renames all the qbits according to the map from the constructor. ">
<polygon fill="none" stroke="black" points="372,-152.5 372,-171.5 485,-171.5 485,-152.5 372,-152.5"/>
<text text-anchor="middle" x="428.5" y="-159.5" font-family="Helvetica,sans-Serif" font-size="10.00">efd::RenameQbitPass</text>
</a>
</g>
</g>
<!-- Node26&#45;&gt;Node29 -->
<g id="edge29" class="edge"><title>Node26&#45;&gt;Node29</title>
<path fill="none" stroke="midnightblue" d="M179.284,-116.232C190.428,-120.478 203.127,-124.884 215,-128 267.399,-141.753 328.614,-150.834 371.846,-156.124"/>
<polygon fill="midnightblue" stroke="midnightblue" points="180.54,-112.965 169.952,-112.577 177.987,-119.483 180.54,-112.965"/>
</g>
<!-- Node30 -->
<g id="node31" class="node"><title>Node30</title>
<g id="a_node31"><a xlink:href="../../d2/ddc/classefd_1_1ReverseEdgesPass.xhtml" target="_top" xlink:title="Pass that reverses the edges accordingly with the architecture Graph. ">
<polygon fill="none" stroke="black" points="367,-114.5 367,-133.5 490,-133.5 490,-114.5 367,-114.5"/>
<text text-anchor="middle" x="428.5" y="-121.5" font-family="Helvetica,sans-Serif" font-size="10.00">efd::ReverseEdgesPass</text>
</a>
</g>
</g>
<!-- Node26&#45;&gt;Node30 -->
<g id="edge30" class="edge"><title>Node26&#45;&gt;Node30</title>
<path fill="none" stroke="midnightblue" d="M207.321,-109.324C209.915,-109.56 212.483,-109.787 215,-110 266.024,-114.325 324.036,-118.068 366.541,-120.593"/>
<polygon fill="midnightblue" stroke="midnightblue" points="207.529,-105.828 197.245,-108.372 206.871,-112.797 207.529,-105.828"/>
</g>
<!-- Node31 -->
<g id="node32" class="node"><title>Node31</title>
<g id="a_node32"><a xlink:href="../../d4/dd6/classefd_1_1SolutionImplPass.xhtml" target="_top" xlink:title="efd::SolutionImplPass">
<polygon fill="none" stroke="black" points="372,-76.5 372,-95.5 485,-95.5 485,-76.5 372,-76.5"/>
<text text-anchor="middle" x="428.5" y="-83.5" font-family="Helvetica,sans-Serif" font-size="10.00">efd::SolutionImplPass</text>
</a>
</g>
</g>
<!-- Node26&#45;&gt;Node31 -->
<g id="edge31" class="edge"><title>Node26&#45;&gt;Node31</title>
<path fill="none" stroke="midnightblue" d="M207.33,-99.3675C256.093,-96.4068 324.43,-92.2578 371.988,-89.3704"/>
<polygon fill="midnightblue" stroke="midnightblue" points="207.005,-95.8806 197.236,-99.9803 207.43,-102.868 207.005,-95.8806"/>
</g>
</g>
</svg>
