<?xml version="1.0" encoding="UTF-8" standalone="no"?>
<!DOCTYPE svg PUBLIC "-//W3C//DTD SVG 1.1//EN"
 "http://www.w3.org/Graphics/SVG/1.1/DTD/svg11.dtd">
<!-- Generated by graphviz version 2.40.1 (20161225.0304)
 -->
<!-- Title: efd::Pass Pages: 1 -->
<svg width="1213pt" height="770pt"
 viewBox="0.00 0.00 1213.00 770.02" xmlns="http://www.w3.org/2000/svg" xmlns:xlink="http://www.w3.org/1999/xlink">
<g id="graph0" class="graph" transform="scale(1 1) rotate(0) translate(4 766.0165)">
<title>efd::Pass</title>
<!-- Node0 -->
<g id="node1" class="node">
<title>Node0</title>
<polygon fill="#bfbfbf" stroke="#000000" points="0,-411.5 0,-430.5 61,-430.5 61,-411.5 0,-411.5"/>
<text text-anchor="middle" x="30.5" y="-418.5" font-family="Helvetica,sans-Serif" font-size="10.00" fill="#000000">efd::Pass</text>
</g>
<!-- Node1 -->
<g id="node2" class="node">
<title>Node1</title>
<g id="a_node2"><a xlink:href="../../db/d56/classefd_1_1PassT.xhtml" target="_top" xlink:title="Should serve as base class for classes that produces some data of type T. ">
<polygon fill="none" stroke="#000000" points="105.5,-445.5 105.5,-464.5 200.5,-464.5 200.5,-445.5 105.5,-445.5"/>
<text text-anchor="middle" x="153" y="-452.5" font-family="Helvetica,sans-Serif" font-size="10.00" fill="#000000">efd::PassT&lt; T &gt;</text>
</a>
</g>
</g>
<!-- Node0&#45;&gt;Node1 -->
<g id="edge1" class="edge">
<title>Node0&#45;&gt;Node1</title>
<path fill="none" stroke="#191970" d="M70.8776,-432.2069C86.274,-436.4801 103.669,-441.3081 118.4731,-445.417"/>
<polygon fill="#191970" stroke="#191970" points="71.6677,-428.7939 61.0959,-429.4919 69.7956,-435.5389 71.6677,-428.7939"/>
</g>
<!-- Node2 -->
<g id="node3" class="node">
<title>Node2</title>
<g id="a_node3"><a xlink:href="../../db/d56/classefd_1_1PassT.xhtml" target="_top" xlink:title="efd::PassT\&lt; DependencyBuilder \&gt;">
<polygon fill="none" stroke="#000000" points="370.5,-733.5 370.5,-752.5 555.5,-752.5 555.5,-733.5 370.5,-733.5"/>
<text text-anchor="middle" x="463" y="-740.5" font-family="Helvetica,sans-Serif" font-size="10.00" fill="#000000">efd::PassT&lt; DependencyBuilder &gt;</text>
</a>
</g>
</g>
<!-- Node0&#45;&gt;Node2 -->
<g id="edge38" class="edge">
<title>Node0&#45;&gt;Node2</title>
<path fill="none" stroke="#191970" d="M33.2014,-440.683C41.0898,-495.6363 65.5971,-649.1598 98,-687 176.6017,-778.7913 337.3455,-765.7676 416.6481,-752.518"/>
<polygon fill="#191970" stroke="#191970" points="36.6321,-439.9448 31.7735,-430.5298 29.7003,-440.9198 36.6321,-439.9448"/>
</g>
<!-- Node4 -->
<g id="node5" class="node">
<title>Node4</title>
<g id="a_node5"><a xlink:href="../../db/d56/classefd_1_1PassT.xhtml" target="_top" xlink:title="efd::PassT\&lt; uint32_t \&gt;">
<polygon fill="none" stroke="#000000" points="398.5,-668.5 398.5,-687.5 527.5,-687.5 527.5,-668.5 398.5,-668.5"/>
<text text-anchor="middle" x="463" y="-675.5" font-family="Helvetica,sans-Serif" font-size="10.00" fill="#000000">efd::PassT&lt; uint32_t &gt;</text>
</a>
</g>
</g>
<!-- Node0&#45;&gt;Node4 -->
<g id="edge44" class="edge">
<title>Node0&#45;&gt;Node4</title>
<path fill="none" stroke="#191970" d="M32.7545,-440.8292C38.0712,-480.2581 54.4002,-569.8775 98,-630 139.2819,-686.9262 159.1226,-701.2697 226,-723 278.8364,-740.168 296.455,-733.5479 351,-723 385.9759,-716.2363 423.8891,-698.6116 445.4148,-687.5333"/>
<polygon fill="#191970" stroke="#191970" points="36.2012,-440.1845 31.4862,-430.6967 29.2554,-441.054 36.2012,-440.1845"/>
</g>
<!-- Node6 -->
<g id="node7" class="node">
<title>Node6</title>
<g id="a_node7"><a xlink:href="../../db/d56/classefd_1_1PassT.xhtml" target="_top" xlink:title="efd::PassT\&lt; XbitToNumber \&gt;">
<polygon fill="none" stroke="#000000" points="383,-606.5 383,-625.5 543,-625.5 543,-606.5 383,-606.5"/>
<text text-anchor="middle" x="463" y="-613.5" font-family="Helvetica,sans-Serif" font-size="10.00" fill="#000000">efd::PassT&lt; XbitToNumber &gt;</text>
</a>
</g>
</g>
<!-- Node0&#45;&gt;Node6 -->
<g id="edge45" class="edge">
<title>Node0&#45;&gt;Node6</title>
<path fill="none" stroke="#191970" d="M35.3696,-440.6645C43.8626,-471.8661 63.8197,-533.4305 98,-575 142.0066,-628.5202 159.8835,-643.2732 226,-664 279.0117,-680.6186 296.579,-675.1703 351,-664 369.4434,-660.2144 416.3864,-638.4871 443.2801,-625.5984"/>
<polygon fill="#191970" stroke="#191970" points="38.6645,-439.4292 32.7541,-430.6362 31.8911,-441.1958 38.6645,-439.4292"/>
</g>
<!-- Node8 -->
<g id="node9" class="node">
<title>Node8</title>
<g id="a_node9"><a xlink:href="../../db/d56/classefd_1_1PassT.xhtml" target="_top" xlink:title="efd::PassT\&lt; QModuleQuality \&gt;">
<polygon fill="none" stroke="#000000" points="379.5,-565.5 379.5,-584.5 546.5,-584.5 546.5,-565.5 379.5,-565.5"/>
<text text-anchor="middle" x="463" y="-572.5" font-family="Helvetica,sans-Serif" font-size="10.00" fill="#000000">efd::PassT&lt; QModuleQuality &gt;</text>
</a>
</g>
</g>
<!-- Node0&#45;&gt;Node8 -->
<g id="edge43" class="edge">
<title>Node0&#45;&gt;Node8</title>
<path fill="none" stroke="#191970" d="M39.7108,-439.5681C51.1825,-461.3849 72.4213,-497.7982 98,-523 146.1264,-570.4172 161.1616,-586.0125 226,-605 279.3164,-620.6134 296.6547,-616.5329 351,-605 359.5638,-603.1826 360.7011,-599.7876 369,-597 383.4581,-592.1434 399.5151,-587.9597 414.2073,-584.5841"/>
<polygon fill="#191970" stroke="#191970" points="42.823,-437.9666 35.1469,-430.6639 36.5936,-441.1596 42.823,-437.9666"/>
</g>
<!-- Node10 -->
<g id="node11" class="node">
<title>Node10</title>
<g id="a_node11"><a xlink:href="../../db/d56/classefd_1_1PassT.xhtml" target="_top" xlink:title="efd::PassT\&lt; LayerBasedOrdering \&gt;">
<polygon fill="none" stroke="#000000" points="369,-288.5 369,-307.5 557,-307.5 557,-288.5 369,-288.5"/>
<text text-anchor="middle" x="463" y="-295.5" font-family="Helvetica,sans-Serif" font-size="10.00" fill="#000000">efd::PassT&lt; LayerBasedOrdering &gt;</text>
</a>
</g>
</g>
<!-- Node0&#45;&gt;Node10 -->
<g id="edge40" class="edge">
<title>Node0&#45;&gt;Node10</title>
<path fill="none" stroke="#191970" d="M42.6364,-402.5894C54.9005,-385.1332 75.2478,-359.103 98,-342 147.9244,-304.4715 164.9511,-297.1861 226,-284 292.2746,-269.6852 371.2348,-279.5478 419.2125,-288.4268"/>
<polygon fill="#191970" stroke="#191970" points="39.4409,-401.0624 36.6907,-411.2941 45.2212,-405.0106 39.4409,-401.0624"/>
</g>
<!-- Node13 -->
<g id="node14" class="node">
<title>Node13</title>
<g id="a_node14"><a xlink:href="../../db/d56/classefd_1_1PassT.xhtml" target="_top" xlink:title="efd::PassT\&lt; DependencyGraph\l::sRef \&gt;">
<polygon fill="none" stroke="#000000" points="379,-510 379,-540 547,-540 547,-510 379,-510"/>
<text text-anchor="start" x="387" y="-528" font-family="Helvetica,sans-Serif" font-size="10.00" fill="#000000">efd::PassT&lt; DependencyGraph</text>
<text text-anchor="middle" x="463" y="-517" font-family="Helvetica,sans-Serif" font-size="10.00" fill="#000000">::sRef &gt;</text>
</a>
</g>
</g>
<!-- Node0&#45;&gt;Node13 -->
<g id="edge39" class="edge">
<title>Node0&#45;&gt;Node13</title>
<path fill="none" stroke="#191970" d="M48.0083,-437.7645C80.1163,-467.1314 151.9478,-526.6019 226,-546 287.5366,-562.1196 360.8019,-551.2459 409.4162,-540.0218"/>
<polygon fill="#191970" stroke="#191970" points="50.0834,-434.9145 40.379,-430.663 45.3141,-440.0383 50.0834,-434.9145"/>
</g>
<!-- Node15 -->
<g id="node16" class="node">
<title>Node15</title>
<g id="a_node16"><a xlink:href="../../db/d56/classefd_1_1PassT.xhtml" target="_top" xlink:title="efd::PassT\&lt; CircuitGraph \&gt;">
<polygon fill="none" stroke="#000000" points="388,-434.5 388,-453.5 538,-453.5 538,-434.5 388,-434.5"/>
<text text-anchor="middle" x="463" y="-441.5" font-family="Helvetica,sans-Serif" font-size="10.00" fill="#000000">efd::PassT&lt; CircuitGraph &gt;</text>
</a>
</g>
</g>
<!-- Node0&#45;&gt;Node15 -->
<g id="edge37" class="edge">
<title>Node0&#45;&gt;Node15</title>
<path fill="none" stroke="#191970" d="M71.3187,-412.4332C132.5819,-400.9555 251.7144,-383.9961 351,-402 384.9195,-408.1508 421.9424,-423.9846 443.7818,-434.3575"/>
<polygon fill="#191970" stroke="#191970" points="70.4418,-409.0376 61.2823,-414.3624 71.7632,-415.9118 70.4418,-409.0376"/>
</g>
<!-- Node17 -->
<g id="node18" class="node">
<title>Node17</title>
<g id="a_node18"><a xlink:href="../../db/d56/classefd_1_1PassT.xhtml" target="_top" xlink:title="efd::PassT\&lt; bool \&gt;">
<polygon fill="none" stroke="#000000" points="408,-356.5 408,-375.5 518,-375.5 518,-356.5 408,-356.5"/>
<text text-anchor="middle" x="463" y="-363.5" font-family="Helvetica,sans-Serif" font-size="10.00" fill="#000000">efd::PassT&lt; bool &gt;</text>
</a>
</g>
</g>
<!-- Node0&#45;&gt;Node17 -->
<g id="edge36" class="edge">
<title>Node0&#45;&gt;Node17</title>
<path fill="none" stroke="#191970" d="M56.5758,-406.6522C93.1321,-387.4724 162.297,-354.5516 226,-343 296.7759,-330.1659 380.8289,-345.4036 427.4137,-356.482"/>
<polygon fill="#191970" stroke="#191970" points="54.7659,-403.6506 47.584,-411.4398 58.0557,-409.8294 54.7659,-403.6506"/>
</g>
<!-- Node20 -->
<g id="node21" class="node">
<title>Node20</title>
<g id="a_node21"><a xlink:href="../../db/d56/classefd_1_1PassT.xhtml" target="_top" xlink:title="efd::PassT\&lt; Layers \&gt;">
<polygon fill="none" stroke="#000000" points="402,-250.5 402,-269.5 524,-269.5 524,-250.5 402,-250.5"/>
<text text-anchor="middle" x="463" y="-257.5" font-family="Helvetica,sans-Serif" font-size="10.00" fill="#000000">efd::PassT&lt; Layers &gt;</text>
</a>
</g>
</g>
<!-- Node0&#45;&gt;Node20 -->
<g id="edge41" class="edge">
<title>Node0&#45;&gt;Node20</title>
<path fill="none" stroke="#191970" d="M35.5269,-401.6117C43.9502,-372.58 63.4806,-317.6374 98,-284 142.8636,-240.2826 164.8136,-238.4229 226,-225 280.2651,-213.0955 299.071,-205.2566 351,-225 361.0049,-228.8039 359.4235,-236.219 369,-241 379.1295,-246.0571 390.51,-249.7681 401.7622,-252.4915"/>
<polygon fill="#191970" stroke="#191970" points="32.12,-400.8005 32.8344,-411.3713 38.8679,-402.6623 32.12,-400.8005"/>
</g>
<!-- Node22 -->
<g id="node23" class="node">
<title>Node22</title>
<g id="a_node23"><a xlink:href="../../db/d56/classefd_1_1PassT.xhtml" target="_top" xlink:title="efd::PassT\&lt; Mapping \&gt;">
<polygon fill="none" stroke="#000000" points="397.5,-212.5 397.5,-231.5 528.5,-231.5 528.5,-212.5 397.5,-212.5"/>
<text text-anchor="middle" x="463" y="-219.5" font-family="Helvetica,sans-Serif" font-size="10.00" fill="#000000">efd::PassT&lt; Mapping &gt;</text>
</a>
</g>
</g>
<!-- Node0&#45;&gt;Node22 -->
<g id="edge42" class="edge">
<title>Node0&#45;&gt;Node22</title>
<path fill="none" stroke="#191970" d="M34.4764,-401.4027C44.0472,-356.2543 69.6804,-247.0194 98,-224 198.8052,-142.061 372.221,-190.0699 437.3157,-212.4505"/>
<polygon fill="#191970" stroke="#191970" points="31.0049,-400.9059 32.3974,-411.4088 37.8586,-402.3299 31.0049,-400.9059"/>
</g>
<!-- Node30 -->
<g id="node31" class="node">
<title>Node30</title>
<g id="a_node31"><a xlink:href="../../d6/d84/classefd_1_1PassT_3_01void_01_4.xhtml" target="_top" xlink:title="efd::PassT\&lt; void \&gt;">
<polygon fill="none" stroke="#000000" points="98,-95.5 98,-114.5 208,-114.5 208,-95.5 98,-95.5"/>
<text text-anchor="middle" x="153" y="-102.5" font-family="Helvetica,sans-Serif" font-size="10.00" fill="#000000">efd::PassT&lt; void &gt;</text>
</a>
</g>
</g>
<!-- Node0&#45;&gt;Node30 -->
<g id="edge30" class="edge">
<title>Node0&#45;&gt;Node30</title>
<path fill="none" stroke="#191970" d="M32.5145,-401.1821C38.1436,-348.4862 55.1999,-206.1884 79,-166 92.5743,-143.0787 118.087,-124.9809 135.3126,-114.6309"/>
<polygon fill="#191970" stroke="#191970" points="29.0199,-400.9493 31.4618,-411.2589 35.982,-401.6767 29.0199,-400.9493"/>
</g>
<!-- Node1&#45;&gt;Node2 -->
<g id="edge2" class="edge">
<title>Node1&#45;&gt;Node2</title>
<path fill="none" stroke="#ffa500" stroke-dasharray="5,2" d="M156.5289,-474.5979C166.0538,-525.3501 193.7541,-659.1873 226,-689 264.6554,-724.7386 321.9163,-738.4692 370.4703,-743.1543"/>
<polygon fill="#ffa500" stroke="#ffa500" points="159.939,-473.79 154.6855,-464.5894 153.0548,-475.058 159.939,-473.79"/>
<text text-anchor="middle" x="288.5" y="-743" font-family="Helvetica,sans-Serif" font-size="10.00" fill="#000000"> &lt; DependencyBuilder &gt;</text>
</g>
<!-- Node1&#45;&gt;Node4 -->
<g id="edge4" class="edge">
<title>Node1&#45;&gt;Node4</title>
<path fill="none" stroke="#ffa500" stroke-dasharray="5,2" d="M155.5183,-474.7013C161.1968,-510.6071 178.4408,-586.6154 226,-626 274.2606,-665.9654 346.4541,-677.0431 398.4739,-679.3105"/>
<polygon fill="#ffa500" stroke="#ffa500" points="158.9462,-473.9493 154.0572,-464.55 152.0176,-474.9466 158.9462,-473.9493"/>
<text text-anchor="middle" x="288.5" y="-677" font-family="Helvetica,sans-Serif" font-size="10.00" fill="#000000"> &lt; uint32_t &gt;</text>
</g>
<!-- Node1&#45;&gt;Node6 -->
<g id="edge6" class="edge">
<title>Node1&#45;&gt;Node6</title>
<path fill="none" stroke="#ffa500" stroke-dasharray="5,2" d="M159.8665,-474.135C170.1077,-499.7789 191.9122,-544.7529 226,-568 271.9556,-599.3407 333.8292,-611.0974 382.8323,-615.1469"/>
<polygon fill="#ffa500" stroke="#ffa500" points="163.1199,-472.8434 156.2901,-464.7437 156.5782,-475.3346 163.1199,-472.8434"/>
<text text-anchor="middle" x="288.5" y="-614" font-family="Helvetica,sans-Serif" font-size="10.00" fill="#000000"> &lt; XbitToNumber &gt;</text>
</g>
<!-- Node1&#45;&gt;Node8 -->
<g id="edge8" class="edge">
<title>Node1&#45;&gt;Node8</title>
<path fill="none" stroke="#ffa500" stroke-dasharray="5,2" d="M169.8859,-471.4454C183.8707,-484.2156 204.8167,-501.4684 226,-512 281.7551,-539.7194 351.1556,-556.3286 400.4137,-565.4751"/>
<polygon fill="#ffa500" stroke="#ffa500" points="172.1968,-468.8143 162.5071,-464.5292 167.4097,-473.9216 172.1968,-468.8143"/>
<text text-anchor="middle" x="288.5" y="-556" font-family="Helvetica,sans-Serif" font-size="10.00" fill="#000000"> &lt; QModuleQuality &gt;</text>
</g>
<!-- Node1&#45;&gt;Node10 -->
<g id="edge10" class="edge">
<title>Node1&#45;&gt;Node10</title>
<path fill="none" stroke="#ffa500" stroke-dasharray="5,2" d="M167.0865,-436.8805C180.6309,-420.5374 202.469,-396.8515 226,-382 287.2806,-343.323 368.7396,-319.4856 418.4414,-307.5053"/>
<polygon fill="#ffa500" stroke="#ffa500" points="164.0097,-435.1204 160.4571,-445.1018 169.4588,-439.5144 164.0097,-435.1204"/>
<text text-anchor="middle" x="288.5" y="-385" font-family="Helvetica,sans-Serif" font-size="10.00" fill="#000000"> &lt; LayerBasedOrdering &gt;</text>
</g>
<!-- Node1&#45;&gt;Node13 -->
<g id="edge13" class="edge">
<title>Node1&#45;&gt;Node13</title>
<path fill="none" stroke="#ffa500" stroke-dasharray="5,2" d="M210.6923,-464.8115C264.185,-473.972 337.4981,-486.7113 351,-490 373.861,-495.5684 398.8918,-503.2366 419.481,-509.9765"/>
<polygon fill="#ffa500" stroke="#ffa500" points="211.0649,-461.3245 200.618,-463.0885 209.8847,-468.2243 211.0649,-461.3245"/>
<text text-anchor="start" x="233" y="-504" font-family="Helvetica,sans-Serif" font-size="10.00" fill="#000000"> &lt; DependencyGraph::</text>
<text text-anchor="middle" x="288.5" y="-493" font-family="Helvetica,sans-Serif" font-size="10.00" fill="#000000">sRef &gt;</text>
</g>
<!-- Node1&#45;&gt;Node15 -->
<g id="edge15" class="edge">
<title>Node1&#45;&gt;Node15</title>
<path fill="none" stroke="#ffa500" stroke-dasharray="5,2" d="M211.0582,-452.9399C260.9901,-451.1681 333.3459,-448.6006 387.7189,-446.6713"/>
<polygon fill="#ffa500" stroke="#ffa500" points="210.6277,-449.4528 200.7581,-453.3054 210.876,-456.4484 210.6277,-449.4528"/>
<text text-anchor="middle" x="288.5" y="-455" font-family="Helvetica,sans-Serif" font-size="10.00" fill="#000000"> &lt; CircuitGraph &gt;</text>
</g>
<!-- Node1&#45;&gt;Node17 -->
<g id="edge17" class="edge">
<title>Node1&#45;&gt;Node17</title>
<path fill="none" stroke="#ffa500" stroke-dasharray="5,2" d="M193.9487,-442.5242C204.3898,-439.3803 215.6009,-436.0366 226,-433 297.8275,-412.0255 382.2035,-388.418 428.4069,-375.5786"/>
<polygon fill="#ffa500" stroke="#ffa500" points="192.7867,-439.2189 184.2257,-445.4607 194.8106,-445.9199 192.7867,-439.2189"/>
<text text-anchor="middle" x="288.5" y="-436" font-family="Helvetica,sans-Serif" font-size="10.00" fill="#000000"> &lt; bool &gt;</text>
</g>
<!-- Node1&#45;&gt;Node20 -->
<g id="edge20" class="edge">
<title>Node1&#45;&gt;Node20</title>
<path fill="none" stroke="#ffa500" stroke-dasharray="5,2" d="M157.2525,-435.3865C165.1167,-404.0211 185.0088,-342.8713 226,-311 276.3378,-271.8616 350.0991,-261.1858 401.9305,-258.9916"/>
<polygon fill="#ffa500" stroke="#ffa500" points="153.7599,-434.95 154.8826,-445.4852 160.5748,-436.5493 153.7599,-434.95"/>
<text text-anchor="middle" x="288.5" y="-314" font-family="Helvetica,sans-Serif" font-size="10.00" fill="#000000"> &lt; Layers &gt;</text>
</g>
<!-- Node1&#45;&gt;Node22 -->
<g id="edge22" class="edge">
<title>Node1&#45;&gt;Node22</title>
<path fill="none" stroke="#ffa500" stroke-dasharray="5,2" d="M157.1781,-435.4168C167.5493,-388.7338 195.8213,-272.9995 226,-249 275.753,-209.4342 351.0502,-207.6091 403.3708,-212.4905"/>
<polygon fill="#ffa500" stroke="#ffa500" points="153.6978,-434.9496 154.9868,-445.4657 160.5371,-436.4411 153.6978,-434.9496"/>
<text text-anchor="middle" x="288.5" y="-252" font-family="Helvetica,sans-Serif" font-size="10.00" fill="#000000"> &lt; Mapping &gt;</text>
</g>
<!-- Node3 -->
<g id="node4" class="node">
<title>Node3</title>
<g id="a_node4"><a xlink:href="../../d1/d06/classefd_1_1DependencyBuilderWrapperPass.xhtml" target="_top" xlink:title="WrapperPass that yields a DependencyBuilder structure. ">
<polygon fill="none" stroke="#000000" points="596,-733.5 596,-752.5 793,-752.5 793,-733.5 596,-733.5"/>
<text text-anchor="middle" x="694.5" y="-740.5" font-family="Helvetica,sans-Serif" font-size="10.00" fill="#000000">efd::DependencyBuilderWrapperPass</text>
</a>
</g>
</g>
<!-- Node2&#45;&gt;Node3 -->
<g id="edge3" class="edge">
<title>Node2&#45;&gt;Node3</title>
<path fill="none" stroke="#191970" d="M566.1119,-743C576.0377,-743 586.089,-743 595.9691,-743"/>
<polygon fill="#191970" stroke="#191970" points="565.826,-739.5001 555.826,-743 565.826,-746.5001 565.826,-739.5001"/>
</g>
<!-- Node5 -->
<g id="node6" class="node">
<title>Node5</title>
<g id="a_node6"><a xlink:href="../../df/d16/classefd_1_1IntrinsicGateCostPass.xhtml" target="_top" xlink:title="efd::IntrinsicGateCostPass">
<polygon fill="none" stroke="#000000" points="622,-668.5 622,-687.5 767,-687.5 767,-668.5 622,-668.5"/>
<text text-anchor="middle" x="694.5" y="-675.5" font-family="Helvetica,sans-Serif" font-size="10.00" fill="#000000">efd::IntrinsicGateCostPass</text>
</a>
</g>
</g>
<!-- Node4&#45;&gt;Node5 -->
<g id="edge5" class="edge">
<title>Node4&#45;&gt;Node5</title>
<path fill="none" stroke="#191970" d="M537.9437,-678C564.898,-678 595.2378,-678 621.9819,-678"/>
<polygon fill="#191970" stroke="#191970" points="537.7935,-674.5001 527.7935,-678 537.7935,-681.5001 537.7935,-674.5001"/>
</g>
<!-- Node7 -->
<g id="node8" class="node">
<title>Node7</title>
<g id="a_node8"><a xlink:href="../../de/d2b/classefd_1_1XbitToNumberWrapperPass.xhtml" target="_top" xlink:title="WrapperPass that yields a XbitToNumber structure. ">
<polygon fill="none" stroke="#000000" points="608,-606.5 608,-625.5 781,-625.5 781,-606.5 608,-606.5"/>
<text text-anchor="middle" x="694.5" y="-613.5" font-family="Helvetica,sans-Serif" font-size="10.00" fill="#000000">efd::XbitToNumberWrapperPass</text>
</a>
</g>
</g>
<!-- Node6&#45;&gt;Node7 -->
<g id="edge7" class="edge">
<title>Node6&#45;&gt;Node7</title>
<path fill="none" stroke="#191970" d="M553.66,-616C571.4106,-616 589.9882,-616 607.6123,-616"/>
<polygon fill="#191970" stroke="#191970" points="553.3178,-612.5001 543.3178,-616 553.3177,-619.5001 553.3178,-612.5001"/>
</g>
<!-- Node9 -->
<g id="node10" class="node">
<title>Node9</title>
<g id="a_node10"><a xlink:href="../../dd/d79/classefd_1_1QModuleQualityEvalPass.xhtml" target="_top" xlink:title="Evaluates a QModule. ">
<polygon fill="none" stroke="#000000" points="614.5,-565.5 614.5,-584.5 774.5,-584.5 774.5,-565.5 614.5,-565.5"/>
<text text-anchor="middle" x="694.5" y="-572.5" font-family="Helvetica,sans-Serif" font-size="10.00" fill="#000000">efd::QModuleQualityEvalPass</text>
</a>
</g>
</g>
<!-- Node8&#45;&gt;Node9 -->
<g id="edge9" class="edge">
<title>Node8&#45;&gt;Node9</title>
<path fill="none" stroke="#191970" d="M556.7442,-575C575.7731,-575 595.6258,-575 614.1417,-575"/>
<polygon fill="#191970" stroke="#191970" points="556.5768,-571.5001 546.5768,-575 556.5768,-578.5001 556.5768,-571.5001"/>
</g>
<!-- Node11 -->
<g id="node12" class="node">
<title>Node11</title>
<g id="a_node12"><a xlink:href="../../d6/de0/classefd_1_1LayerBasedOrderingWrapperPass.xhtml" target="_top" xlink:title="Interface for ordering the program by a specific layer&#45;based ordering. ">
<polygon fill="none" stroke="#000000" points="594,-288.5 594,-307.5 795,-307.5 795,-288.5 594,-288.5"/>
<text text-anchor="middle" x="694.5" y="-295.5" font-family="Helvetica,sans-Serif" font-size="10.00" fill="#000000">efd::LayerBasedOrderingWrapperPass</text>
</a>
</g>
</g>
<!-- Node10&#45;&gt;Node11 -->
<g id="edge11" class="edge">
<title>Node10&#45;&gt;Node11</title>
<path fill="none" stroke="#191970" d="M567.3638,-298C576.1004,-298 584.9245,-298 593.6342,-298"/>
<polygon fill="#191970" stroke="#191970" points="567.1599,-294.5001 557.1599,-298 567.1599,-301.5001 567.1599,-294.5001"/>
</g>
<!-- Node12 -->
<g id="node13" class="node">
<title>Node12</title>
<g id="a_node13"><a xlink:href="../../dd/db9/classefd_1_1CNOTLBOWrapperPass.xhtml" target="_top" xlink:title="Layer&#45;based Ordering with CNOT priority. ">
<polygon fill="none" stroke="#000000" points="855,-288.5 855,-307.5 1004,-307.5 1004,-288.5 855,-288.5"/>
<text text-anchor="middle" x="929.5" y="-295.5" font-family="Helvetica,sans-Serif" font-size="10.00" fill="#000000">efd::CNOTLBOWrapperPass</text>
</a>
</g>
</g>
<!-- Node11&#45;&gt;Node12 -->
<g id="edge12" class="edge">
<title>Node11&#45;&gt;Node12</title>
<path fill="none" stroke="#191970" d="M805.5725,-298C822.3133,-298 839.2285,-298 854.9535,-298"/>
<polygon fill="#191970" stroke="#191970" points="805.1839,-294.5001 795.1838,-298 805.1838,-301.5001 805.1839,-294.5001"/>
</g>
<!-- Node14 -->
<g id="node15" class="node">
<title>Node14</title>
<g id="a_node15"><a xlink:href="../../d6/d27/classefd_1_1DependencyGraphBuilderPass.xhtml" target="_top" xlink:title="Constructs the dependency graph for a QModule. ">
<polygon fill="none" stroke="#000000" points="602,-515.5 602,-534.5 787,-534.5 787,-515.5 602,-515.5"/>
<text text-anchor="middle" x="694.5" y="-522.5" font-family="Helvetica,sans-Serif" font-size="10.00" fill="#000000">efd::DependencyGraphBuilderPass</text>
</a>
</g>
</g>
<!-- Node13&#45;&gt;Node14 -->
<g id="edge14" class="edge">
<title>Node13&#45;&gt;Node14</title>
<path fill="none" stroke="#191970" d="M557.2946,-525C571.9574,-525 587.0961,-525 601.7247,-525"/>
<polygon fill="#191970" stroke="#191970" points="557.2317,-521.5001 547.2317,-525 557.2317,-528.5001 557.2317,-521.5001"/>
</g>
<!-- Node16 -->
<g id="node17" class="node">
<title>Node16</title>
<g id="a_node17"><a xlink:href="../../de/dd0/classefd_1_1CircuitGraphBuilderPass.xhtml" target="_top" xlink:title="Builds the circuit graph corresponding to the QModule given. ">
<polygon fill="none" stroke="#000000" points="616.5,-434.5 616.5,-453.5 772.5,-453.5 772.5,-434.5 616.5,-434.5"/>
<text text-anchor="middle" x="694.5" y="-441.5" font-family="Helvetica,sans-Serif" font-size="10.00" fill="#000000">efd::CircuitGraphBuilderPass</text>
</a>
</g>
</g>
<!-- Node15&#45;&gt;Node16 -->
<g id="edge16" class="edge">
<title>Node15&#45;&gt;Node16</title>
<path fill="none" stroke="#191970" d="M548.243,-444C570.4608,-444 594.2933,-444 616.136,-444"/>
<polygon fill="#191970" stroke="#191970" points="548.1615,-440.5001 538.1614,-444 548.1614,-447.5001 548.1615,-440.5001"/>
</g>
<!-- Node18 -->
<g id="node19" class="node">
<title>Node18</title>
<g id="a_node19"><a xlink:href="../../d0/de6/classefd_1_1ArchVerifierPass.xhtml" target="_top" xlink:title="Verifies if the CNOT relations between every qubit respects the architecture constraints. ">
<polygon fill="none" stroke="#000000" points="635,-337.5 635,-356.5 754,-356.5 754,-337.5 635,-337.5"/>
<text text-anchor="middle" x="694.5" y="-344.5" font-family="Helvetica,sans-Serif" font-size="10.00" fill="#000000">efd::ArchVerifierPass</text>
</a>
</g>
</g>
<!-- Node17&#45;&gt;Node18 -->
<g id="edge18" class="edge">
<title>Node17&#45;&gt;Node18</title>
<path fill="none" stroke="#191970" d="M528.3059,-360.6401C561.7885,-357.8921 602.272,-354.5695 634.9,-351.8916"/>
<polygon fill="#191970" stroke="#191970" points="527.8361,-357.1668 518.1559,-361.4732 528.4087,-364.1434 527.8361,-357.1668"/>
</g>
<!-- Node19 -->
<g id="node20" class="node">
<title>Node19</title>
<g id="a_node20"><a xlink:href="../../d6/dd7/classefd_1_1SemanticVerifierPass.xhtml" target="_top" xlink:title="Verifies the CNOT relations between every qubit. ">
<polygon fill="none" stroke="#000000" points="623,-375.5 623,-394.5 766,-394.5 766,-375.5 623,-375.5"/>
<text text-anchor="middle" x="694.5" y="-382.5" font-family="Helvetica,sans-Serif" font-size="10.00" fill="#000000">efd::SemanticVerifierPass</text>
</a>
</g>
</g>
<!-- Node17&#45;&gt;Node19 -->
<g id="edge19" class="edge">
<title>Node17&#45;&gt;Node19</title>
<path fill="none" stroke="#191970" d="M528.3157,-371.3607C557.7223,-373.7742 592.5275,-376.6308 622.6681,-379.1045"/>
<polygon fill="#191970" stroke="#191970" points="528.4087,-367.8566 518.1559,-370.5268 527.8361,-374.8332 528.4087,-367.8566"/>
</g>
<!-- Node21 -->
<g id="node22" class="node">
<title>Node21</title>
<g id="a_node22"><a xlink:href="../../d4/d1b/classefd_1_1LayersBuilderPass.xhtml" target="_top" xlink:title="Create the layers of the &#39;QModule&#39;. ">
<polygon fill="none" stroke="#000000" points="630.5,-250.5 630.5,-269.5 758.5,-269.5 758.5,-250.5 630.5,-250.5"/>
<text text-anchor="middle" x="694.5" y="-257.5" font-family="Helvetica,sans-Serif" font-size="10.00" fill="#000000">efd::LayersBuilderPass</text>
</a>
</g>
</g>
<!-- Node20&#45;&gt;Node21 -->
<g id="edge21" class="edge">
<title>Node20&#45;&gt;Node21</title>
<path fill="none" stroke="#191970" d="M534.3037,-260C564.9105,-260 600.4059,-260 630.1945,-260"/>
<polygon fill="#191970" stroke="#191970" points="534.1268,-256.5001 524.1267,-260 534.1267,-263.5001 534.1268,-256.5001"/>
</g>
<!-- Node23 -->
<g id="node24" class="node">
<title>Node23</title>
<g id="a_node24"><a xlink:href="../../de/d5a/classefd_1_1QbitAllocator.xhtml" target="_top" xlink:title="Base abstract class that allocates the qbits used in the program to the qbits that are in the physica...">
<polygon fill="none" stroke="#000000" points="643.5,-212.5 643.5,-231.5 745.5,-231.5 745.5,-212.5 643.5,-212.5"/>
<text text-anchor="middle" x="694.5" y="-219.5" font-family="Helvetica,sans-Serif" font-size="10.00" fill="#000000">efd::QbitAllocator</text>
</a>
</g>
</g>
<!-- Node22&#45;&gt;Node23 -->
<g id="edge23" class="edge">
<title>Node22&#45;&gt;Node23</title>
<path fill="none" stroke="#191970" d="M539.145,-222C573.3309,-222 612.7577,-222 643.338,-222"/>
<polygon fill="#191970" stroke="#191970" points="538.7194,-218.5001 528.7194,-222 538.7193,-225.5001 538.7194,-218.5001"/>
</g>
<!-- Node24 -->
<g id="node25" class="node">
<title>Node24</title>
<g id="a_node25"><a xlink:href="../../d1/dd6/classefd_1_1BoundedMappingTreeQAllocator.xhtml" target="_top" xlink:title="Subgraph Isomorphism based Qubit Allocator. ">
<polygon fill="none" stroke="#000000" points="832,-196.5 832,-215.5 1027,-215.5 1027,-196.5 832,-196.5"/>
<text text-anchor="middle" x="929.5" y="-203.5" font-family="Helvetica,sans-Serif" font-size="10.00" fill="#000000">efd::BoundedMappingTreeQAllocator</text>
</a>
</g>
</g>
<!-- Node23&#45;&gt;Node24 -->
<g id="edge24" class="edge">
<title>Node23&#45;&gt;Node24</title>
<path fill="none" stroke="#191970" d="M755.8332,-217.8241C779.0803,-216.2413 806.1631,-214.3974 831.9289,-212.6431"/>
<polygon fill="#191970" stroke="#191970" points="755.5205,-214.3372 745.7814,-218.5085 755.996,-221.321 755.5205,-214.3372"/>
</g>
<!-- Node25 -->
<g id="node26" class="node">
<title>Node25</title>
<g id="a_node26"><a xlink:href="../../d6/d8e/classefd_1_1StdSolutionQAllocator.xhtml" target="_top" xlink:title="An abstract allocator that builds the solution based on a StdSolution. ">
<polygon fill="none" stroke="#000000" points="857,-234.5 857,-253.5 1002,-253.5 1002,-234.5 857,-234.5"/>
<text text-anchor="middle" x="929.5" y="-241.5" font-family="Helvetica,sans-Serif" font-size="10.00" fill="#000000">efd::StdSolutionQAllocator</text>
</a>
</g>
</g>
<!-- Node23&#45;&gt;Node25 -->
<g id="edge25" class="edge">
<title>Node23&#45;&gt;Node25</title>
<path fill="none" stroke="#191970" d="M755.9921,-227.7567C786.916,-230.6517 824.596,-234.1792 856.9313,-237.2063"/>
<polygon fill="#191970" stroke="#191970" points="756.0641,-224.2482 745.7814,-226.8008 755.4116,-231.2178 756.0641,-224.2482"/>
</g>
<!-- Node26 -->
<g id="node27" class="node">
<title>Node26</title>
<g id="a_node27"><a xlink:href="../../d1/d93/classefd_1_1DynprogQAllocator.xhtml" target="_top" xlink:title="Implementation of DepSolverQAllocator that uses dynamic programming to obtain an optimal solution...">
<polygon fill="none" stroke="#000000" points="1069,-291.5 1069,-310.5 1200,-310.5 1200,-291.5 1069,-291.5"/>
<text text-anchor="middle" x="1134.5" y="-298.5" font-family="Helvetica,sans-Serif" font-size="10.00" fill="#000000">efd::DynprogQAllocator</text>
</a>
</g>
</g>
<!-- Node25&#45;&gt;Node26 -->
<g id="edge26" class="edge">
<title>Node25&#45;&gt;Node26</title>
<path fill="none" stroke="#191970" d="M972.5963,-256.3191C998.9674,-263.8217 1033.4077,-273.5564 1064,-282 1075.2418,-285.1028 1087.5087,-288.4293 1098.612,-291.418"/>
<polygon fill="#191970" stroke="#191970" points="973.4855,-252.9332 962.9092,-253.5603 971.5681,-259.6655 973.4855,-252.9332"/>
</g>
<!-- Node27 -->
<g id="node28" class="node">
<title>Node27</title>
<g id="a_node28"><a xlink:href="../../d4/d23/classefd_1_1GreedyCktQAllocator.xhtml" target="_top" xlink:title="efd::GreedyCktQAllocator">
<polygon fill="none" stroke="#000000" points="1064,-253.5 1064,-272.5 1205,-272.5 1205,-253.5 1064,-253.5"/>
<text text-anchor="middle" x="1134.5" y="-260.5" font-family="Helvetica,sans-Serif" font-size="10.00" fill="#000000">efd::GreedyCktQAllocator</text>
</a>
</g>
</g>
<!-- Node25&#45;&gt;Node27 -->
<g id="edge27" class="edge">
<title>Node25&#45;&gt;Node27</title>
<path fill="none" stroke="#191970" d="M1012.0478,-251.6508C1029.1825,-253.2389 1047.091,-254.8987 1063.7567,-256.4433"/>
<polygon fill="#191970" stroke="#191970" points="1012.3442,-248.1633 1002.0638,-250.7254 1011.6981,-255.1335 1012.3442,-248.1633"/>
</g>
<!-- Node28 -->
<g id="node29" class="node">
<title>Node28</title>
<g id="a_node29"><a xlink:href="../../d3/d6c/classefd_1_1IBMQAllocator.xhtml" target="_top" xlink:title="Port of IBM&#39;s allocator. ">
<polygon fill="none" stroke="#000000" points="1081,-215.5 1081,-234.5 1188,-234.5 1188,-215.5 1081,-215.5"/>
<text text-anchor="middle" x="1134.5" y="-222.5" font-family="Helvetica,sans-Serif" font-size="10.00" fill="#000000">efd::IBMQAllocator</text>
</a>
</g>
</g>
<!-- Node25&#45;&gt;Node28 -->
<g id="edge28" class="edge">
<title>Node25&#45;&gt;Node28</title>
<path fill="none" stroke="#191970" d="M1012.2094,-236.3343C1035.3046,-234.1937 1059.7934,-231.924 1080.7417,-229.9825"/>
<polygon fill="#191970" stroke="#191970" points="1011.6981,-232.8665 1002.0638,-237.2746 1012.3442,-239.8367 1011.6981,-232.8665"/>
</g>
<!-- Node29 -->
<g id="node30" class="node">
<title>Node29</title>
<g id="a_node30"><a xlink:href="../../da/d39/classefd_1_1SimpleQAllocator.xhtml" target="_top" xlink:title="DependencySolver that allocates the logical qubits from an initial mapping. ">
<polygon fill="none" stroke="#000000" points="1073,-177.5 1073,-196.5 1196,-196.5 1196,-177.5 1073,-177.5"/>
<text text-anchor="middle" x="1134.5" y="-184.5" font-family="Helvetica,sans-Serif" font-size="10.00" fill="#000000">efd::SimpleQAllocator</text>
</a>
</g>
</g>
<!-- Node25&#45;&gt;Node29 -->
<g id="edge29" class="edge">
<title>Node25&#45;&gt;Node29</title>
<path fill="none" stroke="#191970" d="M1002.242,-232.1848C1010.6829,-230.1211 1019.094,-227.7383 1027,-225 1044.4678,-218.9498 1046.7572,-212.6645 1064,-206 1073.3408,-202.3897 1083.6303,-199.1982 1093.3935,-196.5109"/>
<polygon fill="#191970" stroke="#191970" points="1001.3075,-228.8084 992.3479,-234.4631 1002.8783,-235.6299 1001.3075,-228.8084"/>
</g>
<!-- Node31 -->
<g id="node32" class="node">
<title>Node31</title>
<g id="a_node32"><a xlink:href="../../d8/df2/classefd_1_1FlattenPass.xhtml" target="_top" xlink:title="Flattens the given QModule. ">
<polygon fill="none" stroke="#000000" points="415.5,-152.5 415.5,-171.5 510.5,-171.5 510.5,-152.5 415.5,-152.5"/>
<text text-anchor="middle" x="463" y="-159.5" font-family="Helvetica,sans-Serif" font-size="10.00" fill="#000000">efd::FlattenPass</text>
</a>
</g>
</g>
<!-- Node30&#45;&gt;Node31 -->
<g id="edge31" class="edge">
<title>Node30&#45;&gt;Node31</title>
<path fill="none" stroke="#191970" d="M191.0578,-117.616C202.2281,-121.0063 214.5267,-124.4384 226,-127 290.9482,-141.5009 367.2893,-151.5476 415.4118,-157.0434"/>
<polygon fill="#191970" stroke="#191970" points="191.7608,-114.1693 181.1725,-114.5404 189.6812,-120.8533 191.7608,-114.1693"/>
</g>
<!-- Node32 -->
<g id="node33" class="node">
<title>Node32</title>
<g id="a_node33"><a xlink:href="../../d5/de3/classefd_1_1InlineAllPass.xhtml" target="_top" xlink:title="efd::InlineAllPass">
<polygon fill="none" stroke="#000000" points="412.5,-114.5 412.5,-133.5 513.5,-133.5 513.5,-114.5 412.5,-114.5"/>
<text text-anchor="middle" x="463" y="-121.5" font-family="Helvetica,sans-Serif" font-size="10.00" fill="#000000">efd::InlineAllPass</text>
</a>
</g>
</g>
<!-- Node30&#45;&gt;Node32 -->
<g id="edge32" class="edge">
<title>Node30&#45;&gt;Node32</title>
<path fill="none" stroke="#191970" d="M218.1942,-108.9958C276.0273,-112.5404 359.3248,-117.6457 412.2994,-120.8925"/>
<polygon fill="#191970" stroke="#191970" points="218.26,-105.4933 208.0646,-108.3749 217.8317,-112.4802 218.26,-105.4933"/>
</g>
<!-- Node33 -->
<g id="node34" class="node">
<title>Node33</title>
<g id="a_node34"><a xlink:href="../../d8/dd7/classefd_1_1RenameQbitPass.xhtml" target="_top" xlink:title="Renames all the qbits according to the map from the constructor. ">
<polygon fill="none" stroke="#000000" points="402,-76.5 402,-95.5 524,-95.5 524,-76.5 402,-76.5"/>
<text text-anchor="middle" x="463" y="-83.5" font-family="Helvetica,sans-Serif" font-size="10.00" fill="#000000">efd::RenameQbitPass</text>
</a>
</g>
</g>
<!-- Node30&#45;&gt;Node33 -->
<g id="edge33" class="edge">
<title>Node30&#45;&gt;Node33</title>
<path fill="none" stroke="#191970" d="M218.2429,-101.0012C272.3856,-97.6828 348.8217,-92.998 401.8107,-89.7503"/>
<polygon fill="#191970" stroke="#191970" points="217.8317,-97.5198 208.0646,-101.6251 218.26,-104.5067 217.8317,-97.5198"/>
</g>
<!-- Node34 -->
<g id="node35" class="node">
<title>Node34</title>
<g id="a_node35"><a xlink:href="../../d2/ddc/classefd_1_1ReverseEdgesPass.xhtml" target="_top" xlink:title="Pass that reverses the edges accordingly with the architecture Graph. ">
<polygon fill="none" stroke="#000000" points="398,-38.5 398,-57.5 528,-57.5 528,-38.5 398,-38.5"/>
<text text-anchor="middle" x="463" y="-45.5" font-family="Helvetica,sans-Serif" font-size="10.00" fill="#000000">efd::ReverseEdgesPass</text>
</a>
</g>
</g>
<!-- Node30&#45;&gt;Node34 -->
<g id="edge34" class="edge">
<title>Node30&#45;&gt;Node34</title>
<path fill="none" stroke="#191970" d="M205.1483,-93.2748C212.1482,-91.7876 219.242,-90.3245 226,-89 286.2368,-77.1944 355.4407,-65.428 403.4519,-57.5484"/>
<polygon fill="#191970" stroke="#191970" points="204.0492,-89.9312 195.01,-95.4578 205.5228,-96.7743 204.0492,-89.9312"/>
</g>
<!-- Node35 -->
<g id="node36" class="node">
<title>Node35</title>
<g id="a_node36"><a xlink:href="../../dc/dcc/classefd_1_1StdSolutionImplPass.xhtml" target="_top" xlink:title="efd::StdSolutionImplPass">
<polygon fill="none" stroke="#000000" points="394,-.5 394,-19.5 532,-19.5 532,-.5 394,-.5"/>
<text text-anchor="middle" x="463" y="-7.5" font-family="Helvetica,sans-Serif" font-size="10.00" fill="#000000">efd::StdSolutionImplPass</text>
</a>
</g>
</g>
<!-- Node30&#45;&gt;Node35 -->
<g id="edge35" class="edge">
<title>Node30&#45;&gt;Node35</title>
<path fill="none" stroke="#191970" d="M174.8131,-89.7562C188.8669,-80.5527 207.8445,-69.2423 226,-62 280.3858,-40.3053 345.5832,-26.8393 393.8177,-19.0621"/>
<polygon fill="#191970" stroke="#191970" points="172.7014,-86.9582 166.3469,-95.436 176.6012,-92.7713 172.7014,-86.9582"/>
</g>
</g>
</svg>
