<?xml version="1.0" encoding="UTF-8" standalone="no"?>
<!DOCTYPE svg PUBLIC "-//W3C//DTD SVG 1.1//EN"
 "http://www.w3.org/Graphics/SVG/1.1/DTD/svg11.dtd">
<!-- Generated by graphviz version 2.38.0 (20140413.2041)
 -->
<!-- Title: lib/Transform/Allocators/QbitterSolBuilder.cpp Pages: 1 -->
<svg width="1319pt" height="598pt"
 viewBox="0.00 0.00 1319.00 598.00" xmlns="http://www.w3.org/2000/svg" xmlns:xlink="http://www.w3.org/1999/xlink">
<g id="graph0" class="graph" transform="scale(1 1) rotate(0) translate(4 594)">
<title>lib/Transform/Allocators/QbitterSolBuilder.cpp</title>
<!-- Node0 -->
<g id="node1" class="node"><title>Node0</title>
<polygon fill="#bfbfbf" stroke="black" points="475,-559.5 475,-589.5 595,-589.5 595,-559.5 475,-559.5"/>
<text text-anchor="start" x="483" y="-577.5" font-family="Helvetica,sans-Serif" font-size="10.00">lib/Transform/Allocators</text>
<text text-anchor="middle" x="535" y="-566.5" font-family="Helvetica,sans-Serif" font-size="10.00">/QbitterSolBuilder.cpp</text>
</g>
<!-- Node1 -->
<g id="node2" class="node"><title>Node1</title>
<g id="a_node2"><a xlink:href="../../de/d8c/QbitterSolBuilder_8h.xhtml" target="_top" xlink:title="enfield/Transform/Allocators\l/QbitterSolBuilder.h">
<polygon fill="none" stroke="black" points="381.5,-492.5 381.5,-522.5 520.5,-522.5 520.5,-492.5 381.5,-492.5"/>
<text text-anchor="start" x="389.5" y="-510.5" font-family="Helvetica,sans-Serif" font-size="10.00">enfield/Transform/Allocators</text>
<text text-anchor="middle" x="451" y="-499.5" font-family="Helvetica,sans-Serif" font-size="10.00">/QbitterSolBuilder.h</text>
</a>
</g>
</g>
<!-- Node0&#45;&gt;Node1 -->
<g id="edge1" class="edge"><title>Node0&#45;&gt;Node1</title>
<path fill="none" stroke="midnightblue" d="M516.773,-559.396C505.215,-550.452 490.076,-538.737 477.236,-528.802"/>
<polygon fill="midnightblue" stroke="midnightblue" points="479.242,-525.928 469.191,-522.577 474.958,-531.464 479.242,-525.928"/>
</g>
<!-- Node34 -->
<g id="node35" class="node"><title>Node34</title>
<g id="a_node35"><a xlink:href="../../d7/d2d/BFSPathFinder_8h.xhtml" target="_top" xlink:title="enfield/Support/BFSPathFinder.h">
<polygon fill="none" stroke="black" points="539,-498 539,-517 699,-517 699,-498 539,-498"/>
<text text-anchor="middle" x="619" y="-505" font-family="Helvetica,sans-Serif" font-size="10.00">enfield/Support/BFSPathFinder.h</text>
</a>
</g>
</g>
<!-- Node0&#45;&gt;Node34 -->
<g id="edge60" class="edge"><title>Node0&#45;&gt;Node34</title>
<path fill="none" stroke="midnightblue" d="M553.227,-559.396C566.973,-548.759 585.784,-534.203 599.769,-523.381"/>
<polygon fill="midnightblue" stroke="midnightblue" points="601.997,-526.082 607.764,-517.195 597.713,-520.546 601.997,-526.082"/>
</g>
<!-- Node2 -->
<g id="node3" class="node"><title>Node2</title>
<g id="a_node3"><a xlink:href="../../db/d60/SolutionBuilder_8h.xhtml" target="_top" xlink:title="enfield/Transform/Allocators\l/SolutionBuilder.h">
<polygon fill="none" stroke="black" points="381.5,-425.5 381.5,-455.5 520.5,-455.5 520.5,-425.5 381.5,-425.5"/>
<text text-anchor="start" x="389.5" y="-443.5" font-family="Helvetica,sans-Serif" font-size="10.00">enfield/Transform/Allocators</text>
<text text-anchor="middle" x="451" y="-432.5" font-family="Helvetica,sans-Serif" font-size="10.00">/SolutionBuilder.h</text>
</a>
</g>
</g>
<!-- Node1&#45;&gt;Node2 -->
<g id="edge2" class="edge"><title>Node1&#45;&gt;Node2</title>
<path fill="none" stroke="midnightblue" d="M451,-492.396C451,-484.645 451,-474.812 451,-465.86"/>
<polygon fill="midnightblue" stroke="midnightblue" points="454.5,-465.576 451,-455.577 447.5,-465.577 454.5,-465.576"/>
</g>
<!-- Node3 -->
<g id="node4" class="node"><title>Node3</title>
<g id="a_node4"><a xlink:href="../../dd/d3b/QbitAllocator_8h.xhtml" target="_top" xlink:title="enfield/Transform/Allocators\l/QbitAllocator.h">
<polygon fill="none" stroke="black" points="333.5,-358.5 333.5,-388.5 472.5,-388.5 472.5,-358.5 333.5,-358.5"/>
<text text-anchor="start" x="341.5" y="-376.5" font-family="Helvetica,sans-Serif" font-size="10.00">enfield/Transform/Allocators</text>
<text text-anchor="middle" x="403" y="-365.5" font-family="Helvetica,sans-Serif" font-size="10.00">/QbitAllocator.h</text>
</a>
</g>
</g>
<!-- Node2&#45;&gt;Node3 -->
<g id="edge3" class="edge"><title>Node2&#45;&gt;Node3</title>
<path fill="none" stroke="midnightblue" d="M440.585,-425.396C434.421,-417.049 426.474,-406.287 419.476,-396.811"/>
<polygon fill="midnightblue" stroke="midnightblue" points="422.151,-394.542 413.395,-388.577 416.52,-398.7 422.151,-394.542"/>
</g>
<!-- Node32 -->
<g id="node33" class="node"><title>Node32</title>
<g id="a_node33"><a xlink:href="../../d0/d86/BitOptions_8h.xhtml" target="_top" xlink:title="enfield/Support/BitOptions.h">
<polygon fill="none" stroke="black" points="955.5,-364 955.5,-383 1094.5,-383 1094.5,-364 955.5,-364"/>
<text text-anchor="middle" x="1025" y="-371" font-family="Helvetica,sans-Serif" font-size="10.00">enfield/Support/BitOptions.h</text>
</a>
</g>
</g>
<!-- Node2&#45;&gt;Node32 -->
<g id="edge57" class="edge"><title>Node2&#45;&gt;Node32</title>
<path fill="none" stroke="midnightblue" d="M520.904,-427.72C527.353,-426.751 533.793,-425.828 540,-425 682.293,-406.017 848.877,-390.025 945.14,-381.39"/>
<polygon fill="midnightblue" stroke="midnightblue" points="945.729,-384.852 955.378,-380.476 945.106,-377.88 945.729,-384.852"/>
</g>
<!-- Node4 -->
<g id="node5" class="node"><title>Node4</title>
<g id="a_node5"><a xlink:href="../../d7/d9d/ArchGraph_8h.xhtml" target="_top" xlink:title="enfield/Arch/ArchGraph.h">
<polygon fill="none" stroke="black" points="184,-297 184,-316 310,-316 310,-297 184,-297"/>
<text text-anchor="middle" x="247" y="-304" font-family="Helvetica,sans-Serif" font-size="10.00">enfield/Arch/ArchGraph.h</text>
</a>
</g>
</g>
<!-- Node3&#45;&gt;Node4 -->
<g id="edge4" class="edge"><title>Node3&#45;&gt;Node4</title>
<path fill="none" stroke="midnightblue" d="M369.15,-358.396C341.657,-346.941 303.252,-330.938 276.885,-319.952"/>
<polygon fill="midnightblue" stroke="midnightblue" points="277.994,-316.622 267.417,-316.007 275.301,-323.084 277.994,-316.622"/>
</g>
<!-- Node16 -->
<g id="node17" class="node"><title>Node16</title>
<g id="a_node17"><a xlink:href="../../d9/dcf/DependencyBuilderPass_8h.xhtml" target="_top" xlink:title="enfield/Transform/Dependency\lBuilderPass.h">
<polygon fill="none" stroke="black" points="328,-291.5 328,-321.5 478,-321.5 478,-291.5 328,-291.5"/>
<text text-anchor="start" x="336" y="-309.5" font-family="Helvetica,sans-Serif" font-size="10.00">enfield/Transform/Dependency</text>
<text text-anchor="middle" x="403" y="-298.5" font-family="Helvetica,sans-Serif" font-size="10.00">BuilderPass.h</text>
</a>
</g>
</g>
<!-- Node3&#45;&gt;Node16 -->
<g id="edge18" class="edge"><title>Node3&#45;&gt;Node16</title>
<path fill="none" stroke="midnightblue" d="M403,-358.396C403,-350.645 403,-340.812 403,-331.86"/>
<polygon fill="midnightblue" stroke="midnightblue" points="406.5,-331.576 403,-321.577 399.5,-331.577 406.5,-331.576"/>
</g>
<!-- Node21 -->
<g id="node22" class="node"><title>Node21</title>
<g id="a_node22"><a xlink:href="../../d9/d41/CommandLine_8h.xhtml" target="_top" xlink:title="enfield/Support/CommandLine.h">
<polygon fill="none" stroke="black" points="731,-297 731,-316 887,-316 887,-297 731,-297"/>
<text text-anchor="middle" x="809" y="-304" font-family="Helvetica,sans-Serif" font-size="10.00">enfield/Support/CommandLine.h</text>
</a>
</g>
</g>
<!-- Node3&#45;&gt;Node21 -->
<g id="edge38" class="edge"><title>Node3&#45;&gt;Node21</title>
<path fill="none" stroke="midnightblue" d="M472.794,-361.326C549.448,-349.054 671.471,-329.518 745.519,-317.663"/>
<polygon fill="midnightblue" stroke="midnightblue" points="746.318,-321.08 755.639,-316.043 745.211,-314.168 746.318,-321.08"/>
</g>
<!-- Node31 -->
<g id="node32" class="node"><title>Node31</title>
<g id="a_node32"><a xlink:href="../../dc/d09/Stats_8h.xhtml" target="_top" xlink:title="enfield/Support/Stats.h">
<polygon fill="none" stroke="black" points="0,-112.5 0,-131.5 116,-131.5 116,-112.5 0,-112.5"/>
<text text-anchor="middle" x="58" y="-119.5" font-family="Helvetica,sans-Serif" font-size="10.00">enfield/Support/Stats.h</text>
</a>
</g>
</g>
<!-- Node3&#45;&gt;Node31 -->
<g id="edge54" class="edge"><title>Node3&#45;&gt;Node31</title>
<path fill="none" stroke="midnightblue" d="M333.327,-371.99C252.132,-367.069 122.182,-344.68 68,-255 46.5779,-219.543 50.3649,-168.577 54.4816,-141.519"/>
<polygon fill="midnightblue" stroke="midnightblue" points="57.9589,-141.949 56.1936,-131.502 51.0589,-140.769 57.9589,-141.949"/>
</g>
<!-- Node5 -->
<g id="node6" class="node"><title>Node5</title>
<g id="a_node6"><a xlink:href="../../d7/d16/Graph_8h.xhtml" target="_top" xlink:title="enfield/Support/Graph.h">
<polygon fill="none" stroke="black" points="559.5,-230 559.5,-249 678.5,-249 678.5,-230 559.5,-230"/>
<text text-anchor="middle" x="619" y="-237" font-family="Helvetica,sans-Serif" font-size="10.00">enfield/Support/Graph.h</text>
</a>
</g>
</g>
<!-- Node4&#45;&gt;Node5 -->
<g id="edge5" class="edge"><title>Node4&#45;&gt;Node5</title>
<path fill="none" stroke="midnightblue" d="M288.077,-296.992C298.176,-294.965 308.969,-292.854 319,-291 400.254,-275.983 494.239,-260.46 555.047,-250.658"/>
<polygon fill="midnightblue" stroke="midnightblue" points="555.941,-254.059 565.258,-249.015 554.829,-247.148 555.941,-254.059"/>
</g>
<!-- Node10 -->
<g id="node11" class="node"><title>Node10</title>
<g id="a_node11"><a xlink:href="../../d4/daf/Nodes_8h.xhtml" target="_top" xlink:title="enfield/Analysis/Nodes.h">
<polygon fill="none" stroke="black" points="169.5,-112.5 169.5,-131.5 294.5,-131.5 294.5,-112.5 169.5,-112.5"/>
<text text-anchor="middle" x="232" y="-119.5" font-family="Helvetica,sans-Serif" font-size="10.00">enfield/Analysis/Nodes.h</text>
</a>
</g>
</g>
<!-- Node4&#45;&gt;Node10 -->
<g id="edge10" class="edge"><title>Node4&#45;&gt;Node10</title>
<path fill="none" stroke="midnightblue" d="M183.936,-302.863C149.355,-297.795 109.128,-285.189 87,-255 64.1407,-223.814 64.0657,-199.131 87,-168 103.848,-145.131 132.206,-133.542 159.398,-127.788"/>
<polygon fill="midnightblue" stroke="midnightblue" points="160.158,-131.206 169.34,-125.922 158.866,-124.326 160.158,-131.206"/>
</g>
<!-- Node6 -->
<g id="node7" class="node"><title>Node6</title>
<polygon fill="none" stroke="#bfbfbf" points="573,-168.5 573,-187.5 603,-187.5 603,-168.5 573,-168.5"/>
<text text-anchor="middle" x="588" y="-175.5" font-family="Helvetica,sans-Serif" font-size="10.00">set</text>
</g>
<!-- Node5&#45;&gt;Node6 -->
<g id="edge6" class="edge"><title>Node5&#45;&gt;Node6</title>
<path fill="none" stroke="midnightblue" d="M614.558,-229.975C610.047,-221.315 602.926,-207.649 597.193,-196.645"/>
<polygon fill="midnightblue" stroke="midnightblue" points="600.158,-194.76 592.433,-187.509 593.95,-197.995 600.158,-194.76"/>
</g>
<!-- Node7 -->
<g id="node8" class="node"><title>Node7</title>
<polygon fill="none" stroke="#bfbfbf" points="761,-56.5 761,-75.5 805,-75.5 805,-56.5 761,-56.5"/>
<text text-anchor="middle" x="783" y="-63.5" font-family="Helvetica,sans-Serif" font-size="10.00">vector</text>
</g>
<!-- Node5&#45;&gt;Node7 -->
<g id="edge7" class="edge"><title>Node5&#45;&gt;Node7</title>
<path fill="none" stroke="midnightblue" d="M678.799,-235.668C789.515,-229.809 1017.37,-214.628 1041,-188 1054.47,-172.819 1052.06,-133.763 1030,-112 1000.07,-82.4754 874.98,-71.8943 815.15,-68.4724"/>
<polygon fill="midnightblue" stroke="midnightblue" points="815.288,-64.9749 805.114,-67.9309 814.911,-71.9647 815.288,-64.9749"/>
</g>
<!-- Node8 -->
<g id="node9" class="node"><title>Node8</title>
<polygon fill="none" stroke="#bfbfbf" points="500.5,-112.5 500.5,-131.5 583.5,-131.5 583.5,-112.5 500.5,-112.5"/>
<text text-anchor="middle" x="542" y="-119.5" font-family="Helvetica,sans-Serif" font-size="10.00">unordered_map</text>
</g>
<!-- Node5&#45;&gt;Node8 -->
<g id="edge8" class="edge"><title>Node5&#45;&gt;Node8</title>
<path fill="none" stroke="midnightblue" d="M620.395,-229.946C622.226,-215.888 623.942,-187.513 612,-168 603.36,-153.883 588.434,-143.389 574.579,-136.103"/>
<polygon fill="midnightblue" stroke="midnightblue" points="575.772,-132.791 565.249,-131.565 572.711,-139.086 575.772,-132.791"/>
</g>
<!-- Node9 -->
<g id="node10" class="node"><title>Node9</title>
<polygon fill="none" stroke="#bfbfbf" points="491,-56.5 491,-75.5 543,-75.5 543,-56.5 491,-56.5"/>
<text text-anchor="middle" x="517" y="-63.5" font-family="Helvetica,sans-Serif" font-size="10.00">memory</text>
</g>
<!-- Node5&#45;&gt;Node9 -->
<g id="edge9" class="edge"><title>Node5&#45;&gt;Node9</title>
<path fill="none" stroke="midnightblue" d="M622.886,-229.636C628.268,-216.092 636.622,-189.551 630,-168 621.166,-139.248 613.853,-132.667 592,-112 578.334,-99.0761 560.334,-88.1236 545.394,-80.2604"/>
<polygon fill="midnightblue" stroke="midnightblue" points="546.596,-76.9461 536.094,-75.5496 543.433,-83.1907 546.596,-76.9461"/>
</g>
<!-- Node10&#45;&gt;Node7 -->
<g id="edge16" class="edge"><title>Node10&#45;&gt;Node7</title>
<path fill="none" stroke="midnightblue" d="M294.507,-113.174C298.056,-112.767 301.572,-112.373 305,-112 472.386,-93.8064 673.227,-76.3068 750.51,-69.7336"/>
<polygon fill="midnightblue" stroke="midnightblue" points="750.91,-73.2123 760.578,-68.8797 750.318,-66.2374 750.91,-73.2123"/>
</g>
<!-- Node10&#45;&gt;Node9 -->
<g id="edge17" class="edge"><title>Node10&#45;&gt;Node9</title>
<path fill="none" stroke="midnightblue" d="M285.87,-112.481C334.472,-104.528 408.122,-91.8209 480.883,-76.1227"/>
<polygon fill="midnightblue" stroke="midnightblue" points="481.65,-79.5379 490.676,-73.9903 480.161,-72.6981 481.65,-79.5379"/>
</g>
<!-- Node11 -->
<g id="node12" class="node"><title>Node11</title>
<g id="a_node12"><a xlink:href="../../d1/d2e/WrapperVal_8h.xhtml" target="_top" xlink:title="enfield/Support/WrapperVal.h">
<polygon fill="none" stroke="black" points="329,-56.5 329,-75.5 473,-75.5 473,-56.5 329,-56.5"/>
<text text-anchor="middle" x="401" y="-63.5" font-family="Helvetica,sans-Serif" font-size="10.00">enfield/Support/WrapperVal.h</text>
</a>
</g>
</g>
<!-- Node10&#45;&gt;Node11 -->
<g id="edge11" class="edge"><title>Node10&#45;&gt;Node11</title>
<path fill="none" stroke="midnightblue" d="M258.779,-112.444C287.333,-103.32 332.733,-88.8133 364.537,-78.6509"/>
<polygon fill="midnightblue" stroke="midnightblue" points="365.886,-81.8941 374.347,-75.5164 363.756,-75.2262 365.886,-81.8941"/>
</g>
<!-- Node13 -->
<g id="node14" class="node"><title>Node13</title>
<g id="a_node14"><a xlink:href="../../d5/dfc/RTTI_8h.xhtml" target="_top" xlink:title="enfield/Support/RTTI.h">
<polygon fill="none" stroke="black" points="103,-56.5 103,-75.5 219,-75.5 219,-56.5 103,-56.5"/>
<text text-anchor="middle" x="161" y="-63.5" font-family="Helvetica,sans-Serif" font-size="10.00">enfield/Support/RTTI.h</text>
</a>
</g>
</g>
<!-- Node10&#45;&gt;Node13 -->
<g id="edge13" class="edge"><title>Node10&#45;&gt;Node13</title>
<path fill="none" stroke="midnightblue" d="M220.593,-112.324C209.891,-104.185 193.659,-91.8395 180.837,-82.0874"/>
<polygon fill="midnightblue" stroke="midnightblue" points="182.693,-79.1018 172.615,-75.8339 178.456,-84.6734 182.693,-79.1018"/>
</g>
<!-- Node14 -->
<g id="node15" class="node"><title>Node14</title>
<polygon fill="none" stroke="#bfbfbf" points="237.5,-56.5 237.5,-75.5 310.5,-75.5 310.5,-56.5 237.5,-56.5"/>
<text text-anchor="middle" x="274" y="-63.5" font-family="Helvetica,sans-Serif" font-size="10.00">initializer_list</text>
</g>
<!-- Node10&#45;&gt;Node14 -->
<g id="edge14" class="edge"><title>Node10&#45;&gt;Node14</title>
<path fill="none" stroke="midnightblue" d="M238.935,-112.083C244.929,-104.377 253.752,-93.0333 261.048,-83.6531"/>
<polygon fill="midnightblue" stroke="midnightblue" points="263.817,-85.7934 267.194,-75.7511 258.291,-81.4958 263.817,-85.7934"/>
</g>
<!-- Node15 -->
<g id="node16" class="node"><title>Node15</title>
<polygon fill="none" stroke="#bfbfbf" points="31,-56.5 31,-75.5 85,-75.5 85,-56.5 31,-56.5"/>
<text text-anchor="middle" x="58" y="-63.5" font-family="Helvetica,sans-Serif" font-size="10.00">iostream</text>
</g>
<!-- Node10&#45;&gt;Node15 -->
<g id="edge15" class="edge"><title>Node10&#45;&gt;Node15</title>
<path fill="none" stroke="midnightblue" d="M204.429,-112.444C174.816,-103.253 127.605,-88.6017 94.8286,-78.4296"/>
<polygon fill="midnightblue" stroke="midnightblue" points="95.7435,-75.0489 85.1554,-75.4275 93.6686,-81.7343 95.7435,-75.0489"/>
</g>
<!-- Node12 -->
<g id="node13" class="node"><title>Node12</title>
<polygon fill="none" stroke="#bfbfbf" points="734.5,-0.5 734.5,-19.5 775.5,-19.5 775.5,-0.5 734.5,-0.5"/>
<text text-anchor="middle" x="755" y="-7.5" font-family="Helvetica,sans-Serif" font-size="10.00">string</text>
</g>
<!-- Node11&#45;&gt;Node12 -->
<g id="edge12" class="edge"><title>Node11&#45;&gt;Node12</title>
<path fill="none" stroke="midnightblue" d="M457.092,-56.4435C532.682,-44.913 664.624,-24.7861 724.225,-15.6946"/>
<polygon fill="midnightblue" stroke="midnightblue" points="724.792,-19.1486 734.15,-14.1805 723.736,-12.2286 724.792,-19.1486"/>
</g>
<!-- Node16&#45;&gt;Node6 -->
<g id="edge37" class="edge"><title>Node16&#45;&gt;Node6</title>
<path fill="none" stroke="midnightblue" d="M438.643,-291.384C459.43,-282.388 485.671,-269.68 507,-255 532.43,-237.497 557.732,-212.164 573.12,-195.638"/>
<polygon fill="midnightblue" stroke="midnightblue" points="576.044,-197.628 580.212,-187.888 570.879,-192.903 576.044,-197.628"/>
</g>
<!-- Node16&#45;&gt;Node7 -->
<g id="edge36" class="edge"><title>Node16&#45;&gt;Node7</title>
<path fill="none" stroke="midnightblue" d="M478.256,-299.676C550.948,-292.735 654.651,-278.951 687,-255 744.904,-212.128 770.489,-124.232 779.245,-85.7468"/>
<polygon fill="midnightblue" stroke="midnightblue" points="782.685,-86.397 781.361,-75.8852 775.841,-84.9284 782.685,-86.397"/>
</g>
<!-- Node16&#45;&gt;Node8 -->
<g id="edge34" class="edge"><title>Node16&#45;&gt;Node8</title>
<path fill="none" stroke="midnightblue" d="M428.648,-291.433C443.291,-282.453 461.22,-269.745 474,-255 504.569,-219.73 525.912,-168.323 535.788,-141.247"/>
<polygon fill="midnightblue" stroke="midnightblue" points="539.184,-142.142 539.212,-131.547 532.583,-139.812 539.184,-142.142"/>
</g>
<!-- Node16&#45;&gt;Node10 -->
<g id="edge19" class="edge"><title>Node16&#45;&gt;Node10</title>
<path fill="none" stroke="midnightblue" d="M327.862,-291.593C268.766,-280.104 194.526,-264.234 183,-255 150.846,-229.241 130.107,-203.508 151,-168 159.918,-152.844 175.989,-142.426 191.478,-135.464"/>
<polygon fill="midnightblue" stroke="midnightblue" points="193.056,-138.6 200.977,-131.564 190.397,-132.124 193.056,-138.6"/>
</g>
<!-- Node17 -->
<g id="node18" class="node"><title>Node17</title>
<g id="a_node18"><a xlink:href="../../df/d29/Pass_8h.xhtml" target="_top" xlink:title="enfield/Transform/Pass.h">
<polygon fill="none" stroke="black" points="314,-112.5 314,-131.5 440,-131.5 440,-112.5 314,-112.5"/>
<text text-anchor="middle" x="377" y="-119.5" font-family="Helvetica,sans-Serif" font-size="10.00">enfield/Transform/Pass.h</text>
</a>
</g>
</g>
<!-- Node16&#45;&gt;Node17 -->
<g id="edge20" class="edge"><title>Node16&#45;&gt;Node17</title>
<path fill="none" stroke="midnightblue" d="M327.924,-293.235C269.198,-279.108 191.991,-249.388 158,-188 153.694,-180.224 152.383,-174.889 158,-168 167.512,-156.335 245.9,-142.285 306.205,-133.023"/>
<polygon fill="midnightblue" stroke="midnightblue" points="306.732,-136.483 316.094,-131.521 305.681,-129.562 306.732,-136.483"/>
</g>
<!-- Node18 -->
<g id="node19" class="node"><title>Node18</title>
<g id="a_node19"><a xlink:href="../../d4/d73/QModule_8h.xhtml" target="_top" xlink:title="enfield/Transform/QModule.h">
<polygon fill="none" stroke="black" points="259.5,-168.5 259.5,-187.5 402.5,-187.5 402.5,-168.5 259.5,-168.5"/>
<text text-anchor="middle" x="331" y="-175.5" font-family="Helvetica,sans-Serif" font-size="10.00">enfield/Transform/QModule.h</text>
</a>
</g>
</g>
<!-- Node16&#45;&gt;Node18 -->
<g id="edge22" class="edge"><title>Node16&#45;&gt;Node18</title>
<path fill="none" stroke="midnightblue" d="M371.312,-291.497C356.555,-283.177 340.428,-271.076 332,-255 322.641,-237.148 324.095,-213.542 326.79,-197.404"/>
<polygon fill="midnightblue" stroke="midnightblue" points="330.224,-198.077 328.736,-187.587 323.358,-196.716 330.224,-198.077"/>
</g>
<!-- Node19 -->
<g id="node20" class="node"><title>Node19</title>
<g id="a_node20"><a xlink:href="../../d6/d94/XbitToNumberPass_8h.xhtml" target="_top" xlink:title="enfield/Transform/XbitTo\lNumberPass.h">
<polygon fill="none" stroke="black" points="341,-224.5 341,-254.5 465,-254.5 465,-224.5 341,-224.5"/>
<text text-anchor="start" x="349" y="-242.5" font-family="Helvetica,sans-Serif" font-size="10.00">enfield/Transform/XbitTo</text>
<text text-anchor="middle" x="403" y="-231.5" font-family="Helvetica,sans-Serif" font-size="10.00">NumberPass.h</text>
</a>
</g>
</g>
<!-- Node16&#45;&gt;Node19 -->
<g id="edge26" class="edge"><title>Node16&#45;&gt;Node19</title>
<path fill="none" stroke="midnightblue" d="M403,-291.396C403,-283.645 403,-273.812 403,-264.86"/>
<polygon fill="midnightblue" stroke="midnightblue" points="406.5,-264.576 403,-254.577 399.5,-264.577 406.5,-264.576"/>
</g>
<!-- Node20 -->
<g id="node21" class="node"><title>Node20</title>
<polygon fill="none" stroke="#bfbfbf" points="167.5,-168.5 167.5,-187.5 202.5,-187.5 202.5,-168.5 167.5,-168.5"/>
<text text-anchor="middle" x="185" y="-175.5" font-family="Helvetica,sans-Serif" font-size="10.00">map</text>
</g>
<!-- Node16&#45;&gt;Node20 -->
<g id="edge35" class="edge"><title>Node16&#45;&gt;Node20</title>
<path fill="none" stroke="midnightblue" d="M378.837,-291.479C336.685,-267.019 250.232,-216.853 208.529,-192.653"/>
<polygon fill="midnightblue" stroke="midnightblue" points="210.279,-189.622 199.873,-187.63 206.765,-195.677 210.279,-189.622"/>
</g>
<!-- Node17&#45;&gt;Node9 -->
<g id="edge21" class="edge"><title>Node17&#45;&gt;Node9</title>
<path fill="none" stroke="midnightblue" d="M399.183,-112.444C422.428,-103.478 459.149,-89.314 485.415,-79.1827"/>
<polygon fill="midnightblue" stroke="midnightblue" points="486.85,-82.3807 494.92,-75.5164 484.331,-75.8497 486.85,-82.3807"/>
</g>
<!-- Node18&#45;&gt;Node8 -->
<g id="edge25" class="edge"><title>Node18&#45;&gt;Node8</title>
<path fill="none" stroke="midnightblue" d="M364.434,-168.444C400.856,-159.122 459.23,-144.183 499.029,-133.997"/>
<polygon fill="midnightblue" stroke="midnightblue" points="499.903,-137.387 508.723,-131.516 498.167,-130.605 499.903,-137.387"/>
</g>
<!-- Node18&#45;&gt;Node10 -->
<g id="edge23" class="edge"><title>Node18&#45;&gt;Node10</title>
<path fill="none" stroke="midnightblue" d="M315.094,-168.324C299.362,-159.743 275.058,-146.486 256.791,-136.522"/>
<polygon fill="midnightblue" stroke="midnightblue" points="258.322,-133.37 247.867,-131.655 254.97,-139.516 258.322,-133.37"/>
</g>
<!-- Node18&#45;&gt;Node17 -->
<g id="edge24" class="edge"><title>Node18&#45;&gt;Node17</title>
<path fill="none" stroke="midnightblue" d="M338.596,-168.083C345.227,-160.298 355.021,-148.801 363.058,-139.367"/>
<polygon fill="midnightblue" stroke="midnightblue" points="365.725,-141.633 369.545,-131.751 360.396,-137.094 365.725,-141.633"/>
</g>
<!-- Node19&#45;&gt;Node6 -->
<g id="edge32" class="edge"><title>Node19&#45;&gt;Node6</title>
<path fill="none" stroke="midnightblue" d="M446.842,-224.399C483.163,-212.718 533.475,-196.536 563.192,-186.979"/>
<polygon fill="midnightblue" stroke="midnightblue" points="564.339,-190.287 572.787,-183.893 562.196,-183.623 564.339,-190.287"/>
</g>
<!-- Node19&#45;&gt;Node7 -->
<g id="edge31" class="edge"><title>Node19&#45;&gt;Node7</title>
<path fill="none" stroke="midnightblue" d="M411.044,-224.122C428.177,-194.027 468.531,-126.023 491,-112 533.868,-85.2462 683.72,-73.0182 750.481,-68.8044"/>
<polygon fill="midnightblue" stroke="midnightblue" points="751.057,-72.2759 760.826,-68.1741 750.631,-65.2889 751.057,-72.2759"/>
</g>
<!-- Node19&#45;&gt;Node8 -->
<g id="edge30" class="edge"><title>Node19&#45;&gt;Node8</title>
<path fill="none" stroke="midnightblue" d="M429.071,-224.456C445.33,-215.128 466.27,-202.046 483,-188 500.426,-173.37 517.593,-153.697 528.877,-139.839"/>
<polygon fill="midnightblue" stroke="midnightblue" points="531.883,-141.682 535.385,-131.683 526.412,-137.316 531.883,-141.682"/>
</g>
<!-- Node19&#45;&gt;Node10 -->
<g id="edge29" class="edge"><title>Node19&#45;&gt;Node10</title>
<path fill="none" stroke="midnightblue" d="M340.853,-231.866C309.682,-225.441 273.633,-212.812 250,-188 238.275,-175.69 234.06,-156.436 232.607,-142.074"/>
<polygon fill="midnightblue" stroke="midnightblue" points="236.083,-141.584 231.944,-131.83 229.098,-142.036 236.083,-141.584"/>
</g>
<!-- Node19&#45;&gt;Node17 -->
<g id="edge27" class="edge"><title>Node19&#45;&gt;Node17</title>
<path fill="none" stroke="midnightblue" d="M408.092,-224.348C412.515,-209.84 417.305,-186.803 411,-168 407.396,-157.251 400.097,-147.02 393.183,-139.038"/>
<polygon fill="midnightblue" stroke="midnightblue" points="395.655,-136.556 386.288,-131.605 390.523,-141.317 395.655,-136.556"/>
</g>
<!-- Node19&#45;&gt;Node18 -->
<g id="edge28" class="edge"><title>Node19&#45;&gt;Node18</title>
<path fill="none" stroke="midnightblue" d="M385.937,-224.399C374.935,-215.308 360.635,-203.49 349.382,-194.191"/>
<polygon fill="midnightblue" stroke="midnightblue" points="351.415,-191.33 341.477,-187.658 346.956,-196.726 351.415,-191.33"/>
</g>
<!-- Node19&#45;&gt;Node20 -->
<g id="edge33" class="edge"><title>Node19&#45;&gt;Node20</title>
<path fill="none" stroke="midnightblue" d="M350.852,-224.477C313.547,-214.412 262.152,-200.479 217,-188 215.54,-187.596 214.043,-187.181 212.531,-186.76"/>
<polygon fill="midnightblue" stroke="midnightblue" points="213.171,-183.305 202.597,-183.98 211.284,-190.046 213.171,-183.305"/>
</g>
<!-- Node21&#45;&gt;Node7 -->
<g id="edge51" class="edge"><title>Node21&#45;&gt;Node7</title>
<path fill="none" stroke="midnightblue" d="M808.044,-296.729C804.261,-262.029 790.292,-133.892 785.026,-85.5882"/>
<polygon fill="midnightblue" stroke="midnightblue" points="788.501,-85.1612 783.937,-75.5994 781.542,-85.9199 788.501,-85.1612"/>
</g>
<!-- Node21&#45;&gt;Node9 -->
<g id="edge53" class="edge"><title>Node21&#45;&gt;Node9</title>
<path fill="none" stroke="midnightblue" d="M802.183,-296.675C778.975,-267.112 699.809,-170.16 616,-112 596.229,-98.2799 571.603,-87.0664 551.858,-79.2648"/>
<polygon fill="midnightblue" stroke="midnightblue" points="552.906,-75.918 542.315,-75.6071 550.4,-82.4544 552.906,-75.918"/>
</g>
<!-- Node21&#45;&gt;Node12 -->
<g id="edge50" class="edge"><title>Node21&#45;&gt;Node12</title>
<path fill="none" stroke="midnightblue" d="M887.038,-304.844C975.927,-299.487 1109,-275.374 1109,-179 1109,-179 1109,-179 1109,-121 1109,-53.5737 871.836,-22.8302 785.749,-13.8918"/>
<polygon fill="midnightblue" stroke="midnightblue" points="785.864,-10.3857 775.563,-12.8635 785.16,-17.3503 785.864,-10.3857"/>
</g>
<!-- Node22 -->
<g id="node23" class="node"><title>Node22</title>
<g id="a_node23"><a xlink:href="../../d1/d5e/PossibleValuesListTrait_8h.xhtml" target="_top" xlink:title="enfield/Support/Possible\lValuesListTrait.h">
<polygon fill="none" stroke="black" points="876,-224.5 876,-254.5 998,-254.5 998,-224.5 876,-224.5"/>
<text text-anchor="start" x="884" y="-242.5" font-family="Helvetica,sans-Serif" font-size="10.00">enfield/Support/Possible</text>
<text text-anchor="middle" x="937" y="-231.5" font-family="Helvetica,sans-Serif" font-size="10.00">ValuesListTrait.h</text>
</a>
</g>
</g>
<!-- Node21&#45;&gt;Node22 -->
<g id="edge39" class="edge"><title>Node21&#45;&gt;Node22</title>
<path fill="none" stroke="midnightblue" d="M825.997,-296.869C844.811,-287.315 875.703,-271.627 900.127,-259.225"/>
<polygon fill="midnightblue" stroke="midnightblue" points="901.801,-262.3 909.132,-254.652 898.631,-256.059 901.801,-262.3"/>
</g>
<!-- Node30 -->
<g id="node31" class="node"><title>Node30</title>
<polygon fill="none" stroke="#bfbfbf" points="811.5,-112.5 811.5,-131.5 860.5,-131.5 860.5,-112.5 811.5,-112.5"/>
<text text-anchor="middle" x="836" y="-119.5" font-family="Helvetica,sans-Serif" font-size="10.00">cassert</text>
</g>
<!-- Node21&#45;&gt;Node30 -->
<g id="edge52" class="edge"><title>Node21&#45;&gt;Node30</title>
<path fill="none" stroke="midnightblue" d="M810.302,-296.698C814.463,-268.573 827.499,-180.458 833.24,-141.657"/>
<polygon fill="midnightblue" stroke="midnightblue" points="836.71,-142.119 834.711,-131.714 829.785,-141.094 836.71,-142.119"/>
</g>
<!-- Node23 -->
<g id="node24" class="node"><title>Node23</title>
<g id="a_node24"><a xlink:href="../../dd/d62/EnumString_8h.xhtml" target="_top" xlink:title="enfield/Support/EnumString.h">
<polygon fill="none" stroke="black" points="888,-168.5 888,-187.5 1032,-187.5 1032,-168.5 888,-168.5"/>
<text text-anchor="middle" x="960" y="-175.5" font-family="Helvetica,sans-Serif" font-size="10.00">enfield/Support/EnumString.h</text>
</a>
</g>
</g>
<!-- Node22&#45;&gt;Node23 -->
<g id="edge40" class="edge"><title>Node22&#45;&gt;Node23</title>
<path fill="none" stroke="midnightblue" d="M942.451,-224.399C945.621,-216.199 949.648,-205.781 953.044,-196.994"/>
<polygon fill="midnightblue" stroke="midnightblue" points="956.312,-198.247 956.653,-187.658 949.783,-195.723 956.312,-198.247"/>
</g>
<!-- Node23&#45;&gt;Node7 -->
<g id="edge46" class="edge"><title>Node23&#45;&gt;Node7</title>
<path fill="none" stroke="midnightblue" d="M975.996,-168.357C997.053,-155.883 1029.57,-132.121 1013,-112 988.34,-82.0478 872.78,-71.7486 815.439,-68.4434"/>
<polygon fill="midnightblue" stroke="midnightblue" points="815.291,-64.9304 805.118,-67.8881 814.915,-71.9203 815.291,-64.9304"/>
</g>
<!-- Node24 -->
<g id="node25" class="node"><title>Node24</title>
<g id="a_node25"><a xlink:href="../../d1/d73/Defs_8h.xhtml" target="_top" xlink:title="enfield/Support/Defs.h">
<polygon fill="none" stroke="black" points="1137,-112.5 1137,-131.5 1251,-131.5 1251,-112.5 1137,-112.5"/>
<text text-anchor="middle" x="1194" y="-119.5" font-family="Helvetica,sans-Serif" font-size="10.00">enfield/Support/Defs.h</text>
</a>
</g>
</g>
<!-- Node23&#45;&gt;Node24 -->
<g id="edge41" class="edge"><title>Node23&#45;&gt;Node24</title>
<path fill="none" stroke="midnightblue" d="M997.078,-168.444C1037.73,-159.063 1103.03,-143.993 1147.18,-133.804"/>
<polygon fill="midnightblue" stroke="midnightblue" points="1148.14,-137.175 1157.1,-131.516 1146.56,-130.355 1148.14,-137.175"/>
</g>
<!-- Node28 -->
<g id="node29" class="node"><title>Node28</title>
<polygon fill="none" stroke="#bfbfbf" points="879,-112.5 879,-131.5 935,-131.5 935,-112.5 879,-112.5"/>
<text text-anchor="middle" x="907" y="-119.5" font-family="Helvetica,sans-Serif" font-size="10.00">algorithm</text>
</g>
<!-- Node23&#45;&gt;Node28 -->
<g id="edge47" class="edge"><title>Node23&#45;&gt;Node28</title>
<path fill="none" stroke="midnightblue" d="M951.248,-168.083C943.53,-160.22 932.095,-148.569 922.783,-139.081"/>
<polygon fill="midnightblue" stroke="midnightblue" points="925.092,-136.436 915.589,-131.751 920.096,-141.34 925.092,-136.436"/>
</g>
<!-- Node29 -->
<g id="node30" class="node"><title>Node29</title>
<polygon fill="none" stroke="#bfbfbf" points="953.5,-112.5 953.5,-131.5 1004.5,-131.5 1004.5,-112.5 953.5,-112.5"/>
<text text-anchor="middle" x="979" y="-119.5" font-family="Helvetica,sans-Serif" font-size="10.00">typeinfo</text>
</g>
<!-- Node23&#45;&gt;Node29 -->
<g id="edge48" class="edge"><title>Node23&#45;&gt;Node29</title>
<path fill="none" stroke="midnightblue" d="M963.137,-168.083C965.683,-160.849 969.356,-150.409 972.527,-141.397"/>
<polygon fill="midnightblue" stroke="midnightblue" points="975.903,-142.346 975.921,-131.751 969.3,-140.023 975.903,-142.346"/>
</g>
<!-- Node23&#45;&gt;Node30 -->
<g id="edge49" class="edge"><title>Node23&#45;&gt;Node30</title>
<path fill="none" stroke="midnightblue" d="M940.352,-168.444C920.035,-159.596 888.097,-145.687 864.902,-135.586"/>
<polygon fill="midnightblue" stroke="midnightblue" points="866.122,-132.3 855.556,-131.516 863.327,-138.718 866.122,-132.3"/>
</g>
<!-- Node24&#45;&gt;Node7 -->
<g id="edge42" class="edge"><title>Node24&#45;&gt;Node7</title>
<path fill="none" stroke="midnightblue" d="M1136.85,-113.492C1049.34,-101.993 884.957,-80.3958 815.402,-71.2572"/>
<polygon fill="midnightblue" stroke="midnightblue" points="815.45,-67.7335 805.079,-69.9009 814.538,-74.6738 815.45,-67.7335"/>
</g>
<!-- Node25 -->
<g id="node26" class="node"><title>Node25</title>
<polygon fill="none" stroke="#bfbfbf" points="1265,-56.5 1265,-75.5 1311,-75.5 1311,-56.5 1265,-56.5"/>
<text text-anchor="middle" x="1288" y="-63.5" font-family="Helvetica,sans-Serif" font-size="10.00">cstdint</text>
</g>
<!-- Node24&#45;&gt;Node25 -->
<g id="edge43" class="edge"><title>Node24&#45;&gt;Node25</title>
<path fill="none" stroke="midnightblue" d="M1209.1,-112.324C1223.9,-103.822 1246.69,-90.7288 1263.98,-80.7975"/>
<polygon fill="midnightblue" stroke="midnightblue" points="1266.01,-83.6707 1272.93,-75.6545 1262.52,-77.6009 1266.01,-83.6707"/>
</g>
<!-- Node26 -->
<g id="node27" class="node"><title>Node26</title>
<polygon fill="none" stroke="#bfbfbf" points="1137,-56.5 1137,-75.5 1177,-75.5 1177,-56.5 1137,-56.5"/>
<text text-anchor="middle" x="1157" y="-63.5" font-family="Helvetica,sans-Serif" font-size="10.00">limits</text>
</g>
<!-- Node24&#45;&gt;Node26 -->
<g id="edge44" class="edge"><title>Node24&#45;&gt;Node26</title>
<path fill="none" stroke="midnightblue" d="M1187.89,-112.083C1182.72,-104.534 1175.15,-93.4948 1168.81,-84.2298"/>
<polygon fill="midnightblue" stroke="midnightblue" points="1171.54,-82.0221 1163,-75.7511 1165.76,-85.9787 1171.54,-82.0221"/>
</g>
<!-- Node27 -->
<g id="node28" class="node"><title>Node27</title>
<polygon fill="none" stroke="#bfbfbf" points="1195,-56.5 1195,-75.5 1247,-75.5 1247,-56.5 1195,-56.5"/>
<text text-anchor="middle" x="1221" y="-63.5" font-family="Helvetica,sans-Serif" font-size="10.00">ostream</text>
</g>
<!-- Node24&#45;&gt;Node27 -->
<g id="edge45" class="edge"><title>Node24&#45;&gt;Node27</title>
<path fill="none" stroke="midnightblue" d="M1198.46,-112.083C1202.15,-104.691 1207.52,-93.9533 1212.09,-84.8111"/>
<polygon fill="midnightblue" stroke="midnightblue" points="1215.28,-86.2606 1216.62,-75.7511 1209.02,-83.1301 1215.28,-86.2606"/>
</g>
<!-- Node31&#45;&gt;Node9 -->
<g id="edge56" class="edge"><title>Node31&#45;&gt;Node9</title>
<path fill="none" stroke="midnightblue" d="M116.174,-115.886C211.414,-107.344 397.565,-89.8901 480.848,-75.9253"/>
<polygon fill="midnightblue" stroke="midnightblue" points="481.471,-79.3694 490.718,-74.197 480.264,-72.4743 481.471,-79.3694"/>
</g>
<!-- Node31&#45;&gt;Node15 -->
<g id="edge55" class="edge"><title>Node31&#45;&gt;Node15</title>
<path fill="none" stroke="midnightblue" d="M58,-112.083C58,-105.006 58,-94.8611 58,-85.9865"/>
<polygon fill="midnightblue" stroke="midnightblue" points="61.5001,-85.751 58,-75.7511 54.5001,-85.7511 61.5001,-85.751"/>
</g>
<!-- Node32&#45;&gt;Node24 -->
<g id="edge58" class="edge"><title>Node32&#45;&gt;Node24</title>
<path fill="none" stroke="midnightblue" d="M1033.28,-363.849C1051.03,-345.035 1093.55,-298.577 1123,-255 1149.12,-216.345 1173.48,-167.086 1185.73,-141.038"/>
<polygon fill="midnightblue" stroke="midnightblue" points="1189.04,-142.226 1190.08,-131.682 1182.69,-139.276 1189.04,-142.226"/>
</g>
<!-- Node33 -->
<g id="node34" class="node"><title>Node33</title>
<polygon fill="none" stroke="#bfbfbf" points="1002,-297 1002,-316 1048,-316 1048,-297 1002,-297"/>
<text text-anchor="middle" x="1025" y="-304" font-family="Helvetica,sans-Serif" font-size="10.00">cstring</text>
</g>
<!-- Node32&#45;&gt;Node33 -->
<g id="edge59" class="edge"><title>Node32&#45;&gt;Node33</title>
<path fill="none" stroke="midnightblue" d="M1025,-363.734C1025,-354.183 1025,-338.618 1025,-326.283"/>
<polygon fill="midnightblue" stroke="midnightblue" points="1028.5,-326.127 1025,-316.127 1021.5,-326.127 1028.5,-326.127"/>
</g>
<!-- Node35 -->
<g id="node36" class="node"><title>Node35</title>
<g id="a_node36"><a xlink:href="../../de/de3/PathFinder_8h.xhtml" target="_top" xlink:title="enfield/Support/PathFinder.h">
<polygon fill="none" stroke="black" points="549,-431 549,-450 689,-450 689,-431 549,-431"/>
<text text-anchor="middle" x="619" y="-438" font-family="Helvetica,sans-Serif" font-size="10.00">enfield/Support/PathFinder.h</text>
</a>
</g>
</g>
<!-- Node34&#45;&gt;Node35 -->
<g id="edge61" class="edge"><title>Node34&#45;&gt;Node35</title>
<path fill="none" stroke="midnightblue" d="M619,-497.734C619,-488.183 619,-472.618 619,-460.283"/>
<polygon fill="midnightblue" stroke="midnightblue" points="622.5,-460.127 619,-450.127 615.5,-460.127 622.5,-460.127"/>
</g>
<!-- Node35&#45;&gt;Node5 -->
<g id="edge62" class="edge"><title>Node35&#45;&gt;Node5</title>
<path fill="none" stroke="midnightblue" d="M619,-430.949C619,-401.165 619,-301.51 619,-259.468"/>
<polygon fill="midnightblue" stroke="midnightblue" points="622.5,-259.243 619,-249.243 615.5,-259.243 622.5,-259.243"/>
</g>
</g>
</svg>
