<?xml version="1.0" encoding="UTF-8" standalone="no"?>
<!DOCTYPE svg PUBLIC "-//W3C//DTD SVG 1.1//EN"
 "http://www.w3.org/Graphics/SVG/1.1/DTD/svg11.dtd">
<!-- Generated by graphviz version 2.38.0 (20140413.2041)
 -->
<!-- Title: include/enfield/Support/ExpTSFinder.h Pages: 1 -->
<svg width="290pt" height="106pt"
 viewBox="0.00 0.00 289.50 106.00" xmlns="http://www.w3.org/2000/svg" xmlns:xlink="http://www.w3.org/1999/xlink">
<g id="graph0" class="graph" transform="scale(1 1) rotate(0) translate(4 102)">
<title>include/enfield/Support/ExpTSFinder.h</title>
<!-- Node12 -->
<g id="node1" class="node"><title>Node12</title>
<polygon fill="#bfbfbf" stroke="black" points="88,-67.5 88,-97.5 204,-97.5 204,-67.5 88,-67.5"/>
<text text-anchor="start" x="96" y="-85.5" font-family="Helvetica,sans-Serif" font-size="10.00">include/enfield/Support</text>
<text text-anchor="middle" x="146" y="-74.5" font-family="Helvetica,sans-Serif" font-size="10.00">/ExpTSFinder.h</text>
</g>
<!-- Node13 -->
<g id="node2" class="node"><title>Node13</title>
<g id="a_node2"><a xlink:href="../../d9/d47/ExpTSFinder_8cpp.xhtml" target="_top" xlink:title="lib/Support/ExpTSFinder.cpp">
<polygon fill="none" stroke="black" points="0,-6 0,-25 142,-25 142,-6 0,-6"/>
<text text-anchor="middle" x="71" y="-13" font-family="Helvetica,sans-Serif" font-size="10.00">lib/Support/ExpTSFinder.cpp</text>
</a>
</g>
</g>
<!-- Node12&#45;&gt;Node13 -->
<g id="edge1" class="edge"><title>Node12&#45;&gt;Node13</title>
<path fill="none" stroke="midnightblue" d="M121.968,-60.6722C108.12,-48.6707 91.4465,-34.2203 81.0322,-25.1945"/>
<polygon fill="midnightblue" stroke="midnightblue" points="119.877,-63.4915 129.726,-67.396 124.461,-58.2017 119.877,-63.4915"/>
</g>
<!-- Node14 -->
<g id="node3" class="node"><title>Node14</title>
<g id="a_node3"><a xlink:href="../../d1/d31/DynprogDepSolver_8cpp.xhtml" target="_top" xlink:title="lib/Transform/Allocators\l/DynprogDepSolver.cpp">
<polygon fill="none" stroke="black" points="160.5,-0.5 160.5,-30.5 281.5,-30.5 281.5,-0.5 160.5,-0.5"/>
<text text-anchor="start" x="168.5" y="-18.5" font-family="Helvetica,sans-Serif" font-size="10.00">lib/Transform/Allocators</text>
<text text-anchor="middle" x="221" y="-7.5" font-family="Helvetica,sans-Serif" font-size="10.00">/DynprogDepSolver.cpp</text>
</a>
</g>
</g>
<!-- Node12&#45;&gt;Node14 -->
<g id="edge2" class="edge"><title>Node12&#45;&gt;Node14</title>
<path fill="none" stroke="midnightblue" d="M170.118,-60.5978C181.443,-50.7831 194.641,-39.3442 204.758,-30.5765"/>
<polygon fill="midnightblue" stroke="midnightblue" points="167.539,-58.2017 162.274,-67.396 172.123,-63.4915 167.539,-58.2017"/>
</g>
</g>
</svg>
