<?xml version="1.0" encoding="UTF-8" standalone="no"?>
<!DOCTYPE svg PUBLIC "-//W3C//DTD SVG 1.1//EN"
 "http://www.w3.org/Graphics/SVG/1.1/DTD/svg11.dtd">
<!-- Generated by graphviz version 2.40.1 (20161225.0304)
 -->
<!-- Title: include/enfield/Support/Timer.h Pages: 1 -->
<svg width="497pt" height="106pt"
 viewBox="0.00 0.00 496.50 106.00" xmlns="http://www.w3.org/2000/svg" xmlns:xlink="http://www.w3.org/1999/xlink">
<g id="graph0" class="graph" transform="scale(1 1) rotate(0) translate(4 102)">
<title>include/enfield/Support/Timer.h</title>
<!-- Node3 -->
<g id="node1" class="node">
<title>Node3</title>
<polygon fill="#bfbfbf" stroke="#000000" points="173,-67.5 173,-97.5 302,-97.5 302,-67.5 173,-67.5"/>
<text text-anchor="start" x="181" y="-85.5" font-family="Helvetica,sans-Serif" font-size="10.00" fill="#000000">include/enfield/Support</text>
<text text-anchor="middle" x="237.5" y="-74.5" font-family="Helvetica,sans-Serif" font-size="10.00" fill="#000000">/Timer.h</text>
</g>
<!-- Node4 -->
<g id="node2" class="node">
<title>Node4</title>
<g id="a_node2"><a xlink:href="../../d0/dc2/Timer_8cpp.xhtml" target="_top" xlink:title="lib/Support/Timer.cpp">
<polygon fill="none" stroke="#000000" points="0,-6 0,-25 121,-25 121,-6 0,-6"/>
<text text-anchor="middle" x="60.5" y="-13" font-family="Helvetica,sans-Serif" font-size="10.00" fill="#000000">lib/Support/Timer.cpp</text>
</a>
</g>
</g>
<!-- Node3&#45;&gt;Node4 -->
<g id="edge1" class="edge">
<title>Node3&#45;&gt;Node4</title>
<path fill="none" stroke="#191970" d="M188.1989,-63.838C154.8519,-51.2151 112.1996,-35.0699 85.611,-25.0053"/>
<polygon fill="#191970" stroke="#191970" points="187.1863,-67.197 197.7777,-67.4639 189.6644,-60.6503 187.1863,-67.197"/>
</g>
<!-- Node5 -->
<g id="node3" class="node">
<title>Node5</title>
<g id="a_node3"><a xlink:href="../../d6/dab/BoundedMappingTreeQAllocator_8cpp.xhtml" target="_top" xlink:title="lib/Transform/Allocators\l/BoundedMappingTreeQAllocator.cpp">
<polygon fill="none" stroke="#000000" points="139,-.5 139,-30.5 336,-30.5 336,-.5 139,-.5"/>
<text text-anchor="start" x="147" y="-18.5" font-family="Helvetica,sans-Serif" font-size="10.00" fill="#000000">lib/Transform/Allocators</text>
<text text-anchor="middle" x="237.5" y="-7.5" font-family="Helvetica,sans-Serif" font-size="10.00" fill="#000000">/BoundedMappingTreeQAllocator.cpp</text>
</a>
</g>
</g>
<!-- Node3&#45;&gt;Node5 -->
<g id="edge2" class="edge">
<title>Node3&#45;&gt;Node5</title>
<path fill="none" stroke="#191970" d="M237.5,-57.0249C237.5,-48.128 237.5,-38.4287 237.5,-30.6432"/>
<polygon fill="#191970" stroke="#191970" points="234.0001,-57.2966 237.5,-67.2967 241.0001,-57.2967 234.0001,-57.2966"/>
</g>
<!-- Node6 -->
<g id="node4" class="node">
<title>Node6</title>
<g id="a_node4"><a xlink:href="../../d0/d91/QbitAllocator_8cpp.xhtml" target="_top" xlink:title="lib/Transform/Allocators\l/QbitAllocator.cpp">
<polygon fill="none" stroke="#000000" points="354.5,-.5 354.5,-30.5 488.5,-30.5 488.5,-.5 354.5,-.5"/>
<text text-anchor="start" x="362.5" y="-18.5" font-family="Helvetica,sans-Serif" font-size="10.00" fill="#000000">lib/Transform/Allocators</text>
<text text-anchor="middle" x="421.5" y="-7.5" font-family="Helvetica,sans-Serif" font-size="10.00" fill="#000000">/QbitAllocator.cpp</text>
</a>
</g>
</g>
<!-- Node3&#45;&gt;Node6 -->
<g id="edge3" class="edge">
<title>Node3&#45;&gt;Node6</title>
<path fill="none" stroke="#191970" d="M288.2998,-64.0023C317.1685,-53.4903 352.8585,-40.4945 380.0267,-30.6017"/>
<polygon fill="#191970" stroke="#191970" points="286.9921,-60.7535 278.7932,-67.4639 289.3872,-67.3311 286.9921,-60.7535"/>
</g>
</g>
</svg>
