<?xml version="1.0" encoding="UTF-8" standalone="no"?>
<!DOCTYPE svg PUBLIC "-//W3C//DTD SVG 1.1//EN"
 "http://www.w3.org/Graphics/SVG/1.1/DTD/svg11.dtd">
<!-- Generated by graphviz version 2.38.0 (20140413.2041)
 -->
<!-- Title: efd::NDQOpMeasure::Create Pages: 1 -->
<!--zoomable 218 -->
<svg id="main" version="1.1" xmlns="http://www.w3.org/2000/svg" xmlns:xlink="http://www.w3.org/1999/xlink" xml:space="preserve" onload="init(evt)">
<style type="text/css"><![CDATA[
.edge:hover path { stroke: red; }
.edge:hover polygon { stroke: red; fill: red; }
]]></style>
<script type="text/javascript"><![CDATA[
var edges = document.getElementsByTagName('g');
if (edges && edges.length) {
  for (var i=0;i<edges.length;i++) {
    if (edges[i].id.substr(0,4)=='edge') {
      edges[i].setAttribute('class','edge');
    }
  }
}
]]></script>
        <defs>
                <circle id="rim" cx="0" cy="0" r="7"/>
                <circle id="rim2" cx="0" cy="0" r="3.5"/>
                <g id="zoomPlus">
                        <use xlink:href="#rim" fill="#404040">
                                <set attributeName="fill" to="#808080" begin="zoomplus.mouseover" end="zoomplus.mouseout"/>
                        </use>
                        <path d="M-4,0h8M0,-4v8" fill="none" stroke="white" stroke-width="1.5" pointer-events="none"/>
                </g>
                <g id="zoomMin">
                        <use xlink:href="#rim" fill="#404040">
                                <set attributeName="fill" to="#808080" begin="zoomminus.mouseover" end="zoomminus.mouseout"/>
                        </use>
                        <path d="M-4,0h8" fill="none" stroke="white" stroke-width="1.5" pointer-events="none"/>
                </g>
                <g id="dirArrow">
                        <path fill="none" stroke="white" stroke-width="1.5" d="M0,-3.0v7 M-2.5,-0.5L0,-3.0L2.5,-0.5"/>
                </g>
               <g id="resetDef">
                       <use xlink:href="#rim2" fill="#404040">
                               <set attributeName="fill" to="#808080" begin="reset.mouseover" end="reset.mouseout"/>
                       </use>
               </g>
        </defs>

<script type="text/javascript">
var viewWidth = 859;
var viewHeight = 218;
var sectionId = 'dynsection-6';
</script>
<script xlink:href="../../svgpan.js"/>
<svg id="graph" class="graph">
<g id="viewport">
<title>efd::NDQOpMeasure::Create</title>
<!-- Node37 -->
<g id="node1" class="node"><title>Node37</title>
<polygon fill="#bfbfbf" stroke="black" points="0,-90 0,-120 115,-120 115,-90 0,-90"/>
<text text-anchor="start" x="8" y="-108" font-family="Helvetica,sans-Serif" font-size="10.00">efd::NDQOpMeasure::</text>
<text text-anchor="middle" x="57.5" y="-97" font-family="Helvetica,sans-Serif" font-size="10.00">Create</text>
</g>
<!-- Node38 -->
<g id="node2" class="node"><title>Node38</title>
<g id="a_node2"><a xlink:href="../../d4/d64/classefd_1_1NDQOpMeasure.xhtml#a86ebc66bcdc566301ba4e5bf1abef777" target="_top" xlink:title="efd::NDQOpMeasure::\lNDQOpMeasure">
<polygon fill="none" stroke="black" points="151,-90 151,-120 266,-120 266,-90 151,-90"/>
<text text-anchor="start" x="159" y="-108" font-family="Helvetica,sans-Serif" font-size="10.00">efd::NDQOpMeasure::</text>
<text text-anchor="middle" x="208.5" y="-97" font-family="Helvetica,sans-Serif" font-size="10.00">NDQOpMeasure</text>
</a>
</g>
</g>
<!-- Node37&#45;&gt;Node38 -->
<g id="edge1" class="edge"><title>Node37&#45;&gt;Node38</title>
<path fill="none" stroke="midnightblue" d="M115.256,-105C123.558,-105 132.173,-105 140.654,-105"/>
<polygon fill="midnightblue" stroke="midnightblue" points="140.902,-108.5 150.902,-105 140.902,-101.5 140.902,-108.5"/>
</g>
<!-- Node39 -->
<g id="node3" class="node"><title>Node39</title>
<g id="a_node3"><a xlink:href="../../da/ddd/classefd_1_1NDList.xhtml#a664c2f4a60746612062d7b112ff9842e" target="_top" xlink:title="Appends a child to the end of the list. ">
<polygon fill="none" stroke="black" points="464.5,-190.5 464.5,-209.5 575.5,-209.5 575.5,-190.5 464.5,-190.5"/>
<text text-anchor="middle" x="520" y="-197.5" font-family="Helvetica,sans-Serif" font-size="10.00">efd::NDList::addChild</text>
</a>
</g>
</g>
<!-- Node38&#45;&gt;Node39 -->
<g id="edge2" class="edge"><title>Node38&#45;&gt;Node39</title>
<path fill="none" stroke="midnightblue" d="M227.719,-120.133C245.519,-134.078 273.956,-154.198 302,-165 351.06,-183.897 410.162,-192.591 454.289,-196.591"/>
<polygon fill="midnightblue" stroke="midnightblue" points="454.056,-200.084 464.317,-197.443 454.649,-193.109 454.056,-200.084"/>
</g>
<!-- Node41 -->
<g id="node5" class="node"><title>Node41</title>
<g id="a_node5"><a xlink:href="../../df/d1b/classefd_1_1NDValue.xhtml#a96ab9dcd008523aa2f4cfc2eb95d7178" target="_top" xlink:title="Creates a new instance of this node. ">
<polygon fill="none" stroke="black" points="306,-38.5 306,-57.5 417,-57.5 417,-38.5 306,-38.5"/>
<text text-anchor="middle" x="361.5" y="-45.5" font-family="Helvetica,sans-Serif" font-size="10.00">efd::NDValue::Create</text>
</a>
</g>
</g>
<!-- Node38&#45;&gt;Node41 -->
<g id="edge4" class="edge"><title>Node38&#45;&gt;Node41</title>
<path fill="none" stroke="midnightblue" d="M244.394,-89.934C261.614,-82.6869 282.769,-74.0616 302,-67 307.715,-64.9013 313.787,-62.7951 319.772,-60.7886"/>
<polygon fill="midnightblue" stroke="midnightblue" points="321.281,-63.9766 329.685,-57.5252 319.092,-57.3276 321.281,-63.9766"/>
</g>
<!-- Node42 -->
<g id="node6" class="node"><title>Node42</title>
<g id="a_node6"><a xlink:href="../../da/ddd/classefd_1_1NDList.xhtml#a5e3e2ab6234caa816599eb51766210b7" target="_top" xlink:title="Creates a new instance of this node with the kind K_LIST. ">
<polygon fill="none" stroke="black" points="310.5,-76.5 310.5,-95.5 412.5,-95.5 412.5,-76.5 310.5,-76.5"/>
<text text-anchor="middle" x="361.5" y="-83.5" font-family="Helvetica,sans-Serif" font-size="10.00">efd::NDList::Create</text>
</a>
</g>
</g>
<!-- Node38&#45;&gt;Node42 -->
<g id="edge5" class="edge"><title>Node38&#45;&gt;Node42</title>
<path fill="none" stroke="midnightblue" d="M266.156,-97.871C277.305,-96.4683 289.039,-94.9918 300.299,-93.5749"/>
<polygon fill="midnightblue" stroke="midnightblue" points="300.992,-97.0155 310.476,-92.2944 300.118,-90.0703 300.992,-97.0155"/>
</g>
<!-- Node47 -->
<g id="node11" class="node"><title>Node47</title>
<g id="a_node11"><a xlink:href="../../dd/d94/classefd_1_1NDQOp.xhtml#af7ef43289355c5bb047a46419177c8ed" target="_top" xlink:title="Gets the quantum arguments. ">
<polygon fill="none" stroke="black" points="302,-0.5 302,-19.5 421,-19.5 421,-0.5 302,-0.5"/>
<text text-anchor="middle" x="361.5" y="-7.5" font-family="Helvetica,sans-Serif" font-size="10.00">efd::NDQOp::getQArgs</text>
</a>
</g>
</g>
<!-- Node38&#45;&gt;Node47 -->
<g id="edge10" class="edge"><title>Node38&#45;&gt;Node47</title>
<path fill="none" stroke="midnightblue" d="M224.227,-89.8737C241.467,-72.9318 271.555,-45.6685 302,-29 305.953,-26.8358 310.193,-24.8688 314.517,-23.0927"/>
<polygon fill="midnightblue" stroke="midnightblue" points="315.914,-26.3064 324.04,-19.5074 313.448,-19.7554 315.914,-26.3064"/>
</g>
<!-- Node49 -->
<g id="node13" class="node"><title>Node49</title>
<g id="a_node13"><a xlink:href="../../d6/d6a/classefd_1_1Node.xhtml#a8ac8c3206c6f6817a8c8e515ac830f61" target="_top" xlink:title="Adds a child to this node. It should be used only for construction of each derived class...">
<polygon fill="none" stroke="black" points="457,-152.5 457,-171.5 583,-171.5 583,-152.5 457,-152.5"/>
<text text-anchor="middle" x="520" y="-159.5" font-family="Helvetica,sans-Serif" font-size="10.00">efd::Node::innerAddChild</text>
</a>
</g>
</g>
<!-- Node38&#45;&gt;Node49 -->
<g id="edge12" class="edge"><title>Node38&#45;&gt;Node49</title>
<path fill="none" stroke="midnightblue" d="M239.555,-120.062C257.282,-128.249 280.407,-137.749 302,-143 349.457,-154.541 404.258,-159.273 446.916,-161.129"/>
<polygon fill="midnightblue" stroke="midnightblue" points="446.801,-164.627 456.931,-161.522 447.076,-157.633 446.801,-164.627"/>
</g>
<!-- Node50 -->
<g id="node14" class="node"><title>Node50</title>
<g id="a_node14"><a xlink:href="../../dd/d94/classefd_1_1NDQOp.xhtml#ab5f18eaba71bcb53806525fd5dc61403" target="_top" xlink:title="efd::NDQOp::NDQOp">
<polygon fill="none" stroke="black" points="305,-114.5 305,-133.5 418,-133.5 418,-114.5 305,-114.5"/>
<text text-anchor="middle" x="361.5" y="-121.5" font-family="Helvetica,sans-Serif" font-size="10.00">efd::NDQOp::NDQOp</text>
</a>
</g>
</g>
<!-- Node38&#45;&gt;Node50 -->
<g id="edge14" class="edge"><title>Node38&#45;&gt;Node50</title>
<path fill="none" stroke="midnightblue" d="M266.156,-112.129C275.436,-113.297 285.122,-114.515 294.602,-115.708"/>
<polygon fill="midnightblue" stroke="midnightblue" points="294.421,-119.213 304.78,-116.989 295.295,-112.268 294.421,-119.213"/>
</g>
<!-- Node40 -->
<g id="node4" class="node"><title>Node40</title>
<g id="a_node4"><a xlink:href="../../d6/d6a/classefd_1_1Node.xhtml#a48e9d49d994b9023b8400316e2782e2b" target="_top" xlink:title="Sets the parent node of the current node. ">
<polygon fill="none" stroke="black" points="619,-171.5 619,-190.5 726,-190.5 726,-171.5 619,-171.5"/>
<text text-anchor="middle" x="672.5" y="-178.5" font-family="Helvetica,sans-Serif" font-size="10.00">efd::Node::setParent</text>
</a>
</g>
</g>
<!-- Node39&#45;&gt;Node40 -->
<g id="edge3" class="edge"><title>Node39&#45;&gt;Node40</title>
<path fill="none" stroke="midnightblue" d="M575.76,-193.087C586.506,-191.73 597.855,-190.297 608.837,-188.911"/>
<polygon fill="midnightblue" stroke="midnightblue" points="609.308,-192.379 618.791,-187.654 608.431,-185.435 609.308,-192.379"/>
</g>
<!-- Node43 -->
<g id="node7" class="node"><title>Node43</title>
<g id="a_node7"><a xlink:href="../../da/ddd/classefd_1_1NDList.xhtml#a63e0eab4abb59c1c0783f90afe0bb3bb" target="_top" xlink:title="Creates a new instance of this node with a specific k. ">
<polygon fill="none" stroke="black" points="469,-76.5 469,-95.5 571,-95.5 571,-76.5 469,-76.5"/>
<text text-anchor="middle" x="520" y="-83.5" font-family="Helvetica,sans-Serif" font-size="10.00">efd::NDList::Create</text>
</a>
</g>
</g>
<!-- Node42&#45;&gt;Node43 -->
<g id="edge6" class="edge"><title>Node42&#45;&gt;Node43</title>
<path fill="none" stroke="midnightblue" d="M412.879,-86C427.472,-86 443.552,-86 458.687,-86"/>
<polygon fill="midnightblue" stroke="midnightblue" points="458.983,-89.5001 468.983,-86 458.983,-82.5001 458.983,-89.5001"/>
</g>
<!-- Node44 -->
<g id="node8" class="node"><title>Node44</title>
<g id="a_node8"><a xlink:href="../../d4/deb/namespaceefd.xhtml#a3fd26bc2a0a0c6d9948d0d3cef2e1515" target="_top" xlink:title="Returns true if the pointer src is of class TargetTy. ">
<polygon fill="none" stroke="black" points="631,-38.5 631,-57.5 714,-57.5 714,-38.5 631,-38.5"/>
<text text-anchor="middle" x="672.5" y="-45.5" font-family="Helvetica,sans-Serif" font-size="10.00">efd::instanceOf</text>
</a>
</g>
</g>
<!-- Node43&#45;&gt;Node44 -->
<g id="edge7" class="edge"><title>Node43&#45;&gt;Node44</title>
<path fill="none" stroke="midnightblue" d="M558.978,-76.411C578.659,-71.4417 602.891,-65.3233 623.821,-60.0387"/>
<polygon fill="midnightblue" stroke="midnightblue" points="624.957,-63.3617 633.796,-57.5201 623.243,-56.5747 624.957,-63.3617"/>
</g>
<!-- Node45 -->
<g id="node9" class="node"><title>Node45</title>
<g id="a_node9"><a xlink:href="../../da/ddd/classefd_1_1NDList.xhtml#a2642c91fda9d33512d1aa1aa7851b6bd" target="_top" xlink:title="efd::NDList::NDList">
<polygon fill="none" stroke="black" points="620.5,-76.5 620.5,-95.5 724.5,-95.5 724.5,-76.5 620.5,-76.5"/>
<text text-anchor="middle" x="672.5" y="-83.5" font-family="Helvetica,sans-Serif" font-size="10.00">efd::NDList::NDList</text>
</a>
</g>
</g>
<!-- Node43&#45;&gt;Node45 -->
<g id="edge8" class="edge"><title>Node43&#45;&gt;Node45</title>
<path fill="none" stroke="midnightblue" d="M571.114,-86C583.597,-86 597.121,-86 610.08,-86"/>
<polygon fill="midnightblue" stroke="midnightblue" points="610.32,-89.5001 620.32,-86 610.319,-82.5001 610.32,-89.5001"/>
</g>
<!-- Node46 -->
<g id="node10" class="node"><title>Node46</title>
<g id="a_node10"><a xlink:href="../../d6/d6a/classefd_1_1Node.xhtml#a09ac8cdf7898a3d17293d92ae956eece" target="_top" xlink:title="Constructs the node, initially empty (with no information). ">
<polygon fill="none" stroke="black" points="762,-95.5 762,-114.5 851,-114.5 851,-95.5 762,-95.5"/>
<text text-anchor="middle" x="806.5" y="-102.5" font-family="Helvetica,sans-Serif" font-size="10.00">efd::Node::Node</text>
</a>
</g>
</g>
<!-- Node45&#45;&gt;Node46 -->
<g id="edge9" class="edge"><title>Node45&#45;&gt;Node46</title>
<path fill="none" stroke="midnightblue" d="M724.535,-93.3459C733.496,-94.6357 742.845,-95.9815 751.874,-97.2811"/>
<polygon fill="midnightblue" stroke="midnightblue" points="751.497,-100.763 761.894,-98.7234 752.495,-93.8343 751.497,-100.763"/>
</g>
<!-- Node48 -->
<g id="node12" class="node"><title>Node48</title>
<g id="a_node12"><a xlink:href="../../d4/deb/namespaceefd.xhtml#a2cef687225e13315fc282dc40b5a6909" target="_top" xlink:title="Returns src cast to TargetTy, iff it is of class TargetTy, otherwise it will return nullptr...">
<polygon fill="none" stroke="black" points="483.5,-0.5 483.5,-19.5 556.5,-19.5 556.5,-0.5 483.5,-0.5"/>
<text text-anchor="middle" x="520" y="-7.5" font-family="Helvetica,sans-Serif" font-size="10.00">efd::dynCast</text>
</a>
</g>
</g>
<!-- Node47&#45;&gt;Node48 -->
<g id="edge11" class="edge"><title>Node47&#45;&gt;Node48</title>
<path fill="none" stroke="midnightblue" d="M421.22,-10C438.296,-10 456.697,-10 472.879,-10"/>
<polygon fill="midnightblue" stroke="midnightblue" points="473.157,-13.5001 483.157,-10 473.157,-6.5001 473.157,-13.5001"/>
</g>
<!-- Node49&#45;&gt;Node40 -->
<g id="edge13" class="edge"><title>Node49&#45;&gt;Node40</title>
<path fill="none" stroke="midnightblue" d="M583.083,-169.838C591.488,-170.899 600.118,-171.988 608.538,-173.051"/>
<polygon fill="midnightblue" stroke="midnightblue" points="608.314,-176.551 618.674,-174.331 609.191,-169.606 608.314,-176.551"/>
</g>
<!-- Node50&#45;&gt;Node46 -->
<g id="edge16" class="edge"><title>Node50&#45;&gt;Node46</title>
<path fill="none" stroke="midnightblue" d="M418.158,-121.613C503.82,-117.939 666.916,-110.944 751.541,-107.314"/>
<polygon fill="midnightblue" stroke="midnightblue" points="751.869,-110.804 761.709,-106.878 751.569,-103.81 751.869,-110.804"/>
</g>
<!-- Node50&#45;&gt;Node49 -->
<g id="edge15" class="edge"><title>Node50&#45;&gt;Node49</title>
<path fill="none" stroke="midnightblue" d="M401.992,-133.589C422.643,-138.604 448.114,-144.788 470.012,-150.105"/>
<polygon fill="midnightblue" stroke="midnightblue" points="469.249,-153.521 479.792,-152.48 470.901,-146.719 469.249,-153.521"/>
</g>
</g>
</svg>
        <g id="navigator" transform="translate(0 0)" fill="#404254">
                <rect fill="#f2f5e9" fill-opacity="0.5" stroke="#606060" stroke-width=".5" x="0" y="0" width="60" height="60"/>
                <use id="zoomplus" xlink:href="#zoomPlus" x="17" y="9" onmousedown="handleZoom(evt,'in')"/>
                <use id="zoomminus" xlink:href="#zoomMin" x="42" y="9" onmousedown="handleZoom(evt,'out')"/>
                <use id="reset" xlink:href="#resetDef" x="30" y="36" onmousedown="handleReset()"/>
                <g id="arrowUp" xlink:href="#dirArrow" transform="translate(30 24)" onmousedown="handlePan(0,-1)">
                  <use xlink:href="#rim" fill="#404040">
                        <set attributeName="fill" to="#808080" begin="arrowUp.mouseover" end="arrowUp.mouseout"/>
                  </use>
                  <path fill="none" stroke="white" stroke-width="1.5" d="M0,-3.0v7 M-2.5,-0.5L0,-3.0L2.5,-0.5"/>
                </g>
                <g id="arrowRight" xlink:href="#dirArrow" transform="rotate(90) translate(36 -43)" onmousedown="handlePan(1,0)">
                  <use xlink:href="#rim" fill="#404040">
                        <set attributeName="fill" to="#808080" begin="arrowRight.mouseover" end="arrowRight.mouseout"/>
                  </use>
                  <path fill="none" stroke="white" stroke-width="1.5" d="M0,-3.0v7 M-2.5,-0.5L0,-3.0L2.5,-0.5"/>
                </g>
                <g id="arrowDown" xlink:href="#dirArrow" transform="rotate(180) translate(-30 -48)" onmousedown="handlePan(0,1)">
                  <use xlink:href="#rim" fill="#404040">
                        <set attributeName="fill" to="#808080" begin="arrowDown.mouseover" end="arrowDown.mouseout"/>
                  </use>
                  <path fill="none" stroke="white" stroke-width="1.5" d="M0,-3.0v7 M-2.5,-0.5L0,-3.0L2.5,-0.5"/>
                </g>
                <g id="arrowLeft" xlink:href="#dirArrow" transform="rotate(270) translate(-36 17)" onmousedown="handlePan(-1,0)">
                  <use xlink:href="#rim" fill="#404040">
                        <set attributeName="fill" to="#808080" begin="arrowLeft.mouseover" end="arrowLeft.mouseout"/>
                  </use>
                  <path fill="none" stroke="white" stroke-width="1.5" d="M0,-3.0v7 M-2.5,-0.5L0,-3.0L2.5,-0.5"/>
                </g>
        </g>
        <svg viewBox="0 0 15 15" width="100%" height="30px" preserveAspectRatio="xMaxYMin meet">
         <g id="arrow_out" transform="scale(0.3 0.3)">
          <a xlink:href="classefd_1_1NDQOpMeasure_ab696e3c3f4463ad2a126a1b335e5baca_cgraph_org.svg" target="_base">
           <rect id="button" ry="5" rx="5" y="6" x="6" height="38" width="38"
                fill="#f2f5e9" fill-opacity="0.5" stroke="#606060" stroke-width="1.0"/>
           <path id="arrow"
             d="M 11.500037,31.436501 C 11.940474,20.09759 22.043105,11.32322 32.158766,21.979434 L 37.068811,17.246167 C 37.068811,17.246167 37.088388,32 37.088388,32 L 22.160133,31.978069 C 22.160133,31.978069 26.997745,27.140456 26.997745,27.140456 C 18.528582,18.264221 13.291696,25.230495 11.500037,31.436501 z"
             style="fill:#404040;"/>
          </a>
         </g>
        </svg>
</svg>
