<?xml version="1.0" encoding="UTF-8" standalone="no"?>
<!DOCTYPE svg PUBLIC "-//W3C//DTD SVG 1.1//EN"
 "http://www.w3.org/Graphics/SVG/1.1/DTD/svg11.dtd">
<!-- Generated by graphviz version 2.38.0 (20140413.2041)
 -->
<!-- Title: efd::NDQOpMeasure::NDQOpMeasure Pages: 1 -->
<svg width="708pt" height="218pt"
 viewBox="0.00 0.00 708.00 218.00" xmlns="http://www.w3.org/2000/svg" xmlns:xlink="http://www.w3.org/1999/xlink">
<g id="graph0" class="graph" transform="scale(1 1) rotate(0) translate(4 214)">
<title>efd::NDQOpMeasure::NDQOpMeasure</title>
<!-- Node0 -->
<g id="node1" class="node"><title>Node0</title>
<polygon fill="#bfbfbf" stroke="black" points="0,-90 0,-120 115,-120 115,-90 0,-90"/>
<text text-anchor="start" x="8" y="-108" font-family="Helvetica,sans-Serif" font-size="10.00">efd::NDQOpMeasure::</text>
<text text-anchor="middle" x="57.5" y="-97" font-family="Helvetica,sans-Serif" font-size="10.00">NDQOpMeasure</text>
</g>
<!-- Node1 -->
<g id="node2" class="node"><title>Node1</title>
<g id="a_node2"><a xlink:href="../../da/ddd/classefd_1_1NDList.xhtml#a664c2f4a60746612062d7b112ff9842e" target="_top" xlink:title="Appends a child to the end of the list. ">
<polygon fill="none" stroke="black" points="313.5,-190.5 313.5,-209.5 424.5,-209.5 424.5,-190.5 313.5,-190.5"/>
<text text-anchor="middle" x="369" y="-197.5" font-family="Helvetica,sans-Serif" font-size="10.00">efd::NDList::addChild</text>
</a>
</g>
</g>
<!-- Node0&#45;&gt;Node1 -->
<g id="edge1" class="edge"><title>Node0&#45;&gt;Node1</title>
<path fill="none" stroke="midnightblue" d="M76.7192,-120.133C94.5193,-134.078 122.956,-154.198 151,-165 200.06,-183.897 259.162,-192.591 303.289,-196.591"/>
<polygon fill="midnightblue" stroke="midnightblue" points="303.056,-200.084 313.317,-197.443 303.649,-193.109 303.056,-200.084"/>
</g>
<!-- Node3 -->
<g id="node4" class="node"><title>Node3</title>
<g id="a_node4"><a xlink:href="../../df/d1b/classefd_1_1NDValue.xhtml#a96ab9dcd008523aa2f4cfc2eb95d7178" target="_top" xlink:title="Creates a new instance of this node. ">
<polygon fill="none" stroke="black" points="155,-38.5 155,-57.5 266,-57.5 266,-38.5 155,-38.5"/>
<text text-anchor="middle" x="210.5" y="-45.5" font-family="Helvetica,sans-Serif" font-size="10.00">efd::NDValue::Create</text>
</a>
</g>
</g>
<!-- Node0&#45;&gt;Node3 -->
<g id="edge3" class="edge"><title>Node0&#45;&gt;Node3</title>
<path fill="none" stroke="midnightblue" d="M93.3941,-89.934C110.614,-82.6869 131.769,-74.0616 151,-67 156.715,-64.9013 162.787,-62.7951 168.772,-60.7886"/>
<polygon fill="midnightblue" stroke="midnightblue" points="170.281,-63.9766 178.685,-57.5252 168.092,-57.3276 170.281,-63.9766"/>
</g>
<!-- Node4 -->
<g id="node5" class="node"><title>Node4</title>
<g id="a_node5"><a xlink:href="../../da/ddd/classefd_1_1NDList.xhtml#a5e3e2ab6234caa816599eb51766210b7" target="_top" xlink:title="Creates a new instance of this node with the kind K_LIST. ">
<polygon fill="none" stroke="black" points="159.5,-76.5 159.5,-95.5 261.5,-95.5 261.5,-76.5 159.5,-76.5"/>
<text text-anchor="middle" x="210.5" y="-83.5" font-family="Helvetica,sans-Serif" font-size="10.00">efd::NDList::Create</text>
</a>
</g>
</g>
<!-- Node0&#45;&gt;Node4 -->
<g id="edge4" class="edge"><title>Node0&#45;&gt;Node4</title>
<path fill="none" stroke="midnightblue" d="M115.156,-97.871C126.305,-96.4683 138.039,-94.9918 149.299,-93.5749"/>
<polygon fill="midnightblue" stroke="midnightblue" points="149.992,-97.0155 159.476,-92.2944 149.118,-90.0703 149.992,-97.0155"/>
</g>
<!-- Node9 -->
<g id="node10" class="node"><title>Node9</title>
<g id="a_node10"><a xlink:href="../../dd/d94/classefd_1_1NDQOp.xhtml#af7ef43289355c5bb047a46419177c8ed" target="_top" xlink:title="Gets the quantum arguments. ">
<polygon fill="none" stroke="black" points="151,-0.5 151,-19.5 270,-19.5 270,-0.5 151,-0.5"/>
<text text-anchor="middle" x="210.5" y="-7.5" font-family="Helvetica,sans-Serif" font-size="10.00">efd::NDQOp::getQArgs</text>
</a>
</g>
</g>
<!-- Node0&#45;&gt;Node9 -->
<g id="edge9" class="edge"><title>Node0&#45;&gt;Node9</title>
<path fill="none" stroke="midnightblue" d="M73.2271,-89.8737C90.4673,-72.9318 120.555,-45.6685 151,-29 154.953,-26.8358 159.193,-24.8688 163.517,-23.0927"/>
<polygon fill="midnightblue" stroke="midnightblue" points="164.914,-26.3064 173.04,-19.5074 162.448,-19.7554 164.914,-26.3064"/>
</g>
<!-- Node11 -->
<g id="node12" class="node"><title>Node11</title>
<g id="a_node12"><a xlink:href="../../d6/d6a/classefd_1_1Node.xhtml#a8ac8c3206c6f6817a8c8e515ac830f61" target="_top" xlink:title="Adds a child to this node. It should be used only for construction of each derived class...">
<polygon fill="none" stroke="black" points="306,-152.5 306,-171.5 432,-171.5 432,-152.5 306,-152.5"/>
<text text-anchor="middle" x="369" y="-159.5" font-family="Helvetica,sans-Serif" font-size="10.00">efd::Node::innerAddChild</text>
</a>
</g>
</g>
<!-- Node0&#45;&gt;Node11 -->
<g id="edge11" class="edge"><title>Node0&#45;&gt;Node11</title>
<path fill="none" stroke="midnightblue" d="M88.5552,-120.062C106.282,-128.249 129.407,-137.749 151,-143 198.457,-154.541 253.258,-159.273 295.916,-161.129"/>
<polygon fill="midnightblue" stroke="midnightblue" points="295.801,-164.627 305.931,-161.522 296.076,-157.633 295.801,-164.627"/>
</g>
<!-- Node12 -->
<g id="node13" class="node"><title>Node12</title>
<g id="a_node13"><a xlink:href="../../dd/d94/classefd_1_1NDQOp.xhtml#ab5f18eaba71bcb53806525fd5dc61403" target="_top" xlink:title="efd::NDQOp::NDQOp">
<polygon fill="none" stroke="black" points="154,-114.5 154,-133.5 267,-133.5 267,-114.5 154,-114.5"/>
<text text-anchor="middle" x="210.5" y="-121.5" font-family="Helvetica,sans-Serif" font-size="10.00">efd::NDQOp::NDQOp</text>
</a>
</g>
</g>
<!-- Node0&#45;&gt;Node12 -->
<g id="edge13" class="edge"><title>Node0&#45;&gt;Node12</title>
<path fill="none" stroke="midnightblue" d="M115.156,-112.129C124.436,-113.297 134.122,-114.515 143.602,-115.708"/>
<polygon fill="midnightblue" stroke="midnightblue" points="143.421,-119.213 153.78,-116.989 144.295,-112.268 143.421,-119.213"/>
</g>
<!-- Node2 -->
<g id="node3" class="node"><title>Node2</title>
<g id="a_node3"><a xlink:href="../../d6/d6a/classefd_1_1Node.xhtml#a48e9d49d994b9023b8400316e2782e2b" target="_top" xlink:title="Sets the parent node of the current node. ">
<polygon fill="none" stroke="black" points="468,-171.5 468,-190.5 575,-190.5 575,-171.5 468,-171.5"/>
<text text-anchor="middle" x="521.5" y="-178.5" font-family="Helvetica,sans-Serif" font-size="10.00">efd::Node::setParent</text>
</a>
</g>
</g>
<!-- Node1&#45;&gt;Node2 -->
<g id="edge2" class="edge"><title>Node1&#45;&gt;Node2</title>
<path fill="none" stroke="midnightblue" d="M424.76,-193.087C435.506,-191.73 446.855,-190.297 457.837,-188.911"/>
<polygon fill="midnightblue" stroke="midnightblue" points="458.308,-192.379 467.791,-187.654 457.431,-185.435 458.308,-192.379"/>
</g>
<!-- Node5 -->
<g id="node6" class="node"><title>Node5</title>
<g id="a_node6"><a xlink:href="../../da/ddd/classefd_1_1NDList.xhtml#a63e0eab4abb59c1c0783f90afe0bb3bb" target="_top" xlink:title="Creates a new instance of this node with a specific k. ">
<polygon fill="none" stroke="black" points="318,-76.5 318,-95.5 420,-95.5 420,-76.5 318,-76.5"/>
<text text-anchor="middle" x="369" y="-83.5" font-family="Helvetica,sans-Serif" font-size="10.00">efd::NDList::Create</text>
</a>
</g>
</g>
<!-- Node4&#45;&gt;Node5 -->
<g id="edge5" class="edge"><title>Node4&#45;&gt;Node5</title>
<path fill="none" stroke="midnightblue" d="M261.879,-86C276.472,-86 292.552,-86 307.687,-86"/>
<polygon fill="midnightblue" stroke="midnightblue" points="307.983,-89.5001 317.983,-86 307.983,-82.5001 307.983,-89.5001"/>
</g>
<!-- Node6 -->
<g id="node7" class="node"><title>Node6</title>
<g id="a_node7"><a xlink:href="../../d4/deb/namespaceefd.xhtml#a3fd26bc2a0a0c6d9948d0d3cef2e1515" target="_top" xlink:title="Returns true if the pointer src is of class TargetTy. ">
<polygon fill="none" stroke="black" points="480,-38.5 480,-57.5 563,-57.5 563,-38.5 480,-38.5"/>
<text text-anchor="middle" x="521.5" y="-45.5" font-family="Helvetica,sans-Serif" font-size="10.00">efd::instanceOf</text>
</a>
</g>
</g>
<!-- Node5&#45;&gt;Node6 -->
<g id="edge6" class="edge"><title>Node5&#45;&gt;Node6</title>
<path fill="none" stroke="midnightblue" d="M407.978,-76.411C427.659,-71.4417 451.891,-65.3233 472.821,-60.0387"/>
<polygon fill="midnightblue" stroke="midnightblue" points="473.957,-63.3617 482.796,-57.5201 472.243,-56.5747 473.957,-63.3617"/>
</g>
<!-- Node7 -->
<g id="node8" class="node"><title>Node7</title>
<g id="a_node8"><a xlink:href="../../da/ddd/classefd_1_1NDList.xhtml#a2642c91fda9d33512d1aa1aa7851b6bd" target="_top" xlink:title="efd::NDList::NDList">
<polygon fill="none" stroke="black" points="469.5,-76.5 469.5,-95.5 573.5,-95.5 573.5,-76.5 469.5,-76.5"/>
<text text-anchor="middle" x="521.5" y="-83.5" font-family="Helvetica,sans-Serif" font-size="10.00">efd::NDList::NDList</text>
</a>
</g>
</g>
<!-- Node5&#45;&gt;Node7 -->
<g id="edge7" class="edge"><title>Node5&#45;&gt;Node7</title>
<path fill="none" stroke="midnightblue" d="M420.114,-86C432.597,-86 446.121,-86 459.08,-86"/>
<polygon fill="midnightblue" stroke="midnightblue" points="459.32,-89.5001 469.32,-86 459.319,-82.5001 459.32,-89.5001"/>
</g>
<!-- Node8 -->
<g id="node9" class="node"><title>Node8</title>
<g id="a_node9"><a xlink:href="../../d6/d6a/classefd_1_1Node.xhtml#a09ac8cdf7898a3d17293d92ae956eece" target="_top" xlink:title="Constructs the node, initially empty (with no information). ">
<polygon fill="none" stroke="black" points="611,-95.5 611,-114.5 700,-114.5 700,-95.5 611,-95.5"/>
<text text-anchor="middle" x="655.5" y="-102.5" font-family="Helvetica,sans-Serif" font-size="10.00">efd::Node::Node</text>
</a>
</g>
</g>
<!-- Node7&#45;&gt;Node8 -->
<g id="edge8" class="edge"><title>Node7&#45;&gt;Node8</title>
<path fill="none" stroke="midnightblue" d="M573.535,-93.3459C582.496,-94.6357 591.845,-95.9815 600.874,-97.2811"/>
<polygon fill="midnightblue" stroke="midnightblue" points="600.497,-100.763 610.894,-98.7234 601.495,-93.8343 600.497,-100.763"/>
</g>
<!-- Node10 -->
<g id="node11" class="node"><title>Node10</title>
<g id="a_node11"><a xlink:href="../../d4/deb/namespaceefd.xhtml#a2cef687225e13315fc282dc40b5a6909" target="_top" xlink:title="Returns src cast to TargetTy, iff it is of class TargetTy, otherwise it will return nullptr...">
<polygon fill="none" stroke="black" points="332.5,-0.5 332.5,-19.5 405.5,-19.5 405.5,-0.5 332.5,-0.5"/>
<text text-anchor="middle" x="369" y="-7.5" font-family="Helvetica,sans-Serif" font-size="10.00">efd::dynCast</text>
</a>
</g>
</g>
<!-- Node9&#45;&gt;Node10 -->
<g id="edge10" class="edge"><title>Node9&#45;&gt;Node10</title>
<path fill="none" stroke="midnightblue" d="M270.22,-10C287.296,-10 305.697,-10 321.879,-10"/>
<polygon fill="midnightblue" stroke="midnightblue" points="322.157,-13.5001 332.157,-10 322.157,-6.5001 322.157,-13.5001"/>
</g>
<!-- Node11&#45;&gt;Node2 -->
<g id="edge12" class="edge"><title>Node11&#45;&gt;Node2</title>
<path fill="none" stroke="midnightblue" d="M432.083,-169.838C440.488,-170.899 449.118,-171.988 457.538,-173.051"/>
<polygon fill="midnightblue" stroke="midnightblue" points="457.314,-176.551 467.674,-174.331 458.191,-169.606 457.314,-176.551"/>
</g>
<!-- Node12&#45;&gt;Node8 -->
<g id="edge15" class="edge"><title>Node12&#45;&gt;Node8</title>
<path fill="none" stroke="midnightblue" d="M267.158,-121.613C352.82,-117.939 515.916,-110.944 600.541,-107.314"/>
<polygon fill="midnightblue" stroke="midnightblue" points="600.869,-110.804 610.709,-106.878 600.569,-103.81 600.869,-110.804"/>
</g>
<!-- Node12&#45;&gt;Node11 -->
<g id="edge14" class="edge"><title>Node12&#45;&gt;Node11</title>
<path fill="none" stroke="midnightblue" d="M250.992,-133.589C271.643,-138.604 297.114,-144.788 319.012,-150.105"/>
<polygon fill="midnightblue" stroke="midnightblue" points="318.249,-153.521 328.792,-152.48 319.901,-146.719 318.249,-153.521"/>
</g>
</g>
</svg>
