<?xml version="1.0" encoding="UTF-8" standalone="no"?>
<!DOCTYPE svg PUBLIC "-//W3C//DTD SVG 1.1//EN"
 "http://www.w3.org/Graphics/SVG/1.1/DTD/svg11.dtd">
<!-- Generated by graphviz version 2.38.0 (20140413.2041)
 -->
<!-- Title: efd::NDQOpMeasure::cloneImpl Pages: 1 -->
<svg width="1010pt" height="227pt"
 viewBox="0.00 0.00 1010.00 226.50" xmlns="http://www.w3.org/2000/svg" xmlns:xlink="http://www.w3.org/1999/xlink">
<g id="graph0" class="graph" transform="scale(1 1) rotate(0) translate(4 222.5)">
<title>efd::NDQOpMeasure::cloneImpl</title>
<!-- Node17 -->
<g id="node1" class="node"><title>Node17</title>
<polygon fill="#bfbfbf" stroke="black" points="0,-73.5 0,-103.5 115,-103.5 115,-73.5 0,-73.5"/>
<text text-anchor="start" x="8" y="-91.5" font-family="Helvetica,sans-Serif" font-size="10.00">efd::NDQOpMeasure::</text>
<text text-anchor="middle" x="57.5" y="-80.5" font-family="Helvetica,sans-Serif" font-size="10.00">cloneImpl</text>
</g>
<!-- Node18 -->
<g id="node2" class="node"><title>Node18</title>
<g id="a_node2"><a xlink:href="../../d6/d6a/classefd_1_1Node.xhtml#a6c85c9bd21014b73497de741cc75f706" target="_top" xlink:title="Clones the current node (deep copy). ">
<polygon fill="none" stroke="black" points="164,-148 164,-167 253,-167 253,-148 164,-148"/>
<text text-anchor="middle" x="208.5" y="-155" font-family="Helvetica,sans-Serif" font-size="10.00">efd::Node::clone</text>
</a>
</g>
</g>
<!-- Node17&#45;&gt;Node18 -->
<g id="edge1" class="edge"><title>Node17&#45;&gt;Node18</title>
<path fill="none" stroke="midnightblue" d="M84.7045,-103.709C102.951,-113.967 128.037,-127.419 151,-137.5 156.493,-139.912 162.378,-142.251 168.199,-144.43"/>
<polygon fill="midnightblue" stroke="midnightblue" points="167.262,-147.812 177.856,-147.926 169.645,-141.231 167.262,-147.812"/>
</g>
<!-- Node20 -->
<g id="node4" class="node"><title>Node20</title>
<g id="a_node4"><a xlink:href="../../d4/d64/classefd_1_1NDQOpMeasure.xhtml#ab696e3c3f4463ad2a126a1b335e5baca" target="_top" xlink:title="Creates a new instance of this node. ">
<polygon fill="none" stroke="black" points="151,-98.5 151,-128.5 266,-128.5 266,-98.5 151,-98.5"/>
<text text-anchor="start" x="159" y="-116.5" font-family="Helvetica,sans-Serif" font-size="10.00">efd::NDQOpMeasure::</text>
<text text-anchor="middle" x="208.5" y="-105.5" font-family="Helvetica,sans-Serif" font-size="10.00">Create</text>
</a>
</g>
</g>
<!-- Node17&#45;&gt;Node20 -->
<g id="edge3" class="edge"><title>Node17&#45;&gt;Node20</title>
<path fill="none" stroke="midnightblue" d="M115.256,-98.0227C123.649,-99.4311 132.362,-100.893 140.933,-102.331"/>
<polygon fill="midnightblue" stroke="midnightblue" points="140.461,-105.801 150.902,-104.004 141.619,-98.8972 140.461,-105.801"/>
</g>
<!-- Node34 -->
<g id="node18" class="node"><title>Node34</title>
<g id="a_node18"><a xlink:href="../../d4/d64/classefd_1_1NDQOpMeasure.xhtml#addcc5fd8d95d5790f75b643e88e76c7e" target="_top" xlink:title="Gets the cbit node. ">
<polygon fill="none" stroke="black" points="151,-49.5 151,-79.5 266,-79.5 266,-49.5 151,-49.5"/>
<text text-anchor="start" x="159" y="-67.5" font-family="Helvetica,sans-Serif" font-size="10.00">efd::NDQOpMeasure::</text>
<text text-anchor="middle" x="208.5" y="-56.5" font-family="Helvetica,sans-Serif" font-size="10.00">getCBit</text>
</a>
</g>
</g>
<!-- Node17&#45;&gt;Node34 -->
<g id="edge20" class="edge"><title>Node17&#45;&gt;Node34</title>
<path fill="none" stroke="midnightblue" d="M115.256,-79.3582C123.649,-78.0062 132.362,-76.6028 140.933,-75.2222"/>
<polygon fill="midnightblue" stroke="midnightblue" points="141.586,-78.6622 150.902,-73.6164 140.473,-71.7513 141.586,-78.6622"/>
</g>
<!-- Node35 -->
<g id="node19" class="node"><title>Node35</title>
<g id="a_node19"><a xlink:href="../../d4/d64/classefd_1_1NDQOpMeasure.xhtml#a96d21c24df543013ac4e88f537d40c9b" target="_top" xlink:title="Gets the qbit node. ">
<polygon fill="none" stroke="black" points="151,-0.5 151,-30.5 266,-30.5 266,-0.5 151,-0.5"/>
<text text-anchor="start" x="159" y="-18.5" font-family="Helvetica,sans-Serif" font-size="10.00">efd::NDQOpMeasure::</text>
<text text-anchor="middle" x="208.5" y="-7.5" font-family="Helvetica,sans-Serif" font-size="10.00">getQBit</text>
</a>
</g>
</g>
<!-- Node17&#45;&gt;Node35 -->
<g id="edge21" class="edge"><title>Node17&#45;&gt;Node35</title>
<path fill="none" stroke="midnightblue" d="M85.7104,-73.2983C103.974,-63.2909 128.685,-50.1259 151,-39.5 154.374,-37.8935 157.883,-36.2768 161.428,-34.6829"/>
<polygon fill="midnightblue" stroke="midnightblue" points="163.087,-37.7768 170.824,-30.5396 160.262,-31.3718 163.087,-37.7768"/>
</g>
<!-- Node19 -->
<g id="node3" class="node"><title>Node19</title>
<g id="a_node3"><a xlink:href="../../d6/d6a/classefd_1_1Node.xhtml#ac078ce64eb404cfdc24b9288908536e4" target="_top" xlink:title="Clones the current node (deep copy). ">
<polygon fill="none" stroke="black" points="306,-148 306,-167 413,-167 413,-148 306,-148"/>
<text text-anchor="middle" x="359.5" y="-155" font-family="Helvetica,sans-Serif" font-size="10.00">efd::Node::cloneImpl</text>
</a>
</g>
</g>
<!-- Node18&#45;&gt;Node19 -->
<g id="edge2" class="edge"><title>Node18&#45;&gt;Node19</title>
<path fill="none" stroke="midnightblue" d="M253.399,-157.5C266.662,-157.5 281.49,-157.5 295.732,-157.5"/>
<polygon fill="midnightblue" stroke="midnightblue" points="295.968,-161 305.968,-157.5 295.968,-154 295.968,-161"/>
</g>
<!-- Node21 -->
<g id="node5" class="node"><title>Node21</title>
<g id="a_node5"><a xlink:href="../../d4/d64/classefd_1_1NDQOpMeasure.xhtml#a86ebc66bcdc566301ba4e5bf1abef777" target="_top" xlink:title="efd::NDQOpMeasure::\lNDQOpMeasure">
<polygon fill="none" stroke="black" points="302,-98.5 302,-128.5 417,-128.5 417,-98.5 302,-98.5"/>
<text text-anchor="start" x="310" y="-116.5" font-family="Helvetica,sans-Serif" font-size="10.00">efd::NDQOpMeasure::</text>
<text text-anchor="middle" x="359.5" y="-105.5" font-family="Helvetica,sans-Serif" font-size="10.00">NDQOpMeasure</text>
</a>
</g>
</g>
<!-- Node20&#45;&gt;Node21 -->
<g id="edge4" class="edge"><title>Node20&#45;&gt;Node21</title>
<path fill="none" stroke="midnightblue" d="M266.256,-113.5C274.558,-113.5 283.173,-113.5 291.654,-113.5"/>
<polygon fill="midnightblue" stroke="midnightblue" points="291.902,-117 301.902,-113.5 291.902,-110 291.902,-117"/>
</g>
<!-- Node22 -->
<g id="node6" class="node"><title>Node22</title>
<g id="a_node6"><a xlink:href="../../da/ddd/classefd_1_1NDList.xhtml#a664c2f4a60746612062d7b112ff9842e" target="_top" xlink:title="Appends a child to the end of the list. ">
<polygon fill="none" stroke="black" points="615.5,-199 615.5,-218 726.5,-218 726.5,-199 615.5,-199"/>
<text text-anchor="middle" x="671" y="-206" font-family="Helvetica,sans-Serif" font-size="10.00">efd::NDList::addChild</text>
</a>
</g>
</g>
<!-- Node21&#45;&gt;Node22 -->
<g id="edge5" class="edge"><title>Node21&#45;&gt;Node22</title>
<path fill="none" stroke="midnightblue" d="M399.809,-128.624C405.768,-131.554 411.692,-134.861 417,-138.5 435.663,-151.295 432.83,-164.244 453,-174.5 500.302,-198.552 560.301,-206.502 605.214,-208.748"/>
<polygon fill="midnightblue" stroke="midnightblue" points="605.285,-212.254 615.422,-209.174 605.577,-205.26 605.285,-212.254"/>
</g>
<!-- Node24 -->
<g id="node8" class="node"><title>Node24</title>
<g id="a_node8"><a xlink:href="../../df/d1b/classefd_1_1NDValue.xhtml#a96ab9dcd008523aa2f4cfc2eb95d7178" target="_top" xlink:title="Creates a new instance of this node. ">
<polygon fill="none" stroke="black" points="457,-47 457,-66 568,-66 568,-47 457,-47"/>
<text text-anchor="middle" x="512.5" y="-54" font-family="Helvetica,sans-Serif" font-size="10.00">efd::NDValue::Create</text>
</a>
</g>
</g>
<!-- Node21&#45;&gt;Node24 -->
<g id="edge7" class="edge"><title>Node21&#45;&gt;Node24</title>
<path fill="none" stroke="midnightblue" d="M395.394,-98.434C412.614,-91.1869 433.769,-82.5616 453,-75.5 458.715,-73.4013 464.787,-71.2951 470.772,-69.2886"/>
<polygon fill="midnightblue" stroke="midnightblue" points="472.281,-72.4766 480.685,-66.0252 470.092,-65.8276 472.281,-72.4766"/>
</g>
<!-- Node25 -->
<g id="node9" class="node"><title>Node25</title>
<g id="a_node9"><a xlink:href="../../da/ddd/classefd_1_1NDList.xhtml#a5e3e2ab6234caa816599eb51766210b7" target="_top" xlink:title="Creates a new instance of this node with the kind K_LIST. ">
<polygon fill="none" stroke="black" points="461.5,-85 461.5,-104 563.5,-104 563.5,-85 461.5,-85"/>
<text text-anchor="middle" x="512.5" y="-92" font-family="Helvetica,sans-Serif" font-size="10.00">efd::NDList::Create</text>
</a>
</g>
</g>
<!-- Node21&#45;&gt;Node25 -->
<g id="edge8" class="edge"><title>Node21&#45;&gt;Node25</title>
<path fill="none" stroke="midnightblue" d="M417.156,-106.371C428.305,-104.968 440.039,-103.492 451.299,-102.075"/>
<polygon fill="midnightblue" stroke="midnightblue" points="451.992,-105.515 461.476,-100.794 451.118,-98.5703 451.992,-105.515"/>
</g>
<!-- Node30 -->
<g id="node14" class="node"><title>Node30</title>
<g id="a_node14"><a xlink:href="../../dd/d94/classefd_1_1NDQOp.xhtml#af7ef43289355c5bb047a46419177c8ed" target="_top" xlink:title="Gets the quantum arguments. ">
<polygon fill="none" stroke="black" points="453,-9 453,-28 572,-28 572,-9 453,-9"/>
<text text-anchor="middle" x="512.5" y="-16" font-family="Helvetica,sans-Serif" font-size="10.00">efd::NDQOp::getQArgs</text>
</a>
</g>
</g>
<!-- Node21&#45;&gt;Node30 -->
<g id="edge13" class="edge"><title>Node21&#45;&gt;Node30</title>
<path fill="none" stroke="midnightblue" d="M375.227,-98.3737C392.467,-81.4318 422.555,-54.1685 453,-37.5 456.953,-35.3358 461.193,-33.3688 465.517,-31.5927"/>
<polygon fill="midnightblue" stroke="midnightblue" points="466.914,-34.8064 475.04,-28.0074 464.448,-28.2554 466.914,-34.8064"/>
</g>
<!-- Node32 -->
<g id="node16" class="node"><title>Node32</title>
<g id="a_node16"><a xlink:href="../../d6/d6a/classefd_1_1Node.xhtml#a8ac8c3206c6f6817a8c8e515ac830f61" target="_top" xlink:title="Adds a child to this node. It should be used only for construction of each derived class...">
<polygon fill="none" stroke="black" points="608,-161 608,-180 734,-180 734,-161 608,-161"/>
<text text-anchor="middle" x="671" y="-168" font-family="Helvetica,sans-Serif" font-size="10.00">efd::Node::innerAddChild</text>
</a>
</g>
</g>
<!-- Node21&#45;&gt;Node32 -->
<g id="edge15" class="edge"><title>Node21&#45;&gt;Node32</title>
<path fill="none" stroke="midnightblue" d="M394.389,-128.678C415.766,-138.004 441.444,-148.69 453,-151.5 500.457,-163.041 555.258,-167.773 597.916,-169.629"/>
<polygon fill="midnightblue" stroke="midnightblue" points="597.801,-173.127 607.931,-170.022 598.076,-166.133 597.801,-173.127"/>
</g>
<!-- Node33 -->
<g id="node17" class="node"><title>Node33</title>
<g id="a_node17"><a xlink:href="../../dd/d94/classefd_1_1NDQOp.xhtml#ab5f18eaba71bcb53806525fd5dc61403" target="_top" xlink:title="efd::NDQOp::NDQOp">
<polygon fill="none" stroke="black" points="456,-123 456,-142 569,-142 569,-123 456,-123"/>
<text text-anchor="middle" x="512.5" y="-130" font-family="Helvetica,sans-Serif" font-size="10.00">efd::NDQOp::NDQOp</text>
</a>
</g>
</g>
<!-- Node21&#45;&gt;Node33 -->
<g id="edge17" class="edge"><title>Node21&#45;&gt;Node33</title>
<path fill="none" stroke="midnightblue" d="M417.156,-120.629C426.436,-121.797 436.122,-123.015 445.602,-124.208"/>
<polygon fill="midnightblue" stroke="midnightblue" points="445.421,-127.713 455.78,-125.489 446.295,-120.768 445.421,-127.713"/>
</g>
<!-- Node23 -->
<g id="node7" class="node"><title>Node23</title>
<g id="a_node7"><a xlink:href="../../d6/d6a/classefd_1_1Node.xhtml#a48e9d49d994b9023b8400316e2782e2b" target="_top" xlink:title="Sets the parent node of the current node. ">
<polygon fill="none" stroke="black" points="770,-180 770,-199 877,-199 877,-180 770,-180"/>
<text text-anchor="middle" x="823.5" y="-187" font-family="Helvetica,sans-Serif" font-size="10.00">efd::Node::setParent</text>
</a>
</g>
</g>
<!-- Node22&#45;&gt;Node23 -->
<g id="edge6" class="edge"><title>Node22&#45;&gt;Node23</title>
<path fill="none" stroke="midnightblue" d="M726.76,-201.587C737.506,-200.23 748.855,-198.797 759.837,-197.411"/>
<polygon fill="midnightblue" stroke="midnightblue" points="760.308,-200.879 769.791,-196.154 759.431,-193.935 760.308,-200.879"/>
</g>
<!-- Node26 -->
<g id="node10" class="node"><title>Node26</title>
<g id="a_node10"><a xlink:href="../../da/ddd/classefd_1_1NDList.xhtml#a63e0eab4abb59c1c0783f90afe0bb3bb" target="_top" xlink:title="Creates a new instance of this node with a specific k. ">
<polygon fill="none" stroke="black" points="620,-85 620,-104 722,-104 722,-85 620,-85"/>
<text text-anchor="middle" x="671" y="-92" font-family="Helvetica,sans-Serif" font-size="10.00">efd::NDList::Create</text>
</a>
</g>
</g>
<!-- Node25&#45;&gt;Node26 -->
<g id="edge9" class="edge"><title>Node25&#45;&gt;Node26</title>
<path fill="none" stroke="midnightblue" d="M563.879,-94.5C578.472,-94.5 594.552,-94.5 609.687,-94.5"/>
<polygon fill="midnightblue" stroke="midnightblue" points="609.983,-98.0001 619.983,-94.5 609.983,-91.0001 609.983,-98.0001"/>
</g>
<!-- Node27 -->
<g id="node11" class="node"><title>Node27</title>
<g id="a_node11"><a xlink:href="../../d4/deb/namespaceefd.xhtml#a3fd26bc2a0a0c6d9948d0d3cef2e1515" target="_top" xlink:title="Returns true if the pointer src is of class TargetTy. ">
<polygon fill="none" stroke="black" points="782,-47 782,-66 865,-66 865,-47 782,-47"/>
<text text-anchor="middle" x="823.5" y="-54" font-family="Helvetica,sans-Serif" font-size="10.00">efd::instanceOf</text>
</a>
</g>
</g>
<!-- Node26&#45;&gt;Node27 -->
<g id="edge10" class="edge"><title>Node26&#45;&gt;Node27</title>
<path fill="none" stroke="midnightblue" d="M709.978,-84.911C729.659,-79.9417 753.891,-73.8233 774.821,-68.5387"/>
<polygon fill="midnightblue" stroke="midnightblue" points="775.957,-71.8617 784.796,-66.0201 774.243,-65.0747 775.957,-71.8617"/>
</g>
<!-- Node28 -->
<g id="node12" class="node"><title>Node28</title>
<g id="a_node12"><a xlink:href="../../da/ddd/classefd_1_1NDList.xhtml#a2642c91fda9d33512d1aa1aa7851b6bd" target="_top" xlink:title="efd::NDList::NDList">
<polygon fill="none" stroke="black" points="771.5,-85 771.5,-104 875.5,-104 875.5,-85 771.5,-85"/>
<text text-anchor="middle" x="823.5" y="-92" font-family="Helvetica,sans-Serif" font-size="10.00">efd::NDList::NDList</text>
</a>
</g>
</g>
<!-- Node26&#45;&gt;Node28 -->
<g id="edge11" class="edge"><title>Node26&#45;&gt;Node28</title>
<path fill="none" stroke="midnightblue" d="M722.114,-94.5C734.597,-94.5 748.121,-94.5 761.08,-94.5"/>
<polygon fill="midnightblue" stroke="midnightblue" points="761.32,-98.0001 771.32,-94.5 761.319,-91.0001 761.32,-98.0001"/>
</g>
<!-- Node29 -->
<g id="node13" class="node"><title>Node29</title>
<g id="a_node13"><a xlink:href="../../d6/d6a/classefd_1_1Node.xhtml#a09ac8cdf7898a3d17293d92ae956eece" target="_top" xlink:title="Constructs the node, initially empty (with no information). ">
<polygon fill="none" stroke="black" points="913,-104 913,-123 1002,-123 1002,-104 913,-104"/>
<text text-anchor="middle" x="957.5" y="-111" font-family="Helvetica,sans-Serif" font-size="10.00">efd::Node::Node</text>
</a>
</g>
</g>
<!-- Node28&#45;&gt;Node29 -->
<g id="edge12" class="edge"><title>Node28&#45;&gt;Node29</title>
<path fill="none" stroke="midnightblue" d="M875.535,-101.846C884.496,-103.136 893.845,-104.481 902.874,-105.781"/>
<polygon fill="midnightblue" stroke="midnightblue" points="902.497,-109.263 912.894,-107.223 903.495,-102.334 902.497,-109.263"/>
</g>
<!-- Node31 -->
<g id="node15" class="node"><title>Node31</title>
<g id="a_node15"><a xlink:href="../../d4/deb/namespaceefd.xhtml#a2cef687225e13315fc282dc40b5a6909" target="_top" xlink:title="Returns src cast to TargetTy, iff it is of class TargetTy, otherwise it will return nullptr...">
<polygon fill="none" stroke="black" points="634.5,-9 634.5,-28 707.5,-28 707.5,-9 634.5,-9"/>
<text text-anchor="middle" x="671" y="-16" font-family="Helvetica,sans-Serif" font-size="10.00">efd::dynCast</text>
</a>
</g>
</g>
<!-- Node30&#45;&gt;Node31 -->
<g id="edge14" class="edge"><title>Node30&#45;&gt;Node31</title>
<path fill="none" stroke="midnightblue" d="M572.22,-18.5C589.296,-18.5 607.697,-18.5 623.879,-18.5"/>
<polygon fill="midnightblue" stroke="midnightblue" points="624.157,-22.0001 634.157,-18.5 624.157,-15.0001 624.157,-22.0001"/>
</g>
<!-- Node32&#45;&gt;Node23 -->
<g id="edge16" class="edge"><title>Node32&#45;&gt;Node23</title>
<path fill="none" stroke="midnightblue" d="M734.083,-178.338C742.488,-179.399 751.118,-180.488 759.538,-181.551"/>
<polygon fill="midnightblue" stroke="midnightblue" points="759.314,-185.051 769.674,-182.831 760.191,-178.106 759.314,-185.051"/>
</g>
<!-- Node33&#45;&gt;Node29 -->
<g id="edge19" class="edge"><title>Node33&#45;&gt;Node29</title>
<path fill="none" stroke="midnightblue" d="M569.158,-130.113C654.82,-126.439 817.916,-119.444 902.541,-115.814"/>
<polygon fill="midnightblue" stroke="midnightblue" points="902.869,-119.304 912.709,-115.378 902.569,-112.31 902.869,-119.304"/>
</g>
<!-- Node33&#45;&gt;Node32 -->
<g id="edge18" class="edge"><title>Node33&#45;&gt;Node32</title>
<path fill="none" stroke="midnightblue" d="M552.992,-142.089C573.643,-147.104 599.114,-153.288 621.012,-158.605"/>
<polygon fill="midnightblue" stroke="midnightblue" points="620.249,-162.021 630.792,-160.98 621.901,-155.219 620.249,-162.021"/>
</g>
<!-- Node36 -->
<g id="node20" class="node"><title>Node36</title>
<g id="a_node20"><a xlink:href="../../d6/d6a/classefd_1_1Node.xhtml#a63e30243eca03b0c85d8c4856e91c79d" target="_top" xlink:title="Gets the i&#45;th child. ">
<polygon fill="none" stroke="black" points="309,-6 309,-25 410,-25 410,-6 309,-6"/>
<text text-anchor="middle" x="359.5" y="-13" font-family="Helvetica,sans-Serif" font-size="10.00">efd::Node::getChild</text>
</a>
</g>
</g>
<!-- Node35&#45;&gt;Node36 -->
<g id="edge22" class="edge"><title>Node35&#45;&gt;Node36</title>
<path fill="none" stroke="midnightblue" d="M266.256,-15.5C276.851,-15.5 287.954,-15.5 298.639,-15.5"/>
<polygon fill="midnightblue" stroke="midnightblue" points="298.725,-19.0001 308.725,-15.5 298.725,-12.0001 298.725,-19.0001"/>
</g>
</g>
</svg>
