<?xml version="1.0" encoding="UTF-8" standalone="no"?>
<!DOCTYPE svg PUBLIC "-//W3C//DTD SVG 1.1//EN"
 "http://www.w3.org/Graphics/SVG/1.1/DTD/svg11.dtd">
<!-- Generated by graphviz version 2.38.0 (20140413.2041)
 -->
<!-- Title: efd::NDUnaryOp Pages: 1 -->
<svg width="141pt" height="85pt"
 viewBox="0.00 0.00 140.50 85.00" xmlns="http://www.w3.org/2000/svg" xmlns:xlink="http://www.w3.org/1999/xlink">
<g id="graph0" class="graph" transform="scale(1 1) rotate(0) translate(4 81)">
<title>efd::NDUnaryOp</title>
<!-- Node2 -->
<g id="node1" class="node"><title>Node2</title>
<polygon fill="#bfbfbf" stroke="black" points="0,-0.5 0,-19.5 90,-19.5 90,-0.5 0,-0.5"/>
<text text-anchor="middle" x="45" y="-7.5" font-family="Helvetica,sans-Serif" font-size="10.00">efd::NDUnaryOp</text>
</g>
<!-- Node3 -->
<g id="node2" class="node"><title>Node3</title>
<g id="a_node2"><a xlink:href="../../d6/d6a/classefd_1_1Node.xhtml" target="_top" xlink:title="Base class for AST nodes. ">
<polygon fill="none" stroke="black" points="15.5,-57.5 15.5,-76.5 74.5,-76.5 74.5,-57.5 15.5,-57.5"/>
<text text-anchor="middle" x="45" y="-64.5" font-family="Helvetica,sans-Serif" font-size="10.00">efd::Node</text>
</a>
</g>
</g>
<!-- Node3&#45;&gt;Node2 -->
<g id="edge1" class="edge"><title>Node3&#45;&gt;Node2</title>
<path fill="none" stroke="midnightblue" d="M45,-47.1166C45,-37.8173 45,-27.0557 45,-19.7149"/>
<polygon fill="midnightblue" stroke="midnightblue" points="41.5001,-47.4062 45,-57.4062 48.5001,-47.4063 41.5001,-47.4062"/>
</g>
<!-- Node3&#45;&gt;Node3 -->
<g id="edge2" class="edge"><title>Node3&#45;&gt;Node3</title>
<path fill="none" stroke="#9a32cd" stroke-dasharray="5,2" d="M84.6722,-71.5117C89.4076,-70.6914 92.5,-69.1875 92.5,-67 92.5,-63.5 84.5833,-61.75 74.6875,-61.75"/>
<polygon fill="#9a32cd" stroke="#9a32cd" points="84.4022,-68.022 74.6875,-72.25 84.9184,-75.003 84.4022,-68.022"/>
<text text-anchor="middle" x="112.5" y="-64.5" font-family="Helvetica,sans-Serif" font-size="10.00"> mParent</text>
</g>
</g>
</svg>
