<?xml version="1.0" encoding="UTF-8" standalone="no"?>
<!DOCTYPE svg PUBLIC "-//W3C//DTD SVG 1.1//EN"
 "http://www.w3.org/Graphics/SVG/1.1/DTD/svg11.dtd">
<!-- Generated by graphviz version 2.38.0 (20140413.2041)
 -->
<!-- Title: efd::NDQOpBarrier Pages: 1 -->
<svg width="146pt" height="142pt"
 viewBox="0.00 0.00 145.50 142.00" xmlns="http://www.w3.org/2000/svg" xmlns:xlink="http://www.w3.org/1999/xlink">
<g id="graph0" class="graph" transform="scale(1 1) rotate(0) translate(4 138)">
<title>efd::NDQOpBarrier</title>
<!-- Node3 -->
<g id="node1" class="node"><title>Node3</title>
<polygon fill="#bfbfbf" stroke="black" points="0,-0.5 0,-19.5 100,-19.5 100,-0.5 0,-0.5"/>
<text text-anchor="middle" x="50" y="-7.5" font-family="Helvetica,sans-Serif" font-size="10.00">efd::NDQOpBarrier</text>
</g>
<!-- Node4 -->
<g id="node2" class="node"><title>Node4</title>
<g id="a_node2"><a xlink:href="../../dd/d94/classefd_1_1NDQOp.xhtml" target="_top" xlink:title="Generic node for quantum operations. This is also the base node for the other quantum gates...">
<polygon fill="none" stroke="black" points="14.5,-57.5 14.5,-76.5 85.5,-76.5 85.5,-57.5 14.5,-57.5"/>
<text text-anchor="middle" x="50" y="-64.5" font-family="Helvetica,sans-Serif" font-size="10.00">efd::NDQOp</text>
</a>
</g>
</g>
<!-- Node4&#45;&gt;Node3 -->
<g id="edge1" class="edge"><title>Node4&#45;&gt;Node3</title>
<path fill="none" stroke="midnightblue" d="M50,-47.1166C50,-37.8173 50,-27.0557 50,-19.7149"/>
<polygon fill="midnightblue" stroke="midnightblue" points="46.5001,-47.4062 50,-57.4062 53.5001,-47.4063 46.5001,-47.4062"/>
</g>
<!-- Node5 -->
<g id="node3" class="node"><title>Node5</title>
<g id="a_node3"><a xlink:href="../../d6/d6a/classefd_1_1Node.xhtml" target="_top" xlink:title="Base class for AST nodes. ">
<polygon fill="none" stroke="black" points="20.5,-114.5 20.5,-133.5 79.5,-133.5 79.5,-114.5 20.5,-114.5"/>
<text text-anchor="middle" x="50" y="-121.5" font-family="Helvetica,sans-Serif" font-size="10.00">efd::Node</text>
</a>
</g>
</g>
<!-- Node5&#45;&gt;Node4 -->
<g id="edge2" class="edge"><title>Node5&#45;&gt;Node4</title>
<path fill="none" stroke="midnightblue" d="M50,-104.117C50,-94.8173 50,-84.0557 50,-76.7149"/>
<polygon fill="midnightblue" stroke="midnightblue" points="46.5001,-104.406 50,-114.406 53.5001,-104.406 46.5001,-104.406"/>
</g>
<!-- Node5&#45;&gt;Node5 -->
<g id="edge3" class="edge"><title>Node5&#45;&gt;Node5</title>
<path fill="none" stroke="#9a32cd" stroke-dasharray="5,2" d="M89.6722,-128.512C94.4076,-127.691 97.5,-126.188 97.5,-124 97.5,-120.5 89.5833,-118.75 79.6875,-118.75"/>
<polygon fill="#9a32cd" stroke="#9a32cd" points="89.4022,-125.022 79.6875,-129.25 89.9184,-132.003 89.4022,-125.022"/>
<text text-anchor="middle" x="117.5" y="-121.5" font-family="Helvetica,sans-Serif" font-size="10.00"> mParent</text>
</g>
</g>
</svg>
