<?xml version="1.0" encoding="UTF-8" standalone="no"?>
<!DOCTYPE svg PUBLIC "-//W3C//DTD SVG 1.1//EN"
 "http://www.w3.org/Graphics/SVG/1.1/DTD/svg11.dtd">
<!-- Generated by graphviz version 2.38.0 (20140413.2041)
 -->
<!-- Title: include/enfield/Support/uRefCast.h Pages: 1 -->
<svg width="1326pt" height="106pt"
 viewBox="0.00 0.00 1325.50 106.00" xmlns="http://www.w3.org/2000/svg" xmlns:xlink="http://www.w3.org/1999/xlink">
<g id="graph0" class="graph" transform="scale(1 1) rotate(0) translate(4 102)">
<title>include/enfield/Support/uRefCast.h</title>
<!-- Node4 -->
<g id="node1" class="node"><title>Node4</title>
<polygon fill="#bfbfbf" stroke="black" points="620.5,-67.5 620.5,-97.5 736.5,-97.5 736.5,-67.5 620.5,-67.5"/>
<text text-anchor="start" x="628.5" y="-85.5" font-family="Helvetica,sans-Serif" font-size="10.00">include/enfield/Support</text>
<text text-anchor="middle" x="678.5" y="-74.5" font-family="Helvetica,sans-Serif" font-size="10.00">/uRefCast.h</text>
</g>
<!-- Node5 -->
<g id="node2" class="node"><title>Node5</title>
<g id="a_node2"><a xlink:href="../../d1/d89/Nodes_8cpp.xhtml" target="_top" xlink:title="lib/Analysis/Nodes.cpp">
<polygon fill="none" stroke="black" points="0,-6 0,-25 117,-25 117,-6 0,-6"/>
<text text-anchor="middle" x="58.5" y="-13" font-family="Helvetica,sans-Serif" font-size="10.00">lib/Analysis/Nodes.cpp</text>
</a>
</g>
</g>
<!-- Node4&#45;&gt;Node5 -->
<g id="edge1" class="edge"><title>Node4&#45;&gt;Node5</title>
<path fill="none" stroke="midnightblue" d="M610.1,-77.8642C505.475,-71.7126 299.605,-57.2792 126.5,-31 116.117,-29.4238 104.938,-27.2442 94.7026,-25.0535"/>
<polygon fill="midnightblue" stroke="midnightblue" points="610.024,-81.3656 620.21,-78.4513 610.43,-74.3774 610.024,-81.3656"/>
</g>
<!-- Node6 -->
<g id="node3" class="node"><title>Node6</title>
<g id="a_node3"><a xlink:href="../../d0/d91/QbitAllocator_8cpp.xhtml" target="_top" xlink:title="lib/Transform/Allocators\l/QbitAllocator.cpp">
<polygon fill="none" stroke="black" points="135.5,-0.5 135.5,-30.5 255.5,-30.5 255.5,-0.5 135.5,-0.5"/>
<text text-anchor="start" x="143.5" y="-18.5" font-family="Helvetica,sans-Serif" font-size="10.00">lib/Transform/Allocators</text>
<text text-anchor="middle" x="195.5" y="-7.5" font-family="Helvetica,sans-Serif" font-size="10.00">/QbitAllocator.cpp</text>
</a>
</g>
</g>
<!-- Node4&#45;&gt;Node6 -->
<g id="edge2" class="edge"><title>Node4&#45;&gt;Node6</title>
<path fill="none" stroke="midnightblue" d="M610.365,-74.9986C528.107,-66.7327 385.703,-51.0893 264.5,-31 261.602,-30.5196 258.64,-30.0019 255.653,-29.458"/>
<polygon fill="midnightblue" stroke="midnightblue" points="610.04,-78.4834 620.338,-75.9942 610.735,-71.5181 610.04,-78.4834"/>
</g>
<!-- Node7 -->
<g id="node4" class="node"><title>Node7</title>
<g id="a_node4"><a xlink:href="../../d9/ddd/WeightedSIMappingFinder_8cpp.xhtml" target="_top" xlink:title="lib/Transform/Allocators\l/WeightedSIMappingFinder.cpp">
<polygon fill="none" stroke="black" points="274,-0.5 274,-30.5 427,-30.5 427,-0.5 274,-0.5"/>
<text text-anchor="start" x="282" y="-18.5" font-family="Helvetica,sans-Serif" font-size="10.00">lib/Transform/Allocators</text>
<text text-anchor="middle" x="350.5" y="-7.5" font-family="Helvetica,sans-Serif" font-size="10.00">/WeightedSIMappingFinder.cpp</text>
</a>
</g>
</g>
<!-- Node4&#45;&gt;Node7 -->
<g id="edge3" class="edge"><title>Node4&#45;&gt;Node7</title>
<path fill="none" stroke="midnightblue" d="M610.185,-67.962C554.9,-57.0061 477.304,-41.6288 421.351,-30.5406"/>
<polygon fill="midnightblue" stroke="midnightblue" points="609.748,-71.4435 620.238,-69.9542 611.109,-64.577 609.748,-71.4435"/>
</g>
<!-- Node8 -->
<g id="node5" class="node"><title>Node8</title>
<g id="a_node5"><a xlink:href="../../de/d1f/FlattenPass_8cpp.xhtml" target="_top" xlink:title="lib/Transform/FlattenPass.cpp">
<polygon fill="none" stroke="black" points="445.5,-6 445.5,-25 593.5,-25 593.5,-6 445.5,-6"/>
<text text-anchor="middle" x="519.5" y="-13" font-family="Helvetica,sans-Serif" font-size="10.00">lib/Transform/FlattenPass.cpp</text>
</a>
</g>
</g>
<!-- Node4&#45;&gt;Node8 -->
<g id="edge4" class="edge"><title>Node4&#45;&gt;Node8</title>
<path fill="none" stroke="midnightblue" d="M634.368,-63.4585C603.648,-50.9001 564.079,-34.724 540.309,-25.007"/>
<polygon fill="midnightblue" stroke="midnightblue" points="633.419,-66.8516 643.999,-67.396 636.067,-60.3721 633.419,-66.8516"/>
</g>
<!-- Node9 -->
<g id="node6" class="node"><title>Node9</title>
<g id="a_node6"><a xlink:href="../../d9/d5d/QModule_8cpp.xhtml" target="_top" xlink:title="lib/Transform/QModule.cpp">
<polygon fill="none" stroke="black" points="611.5,-6 611.5,-25 745.5,-25 745.5,-6 611.5,-6"/>
<text text-anchor="middle" x="678.5" y="-13" font-family="Helvetica,sans-Serif" font-size="10.00">lib/Transform/QModule.cpp</text>
</a>
</g>
</g>
<!-- Node4&#45;&gt;Node9 -->
<g id="edge5" class="edge"><title>Node4&#45;&gt;Node9</title>
<path fill="none" stroke="midnightblue" d="M678.5,-57.2495C678.5,-46.017 678.5,-33.3767 678.5,-25.1945"/>
<polygon fill="midnightblue" stroke="midnightblue" points="675,-57.3959 678.5,-67.396 682,-57.396 675,-57.3959"/>
</g>
<!-- Node10 -->
<g id="node7" class="node"><title>Node10</title>
<g id="a_node7"><a xlink:href="../../db/d17/ReverseEdgesPass_8cpp.xhtml" target="_top" xlink:title="lib/Transform/ReverseEdges\lPass.cpp">
<polygon fill="none" stroke="black" points="764,-0.5 764,-30.5 905,-30.5 905,-0.5 764,-0.5"/>
<text text-anchor="start" x="772" y="-18.5" font-family="Helvetica,sans-Serif" font-size="10.00">lib/Transform/ReverseEdges</text>
<text text-anchor="middle" x="834.5" y="-7.5" font-family="Helvetica,sans-Serif" font-size="10.00">Pass.cpp</text>
</a>
</g>
</g>
<!-- Node4&#45;&gt;Node10 -->
<g id="edge6" class="edge"><title>Node4&#45;&gt;Node10</title>
<path fill="none" stroke="midnightblue" d="M721.594,-63.5442C746.557,-53.143 777.529,-40.238 800.716,-30.5765"/>
<polygon fill="midnightblue" stroke="midnightblue" points="720.234,-60.319 712.35,-67.396 722.927,-66.7805 720.234,-60.319"/>
</g>
<!-- Node11 -->
<g id="node8" class="node"><title>Node11</title>
<g id="a_node8"><a xlink:href="../../df/d0c/Utils_8cpp.xhtml" target="_top" xlink:title="lib/Transform/Utils.cpp">
<polygon fill="none" stroke="black" points="923.5,-6 923.5,-25 1039.5,-25 1039.5,-6 923.5,-6"/>
<text text-anchor="middle" x="981.5" y="-13" font-family="Helvetica,sans-Serif" font-size="10.00">lib/Transform/Utils.cpp</text>
</a>
</g>
</g>
<!-- Node4&#45;&gt;Node11 -->
<g id="edge7" class="edge"><title>Node4&#45;&gt;Node11</title>
<path fill="none" stroke="midnightblue" d="M746.494,-66.9942C793.65,-56.9233 857.902,-43.1799 914.5,-31 923.459,-29.0721 933.09,-26.9921 942.178,-25.026"/>
<polygon fill="midnightblue" stroke="midnightblue" points="745.748,-63.5745 736.7,-69.0857 747.21,-70.4201 745.748,-63.5745"/>
</g>
<!-- Node12 -->
<g id="node9" class="node"><title>Node12</title>
<g id="a_node9"><a xlink:href="../../de/de8/XbitToNumberPass_8cpp.xhtml" target="_top" xlink:title="lib/Transform/XbitToNumber\lPass.cpp">
<polygon fill="none" stroke="black" points="1057.5,-0.5 1057.5,-30.5 1197.5,-30.5 1197.5,-0.5 1057.5,-0.5"/>
<text text-anchor="start" x="1065.5" y="-18.5" font-family="Helvetica,sans-Serif" font-size="10.00">lib/Transform/XbitToNumber</text>
<text text-anchor="middle" x="1127.5" y="-7.5" font-family="Helvetica,sans-Serif" font-size="10.00">Pass.cpp</text>
</a>
</g>
</g>
<!-- Node4&#45;&gt;Node12 -->
<g id="edge8" class="edge"><title>Node4&#45;&gt;Node12</title>
<path fill="none" stroke="midnightblue" d="M746.785,-73.133C821.139,-63.8005 943.488,-47.7945 1048.5,-31 1051.39,-30.5376 1054.34,-30.0534 1057.32,-29.5542"/>
<polygon fill="midnightblue" stroke="midnightblue" points="746.107,-69.6905 736.619,-74.405 746.976,-76.6364 746.107,-69.6905"/>
</g>
<!-- Node13 -->
<g id="node10" class="node"><title>Node13</title>
<g id="a_node10"><a xlink:href="../../d0/dfd/Generator_8cpp.xhtml" target="_top" xlink:title="tools/Generator.cpp">
<polygon fill="none" stroke="black" points="1215.5,-6 1215.5,-25 1317.5,-25 1317.5,-6 1215.5,-6"/>
<text text-anchor="middle" x="1266.5" y="-13" font-family="Helvetica,sans-Serif" font-size="10.00">tools/Generator.cpp</text>
</a>
</g>
</g>
<!-- Node4&#45;&gt;Node13 -->
<g id="edge9" class="edge"><title>Node4&#45;&gt;Node13</title>
<path fill="none" stroke="midnightblue" d="M746.736,-78.0718C847.74,-72.2988 1042.75,-58.4744 1206.5,-31 1215.8,-29.4395 1225.8,-27.2385 1234.91,-25.0217"/>
<polygon fill="midnightblue" stroke="midnightblue" points="746.455,-74.582 736.667,-78.6384 746.848,-81.571 746.455,-74.582"/>
</g>
</g>
</svg>
