<?xml version="1.0" encoding="UTF-8" standalone="no"?>
<!DOCTYPE svg PUBLIC "-//W3C//DTD SVG 1.1//EN"
 "http://www.w3.org/Graphics/SVG/1.1/DTD/svg11.dtd">
<!-- Generated by graphviz version 2.40.1 (20161225.0304)
 -->
<!-- Title: include/enfield/Support/uRefCast.h Pages: 1 -->
<svg width="1642pt" height="106pt"
 viewBox="0.00 0.00 1642.00 106.00" xmlns="http://www.w3.org/2000/svg" xmlns:xlink="http://www.w3.org/1999/xlink">
<g id="graph0" class="graph" transform="scale(1 1) rotate(0) translate(4 102)">
<title>include/enfield/Support/uRefCast.h</title>
<!-- Node9 -->
<g id="node1" class="node">
<title>Node9</title>
<polygon fill="#bfbfbf" stroke="#000000" points="786,-67.5 786,-97.5 915,-97.5 915,-67.5 786,-67.5"/>
<text text-anchor="start" x="794" y="-85.5" font-family="Helvetica,sans-Serif" font-size="10.00" fill="#000000">include/enfield/Support</text>
<text text-anchor="middle" x="850.5" y="-74.5" font-family="Helvetica,sans-Serif" font-size="10.00" fill="#000000">/uRefCast.h</text>
</g>
<!-- Node10 -->
<g id="node2" class="node">
<title>Node10</title>
<g id="a_node2"><a xlink:href="../../d1/d89/Nodes_8cpp.xhtml" target="_top" xlink:title="lib/Analysis/Nodes.cpp">
<polygon fill="none" stroke="#000000" points="0,-6 0,-25 127,-25 127,-6 0,-6"/>
<text text-anchor="middle" x="63.5" y="-13" font-family="Helvetica,sans-Serif" font-size="10.00" fill="#000000">lib/Analysis/Nodes.cpp</text>
</a>
</g>
</g>
<!-- Node9&#45;&gt;Node10 -->
<g id="edge1" class="edge">
<title>Node9&#45;&gt;Node10</title>
<path fill="none" stroke="#191970" d="M775.4205,-80.4712C644.9197,-76.1908 368.0312,-63.7725 136.5,-31 125.7243,-29.4747 114.1605,-27.2816 103.486,-25.0231"/>
<polygon fill="#191970" stroke="#191970" points="775.5897,-83.9784 785.697,-80.8013 775.8145,-76.982 775.5897,-83.9784"/>
</g>
<!-- Node11 -->
<g id="node3" class="node">
<title>Node11</title>
<g id="a_node3"><a xlink:href="../../d0/d91/QbitAllocator_8cpp.xhtml" target="_top" xlink:title="lib/Transform/Allocators\l/QbitAllocator.cpp">
<polygon fill="none" stroke="#000000" points="145.5,-.5 145.5,-30.5 279.5,-30.5 279.5,-.5 145.5,-.5"/>
<text text-anchor="start" x="153.5" y="-18.5" font-family="Helvetica,sans-Serif" font-size="10.00" fill="#000000">lib/Transform/Allocators</text>
<text text-anchor="middle" x="212.5" y="-7.5" font-family="Helvetica,sans-Serif" font-size="10.00" fill="#000000">/QbitAllocator.cpp</text>
</a>
</g>
</g>
<!-- Node9&#45;&gt;Node11 -->
<g id="edge2" class="edge">
<title>Node9&#45;&gt;Node11</title>
<path fill="none" stroke="#191970" d="M775.6034,-78.261C667.5876,-71.5533 461.9852,-56.5609 288.5,-31 285.5691,-30.5682 282.5807,-30.0961 279.5663,-29.5939"/>
<polygon fill="#191970" stroke="#191970" points="775.5517,-81.7643 785.7475,-78.8843 775.9811,-74.7775 775.5517,-81.7643"/>
</g>
<!-- Node12 -->
<g id="node4" class="node">
<title>Node12</title>
<g id="a_node4"><a xlink:href="../../d9/ddd/WeightedSIMappingFinder_8cpp.xhtml" target="_top" xlink:title="lib/Transform/Allocators\l/Simple/WeightedSIMappingFinder.cpp">
<polygon fill="none" stroke="#000000" points="298,-.5 298,-30.5 501,-30.5 501,-.5 298,-.5"/>
<text text-anchor="start" x="306" y="-18.5" font-family="Helvetica,sans-Serif" font-size="10.00" fill="#000000">lib/Transform/Allocators</text>
<text text-anchor="middle" x="399.5" y="-7.5" font-family="Helvetica,sans-Serif" font-size="10.00" fill="#000000">/Simple/WeightedSIMappingFinder.cpp</text>
</a>
</g>
</g>
<!-- Node9&#45;&gt;Node12 -->
<g id="edge3" class="edge">
<title>Node9&#45;&gt;Node12</title>
<path fill="none" stroke="#191970" d="M775.55,-71.3655C700.3329,-60.1914 583.9746,-42.9053 500.6167,-30.5218"/>
<polygon fill="#191970" stroke="#191970" points="775.4769,-74.893 785.8827,-72.9005 776.5056,-67.969 775.4769,-74.893"/>
</g>
<!-- Node13 -->
<g id="node5" class="node">
<title>Node13</title>
<g id="a_node5"><a xlink:href="../../dd/d13/StdSolutionQAllocator_8cpp.xhtml" target="_top" xlink:title="lib/Transform/Allocators\l/StdSolutionQAllocator.cpp">
<polygon fill="none" stroke="#000000" points="519.5,-.5 519.5,-30.5 665.5,-30.5 665.5,-.5 519.5,-.5"/>
<text text-anchor="start" x="527.5" y="-18.5" font-family="Helvetica,sans-Serif" font-size="10.00" fill="#000000">lib/Transform/Allocators</text>
<text text-anchor="middle" x="592.5" y="-7.5" font-family="Helvetica,sans-Serif" font-size="10.00" fill="#000000">/StdSolutionQAllocator.cpp</text>
</a>
</g>
</g>
<!-- Node9&#45;&gt;Node13 -->
<g id="edge4" class="edge">
<title>Node9&#45;&gt;Node13</title>
<path fill="none" stroke="#191970" d="M782.6784,-64.8874C741.629,-54.2273 689.8239,-40.774 650.6528,-30.6017"/>
<polygon fill="#191970" stroke="#191970" points="782.041,-68.3379 792.5998,-67.4639 783.8006,-61.5627 782.041,-68.3379"/>
</g>
<!-- Node14 -->
<g id="node6" class="node">
<title>Node14</title>
<g id="a_node6"><a xlink:href="../../de/d1f/FlattenPass_8cpp.xhtml" target="_top" xlink:title="lib/Transform/FlattenPass.cpp">
<polygon fill="none" stroke="#000000" points="684,-6 684,-25 845,-25 845,-6 684,-6"/>
<text text-anchor="middle" x="764.5" y="-13" font-family="Helvetica,sans-Serif" font-size="10.00" fill="#000000">lib/Transform/FlattenPass.cpp</text>
</a>
</g>
</g>
<!-- Node9&#45;&gt;Node14 -->
<g id="edge5" class="edge">
<title>Node9&#45;&gt;Node14</title>
<path fill="none" stroke="#191970" d="M822.7448,-60.8767C807.239,-48.7967 788.6952,-34.3498 776.7646,-25.055"/>
<polygon fill="#191970" stroke="#191970" points="820.9456,-63.9119 830.9853,-67.2967 825.2477,-58.3899 820.9456,-63.9119"/>
</g>
<!-- Node15 -->
<g id="node7" class="node">
<title>Node15</title>
<g id="a_node7"><a xlink:href="../../d9/d5d/QModule_8cpp.xhtml" target="_top" xlink:title="lib/Transform/QModule.cpp">
<polygon fill="none" stroke="#000000" points="863.5,-6 863.5,-25 1011.5,-25 1011.5,-6 863.5,-6"/>
<text text-anchor="middle" x="937.5" y="-13" font-family="Helvetica,sans-Serif" font-size="10.00" fill="#000000">lib/Transform/QModule.cpp</text>
</a>
</g>
</g>
<!-- Node9&#45;&gt;Node15 -->
<g id="edge6" class="edge">
<title>Node9&#45;&gt;Node15</title>
<path fill="none" stroke="#191970" d="M878.578,-60.8767C894.264,-48.7967 913.0234,-34.3498 925.0928,-25.055"/>
<polygon fill="#191970" stroke="#191970" points="876.029,-58.4221 870.2416,-67.2967 880.3001,-63.9681 876.029,-58.4221"/>
</g>
<!-- Node16 -->
<g id="node8" class="node">
<title>Node16</title>
<g id="a_node8"><a xlink:href="../../db/d17/ReverseEdgesPass_8cpp.xhtml" target="_top" xlink:title="lib/Transform/ReverseEdges\lPass.cpp">
<polygon fill="none" stroke="#000000" points="1029.5,-.5 1029.5,-30.5 1183.5,-30.5 1183.5,-.5 1029.5,-.5"/>
<text text-anchor="start" x="1037.5" y="-18.5" font-family="Helvetica,sans-Serif" font-size="10.00" fill="#000000">lib/Transform/ReverseEdges</text>
<text text-anchor="middle" x="1106.5" y="-7.5" font-family="Helvetica,sans-Serif" font-size="10.00" fill="#000000">Pass.cpp</text>
</a>
</g>
</g>
<!-- Node9&#45;&gt;Node16 -->
<g id="edge7" class="edge">
<title>Node9&#45;&gt;Node16</title>
<path fill="none" stroke="#191970" d="M917.7959,-64.8874C958.527,-54.2273 1009.9305,-40.774 1048.798,-30.6017"/>
<polygon fill="#191970" stroke="#191970" points="916.7394,-61.546 907.9514,-67.4639 918.5118,-68.3179 916.7394,-61.546"/>
</g>
<!-- Node17 -->
<g id="node9" class="node">
<title>Node17</title>
<g id="a_node9"><a xlink:href="../../df/d0c/Utils_8cpp.xhtml" target="_top" xlink:title="lib/Transform/Utils.cpp">
<polygon fill="none" stroke="#000000" points="1201.5,-6 1201.5,-25 1329.5,-25 1329.5,-6 1201.5,-6"/>
<text text-anchor="middle" x="1265.5" y="-13" font-family="Helvetica,sans-Serif" font-size="10.00" fill="#000000">lib/Transform/Utils.cpp</text>
</a>
</g>
</g>
<!-- Node9&#45;&gt;Node17 -->
<g id="edge8" class="edge">
<title>Node9&#45;&gt;Node17</title>
<path fill="none" stroke="#191970" d="M925.2715,-72.5514C994.7004,-63.0034 1100.8523,-47.6148 1192.5,-31 1202.3162,-29.2204 1212.8316,-27.1091 1222.7376,-25.0266"/>
<polygon fill="#191970" stroke="#191970" points="924.7329,-69.0924 915.3005,-73.9172 925.683,-76.0277 924.7329,-69.0924"/>
</g>
<!-- Node18 -->
<g id="node10" class="node">
<title>Node18</title>
<g id="a_node10"><a xlink:href="../../de/de8/XbitToNumberPass_8cpp.xhtml" target="_top" xlink:title="lib/Transform/XbitToNumber\lPass.cpp">
<polygon fill="none" stroke="#000000" points="1348,-.5 1348,-30.5 1503,-30.5 1503,-.5 1348,-.5"/>
<text text-anchor="start" x="1356" y="-18.5" font-family="Helvetica,sans-Serif" font-size="10.00" fill="#000000">lib/Transform/XbitToNumber</text>
<text text-anchor="middle" x="1425.5" y="-7.5" font-family="Helvetica,sans-Serif" font-size="10.00" fill="#000000">Pass.cpp</text>
</a>
</g>
</g>
<!-- Node9&#45;&gt;Node18 -->
<g id="edge9" class="edge">
<title>Node9&#45;&gt;Node18</title>
<path fill="none" stroke="#191970" d="M925.197,-76.2813C1021.1185,-67.9141 1192.6173,-51.6663 1338.5,-31 1341.5381,-30.5696 1344.6324,-30.1119 1347.7558,-29.6337"/>
<polygon fill="#191970" stroke="#191970" points="924.6776,-72.8131 915.0175,-77.1644 925.2826,-79.7869 924.6776,-72.8131"/>
</g>
<!-- Node19 -->
<g id="node11" class="node">
<title>Node19</title>
<g id="a_node11"><a xlink:href="../../d0/dfd/Generator_8cpp.xhtml" target="_top" xlink:title="tools/Generator.cpp">
<polygon fill="none" stroke="#000000" points="1521,-6 1521,-25 1634,-25 1634,-6 1521,-6"/>
<text text-anchor="middle" x="1577.5" y="-13" font-family="Helvetica,sans-Serif" font-size="10.00" fill="#000000">tools/Generator.cpp</text>
</a>
</g>
</g>
<!-- Node9&#45;&gt;Node19 -->
<g id="edge10" class="edge">
<title>Node9&#45;&gt;Node19</title>
<path fill="none" stroke="#191970" d="M925.3344,-80.4888C1048.4665,-76.3283 1301.213,-64.2013 1512.5,-31 1522.1268,-29.4873 1532.4343,-27.2984 1541.9393,-25.0401"/>
<polygon fill="#191970" stroke="#191970" points="925.14,-76.9932 915.2609,-80.8211 925.3709,-83.9894 925.14,-76.9932"/>
</g>
</g>
</svg>
