<?xml version="1.0" encoding="UTF-8" standalone="no"?>
<!DOCTYPE svg PUBLIC "-//W3C//DTD SVG 1.1//EN"
 "http://www.w3.org/Graphics/SVG/1.1/DTD/svg11.dtd">
<!-- Generated by graphviz version 2.40.1 (20161225.0304)
 -->
<!-- Title: efd::QModuleQualityEvalPass Pages: 1 -->
<svg width="291pt" height="219pt"
 viewBox="0.00 0.00 290.50 219.00" xmlns="http://www.w3.org/2000/svg" xmlns:xlink="http://www.w3.org/1999/xlink">
<g id="graph0" class="graph" transform="scale(1 1) rotate(0) translate(4 215)">
<title>efd::QModuleQualityEvalPass</title>
<!-- Node4 -->
<g id="node1" class="node">
<title>Node4</title>
<polygon fill="#bfbfbf" stroke="#000000" points="17.5,-.5 17.5,-19.5 177.5,-19.5 177.5,-.5 17.5,-.5"/>
<text text-anchor="middle" x="97.5" y="-7.5" font-family="Helvetica,sans-Serif" font-size="10.00" fill="#000000">efd::QModuleQualityEvalPass</text>
</g>
<!-- Node5 -->
<g id="node2" class="node">
<title>Node5</title>
<g id="a_node2"><a xlink:href="../../db/d56/classefd_1_1PassT.xhtml" target="_top" xlink:title="efd::PassT\&lt; QModuleQuality \&gt;">
<polygon fill="none" stroke="#000000" points="14,-57.5 14,-76.5 181,-76.5 181,-57.5 14,-57.5"/>
<text text-anchor="middle" x="97.5" y="-64.5" font-family="Helvetica,sans-Serif" font-size="10.00" fill="#000000">efd::PassT&lt; QModuleQuality &gt;</text>
</a>
</g>
</g>
<!-- Node5&#45;&gt;Node4 -->
<g id="edge1" class="edge">
<title>Node5&#45;&gt;Node4</title>
<path fill="none" stroke="#191970" d="M97.5,-47.2342C97.5,-37.8491 97.5,-27.0651 97.5,-19.5265"/>
<polygon fill="#191970" stroke="#191970" points="94.0001,-47.3307 97.5,-57.3307 101.0001,-47.3308 94.0001,-47.3307"/>
</g>
<!-- Node6 -->
<g id="node3" class="node">
<title>Node6</title>
<g id="a_node3"><a xlink:href="../../d0/d98/classefd_1_1Pass.xhtml" target="_top" xlink:title="Base class for implementation of QModule passes. This information will be used when the QModule&#39;s fun...">
<polygon fill="none" stroke="#000000" points="0,-191.5 0,-210.5 61,-210.5 61,-191.5 0,-191.5"/>
<text text-anchor="middle" x="30.5" y="-198.5" font-family="Helvetica,sans-Serif" font-size="10.00" fill="#000000">efd::Pass</text>
</a>
</g>
</g>
<!-- Node6&#45;&gt;Node5 -->
<g id="edge2" class="edge">
<title>Node6&#45;&gt;Node5</title>
<path fill="none" stroke="#191970" d="M30.3478,-181.0453C30.9704,-164.8856 33.5876,-141.9402 42.5,-124 52.289,-104.2952 71.3262,-86.9558 84.2274,-76.7222"/>
<polygon fill="#191970" stroke="#191970" points="26.842,-181.3908 30.1854,-191.4442 33.8412,-181.5001 26.842,-181.3908"/>
</g>
<!-- Node8 -->
<g id="node5" class="node">
<title>Node8</title>
<g id="a_node5"><a xlink:href="../../db/d56/classefd_1_1PassT.xhtml" target="_top" xlink:title="Should serve as base class for classes that produces some data of type T. ">
<polygon fill="none" stroke="#000000" points="52,-124.5 52,-143.5 147,-143.5 147,-124.5 52,-124.5"/>
<text text-anchor="middle" x="99.5" y="-131.5" font-family="Helvetica,sans-Serif" font-size="10.00" fill="#000000">efd::PassT&lt; T &gt;</text>
</a>
</g>
</g>
<!-- Node6&#45;&gt;Node8 -->
<g id="edge5" class="edge">
<title>Node6&#45;&gt;Node8</title>
<path fill="none" stroke="#191970" d="M47.9266,-184.0785C61.1238,-171.2639 78.7775,-154.1218 89.6323,-143.5817"/>
<polygon fill="#191970" stroke="#191970" points="45.1221,-181.9232 40.386,-191.4005 49.9985,-186.9452 45.1221,-181.9232"/>
</g>
<!-- Node7 -->
<g id="node4" class="node">
<title>Node7</title>
<g id="a_node4"><a xlink:href="../../d8/ddf/structefd_1_1QModuleQuality.xhtml" target="_top" xlink:title="Holds the evaluation metrics for an allocation. ">
<polygon fill="none" stroke="#000000" points="166.5,-124.5 166.5,-143.5 282.5,-143.5 282.5,-124.5 166.5,-124.5"/>
<text text-anchor="middle" x="224.5" y="-131.5" font-family="Helvetica,sans-Serif" font-size="10.00" fill="#000000">efd::QModuleQuality</text>
</a>
</g>
</g>
<!-- Node7&#45;&gt;Node5 -->
<g id="edge3" class="edge">
<title>Node7&#45;&gt;Node5</title>
<path fill="none" stroke="#9a32cd" stroke-dasharray="5,2" d="M217.5256,-114.9701C214.0221,-107.7771 209.0921,-100.1045 202.5,-95 193.5872,-88.0984 170.1159,-81.539 147.6199,-76.506"/>
<polygon fill="#9a32cd" stroke="#9a32cd" points="214.3122,-116.3575 221.4411,-124.1952 220.7558,-113.6225 214.3122,-116.3575"/>
<text text-anchor="middle" x="230" y="-98" font-family="Helvetica,sans-Serif" font-size="10.00" fill="#000000"> mData</text>
</g>
<!-- Node8&#45;&gt;Node5 -->
<g id="edge4" class="edge">
<title>Node8&#45;&gt;Node5</title>
<path fill="none" stroke="#ffa500" stroke-dasharray="5,2" d="M98.771,-114.2863C98.6754,-111.5043 98.5822,-108.6801 98.5,-106 98.1926,-95.9806 97.9064,-84.5112 97.7197,-76.6172"/>
<polygon fill="#ffa500" stroke="#ffa500" points="95.2779,-114.5428 99.1337,-124.4111 102.2734,-114.2922 95.2779,-114.5428"/>
<text text-anchor="middle" x="150.5" y="-98" font-family="Helvetica,sans-Serif" font-size="10.00" fill="#000000"> &lt; QModuleQuality &gt;</text>
</g>
<!-- Node9 -->
<g id="node6" class="node">
<title>Node9</title>
<polygon fill="none" stroke="#bfbfbf" points="85,-191.5 85,-210.5 114,-210.5 114,-191.5 85,-191.5"/>
<text text-anchor="middle" x="99.5" y="-198.5" font-family="Helvetica,sans-Serif" font-size="10.00" fill="#000000">T</text>
</g>
<!-- Node9&#45;&gt;Node8 -->
<g id="edge6" class="edge">
<title>Node9&#45;&gt;Node8</title>
<path fill="none" stroke="#9a32cd" stroke-dasharray="5,2" d="M99.5,-181.1079C99.5,-168.714 99.5,-153.3263 99.5,-143.5817"/>
<polygon fill="#9a32cd" stroke="#9a32cd" points="96.0001,-181.4005 99.5,-191.4005 103.0001,-181.4006 96.0001,-181.4005"/>
<text text-anchor="middle" x="118" y="-165" font-family="Helvetica,sans-Serif" font-size="10.00" fill="#000000"> mData</text>
</g>
</g>
</svg>
