<?xml version="1.0" encoding="UTF-8" standalone="no"?>
<!DOCTYPE svg PUBLIC "-//W3C//DTD SVG 1.1//EN"
 "http://www.w3.org/Graphics/SVG/1.1/DTD/svg11.dtd">
<!-- Generated by graphviz version 2.40.1 (20161225.0304)
 -->
<!-- Title: efd::TokenSwapFinder Pages: 1 -->
<svg width="240pt" height="84pt"
 viewBox="0.00 0.00 239.50 84.00" xmlns="http://www.w3.org/2000/svg" xmlns:xlink="http://www.w3.org/1999/xlink">
<g id="graph0" class="graph" transform="scale(1 1) rotate(0) translate(4 80)">
<title>efd::TokenSwapFinder</title>
<!-- Node0 -->
<g id="node1" class="node">
<title>Node0</title>
<polygon fill="#bfbfbf" stroke="#000000" points="57,-56.5 57,-75.5 182,-75.5 182,-56.5 57,-56.5"/>
<text text-anchor="middle" x="119.5" y="-63.5" font-family="Helvetica,sans-Serif" font-size="10.00" fill="#000000">efd::TokenSwapFinder</text>
</g>
<!-- Node1 -->
<g id="node2" class="node">
<title>Node1</title>
<g id="a_node2"><a xlink:href="../../d4/dfd/classefd_1_1ApproxTSFinder.xhtml" target="_top" xlink:title="4&#45;Approximative polynomial algorithm. ">
<polygon fill="none" stroke="#000000" points="0,-.5 0,-19.5 115,-19.5 115,-.5 0,-.5"/>
<text text-anchor="middle" x="57.5" y="-7.5" font-family="Helvetica,sans-Serif" font-size="10.00" fill="#000000">efd::ApproxTSFinder</text>
</a>
</g>
</g>
<!-- Node0&#45;&gt;Node1 -->
<g id="edge1" class="edge">
<title>Node0&#45;&gt;Node1</title>
<path fill="none" stroke="#191970" d="M101.0779,-49.3607C90.3519,-39.6727 77.2066,-27.7995 68.1758,-19.6427"/>
<polygon fill="#191970" stroke="#191970" points="98.9334,-52.14 108.7004,-56.2455 103.6254,-46.9453 98.9334,-52.14"/>
</g>
<!-- Node2 -->
<g id="node3" class="node">
<title>Node2</title>
<g id="a_node3"><a xlink:href="../../d1/d42/classefd_1_1ExpTSFinder.xhtml" target="_top" xlink:title="Brute force solution to the Token Swap Finder. ">
<polygon fill="none" stroke="#000000" points="133.5,-.5 133.5,-19.5 231.5,-19.5 231.5,-.5 133.5,-.5"/>
<text text-anchor="middle" x="182.5" y="-7.5" font-family="Helvetica,sans-Serif" font-size="10.00" fill="#000000">efd::ExpTSFinder</text>
</a>
</g>
</g>
<!-- Node0&#45;&gt;Node2 -->
<g id="edge2" class="edge">
<title>Node0&#45;&gt;Node2</title>
<path fill="none" stroke="#191970" d="M138.2192,-49.3607C149.1182,-39.6727 162.4755,-27.7995 171.652,-19.6427"/>
<polygon fill="#191970" stroke="#191970" points="135.6226,-46.9859 130.4738,-56.2455 140.2732,-52.2178 135.6226,-46.9859"/>
</g>
</g>
</svg>
