<?xml version="1.0" encoding="UTF-8" standalone="no"?>
<!DOCTYPE svg PUBLIC "-//W3C//DTD SVG 1.1//EN"
 "http://www.w3.org/Graphics/SVG/1.1/DTD/svg11.dtd">
<!-- Generated by graphviz version 2.40.1 (20161225.0304)
 -->
<!-- Title: efd::XbitToNumberVisitor::visit Pages: 1 -->
<!--zoomable 294 -->
<svg id="main" version="1.1" xmlns="http://www.w3.org/2000/svg" xmlns:xlink="http://www.w3.org/1999/xlink" xml:space="preserve" onload="init(evt)">
<style type="text/css"><![CDATA[
.edge:hover path { stroke: red; }
.edge:hover polygon { stroke: red; fill: red; }
]]></style>
<script type="text/javascript"><![CDATA[
var edges = document.getElementsByTagName('g');
if (edges && edges.length) {
  for (var i=0;i<edges.length;i++) {
    if (edges[i].id.substr(0,4)=='edge') {
      edges[i].setAttribute('class','edge');
    }
  }
}
]]></script>
        <defs>
                <circle id="rim" cx="0" cy="0" r="7"/>
                <circle id="rim2" cx="0" cy="0" r="3.5"/>
                <g id="zoomPlus">
                        <use xlink:href="#rim" fill="#404040">
                                <set attributeName="fill" to="#808080" begin="zoomplus.mouseover" end="zoomplus.mouseout"/>
                        </use>
                        <path d="M-4,0h8M0,-4v8" fill="none" stroke="white" stroke-width="1.5" pointer-events="none"/>
                </g>
                <g id="zoomMin">
                        <use xlink:href="#rim" fill="#404040">
                                <set attributeName="fill" to="#808080" begin="zoomminus.mouseover" end="zoomminus.mouseout"/>
                        </use>
                        <path d="M-4,0h8" fill="none" stroke="white" stroke-width="1.5" pointer-events="none"/>
                </g>
                <g id="dirArrow">
                        <path fill="none" stroke="white" stroke-width="1.5" d="M0,-3.0v7 M-2.5,-0.5L0,-3.0L2.5,-0.5"/>
                </g>
               <g id="resetDef">
                       <use xlink:href="#rim2" fill="#404040">
                               <set attributeName="fill" to="#808080" begin="reset.mouseover" end="reset.mouseout"/>
                       </use>
               </g>
        </defs>

<script type="text/javascript">
var viewWidth = 501;
var viewHeight = 294;
var sectionId = 'dynsection-2';
</script>
<script xlink:href="../../svgpan.js"/>
<svg id="graph" class="graph">
<g id="viewport">
<title>efd::XbitToNumberVisitor::visit</title>
<!-- Node1 -->
<g id="node1" class="node">
<title>Node1</title>
<polygon fill="#bfbfbf" stroke="#000000" points="0,-128 0,-158 140,-158 140,-128 0,-128"/>
<text text-anchor="start" x="8" y="-146" font-family="Helvetica,sans-Serif" font-size="10.00" fill="#000000">efd::XbitToNumberVisitor</text>
<text text-anchor="middle" x="70" y="-135" font-family="Helvetica,sans-Serif" font-size="10.00" fill="#000000">::visit</text>
</g>
<!-- Node2 -->
<g id="node2" class="node">
<title>Node2</title>
<g id="a_node2"><a xlink:href="../../df/d1b/classefd_1_1NDValue.xhtml#a96ab9dcd008523aa2f4cfc2eb95d7178" target="_top" xlink:title="Creates a new instance of this node. ">
<polygon fill="none" stroke="#000000" points="184.5,-266.5 184.5,-285.5 303.5,-285.5 303.5,-266.5 184.5,-266.5"/>
<text text-anchor="middle" x="244" y="-273.5" font-family="Helvetica,sans-Serif" font-size="10.00" fill="#000000">efd::NDValue::Create</text>
</a>
</g>
</g>
<!-- Node1&#45;&gt;Node2 -->
<g id="edge1" class="edge">
<title>Node1&#45;&gt;Node2</title>
<path fill="none" stroke="#191970" d="M79.8127,-158.0438C96.566,-182.5195 133.07,-230.8501 176,-257 179.592,-259.188 183.4427,-261.1308 187.4183,-262.8548"/>
<polygon fill="#191970" stroke="#191970" points="186.2685,-266.1626 196.8582,-266.493 188.7858,-259.6309 186.2685,-266.1626"/>
</g>
<!-- Node3 -->
<g id="node3" class="node">
<title>Node3</title>
<g id="a_node3"><a xlink:href="../../d8/dd2/classefd_1_1NDIdRef.xhtml#a9407354bbb835d0daffbeb30cafc1076" target="_top" xlink:title="Creates a new instance of this node. ">
<polygon fill="none" stroke="#000000" points="185.5,-228.5 185.5,-247.5 302.5,-247.5 302.5,-228.5 185.5,-228.5"/>
<text text-anchor="middle" x="244" y="-235.5" font-family="Helvetica,sans-Serif" font-size="10.00" fill="#000000">efd::NDIdRef::Create</text>
</a>
</g>
</g>
<!-- Node1&#45;&gt;Node3 -->
<g id="edge2" class="edge">
<title>Node1&#45;&gt;Node3</title>
<path fill="none" stroke="#191970" d="M87.1638,-158.2401C107.184,-175.2864 141.9039,-202.6453 176,-219 180.9044,-221.3524 186.1516,-223.4602 191.4756,-225.3375"/>
<polygon fill="#191970" stroke="#191970" points="190.4917,-228.698 201.0841,-228.4707 192.6619,-222.0429 190.4917,-228.698"/>
</g>
<!-- Node4 -->
<g id="node4" class="node">
<title>Node4</title>
<g id="a_node4"><a xlink:href="../../d0/d9e/classefd_1_1NDDecl.xhtml#a34957c2122c38cebf80a264d5fa3863f" target="_top" xlink:title="Gets the id node. ">
<polygon fill="none" stroke="#000000" points="191,-190.5 191,-209.5 297,-209.5 297,-190.5 191,-190.5"/>
<text text-anchor="middle" x="244" y="-197.5" font-family="Helvetica,sans-Serif" font-size="10.00" fill="#000000">efd::NDDecl::getId</text>
</a>
</g>
</g>
<!-- Node1&#45;&gt;Node4 -->
<g id="edge3" class="edge">
<title>Node1&#45;&gt;Node4</title>
<path fill="none" stroke="#191970" d="M109.7857,-158.0268C129.5757,-165.3056 153.9263,-173.9696 176,-181 183.1465,-183.2761 190.7614,-185.5497 198.2126,-187.6918"/>
<polygon fill="#191970" stroke="#191970" points="197.2853,-191.0667 207.8605,-190.4212 199.191,-184.3311 197.2853,-191.0667"/>
</g>
<!-- Node5 -->
<g id="node5" class="node">
<title>Node5</title>
<g id="a_node5"><a xlink:href="../../da/d97/classefd_1_1NDRegDecl.xhtml#aa0cfc2736f15ea67553ea975b3b207f9" target="_top" xlink:title="Gets the size node. ">
<polygon fill="none" stroke="#000000" points="176,-152.5 176,-171.5 312,-171.5 312,-152.5 176,-152.5"/>
<text text-anchor="middle" x="244" y="-159.5" font-family="Helvetica,sans-Serif" font-size="10.00" fill="#000000">efd::NDRegDecl::getSize</text>
</a>
</g>
</g>
<!-- Node1&#45;&gt;Node5 -->
<g id="edge4" class="edge">
<title>Node1&#45;&gt;Node5</title>
<path fill="none" stroke="#191970" d="M140.0203,-150.6459C148.5046,-151.5723 157.213,-152.5233 165.8057,-153.4615"/>
<polygon fill="#191970" stroke="#191970" points="165.4983,-156.9487 175.8192,-154.555 166.2582,-149.9901 165.4983,-156.9487"/>
</g>
<!-- Node6 -->
<g id="node6" class="node">
<title>Node6</title>
<g id="a_node6"><a xlink:href="../../df/d1b/classefd_1_1NDValue.xhtml#a53ee724a8db3429bf30bb1936ad548b2" target="_top" xlink:title="Returns a copy to the setted value. ">
<polygon fill="none" stroke="#000000" points="184.5,-114.5 184.5,-133.5 303.5,-133.5 303.5,-114.5 184.5,-114.5"/>
<text text-anchor="middle" x="244" y="-121.5" font-family="Helvetica,sans-Serif" font-size="10.00" fill="#000000">efd::NDValue::getVal</text>
</a>
</g>
</g>
<!-- Node1&#45;&gt;Node6 -->
<g id="edge5" class="edge">
<title>Node1&#45;&gt;Node6</title>
<path fill="none" stroke="#191970" d="M140.0203,-135.3541C151.2992,-134.1225 162.9743,-132.8476 174.2469,-131.6167"/>
<polygon fill="#191970" stroke="#191970" points="174.9023,-135.066 184.4632,-130.5011 174.1424,-128.1074 174.9023,-135.066"/>
</g>
<!-- Node7 -->
<g id="node7" class="node">
<title>Node7</title>
<g id="a_node7"><a xlink:href="../../da/d97/classefd_1_1NDRegDecl.xhtml#a192297c494e1aabc57cd4cd72444e2ff" target="_top" xlink:title="Returns true if it is a concrete register declaration. ">
<polygon fill="none" stroke="#000000" points="177,-76.5 177,-95.5 311,-95.5 311,-76.5 177,-76.5"/>
<text text-anchor="middle" x="244" y="-83.5" font-family="Helvetica,sans-Serif" font-size="10.00" fill="#000000">efd::NDRegDecl::isCReg</text>
</a>
</g>
</g>
<!-- Node1&#45;&gt;Node7 -->
<g id="edge6" class="edge">
<title>Node1&#45;&gt;Node7</title>
<path fill="none" stroke="#191970" d="M109.7857,-127.9732C129.5757,-120.6944 153.9263,-112.0304 176,-105 183.1465,-102.7239 190.7614,-100.4503 198.2126,-98.3082"/>
<polygon fill="#191970" stroke="#191970" points="199.191,-101.6689 207.8605,-95.5788 197.2853,-94.9333 199.191,-101.6689"/>
</g>
<!-- Node8 -->
<g id="node8" class="node">
<title>Node8</title>
<g id="a_node8"><a xlink:href="../../d8/dcc/namespacestd.xhtml#a76fb98cd4a35566d53c2f0513c5d12d1" target="_top" xlink:title="std::to_string">
<polygon fill="none" stroke="#000000" points="204,-38.5 204,-57.5 284,-57.5 284,-38.5 204,-38.5"/>
<text text-anchor="middle" x="244" y="-45.5" font-family="Helvetica,sans-Serif" font-size="10.00" fill="#000000">std::to_string</text>
</a>
</g>
</g>
<!-- Node1&#45;&gt;Node8 -->
<g id="edge7" class="edge">
<title>Node1&#45;&gt;Node8</title>
<path fill="none" stroke="#191970" d="M87.1638,-127.7599C107.184,-110.7136 141.9039,-83.3547 176,-67 181.7298,-64.2516 187.9277,-61.8372 194.1691,-59.7341"/>
<polygon fill="#191970" stroke="#191970" points="195.4478,-63.0017 203.9518,-56.6825 193.3632,-56.3192 195.4478,-63.0017"/>
</g>
<!-- Node10 -->
<g id="node10" class="node">
<title>Node10</title>
<g id="a_node10"><a xlink:href="../../d4/deb/namespaceefd.xhtml#a5d73093d1b1ab771a2e970412a565f39" target="_top" xlink:title="Wrapper function that &quot;transforms&quot; a std::unique_ptr into a std::shared_ptr. ">
<polygon fill="none" stroke="#000000" points="203,-.5 203,-19.5 285,-19.5 285,-.5 203,-.5"/>
<text text-anchor="middle" x="244" y="-7.5" font-family="Helvetica,sans-Serif" font-size="10.00" fill="#000000">efd::toShared</text>
</a>
</g>
</g>
<!-- Node1&#45;&gt;Node10 -->
<g id="edge9" class="edge">
<title>Node1&#45;&gt;Node10</title>
<path fill="none" stroke="#191970" d="M79.8127,-127.9562C96.566,-103.4805 133.07,-55.1499 176,-29 181.3586,-25.7359 187.2929,-23.0176 193.3585,-20.7571"/>
<polygon fill="#191970" stroke="#191970" points="194.5518,-24.0488 202.9344,-17.5694 192.3408,-17.4071 194.5518,-24.0488"/>
</g>
<!-- Node9 -->
<g id="node9" class="node">
<title>Node9</title>
<g id="a_node9"><a xlink:href="../../dc/d5d/classefd_1_1EnumString.xhtml#a39d129d188c7746b7f8b65308d7d7b53" target="_top" xlink:title="Returns the string value of the enum. ">
<polygon fill="none" stroke="#000000" points="348,-33 348,-63 493,-63 493,-33 348,-33"/>
<text text-anchor="start" x="356" y="-51" font-family="Helvetica,sans-Serif" font-size="10.00" fill="#000000">efd::EnumString::getString</text>
<text text-anchor="middle" x="420.5" y="-40" font-family="Helvetica,sans-Serif" font-size="10.00" fill="#000000">Value</text>
</a>
</g>
</g>
<!-- Node8&#45;&gt;Node9 -->
<g id="edge8" class="edge">
<title>Node8&#45;&gt;Node9</title>
<path fill="none" stroke="#191970" d="M284.0506,-48C300.0864,-48 319.1851,-48 337.9396,-48"/>
<polygon fill="#191970" stroke="#191970" points="337.9984,-51.5001 347.9984,-48 337.9984,-44.5001 337.9984,-51.5001"/>
</g>
</g>
</svg>
        <g id="navigator" transform="translate(0 0)" fill="#404254">
                <rect fill="#f2f5e9" fill-opacity="0.5" stroke="#606060" stroke-width=".5" x="0" y="0" width="60" height="60"/>
                <use id="zoomplus" xlink:href="#zoomPlus" x="17" y="9" onmousedown="handleZoom(evt,'in')"/>
                <use id="zoomminus" xlink:href="#zoomMin" x="42" y="9" onmousedown="handleZoom(evt,'out')"/>
                <use id="reset" xlink:href="#resetDef" x="30" y="36" onmousedown="handleReset()"/>
                <g id="arrowUp" xlink:href="#dirArrow" transform="translate(30 24)" onmousedown="handlePan(0,-1)">
                  <use xlink:href="#rim" fill="#404040">
                        <set attributeName="fill" to="#808080" begin="arrowUp.mouseover" end="arrowUp.mouseout"/>
                  </use>
                  <path fill="none" stroke="white" stroke-width="1.5" d="M0,-3.0v7 M-2.5,-0.5L0,-3.0L2.5,-0.5"/>
                </g>
                <g id="arrowRight" xlink:href="#dirArrow" transform="rotate(90) translate(36 -43)" onmousedown="handlePan(1,0)">
                  <use xlink:href="#rim" fill="#404040">
                        <set attributeName="fill" to="#808080" begin="arrowRight.mouseover" end="arrowRight.mouseout"/>
                  </use>
                  <path fill="none" stroke="white" stroke-width="1.5" d="M0,-3.0v7 M-2.5,-0.5L0,-3.0L2.5,-0.5"/>
                </g>
                <g id="arrowDown" xlink:href="#dirArrow" transform="rotate(180) translate(-30 -48)" onmousedown="handlePan(0,1)">
                  <use xlink:href="#rim" fill="#404040">
                        <set attributeName="fill" to="#808080" begin="arrowDown.mouseover" end="arrowDown.mouseout"/>
                  </use>
                  <path fill="none" stroke="white" stroke-width="1.5" d="M0,-3.0v7 M-2.5,-0.5L0,-3.0L2.5,-0.5"/>
                </g>
                <g id="arrowLeft" xlink:href="#dirArrow" transform="rotate(270) translate(-36 17)" onmousedown="handlePan(-1,0)">
                  <use xlink:href="#rim" fill="#404040">
                        <set attributeName="fill" to="#808080" begin="arrowLeft.mouseover" end="arrowLeft.mouseout"/>
                  </use>
                  <path fill="none" stroke="white" stroke-width="1.5" d="M0,-3.0v7 M-2.5,-0.5L0,-3.0L2.5,-0.5"/>
                </g>
        </g>
        <svg viewBox="0 0 15 15" width="100%" height="30px" preserveAspectRatio="xMaxYMin meet">
         <g id="arrow_out" transform="scale(0.3 0.3)">
          <a xlink:href="classefd_1_1XbitToNumberVisitor_ac652fe08e03b1525f4dc2a7a41b1f4fe_cgraph_org.svg" target="_base">
           <rect id="button" ry="5" rx="5" y="6" x="6" height="38" width="38"
                fill="#f2f5e9" fill-opacity="0.5" stroke="#606060" stroke-width="1.0"/>
           <path id="arrow"
             d="M 11.500037,31.436501 C 11.940474,20.09759 22.043105,11.32322 32.158766,21.979434 L 37.068811,17.246167 C 37.068811,17.246167 37.088388,32 37.088388,32 L 22.160133,31.978069 C 22.160133,31.978069 26.997745,27.140456 26.997745,27.140456 C 18.528582,18.264221 13.291696,25.230495 11.500037,31.436501 z"
             style="fill:#404040;"/>
          </a>
         </g>
        </svg>
</svg>
