<?xml version="1.0" encoding="UTF-8" standalone="no"?>
<!DOCTYPE svg PUBLIC "-//W3C//DTD SVG 1.1//EN"
 "http://www.w3.org/Graphics/SVG/1.1/DTD/svg11.dtd">
<!-- Generated by graphviz version 2.38.0 (20140413.2041)
 -->
<!-- Title: efd::XbitToNumberVisitor::visit Pages: 1 -->
<svg width="453pt" height="142pt"
 viewBox="0.00 0.00 453.00 142.00" xmlns="http://www.w3.org/2000/svg" xmlns:xlink="http://www.w3.org/1999/xlink">
<g id="graph0" class="graph" transform="scale(1 1) rotate(0) translate(4 138)">
<title>efd::XbitToNumberVisitor::visit</title>
<!-- Node14 -->
<g id="node1" class="node"><title>Node14</title>
<polygon fill="#bfbfbf" stroke="black" points="0,-52 0,-82 127,-82 127,-52 0,-52"/>
<text text-anchor="start" x="8" y="-70" font-family="Helvetica,sans-Serif" font-size="10.00">efd::XbitToNumberVisitor</text>
<text text-anchor="middle" x="63.5" y="-59" font-family="Helvetica,sans-Serif" font-size="10.00">::visit</text>
</g>
<!-- Node15 -->
<g id="node2" class="node"><title>Node15</title>
<g id="a_node2"><a xlink:href="../../d6/d6a/classefd_1_1Node.xhtml#a6c85c9bd21014b73497de741cc75f706" target="_top" xlink:title="Clones the current node (deep copy). ">
<polygon fill="none" stroke="black" points="188,-114.5 188,-133.5 277,-133.5 277,-114.5 188,-114.5"/>
<text text-anchor="middle" x="232.5" y="-121.5" font-family="Helvetica,sans-Serif" font-size="10.00">efd::Node::clone</text>
</a>
</g>
</g>
<!-- Node14&#45;&gt;Node15 -->
<g id="edge1" class="edge"><title>Node14&#45;&gt;Node15</title>
<path fill="none" stroke="midnightblue" d="M108.814,-82.1253C135.345,-91.1805 168.7,-102.565 193.933,-111.178"/>
<polygon fill="midnightblue" stroke="midnightblue" points="192.922,-114.531 203.516,-114.449 195.183,-107.906 192.922,-114.531"/>
</g>
<!-- Node17 -->
<g id="node4" class="node"><title>Node17</title>
<g id="a_node4"><a xlink:href="../../d4/deb/namespaceefd.xhtml#a2cef687225e13315fc282dc40b5a6909" target="_top" xlink:title="Returns src cast to TargetTy, iff it is of class TargetTy, otherwise it will return nullptr...">
<polygon fill="none" stroke="black" points="355,-57.5 355,-76.5 428,-76.5 428,-57.5 355,-57.5"/>
<text text-anchor="middle" x="391.5" y="-64.5" font-family="Helvetica,sans-Serif" font-size="10.00">efd::dynCast</text>
</a>
</g>
</g>
<!-- Node14&#45;&gt;Node17 -->
<g id="edge3" class="edge"><title>Node14&#45;&gt;Node17</title>
<path fill="none" stroke="midnightblue" d="M127.356,-67C190.932,-67 287.695,-67 344.464,-67"/>
<polygon fill="midnightblue" stroke="midnightblue" points="344.582,-70.5001 354.582,-67 344.582,-63.5001 344.582,-70.5001"/>
</g>
<!-- Node18 -->
<g id="node5" class="node"><title>Node18</title>
<g id="a_node5"><a xlink:href="../../db/d1f/classefd_1_1NDGateSign.xhtml#a081605b4c294930734e9d93b34ef85d0" target="_top" xlink:title="Gets the qargs node. ">
<polygon fill="none" stroke="black" points="163,-38.5 163,-57.5 302,-57.5 302,-38.5 163,-38.5"/>
<text text-anchor="middle" x="232.5" y="-45.5" font-family="Helvetica,sans-Serif" font-size="10.00">efd::NDGateSign::getQArgs</text>
</a>
</g>
</g>
<!-- Node14&#45;&gt;Node18 -->
<g id="edge4" class="edge"><title>Node14&#45;&gt;Node18</title>
<path fill="none" stroke="midnightblue" d="M127.16,-59.871C135.542,-58.9174 144.223,-57.9298 152.835,-56.9499"/>
<polygon fill="midnightblue" stroke="midnightblue" points="153.351,-60.4139 162.891,-55.8058 152.56,-53.4587 153.351,-60.4139"/>
</g>
<!-- Node19 -->
<g id="node6" class="node"><title>Node19</title>
<g id="a_node6"><a xlink:href="../../d4/deb/namespaceefd.xhtml#a5d73093d1b1ab771a2e970412a565f39" target="_top" xlink:title="Wrapper function that &quot;transforms&quot; a std::unique_ptr into a std::shared_ptr. ">
<polygon fill="none" stroke="black" points="195,-0.5 195,-19.5 270,-19.5 270,-0.5 195,-0.5"/>
<text text-anchor="middle" x="232.5" y="-7.5" font-family="Helvetica,sans-Serif" font-size="10.00">efd::toShared</text>
</a>
</g>
</g>
<!-- Node14&#45;&gt;Node19 -->
<g id="edge6" class="edge"><title>Node14&#45;&gt;Node19</title>
<path fill="none" stroke="midnightblue" d="M101.143,-51.8834C119.551,-44.541 142.291,-35.8484 163,-29 170.008,-26.6823 177.481,-24.4104 184.819,-22.2895"/>
<polygon fill="midnightblue" stroke="midnightblue" points="186.014,-25.589 194.685,-19.5008 184.11,-18.8529 186.014,-25.589"/>
</g>
<!-- Node16 -->
<g id="node3" class="node"><title>Node16</title>
<g id="a_node3"><a xlink:href="../../d6/d6a/classefd_1_1Node.xhtml#ac078ce64eb404cfdc24b9288908536e4" target="_top" xlink:title="Clones the current node (deep copy). ">
<polygon fill="none" stroke="black" points="338,-114.5 338,-133.5 445,-133.5 445,-114.5 338,-114.5"/>
<text text-anchor="middle" x="391.5" y="-121.5" font-family="Helvetica,sans-Serif" font-size="10.00">efd::Node::cloneImpl</text>
</a>
</g>
</g>
<!-- Node15&#45;&gt;Node16 -->
<g id="edge2" class="edge"><title>Node15&#45;&gt;Node16</title>
<path fill="none" stroke="midnightblue" d="M277.233,-124C292.787,-124 310.622,-124 327.468,-124"/>
<polygon fill="midnightblue" stroke="midnightblue" points="327.8,-127.5 337.8,-124 327.8,-120.5 327.8,-127.5"/>
</g>
<!-- Node18&#45;&gt;Node17 -->
<g id="edge5" class="edge"><title>Node18&#45;&gt;Node17</title>
<path fill="none" stroke="midnightblue" d="M302.362,-56.3337C316.665,-58.0645 331.401,-59.8479 344.632,-61.4491"/>
<polygon fill="midnightblue" stroke="midnightblue" points="344.535,-64.9629 354.883,-62.6897 345.376,-58.0136 344.535,-64.9629"/>
</g>
</g>
</svg>
