<?xml version="1.0" encoding="UTF-8" standalone="no"?>
<!DOCTYPE svg PUBLIC "-//W3C//DTD SVG 1.1//EN"
 "http://www.w3.org/Graphics/SVG/1.1/DTD/svg11.dtd">
<!-- Generated by graphviz version 2.40.1 (20161225.0304)
 -->
<!-- Title: include/enfield/Support/BFSPathFinder.h Pages: 1 -->
<svg width="1014pt" height="106pt"
 viewBox="0.00 0.00 1014.00 106.00" xmlns="http://www.w3.org/2000/svg" xmlns:xlink="http://www.w3.org/1999/xlink">
<g id="graph0" class="graph" transform="scale(1 1) rotate(0) translate(4 102)">
<title>include/enfield/Support/BFSPathFinder.h</title>
<!-- Node7 -->
<g id="node1" class="node">
<title>Node7</title>
<polygon fill="#bfbfbf" stroke="#000000" points="417.5,-67.5 417.5,-97.5 546.5,-97.5 546.5,-67.5 417.5,-67.5"/>
<text text-anchor="start" x="425.5" y="-85.5" font-family="Helvetica,sans-Serif" font-size="10.00" fill="#000000">include/enfield/Support</text>
<text text-anchor="middle" x="482" y="-74.5" font-family="Helvetica,sans-Serif" font-size="10.00" fill="#000000">/BFSPathFinder.h</text>
</g>
<!-- Node8 -->
<g id="node2" class="node">
<title>Node8</title>
<g id="a_node2"><a xlink:href="../../d6/d3a/BFSPathFinder_8cpp.xhtml" target="_top" xlink:title="lib/Support/BFSPathFinder.cpp">
<polygon fill="none" stroke="#000000" points="0,-6 0,-25 162,-25 162,-6 0,-6"/>
<text text-anchor="middle" x="81" y="-13" font-family="Helvetica,sans-Serif" font-size="10.00" fill="#000000">lib/Support/BFSPathFinder.cpp</text>
</a>
</g>
</g>
<!-- Node7&#45;&gt;Node8 -->
<g id="edge1" class="edge">
<title>Node7&#45;&gt;Node8</title>
<path fill="none" stroke="#191970" d="M407.1108,-70.2376C344.1026,-59.8873 251.639,-44.6205 171,-31 159.7438,-29.0988 147.7001,-27.0409 136.2022,-25.0649"/>
<polygon fill="#191970" stroke="#191970" points="406.9178,-73.7527 417.3528,-71.9193 408.0521,-66.8452 406.9178,-73.7527"/>
</g>
<!-- Node9 -->
<g id="node3" class="node">
<title>Node9</title>
<g id="a_node3"><a xlink:href="../../d4/d00/DynprogQAllocator_8cpp.xhtml" target="_top" xlink:title="lib/Transform/Allocators\l/DynprogQAllocator.cpp">
<polygon fill="none" stroke="#000000" points="180,-.5 180,-30.5 314,-30.5 314,-.5 180,-.5"/>
<text text-anchor="start" x="188" y="-18.5" font-family="Helvetica,sans-Serif" font-size="10.00" fill="#000000">lib/Transform/Allocators</text>
<text text-anchor="middle" x="247" y="-7.5" font-family="Helvetica,sans-Serif" font-size="10.00" fill="#000000">/DynprogQAllocator.cpp</text>
</a>
</g>
</g>
<!-- Node7&#45;&gt;Node9 -->
<g id="edge2" class="edge">
<title>Node7&#45;&gt;Node9</title>
<path fill="none" stroke="#191970" d="M419.5119,-64.6842C382.2364,-54.0568 335.4215,-40.7095 299.9686,-30.6017"/>
<polygon fill="#191970" stroke="#191970" points="418.685,-68.0879 429.2614,-67.4639 420.6043,-61.3561 418.685,-68.0879"/>
</g>
<!-- Node10 -->
<g id="node4" class="node">
<title>Node10</title>
<g id="a_node4"><a xlink:href="../../d4/dd0/GreedyCktQAllocator_8cpp.xhtml" target="_top" xlink:title="lib/Transform/Allocators\l/GreedyCktQAllocator.cpp">
<polygon fill="none" stroke="#000000" points="332.5,-.5 332.5,-30.5 475.5,-30.5 475.5,-.5 332.5,-.5"/>
<text text-anchor="start" x="340.5" y="-18.5" font-family="Helvetica,sans-Serif" font-size="10.00" fill="#000000">lib/Transform/Allocators</text>
<text text-anchor="middle" x="404" y="-7.5" font-family="Helvetica,sans-Serif" font-size="10.00" fill="#000000">/GreedyCktQAllocator.cpp</text>
</a>
</g>
</g>
<!-- Node7&#45;&gt;Node10 -->
<g id="edge3" class="edge">
<title>Node7&#45;&gt;Node10</title>
<path fill="none" stroke="#191970" d="M456.384,-60.4965C445.0016,-50.7193 431.8884,-39.4554 421.6294,-30.6432"/>
<polygon fill="#191970" stroke="#191970" points="454.4343,-63.4357 464.3006,-67.2967 458.9955,-58.1257 454.4343,-63.4357"/>
</g>
<!-- Node11 -->
<g id="node5" class="node">
<title>Node11</title>
<g id="a_node5"><a xlink:href="../../dd/d90/IBMQAllocator_8cpp.xhtml" target="_top" xlink:title="lib/Transform/Allocators\l/IBMQAllocator.cpp">
<polygon fill="none" stroke="#000000" points="494,-.5 494,-30.5 628,-30.5 628,-.5 494,-.5"/>
<text text-anchor="start" x="502" y="-18.5" font-family="Helvetica,sans-Serif" font-size="10.00" fill="#000000">lib/Transform/Allocators</text>
<text text-anchor="middle" x="561" y="-7.5" font-family="Helvetica,sans-Serif" font-size="10.00" fill="#000000">/IBMQAllocator.cpp</text>
</a>
</g>
</g>
<!-- Node7&#45;&gt;Node11 -->
<g id="edge4" class="edge">
<title>Node7&#45;&gt;Node11</title>
<path fill="none" stroke="#191970" d="M507.6092,-60.7808C519.2146,-50.9383 532.6532,-39.541 543.1446,-30.6432"/>
<polygon fill="#191970" stroke="#191970" points="505.289,-58.1593 499.9263,-67.2967 509.8167,-63.4978 505.289,-58.1593"/>
</g>
<!-- Node12 -->
<g id="node6" class="node">
<title>Node12</title>
<g id="a_node6"><a xlink:href="../../d3/d84/PathGuidedSolBuilder_8cpp.xhtml" target="_top" xlink:title="lib/Transform/Allocators\l/Simple/PathGuidedSolBuilder.cpp">
<polygon fill="none" stroke="#000000" points="646,-.5 646,-30.5 828,-30.5 828,-.5 646,-.5"/>
<text text-anchor="start" x="654" y="-18.5" font-family="Helvetica,sans-Serif" font-size="10.00" fill="#000000">lib/Transform/Allocators</text>
<text text-anchor="middle" x="737" y="-7.5" font-family="Helvetica,sans-Serif" font-size="10.00" fill="#000000">/Simple/PathGuidedSolBuilder.cpp</text>
</a>
</g>
</g>
<!-- Node7&#45;&gt;Node12 -->
<g id="edge5" class="edge">
<title>Node7&#45;&gt;Node12</title>
<path fill="none" stroke="#191970" d="M549.033,-64.8874C589.6051,-54.2273 640.8078,-40.774 679.5234,-30.6017"/>
<polygon fill="#191970" stroke="#191970" points="548.0093,-61.5375 539.227,-67.4639 549.7882,-68.3077 548.0093,-61.5375"/>
</g>
<!-- Node13 -->
<g id="node7" class="node">
<title>Node13</title>
<g id="a_node7"><a xlink:href="../../db/de4/QbitterSolBuilder_8cpp.xhtml" target="_top" xlink:title="lib/Transform/Allocators\l/Simple/QbitterSolBuilder.cpp">
<polygon fill="none" stroke="#000000" points="846,-.5 846,-30.5 1006,-30.5 1006,-.5 846,-.5"/>
<text text-anchor="start" x="854" y="-18.5" font-family="Helvetica,sans-Serif" font-size="10.00" fill="#000000">lib/Transform/Allocators</text>
<text text-anchor="middle" x="926" y="-7.5" font-family="Helvetica,sans-Serif" font-size="10.00" fill="#000000">/Simple/QbitterSolBuilder.cpp</text>
</a>
</g>
</g>
<!-- Node7&#45;&gt;Node13 -->
<g id="edge6" class="edge">
<title>Node7&#45;&gt;Node13</title>
<path fill="none" stroke="#191970" d="M556.8532,-72.2694C628.7627,-62.2926 740.4298,-46.4108 837,-31 839.9427,-30.5304 842.9389,-30.0451 845.9643,-29.5491"/>
<polygon fill="#191970" stroke="#191970" points="555.964,-68.859 546.5386,-73.6977 556.9242,-75.7928 555.964,-68.859"/>
</g>
</g>
</svg>
