<?xml version="1.0" encoding="UTF-8" standalone="no"?>
<!DOCTYPE svg PUBLIC "-//W3C//DTD SVG 1.1//EN"
 "http://www.w3.org/Graphics/SVG/1.1/DTD/svg11.dtd">
<!-- Generated by graphviz version 2.38.0 (20140413.2041)
 -->
<!-- Title: efd::NDIdRef Pages: 1 -->
<svg width="133pt" height="85pt"
 viewBox="0.00 0.00 133.00 85.00" xmlns="http://www.w3.org/2000/svg" xmlns:xlink="http://www.w3.org/1999/xlink">
<g id="graph0" class="graph" transform="scale(1 1) rotate(0) translate(4 81)">
<title>efd::NDIdRef</title>
<!-- Node2 -->
<g id="node1" class="node"><title>Node2</title>
<polygon fill="#bfbfbf" stroke="black" points="-7.10543e-15,-0.5 -7.10543e-15,-19.5 75,-19.5 75,-0.5 -7.10543e-15,-0.5"/>
<text text-anchor="middle" x="37.5" y="-7.5" font-family="Helvetica,sans-Serif" font-size="10.00">efd::NDIdRef</text>
</g>
<!-- Node3 -->
<g id="node2" class="node"><title>Node3</title>
<g id="a_node2"><a xlink:href="../../d6/d6a/classefd_1_1Node.xhtml" target="_top" xlink:title="Base class for AST nodes. ">
<polygon fill="none" stroke="black" points="8,-57.5 8,-76.5 67,-76.5 67,-57.5 8,-57.5"/>
<text text-anchor="middle" x="37.5" y="-64.5" font-family="Helvetica,sans-Serif" font-size="10.00">efd::Node</text>
</a>
</g>
</g>
<!-- Node3&#45;&gt;Node2 -->
<g id="edge1" class="edge"><title>Node3&#45;&gt;Node2</title>
<path fill="none" stroke="midnightblue" d="M37.5,-47.1166C37.5,-37.8173 37.5,-27.0557 37.5,-19.7149"/>
<polygon fill="midnightblue" stroke="midnightblue" points="34.0001,-47.4062 37.5,-57.4062 41.0001,-47.4063 34.0001,-47.4062"/>
</g>
<!-- Node3&#45;&gt;Node3 -->
<g id="edge2" class="edge"><title>Node3&#45;&gt;Node3</title>
<path fill="none" stroke="#9a32cd" stroke-dasharray="5,2" d="M77.1722,-71.5117C81.9076,-70.6914 85,-69.1875 85,-67 85,-63.5 77.0833,-61.75 67.1875,-61.75"/>
<polygon fill="#9a32cd" stroke="#9a32cd" points="76.9022,-68.022 67.1875,-72.25 77.4184,-75.003 76.9022,-68.022"/>
<text text-anchor="middle" x="105" y="-64.5" font-family="Helvetica,sans-Serif" font-size="10.00"> mParent</text>
</g>
</g>
</svg>
