<?xml version="1.0" encoding="UTF-8" standalone="no"?>
<!DOCTYPE svg PUBLIC "-//W3C//DTD SVG 1.1//EN"
 "http://www.w3.org/Graphics/SVG/1.1/DTD/svg11.dtd">
<!-- Generated by graphviz version 2.38.0 (20140413.2041)
 -->
<!-- Title: include/enfield/Transform/FlattenPass.h Pages: 1 -->
<svg width="464pt" height="106pt"
 viewBox="0.00 0.00 463.50 106.00" xmlns="http://www.w3.org/2000/svg" xmlns:xlink="http://www.w3.org/1999/xlink">
<g id="graph0" class="graph" transform="scale(1 1) rotate(0) translate(4 102)">
<title>include/enfield/Transform/FlattenPass.h</title>
<!-- Node12 -->
<g id="node1" class="node"><title>Node12</title>
<polygon fill="#bfbfbf" stroke="black" points="151,-67.5 151,-97.5 277,-97.5 277,-67.5 151,-67.5"/>
<text text-anchor="start" x="159" y="-85.5" font-family="Helvetica,sans-Serif" font-size="10.00">include/enfield/Transform</text>
<text text-anchor="middle" x="214" y="-74.5" font-family="Helvetica,sans-Serif" font-size="10.00">/FlattenPass.h</text>
</g>
<!-- Node13 -->
<g id="node2" class="node"><title>Node13</title>
<g id="a_node2"><a xlink:href="../../df/dd9/Driver_8cpp.xhtml" target="_top" xlink:title="lib/Transform/Driver.cpp">
<polygon fill="none" stroke="black" points="0,-6 0,-25 122,-25 122,-6 0,-6"/>
<text text-anchor="middle" x="61" y="-13" font-family="Helvetica,sans-Serif" font-size="10.00">lib/Transform/Driver.cpp</text>
</a>
</g>
</g>
<!-- Node12&#45;&gt;Node13 -->
<g id="edge1" class="edge"><title>Node12&#45;&gt;Node13</title>
<path fill="none" stroke="midnightblue" d="M171.533,-63.4585C141.973,-50.9001 103.897,-34.724 81.0242,-25.007"/>
<polygon fill="midnightblue" stroke="midnightblue" points="170.229,-66.7071 180.801,-67.396 172.966,-60.2644 170.229,-66.7071"/>
</g>
<!-- Node14 -->
<g id="node3" class="node"><title>Node14</title>
<g id="a_node3"><a xlink:href="../../de/d1f/FlattenPass_8cpp.xhtml" target="_top" xlink:title="lib/Transform/FlattenPass.cpp">
<polygon fill="none" stroke="black" points="140,-6 140,-25 288,-25 288,-6 140,-6"/>
<text text-anchor="middle" x="214" y="-13" font-family="Helvetica,sans-Serif" font-size="10.00">lib/Transform/FlattenPass.cpp</text>
</a>
</g>
</g>
<!-- Node12&#45;&gt;Node14 -->
<g id="edge2" class="edge"><title>Node12&#45;&gt;Node14</title>
<path fill="none" stroke="midnightblue" d="M214,-57.2495C214,-46.017 214,-33.3767 214,-25.1945"/>
<polygon fill="midnightblue" stroke="midnightblue" points="210.5,-57.3959 214,-67.396 217.5,-57.396 210.5,-57.3959"/>
</g>
<!-- Node15 -->
<g id="node4" class="node"><title>Node15</title>
<g id="a_node4"><a xlink:href="../../dd/d49/SemanticVerifierPass_8cpp.xhtml" target="_top" xlink:title="lib/Transform/SemanticVerifier\lPass.cpp">
<polygon fill="none" stroke="black" points="306.5,-0.5 306.5,-30.5 455.5,-30.5 455.5,-0.5 306.5,-0.5"/>
<text text-anchor="start" x="314.5" y="-18.5" font-family="Helvetica,sans-Serif" font-size="10.00">lib/Transform/SemanticVerifier</text>
<text text-anchor="middle" x="381" y="-7.5" font-family="Helvetica,sans-Serif" font-size="10.00">Pass.cpp</text>
</a>
</g>
</g>
<!-- Node12&#45;&gt;Node15 -->
<g id="edge3" class="edge"><title>Node12&#45;&gt;Node15</title>
<path fill="none" stroke="midnightblue" d="M259.78,-63.6815C286.563,-53.2568 319.902,-40.2805 344.834,-30.5765"/>
<polygon fill="midnightblue" stroke="midnightblue" points="258.286,-60.5071 250.237,-67.396 260.825,-67.0304 258.286,-60.5071"/>
</g>
</g>
</svg>
