<?xml version="1.0" encoding="UTF-8" standalone="no"?>
<!DOCTYPE svg PUBLIC "-//W3C//DTD SVG 1.1//EN"
 "http://www.w3.org/Graphics/SVG/1.1/DTD/svg11.dtd">
<!-- Generated by graphviz version 2.38.0 (20140413.2041)
 -->
<!-- Title: efd::NDGateSign Pages: 1 -->
<svg width="142pt" height="142pt"
 viewBox="0.00 0.00 141.50 142.00" xmlns="http://www.w3.org/2000/svg" xmlns:xlink="http://www.w3.org/1999/xlink">
<g id="graph0" class="graph" transform="scale(1 1) rotate(0) translate(4 138)">
<title>efd::NDGateSign</title>
<!-- Node4 -->
<g id="node1" class="node"><title>Node4</title>
<polygon fill="#bfbfbf" stroke="black" points="0,-0.5 0,-19.5 92,-19.5 92,-0.5 0,-0.5"/>
<text text-anchor="middle" x="46" y="-7.5" font-family="Helvetica,sans-Serif" font-size="10.00">efd::NDGateSign</text>
</g>
<!-- Node5 -->
<g id="node2" class="node"><title>Node5</title>
<g id="a_node2"><a xlink:href="../../d0/d9e/classefd_1_1NDDecl.xhtml" target="_top" xlink:title="Node for declaration of registers (concrete and quantum). ">
<polygon fill="none" stroke="black" points="10.5,-57.5 10.5,-76.5 81.5,-76.5 81.5,-57.5 10.5,-57.5"/>
<text text-anchor="middle" x="46" y="-64.5" font-family="Helvetica,sans-Serif" font-size="10.00">efd::NDDecl</text>
</a>
</g>
</g>
<!-- Node5&#45;&gt;Node4 -->
<g id="edge1" class="edge"><title>Node5&#45;&gt;Node4</title>
<path fill="none" stroke="midnightblue" d="M46,-47.1166C46,-37.8173 46,-27.0557 46,-19.7149"/>
<polygon fill="midnightblue" stroke="midnightblue" points="42.5001,-47.4062 46,-57.4062 49.5001,-47.4063 42.5001,-47.4062"/>
</g>
<!-- Node6 -->
<g id="node3" class="node"><title>Node6</title>
<g id="a_node3"><a xlink:href="../../d6/d6a/classefd_1_1Node.xhtml" target="_top" xlink:title="Base class for AST nodes. ">
<polygon fill="none" stroke="black" points="16.5,-114.5 16.5,-133.5 75.5,-133.5 75.5,-114.5 16.5,-114.5"/>
<text text-anchor="middle" x="46" y="-121.5" font-family="Helvetica,sans-Serif" font-size="10.00">efd::Node</text>
</a>
</g>
</g>
<!-- Node6&#45;&gt;Node5 -->
<g id="edge2" class="edge"><title>Node6&#45;&gt;Node5</title>
<path fill="none" stroke="midnightblue" d="M46,-104.117C46,-94.8173 46,-84.0557 46,-76.7149"/>
<polygon fill="midnightblue" stroke="midnightblue" points="42.5001,-104.406 46,-114.406 49.5001,-104.406 42.5001,-104.406"/>
</g>
<!-- Node6&#45;&gt;Node6 -->
<g id="edge3" class="edge"><title>Node6&#45;&gt;Node6</title>
<path fill="none" stroke="#9a32cd" stroke-dasharray="5,2" d="M85.6722,-128.512C90.4076,-127.691 93.5,-126.188 93.5,-124 93.5,-120.5 85.5833,-118.75 75.6875,-118.75"/>
<polygon fill="#9a32cd" stroke="#9a32cd" points="85.4022,-125.022 75.6875,-129.25 85.9184,-132.003 85.4022,-125.022"/>
<text text-anchor="middle" x="113.5" y="-121.5" font-family="Helvetica,sans-Serif" font-size="10.00"> mParent</text>
</g>
</g>
</svg>
