<?xml version="1.0" encoding="UTF-8" standalone="no"?>
<!DOCTYPE svg PUBLIC "-//W3C//DTD SVG 1.1//EN"
 "http://www.w3.org/Graphics/SVG/1.1/DTD/svg11.dtd">
<!-- Generated by graphviz version 2.38.0 (20140413.2041)
 -->
<!-- Title: efd::CreateILongCX Pages: 1 -->
<svg width="970pt" height="180pt"
 viewBox="0.00 0.00 970.00 180.00" xmlns="http://www.w3.org/2000/svg" xmlns:xlink="http://www.w3.org/1999/xlink">
<g id="graph0" class="graph" transform="scale(1 1) rotate(0) translate(4 176)">
<title>efd::CreateILongCX</title>
<!-- Node38 -->
<g id="node1" class="node"><title>Node38</title>
<polygon fill="#bfbfbf" stroke="black" points="0,-76.5 0,-95.5 104,-95.5 104,-76.5 0,-76.5"/>
<text text-anchor="middle" x="52" y="-83.5" font-family="Helvetica,sans-Serif" font-size="10.00">efd::CreateILongCX</text>
</g>
<!-- Node39 -->
<g id="node2" class="node"><title>Node39</title>
<g id="a_node2"><a xlink:href="../../d2/d46/structefd_1_1NDQOpLongCX.xhtml#acfedeef7e4a8fd4dd96e13c8a9e6fbcb" target="_top" xlink:title="efd::NDQOpLongCX::NDQOpLongCX">
<polygon fill="none" stroke="black" points="140,-76.5 140,-95.5 323,-95.5 323,-76.5 140,-76.5"/>
<text text-anchor="middle" x="231.5" y="-83.5" font-family="Helvetica,sans-Serif" font-size="10.00">efd::NDQOpLongCX::NDQOpLongCX</text>
</a>
</g>
</g>
<!-- Node38&#45;&gt;Node39 -->
<g id="edge1" class="edge"><title>Node38&#45;&gt;Node39</title>
<path fill="none" stroke="midnightblue" d="M104.34,-86C112.362,-86 120.882,-86 129.561,-86"/>
<polygon fill="midnightblue" stroke="midnightblue" points="129.802,-89.5001 139.802,-86 129.802,-82.5001 129.802,-89.5001"/>
</g>
<!-- Node40 -->
<g id="node3" class="node"><title>Node40</title>
<g id="a_node3"><a xlink:href="../../d2/dff/classefd_1_1NDQOpGen.xhtml#a2334f46b3e6d6b273409f5b9a7181e0b" target="_top" xlink:title="efd::NDQOpGen::NDQOpGen">
<polygon fill="none" stroke="black" points="359,-76.5 359,-95.5 508,-95.5 508,-76.5 359,-76.5"/>
<text text-anchor="middle" x="433.5" y="-83.5" font-family="Helvetica,sans-Serif" font-size="10.00">efd::NDQOpGen::NDQOpGen</text>
</a>
</g>
</g>
<!-- Node39&#45;&gt;Node40 -->
<g id="edge2" class="edge"><title>Node39&#45;&gt;Node40</title>
<path fill="none" stroke="midnightblue" d="M323.137,-86C331.661,-86 340.276,-86 348.732,-86"/>
<polygon fill="midnightblue" stroke="midnightblue" points="348.95,-89.5001 358.95,-86 348.95,-82.5001 348.95,-89.5001"/>
</g>
<!-- Node45 -->
<g id="node8" class="node"><title>Node45</title>
<g id="a_node8"><a xlink:href="../../df/d1b/classefd_1_1NDValue.xhtml#a96ab9dcd008523aa2f4cfc2eb95d7178" target="_top" xlink:title="Creates a new instance of this node. ">
<polygon fill="none" stroke="black" points="378,-114.5 378,-133.5 489,-133.5 489,-114.5 378,-114.5"/>
<text text-anchor="middle" x="433.5" y="-121.5" font-family="Helvetica,sans-Serif" font-size="10.00">efd::NDValue::Create</text>
</a>
</g>
</g>
<!-- Node39&#45;&gt;Node45 -->
<g id="edge7" class="edge"><title>Node39&#45;&gt;Node45</title>
<path fill="none" stroke="midnightblue" d="M282.71,-95.54C309.933,-100.712 343.764,-107.14 372.383,-112.578"/>
<polygon fill="midnightblue" stroke="midnightblue" points="371.791,-116.028 382.269,-114.456 373.098,-109.151 371.791,-116.028"/>
</g>
<!-- Node46 -->
<g id="node9" class="node"><title>Node46</title>
<g id="a_node9"><a xlink:href="../../da/ddd/classefd_1_1NDList.xhtml#a5e3e2ab6234caa816599eb51766210b7" target="_top" xlink:title="Creates a new instance of this node with the kind K_LIST. ">
<polygon fill="none" stroke="black" points="382.5,-152.5 382.5,-171.5 484.5,-171.5 484.5,-152.5 382.5,-152.5"/>
<text text-anchor="middle" x="433.5" y="-159.5" font-family="Helvetica,sans-Serif" font-size="10.00">efd::NDList::Create</text>
</a>
</g>
</g>
<!-- Node39&#45;&gt;Node46 -->
<g id="edge8" class="edge"><title>Node39&#45;&gt;Node46</title>
<path fill="none" stroke="midnightblue" d="M250.952,-95.5182C275.23,-107.76 319.46,-129.095 359,-143 365.924,-145.435 373.313,-147.71 380.638,-149.778"/>
<polygon fill="midnightblue" stroke="midnightblue" points="379.969,-153.223 390.537,-152.468 381.805,-146.468 379.969,-153.223"/>
</g>
<!-- Node50 -->
<g id="node13" class="node"><title>Node50</title>
<g id="a_node13"><a xlink:href="../../dd/d94/classefd_1_1NDQOp.xhtml#af7ef43289355c5bb047a46419177c8ed" target="_top" xlink:title="Gets the quantum arguments. ">
<polygon fill="none" stroke="black" points="374,-38.5 374,-57.5 493,-57.5 493,-38.5 374,-38.5"/>
<text text-anchor="middle" x="433.5" y="-45.5" font-family="Helvetica,sans-Serif" font-size="10.00">efd::NDQOp::getQArgs</text>
</a>
</g>
</g>
<!-- Node39&#45;&gt;Node50 -->
<g id="edge13" class="edge"><title>Node39&#45;&gt;Node50</title>
<path fill="none" stroke="midnightblue" d="M282.71,-76.46C309.933,-71.2878 343.764,-64.8599 372.383,-59.4222"/>
<polygon fill="midnightblue" stroke="midnightblue" points="373.098,-62.8491 382.269,-57.5439 371.791,-55.9721 373.098,-62.8491"/>
</g>
<!-- Node52 -->
<g id="node15" class="node"><title>Node52</title>
<g id="a_node15"><a xlink:href="../../da/ddd/classefd_1_1NDList.xhtml#a664c2f4a60746612062d7b112ff9842e" target="_top" xlink:title="Appends a child to the end of the list. ">
<polygon fill="none" stroke="black" points="545,-0.5 545,-19.5 656,-19.5 656,-0.5 545,-0.5"/>
<text text-anchor="middle" x="600.5" y="-7.5" font-family="Helvetica,sans-Serif" font-size="10.00">efd::NDList::addChild</text>
</a>
</g>
</g>
<!-- Node39&#45;&gt;Node52 -->
<g id="edge15" class="edge"><title>Node39&#45;&gt;Node52</title>
<path fill="none" stroke="midnightblue" d="M249.007,-76.3169C272.533,-63.0491 317.467,-39.6534 359,-29 417.14,-14.0868 485.552,-9.9162 534.517,-9.13427"/>
<polygon fill="midnightblue" stroke="midnightblue" points="534.701,-12.6325 544.659,-9.0162 534.619,-5.63294 534.701,-12.6325"/>
</g>
<!-- Node41 -->
<g id="node4" class="node"><title>Node41</title>
<g id="a_node4"><a xlink:href="../../dd/d94/classefd_1_1NDQOp.xhtml#ab5f18eaba71bcb53806525fd5dc61403" target="_top" xlink:title="efd::NDQOp::NDQOp">
<polygon fill="none" stroke="black" points="544,-76.5 544,-95.5 657,-95.5 657,-76.5 544,-76.5"/>
<text text-anchor="middle" x="600.5" y="-83.5" font-family="Helvetica,sans-Serif" font-size="10.00">efd::NDQOp::NDQOp</text>
</a>
</g>
</g>
<!-- Node40&#45;&gt;Node41 -->
<g id="edge3" class="edge"><title>Node40&#45;&gt;Node41</title>
<path fill="none" stroke="midnightblue" d="M508.313,-86C516.639,-86 525.084,-86 533.304,-86"/>
<polygon fill="midnightblue" stroke="midnightblue" points="533.57,-89.5001 543.57,-86 533.57,-82.5001 533.57,-89.5001"/>
</g>
<!-- Node42 -->
<g id="node5" class="node"><title>Node42</title>
<g id="a_node5"><a xlink:href="../../d6/d6a/classefd_1_1Node.xhtml#a09ac8cdf7898a3d17293d92ae956eece" target="_top" xlink:title="Constructs the node, initially empty (with no information). ">
<polygon fill="none" stroke="black" points="864,-85.5 864,-104.5 953,-104.5 953,-85.5 864,-85.5"/>
<text text-anchor="middle" x="908.5" y="-92.5" font-family="Helvetica,sans-Serif" font-size="10.00">efd::Node::Node</text>
</a>
</g>
</g>
<!-- Node41&#45;&gt;Node42 -->
<g id="edge4" class="edge"><title>Node41&#45;&gt;Node42</title>
<path fill="none" stroke="midnightblue" d="M657.269,-87.6403C713.141,-89.2836 798.55,-91.7956 853.711,-93.418"/>
<polygon fill="midnightblue" stroke="midnightblue" points="853.885,-96.9245 863.983,-93.7201 854.091,-89.9275 853.885,-96.9245"/>
</g>
<!-- Node43 -->
<g id="node6" class="node"><title>Node43</title>
<g id="a_node6"><a xlink:href="../../d6/d6a/classefd_1_1Node.xhtml#a8ac8c3206c6f6817a8c8e515ac830f61" target="_top" xlink:title="Adds a child to this node. It should be used only for construction of each derived class...">
<polygon fill="none" stroke="black" points="693,-38.5 693,-57.5 819,-57.5 819,-38.5 693,-38.5"/>
<text text-anchor="middle" x="756" y="-45.5" font-family="Helvetica,sans-Serif" font-size="10.00">efd::Node::innerAddChild</text>
</a>
</g>
</g>
<!-- Node41&#45;&gt;Node43 -->
<g id="edge5" class="edge"><title>Node41&#45;&gt;Node43</title>
<path fill="none" stroke="midnightblue" d="M640.235,-76.411C660.399,-71.4191 685.248,-65.2676 706.661,-59.9666"/>
<polygon fill="midnightblue" stroke="midnightblue" points="707.678,-63.3206 716.544,-57.5201 705.996,-56.5257 707.678,-63.3206"/>
</g>
<!-- Node44 -->
<g id="node7" class="node"><title>Node44</title>
<g id="a_node7"><a xlink:href="../../d6/d6a/classefd_1_1Node.xhtml#a48e9d49d994b9023b8400316e2782e2b" target="_top" xlink:title="Sets the parent node of the current node. ">
<polygon fill="none" stroke="black" points="855,-28.5 855,-47.5 962,-47.5 962,-28.5 855,-28.5"/>
<text text-anchor="middle" x="908.5" y="-35.5" font-family="Helvetica,sans-Serif" font-size="10.00">efd::Node::setParent</text>
</a>
</g>
</g>
<!-- Node43&#45;&gt;Node44 -->
<g id="edge6" class="edge"><title>Node43&#45;&gt;Node44</title>
<path fill="none" stroke="midnightblue" d="M819.083,-43.8749C827.488,-43.3164 836.118,-42.743 844.538,-42.1835"/>
<polygon fill="midnightblue" stroke="midnightblue" points="844.928,-45.6654 854.674,-41.51 844.464,-38.6808 844.928,-45.6654"/>
</g>
<!-- Node47 -->
<g id="node10" class="node"><title>Node47</title>
<g id="a_node10"><a xlink:href="../../da/ddd/classefd_1_1NDList.xhtml#a63e0eab4abb59c1c0783f90afe0bb3bb" target="_top" xlink:title="Creates a new instance of this node with a specific k. ">
<polygon fill="none" stroke="black" points="549.5,-152.5 549.5,-171.5 651.5,-171.5 651.5,-152.5 549.5,-152.5"/>
<text text-anchor="middle" x="600.5" y="-159.5" font-family="Helvetica,sans-Serif" font-size="10.00">efd::NDList::Create</text>
</a>
</g>
</g>
<!-- Node46&#45;&gt;Node47 -->
<g id="edge9" class="edge"><title>Node46&#45;&gt;Node47</title>
<path fill="none" stroke="midnightblue" d="M484.902,-162C502.014,-162 521.31,-162 539.12,-162"/>
<polygon fill="midnightblue" stroke="midnightblue" points="539.407,-165.5 549.407,-162 539.407,-158.5 539.407,-165.5"/>
</g>
<!-- Node48 -->
<g id="node11" class="node"><title>Node48</title>
<g id="a_node11"><a xlink:href="../../da/ddd/classefd_1_1NDList.xhtml#a2642c91fda9d33512d1aa1aa7851b6bd" target="_top" xlink:title="efd::NDList::NDList">
<polygon fill="none" stroke="black" points="704,-152.5 704,-171.5 808,-171.5 808,-152.5 704,-152.5"/>
<text text-anchor="middle" x="756" y="-159.5" font-family="Helvetica,sans-Serif" font-size="10.00">efd::NDList::NDList</text>
</a>
</g>
</g>
<!-- Node47&#45;&gt;Node48 -->
<g id="edge10" class="edge"><title>Node47&#45;&gt;Node48</title>
<path fill="none" stroke="midnightblue" d="M651.762,-162C665.2,-162 679.873,-162 693.829,-162"/>
<polygon fill="midnightblue" stroke="midnightblue" points="693.837,-165.5 703.837,-162 693.837,-158.5 693.837,-165.5"/>
</g>
<!-- Node49 -->
<g id="node12" class="node"><title>Node49</title>
<g id="a_node12"><a xlink:href="../../d4/deb/namespaceefd.xhtml#a3fd26bc2a0a0c6d9948d0d3cef2e1515" target="_top" xlink:title="Returns true if the pointer src is of class TargetTy. ">
<polygon fill="none" stroke="black" points="714.5,-114.5 714.5,-133.5 797.5,-133.5 797.5,-114.5 714.5,-114.5"/>
<text text-anchor="middle" x="756" y="-121.5" font-family="Helvetica,sans-Serif" font-size="10.00">efd::instanceOf</text>
</a>
</g>
</g>
<!-- Node47&#45;&gt;Node49 -->
<g id="edge12" class="edge"><title>Node47&#45;&gt;Node49</title>
<path fill="none" stroke="midnightblue" d="M640.235,-152.411C660.399,-147.419 685.248,-141.268 706.661,-135.967"/>
<polygon fill="midnightblue" stroke="midnightblue" points="707.678,-139.321 716.544,-133.52 705.996,-132.526 707.678,-139.321"/>
</g>
<!-- Node48&#45;&gt;Node42 -->
<g id="edge11" class="edge"><title>Node48&#45;&gt;Node42</title>
<path fill="none" stroke="midnightblue" d="M792.518,-152.448C801.296,-149.725 810.591,-146.527 819,-143 841.44,-133.587 865.646,-120.217 883.062,-109.977"/>
<polygon fill="midnightblue" stroke="midnightblue" points="885.188,-112.783 891.984,-104.655 881.603,-106.772 885.188,-112.783"/>
</g>
<!-- Node51 -->
<g id="node14" class="node"><title>Node51</title>
<g id="a_node14"><a xlink:href="../../d4/deb/namespaceefd.xhtml#a2cef687225e13315fc282dc40b5a6909" target="_top" xlink:title="Returns src cast to TargetTy, iff it is of class TargetTy, otherwise it will return nullptr...">
<polygon fill="none" stroke="black" points="564,-38.5 564,-57.5 637,-57.5 637,-38.5 564,-38.5"/>
<text text-anchor="middle" x="600.5" y="-45.5" font-family="Helvetica,sans-Serif" font-size="10.00">efd::dynCast</text>
</a>
</g>
</g>
<!-- Node50&#45;&gt;Node51 -->
<g id="edge14" class="edge"><title>Node50&#45;&gt;Node51</title>
<path fill="none" stroke="midnightblue" d="M493.137,-48C512.989,-48 534.857,-48 553.576,-48"/>
<polygon fill="midnightblue" stroke="midnightblue" points="553.618,-51.5001 563.618,-48 553.618,-44.5001 553.618,-51.5001"/>
</g>
<!-- Node52&#45;&gt;Node44 -->
<g id="edge16" class="edge"><title>Node52&#45;&gt;Node44</title>
<path fill="none" stroke="midnightblue" d="M656.044,-14.5487C700.047,-18.2702 763.528,-23.7567 819,-29 827.288,-29.7834 836.01,-30.636 844.615,-31.4938"/>
<polygon fill="midnightblue" stroke="midnightblue" points="844.331,-34.9828 854.631,-32.4994 845.03,-28.0178 844.331,-34.9828"/>
</g>
</g>
</svg>
