<?xml version="1.0" encoding="UTF-8" standalone="no"?>
<!DOCTYPE svg PUBLIC "-//W3C//DTD SVG 1.1//EN"
 "http://www.w3.org/Graphics/SVG/1.1/DTD/svg11.dtd">
<!-- Generated by graphviz version 2.38.0 (20140413.2041)
 -->
<!-- Title: efd::Compile Pages: 1 -->
<svg width="675pt" height="642pt"
 viewBox="0.00 0.00 675.00 642.00" xmlns="http://www.w3.org/2000/svg" xmlns:xlink="http://www.w3.org/1999/xlink">
<g id="graph0" class="graph" transform="scale(1 1) rotate(0) translate(4 638)">
<title>efd::Compile</title>
<!-- Node0 -->
<g id="node1" class="node"><title>Node0</title>
<polygon fill="#bfbfbf" stroke="black" points="0,-244.5 0,-263.5 72,-263.5 72,-244.5 0,-244.5"/>
<text text-anchor="middle" x="36" y="-251.5" font-family="Helvetica,sans-Serif" font-size="10.00">efd::Compile</text>
</g>
<!-- Node1 -->
<g id="node2" class="node"><title>Node1</title>
<g id="a_node2"><a xlink:href="../../dd/d52/classefd_1_1QModule.xhtml#acdc9505ab3feada8dbffb1f0d3321559" target="_top" xlink:title="Clones the current qmodule. ">
<polygon fill="none" stroke="black" points="121.5,-519.5 121.5,-538.5 225.5,-538.5 225.5,-519.5 121.5,-519.5"/>
<text text-anchor="middle" x="173.5" y="-526.5" font-family="Helvetica,sans-Serif" font-size="10.00">efd::QModule::clone</text>
</a>
</g>
</g>
<!-- Node0&#45;&gt;Node1 -->
<g id="edge1" class="edge"><title>Node0&#45;&gt;Node1</title>
<path fill="none" stroke="midnightblue" d="M38.045,-263.843C41.9568,-296.886 58.1604,-405.825 108,-478 118.018,-492.507 133.381,-504.887 146.601,-513.815"/>
<polygon fill="midnightblue" stroke="midnightblue" points="145.016,-516.957 155.319,-519.428 148.806,-511.072 145.016,-516.957"/>
</g>
<!-- Node11 -->
<g id="node12" class="node"><title>Node11</title>
<g id="a_node12"><a xlink:href="../../d0/de6/classefd_1_1ArchVerifierPass.xhtml#a806a4ec08ce14ad199c30fb30cbaf1ff" target="_top" xlink:title="Create a dynamic instance of this class. ">
<polygon fill="none" stroke="black" points="118.5,-438 118.5,-468 228.5,-468 228.5,-438 118.5,-438"/>
<text text-anchor="start" x="126.5" y="-456" font-family="Helvetica,sans-Serif" font-size="10.00">efd::ArchVerifierPass</text>
<text text-anchor="middle" x="173.5" y="-445" font-family="Helvetica,sans-Serif" font-size="10.00">::Create</text>
</a>
</g>
</g>
<!-- Node0&#45;&gt;Node11 -->
<g id="edge13" class="edge"><title>Node0&#45;&gt;Node11</title>
<path fill="none" stroke="midnightblue" d="M38.2099,-263.853C42.32,-293.171 58.3726,-380.801 108,-429 109.098,-430.067 110.248,-431.086 111.441,-432.062"/>
<polygon fill="midnightblue" stroke="midnightblue" points="109.649,-435.077 119.869,-437.871 113.622,-429.314 109.649,-435.077"/>
</g>
<!-- Node13 -->
<g id="node14" class="node"><title>Node13</title>
<g id="a_node14"><a xlink:href="../../d2/ddc/classefd_1_1ReverseEdgesPass.xhtml#a2ded6319bd54320a9fa099df78a04dc6" target="_top" xlink:title="Create an instance of this class. ">
<polygon fill="none" stroke="black" points="112,-389 112,-419 235,-419 235,-389 112,-389"/>
<text text-anchor="start" x="120" y="-407" font-family="Helvetica,sans-Serif" font-size="10.00">efd::ReverseEdgesPass</text>
<text text-anchor="middle" x="173.5" y="-396" font-family="Helvetica,sans-Serif" font-size="10.00">::Create</text>
</a>
</g>
</g>
<!-- Node0&#45;&gt;Node13 -->
<g id="edge15" class="edge"><title>Node0&#45;&gt;Node13</title>
<path fill="none" stroke="midnightblue" d="M39.886,-263.709C47.3078,-287.063 69.2439,-346.894 108,-380 109.499,-381.28 111.073,-382.496 112.705,-383.648"/>
<polygon fill="midnightblue" stroke="midnightblue" points="110.93,-386.666 121.285,-388.908 114.589,-380.698 110.93,-386.666"/>
</g>
<!-- Node14 -->
<g id="node15" class="node"><title>Node14</title>
<g id="a_node15"><a xlink:href="../../d6/dd7/classefd_1_1SemanticVerifierPass.xhtml#ab98adda73b3133ef1fed5952a350ca15" target="_top" xlink:title="Create a dynamic instance of this class. ">
<polygon fill="none" stroke="black" points="108,-340 108,-370 239,-370 239,-340 108,-340"/>
<text text-anchor="start" x="116" y="-358" font-family="Helvetica,sans-Serif" font-size="10.00">efd::SemanticVerifierPass</text>
<text text-anchor="middle" x="173.5" y="-347" font-family="Helvetica,sans-Serif" font-size="10.00">::Create</text>
</a>
</g>
</g>
<!-- Node0&#45;&gt;Node14 -->
<g id="edge16" class="edge"><title>Node0&#45;&gt;Node14</title>
<path fill="none" stroke="midnightblue" d="M43.7821,-263.72C55.3049,-279.592 80.1789,-311.187 108,-330 110.873,-331.943 113.918,-333.765 117.06,-335.47"/>
<polygon fill="midnightblue" stroke="midnightblue" points="115.597,-338.651 126.11,-339.964 118.71,-332.381 115.597,-338.651"/>
</g>
<!-- Node16 -->
<g id="node17" class="node"><title>Node16</title>
<g id="a_node17"><a xlink:href="../../d4/deb/namespaceefd.xhtml#a68293834a9b09cd376067ab0d3b27a92" target="_top" xlink:title="Creates an allocator referenced by name with arguments arg. ">
<polygon fill="none" stroke="black" points="112.5,-301.5 112.5,-320.5 234.5,-320.5 234.5,-301.5 112.5,-301.5"/>
<text text-anchor="middle" x="173.5" y="-308.5" font-family="Helvetica,sans-Serif" font-size="10.00">efd::CreateQbitAllocator</text>
</a>
</g>
</g>
<!-- Node0&#45;&gt;Node16 -->
<g id="edge18" class="edge"><title>Node0&#45;&gt;Node16</title>
<path fill="none" stroke="midnightblue" d="M52.6196,-263.565C66.7121,-271.899 88.207,-283.888 108,-292 113.536,-294.269 119.44,-296.391 125.344,-298.333"/>
<polygon fill="midnightblue" stroke="midnightblue" points="124.624,-301.776 135.213,-301.428 126.718,-295.096 124.624,-301.776"/>
</g>
<!-- Node19 -->
<g id="node20" class="node"><title>Node19</title>
<g id="a_node20"><a xlink:href="../../d1/df9/classefd_1_1PassCache.xhtml#a8c54d0a438f35de5629ae78c886687a8" target="_top" xlink:title="Gets a shared pointer to the pass T run in qmod. If it does not exist, it tries to run...">
<polygon fill="none" stroke="black" points="119,-263.5 119,-282.5 228,-282.5 228,-263.5 119,-263.5"/>
<text text-anchor="middle" x="173.5" y="-270.5" font-family="Helvetica,sans-Serif" font-size="10.00">efd::PassCache::Get</text>
</a>
</g>
</g>
<!-- Node0&#45;&gt;Node19 -->
<g id="edge21" class="edge"><title>Node0&#45;&gt;Node19</title>
<path fill="none" stroke="midnightblue" d="M72.2473,-258.942C83.4464,-260.513 96.1984,-262.301 108.765,-264.063"/>
<polygon fill="midnightblue" stroke="midnightblue" points="108.382,-267.543 118.771,-265.466 109.354,-260.611 108.382,-267.543"/>
</g>
<!-- Node20 -->
<g id="node21" class="node"><title>Node20</title>
<g id="a_node21"><a xlink:href="../../db/d56/classefd_1_1PassT.xhtml#aae3442c1486bcec7622a64451262d684" target="_top" xlink:title="efd::PassT::getData">
<polygon fill="none" stroke="black" points="121,-225.5 121,-244.5 226,-244.5 226,-225.5 121,-225.5"/>
<text text-anchor="middle" x="173.5" y="-232.5" font-family="Helvetica,sans-Serif" font-size="10.00">efd::PassT::getData</text>
</a>
</g>
</g>
<!-- Node0&#45;&gt;Node20 -->
<g id="edge22" class="edge"><title>Node0&#45;&gt;Node20</title>
<path fill="none" stroke="midnightblue" d="M72.2473,-249.058C84.0572,-247.402 97.594,-245.503 110.82,-243.649"/>
<polygon fill="midnightblue" stroke="midnightblue" points="111.422,-247.099 120.839,-242.244 110.45,-240.167 111.422,-247.099"/>
</g>
<!-- Node21 -->
<g id="node22" class="node"><title>Node21</title>
<g id="a_node22"><a xlink:href="../../db/d0c/structefd_1_1XbitToNumber.xhtml#ab395508705fe60ed3bd0cfb28eb5ffc6" target="_top" xlink:title="Returns the number of qbits in a given gate (if any). ">
<polygon fill="none" stroke="black" points="121,-176 121,-206 226,-206 226,-176 121,-176"/>
<text text-anchor="start" x="129" y="-194" font-family="Helvetica,sans-Serif" font-size="10.00">efd::XbitToNumber::</text>
<text text-anchor="middle" x="173.5" y="-183" font-family="Helvetica,sans-Serif" font-size="10.00">getQSize</text>
</a>
</g>
</g>
<!-- Node0&#45;&gt;Node21 -->
<g id="edge23" class="edge"><title>Node0&#45;&gt;Node21</title>
<path fill="none" stroke="midnightblue" d="M53.636,-244.353C67.8426,-236.295 88.9431,-224.754 108,-216 112.406,-213.976 117.027,-211.969 121.685,-210.023"/>
<polygon fill="midnightblue" stroke="midnightblue" points="123.301,-213.144 131.242,-206.13 120.66,-206.661 123.301,-213.144"/>
</g>
<!-- Node23 -->
<g id="node24" class="node"><title>Node23</title>
<g id="a_node24"><a xlink:href="../../d1/df9/classefd_1_1PassCache.xhtml#acb82213b8e43f26fdca8266be3cc4c7c" target="_top" xlink:title="Runs the pass T in qmod. ">
<polygon fill="none" stroke="black" points="118,-137.5 118,-156.5 229,-156.5 229,-137.5 118,-137.5"/>
<text text-anchor="middle" x="173.5" y="-144.5" font-family="Helvetica,sans-Serif" font-size="10.00">efd::PassCache::Run</text>
</a>
</g>
</g>
<!-- Node0&#45;&gt;Node23 -->
<g id="edge25" class="edge"><title>Node0&#45;&gt;Node23</title>
<path fill="none" stroke="midnightblue" d="M42.2756,-244.331C52.5474,-226.405 76.9698,-187.934 108,-167 111.708,-164.498 115.744,-162.298 119.927,-160.365"/>
<polygon fill="midnightblue" stroke="midnightblue" points="121.324,-163.575 129.251,-156.546 118.671,-157.097 121.324,-163.575"/>
</g>
<!-- Node25 -->
<g id="node26" class="node"><title>Node25</title>
<g id="a_node26"><a xlink:href="../../d6/dd7/classefd_1_1SemanticVerifierPass.xhtml#a6fb9f958bc8fa5cd2f89c5d55063ddaa" target="_top" xlink:title="Flags the verifier to inline all gates, but those inside the basis vector, before mapping...">
<polygon fill="none" stroke="black" points="108,-88 108,-118 239,-118 239,-88 108,-88"/>
<text text-anchor="start" x="116" y="-106" font-family="Helvetica,sans-Serif" font-size="10.00">efd::SemanticVerifierPass</text>
<text text-anchor="middle" x="173.5" y="-95" font-family="Helvetica,sans-Serif" font-size="10.00">::setInlineAll</text>
</a>
</g>
</g>
<!-- Node0&#45;&gt;Node25 -->
<g id="edge27" class="edge"><title>Node0&#45;&gt;Node25</title>
<path fill="none" stroke="midnightblue" d="M39.915,-244.325C47.401,-221.045 69.4691,-161.368 108,-128 109.946,-126.315 112.019,-124.736 114.183,-123.259"/>
<polygon fill="midnightblue" stroke="midnightblue" points="116.119,-126.179 122.91,-118.047 112.53,-120.169 116.119,-126.179"/>
</g>
<!-- Node26 -->
<g id="node27" class="node"><title>Node26</title>
<g id="a_node27"><a xlink:href="../../de/d5a/classefd_1_1QbitAllocator.xhtml#a997aa1c89bcfbcd5d5d796537c71c99a" target="_top" xlink:title="Flags the QbitAllocator to inline all gates, but those inside the basis vector, before mapping...">
<polygon fill="none" stroke="black" points="127.5,-39 127.5,-69 219.5,-69 219.5,-39 127.5,-39"/>
<text text-anchor="start" x="135.5" y="-57" font-family="Helvetica,sans-Serif" font-size="10.00">efd::QbitAllocator</text>
<text text-anchor="middle" x="173.5" y="-46" font-family="Helvetica,sans-Serif" font-size="10.00">::setInlineAll</text>
</a>
</g>
</g>
<!-- Node0&#45;&gt;Node26 -->
<g id="edge28" class="edge"><title>Node0&#45;&gt;Node26</title>
<path fill="none" stroke="midnightblue" d="M38.2403,-244.178C42.4352,-214.947 58.7002,-127.534 108,-79 111.081,-75.9669 114.571,-73.2924 118.294,-70.9358"/>
<polygon fill="midnightblue" stroke="midnightblue" points="120.23,-73.8662 127.321,-65.9944 116.869,-67.7259 120.23,-73.8662"/>
</g>
<!-- Node27 -->
<g id="node28" class="node"><title>Node27</title>
<g id="a_node28"><a xlink:href="../../db/db3/classefd_1_1Graph.xhtml#aa85ea20ad74d6a7df7a52c13a9fabe2d" target="_top" xlink:title="Return the number of vertices. ">
<polygon fill="none" stroke="black" points="130.5,-0.5 130.5,-19.5 216.5,-19.5 216.5,-0.5 130.5,-0.5"/>
<text text-anchor="middle" x="173.5" y="-7.5" font-family="Helvetica,sans-Serif" font-size="10.00">efd::Graph::size</text>
</a>
</g>
</g>
<!-- Node0&#45;&gt;Node27 -->
<g id="edge29" class="edge"><title>Node0&#45;&gt;Node27</title>
<path fill="none" stroke="midnightblue" d="M37.0693,-244.333C37.8525,-209.962 45.2063,-92.4012 108,-30 111.75,-26.2734 116.18,-23.2392 120.935,-20.7689"/>
<polygon fill="midnightblue" stroke="midnightblue" points="122.596,-23.8637 130.384,-16.68 119.816,-17.4394 122.596,-23.8637"/>
</g>
<!-- Node2 -->
<g id="node3" class="node"><title>Node2</title>
<g id="a_node3"><a xlink:href="../../d4/deb/namespaceefd.xhtml#ad7adca0e4de58074aa3f91827469a491" target="_top" xlink:title="Uses the RTTI framework to cast forwardly an unique_ptr. ">
<polygon fill="none" stroke="black" points="283,-614.5 283,-633.5 404,-633.5 404,-614.5 283,-614.5"/>
<text text-anchor="middle" x="343.5" y="-621.5" font-family="Helvetica,sans-Serif" font-size="10.00">efd::uniqueCastForward</text>
</a>
</g>
</g>
<!-- Node1&#45;&gt;Node2 -->
<g id="edge2" class="edge"><title>Node1&#45;&gt;Node2</title>
<path fill="none" stroke="midnightblue" d="M184.483,-538.622C201.625,-554.64 238.362,-586.806 275,-605 279.651,-607.31 284.626,-609.377 289.688,-611.219"/>
<polygon fill="midnightblue" stroke="midnightblue" points="288.874,-614.637 299.468,-614.488 291.093,-607.998 288.874,-614.637"/>
</g>
<!-- Node3 -->
<g id="node4" class="node"><title>Node3</title>
<g id="a_node4"><a xlink:href="../../d6/d6a/classefd_1_1Node.xhtml#a6c85c9bd21014b73497de741cc75f706" target="_top" xlink:title="Clones the current node (deep copy). ">
<polygon fill="none" stroke="black" points="299,-576.5 299,-595.5 388,-595.5 388,-576.5 299,-576.5"/>
<text text-anchor="middle" x="343.5" y="-583.5" font-family="Helvetica,sans-Serif" font-size="10.00">efd::Node::clone</text>
</a>
</g>
</g>
<!-- Node1&#45;&gt;Node3 -->
<g id="edge3" class="edge"><title>Node1&#45;&gt;Node3</title>
<path fill="none" stroke="midnightblue" d="M198.252,-538.651C218.486,-546.71 248.422,-558.253 275,-567 281.917,-569.276 289.286,-571.526 296.519,-573.638"/>
<polygon fill="midnightblue" stroke="midnightblue" points="295.665,-577.034 306.242,-576.421 297.591,-570.304 295.665,-577.034"/>
</g>
<!-- Node5 -->
<g id="node6" class="node"><title>Node5</title>
<g id="a_node6"><a xlink:href="../../dd/d52/classefd_1_1QModule.xhtml#a02a5efc8ed6d6e6645576b948a18fe19" target="_top" xlink:title="Inserts an include node. ">
<polygon fill="none" stroke="black" points="275,-538.5 275,-557.5 412,-557.5 412,-538.5 275,-538.5"/>
<text text-anchor="middle" x="343.5" y="-545.5" font-family="Helvetica,sans-Serif" font-size="10.00">efd::QModule::insertInclude</text>
</a>
</g>
</g>
<!-- Node1&#45;&gt;Node5 -->
<g id="edge5" class="edge"><title>Node1&#45;&gt;Node5</title>
<path fill="none" stroke="midnightblue" d="M225.818,-534.804C238.122,-536.195 251.533,-537.712 264.738,-539.205"/>
<polygon fill="midnightblue" stroke="midnightblue" points="264.443,-542.694 274.773,-540.34 265.23,-535.739 264.443,-542.694"/>
</g>
<!-- Node6 -->
<g id="node7" class="node"><title>Node6</title>
<g id="a_node7"><a xlink:href="../../dd/d52/classefd_1_1QModule.xhtml#a13a3c3e6d3455ff05f837fbd5fc4a06e" target="_top" xlink:title="Inserts a register declaration node. ">
<polygon fill="none" stroke="black" points="282,-500.5 282,-519.5 405,-519.5 405,-500.5 282,-500.5"/>
<text text-anchor="middle" x="343.5" y="-507.5" font-family="Helvetica,sans-Serif" font-size="10.00">efd::QModule::insertReg</text>
</a>
</g>
</g>
<!-- Node1&#45;&gt;Node6 -->
<g id="edge6" class="edge"><title>Node1&#45;&gt;Node6</title>
<path fill="none" stroke="midnightblue" d="M225.818,-523.196C240.304,-521.558 256.326,-519.746 271.738,-518.003"/>
<polygon fill="midnightblue" stroke="midnightblue" points="272.212,-521.472 281.755,-516.87 271.425,-514.516 272.212,-521.472"/>
</g>
<!-- Node10 -->
<g id="node11" class="node"><title>Node10</title>
<g id="a_node11"><a xlink:href="../../dd/d52/classefd_1_1QModule.xhtml#a7a0b91ad23bdaf49e197692f453808b8" target="_top" xlink:title="Inserts a gate to the QModule. ">
<polygon fill="none" stroke="black" points="280.5,-462.5 280.5,-481.5 406.5,-481.5 406.5,-462.5 280.5,-462.5"/>
<text text-anchor="middle" x="343.5" y="-469.5" font-family="Helvetica,sans-Serif" font-size="10.00">efd::QModule::insertGate</text>
</a>
</g>
</g>
<!-- Node1&#45;&gt;Node10 -->
<g id="edge10" class="edge"><title>Node1&#45;&gt;Node10</title>
<path fill="none" stroke="midnightblue" d="M198.252,-519.349C218.486,-511.29 248.422,-499.747 275,-491 281.917,-488.724 289.286,-486.474 296.519,-484.362"/>
<polygon fill="midnightblue" stroke="midnightblue" points="297.591,-487.696 306.242,-481.579 295.665,-480.966 297.591,-487.696"/>
</g>
<!-- Node4 -->
<g id="node5" class="node"><title>Node4</title>
<g id="a_node5"><a xlink:href="../../d6/d6a/classefd_1_1Node.xhtml#ac078ce64eb404cfdc24b9288908536e4" target="_top" xlink:title="Clones the current node (deep copy). ">
<polygon fill="none" stroke="black" points="449.5,-576.5 449.5,-595.5 556.5,-595.5 556.5,-576.5 449.5,-576.5"/>
<text text-anchor="middle" x="503" y="-583.5" font-family="Helvetica,sans-Serif" font-size="10.00">efd::Node::cloneImpl</text>
</a>
</g>
</g>
<!-- Node3&#45;&gt;Node4 -->
<g id="edge4" class="edge"><title>Node3&#45;&gt;Node4</title>
<path fill="none" stroke="midnightblue" d="M388.373,-586C404.051,-586 422.041,-586 439.012,-586"/>
<polygon fill="midnightblue" stroke="midnightblue" points="439.418,-589.5 449.418,-586 439.418,-582.5 439.418,-589.5"/>
</g>
<!-- Node7 -->
<g id="node8" class="node"><title>Node7</title>
<g id="a_node8"><a xlink:href="../../d0/d9e/classefd_1_1NDDecl.xhtml#a34957c2122c38cebf80a264d5fa3863f" target="_top" xlink:title="Gets the id node. ">
<polygon fill="none" stroke="black" points="453.5,-500.5 453.5,-519.5 552.5,-519.5 552.5,-500.5 453.5,-500.5"/>
<text text-anchor="middle" x="503" y="-507.5" font-family="Helvetica,sans-Serif" font-size="10.00">efd::NDDecl::getId</text>
</a>
</g>
</g>
<!-- Node6&#45;&gt;Node7 -->
<g id="edge7" class="edge"><title>Node6&#45;&gt;Node7</title>
<path fill="none" stroke="midnightblue" d="M405.394,-510C417.837,-510 430.908,-510 443.274,-510"/>
<polygon fill="midnightblue" stroke="midnightblue" points="443.466,-513.5 453.466,-510 443.466,-506.5 443.466,-513.5"/>
</g>
<!-- Node9 -->
<g id="node10" class="node"><title>Node9</title>
<g id="a_node10"><a xlink:href="../../df/d1b/classefd_1_1NDValue.xhtml#a53ee724a8db3429bf30bb1936ad548b2" target="_top" xlink:title="Returns a copy to the setted value. ">
<polygon fill="none" stroke="black" points="448,-462.5 448,-481.5 558,-481.5 558,-462.5 448,-462.5"/>
<text text-anchor="middle" x="503" y="-469.5" font-family="Helvetica,sans-Serif" font-size="10.00">efd::NDValue::getVal</text>
</a>
</g>
</g>
<!-- Node6&#45;&gt;Node9 -->
<g id="edge9" class="edge"><title>Node6&#45;&gt;Node9</title>
<path fill="none" stroke="midnightblue" d="M384.244,-500.411C405.028,-495.396 430.661,-489.212 452.699,-483.895"/>
<polygon fill="midnightblue" stroke="midnightblue" points="453.642,-487.268 462.542,-481.52 452,-480.463 453.642,-487.268"/>
</g>
<!-- Node8 -->
<g id="node9" class="node"><title>Node8</title>
<g id="a_node9"><a xlink:href="../../d4/deb/namespaceefd.xhtml#a2cef687225e13315fc282dc40b5a6909" target="_top" xlink:title="Returns src cast to TargetTy, iff it is of class TargetTy, otherwise it will return nullptr...">
<polygon fill="none" stroke="black" points="594,-500.5 594,-519.5 667,-519.5 667,-500.5 594,-500.5"/>
<text text-anchor="middle" x="630.5" y="-507.5" font-family="Helvetica,sans-Serif" font-size="10.00">efd::dynCast</text>
</a>
</g>
</g>
<!-- Node7&#45;&gt;Node8 -->
<g id="edge8" class="edge"><title>Node7&#45;&gt;Node8</title>
<path fill="none" stroke="midnightblue" d="M552.522,-510C562.76,-510 573.532,-510 583.668,-510"/>
<polygon fill="midnightblue" stroke="midnightblue" points="583.951,-513.5 593.951,-510 583.951,-506.5 583.951,-513.5"/>
</g>
<!-- Node10&#45;&gt;Node7 -->
<g id="edge11" class="edge"><title>Node10&#45;&gt;Node7</title>
<path fill="none" stroke="midnightblue" d="M384.244,-481.589C405.028,-486.604 430.661,-492.788 452.699,-498.105"/>
<polygon fill="midnightblue" stroke="midnightblue" points="452,-501.537 462.542,-500.48 453.642,-494.732 452,-501.537"/>
</g>
<!-- Node10&#45;&gt;Node9 -->
<g id="edge12" class="edge"><title>Node10&#45;&gt;Node9</title>
<path fill="none" stroke="midnightblue" d="M406.748,-472C416.937,-472 427.512,-472 437.749,-472"/>
<polygon fill="midnightblue" stroke="midnightblue" points="437.846,-475.5 447.846,-472 437.846,-468.5 437.846,-475.5"/>
</g>
<!-- Node12 -->
<g id="node13" class="node"><title>Node12</title>
<g id="a_node13"><a xlink:href="../../d0/de6/classefd_1_1ArchVerifierPass.xhtml#a53dd78189ee7781f5327a5f1c7d2070f" target="_top" xlink:title="efd::ArchVerifierPass\l::ArchVerifierPass">
<polygon fill="none" stroke="black" points="288.5,-413 288.5,-443 398.5,-443 398.5,-413 288.5,-413"/>
<text text-anchor="start" x="296.5" y="-431" font-family="Helvetica,sans-Serif" font-size="10.00">efd::ArchVerifierPass</text>
<text text-anchor="middle" x="343.5" y="-420" font-family="Helvetica,sans-Serif" font-size="10.00">::ArchVerifierPass</text>
</a>
</g>
</g>
<!-- Node11&#45;&gt;Node12 -->
<g id="edge14" class="edge"><title>Node11&#45;&gt;Node12</title>
<path fill="none" stroke="midnightblue" d="M228.581,-444.952C244.389,-442.6 261.822,-440.006 278.197,-437.569"/>
<polygon fill="midnightblue" stroke="midnightblue" points="278.857,-441.009 288.233,-436.076 277.826,-434.086 278.857,-441.009"/>
</g>
<!-- Node15 -->
<g id="node16" class="node"><title>Node15</title>
<g id="a_node16"><a xlink:href="../../d6/dd7/classefd_1_1SemanticVerifierPass.xhtml#a9405f056dece69c89fd116d2870e5808" target="_top" xlink:title="Constructs a verifier from a clone of the original semantics (the src QModule). ">
<polygon fill="none" stroke="black" points="278,-340 278,-370 409,-370 409,-340 278,-340"/>
<text text-anchor="start" x="286" y="-358" font-family="Helvetica,sans-Serif" font-size="10.00">efd::SemanticVerifierPass</text>
<text text-anchor="middle" x="343.5" y="-347" font-family="Helvetica,sans-Serif" font-size="10.00">::SemanticVerifierPass</text>
</a>
</g>
</g>
<!-- Node14&#45;&gt;Node15 -->
<g id="edge17" class="edge"><title>Node14&#45;&gt;Node15</title>
<path fill="none" stroke="midnightblue" d="M239.453,-355C248.743,-355 258.361,-355 267.819,-355"/>
<polygon fill="midnightblue" stroke="midnightblue" points="267.996,-358.5 277.996,-355 267.996,-351.5 267.996,-358.5"/>
</g>
<!-- Node17 -->
<g id="node18" class="node"><title>Node17</title>
<g id="a_node18"><a xlink:href="../../dc/dd0/classefd_1_1Registry.xhtml#af46d8fc9d6740ffdd21cab91e8d417b7" target="_top" xlink:title="Creates an object instance by calling the constructor mapped by key, with arg. ">
<polygon fill="none" stroke="black" points="283,-301.5 283,-320.5 404,-320.5 404,-301.5 283,-301.5"/>
<text text-anchor="middle" x="343.5" y="-308.5" font-family="Helvetica,sans-Serif" font-size="10.00">efd::Registry::createObj</text>
</a>
</g>
</g>
<!-- Node16&#45;&gt;Node17 -->
<g id="edge19" class="edge"><title>Node16&#45;&gt;Node17</title>
<path fill="none" stroke="midnightblue" d="M234.677,-311C247.01,-311 260.089,-311 272.726,-311"/>
<polygon fill="midnightblue" stroke="midnightblue" points="272.743,-314.5 282.743,-311 272.743,-307.5 272.743,-314.5"/>
</g>
<!-- Node18 -->
<g id="node19" class="node"><title>Node18</title>
<g id="a_node19"><a xlink:href="../../dc/dd0/classefd_1_1Registry.xhtml#acbc4d1970bfb864501536a764bcce3fe" target="_top" xlink:title="Returns true if key exists inside mCtorMap. ">
<polygon fill="none" stroke="black" points="448,-301.5 448,-320.5 558,-320.5 558,-301.5 448,-301.5"/>
<text text-anchor="middle" x="503" y="-308.5" font-family="Helvetica,sans-Serif" font-size="10.00">efd::Registry::hasObj</text>
</a>
</g>
</g>
<!-- Node17&#45;&gt;Node18 -->
<g id="edge20" class="edge"><title>Node17&#45;&gt;Node18</title>
<path fill="none" stroke="midnightblue" d="M404.044,-311C415.049,-311 426.586,-311 437.724,-311"/>
<polygon fill="midnightblue" stroke="midnightblue" points="437.813,-314.5 447.813,-311 437.813,-307.5 437.813,-314.5"/>
</g>
<!-- Node22 -->
<g id="node23" class="node"><title>Node22</title>
<g id="a_node23"><a xlink:href="../../db/d0c/structefd_1_1XbitToNumber.xhtml#a7d9474b325920d98f5832d5f1923ba2b" target="_top" xlink:title="Gets a constant reference to the mapping of qubtis of a gate. ">
<polygon fill="none" stroke="black" points="291,-176 291,-206 396,-206 396,-176 291,-176"/>
<text text-anchor="start" x="299" y="-194" font-family="Helvetica,sans-Serif" font-size="10.00">efd::XbitToNumber::</text>
<text text-anchor="middle" x="343.5" y="-183" font-family="Helvetica,sans-Serif" font-size="10.00">getQbitMap</text>
</a>
</g>
</g>
<!-- Node21&#45;&gt;Node22 -->
<g id="edge24" class="edge"><title>Node21&#45;&gt;Node22</title>
<path fill="none" stroke="midnightblue" d="M226.276,-191C243.523,-191 262.906,-191 280.827,-191"/>
<polygon fill="midnightblue" stroke="midnightblue" points="280.895,-194.5 290.895,-191 280.895,-187.5 280.895,-194.5"/>
</g>
<!-- Node24 -->
<g id="node25" class="node"><title>Node24</title>
<g id="a_node25"><a xlink:href="../../d0/d98/classefd_1_1Pass.xhtml#af58908c0fa0da625abd3d3588d7dd666" target="_top" xlink:title="Runs the pass in the given QModule and returns true if it has modified qmod. ">
<polygon fill="none" stroke="black" points="304.5,-137.5 304.5,-156.5 382.5,-156.5 382.5,-137.5 304.5,-137.5"/>
<text text-anchor="middle" x="343.5" y="-144.5" font-family="Helvetica,sans-Serif" font-size="10.00">efd::Pass::run</text>
</a>
</g>
</g>
<!-- Node23&#45;&gt;Node24 -->
<g id="edge26" class="edge"><title>Node23&#45;&gt;Node24</title>
<path fill="none" stroke="midnightblue" d="M229.045,-147C250.109,-147 274.003,-147 294.413,-147"/>
<polygon fill="midnightblue" stroke="midnightblue" points="294.428,-150.5 304.428,-147 294.428,-143.5 294.428,-150.5"/>
</g>
</g>
</svg>
