<?xml version="1.0" encoding="UTF-8" standalone="no"?>
<!DOCTYPE svg PUBLIC "-//W3C//DTD SVG 1.1//EN"
 "http://www.w3.org/Graphics/SVG/1.1/DTD/svg11.dtd">
<!-- Generated by graphviz version 2.38.0 (20140413.2041)
 -->
<!-- Title: efd::PrintToStream Pages: 1 -->
<svg width="887pt" height="778pt"
 viewBox="0.00 0.00 887.00 778.26" xmlns="http://www.w3.org/2000/svg" xmlns:xlink="http://www.w3.org/1999/xlink">
<g id="graph0" class="graph" transform="scale(1 1) rotate(0) translate(4 774.256)">
<title>efd::PrintToStream</title>
<!-- Node226 -->
<g id="node1" class="node"><title>Node226</title>
<polygon fill="#bfbfbf" stroke="black" points="0,-323.5 0,-342.5 99,-342.5 99,-323.5 0,-323.5"/>
<text text-anchor="middle" x="49.5" y="-330.5" font-family="Helvetica,sans-Serif" font-size="10.00">efd::PrintToStream</text>
</g>
<!-- Node227 -->
<g id="node2" class="node"><title>Node227</title>
<g id="a_node2"><a xlink:href="../../dd/d52/classefd_1_1QModule.xhtml#a5577959b82ce68a93f0b71f2835cdba4" target="_top" xlink:title="Prints the QModule to a std::ostream. ">
<polygon fill="none" stroke="black" points="135,-323.5 135,-342.5 235,-342.5 235,-323.5 135,-323.5"/>
<text text-anchor="middle" x="185" y="-330.5" font-family="Helvetica,sans-Serif" font-size="10.00">efd::QModule::print</text>
</a>
</g>
</g>
<!-- Node226&#45;&gt;Node227 -->
<g id="edge1" class="edge"><title>Node226&#45;&gt;Node227</title>
<path fill="none" stroke="midnightblue" d="M99.0742,-333C107.343,-333 116.014,-333 124.525,-333"/>
<polygon fill="midnightblue" stroke="midnightblue" points="124.79,-336.5 134.79,-333 124.79,-329.5 124.79,-336.5"/>
</g>
<!-- Node228 -->
<g id="node3" class="node"><title>Node228</title>
<g id="a_node3"><a xlink:href="../../dd/d52/classefd_1_1QModule.xhtml#ae1688be88d187c60b16f7f96b74eda20" target="_top" xlink:title="Returns a std::string representation of the QModule. ">
<polygon fill="none" stroke="black" points="271,-323.5 271,-342.5 386,-342.5 386,-323.5 271,-323.5"/>
<text text-anchor="middle" x="328.5" y="-330.5" font-family="Helvetica,sans-Serif" font-size="10.00">efd::QModule::toString</text>
</a>
</g>
</g>
<!-- Node227&#45;&gt;Node228 -->
<g id="edge2" class="edge"><title>Node227&#45;&gt;Node228</title>
<path fill="none" stroke="midnightblue" d="M235.093,-333C243.354,-333 252.052,-333 260.671,-333"/>
<polygon fill="midnightblue" stroke="midnightblue" points="260.724,-336.5 270.724,-333 260.724,-329.5 260.724,-336.5"/>
</g>
<!-- Node229 -->
<g id="node4" class="node"><title>Node229</title>
<g id="a_node4"><a xlink:href="../../d9/dcb/classefd_1_1NDQasmVersion.xhtml#aa569f393e93eb260839f5885f145ee47" target="_top" xlink:title="Returns a std::string representation of this Node and its childrem. ">
<polygon fill="none" stroke="black" points="432.5,-604 432.5,-634 542.5,-634 542.5,-604 432.5,-604"/>
<text text-anchor="start" x="440.5" y="-622" font-family="Helvetica,sans-Serif" font-size="10.00">efd::NDQasmVersion</text>
<text text-anchor="middle" x="487.5" y="-611" font-family="Helvetica,sans-Serif" font-size="10.00">::toString</text>
</a>
</g>
</g>
<!-- Node228&#45;&gt;Node229 -->
<g id="edge3" class="edge"><title>Node228&#45;&gt;Node229</title>
<path fill="none" stroke="midnightblue" d="M331.359,-342.973C338.185,-377.481 364.52,-493.855 422,-570 430.089,-580.716 441.117,-590.255 451.765,-598.003"/>
<polygon fill="midnightblue" stroke="midnightblue" points="449.947,-601.002 460.16,-603.822 453.935,-595.249 449.947,-601.002"/>
</g>
<!-- Node232 -->
<g id="node7" class="node"><title>Node232</title>
<g id="a_node7"><a xlink:href="../../d4/deb/namespaceefd.xhtml#a2cef687225e13315fc282dc40b5a6909" target="_top" xlink:title="Returns src cast to TargetTy, iff it is of class TargetTy, otherwise it will return nullptr...">
<polygon fill="none" stroke="black" points="792,-437.5 792,-456.5 865,-456.5 865,-437.5 792,-437.5"/>
<text text-anchor="middle" x="828.5" y="-444.5" font-family="Helvetica,sans-Serif" font-size="10.00">efd::dynCast</text>
</a>
</g>
</g>
<!-- Node228&#45;&gt;Node232 -->
<g id="edge31" class="edge"><title>Node228&#45;&gt;Node232</title>
<path fill="none" stroke="midnightblue" d="M329.938,-342.747C332.24,-383.753 345.959,-544.721 422,-644 475.025,-713.23 505.104,-723.209 589,-747 654.42,-765.552 687.726,-787.967 742,-747 787.989,-712.287 816.597,-528.014 824.945,-466.792"/>
<polygon fill="midnightblue" stroke="midnightblue" points="828.457,-466.935 826.306,-456.561 821.518,-466.012 828.457,-466.935"/>
</g>
<!-- Node235 -->
<g id="node10" class="node"><title>Node235</title>
<g id="a_node10"><a xlink:href="../../da/d7f/classefd_1_1NDStmtList.xhtml#ae7b4ee3d6f2f0c533a0a9b552b595586" target="_top" xlink:title="Returns a std::string representation of this Node and its childrem. ">
<polygon fill="none" stroke="black" points="601.5,-532.5 601.5,-551.5 729.5,-551.5 729.5,-532.5 601.5,-532.5"/>
<text text-anchor="middle" x="665.5" y="-539.5" font-family="Helvetica,sans-Serif" font-size="10.00">efd::NDStmtList::toString</text>
</a>
</g>
</g>
<!-- Node228&#45;&gt;Node235 -->
<g id="edge47" class="edge"><title>Node228&#45;&gt;Node235</title>
<path fill="none" stroke="midnightblue" d="M333.569,-342.6C344.341,-366.884 375.961,-431.29 422,-466 471.541,-503.351 539.829,-522.6 591.318,-532.363"/>
<polygon fill="midnightblue" stroke="midnightblue" points="590.917,-535.848 601.382,-534.192 592.169,-528.96 590.917,-535.848"/>
</g>
<!-- Node237 -->
<g id="node12" class="node"><title>Node237</title>
<g id="a_node12"><a xlink:href="../../d3/d29/classefd_1_1NDInclude.xhtml#a9efdb70f8a37e017bbce53679ce3a0ec" target="_top" xlink:title="Returns a std::string representation of this Node and its childrem. ">
<polygon fill="none" stroke="black" points="426.5,-437.5 426.5,-456.5 548.5,-456.5 548.5,-437.5 426.5,-437.5"/>
<text text-anchor="middle" x="487.5" y="-444.5" font-family="Helvetica,sans-Serif" font-size="10.00">efd::NDInclude::toString</text>
</a>
</g>
</g>
<!-- Node228&#45;&gt;Node237 -->
<g id="edge12" class="edge"><title>Node228&#45;&gt;Node237</title>
<path fill="none" stroke="midnightblue" d="M342.616,-342.523C369.677,-362.173 431.926,-407.373 464.975,-431.37"/>
<polygon fill="midnightblue" stroke="midnightblue" points="462.941,-434.218 473.089,-437.262 467.053,-428.554 462.941,-434.218"/>
</g>
<!-- Node240 -->
<g id="node15" class="node"><title>Node240</title>
<g id="a_node15"><a xlink:href="../../db/d1f/classefd_1_1NDGateSign.xhtml#a6f90ad90fc61c1ed70d2a1c2da6a3d0a" target="_top" xlink:title="Returns a std::string representation of this Node and its childrem. ">
<polygon fill="none" stroke="black" points="422,-228.5 422,-247.5 553,-247.5 553,-228.5 422,-228.5"/>
<text text-anchor="middle" x="487.5" y="-235.5" font-family="Helvetica,sans-Serif" font-size="10.00">efd::NDGateSign::toString</text>
</a>
</g>
</g>
<!-- Node228&#45;&gt;Node240 -->
<g id="edge17" class="edge"><title>Node228&#45;&gt;Node240</title>
<path fill="none" stroke="midnightblue" d="M338.552,-323.378C354.129,-307.36 387.654,-275.193 422,-257 426.226,-254.761 430.752,-252.753 435.372,-250.958"/>
<polygon fill="midnightblue" stroke="midnightblue" points="436.671,-254.21 444.925,-247.568 434.331,-247.613 436.671,-254.21"/>
</g>
<!-- Node242 -->
<g id="node17" class="node"><title>Node242</title>
<g id="a_node17"><a xlink:href="../../d0/d9e/classefd_1_1NDDecl.xhtml#a34957c2122c38cebf80a264d5fa3863f" target="_top" xlink:title="Gets the id node. ">
<polygon fill="none" stroke="black" points="616,-304.5 616,-323.5 715,-323.5 715,-304.5 616,-304.5"/>
<text text-anchor="middle" x="665.5" y="-311.5" font-family="Helvetica,sans-Serif" font-size="10.00">efd::NDDecl::getId</text>
</a>
</g>
</g>
<!-- Node228&#45;&gt;Node242 -->
<g id="edge39" class="edge"><title>Node228&#45;&gt;Node242</title>
<path fill="none" stroke="midnightblue" d="M386.328,-329.777C447.297,-326.319 543.675,-320.853 605.477,-317.348"/>
<polygon fill="midnightblue" stroke="midnightblue" points="606.057,-320.82 615.843,-316.76 605.661,-313.832 606.057,-320.82"/>
</g>
<!-- Node248 -->
<g id="node23" class="node"><title>Node248</title>
<g id="a_node23"><a xlink:href="../../dc/d9d/classefd_1_1NDIfStmt.xhtml#ae5c408d49862e644f1d299ab5b2f121d" target="_top" xlink:title="Gets the qop. ">
<polygon fill="none" stroke="black" points="428.5,-541.5 428.5,-560.5 546.5,-560.5 546.5,-541.5 428.5,-541.5"/>
<text text-anchor="middle" x="487.5" y="-548.5" font-family="Helvetica,sans-Serif" font-size="10.00">efd::NDIfStmt::getQOp</text>
</a>
</g>
</g>
<!-- Node228&#45;&gt;Node248 -->
<g id="edge32" class="edge"><title>Node228&#45;&gt;Node248</title>
<path fill="none" stroke="midnightblue" d="M332.701,-342.733C342.373,-370.993 373.632,-454.441 422,-508 432.207,-519.302 445.992,-529.014 458.199,-536.333"/>
<polygon fill="midnightblue" stroke="midnightblue" points="456.722,-539.521 467.14,-541.451 460.2,-533.446 456.722,-539.521"/>
</g>
<!-- Node249 -->
<g id="node24" class="node"><title>Node249</title>
<g id="a_node24"><a xlink:href="../../dd/d94/classefd_1_1NDQOp.xhtml#a8700a0eb5ff3cee0e3b52c56f3cc2b3c" target="_top" xlink:title="Returns true if this is a generic node. ">
<polygon fill="none" stroke="black" points="428,-190.5 428,-209.5 547,-209.5 547,-190.5 428,-190.5"/>
<text text-anchor="middle" x="487.5" y="-197.5" font-family="Helvetica,sans-Serif" font-size="10.00">efd::NDQOp::isGeneric</text>
</a>
</g>
</g>
<!-- Node228&#45;&gt;Node249 -->
<g id="edge34" class="edge"><title>Node228&#45;&gt;Node249</title>
<path fill="none" stroke="midnightblue" d="M334.571,-323.409C346.658,-301.484 379.369,-247.409 422,-219 425.096,-216.937 428.422,-215.092 431.871,-213.445"/>
<polygon fill="midnightblue" stroke="midnightblue" points="433.348,-216.621 441.218,-209.528 430.643,-210.165 433.348,-216.621"/>
</g>
<!-- Node251 -->
<g id="node26" class="node"><title>Node251</title>
<g id="a_node26"><a xlink:href="../../dd/d94/classefd_1_1NDQOp.xhtml#aa9d90f493865fe9cdc3fecd468eaa33b" target="_top" xlink:title="Gets the id. ">
<polygon fill="none" stroke="black" points="438,-266.5 438,-285.5 537,-285.5 537,-266.5 438,-266.5"/>
<text text-anchor="middle" x="487.5" y="-273.5" font-family="Helvetica,sans-Serif" font-size="10.00">efd::NDQOp::getId</text>
</a>
</g>
</g>
<!-- Node228&#45;&gt;Node251 -->
<g id="edge36" class="edge"><title>Node228&#45;&gt;Node251</title>
<path fill="none" stroke="midnightblue" d="M355.778,-323.459C381.703,-314.047 421.535,-299.586 450.417,-289.1"/>
<polygon fill="midnightblue" stroke="midnightblue" points="451.931,-292.274 460.136,-285.572 449.542,-285.694 451.931,-292.274"/>
</g>
<!-- Node252 -->
<g id="node27" class="node"><title>Node252</title>
<g id="a_node27"><a xlink:href="../../df/d1b/classefd_1_1NDValue.xhtml#a53ee724a8db3429bf30bb1936ad548b2" target="_top" xlink:title="Returns a copy to the setted value. ">
<polygon fill="none" stroke="black" points="432.5,-152.5 432.5,-171.5 542.5,-171.5 542.5,-152.5 432.5,-152.5"/>
<text text-anchor="middle" x="487.5" y="-159.5" font-family="Helvetica,sans-Serif" font-size="10.00">efd::NDValue::getVal</text>
</a>
</g>
</g>
<!-- Node228&#45;&gt;Node252 -->
<g id="edge38" class="edge"><title>Node228&#45;&gt;Node252</title>
<path fill="none" stroke="midnightblue" d="M332.532,-323.489C341.551,-296.757 370.81,-220.344 422,-181 424.466,-179.105 427.117,-177.398 429.888,-175.862"/>
<polygon fill="midnightblue" stroke="midnightblue" points="431.531,-178.957 439.067,-171.51 428.532,-172.631 431.531,-178.957"/>
</g>
<!-- Node253 -->
<g id="node28" class="node"><title>Node253</title>
<g id="a_node28"><a xlink:href="../../d6/d6a/classefd_1_1Node.xhtml#a0c2aac79f80799e7b16fb370f8cf88b8" target="_top" xlink:title="Returns whether this node is in a include node. ">
<polygon fill="none" stroke="black" points="431,-114.5 431,-133.5 544,-133.5 544,-114.5 431,-114.5"/>
<text text-anchor="middle" x="487.5" y="-121.5" font-family="Helvetica,sans-Serif" font-size="10.00">efd::Node::isInInclude</text>
</a>
</g>
</g>
<!-- Node228&#45;&gt;Node253 -->
<g id="edge40" class="edge"><title>Node228&#45;&gt;Node253</title>
<path fill="none" stroke="midnightblue" d="M331.312,-323.43C337.693,-292.408 362.058,-193.704 422,-143 423.989,-141.318 426.121,-139.785 428.356,-138.387"/>
<polygon fill="midnightblue" stroke="midnightblue" points="430.174,-141.386 437.404,-133.642 426.922,-135.187 430.174,-141.386"/>
</g>
<!-- Node254 -->
<g id="node29" class="node"><title>Node254</title>
<g id="a_node29"><a xlink:href="../../da/d97/classefd_1_1NDRegDecl.xhtml#a3bf9bff2803d9e5c9a838d47a81c2d20" target="_top" xlink:title="Returns a std::string representation of this Node and its childrem. ">
<polygon fill="none" stroke="black" points="423,-342.5 423,-361.5 552,-361.5 552,-342.5 423,-342.5"/>
<text text-anchor="middle" x="487.5" y="-349.5" font-family="Helvetica,sans-Serif" font-size="10.00">efd::NDRegDecl::toString</text>
</a>
</g>
</g>
<!-- Node228&#45;&gt;Node254 -->
<g id="edge41" class="edge"><title>Node228&#45;&gt;Node254</title>
<path fill="none" stroke="midnightblue" d="M386.181,-339.859C394.86,-340.91 403.925,-342.007 412.905,-343.094"/>
<polygon fill="midnightblue" stroke="midnightblue" points="412.633,-346.586 422.982,-344.313 413.475,-339.637 412.633,-346.586"/>
</g>
<!-- Node230 -->
<g id="node5" class="node"><title>Node230</title>
<g id="a_node5"><a xlink:href="../../d9/dcb/classefd_1_1NDQasmVersion.xhtml#ae1e5b466eb6ffcf37fea383e5f49c4bf" target="_top" xlink:title="Returns a std::string representation of the operation. ">
<polygon fill="none" stroke="black" points="610.5,-658 610.5,-688 720.5,-688 720.5,-658 610.5,-658"/>
<text text-anchor="start" x="618.5" y="-676" font-family="Helvetica,sans-Serif" font-size="10.00">efd::NDQasmVersion</text>
<text text-anchor="middle" x="665.5" y="-665" font-family="Helvetica,sans-Serif" font-size="10.00">::getOperation</text>
</a>
</g>
</g>
<!-- Node229&#45;&gt;Node230 -->
<g id="edge4" class="edge"><title>Node229&#45;&gt;Node230</title>
<path fill="none" stroke="midnightblue" d="M537.526,-634.042C558.702,-640.539 583.65,-648.194 605.803,-654.991"/>
<polygon fill="midnightblue" stroke="midnightblue" points="604.845,-658.358 615.432,-657.945 606.899,-651.666 604.845,-658.358"/>
</g>
<!-- Node231 -->
<g id="node6" class="node"><title>Node231</title>
<g id="a_node6"><a xlink:href="../../d9/dcb/classefd_1_1NDQasmVersion.xhtml#adb0f8cedefb3c43a5e8346f31feaa9c0" target="_top" xlink:title="Gets the node that holds the version. ">
<polygon fill="none" stroke="black" points="610.5,-609 610.5,-639 720.5,-639 720.5,-609 610.5,-609"/>
<text text-anchor="start" x="618.5" y="-627" font-family="Helvetica,sans-Serif" font-size="10.00">efd::NDQasmVersion</text>
<text text-anchor="middle" x="665.5" y="-616" font-family="Helvetica,sans-Serif" font-size="10.00">::getVersion</text>
</a>
</g>
</g>
<!-- Node229&#45;&gt;Node231 -->
<g id="edge5" class="edge"><title>Node229&#45;&gt;Node231</title>
<path fill="none" stroke="midnightblue" d="M542.742,-620.541C560.978,-621.059 581.494,-621.642 600.413,-622.179"/>
<polygon fill="midnightblue" stroke="midnightblue" points="600.342,-625.679 610.437,-622.464 600.541,-618.681 600.342,-625.679"/>
</g>
<!-- Node233 -->
<g id="node8" class="node"><title>Node233</title>
<g id="a_node8"><a xlink:href="../../df/d1b/classefd_1_1NDValue.xhtml#a9ded6b0d00e7ea4d748be60c5cc3632b" target="_top" xlink:title="Returns a std::string representation of this Node and its childrem. ">
<polygon fill="none" stroke="black" points="607.5,-418.5 607.5,-437.5 723.5,-437.5 723.5,-418.5 607.5,-418.5"/>
<text text-anchor="middle" x="665.5" y="-425.5" font-family="Helvetica,sans-Serif" font-size="10.00">efd::NDValue::toString</text>
</a>
</g>
</g>
<!-- Node229&#45;&gt;Node233 -->
<g id="edge7" class="edge"><title>Node229&#45;&gt;Node233</title>
<path fill="none" stroke="midnightblue" d="M515.667,-603.975C528.66,-595.535 543.431,-583.9 553,-570 585.299,-523.083 547.961,-486.5 589,-447 591.794,-444.311 594.909,-441.986 598.24,-439.978"/>
<polygon fill="midnightblue" stroke="midnightblue" points="600.097,-442.962 607.483,-435.366 596.972,-436.698 600.097,-442.962"/>
</g>
<!-- Node234 -->
<g id="node9" class="node"><title>Node234</title>
<g id="a_node9"><a xlink:href="../../d9/dcb/classefd_1_1NDQasmVersion.xhtml#a8a8428b4ee1b54ab5009981511133ecf" target="_top" xlink:title="Gets the node that holds the statements. ">
<polygon fill="none" stroke="black" points="610.5,-707 610.5,-737 720.5,-737 720.5,-707 610.5,-707"/>
<text text-anchor="start" x="618.5" y="-725" font-family="Helvetica,sans-Serif" font-size="10.00">efd::NDQasmVersion</text>
<text text-anchor="middle" x="665.5" y="-714" font-family="Helvetica,sans-Serif" font-size="10.00">::getStatements</text>
</a>
</g>
</g>
<!-- Node229&#45;&gt;Node234 -->
<g id="edge8" class="edge"><title>Node229&#45;&gt;Node234</title>
<path fill="none" stroke="midnightblue" d="M503.948,-634.089C522.672,-651.642 555.854,-680.448 589,-698 592.76,-699.991 596.715,-701.852 600.761,-703.584"/>
<polygon fill="midnightblue" stroke="midnightblue" points="599.736,-706.943 610.321,-707.394 602.328,-700.441 599.736,-706.943"/>
</g>
<!-- Node229&#45;&gt;Node235 -->
<g id="edge10" class="edge"><title>Node229&#45;&gt;Node235</title>
<path fill="none" stroke="midnightblue" d="M522.852,-603.971C554.898,-589.951 602.291,-569.217 633.283,-555.657"/>
<polygon fill="midnightblue" stroke="midnightblue" points="634.971,-558.739 642.729,-551.525 632.165,-552.326 634.971,-558.739"/>
</g>
<!-- Node231&#45;&gt;Node232 -->
<g id="edge6" class="edge"><title>Node231&#45;&gt;Node232</title>
<path fill="none" stroke="midnightblue" d="M717.878,-608.994C726.513,-605.013 734.947,-600.076 742,-594 783.419,-558.319 809.652,-497.348 820.998,-466.339"/>
<polygon fill="midnightblue" stroke="midnightblue" points="824.368,-467.306 824.391,-456.711 817.766,-464.979 824.368,-467.306"/>
</g>
<!-- Node234&#45;&gt;Node232 -->
<g id="edge9" class="edge"><title>Node234&#45;&gt;Node232</title>
<path fill="none" stroke="midnightblue" d="M720.751,-711.659C728.583,-708.307 736.007,-703.871 742,-698 808.683,-632.672 823.371,-513.351 826.597,-466.563"/>
<polygon fill="midnightblue" stroke="midnightblue" points="830.093,-466.727 827.183,-456.54 823.105,-466.318 830.093,-466.727"/>
</g>
<!-- Node236 -->
<g id="node11" class="node"><title>Node236</title>
<g id="a_node11"><a xlink:href="../../d6/d6a/classefd_1_1Node.xhtml#a96ca13a5c2b971b68619ce4a34be0f66" target="_top" xlink:title="Returns a std::string representation of this Node and its childrem. ">
<polygon fill="none" stroke="black" points="779,-152.5 779,-171.5 878,-171.5 878,-152.5 779,-152.5"/>
<text text-anchor="middle" x="828.5" y="-159.5" font-family="Helvetica,sans-Serif" font-size="10.00">efd::Node::toString</text>
</a>
</g>
</g>
<!-- Node235&#45;&gt;Node236 -->
<g id="edge11" class="edge"><title>Node235&#45;&gt;Node236</title>
<path fill="none" stroke="midnightblue" d="M728.939,-532.468C733.751,-529.96 738.204,-526.85 742,-523 766.683,-497.969 811.449,-253.08 824.093,-181.533"/>
<polygon fill="midnightblue" stroke="midnightblue" points="827.555,-182.054 825.838,-171.599 820.66,-180.842 827.555,-182.054"/>
</g>
<!-- Node237&#45;&gt;Node233 -->
<g id="edge16" class="edge"><title>Node237&#45;&gt;Node233</title>
<path fill="none" stroke="midnightblue" d="M548.577,-440.514C564.179,-438.83 581.088,-437.005 597.043,-435.282"/>
<polygon fill="midnightblue" stroke="midnightblue" points="597.8,-438.721 607.366,-434.168 597.048,-431.761 597.8,-438.721"/>
</g>
<!-- Node238 -->
<g id="node13" class="node"><title>Node238</title>
<g id="a_node13"><a xlink:href="../../d3/d29/classefd_1_1NDInclude.xhtml#a5f3cf747332884d41b1bd84f15d91cd4" target="_top" xlink:title="Returns a std::string representation of the operation. ">
<polygon fill="none" stroke="black" points="593.5,-456.5 593.5,-475.5 737.5,-475.5 737.5,-456.5 593.5,-456.5"/>
<text text-anchor="middle" x="665.5" y="-463.5" font-family="Helvetica,sans-Serif" font-size="10.00">efd::NDInclude::getOperation</text>
</a>
</g>
</g>
<!-- Node237&#45;&gt;Node238 -->
<g id="edge13" class="edge"><title>Node237&#45;&gt;Node238</title>
<path fill="none" stroke="midnightblue" d="M548.577,-453.486C559.745,-454.691 571.582,-455.969 583.26,-457.23"/>
<polygon fill="midnightblue" stroke="midnightblue" points="583.142,-460.737 593.46,-458.331 583.893,-453.778 583.142,-460.737"/>
</g>
<!-- Node239 -->
<g id="node14" class="node"><title>Node239</title>
<g id="a_node14"><a xlink:href="../../d3/d29/classefd_1_1NDInclude.xhtml#a08ec207974cdeaf086c7978dc23b9a30" target="_top" xlink:title="Gets the node that holds the filename. ">
<polygon fill="none" stroke="black" points="594.5,-494.5 594.5,-513.5 736.5,-513.5 736.5,-494.5 594.5,-494.5"/>
<text text-anchor="middle" x="665.5" y="-501.5" font-family="Helvetica,sans-Serif" font-size="10.00">efd::NDInclude::getFilename</text>
</a>
</g>
</g>
<!-- Node237&#45;&gt;Node239 -->
<g id="edge14" class="edge"><title>Node237&#45;&gt;Node239</title>
<path fill="none" stroke="midnightblue" d="M511.388,-456.516C531.589,-464.707 561.947,-476.512 589,-485 596.793,-487.445 605.114,-489.795 613.28,-491.957"/>
<polygon fill="midnightblue" stroke="midnightblue" points="612.559,-495.386 623.116,-494.497 614.309,-488.608 612.559,-495.386"/>
</g>
<!-- Node239&#45;&gt;Node232 -->
<g id="edge15" class="edge"><title>Node239&#45;&gt;Node232</title>
<path fill="none" stroke="midnightblue" d="M709.996,-494.41C720.573,-491.707 731.779,-488.528 742,-485 761.638,-478.221 782.995,-468.731 799.451,-460.93"/>
<polygon fill="midnightblue" stroke="midnightblue" points="801.03,-464.055 808.524,-456.566 797.995,-457.747 801.03,-464.055"/>
</g>
<!-- Node240&#45;&gt;Node233 -->
<g id="edge21" class="edge"><title>Node240&#45;&gt;Node233</title>
<path fill="none" stroke="midnightblue" d="M540.045,-247.511C544.858,-249.991 549.307,-253.102 553,-257 600.749,-307.396 540.254,-359.568 589,-409 591.723,-411.761 594.783,-414.142 598.072,-416.193"/>
<polygon fill="midnightblue" stroke="midnightblue" points="596.737,-419.442 607.233,-420.887 599.929,-413.212 596.737,-419.442"/>
</g>
<!-- Node240&#45;&gt;Node236 -->
<g id="edge25" class="edge"><title>Node240&#45;&gt;Node236</title>
<path fill="none" stroke="midnightblue" d="M532.509,-228.434C539.637,-225.942 546.728,-222.841 553,-219 572.84,-206.851 568.011,-191.034 589,-181 645.621,-153.931 718.485,-152.195 768.695,-155.319"/>
<polygon fill="midnightblue" stroke="midnightblue" points="768.516,-158.815 778.737,-156.027 769.008,-151.833 768.516,-158.815"/>
</g>
<!-- Node241 -->
<g id="node16" class="node"><title>Node241</title>
<g id="a_node16"><a xlink:href="../../db/d1f/classefd_1_1NDGateSign.xhtml#aeed807d0af0556f34747b69cc1bc4d00" target="_top" xlink:title="Returns a std::string representation of the operation. ">
<polygon fill="none" stroke="black" points="589,-76.5 589,-95.5 742,-95.5 742,-76.5 589,-76.5"/>
<text text-anchor="middle" x="665.5" y="-83.5" font-family="Helvetica,sans-Serif" font-size="10.00">efd::NDGateSign::getOperation</text>
</a>
</g>
</g>
<!-- Node240&#45;&gt;Node241 -->
<g id="edge18" class="edge"><title>Node240&#45;&gt;Node241</title>
<path fill="none" stroke="midnightblue" d="M539.444,-228.368C544.43,-225.913 549.083,-222.842 553,-219 590.933,-181.796 550.331,-141.44 589,-105 590.512,-103.575 592.115,-102.252 593.793,-101.025"/>
<polygon fill="midnightblue" stroke="midnightblue" points="595.959,-103.806 602.724,-95.652 592.35,-97.8084 595.959,-103.806"/>
</g>
<!-- Node240&#45;&gt;Node242 -->
<g id="edge19" class="edge"><title>Node240&#45;&gt;Node242</title>
<path fill="none" stroke="midnightblue" d="M525.402,-247.586C534.535,-250.308 544.217,-253.497 553,-257 583.568,-269.192 616.971,-286.896 639.169,-299.329"/>
<polygon fill="midnightblue" stroke="midnightblue" points="637.528,-302.423 647.955,-304.304 640.977,-296.331 637.528,-302.423"/>
</g>
<!-- Node243 -->
<g id="node18" class="node"><title>Node243</title>
<g id="a_node18"><a xlink:href="../../db/d1f/classefd_1_1NDGateSign.xhtml#a0be5984f118128bc3e2bf64a8a390071" target="_top" xlink:title="Gets the args node. ">
<polygon fill="none" stroke="black" points="600,-190.5 600,-209.5 731,-209.5 731,-190.5 600,-190.5"/>
<text text-anchor="middle" x="665.5" y="-197.5" font-family="Helvetica,sans-Serif" font-size="10.00">efd::NDGateSign::getArgs</text>
</a>
</g>
</g>
<!-- Node240&#45;&gt;Node243 -->
<g id="edge22" class="edge"><title>Node240&#45;&gt;Node243</title>
<path fill="none" stroke="midnightblue" d="M532.912,-228.411C556.451,-223.329 585.557,-217.045 610.405,-211.68"/>
<polygon fill="midnightblue" stroke="midnightblue" points="611.371,-215.052 620.407,-209.52 609.894,-208.209 611.371,-215.052"/>
</g>
<!-- Node244 -->
<g id="node19" class="node"><title>Node244</title>
<g id="a_node19"><a xlink:href="../../d6/d6a/classefd_1_1Node.xhtml#a3f8e26eafae005e4befadedeab9b6df4" target="_top" xlink:title="Returns whether this node has any information. ">
<polygon fill="none" stroke="black" points="615,-38.5 615,-57.5 716,-57.5 716,-38.5 615,-38.5"/>
<text text-anchor="middle" x="665.5" y="-45.5" font-family="Helvetica,sans-Serif" font-size="10.00">efd::Node::isEmpty</text>
</a>
</g>
</g>
<!-- Node240&#45;&gt;Node244 -->
<g id="edge24" class="edge"><title>Node240&#45;&gt;Node244</title>
<path fill="none" stroke="midnightblue" d="M540.045,-228.489C544.858,-226.009 549.307,-222.898 553,-219 600.749,-168.604 540.254,-116.432 589,-67 593.609,-62.3263 599.186,-58.7421 605.198,-56.0022"/>
<polygon fill="midnightblue" stroke="midnightblue" points="606.791,-59.1428 614.927,-52.3563 604.335,-52.588 606.791,-59.1428"/>
</g>
<!-- Node245 -->
<g id="node20" class="node"><title>Node245</title>
<g id="a_node20"><a xlink:href="../../db/d1f/classefd_1_1NDGateSign.xhtml#a081605b4c294930734e9d93b34ef85d0" target="_top" xlink:title="Gets the qargs node. ">
<polygon fill="none" stroke="black" points="596,-228.5 596,-247.5 735,-247.5 735,-228.5 596,-228.5"/>
<text text-anchor="middle" x="665.5" y="-235.5" font-family="Helvetica,sans-Serif" font-size="10.00">efd::NDGateSign::getQArgs</text>
</a>
</g>
</g>
<!-- Node240&#45;&gt;Node245 -->
<g id="edge26" class="edge"><title>Node240&#45;&gt;Node245</title>
<path fill="none" stroke="midnightblue" d="M553.037,-238C563.594,-238 574.637,-238 585.495,-238"/>
<polygon fill="midnightblue" stroke="midnightblue" points="585.828,-241.5 595.828,-238 585.828,-234.5 585.828,-241.5"/>
</g>
<!-- Node246 -->
<g id="node21" class="node"><title>Node246</title>
<g id="a_node21"><a xlink:href="../../da/ddd/classefd_1_1NDList.xhtml#acfa25f299fc8d811fcada96273aa8550" target="_top" xlink:title="Returns a std::string representation of this Node and its childrem. ">
<polygon fill="none" stroke="black" points="612,-114.5 612,-133.5 719,-133.5 719,-114.5 612,-114.5"/>
<text text-anchor="middle" x="665.5" y="-121.5" font-family="Helvetica,sans-Serif" font-size="10.00">efd::NDList::toString</text>
</a>
</g>
</g>
<!-- Node240&#45;&gt;Node246 -->
<g id="edge28" class="edge"><title>Node240&#45;&gt;Node246</title>
<path fill="none" stroke="midnightblue" d="M537.208,-228.43C542.902,-225.972 548.334,-222.883 553,-219 580.196,-196.37 562.046,-170.918 589,-148 593.882,-143.849 599.488,-140.414 605.393,-137.571"/>
<polygon fill="midnightblue" stroke="midnightblue" points="607.006,-140.69 614.856,-133.575 604.283,-134.241 607.006,-140.69"/>
</g>
<!-- Node242&#45;&gt;Node232 -->
<g id="edge20" class="edge"><title>Node242&#45;&gt;Node232</title>
<path fill="none" stroke="midnightblue" d="M715.28,-321.1C724.644,-323.857 734.009,-327.685 742,-333 778.553,-357.311 805.511,-402.691 818.614,-428.252"/>
<polygon fill="midnightblue" stroke="midnightblue" points="815.515,-429.881 823.09,-437.288 821.788,-426.774 815.515,-429.881"/>
</g>
<!-- Node243&#45;&gt;Node232 -->
<g id="edge23" class="edge"><title>Node243&#45;&gt;Node232</title>
<path fill="none" stroke="midnightblue" d="M727.325,-209.529C732.658,-212.019 737.666,-215.127 742,-219 805.216,-275.491 821.858,-383.392 826.101,-427.49"/>
<polygon fill="midnightblue" stroke="midnightblue" points="822.616,-427.812 826.95,-437.48 829.591,-427.219 822.616,-427.812"/>
</g>
<!-- Node245&#45;&gt;Node232 -->
<g id="edge27" class="edge"><title>Node245&#45;&gt;Node232</title>
<path fill="none" stroke="midnightblue" d="M716.718,-247.512C725.863,-250.951 734.78,-255.631 742,-262 793.22,-307.18 815.809,-389.409 823.823,-427.128"/>
<polygon fill="midnightblue" stroke="midnightblue" points="820.466,-428.194 825.857,-437.315 827.331,-426.823 820.466,-428.194"/>
</g>
<!-- Node246&#45;&gt;Node236 -->
<g id="edge30" class="edge"><title>Node246&#45;&gt;Node236</title>
<path fill="none" stroke="midnightblue" d="M707.127,-133.589C728.468,-138.626 754.812,-144.844 777.408,-150.177"/>
<polygon fill="midnightblue" stroke="midnightblue" points="776.628,-153.589 787.165,-152.48 778.236,-146.776 776.628,-153.589"/>
</g>
<!-- Node247 -->
<g id="node22" class="node"><title>Node247</title>
<g id="a_node22"><a xlink:href="../../d6/d6a/classefd_1_1Node.xhtml#a63e30243eca03b0c85d8c4856e91c79d" target="_top" xlink:title="Gets the i&#45;th child. ">
<polygon fill="none" stroke="black" points="778,-114.5 778,-133.5 879,-133.5 879,-114.5 778,-114.5"/>
<text text-anchor="middle" x="828.5" y="-121.5" font-family="Helvetica,sans-Serif" font-size="10.00">efd::Node::getChild</text>
</a>
</g>
</g>
<!-- Node246&#45;&gt;Node247 -->
<g id="edge29" class="edge"><title>Node246&#45;&gt;Node247</title>
<path fill="none" stroke="midnightblue" d="M719.217,-124C734.715,-124 751.778,-124 767.685,-124"/>
<polygon fill="midnightblue" stroke="midnightblue" points="767.943,-127.5 777.943,-124 767.943,-120.5 767.943,-127.5"/>
</g>
<!-- Node248&#45;&gt;Node232 -->
<g id="edge33" class="edge"><title>Node248&#45;&gt;Node232</title>
<path fill="none" stroke="midnightblue" d="M516.98,-560.58C565.94,-575.28 667.938,-598.031 742,-561 781.655,-541.172 807.69,-493.238 819.741,-466.266"/>
<polygon fill="midnightblue" stroke="midnightblue" points="823.096,-467.319 823.799,-456.748 816.657,-464.573 823.096,-467.319"/>
</g>
<!-- Node250 -->
<g id="node25" class="node"><title>Node250</title>
<g id="a_node25"><a xlink:href="../../d6/d6a/classefd_1_1Node.xhtml#a23e33e714f48070d9e8c090cd396d956" target="_top" xlink:title="Returns the kind of this node. ">
<polygon fill="none" stroke="black" points="616.5,-0.5 616.5,-19.5 714.5,-19.5 714.5,-0.5 616.5,-0.5"/>
<text text-anchor="middle" x="665.5" y="-7.5" font-family="Helvetica,sans-Serif" font-size="10.00">efd::Node::getKind</text>
</a>
</g>
</g>
<!-- Node249&#45;&gt;Node250 -->
<g id="edge35" class="edge"><title>Node249&#45;&gt;Node250</title>
<path fill="none" stroke="midnightblue" d="M540.045,-190.489C544.858,-188.009 549.307,-184.898 553,-181 600.749,-130.604 540.254,-78.4324 589,-29 593.974,-23.9564 600.075,-20.1815 606.634,-17.3673"/>
<polygon fill="midnightblue" stroke="midnightblue" points="608.223,-20.5185 616.492,-13.8956 605.898,-13.9159 608.223,-20.5185"/>
</g>
<!-- Node251&#45;&gt;Node232 -->
<g id="edge37" class="edge"><title>Node251&#45;&gt;Node232</title>
<path fill="none" stroke="midnightblue" d="M537.055,-266.88C591.416,-259.383 680.001,-255.556 742,-295 790.198,-325.663 813.793,-393.69 822.87,-427.352"/>
<polygon fill="midnightblue" stroke="midnightblue" points="819.554,-428.515 825.407,-437.346 826.339,-426.793 819.554,-428.515"/>
</g>
<!-- Node254&#45;&gt;Node233 -->
<g id="edge44" class="edge"><title>Node254&#45;&gt;Node233</title>
<path fill="none" stroke="midnightblue" d="M502.531,-361.586C521.417,-374.099 556.417,-395.939 589,-409 595.238,-411.5 601.9,-413.746 608.587,-415.742"/>
<polygon fill="midnightblue" stroke="midnightblue" points="607.782,-419.151 618.356,-418.488 609.676,-412.412 607.782,-419.151"/>
</g>
<!-- Node254&#45;&gt;Node242 -->
<g id="edge43" class="edge"><title>Node254&#45;&gt;Node242</title>
<path fill="none" stroke="midnightblue" d="M532.912,-342.411C556.451,-337.329 585.557,-331.045 610.405,-325.68"/>
<polygon fill="midnightblue" stroke="midnightblue" points="611.371,-329.052 620.407,-323.52 609.894,-322.209 611.371,-329.052"/>
</g>
<!-- Node255 -->
<g id="node30" class="node"><title>Node255</title>
<g id="a_node30"><a xlink:href="../../da/d97/classefd_1_1NDRegDecl.xhtml#ae1a4518aa5a5ba67545587381c9e0fa1" target="_top" xlink:title="Returns a std::string representation of the operation. ">
<polygon fill="none" stroke="black" points="590,-342.5 590,-361.5 741,-361.5 741,-342.5 590,-342.5"/>
<text text-anchor="middle" x="665.5" y="-349.5" font-family="Helvetica,sans-Serif" font-size="10.00">efd::NDRegDecl::getOperation</text>
</a>
</g>
</g>
<!-- Node254&#45;&gt;Node255 -->
<g id="edge42" class="edge"><title>Node254&#45;&gt;Node255</title>
<path fill="none" stroke="midnightblue" d="M552.04,-352C561.079,-352 570.491,-352 579.853,-352"/>
<polygon fill="midnightblue" stroke="midnightblue" points="579.972,-355.5 589.972,-352 579.972,-348.5 579.972,-355.5"/>
</g>
<!-- Node256 -->
<g id="node31" class="node"><title>Node256</title>
<g id="a_node31"><a xlink:href="../../da/d97/classefd_1_1NDRegDecl.xhtml#aa0cfc2736f15ea67553ea975b3b207f9" target="_top" xlink:title="Gets the size node. ">
<polygon fill="none" stroke="black" points="601.5,-380.5 601.5,-399.5 729.5,-399.5 729.5,-380.5 601.5,-380.5"/>
<text text-anchor="middle" x="665.5" y="-387.5" font-family="Helvetica,sans-Serif" font-size="10.00">efd::NDRegDecl::getSize</text>
</a>
</g>
</g>
<!-- Node254&#45;&gt;Node256 -->
<g id="edge45" class="edge"><title>Node254&#45;&gt;Node256</title>
<path fill="none" stroke="midnightblue" d="M532.912,-361.589C556.451,-366.671 585.557,-372.955 610.405,-378.32"/>
<polygon fill="midnightblue" stroke="midnightblue" points="609.894,-381.791 620.407,-380.48 611.371,-374.948 609.894,-381.791"/>
</g>
<!-- Node256&#45;&gt;Node232 -->
<g id="edge46" class="edge"><title>Node256&#45;&gt;Node232</title>
<path fill="none" stroke="midnightblue" d="M709.996,-399.59C720.573,-402.293 731.779,-405.472 742,-409 761.638,-415.779 782.995,-425.269 799.451,-433.07"/>
<polygon fill="midnightblue" stroke="midnightblue" points="797.995,-436.253 808.524,-437.434 801.03,-429.945 797.995,-436.253"/>
</g>
</g>
</svg>
