<?xml version="1.0" encoding="UTF-8" standalone="no"?>
<!DOCTYPE svg PUBLIC "-//W3C//DTD SVG 1.1//EN"
 "http://www.w3.org/Graphics/SVG/1.1/DTD/svg11.dtd">
<!-- Generated by graphviz version 2.38.0 (20140413.2041)
 -->
<!-- Title: efd::PrintStats Pages: 1 -->
<svg width="526pt" height="66pt"
 viewBox="0.00 0.00 526.00 66.00" xmlns="http://www.w3.org/2000/svg" xmlns:xlink="http://www.w3.org/1999/xlink">
<g id="graph0" class="graph" transform="scale(1 1) rotate(0) translate(4 62)">
<title>efd::PrintStats</title>
<!-- Node221 -->
<g id="node1" class="node"><title>Node221</title>
<polygon fill="#bfbfbf" stroke="black" points="0,-19.5 0,-38.5 80,-38.5 80,-19.5 0,-19.5"/>
<text text-anchor="middle" x="40" y="-26.5" font-family="Helvetica,sans-Serif" font-size="10.00">efd::PrintStats</text>
</g>
<!-- Node222 -->
<g id="node2" class="node"><title>Node222</title>
<g id="a_node2"><a xlink:href="../../d8/d51/classefd_1_1StatsPool.xhtml#a1fbb6d94a00b13ad41ed4c5d40c88e6f" target="_top" xlink:title="efd::StatsPool::print">
<polygon fill="none" stroke="black" points="116,-19.5 116,-38.5 220,-38.5 220,-19.5 116,-19.5"/>
<text text-anchor="middle" x="168" y="-26.5" font-family="Helvetica,sans-Serif" font-size="10.00">efd::StatsPool::print</text>
</a>
</g>
</g>
<!-- Node221&#45;&gt;Node222 -->
<g id="edge1" class="edge"><title>Node221&#45;&gt;Node222</title>
<path fill="none" stroke="midnightblue" d="M80.1765,-29C88.2766,-29 96.9928,-29 105.667,-29"/>
<polygon fill="midnightblue" stroke="midnightblue" points="105.791,-32.5001 115.791,-29 105.791,-25.5001 105.791,-32.5001"/>
</g>
<!-- Node223 -->
<g id="node3" class="node"><title>Node223</title>
<g id="a_node3"><a xlink:href="../../db/d5d/classefd_1_1StatBase.xhtml#a3e9289cc9a1413590fc9ee7f1529652c" target="_top" xlink:title="efd::StatBase::isZero">
<polygon fill="none" stroke="black" points="256,-38.5 256,-57.5 366,-57.5 366,-38.5 256,-38.5"/>
<text text-anchor="middle" x="311" y="-45.5" font-family="Helvetica,sans-Serif" font-size="10.00">efd::StatBase::isZero</text>
</a>
</g>
</g>
<!-- Node222&#45;&gt;Node223 -->
<g id="edge2" class="edge"><title>Node222&#45;&gt;Node223</title>
<path fill="none" stroke="midnightblue" d="M220.303,-35.9132C228.566,-37.0266 237.21,-38.1914 245.731,-39.3396"/>
<polygon fill="midnightblue" stroke="midnightblue" points="245.27,-42.8091 255.648,-40.676 246.205,-35.8718 245.27,-42.8091"/>
</g>
<!-- Node224 -->
<g id="node4" class="node"><title>Node224</title>
<g id="a_node4"><a xlink:href="../../db/d5d/classefd_1_1StatBase.xhtml#a636146648872719acb7f676d1b8277da" target="_top" xlink:title="Prints the stat in out (it prints what toString returns). ">
<polygon fill="none" stroke="black" points="260.5,-0.5 260.5,-19.5 361.5,-19.5 361.5,-0.5 260.5,-0.5"/>
<text text-anchor="middle" x="311" y="-7.5" font-family="Helvetica,sans-Serif" font-size="10.00">efd::StatBase::print</text>
</a>
</g>
</g>
<!-- Node222&#45;&gt;Node224 -->
<g id="edge3" class="edge"><title>Node222&#45;&gt;Node224</title>
<path fill="none" stroke="midnightblue" d="M220.303,-22.0868C230.004,-20.7796 240.23,-19.4016 250.167,-18.0626"/>
<polygon fill="midnightblue" stroke="midnightblue" points="250.94,-21.4901 260.383,-16.686 250.005,-14.5528 250.94,-21.4901"/>
</g>
<!-- Node225 -->
<g id="node5" class="node"><title>Node225</title>
<g id="a_node5"><a xlink:href="../../db/d5d/classefd_1_1StatBase.xhtml#ae2978e28d003ba2a3dc8b9e1239dae12" target="_top" xlink:title="Returns a string with the contents of the stat. e.g.: 35::CNOTNum::Number of CNOT nodes...">
<polygon fill="none" stroke="black" points="402,-0.5 402,-19.5 518,-19.5 518,-0.5 402,-0.5"/>
<text text-anchor="middle" x="460" y="-7.5" font-family="Helvetica,sans-Serif" font-size="10.00">efd::StatBase::toString</text>
</a>
</g>
</g>
<!-- Node224&#45;&gt;Node225 -->
<g id="edge4" class="edge"><title>Node224&#45;&gt;Node225</title>
<path fill="none" stroke="midnightblue" d="M361.767,-10C371.45,-10 381.749,-10 391.884,-10"/>
<polygon fill="midnightblue" stroke="midnightblue" points="391.936,-13.5001 401.936,-10 391.936,-6.5001 391.936,-13.5001"/>
</g>
</g>
</svg>
