<?xml version="1.0" encoding="UTF-8" standalone="no"?>
<!DOCTYPE svg PUBLIC "-//W3C//DTD SVG 1.1//EN"
 "http://www.w3.org/Graphics/SVG/1.1/DTD/svg11.dtd">
<!-- Generated by graphviz version 2.40.1 (20161225.0304)
 -->
<!-- Title: efd::InlineGate Pages: 1 -->
<svg width="451pt" height="600pt"
 viewBox="0.00 0.00 451.00 600.24" xmlns="http://www.w3.org/2000/svg" xmlns:xlink="http://www.w3.org/1999/xlink">
<g id="graph0" class="graph" transform="scale(1 1) rotate(0) translate(4 596.2417)">
<title>efd::InlineGate</title>
<!-- Node48 -->
<g id="node1" class="node">
<title>Node48</title>
<polygon fill="#bfbfbf" stroke="#000000" points="0,-287.7417 0,-306.7417 89,-306.7417 89,-287.7417 0,-287.7417"/>
<text text-anchor="middle" x="44.5" y="-294.7417" font-family="Helvetica,sans-Serif" font-size="10.00" fill="#000000">efd::InlineGate</text>
</g>
<!-- Node49 -->
<g id="node2" class="node">
<title>Node49</title>
<g id="a_node2"><a xlink:href="../../d6/d6a/classefd_1_1Node.xhtml#ab813c60af1717cf50e92a28b274c24ef" target="_top" xlink:title="Used by visitor classes. ">
<polygon fill="none" stroke="#000000" points="163.5,-572.7417 163.5,-591.7417 260.5,-591.7417 260.5,-572.7417 163.5,-572.7417"/>
<text text-anchor="middle" x="212" y="-579.7417" font-family="Helvetica,sans-Serif" font-size="10.00" fill="#000000">efd::Node::apply</text>
</a>
</g>
</g>
<!-- Node48&#45;&gt;Node49 -->
<g id="edge1" class="edge">
<title>Node48&#45;&gt;Node49</title>
<path fill="none" stroke="#191970" d="M46.0986,-306.9522C53.4453,-350.4166 85.3123,-526.5663 125,-563.2417 132.9978,-570.6324 143.1808,-575.3945 153.7411,-578.4149"/>
<polygon fill="#191970" stroke="#191970" points="152.956,-581.8257 163.4935,-580.7246 154.5693,-575.0141 152.956,-581.8257"/>
</g>
<!-- Node50 -->
<g id="node3" class="node">
<title>Node50</title>
<g id="a_node3"><a xlink:href="../../d6/d6a/classefd_1_1Node.xhtml#a6c85c9bd21014b73497de741cc75f706" target="_top" xlink:title="Clones the current node (deep copy). ">
<polygon fill="none" stroke="#000000" points="164,-534.7417 164,-553.7417 260,-553.7417 260,-534.7417 164,-534.7417"/>
<text text-anchor="middle" x="212" y="-541.7417" font-family="Helvetica,sans-Serif" font-size="10.00" fill="#000000">efd::Node::clone</text>
</a>
</g>
</g>
<!-- Node48&#45;&gt;Node50 -->
<g id="edge2" class="edge">
<title>Node48&#45;&gt;Node50</title>
<path fill="none" stroke="#191970" d="M44.9717,-306.967C47.1869,-341.5257 59.4502,-459.5703 125,-520.2417 133.0995,-527.7384 143.3283,-532.9266 153.9014,-536.5092"/>
<polygon fill="#191970" stroke="#191970" points="153.0763,-539.9146 163.6571,-539.3681 155.045,-533.1971 153.0763,-539.9146"/>
</g>
<!-- Node51 -->
<g id="node4" class="node">
<title>Node51</title>
<g id="a_node4"><a xlink:href="../../d4/deb/namespaceefd.xhtml#af3487901a239a99750dc5dcdc3a8c868" target="_top" xlink:title="efd::ExitWith">
<polygon fill="none" stroke="#000000" points="349,-116.7417 349,-135.7417 429,-135.7417 429,-116.7417 349,-116.7417"/>
<text text-anchor="middle" x="389" y="-123.7417" font-family="Helvetica,sans-Serif" font-size="10.00" fill="#000000">efd::ExitWith</text>
</a>
</g>
</g>
<!-- Node48&#45;&gt;Node51 -->
<g id="edge3" class="edge">
<title>Node48&#45;&gt;Node51</title>
<path fill="none" stroke="#191970" d="M45.0918,-307.0282C47.6518,-339.6036 60.7859,-444.7084 125,-487.2417 189.4729,-529.9464 238.061,-534.8534 299,-487.2417 354.2058,-444.1093 380.4749,-214.8701 387.2081,-145.8923"/>
<polygon fill="#191970" stroke="#191970" points="390.6938,-146.2076 388.1526,-135.9221 383.725,-145.5474 390.6938,-146.2076"/>
</g>
<!-- Node52 -->
<g id="node5" class="node">
<title>Node52</title>
<g id="a_node5"><a xlink:href="../../db/d1f/classefd_1_1NDGateSign.xhtml#a0be5984f118128bc3e2bf64a8a390071" target="_top" xlink:title="Gets the args node. ">
<polygon fill="none" stroke="#000000" points="141.5,-458.7417 141.5,-477.7417 282.5,-477.7417 282.5,-458.7417 141.5,-458.7417"/>
<text text-anchor="middle" x="212" y="-465.7417" font-family="Helvetica,sans-Serif" font-size="10.00" fill="#000000">efd::NDGateSign::getArgs</text>
</a>
</g>
</g>
<!-- Node48&#45;&gt;Node52 -->
<g id="edge4" class="edge">
<title>Node48&#45;&gt;Node52</title>
<path fill="none" stroke="#191970" d="M46.6175,-306.9145C53.0934,-334.0735 75.293,-411.5028 125,-449.2417 127.3665,-451.0384 129.868,-452.6724 132.4709,-454.158"/>
<polygon fill="#191970" stroke="#191970" points="131.1421,-457.4044 141.6625,-458.6582 134.2202,-451.1175 131.1421,-457.4044"/>
</g>
<!-- Node53 -->
<g id="node6" class="node">
<title>Node53</title>
<g id="a_node6"><a xlink:href="../../dd/d94/classefd_1_1NDQOp.xhtml#a38dbbb3a5ca8faaeb9973512f04c6f64" target="_top" xlink:title="Gets the arguments. ">
<polygon fill="none" stroke="#000000" points="153,-420.7417 153,-439.7417 271,-439.7417 271,-420.7417 153,-420.7417"/>
<text text-anchor="middle" x="212" y="-427.7417" font-family="Helvetica,sans-Serif" font-size="10.00" fill="#000000">efd::NDQOp::getArgs</text>
</a>
</g>
</g>
<!-- Node48&#45;&gt;Node53 -->
<g id="edge5" class="edge">
<title>Node48&#45;&gt;Node53</title>
<path fill="none" stroke="#191970" d="M48.4301,-307.0401C57.9338,-329.4004 84.4116,-384.3299 125,-411.2417 130.6272,-414.9727 136.8663,-417.9838 143.3449,-420.4118"/>
<polygon fill="#191970" stroke="#191970" points="142.3718,-423.7761 152.9646,-423.568 144.5541,-417.1249 142.3718,-423.7761"/>
</g>
<!-- Node54 -->
<g id="node7" class="node">
<title>Node54</title>
<g id="a_node7"><a xlink:href="../../d6/d6a/classefd_1_1Node.xhtml#a63e30243eca03b0c85d8c4856e91c79d" target="_top" xlink:title="Gets the i&#45;th child. ">
<polygon fill="none" stroke="#000000" points="157,-382.7417 157,-401.7417 267,-401.7417 267,-382.7417 157,-382.7417"/>
<text text-anchor="middle" x="212" y="-389.7417" font-family="Helvetica,sans-Serif" font-size="10.00" fill="#000000">efd::Node::getChild</text>
</a>
</g>
</g>
<!-- Node48&#45;&gt;Node54 -->
<g id="edge6" class="edge">
<title>Node48&#45;&gt;Node54</title>
<path fill="none" stroke="#191970" d="M51.7586,-306.9085C64.611,-323.2909 93.0473,-356.3692 125,-373.2417 131.8249,-376.8456 139.2965,-379.7664 146.9029,-382.1336"/>
<polygon fill="#191970" stroke="#191970" points="145.9976,-385.5147 156.5713,-384.8456 147.8882,-378.7748 145.9976,-385.5147"/>
</g>
<!-- Node55 -->
<g id="node8" class="node">
<title>Node55</title>
<g id="a_node8"><a xlink:href="../../d6/d6a/classefd_1_1Node.xhtml#a11df06f4d8e590426340024cbb2db23e" target="_top" xlink:title="Returns the number of childrem of this node. ">
<polygon fill="none" stroke="#000000" points="137.5,-344.7417 137.5,-363.7417 286.5,-363.7417 286.5,-344.7417 137.5,-344.7417"/>
<text text-anchor="middle" x="212" y="-351.7417" font-family="Helvetica,sans-Serif" font-size="10.00" fill="#000000">efd::Node::getChildNumber</text>
</a>
</g>
</g>
<!-- Node48&#45;&gt;Node55 -->
<g id="edge7" class="edge">
<title>Node48&#45;&gt;Node55</title>
<path fill="none" stroke="#191970" d="M61.9244,-306.8804C77.9145,-315.3801 102.469,-327.5739 125,-335.2417 132.6998,-337.8621 140.9092,-340.2079 149.0934,-342.2813"/>
<polygon fill="#191970" stroke="#191970" points="148.4863,-345.7352 159.028,-344.6755 150.1263,-338.93 148.4863,-345.7352"/>
</g>
<!-- Node56 -->
<g id="node9" class="node">
<title>Node56</title>
<g id="a_node9"><a xlink:href="../../d1/d4b/classefd_1_1NDGateDecl.xhtml#aa45195dbaf1b921fcece3cac5caaceac" target="_top" xlink:title="Gets the goplist node. ">
<polygon fill="none" stroke="#000000" points="133,-306.7417 133,-325.7417 291,-325.7417 291,-306.7417 133,-306.7417"/>
<text text-anchor="middle" x="212" y="-313.7417" font-family="Helvetica,sans-Serif" font-size="10.00" fill="#000000">efd::NDGateDecl::getGOpList</text>
</a>
</g>
</g>
<!-- Node48&#45;&gt;Node56 -->
<g id="edge8" class="edge">
<title>Node48&#45;&gt;Node56</title>
<path fill="none" stroke="#191970" d="M89.3869,-302.3333C99.7301,-303.5066 111.0893,-304.7951 122.5916,-306.0998"/>
<polygon fill="#191970" stroke="#191970" points="122.3837,-309.5986 132.7145,-307.2481 123.1727,-302.6432 122.3837,-309.5986"/>
</g>
<!-- Node57 -->
<g id="node10" class="node">
<title>Node57</title>
<g id="a_node10"><a xlink:href="../../dd/d94/classefd_1_1NDQOp.xhtml#aa9d90f493865fe9cdc3fecd468eaa33b" target="_top" xlink:title="Gets the id. ">
<polygon fill="none" stroke="#000000" points="159.5,-268.7417 159.5,-287.7417 264.5,-287.7417 264.5,-268.7417 159.5,-268.7417"/>
<text text-anchor="middle" x="212" y="-275.7417" font-family="Helvetica,sans-Serif" font-size="10.00" fill="#000000">efd::NDQOp::getId</text>
</a>
</g>
</g>
<!-- Node48&#45;&gt;Node57 -->
<g id="edge9" class="edge">
<title>Node48&#45;&gt;Node57</title>
<path fill="none" stroke="#191970" d="M89.3869,-292.15C107.7066,-290.072 129.2139,-287.6323 149.0575,-285.3814"/>
<polygon fill="#191970" stroke="#191970" points="149.7152,-288.8294 159.257,-284.2245 148.9262,-281.874 149.7152,-288.8294"/>
</g>
<!-- Node58 -->
<g id="node11" class="node">
<title>Node58</title>
<g id="a_node11"><a xlink:href="../../d6/d6a/classefd_1_1Node.xhtml#a7df493996977432aee05df57ae6dc375" target="_top" xlink:title="Returns the parent node of the current node. ">
<polygon fill="none" stroke="#000000" points="153.5,-230.7417 153.5,-249.7417 270.5,-249.7417 270.5,-230.7417 153.5,-230.7417"/>
<text text-anchor="middle" x="212" y="-237.7417" font-family="Helvetica,sans-Serif" font-size="10.00" fill="#000000">efd::Node::getParent</text>
</a>
</g>
</g>
<!-- Node48&#45;&gt;Node58 -->
<g id="edge10" class="edge">
<title>Node48&#45;&gt;Node58</title>
<path fill="none" stroke="#191970" d="M61.9244,-287.603C77.9145,-279.1033 102.469,-266.9095 125,-259.2417 132.6998,-256.6213 140.9092,-254.2755 149.0934,-252.2021"/>
<polygon fill="#191970" stroke="#191970" points="150.1263,-255.5534 159.028,-249.8079 148.4863,-248.7482 150.1263,-255.5534"/>
</g>
<!-- Node59 -->
<g id="node12" class="node">
<title>Node59</title>
<g id="a_node12"><a xlink:href="../../db/d1f/classefd_1_1NDGateSign.xhtml#a081605b4c294930734e9d93b34ef85d0" target="_top" xlink:title="Gets the qargs node. ">
<polygon fill="none" stroke="#000000" points="137.5,-192.7417 137.5,-211.7417 286.5,-211.7417 286.5,-192.7417 137.5,-192.7417"/>
<text text-anchor="middle" x="212" y="-199.7417" font-family="Helvetica,sans-Serif" font-size="10.00" fill="#000000">efd::NDGateSign::getQArgs</text>
</a>
</g>
</g>
<!-- Node48&#45;&gt;Node59 -->
<g id="edge11" class="edge">
<title>Node48&#45;&gt;Node59</title>
<path fill="none" stroke="#191970" d="M51.7586,-287.5749C64.611,-271.1925 93.0473,-238.1142 125,-221.2417 129.4987,-218.8662 134.2783,-216.7874 139.1923,-214.9684"/>
<polygon fill="#191970" stroke="#191970" points="140.3865,-218.2598 148.7694,-211.7807 138.1758,-211.618 140.3865,-218.2598"/>
</g>
<!-- Node60 -->
<g id="node13" class="node">
<title>Node60</title>
<g id="a_node13"><a xlink:href="../../dd/d94/classefd_1_1NDQOp.xhtml#af7ef43289355c5bb047a46419177c8ed" target="_top" xlink:title="Gets the quantum arguments. ">
<polygon fill="none" stroke="#000000" points="149.5,-154.7417 149.5,-173.7417 274.5,-173.7417 274.5,-154.7417 149.5,-154.7417"/>
<text text-anchor="middle" x="212" y="-161.7417" font-family="Helvetica,sans-Serif" font-size="10.00" fill="#000000">efd::NDQOp::getQArgs</text>
</a>
</g>
</g>
<!-- Node48&#45;&gt;Node60 -->
<g id="edge12" class="edge">
<title>Node48&#45;&gt;Node60</title>
<path fill="none" stroke="#191970" d="M48.4301,-287.4433C57.9338,-265.083 84.4116,-210.1534 125,-183.2417 129.5903,-180.1981 134.5879,-177.6337 139.7904,-175.474"/>
<polygon fill="#191970" stroke="#191970" points="141.1287,-178.7117 149.3327,-172.0075 138.7386,-172.1323 141.1287,-178.7117"/>
</g>
<!-- Node61 -->
<g id="node14" class="node">
<title>Node61</title>
<g id="a_node14"><a xlink:href="../../dd/d52/classefd_1_1QModule.xhtml#a2cbccf2cf8dd0e4e2dc30bf12e146644" target="_top" xlink:title="Gets the quantum gate mapped to id. ">
<polygon fill="none" stroke="#000000" points="145,-116.7417 145,-135.7417 279,-135.7417 279,-116.7417 145,-116.7417"/>
<text text-anchor="middle" x="212" y="-123.7417" font-family="Helvetica,sans-Serif" font-size="10.00" fill="#000000">efd::QModule::getQGate</text>
</a>
</g>
</g>
<!-- Node48&#45;&gt;Node61 -->
<g id="edge13" class="edge">
<title>Node48&#45;&gt;Node61</title>
<path fill="none" stroke="#191970" d="M46.6175,-287.5689C53.0934,-260.4099 75.293,-182.9806 125,-145.2417 128.2323,-142.7877 131.7164,-140.6371 135.3668,-138.7537"/>
<polygon fill="#191970" stroke="#191970" points="137.0106,-141.8535 144.7342,-134.6012 134.1738,-135.4541 137.0106,-141.8535"/>
</g>
<!-- Node62 -->
<g id="node15" class="node">
<title>Node62</title>
<g id="a_node15"><a xlink:href="../../df/d1b/classefd_1_1NDValue.xhtml#a53ee724a8db3429bf30bb1936ad548b2" target="_top" xlink:title="Returns a copy to the setted value. ">
<polygon fill="none" stroke="#000000" points="152.5,-78.7417 152.5,-97.7417 271.5,-97.7417 271.5,-78.7417 152.5,-78.7417"/>
<text text-anchor="middle" x="212" y="-85.7417" font-family="Helvetica,sans-Serif" font-size="10.00" fill="#000000">efd::NDValue::getVal</text>
</a>
</g>
</g>
<!-- Node48&#45;&gt;Node62 -->
<g id="edge15" class="edge">
<title>Node48&#45;&gt;Node62</title>
<path fill="none" stroke="#191970" d="M45.5248,-287.53C49.3867,-256.0735 65.9962,-156.1909 125,-107.2417 130.2763,-102.8645 136.3351,-99.4336 142.747,-96.7526"/>
<polygon fill="#191970" stroke="#191970" points="144.0956,-99.9878 152.3438,-93.3382 141.7491,-93.3927 144.0956,-99.9878"/>
</g>
<!-- Node63 -->
<g id="node16" class="node">
<title>Node63</title>
<g id="a_node16"><a xlink:href="../../dd/d52/classefd_1_1QModule.xhtml#abaf0b3dd099e4b098b89772b6a134d07" target="_top" xlink:title="Replaces the stmt by the vector stmts. ">
<polygon fill="none" stroke="#000000" points="125,-40.7417 125,-59.7417 299,-59.7417 299,-40.7417 125,-40.7417"/>
<text text-anchor="middle" x="212" y="-47.7417" font-family="Helvetica,sans-Serif" font-size="10.00" fill="#000000">efd::QModule::replaceStatement</text>
</a>
</g>
</g>
<!-- Node48&#45;&gt;Node63 -->
<g id="edge16" class="edge">
<title>Node48&#45;&gt;Node63</title>
<path fill="none" stroke="#191970" d="M46.593,-287.6115C55.3411,-248.2221 90.1463,-100.0087 125,-69.2417 126.7422,-67.7038 128.5797,-66.281 130.4954,-64.9651"/>
<polygon fill="#191970" stroke="#191970" points="132.4337,-67.8874 139.3419,-59.8545 128.9321,-61.8261 132.4337,-67.8874"/>
</g>
<!-- Node64 -->
<g id="node17" class="node">
<title>Node64</title>
<g id="a_node17"><a xlink:href="../../d6/d6a/classefd_1_1Node.xhtml#a96ca13a5c2b971b68619ce4a34be0f66" target="_top" xlink:title="Returns a std::string representation of this Node and its childrem. ">
<polygon fill="none" stroke="#000000" points="335,-21.7417 335,-40.7417 443,-40.7417 443,-21.7417 335,-21.7417"/>
<text text-anchor="middle" x="389" y="-28.7417" font-family="Helvetica,sans-Serif" font-size="10.00" fill="#000000">efd::Node::toString</text>
</a>
</g>
</g>
<!-- Node48&#45;&gt;Node64 -->
<g id="edge19" class="edge">
<title>Node48&#45;&gt;Node64</title>
<path fill="none" stroke="#191970" d="M45.8811,-287.6167C52.3889,-243.7513 81.5093,-63.5187 125,-31.2417 191.871,18.3872 296.803,-2.4303 352.0855,-18.6972"/>
<polygon fill="#191970" stroke="#191970" points="351.2237,-22.0934 361.8098,-21.6636 353.2662,-15.398 351.2237,-22.0934"/>
</g>
<!-- Node61&#45;&gt;Node51 -->
<g id="edge14" class="edge">
<title>Node61&#45;&gt;Node51</title>
<path fill="none" stroke="#191970" d="M279.1685,-126.2417C298.8807,-126.2417 320.0942,-126.2417 338.572,-126.2417"/>
<polygon fill="#191970" stroke="#191970" points="338.8152,-129.7418 348.8152,-126.2417 338.8152,-122.7418 338.8152,-129.7418"/>
</g>
<!-- Node63&#45;&gt;Node51 -->
<g id="edge18" class="edge">
<title>Node63&#45;&gt;Node51</title>
<path fill="none" stroke="#191970" d="M269.4991,-59.812C279.5209,-62.3187 289.7047,-65.4231 299,-69.2417 324.6402,-79.775 351.1059,-97.5117 368.6423,-110.407"/>
<polygon fill="#191970" stroke="#191970" points="366.8495,-113.4377 376.9472,-116.6453 371.0537,-107.8409 366.8495,-113.4377"/>
</g>
<!-- Node63&#45;&gt;Node64 -->
<g id="edge17" class="edge">
<title>Node63&#45;&gt;Node64</title>
<path fill="none" stroke="#191970" d="M299.2037,-40.8808C307.6707,-39.972 316.1537,-39.0614 324.3423,-38.1823"/>
<polygon fill="#191970" stroke="#191970" points="324.9646,-41.6358 334.5338,-37.0883 324.2174,-34.6757 324.9646,-41.6358"/>
</g>
</g>
</svg>
