<?xml version="1.0" encoding="UTF-8" standalone="no"?>
<!DOCTYPE svg PUBLIC "-//W3C//DTD SVG 1.1//EN"
 "http://www.w3.org/Graphics/SVG/1.1/DTD/svg11.dtd">
<!-- Generated by graphviz version 2.40.1 (20161225.0304)
 -->
<!-- Title: efd::CreateIntrinsicGate Pages: 1 -->
<svg width="287pt" height="142pt"
 viewBox="0.00 0.00 287.00 142.00" xmlns="http://www.w3.org/2000/svg" xmlns:xlink="http://www.w3.org/1999/xlink">
<g id="graph0" class="graph" transform="scale(1 1) rotate(0) translate(4 138)">
<title>efd::CreateIntrinsicGate</title>
<!-- Node19 -->
<g id="node1" class="node">
<title>Node19</title>
<polygon fill="#bfbfbf" stroke="#000000" points="0,-57.5 0,-76.5 133,-76.5 133,-57.5 0,-57.5"/>
<text text-anchor="middle" x="66.5" y="-64.5" font-family="Helvetica,sans-Serif" font-size="10.00" fill="#000000">efd::CreateIntrinsicGate</text>
</g>
<!-- Node20 -->
<g id="node2" class="node">
<title>Node20</title>
<g id="a_node2"><a xlink:href="../../d4/deb/namespaceefd.xhtml#a3c72243a170ffe8a4836e7092fd1469f" target="_top" xlink:title="Creates a call to the intrinsic long cnot function. ">
<polygon fill="none" stroke="#000000" points="169,-114.5 169,-133.5 279,-133.5 279,-114.5 169,-114.5"/>
<text text-anchor="middle" x="224" y="-121.5" font-family="Helvetica,sans-Serif" font-size="10.00" fill="#000000">efd::CreateILongCX</text>
</a>
</g>
</g>
<!-- Node19&#45;&gt;Node20 -->
<g id="edge1" class="edge">
<title>Node19&#45;&gt;Node20</title>
<path fill="none" stroke="#191970" d="M91.7164,-76.5277C112.429,-84.3105 142.5555,-95.5317 169,-105 174.6056,-107.007 180.5453,-109.097 186.3681,-111.1253"/>
<polygon fill="#191970" stroke="#191970" points="185.3828,-114.488 195.9776,-114.4551 187.6747,-107.8738 185.3828,-114.488"/>
</g>
<!-- Node21 -->
<g id="node3" class="node">
<title>Node21</title>
<g id="a_node3"><a xlink:href="../../d4/deb/namespaceefd.xhtml#af8e947f977669e54d6aaf3a43815833c" target="_top" xlink:title="Creates a call to the intrinsic reversal cnot function. ">
<polygon fill="none" stroke="#000000" points="171,-76.5 171,-95.5 277,-95.5 277,-76.5 171,-76.5"/>
<text text-anchor="middle" x="224" y="-83.5" font-family="Helvetica,sans-Serif" font-size="10.00" fill="#000000">efd::CreateIRevCX</text>
</a>
</g>
</g>
<!-- Node19&#45;&gt;Node21 -->
<g id="edge2" class="edge">
<title>Node19&#45;&gt;Node21</title>
<path fill="none" stroke="#191970" d="M133.2942,-75.0577C142.4315,-76.16 151.7888,-77.2888 160.8583,-78.3829"/>
<polygon fill="#191970" stroke="#191970" points="160.6015,-81.8772 170.9487,-79.6002 161.4399,-74.9276 160.6015,-81.8772"/>
</g>
<!-- Node22 -->
<g id="node4" class="node">
<title>Node22</title>
<g id="a_node4"><a xlink:href="../../d4/deb/namespaceefd.xhtml#ad83c1dbaa41519964485ea8e2437bcb7" target="_top" xlink:title="Creates a call to the intrinsic swap function. ">
<polygon fill="none" stroke="#000000" points="174,-38.5 174,-57.5 274,-57.5 274,-38.5 174,-38.5"/>
<text text-anchor="middle" x="224" y="-45.5" font-family="Helvetica,sans-Serif" font-size="10.00" fill="#000000">efd::CreateISwap</text>
</a>
</g>
</g>
<!-- Node19&#45;&gt;Node22 -->
<g id="edge3" class="edge">
<title>Node19&#45;&gt;Node22</title>
<path fill="none" stroke="#191970" d="M133.2942,-58.9423C143.3748,-57.7262 153.7229,-56.4779 163.6571,-55.2795"/>
<polygon fill="#191970" stroke="#191970" points="164.3224,-58.7247 173.8312,-54.0521 163.4839,-51.7751 164.3224,-58.7247"/>
</g>
<!-- Node23 -->
<g id="node5" class="node">
<title>Node23</title>
<g id="a_node5"><a xlink:href="../../d4/deb/namespaceefd.xhtml#af3487901a239a99750dc5dcdc3a8c868" target="_top" xlink:title="efd::ExitWith">
<polygon fill="none" stroke="#000000" points="184,-.5 184,-19.5 264,-19.5 264,-.5 184,-.5"/>
<text text-anchor="middle" x="224" y="-7.5" font-family="Helvetica,sans-Serif" font-size="10.00" fill="#000000">efd::ExitWith</text>
</a>
</g>
</g>
<!-- Node19&#45;&gt;Node23 -->
<g id="edge4" class="edge">
<title>Node19&#45;&gt;Node23</title>
<path fill="none" stroke="#191970" d="M91.7164,-57.4723C112.429,-49.6895 142.5555,-38.4683 169,-29 174.6056,-26.993 180.5453,-24.903 186.3681,-22.8747"/>
<polygon fill="#191970" stroke="#191970" points="187.6747,-26.1262 195.9776,-19.5449 185.3828,-19.512 187.6747,-26.1262"/>
</g>
</g>
</svg>
