<?xml version="1.0" encoding="UTF-8" standalone="no"?>
<!DOCTYPE svg PUBLIC "-//W3C//DTD SVG 1.1//EN"
 "http://www.w3.org/Graphics/SVG/1.1/DTD/svg11.dtd">
<!-- Generated by graphviz version 2.38.0 (20140413.2041)
 -->
<!-- Title: efd::ParseArguments Pages: 1 -->
<svg width="603pt" height="180pt"
 viewBox="0.00 0.00 603.00 180.00" xmlns="http://www.w3.org/2000/svg" xmlns:xlink="http://www.w3.org/1999/xlink">
<g id="graph0" class="graph" transform="scale(1 1) rotate(0) translate(4 176)">
<title>efd::ParseArguments</title>
<!-- Node183 -->
<g id="node1" class="node"><title>Node183</title>
<polygon fill="#bfbfbf" stroke="black" points="0,-76.5 0,-95.5 109,-95.5 109,-76.5 0,-76.5"/>
<text text-anchor="middle" x="54.5" y="-83.5" font-family="Helvetica,sans-Serif" font-size="10.00">efd::ParseArguments</text>
</g>
<!-- Node184 -->
<g id="node2" class="node"><title>Node184</title>
<g id="a_node2"><a xlink:href="../../d4/deb/namespaceefd.xhtml#a6bbed132b341f48d4aad4f970e3822bc" target="_top" xlink:title="Parses the command line arguments (this function should be used in the main function). ">
<polygon fill="none" stroke="black" points="145,-76.5 145,-95.5 254,-95.5 254,-76.5 145,-76.5"/>
<text text-anchor="middle" x="199.5" y="-83.5" font-family="Helvetica,sans-Serif" font-size="10.00">efd::ParseArguments</text>
</a>
</g>
</g>
<!-- Node183&#45;&gt;Node184 -->
<g id="edge1" class="edge"><title>Node183&#45;&gt;Node184</title>
<path fill="none" stroke="midnightblue" d="M109.155,-86C117.381,-86 125.944,-86 134.368,-86"/>
<polygon fill="midnightblue" stroke="midnightblue" points="134.545,-89.5001 144.545,-86 134.544,-82.5001 134.545,-89.5001"/>
</g>
<!-- Node185 -->
<g id="node3" class="node"><title>Node185</title>
<g id="a_node3"><a xlink:href="../../d6/d25/classefd_1_1OptBase.xhtml#a36fb712beadd9a5429bc2d7121eb71af" target="_top" xlink:title="Type sensitive number of arguments consumed. ">
<polygon fill="none" stroke="black" points="290,-152.5 290,-171.5 436,-171.5 436,-152.5 290,-152.5"/>
<text text-anchor="middle" x="363" y="-159.5" font-family="Helvetica,sans-Serif" font-size="10.00">efd::OptBase::argsConsumed</text>
</a>
</g>
</g>
<!-- Node184&#45;&gt;Node185 -->
<g id="edge2" class="edge"><title>Node184&#45;&gt;Node185</title>
<path fill="none" stroke="midnightblue" d="M212.84,-95.6261C229.487,-108.184 260.467,-130.074 290,-143 295.463,-145.391 301.294,-147.537 307.184,-149.449"/>
<polygon fill="midnightblue" stroke="midnightblue" points="306.513,-152.902 317.098,-152.447 308.539,-146.202 306.513,-152.902"/>
</g>
<!-- Node186 -->
<g id="node4" class="node"><title>Node186</title>
<g id="a_node4"><a xlink:href="../../de/d50/classefd_1_1Opt.xhtml#af670a67c3fd6e0c5cbea732b3749fb14" target="_top" xlink:title="Gets a const reference to the value of this command line option. ">
<polygon fill="none" stroke="black" points="320,-114.5 320,-133.5 406,-133.5 406,-114.5 320,-114.5"/>
<text text-anchor="middle" x="363" y="-121.5" font-family="Helvetica,sans-Serif" font-size="10.00">efd::Opt::getVal</text>
</a>
</g>
</g>
<!-- Node184&#45;&gt;Node186 -->
<g id="edge3" class="edge"><title>Node184&#45;&gt;Node186</title>
<path fill="none" stroke="midnightblue" d="M241.253,-95.589C262.661,-100.626 289.086,-106.844 311.753,-112.177"/>
<polygon fill="midnightblue" stroke="midnightblue" points="311.004,-115.596 321.54,-114.48 312.607,-108.783 311.004,-115.596"/>
</g>
<!-- Node187 -->
<g id="node5" class="node"><title>Node187</title>
<g id="a_node5"><a xlink:href="../../d6/d25/classefd_1_1OptBase.xhtml#a0ab870ed13c778499c0b53b3b617f34d" target="_top" xlink:title="True if this option has already been parsed. ">
<polygon fill="none" stroke="black" points="303.5,-76.5 303.5,-95.5 422.5,-95.5 422.5,-76.5 303.5,-76.5"/>
<text text-anchor="middle" x="363" y="-83.5" font-family="Helvetica,sans-Serif" font-size="10.00">efd::OptBase::isParsed</text>
</a>
</g>
</g>
<!-- Node184&#45;&gt;Node187 -->
<g id="edge4" class="edge"><title>Node184&#45;&gt;Node187</title>
<path fill="none" stroke="midnightblue" d="M254.277,-86C266.731,-86 280.151,-86 293.151,-86"/>
<polygon fill="midnightblue" stroke="midnightblue" points="293.459,-89.5001 303.459,-86 293.459,-82.5001 293.459,-89.5001"/>
</g>
<!-- Node188 -->
<g id="node6" class="node"><title>Node188</title>
<g id="a_node6"><a xlink:href="../../d6/d25/classefd_1_1OptBase.xhtml#ae271836d2366f5dc5ee502430df99c8a" target="_top" xlink:title="True if the option was constructed as &#39;required&#39;. ">
<polygon fill="none" stroke="black" points="299.5,-38.5 299.5,-57.5 426.5,-57.5 426.5,-38.5 299.5,-38.5"/>
<text text-anchor="middle" x="363" y="-45.5" font-family="Helvetica,sans-Serif" font-size="10.00">efd::OptBase::isRequired</text>
</a>
</g>
</g>
<!-- Node184&#45;&gt;Node188 -->
<g id="edge5" class="edge"><title>Node184&#45;&gt;Node188</title>
<path fill="none" stroke="midnightblue" d="M241.253,-76.411C262.661,-71.3739 289.086,-65.1562 311.753,-59.8229"/>
<polygon fill="midnightblue" stroke="midnightblue" points="312.607,-63.2175 321.54,-57.5201 311.004,-56.4036 312.607,-63.2175"/>
</g>
<!-- Node189 -->
<g id="node7" class="node"><title>Node189</title>
<g id="a_node7"><a xlink:href="../../d6/d25/classefd_1_1OptBase.xhtml#a62615588393d0a86d38c5d1d3b4c8f97" target="_top" xlink:title="Calls the parseImpl function, which is type&#45;dependent. ">
<polygon fill="none" stroke="black" points="311,-0.5 311,-19.5 415,-19.5 415,-0.5 311,-0.5"/>
<text text-anchor="middle" x="363" y="-7.5" font-family="Helvetica,sans-Serif" font-size="10.00">efd::OptBase::parse</text>
</a>
</g>
</g>
<!-- Node184&#45;&gt;Node189 -->
<g id="edge6" class="edge"><title>Node184&#45;&gt;Node189</title>
<path fill="none" stroke="midnightblue" d="M212.84,-76.3739C229.487,-63.8157 260.467,-41.9258 290,-29 295.463,-26.6092 301.294,-24.4631 307.184,-22.5511"/>
<polygon fill="midnightblue" stroke="midnightblue" points="308.539,-25.798 317.098,-19.5527 306.513,-19.0978 308.539,-25.798"/>
</g>
<!-- Node190 -->
<g id="node8" class="node"><title>Node190</title>
<g id="a_node8"><a xlink:href="../../d6/d25/classefd_1_1OptBase.xhtml#a78c038f9edc737659541e5cf4f2249ea" target="_top" xlink:title="Type sensitive parsing of the arguments itself. ">
<polygon fill="none" stroke="black" points="472,-0.5 472,-19.5 595,-19.5 595,-0.5 472,-0.5"/>
<text text-anchor="middle" x="533.5" y="-7.5" font-family="Helvetica,sans-Serif" font-size="10.00">efd::OptBase::parseImpl</text>
</a>
</g>
</g>
<!-- Node189&#45;&gt;Node190 -->
<g id="edge7" class="edge"><title>Node189&#45;&gt;Node190</title>
<path fill="none" stroke="midnightblue" d="M415.013,-10C429.713,-10 446.02,-10 461.691,-10"/>
<polygon fill="midnightblue" stroke="midnightblue" points="461.873,-13.5001 471.873,-10 461.873,-6.5001 461.873,-13.5001"/>
</g>
</g>
</svg>
