<?xml version="1.0" encoding="UTF-8" standalone="no"?>
<!DOCTYPE svg PUBLIC "-//W3C//DTD SVG 1.1//EN"
 "http://www.w3.org/Graphics/SVG/1.1/DTD/svg11.dtd">
<!-- Generated by graphviz version 2.40.1 (20161225.0304)
 -->
<!-- Title: efd::ParseFile Pages: 1 -->
<svg width="360pt" height="28pt"
 viewBox="0.00 0.00 360.00 28.00" xmlns="http://www.w3.org/2000/svg" xmlns:xlink="http://www.w3.org/1999/xlink">
<g id="graph0" class="graph" transform="scale(1 1) rotate(0) translate(4 24)">
<title>efd::ParseFile</title>
<!-- Node78 -->
<g id="node1" class="node">
<title>Node78</title>
<polygon fill="#bfbfbf" stroke="#000000" points="0,-.5 0,-19.5 83,-19.5 83,-.5 0,-.5"/>
<text text-anchor="middle" x="41.5" y="-7.5" font-family="Helvetica,sans-Serif" font-size="10.00" fill="#000000">efd::ParseFile</text>
</g>
<!-- Node79 -->
<g id="node2" class="node">
<title>Node79</title>
<g id="a_node2"><a xlink:href="../../dd/d52/classefd_1_1QModule.xhtml#a653e47a65669dcb2e2f5b2c37d684d01" target="_top" xlink:title="Parses the file filename and returns a QModule. ">
<polygon fill="none" stroke="#000000" points="119,-.5 119,-19.5 233,-19.5 233,-.5 119,-.5"/>
<text text-anchor="middle" x="176" y="-7.5" font-family="Helvetica,sans-Serif" font-size="10.00" fill="#000000">efd::QModule::Parse</text>
</a>
</g>
</g>
<!-- Node78&#45;&gt;Node79 -->
<g id="edge1" class="edge">
<title>Node78&#45;&gt;Node79</title>
<path fill="none" stroke="#191970" d="M83.3194,-10C91.4116,-10 100.08,-10 108.7484,-10"/>
<polygon fill="#191970" stroke="#191970" points="108.8898,-13.5001 118.8898,-10 108.8898,-6.5001 108.8898,-13.5001"/>
</g>
<!-- Node80 -->
<g id="node3" class="node">
<title>Node80</title>
<g id="a_node3"><a xlink:href="../../d4/deb/namespaceefd.xhtml#ab4181eb2261a81187a3e8800ec2782ed" target="_top" xlink:title="Parse filename at path. ">
<polygon fill="none" stroke="#000000" points="269,-.5 269,-19.5 352,-19.5 352,-.5 269,-.5"/>
<text text-anchor="middle" x="310.5" y="-7.5" font-family="Helvetica,sans-Serif" font-size="10.00" fill="#000000">efd::ParseFile</text>
</a>
</g>
</g>
<!-- Node79&#45;&gt;Node80 -->
<g id="edge2" class="edge">
<title>Node79&#45;&gt;Node80</title>
<path fill="none" stroke="#191970" d="M233.0401,-10C241.5915,-10 250.3685,-10 258.8004,-10"/>
<polygon fill="#191970" stroke="#191970" points="258.876,-13.5001 268.8759,-10 258.8759,-6.5001 258.876,-13.5001"/>
</g>
</g>
</svg>
