<?xml version="1.0" encoding="UTF-8" standalone="no"?>
<!DOCTYPE svg PUBLIC "-//W3C//DTD SVG 1.1//EN"
 "http://www.w3.org/Graphics/SVG/1.1/DTD/svg11.dtd">
<!-- Generated by graphviz version 2.40.1 (20161225.0304)
 -->
<!-- Title: efd::GetIntrinsicKind Pages: 1 -->
<svg width="294pt" height="142pt"
 viewBox="0.00 0.00 294.00 142.00" xmlns="http://www.w3.org/2000/svg" xmlns:xlink="http://www.w3.org/1999/xlink">
<g id="graph0" class="graph" transform="scale(1 1) rotate(0) translate(4 138)">
<title>efd::GetIntrinsicKind</title>
<!-- Node37 -->
<g id="node1" class="node">
<title>Node37</title>
<polygon fill="#bfbfbf" stroke="#000000" points="0,-57.5 0,-76.5 116,-76.5 116,-57.5 0,-57.5"/>
<text text-anchor="middle" x="58" y="-64.5" font-family="Helvetica,sans-Serif" font-size="10.00" fill="#000000">efd::GetIntrinsicKind</text>
</g>
<!-- Node38 -->
<g id="node2" class="node">
<title>Node38</title>
<g id="a_node2"><a xlink:href="../../d4/deb/namespaceefd.xhtml#af3487901a239a99750dc5dcdc3a8c868" target="_top" xlink:title="efd::ExitWith">
<polygon fill="none" stroke="#000000" points="179,-114.5 179,-133.5 259,-133.5 259,-114.5 179,-114.5"/>
<text text-anchor="middle" x="219" y="-121.5" font-family="Helvetica,sans-Serif" font-size="10.00" fill="#000000">efd::ExitWith</text>
</a>
</g>
</g>
<!-- Node37&#45;&gt;Node38 -->
<g id="edge1" class="edge">
<title>Node37&#45;&gt;Node38</title>
<path fill="none" stroke="#191970" d="M79.7789,-76.584C98.6705,-84.7087 126.8566,-96.3808 152,-105 158.6086,-107.2654 165.6472,-109.4762 172.5851,-111.5415"/>
<polygon fill="#191970" stroke="#191970" points="172.0366,-115.0267 182.6159,-114.4527 173.9878,-108.3041 172.0366,-115.0267"/>
</g>
<!-- Node39 -->
<g id="node3" class="node">
<title>Node39</title>
<g id="a_node3"><a xlink:href="../../d6/d6a/classefd_1_1Node.xhtml#ae9f49bc3eeebb8d24af82ecaa8cc3636" target="_top" xlink:title="Returns a std::string representation of the operation. ">
<polygon fill="none" stroke="#000000" points="152,-76.5 152,-95.5 286,-95.5 286,-76.5 152,-76.5"/>
<text text-anchor="middle" x="219" y="-83.5" font-family="Helvetica,sans-Serif" font-size="10.00" fill="#000000">efd::Node::getOperation</text>
</a>
</g>
</g>
<!-- Node37&#45;&gt;Node39 -->
<g id="edge2" class="edge">
<title>Node37&#45;&gt;Node39</title>
<path fill="none" stroke="#191970" d="M116.1247,-73.8594C124.476,-74.845 133.1763,-75.8717 141.8253,-76.8924"/>
<polygon fill="#191970" stroke="#191970" points="141.5897,-80.3888 151.931,-78.085 142.4101,-73.4371 141.5897,-80.3888"/>
</g>
<!-- Node40 -->
<g id="node4" class="node">
<title>Node40</title>
<g id="a_node4"><a xlink:href="../../d4/deb/namespaceefd.xhtml#ac1264355b1eb1da02a2ae2c1906ce0a5" target="_top" xlink:title="Returns whether ref is (or should be) an intrinsic gate. ">
<polygon fill="none" stroke="#000000" points="155,-38.5 155,-57.5 283,-57.5 283,-38.5 155,-38.5"/>
<text text-anchor="middle" x="219" y="-45.5" font-family="Helvetica,sans-Serif" font-size="10.00" fill="#000000">efd::IsIntrinsicGateCall</text>
</a>
</g>
</g>
<!-- Node37&#45;&gt;Node40 -->
<g id="edge3" class="edge">
<title>Node37&#45;&gt;Node40</title>
<path fill="none" stroke="#191970" d="M116.1247,-60.1406C125.4837,-59.0361 135.2809,-57.8799 144.9532,-56.7384"/>
<polygon fill="#191970" stroke="#191970" points="145.4429,-60.205 154.9638,-55.5571 144.6225,-53.2533 145.4429,-60.205"/>
</g>
<!-- Node41 -->
<g id="node5" class="node">
<title>Node41</title>
<g id="a_node5"><a xlink:href="../../d6/d6a/classefd_1_1Node.xhtml#a96ca13a5c2b971b68619ce4a34be0f66" target="_top" xlink:title="Returns a std::string representation of this Node and its childrem. ">
<polygon fill="none" stroke="#000000" points="165,-.5 165,-19.5 273,-19.5 273,-.5 165,-.5"/>
<text text-anchor="middle" x="219" y="-7.5" font-family="Helvetica,sans-Serif" font-size="10.00" fill="#000000">efd::Node::toString</text>
</a>
</g>
</g>
<!-- Node37&#45;&gt;Node41 -->
<g id="edge4" class="edge">
<title>Node37&#45;&gt;Node41</title>
<path fill="none" stroke="#191970" d="M79.7789,-57.416C98.6705,-49.2913 126.8566,-37.6192 152,-29 158.6086,-26.7346 165.6472,-24.5238 172.5851,-22.4585"/>
<polygon fill="#191970" stroke="#191970" points="173.9878,-25.6959 182.6159,-19.5473 172.0366,-18.9733 173.9878,-25.6959"/>
</g>
</g>
</svg>
