<?xml version="1.0" encoding="UTF-8" standalone="no"?>
<!DOCTYPE svg PUBLIC "-//W3C//DTD SVG 1.1//EN"
 "http://www.w3.org/Graphics/SVG/1.1/DTD/svg11.dtd">
<!-- Generated by graphviz version 2.38.0 (20140413.2041)
 -->
<!-- Title: efd::CreateIntrinsicGate Pages: 1 -->
<svg width="1127pt" height="204pt"
 viewBox="0.00 0.00 1127.00 204.00" xmlns="http://www.w3.org/2000/svg" xmlns:xlink="http://www.w3.org/1999/xlink">
<g id="graph0" class="graph" transform="scale(1 1) rotate(0) translate(4 200)">
<title>efd::CreateIntrinsicGate</title>
<!-- Node53 -->
<g id="node1" class="node"><title>Node53</title>
<polygon fill="#bfbfbf" stroke="black" points="0,-76.5 0,-95.5 121,-95.5 121,-76.5 0,-76.5"/>
<text text-anchor="middle" x="60.5" y="-83.5" font-family="Helvetica,sans-Serif" font-size="10.00">efd::CreateIntrinsicGate</text>
</g>
<!-- Node54 -->
<g id="node2" class="node"><title>Node54</title>
<g id="a_node2"><a xlink:href="../../d4/deb/namespaceefd.xhtml#a3c72243a170ffe8a4836e7092fd1469f" target="_top" xlink:title="Creates a call to the intrinsic long cnot function. ">
<polygon fill="none" stroke="black" points="157,-114.5 157,-133.5 261,-133.5 261,-114.5 157,-114.5"/>
<text text-anchor="middle" x="209" y="-121.5" font-family="Helvetica,sans-Serif" font-size="10.00">efd::CreateILongCX</text>
</a>
</g>
</g>
<!-- Node53&#45;&gt;Node54 -->
<g id="edge1" class="edge"><title>Node53&#45;&gt;Node54</title>
<path fill="none" stroke="midnightblue" d="M98.4681,-95.589C117.626,-100.558 141.214,-106.677 161.588,-111.961"/>
<polygon fill="midnightblue" stroke="midnightblue" points="160.739,-115.357 171.298,-114.48 162.497,-108.581 160.739,-115.357"/>
</g>
<!-- Node69 -->
<g id="node17" class="node"><title>Node69</title>
<g id="a_node17"><a xlink:href="../../d4/deb/namespaceefd.xhtml#af8e947f977669e54d6aaf3a43815833c" target="_top" xlink:title="Creates a call to the intrinsic reversal cnot function. ">
<polygon fill="none" stroke="black" points="158.5,-76.5 158.5,-95.5 259.5,-95.5 259.5,-76.5 158.5,-76.5"/>
<text text-anchor="middle" x="209" y="-83.5" font-family="Helvetica,sans-Serif" font-size="10.00">efd::CreateIRevCX</text>
</a>
</g>
</g>
<!-- Node53&#45;&gt;Node69 -->
<g id="edge18" class="edge"><title>Node53&#45;&gt;Node69</title>
<path fill="none" stroke="midnightblue" d="M121.087,-86C129.969,-86 139.13,-86 148.02,-86"/>
<polygon fill="midnightblue" stroke="midnightblue" points="148.3,-89.5001 158.3,-86 148.3,-82.5001 148.3,-89.5001"/>
</g>
<!-- Node71 -->
<g id="node19" class="node"><title>Node71</title>
<g id="a_node19"><a xlink:href="../../d4/deb/namespaceefd.xhtml#ad83c1dbaa41519964485ea8e2437bcb7" target="_top" xlink:title="Creates a call to the intrinsic swap function. ">
<polygon fill="none" stroke="black" points="162.5,-38.5 162.5,-57.5 255.5,-57.5 255.5,-38.5 162.5,-38.5"/>
<text text-anchor="middle" x="209" y="-45.5" font-family="Helvetica,sans-Serif" font-size="10.00">efd::CreateISwap</text>
</a>
</g>
</g>
<!-- Node53&#45;&gt;Node71 -->
<g id="edge25" class="edge"><title>Node53&#45;&gt;Node71</title>
<path fill="none" stroke="midnightblue" d="M98.4681,-76.411C117.626,-71.4417 141.214,-65.3233 161.588,-60.0387"/>
<polygon fill="midnightblue" stroke="midnightblue" points="162.497,-63.4188 171.298,-57.5201 160.739,-56.643 162.497,-63.4188"/>
</g>
<!-- Node55 -->
<g id="node3" class="node"><title>Node55</title>
<g id="a_node3"><a xlink:href="../../d2/d46/structefd_1_1NDQOpLongCX.xhtml#acfedeef7e4a8fd4dd96e13c8a9e6fbcb" target="_top" xlink:title="efd::NDQOpLongCX::NDQOpLongCX">
<polygon fill="none" stroke="black" points="297,-114.5 297,-133.5 480,-133.5 480,-114.5 297,-114.5"/>
<text text-anchor="middle" x="388.5" y="-121.5" font-family="Helvetica,sans-Serif" font-size="10.00">efd::NDQOpLongCX::NDQOpLongCX</text>
</a>
</g>
</g>
<!-- Node54&#45;&gt;Node55 -->
<g id="edge2" class="edge"><title>Node54&#45;&gt;Node55</title>
<path fill="none" stroke="midnightblue" d="M261.34,-124C269.362,-124 277.882,-124 286.561,-124"/>
<polygon fill="midnightblue" stroke="midnightblue" points="286.802,-127.5 296.802,-124 286.802,-120.5 286.802,-127.5"/>
</g>
<!-- Node56 -->
<g id="node4" class="node"><title>Node56</title>
<g id="a_node4"><a xlink:href="../../d2/dff/classefd_1_1NDQOpGen.xhtml#a2334f46b3e6d6b273409f5b9a7181e0b" target="_top" xlink:title="efd::NDQOpGen::NDQOpGen">
<polygon fill="none" stroke="black" points="516,-114.5 516,-133.5 665,-133.5 665,-114.5 516,-114.5"/>
<text text-anchor="middle" x="590.5" y="-121.5" font-family="Helvetica,sans-Serif" font-size="10.00">efd::NDQOpGen::NDQOpGen</text>
</a>
</g>
</g>
<!-- Node55&#45;&gt;Node56 -->
<g id="edge3" class="edge"><title>Node55&#45;&gt;Node56</title>
<path fill="none" stroke="midnightblue" d="M480.137,-124C488.661,-124 497.276,-124 505.732,-124"/>
<polygon fill="midnightblue" stroke="midnightblue" points="505.95,-127.5 515.95,-124 505.95,-120.5 505.95,-127.5"/>
</g>
<!-- Node61 -->
<g id="node9" class="node"><title>Node61</title>
<g id="a_node9"><a xlink:href="../../df/d1b/classefd_1_1NDValue.xhtml#a96ab9dcd008523aa2f4cfc2eb95d7178" target="_top" xlink:title="Creates a new instance of this node. ">
<polygon fill="none" stroke="black" points="535,-76.5 535,-95.5 646,-95.5 646,-76.5 535,-76.5"/>
<text text-anchor="middle" x="590.5" y="-83.5" font-family="Helvetica,sans-Serif" font-size="10.00">efd::NDValue::Create</text>
</a>
</g>
</g>
<!-- Node55&#45;&gt;Node61 -->
<g id="edge8" class="edge"><title>Node55&#45;&gt;Node61</title>
<path fill="none" stroke="midnightblue" d="M439.71,-114.46C466.933,-109.288 500.764,-102.86 529.383,-97.4222"/>
<polygon fill="midnightblue" stroke="midnightblue" points="530.098,-100.849 539.269,-95.5439 528.791,-93.9721 530.098,-100.849"/>
</g>
<!-- Node62 -->
<g id="node10" class="node"><title>Node62</title>
<g id="a_node10"><a xlink:href="../../da/ddd/classefd_1_1NDList.xhtml#a5e3e2ab6234caa816599eb51766210b7" target="_top" xlink:title="Creates a new instance of this node with the kind K_LIST. ">
<polygon fill="none" stroke="black" points="539.5,-152.5 539.5,-171.5 641.5,-171.5 641.5,-152.5 539.5,-152.5"/>
<text text-anchor="middle" x="590.5" y="-159.5" font-family="Helvetica,sans-Serif" font-size="10.00">efd::NDList::Create</text>
</a>
</g>
</g>
<!-- Node55&#45;&gt;Node62 -->
<g id="edge9" class="edge"><title>Node55&#45;&gt;Node62</title>
<path fill="none" stroke="midnightblue" d="M439.71,-133.54C466.933,-138.712 500.764,-145.14 529.383,-150.578"/>
<polygon fill="midnightblue" stroke="midnightblue" points="528.791,-154.028 539.269,-152.456 530.098,-147.151 528.791,-154.028"/>
</g>
<!-- Node66 -->
<g id="node14" class="node"><title>Node66</title>
<g id="a_node14"><a xlink:href="../../dd/d94/classefd_1_1NDQOp.xhtml#af7ef43289355c5bb047a46419177c8ed" target="_top" xlink:title="Gets the quantum arguments. ">
<polygon fill="none" stroke="black" points="531,-38.5 531,-57.5 650,-57.5 650,-38.5 531,-38.5"/>
<text text-anchor="middle" x="590.5" y="-45.5" font-family="Helvetica,sans-Serif" font-size="10.00">efd::NDQOp::getQArgs</text>
</a>
</g>
</g>
<!-- Node55&#45;&gt;Node66 -->
<g id="edge14" class="edge"><title>Node55&#45;&gt;Node66</title>
<path fill="none" stroke="midnightblue" d="M457.38,-114.499C465.271,-112.028 472.993,-108.916 480,-105 500.308,-93.6493 495.959,-78.815 516,-67 519.704,-64.8163 523.658,-62.8805 527.737,-61.1651"/>
<polygon fill="midnightblue" stroke="midnightblue" points="529.282,-64.3247 537.427,-57.549 526.834,-57.7665 529.282,-64.3247"/>
</g>
<!-- Node68 -->
<g id="node16" class="node"><title>Node68</title>
<g id="a_node16"><a xlink:href="../../da/ddd/classefd_1_1NDList.xhtml#a664c2f4a60746612062d7b112ff9842e" target="_top" xlink:title="Appends a child to the end of the list. ">
<polygon fill="none" stroke="black" points="535,-0.5 535,-19.5 646,-19.5 646,-0.5 535,-0.5"/>
<text text-anchor="middle" x="590.5" y="-7.5" font-family="Helvetica,sans-Serif" font-size="10.00">efd::NDList::addChild</text>
</a>
</g>
</g>
<!-- Node55&#45;&gt;Node68 -->
<g id="edge16" class="edge"><title>Node55&#45;&gt;Node68</title>
<path fill="none" stroke="midnightblue" d="M464.188,-114.349C469.847,-111.852 475.209,-108.777 480,-105 509.35,-81.8583 487.191,-52.811 516,-29 518.914,-26.5912 522.099,-24.4837 525.456,-22.6402"/>
<polygon fill="midnightblue" stroke="midnightblue" points="527.087,-25.7417 534.678,-18.3513 524.135,-19.3945 527.087,-25.7417"/>
</g>
<!-- Node57 -->
<g id="node5" class="node"><title>Node57</title>
<g id="a_node5"><a xlink:href="../../dd/d94/classefd_1_1NDQOp.xhtml#ab5f18eaba71bcb53806525fd5dc61403" target="_top" xlink:title="efd::NDQOp::NDQOp">
<polygon fill="none" stroke="black" points="701,-100.5 701,-119.5 814,-119.5 814,-100.5 701,-100.5"/>
<text text-anchor="middle" x="757.5" y="-107.5" font-family="Helvetica,sans-Serif" font-size="10.00">efd::NDQOp::NDQOp</text>
</a>
</g>
</g>
<!-- Node56&#45;&gt;Node57 -->
<g id="edge4" class="edge"><title>Node56&#45;&gt;Node57</title>
<path fill="none" stroke="midnightblue" d="M665.313,-117.737C673.731,-117.023 682.272,-116.298 690.578,-115.593"/>
<polygon fill="midnightblue" stroke="midnightblue" points="690.902,-119.079 700.57,-114.746 690.31,-112.104 690.902,-119.079"/>
</g>
<!-- Node58 -->
<g id="node6" class="node"><title>Node58</title>
<g id="a_node6"><a xlink:href="../../d6/d6a/classefd_1_1Node.xhtml#a09ac8cdf7898a3d17293d92ae956eece" target="_top" xlink:title="Constructs the node, initially empty (with no information). ">
<polygon fill="none" stroke="black" points="1021,-104.5 1021,-123.5 1110,-123.5 1110,-104.5 1021,-104.5"/>
<text text-anchor="middle" x="1065.5" y="-111.5" font-family="Helvetica,sans-Serif" font-size="10.00">efd::Node::Node</text>
</a>
</g>
</g>
<!-- Node57&#45;&gt;Node58 -->
<g id="edge5" class="edge"><title>Node57&#45;&gt;Node58</title>
<path fill="none" stroke="midnightblue" d="M814.269,-110.729C870.141,-111.459 955.55,-112.576 1010.71,-113.297"/>
<polygon fill="midnightblue" stroke="midnightblue" points="1010.94,-116.8 1020.98,-113.431 1011.03,-109.801 1010.94,-116.8"/>
</g>
<!-- Node59 -->
<g id="node7" class="node"><title>Node59</title>
<g id="a_node7"><a xlink:href="../../d6/d6a/classefd_1_1Node.xhtml#a8ac8c3206c6f6817a8c8e515ac830f61" target="_top" xlink:title="Adds a child to this node. It should be used only for construction of each derived class...">
<polygon fill="none" stroke="black" points="850,-57.5 850,-76.5 976,-76.5 976,-57.5 850,-57.5"/>
<text text-anchor="middle" x="913" y="-64.5" font-family="Helvetica,sans-Serif" font-size="10.00">efd::Node::innerAddChild</text>
</a>
</g>
</g>
<!-- Node57&#45;&gt;Node59 -->
<g id="edge6" class="edge"><title>Node57&#45;&gt;Node59</title>
<path fill="none" stroke="midnightblue" d="M792.567,-100.457C814.824,-94.2218 844.105,-86.0195 868.103,-79.2969"/>
<polygon fill="midnightblue" stroke="midnightblue" points="869.343,-82.5842 878.029,-76.5164 867.455,-75.8437 869.343,-82.5842"/>
</g>
<!-- Node60 -->
<g id="node8" class="node"><title>Node60</title>
<g id="a_node8"><a xlink:href="../../d6/d6a/classefd_1_1Node.xhtml#a48e9d49d994b9023b8400316e2782e2b" target="_top" xlink:title="Sets the parent node of the current node. ">
<polygon fill="none" stroke="black" points="1012,-57.5 1012,-76.5 1119,-76.5 1119,-57.5 1012,-57.5"/>
<text text-anchor="middle" x="1065.5" y="-64.5" font-family="Helvetica,sans-Serif" font-size="10.00">efd::Node::setParent</text>
</a>
</g>
</g>
<!-- Node59&#45;&gt;Node60 -->
<g id="edge7" class="edge"><title>Node59&#45;&gt;Node60</title>
<path fill="none" stroke="midnightblue" d="M976.083,-67C984.488,-67 993.118,-67 1001.54,-67"/>
<polygon fill="midnightblue" stroke="midnightblue" points="1001.67,-70.5001 1011.67,-67 1001.67,-63.5001 1001.67,-70.5001"/>
</g>
<!-- Node63 -->
<g id="node11" class="node"><title>Node63</title>
<g id="a_node11"><a xlink:href="../../da/ddd/classefd_1_1NDList.xhtml#a63e0eab4abb59c1c0783f90afe0bb3bb" target="_top" xlink:title="Creates a new instance of this node with a specific k. ">
<polygon fill="none" stroke="black" points="706.5,-152.5 706.5,-171.5 808.5,-171.5 808.5,-152.5 706.5,-152.5"/>
<text text-anchor="middle" x="757.5" y="-159.5" font-family="Helvetica,sans-Serif" font-size="10.00">efd::NDList::Create</text>
</a>
</g>
</g>
<!-- Node62&#45;&gt;Node63 -->
<g id="edge10" class="edge"><title>Node62&#45;&gt;Node63</title>
<path fill="none" stroke="midnightblue" d="M641.902,-162C659.014,-162 678.31,-162 696.12,-162"/>
<polygon fill="midnightblue" stroke="midnightblue" points="696.407,-165.5 706.407,-162 696.407,-158.5 696.407,-165.5"/>
</g>
<!-- Node64 -->
<g id="node12" class="node"><title>Node64</title>
<g id="a_node12"><a xlink:href="../../da/ddd/classefd_1_1NDList.xhtml#a2642c91fda9d33512d1aa1aa7851b6bd" target="_top" xlink:title="efd::NDList::NDList">
<polygon fill="none" stroke="black" points="861,-138.5 861,-157.5 965,-157.5 965,-138.5 861,-138.5"/>
<text text-anchor="middle" x="913" y="-145.5" font-family="Helvetica,sans-Serif" font-size="10.00">efd::NDList::NDList</text>
</a>
</g>
</g>
<!-- Node63&#45;&gt;Node64 -->
<g id="edge11" class="edge"><title>Node63&#45;&gt;Node64</title>
<path fill="none" stroke="midnightblue" d="M808.762,-157.416C822.2,-156.19 836.873,-154.852 850.829,-153.579"/>
<polygon fill="midnightblue" stroke="midnightblue" points="851.196,-157.06 860.837,-152.666 850.56,-150.089 851.196,-157.06"/>
</g>
<!-- Node65 -->
<g id="node13" class="node"><title>Node65</title>
<g id="a_node13"><a xlink:href="../../d4/deb/namespaceefd.xhtml#a3fd26bc2a0a0c6d9948d0d3cef2e1515" target="_top" xlink:title="Returns true if the pointer src is of class TargetTy. ">
<polygon fill="none" stroke="black" points="871.5,-176.5 871.5,-195.5 954.5,-195.5 954.5,-176.5 871.5,-176.5"/>
<text text-anchor="middle" x="913" y="-183.5" font-family="Helvetica,sans-Serif" font-size="10.00">efd::instanceOf</text>
</a>
</g>
</g>
<!-- Node63&#45;&gt;Node65 -->
<g id="edge13" class="edge"><title>Node63&#45;&gt;Node65</title>
<path fill="none" stroke="midnightblue" d="M808.762,-169.858C825.56,-172.485 844.288,-175.413 861.133,-178.047"/>
<polygon fill="midnightblue" stroke="midnightblue" points="860.923,-181.556 871.343,-179.643 862.004,-174.64 860.923,-181.556"/>
</g>
<!-- Node64&#45;&gt;Node58 -->
<g id="edge12" class="edge"><title>Node64&#45;&gt;Node58</title>
<path fill="none" stroke="midnightblue" d="M956.323,-138.439C973.709,-134.511 994.015,-129.923 1012.31,-125.791"/>
<polygon fill="midnightblue" stroke="midnightblue" points="1013.25,-129.166 1022.23,-123.548 1011.71,-122.338 1013.25,-129.166"/>
</g>
<!-- Node67 -->
<g id="node15" class="node"><title>Node67</title>
<g id="a_node15"><a xlink:href="../../d4/deb/namespaceefd.xhtml#a2cef687225e13315fc282dc40b5a6909" target="_top" xlink:title="Returns src cast to TargetTy, iff it is of class TargetTy, otherwise it will return nullptr...">
<polygon fill="none" stroke="black" points="721,-38.5 721,-57.5 794,-57.5 794,-38.5 721,-38.5"/>
<text text-anchor="middle" x="757.5" y="-45.5" font-family="Helvetica,sans-Serif" font-size="10.00">efd::dynCast</text>
</a>
</g>
</g>
<!-- Node66&#45;&gt;Node67 -->
<g id="edge15" class="edge"><title>Node66&#45;&gt;Node67</title>
<path fill="none" stroke="midnightblue" d="M650.137,-48C669.989,-48 691.857,-48 710.576,-48"/>
<polygon fill="midnightblue" stroke="midnightblue" points="710.618,-51.5001 720.618,-48 710.618,-44.5001 710.618,-51.5001"/>
</g>
<!-- Node68&#45;&gt;Node60 -->
<g id="edge17" class="edge"><title>Node68&#45;&gt;Node60</title>
<path fill="none" stroke="midnightblue" d="M646.237,-13.1421C721.076,-17.9534 859.362,-28.6843 976,-48 988.478,-50.0664 1001.86,-52.7115 1014.34,-55.3671"/>
<polygon fill="midnightblue" stroke="midnightblue" points="1013.61,-58.7896 1024.12,-57.4883 1015.09,-51.9486 1013.61,-58.7896"/>
</g>
<!-- Node70 -->
<g id="node18" class="node"><title>Node70</title>
<g id="a_node18"><a xlink:href="../../d1/d69/structefd_1_1NDQOpRevCX.xhtml#a8dc362aa103195558d180f53b6476be9" target="_top" xlink:title="efd::NDQOpRevCX::NDQOpRevCX">
<polygon fill="none" stroke="black" points="300,-76.5 300,-95.5 477,-95.5 477,-76.5 300,-76.5"/>
<text text-anchor="middle" x="388.5" y="-83.5" font-family="Helvetica,sans-Serif" font-size="10.00">efd::NDQOpRevCX::NDQOpRevCX</text>
</a>
</g>
</g>
<!-- Node69&#45;&gt;Node70 -->
<g id="edge19" class="edge"><title>Node69&#45;&gt;Node70</title>
<path fill="none" stroke="midnightblue" d="M259.916,-86C269.298,-86 279.402,-86 289.669,-86"/>
<polygon fill="midnightblue" stroke="midnightblue" points="289.971,-89.5001 299.971,-86 289.971,-82.5001 289.971,-89.5001"/>
</g>
<!-- Node70&#45;&gt;Node56 -->
<g id="edge20" class="edge"><title>Node70&#45;&gt;Node56</title>
<path fill="none" stroke="midnightblue" d="M439.71,-95.54C466.933,-100.712 500.764,-107.14 529.383,-112.578"/>
<polygon fill="midnightblue" stroke="midnightblue" points="528.791,-116.028 539.269,-114.456 530.098,-109.151 528.791,-116.028"/>
</g>
<!-- Node70&#45;&gt;Node61 -->
<g id="edge21" class="edge"><title>Node70&#45;&gt;Node61</title>
<path fill="none" stroke="midnightblue" d="M477.223,-86C493.17,-86 509.539,-86 524.677,-86"/>
<polygon fill="midnightblue" stroke="midnightblue" points="524.939,-89.5001 534.939,-86 524.939,-82.5001 524.939,-89.5001"/>
</g>
<!-- Node70&#45;&gt;Node62 -->
<g id="edge22" class="edge"><title>Node70&#45;&gt;Node62</title>
<path fill="none" stroke="midnightblue" d="M457.38,-95.5008C465.271,-97.9722 472.993,-101.084 480,-105 500.308,-116.351 495.959,-131.185 516,-143 520.359,-145.57 525.063,-147.796 529.911,-149.724"/>
<polygon fill="midnightblue" stroke="midnightblue" points="528.765,-153.031 539.36,-153.076 531.105,-146.434 528.765,-153.031"/>
</g>
<!-- Node70&#45;&gt;Node66 -->
<g id="edge23" class="edge"><title>Node70&#45;&gt;Node66</title>
<path fill="none" stroke="midnightblue" d="M439.71,-76.46C466.933,-71.2878 500.764,-64.8599 529.383,-59.4222"/>
<polygon fill="midnightblue" stroke="midnightblue" points="530.098,-62.8491 539.269,-57.5439 528.791,-55.9721 530.098,-62.8491"/>
</g>
<!-- Node70&#45;&gt;Node68 -->
<g id="edge24" class="edge"><title>Node70&#45;&gt;Node68</title>
<path fill="none" stroke="midnightblue" d="M457.38,-76.4992C465.271,-74.0278 472.993,-70.9164 480,-67 500.308,-55.6493 495.959,-40.815 516,-29 519.704,-26.8163 523.658,-24.8805 527.737,-23.1651"/>
<polygon fill="midnightblue" stroke="midnightblue" points="529.282,-26.3247 537.427,-19.549 526.834,-19.7665 529.282,-26.3247"/>
</g>
<!-- Node72 -->
<g id="node20" class="node"><title>Node72</title>
<g id="a_node20"><a xlink:href="../../dd/d04/structefd_1_1NDQOpSwap.xhtml#a3821a8ddbdbe10b972bcfa99ce4d90db" target="_top" xlink:title="efd::NDQOpSwap::NDQOpSwap">
<polygon fill="none" stroke="black" points="307.5,-38.5 307.5,-57.5 469.5,-57.5 469.5,-38.5 307.5,-38.5"/>
<text text-anchor="middle" x="388.5" y="-45.5" font-family="Helvetica,sans-Serif" font-size="10.00">efd::NDQOpSwap::NDQOpSwap</text>
</a>
</g>
</g>
<!-- Node71&#45;&gt;Node72 -->
<g id="edge26" class="edge"><title>Node71&#45;&gt;Node72</title>
<path fill="none" stroke="midnightblue" d="M255.711,-48C268.357,-48 282.542,-48 296.794,-48"/>
<polygon fill="midnightblue" stroke="midnightblue" points="297.163,-51.5001 307.163,-48 297.163,-44.5001 297.163,-51.5001"/>
</g>
<!-- Node72&#45;&gt;Node56 -->
<g id="edge27" class="edge"><title>Node72&#45;&gt;Node56</title>
<path fill="none" stroke="midnightblue" d="M457.38,-57.5008C465.271,-59.9722 472.993,-63.0836 480,-67 500.308,-78.3507 495.959,-93.185 516,-105 519.704,-107.184 523.658,-109.119 527.737,-110.835"/>
<polygon fill="midnightblue" stroke="midnightblue" points="526.834,-114.234 537.427,-114.451 529.282,-107.675 526.834,-114.234"/>
</g>
<!-- Node72&#45;&gt;Node61 -->
<g id="edge28" class="edge"><title>Node72&#45;&gt;Node61</title>
<path fill="none" stroke="midnightblue" d="M439.71,-57.54C466.933,-62.7122 500.764,-69.1401 529.383,-74.5778"/>
<polygon fill="midnightblue" stroke="midnightblue" points="528.791,-78.0279 539.269,-76.4561 530.098,-71.1509 528.791,-78.0279"/>
</g>
<!-- Node72&#45;&gt;Node62 -->
<g id="edge29" class="edge"><title>Node72&#45;&gt;Node62</title>
<path fill="none" stroke="midnightblue" d="M464.188,-57.6509C469.847,-60.1481 475.209,-63.2227 480,-67 509.35,-90.1417 487.191,-119.189 516,-143 520.086,-146.377 524.702,-149.162 529.581,-151.457"/>
<polygon fill="midnightblue" stroke="midnightblue" points="528.632,-154.847 539.217,-155.295 531.222,-148.343 528.632,-154.847"/>
</g>
<!-- Node72&#45;&gt;Node66 -->
<g id="edge30" class="edge"><title>Node72&#45;&gt;Node66</title>
<path fill="none" stroke="midnightblue" d="M469.695,-48C486.615,-48 504.322,-48 520.773,-48"/>
<polygon fill="midnightblue" stroke="midnightblue" points="520.836,-51.5001 530.836,-48 520.836,-44.5001 520.836,-51.5001"/>
</g>
<!-- Node72&#45;&gt;Node68 -->
<g id="edge31" class="edge"><title>Node72&#45;&gt;Node68</title>
<path fill="none" stroke="midnightblue" d="M439.71,-38.46C466.933,-33.2878 500.764,-26.8599 529.383,-21.4222"/>
<polygon fill="midnightblue" stroke="midnightblue" points="530.098,-24.8491 539.269,-19.5439 528.791,-17.9721 530.098,-24.8491"/>
</g>
</g>
</svg>
