<?xml version="1.0" encoding="UTF-8" standalone="no"?>
<!DOCTYPE svg PUBLIC "-//W3C//DTD SVG 1.1//EN"
 "http://www.w3.org/Graphics/SVG/1.1/DTD/svg11.dtd">
<!-- Generated by graphviz version 2.40.1 (20161225.0304)
 -->
<!-- Title: efd::IBMQAllocator::buildStdSolution Pages: 1 -->
<!--zoomable 198 -->
<svg id="main" version="1.1" xmlns="http://www.w3.org/2000/svg" xmlns:xlink="http://www.w3.org/1999/xlink" xml:space="preserve" onload="init(evt)">
<style type="text/css"><![CDATA[
.edge:hover path { stroke: red; }
.edge:hover polygon { stroke: red; fill: red; }
]]></style>
<script type="text/javascript"><![CDATA[
var edges = document.getElementsByTagName('g');
if (edges && edges.length) {
  for (var i=0;i<edges.length;i++) {
    if (edges[i].id.substr(0,4)=='edge') {
      edges[i].setAttribute('class','edge');
    }
  }
}
]]></script>
        <defs>
                <circle id="rim" cx="0" cy="0" r="7"/>
                <circle id="rim2" cx="0" cy="0" r="3.5"/>
                <g id="zoomPlus">
                        <use xlink:href="#rim" fill="#404040">
                                <set attributeName="fill" to="#808080" begin="zoomplus.mouseover" end="zoomplus.mouseout"/>
                        </use>
                        <path d="M-4,0h8M0,-4v8" fill="none" stroke="white" stroke-width="1.5" pointer-events="none"/>
                </g>
                <g id="zoomMin">
                        <use xlink:href="#rim" fill="#404040">
                                <set attributeName="fill" to="#808080" begin="zoomminus.mouseover" end="zoomminus.mouseout"/>
                        </use>
                        <path d="M-4,0h8" fill="none" stroke="white" stroke-width="1.5" pointer-events="none"/>
                </g>
                <g id="dirArrow">
                        <path fill="none" stroke="white" stroke-width="1.5" d="M0,-3.0v7 M-2.5,-0.5L0,-3.0L2.5,-0.5"/>
                </g>
               <g id="resetDef">
                       <use xlink:href="#rim2" fill="#404040">
                               <set attributeName="fill" to="#808080" begin="reset.mouseover" end="reset.mouseout"/>
                       </use>
               </g>
        </defs>

<script type="text/javascript">
var viewWidth = 634;
var viewHeight = 198;
var sectionId = 'dynsection-2';
</script>
<script xlink:href="../../svgpan.js"/>
<svg id="graph" class="graph">
<g id="viewport">
<title>efd::IBMQAllocator::buildStdSolution</title>
<!-- Node1 -->
<g id="node1" class="node">
<title>Node1</title>
<polygon fill="#bfbfbf" stroke="#000000" points="0,-82.5 0,-112.5 107,-112.5 107,-82.5 0,-82.5"/>
<text text-anchor="start" x="8" y="-100.5" font-family="Helvetica,sans-Serif" font-size="10.00" fill="#000000">efd::IBMQAllocator</text>
<text text-anchor="middle" x="53.5" y="-89.5" font-family="Helvetica,sans-Serif" font-size="10.00" fill="#000000">::buildStdSolution</text>
</g>
<!-- Node2 -->
<g id="node2" class="node">
<title>Node2</title>
<g id="a_node2"><a xlink:href="../../dd/d52/classefd_1_1QModule.xhtml#a0d1ee13f9fdf977893067cb4d0688e3f" target="_top" xlink:title="Removes all statements present int this module. ">
<polygon fill="none" stroke="#000000" points="152.5,-170 152.5,-189 319.5,-189 319.5,-170 152.5,-170"/>
<text text-anchor="middle" x="236" y="-177" font-family="Helvetica,sans-Serif" font-size="10.00" fill="#000000">efd::QModule::clearStatements</text>
</a>
</g>
</g>
<!-- Node1&#45;&gt;Node2 -->
<g id="edge1" class="edge">
<title>Node1&#45;&gt;Node2</title>
<path fill="none" stroke="#191970" d="M70.3633,-112.6239C87.4534,-127.1248 115.2605,-148.528 143,-160.5 148.8583,-163.0284 155.0719,-165.2265 161.3993,-167.1366"/>
<polygon fill="#191970" stroke="#191970" points="160.8299,-170.6106 171.4013,-169.9069 162.6985,-163.8646 160.8299,-170.6106"/>
</g>
<!-- Node3 -->
<g id="node3" class="node">
<title>Node3</title>
<g id="a_node3"><a xlink:href="../../d4/deb/namespaceefd.xhtml#af3487901a239a99750dc5dcdc3a8c868" target="_top" xlink:title="efd::ExitWith">
<polygon fill="none" stroke="#000000" points="196,-132 196,-151 276,-151 276,-132 196,-132"/>
<text text-anchor="middle" x="236" y="-139" font-family="Helvetica,sans-Serif" font-size="10.00" fill="#000000">efd::ExitWith</text>
</a>
</g>
</g>
<!-- Node1&#45;&gt;Node3 -->
<g id="edge2" class="edge">
<title>Node1&#45;&gt;Node3</title>
<path fill="none" stroke="#191970" d="M104.9238,-112.5364C117.3453,-115.9821 130.6111,-119.5081 143,-122.5 156.7925,-125.8308 171.8274,-129.0704 185.7088,-131.9033"/>
<polygon fill="#191970" stroke="#191970" points="185.0845,-135.3478 195.5786,-133.8897 186.4657,-128.4854 185.0845,-135.3478"/>
</g>
<!-- Node4 -->
<g id="node4" class="node">
<title>Node4</title>
<g id="a_node4"><a xlink:href="../../d8/d45/classefd_1_1BFSPathFinder.xhtml#a4a91e28940313cb585654f5214187cac" target="_top" xlink:title="Searches for a path from u to v in the graph g. ">
<polygon fill="none" stroke="#000000" points="182,-82.5 182,-112.5 290,-112.5 290,-82.5 182,-82.5"/>
<text text-anchor="start" x="190" y="-100.5" font-family="Helvetica,sans-Serif" font-size="10.00" fill="#000000">efd::BFSPathFinder</text>
<text text-anchor="middle" x="236" y="-89.5" font-family="Helvetica,sans-Serif" font-size="10.00" fill="#000000">::find</text>
</a>
</g>
</g>
<!-- Node1&#45;&gt;Node4 -->
<g id="edge3" class="edge">
<title>Node1&#45;&gt;Node4</title>
<path fill="none" stroke="#191970" d="M107.2689,-97.5C127.5089,-97.5 150.7265,-97.5 171.8217,-97.5"/>
<polygon fill="#191970" stroke="#191970" points="171.9848,-101.0001 181.9847,-97.5 171.9847,-94.0001 171.9848,-101.0001"/>
</g>
<!-- Node5 -->
<g id="node5" class="node">
<title>Node5</title>
<g id="a_node5"><a xlink:href="../../dd/d52/classefd_1_1QModule.xhtml#ae5c8859117a0d6ea5aeddd1a3fb060ec" target="_top" xlink:title="Inserts ref at the back, and returns a iterator to this node. ">
<polygon fill="none" stroke="#000000" points="143,-44 143,-63 329,-63 329,-44 143,-44"/>
<text text-anchor="middle" x="236" y="-51" font-family="Helvetica,sans-Serif" font-size="10.00" fill="#000000">efd::QModule::insertStatementLast</text>
</a>
</g>
</g>
<!-- Node1&#45;&gt;Node5 -->
<g id="edge4" class="edge">
<title>Node1&#45;&gt;Node5</title>
<path fill="none" stroke="#191970" d="M107.3418,-82.5933C119.0677,-79.4781 131.428,-76.294 143,-73.5 154.7894,-70.6535 167.468,-67.7943 179.5555,-65.1639"/>
<polygon fill="#191970" stroke="#191970" points="180.4988,-68.5411 189.5374,-63.0135 179.0245,-61.6981 180.4988,-68.5411"/>
</g>
<!-- Node6 -->
<g id="node6" class="node">
<title>Node6</title>
<g id="a_node6"><a xlink:href="../../d4/deb/namespaceefd.xhtml#aac5a20e6db5d358cf72d4816441d0b0d" target="_top" xlink:title="Prints the mapping m to a string and returns it. ">
<polygon fill="none" stroke="#000000" points="176,-6 176,-25 296,-25 296,-6 176,-6"/>
<text text-anchor="middle" x="236" y="-13" font-family="Helvetica,sans-Serif" font-size="10.00" fill="#000000">efd::MappingToString</text>
</a>
</g>
</g>
<!-- Node1&#45;&gt;Node6 -->
<g id="edge5" class="edge">
<title>Node1&#45;&gt;Node6</title>
<path fill="none" stroke="#191970" d="M70.3633,-82.3761C87.4534,-67.8752 115.2605,-46.472 143,-34.5 150.3146,-31.3431 158.1831,-28.701 166.1354,-26.4918"/>
<polygon fill="#191970" stroke="#191970" points="167.0259,-29.8768 175.8455,-24.0062 165.2899,-23.0954 167.0259,-29.8768"/>
</g>
<!-- Node7 -->
<g id="node7" class="node">
<title>Node7</title>
<g id="a_node7"><a xlink:href="../../d8/dcc/namespacestd.xhtml#a76fb98cd4a35566d53c2f0513c5d12d1" target="_top" xlink:title="std::to_string">
<polygon fill="none" stroke="#000000" points="365,-6 365,-25 445,-25 445,-6 365,-6"/>
<text text-anchor="middle" x="405" y="-13" font-family="Helvetica,sans-Serif" font-size="10.00" fill="#000000">std::to_string</text>
</a>
</g>
</g>
<!-- Node6&#45;&gt;Node7 -->
<g id="edge6" class="edge">
<title>Node6&#45;&gt;Node7</title>
<path fill="none" stroke="#191970" d="M296.0589,-15.5C315.2616,-15.5 336.3069,-15.5 354.7369,-15.5"/>
<polygon fill="#191970" stroke="#191970" points="354.9645,-19.0001 364.9644,-15.5 354.9644,-12.0001 354.9645,-19.0001"/>
</g>
<!-- Node8 -->
<g id="node8" class="node">
<title>Node8</title>
<g id="a_node8"><a xlink:href="../../dc/d5d/classefd_1_1EnumString.xhtml#a39d129d188c7746b7f8b65308d7d7b53" target="_top" xlink:title="Returns the string value of the enum. ">
<polygon fill="none" stroke="#000000" points="481,-.5 481,-30.5 626,-30.5 626,-.5 481,-.5"/>
<text text-anchor="start" x="489" y="-18.5" font-family="Helvetica,sans-Serif" font-size="10.00" fill="#000000">efd::EnumString::getString</text>
<text text-anchor="middle" x="553.5" y="-7.5" font-family="Helvetica,sans-Serif" font-size="10.00" fill="#000000">Value</text>
</a>
</g>
</g>
<!-- Node7&#45;&gt;Node8 -->
<g id="edge7" class="edge">
<title>Node7&#45;&gt;Node8</title>
<path fill="none" stroke="#191970" d="M445.1862,-15.5C453.237,-15.5 461.9699,-15.5 470.8654,-15.5"/>
<polygon fill="#191970" stroke="#191970" points="470.9502,-19.0001 480.9502,-15.5 470.9501,-12.0001 470.9502,-19.0001"/>
</g>
</g>
</svg>
        <g id="navigator" transform="translate(0 0)" fill="#404254">
                <rect fill="#f2f5e9" fill-opacity="0.5" stroke="#606060" stroke-width=".5" x="0" y="0" width="60" height="60"/>
                <use id="zoomplus" xlink:href="#zoomPlus" x="17" y="9" onmousedown="handleZoom(evt,'in')"/>
                <use id="zoomminus" xlink:href="#zoomMin" x="42" y="9" onmousedown="handleZoom(evt,'out')"/>
                <use id="reset" xlink:href="#resetDef" x="30" y="36" onmousedown="handleReset()"/>
                <g id="arrowUp" xlink:href="#dirArrow" transform="translate(30 24)" onmousedown="handlePan(0,-1)">
                  <use xlink:href="#rim" fill="#404040">
                        <set attributeName="fill" to="#808080" begin="arrowUp.mouseover" end="arrowUp.mouseout"/>
                  </use>
                  <path fill="none" stroke="white" stroke-width="1.5" d="M0,-3.0v7 M-2.5,-0.5L0,-3.0L2.5,-0.5"/>
                </g>
                <g id="arrowRight" xlink:href="#dirArrow" transform="rotate(90) translate(36 -43)" onmousedown="handlePan(1,0)">
                  <use xlink:href="#rim" fill="#404040">
                        <set attributeName="fill" to="#808080" begin="arrowRight.mouseover" end="arrowRight.mouseout"/>
                  </use>
                  <path fill="none" stroke="white" stroke-width="1.5" d="M0,-3.0v7 M-2.5,-0.5L0,-3.0L2.5,-0.5"/>
                </g>
                <g id="arrowDown" xlink:href="#dirArrow" transform="rotate(180) translate(-30 -48)" onmousedown="handlePan(0,1)">
                  <use xlink:href="#rim" fill="#404040">
                        <set attributeName="fill" to="#808080" begin="arrowDown.mouseover" end="arrowDown.mouseout"/>
                  </use>
                  <path fill="none" stroke="white" stroke-width="1.5" d="M0,-3.0v7 M-2.5,-0.5L0,-3.0L2.5,-0.5"/>
                </g>
                <g id="arrowLeft" xlink:href="#dirArrow" transform="rotate(270) translate(-36 17)" onmousedown="handlePan(-1,0)">
                  <use xlink:href="#rim" fill="#404040">
                        <set attributeName="fill" to="#808080" begin="arrowLeft.mouseover" end="arrowLeft.mouseout"/>
                  </use>
                  <path fill="none" stroke="white" stroke-width="1.5" d="M0,-3.0v7 M-2.5,-0.5L0,-3.0L2.5,-0.5"/>
                </g>
        </g>
        <svg viewBox="0 0 15 15" width="100%" height="30px" preserveAspectRatio="xMaxYMin meet">
         <g id="arrow_out" transform="scale(0.3 0.3)">
          <a xlink:href="classefd_1_1IBMQAllocator_a0608e1348e994a8c793f4326f157d266_cgraph_org.svg" target="_base">
           <rect id="button" ry="5" rx="5" y="6" x="6" height="38" width="38"
                fill="#f2f5e9" fill-opacity="0.5" stroke="#606060" stroke-width="1.0"/>
           <path id="arrow"
             d="M 11.500037,31.436501 C 11.940474,20.09759 22.043105,11.32322 32.158766,21.979434 L 37.068811,17.246167 C 37.068811,17.246167 37.088388,32 37.088388,32 L 22.160133,31.978069 C 22.160133,31.978069 26.997745,27.140456 26.997745,27.140456 C 18.528582,18.264221 13.291696,25.230495 11.500037,31.436501 z"
             style="fill:#404040;"/>
          </a>
         </g>
        </svg>
</svg>
