<?xml version="1.0" encoding="UTF-8" standalone="no"?>
<!DOCTYPE svg PUBLIC "-//W3C//DTD SVG 1.1//EN"
 "http://www.w3.org/Graphics/SVG/1.1/DTD/svg11.dtd">
<!-- Generated by graphviz version 2.38.0 (20140413.2041)
 -->
<!-- Title: efd::IBMQAllocator::Create Pages: 1 -->
<svg width="372pt" height="39pt"
 viewBox="0.00 0.00 372.00 39.00" xmlns="http://www.w3.org/2000/svg" xmlns:xlink="http://www.w3.org/1999/xlink">
<g id="graph0" class="graph" transform="scale(1 1) rotate(0) translate(4 35)">
<title>efd::IBMQAllocator::Create</title>
<!-- Node2 -->
<g id="node1" class="node"><title>Node2</title>
<polygon fill="#bfbfbf" stroke="black" points="0,-0.5 0,-30.5 100,-30.5 100,-0.5 0,-0.5"/>
<text text-anchor="start" x="8" y="-18.5" font-family="Helvetica,sans-Serif" font-size="10.00">efd::IBMQAllocator</text>
<text text-anchor="middle" x="50" y="-7.5" font-family="Helvetica,sans-Serif" font-size="10.00">::Create</text>
</g>
<!-- Node3 -->
<g id="node2" class="node"><title>Node3</title>
<g id="a_node2"><a xlink:href="../../d3/d6c/classefd_1_1IBMQAllocator.xhtml#a8009f7b0d940b68fb44cffa677d93031" target="_top" xlink:title="efd::IBMQAllocator\l::IBMQAllocator">
<polygon fill="none" stroke="black" points="136,-0.5 136,-30.5 236,-30.5 236,-0.5 136,-0.5"/>
<text text-anchor="start" x="144" y="-18.5" font-family="Helvetica,sans-Serif" font-size="10.00">efd::IBMQAllocator</text>
<text text-anchor="middle" x="186" y="-7.5" font-family="Helvetica,sans-Serif" font-size="10.00">::IBMQAllocator</text>
</a>
</g>
</g>
<!-- Node2&#45;&gt;Node3 -->
<g id="edge1" class="edge"><title>Node2&#45;&gt;Node3</title>
<path fill="none" stroke="midnightblue" d="M100.136,-15.5C108.42,-15.5 117.097,-15.5 125.608,-15.5"/>
<polygon fill="midnightblue" stroke="midnightblue" points="125.87,-19.0001 135.87,-15.5 125.87,-12.0001 125.87,-19.0001"/>
</g>
<!-- Node4 -->
<g id="node3" class="node"><title>Node4</title>
<g id="a_node3"><a xlink:href="../../de/d5a/classefd_1_1QbitAllocator.xhtml#aa380bf007e46c8c8f09ffe7d4a552d54" target="_top" xlink:title="efd::QbitAllocator\l::QbitAllocator">
<polygon fill="none" stroke="black" points="272,-0.5 272,-30.5 364,-30.5 364,-0.5 272,-0.5"/>
<text text-anchor="start" x="280" y="-18.5" font-family="Helvetica,sans-Serif" font-size="10.00">efd::QbitAllocator</text>
<text text-anchor="middle" x="318" y="-7.5" font-family="Helvetica,sans-Serif" font-size="10.00">::QbitAllocator</text>
</a>
</g>
</g>
<!-- Node3&#45;&gt;Node4 -->
<g id="edge2" class="edge"><title>Node3&#45;&gt;Node4</title>
<path fill="none" stroke="midnightblue" d="M236.147,-15.5C244.428,-15.5 253.075,-15.5 261.504,-15.5"/>
<polygon fill="midnightblue" stroke="midnightblue" points="261.638,-19.0001 271.638,-15.5 261.638,-12.0001 261.638,-19.0001"/>
</g>
</g>
</svg>
