<?xml version="1.0" encoding="UTF-8" standalone="no"?>
<!DOCTYPE svg PUBLIC "-//W3C//DTD SVG 1.1//EN"
 "http://www.w3.org/Graphics/SVG/1.1/DTD/svg11.dtd">
<!-- Generated by graphviz version 2.38.0 (20140413.2041)
 -->
<!-- Title: include/enfield/Transform/LayerBasedOrderingWrapperPass.h Pages: 1 -->
<svg width="385pt" height="173pt"
 viewBox="0.00 0.00 385.00 173.00" xmlns="http://www.w3.org/2000/svg" xmlns:xlink="http://www.w3.org/1999/xlink">
<g id="graph0" class="graph" transform="scale(1 1) rotate(0) translate(4 169)">
<title>include/enfield/Transform/LayerBasedOrderingWrapperPass.h</title>
<!-- Node16 -->
<g id="node1" class="node"><title>Node16</title>
<polygon fill="#bfbfbf" stroke="black" points="147.5,-134.5 147.5,-164.5 323.5,-164.5 323.5,-134.5 147.5,-134.5"/>
<text text-anchor="start" x="155.5" y="-152.5" font-family="Helvetica,sans-Serif" font-size="10.00">include/enfield/Transform</text>
<text text-anchor="middle" x="235.5" y="-141.5" font-family="Helvetica,sans-Serif" font-size="10.00">/LayerBasedOrderingWrapperPass.h</text>
</g>
<!-- Node17 -->
<g id="node2" class="node"><title>Node17</title>
<g id="a_node2"><a xlink:href="../../d1/dc9/CNOTLBOWrapperPass_8h.xhtml" target="_top" xlink:title="include/enfield/Transform\l/CNOTLBOWrapperPass.h">
<polygon fill="none" stroke="black" points="93,-67.5 93,-97.5 228,-97.5 228,-67.5 93,-67.5"/>
<text text-anchor="start" x="101" y="-85.5" font-family="Helvetica,sans-Serif" font-size="10.00">include/enfield/Transform</text>
<text text-anchor="middle" x="160.5" y="-74.5" font-family="Helvetica,sans-Serif" font-size="10.00">/CNOTLBOWrapperPass.h</text>
</a>
</g>
</g>
<!-- Node16&#45;&gt;Node17 -->
<g id="edge1" class="edge"><title>Node16&#45;&gt;Node17</title>
<path fill="none" stroke="midnightblue" d="M211.382,-127.598C200.057,-117.783 186.859,-106.344 176.742,-97.5765"/>
<polygon fill="midnightblue" stroke="midnightblue" points="209.377,-130.492 219.226,-134.396 213.961,-125.202 209.377,-130.492"/>
</g>
<!-- Node20 -->
<g id="node5" class="node"><title>Node20</title>
<g id="a_node5"><a xlink:href="../../d7/d43/LayerBasedOrderingWrapperPass_8cpp.xhtml" target="_top" xlink:title="lib/Transform/LayerBased\lOrderingWrapperPass.cpp">
<polygon fill="none" stroke="black" points="246,-67.5 246,-97.5 377,-97.5 377,-67.5 246,-67.5"/>
<text text-anchor="start" x="254" y="-85.5" font-family="Helvetica,sans-Serif" font-size="10.00">lib/Transform/LayerBased</text>
<text text-anchor="middle" x="311.5" y="-74.5" font-family="Helvetica,sans-Serif" font-size="10.00">OrderingWrapperPass.cpp</text>
</a>
</g>
</g>
<!-- Node16&#45;&gt;Node20 -->
<g id="edge4" class="edge"><title>Node16&#45;&gt;Node20</title>
<path fill="none" stroke="midnightblue" d="M259.606,-127.883C271.155,-118.005 284.69,-106.429 295.041,-97.5765"/>
<polygon fill="midnightblue" stroke="midnightblue" points="257.316,-125.236 251.991,-134.396 261.865,-130.556 257.316,-125.236"/>
</g>
<!-- Node18 -->
<g id="node3" class="node"><title>Node18</title>
<g id="a_node3"><a xlink:href="../../d0/d2e/CNOTLBOWrapperPass_8cpp.xhtml" target="_top" xlink:title="lib/Transform/CNOTLBOWrapper\lPass.cpp">
<polygon fill="none" stroke="black" points="0,-0.5 0,-30.5 161,-30.5 161,-0.5 0,-0.5"/>
<text text-anchor="start" x="8" y="-18.5" font-family="Helvetica,sans-Serif" font-size="10.00">lib/Transform/CNOTLBOWrapper</text>
<text text-anchor="middle" x="80.5" y="-7.5" font-family="Helvetica,sans-Serif" font-size="10.00">Pass.cpp</text>
</a>
</g>
</g>
<!-- Node17&#45;&gt;Node18 -->
<g id="edge2" class="edge"><title>Node17&#45;&gt;Node18</title>
<path fill="none" stroke="midnightblue" d="M135.125,-60.8832C122.968,-51.0054 108.721,-39.4293 97.8249,-30.5765"/>
<polygon fill="midnightblue" stroke="midnightblue" points="133.173,-63.8064 143.141,-67.396 137.587,-58.3736 133.173,-63.8064"/>
</g>
<!-- Node19 -->
<g id="node4" class="node"><title>Node19</title>
<g id="a_node4"><a xlink:href="../../df/dd9/Driver_8cpp.xhtml" target="_top" xlink:title="lib/Transform/Driver.cpp">
<polygon fill="none" stroke="black" points="179.5,-6 179.5,-25 301.5,-25 301.5,-6 179.5,-6"/>
<text text-anchor="middle" x="240.5" y="-13" font-family="Helvetica,sans-Serif" font-size="10.00">lib/Transform/Driver.cpp</text>
</a>
</g>
</g>
<!-- Node17&#45;&gt;Node19 -->
<g id="edge3" class="edge"><title>Node17&#45;&gt;Node19</title>
<path fill="none" stroke="midnightblue" d="M185.721,-61.008C200.572,-48.9412 218.587,-34.3046 229.799,-25.1945"/>
<polygon fill="midnightblue" stroke="midnightblue" points="183.413,-58.3736 177.859,-67.396 187.827,-63.8064 183.413,-58.3736"/>
</g>
</g>
</svg>
