<?xml version="1.0" encoding="UTF-8" standalone="no"?>
<!DOCTYPE svg PUBLIC "-//W3C//DTD SVG 1.1//EN"
 "http://www.w3.org/Graphics/SVG/1.1/DTD/svg11.dtd">
<!-- Generated by graphviz version 2.40.1 (20161225.0304)
 -->
<!-- Title: efd::CandidateSelector Pages: 1 -->
<svg width="352pt" height="95pt"
 viewBox="0.00 0.00 351.50 95.00" xmlns="http://www.w3.org/2000/svg" xmlns:xlink="http://www.w3.org/1999/xlink">
<g id="graph0" class="graph" transform="scale(1 1) rotate(0) translate(4 91)">
<title>efd::CandidateSelector</title>
<!-- Node0 -->
<g id="node1" class="node">
<title>Node0</title>
<polygon fill="#bfbfbf" stroke="#000000" points="100.5,-67.5 100.5,-86.5 228.5,-86.5 228.5,-67.5 100.5,-67.5"/>
<text text-anchor="middle" x="164.5" y="-74.5" font-family="Helvetica,sans-Serif" font-size="10.00" fill="#000000">efd::CandidateSelector</text>
</g>
<!-- Node1 -->
<g id="node2" class="node">
<title>Node1</title>
<g id="a_node2"><a xlink:href="../../d9/ddc/classefd_1_1FirstCandidateSelector.xhtml" target="_top" xlink:title="Gets the first maxCandidates from candidates. ">
<polygon fill="none" stroke="#000000" points="0,-6 0,-25 149,-25 149,-6 0,-6"/>
<text text-anchor="middle" x="74.5" y="-13" font-family="Helvetica,sans-Serif" font-size="10.00" fill="#000000">efd::FirstCandidateSelector</text>
</a>
</g>
</g>
<!-- Node0&#45;&gt;Node1 -->
<g id="edge1" class="edge">
<title>Node0&#45;&gt;Node1</title>
<path fill="none" stroke="#191970" d="M141.771,-61.4685C124.9932,-50.0037 102.6926,-34.765 88.4638,-25.0419"/>
<polygon fill="#191970" stroke="#191970" points="140.2064,-64.6384 150.4375,-67.3906 144.1557,-58.8589 140.2064,-64.6384"/>
</g>
<!-- Node2 -->
<g id="node3" class="node">
<title>Node2</title>
<g id="a_node3"><a xlink:href="../../d1/ddf/classefd_1_1WeightedRouletteCandidateSelector.xhtml" target="_top" xlink:title="Selects the candidates randomly, based on their cost. ">
<polygon fill="none" stroke="#000000" points="167.5,-.5 167.5,-30.5 343.5,-30.5 343.5,-.5 167.5,-.5"/>
<text text-anchor="start" x="175.5" y="-18.5" font-family="Helvetica,sans-Serif" font-size="10.00" fill="#000000">efd::WeightedRouletteCandidate</text>
<text text-anchor="middle" x="255.5" y="-7.5" font-family="Helvetica,sans-Serif" font-size="10.00" fill="#000000">Selector</text>
</a>
</g>
</g>
<!-- Node0&#45;&gt;Node2 -->
<g id="edge2" class="edge">
<title>Node0&#45;&gt;Node2</title>
<path fill="none" stroke="#191970" d="M187.3108,-61.5839C201.3613,-52.0882 219.2913,-39.9707 233.2389,-30.5446"/>
<polygon fill="#191970" stroke="#191970" points="185.0443,-58.8913 178.7188,-67.3906 188.9639,-64.691 185.0443,-58.8913"/>
</g>
</g>
</svg>
