<?xml version="1.0" encoding="UTF-8" standalone="no"?>
<!DOCTYPE svg PUBLIC "-//W3C//DTD SVG 1.1//EN"
 "http://www.w3.org/Graphics/SVG/1.1/DTD/svg11.dtd">
<!-- Generated by graphviz version 2.38.0 (20140413.2041)
 -->
<!-- Title: efd::BoundedSIDepSolver Pages: 1 -->
<svg width="175pt" height="323pt"
 viewBox="0.00 0.00 174.50 323.00" xmlns="http://www.w3.org/2000/svg" xmlns:xlink="http://www.w3.org/1999/xlink">
<g id="graph0" class="graph" transform="scale(1 1) rotate(0) translate(4 319)">
<title>efd::BoundedSIDepSolver</title>
<!-- Node0 -->
<g id="node1" class="node"><title>Node0</title>
<polygon fill="#bfbfbf" stroke="black" points="0,-0.5 0,-19.5 130,-19.5 130,-0.5 0,-0.5"/>
<text text-anchor="middle" x="65" y="-7.5" font-family="Helvetica,sans-Serif" font-size="10.00">efd::BoundedSIDepSolver</text>
</g>
<!-- Node1 -->
<g id="node2" class="node"><title>Node1</title>
<g id="a_node2"><a xlink:href="../../da/d6e/classefd_1_1DepSolverQAllocator.xhtml" target="_top" xlink:title="Wrapper for making it easier to implement algorithms for Qubit Allocation. ">
<polygon fill="none" stroke="black" points="1,-57.5 1,-76.5 129,-76.5 129,-57.5 1,-57.5"/>
<text text-anchor="middle" x="65" y="-64.5" font-family="Helvetica,sans-Serif" font-size="10.00">efd::DepSolverQAllocator</text>
</a>
</g>
</g>
<!-- Node1&#45;&gt;Node0 -->
<g id="edge1" class="edge"><title>Node1&#45;&gt;Node0</title>
<path fill="none" stroke="midnightblue" d="M65,-47.1166C65,-37.8173 65,-27.0557 65,-19.7149"/>
<polygon fill="midnightblue" stroke="midnightblue" points="61.5001,-47.4062 65,-57.4062 68.5001,-47.4063 61.5001,-47.4062"/>
</g>
<!-- Node2 -->
<g id="node3" class="node"><title>Node2</title>
<g id="a_node3"><a xlink:href="../../de/d5a/classefd_1_1QbitAllocator.xhtml" target="_top" xlink:title="Base abstract class that allocates the qbits used in the program to the qbits that are in the physica...">
<polygon fill="none" stroke="black" points="19,-114.5 19,-133.5 111,-133.5 111,-114.5 19,-114.5"/>
<text text-anchor="middle" x="65" y="-121.5" font-family="Helvetica,sans-Serif" font-size="10.00">efd::QbitAllocator</text>
</a>
</g>
</g>
<!-- Node2&#45;&gt;Node1 -->
<g id="edge2" class="edge"><title>Node2&#45;&gt;Node1</title>
<path fill="none" stroke="midnightblue" d="M65,-104.117C65,-94.8173 65,-84.0557 65,-76.7149"/>
<polygon fill="midnightblue" stroke="midnightblue" points="61.5001,-104.406 65,-114.406 68.5001,-104.406 61.5001,-104.406"/>
</g>
<!-- Node3 -->
<g id="node4" class="node"><title>Node3</title>
<g id="a_node4"><a xlink:href="../../db/d56/classefd_1_1PassT.xhtml" target="_top" xlink:title="efd::PassT\&lt; Solution \&gt;">
<polygon fill="none" stroke="black" points="6,-171.5 6,-190.5 124,-190.5 124,-171.5 6,-171.5"/>
<text text-anchor="middle" x="65" y="-178.5" font-family="Helvetica,sans-Serif" font-size="10.00">efd::PassT&lt; Solution &gt;</text>
</a>
</g>
</g>
<!-- Node3&#45;&gt;Node2 -->
<g id="edge3" class="edge"><title>Node3&#45;&gt;Node2</title>
<path fill="none" stroke="midnightblue" d="M65,-161.117C65,-151.817 65,-141.056 65,-133.715"/>
<polygon fill="midnightblue" stroke="midnightblue" points="61.5001,-161.406 65,-171.406 68.5001,-161.406 61.5001,-161.406"/>
</g>
<!-- Node4 -->
<g id="node5" class="node"><title>Node4</title>
<g id="a_node5"><a xlink:href="../../d0/d98/classefd_1_1Pass.xhtml" target="_top" xlink:title="Base class for implementation of QModule passes. This information will be used when the QModule&#39;s fun...">
<polygon fill="none" stroke="black" points="43.5,-295.5 43.5,-314.5 102.5,-314.5 102.5,-295.5 43.5,-295.5"/>
<text text-anchor="middle" x="73" y="-302.5" font-family="Helvetica,sans-Serif" font-size="10.00">efd::Pass</text>
</a>
</g>
</g>
<!-- Node4&#45;&gt;Node3 -->
<g id="edge4" class="edge"><title>Node4&#45;&gt;Node3</title>
<path fill="none" stroke="midnightblue" d="M71.2076,-285.072C70.4593,-276.77 69.6214,-266.906 69,-258 67.3078,-233.748 65.9817,-205.096 65.3697,-190.898"/>
<polygon fill="midnightblue" stroke="midnightblue" points="67.7371,-285.554 72.1437,-295.189 74.7073,-284.909 67.7371,-285.554"/>
</g>
<!-- Node5 -->
<g id="node6" class="node"><title>Node5</title>
<g id="a_node6"><a xlink:href="../../db/d56/classefd_1_1PassT.xhtml" target="_top" xlink:title="Should serve as base class for classes that produces some data of type T. ">
<polygon fill="none" stroke="black" points="77.5,-238.5 77.5,-257.5 166.5,-257.5 166.5,-238.5 77.5,-238.5"/>
<text text-anchor="middle" x="122" y="-245.5" font-family="Helvetica,sans-Serif" font-size="10.00">efd::PassT&lt; T &gt;</text>
</a>
</g>
</g>
<!-- Node4&#45;&gt;Node5 -->
<g id="edge6" class="edge"><title>Node4&#45;&gt;Node5</title>
<path fill="none" stroke="midnightblue" d="M87.4077,-287.828C96.182,-277.979 107.049,-265.782 114.236,-257.715"/>
<polygon fill="midnightblue" stroke="midnightblue" points="84.695,-285.611 80.6562,-295.406 89.9217,-290.268 84.695,-285.611"/>
</g>
<!-- Node5&#45;&gt;Node3 -->
<g id="edge5" class="edge"><title>Node5&#45;&gt;Node3</title>
<path fill="none" stroke="orange" stroke-dasharray="5,2" d="M107.649,-230.635C96.5015,-217.923 81.4842,-200.798 72.5655,-190.627"/>
<polygon fill="orange" stroke="orange" points="105.088,-233.023 114.313,-238.234 110.351,-228.408 105.088,-233.023"/>
<text text-anchor="middle" x="125.5" y="-212" font-family="Helvetica,sans-Serif" font-size="10.00"> &lt; Solution &gt;</text>
</g>
</g>
</svg>
