<?xml version="1.0" encoding="UTF-8" standalone="no"?>
<!DOCTYPE svg PUBLIC "-//W3C//DTD SVG 1.1//EN"
 "http://www.w3.org/Graphics/SVG/1.1/DTD/svg11.dtd">
<!-- Generated by graphviz version 2.38.0 (20140413.2041)
 -->
<!-- Title: efd::NDQOpSwap::NDQOpSwap Pages: 1 -->
<svg width="809pt" height="180pt"
 viewBox="0.00 0.00 809.00 180.00" xmlns="http://www.w3.org/2000/svg" xmlns:xlink="http://www.w3.org/1999/xlink">
<g id="graph0" class="graph" transform="scale(1 1) rotate(0) translate(4 176)">
<title>efd::NDQOpSwap::NDQOpSwap</title>
<!-- Node0 -->
<g id="node1" class="node"><title>Node0</title>
<polygon fill="#bfbfbf" stroke="black" points="0,-76.5 0,-95.5 162,-95.5 162,-76.5 0,-76.5"/>
<text text-anchor="middle" x="81" y="-83.5" font-family="Helvetica,sans-Serif" font-size="10.00">efd::NDQOpSwap::NDQOpSwap</text>
</g>
<!-- Node1 -->
<g id="node2" class="node"><title>Node1</title>
<g id="a_node2"><a xlink:href="../../da/ddd/classefd_1_1NDList.xhtml#a664c2f4a60746612062d7b112ff9842e" target="_top" xlink:title="Appends a child to the end of the list. ">
<polygon fill="none" stroke="black" points="384,-152.5 384,-171.5 495,-171.5 495,-152.5 384,-152.5"/>
<text text-anchor="middle" x="439.5" y="-159.5" font-family="Helvetica,sans-Serif" font-size="10.00">efd::NDList::addChild</text>
</a>
</g>
</g>
<!-- Node0&#45;&gt;Node1 -->
<g id="edge1" class="edge"><title>Node0&#45;&gt;Node1</title>
<path fill="none" stroke="midnightblue" d="M97.0169,-95.7069C118.447,-109.003 159.482,-132.432 198,-143 255.883,-158.881 324.326,-162.936 373.367,-163.429"/>
<polygon fill="midnightblue" stroke="midnightblue" points="373.508,-166.929 383.527,-163.483 373.546,-159.929 373.508,-166.929"/>
</g>
<!-- Node3 -->
<g id="node4" class="node"><title>Node3</title>
<g id="a_node4"><a xlink:href="../../df/d1b/classefd_1_1NDValue.xhtml#a96ab9dcd008523aa2f4cfc2eb95d7178" target="_top" xlink:title="Creates a new instance of this node. ">
<polygon fill="none" stroke="black" points="217,-114.5 217,-133.5 328,-133.5 328,-114.5 217,-114.5"/>
<text text-anchor="middle" x="272.5" y="-121.5" font-family="Helvetica,sans-Serif" font-size="10.00">efd::NDValue::Create</text>
</a>
</g>
</g>
<!-- Node0&#45;&gt;Node3 -->
<g id="edge3" class="edge"><title>Node0&#45;&gt;Node3</title>
<path fill="none" stroke="midnightblue" d="M129.819,-95.589C155.389,-100.716 187.059,-107.067 213.968,-112.463"/>
<polygon fill="midnightblue" stroke="midnightblue" points="213.532,-115.945 224.025,-114.48 214.908,-109.082 213.532,-115.945"/>
</g>
<!-- Node4 -->
<g id="node5" class="node"><title>Node4</title>
<g id="a_node5"><a xlink:href="../../da/ddd/classefd_1_1NDList.xhtml#a5e3e2ab6234caa816599eb51766210b7" target="_top" xlink:title="Creates a new instance of this node with the kind K_LIST. ">
<polygon fill="none" stroke="black" points="221.5,-0.5 221.5,-19.5 323.5,-19.5 323.5,-0.5 221.5,-0.5"/>
<text text-anchor="middle" x="272.5" y="-7.5" font-family="Helvetica,sans-Serif" font-size="10.00">efd::NDList::Create</text>
</a>
</g>
</g>
<!-- Node0&#45;&gt;Node4 -->
<g id="edge4" class="edge"><title>Node0&#45;&gt;Node4</title>
<path fill="none" stroke="midnightblue" d="M98.8114,-76.3774C120.957,-64.023 161.389,-42.5656 198,-29 204.712,-26.5129 211.885,-24.2259 219.02,-22.166"/>
<polygon fill="midnightblue" stroke="midnightblue" points="219.972,-25.5344 228.68,-19.5004 218.11,-18.7865 219.972,-25.5344"/>
</g>
<!-- Node9 -->
<g id="node10" class="node"><title>Node9</title>
<g id="a_node10"><a xlink:href="../../dd/d94/classefd_1_1NDQOp.xhtml#af7ef43289355c5bb047a46419177c8ed" target="_top" xlink:title="Gets the quantum arguments. ">
<polygon fill="none" stroke="black" points="213,-38.5 213,-57.5 332,-57.5 332,-38.5 213,-38.5"/>
<text text-anchor="middle" x="272.5" y="-45.5" font-family="Helvetica,sans-Serif" font-size="10.00">efd::NDQOp::getQArgs</text>
</a>
</g>
</g>
<!-- Node0&#45;&gt;Node9 -->
<g id="edge9" class="edge"><title>Node0&#45;&gt;Node9</title>
<path fill="none" stroke="midnightblue" d="M129.819,-76.411C155.389,-71.2835 187.059,-64.9328 213.968,-59.5368"/>
<polygon fill="midnightblue" stroke="midnightblue" points="214.908,-62.9179 224.025,-57.5201 213.532,-56.0546 214.908,-62.9179"/>
</g>
<!-- Node11 -->
<g id="node12" class="node"><title>Node11</title>
<g id="a_node12"><a xlink:href="../../d2/dff/classefd_1_1NDQOpGen.xhtml#a2334f46b3e6d6b273409f5b9a7181e0b" target="_top" xlink:title="efd::NDQOpGen::NDQOpGen">
<polygon fill="none" stroke="black" points="198,-76.5 198,-95.5 347,-95.5 347,-76.5 198,-76.5"/>
<text text-anchor="middle" x="272.5" y="-83.5" font-family="Helvetica,sans-Serif" font-size="10.00">efd::NDQOpGen::NDQOpGen</text>
</a>
</g>
</g>
<!-- Node0&#45;&gt;Node11 -->
<g id="edge11" class="edge"><title>Node0&#45;&gt;Node11</title>
<path fill="none" stroke="midnightblue" d="M162.09,-86C170.493,-86 179.053,-86 187.497,-86"/>
<polygon fill="midnightblue" stroke="midnightblue" points="187.722,-89.5001 197.722,-86 187.722,-82.5001 187.722,-89.5001"/>
</g>
<!-- Node2 -->
<g id="node3" class="node"><title>Node2</title>
<g id="a_node3"><a xlink:href="../../d6/d6a/classefd_1_1Node.xhtml#a48e9d49d994b9023b8400316e2782e2b" target="_top" xlink:title="Sets the parent node of the current node. ">
<polygon fill="none" stroke="black" points="694,-133.5 694,-152.5 801,-152.5 801,-133.5 694,-133.5"/>
<text text-anchor="middle" x="747.5" y="-140.5" font-family="Helvetica,sans-Serif" font-size="10.00">efd::Node::setParent</text>
</a>
</g>
</g>
<!-- Node1&#45;&gt;Node2 -->
<g id="edge2" class="edge"><title>Node1&#45;&gt;Node2</title>
<path fill="none" stroke="midnightblue" d="M495.207,-158.603C548.127,-155.317 628.253,-150.342 683.74,-146.897"/>
<polygon fill="midnightblue" stroke="midnightblue" points="684.038,-150.385 693.802,-146.272 683.604,-143.399 684.038,-150.385"/>
</g>
<!-- Node5 -->
<g id="node6" class="node"><title>Node5</title>
<g id="a_node6"><a xlink:href="../../da/ddd/classefd_1_1NDList.xhtml#a63e0eab4abb59c1c0783f90afe0bb3bb" target="_top" xlink:title="Creates a new instance of this node with a specific k. ">
<polygon fill="none" stroke="black" points="388.5,-0.5 388.5,-19.5 490.5,-19.5 490.5,-0.5 388.5,-0.5"/>
<text text-anchor="middle" x="439.5" y="-7.5" font-family="Helvetica,sans-Serif" font-size="10.00">efd::NDList::Create</text>
</a>
</g>
</g>
<!-- Node4&#45;&gt;Node5 -->
<g id="edge5" class="edge"><title>Node4&#45;&gt;Node5</title>
<path fill="none" stroke="midnightblue" d="M323.902,-10C341.014,-10 360.31,-10 378.12,-10"/>
<polygon fill="midnightblue" stroke="midnightblue" points="378.407,-13.5001 388.407,-10 378.407,-6.5001 378.407,-13.5001"/>
</g>
<!-- Node6 -->
<g id="node7" class="node"><title>Node6</title>
<g id="a_node7"><a xlink:href="../../d4/deb/namespaceefd.xhtml#a3fd26bc2a0a0c6d9948d0d3cef2e1515" target="_top" xlink:title="Returns true if the pointer src is of class TargetTy. ">
<polygon fill="none" stroke="black" points="553.5,-38.5 553.5,-57.5 636.5,-57.5 636.5,-38.5 553.5,-38.5"/>
<text text-anchor="middle" x="595" y="-45.5" font-family="Helvetica,sans-Serif" font-size="10.00">efd::instanceOf</text>
</a>
</g>
</g>
<!-- Node5&#45;&gt;Node6 -->
<g id="edge6" class="edge"><title>Node5&#45;&gt;Node6</title>
<path fill="none" stroke="midnightblue" d="M479.235,-19.589C499.399,-24.5809 524.248,-30.7324 545.661,-36.0334"/>
<polygon fill="midnightblue" stroke="midnightblue" points="544.996,-39.4743 555.544,-38.4799 546.678,-32.6794 544.996,-39.4743"/>
</g>
<!-- Node7 -->
<g id="node8" class="node"><title>Node7</title>
<g id="a_node8"><a xlink:href="../../da/ddd/classefd_1_1NDList.xhtml#a2642c91fda9d33512d1aa1aa7851b6bd" target="_top" xlink:title="efd::NDList::NDList">
<polygon fill="none" stroke="black" points="543,-0.5 543,-19.5 647,-19.5 647,-0.5 543,-0.5"/>
<text text-anchor="middle" x="595" y="-7.5" font-family="Helvetica,sans-Serif" font-size="10.00">efd::NDList::NDList</text>
</a>
</g>
</g>
<!-- Node5&#45;&gt;Node7 -->
<g id="edge7" class="edge"><title>Node5&#45;&gt;Node7</title>
<path fill="none" stroke="midnightblue" d="M490.762,-10C504.2,-10 518.873,-10 532.829,-10"/>
<polygon fill="midnightblue" stroke="midnightblue" points="532.837,-13.5001 542.837,-10 532.837,-6.5001 532.837,-13.5001"/>
</g>
<!-- Node8 -->
<g id="node9" class="node"><title>Node8</title>
<g id="a_node9"><a xlink:href="../../d6/d6a/classefd_1_1Node.xhtml#a09ac8cdf7898a3d17293d92ae956eece" target="_top" xlink:title="Constructs the node, initially empty (with no information). ">
<polygon fill="none" stroke="black" points="703,-57.5 703,-76.5 792,-76.5 792,-57.5 703,-57.5"/>
<text text-anchor="middle" x="747.5" y="-64.5" font-family="Helvetica,sans-Serif" font-size="10.00">efd::Node::Node</text>
</a>
</g>
</g>
<!-- Node7&#45;&gt;Node8 -->
<g id="edge8" class="edge"><title>Node7&#45;&gt;Node8</title>
<path fill="none" stroke="midnightblue" d="M629.685,-19.5983C638.93,-22.4288 648.91,-25.6668 658,-29 677.816,-36.2665 699.607,-45.6057 716.607,-53.2071"/>
<polygon fill="midnightblue" stroke="midnightblue" points="715.458,-56.5282 726.012,-57.453 718.338,-50.1482 715.458,-56.5282"/>
</g>
<!-- Node10 -->
<g id="node11" class="node"><title>Node10</title>
<g id="a_node11"><a xlink:href="../../d4/deb/namespaceefd.xhtml#a2cef687225e13315fc282dc40b5a6909" target="_top" xlink:title="Returns src cast to TargetTy, iff it is of class TargetTy, otherwise it will return nullptr...">
<polygon fill="none" stroke="black" points="403,-38.5 403,-57.5 476,-57.5 476,-38.5 403,-38.5"/>
<text text-anchor="middle" x="439.5" y="-45.5" font-family="Helvetica,sans-Serif" font-size="10.00">efd::dynCast</text>
</a>
</g>
</g>
<!-- Node9&#45;&gt;Node10 -->
<g id="edge10" class="edge"><title>Node9&#45;&gt;Node10</title>
<path fill="none" stroke="midnightblue" d="M332.137,-48C351.989,-48 373.857,-48 392.576,-48"/>
<polygon fill="midnightblue" stroke="midnightblue" points="392.618,-51.5001 402.618,-48 392.618,-44.5001 392.618,-51.5001"/>
</g>
<!-- Node12 -->
<g id="node13" class="node"><title>Node12</title>
<g id="a_node13"><a xlink:href="../../dd/d94/classefd_1_1NDQOp.xhtml#ab5f18eaba71bcb53806525fd5dc61403" target="_top" xlink:title="efd::NDQOp::NDQOp">
<polygon fill="none" stroke="black" points="383,-76.5 383,-95.5 496,-95.5 496,-76.5 383,-76.5"/>
<text text-anchor="middle" x="439.5" y="-83.5" font-family="Helvetica,sans-Serif" font-size="10.00">efd::NDQOp::NDQOp</text>
</a>
</g>
</g>
<!-- Node11&#45;&gt;Node12 -->
<g id="edge12" class="edge"><title>Node11&#45;&gt;Node12</title>
<path fill="none" stroke="midnightblue" d="M347.313,-86C355.639,-86 364.084,-86 372.304,-86"/>
<polygon fill="midnightblue" stroke="midnightblue" points="372.57,-89.5001 382.57,-86 372.57,-82.5001 372.57,-89.5001"/>
</g>
<!-- Node12&#45;&gt;Node8 -->
<g id="edge15" class="edge"><title>Node12&#45;&gt;Node8</title>
<path fill="none" stroke="midnightblue" d="M496.269,-82.5372C552.141,-79.068 637.55,-73.7649 692.711,-70.3398"/>
<polygon fill="midnightblue" stroke="midnightblue" points="693.219,-73.8151 702.983,-69.702 692.786,-66.8286 693.219,-73.8151"/>
</g>
<!-- Node13 -->
<g id="node14" class="node"><title>Node13</title>
<g id="a_node14"><a xlink:href="../../d6/d6a/classefd_1_1Node.xhtml#a8ac8c3206c6f6817a8c8e515ac830f61" target="_top" xlink:title="Adds a child to this node. It should be used only for construction of each derived class...">
<polygon fill="none" stroke="black" points="532,-114.5 532,-133.5 658,-133.5 658,-114.5 532,-114.5"/>
<text text-anchor="middle" x="595" y="-121.5" font-family="Helvetica,sans-Serif" font-size="10.00">efd::Node::innerAddChild</text>
</a>
</g>
</g>
<!-- Node12&#45;&gt;Node13 -->
<g id="edge13" class="edge"><title>Node12&#45;&gt;Node13</title>
<path fill="none" stroke="midnightblue" d="M479.235,-95.589C499.399,-100.581 524.248,-106.732 545.661,-112.033"/>
<polygon fill="midnightblue" stroke="midnightblue" points="544.996,-115.474 555.544,-114.48 546.678,-108.679 544.996,-115.474"/>
</g>
<!-- Node13&#45;&gt;Node2 -->
<g id="edge14" class="edge"><title>Node13&#45;&gt;Node2</title>
<path fill="none" stroke="midnightblue" d="M658.083,-131.838C666.488,-132.899 675.118,-133.988 683.538,-135.051"/>
<polygon fill="midnightblue" stroke="midnightblue" points="683.314,-138.551 693.674,-136.331 684.191,-131.606 683.314,-138.551"/>
</g>
</g>
</svg>
