<?xml version="1.0" encoding="UTF-8" standalone="no"?>
<!DOCTYPE svg PUBLIC "-//W3C//DTD SVG 1.1//EN"
 "http://www.w3.org/Graphics/SVG/1.1/DTD/svg11.dtd">
<!-- Generated by graphviz version 2.40.1 (20161225.0304)
 -->
<!-- Title: efd::QbitterSolBuilder::build Pages: 1 -->
<svg width="333pt" height="180pt"
 viewBox="0.00 0.00 333.00 180.00" xmlns="http://www.w3.org/2000/svg" xmlns:xlink="http://www.w3.org/1999/xlink">
<g id="graph0" class="graph" transform="scale(1 1) rotate(0) translate(4 176)">
<title>efd::QbitterSolBuilder::build</title>
<!-- Node0 -->
<g id="node1" class="node">
<title>Node0</title>
<polygon fill="#bfbfbf" stroke="#000000" points="0,-71 0,-101 122,-101 122,-71 0,-71"/>
<text text-anchor="start" x="8" y="-89" font-family="Helvetica,sans-Serif" font-size="10.00" fill="#000000">efd::QbitterSolBuilder</text>
<text text-anchor="middle" x="61" y="-78" font-family="Helvetica,sans-Serif" font-size="10.00" fill="#000000">::build</text>
</g>
<!-- Node1 -->
<g id="node2" class="node">
<title>Node1</title>
<g id="a_node2"><a xlink:href="../../d4/deb/namespaceefd.xhtml#af3487901a239a99750dc5dcdc3a8c868" target="_top" xlink:title="efd::ExitWith">
<polygon fill="none" stroke="#000000" points="201.5,-152.5 201.5,-171.5 281.5,-171.5 281.5,-152.5 201.5,-152.5"/>
<text text-anchor="middle" x="241.5" y="-159.5" font-family="Helvetica,sans-Serif" font-size="10.00" fill="#000000">efd::ExitWith</text>
</a>
</g>
</g>
<!-- Node0&#45;&gt;Node1 -->
<g id="edge1" class="edge">
<title>Node0&#45;&gt;Node1</title>
<path fill="none" stroke="#191970" d="M82.3545,-101.1599C101.3795,-114.0136 130.401,-132.0564 158,-143 168.4753,-147.1537 180.0675,-150.5133 191.1969,-153.185"/>
<polygon fill="#191970" stroke="#191970" points="190.7176,-156.6647 201.2423,-155.4482 192.2561,-149.8359 190.7176,-156.6647"/>
</g>
<!-- Node2 -->
<g id="node3" class="node">
<title>Node2</title>
<g id="a_node3"><a xlink:href="../../db/db3/classefd_1_1Graph.xhtml#aace719bbdaaef0e8787f8a0032a676d8" target="_top" xlink:title="Returns true whether it has an edge (i, j). ">
<polygon fill="none" stroke="#000000" points="184,-114.5 184,-133.5 299,-133.5 299,-114.5 184,-114.5"/>
<text text-anchor="middle" x="241.5" y="-121.5" font-family="Helvetica,sans-Serif" font-size="10.00" fill="#000000">efd::Graph::hasEdge</text>
</a>
</g>
</g>
<!-- Node0&#45;&gt;Node2 -->
<g id="edge2" class="edge">
<title>Node0&#45;&gt;Node2</title>
<path fill="none" stroke="#191970" d="M122.1091,-98.8651C142.8448,-103.2305 165.8796,-108.0799 186.1412,-112.3455"/>
<polygon fill="#191970" stroke="#191970" points="185.6423,-115.8171 196.1488,-114.4524 187.0844,-108.9673 185.6423,-115.8171"/>
</g>
<!-- Node3 -->
<g id="node4" class="node">
<title>Node3</title>
<g id="a_node4"><a xlink:href="../../d4/deb/namespaceefd.xhtml#adb4ffc373d7273aefb15d2f9dcd4aeb4" target="_top" xlink:title="Generates an assignment mapping (maps the architecture&#39;s qubits to the logical ones) of size archQ...">
<polygon fill="none" stroke="#000000" points="187.5,-76.5 187.5,-95.5 295.5,-95.5 295.5,-76.5 187.5,-76.5"/>
<text text-anchor="middle" x="241.5" y="-83.5" font-family="Helvetica,sans-Serif" font-size="10.00" fill="#000000">efd::InvertMapping</text>
</a>
</g>
</g>
<!-- Node0&#45;&gt;Node3 -->
<g id="edge3" class="edge">
<title>Node0&#45;&gt;Node3</title>
<path fill="none" stroke="#191970" d="M122.1091,-86C139.8892,-86 159.3598,-86 177.3229,-86"/>
<polygon fill="#191970" stroke="#191970" points="177.4129,-89.5001 187.4128,-86 177.4128,-82.5001 177.4129,-89.5001"/>
</g>
<!-- Node4 -->
<g id="node5" class="node">
<title>Node4</title>
<g id="a_node5"><a xlink:href="../../d5/dae/classefd_1_1ArchGraph.xhtml#a10786b155e3d2d397b9d94227080155a" target="_top" xlink:title="Returns true if the edge (i, j) is a reverse edge. i.e.: if (i, j) is not in the graph, but (j, i) is. ">
<polygon fill="none" stroke="#000000" points="158,-38.5 158,-57.5 325,-57.5 325,-38.5 158,-38.5"/>
<text text-anchor="middle" x="241.5" y="-45.5" font-family="Helvetica,sans-Serif" font-size="10.00" fill="#000000">efd::ArchGraph::isReverseEdge</text>
</a>
</g>
</g>
<!-- Node0&#45;&gt;Node4 -->
<g id="edge4" class="edge">
<title>Node0&#45;&gt;Node4</title>
<path fill="none" stroke="#191970" d="M122.1091,-73.1349C142.8448,-68.7695 165.8796,-63.9201 186.1412,-59.6545"/>
<polygon fill="#191970" stroke="#191970" points="187.0844,-63.0327 196.1488,-57.5476 185.6423,-56.1829 187.0844,-63.0327"/>
</g>
<!-- Node5 -->
<g id="node6" class="node">
<title>Node5</title>
<g id="a_node6"><a xlink:href="../../db/db3/classefd_1_1Graph.xhtml#aa85ea20ad74d6a7df7a52c13a9fabe2d" target="_top" xlink:title="Return the number of vertices. ">
<polygon fill="none" stroke="#000000" points="195,-.5 195,-19.5 288,-19.5 288,-.5 195,-.5"/>
<text text-anchor="middle" x="241.5" y="-7.5" font-family="Helvetica,sans-Serif" font-size="10.00" fill="#000000">efd::Graph::size</text>
</a>
</g>
</g>
<!-- Node0&#45;&gt;Node5 -->
<g id="edge5" class="edge">
<title>Node0&#45;&gt;Node5</title>
<path fill="none" stroke="#191970" d="M82.3545,-70.8401C101.3795,-57.9864 130.401,-39.9436 158,-29 166.5254,-25.6195 175.7905,-22.7649 184.9439,-20.3792"/>
<polygon fill="#191970" stroke="#191970" points="185.9093,-23.7463 194.7921,-17.9716 184.2469,-16.9465 185.9093,-23.7463"/>
</g>
</g>
</svg>
