<?xml version="1.0" encoding="UTF-8" standalone="no"?>
<!DOCTYPE svg PUBLIC "-//W3C//DTD SVG 1.1//EN"
 "http://www.w3.org/Graphics/SVG/1.1/DTD/svg11.dtd">
<!-- Generated by graphviz version 2.38.0 (20140413.2041)
 -->
<!-- Title: efd::QbitAllocator Pages: 1 -->
<svg width="546pt" height="323pt"
 viewBox="0.00 0.00 546.00 323.00" xmlns="http://www.w3.org/2000/svg" xmlns:xlink="http://www.w3.org/1999/xlink">
<g id="graph0" class="graph" transform="scale(1 1) rotate(0) translate(4 319)">
<title>efd::QbitAllocator</title>
<!-- Node0 -->
<g id="node1" class="node"><title>Node0</title>
<polygon fill="#bfbfbf" stroke="black" points="309,-114.5 309,-133.5 401,-133.5 401,-114.5 309,-114.5"/>
<text text-anchor="middle" x="355" y="-121.5" font-family="Helvetica,sans-Serif" font-size="10.00">efd::QbitAllocator</text>
</g>
<!-- Node4 -->
<g id="node5" class="node"><title>Node4</title>
<g id="a_node5"><a xlink:href="../../da/d6e/classefd_1_1DepSolverQAllocator.xhtml" target="_top" xlink:title="Wrapper for making it easier to implement algorithms for Qubit Allocation. ">
<polygon fill="none" stroke="black" points="144,-57.5 144,-76.5 272,-76.5 272,-57.5 144,-57.5"/>
<text text-anchor="middle" x="208" y="-64.5" font-family="Helvetica,sans-Serif" font-size="10.00">efd::DepSolverQAllocator</text>
</a>
</g>
</g>
<!-- Node0&#45;&gt;Node4 -->
<g id="edge5" class="edge"><title>Node0&#45;&gt;Node4</title>
<path fill="none" stroke="midnightblue" d="M322.356,-110.786C294.56,-100.386 255.339,-85.7119 230.807,-76.5334"/>
<polygon fill="midnightblue" stroke="midnightblue" points="321.439,-114.18 332.031,-114.406 323.892,-107.624 321.439,-114.18"/>
</g>
<!-- Node8 -->
<g id="node9" class="node"><title>Node8</title>
<g id="a_node9"><a xlink:href="../../d4/d23/classefd_1_1GreedyCktQAllocator.xhtml" target="_top" xlink:title="efd::GreedyCktQAllocator">
<polygon fill="none" stroke="black" points="290.5,-57.5 290.5,-76.5 419.5,-76.5 419.5,-57.5 290.5,-57.5"/>
<text text-anchor="middle" x="355" y="-64.5" font-family="Helvetica,sans-Serif" font-size="10.00">efd::GreedyCktQAllocator</text>
</a>
</g>
</g>
<!-- Node0&#45;&gt;Node8 -->
<g id="edge9" class="edge"><title>Node0&#45;&gt;Node8</title>
<path fill="none" stroke="midnightblue" d="M355,-104.117C355,-94.8173 355,-84.0557 355,-76.7149"/>
<polygon fill="midnightblue" stroke="midnightblue" points="351.5,-104.406 355,-114.406 358.5,-104.406 351.5,-104.406"/>
</g>
<!-- Node9 -->
<g id="node10" class="node"><title>Node9</title>
<g id="a_node10"><a xlink:href="../../d3/d6c/classefd_1_1IBMQAllocator.xhtml" target="_top" xlink:title="Port of IBM&#39;s allocator. ">
<polygon fill="none" stroke="black" points="438,-57.5 438,-76.5 538,-76.5 538,-57.5 438,-57.5"/>
<text text-anchor="middle" x="488" y="-64.5" font-family="Helvetica,sans-Serif" font-size="10.00">efd::IBMQAllocator</text>
</a>
</g>
</g>
<!-- Node0&#45;&gt;Node9 -->
<g id="edge10" class="edge"><title>Node0&#45;&gt;Node9</title>
<path fill="none" stroke="midnightblue" d="M385.199,-110.512C410.305,-100.129 445.364,-85.6314 467.365,-76.5334"/>
<polygon fill="midnightblue" stroke="midnightblue" points="383.685,-107.35 375.781,-114.406 386.36,-113.819 383.685,-107.35"/>
</g>
<!-- Node1 -->
<g id="node2" class="node"><title>Node1</title>
<g id="a_node2"><a xlink:href="../../db/d56/classefd_1_1PassT.xhtml" target="_top" xlink:title="efd::PassT\&lt; Solution \&gt;">
<polygon fill="none" stroke="black" points="296,-171.5 296,-190.5 414,-190.5 414,-171.5 296,-171.5"/>
<text text-anchor="middle" x="355" y="-178.5" font-family="Helvetica,sans-Serif" font-size="10.00">efd::PassT&lt; Solution &gt;</text>
</a>
</g>
</g>
<!-- Node1&#45;&gt;Node0 -->
<g id="edge1" class="edge"><title>Node1&#45;&gt;Node0</title>
<path fill="none" stroke="midnightblue" d="M355,-161.117C355,-151.817 355,-141.056 355,-133.715"/>
<polygon fill="midnightblue" stroke="midnightblue" points="351.5,-161.406 355,-171.406 358.5,-161.406 351.5,-161.406"/>
</g>
<!-- Node2 -->
<g id="node3" class="node"><title>Node2</title>
<g id="a_node3"><a xlink:href="../../d0/d98/classefd_1_1Pass.xhtml" target="_top" xlink:title="Base class for implementation of QModule passes. This information will be used when the QModule&#39;s fun...">
<polygon fill="none" stroke="black" points="333.5,-295.5 333.5,-314.5 392.5,-314.5 392.5,-295.5 333.5,-295.5"/>
<text text-anchor="middle" x="363" y="-302.5" font-family="Helvetica,sans-Serif" font-size="10.00">efd::Pass</text>
</a>
</g>
</g>
<!-- Node2&#45;&gt;Node1 -->
<g id="edge2" class="edge"><title>Node2&#45;&gt;Node1</title>
<path fill="none" stroke="midnightblue" d="M361.208,-285.072C360.459,-276.77 359.621,-266.906 359,-258 357.308,-233.748 355.982,-205.096 355.37,-190.898"/>
<polygon fill="midnightblue" stroke="midnightblue" points="357.737,-285.554 362.144,-295.189 364.707,-284.909 357.737,-285.554"/>
</g>
<!-- Node3 -->
<g id="node4" class="node"><title>Node3</title>
<g id="a_node4"><a xlink:href="../../db/d56/classefd_1_1PassT.xhtml" target="_top" xlink:title="Should serve as base class for classes that produces some data of type T. ">
<polygon fill="none" stroke="black" points="367.5,-238.5 367.5,-257.5 456.5,-257.5 456.5,-238.5 367.5,-238.5"/>
<text text-anchor="middle" x="412" y="-245.5" font-family="Helvetica,sans-Serif" font-size="10.00">efd::PassT&lt; T &gt;</text>
</a>
</g>
</g>
<!-- Node2&#45;&gt;Node3 -->
<g id="edge4" class="edge"><title>Node2&#45;&gt;Node3</title>
<path fill="none" stroke="midnightblue" d="M377.408,-287.828C386.182,-277.979 397.049,-265.782 404.236,-257.715"/>
<polygon fill="midnightblue" stroke="midnightblue" points="374.695,-285.611 370.656,-295.406 379.922,-290.268 374.695,-285.611"/>
</g>
<!-- Node3&#45;&gt;Node1 -->
<g id="edge3" class="edge"><title>Node3&#45;&gt;Node1</title>
<path fill="none" stroke="orange" stroke-dasharray="5,2" d="M397.649,-230.635C386.502,-217.923 371.484,-200.798 362.565,-190.627"/>
<polygon fill="orange" stroke="orange" points="395.088,-233.023 404.313,-238.234 400.351,-228.408 395.088,-233.023"/>
<text text-anchor="middle" x="415.5" y="-212" font-family="Helvetica,sans-Serif" font-size="10.00"> &lt; Solution &gt;</text>
</g>
<!-- Node5 -->
<g id="node6" class="node"><title>Node5</title>
<g id="a_node6"><a xlink:href="../../de/d80/classefd_1_1BoundedSIDepSolver.xhtml" target="_top" xlink:title="Implementation of DepSolverQAllocator that bounds the subgraph isomorphism search. ">
<polygon fill="none" stroke="black" points="0,-0.5 0,-19.5 130,-19.5 130,-0.5 0,-0.5"/>
<text text-anchor="middle" x="65" y="-7.5" font-family="Helvetica,sans-Serif" font-size="10.00">efd::BoundedSIDepSolver</text>
</a>
</g>
</g>
<!-- Node4&#45;&gt;Node5 -->
<g id="edge6" class="edge"><title>Node4&#45;&gt;Node5</title>
<path fill="none" stroke="midnightblue" d="M176.244,-53.7862C149.205,-43.3864 111.051,-28.7119 87.1869,-19.5334"/>
<polygon fill="midnightblue" stroke="midnightblue" points="175.066,-57.0831 185.656,-57.4062 177.579,-50.5497 175.066,-57.0831"/>
</g>
<!-- Node6 -->
<g id="node7" class="node"><title>Node6</title>
<g id="a_node7"><a xlink:href="../../df/d73/classefd_1_1DynprogDepSolver.xhtml" target="_top" xlink:title="Implementation of DepSolverQAllocator that uses dynamic programming to obtain an optimal solution...">
<polygon fill="none" stroke="black" points="148.5,-0.5 148.5,-19.5 267.5,-19.5 267.5,-0.5 148.5,-0.5"/>
<text text-anchor="middle" x="208" y="-7.5" font-family="Helvetica,sans-Serif" font-size="10.00">efd::DynprogDepSolver</text>
</a>
</g>
</g>
<!-- Node4&#45;&gt;Node6 -->
<g id="edge7" class="edge"><title>Node4&#45;&gt;Node6</title>
<path fill="none" stroke="midnightblue" d="M208,-47.1166C208,-37.8173 208,-27.0557 208,-19.7149"/>
<polygon fill="midnightblue" stroke="midnightblue" points="204.5,-47.4062 208,-57.4062 211.5,-47.4063 204.5,-47.4062"/>
</g>
<!-- Node7 -->
<g id="node8" class="node"><title>Node7</title>
<g id="a_node8"><a xlink:href="../../d2/d8a/classefd_1_1SimpleDepSolver.xhtml" target="_top" xlink:title="DependencySolver that allocates the logical qubits from an initial mapping. ">
<polygon fill="none" stroke="black" points="286,-0.5 286,-19.5 398,-19.5 398,-0.5 286,-0.5"/>
<text text-anchor="middle" x="342" y="-7.5" font-family="Helvetica,sans-Serif" font-size="10.00">efd::SimpleDepSolver</text>
</a>
</g>
</g>
<!-- Node4&#45;&gt;Node7 -->
<g id="edge8" class="edge"><title>Node4&#45;&gt;Node7</title>
<path fill="none" stroke="midnightblue" d="M238.426,-53.5116C263.721,-43.1294 299.044,-28.6314 321.21,-19.5334"/>
<polygon fill="midnightblue" stroke="midnightblue" points="236.86,-50.3712 228.938,-57.4062 239.518,-56.847 236.86,-50.3712"/>
</g>
</g>
</svg>
