<?xml version="1.0" encoding="UTF-8" standalone="no"?>
<!DOCTYPE svg PUBLIC "-//W3C//DTD SVG 1.1//EN"
 "http://www.w3.org/Graphics/SVG/1.1/DTD/svg11.dtd">
<!-- Generated by graphviz version 2.40.1 (20161225.0304)
 -->
<!-- Title: efd::QbitAllocator Pages: 1 -->
<svg width="984pt" height="142pt"
 viewBox="0.00 0.00 984.00 142.00" xmlns="http://www.w3.org/2000/svg" xmlns:xlink="http://www.w3.org/1999/xlink">
<g id="graph0" class="graph" transform="scale(1 1) rotate(0) translate(4 138)">
<title>efd::QbitAllocator</title>
<!-- Node0 -->
<g id="node1" class="node">
<title>Node0</title>
<polygon fill="#bfbfbf" stroke="#000000" points="464,-76.5 464,-95.5 566,-95.5 566,-76.5 464,-76.5"/>
<text text-anchor="middle" x="515" y="-83.5" font-family="Helvetica,sans-Serif" font-size="10.00" fill="#000000">efd::QbitAllocator</text>
</g>
<!-- Node4 -->
<g id="node5" class="node">
<title>Node4</title>
<g id="a_node5"><a xlink:href="../../d1/dd6/classefd_1_1BoundedMappingTreeQAllocator.xhtml" target="_top" xlink:title="Subgraph Isomorphism based Qubit Allocator. ">
<polygon fill="none" stroke="#000000" points="603,-95.5 603,-114.5 798,-114.5 798,-95.5 603,-95.5"/>
<text text-anchor="middle" x="700.5" y="-102.5" font-family="Helvetica,sans-Serif" font-size="10.00" fill="#000000">efd::BoundedMappingTreeQAllocator</text>
</a>
</g>
</g>
<!-- Node0&#45;&gt;Node4 -->
<g id="edge5" class="edge">
<title>Node0&#45;&gt;Node4</title>
<path fill="none" stroke="#191970" d="M576.3785,-92.2867C586.3787,-93.311 596.9305,-94.3918 607.4868,-95.473"/>
<polygon fill="#191970" stroke="#191970" points="576.4843,-88.7794 566.1797,-91.2421 575.771,-95.7429 576.4843,-88.7794"/>
</g>
<!-- Node5 -->
<g id="node6" class="node">
<title>Node5</title>
<g id="a_node6"><a xlink:href="../../d6/d8e/classefd_1_1StdSolutionQAllocator.xhtml" target="_top" xlink:title="An abstract allocator that builds the solution based on a StdSolution. ">
<polygon fill="none" stroke="#000000" points="628,-57.5 628,-76.5 773,-76.5 773,-57.5 628,-57.5"/>
<text text-anchor="middle" x="700.5" y="-64.5" font-family="Helvetica,sans-Serif" font-size="10.00" fill="#000000">efd::StdSolutionQAllocator</text>
</a>
</g>
</g>
<!-- Node0&#45;&gt;Node5 -->
<g id="edge6" class="edge">
<title>Node0&#45;&gt;Node5</title>
<path fill="none" stroke="#191970" d="M576.2627,-79.7251C592.8069,-78.0306 610.8677,-76.1807 627.9652,-74.4294"/>
<polygon fill="#191970" stroke="#191970" points="575.771,-76.2571 566.1797,-80.7579 576.4843,-83.2206 575.771,-76.2571"/>
</g>
<!-- Node1 -->
<g id="node2" class="node">
<title>Node1</title>
<g id="a_node2"><a xlink:href="../../db/d56/classefd_1_1PassT.xhtml" target="_top" xlink:title="efd::PassT\&lt; Mapping \&gt;">
<polygon fill="none" stroke="#000000" points="296,-76.5 296,-95.5 427,-95.5 427,-76.5 296,-76.5"/>
<text text-anchor="middle" x="361.5" y="-83.5" font-family="Helvetica,sans-Serif" font-size="10.00" fill="#000000">efd::PassT&lt; Mapping &gt;</text>
</a>
</g>
</g>
<!-- Node1&#45;&gt;Node0 -->
<g id="edge1" class="edge">
<title>Node1&#45;&gt;Node0</title>
<path fill="none" stroke="#191970" d="M437.1305,-86C446.0959,-86 455.0816,-86 463.5982,-86"/>
<polygon fill="#191970" stroke="#191970" points="437.0431,-82.5001 427.0431,-86 437.043,-89.5001 437.0431,-82.5001"/>
</g>
<!-- Node2 -->
<g id="node3" class="node">
<title>Node2</title>
<g id="a_node3"><a xlink:href="../../d0/d98/classefd_1_1Pass.xhtml" target="_top" xlink:title="Base class for implementation of QModule passes. This information will be used when the QModule&#39;s fun...">
<polygon fill="none" stroke="#000000" points="0,-73.5 0,-92.5 61,-92.5 61,-73.5 0,-73.5"/>
<text text-anchor="middle" x="30.5" y="-80.5" font-family="Helvetica,sans-Serif" font-size="10.00" fill="#000000">efd::Pass</text>
</a>
</g>
</g>
<!-- Node2&#45;&gt;Node1 -->
<g id="edge2" class="edge">
<title>Node2&#45;&gt;Node1</title>
<path fill="none" stroke="#191970" d="M71.2941,-87.5102C73.8996,-87.7039 76.4851,-87.8707 79,-88 167.3278,-92.5409 189.5619,-89.059 278,-88 283.7999,-87.9306 289.8258,-87.834 295.8657,-87.7204"/>
<polygon fill="#191970" stroke="#191970" points="71.5134,-84.0162 61.2514,-86.6509 70.9166,-90.9907 71.5134,-84.0162"/>
</g>
<!-- Node3 -->
<g id="node4" class="node">
<title>Node3</title>
<g id="a_node4"><a xlink:href="../../db/d56/classefd_1_1PassT.xhtml" target="_top" xlink:title="Should serve as base class for classes that produces some data of type T. ">
<polygon fill="none" stroke="#000000" points="98,-54.5 98,-73.5 193,-73.5 193,-54.5 98,-54.5"/>
<text text-anchor="middle" x="145.5" y="-61.5" font-family="Helvetica,sans-Serif" font-size="10.00" fill="#000000">efd::PassT&lt; T &gt;</text>
</a>
</g>
</g>
<!-- Node2&#45;&gt;Node3 -->
<g id="edge4" class="edge">
<title>Node2&#45;&gt;Node3</title>
<path fill="none" stroke="#191970" d="M70.9338,-76.3196C79.6539,-74.8789 88.95,-73.343 97.9145,-71.862"/>
<polygon fill="#191970" stroke="#191970" points="70.3117,-72.8749 61.016,-77.9582 71.4528,-79.7813 70.3117,-72.8749"/>
</g>
<!-- Node3&#45;&gt;Node1 -->
<g id="edge3" class="edge">
<title>Node3&#45;&gt;Node1</title>
<path fill="none" stroke="#ffa500" stroke-dasharray="5,2" d="M203.0953,-69.5299C226.3623,-71.7953 253.465,-74.4742 278,-77 283.8015,-77.5972 289.8287,-78.2276 295.8693,-78.8661"/>
<polygon fill="#ffa500" stroke="#ffa500" points="203.3303,-66.0363 193.0387,-68.5531 202.6535,-73.0035 203.3303,-66.0363"/>
<text text-anchor="middle" x="244.5" y="-80" font-family="Helvetica,sans-Serif" font-size="10.00" fill="#000000"> &lt; Mapping &gt;</text>
</g>
<!-- Node6 -->
<g id="node7" class="node">
<title>Node6</title>
<g id="a_node7"><a xlink:href="../../d1/d93/classefd_1_1DynprogQAllocator.xhtml" target="_top" xlink:title="Implementation of DepSolverQAllocator that uses dynamic programming to obtain an optimal solution...">
<polygon fill="none" stroke="#000000" points="840,-114.5 840,-133.5 971,-133.5 971,-114.5 840,-114.5"/>
<text text-anchor="middle" x="905.5" y="-121.5" font-family="Helvetica,sans-Serif" font-size="10.00" fill="#000000">efd::DynprogQAllocator</text>
</a>
</g>
</g>
<!-- Node5&#45;&gt;Node6 -->
<g id="edge7" class="edge">
<title>Node5&#45;&gt;Node6</title>
<path fill="none" stroke="#191970" d="M773.242,-78.8152C781.6829,-80.8789 790.094,-83.2617 798,-86 815.4678,-92.0502 817.7572,-98.3355 835,-105 844.3408,-108.6103 854.6303,-111.8018 864.3935,-114.4891"/>
<polygon fill="#191970" stroke="#191970" points="773.8783,-75.3701 763.3479,-76.5369 772.3075,-82.1916 773.8783,-75.3701"/>
</g>
<!-- Node7 -->
<g id="node8" class="node">
<title>Node7</title>
<g id="a_node8"><a xlink:href="../../d4/d23/classefd_1_1GreedyCktQAllocator.xhtml" target="_top" xlink:title="efd::GreedyCktQAllocator">
<polygon fill="none" stroke="#000000" points="835,-76.5 835,-95.5 976,-95.5 976,-76.5 835,-76.5"/>
<text text-anchor="middle" x="905.5" y="-83.5" font-family="Helvetica,sans-Serif" font-size="10.00" fill="#000000">efd::GreedyCktQAllocator</text>
</a>
</g>
</g>
<!-- Node5&#45;&gt;Node7 -->
<g id="edge8" class="edge">
<title>Node5&#45;&gt;Node7</title>
<path fill="none" stroke="#191970" d="M783.0478,-74.6508C800.1825,-76.2389 818.091,-77.8987 834.7567,-79.4433"/>
<polygon fill="#191970" stroke="#191970" points="783.3442,-71.1633 773.0638,-73.7254 782.6981,-78.1335 783.3442,-71.1633"/>
</g>
<!-- Node8 -->
<g id="node9" class="node">
<title>Node8</title>
<g id="a_node9"><a xlink:href="../../d3/d6c/classefd_1_1IBMQAllocator.xhtml" target="_top" xlink:title="Port of IBM&#39;s allocator. ">
<polygon fill="none" stroke="#000000" points="852,-38.5 852,-57.5 959,-57.5 959,-38.5 852,-38.5"/>
<text text-anchor="middle" x="905.5" y="-45.5" font-family="Helvetica,sans-Serif" font-size="10.00" fill="#000000">efd::IBMQAllocator</text>
</a>
</g>
</g>
<!-- Node5&#45;&gt;Node8 -->
<g id="edge9" class="edge">
<title>Node5&#45;&gt;Node8</title>
<path fill="none" stroke="#191970" d="M783.2094,-59.3343C806.3046,-57.1937 830.7934,-54.924 851.7417,-52.9825"/>
<polygon fill="#191970" stroke="#191970" points="782.6981,-55.8665 773.0638,-60.2746 783.3442,-62.8367 782.6981,-55.8665"/>
</g>
<!-- Node9 -->
<g id="node10" class="node">
<title>Node9</title>
<g id="a_node10"><a xlink:href="../../da/d39/classefd_1_1SimpleQAllocator.xhtml" target="_top" xlink:title="DependencySolver that allocates the logical qubits from an initial mapping. ">
<polygon fill="none" stroke="#000000" points="844,-.5 844,-19.5 967,-19.5 967,-.5 844,-.5"/>
<text text-anchor="middle" x="905.5" y="-7.5" font-family="Helvetica,sans-Serif" font-size="10.00" fill="#000000">efd::SimpleQAllocator</text>
</a>
</g>
</g>
<!-- Node5&#45;&gt;Node9 -->
<g id="edge10" class="edge">
<title>Node5&#45;&gt;Node9</title>
<path fill="none" stroke="#191970" d="M743.5963,-54.6809C769.9674,-47.1783 804.4077,-37.4436 835,-29 846.2418,-25.8972 858.5087,-22.5707 869.612,-19.582"/>
<polygon fill="#191970" stroke="#191970" points="742.5681,-51.3345 733.9092,-57.4397 744.4855,-58.0668 742.5681,-51.3345"/>
</g>
</g>
</svg>
