<?xml version="1.0" encoding="UTF-8" standalone="no"?>
<!DOCTYPE svg PUBLIC "-//W3C//DTD SVG 1.1//EN"
 "http://www.w3.org/Graphics/SVG/1.1/DTD/svg11.dtd">
<!-- Generated by graphviz version 2.38.0 (20140413.2041)
 -->
<!-- Title: efd::QbitAllocator::run Pages: 1 -->
<svg width="611pt" height="494pt"
 viewBox="0.00 0.00 611.00 493.50" xmlns="http://www.w3.org/2000/svg" xmlns:xlink="http://www.w3.org/1999/xlink">
<g id="graph0" class="graph" transform="scale(1 1) rotate(0) translate(4 489.5)">
<title>efd::QbitAllocator::run</title>
<!-- Node2 -->
<g id="node1" class="node"><title>Node2</title>
<polygon fill="#bfbfbf" stroke="black" points="0,-224.5 0,-243.5 112,-243.5 112,-224.5 0,-224.5"/>
<text text-anchor="middle" x="56" y="-231.5" font-family="Helvetica,sans-Serif" font-size="10.00">efd::QbitAllocator::run</text>
</g>
<!-- Node3 -->
<g id="node2" class="node"><title>Node3</title>
<g id="a_node2"><a xlink:href="../../de/d5a/classefd_1_1QbitAllocator.xhtml#a34312df8398c33f3f004d3fd7c838228" target="_top" xlink:title="Executes the allocation algorithm after the preprocessing. ">
<polygon fill="none" stroke="black" points="168.5,-455 168.5,-485 268.5,-485 268.5,-455 168.5,-455"/>
<text text-anchor="start" x="176.5" y="-473" font-family="Helvetica,sans-Serif" font-size="10.00">efd::QbitAllocator</text>
<text text-anchor="middle" x="218.5" y="-462" font-family="Helvetica,sans-Serif" font-size="10.00">::executeAllocation</text>
</a>
</g>
</g>
<!-- Node2&#45;&gt;Node3 -->
<g id="edge1" class="edge"><title>Node2&#45;&gt;Node3</title>
<path fill="none" stroke="midnightblue" d="M58.3721,-243.522C63.5949,-276.343 85.2129,-385.983 148,-445 151.349,-448.148 155.123,-450.904 159.136,-453.317"/>
<polygon fill="midnightblue" stroke="midnightblue" points="157.751,-456.542 168.235,-458.07 160.992,-450.338 157.751,-456.542"/>
</g>
<!-- Node4 -->
<g id="node3" class="node"><title>Node4</title>
<g id="a_node3"><a xlink:href="../../d1/df9/classefd_1_1PassCache.xhtml#a8c54d0a438f35de5629ae78c886687a8" target="_top" xlink:title="Gets a shared pointer to the pass T run in qmod. If it does not exist, it tries to run...">
<polygon fill="none" stroke="black" points="164,-416.5 164,-435.5 273,-435.5 273,-416.5 164,-416.5"/>
<text text-anchor="middle" x="218.5" y="-423.5" font-family="Helvetica,sans-Serif" font-size="10.00">efd::PassCache::Get</text>
</a>
</g>
</g>
<!-- Node2&#45;&gt;Node4 -->
<g id="edge2" class="edge"><title>Node2&#45;&gt;Node4</title>
<path fill="none" stroke="midnightblue" d="M59.1696,-243.582C66.3117,-272.871 91.9088,-361.946 148,-407 150.286,-408.836 152.735,-410.495 155.3,-411.994"/>
<polygon fill="midnightblue" stroke="midnightblue" points="153.876,-415.195 164.39,-416.5 156.985,-408.923 153.876,-415.195"/>
</g>
<!-- Node5 -->
<g id="node4" class="node"><title>Node5</title>
<g id="a_node4"><a xlink:href="../../db/d56/classefd_1_1PassT.xhtml#aae3442c1486bcec7622a64451262d684" target="_top" xlink:title="efd::PassT::getData">
<polygon fill="none" stroke="black" points="166,-378.5 166,-397.5 271,-397.5 271,-378.5 166,-378.5"/>
<text text-anchor="middle" x="218.5" y="-385.5" font-family="Helvetica,sans-Serif" font-size="10.00">efd::PassT::getData</text>
</a>
</g>
</g>
<!-- Node2&#45;&gt;Node5 -->
<g id="edge3" class="edge"><title>Node2&#45;&gt;Node5</title>
<path fill="none" stroke="midnightblue" d="M60.6437,-243.554C70.5943,-268.327 100.688,-335.061 148,-369 150.693,-370.932 153.574,-372.668 156.574,-374.227"/>
<polygon fill="midnightblue" stroke="midnightblue" points="155.309,-377.495 165.865,-378.396 158.174,-371.109 155.309,-377.495"/>
</g>
<!-- Node6 -->
<g id="node5" class="node"><title>Node6</title>
<g id="a_node5"><a xlink:href="../../d1/d76/structefd_1_1DependencyBuilder.xhtml#a7c4de988e4910f1ab11c137ed3f35049" target="_top" xlink:title="efd::DependencyBuilder\l::getDependencies">
<polygon fill="none" stroke="black" points="158,-329 158,-359 279,-359 279,-329 158,-329"/>
<text text-anchor="start" x="166" y="-347" font-family="Helvetica,sans-Serif" font-size="10.00">efd::DependencyBuilder</text>
<text text-anchor="middle" x="218.5" y="-336" font-family="Helvetica,sans-Serif" font-size="10.00">::getDependencies</text>
</a>
</g>
</g>
<!-- Node2&#45;&gt;Node6 -->
<g id="edge4" class="edge"><title>Node2&#45;&gt;Node6</title>
<path fill="none" stroke="midnightblue" d="M65.037,-243.767C79.7987,-261.139 112.946,-297.59 148,-319 151.351,-321.047 154.895,-322.962 158.538,-324.747"/>
<polygon fill="midnightblue" stroke="midnightblue" points="157.19,-327.979 167.743,-328.919 160.08,-321.603 157.19,-327.979"/>
</g>
<!-- Node9 -->
<g id="node8" class="node"><title>Node9</title>
<g id="a_node8"><a xlink:href="../../d4/d89/classefd_1_1Timer.xhtml#ac83f06f2145058ef3b3b6a53892ed39b" target="_top" xlink:title="Gets the number of microseconds stored in mDuration. ">
<polygon fill="none" stroke="black" points="148,-290.5 148,-309.5 289,-309.5 289,-290.5 148,-290.5"/>
<text text-anchor="middle" x="218.5" y="-297.5" font-family="Helvetica,sans-Serif" font-size="10.00">efd::Timer::getMicroseconds</text>
</a>
</g>
</g>
<!-- Node2&#45;&gt;Node9 -->
<g id="edge7" class="edge"><title>Node2&#45;&gt;Node9</title>
<path fill="none" stroke="midnightblue" d="M72.9591,-243.554C90.7635,-253.897 120.665,-270.341 148,-281 154.042,-283.356 160.487,-285.537 166.924,-287.517"/>
<polygon fill="midnightblue" stroke="midnightblue" points="166.394,-291.009 176.974,-290.46 168.361,-284.291 166.394,-291.009"/>
</g>
<!-- Node10 -->
<g id="node9" class="node"><title>Node10</title>
<g id="a_node9"><a xlink:href="../../db/d0c/structefd_1_1XbitToNumber.xhtml#ab395508705fe60ed3bd0cfb28eb5ffc6" target="_top" xlink:title="Returns the number of qbits in a given gate (if any). ">
<polygon fill="none" stroke="black" points="166,-241 166,-271 271,-271 271,-241 166,-241"/>
<text text-anchor="start" x="174" y="-259" font-family="Helvetica,sans-Serif" font-size="10.00">efd::XbitToNumber::</text>
<text text-anchor="middle" x="218.5" y="-248" font-family="Helvetica,sans-Serif" font-size="10.00">getQSize</text>
</a>
</g>
</g>
<!-- Node2&#45;&gt;Node10 -->
<g id="edge8" class="edge"><title>Node2&#45;&gt;Node10</title>
<path fill="none" stroke="midnightblue" d="M112.235,-241.571C126.245,-243.491 141.385,-245.567 155.697,-247.529"/>
<polygon fill="midnightblue" stroke="midnightblue" points="155.561,-251.043 165.944,-248.933 156.512,-244.107 155.561,-251.043"/>
</g>
<!-- Node12 -->
<g id="node11" class="node"><title>Node12</title>
<g id="a_node11"><a xlink:href="../../d6/d1d/classefd_1_1Stat.xhtml#a8618606575e5c9045c0ec670fbdadaab" target="_top" xlink:title="efd::Stat::operator=">
<polygon fill="none" stroke="black" points="168,-202.5 168,-221.5 269,-221.5 269,-202.5 168,-202.5"/>
<text text-anchor="middle" x="218.5" y="-209.5" font-family="Helvetica,sans-Serif" font-size="10.00">efd::Stat::operator=</text>
</a>
</g>
</g>
<!-- Node2&#45;&gt;Node12 -->
<g id="edge10" class="edge"><title>Node2&#45;&gt;Node12</title>
<path fill="none" stroke="midnightblue" d="M112.235,-226.429C126.896,-224.419 142.796,-222.24 157.689,-220.198"/>
<polygon fill="midnightblue" stroke="midnightblue" points="158.379,-223.637 167.811,-218.811 157.428,-216.702 158.379,-223.637"/>
</g>
<!-- Node13 -->
<g id="node12" class="node"><title>Node13</title>
<g id="a_node12"><a xlink:href="../../d1/df9/classefd_1_1PassCache.xhtml#a22f92cfd25891762477252a6cbcc4906" target="_top" xlink:title="Wrapper that runs a created pass. ">
<polygon fill="none" stroke="black" points="163,-164.5 163,-183.5 274,-183.5 274,-164.5 163,-164.5"/>
<text text-anchor="middle" x="218.5" y="-171.5" font-family="Helvetica,sans-Serif" font-size="10.00">efd::PassCache::Run</text>
</a>
</g>
</g>
<!-- Node2&#45;&gt;Node13 -->
<g id="edge11" class="edge"><title>Node2&#45;&gt;Node13</title>
<path fill="none" stroke="midnightblue" d="M75.8156,-224.477C93.9727,-215.539 122.399,-202.203 148,-193 154.485,-190.669 161.398,-188.461 168.254,-186.431"/>
<polygon fill="midnightblue" stroke="midnightblue" points="169.546,-189.702 178.202,-183.592 167.625,-182.971 169.546,-189.702"/>
</g>
<!-- Node14 -->
<g id="node13" class="node"><title>Node14</title>
<g id="a_node13"><a xlink:href="../../db/db3/classefd_1_1Graph.xhtml#aa85ea20ad74d6a7df7a52c13a9fabe2d" target="_top" xlink:title="Return the number of vertices. ">
<polygon fill="none" stroke="black" points="175.5,-126.5 175.5,-145.5 261.5,-145.5 261.5,-126.5 175.5,-126.5"/>
<text text-anchor="middle" x="218.5" y="-133.5" font-family="Helvetica,sans-Serif" font-size="10.00">efd::Graph::size</text>
</a>
</g>
</g>
<!-- Node2&#45;&gt;Node14 -->
<g id="edge12" class="edge"><title>Node2&#45;&gt;Node14</title>
<path fill="none" stroke="midnightblue" d="M65.271,-224.429C80.1463,-207.817 113.128,-173.64 148,-155 153.502,-152.059 159.498,-149.543 165.587,-147.397"/>
<polygon fill="midnightblue" stroke="midnightblue" points="166.72,-150.71 175.174,-144.324 164.583,-144.044 166.72,-150.71"/>
</g>
<!-- Node15 -->
<g id="node14" class="node"><title>Node15</title>
<g id="a_node14"><a xlink:href="../../d4/dd6/classefd_1_1SolutionImplPass.xhtml#a7841dcb9503f9aa95ac1f3d26bf7697a" target="_top" xlink:title="efd::SolutionImplPass\l::SolutionImplPass">
<polygon fill="none" stroke="black" points="162,-77 162,-107 275,-107 275,-77 162,-77"/>
<text text-anchor="start" x="170" y="-95" font-family="Helvetica,sans-Serif" font-size="10.00">efd::SolutionImplPass</text>
<text text-anchor="middle" x="218.5" y="-84" font-family="Helvetica,sans-Serif" font-size="10.00">::SolutionImplPass</text>
</a>
</g>
</g>
<!-- Node2&#45;&gt;Node15 -->
<g id="edge13" class="edge"><title>Node2&#45;&gt;Node15</title>
<path fill="none" stroke="midnightblue" d="M61.9985,-224.324C73.9105,-202.176 106.131,-147.369 148,-117 150.647,-115.08 153.456,-113.295 156.369,-111.636"/>
<polygon fill="midnightblue" stroke="midnightblue" points="158.054,-114.705 165.36,-107.032 154.864,-108.475 158.054,-114.705"/>
</g>
<!-- Node16 -->
<g id="node15" class="node"><title>Node16</title>
<g id="a_node15"><a xlink:href="../../d4/d89/classefd_1_1Timer.xhtml#a04b2df0f873780111173bc5e2a1810aa" target="_top" xlink:title="Starts the timer. ">
<polygon fill="none" stroke="black" points="175.5,-38.5 175.5,-57.5 261.5,-57.5 261.5,-38.5 175.5,-38.5"/>
<text text-anchor="middle" x="218.5" y="-45.5" font-family="Helvetica,sans-Serif" font-size="10.00">efd::Timer::start</text>
</a>
</g>
</g>
<!-- Node2&#45;&gt;Node16 -->
<g id="edge14" class="edge"><title>Node2&#45;&gt;Node16</title>
<path fill="none" stroke="midnightblue" d="M59.4274,-224.431C67.1435,-196 93.8506,-111.322 148,-68 153.27,-63.784 159.39,-60.4567 165.772,-57.8308"/>
<polygon fill="midnightblue" stroke="midnightblue" points="166.992,-61.112 175.241,-54.4636 164.646,-54.5166 166.992,-61.112"/>
</g>
<!-- Node17 -->
<g id="node16" class="node"><title>Node17</title>
<g id="a_node16"><a xlink:href="../../d4/d89/classefd_1_1Timer.xhtml#a0b9a3de677363a5d3f995ac03a3d0a5e" target="_top" xlink:title="Stops the timer. ">
<polygon fill="none" stroke="black" points="175.5,-0.5 175.5,-19.5 261.5,-19.5 261.5,-0.5 175.5,-0.5"/>
<text text-anchor="middle" x="218.5" y="-7.5" font-family="Helvetica,sans-Serif" font-size="10.00">efd::Timer::stop</text>
</a>
</g>
</g>
<!-- Node2&#45;&gt;Node17 -->
<g id="edge15" class="edge"><title>Node2&#45;&gt;Node17</title>
<path fill="none" stroke="midnightblue" d="M58.369,-224.108C63.4768,-191.073 84.5073,-83.5675 148,-29 153.163,-24.5629 159.271,-21.1537 165.69,-18.5359"/>
<polygon fill="midnightblue" stroke="midnightblue" points="166.932,-21.8101 175.243,-15.2391 164.648,-15.193 166.932,-21.8101"/>
</g>
<!-- Node7 -->
<g id="node6" class="node"><title>Node7</title>
<g id="a_node6"><a xlink:href="../../d1/d76/structefd_1_1DependencyBuilder.xhtml#ad18a762f3acc821e6e05541cc3670a73" target="_top" xlink:title="efd::DependencyBuilder\l::getDepsSet">
<polygon fill="none" stroke="black" points="325,-329 325,-359 446,-359 446,-329 325,-329"/>
<text text-anchor="start" x="333" y="-347" font-family="Helvetica,sans-Serif" font-size="10.00">efd::DependencyBuilder</text>
<text text-anchor="middle" x="385.5" y="-336" font-family="Helvetica,sans-Serif" font-size="10.00">::getDepsSet</text>
</a>
</g>
</g>
<!-- Node6&#45;&gt;Node7 -->
<g id="edge5" class="edge"><title>Node6&#45;&gt;Node7</title>
<path fill="none" stroke="midnightblue" d="M279.069,-344C290.563,-344 302.703,-344 314.494,-344"/>
<polygon fill="midnightblue" stroke="midnightblue" points="314.742,-347.5 324.742,-344 314.742,-340.5 314.742,-347.5"/>
</g>
<!-- Node8 -->
<g id="node7" class="node"><title>Node8</title>
<g id="a_node7"><a xlink:href="../../d1/d76/structefd_1_1DependencyBuilder.xhtml#a39689f940b3544a042ff0f1968068d53" target="_top" xlink:title="Gets the DepsSet corresponding to the current quantum gate, or the global (if current gate is null)...">
<polygon fill="none" stroke="black" points="482,-329 482,-359 603,-359 603,-329 482,-329"/>
<text text-anchor="start" x="490" y="-347" font-family="Helvetica,sans-Serif" font-size="10.00">efd::DependencyBuilder</text>
<text text-anchor="middle" x="542.5" y="-336" font-family="Helvetica,sans-Serif" font-size="10.00">::getDepsSet</text>
</a>
</g>
</g>
<!-- Node7&#45;&gt;Node8 -->
<g id="edge6" class="edge"><title>Node7&#45;&gt;Node8</title>
<path fill="none" stroke="midnightblue" d="M446.427,-344C454.724,-344 463.305,-344 471.762,-344"/>
<polygon fill="midnightblue" stroke="midnightblue" points="471.988,-347.5 481.988,-344 471.988,-340.5 471.988,-347.5"/>
</g>
<!-- Node11 -->
<g id="node10" class="node"><title>Node11</title>
<g id="a_node10"><a xlink:href="../../db/d0c/structefd_1_1XbitToNumber.xhtml#a7d9474b325920d98f5832d5f1923ba2b" target="_top" xlink:title="Gets a constant reference to the mapping of qubtis of a gate. ">
<polygon fill="none" stroke="black" points="333,-241 333,-271 438,-271 438,-241 333,-241"/>
<text text-anchor="start" x="341" y="-259" font-family="Helvetica,sans-Serif" font-size="10.00">efd::XbitToNumber::</text>
<text text-anchor="middle" x="385.5" y="-248" font-family="Helvetica,sans-Serif" font-size="10.00">getQbitMap</text>
</a>
</g>
</g>
<!-- Node10&#45;&gt;Node11 -->
<g id="edge9" class="edge"><title>Node10&#45;&gt;Node11</title>
<path fill="none" stroke="midnightblue" d="M271.254,-256C287.534,-256 305.677,-256 322.587,-256"/>
<polygon fill="midnightblue" stroke="midnightblue" points="322.929,-259.5 332.929,-256 322.929,-252.5 322.929,-259.5"/>
</g>
</g>
</svg>
