<?xml version="1.0" encoding="UTF-8" standalone="no"?>
<!DOCTYPE svg PUBLIC "-//W3C//DTD SVG 1.1//EN"
 "http://www.w3.org/Graphics/SVG/1.1/DTD/svg11.dtd">
<!-- Generated by graphviz version 2.40.1 (20161225.0304)
 -->
<!-- Title: include/enfield/Support/BitOptions.h Pages: 1 -->
<!--zoomable 251 -->
<svg id="main" version="1.1" xmlns="http://www.w3.org/2000/svg" xmlns:xlink="http://www.w3.org/1999/xlink" xml:space="preserve" onload="init(evt)">
<style type="text/css"><![CDATA[
.edge:hover path { stroke: red; }
.edge:hover polygon { stroke: red; fill: red; }
]]></style>
<script type="text/javascript"><![CDATA[
var edges = document.getElementsByTagName('g');
if (edges && edges.length) {
  for (var i=0;i<edges.length;i++) {
    if (edges[i].id.substr(0,4)=='edge') {
      edges[i].setAttribute('class','edge');
    }
  }
}
]]></script>
        <defs>
                <circle id="rim" cx="0" cy="0" r="7"/>
                <circle id="rim2" cx="0" cy="0" r="3.5"/>
                <g id="zoomPlus">
                        <use xlink:href="#rim" fill="#404040">
                                <set attributeName="fill" to="#808080" begin="zoomplus.mouseover" end="zoomplus.mouseout"/>
                        </use>
                        <path d="M-4,0h8M0,-4v8" fill="none" stroke="white" stroke-width="1.5" pointer-events="none"/>
                </g>
                <g id="zoomMin">
                        <use xlink:href="#rim" fill="#404040">
                                <set attributeName="fill" to="#808080" begin="zoomminus.mouseover" end="zoomminus.mouseout"/>
                        </use>
                        <path d="M-4,0h8" fill="none" stroke="white" stroke-width="1.5" pointer-events="none"/>
                </g>
                <g id="dirArrow">
                        <path fill="none" stroke="white" stroke-width="1.5" d="M0,-3.0v7 M-2.5,-0.5L0,-3.0L2.5,-0.5"/>
                </g>
               <g id="resetDef">
                       <use xlink:href="#rim2" fill="#404040">
                               <set attributeName="fill" to="#808080" begin="reset.mouseover" end="reset.mouseout"/>
                       </use>
               </g>
        </defs>

<script type="text/javascript">
var viewWidth = 1441;
var viewHeight = 251;
var sectionId = 'dynsection-1';
</script>
<script xlink:href="../../svgpan.js"/>
<svg id="graph" class="graph">
<g id="viewport">
<title>include/enfield/Support/BitOptions.h</title>
<!-- Node7 -->
<g id="node1" class="node">
<title>Node7</title>
<polygon fill="#bfbfbf" stroke="#000000" points="707,-212.5 707,-242.5 836,-242.5 836,-212.5 707,-212.5"/>
<text text-anchor="start" x="715" y="-230.5" font-family="Helvetica,sans-Serif" font-size="10.00" fill="#000000">include/enfield/Support</text>
<text text-anchor="middle" x="771.5" y="-219.5" font-family="Helvetica,sans-Serif" font-size="10.00" fill="#000000">/BitOptions.h</text>
</g>
<!-- Node8 -->
<g id="node2" class="node">
<title>Node8</title>
<g id="a_node2"><a xlink:href="../../d1/d5d/SimpleQAllocator_8h.xhtml" target="_top" xlink:title="include/enfield/Transform\l/Allocators/SimpleQAllocator.h">
<polygon fill="none" stroke="#000000" points="689,-145.5 689,-175.5 854,-175.5 854,-145.5 689,-145.5"/>
<text text-anchor="start" x="697" y="-163.5" font-family="Helvetica,sans-Serif" font-size="10.00" fill="#000000">include/enfield/Transform</text>
<text text-anchor="middle" x="771.5" y="-152.5" font-family="Helvetica,sans-Serif" font-size="10.00" fill="#000000">/Allocators/SimpleQAllocator.h</text>
</a>
</g>
</g>
<!-- Node7&#45;&gt;Node8 -->
<g id="edge1" class="edge">
<title>Node7&#45;&gt;Node8</title>
<path fill="none" stroke="#191970" d="M771.5,-202.0249C771.5,-193.128 771.5,-183.4287 771.5,-175.6432"/>
<polygon fill="#191970" stroke="#191970" points="768.0001,-202.2966 771.5,-212.2967 775.0001,-202.2967 768.0001,-202.2966"/>
</g>
<!-- Node9 -->
<g id="node3" class="node">
<title>Node9</title>
<g id="a_node3"><a xlink:href="../../dc/dea/Allocators_8cpp.xhtml" target="_top" xlink:title="lib/Transform/Allocators\l/Allocators.cpp">
<polygon fill="none" stroke="#000000" points="588.5,-.5 588.5,-30.5 722.5,-30.5 722.5,-.5 588.5,-.5"/>
<text text-anchor="start" x="596.5" y="-18.5" font-family="Helvetica,sans-Serif" font-size="10.00" fill="#000000">lib/Transform/Allocators</text>
<text text-anchor="middle" x="655.5" y="-7.5" font-family="Helvetica,sans-Serif" font-size="10.00" fill="#000000">/Allocators.cpp</text>
</a>
</g>
</g>
<!-- Node8&#45;&gt;Node9 -->
<g id="edge2" class="edge">
<title>Node8&#45;&gt;Node9</title>
<path fill="none" stroke="#191970" d="M709.3307,-141.2576C693.767,-133.5881 678.6365,-123.1193 668.5,-109 651.7739,-85.7019 651.8406,-50.5641 653.5573,-30.6609"/>
<polygon fill="#191970" stroke="#191970" points="707.9602,-144.4794 718.5099,-145.4562 710.8719,-138.1137 707.9602,-144.4794"/>
</g>
<!-- Node10 -->
<g id="node4" class="node">
<title>Node10</title>
<g id="a_node4"><a xlink:href="../../d3/d1b/WeightedSIMappingFinder_8h.xhtml" target="_top" xlink:title="include/enfield/Transform\l/Allocators/Simple/WeightedSIMapping\lFinder.h">
<polygon fill="none" stroke="#000000" points="202,-67.5 202,-108.5 407,-108.5 407,-67.5 202,-67.5"/>
<text text-anchor="start" x="210" y="-96.5" font-family="Helvetica,sans-Serif" font-size="10.00" fill="#000000">include/enfield/Transform</text>
<text text-anchor="start" x="210" y="-85.5" font-family="Helvetica,sans-Serif" font-size="10.00" fill="#000000">/Allocators/Simple/WeightedSIMapping</text>
<text text-anchor="middle" x="304.5" y="-74.5" font-family="Helvetica,sans-Serif" font-size="10.00" fill="#000000">Finder.h</text>
</a>
</g>
</g>
<!-- Node8&#45;&gt;Node10 -->
<g id="edge3" class="edge">
<title>Node8&#45;&gt;Node10</title>
<path fill="none" stroke="#191970" d="M678.7187,-147.5713C608.3276,-137.5778 509.2145,-123.1109 422.5,-109 417.4682,-108.1812 412.3188,-107.3268 407.1203,-106.451"/>
<polygon fill="#191970" stroke="#191970" points="678.4988,-151.0751 688.8909,-149.0128 679.4809,-144.1443 678.4988,-151.0751"/>
</g>
<!-- Node13 -->
<g id="node7" class="node">
<title>Node13</title>
<g id="a_node7"><a xlink:href="../../da/d43/RandomMappingFinder_8h.xhtml" target="_top" xlink:title="include/enfield/Transform\l/Allocators/Simple/RandomMapping\lFinder.h">
<polygon fill="none" stroke="#000000" points="431.5,-67.5 431.5,-108.5 621.5,-108.5 621.5,-67.5 431.5,-67.5"/>
<text text-anchor="start" x="439.5" y="-96.5" font-family="Helvetica,sans-Serif" font-size="10.00" fill="#000000">include/enfield/Transform</text>
<text text-anchor="start" x="439.5" y="-85.5" font-family="Helvetica,sans-Serif" font-size="10.00" fill="#000000">/Allocators/Simple/RandomMapping</text>
<text text-anchor="middle" x="526.5" y="-74.5" font-family="Helvetica,sans-Serif" font-size="10.00" fill="#000000">Finder.h</text>
</a>
</g>
</g>
<!-- Node8&#45;&gt;Node13 -->
<g id="edge7" class="edge">
<title>Node8&#45;&gt;Node13</title>
<path fill="none" stroke="#191970" d="M711.1418,-142.6389C676.2146,-132.3033 632.1199,-119.2549 595.781,-108.5015"/>
<polygon fill="#191970" stroke="#191970" points="710.1537,-145.9965 720.7358,-145.478 712.14,-139.2842 710.1537,-145.9965"/>
</g>
<!-- Node15 -->
<g id="node9" class="node">
<title>Node15</title>
<g id="a_node9"><a xlink:href="../../da/d8b/IdentityMappingFinder_8h.xhtml" target="_top" xlink:title="include/enfield/Transform\l/Allocators/Simple/IdentityMapping\lFinder.h">
<polygon fill="none" stroke="#000000" points="678,-67.5 678,-108.5 865,-108.5 865,-67.5 678,-67.5"/>
<text text-anchor="start" x="686" y="-96.5" font-family="Helvetica,sans-Serif" font-size="10.00" fill="#000000">include/enfield/Transform</text>
<text text-anchor="start" x="686" y="-85.5" font-family="Helvetica,sans-Serif" font-size="10.00" fill="#000000">/Allocators/Simple/IdentityMapping</text>
<text text-anchor="middle" x="771.5" y="-74.5" font-family="Helvetica,sans-Serif" font-size="10.00" fill="#000000">Finder.h</text>
</a>
</g>
</g>
<!-- Node8&#45;&gt;Node15 -->
<g id="edge10" class="edge">
<title>Node8&#45;&gt;Node15</title>
<path fill="none" stroke="#191970" d="M771.5,-135.4016C771.5,-126.6173 771.5,-116.8652 771.5,-108.5015"/>
<polygon fill="#191970" stroke="#191970" points="768.0001,-135.4779 771.5,-145.478 775.0001,-135.478 768.0001,-135.4779"/>
</g>
<!-- Node17 -->
<g id="node11" class="node">
<title>Node17</title>
<g id="a_node11"><a xlink:href="../../dd/de8/PathGuidedSolBuilder_8h.xhtml" target="_top" xlink:title="include/enfield/Transform\l/Allocators/Simple/PathGuidedSol\lBuilder.h">
<polygon fill="none" stroke="#000000" points="883,-67.5 883,-108.5 1062,-108.5 1062,-67.5 883,-67.5"/>
<text text-anchor="start" x="891" y="-96.5" font-family="Helvetica,sans-Serif" font-size="10.00" fill="#000000">include/enfield/Transform</text>
<text text-anchor="start" x="891" y="-85.5" font-family="Helvetica,sans-Serif" font-size="10.00" fill="#000000">/Allocators/Simple/PathGuidedSol</text>
<text text-anchor="middle" x="972.5" y="-74.5" font-family="Helvetica,sans-Serif" font-size="10.00" fill="#000000">Builder.h</text>
</a>
</g>
</g>
<!-- Node8&#45;&gt;Node17 -->
<g id="edge13" class="edge">
<title>Node8&#45;&gt;Node17</title>
<path fill="none" stroke="#191970" d="M822.8654,-141.9727C851.216,-131.7467 886.4856,-119.0251 915.6613,-108.5015"/>
<polygon fill="#191970" stroke="#191970" points="821.3665,-138.7925 813.1473,-145.478 823.7417,-145.3773 821.3665,-138.7925"/>
</g>
<!-- Node19 -->
<g id="node13" class="node">
<title>Node19</title>
<g id="a_node13"><a xlink:href="../../de/d8c/QbitterSolBuilder_8h.xhtml" target="_top" xlink:title="include/enfield/Transform\l/Allocators/Simple/QbitterSolBuilder.h">
<polygon fill="none" stroke="#000000" points="1080.5,-73 1080.5,-103 1280.5,-103 1280.5,-73 1080.5,-73"/>
<text text-anchor="start" x="1088.5" y="-91" font-family="Helvetica,sans-Serif" font-size="10.00" fill="#000000">include/enfield/Transform</text>
<text text-anchor="middle" x="1180.5" y="-80" font-family="Helvetica,sans-Serif" font-size="10.00" fill="#000000">/Allocators/Simple/QbitterSolBuilder.h</text>
</a>
</g>
</g>
<!-- Node8&#45;&gt;Node19 -->
<g id="edge16" class="edge">
<title>Node8&#45;&gt;Node19</title>
<path fill="none" stroke="#191970" d="M864.1267,-145.0985C923.4622,-135.1091 1002.0804,-121.6444 1071.5,-109 1081.833,-107.1179 1092.7066,-105.0854 1103.4222,-103.0518"/>
<polygon fill="#191970" stroke="#191970" points="863.3091,-141.6868 854.0279,-146.7965 864.4698,-148.5899 863.3091,-141.6868"/>
</g>
<!-- Node21 -->
<g id="node15" class="node">
<title>Node21</title>
<g id="a_node15"><a xlink:href="../../d2/d79/SimpleQAllocator_8cpp.xhtml" target="_top" xlink:title="lib/Transform/Allocators\l/SimpleQAllocator.cpp">
<polygon fill="none" stroke="#000000" points="1298.5,-73 1298.5,-103 1432.5,-103 1432.5,-73 1298.5,-73"/>
<text text-anchor="start" x="1306.5" y="-91" font-family="Helvetica,sans-Serif" font-size="10.00" fill="#000000">lib/Transform/Allocators</text>
<text text-anchor="middle" x="1365.5" y="-80" font-family="Helvetica,sans-Serif" font-size="10.00" fill="#000000">/SimpleQAllocator.cpp</text>
</a>
</g>
</g>
<!-- Node8&#45;&gt;Node21 -->
<g id="edge19" class="edge">
<title>Node8&#45;&gt;Node21</title>
<path fill="none" stroke="#191970" d="M864.3753,-156.0465C968.5633,-149.9456 1142.2599,-136.4542 1289.5,-109 1298.1124,-107.3941 1307.1687,-105.2787 1315.9085,-103.0088"/>
<polygon fill="#191970" stroke="#191970" points="863.9843,-152.5631 854.2018,-156.6317 864.3863,-159.5516 863.9843,-152.5631"/>
</g>
<!-- Node10&#45;&gt;Node9 -->
<g id="edge4" class="edge">
<title>Node10&#45;&gt;Node9</title>
<path fill="none" stroke="#191970" d="M413.9412,-65.3946C471.059,-53.5968 539.1072,-39.5412 588.401,-29.3595"/>
<polygon fill="#191970" stroke="#191970" points="413.2289,-61.9678 404.1436,-67.4183 414.6449,-68.8231 413.2289,-61.9678"/>
</g>
<!-- Node11 -->
<g id="node5" class="node">
<title>Node11</title>
<g id="a_node5"><a xlink:href="../../d4/dd0/GreedyCktQAllocator_8cpp.xhtml" target="_top" xlink:title="lib/Transform/Allocators\l/GreedyCktQAllocator.cpp">
<polygon fill="none" stroke="#000000" points="221,-.5 221,-30.5 364,-30.5 364,-.5 221,-.5"/>
<text text-anchor="start" x="229" y="-18.5" font-family="Helvetica,sans-Serif" font-size="10.00" fill="#000000">lib/Transform/Allocators</text>
<text text-anchor="middle" x="292.5" y="-7.5" font-family="Helvetica,sans-Serif" font-size="10.00" fill="#000000">/GreedyCktQAllocator.cpp</text>
</a>
</g>
</g>
<!-- Node10&#45;&gt;Node11 -->
<g id="edge5" class="edge">
<title>Node10&#45;&gt;Node11</title>
<path fill="none" stroke="#191970" d="M299.4232,-57.3279C297.8937,-48.0871 296.2822,-38.3508 294.9992,-30.5991"/>
<polygon fill="#191970" stroke="#191970" points="296.0073,-58.1241 301.0934,-67.4183 302.9134,-56.981 296.0073,-58.1241"/>
</g>
<!-- Node12 -->
<g id="node6" class="node">
<title>Node12</title>
<g id="a_node6"><a xlink:href="../../d9/ddd/WeightedSIMappingFinder_8cpp.xhtml" target="_top" xlink:title="lib/Transform/Allocators\l/Simple/WeightedSIMappingFinder.cpp">
<polygon fill="none" stroke="#000000" points="0,-.5 0,-30.5 203,-30.5 203,-.5 0,-.5"/>
<text text-anchor="start" x="8" y="-18.5" font-family="Helvetica,sans-Serif" font-size="10.00" fill="#000000">lib/Transform/Allocators</text>
<text text-anchor="middle" x="101.5" y="-7.5" font-family="Helvetica,sans-Serif" font-size="10.00" fill="#000000">/Simple/WeightedSIMappingFinder.cpp</text>
</a>
</g>
</g>
<!-- Node10&#45;&gt;Node12 -->
<g id="edge6" class="edge">
<title>Node10&#45;&gt;Node12</title>
<path fill="none" stroke="#191970" d="M237.0558,-63.9128C206.2601,-52.9143 170.7334,-40.2262 143.7775,-30.5991"/>
<polygon fill="#191970" stroke="#191970" points="236.2767,-67.351 246.8713,-67.4183 238.6311,-60.7588 236.2767,-67.351"/>
</g>
<!-- Node13&#45;&gt;Node9 -->
<g id="edge8" class="edge">
<title>Node13&#45;&gt;Node9</title>
<path fill="none" stroke="#191970" d="M571.9163,-62.4753C590.8727,-51.8215 612.2459,-39.8095 628.634,-30.5991"/>
<polygon fill="#191970" stroke="#191970" points="570.1239,-59.4677 563.1212,-67.4183 573.5535,-65.57 570.1239,-59.4677"/>
</g>
<!-- Node14 -->
<g id="node8" class="node">
<title>Node14</title>
<g id="a_node8"><a xlink:href="../../d2/dd0/RandomMappingFinder_8cpp.xhtml" target="_top" xlink:title="lib/Transform/Allocators\l/Simple/RandomMappingFinder.cpp">
<polygon fill="none" stroke="#000000" points="382.5,-.5 382.5,-30.5 570.5,-30.5 570.5,-.5 382.5,-.5"/>
<text text-anchor="start" x="390.5" y="-18.5" font-family="Helvetica,sans-Serif" font-size="10.00" fill="#000000">lib/Transform/Allocators</text>
<text text-anchor="middle" x="476.5" y="-7.5" font-family="Helvetica,sans-Serif" font-size="10.00" fill="#000000">/Simple/RandomMappingFinder.cpp</text>
</a>
</g>
</g>
<!-- Node13&#45;&gt;Node14 -->
<g id="edge9" class="edge">
<title>Node13&#45;&gt;Node14</title>
<path fill="none" stroke="#191970" d="M506.5756,-59.1096C499.8459,-49.3516 492.6041,-38.8509 486.9132,-30.5991"/>
<polygon fill="#191970" stroke="#191970" points="503.7471,-61.1733 512.3057,-67.4183 509.5096,-57.1991 503.7471,-61.1733"/>
</g>
<!-- Node15&#45;&gt;Node9 -->
<g id="edge11" class="edge">
<title>Node15&#45;&gt;Node9</title>
<path fill="none" stroke="#191970" d="M729.9651,-62.0407C713.0935,-51.4959 694.1951,-39.6844 679.6586,-30.5991"/>
<polygon fill="#191970" stroke="#191970" points="728.2343,-65.0863 738.5693,-67.4183 731.9444,-59.1503 728.2343,-65.0863"/>
</g>
<!-- Node16 -->
<g id="node10" class="node">
<title>Node16</title>
<g id="a_node10"><a xlink:href="../../d8/dcc/IdentityMappingFinder_8cpp.xhtml" target="_top" xlink:title="lib/Transform/Allocators\l/Simple/IdentityMappingFinder.cpp">
<polygon fill="none" stroke="#000000" points="741,-.5 741,-30.5 926,-30.5 926,-.5 741,-.5"/>
<text text-anchor="start" x="749" y="-18.5" font-family="Helvetica,sans-Serif" font-size="10.00" fill="#000000">lib/Transform/Allocators</text>
<text text-anchor="middle" x="833.5" y="-7.5" font-family="Helvetica,sans-Serif" font-size="10.00" fill="#000000">/Simple/IdentityMappingFinder.cpp</text>
</a>
</g>
</g>
<!-- Node15&#45;&gt;Node16 -->
<g id="edge12" class="edge">
<title>Node15&#45;&gt;Node16</title>
<path fill="none" stroke="#191970" d="M795.7014,-59.7C804.1874,-49.7768 813.3884,-39.0176 820.5877,-30.5991"/>
<polygon fill="#191970" stroke="#191970" points="792.9402,-57.5436 789.1009,-67.4183 798.2602,-62.0931 792.9402,-57.5436"/>
</g>
<!-- Node17&#45;&gt;Node9 -->
<g id="edge14" class="edge">
<title>Node17&#45;&gt;Node9</title>
<path fill="none" stroke="#191970" d="M873.1512,-65.2783C823.6142,-53.9488 765.0776,-40.5611 721.1939,-30.5246"/>
<polygon fill="#191970" stroke="#191970" points="872.403,-68.6974 882.9316,-67.5151 873.9637,-61.8736 872.403,-68.6974"/>
</g>
<!-- Node18 -->
<g id="node12" class="node">
<title>Node18</title>
<g id="a_node12"><a xlink:href="../../d3/d84/PathGuidedSolBuilder_8cpp.xhtml" target="_top" xlink:title="lib/Transform/Allocators\l/Simple/PathGuidedSolBuilder.cpp">
<polygon fill="none" stroke="#000000" points="944.5,-.5 944.5,-30.5 1126.5,-30.5 1126.5,-.5 944.5,-.5"/>
<text text-anchor="start" x="952.5" y="-18.5" font-family="Helvetica,sans-Serif" font-size="10.00" fill="#000000">lib/Transform/Allocators</text>
<text text-anchor="middle" x="1035.5" y="-7.5" font-family="Helvetica,sans-Serif" font-size="10.00" fill="#000000">/Simple/PathGuidedSolBuilder.cpp</text>
</a>
</g>
</g>
<!-- Node17&#45;&gt;Node18 -->
<g id="edge15" class="edge">
<title>Node17&#45;&gt;Node18</title>
<path fill="none" stroke="#191970" d="M997.0917,-59.7C1005.7146,-49.7768 1015.064,-39.0176 1022.3794,-30.5991"/>
<polygon fill="#191970" stroke="#191970" points="994.3021,-57.5743 990.3848,-67.4183 999.5859,-62.1658 994.3021,-57.5743"/>
</g>
<!-- Node19&#45;&gt;Node9 -->
<g id="edge17" class="edge">
<title>Node19&#45;&gt;Node9</title>
<path fill="none" stroke="#191970" d="M1097.0023,-71.1651C1088.4064,-69.6563 1079.7886,-68.235 1071.5,-67 921.2033,-44.6062 881.6729,-54.2095 731.5,-31 728.5722,-30.5475 725.5864,-30.0583 722.5741,-29.5421"/>
<polygon fill="#191970" stroke="#191970" points="1096.6011,-74.6489 1107.0621,-72.9704 1097.8376,-67.759 1096.6011,-74.6489"/>
</g>
<!-- Node20 -->
<g id="node14" class="node">
<title>Node20</title>
<g id="a_node14"><a xlink:href="../../db/de4/QbitterSolBuilder_8cpp.xhtml" target="_top" xlink:title="lib/Transform/Allocators\l/Simple/QbitterSolBuilder.cpp">
<polygon fill="none" stroke="#000000" points="1144.5,-.5 1144.5,-30.5 1304.5,-30.5 1304.5,-.5 1144.5,-.5"/>
<text text-anchor="start" x="1152.5" y="-18.5" font-family="Helvetica,sans-Serif" font-size="10.00" fill="#000000">lib/Transform/Allocators</text>
<text text-anchor="middle" x="1224.5" y="-7.5" font-family="Helvetica,sans-Serif" font-size="10.00" fill="#000000">/Simple/QbitterSolBuilder.cpp</text>
</a>
</g>
</g>
<!-- Node19&#45;&gt;Node20 -->
<g id="edge18" class="edge">
<title>Node19&#45;&gt;Node20</title>
<path fill="none" stroke="#191970" d="M1194.9559,-64.1807C1201.6903,-53.0842 1209.4978,-40.2196 1215.3949,-30.5028"/>
<polygon fill="#191970" stroke="#191970" points="1191.813,-62.6132 1189.6168,-72.978 1197.7972,-66.245 1191.813,-62.6132"/>
</g>
</g>
</svg>
        <g id="navigator" transform="translate(0 0)" fill="#404254">
                <rect fill="#f2f5e9" fill-opacity="0.5" stroke="#606060" stroke-width=".5" x="0" y="0" width="60" height="60"/>
                <use id="zoomplus" xlink:href="#zoomPlus" x="17" y="9" onmousedown="handleZoom(evt,'in')"/>
                <use id="zoomminus" xlink:href="#zoomMin" x="42" y="9" onmousedown="handleZoom(evt,'out')"/>
                <use id="reset" xlink:href="#resetDef" x="30" y="36" onmousedown="handleReset()"/>
                <g id="arrowUp" xlink:href="#dirArrow" transform="translate(30 24)" onmousedown="handlePan(0,-1)">
                  <use xlink:href="#rim" fill="#404040">
                        <set attributeName="fill" to="#808080" begin="arrowUp.mouseover" end="arrowUp.mouseout"/>
                  </use>
                  <path fill="none" stroke="white" stroke-width="1.5" d="M0,-3.0v7 M-2.5,-0.5L0,-3.0L2.5,-0.5"/>
                </g>
                <g id="arrowRight" xlink:href="#dirArrow" transform="rotate(90) translate(36 -43)" onmousedown="handlePan(1,0)">
                  <use xlink:href="#rim" fill="#404040">
                        <set attributeName="fill" to="#808080" begin="arrowRight.mouseover" end="arrowRight.mouseout"/>
                  </use>
                  <path fill="none" stroke="white" stroke-width="1.5" d="M0,-3.0v7 M-2.5,-0.5L0,-3.0L2.5,-0.5"/>
                </g>
                <g id="arrowDown" xlink:href="#dirArrow" transform="rotate(180) translate(-30 -48)" onmousedown="handlePan(0,1)">
                  <use xlink:href="#rim" fill="#404040">
                        <set attributeName="fill" to="#808080" begin="arrowDown.mouseover" end="arrowDown.mouseout"/>
                  </use>
                  <path fill="none" stroke="white" stroke-width="1.5" d="M0,-3.0v7 M-2.5,-0.5L0,-3.0L2.5,-0.5"/>
                </g>
                <g id="arrowLeft" xlink:href="#dirArrow" transform="rotate(270) translate(-36 17)" onmousedown="handlePan(-1,0)">
                  <use xlink:href="#rim" fill="#404040">
                        <set attributeName="fill" to="#808080" begin="arrowLeft.mouseover" end="arrowLeft.mouseout"/>
                  </use>
                  <path fill="none" stroke="white" stroke-width="1.5" d="M0,-3.0v7 M-2.5,-0.5L0,-3.0L2.5,-0.5"/>
                </g>
        </g>
        <svg viewBox="0 0 15 15" width="100%" height="30px" preserveAspectRatio="xMaxYMin meet">
         <g id="arrow_out" transform="scale(0.3 0.3)">
          <a xlink:href="BitOptions_8h__dep__incl_org.svg" target="_base">
           <rect id="button" ry="5" rx="5" y="6" x="6" height="38" width="38"
                fill="#f2f5e9" fill-opacity="0.5" stroke="#606060" stroke-width="1.0"/>
           <path id="arrow"
             d="M 11.500037,31.436501 C 11.940474,20.09759 22.043105,11.32322 32.158766,21.979434 L 37.068811,17.246167 C 37.068811,17.246167 37.088388,32 37.088388,32 L 22.160133,31.978069 C 22.160133,31.978069 26.997745,27.140456 26.997745,27.140456 C 18.528582,18.264221 13.291696,25.230495 11.500037,31.436501 z"
             style="fill:#404040;"/>
          </a>
         </g>
        </svg>
</svg>
