<?xml version="1.0" encoding="UTF-8" standalone="no"?>
<!DOCTYPE svg PUBLIC "-//W3C//DTD SVG 1.1//EN"
 "http://www.w3.org/Graphics/SVG/1.1/DTD/svg11.dtd">
<!-- Generated by graphviz version 2.38.0 (20140413.2041)
 -->
<!-- Title: include/enfield/Analysis/Driver.h Pages: 1 -->
<svg width="615pt" height="207pt"
 viewBox="0.00 0.00 614.50 207.00" xmlns="http://www.w3.org/2000/svg" xmlns:xlink="http://www.w3.org/1999/xlink">
<g id="graph0" class="graph" transform="scale(1 1) rotate(0) translate(4 203)">
<title>include/enfield/Analysis/Driver.h</title>
<!-- Node0 -->
<g id="node1" class="node"><title>Node0</title>
<polygon fill="#bfbfbf" stroke="black" points="487.5,-168.5 487.5,-198.5 606.5,-198.5 606.5,-168.5 487.5,-168.5"/>
<text text-anchor="start" x="495.5" y="-186.5" font-family="Helvetica,sans-Serif" font-size="10.00">include/enfield/Analysis</text>
<text text-anchor="middle" x="547" y="-175.5" font-family="Helvetica,sans-Serif" font-size="10.00">/Driver.h</text>
</g>
<!-- Node1 -->
<g id="node2" class="node"><title>Node1</title>
<g id="a_node2"><a xlink:href="../../d4/daf/Nodes_8h.xhtml" target="_top" xlink:title="enfield/Analysis/Nodes.h">
<polygon fill="none" stroke="black" points="347.5,-112.5 347.5,-131.5 472.5,-131.5 472.5,-112.5 347.5,-112.5"/>
<text text-anchor="middle" x="410" y="-119.5" font-family="Helvetica,sans-Serif" font-size="10.00">enfield/Analysis/Nodes.h</text>
</a>
</g>
</g>
<!-- Node0&#45;&gt;Node1 -->
<g id="edge1" class="edge"><title>Node0&#45;&gt;Node1</title>
<path fill="none" stroke="midnightblue" d="M514.533,-168.399C491.649,-158.461 461.266,-145.265 439.156,-135.662"/>
<polygon fill="midnightblue" stroke="midnightblue" points="440.501,-132.431 429.935,-131.658 437.713,-138.852 440.501,-132.431"/>
</g>
<!-- Node3 -->
<g id="node4" class="node"><title>Node3</title>
<polygon fill="none" stroke="#bfbfbf" points="316.5,-0.5 316.5,-19.5 357.5,-19.5 357.5,-0.5 316.5,-0.5"/>
<text text-anchor="middle" x="337" y="-7.5" font-family="Helvetica,sans-Serif" font-size="10.00">string</text>
</g>
<!-- Node0&#45;&gt;Node3 -->
<g id="edge10" class="edge"><title>Node0&#45;&gt;Node3</title>
<path fill="none" stroke="midnightblue" d="M558.484,-168.256C577.494,-142.864 610.78,-89.3232 583,-56 555.921,-23.518 427.608,-14.4133 367.809,-11.9166"/>
<polygon fill="midnightblue" stroke="midnightblue" points="367.942,-8.4192 357.816,-11.5347 367.675,-15.4141 367.942,-8.4192"/>
</g>
<!-- Node6 -->
<g id="node7" class="node"><title>Node6</title>
<polygon fill="none" stroke="#bfbfbf" points="520,-56.5 520,-75.5 574,-75.5 574,-56.5 520,-56.5"/>
<text text-anchor="middle" x="547" y="-63.5" font-family="Helvetica,sans-Serif" font-size="10.00">iostream</text>
</g>
<!-- Node0&#45;&gt;Node6 -->
<g id="edge9" class="edge"><title>Node0&#45;&gt;Node6</title>
<path fill="none" stroke="midnightblue" d="M547,-168.337C547,-147.622 547,-109.016 547,-85.8991"/>
<polygon fill="midnightblue" stroke="midnightblue" points="550.5,-85.6694 547,-75.6695 543.5,-85.6695 550.5,-85.6694"/>
</g>
<!-- Node2 -->
<g id="node3" class="node"><title>Node2</title>
<g id="a_node3"><a xlink:href="../../d1/d2e/WrapperVal_8h.xhtml" target="_top" xlink:title="enfield/Support/WrapperVal.h">
<polygon fill="none" stroke="black" points="0,-56.5 0,-75.5 144,-75.5 144,-56.5 0,-56.5"/>
<text text-anchor="middle" x="72" y="-63.5" font-family="Helvetica,sans-Serif" font-size="10.00">enfield/Support/WrapperVal.h</text>
</a>
</g>
</g>
<!-- Node1&#45;&gt;Node2 -->
<g id="edge2" class="edge"><title>Node1&#45;&gt;Node2</title>
<path fill="none" stroke="midnightblue" d="M356.443,-112.444C296.367,-102.846 199.01,-87.2916 135.242,-77.1037"/>
<polygon fill="midnightblue" stroke="midnightblue" points="135.734,-73.638 125.307,-75.5164 134.629,-80.5503 135.734,-73.638"/>
</g>
<!-- Node4 -->
<g id="node5" class="node"><title>Node4</title>
<g id="a_node5"><a xlink:href="../../d5/dfc/RTTI_8h.xhtml" target="_top" xlink:title="enfield/Support/RTTI.h">
<polygon fill="none" stroke="black" points="162,-56.5 162,-75.5 278,-75.5 278,-56.5 162,-56.5"/>
<text text-anchor="middle" x="220" y="-63.5" font-family="Helvetica,sans-Serif" font-size="10.00">enfield/Support/RTTI.h</text>
</a>
</g>
</g>
<!-- Node1&#45;&gt;Node4 -->
<g id="edge4" class="edge"><title>Node1&#45;&gt;Node4</title>
<path fill="none" stroke="midnightblue" d="M379.894,-112.444C347.374,-103.201 295.421,-88.4356 259.609,-78.2572"/>
<polygon fill="midnightblue" stroke="midnightblue" points="260.541,-74.8837 249.965,-75.5164 258.627,-81.617 260.541,-74.8837"/>
</g>
<!-- Node5 -->
<g id="node6" class="node"><title>Node5</title>
<polygon fill="none" stroke="#bfbfbf" points="296.5,-56.5 296.5,-75.5 369.5,-75.5 369.5,-56.5 296.5,-56.5"/>
<text text-anchor="middle" x="333" y="-63.5" font-family="Helvetica,sans-Serif" font-size="10.00">initializer_list</text>
</g>
<!-- Node1&#45;&gt;Node5 -->
<g id="edge5" class="edge"><title>Node1&#45;&gt;Node5</title>
<path fill="none" stroke="midnightblue" d="M397.629,-112.324C385.842,-104.058 367.868,-91.4527 353.864,-81.6322"/>
<polygon fill="midnightblue" stroke="midnightblue" points="355.538,-78.5307 345.341,-75.6545 351.518,-84.2619 355.538,-78.5307"/>
</g>
<!-- Node1&#45;&gt;Node6 -->
<g id="edge6" class="edge"><title>Node1&#45;&gt;Node6</title>
<path fill="none" stroke="midnightblue" d="M431.708,-112.444C454.355,-103.517 490.072,-89.4387 515.752,-79.3168"/>
<polygon fill="midnightblue" stroke="midnightblue" points="517.374,-82.4397 525.394,-75.5164 514.807,-75.9273 517.374,-82.4397"/>
</g>
<!-- Node7 -->
<g id="node8" class="node"><title>Node7</title>
<polygon fill="none" stroke="#bfbfbf" points="388,-56.5 388,-75.5 432,-75.5 432,-56.5 388,-56.5"/>
<text text-anchor="middle" x="410" y="-63.5" font-family="Helvetica,sans-Serif" font-size="10.00">vector</text>
</g>
<!-- Node1&#45;&gt;Node7 -->
<g id="edge7" class="edge"><title>Node1&#45;&gt;Node7</title>
<path fill="none" stroke="midnightblue" d="M410,-112.083C410,-105.006 410,-94.8611 410,-85.9865"/>
<polygon fill="midnightblue" stroke="midnightblue" points="413.5,-85.751 410,-75.7511 406.5,-85.7511 413.5,-85.751"/>
</g>
<!-- Node8 -->
<g id="node9" class="node"><title>Node8</title>
<polygon fill="none" stroke="#bfbfbf" points="450,-56.5 450,-75.5 502,-75.5 502,-56.5 450,-56.5"/>
<text text-anchor="middle" x="476" y="-63.5" font-family="Helvetica,sans-Serif" font-size="10.00">memory</text>
</g>
<!-- Node1&#45;&gt;Node8 -->
<g id="edge8" class="edge"><title>Node1&#45;&gt;Node8</title>
<path fill="none" stroke="midnightblue" d="M420.604,-112.324C430.456,-104.263 445.351,-92.0765 457.215,-82.3695"/>
<polygon fill="midnightblue" stroke="midnightblue" points="459.68,-84.8752 465.203,-75.8339 455.247,-79.4575 459.68,-84.8752"/>
</g>
<!-- Node2&#45;&gt;Node3 -->
<g id="edge3" class="edge"><title>Node2&#45;&gt;Node3</title>
<path fill="none" stroke="midnightblue" d="M113.99,-56.4435C167.584,-45.5225 259.022,-26.8898 306.447,-17.2258"/>
<polygon fill="midnightblue" stroke="midnightblue" points="307.317,-20.6206 316.417,-15.1943 305.919,-13.7615 307.317,-20.6206"/>
</g>
</g>
</svg>
