<?xml version="1.0" encoding="UTF-8" standalone="no"?>
<!DOCTYPE svg PUBLIC "-//W3C//DTD SVG 1.1//EN"
 "http://www.w3.org/Graphics/SVG/1.1/DTD/svg11.dtd">
<!-- Generated by graphviz version 2.38.0 (20140413.2041)
 -->
<!-- Title: include/enfield/Support/Graph.h Pages: 1 -->
<svg width="272pt" height="95pt"
 viewBox="0.00 0.00 272.00 95.00" xmlns="http://www.w3.org/2000/svg" xmlns:xlink="http://www.w3.org/1999/xlink">
<g id="graph0" class="graph" transform="scale(1 1) rotate(0) translate(4 91)">
<title>include/enfield/Support/Graph.h</title>
<!-- Node0 -->
<g id="node1" class="node"><title>Node0</title>
<polygon fill="#bfbfbf" stroke="black" points="53,-56.5 53,-86.5 169,-86.5 169,-56.5 53,-56.5"/>
<text text-anchor="start" x="61" y="-74.5" font-family="Helvetica,sans-Serif" font-size="10.00">include/enfield/Support</text>
<text text-anchor="middle" x="111" y="-63.5" font-family="Helvetica,sans-Serif" font-size="10.00">/Graph.h</text>
</g>
<!-- Node1 -->
<g id="node2" class="node"><title>Node1</title>
<polygon fill="none" stroke="#bfbfbf" points="0,-0.5 0,-19.5 30,-19.5 30,-0.5 0,-0.5"/>
<text text-anchor="middle" x="15" y="-7.5" font-family="Helvetica,sans-Serif" font-size="10.00">set</text>
</g>
<!-- Node0&#45;&gt;Node1 -->
<g id="edge1" class="edge"><title>Node0&#45;&gt;Node1</title>
<path fill="none" stroke="midnightblue" d="M88.2493,-56.3993C73.0051,-46.9511 53.0109,-34.5589 37.7639,-25.1089"/>
<polygon fill="midnightblue" stroke="midnightblue" points="39.3125,-21.951 28.9689,-19.6578 35.6248,-27.9009 39.3125,-21.951"/>
</g>
<!-- Node2 -->
<g id="node3" class="node"><title>Node2</title>
<polygon fill="none" stroke="#bfbfbf" points="48,-0.5 48,-19.5 92,-19.5 92,-0.5 48,-0.5"/>
<text text-anchor="middle" x="70" y="-7.5" font-family="Helvetica,sans-Serif" font-size="10.00">vector</text>
</g>
<!-- Node0&#45;&gt;Node2 -->
<g id="edge2" class="edge"><title>Node0&#45;&gt;Node2</title>
<path fill="none" stroke="midnightblue" d="M101.284,-56.3993C95.4486,-47.9315 87.9843,-37.0991 81.8103,-28.1393"/>
<polygon fill="midnightblue" stroke="midnightblue" points="84.522,-25.9062 75.9659,-19.6578 78.758,-29.8781 84.522,-25.9062"/>
</g>
<!-- Node3 -->
<g id="node4" class="node"><title>Node3</title>
<polygon fill="none" stroke="#bfbfbf" points="110.5,-0.5 110.5,-19.5 193.5,-19.5 193.5,-0.5 110.5,-0.5"/>
<text text-anchor="middle" x="152" y="-7.5" font-family="Helvetica,sans-Serif" font-size="10.00">unordered_map</text>
</g>
<!-- Node0&#45;&gt;Node3 -->
<g id="edge3" class="edge"><title>Node0&#45;&gt;Node3</title>
<path fill="none" stroke="midnightblue" d="M120.716,-56.3993C126.551,-47.9315 134.016,-37.0991 140.19,-28.1393"/>
<polygon fill="midnightblue" stroke="midnightblue" points="143.242,-29.8781 146.034,-19.6578 137.478,-25.9062 143.242,-29.8781"/>
</g>
<!-- Node4 -->
<g id="node5" class="node"><title>Node4</title>
<polygon fill="none" stroke="#bfbfbf" points="212,-0.5 212,-19.5 264,-19.5 264,-0.5 212,-0.5"/>
<text text-anchor="middle" x="238" y="-7.5" font-family="Helvetica,sans-Serif" font-size="10.00">memory</text>
</g>
<!-- Node0&#45;&gt;Node4 -->
<g id="edge4" class="edge"><title>Node0&#45;&gt;Node4</title>
<path fill="none" stroke="midnightblue" d="M141.097,-56.3993C162.12,-46.55 189.972,-33.5014 210.419,-23.9217"/>
<polygon fill="midnightblue" stroke="midnightblue" points="211.95,-27.0698 219.52,-19.6578 208.98,-20.7309 211.95,-27.0698"/>
</g>
</g>
</svg>
