<?xml version="1.0" encoding="UTF-8" standalone="no"?>
<!DOCTYPE svg PUBLIC "-//W3C//DTD SVG 1.1//EN"
 "http://www.w3.org/Graphics/SVG/1.1/DTD/svg11.dtd">
<!-- Generated by graphviz version 2.38.0 (20140413.2041)
 -->
<!-- Title: efd::DependencyGraphBuilderPass Pages: 1 -->
<svg width="224pt" height="241pt"
 viewBox="0.00 0.00 224.00 241.00" xmlns="http://www.w3.org/2000/svg" xmlns:xlink="http://www.w3.org/1999/xlink">
<g id="graph0" class="graph" transform="scale(1 1) rotate(0) translate(4 237)">
<title>efd::DependencyGraphBuilderPass</title>
<!-- Node4 -->
<g id="node1" class="node"><title>Node4</title>
<polygon fill="#bfbfbf" stroke="black" points="0,-0.5 0,-19.5 170,-19.5 170,-0.5 0,-0.5"/>
<text text-anchor="middle" x="85" y="-7.5" font-family="Helvetica,sans-Serif" font-size="10.00">efd::DependencyGraphBuilderPass</text>
</g>
<!-- Node5 -->
<g id="node2" class="node"><title>Node5</title>
<g id="a_node2"><a xlink:href="../../db/d56/classefd_1_1PassT.xhtml" target="_top" xlink:title="efd::PassT\&lt; DependencyGraph\l::sRef \&gt;">
<polygon fill="none" stroke="black" points="7.5,-57.5 7.5,-87.5 162.5,-87.5 162.5,-57.5 7.5,-57.5"/>
<text text-anchor="start" x="15.5" y="-75.5" font-family="Helvetica,sans-Serif" font-size="10.00">efd::PassT&lt; DependencyGraph</text>
<text text-anchor="middle" x="85" y="-64.5" font-family="Helvetica,sans-Serif" font-size="10.00">::sRef &gt;</text>
</a>
</g>
</g>
<!-- Node5&#45;&gt;Node4 -->
<g id="edge1" class="edge"><title>Node5&#45;&gt;Node4</title>
<path fill="none" stroke="midnightblue" d="M85,-47.3524C85,-37.5132 85,-26.7753 85,-19.5399"/>
<polygon fill="midnightblue" stroke="midnightblue" points="81.5001,-47.468 85,-57.468 88.5001,-47.4681 81.5001,-47.468"/>
</g>
<!-- Node6 -->
<g id="node3" class="node"><title>Node6</title>
<g id="a_node3"><a xlink:href="../../d0/d98/classefd_1_1Pass.xhtml" target="_top" xlink:title="Base class for implementation of QModule passes. This information will be used when the QModule&#39;s fun...">
<polygon fill="none" stroke="black" points="35.5,-213.5 35.5,-232.5 94.5,-232.5 94.5,-213.5 35.5,-213.5"/>
<text text-anchor="middle" x="65" y="-220.5" font-family="Helvetica,sans-Serif" font-size="10.00">efd::Pass</text>
</a>
</g>
</g>
<!-- Node6&#45;&gt;Node5 -->
<g id="edge2" class="edge"><title>Node6&#45;&gt;Node5</title>
<path fill="none" stroke="midnightblue" d="M67.5412,-203.132C71.5895,-173.073 79.4164,-114.958 83.0539,-87.9499"/>
<polygon fill="midnightblue" stroke="midnightblue" points="64.0573,-202.778 66.1912,-213.155 70.9947,-203.712 64.0573,-202.778"/>
</g>
<!-- Node7 -->
<g id="node4" class="node"><title>Node7</title>
<g id="a_node4"><a xlink:href="../../db/d56/classefd_1_1PassT.xhtml" target="_top" xlink:title="Should serve as base class for classes that produces some data of type T. ">
<polygon fill="none" stroke="black" points="87.5,-146.5 87.5,-165.5 176.5,-165.5 176.5,-146.5 87.5,-146.5"/>
<text text-anchor="middle" x="132" y="-153.5" font-family="Helvetica,sans-Serif" font-size="10.00">efd::PassT&lt; T &gt;</text>
</a>
</g>
</g>
<!-- Node6&#45;&gt;Node7 -->
<g id="edge4" class="edge"><title>Node6&#45;&gt;Node7</title>
<path fill="none" stroke="midnightblue" d="M81.4956,-205.997C94.635,-193.25 112.524,-175.895 123.107,-165.627"/>
<polygon fill="midnightblue" stroke="midnightblue" points="78.7762,-203.759 74.0359,-213.234 83.6504,-208.783 78.7762,-203.759"/>
</g>
<!-- Node7&#45;&gt;Node5 -->
<g id="edge3" class="edge"><title>Node7&#45;&gt;Node5</title>
<path fill="none" stroke="orange" stroke-dasharray="5,2" d="M121.921,-137.522C113.322,-122.611 101.116,-101.446 93.1298,-87.5974"/>
<polygon fill="orange" stroke="orange" points="118.942,-139.364 126.97,-146.278 125.006,-135.867 118.942,-139.364"/>
<text text-anchor="start" x="116" y="-120" font-family="Helvetica,sans-Serif" font-size="10.00"> &lt; DependencyGraph::</text>
<text text-anchor="middle" x="166" y="-109" font-family="Helvetica,sans-Serif" font-size="10.00">sRef &gt;</text>
</g>
<!-- Node8 -->
<g id="node5" class="node"><title>Node8</title>
<polygon fill="none" stroke="#bfbfbf" points="117.5,-213.5 117.5,-232.5 146.5,-232.5 146.5,-213.5 117.5,-213.5"/>
<text text-anchor="middle" x="132" y="-220.5" font-family="Helvetica,sans-Serif" font-size="10.00">T</text>
</g>
<!-- Node8&#45;&gt;Node7 -->
<g id="edge5" class="edge"><title>Node8&#45;&gt;Node7</title>
<path fill="none" stroke="#9a32cd" stroke-dasharray="5,2" d="M132,-203.037C132,-190.67 132,-175.12 132,-165.627"/>
<polygon fill="#9a32cd" stroke="#9a32cd" points="128.5,-203.234 132,-213.234 135.5,-203.234 128.5,-203.234"/>
<text text-anchor="middle" x="148.5" y="-187" font-family="Helvetica,sans-Serif" font-size="10.00"> mData</text>
</g>
</g>
</svg>
