<?xml version="1.0" encoding="UTF-8" standalone="no"?>
<!DOCTYPE svg PUBLIC "-//W3C//DTD SVG 1.1//EN"
 "http://www.w3.org/Graphics/SVG/1.1/DTD/svg11.dtd">
<!-- Generated by graphviz version 2.38.0 (20140413.2041)
 -->
<!-- Title: efd::QModulefyVisitor Pages: 1 -->
<svg width="337pt" height="295pt"
 viewBox="0.00 0.00 337.00 295.00" xmlns="http://www.w3.org/2000/svg" xmlns:xlink="http://www.w3.org/1999/xlink">
<g id="graph0" class="graph" transform="scale(1 1) rotate(0) translate(4 291)">
<title>efd::QModulefyVisitor</title>
<!-- Node2 -->
<g id="node1" class="node"><title>Node2</title>
<polygon fill="#bfbfbf" stroke="black" points="86,-0.5 86,-19.5 197,-19.5 197,-0.5 86,-0.5"/>
<text text-anchor="middle" x="141.5" y="-7.5" font-family="Helvetica,sans-Serif" font-size="10.00">efd::QModulefyVisitor</text>
</g>
<!-- Node3 -->
<g id="node2" class="node"><title>Node3</title>
<g id="a_node2"><a xlink:href="../../d8/d5d/classefd_1_1NodeVisitor.xhtml" target="_top" xlink:title="Interface class to be used as a visitor. ">
<polygon fill="none" stroke="black" points="0,-67.5 0,-86.5 87,-86.5 87,-67.5 0,-67.5"/>
<text text-anchor="middle" x="43.5" y="-74.5" font-family="Helvetica,sans-Serif" font-size="10.00">efd::NodeVisitor</text>
</a>
</g>
</g>
<!-- Node3&#45;&gt;Node2 -->
<g id="edge1" class="edge"><title>Node3&#45;&gt;Node2</title>
<path fill="none" stroke="midnightblue" d="M65.2191,-61.5945C84.6059,-48.7359 112.355,-30.3306 128.493,-19.6273"/>
<polygon fill="midnightblue" stroke="midnightblue" points="63.1157,-58.7897 56.7167,-67.2338 66.9849,-64.6232 63.1157,-58.7897"/>
</g>
<!-- Node4 -->
<g id="node3" class="node"><title>Node4</title>
<g id="a_node3"><a xlink:href="../../d3/d29/classefd_1_1NDInclude.xhtml" target="_top" xlink:title="Node used to parse another file. ">
<polygon fill="none" stroke="black" points="79,-172.5 79,-191.5 162,-191.5 162,-172.5 79,-172.5"/>
<text text-anchor="middle" x="120.5" y="-179.5" font-family="Helvetica,sans-Serif" font-size="10.00">efd::NDInclude</text>
</a>
</g>
</g>
<!-- Node4&#45;&gt;Node2 -->
<g id="edge2" class="edge"><title>Node4&#45;&gt;Node2</title>
<path fill="none" stroke="#9a32cd" stroke-dasharray="5,2" d="M122.793,-162.222C125.556,-139.626 130.345,-100.535 134.5,-67 136.572,-50.2755 139.02,-30.7453 140.403,-19.7292"/>
<polygon fill="#9a32cd" stroke="#9a32cd" points="119.286,-162.068 121.547,-172.419 126.235,-162.917 119.286,-162.068"/>
<text text-anchor="middle" x="152" y="-108" font-family="Helvetica,sans-Serif" font-size="10.00"> mCurIncl</text>
</g>
<!-- Node5 -->
<g id="node4" class="node"><title>Node5</title>
<g id="a_node4"><a xlink:href="../../d6/d6a/classefd_1_1Node.xhtml" target="_top" xlink:title="Base class for AST nodes. ">
<polygon fill="none" stroke="black" points="114,-267.5 114,-286.5 173,-286.5 173,-267.5 114,-267.5"/>
<text text-anchor="middle" x="143.5" y="-274.5" font-family="Helvetica,sans-Serif" font-size="10.00">efd::Node</text>
</a>
</g>
</g>
<!-- Node5&#45;&gt;Node4 -->
<g id="edge3" class="edge"><title>Node5&#45;&gt;Node4</title>
<path fill="none" stroke="midnightblue" d="M138.955,-257.622C134.008,-237.618 126.311,-206.495 122.617,-191.562"/>
<polygon fill="midnightblue" stroke="midnightblue" points="135.579,-258.55 141.377,-267.417 142.374,-256.87 135.579,-258.55"/>
</g>
<!-- Node5&#45;&gt;Node5 -->
<g id="edge4" class="edge"><title>Node5&#45;&gt;Node5</title>
<path fill="none" stroke="#9a32cd" stroke-dasharray="5,2" d="M183.172,-281.512C187.908,-280.691 191,-279.188 191,-277 191,-273.5 183.083,-271.75 173.188,-271.75"/>
<polygon fill="#9a32cd" stroke="#9a32cd" points="182.902,-278.022 173.188,-282.25 183.418,-285.003 182.902,-278.022"/>
<text text-anchor="middle" x="211" y="-274.5" font-family="Helvetica,sans-Serif" font-size="10.00"> mParent</text>
</g>
<!-- Node9 -->
<g id="node8" class="node"><title>Node9</title>
<g id="a_node8"><a xlink:href="../../d0/d9e/classefd_1_1NDDecl.xhtml" target="_top" xlink:title="Node for declaration of registers (concrete and quantum). ">
<polygon fill="none" stroke="black" points="151,-210.5 151,-229.5 222,-229.5 222,-210.5 151,-210.5"/>
<text text-anchor="middle" x="186.5" y="-217.5" font-family="Helvetica,sans-Serif" font-size="10.00">efd::NDDecl</text>
</a>
</g>
</g>
<!-- Node5&#45;&gt;Node9 -->
<g id="edge9" class="edge"><title>Node5&#45;&gt;Node9</title>
<path fill="none" stroke="midnightblue" d="M156.608,-259.234C164.224,-249.493 173.506,-237.62 179.687,-229.715"/>
<polygon fill="midnightblue" stroke="midnightblue" points="153.621,-257.372 150.219,-267.406 159.135,-261.684 153.621,-257.372"/>
</g>
<!-- Node6 -->
<g id="node5" class="node"><title>Node6</title>
<g id="a_node5"><a xlink:href="../../dd/d52/classefd_1_1QModule.xhtml" target="_top" xlink:title="Qasm module representation. ">
<polygon fill="none" stroke="black" points="254,-67.5 254,-86.5 329,-86.5 329,-67.5 254,-67.5"/>
<text text-anchor="middle" x="291.5" y="-74.5" font-family="Helvetica,sans-Serif" font-size="10.00">efd::QModule</text>
</a>
</g>
</g>
<!-- Node6&#45;&gt;Node2 -->
<g id="edge5" class="edge"><title>Node6&#45;&gt;Node2</title>
<path fill="none" stroke="#9a32cd" stroke-dasharray="5,2" d="M268.396,-62.1528C254.988,-54.4509 237.614,-45.0308 221.5,-38 205.109,-30.8482 186.172,-24.381 170.838,-19.57"/>
<polygon fill="#9a32cd" stroke="#9a32cd" points="266.982,-65.3803 277.383,-67.3986 270.511,-59.3348 266.982,-65.3803"/>
<text text-anchor="middle" x="259" y="-41" font-family="Helvetica,sans-Serif" font-size="10.00"> mMod</text>
</g>
<!-- Node7 -->
<g id="node6" class="node"><title>Node7</title>
<g id="a_node6"><a xlink:href="../../d1/d4b/classefd_1_1NDGateDecl.xhtml" target="_top" xlink:title="Node for declaration of quantum gates. ">
<polygon fill="none" stroke="black" points="143.5,-67.5 143.5,-86.5 235.5,-86.5 235.5,-67.5 143.5,-67.5"/>
<text text-anchor="middle" x="189.5" y="-74.5" font-family="Helvetica,sans-Serif" font-size="10.00">efd::NDGateDecl</text>
</a>
</g>
</g>
<!-- Node7&#45;&gt;Node2 -->
<g id="edge6" class="edge"><title>Node7&#45;&gt;Node2</title>
<path fill="none" stroke="#9a32cd" stroke-dasharray="5,2" d="M176.875,-58.9037C167.548,-46.2729 155.238,-29.6041 147.871,-19.6273"/>
<polygon fill="#9a32cd" stroke="#9a32cd" points="174.271,-61.2686 183.027,-67.2338 179.902,-57.1103 174.271,-61.2686"/>
<text text-anchor="middle" x="193" y="-41" font-family="Helvetica,sans-Serif" font-size="10.00"> mCurGate</text>
</g>
<!-- Node8 -->
<g id="node7" class="node"><title>Node8</title>
<g id="a_node7"><a xlink:href="../../db/d1f/classefd_1_1NDGateSign.xhtml" target="_top" xlink:title="Node for declaration of opaque quantum gates. ">
<polygon fill="none" stroke="black" points="143.5,-134.5 143.5,-153.5 235.5,-153.5 235.5,-134.5 143.5,-134.5"/>
<text text-anchor="middle" x="189.5" y="-141.5" font-family="Helvetica,sans-Serif" font-size="10.00">efd::NDGateSign</text>
</a>
</g>
</g>
<!-- Node8&#45;&gt;Node7 -->
<g id="edge7" class="edge"><title>Node8&#45;&gt;Node7</title>
<path fill="none" stroke="midnightblue" d="M189.5,-124.037C189.5,-111.67 189.5,-96.1198 189.5,-86.6273"/>
<polygon fill="midnightblue" stroke="midnightblue" points="186,-124.234 189.5,-134.234 193,-124.234 186,-124.234"/>
</g>
<!-- Node9&#45;&gt;Node8 -->
<g id="edge8" class="edge"><title>Node9&#45;&gt;Node8</title>
<path fill="none" stroke="midnightblue" d="M187.267,-200.072C187.871,-185.18 188.685,-165.111 189.145,-153.768"/>
<polygon fill="midnightblue" stroke="midnightblue" points="183.764,-200.087 186.856,-210.221 190.758,-200.371 183.764,-200.087"/>
</g>
</g>
</svg>
