<?xml version="1.0" encoding="UTF-8" standalone="no"?>
<!DOCTYPE svg PUBLIC "-//W3C//DTD SVG 1.1//EN"
 "http://www.w3.org/Graphics/SVG/1.1/DTD/svg11.dtd">
<!-- Generated by graphviz version 2.40.1 (20161225.0304)
 -->
<!-- Title: include/enfield/Support/ApproxTSFinder.h Pages: 1 -->
<svg width="545pt" height="106pt"
 viewBox="0.00 0.00 545.00 106.00" xmlns="http://www.w3.org/2000/svg" xmlns:xlink="http://www.w3.org/1999/xlink">
<g id="graph0" class="graph" transform="scale(1 1) rotate(0) translate(4 102)">
<title>include/enfield/Support/ApproxTSFinder.h</title>
<!-- Node11 -->
<g id="node1" class="node">
<title>Node11</title>
<polygon fill="#bfbfbf" stroke="#000000" points="190,-67.5 190,-97.5 319,-97.5 319,-67.5 190,-67.5"/>
<text text-anchor="start" x="198" y="-85.5" font-family="Helvetica,sans-Serif" font-size="10.00" fill="#000000">include/enfield/Support</text>
<text text-anchor="middle" x="254.5" y="-74.5" font-family="Helvetica,sans-Serif" font-size="10.00" fill="#000000">/ApproxTSFinder.h</text>
</g>
<!-- Node12 -->
<g id="node2" class="node">
<title>Node12</title>
<g id="a_node2"><a xlink:href="../../dd/d0b/ApproxTSFinder_8cpp.xhtml" target="_top" xlink:title="lib/Support/ApproxTSFinder.cpp">
<polygon fill="none" stroke="#000000" points="0,-6 0,-25 169,-25 169,-6 0,-6"/>
<text text-anchor="middle" x="84.5" y="-13" font-family="Helvetica,sans-Serif" font-size="10.00" fill="#000000">lib/Support/ApproxTSFinder.cpp</text>
</a>
</g>
</g>
<!-- Node11&#45;&gt;Node12 -->
<g id="edge1" class="edge">
<title>Node11&#45;&gt;Node12</title>
<path fill="none" stroke="#191970" d="M206.7652,-63.6869C174.8988,-51.1278 134.3198,-35.1349 108.8682,-25.1039"/>
<polygon fill="#191970" stroke="#191970" points="205.7618,-67.0534 216.3487,-67.4639 208.3285,-60.5409 205.7618,-67.0534"/>
</g>
<!-- Node13 -->
<g id="node3" class="node">
<title>Node13</title>
<g id="a_node3"><a xlink:href="../../dc/dea/Allocators_8cpp.xhtml" target="_top" xlink:title="lib/Transform/Allocators\l/Allocators.cpp">
<polygon fill="none" stroke="#000000" points="187.5,-.5 187.5,-30.5 321.5,-30.5 321.5,-.5 187.5,-.5"/>
<text text-anchor="start" x="195.5" y="-18.5" font-family="Helvetica,sans-Serif" font-size="10.00" fill="#000000">lib/Transform/Allocators</text>
<text text-anchor="middle" x="254.5" y="-7.5" font-family="Helvetica,sans-Serif" font-size="10.00" fill="#000000">/Allocators.cpp</text>
</a>
</g>
</g>
<!-- Node11&#45;&gt;Node13 -->
<g id="edge2" class="edge">
<title>Node11&#45;&gt;Node13</title>
<path fill="none" stroke="#191970" d="M254.5,-57.0249C254.5,-48.128 254.5,-38.4287 254.5,-30.6432"/>
<polygon fill="#191970" stroke="#191970" points="251.0001,-57.2966 254.5,-67.2967 258.0001,-57.2967 251.0001,-57.2966"/>
</g>
<!-- Node14 -->
<g id="node4" class="node">
<title>Node14</title>
<g id="a_node4"><a xlink:href="../../d6/dab/BoundedMappingTreeQAllocator_8cpp.xhtml" target="_top" xlink:title="lib/Transform/Allocators\l/BoundedMappingTreeQAllocator.cpp">
<polygon fill="none" stroke="#000000" points="340,-.5 340,-30.5 537,-30.5 537,-.5 340,-.5"/>
<text text-anchor="start" x="348" y="-18.5" font-family="Helvetica,sans-Serif" font-size="10.00" fill="#000000">lib/Transform/Allocators</text>
<text text-anchor="middle" x="438.5" y="-7.5" font-family="Helvetica,sans-Serif" font-size="10.00" fill="#000000">/BoundedMappingTreeQAllocator.cpp</text>
</a>
</g>
</g>
<!-- Node11&#45;&gt;Node14 -->
<g id="edge3" class="edge">
<title>Node11&#45;&gt;Node14</title>
<path fill="none" stroke="#191970" d="M305.2998,-64.0023C334.1685,-53.4903 369.8585,-40.4945 397.0267,-30.6017"/>
<polygon fill="#191970" stroke="#191970" points="303.9921,-60.7535 295.7932,-67.4639 306.3872,-67.3311 303.9921,-60.7535"/>
</g>
</g>
</svg>
