<?xml version="1.0" encoding="UTF-8" standalone="no"?>
<!DOCTYPE svg PUBLIC "-//W3C//DTD SVG 1.1//EN"
 "http://www.w3.org/Graphics/SVG/1.1/DTD/svg11.dtd">
<!-- Generated by graphviz version 2.38.0 (20140413.2041)
 -->
<!-- Title: include/enfield/Support/ApproxTSFinder.h Pages: 1 -->
<svg width="314pt" height="106pt"
 viewBox="0.00 0.00 313.50 106.00" xmlns="http://www.w3.org/2000/svg" xmlns:xlink="http://www.w3.org/1999/xlink">
<g id="graph0" class="graph" transform="scale(1 1) rotate(0) translate(4 102)">
<title>include/enfield/Support/ApproxTSFinder.h</title>
<!-- Node11 -->
<g id="node1" class="node"><title>Node11</title>
<polygon fill="#bfbfbf" stroke="black" points="100.5,-67.5 100.5,-97.5 216.5,-97.5 216.5,-67.5 100.5,-67.5"/>
<text text-anchor="start" x="108.5" y="-85.5" font-family="Helvetica,sans-Serif" font-size="10.00">include/enfield/Support</text>
<text text-anchor="middle" x="158.5" y="-74.5" font-family="Helvetica,sans-Serif" font-size="10.00">/ApproxTSFinder.h</text>
</g>
<!-- Node12 -->
<g id="node2" class="node"><title>Node12</title>
<g id="a_node2"><a xlink:href="../../dd/d0b/ApproxTSFinder_8cpp.xhtml" target="_top" xlink:title="lib/Support/ApproxTSFinder.cpp">
<polygon fill="none" stroke="black" points="0,-6 0,-25 155,-25 155,-6 0,-6"/>
<text text-anchor="middle" x="77.5" y="-13" font-family="Helvetica,sans-Serif" font-size="10.00">lib/Support/ApproxTSFinder.cpp</text>
</a>
</g>
</g>
<!-- Node11&#45;&gt;Node12 -->
<g id="edge1" class="edge"><title>Node11&#45;&gt;Node12</title>
<path fill="none" stroke="midnightblue" d="M132.964,-61.008C117.927,-48.9412 99.6873,-34.3046 88.3347,-25.1945"/>
<polygon fill="midnightblue" stroke="midnightblue" points="130.934,-63.867 140.924,-67.396 135.315,-58.4075 130.934,-63.867"/>
</g>
<!-- Node13 -->
<g id="node3" class="node"><title>Node13</title>
<g id="a_node3"><a xlink:href="../../d5/d8f/BoundedSIDepSolver_8cpp.xhtml" target="_top" xlink:title="lib/Transform/Allocators\l/BoundedSIDepSolver.cpp">
<polygon fill="none" stroke="black" points="173.5,-0.5 173.5,-30.5 305.5,-30.5 305.5,-0.5 173.5,-0.5"/>
<text text-anchor="start" x="181.5" y="-18.5" font-family="Helvetica,sans-Serif" font-size="10.00">lib/Transform/Allocators</text>
<text text-anchor="middle" x="239.5" y="-7.5" font-family="Helvetica,sans-Serif" font-size="10.00">/BoundedSIDepSolver.cpp</text>
</a>
</g>
</g>
<!-- Node11&#45;&gt;Node13 -->
<g id="edge2" class="edge"><title>Node11&#45;&gt;Node13</title>
<path fill="none" stroke="midnightblue" d="M184.192,-60.8832C196.501,-51.0054 210.927,-39.4293 221.959,-30.5765"/>
<polygon fill="midnightblue" stroke="midnightblue" points="181.685,-58.4075 176.076,-67.396 186.066,-63.867 181.685,-58.4075"/>
</g>
</g>
</svg>
