<?xml version="1.0" encoding="UTF-8" standalone="no"?>
<!DOCTYPE svg PUBLIC "-//W3C//DTD SVG 1.1//EN"
 "http://www.w3.org/Graphics/SVG/1.1/DTD/svg11.dtd">
<!-- Generated by graphviz version 2.38.0 (20140413.2041)
 -->
<!-- Title: include/enfield Pages: 1 -->
<svg width="262pt" height="327pt"
 viewBox="0.00 0.00 262.00 327.00" xmlns="http://www.w3.org/2000/svg" xmlns:xlink="http://www.w3.org/1999/xlink">
<g id="graph0" class="graph" transform="scale(1 1) rotate(0) translate(4 323)">
<title>include/enfield</title>
<g id="clust1" class="cluster"><title>clusterdir_d44c64559bbebec7f509842c48db8b23</title>
<g id="a_clust1"><a xlink:href="dir_d44c64559bbebec7f509842c48db8b23.xhtml" target="_top" xlink:title="include">
<polygon fill="#ddddee" stroke="black" points="8,-8 8,-311 246,-311 246,-8 8,-8"/>
<text text-anchor="middle" x="127" y="-299" font-family="Helvetica,sans-Serif" font-size="10.00">include</text>
</a>
</g>
</g>
<g id="clust2" class="cluster"><title>clusterdir_ca9ae9fc199b7939600155691e280c84</title>
<g id="a_clust2"><a xlink:href="dir_ca9ae9fc199b7939600155691e280c84.xhtml" target="_top">
<polygon fill="#eeeeff" stroke="black" points="16,-16 16,-284 238,-284 238,-16 16,-16"/>
</a>
</g>
</g>
<!-- dir_ca9ae9fc199b7939600155691e280c84 -->
<g id="node1" class="node"><title>dir_ca9ae9fc199b7939600155691e280c84</title>
<text text-anchor="middle" x="203" y="-255.5" font-family="Helvetica,sans-Serif" font-size="10.00">enfield</text>
</g>
<!-- dir_0d485057de6219ed9ee4637c6df38af1 -->
<g id="node2" class="node"><title>dir_0d485057de6219ed9ee4637c6df38af1</title>
<g id="a_node2"><a xlink:href="dir_0d485057de6219ed9ee4637c6df38af1.xhtml" target="_top" xlink:title="Analysis">
<polygon fill="white" stroke="black" points="78,-132 24,-132 24,-96 78,-96 78,-132"/>
<text text-anchor="middle" x="51" y="-111.5" font-family="Helvetica,sans-Serif" font-size="10.00">Analysis</text>
</a>
</g>
</g>
<!-- dir_71e3284cbba00b0db547557b8d5e42ce -->
<g id="node5" class="node"><title>dir_71e3284cbba00b0db547557b8d5e42ce</title>
<g id="a_node5"><a xlink:href="dir_71e3284cbba00b0db547557b8d5e42ce.xhtml" target="_top" xlink:title="Support">
<polygon fill="white" stroke="black" points="124,-60 70,-60 70,-24 124,-24 124,-60"/>
<text text-anchor="middle" x="97" y="-39.5" font-family="Helvetica,sans-Serif" font-size="10.00">Support</text>
</a>
</g>
</g>
<!-- dir_0d485057de6219ed9ee4637c6df38af1&#45;&gt;dir_71e3284cbba00b0db547557b8d5e42ce -->
<g id="edge6" class="edge"><title>dir_0d485057de6219ed9ee4637c6df38af1&#45;&gt;dir_71e3284cbba00b0db547557b8d5e42ce</title>
<path fill="none" stroke="black" d="M62.3708,-95.6966C67.7185,-87.5589 74.2043,-77.689 80.1106,-68.7013"/>
<polygon fill="black" stroke="black" points="83.1932,-70.3835 85.76,-60.1043 77.3432,-66.5393 83.1932,-70.3835"/>
<g id="a_edge6&#45;headlabel"><a xlink:href="dir_000002_000006.xhtml" target="_top" xlink:title="2">
<text text-anchor="middle" x="83.5919" y="-72.4468" font-family="Helvetica,sans-Serif" font-size="10.00">2</text>
</a>
</g>
</g>
<!-- dir_beaccb1e436ea0f3a34f2202b7e5f29d -->
<g id="node3" class="node"><title>dir_beaccb1e436ea0f3a34f2202b7e5f29d</title>
<g id="a_node3"><a xlink:href="dir_beaccb1e436ea0f3a34f2202b7e5f29d.xhtml" target="_top" xlink:title="Arch">
<polygon fill="white" stroke="black" points="98,-204 44,-204 44,-168 98,-168 98,-204"/>
<text text-anchor="middle" x="71" y="-183.5" font-family="Helvetica,sans-Serif" font-size="10.00">Arch</text>
</a>
</g>
</g>
<!-- dir_beaccb1e436ea0f3a34f2202b7e5f29d&#45;&gt;dir_0d485057de6219ed9ee4637c6df38af1 -->
<g id="edge4" class="edge"><title>dir_beaccb1e436ea0f3a34f2202b7e5f29d&#45;&gt;dir_0d485057de6219ed9ee4637c6df38af1</title>
<path fill="none" stroke="black" d="M66.0562,-167.697C63.828,-159.898 61.1453,-150.509 58.6655,-141.829"/>
<polygon fill="black" stroke="black" points="61.9996,-140.758 55.887,-132.104 55.2689,-142.681 61.9996,-140.758"/>
<g id="a_edge4&#45;headlabel"><a xlink:href="dir_000004_000002.xhtml" target="_top" xlink:title="1">
<text text-anchor="middle" x="65.717" y="-140.934" font-family="Helvetica,sans-Serif" font-size="10.00">1</text>
</a>
</g>
</g>
<!-- dir_beaccb1e436ea0f3a34f2202b7e5f29d&#45;&gt;dir_71e3284cbba00b0db547557b8d5e42ce -->
<g id="edge5" class="edge"><title>dir_beaccb1e436ea0f3a34f2202b7e5f29d&#45;&gt;dir_71e3284cbba00b0db547557b8d5e42ce</title>
<path fill="none" stroke="black" d="M77.1439,-167.538C80.5252,-157.301 84.5252,-144.051 87,-132 91.196,-111.567 93.7405,-88.108 95.212,-70.406"/>
<polygon fill="black" stroke="black" points="98.7192,-70.445 95.9948,-60.2064 91.7397,-69.9093 98.7192,-70.445"/>
<g id="a_edge5&#45;headlabel"><a xlink:href="dir_000004_000006.xhtml" target="_top" xlink:title="3">
<text text-anchor="middle" x="101.275" y="-71.7463" font-family="Helvetica,sans-Serif" font-size="10.00">3</text>
</a>
</g>
</g>
<!-- dir_a0019b7b1bbada2dcec4a7407a44ad92 -->
<g id="node4" class="node"><title>dir_a0019b7b1bbada2dcec4a7407a44ad92</title>
<g id="a_node4"><a xlink:href="dir_a0019b7b1bbada2dcec4a7407a44ad92.xhtml" target="_top" xlink:title="StdLib">
<polygon fill="white" stroke="black" points="158,-276 104,-276 104,-240 158,-240 158,-276"/>
<text text-anchor="middle" x="131" y="-255.5" font-family="Helvetica,sans-Serif" font-size="10.00">StdLib</text>
</a>
</g>
</g>
<!-- dir_15dbf64d7f9e9589da7a7339d5165684 -->
<g id="node6" class="node"><title>dir_15dbf64d7f9e9589da7a7339d5165684</title>
<g id="a_node6"><a xlink:href="dir_15dbf64d7f9e9589da7a7339d5165684.xhtml" target="_top" xlink:title="Transform">
<polygon fill="white" stroke="red" points="85.5,-276 24.5,-276 24.5,-240 85.5,-240 85.5,-276"/>
<text text-anchor="middle" x="55" y="-255.5" font-family="Helvetica,sans-Serif" font-size="10.00">Transform</text>
</a>
</g>
</g>
<!-- dir_15dbf64d7f9e9589da7a7339d5165684&#45;&gt;dir_0d485057de6219ed9ee4637c6df38af1 -->
<g id="edge2" class="edge"><title>dir_15dbf64d7f9e9589da7a7339d5165684&#45;&gt;dir_0d485057de6219ed9ee4637c6df38af1</title>
<path fill="none" stroke="black" d="M46.6942,-239.788C42.2589,-229.634 37.2589,-216.384 35,-204 32.1289,-188.26 32.6629,-183.828 35,-168 36.2776,-159.347 38.6686,-150.149 41.2201,-141.887"/>
<polygon fill="black" stroke="black" points="44.5499,-142.965 44.3478,-132.372 37.8999,-140.779 44.5499,-142.965"/>
<g id="a_edge2&#45;headlabel"><a xlink:href="dir_000003_000002.xhtml" target="_top" xlink:title="8">
<text text-anchor="middle" x="46.1247" y="-144.766" font-family="Helvetica,sans-Serif" font-size="10.00">8</text>
</a>
</g>
</g>
<!-- dir_15dbf64d7f9e9589da7a7339d5165684&#45;&gt;dir_beaccb1e436ea0f3a34f2202b7e5f29d -->
<g id="edge1" class="edge"><title>dir_15dbf64d7f9e9589da7a7339d5165684&#45;&gt;dir_beaccb1e436ea0f3a34f2202b7e5f29d</title>
<path fill="none" stroke="black" d="M58.9551,-239.697C60.7182,-231.983 62.8372,-222.712 64.8029,-214.112"/>
<polygon fill="black" stroke="black" points="68.2741,-214.633 67.0904,-204.104 61.4501,-213.073 68.2741,-214.633"/>
<g id="a_edge1&#45;headlabel"><a xlink:href="dir_000003_000004.xhtml" target="_top" xlink:title="5">
<text text-anchor="middle" x="70.2411" y="-216.27" font-family="Helvetica,sans-Serif" font-size="10.00">5</text>
</a>
</g>
</g>
<!-- dir_15dbf64d7f9e9589da7a7339d5165684&#45;&gt;dir_71e3284cbba00b0db547557b8d5e42ce -->
<g id="edge3" class="edge"><title>dir_15dbf64d7f9e9589da7a7339d5165684&#45;&gt;dir_71e3284cbba00b0db547557b8d5e42ce</title>
<path fill="none" stroke="black" d="M78.7521,-239.91C89.5531,-230.651 101.197,-218.2 107,-204 125.067,-159.788 114.624,-103.031 105.639,-70.0644"/>
<polygon fill="black" stroke="black" points="108.941,-68.8841 102.811,-60.2431 102.215,-70.8212 108.941,-68.8841"/>
<g id="a_edge3&#45;headlabel"><a xlink:href="dir_000003_000006.xhtml" target="_top" xlink:title="13">
<text text-anchor="middle" x="112.664" y="-69.0527" font-family="Helvetica,sans-Serif" font-size="10.00">13</text>
</a>
</g>
</g>
</g>
</svg>
