<?xml version="1.0" encoding="UTF-8" standalone="no"?>
<!DOCTYPE svg PUBLIC "-//W3C//DTD SVG 1.1//EN"
 "http://www.w3.org/Graphics/SVG/1.1/DTD/svg11.dtd">
<!-- Generated by graphviz version 2.40.1 (20161225.0304)
 -->
<!-- Title: include/enfield Pages: 1 -->
<svg width="268pt" height="327pt"
 viewBox="0.00 0.00 268.00 327.00" xmlns="http://www.w3.org/2000/svg" xmlns:xlink="http://www.w3.org/1999/xlink">
<g id="graph0" class="graph" transform="scale(1 1) rotate(0) translate(4 323)">
<title>include/enfield</title>
<g id="clust1" class="cluster">
<title>clusterdir_d44c64559bbebec7f509842c48db8b23</title>
<g id="a_clust1"><a xlink:href="dir_d44c64559bbebec7f509842c48db8b23.xhtml" target="_top" xlink:title="include">
<polygon fill="#ddddee" stroke="#000000" points="8,-8 8,-311 252,-311 252,-8 8,-8"/>
<text text-anchor="middle" x="130" y="-299" font-family="Helvetica,sans-Serif" font-size="10.00" fill="#000000">include</text>
</a>
</g>
</g>
<g id="clust2" class="cluster">
<title>clusterdir_ca9ae9fc199b7939600155691e280c84</title>
<g id="a_clust2"><a xlink:href="dir_ca9ae9fc199b7939600155691e280c84.xhtml" target="_top">
<polygon fill="#eeeeff" stroke="#000000" points="16,-16 16,-284 244,-284 244,-16 16,-16"/>
</a>
</g>
</g>
<!-- dir_ca9ae9fc199b7939600155691e280c84 -->
<g id="node1" class="node">
<title>dir_ca9ae9fc199b7939600155691e280c84</title>
<text text-anchor="middle" x="209" y="-255.5" font-family="Helvetica,sans-Serif" font-size="10.00" fill="#000000">enfield</text>
</g>
<!-- dir_0d485057de6219ed9ee4637c6df38af1 -->
<g id="node2" class="node">
<title>dir_0d485057de6219ed9ee4637c6df38af1</title>
<g id="a_node2"><a xlink:href="dir_0d485057de6219ed9ee4637c6df38af1.xhtml" target="_top" xlink:title="Analysis">
<polygon fill="#ffffff" stroke="#000000" points="82,-132 24,-132 24,-96 82,-96 82,-132"/>
<text text-anchor="middle" x="53" y="-111.5" font-family="Helvetica,sans-Serif" font-size="10.00" fill="#000000">Analysis</text>
</a>
</g>
</g>
<!-- dir_71e3284cbba00b0db547557b8d5e42ce -->
<g id="node5" class="node">
<title>dir_71e3284cbba00b0db547557b8d5e42ce</title>
<g id="a_node5"><a xlink:href="dir_71e3284cbba00b0db547557b8d5e42ce.xhtml" target="_top" xlink:title="Support">
<polygon fill="#ffffff" stroke="#000000" points="128,-60 74,-60 74,-24 128,-24 128,-60"/>
<text text-anchor="middle" x="101" y="-39.5" font-family="Helvetica,sans-Serif" font-size="10.00" fill="#000000">Support</text>
</a>
</g>
</g>
<!-- dir_0d485057de6219ed9ee4637c6df38af1&#45;&gt;dir_71e3284cbba00b0db547557b8d5e42ce -->
<g id="edge6" class="edge">
<title>dir_0d485057de6219ed9ee4637c6df38af1&#45;&gt;dir_71e3284cbba00b0db547557b8d5e42ce</title>
<path fill="none" stroke="#000000" d="M65.1124,-95.8314C70.5281,-87.7079 77.0242,-77.9637 82.9921,-69.0118"/>
<polygon fill="#000000" stroke="#000000" points="86.0896,-70.6753 88.7245,-60.4133 80.2653,-66.7923 86.0896,-70.6753"/>
<g id="a_edge6&#45;headlabel"><a xlink:href="dir_000002_000006.xhtml" target="_top" xlink:title="2">
<text text-anchor="middle" x="86.4581" y="-72.7411" font-family="Helvetica,sans-Serif" font-size="10.00" fill="#000000">2</text>
</a>
</g>
</g>
<!-- dir_beaccb1e436ea0f3a34f2202b7e5f29d -->
<g id="node3" class="node">
<title>dir_beaccb1e436ea0f3a34f2202b7e5f29d</title>
<g id="a_node3"><a xlink:href="dir_beaccb1e436ea0f3a34f2202b7e5f29d.xhtml" target="_top" xlink:title="Arch">
<polygon fill="#ffffff" stroke="#000000" points="102,-204 48,-204 48,-168 102,-168 102,-204"/>
<text text-anchor="middle" x="75" y="-183.5" font-family="Helvetica,sans-Serif" font-size="10.00" fill="#000000">Arch</text>
</a>
</g>
</g>
<!-- dir_beaccb1e436ea0f3a34f2202b7e5f29d&#45;&gt;dir_0d485057de6219ed9ee4637c6df38af1 -->
<g id="edge4" class="edge">
<title>dir_beaccb1e436ea0f3a34f2202b7e5f29d&#45;&gt;dir_0d485057de6219ed9ee4637c6df38af1</title>
<path fill="none" stroke="#000000" d="M69.4485,-167.8314C67.0697,-160.0463 64.2362,-150.7729 61.5967,-142.1347"/>
<polygon fill="#000000" stroke="#000000" points="64.8958,-140.954 58.6263,-132.4133 58.2013,-142.9996 64.8958,-140.954"/>
<g id="a_edge4&#45;headlabel"><a xlink:href="dir_000004_000002.xhtml" target="_top" xlink:title="1">
<text text-anchor="middle" x="68.6614" y="-141.062" font-family="Helvetica,sans-Serif" font-size="10.00" fill="#000000">1</text>
</a>
</g>
</g>
<!-- dir_beaccb1e436ea0f3a34f2202b7e5f29d&#45;&gt;dir_71e3284cbba00b0db547557b8d5e42ce -->
<g id="edge5" class="edge">
<title>dir_beaccb1e436ea0f3a34f2202b7e5f29d&#45;&gt;dir_71e3284cbba00b0db547557b8d5e42ce</title>
<path fill="none" stroke="#000000" d="M81.3,-167.7096C84.646,-157.3462 88.5601,-144.0761 91,-132 95.1447,-111.4857 97.683,-87.9693 99.1647,-70.1205"/>
<polygon fill="#000000" stroke="#000000" points="102.6601,-70.314 99.9375,-60.075 95.6807,-69.777 102.6601,-70.314"/>
<g id="a_edge5&#45;headlabel"><a xlink:href="dir_000004_000006.xhtml" target="_top" xlink:title="3">
<text text-anchor="middle" x="105.2154" y="-71.6157" font-family="Helvetica,sans-Serif" font-size="10.00" fill="#000000">3</text>
</a>
</g>
</g>
<!-- dir_a0019b7b1bbada2dcec4a7407a44ad92 -->
<g id="node4" class="node">
<title>dir_a0019b7b1bbada2dcec4a7407a44ad92</title>
<g id="a_node4"><a xlink:href="dir_a0019b7b1bbada2dcec4a7407a44ad92.xhtml" target="_top" xlink:title="StdLib">
<polygon fill="#ffffff" stroke="#000000" points="164,-276 110,-276 110,-240 164,-240 164,-276"/>
<text text-anchor="middle" x="137" y="-255.5" font-family="Helvetica,sans-Serif" font-size="10.00" fill="#000000">StdLib</text>
</a>
</g>
</g>
<!-- dir_15dbf64d7f9e9589da7a7339d5165684 -->
<g id="node6" class="node">
<title>dir_15dbf64d7f9e9589da7a7339d5165684</title>
<g id="a_node6"><a xlink:href="dir_15dbf64d7f9e9589da7a7339d5165684.xhtml" target="_top" xlink:title="Transform">
<polygon fill="#ffffff" stroke="#ff0000" points="91.5,-276 24.5,-276 24.5,-240 91.5,-240 91.5,-276"/>
<text text-anchor="middle" x="58" y="-255.5" font-family="Helvetica,sans-Serif" font-size="10.00" fill="#000000">Transform</text>
</a>
</g>
</g>
<!-- dir_15dbf64d7f9e9589da7a7339d5165684&#45;&gt;dir_0d485057de6219ed9ee4637c6df38af1 -->
<g id="edge2" class="edge">
<title>dir_15dbf64d7f9e9589da7a7339d5165684&#45;&gt;dir_0d485057de6219ed9ee4637c6df38af1</title>
<path fill="none" stroke="#000000" d="M49.9083,-239.9165C45.7439,-229.6179 41.1082,-216.3436 39,-204 35.4616,-183.2824 39.3713,-159.817 43.9489,-142.0418"/>
<polygon fill="#000000" stroke="#000000" points="47.3514,-142.8703 46.6701,-132.2974 40.6094,-140.9875 47.3514,-142.8703"/>
<g id="a_edge2&#45;headlabel"><a xlink:href="dir_000003_000002.xhtml" target="_top" xlink:title="8">
<text text-anchor="middle" x="49.1193" y="-144.5961" font-family="Helvetica,sans-Serif" font-size="10.00" fill="#000000">8</text>
</a>
</g>
</g>
<!-- dir_15dbf64d7f9e9589da7a7339d5165684&#45;&gt;dir_beaccb1e436ea0f3a34f2202b7e5f29d -->
<g id="edge1" class="edge">
<title>dir_15dbf64d7f9e9589da7a7339d5165684&#45;&gt;dir_beaccb1e436ea0f3a34f2202b7e5f29d</title>
<path fill="none" stroke="#000000" d="M62.2898,-239.8314C64.108,-232.131 66.2699,-222.9743 68.2905,-214.4166"/>
<polygon fill="#000000" stroke="#000000" points="71.7608,-214.95 70.6524,-204.4133 64.9481,-213.3414 71.7608,-214.95"/>
<g id="a_edge1&#45;headlabel"><a xlink:href="dir_000003_000004.xhtml" target="_top" xlink:title="5">
<text text-anchor="middle" x="73.6981" y="-216.6008" font-family="Helvetica,sans-Serif" font-size="10.00" fill="#000000">5</text>
</a>
</g>
</g>
<!-- dir_15dbf64d7f9e9589da7a7339d5165684&#45;&gt;dir_71e3284cbba00b0db547557b8d5e42ce -->
<g id="edge3" class="edge">
<title>dir_15dbf64d7f9e9589da7a7339d5165684&#45;&gt;dir_71e3284cbba00b0db547557b8d5e42ce</title>
<path fill="none" stroke="#000000" d="M83.0428,-239.8695C93.812,-230.5148 105.2346,-218.105 111,-204 128.9904,-159.9869 118.92,-103.6127 109.9645,-70.2945"/>
<polygon fill="#000000" stroke="#000000" points="113.2336,-68.9941 107.133,-60.3319 106.5002,-70.9079 113.2336,-68.9941"/>
<g id="a_edge3&#45;headlabel"><a xlink:href="dir_000003_000006.xhtml" target="_top" xlink:title="14">
<text text-anchor="middle" x="116.9473" y="-69.1756" font-family="Helvetica,sans-Serif" font-size="10.00" fill="#000000">14</text>
</a>
</g>
</g>
</g>
</svg>
