<?xml version="1.0" encoding="UTF-8" standalone="no"?>
<!DOCTYPE svg PUBLIC "-//W3C//DTD SVG 1.1//EN"
 "http://www.w3.org/Graphics/SVG/1.1/DTD/svg11.dtd">
<!-- Generated by graphviz version 2.40.1 (20161225.0304)
 -->
<!-- Title: Graphical Class Hierarchy Pages: 1 -->
<svg width="284pt" height="66pt"
 viewBox="0.00 0.00 284.00 66.00" xmlns="http://www.w3.org/2000/svg" xmlns:xlink="http://www.w3.org/1999/xlink">
<g id="graph0" class="graph" transform="scale(1 1) rotate(0) translate(4 62)">
<title>Graphical Class Hierarchy</title>
<!-- Node0 -->
<g id="node1" class="node">
<title>Node0</title>
<g id="a_node1"><a xlink:href="d1/dad/classefd_1_1TokenSwapFinder.xhtml" target="_top" xlink:title="Interface for solving the Token Swap Problem. ">
<polygon fill="none" stroke="#000000" points="0,-19.5 0,-38.5 125,-38.5 125,-19.5 0,-19.5"/>
<text text-anchor="middle" x="62.5" y="-26.5" font-family="Helvetica,sans-Serif" font-size="10.00" fill="#000000">efd::TokenSwapFinder</text>
</a>
</g>
</g>
<!-- Node1 -->
<g id="node2" class="node">
<title>Node1</title>
<g id="a_node2"><a xlink:href="d4/dfd/classefd_1_1ApproxTSFinder.xhtml" target="_top" xlink:title="4&#45;Approximative polynomial algorithm. ">
<polygon fill="none" stroke="#000000" points="161,-38.5 161,-57.5 276,-57.5 276,-38.5 161,-38.5"/>
<text text-anchor="middle" x="218.5" y="-45.5" font-family="Helvetica,sans-Serif" font-size="10.00" fill="#000000">efd::ApproxTSFinder</text>
</a>
</g>
</g>
<!-- Node0&#45;&gt;Node1 -->
<g id="edge1" class="edge">
<title>Node0&#45;&gt;Node1</title>
<path fill="none" stroke="#191970" d="M135.1575,-37.8493C143.8221,-38.9046 152.5751,-39.9707 160.986,-40.9951"/>
<polygon fill="#191970" stroke="#191970" points="135.4021,-34.3533 125.0523,-36.6185 134.5558,-41.302 135.4021,-34.3533"/>
</g>
<!-- Node2 -->
<g id="node3" class="node">
<title>Node2</title>
<g id="a_node3"><a xlink:href="d1/d42/classefd_1_1ExpTSFinder.xhtml" target="_top" xlink:title="Brute force solution to the Token Swap Finder. ">
<polygon fill="none" stroke="#000000" points="169.5,-.5 169.5,-19.5 267.5,-19.5 267.5,-.5 169.5,-.5"/>
<text text-anchor="middle" x="218.5" y="-7.5" font-family="Helvetica,sans-Serif" font-size="10.00" fill="#000000">efd::ExpTSFinder</text>
</a>
</g>
</g>
<!-- Node0&#45;&gt;Node2 -->
<g id="edge2" class="edge">
<title>Node0&#45;&gt;Node2</title>
<path fill="none" stroke="#191970" d="M135.1696,-20.1492C146.758,-18.7378 158.504,-17.3072 169.3782,-15.9828"/>
<polygon fill="#191970" stroke="#191970" points="134.5558,-16.698 125.0523,-21.3815 135.4021,-23.6467 134.5558,-16.698"/>
</g>
</g>
</svg>
