<?xml version="1.0" encoding="UTF-8" standalone="no"?>
<!DOCTYPE svg PUBLIC "-//W3C//DTD SVG 1.1//EN"
 "http://www.w3.org/Graphics/SVG/1.1/DTD/svg11.dtd">
<!-- Generated by graphviz version 2.40.1 (20161225.0304)
 -->
<!-- Title: Graphical Class Hierarchy Pages: 1 -->
<svg width="506pt" height="66pt"
 viewBox="0.00 0.00 506.00 66.00" xmlns="http://www.w3.org/2000/svg" xmlns:xlink="http://www.w3.org/1999/xlink">
<g id="graph0" class="graph" transform="scale(1 1) rotate(0) translate(4 62)">
<title>Graphical Class Hierarchy</title>
<!-- Node0 -->
<g id="node1" class="node">
<title>Node0</title>
<g id="a_node1"><a xlink:href="d8/db9/classefd_1_1BitOptions.xhtml" target="_top" xlink:title="efd::BitOptions\&lt; Solution\lBuilderOptions, SolutionBuilder\lOptions::KeepStats \&gt;">
<polygon fill="none" stroke="#000000" points="0,-8.5 0,-49.5 169,-49.5 169,-8.5 0,-8.5"/>
<text text-anchor="start" x="8" y="-37.5" font-family="Helvetica,sans-Serif" font-size="10.00" fill="#000000">efd::BitOptions&lt; Solution</text>
<text text-anchor="start" x="8" y="-26.5" font-family="Helvetica,sans-Serif" font-size="10.00" fill="#000000">BuilderOptions, SolutionBuilder</text>
<text text-anchor="middle" x="84.5" y="-15.5" font-family="Helvetica,sans-Serif" font-size="10.00" fill="#000000">Options::KeepStats &gt;</text>
</a>
</g>
</g>
<!-- Node1 -->
<g id="node2" class="node">
<title>Node1</title>
<g id="a_node2"><a xlink:href="d7/d30/classefd_1_1SolutionBuilder.xhtml" target="_top" xlink:title="Interface for building the solution from an initial mapping. ">
<polygon fill="none" stroke="#000000" points="205,-19.5 205,-38.5 318,-38.5 318,-19.5 205,-19.5"/>
<text text-anchor="middle" x="261.5" y="-26.5" font-family="Helvetica,sans-Serif" font-size="10.00" fill="#000000">efd::SolutionBuilder</text>
</a>
</g>
</g>
<!-- Node0&#45;&gt;Node1 -->
<g id="edge1" class="edge">
<title>Node0&#45;&gt;Node1</title>
<path fill="none" stroke="#191970" d="M179.314,-29C187.9899,-29 196.5845,-29 204.7619,-29"/>
<polygon fill="#191970" stroke="#191970" points="179.112,-25.5001 169.112,-29 179.1119,-32.5001 179.112,-25.5001"/>
</g>
<!-- Node2 -->
<g id="node3" class="node">
<title>Node2</title>
<g id="a_node3"><a xlink:href="da/df7/classefd_1_1PathGuidedSolBuilder.xhtml" target="_top" xlink:title="Solves the dependencies by looking at the path in the graph. ">
<polygon fill="none" stroke="#000000" points="354,-38.5 354,-57.5 498,-57.5 498,-38.5 354,-38.5"/>
<text text-anchor="middle" x="426" y="-45.5" font-family="Helvetica,sans-Serif" font-size="10.00" fill="#000000">efd::PathGuidedSolBuilder</text>
</a>
</g>
</g>
<!-- Node1&#45;&gt;Node2 -->
<g id="edge2" class="edge">
<title>Node1&#45;&gt;Node2</title>
<path fill="none" stroke="#191970" d="M328.2672,-36.7117C336.7053,-37.6863 345.3689,-38.687 353.8853,-39.6706"/>
<polygon fill="#191970" stroke="#191970" points="328.4471,-33.2093 318.1116,-35.5387 327.6439,-40.1631 328.4471,-33.2093"/>
</g>
<!-- Node3 -->
<g id="node4" class="node">
<title>Node3</title>
<g id="a_node4"><a xlink:href="d2/d7c/classefd_1_1QbitterSolBuilder.xhtml" target="_top" xlink:title="Solves the dependencies using the &#39;long&#45;cnot&#39; gates. ">
<polygon fill="none" stroke="#000000" points="365,-.5 365,-19.5 487,-19.5 487,-.5 365,-.5"/>
<text text-anchor="middle" x="426" y="-7.5" font-family="Helvetica,sans-Serif" font-size="10.00" fill="#000000">efd::QbitterSolBuilder</text>
</a>
</g>
</g>
<!-- Node1&#45;&gt;Node3 -->
<g id="edge3" class="edge">
<title>Node1&#45;&gt;Node3</title>
<path fill="none" stroke="#191970" d="M328.1506,-21.3018C340.2618,-19.9029 352.8414,-18.4499 364.7865,-17.0703"/>
<polygon fill="#191970" stroke="#191970" points="327.6439,-17.8369 318.1116,-22.4613 328.4471,-24.7907 327.6439,-17.8369"/>
</g>
</g>
</svg>
