<?xml version="1.0" encoding="UTF-8" standalone="no"?>
<!DOCTYPE svg PUBLIC "-//W3C//DTD SVG 1.1//EN"
 "http://www.w3.org/Graphics/SVG/1.1/DTD/svg11.dtd">
<!-- Generated by graphviz version 2.40.1 (20161225.0304)
 -->
<!-- Title: Graphical Class Hierarchy Pages: 1 -->
<svg width="319pt" height="104pt"
 viewBox="0.00 0.00 319.00 104.00" xmlns="http://www.w3.org/2000/svg" xmlns:xlink="http://www.w3.org/1999/xlink">
<g id="graph0" class="graph" transform="scale(1 1) rotate(0) translate(4 100)">
<title>Graphical Class Hierarchy</title>
<!-- Node0 -->
<g id="node1" class="node">
<title>Node0</title>
<g id="a_node1"><a xlink:href="db/dde/classefd_1_1MappingFinder.xhtml" target="_top" xlink:title="Interface for finding a mapping from some set of dependencies. ">
<polygon fill="none" stroke="#000000" points="0,-38.5 0,-57.5 110,-57.5 110,-38.5 0,-38.5"/>
<text text-anchor="middle" x="55" y="-45.5" font-family="Helvetica,sans-Serif" font-size="10.00" fill="#000000">efd::MappingFinder</text>
</a>
</g>
</g>
<!-- Node1 -->
<g id="node2" class="node">
<title>Node1</title>
<g id="a_node2"><a xlink:href="d5/d24/classefd_1_1IdentityMappingFinder.xhtml" target="_top" xlink:title="Finds a mapping where the logical qubit 0 is mapped to the physical qubit 0, etc. ...">
<polygon fill="none" stroke="#000000" points="155,-76.5 155,-95.5 302,-95.5 302,-76.5 155,-76.5"/>
<text text-anchor="middle" x="228.5" y="-83.5" font-family="Helvetica,sans-Serif" font-size="10.00" fill="#000000">efd::IdentityMappingFinder</text>
</a>
</g>
</g>
<!-- Node0&#45;&gt;Node1 -->
<g id="edge1" class="edge">
<title>Node0&#45;&gt;Node1</title>
<path fill="none" stroke="#191970" d="M108.6598,-59.7526C133.1927,-65.1258 161.8787,-71.4086 185.0335,-76.4799"/>
<polygon fill="#191970" stroke="#191970" points="109.2987,-56.3096 98.7814,-57.589 107.801,-63.1475 109.2987,-56.3096"/>
</g>
<!-- Node2 -->
<g id="node3" class="node">
<title>Node2</title>
<g id="a_node3"><a xlink:href="dd/d03/classefd_1_1RandomMappingFinder.xhtml" target="_top" xlink:title="Randomizes the mapping. ">
<polygon fill="none" stroke="#000000" points="153.5,-38.5 153.5,-57.5 303.5,-57.5 303.5,-38.5 153.5,-38.5"/>
<text text-anchor="middle" x="228.5" y="-45.5" font-family="Helvetica,sans-Serif" font-size="10.00" fill="#000000">efd::RandomMappingFinder</text>
</a>
</g>
</g>
<!-- Node0&#45;&gt;Node2 -->
<g id="edge2" class="edge">
<title>Node0&#45;&gt;Node2</title>
<path fill="none" stroke="#191970" d="M120.5056,-48C131.2457,-48 142.4488,-48 153.3996,-48"/>
<polygon fill="#191970" stroke="#191970" points="120.3735,-44.5001 110.3735,-48 120.3735,-51.5001 120.3735,-44.5001"/>
</g>
<!-- Node3 -->
<g id="node4" class="node">
<title>Node3</title>
<g id="a_node4"><a xlink:href="d3/d4f/classefd_1_1WeightedSIMappingFinder.xhtml" target="_top" xlink:title="Finds a mapping with a weighted partial matching algorithm (subgraph isomorphism). ">
<polygon fill="none" stroke="#000000" points="146,-.5 146,-19.5 311,-19.5 311,-.5 146,-.5"/>
<text text-anchor="middle" x="228.5" y="-7.5" font-family="Helvetica,sans-Serif" font-size="10.00" fill="#000000">efd::WeightedSIMappingFinder</text>
</a>
</g>
</g>
<!-- Node0&#45;&gt;Node3 -->
<g id="edge3" class="edge">
<title>Node0&#45;&gt;Node3</title>
<path fill="none" stroke="#191970" d="M108.6598,-36.2474C133.1927,-30.8742 161.8787,-24.5914 185.0335,-19.5201"/>
<polygon fill="#191970" stroke="#191970" points="107.801,-32.8525 98.7814,-38.411 109.2987,-39.6904 107.801,-32.8525"/>
</g>
</g>
</svg>
