<?xml version="1.0" encoding="UTF-8" standalone="no"?>
<!DOCTYPE svg PUBLIC "-//W3C//DTD SVG 1.1//EN"
 "http://www.w3.org/Graphics/SVG/1.1/DTD/svg11.dtd">
<!-- Generated by graphviz version 2.38.0 (20140413.2041)
 -->
<!-- Title: efd::SemanticVerifierPass::run Pages: 1 -->
<svg width="641pt" height="553pt"
 viewBox="0.00 0.00 641.00 553.00" xmlns="http://www.w3.org/2000/svg" xmlns:xlink="http://www.w3.org/1999/xlink">
<g id="graph0" class="graph" transform="scale(1 1) rotate(0) translate(4 549)">
<title>efd::SemanticVerifierPass::run</title>
<!-- Node3 -->
<g id="node1" class="node"><title>Node3</title>
<polygon fill="#bfbfbf" stroke="black" points="0,-290.5 0,-309.5 150,-309.5 150,-290.5 0,-290.5"/>
<text text-anchor="middle" x="75" y="-297.5" font-family="Helvetica,sans-Serif" font-size="10.00">efd::SemanticVerifierPass::run</text>
</g>
<!-- Node4 -->
<g id="node2" class="node"><title>Node4</title>
<g id="a_node2"><a xlink:href="../../d6/d6a/classefd_1_1Node.xhtml#ab813c60af1717cf50e92a28b274c24ef" target="_top" xlink:title="Used by visitor classes. ">
<polygon fill="none" stroke="black" points="209.5,-525.5 209.5,-544.5 298.5,-544.5 298.5,-525.5 209.5,-525.5"/>
<text text-anchor="middle" x="254" y="-532.5" font-family="Helvetica,sans-Serif" font-size="10.00">efd::Node::apply</text>
</a>
</g>
</g>
<!-- Node3&#45;&gt;Node4 -->
<g id="edge1" class="edge"><title>Node3&#45;&gt;Node4</title>
<path fill="none" stroke="midnightblue" d="M78.0745,-309.945C85.7463,-344.188 115.782,-458.277 186,-516 190.098,-519.369 194.759,-522.141 199.67,-524.422"/>
<polygon fill="midnightblue" stroke="midnightblue" points="198.753,-527.822 209.34,-528.231 201.319,-521.309 198.753,-527.822"/>
</g>
<!-- Node5 -->
<g id="node3" class="node"><title>Node5</title>
<g id="a_node3"><a xlink:href="../../d0/d54/classefd_1_1CircuitGraph.xhtml#ad1dbcb28dda3121f795a74944927de4a" target="_top" xlink:title="Builds an iterator instance for this CircuitGraph. ">
<polygon fill="none" stroke="black" points="205.5,-476 205.5,-506 302.5,-506 302.5,-476 205.5,-476"/>
<text text-anchor="start" x="213.5" y="-494" font-family="Helvetica,sans-Serif" font-size="10.00">efd::CircuitGraph::</text>
<text text-anchor="middle" x="254" y="-483" font-family="Helvetica,sans-Serif" font-size="10.00">build_iterator</text>
</a>
</g>
</g>
<!-- Node3&#45;&gt;Node5 -->
<g id="edge2" class="edge"><title>Node3&#45;&gt;Node5</title>
<path fill="none" stroke="midnightblue" d="M79.8264,-309.874C91.3804,-338.432 128.681,-421.946 186,-467 189.134,-469.464 192.543,-471.687 196.107,-473.693"/>
<polygon fill="midnightblue" stroke="midnightblue" points="194.707,-476.906 205.218,-478.24 197.833,-470.643 194.707,-476.906"/>
</g>
<!-- Node7 -->
<g id="node5" class="node"><title>Node7</title>
<g id="a_node5"><a xlink:href="../../d5/de3/classefd_1_1InlineAllPass.xhtml#a39637a556c08bf458f9bf20812d11470" target="_top" xlink:title="Creates an instance of this pass. ">
<polygon fill="none" stroke="black" points="207.5,-427 207.5,-457 300.5,-457 300.5,-427 207.5,-427"/>
<text text-anchor="start" x="215.5" y="-445" font-family="Helvetica,sans-Serif" font-size="10.00">efd::InlineAllPass</text>
<text text-anchor="middle" x="254" y="-434" font-family="Helvetica,sans-Serif" font-size="10.00">::Create</text>
</a>
</g>
</g>
<!-- Node3&#45;&gt;Node7 -->
<g id="edge4" class="edge"><title>Node3&#45;&gt;Node7</title>
<path fill="none" stroke="midnightblue" d="M82.5881,-309.585C98.1354,-331.543 139.332,-385.977 186,-417 189.766,-419.503 193.816,-421.8 197.994,-423.899"/>
<polygon fill="midnightblue" stroke="midnightblue" points="196.736,-427.173 207.283,-428.18 199.666,-420.816 196.736,-427.173"/>
</g>
<!-- Node9 -->
<g id="node7" class="node"><title>Node9</title>
<g id="a_node7"><a xlink:href="../../d1/df9/classefd_1_1PassCache.xhtml#a8c54d0a438f35de5629ae78c886687a8" target="_top" xlink:title="Gets a shared pointer to the pass T run in qmod. If it does not exist, it tries to run...">
<polygon fill="none" stroke="black" points="199.5,-388.5 199.5,-407.5 308.5,-407.5 308.5,-388.5 199.5,-388.5"/>
<text text-anchor="middle" x="254" y="-395.5" font-family="Helvetica,sans-Serif" font-size="10.00">efd::PassCache::Get</text>
</a>
</g>
</g>
<!-- Node3&#45;&gt;Node9 -->
<g id="edge6" class="edge"><title>Node3&#45;&gt;Node9</title>
<path fill="none" stroke="midnightblue" d="M86.7339,-309.695C105.527,-326.19 146.19,-359.79 186,-379 190.711,-381.273 195.744,-383.321 200.854,-385.154"/>
<polygon fill="midnightblue" stroke="midnightblue" points="200.122,-388.598 210.715,-388.418 202.321,-381.953 200.122,-388.598"/>
</g>
<!-- Node10 -->
<g id="node8" class="node"><title>Node10</title>
<g id="a_node8"><a xlink:href="../../db/d56/classefd_1_1PassT.xhtml#aae3442c1486bcec7622a64451262d684" target="_top" xlink:title="efd::PassT::getData">
<polygon fill="none" stroke="black" points="201.5,-350.5 201.5,-369.5 306.5,-369.5 306.5,-350.5 201.5,-350.5"/>
<text text-anchor="middle" x="254" y="-357.5" font-family="Helvetica,sans-Serif" font-size="10.00">efd::PassT::getData</text>
</a>
</g>
</g>
<!-- Node3&#45;&gt;Node10 -->
<g id="edge7" class="edge"><title>Node3&#45;&gt;Node10</title>
<path fill="none" stroke="midnightblue" d="M99.8373,-309.518C121.987,-318.21 155.98,-331.166 186,-341 192.951,-343.277 200.359,-345.539 207.619,-347.666"/>
<polygon fill="midnightblue" stroke="midnightblue" points="206.794,-351.07 217.372,-350.471 208.729,-344.343 206.794,-351.07"/>
</g>
<!-- Node11 -->
<g id="node9" class="node"><title>Node11</title>
<g id="a_node9"><a xlink:href="../../d9/dbc/structefd_1_1CircuitGraph_1_1CircuitNode.xhtml#a05bee78f4954f7ac4bab2e16f99dc26c" target="_top" xlink:title="True if this node has reached the end (output node). ">
<polygon fill="none" stroke="black" points="499,-197 499,-227 633,-227 633,-197 499,-197"/>
<text text-anchor="start" x="507" y="-215" font-family="Helvetica,sans-Serif" font-size="10.00">efd::CircuitGraph::</text>
<text text-anchor="middle" x="566" y="-204" font-family="Helvetica,sans-Serif" font-size="10.00">CircuitNode::isOutputNode</text>
</a>
</g>
</g>
<!-- Node3&#45;&gt;Node11 -->
<g id="edge8" class="edge"><title>Node3&#45;&gt;Node11</title>
<path fill="none" stroke="midnightblue" d="M93.7132,-290.481C114.982,-279.518 152.045,-261.879 186,-253 288.641,-226.159 411.346,-216.856 488.741,-213.652"/>
<polygon fill="midnightblue" stroke="midnightblue" points="489.03,-217.144 498.886,-213.257 488.757,-210.149 489.03,-217.144"/>
</g>
<!-- Node12 -->
<g id="node10" class="node"><title>Node12</title>
<g id="a_node10"><a xlink:href="../../d7/d0b/classefd_1_1CircuitGraph_1_1Iterator.xhtml#af67b0dc3050162bf837a9b5c18fe27e3" target="_top" xlink:title="efd::CircuitGraph::\lIterator::operator[]">
<polygon fill="none" stroke="black" points="205.5,-263 205.5,-293 302.5,-293 302.5,-263 205.5,-263"/>
<text text-anchor="start" x="213.5" y="-281" font-family="Helvetica,sans-Serif" font-size="10.00">efd::CircuitGraph::</text>
<text text-anchor="middle" x="254" y="-270" font-family="Helvetica,sans-Serif" font-size="10.00">Iterator::operator[]</text>
</a>
</g>
</g>
<!-- Node3&#45;&gt;Node12 -->
<g id="edge9" class="edge"><title>Node3&#45;&gt;Node12</title>
<path fill="none" stroke="midnightblue" d="M150.038,-290.797C165.132,-288.921 180.802,-286.974 195.228,-285.181"/>
<polygon fill="midnightblue" stroke="midnightblue" points="195.995,-288.612 205.487,-283.906 195.132,-281.666 195.995,-288.612"/>
</g>
<!-- Node13 -->
<g id="node11" class="node"><title>Node13</title>
<g id="a_node11"><a xlink:href="../../d1/df9/classefd_1_1PassCache.xhtml#acb82213b8e43f26fdca8266be3cc4c7c" target="_top" xlink:title="Runs the pass T in qmod. ">
<polygon fill="none" stroke="black" points="198.5,-312.5 198.5,-331.5 309.5,-331.5 309.5,-312.5 198.5,-312.5"/>
<text text-anchor="middle" x="254" y="-319.5" font-family="Helvetica,sans-Serif" font-size="10.00">efd::PassCache::Run</text>
</a>
</g>
</g>
<!-- Node3&#45;&gt;Node13 -->
<g id="edge10" class="edge"><title>Node3&#45;&gt;Node13</title>
<path fill="none" stroke="midnightblue" d="M150.038,-309.203C162.694,-310.776 175.755,-312.399 188.148,-313.939"/>
<polygon fill="midnightblue" stroke="midnightblue" points="188.023,-317.451 198.378,-315.211 188.886,-310.504 188.023,-317.451"/>
</g>
<!-- Node15 -->
<g id="node13" class="node"><title>Node15</title>
<g id="a_node13"><a xlink:href="../../d2/de5/classefd_1_1SemanticVerifierVisitor.xhtml#af2e365593beb3100fac2c26a4d56395c" target="_top" xlink:title="efd::SemanticVerifierVisitor\l::SemanticVerifierVisitor">
<polygon fill="none" stroke="black" points="186,-175 186,-205 322,-205 322,-175 186,-175"/>
<text text-anchor="start" x="194" y="-193" font-family="Helvetica,sans-Serif" font-size="10.00">efd::SemanticVerifierVisitor</text>
<text text-anchor="middle" x="254" y="-182" font-family="Helvetica,sans-Serif" font-size="10.00">::SemanticVerifierVisitor</text>
</a>
</g>
</g>
<!-- Node3&#45;&gt;Node15 -->
<g id="edge12" class="edge"><title>Node3&#45;&gt;Node15</title>
<path fill="none" stroke="midnightblue" d="M87.6502,-290.264C107.146,-274.268 147.991,-242.01 186,-220 192.445,-216.268 199.439,-212.676 206.395,-209.356"/>
<polygon fill="midnightblue" stroke="midnightblue" points="208.194,-212.38 215.803,-205.008 205.257,-206.026 208.194,-212.38"/>
</g>
<!-- Node20 -->
<g id="node18" class="node"><title>Node20</title>
<g id="a_node18"><a xlink:href="../../d0/d54/classefd_1_1CircuitGraph.xhtml#af5bed18e4c713957e30e7c11d0995da1" target="_top" xlink:title="Returns the number of bits. ">
<polygon fill="none" stroke="black" points="196.5,-136.5 196.5,-155.5 311.5,-155.5 311.5,-136.5 196.5,-136.5"/>
<text text-anchor="middle" x="254" y="-143.5" font-family="Helvetica,sans-Serif" font-size="10.00">efd::CircuitGraph::size</text>
</a>
</g>
</g>
<!-- Node3&#45;&gt;Node20 -->
<g id="edge18" class="edge"><title>Node3&#45;&gt;Node20</title>
<path fill="none" stroke="midnightblue" d="M80.9943,-290.478C94.446,-265.782 133.964,-199.22 186,-165 189.113,-162.953 192.447,-161.124 195.904,-159.489"/>
<polygon fill="midnightblue" stroke="midnightblue" points="197.379,-162.666 205.274,-155.601 194.696,-156.201 197.379,-162.666"/>
</g>
<!-- Node21 -->
<g id="node19" class="node"><title>Node21</title>
<g id="a_node19"><a xlink:href="../../dd/d52/classefd_1_1QModule.xhtml#ac00e1eb93f94c00db1e6a661d8f95d9d" target="_top" xlink:title="Iterator to the beginning of the statement node vector. ">
<polygon fill="none" stroke="black" points="203.5,-75 203.5,-105 304.5,-105 304.5,-75 203.5,-75"/>
<text text-anchor="start" x="211.5" y="-93" font-family="Helvetica,sans-Serif" font-size="10.00">efd::QModule::stmt</text>
<text text-anchor="middle" x="254" y="-82" font-family="Helvetica,sans-Serif" font-size="10.00">_begin</text>
</a>
</g>
</g>
<!-- Node3&#45;&gt;Node21 -->
<g id="edge19" class="edge"><title>Node3&#45;&gt;Node21</title>
<path fill="none" stroke="midnightblue" d="M80.1035,-290.209C92.4085,-261.812 131.541,-178.193 186,-127 192.826,-120.584 200.973,-114.895 209.197,-110.021"/>
<polygon fill="midnightblue" stroke="midnightblue" points="211.066,-112.985 218.091,-105.054 207.654,-106.873 211.066,-112.985"/>
</g>
<!-- Node23 -->
<g id="node21" class="node"><title>Node23</title>
<g id="a_node21"><a xlink:href="../../dd/d52/classefd_1_1QModule.xhtml#a23d45e3b6c65d5fa14b199da8b0617c7" target="_top" xlink:title="Iterator to the end of the statement node vector. ">
<polygon fill="none" stroke="black" points="193,-12.5 193,-31.5 315,-31.5 315,-12.5 193,-12.5"/>
<text text-anchor="middle" x="254" y="-19.5" font-family="Helvetica,sans-Serif" font-size="10.00">efd::QModule::stmt_end</text>
</a>
</g>
</g>
<!-- Node3&#45;&gt;Node23 -->
<g id="edge21" class="edge"><title>Node3&#45;&gt;Node23</title>
<path fill="none" stroke="midnightblue" d="M78.3983,-290.421C87.346,-256.264 121.617,-138.555 186,-65 196.255,-53.2836 210.46,-43.5519 223.151,-36.3271"/>
<polygon fill="midnightblue" stroke="midnightblue" points="224.916,-39.352 232.047,-31.5168 221.586,-33.1945 224.916,-39.352"/>
</g>
<!-- Node6 -->
<g id="node4" class="node"><title>Node6</title>
<g id="a_node4"><a xlink:href="../../d0/d54/classefd_1_1CircuitGraph.xhtml#a3b7cd29688c62411a7e561599a1dcbcb" target="_top" xlink:title="Checks if the CircuitGraph is initialized. Exits with error if not. ">
<polygon fill="none" stroke="black" points="362,-476 362,-506 459,-506 459,-476 362,-476"/>
<text text-anchor="start" x="370" y="-494" font-family="Helvetica,sans-Serif" font-size="10.00">efd::CircuitGraph::</text>
<text text-anchor="middle" x="410.5" y="-483" font-family="Helvetica,sans-Serif" font-size="10.00">checkInitialized</text>
</a>
</g>
</g>
<!-- Node5&#45;&gt;Node6 -->
<g id="edge3" class="edge"><title>Node5&#45;&gt;Node6</title>
<path fill="none" stroke="midnightblue" d="M302.616,-491C318.035,-491 335.311,-491 351.403,-491"/>
<polygon fill="midnightblue" stroke="midnightblue" points="351.776,-494.5 361.776,-491 351.775,-487.5 351.776,-494.5"/>
</g>
<!-- Node8 -->
<g id="node6" class="node"><title>Node8</title>
<g id="a_node6"><a xlink:href="../../d5/de3/classefd_1_1InlineAllPass.xhtml#a2340ee3d5f41f90d53ed44ae63791481" target="_top" xlink:title="efd::InlineAllPass\l::InlineAllPass">
<polygon fill="none" stroke="black" points="364,-427 364,-457 457,-457 457,-427 364,-427"/>
<text text-anchor="start" x="372" y="-445" font-family="Helvetica,sans-Serif" font-size="10.00">efd::InlineAllPass</text>
<text text-anchor="middle" x="410.5" y="-434" font-family="Helvetica,sans-Serif" font-size="10.00">::InlineAllPass</text>
</a>
</g>
</g>
<!-- Node7&#45;&gt;Node8 -->
<g id="edge5" class="edge"><title>Node7&#45;&gt;Node8</title>
<path fill="none" stroke="midnightblue" d="M300.519,-442C317.187,-442 336.239,-442 353.703,-442"/>
<polygon fill="midnightblue" stroke="midnightblue" points="353.772,-445.5 363.772,-442 353.772,-438.5 353.772,-445.5"/>
</g>
<!-- Node14 -->
<g id="node12" class="node"><title>Node14</title>
<g id="a_node12"><a xlink:href="../../d0/d98/classefd_1_1Pass.xhtml#af58908c0fa0da625abd3d3588d7dd666" target="_top" xlink:title="Runs the pass in the given QModule and returns true if it has modified qmod. ">
<polygon fill="none" stroke="black" points="371.5,-312.5 371.5,-331.5 449.5,-331.5 449.5,-312.5 371.5,-312.5"/>
<text text-anchor="middle" x="410.5" y="-319.5" font-family="Helvetica,sans-Serif" font-size="10.00">efd::Pass::run</text>
</a>
</g>
</g>
<!-- Node13&#45;&gt;Node14 -->
<g id="edge11" class="edge"><title>Node13&#45;&gt;Node14</title>
<path fill="none" stroke="midnightblue" d="M309.906,-322C326.555,-322 344.719,-322 360.921,-322"/>
<polygon fill="midnightblue" stroke="midnightblue" points="361.25,-325.5 371.25,-322 361.25,-318.5 361.25,-325.5"/>
</g>
<!-- Node16 -->
<g id="node14" class="node"><title>Node16</title>
<g id="a_node14"><a xlink:href="../../db/d0c/structefd_1_1XbitToNumber.xhtml#ab395508705fe60ed3bd0cfb28eb5ffc6" target="_top" xlink:title="Returns the number of qbits in a given gate (if any). ">
<polygon fill="none" stroke="black" points="358,-77 358,-107 463,-107 463,-77 358,-77"/>
<text text-anchor="start" x="366" y="-95" font-family="Helvetica,sans-Serif" font-size="10.00">efd::XbitToNumber::</text>
<text text-anchor="middle" x="410.5" y="-84" font-family="Helvetica,sans-Serif" font-size="10.00">getQSize</text>
</a>
</g>
</g>
<!-- Node15&#45;&gt;Node16 -->
<g id="edge13" class="edge"><title>Node15&#45;&gt;Node16</title>
<path fill="none" stroke="midnightblue" d="M305.364,-174.925C311.251,-172.106 316.948,-168.818 322,-165 343.56,-148.707 337.1,-133.131 358,-116 359.516,-114.757 361.107,-113.563 362.753,-112.416"/>
<polygon fill="midnightblue" stroke="midnightblue" points="364.686,-115.336 371.335,-107.088 360.993,-109.389 364.686,-115.336"/>
</g>
<!-- Node18 -->
<g id="node16" class="node"><title>Node18</title>
<g id="a_node16"><a xlink:href="../../db/d0c/structefd_1_1XbitToNumber.xhtml#aee01f34943dd3c3afa794cb45815268f" target="_top" xlink:title="Returns the number of cbits in a given gate (if any). ">
<polygon fill="none" stroke="black" points="358,-126 358,-156 463,-156 463,-126 358,-126"/>
<text text-anchor="start" x="366" y="-144" font-family="Helvetica,sans-Serif" font-size="10.00">efd::XbitToNumber::</text>
<text text-anchor="middle" x="410.5" y="-133" font-family="Helvetica,sans-Serif" font-size="10.00">getCSize</text>
</a>
</g>
</g>
<!-- Node15&#45;&gt;Node18 -->
<g id="edge15" class="edge"><title>Node15&#45;&gt;Node18</title>
<path fill="none" stroke="midnightblue" d="M302.616,-174.899C318.255,-169.938 335.805,-164.373 352.092,-159.207"/>
<polygon fill="midnightblue" stroke="midnightblue" points="353.567,-162.411 362.041,-156.052 351.451,-155.739 353.567,-162.411"/>
</g>
<!-- Node19 -->
<g id="node17" class="node"><title>Node19</title>
<g id="a_node17"><a xlink:href="../../d7/d0b/classefd_1_1CircuitGraph_1_1Iterator.xhtml#aeee56d067ea9d2ef87f882279492a528" target="_top" xlink:title="efd::CircuitGraph::\lIterator::next">
<polygon fill="none" stroke="black" points="362,-175 362,-205 459,-205 459,-175 362,-175"/>
<text text-anchor="start" x="370" y="-193" font-family="Helvetica,sans-Serif" font-size="10.00">efd::CircuitGraph::</text>
<text text-anchor="middle" x="410.5" y="-182" font-family="Helvetica,sans-Serif" font-size="10.00">Iterator::next</text>
</a>
</g>
</g>
<!-- Node15&#45;&gt;Node19 -->
<g id="edge16" class="edge"><title>Node15&#45;&gt;Node19</title>
<path fill="none" stroke="midnightblue" d="M322.317,-190C332.11,-190 342.12,-190 351.704,-190"/>
<polygon fill="midnightblue" stroke="midnightblue" points="351.904,-193.5 361.904,-190 351.904,-186.5 351.904,-193.5"/>
</g>
<!-- Node17 -->
<g id="node15" class="node"><title>Node17</title>
<g id="a_node15"><a xlink:href="../../db/d0c/structefd_1_1XbitToNumber.xhtml#a7d9474b325920d98f5832d5f1923ba2b" target="_top" xlink:title="Gets a constant reference to the mapping of qubtis of a gate. ">
<polygon fill="none" stroke="black" points="513.5,-77 513.5,-107 618.5,-107 618.5,-77 513.5,-77"/>
<text text-anchor="start" x="521.5" y="-95" font-family="Helvetica,sans-Serif" font-size="10.00">efd::XbitToNumber::</text>
<text text-anchor="middle" x="566" y="-84" font-family="Helvetica,sans-Serif" font-size="10.00">getQbitMap</text>
</a>
</g>
</g>
<!-- Node16&#45;&gt;Node17 -->
<g id="edge14" class="edge"><title>Node16&#45;&gt;Node17</title>
<path fill="none" stroke="midnightblue" d="M463.04,-92C475.95,-92 489.929,-92 503.278,-92"/>
<polygon fill="midnightblue" stroke="midnightblue" points="503.334,-95.5001 513.334,-92 503.334,-88.5001 503.334,-95.5001"/>
</g>
<!-- Node19&#45;&gt;Node11 -->
<g id="edge17" class="edge"><title>Node19&#45;&gt;Node11</title>
<path fill="none" stroke="midnightblue" d="M459.227,-196.84C468.666,-198.193 478.792,-199.644 488.902,-201.093"/>
<polygon fill="midnightblue" stroke="midnightblue" points="488.586,-204.584 498.982,-202.538 489.579,-197.655 488.586,-204.584"/>
</g>
<!-- Node22 -->
<g id="node20" class="node"><title>Node22</title>
<g id="a_node20"><a xlink:href="../../d6/d6a/classefd_1_1Node.xhtml#ae890d36b0dcb332d82616b3180da1886" target="_top" xlink:title="Returns a iterator to the beginning of the vector. ">
<polygon fill="none" stroke="black" points="366,-38.5 366,-57.5 455,-57.5 455,-38.5 366,-38.5"/>
<text text-anchor="middle" x="410.5" y="-45.5" font-family="Helvetica,sans-Serif" font-size="10.00">efd::Node::begin</text>
</a>
</g>
</g>
<!-- Node21&#45;&gt;Node22 -->
<g id="edge20" class="edge"><title>Node21&#45;&gt;Node22</title>
<path fill="none" stroke="midnightblue" d="M304.735,-76.4797C324.027,-71.2354 345.952,-65.2751 364.742,-60.1673"/>
<polygon fill="midnightblue" stroke="midnightblue" points="365.803,-63.5058 374.535,-57.505 363.967,-56.7509 365.803,-63.5058"/>
</g>
<!-- Node24 -->
<g id="node22" class="node"><title>Node24</title>
<g id="a_node22"><a xlink:href="../../d6/d6a/classefd_1_1Node.xhtml#a335606078a1d727de214982453c9dd1b" target="_top" xlink:title="Returns a iterator to the end of the vector. ">
<polygon fill="none" stroke="black" points="370,-0.5 370,-19.5 451,-19.5 451,-0.5 370,-0.5"/>
<text text-anchor="middle" x="410.5" y="-7.5" font-family="Helvetica,sans-Serif" font-size="10.00">efd::Node::end</text>
</a>
</g>
</g>
<!-- Node23&#45;&gt;Node24 -->
<g id="edge22" class="edge"><title>Node23&#45;&gt;Node24</title>
<path fill="none" stroke="midnightblue" d="M315.176,-17.3261C329.903,-16.1823 345.501,-14.9708 359.682,-13.8693"/>
<polygon fill="midnightblue" stroke="midnightblue" points="360.026,-17.3533 369.725,-13.0893 359.484,-10.3743 360.026,-17.3533"/>
</g>
</g>
</svg>
