<?xml version="1.0" encoding="UTF-8" standalone="no"?>
<!DOCTYPE svg PUBLIC "-//W3C//DTD SVG 1.1//EN"
 "http://www.w3.org/Graphics/SVG/1.1/DTD/svg11.dtd">
<!-- Generated by graphviz version 2.38.0 (20140413.2041)
 -->
<!-- Title: efd::OptBase::~OptBase Pages: 1 -->
<svg width="446pt" height="28pt"
 viewBox="0.00 0.00 446.00 28.00" xmlns="http://www.w3.org/2000/svg" xmlns:xlink="http://www.w3.org/1999/xlink">
<g id="graph0" class="graph" transform="scale(1 1) rotate(0) translate(4 24)">
<title>efd::OptBase::~OptBase</title>
<!-- Node3 -->
<g id="node1" class="node"><title>Node3</title>
<polygon fill="#bfbfbf" stroke="black" points="0,-0.5 0,-19.5 125,-19.5 125,-0.5 0,-0.5"/>
<text text-anchor="middle" x="62.5" y="-7.5" font-family="Helvetica,sans-Serif" font-size="10.00">efd::OptBase::~OptBase</text>
</g>
<!-- Node4 -->
<g id="node2" class="node"><title>Node4</title>
<g id="a_node2"><a xlink:href="../../d8/d9c/classefd_1_1ArgsParser.xhtml#ab6f5326548208fc577be9c14a9f2d5b6" target="_top" xlink:title="efd::ArgsParser::delOpt">
<polygon fill="none" stroke="black" points="161,-0.5 161,-19.5 280,-19.5 280,-0.5 161,-0.5"/>
<text text-anchor="middle" x="220.5" y="-7.5" font-family="Helvetica,sans-Serif" font-size="10.00">efd::ArgsParser::delOpt</text>
</a>
</g>
</g>
<!-- Node3&#45;&gt;Node4 -->
<g id="edge1" class="edge"><title>Node3&#45;&gt;Node4</title>
<path fill="none" stroke="midnightblue" d="M125.155,-10C133.511,-10 142.128,-10 150.601,-10"/>
<polygon fill="midnightblue" stroke="midnightblue" points="150.836,-13.5001 160.836,-10 150.836,-6.5001 150.836,-13.5001"/>
</g>
<!-- Node5 -->
<g id="node3" class="node"><title>Node5</title>
<g id="a_node3"><a xlink:href="../../d8/d9c/classefd_1_1ArgsParser.xhtml#a5e4e228dd275d0b5c1eca330f71e0c0b" target="_top" xlink:title="efd::ArgsParser::hasOpt">
<polygon fill="none" stroke="black" points="316,-0.5 316,-19.5 438,-19.5 438,-0.5 316,-0.5"/>
<text text-anchor="middle" x="377" y="-7.5" font-family="Helvetica,sans-Serif" font-size="10.00">efd::ArgsParser::hasOpt</text>
</a>
</g>
</g>
<!-- Node4&#45;&gt;Node5 -->
<g id="edge2" class="edge"><title>Node4&#45;&gt;Node5</title>
<path fill="none" stroke="midnightblue" d="M280.351,-10C288.596,-10 297.138,-10 305.571,-10"/>
<polygon fill="midnightblue" stroke="midnightblue" points="305.775,-13.5001 315.775,-10 305.775,-6.5001 305.775,-13.5001"/>
</g>
</g>
</svg>
