<?xml version="1.0" encoding="UTF-8" standalone="no"?>
<!DOCTYPE svg PUBLIC "-//W3C//DTD SVG 1.1//EN"
 "http://www.w3.org/Graphics/SVG/1.1/DTD/svg11.dtd">
<!-- Generated by graphviz version 2.38.0 (20140413.2041)
 -->
<!-- Title: efd::NDList Pages: 1 -->
<svg width="129pt" height="85pt"
 viewBox="0.00 0.00 129.00 85.00" xmlns="http://www.w3.org/2000/svg" xmlns:xlink="http://www.w3.org/1999/xlink">
<g id="graph0" class="graph" transform="scale(1 1) rotate(0) translate(4 81)">
<title>efd::NDList</title>
<!-- Node4 -->
<g id="node1" class="node"><title>Node4</title>
<polygon fill="#bfbfbf" stroke="black" points="0,-0.5 0,-19.5 67,-19.5 67,-0.5 0,-0.5"/>
<text text-anchor="middle" x="33.5" y="-7.5" font-family="Helvetica,sans-Serif" font-size="10.00">efd::NDList</text>
</g>
<!-- Node5 -->
<g id="node2" class="node"><title>Node5</title>
<g id="a_node2"><a xlink:href="../../d6/d6a/classefd_1_1Node.xhtml" target="_top" xlink:title="Base class for AST nodes. ">
<polygon fill="none" stroke="black" points="4,-57.5 4,-76.5 63,-76.5 63,-57.5 4,-57.5"/>
<text text-anchor="middle" x="33.5" y="-64.5" font-family="Helvetica,sans-Serif" font-size="10.00">efd::Node</text>
</a>
</g>
</g>
<!-- Node5&#45;&gt;Node4 -->
<g id="edge1" class="edge"><title>Node5&#45;&gt;Node4</title>
<path fill="none" stroke="midnightblue" d="M33.5,-47.1166C33.5,-37.8173 33.5,-27.0557 33.5,-19.7149"/>
<polygon fill="midnightblue" stroke="midnightblue" points="30.0001,-47.4062 33.5,-57.4062 37.0001,-47.4063 30.0001,-47.4062"/>
</g>
<!-- Node5&#45;&gt;Node5 -->
<g id="edge2" class="edge"><title>Node5&#45;&gt;Node5</title>
<path fill="none" stroke="#9a32cd" stroke-dasharray="5,2" d="M73.1722,-71.5117C77.9076,-70.6914 81,-69.1875 81,-67 81,-63.5 73.0833,-61.75 63.1875,-61.75"/>
<polygon fill="#9a32cd" stroke="#9a32cd" points="72.9022,-68.022 63.1875,-72.25 73.4184,-75.003 72.9022,-68.022"/>
<text text-anchor="middle" x="101" y="-64.5" font-family="Helvetica,sans-Serif" font-size="10.00"> mParent</text>
</g>
</g>
</svg>
