<?xml version="1.0" encoding="UTF-8" standalone="no"?>
<!DOCTYPE svg PUBLIC "-//W3C//DTD SVG 1.1//EN"
 "http://www.w3.org/Graphics/SVG/1.1/DTD/svg11.dtd">
<!-- Generated by graphviz version 2.38.0 (20140413.2041)
 -->
<!-- Title: efd::LayersBuilderPass Pages: 1 -->
<svg width="159pt" height="219pt"
 viewBox="0.00 0.00 158.50 219.00" xmlns="http://www.w3.org/2000/svg" xmlns:xlink="http://www.w3.org/1999/xlink">
<g id="graph0" class="graph" transform="scale(1 1) rotate(0) translate(4 215)">
<title>efd::LayersBuilderPass</title>
<!-- Node4 -->
<g id="node1" class="node"><title>Node4</title>
<polygon fill="#bfbfbf" stroke="black" points="0,-0.5 0,-19.5 118,-19.5 118,-0.5 0,-0.5"/>
<text text-anchor="middle" x="59" y="-7.5" font-family="Helvetica,sans-Serif" font-size="10.00">efd::LayersBuilderPass</text>
</g>
<!-- Node5 -->
<g id="node2" class="node"><title>Node5</title>
<g id="a_node2"><a xlink:href="../../db/d56/classefd_1_1PassT.xhtml" target="_top" xlink:title="efd::PassT\&lt; Layers \&gt;">
<polygon fill="none" stroke="black" points="3,-57.5 3,-76.5 115,-76.5 115,-57.5 3,-57.5"/>
<text text-anchor="middle" x="59" y="-64.5" font-family="Helvetica,sans-Serif" font-size="10.00">efd::PassT&lt; Layers &gt;</text>
</a>
</g>
</g>
<!-- Node5&#45;&gt;Node4 -->
<g id="edge1" class="edge"><title>Node5&#45;&gt;Node4</title>
<path fill="none" stroke="midnightblue" d="M59,-47.1166C59,-37.8173 59,-27.0557 59,-19.7149"/>
<polygon fill="midnightblue" stroke="midnightblue" points="55.5001,-47.4062 59,-57.4062 62.5001,-47.4063 55.5001,-47.4062"/>
</g>
<!-- Node6 -->
<g id="node3" class="node"><title>Node6</title>
<g id="a_node3"><a xlink:href="../../d0/d98/classefd_1_1Pass.xhtml" target="_top" xlink:title="Base class for implementation of QModule passes. This information will be used when the QModule&#39;s fun...">
<polygon fill="none" stroke="black" points="9.5,-191.5 9.5,-210.5 68.5,-210.5 68.5,-191.5 9.5,-191.5"/>
<text text-anchor="middle" x="39" y="-198.5" font-family="Helvetica,sans-Serif" font-size="10.00">efd::Pass</text>
</a>
</g>
</g>
<!-- Node6&#45;&gt;Node5 -->
<g id="edge2" class="edge"><title>Node6&#45;&gt;Node5</title>
<path fill="none" stroke="midnightblue" d="M41.8371,-181.275C46.2354,-152.246 54.5245,-97.5381 57.7089,-76.5212"/>
<polygon fill="midnightblue" stroke="midnightblue" points="38.3499,-180.928 40.3123,-191.339 45.2709,-181.976 38.3499,-180.928"/>
</g>
<!-- Node7 -->
<g id="node4" class="node"><title>Node7</title>
<g id="a_node4"><a xlink:href="../../db/d56/classefd_1_1PassT.xhtml" target="_top" xlink:title="Should serve as base class for classes that produces some data of type T. ">
<polygon fill="none" stroke="black" points="61.5,-124.5 61.5,-143.5 150.5,-143.5 150.5,-124.5 61.5,-124.5"/>
<text text-anchor="middle" x="106" y="-131.5" font-family="Helvetica,sans-Serif" font-size="10.00">efd::PassT&lt; T &gt;</text>
</a>
</g>
</g>
<!-- Node6&#45;&gt;Node7 -->
<g id="edge4" class="edge"><title>Node6&#45;&gt;Node7</title>
<path fill="none" stroke="midnightblue" d="M55.4956,-183.997C68.635,-171.25 86.5239,-153.895 97.1072,-143.627"/>
<polygon fill="midnightblue" stroke="midnightblue" points="52.7762,-181.759 48.0359,-191.234 57.6504,-186.783 52.7762,-181.759"/>
</g>
<!-- Node7&#45;&gt;Node5 -->
<g id="edge3" class="edge"><title>Node7&#45;&gt;Node5</title>
<path fill="none" stroke="orange" stroke-dasharray="5,2" d="M93.6381,-115.904C84.505,-103.273 72.4522,-86.6041 65.2382,-76.6273"/>
<polygon fill="orange" stroke="orange" points="90.9656,-118.181 99.6614,-124.234 96.6381,-114.079 90.9656,-118.181"/>
<text text-anchor="middle" x="111.5" y="-98" font-family="Helvetica,sans-Serif" font-size="10.00"> &lt; Layers &gt;</text>
</g>
<!-- Node8 -->
<g id="node5" class="node"><title>Node8</title>
<polygon fill="none" stroke="#bfbfbf" points="91.5,-191.5 91.5,-210.5 120.5,-210.5 120.5,-191.5 91.5,-191.5"/>
<text text-anchor="middle" x="106" y="-198.5" font-family="Helvetica,sans-Serif" font-size="10.00">T</text>
</g>
<!-- Node8&#45;&gt;Node7 -->
<g id="edge5" class="edge"><title>Node8&#45;&gt;Node7</title>
<path fill="none" stroke="#9a32cd" stroke-dasharray="5,2" d="M106,-181.037C106,-168.67 106,-153.12 106,-143.627"/>
<polygon fill="#9a32cd" stroke="#9a32cd" points="102.5,-181.234 106,-191.234 109.5,-181.234 102.5,-181.234"/>
<text text-anchor="middle" x="122.5" y="-165" font-family="Helvetica,sans-Serif" font-size="10.00"> mData</text>
</g>
</g>
</svg>
