<?xml version="1.0" encoding="UTF-8" standalone="no"?>
<!DOCTYPE svg PUBLIC "-//W3C//DTD SVG 1.1//EN"
 "http://www.w3.org/Graphics/SVG/1.1/DTD/svg11.dtd">
<!-- Generated by graphviz version 2.38.0 (20140413.2041)
 -->
<!-- Title: lib/Transform/Allocators/DepSolverQAllocator.cpp Pages: 1 -->
<svg width="1415pt" height="531pt"
 viewBox="0.00 0.00 1415.06 531.00" xmlns="http://www.w3.org/2000/svg" xmlns:xlink="http://www.w3.org/1999/xlink">
<g id="graph0" class="graph" transform="scale(1 1) rotate(0) translate(4 527)">
<title>lib/Transform/Allocators/DepSolverQAllocator.cpp</title>
<!-- Node0 -->
<g id="node1" class="node"><title>Node0</title>
<polygon fill="#bfbfbf" stroke="black" points="593,-492.5 593,-522.5 723,-522.5 723,-492.5 593,-492.5"/>
<text text-anchor="start" x="601" y="-510.5" font-family="Helvetica,sans-Serif" font-size="10.00">lib/Transform/Allocators</text>
<text text-anchor="middle" x="658" y="-499.5" font-family="Helvetica,sans-Serif" font-size="10.00">/DepSolverQAllocator.cpp</text>
</g>
<!-- Node1 -->
<g id="node2" class="node"><title>Node1</title>
<g id="a_node2"><a xlink:href="../../d5/db1/DepSolverQAllocator_8h.xhtml" target="_top" xlink:title="enfield/Transform/Allocators\l/DepSolverQAllocator.h">
<polygon fill="none" stroke="black" points="491.5,-425.5 491.5,-455.5 630.5,-455.5 630.5,-425.5 491.5,-425.5"/>
<text text-anchor="start" x="499.5" y="-443.5" font-family="Helvetica,sans-Serif" font-size="10.00">enfield/Transform/Allocators</text>
<text text-anchor="middle" x="561" y="-432.5" font-family="Helvetica,sans-Serif" font-size="10.00">/DepSolverQAllocator.h</text>
</a>
</g>
</g>
<!-- Node0&#45;&gt;Node1 -->
<g id="edge1" class="edge"><title>Node0&#45;&gt;Node1</title>
<path fill="none" stroke="midnightblue" d="M636.952,-492.396C623.352,-483.282 605.456,-471.29 590.452,-461.236"/>
<polygon fill="midnightblue" stroke="midnightblue" points="592.262,-458.236 582.006,-455.577 588.365,-464.051 592.262,-458.236"/>
</g>
<!-- Node31 -->
<g id="node32" class="node"><title>Node31</title>
<g id="a_node32"><a xlink:href="../../db/d82/PassCache_8h.xhtml" target="_top" xlink:title="enfield/Transform/PassCache.h">
<polygon fill="none" stroke="black" points="676.5,-230 676.5,-249 831.5,-249 831.5,-230 676.5,-230"/>
<text text-anchor="middle" x="754" y="-237" font-family="Helvetica,sans-Serif" font-size="10.00">enfield/Transform/PassCache.h</text>
</a>
</g>
</g>
<!-- Node0&#45;&gt;Node31 -->
<g id="edge56" class="edge"><title>Node0&#45;&gt;Node31</title>
<path fill="none" stroke="midnightblue" d="M663.161,-492.199C679.416,-447.159 729.534,-308.29 747.504,-258.498"/>
<polygon fill="midnightblue" stroke="midnightblue" points="750.812,-259.643 750.915,-249.049 744.228,-257.267 750.812,-259.643"/>
</g>
<!-- Node2 -->
<g id="node3" class="node"><title>Node2</title>
<g id="a_node3"><a xlink:href="../../dd/d3b/QbitAllocator_8h.xhtml" target="_top" xlink:title="enfield/Transform/Allocators\l/QbitAllocator.h">
<polygon fill="none" stroke="black" points="443.5,-358.5 443.5,-388.5 582.5,-388.5 582.5,-358.5 443.5,-358.5"/>
<text text-anchor="start" x="451.5" y="-376.5" font-family="Helvetica,sans-Serif" font-size="10.00">enfield/Transform/Allocators</text>
<text text-anchor="middle" x="513" y="-365.5" font-family="Helvetica,sans-Serif" font-size="10.00">/QbitAllocator.h</text>
</a>
</g>
</g>
<!-- Node1&#45;&gt;Node2 -->
<g id="edge2" class="edge"><title>Node1&#45;&gt;Node2</title>
<path fill="none" stroke="midnightblue" d="M550.585,-425.396C544.421,-417.049 536.474,-406.287 529.476,-396.811"/>
<polygon fill="midnightblue" stroke="midnightblue" points="532.151,-394.542 523.395,-388.577 526.52,-398.7 532.151,-394.542"/>
</g>
<!-- Node3 -->
<g id="node4" class="node"><title>Node3</title>
<g id="a_node4"><a xlink:href="../../d7/d9d/ArchGraph_8h.xhtml" target="_top" xlink:title="enfield/Arch/ArchGraph.h">
<polygon fill="none" stroke="black" points="241,-297 241,-316 367,-316 367,-297 241,-297"/>
<text text-anchor="middle" x="304" y="-304" font-family="Helvetica,sans-Serif" font-size="10.00">enfield/Arch/ArchGraph.h</text>
</a>
</g>
</g>
<!-- Node2&#45;&gt;Node3 -->
<g id="edge3" class="edge"><title>Node2&#45;&gt;Node3</title>
<path fill="none" stroke="midnightblue" d="M467.907,-358.476C430.118,-346.723 376.807,-330.143 341.364,-319.12"/>
<polygon fill="midnightblue" stroke="midnightblue" points="342.011,-315.656 331.423,-316.029 339.932,-322.341 342.011,-315.656"/>
</g>
<!-- Node15 -->
<g id="node16" class="node"><title>Node15</title>
<g id="a_node16"><a xlink:href="../../d9/dcf/DependencyBuilderPass_8h.xhtml" target="_top" xlink:title="enfield/Transform/Dependency\lBuilderPass.h">
<polygon fill="none" stroke="black" points="438,-291.5 438,-321.5 588,-321.5 588,-291.5 438,-291.5"/>
<text text-anchor="start" x="446" y="-309.5" font-family="Helvetica,sans-Serif" font-size="10.00">enfield/Transform/Dependency</text>
<text text-anchor="middle" x="513" y="-298.5" font-family="Helvetica,sans-Serif" font-size="10.00">BuilderPass.h</text>
</a>
</g>
</g>
<!-- Node2&#45;&gt;Node15 -->
<g id="edge17" class="edge"><title>Node2&#45;&gt;Node15</title>
<path fill="none" stroke="midnightblue" d="M513,-358.396C513,-350.645 513,-340.812 513,-331.86"/>
<polygon fill="midnightblue" stroke="midnightblue" points="516.5,-331.576 513,-321.577 509.5,-331.577 516.5,-331.576"/>
</g>
<!-- Node20 -->
<g id="node21" class="node"><title>Node20</title>
<g id="a_node21"><a xlink:href="../../d9/d41/CommandLine_8h.xhtml" target="_top" xlink:title="enfield/Support/CommandLine.h">
<polygon fill="none" stroke="black" points="973,-297 973,-316 1129,-316 1129,-297 973,-297"/>
<text text-anchor="middle" x="1051" y="-304" font-family="Helvetica,sans-Serif" font-size="10.00">enfield/Support/CommandLine.h</text>
</a>
</g>
</g>
<!-- Node2&#45;&gt;Node20 -->
<g id="edge37" class="edge"><title>Node2&#45;&gt;Node20</title>
<path fill="none" stroke="midnightblue" d="M582.507,-364.102C682.123,-352.067 865.066,-329.964 970.454,-317.231"/>
<polygon fill="midnightblue" stroke="midnightblue" points="970.898,-320.703 980.406,-316.029 970.058,-313.754 970.898,-320.703"/>
</g>
<!-- Node30 -->
<g id="node31" class="node"><title>Node30</title>
<g id="a_node31"><a xlink:href="../../dc/d09/Stats_8h.xhtml" target="_top" xlink:title="enfield/Support/Stats.h">
<polygon fill="none" stroke="black" points="0,-112.5 0,-131.5 116,-131.5 116,-112.5 0,-112.5"/>
<text text-anchor="middle" x="58" y="-119.5" font-family="Helvetica,sans-Serif" font-size="10.00">enfield/Support/Stats.h</text>
</a>
</g>
</g>
<!-- Node2&#45;&gt;Node30 -->
<g id="edge53" class="edge"><title>Node2&#45;&gt;Node30</title>
<path fill="none" stroke="midnightblue" d="M443.426,-372.617C383.765,-369.886 297.35,-358.99 232,-322 151.736,-276.568 90.2594,-179.828 67.5378,-140.336"/>
<polygon fill="midnightblue" stroke="midnightblue" points="70.5692,-138.586 62.6082,-131.595 64.472,-142.024 70.5692,-138.586"/>
</g>
<!-- Node4 -->
<g id="node5" class="node"><title>Node4</title>
<g id="a_node5"><a xlink:href="../../d7/d16/Graph_8h.xhtml" target="_top" xlink:title="enfield/Support/Graph.h">
<polygon fill="none" stroke="black" points="244.5,-230 244.5,-249 363.5,-249 363.5,-230 244.5,-230"/>
<text text-anchor="middle" x="304" y="-237" font-family="Helvetica,sans-Serif" font-size="10.00">enfield/Support/Graph.h</text>
</a>
</g>
</g>
<!-- Node3&#45;&gt;Node4 -->
<g id="edge4" class="edge"><title>Node3&#45;&gt;Node4</title>
<path fill="none" stroke="midnightblue" d="M304,-296.734C304,-287.183 304,-271.618 304,-259.283"/>
<polygon fill="midnightblue" stroke="midnightblue" points="307.5,-259.127 304,-249.127 300.5,-259.127 307.5,-259.127"/>
</g>
<!-- Node9 -->
<g id="node10" class="node"><title>Node9</title>
<g id="a_node10"><a xlink:href="../../d4/daf/Nodes_8h.xhtml" target="_top" xlink:title="enfield/Analysis/Nodes.h">
<polygon fill="none" stroke="black" points="134.5,-112.5 134.5,-131.5 259.5,-131.5 259.5,-112.5 134.5,-112.5"/>
<text text-anchor="middle" x="197" y="-119.5" font-family="Helvetica,sans-Serif" font-size="10.00">enfield/Analysis/Nodes.h</text>
</a>
</g>
</g>
<!-- Node3&#45;&gt;Node9 -->
<g id="edge9" class="edge"><title>Node3&#45;&gt;Node9</title>
<path fill="none" stroke="midnightblue" d="M265.621,-296.927C243.051,-289.735 216.227,-276.979 202,-255 179.438,-220.144 186.289,-168.565 192.234,-141.353"/>
<polygon fill="midnightblue" stroke="midnightblue" points="195.644,-142.14 194.56,-131.601 188.835,-140.516 195.644,-142.14"/>
</g>
<!-- Node5 -->
<g id="node6" class="node"><title>Node5</title>
<polygon fill="none" stroke="#bfbfbf" points="408,-168.5 408,-187.5 438,-187.5 438,-168.5 408,-168.5"/>
<text text-anchor="middle" x="423" y="-175.5" font-family="Helvetica,sans-Serif" font-size="10.00">set</text>
</g>
<!-- Node4&#45;&gt;Node5 -->
<g id="edge5" class="edge"><title>Node4&#45;&gt;Node5</title>
<path fill="none" stroke="midnightblue" d="M321.05,-229.975C341.406,-219.797 375.595,-202.702 398.71,-191.145"/>
<polygon fill="midnightblue" stroke="midnightblue" points="400.487,-194.17 407.866,-186.567 397.357,-187.909 400.487,-194.17"/>
</g>
<!-- Node6 -->
<g id="node7" class="node"><title>Node6</title>
<polygon fill="none" stroke="#bfbfbf" points="888,-56.5 888,-75.5 932,-75.5 932,-56.5 888,-56.5"/>
<text text-anchor="middle" x="910" y="-63.5" font-family="Helvetica,sans-Serif" font-size="10.00">vector</text>
</g>
<!-- Node4&#45;&gt;Node6 -->
<g id="edge6" class="edge"><title>Node4&#45;&gt;Node6</title>
<path fill="none" stroke="midnightblue" d="M306.989,-229.91C312.21,-215.799 324.072,-187.351 341,-168 369.337,-135.608 379.633,-126.924 420,-112 504.483,-80.7668 782.259,-70.4552 877.565,-67.7904"/>
<polygon fill="midnightblue" stroke="midnightblue" points="877.848,-71.2841 887.75,-67.5156 877.659,-64.2867 877.848,-71.2841"/>
</g>
<!-- Node7 -->
<g id="node8" class="node"><title>Node7</title>
<polygon fill="none" stroke="#bfbfbf" points="429.5,-112.5 429.5,-131.5 512.5,-131.5 512.5,-112.5 429.5,-112.5"/>
<text text-anchor="middle" x="471" y="-119.5" font-family="Helvetica,sans-Serif" font-size="10.00">unordered_map</text>
</g>
<!-- Node4&#45;&gt;Node7 -->
<g id="edge7" class="edge"><title>Node4&#45;&gt;Node7</title>
<path fill="none" stroke="midnightblue" d="M309.866,-229.56C319.846,-214.946 341.453,-185.792 366,-168 386.101,-153.431 411.649,-142.35 432.511,-134.83"/>
<polygon fill="midnightblue" stroke="midnightblue" points="433.731,-138.111 442.03,-131.525 431.435,-131.499 433.731,-138.111"/>
</g>
<!-- Node8 -->
<g id="node9" class="node"><title>Node8</title>
<polygon fill="none" stroke="#bfbfbf" points="491,-56.5 491,-75.5 543,-75.5 543,-56.5 491,-56.5"/>
<text text-anchor="middle" x="517" y="-63.5" font-family="Helvetica,sans-Serif" font-size="10.00">memory</text>
</g>
<!-- Node4&#45;&gt;Node8 -->
<g id="edge8" class="edge"><title>Node4&#45;&gt;Node8</title>
<path fill="none" stroke="midnightblue" d="M300.781,-229.713C297.318,-219.756 292.036,-202.965 290,-188 285.26,-153.156 285.163,-134.723 312,-112 368.524,-64.1415 403.825,-91.1718 480.576,-76.0801"/>
<polygon fill="midnightblue" stroke="midnightblue" points="481.621,-79.4353 490.657,-73.9034 480.143,-72.593 481.621,-79.4353"/>
</g>
<!-- Node9&#45;&gt;Node6 -->
<g id="edge15" class="edge"><title>Node9&#45;&gt;Node6</title>
<path fill="none" stroke="midnightblue" d="M259.666,-116.061C276.648,-114.733 295.028,-113.303 312,-112 527.964,-95.4235 787.851,-76.0701 877.642,-69.4008"/>
<polygon fill="midnightblue" stroke="midnightblue" points="878.021,-72.8823 887.734,-68.6513 877.503,-65.9015 878.021,-72.8823"/>
</g>
<!-- Node9&#45;&gt;Node8 -->
<g id="edge16" class="edge"><title>Node9&#45;&gt;Node8</title>
<path fill="none" stroke="midnightblue" d="M259.577,-112.864C315.265,-105.227 399.107,-92.762 480.746,-76.1038"/>
<polygon fill="midnightblue" stroke="midnightblue" points="481.603,-79.5007 490.689,-74.0515 480.188,-72.6452 481.603,-79.5007"/>
</g>
<!-- Node10 -->
<g id="node11" class="node"><title>Node10</title>
<g id="a_node11"><a xlink:href="../../d1/d2e/WrapperVal_8h.xhtml" target="_top" xlink:title="enfield/Support/WrapperVal.h">
<polygon fill="none" stroke="black" points="329,-56.5 329,-75.5 473,-75.5 473,-56.5 329,-56.5"/>
<text text-anchor="middle" x="401" y="-63.5" font-family="Helvetica,sans-Serif" font-size="10.00">enfield/Support/WrapperVal.h</text>
</a>
</g>
</g>
<!-- Node9&#45;&gt;Node10 -->
<g id="edge10" class="edge"><title>Node9&#45;&gt;Node10</title>
<path fill="none" stroke="midnightblue" d="M229.324,-112.444C264.389,-103.162 320.498,-88.3093 358.965,-78.127"/>
<polygon fill="midnightblue" stroke="midnightblue" points="360.055,-81.4589 368.827,-75.5164 358.264,-74.692 360.055,-81.4589"/>
</g>
<!-- Node12 -->
<g id="node13" class="node"><title>Node12</title>
<g id="a_node13"><a xlink:href="../../d5/dfc/RTTI_8h.xhtml" target="_top" xlink:title="enfield/Support/RTTI.h">
<polygon fill="none" stroke="black" points="103,-56.5 103,-75.5 219,-75.5 219,-56.5 103,-56.5"/>
<text text-anchor="middle" x="161" y="-63.5" font-family="Helvetica,sans-Serif" font-size="10.00">enfield/Support/RTTI.h</text>
</a>
</g>
</g>
<!-- Node9&#45;&gt;Node12 -->
<g id="edge12" class="edge"><title>Node9&#45;&gt;Node12</title>
<path fill="none" stroke="midnightblue" d="M191.055,-112.083C186.023,-104.534 178.663,-93.4948 172.487,-84.2298"/>
<polygon fill="midnightblue" stroke="midnightblue" points="175.293,-82.1301 166.834,-75.7511 169.469,-86.0131 175.293,-82.1301"/>
</g>
<!-- Node13 -->
<g id="node14" class="node"><title>Node13</title>
<polygon fill="none" stroke="#bfbfbf" points="237.5,-56.5 237.5,-75.5 310.5,-75.5 310.5,-56.5 237.5,-56.5"/>
<text text-anchor="middle" x="274" y="-63.5" font-family="Helvetica,sans-Serif" font-size="10.00">initializer_list</text>
</g>
<!-- Node9&#45;&gt;Node13 -->
<g id="edge13" class="edge"><title>Node9&#45;&gt;Node13</title>
<path fill="none" stroke="midnightblue" d="M209.371,-112.324C221.158,-104.058 239.132,-91.4527 253.136,-81.6322"/>
<polygon fill="midnightblue" stroke="midnightblue" points="255.482,-84.2619 261.659,-75.6545 251.462,-78.5307 255.482,-84.2619"/>
</g>
<!-- Node14 -->
<g id="node15" class="node"><title>Node14</title>
<polygon fill="none" stroke="#bfbfbf" points="31,-56.5 31,-75.5 85,-75.5 85,-56.5 31,-56.5"/>
<text text-anchor="middle" x="58" y="-63.5" font-family="Helvetica,sans-Serif" font-size="10.00">iostream</text>
</g>
<!-- Node9&#45;&gt;Node14 -->
<g id="edge14" class="edge"><title>Node9&#45;&gt;Node14</title>
<path fill="none" stroke="midnightblue" d="M174.975,-112.444C151.896,-103.478 115.438,-89.314 89.3591,-79.1827"/>
<polygon fill="midnightblue" stroke="midnightblue" points="90.5107,-75.8753 79.9219,-75.5164 87.9758,-82.4002 90.5107,-75.8753"/>
</g>
<!-- Node11 -->
<g id="node12" class="node"><title>Node11</title>
<polygon fill="none" stroke="#bfbfbf" points="873.5,-0.5 873.5,-19.5 914.5,-19.5 914.5,-0.5 873.5,-0.5"/>
<text text-anchor="middle" x="894" y="-7.5" font-family="Helvetica,sans-Serif" font-size="10.00">string</text>
</g>
<!-- Node10&#45;&gt;Node11 -->
<g id="edge11" class="edge"><title>Node10&#45;&gt;Node11</title>
<path fill="none" stroke="midnightblue" d="M473.423,-56.9463C476.32,-56.6263 479.187,-56.3099 482,-56 624.566,-40.2939 794.91,-21.7634 863.334,-14.3296"/>
<polygon fill="midnightblue" stroke="midnightblue" points="863.858,-17.7935 873.421,-13.234 863.102,-10.8344 863.858,-17.7935"/>
</g>
<!-- Node15&#45;&gt;Node5 -->
<g id="edge36" class="edge"><title>Node15&#45;&gt;Node5</title>
<path fill="none" stroke="midnightblue" d="M502.545,-291.415C495.085,-281.321 484.849,-267.379 476,-255 461.746,-235.06 445.683,-211.932 435.015,-196.475"/>
<polygon fill="midnightblue" stroke="midnightblue" points="437.69,-194.189 429.134,-187.94 431.926,-198.16 437.69,-194.189"/>
</g>
<!-- Node15&#45;&gt;Node6 -->
<g id="edge35" class="edge"><title>Node15&#45;&gt;Node6</title>
<path fill="none" stroke="midnightblue" d="M588.376,-303.777C677.356,-300.186 818.173,-289.115 857,-255 906.867,-211.185 911.461,-124.455 910.861,-86.0578"/>
<polygon fill="midnightblue" stroke="midnightblue" points="914.352,-85.6844 910.553,-75.7941 907.355,-85.8948 914.352,-85.6844"/>
</g>
<!-- Node15&#45;&gt;Node7 -->
<g id="edge33" class="edge"><title>Node15&#45;&gt;Node7</title>
<path fill="none" stroke="midnightblue" d="M490.403,-291.435C462.07,-272.207 415.242,-234.712 399,-188 396.081,-179.604 394.691,-175.775 399,-168 407.089,-153.405 422.103,-142.918 436.336,-135.761"/>
<polygon fill="midnightblue" stroke="midnightblue" points="437.886,-138.9 445.496,-131.528 434.95,-132.546 437.886,-138.9"/>
</g>
<!-- Node15&#45;&gt;Node9 -->
<g id="edge18" class="edge"><title>Node15&#45;&gt;Node9</title>
<path fill="none" stroke="midnightblue" d="M437.93,-295.99C360.821,-285.575 249.987,-268.55 235,-255 218.227,-239.835 205.451,-174.702 199.955,-141.953"/>
<polygon fill="midnightblue" stroke="midnightblue" points="203.374,-141.167 198.32,-131.855 196.464,-142.286 203.374,-141.167"/>
</g>
<!-- Node16 -->
<g id="node17" class="node"><title>Node16</title>
<g id="a_node17"><a xlink:href="../../df/d29/Pass_8h.xhtml" target="_top" xlink:title="enfield/Transform/Pass.h">
<polygon fill="none" stroke="black" points="671,-112.5 671,-131.5 797,-131.5 797,-112.5 671,-112.5"/>
<text text-anchor="middle" x="734" y="-119.5" font-family="Helvetica,sans-Serif" font-size="10.00">enfield/Transform/Pass.h</text>
</a>
</g>
</g>
<!-- Node15&#45;&gt;Node16 -->
<g id="edge19" class="edge"><title>Node15&#45;&gt;Node16</title>
<path fill="none" stroke="midnightblue" d="M588.155,-304.781C674.446,-302.174 808.218,-292.067 840,-255 852.037,-240.962 836.333,-176.251 830,-168 817.991,-152.353 799.216,-141.92 781.442,-135.079"/>
<polygon fill="midnightblue" stroke="midnightblue" points="782.315,-131.675 771.721,-131.637 779.979,-138.274 782.315,-131.675"/>
</g>
<!-- Node17 -->
<g id="node18" class="node"><title>Node17</title>
<g id="a_node18"><a xlink:href="../../d4/d73/QModule_8h.xhtml" target="_top" xlink:title="enfield/Transform/QModule.h">
<polygon fill="none" stroke="black" points="662.5,-168.5 662.5,-187.5 805.5,-187.5 805.5,-168.5 662.5,-168.5"/>
<text text-anchor="middle" x="734" y="-175.5" font-family="Helvetica,sans-Serif" font-size="10.00">enfield/Transform/QModule.h</text>
</a>
</g>
</g>
<!-- Node15&#45;&gt;Node17 -->
<g id="edge21" class="edge"><title>Node15&#45;&gt;Node17</title>
<path fill="none" stroke="midnightblue" d="M552.458,-291.435C575.541,-282.456 604.807,-269.748 629,-255 647.611,-243.655 649.49,-236.979 667,-224 681.634,-213.153 698.683,-201.718 711.92,-193.09"/>
<polygon fill="midnightblue" stroke="midnightblue" points="713.903,-195.976 720.399,-187.606 710.101,-190.098 713.903,-195.976"/>
</g>
<!-- Node18 -->
<g id="node19" class="node"><title>Node18</title>
<g id="a_node19"><a xlink:href="../../d6/d94/XbitToNumberPass_8h.xhtml" target="_top" xlink:title="enfield/Transform/XbitTo\lNumberPass.h">
<polygon fill="none" stroke="black" points="496,-224.5 496,-254.5 620,-254.5 620,-224.5 496,-224.5"/>
<text text-anchor="start" x="504" y="-242.5" font-family="Helvetica,sans-Serif" font-size="10.00">enfield/Transform/XbitTo</text>
<text text-anchor="middle" x="558" y="-231.5" font-family="Helvetica,sans-Serif" font-size="10.00">NumberPass.h</text>
</a>
</g>
</g>
<!-- Node15&#45;&gt;Node18 -->
<g id="edge25" class="edge"><title>Node15&#45;&gt;Node18</title>
<path fill="none" stroke="midnightblue" d="M522.764,-291.396C528.543,-283.049 535.994,-272.287 542.554,-262.811"/>
<polygon fill="midnightblue" stroke="midnightblue" points="545.44,-264.791 548.255,-254.577 539.685,-260.806 545.44,-264.791"/>
</g>
<!-- Node19 -->
<g id="node20" class="node"><title>Node19</title>
<polygon fill="none" stroke="#bfbfbf" points="456.5,-168.5 456.5,-187.5 491.5,-187.5 491.5,-168.5 456.5,-168.5"/>
<text text-anchor="middle" x="474" y="-175.5" font-family="Helvetica,sans-Serif" font-size="10.00">map</text>
</g>
<!-- Node15&#45;&gt;Node19 -->
<g id="edge34" class="edge"><title>Node15&#45;&gt;Node19</title>
<path fill="none" stroke="midnightblue" d="M504.269,-291.43C498.531,-281.573 491.312,-267.907 487,-255 480.651,-235.997 477.283,-213.236 475.579,-197.607"/>
<polygon fill="midnightblue" stroke="midnightblue" points="479.062,-197.259 474.615,-187.643 472.095,-197.933 479.062,-197.259"/>
</g>
<!-- Node16&#45;&gt;Node8 -->
<g id="edge20" class="edge"><title>Node16&#45;&gt;Node8</title>
<path fill="none" stroke="midnightblue" d="M699.616,-112.444C659.513,-102.464 593.535,-86.0457 552.825,-75.915"/>
<polygon fill="midnightblue" stroke="midnightblue" points="553.6,-72.5011 543.051,-73.4826 551.909,-79.294 553.6,-72.5011"/>
</g>
<!-- Node17&#45;&gt;Node7 -->
<g id="edge24" class="edge"><title>Node17&#45;&gt;Node7</title>
<path fill="none" stroke="midnightblue" d="M692.327,-168.444C646.255,-158.984 572.004,-143.738 522.369,-133.547"/>
<polygon fill="midnightblue" stroke="midnightblue" points="522.978,-130.099 512.478,-131.516 521.57,-136.956 522.978,-130.099"/>
</g>
<!-- Node17&#45;&gt;Node9 -->
<g id="edge22" class="edge"><title>Node17&#45;&gt;Node9</title>
<path fill="none" stroke="midnightblue" d="M662.413,-169.801C560.026,-159.505 372.789,-140.677 269.759,-130.317"/>
<polygon fill="midnightblue" stroke="midnightblue" points="270.053,-126.829 259.753,-129.31 269.353,-133.793 270.053,-126.829"/>
</g>
<!-- Node17&#45;&gt;Node16 -->
<g id="edge23" class="edge"><title>Node17&#45;&gt;Node16</title>
<path fill="none" stroke="midnightblue" d="M734,-168.083C734,-161.006 734,-150.861 734,-141.986"/>
<polygon fill="midnightblue" stroke="midnightblue" points="737.5,-141.751 734,-131.751 730.5,-141.751 737.5,-141.751"/>
</g>
<!-- Node18&#45;&gt;Node5 -->
<g id="edge31" class="edge"><title>Node18&#45;&gt;Node5</title>
<path fill="none" stroke="midnightblue" d="M526.007,-224.399C501.936,-213.79 469.443,-199.469 447.436,-189.77"/>
<polygon fill="midnightblue" stroke="midnightblue" points="448.692,-186.499 438.13,-185.668 445.869,-192.904 448.692,-186.499"/>
</g>
<!-- Node18&#45;&gt;Node6 -->
<g id="edge30" class="edge"><title>Node18&#45;&gt;Node6</title>
<path fill="none" stroke="midnightblue" d="M565.199,-224.337C579.602,-197.578 614.687,-139.792 662,-112 698.142,-90.7705 819.075,-76.1141 877.654,-70.0818"/>
<polygon fill="midnightblue" stroke="midnightblue" points="878.233,-73.5413 887.831,-69.0562 877.531,-66.5766 878.233,-73.5413"/>
</g>
<!-- Node18&#45;&gt;Node7 -->
<g id="edge29" class="edge"><title>Node18&#45;&gt;Node7</title>
<path fill="none" stroke="midnightblue" d="M555.831,-224.322C552.943,-209.164 546.652,-185.016 534,-168 524.384,-155.067 509.956,-144.378 497.333,-136.667"/>
<polygon fill="midnightblue" stroke="midnightblue" points="498.964,-133.567 488.555,-131.589 495.459,-139.626 498.964,-133.567"/>
</g>
<!-- Node18&#45;&gt;Node9 -->
<g id="edge28" class="edge"><title>Node18&#45;&gt;Node9</title>
<path fill="none" stroke="midnightblue" d="M550.701,-224.469C541.332,-208.004 523.45,-181.269 500,-168 461.739,-146.351 346.524,-133.896 269.708,-127.789"/>
<polygon fill="midnightblue" stroke="midnightblue" points="269.845,-124.289 259.605,-127.005 269.304,-131.268 269.845,-124.289"/>
</g>
<!-- Node18&#45;&gt;Node16 -->
<g id="edge26" class="edge"><title>Node18&#45;&gt;Node16</title>
<path fill="none" stroke="midnightblue" d="M575.709,-224.258C594.422,-209.474 625.038,-186.032 653,-168 670.969,-156.412 692.114,-144.726 708.293,-136.168"/>
<polygon fill="midnightblue" stroke="midnightblue" points="709.947,-139.253 717.184,-131.515 706.701,-133.051 709.947,-139.253"/>
</g>
<!-- Node18&#45;&gt;Node17 -->
<g id="edge27" class="edge"><title>Node18&#45;&gt;Node17</title>
<path fill="none" stroke="midnightblue" d="M599.71,-224.399C629.989,-214.163 670.491,-200.47 699.072,-190.808"/>
<polygon fill="midnightblue" stroke="midnightblue" points="700.295,-194.089 708.647,-187.571 698.053,-187.458 700.295,-194.089"/>
</g>
<!-- Node18&#45;&gt;Node19 -->
<g id="edge32" class="edge"><title>Node18&#45;&gt;Node19</title>
<path fill="none" stroke="midnightblue" d="M538.093,-224.399C525.006,-215.129 507.918,-203.025 494.678,-193.647"/>
<polygon fill="midnightblue" stroke="midnightblue" points="496.406,-190.582 486.223,-187.658 492.36,-196.294 496.406,-190.582"/>
</g>
<!-- Node20&#45;&gt;Node6 -->
<g id="edge50" class="edge"><title>Node20&#45;&gt;Node6</title>
<path fill="none" stroke="midnightblue" d="M1089.97,-296.965C1115.16,-289.643 1147.03,-276.729 1168,-255 1214.56,-206.764 1259.82,-162.736 1216,-112 1180.86,-71.3175 1013.51,-66.7451 942.246,-66.684"/>
<polygon fill="midnightblue" stroke="midnightblue" points="942.055,-63.1843 932.062,-66.7059 942.07,-70.1843 942.055,-63.1843"/>
</g>
<!-- Node20&#45;&gt;Node8 -->
<g id="edge52" class="edge"><title>Node20&#45;&gt;Node8</title>
<path fill="none" stroke="midnightblue" d="M1043.18,-296.671C1014.88,-265.367 913.799,-159.042 806,-112 720.961,-74.8898 610.084,-67.8298 553.577,-66.8286"/>
<polygon fill="midnightblue" stroke="midnightblue" points="553.393,-63.3262 543.351,-66.7041 553.307,-70.3257 553.393,-63.3262"/>
</g>
<!-- Node20&#45;&gt;Node11 -->
<g id="edge49" class="edge"><title>Node20&#45;&gt;Node11</title>
<path fill="none" stroke="midnightblue" d="M1110.02,-296.941C1210.97,-280.627 1406,-241.075 1406,-179 1406,-179 1406,-179 1406,-121 1406,-90.9022 1410.24,-75.1286 1387,-56 1351.31,-26.6183 1027.36,-14.838 924.912,-11.8271"/>
<polygon fill="midnightblue" stroke="midnightblue" points="924.716,-8.3201 914.62,-11.5324 924.516,-15.3172 924.716,-8.3201"/>
</g>
<!-- Node21 -->
<g id="node22" class="node"><title>Node21</title>
<g id="a_node22"><a xlink:href="../../d1/d5e/PossibleValuesListTrait_8h.xhtml" target="_top" xlink:title="enfield/Support/Possible\lValuesListTrait.h">
<polygon fill="none" stroke="black" points="1037,-224.5 1037,-254.5 1159,-254.5 1159,-224.5 1037,-224.5"/>
<text text-anchor="start" x="1045" y="-242.5" font-family="Helvetica,sans-Serif" font-size="10.00">enfield/Support/Possible</text>
<text text-anchor="middle" x="1098" y="-231.5" font-family="Helvetica,sans-Serif" font-size="10.00">ValuesListTrait.h</text>
</a>
</g>
</g>
<!-- Node20&#45;&gt;Node21 -->
<g id="edge38" class="edge"><title>Node20&#45;&gt;Node21</title>
<path fill="none" stroke="midnightblue" d="M1057.34,-296.734C1063.57,-288.118 1073.34,-274.61 1081.74,-262.992"/>
<polygon fill="midnightblue" stroke="midnightblue" points="1084.79,-264.743 1087.81,-254.589 1079.12,-260.642 1084.79,-264.743"/>
</g>
<!-- Node29 -->
<g id="node30" class="node"><title>Node29</title>
<polygon fill="none" stroke="#bfbfbf" points="976.5,-112.5 976.5,-131.5 1025.5,-131.5 1025.5,-112.5 976.5,-112.5"/>
<text text-anchor="middle" x="1001" y="-119.5" font-family="Helvetica,sans-Serif" font-size="10.00">cassert</text>
</g>
<!-- Node20&#45;&gt;Node29 -->
<g id="edge51" class="edge"><title>Node20&#45;&gt;Node29</title>
<path fill="none" stroke="midnightblue" d="M1046.31,-296.803C1041.15,-286.927 1032.95,-270.207 1028,-255 1015.2,-215.65 1007.2,-167.65 1003.47,-141.746"/>
<polygon fill="midnightblue" stroke="midnightblue" points="1006.89,-140.938 1002.06,-131.51 999.96,-141.894 1006.89,-140.938"/>
</g>
<!-- Node22 -->
<g id="node23" class="node"><title>Node22</title>
<g id="a_node23"><a xlink:href="../../dd/d62/EnumString_8h.xhtml" target="_top" xlink:title="enfield/Support/EnumString.h">
<polygon fill="none" stroke="black" points="1036,-168.5 1036,-187.5 1180,-187.5 1180,-168.5 1036,-168.5"/>
<text text-anchor="middle" x="1108" y="-175.5" font-family="Helvetica,sans-Serif" font-size="10.00">enfield/Support/EnumString.h</text>
</a>
</g>
</g>
<!-- Node21&#45;&gt;Node22 -->
<g id="edge39" class="edge"><title>Node21&#45;&gt;Node22</title>
<path fill="none" stroke="midnightblue" d="M1100.37,-224.399C1101.72,-216.377 1103.42,-206.233 1104.88,-197.569"/>
<polygon fill="midnightblue" stroke="midnightblue" points="1108.34,-198.1 1106.54,-187.658 1101.44,-196.939 1108.34,-198.1"/>
</g>
<!-- Node22&#45;&gt;Node6 -->
<g id="edge45" class="edge"><title>Node22&#45;&gt;Node6</title>
<path fill="none" stroke="midnightblue" d="M1100.16,-168.27C1087.46,-154.594 1061.08,-128.026 1034,-112 1004.77,-94.6994 967.789,-82.341 941.849,-75.0051"/>
<polygon fill="midnightblue" stroke="midnightblue" points="942.716,-71.6136 932.146,-72.3494 940.868,-78.3653 942.716,-71.6136"/>
</g>
<!-- Node23 -->
<g id="node24" class="node"><title>Node23</title>
<g id="a_node24"><a xlink:href="../../d1/d73/Defs_8h.xhtml" target="_top" xlink:title="enfield/Support/Defs.h">
<polygon fill="none" stroke="black" points="1264,-112.5 1264,-131.5 1378,-131.5 1378,-112.5 1264,-112.5"/>
<text text-anchor="middle" x="1321" y="-119.5" font-family="Helvetica,sans-Serif" font-size="10.00">enfield/Support/Defs.h</text>
</a>
</g>
</g>
<!-- Node22&#45;&gt;Node23 -->
<g id="edge40" class="edge"><title>Node22&#45;&gt;Node23</title>
<path fill="none" stroke="midnightblue" d="M1141.75,-168.444C1178.52,-159.122 1237.45,-144.183 1277.62,-133.997"/>
<polygon fill="midnightblue" stroke="midnightblue" points="1278.57,-137.367 1287.41,-131.516 1276.85,-130.581 1278.57,-137.367"/>
</g>
<!-- Node27 -->
<g id="node28" class="node"><title>Node27</title>
<polygon fill="none" stroke="#bfbfbf" points="1082,-112.5 1082,-131.5 1138,-131.5 1138,-112.5 1082,-112.5"/>
<text text-anchor="middle" x="1110" y="-119.5" font-family="Helvetica,sans-Serif" font-size="10.00">algorithm</text>
</g>
<!-- Node22&#45;&gt;Node27 -->
<g id="edge46" class="edge"><title>Node22&#45;&gt;Node27</title>
<path fill="none" stroke="midnightblue" d="M1108.33,-168.083C1108.59,-161.006 1108.97,-150.861 1109.3,-141.986"/>
<polygon fill="midnightblue" stroke="midnightblue" points="1112.8,-141.874 1109.68,-131.751 1105.81,-141.615 1112.8,-141.874"/>
</g>
<!-- Node28 -->
<g id="node29" class="node"><title>Node28</title>
<polygon fill="none" stroke="#bfbfbf" points="1156.5,-112.5 1156.5,-131.5 1207.5,-131.5 1207.5,-112.5 1156.5,-112.5"/>
<text text-anchor="middle" x="1182" y="-119.5" font-family="Helvetica,sans-Serif" font-size="10.00">typeinfo</text>
</g>
<!-- Node22&#45;&gt;Node28 -->
<g id="edge47" class="edge"><title>Node22&#45;&gt;Node28</title>
<path fill="none" stroke="midnightblue" d="M1119.89,-168.324C1131.15,-160.107 1148.29,-147.602 1161.71,-137.807"/>
<polygon fill="midnightblue" stroke="midnightblue" points="1163.88,-140.556 1169.89,-131.834 1159.75,-134.901 1163.88,-140.556"/>
</g>
<!-- Node22&#45;&gt;Node29 -->
<g id="edge48" class="edge"><title>Node22&#45;&gt;Node29</title>
<path fill="none" stroke="midnightblue" d="M1090.81,-168.324C1073.65,-159.664 1047.05,-146.242 1027.25,-136.249"/>
<polygon fill="midnightblue" stroke="midnightblue" points="1028.65,-133.035 1018.15,-131.655 1025.5,-139.285 1028.65,-133.035"/>
</g>
<!-- Node23&#45;&gt;Node6 -->
<g id="edge41" class="edge"><title>Node23&#45;&gt;Node6</title>
<path fill="none" stroke="midnightblue" d="M1263.85,-113.492C1176.34,-101.993 1011.96,-80.3958 942.402,-71.2572"/>
<polygon fill="midnightblue" stroke="midnightblue" points="942.45,-67.7335 932.079,-69.9009 941.538,-74.6738 942.45,-67.7335"/>
</g>
<!-- Node24 -->
<g id="node25" class="node"><title>Node24</title>
<polygon fill="none" stroke="#bfbfbf" points="1274,-56.5 1274,-75.5 1320,-75.5 1320,-56.5 1274,-56.5"/>
<text text-anchor="middle" x="1297" y="-63.5" font-family="Helvetica,sans-Serif" font-size="10.00">cstdint</text>
</g>
<!-- Node23&#45;&gt;Node24 -->
<g id="edge42" class="edge"><title>Node23&#45;&gt;Node24</title>
<path fill="none" stroke="midnightblue" d="M1317.04,-112.083C1313.79,-104.77 1309.08,-94.1814 1305.05,-85.1034"/>
<polygon fill="midnightblue" stroke="midnightblue" points="1308.15,-83.4677 1300.89,-75.7511 1301.75,-86.3107 1308.15,-83.4677"/>
</g>
<!-- Node25 -->
<g id="node26" class="node"><title>Node25</title>
<polygon fill="none" stroke="#bfbfbf" points="1338,-56.5 1338,-75.5 1378,-75.5 1378,-56.5 1338,-56.5"/>
<text text-anchor="middle" x="1358" y="-63.5" font-family="Helvetica,sans-Serif" font-size="10.00">limits</text>
</g>
<!-- Node23&#45;&gt;Node25 -->
<g id="edge43" class="edge"><title>Node23&#45;&gt;Node25</title>
<path fill="none" stroke="midnightblue" d="M1327.11,-112.083C1332.28,-104.534 1339.85,-93.4948 1346.19,-84.2298"/>
<polygon fill="midnightblue" stroke="midnightblue" points="1349.24,-85.9787 1352,-75.7511 1343.46,-82.0221 1349.24,-85.9787"/>
</g>
<!-- Node26 -->
<g id="node27" class="node"><title>Node26</title>
<polygon fill="none" stroke="#bfbfbf" points="1204,-56.5 1204,-75.5 1256,-75.5 1256,-56.5 1204,-56.5"/>
<text text-anchor="middle" x="1230" y="-63.5" font-family="Helvetica,sans-Serif" font-size="10.00">ostream</text>
</g>
<!-- Node23&#45;&gt;Node26 -->
<g id="edge44" class="edge"><title>Node23&#45;&gt;Node26</title>
<path fill="none" stroke="midnightblue" d="M1306.38,-112.324C1292.05,-103.822 1269.99,-90.7288 1253.25,-80.7975"/>
<polygon fill="midnightblue" stroke="midnightblue" points="1254.97,-77.7478 1244.58,-75.6545 1251.4,-83.7677 1254.97,-77.7478"/>
</g>
<!-- Node30&#45;&gt;Node8 -->
<g id="edge55" class="edge"><title>Node30&#45;&gt;Node8</title>
<path fill="none" stroke="midnightblue" d="M116.09,-113.077C119.102,-112.704 122.086,-112.343 125,-112 280.133,-93.7639 323.239,-103.517 480.679,-75.9906"/>
<polygon fill="midnightblue" stroke="midnightblue" points="481.484,-79.4025 490.72,-74.212 480.263,-72.5098 481.484,-79.4025"/>
</g>
<!-- Node30&#45;&gt;Node14 -->
<g id="edge54" class="edge"><title>Node30&#45;&gt;Node14</title>
<path fill="none" stroke="midnightblue" d="M58,-112.083C58,-105.006 58,-94.8611 58,-85.9865"/>
<polygon fill="midnightblue" stroke="midnightblue" points="61.5001,-85.751 58,-75.7511 54.5001,-85.7511 61.5001,-85.751"/>
</g>
<!-- Node31&#45;&gt;Node5 -->
<g id="edge59" class="edge"><title>Node31&#45;&gt;Node5</title>
<path fill="none" stroke="midnightblue" d="M676.469,-230.01C616.244,-222.439 530.662,-209.546 447.904,-187.795"/>
<polygon fill="midnightblue" stroke="midnightblue" points="448.654,-184.373 438.089,-185.169 446.845,-191.135 448.654,-184.373"/>
</g>
<!-- Node31&#45;&gt;Node16 -->
<g id="edge57" class="edge"><title>Node31&#45;&gt;Node16</title>
<path fill="none" stroke="midnightblue" d="M770.961,-229.943C793.403,-217.407 828.524,-192.834 814,-168 805.139,-152.85 789.095,-142.406 773.688,-135.424"/>
<polygon fill="midnightblue" stroke="midnightblue" points="774.825,-132.106 764.247,-131.512 772.146,-138.573 774.825,-132.106"/>
</g>
<!-- Node31&#45;&gt;Node17 -->
<g id="edge58" class="edge"><title>Node31&#45;&gt;Node17</title>
<path fill="none" stroke="midnightblue" d="M751.134,-229.975C748.283,-221.492 743.817,-208.204 740.159,-197.322"/>
<polygon fill="midnightblue" stroke="midnightblue" points="743.364,-195.873 736.86,-187.509 736.729,-198.103 743.364,-195.873"/>
</g>
</g>
</svg>
