<?xml version="1.0" encoding="UTF-8" standalone="no"?>
<!DOCTYPE svg PUBLIC "-//W3C//DTD SVG 1.1//EN"
 "http://www.w3.org/Graphics/SVG/1.1/DTD/svg11.dtd">
<!-- Generated by graphviz version 2.38.0 (20140413.2041)
 -->
<!-- Title: efd::InlineAllPass::run Pages: 1 -->
<!--zoomable 838 -->
<svg id="main" version="1.1" xmlns="http://www.w3.org/2000/svg" xmlns:xlink="http://www.w3.org/1999/xlink" xml:space="preserve" onload="init(evt)">
<style type="text/css"><![CDATA[
.edge:hover path { stroke: red; }
.edge:hover polygon { stroke: red; fill: red; }
]]></style>
<script type="text/javascript"><![CDATA[
var edges = document.getElementsByTagName('g');
if (edges && edges.length) {
  for (var i=0;i<edges.length;i++) {
    if (edges[i].id.substr(0,4)=='edge') {
      edges[i].setAttribute('class','edge');
    }
  }
}
]]></script>
        <defs>
                <circle id="rim" cx="0" cy="0" r="7"/>
                <circle id="rim2" cx="0" cy="0" r="3.5"/>
                <g id="zoomPlus">
                        <use xlink:href="#rim" fill="#404040">
                                <set attributeName="fill" to="#808080" begin="zoomplus.mouseover" end="zoomplus.mouseout"/>
                        </use>
                        <path d="M-4,0h8M0,-4v8" fill="none" stroke="white" stroke-width="1.5" pointer-events="none"/>
                </g>
                <g id="zoomMin">
                        <use xlink:href="#rim" fill="#404040">
                                <set attributeName="fill" to="#808080" begin="zoomminus.mouseover" end="zoomminus.mouseout"/>
                        </use>
                        <path d="M-4,0h8" fill="none" stroke="white" stroke-width="1.5" pointer-events="none"/>
                </g>
                <g id="dirArrow">
                        <path fill="none" stroke="white" stroke-width="1.5" d="M0,-3.0v7 M-2.5,-0.5L0,-3.0L2.5,-0.5"/>
                </g>
               <g id="resetDef">
                       <use xlink:href="#rim2" fill="#404040">
                               <set attributeName="fill" to="#808080" begin="reset.mouseover" end="reset.mouseout"/>
                       </use>
               </g>
        </defs>

<script type="text/javascript">
var viewWidth = 935;
var viewHeight = 838;
var sectionId = 'dynsection-3';
</script>
<script xlink:href="../../svgpan.js"/>
<svg id="graph" class="graph">
<g id="viewport">
<title>efd::InlineAllPass::run</title>
<!-- Node3 -->
<g id="node1" class="node"><title>Node3</title>
<polygon fill="#bfbfbf" stroke="black" points="0,-471.5 0,-490.5 113,-490.5 113,-471.5 0,-471.5"/>
<text text-anchor="middle" x="56.5" y="-478.5" font-family="Helvetica,sans-Serif" font-size="10.00">efd::InlineAllPass::run</text>
</g>
<!-- Node4 -->
<g id="node2" class="node"><title>Node4</title>
<g id="a_node2"><a xlink:href="../../d6/d6a/classefd_1_1Node.xhtml#ab813c60af1717cf50e92a28b274c24ef" target="_top" xlink:title="Used by visitor classes. ">
<polygon fill="none" stroke="black" points="496.5,-772.5 496.5,-791.5 585.5,-791.5 585.5,-772.5 496.5,-772.5"/>
<text text-anchor="middle" x="541" y="-779.5" font-family="Helvetica,sans-Serif" font-size="10.00">efd::Node::apply</text>
</a>
</g>
</g>
<!-- Node3&#45;&gt;Node4 -->
<g id="edge1" class="edge"><title>Node3&#45;&gt;Node4</title>
<path fill="none" stroke="midnightblue" d="M60.047,-490.518C68.2804,-519.711 96.7244,-609.255 149,-663 240.067,-756.627 402.324,-777.136 486.313,-781.27"/>
<polygon fill="midnightblue" stroke="midnightblue" points="486.261,-784.771 496.403,-781.706 486.563,-777.777 486.261,-784.771"/>
</g>
<!-- Node5 -->
<g id="node3" class="node"><title>Node5</title>
<g id="a_node3"><a xlink:href="../../dd/d94/classefd_1_1NDQOp.xhtml#aa9d90f493865fe9cdc3fecd468eaa33b" target="_top" xlink:title="Gets the id. ">
<polygon fill="none" stroke="black" points="491.5,-114.5 491.5,-133.5 590.5,-133.5 590.5,-114.5 491.5,-114.5"/>
<text text-anchor="middle" x="541" y="-121.5" font-family="Helvetica,sans-Serif" font-size="10.00">efd::NDQOp::getId</text>
</a>
</g>
</g>
<!-- Node3&#45;&gt;Node5 -->
<g id="edge2" class="edge"><title>Node3&#45;&gt;Node5</title>
<path fill="none" stroke="midnightblue" d="M87.6224,-471.464C175.537,-443.63 425.638,-364.419 426,-364 491.051,-288.687 394.408,-216.041 462,-143 467.391,-137.174 474.244,-133 481.642,-130.031"/>
<polygon fill="midnightblue" stroke="midnightblue" points="482.825,-133.326 491.234,-126.881 480.642,-126.676 482.825,-133.326"/>
</g>
<!-- Node7 -->
<g id="node5" class="node"><title>Node7</title>
<g id="a_node5"><a xlink:href="../../dd/d52/classefd_1_1QModule.xhtml#a2cbccf2cf8dd0e4e2dc30bf12e146644" target="_top" xlink:title="Gets the quantum gate mapped to id. ">
<polygon fill="none" stroke="black" points="479.5,-734.5 479.5,-753.5 602.5,-753.5 602.5,-734.5 479.5,-734.5"/>
<text text-anchor="middle" x="541" y="-741.5" font-family="Helvetica,sans-Serif" font-size="10.00">efd::QModule::getQGate</text>
</a>
</g>
</g>
<!-- Node3&#45;&gt;Node7 -->
<g id="edge4" class="edge"><title>Node3&#45;&gt;Node7</title>
<path fill="none" stroke="midnightblue" d="M63.8088,-490.563C89.053,-527.91 187.232,-664.596 307,-720 357.718,-743.461 421.122,-748.651 468.98,-748.424"/>
<polygon fill="midnightblue" stroke="midnightblue" points="469.299,-751.92 479.253,-748.292 469.208,-744.921 469.299,-751.92"/>
</g>
<!-- Node8 -->
<g id="node6" class="node"><title>Node8</title>
<g id="a_node6"><a xlink:href="../../df/d1b/classefd_1_1NDValue.xhtml#a53ee724a8db3429bf30bb1936ad548b2" target="_top" xlink:title="Returns a copy to the setted value. ">
<polygon fill="none" stroke="black" points="486,-658.5 486,-677.5 596,-677.5 596,-658.5 486,-658.5"/>
<text text-anchor="middle" x="541" y="-665.5" font-family="Helvetica,sans-Serif" font-size="10.00">efd::NDValue::getVal</text>
</a>
</g>
</g>
<!-- Node3&#45;&gt;Node8 -->
<g id="edge5" class="edge"><title>Node3&#45;&gt;Node8</title>
<path fill="none" stroke="midnightblue" d="M77.2869,-490.512C135.266,-518.1 310.234,-599.33 462,-649 469.628,-651.496 477.771,-653.831 485.811,-655.951"/>
<polygon fill="midnightblue" stroke="midnightblue" points="484.972,-659.349 495.527,-658.426 486.7,-652.565 484.972,-659.349"/>
</g>
<!-- Node9 -->
<g id="node7" class="node"><title>Node9</title>
<g id="a_node7"><a xlink:href="../../de/d71/classefd_1_1InlineAllVisitor.xhtml#a3899a3e49b8425e369d0e55c2b467ec9" target="_top" xlink:title="efd::InlineAllVisitor\l::InlineAllVisitor">
<polygon fill="none" stroke="black" points="161,-466 161,-496 259,-496 259,-466 161,-466"/>
<text text-anchor="start" x="169" y="-484" font-family="Helvetica,sans-Serif" font-size="10.00">efd::InlineAllVisitor</text>
<text text-anchor="middle" x="210" y="-473" font-family="Helvetica,sans-Serif" font-size="10.00">::InlineAllVisitor</text>
</a>
</g>
</g>
<!-- Node3&#45;&gt;Node9 -->
<g id="edge6" class="edge"><title>Node3&#45;&gt;Node9</title>
<path fill="none" stroke="midnightblue" d="M113.053,-481C125.324,-481 138.359,-481 150.735,-481"/>
<polygon fill="midnightblue" stroke="midnightblue" points="150.944,-484.5 160.944,-481 150.944,-477.5 150.944,-484.5"/>
</g>
<!-- Node10 -->
<g id="node8" class="node"><title>Node10</title>
<g id="a_node8"><a xlink:href="../../dd/d52/classefd_1_1QModule.xhtml#a3fcf1f575008b4e75182367b6b479129" target="_top" xlink:title="Inlines call and returns an iterator to the first node inserted. ">
<polygon fill="none" stroke="black" points="149.5,-335.5 149.5,-354.5 270.5,-354.5 270.5,-335.5 149.5,-335.5"/>
<text text-anchor="middle" x="210" y="-342.5" font-family="Helvetica,sans-Serif" font-size="10.00">efd::QModule::inlineCall</text>
</a>
</g>
</g>
<!-- Node3&#45;&gt;Node10 -->
<g id="edge7" class="edge"><title>Node3&#45;&gt;Node10</title>
<path fill="none" stroke="midnightblue" d="M63.0977,-471.212C75.7724,-449.843 108.719,-398.564 149,-369 154.53,-364.941 160.841,-361.452 167.244,-358.493"/>
<polygon fill="midnightblue" stroke="midnightblue" points="168.766,-361.649 176.612,-354.53 166.038,-355.202 168.766,-361.649"/>
</g>
<!-- Node27 -->
<g id="node25" class="node"><title>Node27</title>
<g id="a_node25"><a xlink:href="../../db/d1f/classefd_1_1NDGateSign.xhtml#ac0f41d3a80cca36d590d3f7bcc1b7dc2" target="_top" xlink:title="Returns true if this is an opaque gate. ">
<polygon fill="none" stroke="black" points="471.5,-0.5 471.5,-19.5 610.5,-19.5 610.5,-0.5 471.5,-0.5"/>
<text text-anchor="middle" x="541" y="-7.5" font-family="Helvetica,sans-Serif" font-size="10.00">efd::NDGateSign::isOpaque</text>
</a>
</g>
</g>
<!-- Node3&#45;&gt;Node27 -->
<g id="edge48" class="edge"><title>Node3&#45;&gt;Node27</title>
<path fill="none" stroke="midnightblue" d="M59.0407,-471.268C64.9503,-436.557 88.9219,-316.856 149,-241 253.316,-109.289 308.39,-97.0713 462,-29 467.469,-26.5763 473.297,-24.4312 479.21,-22.5395"/>
<polygon fill="midnightblue" stroke="midnightblue" points="480.593,-25.7804 489.192,-19.5905 478.61,-19.0672 480.593,-25.7804"/>
</g>
<!-- Node37 -->
<g id="node35" class="node"><title>Node37</title>
<g id="a_node35"><a xlink:href="../../dd/d52/classefd_1_1QModule.xhtml#ac00e1eb93f94c00db1e6a661d8f95d9d" target="_top" xlink:title="Iterator to the beginning of the statement node vector. ">
<polygon fill="none" stroke="black" points="159.5,-251 159.5,-281 260.5,-281 260.5,-251 159.5,-251"/>
<text text-anchor="start" x="167.5" y="-269" font-family="Helvetica,sans-Serif" font-size="10.00">efd::QModule::stmt</text>
<text text-anchor="middle" x="210" y="-258" font-family="Helvetica,sans-Serif" font-size="10.00">_begin</text>
</a>
</g>
</g>
<!-- Node3&#45;&gt;Node37 -->
<g id="edge49" class="edge"><title>Node3&#45;&gt;Node37</title>
<path fill="none" stroke="midnightblue" d="M62.095,-471.394C74.3479,-446.241 109.566,-376.88 149,-326 159.485,-312.471 172.812,-298.864 184.241,-288.036"/>
<polygon fill="midnightblue" stroke="midnightblue" points="186.85,-290.389 191.792,-281.018 182.085,-285.262 186.85,-290.389"/>
</g>
<!-- Node38 -->
<g id="node36" class="node"><title>Node38</title>
<g id="a_node36"><a xlink:href="../../dd/d52/classefd_1_1QModule.xhtml#a23d45e3b6c65d5fa14b199da8b0617c7" target="_top" xlink:title="Iterator to the end of the statement node vector. ">
<polygon fill="none" stroke="black" points="149,-810.5 149,-829.5 271,-829.5 271,-810.5 149,-810.5"/>
<text text-anchor="middle" x="210" y="-817.5" font-family="Helvetica,sans-Serif" font-size="10.00">efd::QModule::stmt_end</text>
</a>
</g>
</g>
<!-- Node3&#45;&gt;Node38 -->
<g id="edge51" class="edge"><title>Node3&#45;&gt;Node38</title>
<path fill="none" stroke="midnightblue" d="M57.417,-490.663C57.5777,-532.721 63.6989,-701.919 149,-796 152.49,-799.849 156.681,-803.091 161.205,-805.82"/>
<polygon fill="midnightblue" stroke="midnightblue" points="159.726,-808.995 170.219,-810.458 162.929,-802.77 159.726,-808.995"/>
</g>
<!-- Node6 -->
<g id="node4" class="node"><title>Node6</title>
<g id="a_node4"><a xlink:href="../../d4/deb/namespaceefd.xhtml#a2cef687225e13315fc282dc40b5a6909" target="_top" xlink:title="Returns src cast to TargetTy, iff it is of class TargetTy, otherwise it will return nullptr...">
<polygon fill="none" stroke="black" points="683.5,-316.5 683.5,-335.5 756.5,-335.5 756.5,-316.5 683.5,-316.5"/>
<text text-anchor="middle" x="720" y="-323.5" font-family="Helvetica,sans-Serif" font-size="10.00">efd::dynCast</text>
</a>
</g>
</g>
<!-- Node5&#45;&gt;Node6 -->
<g id="edge3" class="edge"><title>Node5&#45;&gt;Node6</title>
<path fill="none" stroke="midnightblue" d="M590.61,-129.265C601.059,-132.116 611.502,-136.446 620,-143 675.453,-185.764 703.693,-268.705 714.135,-306.448"/>
<polygon fill="midnightblue" stroke="midnightblue" points="710.779,-307.447 716.716,-316.222 717.547,-305.66 710.779,-307.447"/>
</g>
<!-- Node11 -->
<g id="node9" class="node"><title>Node11</title>
<g id="a_node9"><a xlink:href="../../dd/d94/classefd_1_1NDQOp.xhtml#a8700a0eb5ff3cee0e3b52c56f3cc2b3c" target="_top" xlink:title="Returns true if this is a generic node. ">
<polygon fill="none" stroke="black" points="307,-335.5 307,-354.5 426,-354.5 426,-335.5 307,-335.5"/>
<text text-anchor="middle" x="366.5" y="-342.5" font-family="Helvetica,sans-Serif" font-size="10.00">efd::NDQOp::isGeneric</text>
</a>
</g>
</g>
<!-- Node10&#45;&gt;Node11 -->
<g id="edge8" class="edge"><title>Node10&#45;&gt;Node11</title>
<path fill="none" stroke="midnightblue" d="M270.734,-345C279.278,-345 288.125,-345 296.824,-345"/>
<polygon fill="midnightblue" stroke="midnightblue" points="296.942,-348.5 306.942,-345 296.942,-341.5 296.942,-348.5"/>
</g>
<!-- Node13 -->
<g id="node11" class="node"><title>Node13</title>
<g id="a_node11"><a xlink:href="../../d6/d6a/classefd_1_1Node.xhtml#a7df493996977432aee05df57ae6dc375" target="_top" xlink:title="Returns the parent node of the current node. ">
<polygon fill="none" stroke="black" points="487.5,-38.5 487.5,-57.5 594.5,-57.5 594.5,-38.5 487.5,-38.5"/>
<text text-anchor="middle" x="541" y="-45.5" font-family="Helvetica,sans-Serif" font-size="10.00">efd::Node::getParent</text>
</a>
</g>
</g>
<!-- Node10&#45;&gt;Node13 -->
<g id="edge10" class="edge"><title>Node10&#45;&gt;Node13</title>
<path fill="none" stroke="midnightblue" d="M224.77,-335.458C242.944,-323.191 276.238,-301.828 307,-288 357.639,-265.237 389.123,-291.503 426,-250 481.927,-187.056 402.793,-123.87 462,-64 466.529,-59.4203 471.993,-55.9776 477.902,-53.4098"/>
<polygon fill="midnightblue" stroke="midnightblue" points="479.201,-56.6636 487.484,-50.0571 476.889,-50.0564 479.201,-56.6636"/>
</g>
<!-- Node14 -->
<g id="node12" class="node"><title>Node14</title>
<g id="a_node12"><a xlink:href="../../d4/deb/namespaceefd.xhtml#a3fd26bc2a0a0c6d9948d0d3cef2e1515" target="_top" xlink:title="Returns true if the pointer src is of class TargetTy. ">
<polygon fill="none" stroke="black" points="325,-297.5 325,-316.5 408,-316.5 408,-297.5 325,-297.5"/>
<text text-anchor="middle" x="366.5" y="-304.5" font-family="Helvetica,sans-Serif" font-size="10.00">efd::instanceOf</text>
</a>
</g>
</g>
<!-- Node10&#45;&gt;Node14 -->
<g id="edge11" class="edge"><title>Node10&#45;&gt;Node14</title>
<path fill="none" stroke="midnightblue" d="M249.987,-335.411C270.283,-330.419 295.293,-324.268 316.846,-318.967"/>
<polygon fill="midnightblue" stroke="midnightblue" points="317.919,-322.307 326.793,-316.52 316.247,-315.51 317.919,-322.307"/>
</g>
<!-- Node15 -->
<g id="node13" class="node"><title>Node15</title>
<g id="a_node13"><a xlink:href="../../d6/d6a/classefd_1_1Node.xhtml#ae80bbf9487f0e43317c29c63a414ff34" target="_top" xlink:title="Returns a iterator pointing to the given child. ">
<polygon fill="none" stroke="black" points="668,-686.5 668,-705.5 772,-705.5 772,-686.5 668,-686.5"/>
<text text-anchor="middle" x="720" y="-693.5" font-family="Helvetica,sans-Serif" font-size="10.00">efd::Node::findChild</text>
</a>
</g>
</g>
<!-- Node10&#45;&gt;Node15 -->
<g id="edge12" class="edge"><title>Node10&#45;&gt;Node15</title>
<path fill="none" stroke="midnightblue" d="M216.492,-354.63C246.047,-406.081 387.612,-647.672 462,-687 525.22,-720.424 609.94,-715.545 664.506,-707.21"/>
<polygon fill="midnightblue" stroke="midnightblue" points="665.354,-710.618 674.666,-705.565 664.235,-703.708 665.354,-710.618"/>
</g>
<!-- Node16 -->
<g id="node14" class="node"><title>Node16</title>
<g id="a_node14"><a xlink:href="../../d6/d6a/classefd_1_1Node.xhtml#ae890d36b0dcb332d82616b3180da1886" target="_top" xlink:title="Returns a iterator to the beginning of the vector. ">
<polygon fill="none" stroke="black" points="322,-221.5 322,-240.5 411,-240.5 411,-221.5 322,-221.5"/>
<text text-anchor="middle" x="366.5" y="-228.5" font-family="Helvetica,sans-Serif" font-size="10.00">efd::Node::begin</text>
</a>
</g>
</g>
<!-- Node10&#45;&gt;Node16 -->
<g id="edge13" class="edge"><title>Node10&#45;&gt;Node16</title>
<path fill="none" stroke="midnightblue" d="M221.709,-335.357C233.778,-324.448 253.943,-306.103 271,-290 287.227,-274.681 288.338,-267.235 307,-255 313.122,-250.986 320.025,-247.435 326.885,-244.377"/>
<polygon fill="midnightblue" stroke="midnightblue" points="328.256,-247.598 336.137,-240.518 325.561,-241.138 328.256,-247.598"/>
</g>
<!-- Node17 -->
<g id="node15" class="node"><title>Node17</title>
<g id="a_node15"><a xlink:href="../../d4/deb/namespaceefd.xhtml#acd4cde60c75b526798dab375aa82125c" target="_top" xlink:title="If found, inlines the gate that qop calls. ">
<polygon fill="none" stroke="black" points="326.5,-411.5 326.5,-430.5 406.5,-430.5 406.5,-411.5 326.5,-411.5"/>
<text text-anchor="middle" x="366.5" y="-418.5" font-family="Helvetica,sans-Serif" font-size="10.00">efd::InlineGate</text>
</a>
</g>
</g>
<!-- Node10&#45;&gt;Node17 -->
<g id="edge14" class="edge"><title>Node10&#45;&gt;Node17</title>
<path fill="none" stroke="midnightblue" d="M230.568,-354.625C257.5,-367.874 306.166,-391.813 337.103,-407.031"/>
<polygon fill="midnightblue" stroke="midnightblue" points="335.573,-410.179 346.091,-411.453 338.663,-403.898 335.573,-410.179"/>
</g>
<!-- Node12 -->
<g id="node10" class="node"><title>Node12</title>
<g id="a_node10"><a xlink:href="../../d6/d6a/classefd_1_1Node.xhtml#a23e33e714f48070d9e8c090cd396d956" target="_top" xlink:title="Returns the kind of this node. ">
<polygon fill="none" stroke="black" points="671,-38.5 671,-57.5 769,-57.5 769,-38.5 671,-38.5"/>
<text text-anchor="middle" x="720" y="-45.5" font-family="Helvetica,sans-Serif" font-size="10.00">efd::Node::getKind</text>
</a>
</g>
</g>
<!-- Node11&#45;&gt;Node12 -->
<g id="edge9" class="edge"><title>Node11&#45;&gt;Node12</title>
<path fill="none" stroke="midnightblue" d="M413.991,-335.458C418.52,-332.989 422.662,-329.89 426,-326 490.802,-250.473 393.657,-177.338 462,-105 468.885,-97.7124 587.108,-73.6293 660.782,-59.2032"/>
<polygon fill="midnightblue" stroke="midnightblue" points="661.722,-62.5859 670.866,-57.2344 660.38,-55.7156 661.722,-62.5859"/>
</g>
<!-- Node17&#45;&gt;Node4 -->
<g id="edge15" class="edge"><title>Node17&#45;&gt;Node4</title>
<path fill="none" stroke="midnightblue" d="M368.835,-430.624C376.014,-481.027 411.589,-714.111 462,-763 468.76,-769.556 477.384,-773.975 486.419,-776.928"/>
<polygon fill="midnightblue" stroke="midnightblue" points="485.748,-780.372 496.314,-779.589 487.566,-773.612 485.748,-780.372"/>
</g>
<!-- Node17&#45;&gt;Node5 -->
<g id="edge27" class="edge"><title>Node17&#45;&gt;Node5</title>
<path fill="none" stroke="midnightblue" d="M406.598,-411.579C414.02,-408.122 421.012,-403.412 426,-397 496.008,-307.007 385.429,-227.48 462,-143 467.331,-137.118 474.15,-132.914 481.532,-129.93"/>
<polygon fill="midnightblue" stroke="midnightblue" points="482.713,-133.226 491.114,-126.771 480.521,-126.579 482.713,-133.226"/>
</g>
<!-- Node17&#45;&gt;Node6 -->
<g id="edge18" class="edge"><title>Node17&#45;&gt;Node6</title>
<path fill="none" stroke="midnightblue" d="M375.347,-430.627C390.135,-447.91 424.071,-483.641 462,-497 528.234,-520.329 559.165,-532.075 620,-497 677.366,-463.926 704.508,-383.506 714.39,-345.945"/>
<polygon fill="midnightblue" stroke="midnightblue" points="717.905,-346.312 716.917,-335.764 711.111,-344.626 717.905,-346.312"/>
</g>
<!-- Node17&#45;&gt;Node7 -->
<g id="edge33" class="edge"><title>Node17&#45;&gt;Node7</title>
<path fill="none" stroke="midnightblue" d="M368.832,-430.671C374.301,-467.459 397.858,-600.947 462,-687 475.278,-704.814 495.7,-719.454 512.317,-729.436"/>
<polygon fill="midnightblue" stroke="midnightblue" points="510.676,-732.53 521.088,-734.492 514.172,-726.465 510.676,-732.53"/>
</g>
<!-- Node17&#45;&gt;Node8 -->
<g id="edge34" class="edge"><title>Node17&#45;&gt;Node8</title>
<path fill="none" stroke="midnightblue" d="M371.454,-430.705C389.079,-473.95 459.722,-647.049 462,-649 466.234,-652.627 471.049,-655.585 476.16,-657.994"/>
<polygon fill="midnightblue" stroke="midnightblue" points="475.033,-661.312 485.618,-661.762 477.624,-654.809 475.033,-661.312"/>
</g>
<!-- Node17&#45;&gt;Node13 -->
<g id="edge28" class="edge"><title>Node17&#45;&gt;Node13</title>
<path fill="none" stroke="midnightblue" d="M381.949,-411.317C395.722,-401.235 415.824,-384.12 426,-364 478.452,-260.292 402.357,-204.746 462,-105 473.112,-86.417 492.852,-72.0812 509.692,-62.4346"/>
<polygon fill="midnightblue" stroke="midnightblue" points="511.555,-65.4057 518.676,-57.5607 508.217,-59.2528 511.555,-65.4057"/>
</g>
<!-- Node18 -->
<g id="node16" class="node"><title>Node18</title>
<g id="a_node16"><a xlink:href="../../d6/d6a/classefd_1_1Node.xhtml#a6c85c9bd21014b73497de741cc75f706" target="_top" xlink:title="Clones the current node (deep copy). ">
<polygon fill="none" stroke="black" points="496.5,-620.5 496.5,-639.5 585.5,-639.5 585.5,-620.5 496.5,-620.5"/>
<text text-anchor="middle" x="541" y="-627.5" font-family="Helvetica,sans-Serif" font-size="10.00">efd::Node::clone</text>
</a>
</g>
</g>
<!-- Node17&#45;&gt;Node18 -->
<g id="edge16" class="edge"><title>Node17&#45;&gt;Node18</title>
<path fill="none" stroke="midnightblue" d="M371.055,-430.66C384.159,-465.779 430.627,-585.935 462,-611 469.041,-616.626 477.502,-620.622 486.216,-623.452"/>
<polygon fill="midnightblue" stroke="midnightblue" points="485.529,-626.893 496.1,-626.177 487.39,-620.145 485.529,-626.893"/>
</g>
<!-- Node20 -->
<g id="node18" class="node"><title>Node20</title>
<g id="a_node18"><a xlink:href="../../db/d1f/classefd_1_1NDGateSign.xhtml#a0be5984f118128bc3e2bf64a8a390071" target="_top" xlink:title="Gets the args node. ">
<polygon fill="none" stroke="black" points="475.5,-468.5 475.5,-487.5 606.5,-487.5 606.5,-468.5 475.5,-468.5"/>
<text text-anchor="middle" x="541" y="-475.5" font-family="Helvetica,sans-Serif" font-size="10.00">efd::NDGateSign::getArgs</text>
</a>
</g>
</g>
<!-- Node17&#45;&gt;Node20 -->
<g id="edge19" class="edge"><title>Node17&#45;&gt;Node20</title>
<path fill="none" stroke="midnightblue" d="M388.946,-430.651C407.892,-438.928 436.408,-450.784 462,-459 469.736,-461.484 477.994,-463.821 486.135,-465.951"/>
<polygon fill="midnightblue" stroke="midnightblue" points="485.41,-469.378 495.963,-468.441 487.129,-462.592 485.41,-469.378"/>
</g>
<!-- Node21 -->
<g id="node19" class="node"><title>Node21</title>
<g id="a_node19"><a xlink:href="../../dd/d94/classefd_1_1NDQOp.xhtml#a38dbbb3a5ca8faaeb9973512f04c6f64" target="_top" xlink:title="Gets the arguments. ">
<polygon fill="none" stroke="black" points="485.5,-430.5 485.5,-449.5 596.5,-449.5 596.5,-430.5 485.5,-430.5"/>
<text text-anchor="middle" x="541" y="-437.5" font-family="Helvetica,sans-Serif" font-size="10.00">efd::NDQOp::getArgs</text>
</a>
</g>
</g>
<!-- Node17&#45;&gt;Node21 -->
<g id="edge21" class="edge"><title>Node17&#45;&gt;Node21</title>
<path fill="none" stroke="midnightblue" d="M406.643,-425.311C426.905,-427.543 452.17,-430.326 475.244,-432.867"/>
<polygon fill="midnightblue" stroke="midnightblue" points="474.997,-436.361 485.32,-433.977 475.763,-429.403 474.997,-436.361"/>
</g>
<!-- Node22 -->
<g id="node20" class="node"><title>Node22</title>
<g id="a_node20"><a xlink:href="../../d6/d6a/classefd_1_1Node.xhtml#a63e30243eca03b0c85d8c4856e91c79d" target="_top" xlink:title="Gets the i&#45;th child. ">
<polygon fill="none" stroke="black" points="490.5,-392.5 490.5,-411.5 591.5,-411.5 591.5,-392.5 490.5,-392.5"/>
<text text-anchor="middle" x="541" y="-399.5" font-family="Helvetica,sans-Serif" font-size="10.00">efd::Node::getChild</text>
</a>
</g>
</g>
<!-- Node17&#45;&gt;Node22 -->
<g id="edge23" class="edge"><title>Node17&#45;&gt;Node22</title>
<path fill="none" stroke="midnightblue" d="M406.643,-416.689C428.387,-414.294 455.894,-411.264 480.271,-408.579"/>
<polygon fill="midnightblue" stroke="midnightblue" points="480.943,-412.026 490.5,-407.452 480.177,-405.068 480.943,-412.026"/>
</g>
<!-- Node23 -->
<g id="node21" class="node"><title>Node23</title>
<g id="a_node21"><a xlink:href="../../d6/d6a/classefd_1_1Node.xhtml#a11df06f4d8e590426340024cbb2db23e" target="_top" xlink:title="Returns the number of childrem of this node. ">
<polygon fill="none" stroke="black" points="473,-354.5 473,-373.5 609,-373.5 609,-354.5 473,-354.5"/>
<text text-anchor="middle" x="541" y="-361.5" font-family="Helvetica,sans-Serif" font-size="10.00">efd::Node::getChildNumber</text>
</a>
</g>
</g>
<!-- Node17&#45;&gt;Node23 -->
<g id="edge24" class="edge"><title>Node17&#45;&gt;Node23</title>
<path fill="none" stroke="midnightblue" d="M390.816,-411.421C416.441,-400.926 454.929,-385.27 462,-383 469.736,-380.516 477.994,-378.179 486.135,-376.049"/>
<polygon fill="midnightblue" stroke="midnightblue" points="487.129,-379.408 495.963,-373.559 485.41,-372.622 487.129,-379.408"/>
</g>
<!-- Node24 -->
<g id="node22" class="node"><title>Node24</title>
<g id="a_node22"><a xlink:href="../../d1/d4b/classefd_1_1NDGateDecl.xhtml#aa45195dbaf1b921fcece3cac5caaceac" target="_top" xlink:title="Gets the goplist node. ">
<polygon fill="none" stroke="black" points="467,-316.5 467,-335.5 615,-335.5 615,-316.5 467,-316.5"/>
<text text-anchor="middle" x="541" y="-323.5" font-family="Helvetica,sans-Serif" font-size="10.00">efd::NDGateDecl::getGOpList</text>
</a>
</g>
</g>
<!-- Node17&#45;&gt;Node24 -->
<g id="edge25" class="edge"><title>Node17&#45;&gt;Node24</title>
<path fill="none" stroke="midnightblue" d="M400.288,-411.38C409.207,-407.782 418.472,-403.054 426,-397 447.905,-379.385 438.834,-360.92 462,-345 464.902,-343.006 467.991,-341.22 471.202,-339.621"/>
<polygon fill="midnightblue" stroke="midnightblue" points="472.73,-342.773 480.519,-335.591 469.951,-336.348 472.73,-342.773"/>
</g>
<!-- Node25 -->
<g id="node23" class="node"><title>Node25</title>
<g id="a_node23"><a xlink:href="../../db/d1f/classefd_1_1NDGateSign.xhtml#a081605b4c294930734e9d93b34ef85d0" target="_top" xlink:title="Gets the qargs node. ">
<polygon fill="none" stroke="black" points="471.5,-278.5 471.5,-297.5 610.5,-297.5 610.5,-278.5 471.5,-278.5"/>
<text text-anchor="middle" x="541" y="-285.5" font-family="Helvetica,sans-Serif" font-size="10.00">efd::NDGateSign::getQArgs</text>
</a>
</g>
</g>
<!-- Node17&#45;&gt;Node25 -->
<g id="edge29" class="edge"><title>Node17&#45;&gt;Node25</title>
<path fill="none" stroke="midnightblue" d="M403.665,-411.411C411.786,-407.92 419.817,-403.237 426,-397 456.329,-366.403 429.459,-335.232 462,-307 463.796,-305.442 465.7,-304.006 467.688,-302.685"/>
<polygon fill="midnightblue" stroke="midnightblue" points="469.829,-305.5 476.879,-297.592 466.436,-299.378 469.829,-305.5"/>
</g>
<!-- Node26 -->
<g id="node24" class="node"><title>Node26</title>
<g id="a_node24"><a xlink:href="../../dd/d94/classefd_1_1NDQOp.xhtml#af7ef43289355c5bb047a46419177c8ed" target="_top" xlink:title="Gets the quantum arguments. ">
<polygon fill="none" stroke="black" points="481.5,-190.5 481.5,-209.5 600.5,-209.5 600.5,-190.5 481.5,-190.5"/>
<text text-anchor="middle" x="541" y="-197.5" font-family="Helvetica,sans-Serif" font-size="10.00">efd::NDQOp::getQArgs</text>
</a>
</g>
</g>
<!-- Node17&#45;&gt;Node26 -->
<g id="edge31" class="edge"><title>Node17&#45;&gt;Node26</title>
<path fill="none" stroke="midnightblue" d="M406.014,-411.492C413.563,-408.035 420.756,-403.347 426,-397 477.409,-334.777 406.062,-277.185 462,-219 465.043,-215.835 468.518,-213.161 472.272,-210.906"/>
<polygon fill="midnightblue" stroke="midnightblue" points="474.05,-213.931 481.469,-206.368 470.953,-207.654 474.05,-213.931"/>
</g>
<!-- Node17&#45;&gt;Node27 -->
<g id="edge35" class="edge"><title>Node17&#45;&gt;Node27</title>
<path fill="none" stroke="midnightblue" d="M382.084,-411.384C395.96,-401.353 416.138,-384.275 426,-364 458.75,-296.67 412.66,-85.3169 462,-29 463.033,-27.8206 464.126,-26.7082 465.272,-25.6591"/>
<polygon fill="midnightblue" stroke="midnightblue" points="467.521,-28.3502 473.519,-19.6168 463.384,-22.7035 467.521,-28.3502"/>
</g>
<!-- Node28 -->
<g id="node26" class="node"><title>Node28</title>
<g id="a_node26"><a xlink:href="../../dc/d43/classefd_1_1QArgsReplaceVisitor.xhtml#a7dfbaca5bd21d40d429c27293195818e" target="_top" xlink:title="efd::QArgsReplaceVisitor\l::QArgsReplaceVisitor">
<polygon fill="none" stroke="black" points="477,-229 477,-259 605,-259 605,-229 477,-229"/>
<text text-anchor="start" x="485" y="-247" font-family="Helvetica,sans-Serif" font-size="10.00">efd::QArgsReplaceVisitor</text>
<text text-anchor="middle" x="541" y="-236" font-family="Helvetica,sans-Serif" font-size="10.00">::QArgsReplaceVisitor</text>
</a>
</g>
</g>
<!-- Node17&#45;&gt;Node28 -->
<g id="edge37" class="edge"><title>Node17&#45;&gt;Node28</title>
<path fill="none" stroke="midnightblue" d="M405.059,-411.464C412.844,-407.997 420.377,-403.311 426,-397 465.313,-352.877 420.972,-311.533 462,-269 463.857,-267.075 465.863,-265.297 467.985,-263.656"/>
<polygon fill="midnightblue" stroke="midnightblue" points="470.218,-266.378 476.679,-257.981 466.392,-260.516 470.218,-266.378"/>
</g>
<!-- Node29 -->
<g id="node27" class="node"><title>Node29</title>
<g id="a_node27"><a xlink:href="../../dd/d52/classefd_1_1QModule.xhtml#abaf0b3dd099e4b098b89772b6a134d07" target="_top" xlink:title="Replaces the stmt by the vector stmts. ">
<polygon fill="none" stroke="black" points="462,-582.5 462,-601.5 620,-601.5 620,-582.5 462,-582.5"/>
<text text-anchor="middle" x="541" y="-589.5" font-family="Helvetica,sans-Serif" font-size="10.00">efd::QModule::replaceStatement</text>
</a>
</g>
</g>
<!-- Node17&#45;&gt;Node29 -->
<g id="edge38" class="edge"><title>Node17&#45;&gt;Node29</title>
<path fill="none" stroke="midnightblue" d="M370.567,-430.637C379.7,-457.703 409.4,-534.91 462,-573 464.653,-574.921 467.476,-576.65 470.416,-578.205"/>
<polygon fill="midnightblue" stroke="midnightblue" points="468.981,-581.397 479.531,-582.369 471.889,-575.03 468.981,-581.397"/>
</g>
<!-- Node34 -->
<g id="node32" class="node"><title>Node34</title>
<g id="a_node32"><a xlink:href="../../dc/d9d/classefd_1_1NDIfStmt.xhtml#acf7a372c40a8d67d3d642d2bdffb9472" target="_top" xlink:title="Sets the qop. ">
<polygon fill="none" stroke="black" points="482,-544.5 482,-563.5 600,-563.5 600,-544.5 482,-544.5"/>
<text text-anchor="middle" x="541" y="-551.5" font-family="Helvetica,sans-Serif" font-size="10.00">efd::NDIfStmt::setQOp</text>
</a>
</g>
</g>
<!-- Node17&#45;&gt;Node34 -->
<g id="edge44" class="edge"><title>Node17&#45;&gt;Node34</title>
<path fill="none" stroke="midnightblue" d="M373.258,-430.758C386.302,-452.018 420.243,-502.79 462,-530 468.836,-534.454 476.543,-538.119 484.384,-541.124"/>
<polygon fill="midnightblue" stroke="midnightblue" points="483.369,-544.477 493.964,-544.471 485.678,-537.869 483.369,-544.477"/>
</g>
<!-- Node36 -->
<g id="node34" class="node"><title>Node36</title>
<g id="a_node34"><a xlink:href="../../d4/deb/namespaceefd.xhtml#ad7adca0e4de58074aa3f91827469a491" target="_top" xlink:title="Uses the RTTI framework to cast forwardly an unique_ptr. ">
<polygon fill="none" stroke="black" points="480.5,-152.5 480.5,-171.5 601.5,-171.5 601.5,-152.5 480.5,-152.5"/>
<text text-anchor="middle" x="541" y="-159.5" font-family="Helvetica,sans-Serif" font-size="10.00">efd::uniqueCastForward</text>
</a>
</g>
</g>
<!-- Node17&#45;&gt;Node36 -->
<g id="edge47" class="edge"><title>Node17&#45;&gt;Node36</title>
<path fill="none" stroke="midnightblue" d="M406.481,-411.486C413.909,-408.035 420.934,-403.351 426,-397 486.689,-320.916 395.767,-252.31 462,-181 464.749,-178.04 467.876,-175.507 471.259,-173.342"/>
<polygon fill="midnightblue" stroke="midnightblue" points="472.902,-176.432 480.129,-168.684 469.648,-170.234 472.902,-176.432"/>
</g>
<!-- Node19 -->
<g id="node17" class="node"><title>Node19</title>
<g id="a_node17"><a xlink:href="../../d6/d6a/classefd_1_1Node.xhtml#ac078ce64eb404cfdc24b9288908536e4" target="_top" xlink:title="Clones the current node (deep copy). ">
<polygon fill="none" stroke="black" points="666.5,-639.5 666.5,-658.5 773.5,-658.5 773.5,-639.5 666.5,-639.5"/>
<text text-anchor="middle" x="720" y="-646.5" font-family="Helvetica,sans-Serif" font-size="10.00">efd::Node::cloneImpl</text>
</a>
</g>
</g>
<!-- Node18&#45;&gt;Node19 -->
<g id="edge17" class="edge"><title>Node18&#45;&gt;Node19</title>
<path fill="none" stroke="midnightblue" d="M585.753,-634.697C606.977,-636.975 632.86,-639.753 656.15,-642.253"/>
<polygon fill="midnightblue" stroke="midnightblue" points="655.978,-645.755 666.295,-643.342 656.726,-638.795 655.978,-645.755"/>
</g>
<!-- Node20&#45;&gt;Node6 -->
<g id="edge20" class="edge"><title>Node20&#45;&gt;Node6</title>
<path fill="none" stroke="midnightblue" d="M600.949,-468.366C607.674,-465.917 614.19,-462.848 620,-459 664.01,-429.855 695.768,-374.22 710.244,-345"/>
<polygon fill="midnightblue" stroke="midnightblue" points="713.463,-346.383 714.636,-335.853 707.153,-343.353 713.463,-346.383"/>
</g>
<!-- Node21&#45;&gt;Node6 -->
<g id="edge22" class="edge"><title>Node21&#45;&gt;Node6</title>
<path fill="none" stroke="midnightblue" d="M596.673,-430.59C604.762,-428.097 612.791,-424.956 620,-421 655.975,-401.26 688.362,-365.069 705.7,-343.506"/>
<polygon fill="midnightblue" stroke="midnightblue" points="708.558,-345.535 711.98,-335.508 703.052,-341.212 708.558,-345.535"/>
</g>
<!-- Node24&#45;&gt;Node6 -->
<g id="edge26" class="edge"><title>Node24&#45;&gt;Node6</title>
<path fill="none" stroke="midnightblue" d="M615.015,-326C634.756,-326 655.56,-326 673.328,-326"/>
<polygon fill="midnightblue" stroke="midnightblue" points="673.408,-329.5 683.408,-326 673.408,-322.5 673.408,-329.5"/>
</g>
<!-- Node25&#45;&gt;Node6 -->
<g id="edge30" class="edge"><title>Node25&#45;&gt;Node6</title>
<path fill="none" stroke="midnightblue" d="M586.665,-297.589C613.181,-303.282 646.722,-310.483 673.401,-316.21"/>
<polygon fill="midnightblue" stroke="midnightblue" points="672.749,-319.65 683.261,-318.327 674.219,-312.806 672.749,-319.65"/>
</g>
<!-- Node26&#45;&gt;Node6 -->
<g id="edge32" class="edge"><title>Node26&#45;&gt;Node6</title>
<path fill="none" stroke="midnightblue" d="M598.525,-209.56C606.023,-212.021 613.392,-215.114 620,-219 658.326,-241.537 690.672,-283.532 707.197,-307.666"/>
<polygon fill="midnightblue" stroke="midnightblue" points="704.458,-309.867 712.918,-316.245 710.282,-305.984 704.458,-309.867"/>
</g>
<!-- Node27&#45;&gt;Node12 -->
<g id="edge36" class="edge"><title>Node27&#45;&gt;Node12</title>
<path fill="none" stroke="midnightblue" d="M586.665,-19.589C610.337,-24.6713 639.608,-30.9554 664.597,-36.3203"/>
<polygon fill="midnightblue" stroke="midnightblue" points="664.145,-39.8028 674.657,-38.4799 665.614,-32.9588 664.145,-39.8028"/>
</g>
<!-- Node29&#45;&gt;Node15 -->
<g id="edge39" class="edge"><title>Node29&#45;&gt;Node15</title>
<path fill="none" stroke="midnightblue" d="M602.043,-601.514C608.43,-603.987 614.568,-607.095 620,-611 644.33,-628.488 633.333,-648.404 656,-668 662.638,-673.739 670.641,-678.487 678.683,-682.341"/>
<polygon fill="midnightblue" stroke="midnightblue" points="677.498,-685.643 688.061,-686.461 680.313,-679.235 677.498,-685.643"/>
</g>
<!-- Node30 -->
<g id="node28" class="node"><title>Node30</title>
<g id="a_node28"><a xlink:href="../../d6/d6a/classefd_1_1Node.xhtml#a335606078a1d727de214982453c9dd1b" target="_top" xlink:title="Returns a iterator to the end of the vector. ">
<polygon fill="none" stroke="black" points="679.5,-767.5 679.5,-786.5 760.5,-786.5 760.5,-767.5 679.5,-767.5"/>
<text text-anchor="middle" x="720" y="-774.5" font-family="Helvetica,sans-Serif" font-size="10.00">efd::Node::end</text>
</a>
</g>
</g>
<!-- Node29&#45;&gt;Node30 -->
<g id="edge40" class="edge"><title>Node29&#45;&gt;Node30</title>
<path fill="none" stroke="midnightblue" d="M605.695,-601.556C610.9,-604.053 615.773,-607.154 620,-611 656.179,-643.918 629.881,-673.645 656,-715 667.265,-732.836 684.598,-749.395 698.234,-760.905"/>
<polygon fill="midnightblue" stroke="midnightblue" points="696.202,-763.764 706.159,-767.385 700.633,-758.345 696.202,-763.764"/>
</g>
<!-- Node31 -->
<g id="node29" class="node"><title>Node31</title>
<g id="a_node29"><a xlink:href="../../da/ddd/classefd_1_1NDList.xhtml#aa407fd205c6c9841cf866fa023337ece" target="_top" xlink:title="Inserts children in the iterator it. The iterator goes to the first new inserted element. ">
<polygon fill="none" stroke="black" points="657.5,-563.5 657.5,-582.5 782.5,-582.5 782.5,-563.5 657.5,-563.5"/>
<text text-anchor="middle" x="720" y="-570.5" font-family="Helvetica,sans-Serif" font-size="10.00">efd::NDList::addChildren</text>
</a>
</g>
</g>
<!-- Node29&#45;&gt;Node31 -->
<g id="edge41" class="edge"><title>Node29&#45;&gt;Node31</title>
<path fill="none" stroke="midnightblue" d="M620.15,-583.611C629.234,-582.636 638.465,-581.645 647.453,-580.68"/>
<polygon fill="midnightblue" stroke="midnightblue" points="647.909,-584.151 657.478,-579.604 647.162,-577.191 647.909,-584.151"/>
</g>
<!-- Node33 -->
<g id="node31" class="node"><title>Node33</title>
<g id="a_node31"><a xlink:href="../../da/ddd/classefd_1_1NDList.xhtml#ae7c4d5c8dcb0a7439b62e3f662cbb85f" target="_top" xlink:title="Removes the child in the iterator it. The iterator moves to the next element. ">
<polygon fill="none" stroke="black" points="656,-601.5 656,-620.5 784,-620.5 784,-601.5 656,-601.5"/>
<text text-anchor="middle" x="720" y="-608.5" font-family="Helvetica,sans-Serif" font-size="10.00">efd::NDList::removeChild</text>
</a>
</g>
</g>
<!-- Node29&#45;&gt;Node33 -->
<g id="edge43" class="edge"><title>Node29&#45;&gt;Node33</title>
<path fill="none" stroke="midnightblue" d="M620.15,-600.389C628.643,-601.301 637.265,-602.226 645.698,-603.131"/>
<polygon fill="midnightblue" stroke="midnightblue" points="645.552,-606.636 655.868,-604.223 646.299,-599.676 645.552,-606.636"/>
</g>
<!-- Node32 -->
<g id="node30" class="node"><title>Node32</title>
<g id="a_node30"><a xlink:href="../../d6/d6a/classefd_1_1Node.xhtml#a48e9d49d994b9023b8400316e2782e2b" target="_top" xlink:title="Sets the parent node of the current node. ">
<polygon fill="none" stroke="black" points="820,-544.5 820,-563.5 927,-563.5 927,-544.5 820,-544.5"/>
<text text-anchor="middle" x="873.5" y="-551.5" font-family="Helvetica,sans-Serif" font-size="10.00">efd::Node::setParent</text>
</a>
</g>
</g>
<!-- Node31&#45;&gt;Node32 -->
<g id="edge42" class="edge"><title>Node31&#45;&gt;Node32</title>
<path fill="none" stroke="midnightblue" d="M782.621,-565.272C791.549,-564.152 800.749,-562.999 809.7,-561.876"/>
<polygon fill="midnightblue" stroke="midnightblue" points="810.185,-565.343 819.672,-560.625 809.314,-558.397 810.185,-565.343"/>
</g>
<!-- Node35 -->
<g id="node33" class="node"><title>Node35</title>
<g id="a_node33"><a xlink:href="../../d6/d6a/classefd_1_1Node.xhtml#aad4510814ff15bd26fe2f95f9d2a2279" target="_top" xlink:title="Sets the i&#45;th child. ">
<polygon fill="none" stroke="black" points="669.5,-525.5 669.5,-544.5 770.5,-544.5 770.5,-525.5 669.5,-525.5"/>
<text text-anchor="middle" x="720" y="-532.5" font-family="Helvetica,sans-Serif" font-size="10.00">efd::Node::setChild</text>
</a>
</g>
</g>
<!-- Node34&#45;&gt;Node35 -->
<g id="edge45" class="edge"><title>Node34&#45;&gt;Node35</title>
<path fill="none" stroke="midnightblue" d="M600.447,-547.726C619.396,-545.692 640.431,-543.434 659.458,-541.392"/>
<polygon fill="midnightblue" stroke="midnightblue" points="659.93,-544.861 669.499,-540.314 659.182,-537.901 659.93,-544.861"/>
</g>
<!-- Node35&#45;&gt;Node32 -->
<g id="edge46" class="edge"><title>Node35&#45;&gt;Node32</title>
<path fill="none" stroke="midnightblue" d="M770.607,-541.221C783.068,-542.784 796.605,-544.482 809.619,-546.114"/>
<polygon fill="midnightblue" stroke="midnightblue" points="809.557,-549.633 819.915,-547.405 810.428,-542.688 809.557,-549.633"/>
</g>
<!-- Node37&#45;&gt;Node16 -->
<g id="edge50" class="edge"><title>Node37&#45;&gt;Node16</title>
<path fill="none" stroke="midnightblue" d="M260.735,-254.733C277.622,-250.908 296.526,-246.625 313.579,-242.762"/>
<polygon fill="midnightblue" stroke="midnightblue" points="314.397,-246.166 323.376,-240.543 312.85,-239.339 314.397,-246.166"/>
</g>
<!-- Node38&#45;&gt;Node30 -->
<g id="edge52" class="edge"><title>Node38&#45;&gt;Node30</title>
<path fill="none" stroke="midnightblue" d="M271.286,-820.79C351.365,-821.022 497.034,-818.596 620,-801 638.733,-798.32 659.101,-793.687 676.465,-789.202"/>
<polygon fill="midnightblue" stroke="midnightblue" points="677.537,-792.539 686.307,-786.595 675.744,-785.773 677.537,-792.539"/>
</g>
</g>
</svg>
        <g id="navigator" transform="translate(0 0)" fill="#404254">
                <rect fill="#f2f5e9" fill-opacity="0.5" stroke="#606060" stroke-width=".5" x="0" y="0" width="60" height="60"/>
                <use id="zoomplus" xlink:href="#zoomPlus" x="17" y="9" onmousedown="handleZoom(evt,'in')"/>
                <use id="zoomminus" xlink:href="#zoomMin" x="42" y="9" onmousedown="handleZoom(evt,'out')"/>
                <use id="reset" xlink:href="#resetDef" x="30" y="36" onmousedown="handleReset()"/>
                <g id="arrowUp" xlink:href="#dirArrow" transform="translate(30 24)" onmousedown="handlePan(0,-1)">
                  <use xlink:href="#rim" fill="#404040">
                        <set attributeName="fill" to="#808080" begin="arrowUp.mouseover" end="arrowUp.mouseout"/>
                  </use>
                  <path fill="none" stroke="white" stroke-width="1.5" d="M0,-3.0v7 M-2.5,-0.5L0,-3.0L2.5,-0.5"/>
                </g>
                <g id="arrowRight" xlink:href="#dirArrow" transform="rotate(90) translate(36 -43)" onmousedown="handlePan(1,0)">
                  <use xlink:href="#rim" fill="#404040">
                        <set attributeName="fill" to="#808080" begin="arrowRight.mouseover" end="arrowRight.mouseout"/>
                  </use>
                  <path fill="none" stroke="white" stroke-width="1.5" d="M0,-3.0v7 M-2.5,-0.5L0,-3.0L2.5,-0.5"/>
                </g>
                <g id="arrowDown" xlink:href="#dirArrow" transform="rotate(180) translate(-30 -48)" onmousedown="handlePan(0,1)">
                  <use xlink:href="#rim" fill="#404040">
                        <set attributeName="fill" to="#808080" begin="arrowDown.mouseover" end="arrowDown.mouseout"/>
                  </use>
                  <path fill="none" stroke="white" stroke-width="1.5" d="M0,-3.0v7 M-2.5,-0.5L0,-3.0L2.5,-0.5"/>
                </g>
                <g id="arrowLeft" xlink:href="#dirArrow" transform="rotate(270) translate(-36 17)" onmousedown="handlePan(-1,0)">
                  <use xlink:href="#rim" fill="#404040">
                        <set attributeName="fill" to="#808080" begin="arrowLeft.mouseover" end="arrowLeft.mouseout"/>
                  </use>
                  <path fill="none" stroke="white" stroke-width="1.5" d="M0,-3.0v7 M-2.5,-0.5L0,-3.0L2.5,-0.5"/>
                </g>
        </g>
        <svg viewBox="0 0 15 15" width="100%" height="30px" preserveAspectRatio="xMaxYMin meet">
         <g id="arrow_out" transform="scale(0.3 0.3)">
          <a xlink:href="classefd_1_1InlineAllPass_a0d257f9561bb1af85b3ac88d07185dee_cgraph_org.svg" target="_base">
           <rect id="button" ry="5" rx="5" y="6" x="6" height="38" width="38"
                fill="#f2f5e9" fill-opacity="0.5" stroke="#606060" stroke-width="1.0"/>
           <path id="arrow"
             d="M 11.500037,31.436501 C 11.940474,20.09759 22.043105,11.32322 32.158766,21.979434 L 37.068811,17.246167 C 37.068811,17.246167 37.088388,32 37.088388,32 L 22.160133,31.978069 C 22.160133,31.978069 26.997745,27.140456 26.997745,27.140456 C 18.528582,18.264221 13.291696,25.230495 11.500037,31.436501 z"
             style="fill:#404040;"/>
          </a>
         </g>
        </svg>
</svg>
