<?xml version="1.0" encoding="UTF-8" standalone="no"?>
<!DOCTYPE svg PUBLIC "-//W3C//DTD SVG 1.1//EN"
 "http://www.w3.org/Graphics/SVG/1.1/DTD/svg11.dtd">
<!-- Generated by graphviz version 2.40.1 (20161225.0304)
 -->
<!-- Title: efd::InlineAllPass::run Pages: 1 -->
<svg width="815pt" height="717pt"
 viewBox="0.00 0.00 815.00 716.82" xmlns="http://www.w3.org/2000/svg" xmlns:xlink="http://www.w3.org/1999/xlink">
<g id="graph0" class="graph" transform="scale(1 1) rotate(0) translate(4 712.8242)">
<title>efd::InlineAllPass::run</title>
<!-- Node2 -->
<g id="node1" class="node">
<title>Node2</title>
<polygon fill="#bfbfbf" stroke="#000000" points="0,-358.5 0,-377.5 122,-377.5 122,-358.5 0,-358.5"/>
<text text-anchor="middle" x="61" y="-365.5" font-family="Helvetica,sans-Serif" font-size="10.00" fill="#000000">efd::InlineAllPass::run</text>
</g>
<!-- Node3 -->
<g id="node2" class="node">
<title>Node3</title>
<g id="a_node2"><a xlink:href="../../dd/d52/classefd_1_1QModule.xhtml#a2cbccf2cf8dd0e4e2dc30bf12e146644" target="_top" xlink:title="Gets the quantum gate mapped to id. ">
<polygon fill="none" stroke="#000000" points="509,-646.5 509,-665.5 643,-665.5 643,-646.5 509,-646.5"/>
<text text-anchor="middle" x="576" y="-653.5" font-family="Helvetica,sans-Serif" font-size="10.00" fill="#000000">efd::QModule::getQGate</text>
</a>
</g>
</g>
<!-- Node2&#45;&gt;Node3 -->
<g id="edge1" class="edge">
<title>Node2&#45;&gt;Node3</title>
<path fill="none" stroke="#191970" d="M65.0908,-377.7716C85.1493,-424.2205 178.1935,-623.3618 327,-694 401.4713,-729.3514 501.2854,-692.0333 548.7363,-669.9007"/>
<polygon fill="#191970" stroke="#191970" points="550.2665,-673.0486 557.7725,-665.5712 547.2418,-666.7357 550.2665,-673.0486"/>
</g>
<!-- Node5 -->
<g id="node4" class="node">
<title>Node5</title>
<g id="a_node4"><a xlink:href="../../dd/d52/classefd_1_1QModule.xhtml#a3fcf1f575008b4e75182367b6b479129" target="_top" xlink:title="Inlines call and returns an iterator to the first node inserted. ">
<polygon fill="none" stroke="#000000" points="158,-380.5 158,-399.5 291,-399.5 291,-380.5 158,-380.5"/>
<text text-anchor="middle" x="224.5" y="-387.5" font-family="Helvetica,sans-Serif" font-size="10.00" fill="#000000">efd::QModule::inlineCall</text>
</a>
</g>
</g>
<!-- Node2&#45;&gt;Node5 -->
<g id="edge3" class="edge">
<title>Node2&#45;&gt;Node5</title>
<path fill="none" stroke="#191970" d="M122.3465,-376.2546C130.6829,-377.3763 139.3217,-378.5387 147.8851,-379.691"/>
<polygon fill="#191970" stroke="#191970" points="147.5029,-383.171 157.8804,-381.0359 148.4365,-376.2335 147.5029,-383.171"/>
</g>
<!-- Node25 -->
<g id="node24" class="node">
<title>Node25</title>
<g id="a_node24"><a xlink:href="../../dd/d52/classefd_1_1QModule.xhtml#ac00e1eb93f94c00db1e6a661d8f95d9d" target="_top" xlink:title="Iterator to the beginning of the statement node vector. ">
<polygon fill="none" stroke="#000000" points="169.5,-331 169.5,-361 279.5,-361 279.5,-331 169.5,-331"/>
<text text-anchor="start" x="177.5" y="-349" font-family="Helvetica,sans-Serif" font-size="10.00" fill="#000000">efd::QModule::stmt</text>
<text text-anchor="middle" x="224.5" y="-338" font-family="Helvetica,sans-Serif" font-size="10.00" fill="#000000">_begin</text>
</a>
</g>
</g>
<!-- Node2&#45;&gt;Node25 -->
<g id="edge30" class="edge">
<title>Node2&#45;&gt;Node25</title>
<path fill="none" stroke="#191970" d="M122.3465,-359.7454C134.3811,-358.1261 147.0458,-356.422 159.204,-354.786"/>
<polygon fill="#191970" stroke="#191970" points="159.8289,-358.2336 169.2728,-353.4312 158.8954,-351.2961 159.8289,-358.2336"/>
</g>
<!-- Node26 -->
<g id="node25" class="node">
<title>Node26</title>
<g id="a_node25"><a xlink:href="../../dd/d52/classefd_1_1QModule.xhtml#a23d45e3b6c65d5fa14b199da8b0617c7" target="_top" xlink:title="Iterator to the end of the statement node vector. ">
<polygon fill="none" stroke="#000000" points="158,-292.5 158,-311.5 291,-311.5 291,-292.5 158,-292.5"/>
<text text-anchor="middle" x="224.5" y="-299.5" font-family="Helvetica,sans-Serif" font-size="10.00" fill="#000000">efd::QModule::stmt_end</text>
</a>
</g>
</g>
<!-- Node2&#45;&gt;Node26 -->
<g id="edge31" class="edge">
<title>Node2&#45;&gt;Node26</title>
<path fill="none" stroke="#191970" d="M79.233,-358.3361C98.4633,-348.3869 129.8224,-332.8475 158,-322 164.8842,-319.3498 172.2766,-316.8239 179.5409,-314.5143"/>
<polygon fill="#191970" stroke="#191970" points="180.7802,-317.795 189.3077,-311.5075 178.7205,-311.1048 180.7802,-317.795"/>
</g>
<!-- Node4 -->
<g id="node3" class="node">
<title>Node4</title>
<g id="a_node3"><a xlink:href="../../d4/deb/namespaceefd.xhtml#af3487901a239a99750dc5dcdc3a8c868" target="_top" xlink:title="efd::ExitWith">
<polygon fill="none" stroke="#000000" points="713,-627.5 713,-646.5 793,-646.5 793,-627.5 713,-627.5"/>
<text text-anchor="middle" x="753" y="-634.5" font-family="Helvetica,sans-Serif" font-size="10.00" fill="#000000">efd::ExitWith</text>
</a>
</g>
</g>
<!-- Node3&#45;&gt;Node4 -->
<g id="edge2" class="edge">
<title>Node3&#45;&gt;Node4</title>
<path fill="none" stroke="#191970" d="M643.1685,-648.7898C662.9723,-646.664 684.2916,-644.3755 702.8297,-642.3855"/>
<polygon fill="#191970" stroke="#191970" points="703.2459,-645.861 712.8152,-641.3136 702.4987,-638.901 703.2459,-645.861"/>
</g>
<!-- Node5&#45;&gt;Node4 -->
<g id="edge8" class="edge">
<title>Node5&#45;&gt;Node4</title>
<path fill="none" stroke="#191970" d="M231.6652,-399.5678C266.473,-445.7346 419.0829,-644.5001 489,-675 559.8825,-705.9211 587.2045,-690.3454 663,-675 685.5818,-670.4281 709.5401,-660.0083 727.0555,-651.2342"/>
<polygon fill="#191970" stroke="#191970" points="728.7948,-654.2752 736.0737,-646.5766 725.5826,-648.0557 728.7948,-654.2752"/>
</g>
<!-- Node6 -->
<g id="node5" class="node">
<title>Node6</title>
<g id="a_node5"><a xlink:href="../../dd/d94/classefd_1_1NDQOp.xhtml#a8700a0eb5ff3cee0e3b52c56f3cc2b3c" target="_top" xlink:title="Returns true if this is a generic node. ">
<polygon fill="none" stroke="#000000" points="327,-342.5 327,-361.5 453,-361.5 453,-342.5 327,-342.5"/>
<text text-anchor="middle" x="390" y="-349.5" font-family="Helvetica,sans-Serif" font-size="10.00" fill="#000000">efd::NDQOp::isGeneric</text>
</a>
</g>
</g>
<!-- Node5&#45;&gt;Node6 -->
<g id="edge4" class="edge">
<title>Node5&#45;&gt;Node6</title>
<path fill="none" stroke="#191970" d="M266.2626,-380.411C288.2005,-375.3739 315.2803,-369.1562 338.508,-363.8229"/>
<polygon fill="#191970" stroke="#191970" points="339.5746,-367.1692 348.5377,-361.5201 338.008,-360.3467 339.5746,-367.1692"/>
</g>
<!-- Node7 -->
<g id="node6" class="node">
<title>Node7</title>
<g id="a_node6"><a xlink:href="../../dd/d94/classefd_1_1NDQOp.xhtml#ad05708f36f7c1c126e9f0fbba80a4b0f" target="_top" xlink:title="Returns a std::string representation of this Node and its childrem. ">
<polygon fill="none" stroke="#000000" points="330.5,-38.5 330.5,-57.5 449.5,-57.5 449.5,-38.5 330.5,-38.5"/>
<text text-anchor="middle" x="390" y="-45.5" font-family="Helvetica,sans-Serif" font-size="10.00" fill="#000000">efd::NDQOp::toString</text>
</a>
</g>
</g>
<!-- Node5&#45;&gt;Node7 -->
<g id="edge5" class="edge">
<title>Node5&#45;&gt;Node7</title>
<path fill="none" stroke="#191970" d="M278.7529,-380.3296C283.3157,-377.8671 287.5097,-374.8046 291,-371 347.6263,-309.2751 301.4287,-265.7659 327,-186 341.1957,-141.7187 365.7779,-92.8747 379.6669,-66.8255"/>
<polygon fill="#191970" stroke="#191970" points="382.9115,-68.183 384.5833,-57.7209 376.7521,-64.857 382.9115,-68.183"/>
</g>
<!-- Node10 -->
<g id="node9" class="node">
<title>Node10</title>
<g id="a_node9"><a xlink:href="../../d6/d6a/classefd_1_1Node.xhtml#a7df493996977432aee05df57ae6dc375" target="_top" xlink:title="Returns the parent node of the current node. ">
<polygon fill="none" stroke="#000000" points="517.5,-76.5 517.5,-95.5 634.5,-95.5 634.5,-76.5 517.5,-76.5"/>
<text text-anchor="middle" x="576" y="-83.5" font-family="Helvetica,sans-Serif" font-size="10.00" fill="#000000">efd::Node::getParent</text>
</a>
</g>
</g>
<!-- Node5&#45;&gt;Node10 -->
<g id="edge9" class="edge">
<title>Node5&#45;&gt;Node10</title>
<path fill="none" stroke="#191970" d="M271.9588,-380.4931C278.6675,-378.0168 285.2342,-374.9057 291,-371 320.7721,-350.833 459.673,-135.809 489,-115 498.5407,-108.2304 509.7716,-102.9578 520.9367,-98.8806"/>
<polygon fill="#191970" stroke="#191970" points="522.3268,-102.1056 530.6872,-95.5976 520.0932,-95.4716 522.3268,-102.1056"/>
</g>
<!-- Node11 -->
<g id="node10" class="node">
<title>Node11</title>
<g id="a_node10"><a xlink:href="../../d6/d6a/classefd_1_1Node.xhtml#ae80bbf9487f0e43317c29c63a414ff34" target="_top" xlink:title="Returns a iterator pointing to the given child. ">
<polygon fill="none" stroke="#000000" points="333.5,-665.5 333.5,-684.5 446.5,-684.5 446.5,-665.5 333.5,-665.5"/>
<text text-anchor="middle" x="390" y="-672.5" font-family="Helvetica,sans-Serif" font-size="10.00" fill="#000000">efd::Node::findChild</text>
</a>
</g>
</g>
<!-- Node5&#45;&gt;Node11 -->
<g id="edge10" class="edge">
<title>Node5&#45;&gt;Node11</title>
<path fill="none" stroke="#191970" d="M225.4951,-399.5627C229.8932,-437.0549 250.8827,-575.6579 327,-651 330.9512,-654.911 335.6052,-658.1969 340.5649,-660.9551"/>
<polygon fill="#191970" stroke="#191970" points="339.2087,-664.1866 349.7372,-665.3708 342.2452,-657.8794 339.2087,-664.1866"/>
</g>
<!-- Node12 -->
<g id="node11" class="node">
<title>Node12</title>
<g id="a_node11"><a xlink:href="../../d4/deb/namespaceefd.xhtml#acd4cde60c75b526798dab375aa82125c" target="_top" xlink:title="If found, inlines the gate that qop calls. ">
<polygon fill="none" stroke="#000000" points="345.5,-380.5 345.5,-399.5 434.5,-399.5 434.5,-380.5 345.5,-380.5"/>
<text text-anchor="middle" x="390" y="-387.5" font-family="Helvetica,sans-Serif" font-size="10.00" fill="#000000">efd::InlineGate</text>
</a>
</g>
</g>
<!-- Node5&#45;&gt;Node12 -->
<g id="edge11" class="edge">
<title>Node5&#45;&gt;Node12</title>
<path fill="none" stroke="#191970" d="M291.3381,-390C305.7789,-390 320.8915,-390 334.8262,-390"/>
<polygon fill="#191970" stroke="#191970" points="335.2219,-393.5001 345.2218,-390 335.2218,-386.5001 335.2219,-393.5001"/>
</g>
<!-- Node8 -->
<g id="node7" class="node">
<title>Node8</title>
<g id="a_node7"><a xlink:href="../../d6/d6a/classefd_1_1Node.xhtml#a3f8e26eafae005e4befadedeab9b6df4" target="_top" xlink:title="Returns whether this node has any information. ">
<polygon fill="none" stroke="#000000" points="521,-.5 521,-19.5 631,-19.5 631,-.5 521,-.5"/>
<text text-anchor="middle" x="576" y="-7.5" font-family="Helvetica,sans-Serif" font-size="10.00" fill="#000000">efd::Node::isEmpty</text>
</a>
</g>
</g>
<!-- Node7&#45;&gt;Node8 -->
<g id="edge6" class="edge">
<title>Node7&#45;&gt;Node8</title>
<path fill="none" stroke="#191970" d="M436.9357,-38.411C462.0332,-33.2835 493.1186,-26.9328 519.5304,-21.5368"/>
<polygon fill="#191970" stroke="#191970" points="520.3048,-24.951 529.4019,-19.5201 518.9036,-18.0926 520.3048,-24.951"/>
</g>
<!-- Node9 -->
<g id="node8" class="node">
<title>Node9</title>
<g id="a_node8"><a xlink:href="../../d6/d6a/classefd_1_1Node.xhtml#a96ca13a5c2b971b68619ce4a34be0f66" target="_top" xlink:title="Returns a std::string representation of this Node and its childrem. ">
<polygon fill="none" stroke="#000000" points="699,-114.5 699,-133.5 807,-133.5 807,-114.5 699,-114.5"/>
<text text-anchor="middle" x="753" y="-121.5" font-family="Helvetica,sans-Serif" font-size="10.00" fill="#000000">efd::Node::toString</text>
</a>
</g>
</g>
<!-- Node7&#45;&gt;Node9 -->
<g id="edge7" class="edge">
<title>Node7&#45;&gt;Node9</title>
<path fill="none" stroke="#191970" d="M449.6467,-43.8748C506.0556,-41.881 592.3514,-43.8207 663,-67 689.7871,-75.7887 716.5827,-94.3198 733.8798,-107.8756"/>
<polygon fill="#191970" stroke="#191970" points="732.028,-110.8786 742.0089,-114.433 736.423,-105.4303 732.028,-110.8786"/>
</g>
<!-- Node12&#45;&gt;Node3 -->
<g id="edge24" class="edge">
<title>Node12&#45;&gt;Node3</title>
<path fill="none" stroke="#191970" d="M390.9466,-399.5692C395.0558,-435.8242 414.6445,-566.0152 489,-632 493.6913,-636.1632 499.0428,-639.6112 504.7333,-642.466"/>
<polygon fill="#191970" stroke="#191970" points="503.344,-645.6784 513.9084,-646.4811 506.1504,-639.2656 503.344,-645.6784"/>
</g>
<!-- Node12&#45;&gt;Node4 -->
<g id="edge14" class="edge">
<title>Node12&#45;&gt;Node4</title>
<path fill="none" stroke="#191970" d="M391.3846,-399.9418C396.7134,-434.1192 419.2171,-547.5096 489,-599 521.981,-623.3355 635.5929,-632.1856 702.5483,-635.33"/>
<polygon fill="#191970" stroke="#191970" points="702.7291,-638.8414 712.8742,-635.7872 703.0388,-631.8482 702.7291,-638.8414"/>
</g>
<!-- Node12&#45;&gt;Node9 -->
<g id="edge29" class="edge">
<title>Node12&#45;&gt;Node9</title>
<path fill="none" stroke="#191970" d="M434.7269,-383.398C441.6552,-380.5754 448.119,-376.5961 453,-371 520.4325,-293.687 413.4507,-212.4028 489,-143 517.084,-117.2009 619.728,-116.8689 688.4434,-119.8255"/>
<polygon fill="#191970" stroke="#191970" points="688.5913,-123.3361 698.7429,-120.3038 688.9161,-116.3436 688.5913,-123.3361"/>
</g>
<!-- Node12&#45;&gt;Node10 -->
<g id="edge21" class="edge">
<title>Node12&#45;&gt;Node10</title>
<path fill="none" stroke="#191970" d="M434.8186,-383.4772C441.7371,-380.6461 448.1739,-376.6435 453,-371 529.1041,-282.0047 411.8447,-198.0855 489,-110 494.2264,-104.0332 500.788,-99.4877 507.9523,-96.0348"/>
<polygon fill="#191970" stroke="#191970" points="509.3592,-99.241 517.2944,-92.2207 506.7133,-92.7603 509.3592,-99.241"/>
</g>
<!-- Node13 -->
<g id="node12" class="node">
<title>Node13</title>
<g id="a_node12"><a xlink:href="../../d6/d6a/classefd_1_1Node.xhtml#ab813c60af1717cf50e92a28b274c24ef" target="_top" xlink:title="Used by visitor classes. ">
<polygon fill="none" stroke="#000000" points="527.5,-342.5 527.5,-361.5 624.5,-361.5 624.5,-342.5 527.5,-342.5"/>
<text text-anchor="middle" x="576" y="-349.5" font-family="Helvetica,sans-Serif" font-size="10.00" fill="#000000">efd::Node::apply</text>
</a>
</g>
</g>
<!-- Node12&#45;&gt;Node13 -->
<g id="edge12" class="edge">
<title>Node12&#45;&gt;Node13</title>
<path fill="none" stroke="#191970" d="M434.5516,-380.8981C459.9011,-375.7191 491.9135,-369.179 519.0701,-363.6308"/>
<polygon fill="#191970" stroke="#191970" points="520.1193,-366.9889 529.2163,-361.558 518.7181,-360.1305 520.1193,-366.9889"/>
</g>
<!-- Node14 -->
<g id="node13" class="node">
<title>Node14</title>
<g id="a_node13"><a xlink:href="../../d6/d6a/classefd_1_1Node.xhtml#a6c85c9bd21014b73497de741cc75f706" target="_top" xlink:title="Clones the current node (deep copy). ">
<polygon fill="none" stroke="#000000" points="528,-304.5 528,-323.5 624,-323.5 624,-304.5 528,-304.5"/>
<text text-anchor="middle" x="576" y="-311.5" font-family="Helvetica,sans-Serif" font-size="10.00" fill="#000000">efd::Node::clone</text>
</a>
</g>
</g>
<!-- Node12&#45;&gt;Node14 -->
<g id="edge13" class="edge">
<title>Node12&#45;&gt;Node14</title>
<path fill="none" stroke="#191970" d="M432.655,-380.4457C439.7281,-377.9448 446.777,-374.8382 453,-371 472.801,-358.7871 468.7384,-344.4326 489,-333 497.7857,-328.0427 507.7447,-324.3781 517.7081,-321.6693"/>
<polygon fill="#191970" stroke="#191970" points="518.7345,-325.022 527.6298,-319.2667 517.0869,-318.2187 518.7345,-325.022"/>
</g>
<!-- Node15 -->
<g id="node14" class="node">
<title>Node15</title>
<g id="a_node14"><a xlink:href="../../db/d1f/classefd_1_1NDGateSign.xhtml#a0be5984f118128bc3e2bf64a8a390071" target="_top" xlink:title="Gets the args node. ">
<polygon fill="none" stroke="#000000" points="505.5,-266.5 505.5,-285.5 646.5,-285.5 646.5,-266.5 505.5,-266.5"/>
<text text-anchor="middle" x="576" y="-273.5" font-family="Helvetica,sans-Serif" font-size="10.00" fill="#000000">efd::NDGateSign::getArgs</text>
</a>
</g>
</g>
<!-- Node12&#45;&gt;Node15 -->
<g id="edge15" class="edge">
<title>Node12&#45;&gt;Node15</title>
<path fill="none" stroke="#191970" d="M434.78,-381.6351C441.3766,-379.0043 447.7182,-375.546 453,-371 481.328,-346.6184 459.7441,-318.2601 489,-295 491.3258,-293.1509 493.7926,-291.4723 496.3664,-289.9492"/>
<polygon fill="#191970" stroke="#191970" points="498.1304,-292.9793 505.4787,-285.3469 494.9747,-286.731 498.1304,-292.9793"/>
</g>
<!-- Node16 -->
<g id="node15" class="node">
<title>Node16</title>
<g id="a_node15"><a xlink:href="../../dd/d94/classefd_1_1NDQOp.xhtml#a38dbbb3a5ca8faaeb9973512f04c6f64" target="_top" xlink:title="Gets the arguments. ">
<polygon fill="none" stroke="#000000" points="517,-228.5 517,-247.5 635,-247.5 635,-228.5 517,-228.5"/>
<text text-anchor="middle" x="576" y="-235.5" font-family="Helvetica,sans-Serif" font-size="10.00" fill="#000000">efd::NDQOp::getArgs</text>
</a>
</g>
</g>
<!-- Node12&#45;&gt;Node16 -->
<g id="edge16" class="edge">
<title>Node12&#45;&gt;Node16</title>
<path fill="none" stroke="#191970" d="M434.6979,-382.5069C441.4615,-379.7743 447.8779,-376.0561 453,-371 490.8135,-333.6737 449.7618,-292.8256 489,-257 494.2162,-252.2374 500.3416,-248.5696 506.8855,-245.7575"/>
<polygon fill="#191970" stroke="#191970" points="508.4901,-248.9 516.7153,-242.2219 506.1208,-242.3131 508.4901,-248.9"/>
</g>
<!-- Node17 -->
<g id="node16" class="node">
<title>Node17</title>
<g id="a_node16"><a xlink:href="../../d6/d6a/classefd_1_1Node.xhtml#a63e30243eca03b0c85d8c4856e91c79d" target="_top" xlink:title="Gets the i&#45;th child. ">
<polygon fill="none" stroke="#000000" points="521,-190.5 521,-209.5 631,-209.5 631,-190.5 521,-190.5"/>
<text text-anchor="middle" x="576" y="-197.5" font-family="Helvetica,sans-Serif" font-size="10.00" fill="#000000">efd::Node::getChild</text>
</a>
</g>
</g>
<!-- Node12&#45;&gt;Node17 -->
<g id="edge17" class="edge">
<title>Node12&#45;&gt;Node17</title>
<path fill="none" stroke="#191970" d="M434.6992,-382.9523C441.5451,-380.1729 447.9884,-376.3236 453,-371 500.5869,-320.4506 439.4808,-267.658 489,-219 495.1823,-212.9252 502.8292,-208.6 511.0027,-205.5492"/>
<polygon fill="#191970" stroke="#191970" points="512.2637,-208.8229 520.7834,-202.5249 510.1958,-202.1353 512.2637,-208.8229"/>
</g>
<!-- Node18 -->
<g id="node17" class="node">
<title>Node18</title>
<g id="a_node17"><a xlink:href="../../d6/d6a/classefd_1_1Node.xhtml#a11df06f4d8e590426340024cbb2db23e" target="_top" xlink:title="Returns the number of childrem of this node. ">
<polygon fill="none" stroke="#000000" points="501.5,-152.5 501.5,-171.5 650.5,-171.5 650.5,-152.5 501.5,-152.5"/>
<text text-anchor="middle" x="576" y="-159.5" font-family="Helvetica,sans-Serif" font-size="10.00" fill="#000000">efd::Node::getChildNumber</text>
</a>
</g>
</g>
<!-- Node12&#45;&gt;Node18 -->
<g id="edge18" class="edge">
<title>Node12&#45;&gt;Node18</title>
<path fill="none" stroke="#191970" d="M434.5847,-383.272C441.5281,-380.4628 448.0339,-376.5207 453,-371 510.4797,-307.102 429.0758,-242.6113 489,-181 490.2598,-179.7047 491.5859,-178.4881 492.9697,-177.3457"/>
<polygon fill="#191970" stroke="#191970" points="495.1541,-180.0932 501.4644,-171.5826 491.2241,-174.3005 495.1541,-180.0932"/>
</g>
<!-- Node19 -->
<g id="node18" class="node">
<title>Node19</title>
<g id="a_node18"><a xlink:href="../../d1/d4b/classefd_1_1NDGateDecl.xhtml#aa45195dbaf1b921fcece3cac5caaceac" target="_top" xlink:title="Gets the goplist node. ">
<polygon fill="none" stroke="#000000" points="497,-570.5 497,-589.5 655,-589.5 655,-570.5 497,-570.5"/>
<text text-anchor="middle" x="576" y="-577.5" font-family="Helvetica,sans-Serif" font-size="10.00" fill="#000000">efd::NDGateDecl::getGOpList</text>
</a>
</g>
</g>
<!-- Node12&#45;&gt;Node19 -->
<g id="edge19" class="edge">
<title>Node12&#45;&gt;Node19</title>
<path fill="none" stroke="#191970" d="M392.5625,-399.6184C400.9143,-428.9915 430.2585,-518.125 489,-561 491.5404,-562.8543 494.2265,-564.5338 497.0191,-566.0547"/>
<polygon fill="#191970" stroke="#191970" points="495.7126,-569.3078 506.2519,-570.3916 498.6888,-562.972 495.7126,-569.3078"/>
</g>
<!-- Node20 -->
<g id="node19" class="node">
<title>Node20</title>
<g id="a_node19"><a xlink:href="../../dd/d94/classefd_1_1NDQOp.xhtml#aa9d90f493865fe9cdc3fecd468eaa33b" target="_top" xlink:title="Gets the id. ">
<polygon fill="none" stroke="#000000" points="523.5,-532.5 523.5,-551.5 628.5,-551.5 628.5,-532.5 523.5,-532.5"/>
<text text-anchor="middle" x="576" y="-539.5" font-family="Helvetica,sans-Serif" font-size="10.00" fill="#000000">efd::NDQOp::getId</text>
</a>
</g>
</g>
<!-- Node12&#45;&gt;Node20 -->
<g id="edge20" class="edge">
<title>Node12&#45;&gt;Node20</title>
<path fill="none" stroke="#191970" d="M394.1522,-399.5599C405.4316,-424.3224 439.1729,-490.8536 489,-523 496.4567,-527.8108 504.9432,-531.4194 513.623,-534.1232"/>
<polygon fill="#191970" stroke="#191970" points="512.8914,-537.5515 523.4601,-536.8071 514.734,-530.7983 512.8914,-537.5515"/>
</g>
<!-- Node21 -->
<g id="node20" class="node">
<title>Node21</title>
<g id="a_node20"><a xlink:href="../../db/d1f/classefd_1_1NDGateSign.xhtml#a081605b4c294930734e9d93b34ef85d0" target="_top" xlink:title="Gets the qargs node. ">
<polygon fill="none" stroke="#000000" points="501.5,-494.5 501.5,-513.5 650.5,-513.5 650.5,-494.5 501.5,-494.5"/>
<text text-anchor="middle" x="576" y="-501.5" font-family="Helvetica,sans-Serif" font-size="10.00" fill="#000000">efd::NDGateSign::getQArgs</text>
</a>
</g>
</g>
<!-- Node12&#45;&gt;Node21 -->
<g id="edge22" class="edge">
<title>Node12&#45;&gt;Node21</title>
<path fill="none" stroke="#191970" d="M396.9764,-399.589C411.6568,-419.0149 447.8027,-463.0312 489,-485 493.2929,-487.2892 497.845,-489.3027 502.5277,-491.0737"/>
<polygon fill="#191970" stroke="#191970" points="501.6875,-494.4845 512.2818,-494.379 503.9341,-487.8547 501.6875,-494.4845"/>
</g>
<!-- Node22 -->
<g id="node21" class="node">
<title>Node22</title>
<g id="a_node21"><a xlink:href="../../dd/d94/classefd_1_1NDQOp.xhtml#af7ef43289355c5bb047a46419177c8ed" target="_top" xlink:title="Gets the quantum arguments. ">
<polygon fill="none" stroke="#000000" points="513.5,-456.5 513.5,-475.5 638.5,-475.5 638.5,-456.5 513.5,-456.5"/>
<text text-anchor="middle" x="576" y="-463.5" font-family="Helvetica,sans-Serif" font-size="10.00" fill="#000000">efd::NDQOp::getQArgs</text>
</a>
</g>
</g>
<!-- Node12&#45;&gt;Node22 -->
<g id="edge23" class="edge">
<title>Node12&#45;&gt;Node22</title>
<path fill="none" stroke="#191970" d="M403.4224,-399.5346C421.8572,-412.1958 456.4403,-434.4196 489,-447 495.7419,-449.6049 502.9228,-451.8921 510.1575,-453.8906"/>
<polygon fill="#191970" stroke="#191970" points="509.4625,-457.3259 520.0202,-456.4398 511.2142,-450.5487 509.4625,-457.3259"/>
</g>
<!-- Node23 -->
<g id="node22" class="node">
<title>Node23</title>
<g id="a_node22"><a xlink:href="../../df/d1b/classefd_1_1NDValue.xhtml#a53ee724a8db3429bf30bb1936ad548b2" target="_top" xlink:title="Returns a copy to the setted value. ">
<polygon fill="none" stroke="#000000" points="516.5,-418.5 516.5,-437.5 635.5,-437.5 635.5,-418.5 516.5,-418.5"/>
<text text-anchor="middle" x="576" y="-425.5" font-family="Helvetica,sans-Serif" font-size="10.00" fill="#000000">efd::NDValue::getVal</text>
</a>
</g>
</g>
<!-- Node12&#45;&gt;Node23 -->
<g id="edge25" class="edge">
<title>Node12&#45;&gt;Node23</title>
<path fill="none" stroke="#191970" d="M434.5516,-399.1019C459.9011,-404.2809 491.9135,-410.821 519.0701,-416.3692"/>
<polygon fill="#191970" stroke="#191970" points="518.7181,-419.8695 529.2163,-418.442 520.1193,-413.0111 518.7181,-419.8695"/>
</g>
<!-- Node24 -->
<g id="node23" class="node">
<title>Node24</title>
<g id="a_node23"><a xlink:href="../../dd/d52/classefd_1_1QModule.xhtml#abaf0b3dd099e4b098b89772b6a134d07" target="_top" xlink:title="Replaces the stmt by the vector stmts. ">
<polygon fill="none" stroke="#000000" points="489,-380.5 489,-399.5 663,-399.5 663,-380.5 489,-380.5"/>
<text text-anchor="middle" x="576" y="-387.5" font-family="Helvetica,sans-Serif" font-size="10.00" fill="#000000">efd::QModule::replaceStatement</text>
</a>
</g>
</g>
<!-- Node12&#45;&gt;Node24 -->
<g id="edge26" class="edge">
<title>Node12&#45;&gt;Node24</title>
<path fill="none" stroke="#191970" d="M434.5516,-390C447.9522,-390 463.2148,-390 478.6377,-390"/>
<polygon fill="#191970" stroke="#191970" points="478.778,-393.5001 488.778,-390 478.7779,-386.5001 478.778,-393.5001"/>
</g>
<!-- Node24&#45;&gt;Node4 -->
<g id="edge28" class="edge">
<title>Node24&#45;&gt;Node4</title>
<path fill="none" stroke="#191970" d="M648.0838,-399.5868C653.4622,-402.0979 658.5254,-405.1932 663,-409 728.0018,-464.2998 746.3929,-572.8759 751.3105,-617.3222"/>
<polygon fill="#191970" stroke="#191970" points="747.8395,-617.7886 752.3103,-627.3939 754.8053,-617.0971 747.8395,-617.7886"/>
</g>
<!-- Node24&#45;&gt;Node9 -->
<g id="edge27" class="edge">
<title>Node24&#45;&gt;Node9</title>
<path fill="none" stroke="#191970" d="M648.6166,-380.3399C653.8131,-377.837 658.6927,-374.7641 663,-371 732.6887,-310.1005 748.4446,-190.7018 751.9838,-143.6903"/>
<polygon fill="#191970" stroke="#191970" points="755.4829,-143.8159 752.6334,-133.6114 748.4974,-143.3655 755.4829,-143.8159"/>
</g>
</g>
</svg>
