<?xml version="1.0" encoding="UTF-8" standalone="no"?>
<!DOCTYPE svg PUBLIC "-//W3C//DTD SVG 1.1//EN"
 "http://www.w3.org/Graphics/SVG/1.1/DTD/svg11.dtd">
<!-- Generated by graphviz version 2.38.0 (20140413.2041)
 -->
<!-- Title: efd::NDQOpRevCX Pages: 1 -->
<svg width="148pt" height="199pt"
 viewBox="0.00 0.00 147.50 199.00" xmlns="http://www.w3.org/2000/svg" xmlns:xlink="http://www.w3.org/1999/xlink">
<g id="graph0" class="graph" transform="scale(1 1) rotate(0) translate(4 195)">
<title>efd::NDQOpRevCX</title>
<!-- Node4 -->
<g id="node1" class="node"><title>Node4</title>
<polygon fill="#bfbfbf" stroke="black" points="0,-0.5 0,-19.5 104,-19.5 104,-0.5 0,-0.5"/>
<text text-anchor="middle" x="52" y="-7.5" font-family="Helvetica,sans-Serif" font-size="10.00">efd::NDQOpRevCX</text>
</g>
<!-- Node5 -->
<g id="node2" class="node"><title>Node5</title>
<g id="a_node2"><a xlink:href="../../d2/dff/classefd_1_1NDQOpGen.xhtml" target="_top" xlink:title="NDQOp specialized for generic gates. ">
<polygon fill="none" stroke="black" points="7.5,-57.5 7.5,-76.5 96.5,-76.5 96.5,-57.5 7.5,-57.5"/>
<text text-anchor="middle" x="52" y="-64.5" font-family="Helvetica,sans-Serif" font-size="10.00">efd::NDQOpGen</text>
</a>
</g>
</g>
<!-- Node5&#45;&gt;Node4 -->
<g id="edge1" class="edge"><title>Node5&#45;&gt;Node4</title>
<path fill="none" stroke="midnightblue" d="M52,-47.1166C52,-37.8173 52,-27.0557 52,-19.7149"/>
<polygon fill="midnightblue" stroke="midnightblue" points="48.5001,-47.4062 52,-57.4062 55.5001,-47.4063 48.5001,-47.4062"/>
</g>
<!-- Node6 -->
<g id="node3" class="node"><title>Node6</title>
<g id="a_node3"><a xlink:href="../../dd/d94/classefd_1_1NDQOp.xhtml" target="_top" xlink:title="Generic node for quantum operations. This is also the base node for the other quantum gates...">
<polygon fill="none" stroke="black" points="16.5,-114.5 16.5,-133.5 87.5,-133.5 87.5,-114.5 16.5,-114.5"/>
<text text-anchor="middle" x="52" y="-121.5" font-family="Helvetica,sans-Serif" font-size="10.00">efd::NDQOp</text>
</a>
</g>
</g>
<!-- Node6&#45;&gt;Node5 -->
<g id="edge2" class="edge"><title>Node6&#45;&gt;Node5</title>
<path fill="none" stroke="midnightblue" d="M52,-104.117C52,-94.8173 52,-84.0557 52,-76.7149"/>
<polygon fill="midnightblue" stroke="midnightblue" points="48.5001,-104.406 52,-114.406 55.5001,-104.406 48.5001,-104.406"/>
</g>
<!-- Node7 -->
<g id="node4" class="node"><title>Node7</title>
<g id="a_node4"><a xlink:href="../../d6/d6a/classefd_1_1Node.xhtml" target="_top" xlink:title="Base class for AST nodes. ">
<polygon fill="none" stroke="black" points="22.5,-171.5 22.5,-190.5 81.5,-190.5 81.5,-171.5 22.5,-171.5"/>
<text text-anchor="middle" x="52" y="-178.5" font-family="Helvetica,sans-Serif" font-size="10.00">efd::Node</text>
</a>
</g>
</g>
<!-- Node7&#45;&gt;Node6 -->
<g id="edge3" class="edge"><title>Node7&#45;&gt;Node6</title>
<path fill="none" stroke="midnightblue" d="M52,-161.117C52,-151.817 52,-141.056 52,-133.715"/>
<polygon fill="midnightblue" stroke="midnightblue" points="48.5001,-161.406 52,-171.406 55.5001,-161.406 48.5001,-161.406"/>
</g>
<!-- Node7&#45;&gt;Node7 -->
<g id="edge4" class="edge"><title>Node7&#45;&gt;Node7</title>
<path fill="none" stroke="#9a32cd" stroke-dasharray="5,2" d="M91.6722,-185.512C96.4076,-184.691 99.5,-183.188 99.5,-181 99.5,-177.5 91.5833,-175.75 81.6875,-175.75"/>
<polygon fill="#9a32cd" stroke="#9a32cd" points="91.4022,-182.022 81.6875,-186.25 91.9184,-189.003 91.4022,-182.022"/>
<text text-anchor="middle" x="119.5" y="-178.5" font-family="Helvetica,sans-Serif" font-size="10.00"> mParent</text>
</g>
</g>
</svg>
