<?xml version="1.0" encoding="UTF-8" standalone="no"?>
<!DOCTYPE svg PUBLIC "-//W3C//DTD SVG 1.1//EN"
 "http://www.w3.org/Graphics/SVG/1.1/DTD/svg11.dtd">
<!-- Generated by graphviz version 2.38.0 (20140413.2041)
 -->
<!-- Title: lib/Transform/Allocators/IBMQAllocator.cpp Pages: 1 -->
<!--zoomable 542 -->
<svg id="main" version="1.1" xmlns="http://www.w3.org/2000/svg" xmlns:xlink="http://www.w3.org/1999/xlink" xml:space="preserve" onload="init(evt)">
<style type="text/css"><![CDATA[
.edge:hover path { stroke: red; }
.edge:hover polygon { stroke: red; fill: red; }
]]></style>
<script type="text/javascript"><![CDATA[
var edges = document.getElementsByTagName('g');
if (edges && edges.length) {
  for (var i=0;i<edges.length;i++) {
    if (edges[i].id.substr(0,4)=='edge') {
      edges[i].setAttribute('class','edge');
    }
  }
}
]]></script>
        <defs>
                <circle id="rim" cx="0" cy="0" r="7"/>
                <circle id="rim2" cx="0" cy="0" r="3.5"/>
                <g id="zoomPlus">
                        <use xlink:href="#rim" fill="#404040">
                                <set attributeName="fill" to="#808080" begin="zoomplus.mouseover" end="zoomplus.mouseout"/>
                        </use>
                        <path d="M-4,0h8M0,-4v8" fill="none" stroke="white" stroke-width="1.5" pointer-events="none"/>
                </g>
                <g id="zoomMin">
                        <use xlink:href="#rim" fill="#404040">
                                <set attributeName="fill" to="#808080" begin="zoomminus.mouseover" end="zoomminus.mouseout"/>
                        </use>
                        <path d="M-4,0h8" fill="none" stroke="white" stroke-width="1.5" pointer-events="none"/>
                </g>
                <g id="dirArrow">
                        <path fill="none" stroke="white" stroke-width="1.5" d="M0,-3.0v7 M-2.5,-0.5L0,-3.0L2.5,-0.5"/>
                </g>
               <g id="resetDef">
                       <use xlink:href="#rim2" fill="#404040">
                               <set attributeName="fill" to="#808080" begin="reset.mouseover" end="reset.mouseout"/>
                       </use>
               </g>
        </defs>

<script type="text/javascript">
var viewWidth = 1540;
var viewHeight = 542;
var sectionId = 'dynsection-0';
</script>
<script xlink:href="../../svgpan.js"/>
<svg id="graph" class="graph">
<g id="viewport">
<title>lib/Transform/Allocators/IBMQAllocator.cpp</title>
<!-- Node0 -->
<g id="node1" class="node"><title>Node0</title>
<polygon fill="#bfbfbf" stroke="black" points="327.5,-503.5 327.5,-533.5 447.5,-533.5 447.5,-503.5 327.5,-503.5"/>
<text text-anchor="start" x="335.5" y="-521.5" font-family="Helvetica,sans-Serif" font-size="10.00">lib/Transform/Allocators</text>
<text text-anchor="middle" x="387.5" y="-510.5" font-family="Helvetica,sans-Serif" font-size="10.00">/IBMQAllocator.cpp</text>
</g>
<!-- Node1 -->
<g id="node2" class="node"><title>Node1</title>
<g id="a_node2"><a xlink:href="../../d3/d48/IBMQAllocator_8h.xhtml" target="_top" xlink:title="enfield/Transform/Allocators\l/IBMQAllocator.h">
<polygon fill="none" stroke="black" points="367,-436.5 367,-466.5 506,-466.5 506,-436.5 367,-436.5"/>
<text text-anchor="start" x="375" y="-454.5" font-family="Helvetica,sans-Serif" font-size="10.00">enfield/Transform/Allocators</text>
<text text-anchor="middle" x="436.5" y="-443.5" font-family="Helvetica,sans-Serif" font-size="10.00">/IBMQAllocator.h</text>
</a>
</g>
</g>
<!-- Node0&#45;&gt;Node1 -->
<g id="edge1" class="edge"><title>Node0&#45;&gt;Node1</title>
<path fill="none" stroke="midnightblue" d="M398.132,-503.396C404.425,-495.049 412.537,-484.287 419.681,-474.811"/>
<polygon fill="midnightblue" stroke="midnightblue" points="422.664,-476.669 425.888,-466.577 417.074,-472.455 422.664,-476.669"/>
</g>
<!-- Node32 -->
<g id="node33" class="node"><title>Node32</title>
<g id="a_node33"><a xlink:href="../../db/d82/PassCache_8h.xhtml" target="_top" xlink:title="enfield/Transform/PassCache.h">
<polygon fill="none" stroke="black" points="472,-241 472,-260 627,-260 627,-241 472,-241"/>
<text text-anchor="middle" x="549.5" y="-248" font-family="Helvetica,sans-Serif" font-size="10.00">enfield/Transform/PassCache.h</text>
</a>
</g>
</g>
<!-- Node0&#45;&gt;Node32 -->
<g id="edge62" class="edge"><title>Node0&#45;&gt;Node32</title>
<path fill="none" stroke="midnightblue" d="M375.784,-503.491C363.596,-487.121 347.574,-459.304 357.5,-436 392.183,-354.572 482.374,-291.748 525.651,-265.243"/>
<polygon fill="midnightblue" stroke="midnightblue" points="527.608,-268.151 534.379,-260.003 524.004,-262.15 527.608,-268.151"/>
</g>
<!-- Node33 -->
<g id="node34" class="node"><title>Node33</title>
<g id="a_node34"><a xlink:href="../../d7/d2d/BFSPathFinder_8h.xhtml" target="_top" xlink:title="enfield/Support/BFSPathFinder.h">
<polygon fill="none" stroke="black" points="147.5,-442 147.5,-461 307.5,-461 307.5,-442 147.5,-442"/>
<text text-anchor="middle" x="227.5" y="-449" font-family="Helvetica,sans-Serif" font-size="10.00">enfield/Support/BFSPathFinder.h</text>
</a>
</g>
</g>
<!-- Node0&#45;&gt;Node33 -->
<g id="edge66" class="edge"><title>Node0&#45;&gt;Node33</title>
<path fill="none" stroke="midnightblue" d="M352.782,-503.396C324.46,-491.89 284.847,-475.797 257.795,-464.807"/>
<polygon fill="midnightblue" stroke="midnightblue" points="259.022,-461.528 248.44,-461.007 256.388,-468.013 259.022,-461.528"/>
</g>
<!-- Node35 -->
<g id="node36" class="node"><title>Node35</title>
<polygon fill="none" stroke="#bfbfbf" points="524,-442 524,-461 573,-461 573,-442 524,-442"/>
<text text-anchor="middle" x="548.5" y="-449" font-family="Helvetica,sans-Serif" font-size="10.00">random</text>
</g>
<!-- Node0&#45;&gt;Node35 -->
<g id="edge69" class="edge"><title>Node0&#45;&gt;Node35</title>
<path fill="none" stroke="midnightblue" d="M423.451,-503.477C448.934,-493.471 483.895,-479.609 514.5,-467 516.091,-466.345 517.721,-465.667 519.366,-464.98"/>
<polygon fill="midnightblue" stroke="midnightblue" points="520.906,-468.129 528.758,-461.017 518.184,-461.68 520.906,-468.129"/>
</g>
<!-- Node2 -->
<g id="node3" class="node"><title>Node2</title>
<g id="a_node3"><a xlink:href="../../dd/d3b/QbitAllocator_8h.xhtml" target="_top" xlink:title="enfield/Transform/Allocators\l/QbitAllocator.h">
<polygon fill="none" stroke="black" points="669,-369.5 669,-399.5 808,-399.5 808,-369.5 669,-369.5"/>
<text text-anchor="start" x="677" y="-387.5" font-family="Helvetica,sans-Serif" font-size="10.00">enfield/Transform/Allocators</text>
<text text-anchor="middle" x="738.5" y="-376.5" font-family="Helvetica,sans-Serif" font-size="10.00">/QbitAllocator.h</text>
</a>
</g>
</g>
<!-- Node1&#45;&gt;Node2 -->
<g id="edge2" class="edge"><title>Node1&#45;&gt;Node2</title>
<path fill="none" stroke="midnightblue" d="M501.658,-436.476C549.108,-426.263 613.492,-412.406 663.155,-401.717"/>
<polygon fill="midnightblue" stroke="midnightblue" points="664.159,-405.081 673.199,-399.555 662.686,-398.237 664.159,-405.081"/>
</g>
<!-- Node23 -->
<g id="node24" class="node"><title>Node23</title>
<g id="a_node24"><a xlink:href="../../d1/d73/Defs_8h.xhtml" target="_top" xlink:title="enfield/Support/Defs.h">
<polygon fill="none" stroke="black" points="1357.5,-112.5 1357.5,-131.5 1471.5,-131.5 1471.5,-112.5 1357.5,-112.5"/>
<text text-anchor="middle" x="1414.5" y="-119.5" font-family="Helvetica,sans-Serif" font-size="10.00">enfield/Support/Defs.h</text>
</a>
</g>
</g>
<!-- Node1&#45;&gt;Node23 -->
<g id="edge61" class="edge"><title>Node1&#45;&gt;Node23</title>
<path fill="none" stroke="midnightblue" d="M506.203,-437.31C509.003,-436.854 511.777,-436.415 514.5,-436 611.584,-421.206 1390.5,-416.705 1390.5,-318.5 1390.5,-318.5 1390.5,-318.5 1390.5,-249.5 1390.5,-210.537 1401.63,-165.987 1408.73,-141.522"/>
<polygon fill="midnightblue" stroke="midnightblue" points="1412.13,-142.37 1411.65,-131.786 1405.42,-140.356 1412.13,-142.37"/>
</g>
<!-- Node31 -->
<g id="node32" class="node"><title>Node31</title>
<g id="a_node32"><a xlink:href="../../dc/d33/LayersBuilderPass_8h.xhtml" target="_top" xlink:title="enfield/Transform/Layers\lBuilderPass.h">
<polygon fill="none" stroke="black" points="252,-168.5 252,-198.5 377,-198.5 377,-168.5 252,-168.5"/>
<text text-anchor="start" x="260" y="-186.5" font-family="Helvetica,sans-Serif" font-size="10.00">enfield/Transform/Layers</text>
<text text-anchor="middle" x="314.5" y="-175.5" font-family="Helvetica,sans-Serif" font-size="10.00">BuilderPass.h</text>
</a>
</g>
</g>
<!-- Node1&#45;&gt;Node31 -->
<g id="edge56" class="edge"><title>Node1&#45;&gt;Node31</title>
<path fill="none" stroke="midnightblue" d="M411.754,-436.427C367.79,-409.806 277.408,-347.373 242.5,-266 237.068,-253.338 236.143,-247.224 242.5,-235 249.246,-222.029 261.019,-211.696 273.115,-203.842"/>
<polygon fill="midnightblue" stroke="midnightblue" points="275.141,-206.708 281.912,-198.559 271.537,-200.707 275.141,-206.708"/>
</g>
<!-- Node3 -->
<g id="node4" class="node"><title>Node3</title>
<g id="a_node4"><a xlink:href="../../d7/d9d/ArchGraph_8h.xhtml" target="_top" xlink:title="enfield/Arch/ArchGraph.h">
<polygon fill="none" stroke="black" points="251.5,-241 251.5,-260 377.5,-260 377.5,-241 251.5,-241"/>
<text text-anchor="middle" x="314.5" y="-248" font-family="Helvetica,sans-Serif" font-size="10.00">enfield/Arch/ArchGraph.h</text>
</a>
</g>
</g>
<!-- Node2&#45;&gt;Node3 -->
<g id="edge3" class="edge"><title>Node2&#45;&gt;Node3</title>
<path fill="none" stroke="midnightblue" d="M693.526,-369.499C609.388,-343.305 429.663,-287.353 351.776,-263.105"/>
<polygon fill="midnightblue" stroke="midnightblue" points="352.507,-259.667 341.919,-260.036 350.427,-266.35 352.507,-259.667"/>
</g>
<!-- Node15 -->
<g id="node16" class="node"><title>Node15</title>
<g id="a_node16"><a xlink:href="../../d9/dcf/DependencyBuilderPass_8h.xhtml" target="_top" xlink:title="enfield/Transform/Dependency\lBuilderPass.h">
<polygon fill="none" stroke="black" points="663.5,-302.5 663.5,-332.5 813.5,-332.5 813.5,-302.5 663.5,-302.5"/>
<text text-anchor="start" x="671.5" y="-320.5" font-family="Helvetica,sans-Serif" font-size="10.00">enfield/Transform/Dependency</text>
<text text-anchor="middle" x="738.5" y="-309.5" font-family="Helvetica,sans-Serif" font-size="10.00">BuilderPass.h</text>
</a>
</g>
</g>
<!-- Node2&#45;&gt;Node15 -->
<g id="edge17" class="edge"><title>Node2&#45;&gt;Node15</title>
<path fill="none" stroke="midnightblue" d="M738.5,-369.396C738.5,-361.645 738.5,-351.812 738.5,-342.86"/>
<polygon fill="midnightblue" stroke="midnightblue" points="742,-342.576 738.5,-332.577 735,-342.577 742,-342.576"/>
</g>
<!-- Node20 -->
<g id="node21" class="node"><title>Node20</title>
<g id="a_node21"><a xlink:href="../../d9/d41/CommandLine_8h.xhtml" target="_top" xlink:title="enfield/Support/CommandLine.h">
<polygon fill="none" stroke="black" points="1033.5,-308 1033.5,-327 1189.5,-327 1189.5,-308 1033.5,-308"/>
<text text-anchor="middle" x="1111.5" y="-315" font-family="Helvetica,sans-Serif" font-size="10.00">enfield/Support/CommandLine.h</text>
</a>
</g>
</g>
<!-- Node2&#45;&gt;Node20 -->
<g id="edge37" class="edge"><title>Node2&#45;&gt;Node20</title>
<path fill="none" stroke="midnightblue" d="M808.221,-371.35C878.719,-359.065 986.468,-340.288 1052.76,-328.737"/>
<polygon fill="midnightblue" stroke="midnightblue" points="1053.38,-332.182 1062.63,-327.017 1052.17,-325.286 1053.38,-332.182"/>
</g>
<!-- Node30 -->
<g id="node31" class="node"><title>Node30</title>
<g id="a_node31"><a xlink:href="../../dc/d09/Stats_8h.xhtml" target="_top" xlink:title="enfield/Support/Stats.h">
<polygon fill="none" stroke="black" points="763.5,-112.5 763.5,-131.5 879.5,-131.5 879.5,-112.5 763.5,-112.5"/>
<text text-anchor="middle" x="821.5" y="-119.5" font-family="Helvetica,sans-Serif" font-size="10.00">enfield/Support/Stats.h</text>
</a>
</g>
</g>
<!-- Node2&#45;&gt;Node30 -->
<g id="edge53" class="edge"><title>Node2&#45;&gt;Node30</title>
<path fill="none" stroke="midnightblue" d="M764.066,-369.356C781.013,-359.685 803.535,-346.261 822.5,-333 861.352,-305.833 878.822,-305.189 905.5,-266 923.061,-240.204 921.779,-229.847 926.5,-199 928.584,-185.381 934.085,-179.502 926.5,-168 915.86,-151.865 898.105,-141.493 880.194,-134.835"/>
<polygon fill="midnightblue" stroke="midnightblue" points="880.865,-131.368 870.271,-131.505 878.638,-138.004 880.865,-131.368"/>
</g>
<!-- Node4 -->
<g id="node5" class="node"><title>Node4</title>
<g id="a_node5"><a xlink:href="../../d7/d16/Graph_8h.xhtml" target="_top" xlink:title="enfield/Support/Graph.h">
<polygon fill="none" stroke="black" points="0,-174 0,-193 119,-193 119,-174 0,-174"/>
<text text-anchor="middle" x="59.5" y="-181" font-family="Helvetica,sans-Serif" font-size="10.00">enfield/Support/Graph.h</text>
</a>
</g>
</g>
<!-- Node3&#45;&gt;Node4 -->
<g id="edge4" class="edge"><title>Node3&#45;&gt;Node4</title>
<path fill="none" stroke="midnightblue" d="M280.901,-240.936C235.226,-229.293 153.473,-208.454 103.113,-195.617"/>
<polygon fill="midnightblue" stroke="midnightblue" points="103.728,-192.162 93.1734,-193.083 101.999,-198.945 103.728,-192.162"/>
</g>
<!-- Node9 -->
<g id="node10" class="node"><title>Node9</title>
<g id="a_node10"><a xlink:href="../../d4/daf/Nodes_8h.xhtml" target="_top" xlink:title="enfield/Analysis/Nodes.h">
<polygon fill="none" stroke="black" points="476,-112.5 476,-131.5 601,-131.5 601,-112.5 476,-112.5"/>
<text text-anchor="middle" x="538.5" y="-119.5" font-family="Helvetica,sans-Serif" font-size="10.00">enfield/Analysis/Nodes.h</text>
</a>
</g>
</g>
<!-- Node3&#45;&gt;Node9 -->
<g id="edge9" class="edge"><title>Node3&#45;&gt;Node9</title>
<path fill="none" stroke="midnightblue" d="M329.896,-240.805C368.273,-219.133 468.4,-162.588 514.558,-136.521"/>
<polygon fill="midnightblue" stroke="midnightblue" points="516.306,-139.553 523.292,-131.588 512.863,-133.458 516.306,-139.553"/>
</g>
<!-- Node5 -->
<g id="node6" class="node"><title>Node5</title>
<polygon fill="none" stroke="#bfbfbf" points="170.5,-112.5 170.5,-131.5 200.5,-131.5 200.5,-112.5 170.5,-112.5"/>
<text text-anchor="middle" x="185.5" y="-119.5" font-family="Helvetica,sans-Serif" font-size="10.00">set</text>
</g>
<!-- Node4&#45;&gt;Node5 -->
<g id="edge5" class="edge"><title>Node4&#45;&gt;Node5</title>
<path fill="none" stroke="midnightblue" d="M77.5527,-173.975C99.4421,-163.638 136.437,-146.169 160.916,-134.609"/>
<polygon fill="midnightblue" stroke="midnightblue" points="162.701,-137.637 170.249,-130.202 159.711,-131.307 162.701,-137.637"/>
</g>
<!-- Node6 -->
<g id="node7" class="node"><title>Node6</title>
<polygon fill="none" stroke="#bfbfbf" points="961.5,-56.5 961.5,-75.5 1005.5,-75.5 1005.5,-56.5 961.5,-56.5"/>
<text text-anchor="middle" x="983.5" y="-63.5" font-family="Helvetica,sans-Serif" font-size="10.00">vector</text>
</g>
<!-- Node4&#45;&gt;Node6 -->
<g id="edge6" class="edge"><title>Node4&#45;&gt;Node6</title>
<path fill="none" stroke="midnightblue" d="M68.1017,-173.983C84.563,-158.319 122.376,-125.325 161.5,-112 307.894,-62.14 702.139,-85.4665 856.5,-76 888.739,-74.0229 925.552,-71.3705 951.214,-69.458"/>
<polygon fill="midnightblue" stroke="midnightblue" points="951.773,-72.9259 961.483,-68.6877 951.249,-65.9456 951.773,-72.9259"/>
</g>
<!-- Node7 -->
<g id="node8" class="node"><title>Node7</title>
<polygon fill="none" stroke="#bfbfbf" points="375,-112.5 375,-131.5 458,-131.5 458,-112.5 375,-112.5"/>
<text text-anchor="middle" x="416.5" y="-119.5" font-family="Helvetica,sans-Serif" font-size="10.00">unordered_map</text>
</g>
<!-- Node4&#45;&gt;Node7 -->
<g id="edge7" class="edge"><title>Node4&#45;&gt;Node7</title>
<path fill="none" stroke="midnightblue" d="M110.649,-173.975C178.319,-162.697 296.939,-142.927 364.856,-131.607"/>
<polygon fill="midnightblue" stroke="midnightblue" points="365.612,-135.03 374.901,-129.933 364.462,-128.125 365.612,-135.03"/>
</g>
<!-- Node8 -->
<g id="node9" class="node"><title>Node8</title>
<polygon fill="none" stroke="#bfbfbf" points="795.5,-56.5 795.5,-75.5 847.5,-75.5 847.5,-56.5 795.5,-56.5"/>
<text text-anchor="middle" x="821.5" y="-63.5" font-family="Helvetica,sans-Serif" font-size="10.00">memory</text>
</g>
<!-- Node4&#45;&gt;Node8 -->
<g id="edge8" class="edge"><title>Node4&#45;&gt;Node8</title>
<path fill="none" stroke="midnightblue" d="M63.5936,-173.814C71.4948,-158.18 90.4838,-125.658 117.5,-112 247.514,-46.2736 622.755,-96.393 784.877,-75.8065"/>
<polygon fill="midnightblue" stroke="midnightblue" points="785.829,-79.2071 795.242,-74.3463 784.852,-72.2756 785.829,-79.2071"/>
</g>
<!-- Node9&#45;&gt;Node6 -->
<g id="edge15" class="edge"><title>Node9&#45;&gt;Node6</title>
<path fill="none" stroke="midnightblue" d="M601.327,-113.131C604.428,-112.747 607.499,-112.369 610.5,-112 736.525,-96.5215 886.564,-78.5632 951.227,-70.8463"/>
<polygon fill="midnightblue" stroke="midnightblue" points="951.698,-74.3149 961.213,-69.6549 950.869,-67.3642 951.698,-74.3149"/>
</g>
<!-- Node9&#45;&gt;Node8 -->
<g id="edge16" class="edge"><title>Node9&#45;&gt;Node8</title>
<path fill="none" stroke="midnightblue" d="M591.936,-112.45C640.049,-104.493 712.908,-91.8073 785.009,-76.2067"/>
<polygon fill="midnightblue" stroke="midnightblue" points="786.153,-79.5396 795.175,-73.9863 784.659,-72.7008 786.153,-79.5396"/>
</g>
<!-- Node10 -->
<g id="node11" class="node"><title>Node10</title>
<g id="a_node11"><a xlink:href="../../d1/d2e/WrapperVal_8h.xhtml" target="_top" xlink:title="enfield/Support/WrapperVal.h">
<polygon fill="none" stroke="black" points="561.5,-56.5 561.5,-75.5 705.5,-75.5 705.5,-56.5 561.5,-56.5"/>
<text text-anchor="middle" x="633.5" y="-63.5" font-family="Helvetica,sans-Serif" font-size="10.00">enfield/Support/WrapperVal.h</text>
</a>
</g>
</g>
<!-- Node9&#45;&gt;Node10 -->
<g id="edge10" class="edge"><title>Node9&#45;&gt;Node10</title>
<path fill="none" stroke="midnightblue" d="M553.763,-112.324C568.721,-103.822 591.755,-90.7288 609.227,-80.7975"/>
<polygon fill="midnightblue" stroke="midnightblue" points="611.31,-83.639 618.274,-75.6545 607.851,-77.5534 611.31,-83.639"/>
</g>
<!-- Node12 -->
<g id="node13" class="node"><title>Node12</title>
<g id="a_node13"><a xlink:href="../../d5/dfc/RTTI_8h.xhtml" target="_top" xlink:title="enfield/Support/RTTI.h">
<polygon fill="none" stroke="black" points="335.5,-56.5 335.5,-75.5 451.5,-75.5 451.5,-56.5 335.5,-56.5"/>
<text text-anchor="middle" x="393.5" y="-63.5" font-family="Helvetica,sans-Serif" font-size="10.00">enfield/Support/RTTI.h</text>
</a>
</g>
</g>
<!-- Node9&#45;&gt;Node12 -->
<g id="edge12" class="edge"><title>Node9&#45;&gt;Node12</title>
<path fill="none" stroke="midnightblue" d="M515.524,-112.444C491.343,-103.438 453.082,-89.1891 425.854,-79.049"/>
<polygon fill="midnightblue" stroke="midnightblue" points="426.961,-75.7265 416.368,-75.5164 424.518,-82.2864 426.961,-75.7265"/>
</g>
<!-- Node13 -->
<g id="node14" class="node"><title>Node13</title>
<polygon fill="none" stroke="#bfbfbf" points="470,-56.5 470,-75.5 543,-75.5 543,-56.5 470,-56.5"/>
<text text-anchor="middle" x="506.5" y="-63.5" font-family="Helvetica,sans-Serif" font-size="10.00">initializer_list</text>
</g>
<!-- Node9&#45;&gt;Node13 -->
<g id="edge13" class="edge"><title>Node9&#45;&gt;Node13</title>
<path fill="none" stroke="midnightblue" d="M533.216,-112.083C528.789,-104.613 522.337,-93.7244 516.882,-84.5199"/>
<polygon fill="midnightblue" stroke="midnightblue" points="519.795,-82.5697 511.686,-75.7511 513.773,-86.1383 519.795,-82.5697"/>
</g>
<!-- Node14 -->
<g id="node15" class="node"><title>Node14</title>
<polygon fill="none" stroke="#bfbfbf" points="723.5,-56.5 723.5,-75.5 777.5,-75.5 777.5,-56.5 723.5,-56.5"/>
<text text-anchor="middle" x="750.5" y="-63.5" font-family="Helvetica,sans-Serif" font-size="10.00">iostream</text>
</g>
<!-- Node9&#45;&gt;Node14 -->
<g id="edge14" class="edge"><title>Node9&#45;&gt;Node14</title>
<path fill="none" stroke="midnightblue" d="M572.092,-112.444C610.65,-102.622 673.694,-86.5637 713.594,-76.4007"/>
<polygon fill="midnightblue" stroke="midnightblue" points="714.629,-79.7488 723.456,-73.8886 712.901,-72.9653 714.629,-79.7488"/>
</g>
<!-- Node11 -->
<g id="node12" class="node"><title>Node11</title>
<polygon fill="none" stroke="#bfbfbf" points="961,-0.5 961,-19.5 1002,-19.5 1002,-0.5 961,-0.5"/>
<text text-anchor="middle" x="981.5" y="-7.5" font-family="Helvetica,sans-Serif" font-size="10.00">string</text>
</g>
<!-- Node10&#45;&gt;Node11 -->
<g id="edge11" class="edge"><title>Node10&#45;&gt;Node11</title>
<path fill="none" stroke="midnightblue" d="M688.642,-56.4435C762.615,-44.9649 891.49,-24.967 950.451,-15.8179"/>
<polygon fill="midnightblue" stroke="midnightblue" points="951.273,-19.2324 960.618,-14.2403 950.199,-12.3152 951.273,-19.2324"/>
</g>
<!-- Node15&#45;&gt;Node5 -->
<g id="edge36" class="edge"><title>Node15&#45;&gt;Node5</title>
<path fill="none" stroke="midnightblue" d="M663.486,-312.073C601.067,-306.495 510.744,-293.974 436.5,-266 412.032,-256.781 410.906,-244.381 386.5,-235 302.605,-202.751 246.023,-267.216 187.5,-199 174.105,-183.387 176.279,-158.614 180.03,-141.622"/>
<polygon fill="midnightblue" stroke="midnightblue" points="183.466,-142.312 182.574,-131.755 176.688,-140.564 183.466,-142.312"/>
</g>
<!-- Node15&#45;&gt;Node6 -->
<g id="edge35" class="edge"><title>Node15&#45;&gt;Node6</title>
<path fill="none" stroke="midnightblue" d="M805.973,-302.403C845.531,-292.957 890.588,-279.765 905.5,-266 959.352,-216.288 976.537,-124.834 981.579,-85.6357"/>
<polygon fill="midnightblue" stroke="midnightblue" points="985.062,-85.9828 982.74,-75.6454 978.109,-85.1742 985.062,-85.9828"/>
</g>
<!-- Node15&#45;&gt;Node7 -->
<g id="edge33" class="edge"><title>Node15&#45;&gt;Node7</title>
<path fill="none" stroke="midnightblue" d="M663.195,-311.335C591.967,-304.963 491.745,-291.664 462.5,-266 425.999,-233.969 418.261,-172.876 416.754,-141.947"/>
<polygon fill="midnightblue" stroke="midnightblue" points="420.244,-141.579 416.435,-131.693 413.248,-141.797 420.244,-141.579"/>
</g>
<!-- Node15&#45;&gt;Node9 -->
<g id="edge18" class="edge"><title>Node15&#45;&gt;Node9</title>
<path fill="none" stroke="midnightblue" d="M718.142,-302.47C704.169,-292.631 685.358,-278.969 669.5,-266 653.671,-253.054 653.447,-244.803 635.5,-235 581.003,-205.233 538.332,-248.242 500.5,-199 485.98,-180.1 504.922,-154.786 520.874,-138.681"/>
<polygon fill="midnightblue" stroke="midnightblue" points="523.491,-141.021 528.304,-131.583 518.656,-135.959 523.491,-141.021"/>
</g>
<!-- Node16 -->
<g id="node17" class="node"><title>Node16</title>
<g id="a_node17"><a xlink:href="../../df/d29/Pass_8h.xhtml" target="_top" xlink:title="enfield/Transform/Pass.h">
<polygon fill="none" stroke="black" points="619.5,-112.5 619.5,-131.5 745.5,-131.5 745.5,-112.5 619.5,-112.5"/>
<text text-anchor="middle" x="682.5" y="-119.5" font-family="Helvetica,sans-Serif" font-size="10.00">enfield/Transform/Pass.h</text>
</a>
</g>
</g>
<!-- Node15&#45;&gt;Node16 -->
<g id="edge19" class="edge"><title>Node15&#45;&gt;Node16</title>
<path fill="none" stroke="midnightblue" d="M810.819,-302.496C834.403,-294.953 859.199,-283.454 877.5,-266 910.28,-234.737 934.189,-203.056 905.5,-168 895.83,-156.183 816.47,-142.222 755.144,-133.02"/>
<polygon fill="midnightblue" stroke="midnightblue" points="755.49,-129.533 745.085,-131.528 754.464,-136.457 755.49,-129.533"/>
</g>
<!-- Node17 -->
<g id="node18" class="node"><title>Node17</title>
<g id="a_node18"><a xlink:href="../../d4/d73/QModule_8h.xhtml" target="_top" xlink:title="enfield/Transform/QModule.h">
<polygon fill="none" stroke="black" points="510,-174 510,-193 653,-193 653,-174 510,-174"/>
<text text-anchor="middle" x="581.5" y="-181" font-family="Helvetica,sans-Serif" font-size="10.00">enfield/Transform/QModule.h</text>
</a>
</g>
</g>
<!-- Node15&#45;&gt;Node17 -->
<g id="edge21" class="edge"><title>Node15&#45;&gt;Node17</title>
<path fill="none" stroke="midnightblue" d="M728.786,-302.223C716.461,-284.839 693.857,-255.292 669.5,-235 651.344,-219.874 628.05,-206.733 609.99,-197.65"/>
<polygon fill="midnightblue" stroke="midnightblue" points="611.081,-194.287 600.56,-193.035 608.003,-200.575 611.081,-194.287"/>
</g>
<!-- Node18 -->
<g id="node19" class="node"><title>Node18</title>
<g id="a_node19"><a xlink:href="../../d6/d94/XbitToNumberPass_8h.xhtml" target="_top" xlink:title="enfield/Transform/XbitTo\lNumberPass.h">
<polygon fill="none" stroke="black" points="721.5,-235.5 721.5,-265.5 845.5,-265.5 845.5,-235.5 721.5,-235.5"/>
<text text-anchor="start" x="729.5" y="-253.5" font-family="Helvetica,sans-Serif" font-size="10.00">enfield/Transform/XbitTo</text>
<text text-anchor="middle" x="783.5" y="-242.5" font-family="Helvetica,sans-Serif" font-size="10.00">NumberPass.h</text>
</a>
</g>
</g>
<!-- Node15&#45;&gt;Node18 -->
<g id="edge25" class="edge"><title>Node15&#45;&gt;Node18</title>
<path fill="none" stroke="midnightblue" d="M748.264,-302.396C754.043,-294.049 761.494,-283.287 768.054,-273.811"/>
<polygon fill="midnightblue" stroke="midnightblue" points="770.94,-275.791 773.755,-265.577 765.185,-271.806 770.94,-275.791"/>
</g>
<!-- Node19 -->
<g id="node20" class="node"><title>Node19</title>
<polygon fill="none" stroke="#bfbfbf" points="862,-174 862,-193 897,-193 897,-174 862,-174"/>
<text text-anchor="middle" x="879.5" y="-181" font-family="Helvetica,sans-Serif" font-size="10.00">map</text>
</g>
<!-- Node15&#45;&gt;Node19 -->
<g id="edge34" class="edge"><title>Node15&#45;&gt;Node19</title>
<path fill="none" stroke="midnightblue" d="M795.931,-302.473C816.864,-294.789 839.139,-283.202 854.5,-266 870.1,-248.53 875.966,-221.516 878.172,-203.432"/>
<polygon fill="midnightblue" stroke="midnightblue" points="881.677,-203.547 879.143,-193.26 874.708,-202.883 881.677,-203.547"/>
</g>
<!-- Node16&#45;&gt;Node8 -->
<g id="edge20" class="edge"><title>Node16&#45;&gt;Node8</title>
<path fill="none" stroke="midnightblue" d="M704.525,-112.444C727.604,-103.478 764.062,-89.314 790.141,-79.1827"/>
<polygon fill="midnightblue" stroke="midnightblue" points="791.524,-82.4002 799.578,-75.5164 788.989,-75.8753 791.524,-82.4002"/>
</g>
<!-- Node17&#45;&gt;Node7 -->
<g id="edge24" class="edge"><title>Node17&#45;&gt;Node7</title>
<path fill="none" stroke="midnightblue" d="M557.86,-173.975C529.556,-163.769 481.967,-146.608 449.914,-135.049"/>
<polygon fill="midnightblue" stroke="midnightblue" points="450.691,-131.609 440.097,-131.509 448.316,-138.194 450.691,-131.609"/>
</g>
<!-- Node17&#45;&gt;Node9 -->
<g id="edge22" class="edge"><title>Node17&#45;&gt;Node9</title>
<path fill="none" stroke="midnightblue" d="M575.339,-173.975C568.889,-165.05 558.596,-150.807 550.527,-139.643"/>
<polygon fill="midnightblue" stroke="midnightblue" points="553.344,-137.564 544.649,-131.509 547.67,-141.664 553.344,-137.564"/>
</g>
<!-- Node17&#45;&gt;Node16 -->
<g id="edge23" class="edge"><title>Node17&#45;&gt;Node16</title>
<path fill="none" stroke="midnightblue" d="M595.971,-173.975C612.471,-164.255 639.678,-148.227 659.181,-136.737"/>
<polygon fill="midnightblue" stroke="midnightblue" points="661.216,-139.601 668.056,-131.509 657.663,-133.569 661.216,-139.601"/>
</g>
<!-- Node18&#45;&gt;Node5 -->
<g id="edge31" class="edge"><title>Node18&#45;&gt;Node5</title>
<path fill="none" stroke="midnightblue" d="M721.219,-243.31C694.789,-240.706 663.644,-237.668 635.5,-235 548.192,-226.724 319.068,-241.761 242.5,-199 219.281,-186.033 202.697,-159.248 193.603,-141.197"/>
<polygon fill="midnightblue" stroke="midnightblue" points="196.676,-139.51 189.222,-131.98 190.353,-142.514 196.676,-139.51"/>
</g>
<!-- Node18&#45;&gt;Node6 -->
<g id="edge30" class="edge"><title>Node18&#45;&gt;Node6</title>
<path fill="none" stroke="midnightblue" d="M793.913,-235.457C806.761,-218.567 829.711,-189.77 852.5,-168 888.321,-133.781 935.347,-99.8191 962.214,-81.3046"/>
<polygon fill="midnightblue" stroke="midnightblue" points="964.223,-84.1705 970.507,-75.6399 960.275,-78.3902 964.223,-84.1705"/>
</g>
<!-- Node18&#45;&gt;Node7 -->
<g id="edge29" class="edge"><title>Node18&#45;&gt;Node7</title>
<path fill="none" stroke="midnightblue" d="M755.186,-235.289C737.441,-225.896 714.428,-212.805 695.5,-199 678.978,-186.95 679.819,-177.087 661.5,-168 659.325,-166.921 539.53,-145.192 468.281,-132.33"/>
<polygon fill="midnightblue" stroke="midnightblue" points="468.604,-128.831 458.141,-130.5 467.36,-135.72 468.604,-128.831"/>
</g>
<!-- Node18&#45;&gt;Node9 -->
<g id="edge28" class="edge"><title>Node18&#45;&gt;Node9</title>
<path fill="none" stroke="midnightblue" d="M771.914,-235.246C756.376,-217.045 727.067,-185.786 695.5,-168 666.204,-151.493 630.357,-140.623 600.317,-133.709"/>
<polygon fill="midnightblue" stroke="midnightblue" points="600.889,-130.251 590.37,-131.514 599.381,-137.087 600.889,-130.251"/>
</g>
<!-- Node18&#45;&gt;Node16 -->
<g id="edge26" class="edge"><title>Node18&#45;&gt;Node16</title>
<path fill="none" stroke="midnightblue" d="M785.117,-235.38C786.355,-217.887 785.881,-187.957 771.5,-168 760.415,-152.617 742.528,-142.161 725.687,-135.231"/>
<polygon fill="midnightblue" stroke="midnightblue" points="726.543,-131.812 715.951,-131.547 724.066,-138.36 726.543,-131.812"/>
</g>
<!-- Node18&#45;&gt;Node17 -->
<g id="edge27" class="edge"><title>Node18&#45;&gt;Node17</title>
<path fill="none" stroke="midnightblue" d="M739.669,-235.396C703.128,-223.638 651.701,-207.089 617.523,-196.092"/>
<polygon fill="midnightblue" stroke="midnightblue" points="618.529,-192.738 607.937,-193.007 616.384,-199.402 618.529,-192.738"/>
</g>
<!-- Node18&#45;&gt;Node19 -->
<g id="edge32" class="edge"><title>Node18&#45;&gt;Node19</title>
<path fill="none" stroke="midnightblue" d="M804.331,-235.396C820.28,-224.597 842.198,-209.756 858.251,-198.887"/>
<polygon fill="midnightblue" stroke="midnightblue" points="860.618,-201.512 866.936,-193.007 856.693,-195.715 860.618,-201.512"/>
</g>
<!-- Node20&#45;&gt;Node6 -->
<g id="edge50" class="edge"><title>Node20&#45;&gt;Node6</title>
<path fill="none" stroke="midnightblue" d="M1108.9,-307.82C1101.73,-284.453 1080.42,-218.573 1053.5,-168 1036.72,-136.481 1011.96,-103.005 996.828,-83.6028"/>
<polygon fill="midnightblue" stroke="midnightblue" points="999.56,-81.415 990.616,-75.7362 994.067,-85.7533 999.56,-81.415"/>
</g>
<!-- Node20&#45;&gt;Node8 -->
<g id="edge52" class="edge"><title>Node20&#45;&gt;Node8</title>
<path fill="none" stroke="midnightblue" d="M1103,-307.819C1074.22,-278.615 977.248,-181.849 888.5,-112 874.275,-100.805 857.345,-89.4487 844.062,-80.9454"/>
<polygon fill="midnightblue" stroke="midnightblue" points="845.851,-77.9352 835.528,-75.5512 842.111,-83.8525 845.851,-77.9352"/>
</g>
<!-- Node20&#45;&gt;Node11 -->
<g id="edge49" class="edge"><title>Node20&#45;&gt;Node11</title>
<path fill="none" stroke="midnightblue" d="M1179.33,-307.96C1212.52,-301.032 1251.47,-288.528 1280.5,-266 1313.89,-240.089 1329.5,-226.765 1329.5,-184.5 1329.5,-184.5 1329.5,-184.5 1329.5,-121 1329.5,-54.767 1097.42,-23.3522 1012.31,-14.0583"/>
<polygon fill="midnightblue" stroke="midnightblue" points="1012.54,-10.5631 1002.23,-12.9863 1011.8,-17.5239 1012.54,-10.5631"/>
</g>
<!-- Node21 -->
<g id="node22" class="node"><title>Node21</title>
<g id="a_node22"><a xlink:href="../../d1/d5e/PossibleValuesListTrait_8h.xhtml" target="_top" xlink:title="enfield/Support/Possible\lValuesListTrait.h">
<polygon fill="none" stroke="black" points="1149.5,-235.5 1149.5,-265.5 1271.5,-265.5 1271.5,-235.5 1149.5,-235.5"/>
<text text-anchor="start" x="1157.5" y="-253.5" font-family="Helvetica,sans-Serif" font-size="10.00">enfield/Support/Possible</text>
<text text-anchor="middle" x="1210.5" y="-242.5" font-family="Helvetica,sans-Serif" font-size="10.00">ValuesListTrait.h</text>
</a>
</g>
</g>
<!-- Node20&#45;&gt;Node21 -->
<g id="edge38" class="edge"><title>Node20&#45;&gt;Node21</title>
<path fill="none" stroke="midnightblue" d="M1124.85,-307.734C1139.07,-298.4 1162.03,-283.325 1180.6,-271.131"/>
<polygon fill="midnightblue" stroke="midnightblue" points="1182.6,-274.003 1189.04,-265.589 1178.76,-268.152 1182.6,-274.003"/>
</g>
<!-- Node29 -->
<g id="node30" class="node"><title>Node29</title>
<polygon fill="none" stroke="#bfbfbf" points="1070,-112.5 1070,-131.5 1119,-131.5 1119,-112.5 1070,-112.5"/>
<text text-anchor="middle" x="1094.5" y="-119.5" font-family="Helvetica,sans-Serif" font-size="10.00">cassert</text>
</g>
<!-- Node20&#45;&gt;Node29 -->
<g id="edge51" class="edge"><title>Node20&#45;&gt;Node29</title>
<path fill="none" stroke="midnightblue" d="M1110.75,-307.936C1108.19,-278.787 1099.77,-182.968 1096.16,-141.928"/>
<polygon fill="midnightblue" stroke="midnightblue" points="1099.64,-141.562 1095.28,-131.907 1092.67,-142.175 1099.64,-141.562"/>
</g>
<!-- Node22 -->
<g id="node23" class="node"><title>Node22</title>
<g id="a_node23"><a xlink:href="../../dd/d62/EnumString_8h.xhtml" target="_top" xlink:title="enfield/Support/EnumString.h">
<polygon fill="none" stroke="black" points="1143.5,-174 1143.5,-193 1287.5,-193 1287.5,-174 1143.5,-174"/>
<text text-anchor="middle" x="1215.5" y="-181" font-family="Helvetica,sans-Serif" font-size="10.00">enfield/Support/EnumString.h</text>
</a>
</g>
</g>
<!-- Node21&#45;&gt;Node22 -->
<g id="edge39" class="edge"><title>Node21&#45;&gt;Node22</title>
<path fill="none" stroke="midnightblue" d="M1211.58,-235.396C1212.31,-225.963 1213.27,-213.448 1214.06,-203.189"/>
<polygon fill="midnightblue" stroke="midnightblue" points="1217.55,-203.434 1214.83,-193.195 1210.57,-202.897 1217.55,-203.434"/>
</g>
<!-- Node22&#45;&gt;Node6 -->
<g id="edge45" class="edge"><title>Node22&#45;&gt;Node6</title>
<path fill="none" stroke="midnightblue" d="M1207.05,-173.88C1192.22,-159.208 1159.99,-129.293 1127.5,-112 1091.41,-92.7888 1045.79,-80.2749 1015.69,-73.4336"/>
<polygon fill="midnightblue" stroke="midnightblue" points="1016.24,-69.9724 1005.72,-71.2486 1014.74,-76.8099 1016.24,-69.9724"/>
</g>
<!-- Node22&#45;&gt;Node23 -->
<g id="edge40" class="edge"><title>Node22&#45;&gt;Node23</title>
<path fill="none" stroke="midnightblue" d="M1244.01,-173.975C1278.74,-163.592 1337.54,-146.012 1376.19,-134.454"/>
<polygon fill="midnightblue" stroke="midnightblue" points="1377.46,-137.727 1386.04,-131.509 1375.46,-131.02 1377.46,-137.727"/>
</g>
<!-- Node27 -->
<g id="node28" class="node"><title>Node27</title>
<polygon fill="none" stroke="#bfbfbf" points="1245.5,-112.5 1245.5,-131.5 1301.5,-131.5 1301.5,-112.5 1245.5,-112.5"/>
<text text-anchor="middle" x="1273.5" y="-119.5" font-family="Helvetica,sans-Serif" font-size="10.00">algorithm</text>
</g>
<!-- Node22&#45;&gt;Node27 -->
<g id="edge46" class="edge"><title>Node22&#45;&gt;Node27</title>
<path fill="none" stroke="midnightblue" d="M1223.81,-173.975C1232.68,-164.873 1246.95,-150.241 1257.92,-138.983"/>
<polygon fill="midnightblue" stroke="midnightblue" points="1260.73,-141.113 1265.21,-131.509 1255.72,-136.227 1260.73,-141.113"/>
</g>
<!-- Node28 -->
<g id="node29" class="node"><title>Node28</title>
<polygon fill="none" stroke="#bfbfbf" points="1176,-112.5 1176,-131.5 1227,-131.5 1227,-112.5 1176,-112.5"/>
<text text-anchor="middle" x="1201.5" y="-119.5" font-family="Helvetica,sans-Serif" font-size="10.00">typeinfo</text>
</g>
<!-- Node22&#45;&gt;Node28 -->
<g id="edge47" class="edge"><title>Node22&#45;&gt;Node28</title>
<path fill="none" stroke="midnightblue" d="M1213.49,-173.975C1211.5,-165.492 1208.37,-152.204 1205.81,-141.322"/>
<polygon fill="midnightblue" stroke="midnightblue" points="1209.2,-140.442 1203.5,-131.509 1202.39,-142.045 1209.2,-140.442"/>
</g>
<!-- Node22&#45;&gt;Node29 -->
<g id="edge48" class="edge"><title>Node22&#45;&gt;Node29</title>
<path fill="none" stroke="midnightblue" d="M1198.16,-173.975C1177.95,-164.034 1144.31,-147.495 1120.86,-135.961"/>
<polygon fill="midnightblue" stroke="midnightblue" points="1122.32,-132.781 1111.8,-131.509 1119.23,-139.063 1122.32,-132.781"/>
</g>
<!-- Node23&#45;&gt;Node6 -->
<g id="edge41" class="edge"><title>Node23&#45;&gt;Node6</title>
<path fill="none" stroke="midnightblue" d="M1357.27,-113.829C1265.57,-102.341 1088.67,-80.1772 1015.94,-71.0645"/>
<polygon fill="midnightblue" stroke="midnightblue" points="1015.95,-67.5379 1005.59,-69.7674 1015.08,-74.4836 1015.95,-67.5379"/>
</g>
<!-- Node24 -->
<g id="node25" class="node"><title>Node24</title>
<polygon fill="none" stroke="#bfbfbf" points="1485.5,-56.5 1485.5,-75.5 1531.5,-75.5 1531.5,-56.5 1485.5,-56.5"/>
<text text-anchor="middle" x="1508.5" y="-63.5" font-family="Helvetica,sans-Serif" font-size="10.00">cstdint</text>
</g>
<!-- Node23&#45;&gt;Node24 -->
<g id="edge42" class="edge"><title>Node23&#45;&gt;Node24</title>
<path fill="none" stroke="midnightblue" d="M1429.6,-112.324C1444.4,-103.822 1467.19,-90.7288 1484.48,-80.7975"/>
<polygon fill="midnightblue" stroke="midnightblue" points="1486.51,-83.6707 1493.43,-75.6545 1483.02,-77.6009 1486.51,-83.6707"/>
</g>
<!-- Node25 -->
<g id="node26" class="node"><title>Node25</title>
<polygon fill="none" stroke="#bfbfbf" points="1357.5,-56.5 1357.5,-75.5 1397.5,-75.5 1397.5,-56.5 1357.5,-56.5"/>
<text text-anchor="middle" x="1377.5" y="-63.5" font-family="Helvetica,sans-Serif" font-size="10.00">limits</text>
</g>
<!-- Node23&#45;&gt;Node25 -->
<g id="edge43" class="edge"><title>Node23&#45;&gt;Node25</title>
<path fill="none" stroke="midnightblue" d="M1408.39,-112.083C1403.22,-104.534 1395.65,-93.4948 1389.31,-84.2298"/>
<polygon fill="midnightblue" stroke="midnightblue" points="1392.04,-82.0221 1383.5,-75.7511 1386.26,-85.9787 1392.04,-82.0221"/>
</g>
<!-- Node26 -->
<g id="node27" class="node"><title>Node26</title>
<polygon fill="none" stroke="#bfbfbf" points="1415.5,-56.5 1415.5,-75.5 1467.5,-75.5 1467.5,-56.5 1415.5,-56.5"/>
<text text-anchor="middle" x="1441.5" y="-63.5" font-family="Helvetica,sans-Serif" font-size="10.00">ostream</text>
</g>
<!-- Node23&#45;&gt;Node26 -->
<g id="edge44" class="edge"><title>Node23&#45;&gt;Node26</title>
<path fill="none" stroke="midnightblue" d="M1418.96,-112.083C1422.65,-104.691 1428.02,-93.9533 1432.59,-84.8111"/>
<polygon fill="midnightblue" stroke="midnightblue" points="1435.78,-86.2606 1437.12,-75.7511 1429.52,-83.1301 1435.78,-86.2606"/>
</g>
<!-- Node30&#45;&gt;Node8 -->
<g id="edge55" class="edge"><title>Node30&#45;&gt;Node8</title>
<path fill="none" stroke="midnightblue" d="M821.5,-112.083C821.5,-105.006 821.5,-94.8611 821.5,-85.9865"/>
<polygon fill="midnightblue" stroke="midnightblue" points="825,-85.751 821.5,-75.7511 818,-85.7511 825,-85.751"/>
</g>
<!-- Node30&#45;&gt;Node14 -->
<g id="edge54" class="edge"><title>Node30&#45;&gt;Node14</title>
<path fill="none" stroke="midnightblue" d="M810.093,-112.324C799.391,-104.185 783.159,-91.8395 770.337,-82.0874"/>
<polygon fill="midnightblue" stroke="midnightblue" points="772.193,-79.1018 762.115,-75.8339 767.956,-84.6734 772.193,-79.1018"/>
</g>
<!-- Node31&#45;&gt;Node5 -->
<g id="edge59" class="edge"><title>Node31&#45;&gt;Node5</title>
<path fill="none" stroke="midnightblue" d="M283.929,-168.399C261.288,-157.957 230.851,-143.918 209.847,-134.23"/>
<polygon fill="midnightblue" stroke="midnightblue" points="211.192,-130.996 200.646,-129.986 208.26,-137.352 211.192,-130.996"/>
</g>
<!-- Node31&#45;&gt;Node7 -->
<g id="edge60" class="edge"><title>Node31&#45;&gt;Node7</title>
<path fill="none" stroke="midnightblue" d="M338.673,-168.399C355.022,-158.862 376.515,-146.325 392.77,-136.842"/>
<polygon fill="midnightblue" stroke="midnightblue" points="394.784,-139.72 401.658,-131.658 391.257,-133.673 394.784,-139.72"/>
</g>
<!-- Node31&#45;&gt;Node9 -->
<g id="edge58" class="edge"><title>Node31&#45;&gt;Node9</title>
<path fill="none" stroke="midnightblue" d="M367.301,-168.475C406.79,-157.986 460.056,-143.837 496.629,-134.122"/>
<polygon fill="midnightblue" stroke="midnightblue" points="497.71,-137.456 506.476,-131.506 495.913,-130.691 497.71,-137.456"/>
</g>
<!-- Node31&#45;&gt;Node16 -->
<g id="edge57" class="edge"><title>Node31&#45;&gt;Node16</title>
<path fill="none" stroke="midnightblue" d="M377.343,-172.339C445.001,-161.4 552.001,-144.1 619.658,-133.161"/>
<polygon fill="midnightblue" stroke="midnightblue" points="620.443,-136.579 629.756,-131.528 619.325,-129.669 620.443,-136.579"/>
</g>
<!-- Node32&#45;&gt;Node5 -->
<g id="edge65" class="edge"><title>Node32&#45;&gt;Node5</title>
<path fill="none" stroke="midnightblue" d="M479.291,-240.994C382.747,-229.021 219.687,-207.689 209.5,-199 192.919,-184.858 187.656,-159.35 186.061,-141.815"/>
<polygon fill="midnightblue" stroke="midnightblue" points="189.544,-141.419 185.46,-131.643 182.556,-141.832 189.544,-141.419"/>
</g>
<!-- Node32&#45;&gt;Node16 -->
<g id="edge63" class="edge"><title>Node32&#45;&gt;Node16</title>
<path fill="none" stroke="midnightblue" d="M588.355,-240.975C612.644,-233.715 642.766,-220.867 661.5,-199 675.249,-182.952 680.052,-158.622 681.699,-141.834"/>
<polygon fill="midnightblue" stroke="midnightblue" points="685.208,-141.829 682.407,-131.611 678.225,-141.346 685.208,-141.829"/>
</g>
<!-- Node32&#45;&gt;Node17 -->
<g id="edge64" class="edge"><title>Node32&#45;&gt;Node17</title>
<path fill="none" stroke="midnightblue" d="M553.816,-240.734C558.662,-230.89 566.652,-214.66 572.806,-202.159"/>
<polygon fill="midnightblue" stroke="midnightblue" points="575.976,-203.645 577.253,-193.127 569.696,-200.553 575.976,-203.645"/>
</g>
<!-- Node34 -->
<g id="node35" class="node"><title>Node34</title>
<g id="a_node35"><a xlink:href="../../de/de3/PathFinder_8h.xhtml" target="_top" xlink:title="enfield/Support/PathFinder.h">
<polygon fill="none" stroke="black" points="53.5,-375 53.5,-394 193.5,-394 193.5,-375 53.5,-375"/>
<text text-anchor="middle" x="123.5" y="-382" font-family="Helvetica,sans-Serif" font-size="10.00">enfield/Support/PathFinder.h</text>
</a>
</g>
</g>
<!-- Node33&#45;&gt;Node34 -->
<g id="edge67" class="edge"><title>Node33&#45;&gt;Node34</title>
<path fill="none" stroke="midnightblue" d="M213.474,-441.734C196.165,-430.916 166.513,-412.383 146.005,-399.566"/>
<polygon fill="midnightblue" stroke="midnightblue" points="147.639,-396.459 137.304,-394.127 143.929,-402.395 147.639,-396.459"/>
</g>
<!-- Node34&#45;&gt;Node4 -->
<g id="edge68" class="edge"><title>Node34&#45;&gt;Node4</title>
<path fill="none" stroke="midnightblue" d="M120.75,-374.949C111.13,-345.038 78.8471,-244.657 65.4278,-202.932"/>
<polygon fill="midnightblue" stroke="midnightblue" points="68.7055,-201.691 62.3118,-193.243 62.0416,-203.834 68.7055,-201.691"/>
</g>
</g>
</svg>
        <g id="navigator" transform="translate(0 0)" fill="#404254">
                <rect fill="#f2f5e9" fill-opacity="0.5" stroke="#606060" stroke-width=".5" x="0" y="0" width="60" height="60"/>
                <use id="zoomplus" xlink:href="#zoomPlus" x="17" y="9" onmousedown="handleZoom(evt,'in')"/>
                <use id="zoomminus" xlink:href="#zoomMin" x="42" y="9" onmousedown="handleZoom(evt,'out')"/>
                <use id="reset" xlink:href="#resetDef" x="30" y="36" onmousedown="handleReset()"/>
                <g id="arrowUp" xlink:href="#dirArrow" transform="translate(30 24)" onmousedown="handlePan(0,-1)">
                  <use xlink:href="#rim" fill="#404040">
                        <set attributeName="fill" to="#808080" begin="arrowUp.mouseover" end="arrowUp.mouseout"/>
                  </use>
                  <path fill="none" stroke="white" stroke-width="1.5" d="M0,-3.0v7 M-2.5,-0.5L0,-3.0L2.5,-0.5"/>
                </g>
                <g id="arrowRight" xlink:href="#dirArrow" transform="rotate(90) translate(36 -43)" onmousedown="handlePan(1,0)">
                  <use xlink:href="#rim" fill="#404040">
                        <set attributeName="fill" to="#808080" begin="arrowRight.mouseover" end="arrowRight.mouseout"/>
                  </use>
                  <path fill="none" stroke="white" stroke-width="1.5" d="M0,-3.0v7 M-2.5,-0.5L0,-3.0L2.5,-0.5"/>
                </g>
                <g id="arrowDown" xlink:href="#dirArrow" transform="rotate(180) translate(-30 -48)" onmousedown="handlePan(0,1)">
                  <use xlink:href="#rim" fill="#404040">
                        <set attributeName="fill" to="#808080" begin="arrowDown.mouseover" end="arrowDown.mouseout"/>
                  </use>
                  <path fill="none" stroke="white" stroke-width="1.5" d="M0,-3.0v7 M-2.5,-0.5L0,-3.0L2.5,-0.5"/>
                </g>
                <g id="arrowLeft" xlink:href="#dirArrow" transform="rotate(270) translate(-36 17)" onmousedown="handlePan(-1,0)">
                  <use xlink:href="#rim" fill="#404040">
                        <set attributeName="fill" to="#808080" begin="arrowLeft.mouseover" end="arrowLeft.mouseout"/>
                  </use>
                  <path fill="none" stroke="white" stroke-width="1.5" d="M0,-3.0v7 M-2.5,-0.5L0,-3.0L2.5,-0.5"/>
                </g>
        </g>
        <svg viewBox="0 0 15 15" width="100%" height="30px" preserveAspectRatio="xMaxYMin meet">
         <g id="arrow_out" transform="scale(0.3 0.3)">
          <a xlink:href="IBMQAllocator_8cpp__incl_org.svg" target="_base">
           <rect id="button" ry="5" rx="5" y="6" x="6" height="38" width="38"
                fill="#f2f5e9" fill-opacity="0.5" stroke="#606060" stroke-width="1.0"/>
           <path id="arrow"
             d="M 11.500037,31.436501 C 11.940474,20.09759 22.043105,11.32322 32.158766,21.979434 L 37.068811,17.246167 C 37.068811,17.246167 37.088388,32 37.088388,32 L 22.160133,31.978069 C 22.160133,31.978069 26.997745,27.140456 26.997745,27.140456 C 18.528582,18.264221 13.291696,25.230495 11.500037,31.436501 z"
             style="fill:#404040;"/>
          </a>
         </g>
        </svg>
</svg>
