<?xml version="1.0" encoding="UTF-8" standalone="no"?>
<!DOCTYPE svg PUBLIC "-//W3C//DTD SVG 1.1//EN"
 "http://www.w3.org/Graphics/SVG/1.1/DTD/svg11.dtd">
<!-- Generated by graphviz version 2.40.1 (20161225.0304)
 -->
<!-- Title: include/enfield/Transform/CircuitGraph.h Pages: 1 -->
<!--zoomable 318 -->
<svg id="main" version="1.1" xmlns="http://www.w3.org/2000/svg" xmlns:xlink="http://www.w3.org/1999/xlink" xml:space="preserve" onload="init(evt)">
<style type="text/css"><![CDATA[
.edge:hover path { stroke: red; }
.edge:hover polygon { stroke: red; fill: red; }
]]></style>
<script type="text/javascript"><![CDATA[
var edges = document.getElementsByTagName('g');
if (edges && edges.length) {
  for (var i=0;i<edges.length;i++) {
    if (edges[i].id.substr(0,4)=='edge') {
      edges[i].setAttribute('class','edge');
    }
  }
}
]]></script>
        <defs>
                <circle id="rim" cx="0" cy="0" r="7"/>
                <circle id="rim2" cx="0" cy="0" r="3.5"/>
                <g id="zoomPlus">
                        <use xlink:href="#rim" fill="#404040">
                                <set attributeName="fill" to="#808080" begin="zoomplus.mouseover" end="zoomplus.mouseout"/>
                        </use>
                        <path d="M-4,0h8M0,-4v8" fill="none" stroke="white" stroke-width="1.5" pointer-events="none"/>
                </g>
                <g id="zoomMin">
                        <use xlink:href="#rim" fill="#404040">
                                <set attributeName="fill" to="#808080" begin="zoomminus.mouseover" end="zoomminus.mouseout"/>
                        </use>
                        <path d="M-4,0h8" fill="none" stroke="white" stroke-width="1.5" pointer-events="none"/>
                </g>
                <g id="dirArrow">
                        <path fill="none" stroke="white" stroke-width="1.5" d="M0,-3.0v7 M-2.5,-0.5L0,-3.0L2.5,-0.5"/>
                </g>
               <g id="resetDef">
                       <use xlink:href="#rim2" fill="#404040">
                               <set attributeName="fill" to="#808080" begin="reset.mouseover" end="reset.mouseout"/>
                       </use>
               </g>
        </defs>

<script type="text/javascript">
var viewWidth = 1085;
var viewHeight = 318;
var sectionId = 'dynsection-1';
</script>
<script xlink:href="../../svgpan.js"/>
<svg id="graph" class="graph">
<g id="viewport">
<title>include/enfield/Transform/CircuitGraph.h</title>
<!-- Node10 -->
<g id="node1" class="node">
<title>Node10</title>
<polygon fill="#bfbfbf" stroke="#000000" points="459,-279.5 459,-309.5 601,-309.5 601,-279.5 459,-279.5"/>
<text text-anchor="start" x="467" y="-297.5" font-family="Helvetica,sans-Serif" font-size="10.00" fill="#000000">include/enfield/Transform</text>
<text text-anchor="middle" x="530" y="-286.5" font-family="Helvetica,sans-Serif" font-size="10.00" fill="#000000">/CircuitGraph.h</text>
</g>
<!-- Node11 -->
<g id="node2" class="node">
<title>Node11</title>
<g id="a_node2"><a xlink:href="../../d3/de5/ImprovedBMTQAllocatorImpl_8h.xhtml" target="_top" xlink:title="include/enfield/Transform\l/Allocators/BMT/ImprovedBMTQAllocator\lImpl.h">
<polygon fill="none" stroke="#000000" points="147,-201.5 147,-242.5 361,-242.5 361,-201.5 147,-201.5"/>
<text text-anchor="start" x="155" y="-230.5" font-family="Helvetica,sans-Serif" font-size="10.00" fill="#000000">include/enfield/Transform</text>
<text text-anchor="start" x="155" y="-219.5" font-family="Helvetica,sans-Serif" font-size="10.00" fill="#000000">/Allocators/BMT/ImprovedBMTQAllocator</text>
<text text-anchor="middle" x="254" y="-208.5" font-family="Helvetica,sans-Serif" font-size="10.00" fill="#000000">Impl.h</text>
</a>
</g>
</g>
<!-- Node10&#45;&gt;Node11 -->
<g id="edge1" class="edge">
<title>Node10&#45;&gt;Node11</title>
<path fill="none" stroke="#191970" d="M463.0112,-276.9033C423.5079,-266.5265 373.3339,-253.3468 332.0471,-242.5015"/>
<polygon fill="#191970" stroke="#191970" points="462.2515,-280.3224 472.8126,-279.478 464.03,-273.5521 462.2515,-280.3224"/>
</g>
<!-- Node14 -->
<g id="node5" class="node">
<title>Node14</title>
<g id="a_node5"><a xlink:href="../../d8/d9b/CircuitGraphBuilderPass_8h.xhtml" target="_top" xlink:title="include/enfield/Transform\l/CircuitGraphBuilderPass.h">
<polygon fill="none" stroke="#000000" points="457,-207 457,-237 603,-237 603,-207 457,-207"/>
<text text-anchor="start" x="465" y="-225" font-family="Helvetica,sans-Serif" font-size="10.00" fill="#000000">include/enfield/Transform</text>
<text text-anchor="middle" x="530" y="-214" font-family="Helvetica,sans-Serif" font-size="10.00" fill="#000000">/CircuitGraphBuilderPass.h</text>
</a>
</g>
</g>
<!-- Node10&#45;&gt;Node14 -->
<g id="edge4" class="edge">
<title>Node10&#45;&gt;Node14</title>
<path fill="none" stroke="#191970" d="M530,-269.3409C530,-258.5601 530,-246.3309 530,-237.0028"/>
<polygon fill="#191970" stroke="#191970" points="526.5001,-269.4779 530,-279.478 533.5001,-269.478 526.5001,-269.4779"/>
</g>
<!-- Node23 -->
<g id="node14" class="node">
<title>Node23</title>
<g id="a_node14"><a xlink:href="../../d3/dce/CircuitGraph_8cpp.xhtml" target="_top" xlink:title="lib/Transform/CircuitGraph.cpp">
<polygon fill="none" stroke="#000000" points="621,-212.5 621,-231.5 787,-231.5 787,-212.5 621,-212.5"/>
<text text-anchor="middle" x="704" y="-219.5" font-family="Helvetica,sans-Serif" font-size="10.00" fill="#000000">lib/Transform/CircuitGraph.cpp</text>
</a>
</g>
</g>
<!-- Node10&#45;&gt;Node23 -->
<g id="edge14" class="edge">
<title>Node10&#45;&gt;Node23</title>
<path fill="none" stroke="#191970" d="M575.3003,-275.6249C609.2136,-261.4943 654.1994,-242.7502 681.0162,-231.5766"/>
<polygon fill="#191970" stroke="#191970" points="573.9375,-272.401 566.0529,-279.478 576.6299,-278.8625 573.9375,-272.401"/>
</g>
<!-- Node12 -->
<g id="node3" class="node">
<title>Node12</title>
<g id="a_node3"><a xlink:href="../../dc/dea/Allocators_8cpp.xhtml" target="_top" xlink:title="lib/Transform/Allocators\l/Allocators.cpp">
<polygon fill="none" stroke="#000000" points="0,-134.5 0,-164.5 134,-164.5 134,-134.5 0,-134.5"/>
<text text-anchor="start" x="8" y="-152.5" font-family="Helvetica,sans-Serif" font-size="10.00" fill="#000000">lib/Transform/Allocators</text>
<text text-anchor="middle" x="67" y="-141.5" font-family="Helvetica,sans-Serif" font-size="10.00" fill="#000000">/Allocators.cpp</text>
</a>
</g>
</g>
<!-- Node11&#45;&gt;Node12 -->
<g id="edge2" class="edge">
<title>Node11&#45;&gt;Node12</title>
<path fill="none" stroke="#191970" d="M191.503,-197.7699C163.22,-186.8045 130.6691,-174.1845 105.9453,-164.5991"/>
<polygon fill="#191970" stroke="#191970" points="190.3245,-201.0668 200.9135,-201.4183 192.8549,-194.5401 190.3245,-201.0668"/>
</g>
<!-- Node13 -->
<g id="node4" class="node">
<title>Node13</title>
<g id="a_node4"><a xlink:href="../../de/db6/ImprovedBMTQAllocatorImpl_8cpp.xhtml" target="_top" xlink:title="lib/Transform/Allocators\l/BMT/ImprovedBMTQAllocatorImpl.cpp">
<polygon fill="none" stroke="#000000" points="152,-134.5 152,-164.5 356,-164.5 356,-134.5 152,-134.5"/>
<text text-anchor="start" x="160" y="-152.5" font-family="Helvetica,sans-Serif" font-size="10.00" fill="#000000">lib/Transform/Allocators</text>
<text text-anchor="middle" x="254" y="-141.5" font-family="Helvetica,sans-Serif" font-size="10.00" fill="#000000">/BMT/ImprovedBMTQAllocatorImpl.cpp</text>
</a>
</g>
</g>
<!-- Node11&#45;&gt;Node13 -->
<g id="edge3" class="edge">
<title>Node11&#45;&gt;Node13</title>
<path fill="none" stroke="#191970" d="M254,-191.3279C254,-182.0871 254,-172.3508 254,-164.5991"/>
<polygon fill="#191970" stroke="#191970" points="250.5001,-191.4183 254,-201.4183 257.5001,-191.4184 250.5001,-191.4183"/>
</g>
<!-- Node14&#45;&gt;Node13 -->
<g id="edge5" class="edge">
<title>Node14&#45;&gt;Node13</title>
<path fill="none" stroke="#191970" d="M463.128,-204.434C416.6347,-192.2211 355.3181,-176.1144 311.1141,-164.5028"/>
<polygon fill="#191970" stroke="#191970" points="462.2515,-207.8224 472.8126,-206.978 464.03,-201.0521 462.2515,-207.8224"/>
</g>
<!-- Node15 -->
<g id="node6" class="node">
<title>Node15</title>
<g id="a_node6"><a xlink:href="../../d4/dd0/GreedyCktQAllocator_8cpp.xhtml" target="_top" xlink:title="lib/Transform/Allocators\l/GreedyCktQAllocator.cpp">
<polygon fill="none" stroke="#000000" points="374.5,-134.5 374.5,-164.5 517.5,-164.5 517.5,-134.5 374.5,-134.5"/>
<text text-anchor="start" x="382.5" y="-152.5" font-family="Helvetica,sans-Serif" font-size="10.00" fill="#000000">lib/Transform/Allocators</text>
<text text-anchor="middle" x="446" y="-141.5" font-family="Helvetica,sans-Serif" font-size="10.00" fill="#000000">/GreedyCktQAllocator.cpp</text>
</a>
</g>
</g>
<!-- Node14&#45;&gt;Node15 -->
<g id="edge6" class="edge">
<title>Node14&#45;&gt;Node15</title>
<path fill="none" stroke="#191970" d="M504.6933,-200.1579C491.3476,-188.6393 475.3161,-174.8026 463.3826,-164.5028"/>
<polygon fill="#191970" stroke="#191970" points="502.738,-203.0937 512.5951,-206.978 507.3117,-197.7945 502.738,-203.0937"/>
</g>
<!-- Node16 -->
<g id="node7" class="node">
<title>Node16</title>
<g id="a_node7"><a xlink:href="../../df/dcc/CircuitGraphBuilderPass_8cpp.xhtml" target="_top" xlink:title="lib/Transform/CircuitGraph\lBuilderPass.cpp">
<polygon fill="none" stroke="#000000" points="536,-134.5 536,-164.5 682,-164.5 682,-134.5 536,-134.5"/>
<text text-anchor="start" x="544" y="-152.5" font-family="Helvetica,sans-Serif" font-size="10.00" fill="#000000">lib/Transform/CircuitGraph</text>
<text text-anchor="middle" x="609" y="-141.5" font-family="Helvetica,sans-Serif" font-size="10.00" fill="#000000">BuilderPass.cpp</text>
</a>
</g>
</g>
<!-- Node14&#45;&gt;Node16 -->
<g id="edge7" class="edge">
<title>Node14&#45;&gt;Node16</title>
<path fill="none" stroke="#191970" d="M553.8004,-200.1579C566.3517,-188.6393 581.4289,-174.8026 592.6521,-164.5028"/>
<polygon fill="#191970" stroke="#191970" points="551.37,-197.6378 546.3689,-206.978 556.1031,-202.7951 551.37,-197.6378"/>
</g>
<!-- Node17 -->
<g id="node8" class="node">
<title>Node17</title>
<g id="a_node8"><a xlink:href="../../df/d01/LayerBasedOrderingWrapperPass_8h.xhtml" target="_top" xlink:title="include/enfield/Transform\l/LayerBasedOrderingWrapperPass.h">
<polygon fill="none" stroke="#000000" points="700.5,-134.5 700.5,-164.5 891.5,-164.5 891.5,-134.5 700.5,-134.5"/>
<text text-anchor="start" x="708.5" y="-152.5" font-family="Helvetica,sans-Serif" font-size="10.00" fill="#000000">include/enfield/Transform</text>
<text text-anchor="middle" x="796" y="-141.5" font-family="Helvetica,sans-Serif" font-size="10.00" fill="#000000">/LayerBasedOrderingWrapperPass.h</text>
</a>
</g>
</g>
<!-- Node14&#45;&gt;Node17 -->
<g id="edge8" class="edge">
<title>Node14&#45;&gt;Node17</title>
<path fill="none" stroke="#191970" d="M595.0123,-204.2805C639.752,-192.0864 698.5311,-176.0658 740.9552,-164.5028"/>
<polygon fill="#191970" stroke="#191970" points="593.843,-200.9714 585.1154,-206.978 595.6838,-207.7251 593.843,-200.9714"/>
</g>
<!-- Node22 -->
<g id="node13" class="node">
<title>Node22</title>
<g id="a_node13"><a xlink:href="../../dd/d49/SemanticVerifierPass_8cpp.xhtml" target="_top" xlink:title="lib/Transform/SemanticVerifier\lPass.cpp">
<polygon fill="none" stroke="#000000" points="909.5,-134.5 909.5,-164.5 1076.5,-164.5 1076.5,-134.5 909.5,-134.5"/>
<text text-anchor="start" x="917.5" y="-152.5" font-family="Helvetica,sans-Serif" font-size="10.00" fill="#000000">lib/Transform/SemanticVerifier</text>
<text text-anchor="middle" x="993" y="-141.5" font-family="Helvetica,sans-Serif" font-size="10.00" fill="#000000">Pass.cpp</text>
</a>
</g>
</g>
<!-- Node14&#45;&gt;Node22 -->
<g id="edge13" class="edge">
<title>Node14&#45;&gt;Node22</title>
<path fill="none" stroke="#191970" d="M594.6976,-204.6222C600.5273,-203.3017 606.3577,-202.0694 612,-201 739.1729,-176.8955 772.929,-183.7565 901,-165 903.7245,-164.601 906.4928,-164.1866 909.2872,-163.7607"/>
<polygon fill="#191970" stroke="#191970" points="593.8577,-201.2241 584.9207,-206.9146 595.4557,-208.0393 593.8577,-201.2241"/>
</g>
<!-- Node18 -->
<g id="node9" class="node">
<title>Node18</title>
<g id="a_node9"><a xlink:href="../../d1/dc9/CNOTLBOWrapperPass_8h.xhtml" target="_top" xlink:title="include/enfield/Transform\l/CNOTLBOWrapperPass.h">
<polygon fill="none" stroke="#000000" points="644,-67.5 644,-97.5 786,-97.5 786,-67.5 644,-67.5"/>
<text text-anchor="start" x="652" y="-85.5" font-family="Helvetica,sans-Serif" font-size="10.00" fill="#000000">include/enfield/Transform</text>
<text text-anchor="middle" x="715" y="-74.5" font-family="Helvetica,sans-Serif" font-size="10.00" fill="#000000">/CNOTLBOWrapperPass.h</text>
</a>
</g>
</g>
<!-- Node17&#45;&gt;Node18 -->
<g id="edge9" class="edge">
<title>Node17&#45;&gt;Node18</title>
<path fill="none" stroke="#191970" d="M769.7425,-127.7808C757.8433,-117.9383 744.0644,-106.541 733.3074,-97.6432"/>
<polygon fill="#191970" stroke="#191970" points="767.6835,-130.6198 777.6198,-134.2967 772.1451,-125.2259 767.6835,-130.6198"/>
</g>
<!-- Node21 -->
<g id="node12" class="node">
<title>Node21</title>
<g id="a_node12"><a xlink:href="../../d7/d43/LayerBasedOrderingWrapperPass_8cpp.xhtml" target="_top" xlink:title="lib/Transform/LayerBased\lOrderingWrapperPass.cpp">
<polygon fill="none" stroke="#000000" points="804.5,-67.5 804.5,-97.5 947.5,-97.5 947.5,-67.5 804.5,-67.5"/>
<text text-anchor="start" x="812.5" y="-85.5" font-family="Helvetica,sans-Serif" font-size="10.00" fill="#000000">lib/Transform/LayerBased</text>
<text text-anchor="middle" x="876" y="-74.5" font-family="Helvetica,sans-Serif" font-size="10.00" fill="#000000">OrderingWrapperPass.cpp</text>
</a>
</g>
</g>
<!-- Node17&#45;&gt;Node21 -->
<g id="edge12" class="edge">
<title>Node17&#45;&gt;Node21</title>
<path fill="none" stroke="#191970" d="M821.9333,-127.7808C833.6856,-117.9383 847.2944,-106.541 857.9186,-97.6432"/>
<polygon fill="#191970" stroke="#191970" points="819.5725,-125.1927 814.1532,-134.2967 824.067,-130.5592 819.5725,-125.1927"/>
</g>
<!-- Node19 -->
<g id="node10" class="node">
<title>Node19</title>
<g id="a_node10"><a xlink:href="../../d0/d2e/CNOTLBOWrapperPass_8cpp.xhtml" target="_top" xlink:title="lib/Transform/CNOTLBOWrapper\lPass.cpp">
<polygon fill="none" stroke="#000000" points="542.5,-.5 542.5,-30.5 715.5,-30.5 715.5,-.5 542.5,-.5"/>
<text text-anchor="start" x="550.5" y="-18.5" font-family="Helvetica,sans-Serif" font-size="10.00" fill="#000000">lib/Transform/CNOTLBOWrapper</text>
<text text-anchor="middle" x="629" y="-7.5" font-family="Helvetica,sans-Serif" font-size="10.00" fill="#000000">Pass.cpp</text>
</a>
</g>
</g>
<!-- Node18&#45;&gt;Node19 -->
<g id="edge10" class="edge">
<title>Node18&#45;&gt;Node19</title>
<path fill="none" stroke="#191970" d="M687.4855,-61.0643C674.7696,-51.1577 659.9684,-39.6265 648.4375,-30.6432"/>
<polygon fill="#191970" stroke="#191970" points="685.4456,-63.9119 695.4853,-67.2967 689.7477,-58.3899 685.4456,-63.9119"/>
</g>
<!-- Node20 -->
<g id="node11" class="node">
<title>Node20</title>
<g id="a_node11"><a xlink:href="../../df/dd9/Driver_8cpp.xhtml" target="_top" xlink:title="lib/Transform/Driver.cpp">
<polygon fill="none" stroke="#000000" points="733.5,-6 733.5,-25 868.5,-25 868.5,-6 733.5,-6"/>
<text text-anchor="middle" x="801" y="-13" font-family="Helvetica,sans-Serif" font-size="10.00" fill="#000000">lib/Transform/Driver.cpp</text>
</a>
</g>
</g>
<!-- Node18&#45;&gt;Node20 -->
<g id="edge11" class="edge">
<title>Node18&#45;&gt;Node20</title>
<path fill="none" stroke="#191970" d="M742.7552,-60.8767C758.261,-48.7967 776.8048,-34.3498 788.7354,-25.055"/>
<polygon fill="#191970" stroke="#191970" points="740.2523,-58.3899 734.5147,-67.2967 744.5544,-63.9119 740.2523,-58.3899"/>
</g>
</g>
</svg>
        <g id="navigator" transform="translate(0 0)" fill="#404254">
                <rect fill="#f2f5e9" fill-opacity="0.5" stroke="#606060" stroke-width=".5" x="0" y="0" width="60" height="60"/>
                <use id="zoomplus" xlink:href="#zoomPlus" x="17" y="9" onmousedown="handleZoom(evt,'in')"/>
                <use id="zoomminus" xlink:href="#zoomMin" x="42" y="9" onmousedown="handleZoom(evt,'out')"/>
                <use id="reset" xlink:href="#resetDef" x="30" y="36" onmousedown="handleReset()"/>
                <g id="arrowUp" xlink:href="#dirArrow" transform="translate(30 24)" onmousedown="handlePan(0,-1)">
                  <use xlink:href="#rim" fill="#404040">
                        <set attributeName="fill" to="#808080" begin="arrowUp.mouseover" end="arrowUp.mouseout"/>
                  </use>
                  <path fill="none" stroke="white" stroke-width="1.5" d="M0,-3.0v7 M-2.5,-0.5L0,-3.0L2.5,-0.5"/>
                </g>
                <g id="arrowRight" xlink:href="#dirArrow" transform="rotate(90) translate(36 -43)" onmousedown="handlePan(1,0)">
                  <use xlink:href="#rim" fill="#404040">
                        <set attributeName="fill" to="#808080" begin="arrowRight.mouseover" end="arrowRight.mouseout"/>
                  </use>
                  <path fill="none" stroke="white" stroke-width="1.5" d="M0,-3.0v7 M-2.5,-0.5L0,-3.0L2.5,-0.5"/>
                </g>
                <g id="arrowDown" xlink:href="#dirArrow" transform="rotate(180) translate(-30 -48)" onmousedown="handlePan(0,1)">
                  <use xlink:href="#rim" fill="#404040">
                        <set attributeName="fill" to="#808080" begin="arrowDown.mouseover" end="arrowDown.mouseout"/>
                  </use>
                  <path fill="none" stroke="white" stroke-width="1.5" d="M0,-3.0v7 M-2.5,-0.5L0,-3.0L2.5,-0.5"/>
                </g>
                <g id="arrowLeft" xlink:href="#dirArrow" transform="rotate(270) translate(-36 17)" onmousedown="handlePan(-1,0)">
                  <use xlink:href="#rim" fill="#404040">
                        <set attributeName="fill" to="#808080" begin="arrowLeft.mouseover" end="arrowLeft.mouseout"/>
                  </use>
                  <path fill="none" stroke="white" stroke-width="1.5" d="M0,-3.0v7 M-2.5,-0.5L0,-3.0L2.5,-0.5"/>
                </g>
        </g>
        <svg viewBox="0 0 15 15" width="100%" height="30px" preserveAspectRatio="xMaxYMin meet">
         <g id="arrow_out" transform="scale(0.3 0.3)">
          <a xlink:href="CircuitGraph_8h__dep__incl_org.svg" target="_base">
           <rect id="button" ry="5" rx="5" y="6" x="6" height="38" width="38"
                fill="#f2f5e9" fill-opacity="0.5" stroke="#606060" stroke-width="1.0"/>
           <path id="arrow"
             d="M 11.500037,31.436501 C 11.940474,20.09759 22.043105,11.32322 32.158766,21.979434 L 37.068811,17.246167 C 37.068811,17.246167 37.088388,32 37.088388,32 L 22.160133,31.978069 C 22.160133,31.978069 26.997745,27.140456 26.997745,27.140456 C 18.528582,18.264221 13.291696,25.230495 11.500037,31.436501 z"
             style="fill:#404040;"/>
          </a>
         </g>
        </svg>
</svg>
