<?xml version="1.0" encoding="UTF-8" standalone="no"?>
<!DOCTYPE svg PUBLIC "-//W3C//DTD SVG 1.1//EN"
 "http://www.w3.org/Graphics/SVG/1.1/DTD/svg11.dtd">
<!-- Generated by graphviz version 2.38.0 (20140413.2041)
 -->
<!-- Title: include/enfield/Transform/CircuitGraph.h Pages: 1 -->
<svg width="649pt" height="307pt"
 viewBox="0.00 0.00 649.00 307.00" xmlns="http://www.w3.org/2000/svg" xmlns:xlink="http://www.w3.org/1999/xlink">
<g id="graph0" class="graph" transform="scale(1 1) rotate(0) translate(4 303)">
<title>include/enfield/Transform/CircuitGraph.h</title>
<!-- Node10 -->
<g id="node1" class="node"><title>Node10</title>
<polygon fill="#bfbfbf" stroke="black" points="317.5,-268.5 317.5,-298.5 443.5,-298.5 443.5,-268.5 317.5,-268.5"/>
<text text-anchor="start" x="325.5" y="-286.5" font-family="Helvetica,sans-Serif" font-size="10.00">include/enfield/Transform</text>
<text text-anchor="middle" x="380.5" y="-275.5" font-family="Helvetica,sans-Serif" font-size="10.00">/CircuitGraph.h</text>
</g>
<!-- Node11 -->
<g id="node2" class="node"><title>Node11</title>
<g id="a_node2"><a xlink:href="../../d8/d9b/CircuitGraphBuilderPass_8h.xhtml" target="_top" xlink:title="include/enfield/Transform\l/CircuitGraphBuilderPass.h">
<polygon fill="none" stroke="black" points="233,-201.5 233,-231.5 368,-231.5 368,-201.5 233,-201.5"/>
<text text-anchor="start" x="241" y="-219.5" font-family="Helvetica,sans-Serif" font-size="10.00">include/enfield/Transform</text>
<text text-anchor="middle" x="300.5" y="-208.5" font-family="Helvetica,sans-Serif" font-size="10.00">/CircuitGraphBuilderPass.h</text>
</a>
</g>
</g>
<!-- Node10&#45;&gt;Node11 -->
<g id="edge1" class="edge"><title>Node10&#45;&gt;Node11</title>
<path fill="none" stroke="midnightblue" d="M355.125,-261.883C342.968,-252.005 328.721,-240.429 317.825,-231.577"/>
<polygon fill="midnightblue" stroke="midnightblue" points="353.173,-264.806 363.141,-268.396 357.587,-259.374 353.173,-264.806"/>
</g>
<!-- Node20 -->
<g id="node11" class="node"><title>Node20</title>
<g id="a_node11"><a xlink:href="../../d3/dce/CircuitGraph_8cpp.xhtml" target="_top" xlink:title="lib/Transform/CircuitGraph.cpp">
<polygon fill="none" stroke="black" points="386.5,-207 386.5,-226 536.5,-226 536.5,-207 386.5,-207"/>
<text text-anchor="middle" x="461.5" y="-214" font-family="Helvetica,sans-Serif" font-size="10.00">lib/Transform/CircuitGraph.cpp</text>
</a>
</g>
</g>
<!-- Node10&#45;&gt;Node20 -->
<g id="edge10" class="edge"><title>Node10&#45;&gt;Node20</title>
<path fill="none" stroke="midnightblue" d="M406.036,-262.008C421.073,-249.941 439.313,-235.305 450.665,-226.195"/>
<polygon fill="midnightblue" stroke="midnightblue" points="403.685,-259.407 398.076,-268.396 408.066,-264.867 403.685,-259.407"/>
</g>
<!-- Node12 -->
<g id="node3" class="node"><title>Node12</title>
<g id="a_node3"><a xlink:href="../../d4/dd0/GreedyCktQAllocator_8cpp.xhtml" target="_top" xlink:title="lib/Transform/Allocators\l/GreedyCktQAllocator.cpp">
<polygon fill="none" stroke="black" points="0,-134.5 0,-164.5 131,-164.5 131,-134.5 0,-134.5"/>
<text text-anchor="start" x="8" y="-152.5" font-family="Helvetica,sans-Serif" font-size="10.00">lib/Transform/Allocators</text>
<text text-anchor="middle" x="65.5" y="-141.5" font-family="Helvetica,sans-Serif" font-size="10.00">/GreedyCktQAllocator.cpp</text>
</a>
</g>
</g>
<!-- Node11&#45;&gt;Node12 -->
<g id="edge2" class="edge"><title>Node11&#45;&gt;Node12</title>
<path fill="none" stroke="midnightblue" d="M239.816,-198.715C201.573,-188.137 152.757,-174.635 116.516,-164.611"/>
<polygon fill="midnightblue" stroke="midnightblue" points="239.227,-202.183 249.798,-201.476 241.093,-195.437 239.227,-202.183"/>
</g>
<!-- Node13 -->
<g id="node4" class="node"><title>Node13</title>
<g id="a_node4"><a xlink:href="../../df/dcc/CircuitGraphBuilderPass_8cpp.xhtml" target="_top" xlink:title="lib/Transform/CircuitGraph\lBuilderPass.cpp">
<polygon fill="none" stroke="black" points="149,-134.5 149,-164.5 280,-164.5 280,-134.5 149,-134.5"/>
<text text-anchor="start" x="157" y="-152.5" font-family="Helvetica,sans-Serif" font-size="10.00">lib/Transform/CircuitGraph</text>
<text text-anchor="middle" x="214.5" y="-141.5" font-family="Helvetica,sans-Serif" font-size="10.00">BuilderPass.cpp</text>
</a>
</g>
</g>
<!-- Node11&#45;&gt;Node13 -->
<g id="edge3" class="edge"><title>Node11&#45;&gt;Node13</title>
<path fill="none" stroke="midnightblue" d="M273.599,-195.168C260.448,-185.228 244.95,-173.514 233.124,-164.577"/>
<polygon fill="midnightblue" stroke="midnightblue" points="271.751,-198.158 281.839,-201.396 275.972,-192.574 271.751,-198.158"/>
</g>
<!-- Node14 -->
<g id="node5" class="node"><title>Node14</title>
<g id="a_node5"><a xlink:href="../../df/d01/LayerBasedOrderingWrapperPass_8h.xhtml" target="_top" xlink:title="include/enfield/Transform\l/LayerBasedOrderingWrapperPass.h">
<polygon fill="none" stroke="black" points="298.5,-134.5 298.5,-164.5 474.5,-164.5 474.5,-134.5 298.5,-134.5"/>
<text text-anchor="start" x="306.5" y="-152.5" font-family="Helvetica,sans-Serif" font-size="10.00">include/enfield/Transform</text>
<text text-anchor="middle" x="386.5" y="-141.5" font-family="Helvetica,sans-Serif" font-size="10.00">/LayerBasedOrderingWrapperPass.h</text>
</a>
</g>
</g>
<!-- Node11&#45;&gt;Node14 -->
<g id="edge4" class="edge"><title>Node11&#45;&gt;Node14</title>
<path fill="none" stroke="midnightblue" d="M327.401,-195.168C340.552,-185.228 356.05,-173.514 367.876,-164.577"/>
<polygon fill="midnightblue" stroke="midnightblue" points="325.028,-192.574 319.161,-201.396 329.249,-198.158 325.028,-192.574"/>
</g>
<!-- Node19 -->
<g id="node10" class="node"><title>Node19</title>
<g id="a_node10"><a xlink:href="../../dd/d49/SemanticVerifierPass_8cpp.xhtml" target="_top" xlink:title="lib/Transform/SemanticVerifier\lPass.cpp">
<polygon fill="none" stroke="black" points="492,-134.5 492,-164.5 641,-164.5 641,-134.5 492,-134.5"/>
<text text-anchor="start" x="500" y="-152.5" font-family="Helvetica,sans-Serif" font-size="10.00">lib/Transform/SemanticVerifier</text>
<text text-anchor="middle" x="566.5" y="-141.5" font-family="Helvetica,sans-Serif" font-size="10.00">Pass.cpp</text>
</a>
</g>
</g>
<!-- Node11&#45;&gt;Node19 -->
<g id="edge9" class="edge"><title>Node11&#45;&gt;Node19</title>
<path fill="none" stroke="midnightblue" d="M367.812,-199.052C411.299,-188.425 467.297,-174.741 508.754,-164.611"/>
<polygon fill="midnightblue" stroke="midnightblue" points="366.774,-195.702 357.891,-201.476 368.436,-202.502 366.774,-195.702"/>
</g>
<!-- Node15 -->
<g id="node6" class="node"><title>Node15</title>
<g id="a_node6"><a xlink:href="../../d1/dc9/CNOTLBOWrapperPass_8h.xhtml" target="_top" xlink:title="include/enfield/Transform\l/CNOTLBOWrapperPass.h">
<polygon fill="none" stroke="black" points="243,-67.5 243,-97.5 378,-97.5 378,-67.5 243,-67.5"/>
<text text-anchor="start" x="251" y="-85.5" font-family="Helvetica,sans-Serif" font-size="10.00">include/enfield/Transform</text>
<text text-anchor="middle" x="310.5" y="-74.5" font-family="Helvetica,sans-Serif" font-size="10.00">/CNOTLBOWrapperPass.h</text>
</a>
</g>
</g>
<!-- Node14&#45;&gt;Node15 -->
<g id="edge5" class="edge"><title>Node14&#45;&gt;Node15</title>
<path fill="none" stroke="midnightblue" d="M362.394,-127.883C350.845,-118.005 337.31,-106.429 326.959,-97.5765"/>
<polygon fill="midnightblue" stroke="midnightblue" points="360.135,-130.556 370.009,-134.396 364.684,-125.236 360.135,-130.556"/>
</g>
<!-- Node18 -->
<g id="node9" class="node"><title>Node18</title>
<g id="a_node9"><a xlink:href="../../d7/d43/LayerBasedOrderingWrapperPass_8cpp.xhtml" target="_top" xlink:title="lib/Transform/LayerBased\lOrderingWrapperPass.cpp">
<polygon fill="none" stroke="black" points="396,-67.5 396,-97.5 527,-97.5 527,-67.5 396,-67.5"/>
<text text-anchor="start" x="404" y="-85.5" font-family="Helvetica,sans-Serif" font-size="10.00">lib/Transform/LayerBased</text>
<text text-anchor="middle" x="461.5" y="-74.5" font-family="Helvetica,sans-Serif" font-size="10.00">OrderingWrapperPass.cpp</text>
</a>
</g>
</g>
<!-- Node14&#45;&gt;Node18 -->
<g id="edge8" class="edge"><title>Node14&#45;&gt;Node18</title>
<path fill="none" stroke="midnightblue" d="M410.618,-127.598C421.943,-117.783 435.141,-106.344 445.258,-97.5765"/>
<polygon fill="midnightblue" stroke="midnightblue" points="408.039,-125.202 402.774,-134.396 412.623,-130.492 408.039,-125.202"/>
</g>
<!-- Node16 -->
<g id="node7" class="node"><title>Node16</title>
<g id="a_node7"><a xlink:href="../../d0/d2e/CNOTLBOWrapperPass_8cpp.xhtml" target="_top" xlink:title="lib/Transform/CNOTLBOWrapper\lPass.cpp">
<polygon fill="none" stroke="black" points="150,-0.5 150,-30.5 311,-30.5 311,-0.5 150,-0.5"/>
<text text-anchor="start" x="158" y="-18.5" font-family="Helvetica,sans-Serif" font-size="10.00">lib/Transform/CNOTLBOWrapper</text>
<text text-anchor="middle" x="230.5" y="-7.5" font-family="Helvetica,sans-Serif" font-size="10.00">Pass.cpp</text>
</a>
</g>
</g>
<!-- Node15&#45;&gt;Node16 -->
<g id="edge6" class="edge"><title>Node15&#45;&gt;Node16</title>
<path fill="none" stroke="midnightblue" d="M285.125,-60.8832C272.968,-51.0054 258.721,-39.4293 247.825,-30.5765"/>
<polygon fill="midnightblue" stroke="midnightblue" points="283.173,-63.8064 293.141,-67.396 287.587,-58.3736 283.173,-63.8064"/>
</g>
<!-- Node17 -->
<g id="node8" class="node"><title>Node17</title>
<g id="a_node8"><a xlink:href="../../df/dd9/Driver_8cpp.xhtml" target="_top" xlink:title="lib/Transform/Driver.cpp">
<polygon fill="none" stroke="black" points="329.5,-6 329.5,-25 451.5,-25 451.5,-6 329.5,-6"/>
<text text-anchor="middle" x="390.5" y="-13" font-family="Helvetica,sans-Serif" font-size="10.00">lib/Transform/Driver.cpp</text>
</a>
</g>
</g>
<!-- Node15&#45;&gt;Node17 -->
<g id="edge7" class="edge"><title>Node15&#45;&gt;Node17</title>
<path fill="none" stroke="midnightblue" d="M335.721,-61.008C350.572,-48.9412 368.587,-34.3046 379.799,-25.1945"/>
<polygon fill="midnightblue" stroke="midnightblue" points="333.413,-58.3736 327.859,-67.396 337.827,-63.8064 333.413,-58.3736"/>
</g>
</g>
</svg>
