<?xml version="1.0" encoding="UTF-8" standalone="no"?>
<!DOCTYPE svg PUBLIC "-//W3C//DTD SVG 1.1//EN"
 "http://www.w3.org/Graphics/SVG/1.1/DTD/svg11.dtd">
<!-- Generated by graphviz version 2.40.1 (20161225.0304)
 -->
<!-- Title: lib/Transform/SemanticVerifierPass.cpp Pages: 1 -->
<svg width="1370pt" height="341pt"
 viewBox="0.00 0.00 1369.73 341.00" xmlns="http://www.w3.org/2000/svg" xmlns:xlink="http://www.w3.org/1999/xlink">
<g id="graph0" class="graph" transform="scale(1 1) rotate(0) translate(4 337)">
<title>lib/Transform/SemanticVerifierPass.cpp</title>
<!-- Node0 -->
<g id="node1" class="node">
<title>Node0</title>
<polygon fill="#bfbfbf" stroke="#000000" points="435.2333,-302.5 435.2333,-332.5 602.2333,-332.5 602.2333,-302.5 435.2333,-302.5"/>
<text text-anchor="start" x="443.2333" y="-320.5" font-family="Helvetica,sans-Serif" font-size="10.00" fill="#000000">lib/Transform/SemanticVerifier</text>
<text text-anchor="middle" x="518.7333" y="-309.5" font-family="Helvetica,sans-Serif" font-size="10.00" fill="#000000">Pass.cpp</text>
</g>
<!-- Node1 -->
<g id="node2" class="node">
<title>Node1</title>
<g id="a_node2"><a xlink:href="../../d7/d69/SemanticVerifierPass_8h.xhtml" target="_top" xlink:title="enfield/Transform/Semantic\lVerifierPass.h">
<polygon fill="none" stroke="#000000" points="125.7333,-235.5 125.7333,-265.5 277.7333,-265.5 277.7333,-235.5 125.7333,-235.5"/>
<text text-anchor="start" x="133.7333" y="-253.5" font-family="Helvetica,sans-Serif" font-size="10.00" fill="#000000">enfield/Transform/Semantic</text>
<text text-anchor="middle" x="201.7333" y="-242.5" font-family="Helvetica,sans-Serif" font-size="10.00" fill="#000000">VerifierPass.h</text>
</a>
</g>
</g>
<!-- Node0&#45;&gt;Node1 -->
<g id="edge1" class="edge">
<title>Node0&#45;&gt;Node1</title>
<path fill="none" stroke="#191970" d="M447.5923,-302.4639C398.7334,-292.1373 333.7686,-278.4065 282.8896,-267.6529"/>
<polygon fill="#191970" stroke="#191970" points="283.4181,-264.1874 272.9105,-265.5438 281.9706,-271.0361 283.4181,-264.1874"/>
</g>
<!-- Node8 -->
<g id="node9" class="node">
<title>Node8</title>
<g id="a_node9"><a xlink:href="../../d5/dfc/RTTI_8h.xhtml" target="_top" xlink:title="enfield/Support/RTTI.h">
<polygon fill="none" stroke="#000000" points="340.2333,-56.5 340.2333,-75.5 465.2333,-75.5 465.2333,-56.5 340.2333,-56.5"/>
<text text-anchor="middle" x="402.7333" y="-63.5" font-family="Helvetica,sans-Serif" font-size="10.00" fill="#000000">enfield/Support/RTTI.h</text>
</a>
</g>
</g>
<!-- Node0&#45;&gt;Node8 -->
<g id="edge52" class="edge">
<title>Node0&#45;&gt;Node8</title>
<path fill="none" stroke="#191970" d="M434.922,-311.8732C314.1455,-303.1561 102.3303,-285.3617 72.7333,-266 43.8997,-247.1377 42.7099,-232.2653 33.7333,-199 23.446,-160.878 21.4076,-137.2877 51.7333,-112 72.7037,-94.5133 233.7031,-79.1376 330.2144,-71.3687"/>
<polygon fill="#191970" stroke="#191970" points="330.5189,-74.8557 340.2094,-70.5727 329.9631,-67.8777 330.5189,-74.8557"/>
</g>
<!-- Node11 -->
<g id="node12" class="node">
<title>Node11</title>
<polygon fill="none" stroke="#bfbfbf" points="131.2333,-56.5 131.2333,-75.5 178.2333,-75.5 178.2333,-56.5 131.2333,-56.5"/>
<text text-anchor="middle" x="154.7333" y="-63.5" font-family="Helvetica,sans-Serif" font-size="10.00" fill="#000000">vector</text>
</g>
<!-- Node0&#45;&gt;Node11 -->
<g id="edge54" class="edge">
<title>Node0&#45;&gt;Node11</title>
<path fill="none" stroke="#191970" d="M435.0289,-313.625C305.8921,-306.8883 69.8475,-291.2694 40.7333,-266 -11.0657,-221.0416 -11.8572,-165.7629 30.7333,-112 42.2158,-97.5053 88.3358,-83.0405 120.9619,-74.3057"/>
<polygon fill="#191970" stroke="#191970" points="122.229,-77.5923 131.0197,-71.6784 120.4597,-70.8196 122.229,-77.5923"/>
</g>
<!-- Node12 -->
<g id="node13" class="node">
<title>Node12</title>
<polygon fill="none" stroke="#bfbfbf" points="391.2333,-112.5 391.2333,-131.5 484.2333,-131.5 484.2333,-112.5 391.2333,-112.5"/>
<text text-anchor="middle" x="437.7333" y="-119.5" font-family="Helvetica,sans-Serif" font-size="10.00" fill="#000000">unordered_map</text>
</g>
<!-- Node0&#45;&gt;Node12 -->
<g id="edge53" class="edge">
<title>Node0&#45;&gt;Node12</title>
<path fill="none" stroke="#191970" d="M434.8069,-312.5855C323.1665,-305.1773 137.39,-289.4719 116.7333,-266 107.6309,-255.6572 109.0756,-246.4537 116.7333,-235 138.3856,-202.614 241.9657,-180.8775 278.7333,-168 315.8088,-155.0146 358.6279,-142.7804 390.4839,-134.1979"/>
<polygon fill="#191970" stroke="#191970" points="391.6625,-137.5059 400.4203,-131.5434 389.8558,-130.7431 391.6625,-137.5059"/>
</g>
<!-- Node13 -->
<g id="node14" class="node">
<title>Node13</title>
<g id="a_node14"><a xlink:href="../../d1/d73/Defs_8h.xhtml" target="_top" xlink:title="enfield/Support/Defs.h">
<polygon fill="none" stroke="#000000" points="43.2333,-174 43.2333,-193 168.2333,-193 168.2333,-174 43.2333,-174"/>
<text text-anchor="middle" x="105.7333" y="-181" font-family="Helvetica,sans-Serif" font-size="10.00" fill="#000000">enfield/Support/Defs.h</text>
</a>
</g>
</g>
<!-- Node0&#45;&gt;Node13 -->
<g id="edge51" class="edge">
<title>Node0&#45;&gt;Node13</title>
<path fill="none" stroke="#191970" d="M434.983,-313.4802C315.1549,-306.8585 106.6226,-291.759 83.7333,-266 67.8134,-248.0842 80.7783,-219.8904 92.4924,-201.5478"/>
<polygon fill="#191970" stroke="#191970" points="95.4462,-203.4283 98.1772,-193.1915 89.6585,-199.4909 95.4462,-203.4283"/>
</g>
<!-- Node17 -->
<g id="node18" class="node">
<title>Node17</title>
<g id="a_node18"><a xlink:href="../../d8/d9b/CircuitGraphBuilderPass_8h.xhtml" target="_top" xlink:title="enfield/Transform/Circuit\lGraphBuilderPass.h">
<polygon fill="none" stroke="#000000" points="947.7333,-235.5 947.7333,-265.5 1085.7333,-265.5 1085.7333,-235.5 947.7333,-235.5"/>
<text text-anchor="start" x="955.7333" y="-253.5" font-family="Helvetica,sans-Serif" font-size="10.00" fill="#000000">enfield/Transform/Circuit</text>
<text text-anchor="middle" x="1016.7333" y="-242.5" font-family="Helvetica,sans-Serif" font-size="10.00" fill="#000000">GraphBuilderPass.h</text>
</a>
</g>
</g>
<!-- Node0&#45;&gt;Node17 -->
<g id="edge20" class="edge">
<title>Node0&#45;&gt;Node17</title>
<path fill="none" stroke="#191970" d="M602.2648,-309.1026C684.9668,-300.3673 815.3963,-285.4613 937.5536,-266.1238"/>
<polygon fill="#191970" stroke="#191970" points="938.1353,-269.5754 947.4588,-264.5431 937.0321,-262.6629 938.1353,-269.5754"/>
</g>
<!-- Node19 -->
<g id="node20" class="node">
<title>Node19</title>
<g id="a_node20"><a xlink:href="../../d6/d94/XbitToNumberPass_8h.xhtml" target="_top" xlink:title="enfield/Transform/XbitTo\lNumberPass.h">
<polygon fill="none" stroke="#000000" points="295.7333,-235.5 295.7333,-265.5 433.7333,-265.5 433.7333,-235.5 295.7333,-235.5"/>
<text text-anchor="start" x="303.7333" y="-253.5" font-family="Helvetica,sans-Serif" font-size="10.00" fill="#000000">enfield/Transform/XbitTo</text>
<text text-anchor="middle" x="364.7333" y="-242.5" font-family="Helvetica,sans-Serif" font-size="10.00" fill="#000000">NumberPass.h</text>
</a>
</g>
</g>
<!-- Node0&#45;&gt;Node19 -->
<g id="edge27" class="edge">
<title>Node0&#45;&gt;Node19</title>
<path fill="none" stroke="#191970" d="M484.1726,-302.4639C461.8605,-292.7567 432.6346,-280.0415 408.6779,-269.6188"/>
<polygon fill="#191970" stroke="#191970" points="410.0107,-266.3818 399.4446,-265.6017 407.218,-272.8006 410.0107,-266.3818"/>
</g>
<!-- Node22 -->
<g id="node23" class="node">
<title>Node22</title>
<g id="a_node23"><a xlink:href="../../d6/da6/FlattenPass_8h.xhtml" target="_top" xlink:title="enfield/Transform/Flatten\lPass.h">
<polygon fill="none" stroke="#000000" points="789.7333,-235.5 789.7333,-265.5 929.7333,-265.5 929.7333,-235.5 789.7333,-235.5"/>
<text text-anchor="start" x="797.7333" y="-253.5" font-family="Helvetica,sans-Serif" font-size="10.00" fill="#000000">enfield/Transform/Flatten</text>
<text text-anchor="middle" x="859.7333" y="-242.5" font-family="Helvetica,sans-Serif" font-size="10.00" fill="#000000">Pass.h</text>
</a>
</g>
</g>
<!-- Node0&#45;&gt;Node22 -->
<g id="edge35" class="edge">
<title>Node0&#45;&gt;Node22</title>
<path fill="none" stroke="#191970" d="M595.2603,-302.4639C650.1844,-291.6724 724.0289,-277.1633 779.7295,-266.2192"/>
<polygon fill="#191970" stroke="#191970" points="780.4207,-269.6504 789.5583,-264.2881 779.071,-262.7817 780.4207,-269.6504"/>
</g>
<!-- Node23 -->
<g id="node24" class="node">
<title>Node23</title>
<g id="a_node24"><a xlink:href="../../d4/d61/InlineAllPass_8h.xhtml" target="_top" xlink:title="enfield/Transform/Inline\lAllPass.h">
<polygon fill="none" stroke="#000000" points="451.7333,-235.5 451.7333,-265.5 585.7333,-265.5 585.7333,-235.5 451.7333,-235.5"/>
<text text-anchor="start" x="459.7333" y="-253.5" font-family="Helvetica,sans-Serif" font-size="10.00" fill="#000000">enfield/Transform/Inline</text>
<text text-anchor="middle" x="518.7333" y="-242.5" font-family="Helvetica,sans-Serif" font-size="10.00" fill="#000000">AllPass.h</text>
</a>
</g>
</g>
<!-- Node0&#45;&gt;Node23 -->
<g id="edge38" class="edge">
<title>Node0&#45;&gt;Node23</title>
<path fill="none" stroke="#191970" d="M518.7333,-302.2967C518.7333,-294.5013 518.7333,-284.7991 518.7333,-275.9064"/>
<polygon fill="#191970" stroke="#191970" points="522.2334,-275.6431 518.7333,-265.6432 515.2334,-275.6432 522.2334,-275.6431"/>
</g>
<!-- Node24 -->
<g id="node25" class="node">
<title>Node24</title>
<g id="a_node25"><a xlink:href="../../db/d82/PassCache_8h.xhtml" target="_top" xlink:title="enfield/Transform/PassCache.h">
<polygon fill="none" stroke="#000000" points="603.7333,-241 603.7333,-260 771.7333,-260 771.7333,-241 603.7333,-241"/>
<text text-anchor="middle" x="687.7333" y="-248" font-family="Helvetica,sans-Serif" font-size="10.00" fill="#000000">enfield/Transform/PassCache.h</text>
</a>
</g>
</g>
<!-- Node0&#45;&gt;Node24 -->
<g id="edge42" class="edge">
<title>Node0&#45;&gt;Node24</title>
<path fill="none" stroke="#191970" d="M556.6602,-302.4639C585.9103,-290.8677 625.9879,-274.9789 654.1009,-263.8335"/>
<polygon fill="#191970" stroke="#191970" points="655.5023,-267.0431 663.5084,-260.1039 652.9224,-260.5358 655.5023,-267.0431"/>
</g>
<!-- Node25 -->
<g id="node26" class="node">
<title>Node25</title>
<g id="a_node26"><a xlink:href="../../d9/ded/Utils_8h.xhtml" target="_top" xlink:title="enfield/Transform/Utils.h">
<polygon fill="none" stroke="#000000" points="1103.7333,-241 1103.7333,-260 1241.7333,-260 1241.7333,-241 1103.7333,-241"/>
<text text-anchor="middle" x="1172.7333" y="-248" font-family="Helvetica,sans-Serif" font-size="10.00" fill="#000000">enfield/Transform/Utils.h</text>
</a>
</g>
</g>
<!-- Node0&#45;&gt;Node25 -->
<g id="edge46" class="edge">
<title>Node0&#45;&gt;Node25</title>
<path fill="none" stroke="#191970" d="M602.5228,-312.8277C714.9272,-305.9171 920.5718,-291.0172 1094.7333,-266 1102.7002,-264.8556 1111.0835,-263.4286 1119.2805,-261.9071"/>
<polygon fill="#191970" stroke="#191970" points="1119.9832,-265.3362 1129.1459,-260.0169 1118.6659,-258.4613 1119.9832,-265.3362"/>
</g>
<!-- Node26 -->
<g id="node27" class="node">
<title>Node26</title>
<g id="a_node27"><a xlink:href="../../d0/d8d/NodeVisitor_8h.xhtml" target="_top" xlink:title="enfield/Analysis/NodeVisitor.h">
<polygon fill="none" stroke="#000000" points="1165.7333,-174 1165.7333,-193 1329.7333,-193 1329.7333,-174 1165.7333,-174"/>
<text text-anchor="middle" x="1247.7333" y="-181" font-family="Helvetica,sans-Serif" font-size="10.00" fill="#000000">enfield/Analysis/NodeVisitor.h</text>
</a>
</g>
</g>
<!-- Node0&#45;&gt;Node26 -->
<g id="edge49" class="edge">
<title>Node0&#45;&gt;Node26</title>
<path fill="none" stroke="#191970" d="M602.5556,-314.6323C790.0991,-307.809 1228.9084,-289.4143 1250.7333,-266 1266.3271,-249.2704 1261.3154,-221.343 1255.3273,-202.6773"/>
<polygon fill="#191970" stroke="#191970" points="1258.586,-201.3951 1251.9311,-193.1511 1251.9925,-203.7458 1258.586,-201.3951"/>
</g>
<!-- Node27 -->
<g id="node28" class="node">
<title>Node27</title>
<polygon fill="none" stroke="#bfbfbf" points="1297.7333,-241 1297.7333,-260 1361.7333,-260 1361.7333,-241 1297.7333,-241"/>
<text text-anchor="middle" x="1329.7333" y="-248" font-family="Helvetica,sans-Serif" font-size="10.00" fill="#000000">algorithm</text>
</g>
<!-- Node0&#45;&gt;Node27 -->
<g id="edge55" class="edge">
<title>Node0&#45;&gt;Node27</title>
<path fill="none" stroke="#191970" d="M602.3853,-314.5893C772.8987,-308.2101 1155.375,-291.5005 1283.7333,-266 1287.6207,-265.2277 1291.6324,-264.216 1295.5914,-263.0789"/>
<polygon fill="#191970" stroke="#191970" points="1296.7284,-266.3906 1305.2234,-260.0593 1294.6343,-259.7111 1296.7284,-266.3906"/>
</g>
<!-- Node2 -->
<g id="node3" class="node">
<title>Node2</title>
<g id="a_node3"><a xlink:href="../../df/d29/Pass_8h.xhtml" target="_top" xlink:title="enfield/Transform/Pass.h">
<polygon fill="none" stroke="#000000" points="587.7333,-112.5 587.7333,-131.5 725.7333,-131.5 725.7333,-112.5 587.7333,-112.5"/>
<text text-anchor="middle" x="656.7333" y="-119.5" font-family="Helvetica,sans-Serif" font-size="10.00" fill="#000000">enfield/Transform/Pass.h</text>
</a>
</g>
</g>
<!-- Node1&#45;&gt;Node2 -->
<g id="edge2" class="edge">
<title>Node1&#45;&gt;Node2</title>
<path fill="none" stroke="#191970" d="M222.965,-235.278C250.5412,-216.3093 300.8334,-184.3982 348.7333,-168 423.715,-142.3305 513.8149,-130.9756 577.1335,-125.9586"/>
<polygon fill="#191970" stroke="#191970" points="577.7446,-129.4224 587.4521,-125.1782 577.2166,-122.4424 577.7446,-129.4224"/>
</g>
<!-- Node4 -->
<g id="node5" class="node">
<title>Node4</title>
<g id="a_node5"><a xlink:href="../../d4/d73/QModule_8h.xhtml" target="_top" xlink:title="enfield/Transform/QModule.h">
<polygon fill="none" stroke="#000000" points="577.7333,-174 577.7333,-193 735.7333,-193 735.7333,-174 577.7333,-174"/>
<text text-anchor="middle" x="656.7333" y="-181" font-family="Helvetica,sans-Serif" font-size="10.00" fill="#000000">enfield/Transform/QModule.h</text>
</a>
</g>
</g>
<!-- Node1&#45;&gt;Node4 -->
<g id="edge4" class="edge">
<title>Node1&#45;&gt;Node4</title>
<path fill="none" stroke="#191970" d="M278.1628,-236.4062C281.0548,-235.9227 283.9193,-235.4522 286.7333,-235 383.9734,-219.3737 496.044,-204.1645 571.1338,-194.3761"/>
<polygon fill="#191970" stroke="#191970" points="572.0131,-197.7914 581.4785,-193.0314 571.1107,-190.8498 572.0131,-197.7914"/>
</g>
<!-- Node1&#45;&gt;Node13 -->
<g id="edge15" class="edge">
<title>Node1&#45;&gt;Node13</title>
<path fill="none" stroke="#191970" d="M179.9494,-235.2967C164.4113,-224.4524 143.5861,-209.9182 127.9509,-199.006"/>
<polygon fill="#191970" stroke="#191970" points="129.6274,-195.908 119.424,-193.055 125.6212,-201.6483 129.6274,-195.908"/>
</g>
<!-- Node3 -->
<g id="node4" class="node">
<title>Node3</title>
<polygon fill="none" stroke="#bfbfbf" points="627.7333,-56.5 627.7333,-75.5 685.7333,-75.5 685.7333,-56.5 627.7333,-56.5"/>
<text text-anchor="middle" x="656.7333" y="-63.5" font-family="Helvetica,sans-Serif" font-size="10.00" fill="#000000">memory</text>
</g>
<!-- Node2&#45;&gt;Node3 -->
<g id="edge3" class="edge">
<title>Node2&#45;&gt;Node3</title>
<path fill="none" stroke="#191970" d="M656.7333,-112.2455C656.7333,-104.9382 656.7333,-94.6944 656.7333,-85.7046"/>
<polygon fill="#191970" stroke="#191970" points="660.2334,-85.6426 656.7333,-75.6427 653.2334,-85.6427 660.2334,-85.6426"/>
</g>
<!-- Node4&#45;&gt;Node2 -->
<g id="edge13" class="edge">
<title>Node4&#45;&gt;Node2</title>
<path fill="none" stroke="#191970" d="M656.7333,-173.8906C656.7333,-165.3657 656.7333,-152.6392 656.7333,-141.9235"/>
<polygon fill="#191970" stroke="#191970" points="660.2334,-141.7448 656.7333,-131.7449 653.2334,-141.7449 660.2334,-141.7448"/>
</g>
<!-- Node5 -->
<g id="node6" class="node">
<title>Node5</title>
<g id="a_node6"><a xlink:href="../../d4/daf/Nodes_8h.xhtml" target="_top" xlink:title="enfield/Analysis/Nodes.h">
<polygon fill="none" stroke="#000000" points="787.2333,-112.5 787.2333,-131.5 924.2333,-131.5 924.2333,-112.5 787.2333,-112.5"/>
<text text-anchor="middle" x="855.7333" y="-119.5" font-family="Helvetica,sans-Serif" font-size="10.00" fill="#000000">enfield/Analysis/Nodes.h</text>
</a>
</g>
</g>
<!-- Node4&#45;&gt;Node5 -->
<g id="edge5" class="edge">
<title>Node4&#45;&gt;Node5</title>
<path fill="none" stroke="#191970" d="M687.827,-173.8906C722.1456,-163.2846 777.5075,-146.1753 815.2031,-134.5257"/>
<polygon fill="#191970" stroke="#191970" points="816.3372,-137.8386 824.8578,-131.5419 814.2702,-131.1507 816.3372,-137.8386"/>
</g>
<!-- Node4&#45;&gt;Node12 -->
<g id="edge14" class="edge">
<title>Node4&#45;&gt;Node12</title>
<path fill="none" stroke="#191970" d="M622.5145,-173.8906C584.5057,-163.2169 523.0422,-145.9566 481.5448,-134.3033"/>
<polygon fill="#191970" stroke="#191970" points="482.2856,-130.8759 471.7117,-131.5419 480.393,-137.6153 482.2856,-130.8759"/>
</g>
<!-- Node5&#45;&gt;Node3 -->
<g id="edge12" class="edge">
<title>Node5&#45;&gt;Node3</title>
<path fill="none" stroke="#191970" d="M821.5239,-112.3733C786.5814,-102.5402 732.4049,-87.2945 695.798,-76.9931"/>
<polygon fill="#191970" stroke="#191970" points="696.5437,-73.5671 685.9694,-74.2273 694.6474,-80.3053 696.5437,-73.5671"/>
</g>
<!-- Node6 -->
<g id="node7" class="node">
<title>Node6</title>
<g id="a_node7"><a xlink:href="../../d1/d2e/WrapperVal_8h.xhtml" target="_top" xlink:title="enfield/Support/WrapperVal.h">
<polygon fill="none" stroke="#000000" points="703.7333,-56.5 703.7333,-75.5 863.7333,-75.5 863.7333,-56.5 703.7333,-56.5"/>
<text text-anchor="middle" x="783.7333" y="-63.5" font-family="Helvetica,sans-Serif" font-size="10.00" fill="#000000">enfield/Support/WrapperVal.h</text>
</a>
</g>
</g>
<!-- Node5&#45;&gt;Node6 -->
<g id="edge6" class="edge">
<title>Node5&#45;&gt;Node6</title>
<path fill="none" stroke="#191970" d="M843.1918,-112.2455C832.4545,-103.8943 816.7859,-91.7076 804.2286,-81.9408"/>
<polygon fill="#191970" stroke="#191970" points="806.1733,-79.0194 796.131,-75.6427 801.8757,-84.5449 806.1733,-79.0194"/>
</g>
<!-- Node5&#45;&gt;Node8 -->
<g id="edge8" class="edge">
<title>Node5&#45;&gt;Node8</title>
<path fill="none" stroke="#191970" d="M786.9323,-113.4948C702.8551,-103.1012 561.2253,-85.5928 475.4196,-74.9855"/>
<polygon fill="#191970" stroke="#191970" points="475.5937,-71.4805 465.2398,-73.7271 474.7348,-78.4276 475.5937,-71.4805"/>
</g>
<!-- Node9 -->
<g id="node10" class="node">
<title>Node9</title>
<polygon fill="none" stroke="#bfbfbf" points="882.2333,-56.5 882.2333,-75.5 965.2333,-75.5 965.2333,-56.5 882.2333,-56.5"/>
<text text-anchor="middle" x="923.7333" y="-63.5" font-family="Helvetica,sans-Serif" font-size="10.00" fill="#000000">initializer_list</text>
</g>
<!-- Node5&#45;&gt;Node9 -->
<g id="edge9" class="edge">
<title>Node5&#45;&gt;Node9</title>
<path fill="none" stroke="#191970" d="M867.578,-112.2455C877.6212,-103.9746 892.2327,-91.9416 904.0336,-82.2232"/>
<polygon fill="#191970" stroke="#191970" points="906.53,-84.7015 912.0243,-75.6427 902.08,-79.298 906.53,-84.7015"/>
</g>
<!-- Node10 -->
<g id="node11" class="node">
<title>Node10</title>
<polygon fill="none" stroke="#bfbfbf" points="983.7333,-56.5 983.7333,-75.5 1043.7333,-75.5 1043.7333,-56.5 983.7333,-56.5"/>
<text text-anchor="middle" x="1013.7333" y="-63.5" font-family="Helvetica,sans-Serif" font-size="10.00" fill="#000000">iostream</text>
</g>
<!-- Node5&#45;&gt;Node10 -->
<g id="edge10" class="edge">
<title>Node5&#45;&gt;Node10</title>
<path fill="none" stroke="#191970" d="M882.8944,-112.3733C908.94,-103.1419 948.4448,-89.1402 977.2311,-78.9375"/>
<polygon fill="#191970" stroke="#191970" points="978.6703,-82.1408 986.9265,-75.5011 976.3318,-75.5429 978.6703,-82.1408"/>
</g>
<!-- Node5&#45;&gt;Node11 -->
<g id="edge11" class="edge">
<title>Node5&#45;&gt;Node11</title>
<path fill="none" stroke="#191970" d="M786.9482,-116.2755C769.887,-114.8666 751.6461,-113.3696 734.7333,-112 527.2083,-95.1952 277.8607,-75.6305 188.5734,-68.6445"/>
<polygon fill="#191970" stroke="#191970" points="188.7342,-65.1465 178.4917,-67.8559 188.1883,-72.1251 188.7342,-65.1465"/>
</g>
<!-- Node7 -->
<g id="node8" class="node">
<title>Node7</title>
<polygon fill="none" stroke="#bfbfbf" points="761.7333,-.5 761.7333,-19.5 805.7333,-19.5 805.7333,-.5 761.7333,-.5"/>
<text text-anchor="middle" x="783.7333" y="-7.5" font-family="Helvetica,sans-Serif" font-size="10.00" fill="#000000">string</text>
</g>
<!-- Node6&#45;&gt;Node7 -->
<g id="edge7" class="edge">
<title>Node6&#45;&gt;Node7</title>
<path fill="none" stroke="#191970" d="M783.7333,-56.2455C783.7333,-48.9382 783.7333,-38.6944 783.7333,-29.7046"/>
<polygon fill="#191970" stroke="#191970" points="787.2334,-29.6426 783.7333,-19.6427 780.2334,-29.6427 787.2334,-29.6426"/>
</g>
<!-- Node13&#45;&gt;Node11 -->
<g id="edge16" class="edge">
<title>Node13&#45;&gt;Node11</title>
<path fill="none" stroke="#191970" d="M89.1994,-173.875C68.3005,-160.4371 36.7507,-135.1001 51.7333,-112 66.9577,-88.527 97.2659,-76.927 121.0819,-71.2584"/>
<polygon fill="#191970" stroke="#191970" points="122.107,-74.6186 131.1586,-69.1122 120.6488,-67.7722 122.107,-74.6186"/>
</g>
<!-- Node14 -->
<g id="node15" class="node">
<title>Node14</title>
<polygon fill="none" stroke="#bfbfbf" points="198.7333,-112.5 198.7333,-131.5 248.7333,-131.5 248.7333,-112.5 198.7333,-112.5"/>
<text text-anchor="middle" x="223.7333" y="-119.5" font-family="Helvetica,sans-Serif" font-size="10.00" fill="#000000">cstdint</text>
</g>
<!-- Node13&#45;&gt;Node14 -->
<g id="edge17" class="edge">
<title>Node13&#45;&gt;Node14</title>
<path fill="none" stroke="#191970" d="M124.1708,-173.8906C143.5679,-163.7811 174.3023,-147.7628 196.495,-136.1962"/>
<polygon fill="#191970" stroke="#191970" points="198.175,-139.2675 205.4252,-131.5419 194.9397,-133.06 198.175,-139.2675"/>
</g>
<!-- Node15 -->
<g id="node16" class="node">
<title>Node15</title>
<polygon fill="none" stroke="#bfbfbf" points="60.7333,-112.5 60.7333,-131.5 104.7333,-131.5 104.7333,-112.5 60.7333,-112.5"/>
<text text-anchor="middle" x="82.7333" y="-119.5" font-family="Helvetica,sans-Serif" font-size="10.00" fill="#000000">limits</text>
</g>
<!-- Node13&#45;&gt;Node15 -->
<g id="edge18" class="edge">
<title>Node13&#45;&gt;Node15</title>
<path fill="none" stroke="#191970" d="M102.1395,-173.8906C98.8842,-165.1862 93.9907,-152.1015 89.9322,-141.2494"/>
<polygon fill="#191970" stroke="#191970" points="93.1589,-139.8852 86.3777,-131.7449 86.6024,-142.3373 93.1589,-139.8852"/>
</g>
<!-- Node16 -->
<g id="node17" class="node">
<title>Node16</title>
<polygon fill="none" stroke="#bfbfbf" points="123.2333,-112.5 123.2333,-131.5 180.2333,-131.5 180.2333,-112.5 123.2333,-112.5"/>
<text text-anchor="middle" x="151.7333" y="-119.5" font-family="Helvetica,sans-Serif" font-size="10.00" fill="#000000">ostream</text>
</g>
<!-- Node13&#45;&gt;Node16 -->
<g id="edge19" class="edge">
<title>Node13&#45;&gt;Node16</title>
<path fill="none" stroke="#191970" d="M112.9208,-173.8906C119.6998,-164.8273 130.0311,-151.0149 138.3306,-139.9188"/>
<polygon fill="#191970" stroke="#191970" points="141.2575,-141.849 144.4444,-131.7449 135.6521,-137.6563 141.2575,-141.849"/>
</g>
<!-- Node17&#45;&gt;Node2 -->
<g id="edge22" class="edge">
<title>Node17&#45;&gt;Node2</title>
<path fill="none" stroke="#191970" d="M1013.8571,-235.2303C1009.4178,-216.2114 998.9672,-184.2471 976.7333,-168 957.5883,-154.0101 824.2817,-138.4458 735.8734,-129.4816"/>
<polygon fill="#191970" stroke="#191970" points="736.1609,-125.9929 725.861,-128.475 735.4607,-132.9578 736.1609,-125.9929"/>
</g>
<!-- Node17&#45;&gt;Node4 -->
<g id="edge23" class="edge">
<title>Node17&#45;&gt;Node4</title>
<path fill="none" stroke="#191970" d="M947.4216,-236.6685C944.487,-236.1012 941.5813,-235.543 938.7333,-235 863.7908,-220.7115 777.4828,-205.0686 720.2935,-194.8169"/>
<polygon fill="#191970" stroke="#191970" points="720.7764,-191.3478 710.316,-193.0301 719.5424,-198.2381 720.7764,-191.3478"/>
</g>
<!-- Node17&#45;&gt;Node5 -->
<g id="edge21" class="edge">
<title>Node17&#45;&gt;Node5</title>
<path fill="none" stroke="#191970" d="M1020.1129,-235.2437C1023.1768,-217.1204 1025.1479,-186.9613 1009.7333,-168 998.0286,-153.6022 956.9213,-141.749 920.1207,-133.6823"/>
<polygon fill="#191970" stroke="#191970" points="920.3922,-130.162 909.8833,-131.5085 918.9382,-137.0093 920.3922,-130.162"/>
</g>
<!-- Node18 -->
<g id="node19" class="node">
<title>Node18</title>
<g id="a_node19"><a xlink:href="../../df/da6/CircuitGraph_8h.xhtml" target="_top" xlink:title="enfield/Transform/Circuit\lGraph.h">
<polygon fill="none" stroke="#000000" points="829.7333,-168.5 829.7333,-198.5 967.7333,-198.5 967.7333,-168.5 829.7333,-168.5"/>
<text text-anchor="start" x="837.7333" y="-186.5" font-family="Helvetica,sans-Serif" font-size="10.00" fill="#000000">enfield/Transform/Circuit</text>
<text text-anchor="middle" x="898.7333" y="-175.5" font-family="Helvetica,sans-Serif" font-size="10.00" fill="#000000">Graph.h</text>
</a>
</g>
</g>
<!-- Node17&#45;&gt;Node18 -->
<g id="edge24" class="edge">
<title>Node17&#45;&gt;Node18</title>
<path fill="none" stroke="#191970" d="M990.2518,-235.4639C973.8185,-226.1332 952.4906,-214.0232 934.5585,-203.8415"/>
<polygon fill="#191970" stroke="#191970" points="935.9588,-200.6117 925.5346,-198.7177 932.5025,-206.699 935.9588,-200.6117"/>
</g>
<!-- Node18&#45;&gt;Node5 -->
<g id="edge25" class="edge">
<title>Node18&#45;&gt;Node5</title>
<path fill="none" stroke="#191970" d="M888.104,-168.2977C882.1352,-159.7609 874.6494,-149.0545 868.3804,-140.0883"/>
<polygon fill="#191970" stroke="#191970" points="871.2167,-138.0368 862.6181,-131.8469 865.4799,-142.048 871.2167,-138.0368"/>
</g>
<!-- Node18&#45;&gt;Node12 -->
<g id="edge26" class="edge">
<title>Node18&#45;&gt;Node12</title>
<path fill="none" stroke="#191970" d="M829.7169,-174.2928C738.3594,-162.1052 578.9883,-140.8442 494.3373,-129.5513"/>
<polygon fill="#191970" stroke="#191970" points="494.7691,-126.078 484.394,-128.2248 493.8434,-133.0165 494.7691,-126.078"/>
</g>
<!-- Node19&#45;&gt;Node2 -->
<g id="edge28" class="edge">
<title>Node19&#45;&gt;Node2</title>
<path fill="none" stroke="#191970" d="M375.5202,-235.416C389.8218,-216.5932 416.8792,-184.836 447.7333,-168 487.4201,-146.3443 536.6008,-134.8826 577.2825,-128.8168"/>
<polygon fill="#191970" stroke="#191970" points="578.0169,-132.248 587.4312,-127.3879 577.0409,-125.3163 578.0169,-132.248"/>
</g>
<!-- Node19&#45;&gt;Node4 -->
<g id="edge29" class="edge">
<title>Node19&#45;&gt;Node4</title>
<path fill="none" stroke="#191970" d="M430.2638,-235.4639C483.1664,-223.3253 556.5679,-206.4831 605.2992,-195.3016"/>
<polygon fill="#191970" stroke="#191970" points="606.3433,-198.6531 615.3072,-193.0053 604.7777,-191.8304 606.3433,-198.6531"/>
</g>
<!-- Node19&#45;&gt;Node5 -->
<g id="edge30" class="edge">
<title>Node19&#45;&gt;Node5</title>
<path fill="none" stroke="#191970" d="M388.3252,-235.4395C403.7429,-225.4225 424.197,-211.8008 441.7333,-199 459.6174,-185.9452 460.3118,-176.5579 480.7333,-168 507.3811,-156.8329 674.9934,-139.2466 776.9014,-129.3676"/>
<polygon fill="#191970" stroke="#191970" points="777.5426,-132.822 787.1602,-128.3776 776.8702,-125.8544 777.5426,-132.822"/>
</g>
<!-- Node19&#45;&gt;Node11 -->
<g id="edge32" class="edge">
<title>Node19&#45;&gt;Node11</title>
<path fill="none" stroke="#191970" d="M356.364,-235.1871C340.4591,-207.3174 303.3479,-147.8806 257.7333,-112 237.0035,-95.6939 209.5797,-83.8138 188.2415,-76.2155"/>
<polygon fill="#191970" stroke="#191970" points="189.2067,-72.8467 178.6122,-72.927 186.9444,-79.4711 189.2067,-72.8467"/>
</g>
<!-- Node19&#45;&gt;Node12 -->
<g id="edge31" class="edge">
<title>Node19&#45;&gt;Node12</title>
<path fill="none" stroke="#191970" d="M355.8428,-235.3782C346.8609,-217.9233 335.987,-188.936 348.7333,-168 358.0332,-152.7246 374.2198,-142.2991 390.2609,-135.2919"/>
<polygon fill="#191970" stroke="#191970" points="391.6454,-138.5078 399.6357,-131.5503 389.0506,-132.0065 391.6454,-138.5078"/>
</g>
<!-- Node20 -->
<g id="node21" class="node">
<title>Node20</title>
<polygon fill="none" stroke="#bfbfbf" points="489.7333,-174 489.7333,-193 521.7333,-193 521.7333,-174 489.7333,-174"/>
<text text-anchor="middle" x="505.7333" y="-181" font-family="Helvetica,sans-Serif" font-size="10.00" fill="#000000">set</text>
</g>
<!-- Node19&#45;&gt;Node20 -->
<g id="edge33" class="edge">
<title>Node19&#45;&gt;Node20</title>
<path fill="none" stroke="#191970" d="M398.4249,-235.3184C420.5201,-225.2517 449.9799,-211.6202 475.7333,-199 477.2895,-198.2374 478.8864,-197.4442 480.4938,-196.6376"/>
<polygon fill="#191970" stroke="#191970" points="482.2856,-199.6528 489.6048,-191.9925 479.106,-193.4166 482.2856,-199.6528"/>
</g>
<!-- Node21 -->
<g id="node22" class="node">
<title>Node21</title>
<polygon fill="none" stroke="#bfbfbf" points="357.7333,-174 357.7333,-193 395.7333,-193 395.7333,-174 357.7333,-174"/>
<text text-anchor="middle" x="376.7333" y="-181" font-family="Helvetica,sans-Serif" font-size="10.00" fill="#000000">map</text>
</g>
<!-- Node19&#45;&gt;Node21 -->
<g id="edge34" class="edge">
<title>Node19&#45;&gt;Node21</title>
<path fill="none" stroke="#191970" d="M367.4562,-235.2967C369.1625,-225.7699 371.3789,-213.3954 373.2173,-203.1306"/>
<polygon fill="#191970" stroke="#191970" points="376.704,-203.5154 375.0219,-193.055 369.8137,-202.2813 376.704,-203.5154"/>
</g>
<!-- Node22&#45;&gt;Node2 -->
<g id="edge36" class="edge">
<title>Node22&#45;&gt;Node2</title>
<path fill="none" stroke="#191970" d="M844.3333,-235.3014C825.712,-217.509 792.8567,-187.9429 760.7333,-168 739.4475,-154.7853 713.709,-143.3684 693.1628,-135.2141"/>
<polygon fill="#191970" stroke="#191970" points="694.4189,-131.9473 683.8301,-131.5913 691.8857,-138.4729 694.4189,-131.9473"/>
</g>
<!-- Node22&#45;&gt;Node4 -->
<g id="edge37" class="edge">
<title>Node22&#45;&gt;Node4</title>
<path fill="none" stroke="#191970" d="M814.1761,-235.4639C778.3212,-223.63 728.9219,-207.3258 695.0739,-196.1543"/>
<polygon fill="#191970" stroke="#191970" points="696.126,-192.8159 685.5329,-193.0053 693.932,-199.4632 696.126,-192.8159"/>
</g>
<!-- Node23&#45;&gt;Node2 -->
<g id="edge39" class="edge">
<title>Node23&#45;&gt;Node2</title>
<path fill="none" stroke="#191970" d="M524.8421,-235.4215C532.7371,-217.4732 547.9747,-187.4864 568.7333,-168 583.4429,-154.1918 603.0944,-143.3951 620.0954,-135.7421"/>
<polygon fill="#191970" stroke="#191970" points="621.9336,-138.7619 629.7415,-131.6005 619.1718,-132.3297 621.9336,-138.7619"/>
</g>
<!-- Node23&#45;&gt;Node4 -->
<g id="edge40" class="edge">
<title>Node23&#45;&gt;Node4</title>
<path fill="none" stroke="#191970" d="M549.7031,-235.4639C573.0664,-224.1209 604.8891,-208.6707 627.7527,-197.5703"/>
<polygon fill="#191970" stroke="#191970" points="629.4849,-200.62 636.952,-193.1039 626.4276,-194.323 629.4849,-200.62"/>
</g>
<!-- Node23&#45;&gt;Node20 -->
<g id="edge41" class="edge">
<title>Node23&#45;&gt;Node20</title>
<path fill="none" stroke="#191970" d="M515.7834,-235.2967C513.9349,-225.7699 511.5338,-213.3954 509.5422,-203.1306"/>
<polygon fill="#191970" stroke="#191970" points="512.928,-202.2052 507.5872,-193.055 506.0561,-203.5386 512.928,-202.2052"/>
</g>
<!-- Node24&#45;&gt;Node2 -->
<g id="edge43" class="edge">
<title>Node24&#45;&gt;Node2</title>
<path fill="none" stroke="#191970" d="M704.5083,-240.9042C718.1958,-232.015 736.558,-217.4044 744.7333,-199 750.3264,-186.4086 751.8708,-179.7849 744.7333,-168 735.5507,-152.8386 719.5485,-142.4355 703.6861,-135.4143"/>
<polygon fill="#191970" stroke="#191970" points="704.9979,-132.1695 694.4153,-131.6607 702.3708,-138.6579 704.9979,-132.1695"/>
</g>
<!-- Node24&#45;&gt;Node4 -->
<g id="edge44" class="edge">
<title>Node24&#45;&gt;Node4</title>
<path fill="none" stroke="#191970" d="M683.2917,-240.9005C678.6417,-230.8505 671.221,-214.8122 665.4041,-202.2403"/>
<polygon fill="#191970" stroke="#191970" points="668.5423,-200.6876 661.1666,-193.0817 662.1893,-203.627 668.5423,-200.6876"/>
</g>
<!-- Node24&#45;&gt;Node20 -->
<g id="edge45" class="edge">
<title>Node24&#45;&gt;Node20</title>
<path fill="none" stroke="#191970" d="M661.6571,-240.9005C626.9468,-228.1226 565.941,-205.6644 531.4258,-192.9582"/>
<polygon fill="#191970" stroke="#191970" points="532.6231,-189.6694 522.0297,-189.4992 530.2048,-196.2385 532.6231,-189.6694"/>
</g>
<!-- Node25&#45;&gt;Node4 -->
<g id="edge48" class="edge">
<title>Node25&#45;&gt;Node4</title>
<path fill="none" stroke="#191970" d="M1127.8834,-240.9568C1117.0591,-238.8284 1105.5069,-236.7011 1094.7333,-235 974.5769,-216.0279 834.8614,-200.7687 746.1436,-191.9211"/>
<polygon fill="#191970" stroke="#191970" points="746.414,-188.4309 736.1174,-190.9269 745.7232,-195.3967 746.414,-188.4309"/>
</g>
<!-- Node25&#45;&gt;Node5 -->
<g id="edge47" class="edge">
<title>Node25&#45;&gt;Node5</title>
<path fill="none" stroke="#191970" d="M1158.655,-240.7601C1133.5845,-223.8062 1079.0978,-188.707 1028.7333,-168 991.9766,-152.8878 948.7744,-141.3954 914.7375,-133.6772"/>
<polygon fill="#191970" stroke="#191970" points="915.4618,-130.2529 904.9408,-131.5021 913.9444,-137.0864 915.4618,-130.2529"/>
</g>
<!-- Node26&#45;&gt;Node5 -->
<g id="edge50" class="edge">
<title>Node26&#45;&gt;Node5</title>
<path fill="none" stroke="#191970" d="M1186.9134,-173.9581C1116.5675,-162.9217 1000.9255,-144.7789 926.5806,-133.1151"/>
<polygon fill="#191970" stroke="#191970" points="926.795,-129.606 916.3733,-131.5137 925.71,-136.5214 926.795,-129.606"/>
</g>
</g>
</svg>
