<?xml version="1.0" encoding="UTF-8" standalone="no"?>
<!DOCTYPE svg PUBLIC "-//W3C//DTD SVG 1.1//EN"
 "http://www.w3.org/Graphics/SVG/1.1/DTD/svg11.dtd">
<!-- Generated by graphviz version 2.40.1 (20161225.0304)
 -->
<!-- Title: efd::StdSolutionImplPass Pages: 1 -->
<svg width="232pt" height="140pt"
 viewBox="0.00 0.00 231.50 140.00" xmlns="http://www.w3.org/2000/svg" xmlns:xlink="http://www.w3.org/1999/xlink">
<g id="graph0" class="graph" transform="scale(1 1) rotate(0) translate(4 136)">
<title>efd::StdSolutionImplPass</title>
<!-- Node4 -->
<g id="node1" class="node">
<title>Node4</title>
<polygon fill="#bfbfbf" stroke="#000000" points="46,-.5 46,-19.5 184,-19.5 184,-.5 46,-.5"/>
<text text-anchor="middle" x="115" y="-7.5" font-family="Helvetica,sans-Serif" font-size="10.00" fill="#000000">efd::StdSolutionImplPass</text>
</g>
<!-- Node5 -->
<g id="node2" class="node">
<title>Node5</title>
<g id="a_node2"><a xlink:href="../../d6/d84/classefd_1_1PassT_3_01void_01_4.xhtml" target="_top" xlink:title="efd::PassT\&lt; void \&gt;">
<polygon fill="none" stroke="#000000" points="0,-56.5 0,-75.5 110,-75.5 110,-56.5 0,-56.5"/>
<text text-anchor="middle" x="55" y="-63.5" font-family="Helvetica,sans-Serif" font-size="10.00" fill="#000000">efd::PassT&lt; void &gt;</text>
</a>
</g>
</g>
<!-- Node5&#45;&gt;Node4 -->
<g id="edge1" class="edge">
<title>Node5&#45;&gt;Node4</title>
<path fill="none" stroke="#191970" d="M72.8278,-49.3607C83.2078,-39.6727 95.9291,-27.7995 104.6686,-19.6427"/>
<polygon fill="#191970" stroke="#191970" points="70.3737,-46.8636 65.4512,-56.2455 75.1499,-51.981 70.3737,-46.8636"/>
</g>
<!-- Node6 -->
<g id="node3" class="node">
<title>Node6</title>
<g id="a_node3"><a xlink:href="../../d0/d98/classefd_1_1Pass.xhtml" target="_top" xlink:title="Base class for implementation of QModule passes. This information will be used when the QModule&#39;s fun...">
<polygon fill="none" stroke="#000000" points="24.5,-112.5 24.5,-131.5 85.5,-131.5 85.5,-112.5 24.5,-112.5"/>
<text text-anchor="middle" x="55" y="-119.5" font-family="Helvetica,sans-Serif" font-size="10.00" fill="#000000">efd::Pass</text>
</a>
</g>
</g>
<!-- Node6&#45;&gt;Node5 -->
<g id="edge2" class="edge">
<title>Node6&#45;&gt;Node5</title>
<path fill="none" stroke="#191970" d="M55,-102.1575C55,-93.155 55,-82.9199 55,-75.6427"/>
<polygon fill="#191970" stroke="#191970" points="51.5001,-102.2455 55,-112.2455 58.5001,-102.2456 51.5001,-102.2455"/>
</g>
<!-- Node7 -->
<g id="node4" class="node">
<title>Node7</title>
<g id="a_node4"><a xlink:href="../../d8/d5d/classefd_1_1NodeVisitor.xhtml" target="_top" xlink:title="Interface class to be used as a visitor. ">
<polygon fill="none" stroke="#000000" points="128.5,-56.5 128.5,-75.5 223.5,-75.5 223.5,-56.5 128.5,-56.5"/>
<text text-anchor="middle" x="176" y="-63.5" font-family="Helvetica,sans-Serif" font-size="10.00" fill="#000000">efd::NodeVisitor</text>
</a>
</g>
</g>
<!-- Node7&#45;&gt;Node4 -->
<g id="edge3" class="edge">
<title>Node7&#45;&gt;Node4</title>
<path fill="none" stroke="#191970" d="M157.8751,-49.3607C147.322,-39.6727 134.3888,-27.7995 125.5036,-19.6427"/>
<polygon fill="#191970" stroke="#191970" points="155.6411,-52.0611 165.3746,-56.2455 160.375,-46.9045 155.6411,-52.0611"/>
</g>
</g>
</svg>
