<?xml version="1.0" encoding="UTF-8" standalone="no"?>
<!DOCTYPE svg PUBLIC "-//W3C//DTD SVG 1.1//EN"
 "http://www.w3.org/Graphics/SVG/1.1/DTD/svg11.dtd">
<!-- Generated by graphviz version 2.38.0 (20140413.2041)
 -->
<!-- Title: efd::NDQOpBarrier::NDQOpBarrier Pages: 1 -->
<svg width="693pt" height="142pt"
 viewBox="0.00 0.00 693.00 142.00" xmlns="http://www.w3.org/2000/svg" xmlns:xlink="http://www.w3.org/1999/xlink">
<g id="graph0" class="graph" transform="scale(1 1) rotate(0) translate(4 138)">
<title>efd::NDQOpBarrier::NDQOpBarrier</title>
<!-- Node0 -->
<g id="node1" class="node"><title>Node0</title>
<polygon fill="#bfbfbf" stroke="black" points="0,-71 0,-101 106,-101 106,-71 0,-71"/>
<text text-anchor="start" x="8" y="-89" font-family="Helvetica,sans-Serif" font-size="10.00">efd::NDQOpBarrier::</text>
<text text-anchor="middle" x="53" y="-78" font-family="Helvetica,sans-Serif" font-size="10.00">NDQOpBarrier</text>
</g>
<!-- Node1 -->
<g id="node2" class="node"><title>Node1</title>
<g id="a_node2"><a xlink:href="../../df/d1b/classefd_1_1NDValue.xhtml#a96ab9dcd008523aa2f4cfc2eb95d7178" target="_top" xlink:title="Creates a new instance of this node. ">
<polygon fill="none" stroke="black" points="143,-114.5 143,-133.5 254,-133.5 254,-114.5 143,-114.5"/>
<text text-anchor="middle" x="198.5" y="-121.5" font-family="Helvetica,sans-Serif" font-size="10.00">efd::NDValue::Create</text>
</a>
</g>
</g>
<!-- Node0&#45;&gt;Node1 -->
<g id="edge1" class="edge"><title>Node0&#45;&gt;Node1</title>
<path fill="none" stroke="midnightblue" d="M106.213,-99.8264C121.058,-103.758 137.111,-108.009 151.555,-111.833"/>
<polygon fill="midnightblue" stroke="midnightblue" points="150.7,-115.228 161.263,-114.404 152.492,-108.461 150.7,-115.228"/>
</g>
<!-- Node2 -->
<g id="node3" class="node"><title>Node2</title>
<g id="a_node3"><a xlink:href="../../da/ddd/classefd_1_1NDList.xhtml#a5e3e2ab6234caa816599eb51766210b7" target="_top" xlink:title="Creates a new instance of this node with the kind K_LIST. ">
<polygon fill="none" stroke="black" points="147.5,-76.5 147.5,-95.5 249.5,-95.5 249.5,-76.5 147.5,-76.5"/>
<text text-anchor="middle" x="198.5" y="-83.5" font-family="Helvetica,sans-Serif" font-size="10.00">efd::NDList::Create</text>
</a>
</g>
</g>
<!-- Node0&#45;&gt;Node2 -->
<g id="edge2" class="edge"><title>Node0&#45;&gt;Node2</title>
<path fill="none" stroke="midnightblue" d="M106.213,-86C116.31,-86 126.966,-86 137.294,-86"/>
<polygon fill="midnightblue" stroke="midnightblue" points="137.481,-89.5001 147.481,-86 137.481,-82.5001 137.481,-89.5001"/>
</g>
<!-- Node7 -->
<g id="node8" class="node"><title>Node7</title>
<g id="a_node8"><a xlink:href="../../dd/d94/classefd_1_1NDQOp.xhtml#ab5f18eaba71bcb53806525fd5dc61403" target="_top" xlink:title="efd::NDQOp::NDQOp">
<polygon fill="none" stroke="black" points="142,-38.5 142,-57.5 255,-57.5 255,-38.5 142,-38.5"/>
<text text-anchor="middle" x="198.5" y="-45.5" font-family="Helvetica,sans-Serif" font-size="10.00">efd::NDQOp::NDQOp</text>
</a>
</g>
</g>
<!-- Node0&#45;&gt;Node7 -->
<g id="edge7" class="edge"><title>Node0&#45;&gt;Node7</title>
<path fill="none" stroke="midnightblue" d="M106.213,-72.1736C121.058,-68.2424 137.111,-63.9914 151.555,-60.1666"/>
<polygon fill="midnightblue" stroke="midnightblue" points="152.492,-63.5392 161.263,-57.5959 150.7,-56.7724 152.492,-63.5392"/>
</g>
<!-- Node3 -->
<g id="node4" class="node"><title>Node3</title>
<g id="a_node4"><a xlink:href="../../da/ddd/classefd_1_1NDList.xhtml#a63e0eab4abb59c1c0783f90afe0bb3bb" target="_top" xlink:title="Creates a new instance of this node with a specific k. ">
<polygon fill="none" stroke="black" points="303,-76.5 303,-95.5 405,-95.5 405,-76.5 303,-76.5"/>
<text text-anchor="middle" x="354" y="-83.5" font-family="Helvetica,sans-Serif" font-size="10.00">efd::NDList::Create</text>
</a>
</g>
</g>
<!-- Node2&#45;&gt;Node3 -->
<g id="edge3" class="edge"><title>Node2&#45;&gt;Node3</title>
<path fill="none" stroke="midnightblue" d="M249.762,-86C263.482,-86 278.489,-86 292.705,-86"/>
<polygon fill="midnightblue" stroke="midnightblue" points="292.888,-89.5001 302.888,-86 292.888,-82.5001 292.888,-89.5001"/>
</g>
<!-- Node4 -->
<g id="node5" class="node"><title>Node4</title>
<g id="a_node5"><a xlink:href="../../d4/deb/namespaceefd.xhtml#a3fd26bc2a0a0c6d9948d0d3cef2e1515" target="_top" xlink:title="Returns true if the pointer src is of class TargetTy. ">
<polygon fill="none" stroke="black" points="465,-114.5 465,-133.5 548,-133.5 548,-114.5 465,-114.5"/>
<text text-anchor="middle" x="506.5" y="-121.5" font-family="Helvetica,sans-Serif" font-size="10.00">efd::instanceOf</text>
</a>
</g>
</g>
<!-- Node3&#45;&gt;Node4 -->
<g id="edge4" class="edge"><title>Node3&#45;&gt;Node4</title>
<path fill="none" stroke="midnightblue" d="M392.978,-95.589C412.659,-100.558 436.891,-106.677 457.821,-111.961"/>
<polygon fill="midnightblue" stroke="midnightblue" points="457.243,-115.425 467.796,-114.48 458.957,-108.638 457.243,-115.425"/>
</g>
<!-- Node5 -->
<g id="node6" class="node"><title>Node5</title>
<g id="a_node6"><a xlink:href="../../da/ddd/classefd_1_1NDList.xhtml#a2642c91fda9d33512d1aa1aa7851b6bd" target="_top" xlink:title="efd::NDList::NDList">
<polygon fill="none" stroke="black" points="454.5,-76.5 454.5,-95.5 558.5,-95.5 558.5,-76.5 454.5,-76.5"/>
<text text-anchor="middle" x="506.5" y="-83.5" font-family="Helvetica,sans-Serif" font-size="10.00">efd::NDList::NDList</text>
</a>
</g>
</g>
<!-- Node3&#45;&gt;Node5 -->
<g id="edge5" class="edge"><title>Node3&#45;&gt;Node5</title>
<path fill="none" stroke="midnightblue" d="M405.114,-86C417.597,-86 431.121,-86 444.08,-86"/>
<polygon fill="midnightblue" stroke="midnightblue" points="444.32,-89.5001 454.32,-86 444.319,-82.5001 444.32,-89.5001"/>
</g>
<!-- Node6 -->
<g id="node7" class="node"><title>Node6</title>
<g id="a_node7"><a xlink:href="../../d6/d6a/classefd_1_1Node.xhtml#a09ac8cdf7898a3d17293d92ae956eece" target="_top" xlink:title="Constructs the node, initially empty (with no information). ">
<polygon fill="none" stroke="black" points="596,-57.5 596,-76.5 685,-76.5 685,-57.5 596,-57.5"/>
<text text-anchor="middle" x="640.5" y="-64.5" font-family="Helvetica,sans-Serif" font-size="10.00">efd::Node::Node</text>
</a>
</g>
</g>
<!-- Node5&#45;&gt;Node6 -->
<g id="edge6" class="edge"><title>Node5&#45;&gt;Node6</title>
<path fill="none" stroke="midnightblue" d="M558.535,-78.6541C567.496,-77.3643 576.845,-76.0185 585.874,-74.7189"/>
<polygon fill="midnightblue" stroke="midnightblue" points="586.495,-78.1657 595.894,-73.2766 585.497,-71.2371 586.495,-78.1657"/>
</g>
<!-- Node7&#45;&gt;Node6 -->
<g id="edge10" class="edge"><title>Node7&#45;&gt;Node6</title>
<path fill="none" stroke="midnightblue" d="M255.226,-50.4064C340.358,-54.0825 501.738,-61.0512 585.702,-64.6769"/>
<polygon fill="midnightblue" stroke="midnightblue" points="585.651,-68.1779 595.793,-65.1126 585.953,-61.1844 585.651,-68.1779"/>
</g>
<!-- Node8 -->
<g id="node9" class="node"><title>Node8</title>
<g id="a_node9"><a xlink:href="../../d6/d6a/classefd_1_1Node.xhtml#a8ac8c3206c6f6817a8c8e515ac830f61" target="_top" xlink:title="Adds a child to this node. It should be used only for construction of each derived class...">
<polygon fill="none" stroke="black" points="291,-0.5 291,-19.5 417,-19.5 417,-0.5 291,-0.5"/>
<text text-anchor="middle" x="354" y="-7.5" font-family="Helvetica,sans-Serif" font-size="10.00">efd::Node::innerAddChild</text>
</a>
</g>
</g>
<!-- Node7&#45;&gt;Node8 -->
<g id="edge8" class="edge"><title>Node7&#45;&gt;Node8</title>
<path fill="none" stroke="midnightblue" d="M238.235,-38.411C258.399,-33.4191 283.248,-27.2676 304.661,-21.9666"/>
<polygon fill="midnightblue" stroke="midnightblue" points="305.678,-25.3206 314.544,-19.5201 303.996,-18.5257 305.678,-25.3206"/>
</g>
<!-- Node9 -->
<g id="node10" class="node"><title>Node9</title>
<g id="a_node10"><a xlink:href="../../d6/d6a/classefd_1_1Node.xhtml#a48e9d49d994b9023b8400316e2782e2b" target="_top" xlink:title="Sets the parent node of the current node. ">
<polygon fill="none" stroke="black" points="453,-0.5 453,-19.5 560,-19.5 560,-0.5 453,-0.5"/>
<text text-anchor="middle" x="506.5" y="-7.5" font-family="Helvetica,sans-Serif" font-size="10.00">efd::Node::setParent</text>
</a>
</g>
</g>
<!-- Node8&#45;&gt;Node9 -->
<g id="edge9" class="edge"><title>Node8&#45;&gt;Node9</title>
<path fill="none" stroke="midnightblue" d="M417.083,-10C425.488,-10 434.118,-10 442.538,-10"/>
<polygon fill="midnightblue" stroke="midnightblue" points="442.674,-13.5001 452.674,-10 442.674,-6.5001 442.674,-13.5001"/>
</g>
</g>
</svg>
