<?xml version="1.0" encoding="UTF-8" standalone="no"?>
<!DOCTYPE svg PUBLIC "-//W3C//DTD SVG 1.1//EN"
 "http://www.w3.org/Graphics/SVG/1.1/DTD/svg11.dtd">
<!-- Generated by graphviz version 2.40.1 (20161225.0304)
 -->
<!-- Title: efd::XbitToNumber::getQStrId Pages: 1 -->
<svg width="278pt" height="104pt"
 viewBox="0.00 0.00 278.00 104.00" xmlns="http://www.w3.org/2000/svg" xmlns:xlink="http://www.w3.org/1999/xlink">
<g id="graph0" class="graph" transform="scale(1 1) rotate(0) translate(4 100)">
<title>efd::XbitToNumber::getQStrId</title>
<!-- Node12 -->
<g id="node1" class="node">
<title>Node12</title>
<polygon fill="#bfbfbf" stroke="#000000" points="0,-33 0,-63 115,-63 115,-33 0,-33"/>
<text text-anchor="start" x="8" y="-51" font-family="Helvetica,sans-Serif" font-size="10.00" fill="#000000">efd::XbitToNumber::</text>
<text text-anchor="middle" x="57.5" y="-40" font-family="Helvetica,sans-Serif" font-size="10.00" fill="#000000">getQStrId</text>
</g>
<!-- Node13 -->
<g id="node2" class="node">
<title>Node13</title>
<g id="a_node2"><a xlink:href="../../d4/deb/namespaceefd.xhtml#af3487901a239a99750dc5dcdc3a8c868" target="_top" xlink:title="efd::ExitWith">
<polygon fill="none" stroke="#000000" points="170.5,-76.5 170.5,-95.5 250.5,-95.5 250.5,-76.5 170.5,-76.5"/>
<text text-anchor="middle" x="210.5" y="-83.5" font-family="Helvetica,sans-Serif" font-size="10.00" fill="#000000">efd::ExitWith</text>
</a>
</g>
</g>
<!-- Node12&#45;&gt;Node13 -->
<g id="edge1" class="edge">
<title>Node12&#45;&gt;Node13</title>
<path fill="none" stroke="#191970" d="M115.3427,-62.3662C130.7441,-66.1913 147.2199,-70.2834 162.0603,-73.9692"/>
<polygon fill="#191970" stroke="#191970" points="161.491,-77.4341 172.0398,-76.4478 163.1783,-70.6405 161.491,-77.4341"/>
</g>
<!-- Node14 -->
<g id="node3" class="node">
<title>Node14</title>
<g id="a_node3"><a xlink:href="../../d0/d9e/classefd_1_1NDDecl.xhtml#a34957c2122c38cebf80a264d5fa3863f" target="_top" xlink:title="Gets the id node. ">
<polygon fill="none" stroke="#000000" points="157.5,-38.5 157.5,-57.5 263.5,-57.5 263.5,-38.5 157.5,-38.5"/>
<text text-anchor="middle" x="210.5" y="-45.5" font-family="Helvetica,sans-Serif" font-size="10.00" fill="#000000">efd::NDDecl::getId</text>
</a>
</g>
</g>
<!-- Node12&#45;&gt;Node14 -->
<g id="edge2" class="edge">
<title>Node12&#45;&gt;Node14</title>
<path fill="none" stroke="#191970" d="M115.3427,-48C125.6244,-48 136.385,-48 146.8181,-48"/>
<polygon fill="#191970" stroke="#191970" points="147.1123,-51.5001 157.1122,-48 147.1122,-44.5001 147.1123,-51.5001"/>
</g>
<!-- Node15 -->
<g id="node4" class="node">
<title>Node15</title>
<g id="a_node4"><a xlink:href="../../df/d1b/classefd_1_1NDValue.xhtml#a53ee724a8db3429bf30bb1936ad548b2" target="_top" xlink:title="Returns a copy to the setted value. ">
<polygon fill="none" stroke="#000000" points="151,-.5 151,-19.5 270,-19.5 270,-.5 151,-.5"/>
<text text-anchor="middle" x="210.5" y="-7.5" font-family="Helvetica,sans-Serif" font-size="10.00" fill="#000000">efd::NDValue::getVal</text>
</a>
</g>
</g>
<!-- Node12&#45;&gt;Node15 -->
<g id="edge3" class="edge">
<title>Node12&#45;&gt;Node15</title>
<path fill="none" stroke="#191970" d="M115.3427,-33.6338C130.7441,-29.8087 147.2199,-25.7166 162.0603,-22.0308"/>
<polygon fill="#191970" stroke="#191970" points="163.1783,-25.3595 172.0398,-19.5522 161.491,-18.5659 163.1783,-25.3595"/>
</g>
</g>
</svg>
