<?xml version="1.0" encoding="UTF-8" standalone="no"?>
<!DOCTYPE svg PUBLIC "-//W3C//DTD SVG 1.1//EN"
 "http://www.w3.org/Graphics/SVG/1.1/DTD/svg11.dtd">
<!-- Generated by graphviz version 2.38.0 (20140413.2041)
 -->
<!-- Title: efd::NDQOp::setId Pages: 1 -->
<svg width="387pt" height="28pt"
 viewBox="0.00 0.00 387.00 28.00" xmlns="http://www.w3.org/2000/svg" xmlns:xlink="http://www.w3.org/1999/xlink">
<g id="graph0" class="graph" transform="scale(1 1) rotate(0) translate(4 24)">
<title>efd::NDQOp::setId</title>
<!-- Node33 -->
<g id="node1" class="node"><title>Node33</title>
<polygon fill="#bfbfbf" stroke="black" points="0,-0.5 0,-19.5 99,-19.5 99,-0.5 0,-0.5"/>
<text text-anchor="middle" x="49.5" y="-7.5" font-family="Helvetica,sans-Serif" font-size="10.00">efd::NDQOp::setId</text>
</g>
<!-- Node34 -->
<g id="node2" class="node"><title>Node34</title>
<g id="a_node2"><a xlink:href="../../d6/d6a/classefd_1_1Node.xhtml#aad4510814ff15bd26fe2f95f9d2a2279" target="_top" xlink:title="Sets the i&#45;th child. ">
<polygon fill="none" stroke="black" points="135,-0.5 135,-19.5 236,-19.5 236,-0.5 135,-0.5"/>
<text text-anchor="middle" x="185.5" y="-7.5" font-family="Helvetica,sans-Serif" font-size="10.00">efd::Node::setChild</text>
</a>
</g>
</g>
<!-- Node33&#45;&gt;Node34 -->
<g id="edge1" class="edge"><title>Node33&#45;&gt;Node34</title>
<path fill="none" stroke="midnightblue" d="M99.2561,-10C107.449,-10 116.036,-10 124.474,-10"/>
<polygon fill="midnightblue" stroke="midnightblue" points="124.655,-13.5001 134.655,-10 124.655,-6.5001 124.655,-13.5001"/>
</g>
<!-- Node35 -->
<g id="node3" class="node"><title>Node35</title>
<g id="a_node3"><a xlink:href="../../d6/d6a/classefd_1_1Node.xhtml#a48e9d49d994b9023b8400316e2782e2b" target="_top" xlink:title="Sets the parent node of the current node. ">
<polygon fill="none" stroke="black" points="272,-0.5 272,-19.5 379,-19.5 379,-0.5 272,-0.5"/>
<text text-anchor="middle" x="325.5" y="-7.5" font-family="Helvetica,sans-Serif" font-size="10.00">efd::Node::setParent</text>
</a>
</g>
</g>
<!-- Node34&#45;&gt;Node35 -->
<g id="edge2" class="edge"><title>Node34&#45;&gt;Node35</title>
<path fill="none" stroke="midnightblue" d="M236.321,-10C244.554,-10 253.183,-10 261.686,-10"/>
<polygon fill="midnightblue" stroke="midnightblue" points="261.959,-13.5001 271.959,-10 261.959,-6.5001 261.959,-13.5001"/>
</g>
</g>
</svg>
