<?xml version="1.0" encoding="UTF-8" standalone="no"?>
<!DOCTYPE svg PUBLIC "-//W3C//DTD SVG 1.1//EN"
 "http://www.w3.org/Graphics/SVG/1.1/DTD/svg11.dtd">
<!-- Generated by graphviz version 2.38.0 (20140413.2041)
 -->
<!-- Title: efd::NDQOp::setArgs Pages: 1 -->
<svg width="399pt" height="28pt"
 viewBox="0.00 0.00 399.00 28.00" xmlns="http://www.w3.org/2000/svg" xmlns:xlink="http://www.w3.org/1999/xlink">
<g id="graph0" class="graph" transform="scale(1 1) rotate(0) translate(4 24)">
<title>efd::NDQOp::setArgs</title>
<!-- Node30 -->
<g id="node1" class="node"><title>Node30</title>
<polygon fill="#bfbfbf" stroke="black" points="0,-0.5 0,-19.5 111,-19.5 111,-0.5 0,-0.5"/>
<text text-anchor="middle" x="55.5" y="-7.5" font-family="Helvetica,sans-Serif" font-size="10.00">efd::NDQOp::setArgs</text>
</g>
<!-- Node31 -->
<g id="node2" class="node"><title>Node31</title>
<g id="a_node2"><a xlink:href="../../d6/d6a/classefd_1_1Node.xhtml#aad4510814ff15bd26fe2f95f9d2a2279" target="_top" xlink:title="Sets the i&#45;th child. ">
<polygon fill="none" stroke="black" points="147,-0.5 147,-19.5 248,-19.5 248,-0.5 147,-0.5"/>
<text text-anchor="middle" x="197.5" y="-7.5" font-family="Helvetica,sans-Serif" font-size="10.00">efd::Node::setChild</text>
</a>
</g>
</g>
<!-- Node30&#45;&gt;Node31 -->
<g id="edge1" class="edge"><title>Node30&#45;&gt;Node31</title>
<path fill="none" stroke="midnightblue" d="M111.029,-10C119.434,-10 128.154,-10 136.668,-10"/>
<polygon fill="midnightblue" stroke="midnightblue" points="136.917,-13.5001 146.917,-10 136.916,-6.5001 136.917,-13.5001"/>
</g>
<!-- Node32 -->
<g id="node3" class="node"><title>Node32</title>
<g id="a_node3"><a xlink:href="../../d6/d6a/classefd_1_1Node.xhtml#a48e9d49d994b9023b8400316e2782e2b" target="_top" xlink:title="Sets the parent node of the current node. ">
<polygon fill="none" stroke="black" points="284,-0.5 284,-19.5 391,-19.5 391,-0.5 284,-0.5"/>
<text text-anchor="middle" x="337.5" y="-7.5" font-family="Helvetica,sans-Serif" font-size="10.00">efd::Node::setParent</text>
</a>
</g>
</g>
<!-- Node31&#45;&gt;Node32 -->
<g id="edge2" class="edge"><title>Node31&#45;&gt;Node32</title>
<path fill="none" stroke="midnightblue" d="M248.321,-10C256.554,-10 265.183,-10 273.686,-10"/>
<polygon fill="midnightblue" stroke="midnightblue" points="273.959,-13.5001 283.959,-10 273.959,-6.5001 273.959,-13.5001"/>
</g>
</g>
</svg>
