<?xml version="1.0" encoding="UTF-8" standalone="no"?>
<!DOCTYPE svg PUBLIC "-//W3C//DTD SVG 1.1//EN"
 "http://www.w3.org/Graphics/SVG/1.1/DTD/svg11.dtd">
<!-- Generated by graphviz version 2.40.1 (20161225.0304)
 -->
<!-- Title: efd::NodeRenameVisitor::visitNDQOp Pages: 1 -->
<svg width="472pt" height="230pt"
 viewBox="0.00 0.00 472.00 230.00" xmlns="http://www.w3.org/2000/svg" xmlns:xlink="http://www.w3.org/1999/xlink">
<g id="graph0" class="graph" transform="scale(1 1) rotate(0) translate(4 226)">
<title>efd::NodeRenameVisitor::visitNDQOp</title>
<!-- Node70 -->
<g id="node1" class="node">
<title>Node70</title>
<polygon fill="#bfbfbf" stroke="#000000" points="0,-102 0,-132 136,-132 136,-102 0,-102"/>
<text text-anchor="start" x="8" y="-120" font-family="Helvetica,sans-Serif" font-size="10.00" fill="#000000">efd::NodeRenameVisitor</text>
<text text-anchor="middle" x="68" y="-109" font-family="Helvetica,sans-Serif" font-size="10.00" fill="#000000">::visitNDQOp</text>
</g>
<!-- Node71 -->
<g id="node2" class="node">
<title>Node71</title>
<g id="a_node2"><a xlink:href="../../d6/d6a/classefd_1_1Node.xhtml#a6c85c9bd21014b73497de741cc75f706" target="_top" xlink:title="Clones the current node (deep copy). ">
<polygon fill="none" stroke="#000000" points="192.5,-202.5 192.5,-221.5 288.5,-221.5 288.5,-202.5 192.5,-202.5"/>
<text text-anchor="middle" x="240.5" y="-209.5" font-family="Helvetica,sans-Serif" font-size="10.00" fill="#000000">efd::Node::clone</text>
</a>
</g>
</g>
<!-- Node70&#45;&gt;Node71 -->
<g id="edge1" class="edge">
<title>Node70&#45;&gt;Node71</title>
<path fill="none" stroke="#191970" d="M84.7813,-132.2701C104.3699,-149.3439 138.3854,-176.7281 172,-193 176.8599,-195.3525 182.0593,-197.4559 187.3403,-199.3266"/>
<polygon fill="#191970" stroke="#191970" points="186.2858,-202.6641 196.8784,-202.446 188.4617,-196.0108 186.2858,-202.6641"/>
</g>
<!-- Node72 -->
<g id="node3" class="node">
<title>Node72</title>
<g id="a_node3"><a xlink:href="../../da/ddd/classefd_1_1NDList.xhtml#a5e3e2ab6234caa816599eb51766210b7" target="_top" xlink:title="Creates a new instance of this node with the kind K_LIST. ">
<polygon fill="none" stroke="#000000" points="186,-164.5 186,-183.5 295,-183.5 295,-164.5 186,-164.5"/>
<text text-anchor="middle" x="240.5" y="-171.5" font-family="Helvetica,sans-Serif" font-size="10.00" fill="#000000">efd::NDList::Create</text>
</a>
</g>
</g>
<!-- Node70&#45;&gt;Node72 -->
<g id="edge2" class="edge">
<title>Node70&#45;&gt;Node72</title>
<path fill="none" stroke="#191970" d="M107.2522,-132.1813C126.6175,-139.4558 150.4011,-148.0707 172,-155 179.1904,-157.3068 186.8568,-159.5963 194.361,-161.745"/>
<polygon fill="#191970" stroke="#191970" points="193.5046,-165.1399 204.0787,-164.4782 195.3999,-158.4013 193.5046,-165.1399"/>
</g>
<!-- Node73 -->
<g id="node4" class="node">
<title>Node73</title>
<g id="a_node4"><a xlink:href="../../d5/dae/classefd_1_1ArchGraph.xhtml#a1388225779727295176780b9a68aedf2" target="_top" xlink:title="Gets the node corresponding to the uid. ">
<polygon fill="none" stroke="#000000" points="172,-126.5 172,-145.5 309,-145.5 309,-126.5 172,-126.5"/>
<text text-anchor="middle" x="240.5" y="-133.5" font-family="Helvetica,sans-Serif" font-size="10.00" fill="#000000">efd::ArchGraph::getNode</text>
</a>
</g>
</g>
<!-- Node70&#45;&gt;Node73 -->
<g id="edge3" class="edge">
<title>Node70&#45;&gt;Node73</title>
<path fill="none" stroke="#191970" d="M136.1766,-124.5093C144.6374,-125.4412 153.3413,-126.3999 161.9423,-127.3473"/>
<polygon fill="#191970" stroke="#191970" points="161.648,-130.8359 171.9711,-128.4519 162.4144,-123.878 161.648,-130.8359"/>
</g>
<!-- Node75 -->
<g id="node6" class="node">
<title>Node75</title>
<g id="a_node6"><a xlink:href="../../dd/d94/classefd_1_1NDQOp.xhtml#af7ef43289355c5bb047a46419177c8ed" target="_top" xlink:title="Gets the quantum arguments. ">
<polygon fill="none" stroke="#000000" points="178,-88.5 178,-107.5 303,-107.5 303,-88.5 178,-88.5"/>
<text text-anchor="middle" x="240.5" y="-95.5" font-family="Helvetica,sans-Serif" font-size="10.00" fill="#000000">efd::NDQOp::getQArgs</text>
</a>
</g>
</g>
<!-- Node70&#45;&gt;Node75 -->
<g id="edge5" class="edge">
<title>Node70&#45;&gt;Node75</title>
<path fill="none" stroke="#191970" d="M136.1766,-109.4907C146.596,-108.3431 157.3838,-107.1548 167.8943,-105.9972"/>
<polygon fill="#191970" stroke="#191970" points="168.3086,-109.4728 177.8653,-104.8989 167.5421,-102.5149 168.3086,-109.4728"/>
</g>
<!-- Node76 -->
<g id="node7" class="node">
<title>Node76</title>
<g id="a_node7"><a xlink:href="../../db/d0c/structefd_1_1XbitToNumber.xhtml#ae645e4b0ccb9c25c534883843484f06a" target="_top" xlink:title="Returns an uint32_t number representing the qubit in this specific gate (if any). ...">
<polygon fill="none" stroke="#000000" points="183,-39 183,-69 298,-69 298,-39 183,-39"/>
<text text-anchor="start" x="191" y="-57" font-family="Helvetica,sans-Serif" font-size="10.00" fill="#000000">efd::XbitToNumber::</text>
<text text-anchor="middle" x="240.5" y="-46" font-family="Helvetica,sans-Serif" font-size="10.00" fill="#000000">getQUId</text>
</a>
</g>
</g>
<!-- Node70&#45;&gt;Node76 -->
<g id="edge6" class="edge">
<title>Node70&#45;&gt;Node76</title>
<path fill="none" stroke="#191970" d="M109.2465,-101.9252C128.3396,-94.948 151.325,-86.55 172,-79 177.6373,-76.9414 183.5358,-74.7879 189.4054,-72.6453"/>
<polygon fill="#191970" stroke="#191970" points="191.0113,-75.7851 199.205,-69.0683 188.6111,-69.2094 191.0113,-75.7851"/>
</g>
<!-- Node79 -->
<g id="node10" class="node">
<title>Node79</title>
<g id="a_node10"><a xlink:href="../../dd/d94/classefd_1_1NDQOp.xhtml#af66ad886623f70ee24c756d424694dae" target="_top" xlink:title="Sets the quantum arguments. ">
<polygon fill="none" stroke="#000000" points="178,-.5 178,-19.5 303,-19.5 303,-.5 178,-.5"/>
<text text-anchor="middle" x="240.5" y="-7.5" font-family="Helvetica,sans-Serif" font-size="10.00" fill="#000000">efd::NDQOp::setQArgs</text>
</a>
</g>
</g>
<!-- Node70&#45;&gt;Node79 -->
<g id="edge9" class="edge">
<title>Node70&#45;&gt;Node79</title>
<path fill="none" stroke="#191970" d="M81.6571,-101.9563C100.2461,-82.3664 135.4098,-48.3485 172,-29 176.2753,-26.7392 180.8469,-24.7254 185.5238,-22.9359"/>
<polygon fill="#191970" stroke="#191970" points="186.9131,-26.1585 195.2105,-19.5704 184.6157,-19.5462 186.9131,-26.1585"/>
</g>
<!-- Node74 -->
<g id="node5" class="node">
<title>Node74</title>
<g id="a_node5"><a xlink:href="../../d4/deb/namespaceefd.xhtml#af3487901a239a99750dc5dcdc3a8c868" target="_top" xlink:title="efd::ExitWith">
<polygon fill="none" stroke="#000000" points="364.5,-126.5 364.5,-145.5 444.5,-145.5 444.5,-126.5 364.5,-126.5"/>
<text text-anchor="middle" x="404.5" y="-133.5" font-family="Helvetica,sans-Serif" font-size="10.00" fill="#000000">efd::ExitWith</text>
</a>
</g>
</g>
<!-- Node73&#45;&gt;Node74 -->
<g id="edge4" class="edge">
<title>Node73&#45;&gt;Node74</title>
<path fill="none" stroke="#191970" d="M309.1005,-136C324.2155,-136 339.9547,-136 354.1885,-136"/>
<polygon fill="#191970" stroke="#191970" points="354.2564,-139.5001 364.2564,-136 354.2564,-132.5001 354.2564,-139.5001"/>
</g>
<!-- Node77 -->
<g id="node8" class="node">
<title>Node77</title>
<g id="a_node8"><a xlink:href="../../d0/d9e/classefd_1_1NDDecl.xhtml#a34957c2122c38cebf80a264d5fa3863f" target="_top" xlink:title="Gets the id node. ">
<polygon fill="none" stroke="#000000" points="351.5,-63.5 351.5,-82.5 457.5,-82.5 457.5,-63.5 351.5,-63.5"/>
<text text-anchor="middle" x="404.5" y="-70.5" font-family="Helvetica,sans-Serif" font-size="10.00" fill="#000000">efd::NDDecl::getId</text>
</a>
</g>
</g>
<!-- Node76&#45;&gt;Node77 -->
<g id="edge7" class="edge">
<title>Node76&#45;&gt;Node77</title>
<path fill="none" stroke="#191970" d="M298.3203,-60.6987C312.1972,-62.3064 327.0888,-64.0316 341.1999,-65.6665"/>
<polygon fill="#191970" stroke="#191970" points="340.975,-69.1637 351.3114,-66.8379 341.7807,-62.2102 340.975,-69.1637"/>
</g>
<!-- Node78 -->
<g id="node9" class="node">
<title>Node78</title>
<g id="a_node9"><a xlink:href="../../df/d1b/classefd_1_1NDValue.xhtml#a53ee724a8db3429bf30bb1936ad548b2" target="_top" xlink:title="Returns a copy to the setted value. ">
<polygon fill="none" stroke="#000000" points="345,-25.5 345,-44.5 464,-44.5 464,-25.5 345,-25.5"/>
<text text-anchor="middle" x="404.5" y="-32.5" font-family="Helvetica,sans-Serif" font-size="10.00" fill="#000000">efd::NDValue::getVal</text>
</a>
</g>
</g>
<!-- Node76&#45;&gt;Node78 -->
<g id="edge8" class="edge">
<title>Node76&#45;&gt;Node78</title>
<path fill="none" stroke="#191970" d="M298.3203,-47.3013C310.1359,-45.9324 322.6872,-44.4783 334.866,-43.0674"/>
<polygon fill="#191970" stroke="#191970" points="335.4535,-46.5228 344.9842,-41.8951 334.6479,-39.5693 335.4535,-46.5228"/>
</g>
</g>
</svg>
