<?xml version="1.0" encoding="UTF-8" standalone="no"?>
<!DOCTYPE svg PUBLIC "-//W3C//DTD SVG 1.1//EN"
 "http://www.w3.org/Graphics/SVG/1.1/DTD/svg11.dtd">
<!-- Generated by graphviz version 2.40.1 (20161225.0304)
 -->
<!-- Title: efd::NodeRenameVisitor::visit Pages: 1 -->
<svg width="644pt" height="230pt"
 viewBox="0.00 0.00 644.00 230.00" xmlns="http://www.w3.org/2000/svg" xmlns:xlink="http://www.w3.org/1999/xlink">
<g id="graph0" class="graph" transform="scale(1 1) rotate(0) translate(4 226)">
<title>efd::NodeRenameVisitor::visit</title>
<!-- Node34 -->
<g id="node1" class="node">
<title>Node34</title>
<polygon fill="#bfbfbf" stroke="#000000" points="0,-93 0,-123 136,-123 136,-93 0,-93"/>
<text text-anchor="start" x="8" y="-111" font-family="Helvetica,sans-Serif" font-size="10.00" fill="#000000">efd::NodeRenameVisitor</text>
<text text-anchor="middle" x="68" y="-100" font-family="Helvetica,sans-Serif" font-size="10.00" fill="#000000">::visit</text>
</g>
<!-- Node35 -->
<g id="node2" class="node">
<title>Node35</title>
<g id="a_node2"><a xlink:href="../../d1/d38/classefd_1_1NodeRenameVisitor.xhtml#a222cfde4b0f189dfd4d73efc3a071904" target="_top" xlink:title="efd::NodeRenameVisitor\l::visitNDQOp">
<polygon fill="none" stroke="#000000" points="172,-93 172,-123 308,-123 308,-93 172,-93"/>
<text text-anchor="start" x="180" y="-111" font-family="Helvetica,sans-Serif" font-size="10.00" fill="#000000">efd::NodeRenameVisitor</text>
<text text-anchor="middle" x="240" y="-100" font-family="Helvetica,sans-Serif" font-size="10.00" fill="#000000">::visitNDQOp</text>
</a>
</g>
</g>
<!-- Node34&#45;&gt;Node35 -->
<g id="edge1" class="edge">
<title>Node34&#45;&gt;Node35</title>
<path fill="none" stroke="#191970" d="M136.4732,-108C144.7318,-108 153.2157,-108 161.6024,-108"/>
<polygon fill="#191970" stroke="#191970" points="161.7625,-111.5001 171.7624,-108 161.7624,-104.5001 161.7625,-111.5001"/>
</g>
<!-- Node36 -->
<g id="node3" class="node">
<title>Node36</title>
<g id="a_node3"><a xlink:href="../../dd/d94/classefd_1_1NDQOp.xhtml#af7ef43289355c5bb047a46419177c8ed" target="_top" xlink:title="Gets the quantum arguments. ">
<polygon fill="none" stroke="#000000" points="350,-202.5 350,-221.5 475,-221.5 475,-202.5 350,-202.5"/>
<text text-anchor="middle" x="412.5" y="-209.5" font-family="Helvetica,sans-Serif" font-size="10.00" fill="#000000">efd::NDQOp::getQArgs</text>
</a>
</g>
</g>
<!-- Node35&#45;&gt;Node36 -->
<g id="edge2" class="edge">
<title>Node35&#45;&gt;Node36</title>
<path fill="none" stroke="#191970" d="M254.4112,-123.1604C273.2768,-142.1515 308.1779,-174.4467 344,-193 348.4742,-195.3173 353.2637,-197.3788 358.1539,-199.207"/>
<polygon fill="#191970" stroke="#191970" points="357.0316,-202.5222 367.6261,-202.4414 359.2936,-195.8977 357.0316,-202.5222"/>
</g>
<!-- Node37 -->
<g id="node4" class="node">
<title>Node37</title>
<g id="a_node4"><a xlink:href="../../da/ddd/classefd_1_1NDList.xhtml#a5e3e2ab6234caa816599eb51766210b7" target="_top" xlink:title="Creates a new instance of this node with the kind K_LIST. ">
<polygon fill="none" stroke="#000000" points="358,-164.5 358,-183.5 467,-183.5 467,-164.5 358,-164.5"/>
<text text-anchor="middle" x="412.5" y="-171.5" font-family="Helvetica,sans-Serif" font-size="10.00" fill="#000000">efd::NDList::Create</text>
</a>
</g>
</g>
<!-- Node35&#45;&gt;Node37 -->
<g id="edge3" class="edge">
<title>Node35&#45;&gt;Node37</title>
<path fill="none" stroke="#191970" d="M269.9802,-123.033C290.4875,-132.9452 318.4778,-145.7556 344,-155 350.4708,-157.3438 357.373,-159.5681 364.2115,-161.6137"/>
<polygon fill="#191970" stroke="#191970" points="363.549,-165.0653 374.1275,-164.476 365.4904,-158.3399 363.549,-165.0653"/>
</g>
<!-- Node38 -->
<g id="node5" class="node">
<title>Node38</title>
<g id="a_node5"><a xlink:href="../../db/d0c/structefd_1_1XbitToNumber.xhtml#ae645e4b0ccb9c25c534883843484f06a" target="_top" xlink:title="Returns an uint32_t number representing the qubit in this specific gate (if any). ...">
<polygon fill="none" stroke="#000000" points="355,-115 355,-145 470,-145 470,-115 355,-115"/>
<text text-anchor="start" x="363" y="-133" font-family="Helvetica,sans-Serif" font-size="10.00" fill="#000000">efd::XbitToNumber::</text>
<text text-anchor="middle" x="412.5" y="-122" font-family="Helvetica,sans-Serif" font-size="10.00" fill="#000000">getQUId</text>
</a>
</g>
</g>
<!-- Node35&#45;&gt;Node38 -->
<g id="edge4" class="edge">
<title>Node35&#45;&gt;Node38</title>
<path fill="none" stroke="#191970" d="M308.1766,-116.695C320.2425,-118.2338 332.8026,-119.8357 344.8538,-121.3727"/>
<polygon fill="#191970" stroke="#191970" points="344.4727,-124.8523 354.8352,-122.6456 345.3583,-117.9086 344.4727,-124.8523"/>
</g>
<!-- Node41 -->
<g id="node8" class="node">
<title>Node41</title>
<g id="a_node8"><a xlink:href="../../d5/dae/classefd_1_1ArchGraph.xhtml#a1388225779727295176780b9a68aedf2" target="_top" xlink:title="Gets the node corresponding to the uid. ">
<polygon fill="none" stroke="#000000" points="344,-76.5 344,-95.5 481,-95.5 481,-76.5 344,-76.5"/>
<text text-anchor="middle" x="412.5" y="-83.5" font-family="Helvetica,sans-Serif" font-size="10.00" fill="#000000">efd::ArchGraph::getNode</text>
</a>
</g>
</g>
<!-- Node35&#45;&gt;Node41 -->
<g id="edge7" class="edge">
<title>Node35&#45;&gt;Node41</title>
<path fill="none" stroke="#191970" d="M308.1766,-99.305C316.6374,-98.2259 325.3413,-97.1159 333.9423,-96.019"/>
<polygon fill="#191970" stroke="#191970" points="334.4943,-99.477 343.9711,-94.7399 333.6086,-92.5332 334.4943,-99.477"/>
</g>
<!-- Node43 -->
<g id="node10" class="node">
<title>Node43</title>
<g id="a_node10"><a xlink:href="../../d6/d6a/classefd_1_1Node.xhtml#a6c85c9bd21014b73497de741cc75f706" target="_top" xlink:title="Clones the current node (deep copy). ">
<polygon fill="none" stroke="#000000" points="364.5,-38.5 364.5,-57.5 460.5,-57.5 460.5,-38.5 364.5,-38.5"/>
<text text-anchor="middle" x="412.5" y="-45.5" font-family="Helvetica,sans-Serif" font-size="10.00" fill="#000000">efd::Node::clone</text>
</a>
</g>
</g>
<!-- Node35&#45;&gt;Node43 -->
<g id="edge9" class="edge">
<title>Node35&#45;&gt;Node43</title>
<path fill="none" stroke="#191970" d="M275.7557,-92.8295C295.6602,-84.6572 320.9949,-74.7015 344,-67 350.9194,-64.6836 358.2965,-62.4237 365.5508,-60.3177"/>
<polygon fill="#191970" stroke="#191970" points="366.646,-63.6452 375.3123,-57.5505 364.7369,-56.9106 366.646,-63.6452"/>
</g>
<!-- Node44 -->
<g id="node11" class="node">
<title>Node44</title>
<g id="a_node11"><a xlink:href="../../dd/d94/classefd_1_1NDQOp.xhtml#af66ad886623f70ee24c756d424694dae" target="_top" xlink:title="Sets the quantum arguments. ">
<polygon fill="none" stroke="#000000" points="350,-.5 350,-19.5 475,-19.5 475,-.5 350,-.5"/>
<text text-anchor="middle" x="412.5" y="-7.5" font-family="Helvetica,sans-Serif" font-size="10.00" fill="#000000">efd::NDQOp::setQArgs</text>
</a>
</g>
</g>
<!-- Node35&#45;&gt;Node44 -->
<g id="edge10" class="edge">
<title>Node35&#45;&gt;Node44</title>
<path fill="none" stroke="#191970" d="M255.9739,-92.7249C275.3396,-74.9936 309.6657,-46.0151 344,-29 348.6495,-26.6958 353.6196,-24.636 358.6796,-22.8024"/>
<polygon fill="#191970" stroke="#191970" points="360.0753,-26.0268 368.4602,-19.5504 357.8666,-19.3844 360.0753,-26.0268"/>
</g>
<!-- Node39 -->
<g id="node6" class="node">
<title>Node39</title>
<g id="a_node6"><a xlink:href="../../d0/d9e/classefd_1_1NDDecl.xhtml#a34957c2122c38cebf80a264d5fa3863f" target="_top" xlink:title="Gets the id node. ">
<polygon fill="none" stroke="#000000" points="523.5,-155.5 523.5,-174.5 629.5,-174.5 629.5,-155.5 523.5,-155.5"/>
<text text-anchor="middle" x="576.5" y="-162.5" font-family="Helvetica,sans-Serif" font-size="10.00" fill="#000000">efd::NDDecl::getId</text>
</a>
</g>
</g>
<!-- Node38&#45;&gt;Node39 -->
<g id="edge5" class="edge">
<title>Node38&#45;&gt;Node39</title>
<path fill="none" stroke="#191970" d="M470.3203,-142.3397C487.0452,-145.909 505.244,-149.7929 521.774,-153.3207"/>
<polygon fill="#191970" stroke="#191970" points="521.3123,-156.8009 531.8226,-155.4652 522.7733,-149.955 521.3123,-156.8009"/>
</g>
<!-- Node40 -->
<g id="node7" class="node">
<title>Node40</title>
<g id="a_node7"><a xlink:href="../../df/d1b/classefd_1_1NDValue.xhtml#a53ee724a8db3429bf30bb1936ad548b2" target="_top" xlink:title="Returns a copy to the setted value. ">
<polygon fill="none" stroke="#000000" points="517,-117.5 517,-136.5 636,-136.5 636,-117.5 517,-117.5"/>
<text text-anchor="middle" x="576.5" y="-124.5" font-family="Helvetica,sans-Serif" font-size="10.00" fill="#000000">efd::NDValue::getVal</text>
</a>
</g>
</g>
<!-- Node38&#45;&gt;Node40 -->
<g id="edge6" class="edge">
<title>Node38&#45;&gt;Node40</title>
<path fill="none" stroke="#191970" d="M470.3203,-128.9423C482.1359,-128.7262 494.6872,-128.4966 506.866,-128.2738"/>
<polygon fill="#191970" stroke="#191970" points="507.05,-131.7711 516.9842,-128.0887 506.9219,-124.7723 507.05,-131.7711"/>
</g>
<!-- Node42 -->
<g id="node9" class="node">
<title>Node42</title>
<g id="a_node9"><a xlink:href="../../d4/deb/namespaceefd.xhtml#af3487901a239a99750dc5dcdc3a8c868" target="_top" xlink:title="efd::ExitWith">
<polygon fill="none" stroke="#000000" points="536.5,-76.5 536.5,-95.5 616.5,-95.5 616.5,-76.5 536.5,-76.5"/>
<text text-anchor="middle" x="576.5" y="-83.5" font-family="Helvetica,sans-Serif" font-size="10.00" fill="#000000">efd::ExitWith</text>
</a>
</g>
</g>
<!-- Node41&#45;&gt;Node42 -->
<g id="edge8" class="edge">
<title>Node41&#45;&gt;Node42</title>
<path fill="none" stroke="#191970" d="M481.1005,-86C496.2155,-86 511.9547,-86 526.1885,-86"/>
<polygon fill="#191970" stroke="#191970" points="526.2564,-89.5001 536.2564,-86 526.2564,-82.5001 526.2564,-89.5001"/>
</g>
</g>
</svg>
