<?xml version="1.0" encoding="UTF-8" standalone="no"?>
<!DOCTYPE svg PUBLIC "-//W3C//DTD SVG 1.1//EN"
 "http://www.w3.org/Graphics/SVG/1.1/DTD/svg11.dtd">
<!-- Generated by graphviz version 2.40.1 (20161225.0304)
 -->
<!-- Title: efd::NodeRenameVisitor::visit Pages: 1 -->
<svg width="306pt" height="66pt"
 viewBox="0.00 0.00 306.00 66.00" xmlns="http://www.w3.org/2000/svg" xmlns:xlink="http://www.w3.org/1999/xlink">
<g id="graph0" class="graph" transform="scale(1 1) rotate(0) translate(4 62)">
<title>efd::NodeRenameVisitor::visit</title>
<!-- Node67 -->
<g id="node1" class="node">
<title>Node67</title>
<polygon fill="#bfbfbf" stroke="#000000" points="0,-14 0,-44 136,-44 136,-14 0,-14"/>
<text text-anchor="start" x="8" y="-32" font-family="Helvetica,sans-Serif" font-size="10.00" fill="#000000">efd::NodeRenameVisitor</text>
<text text-anchor="middle" x="68" y="-21" font-family="Helvetica,sans-Serif" font-size="10.00" fill="#000000">::visit</text>
</g>
<!-- Node68 -->
<g id="node2" class="node">
<title>Node68</title>
<g id="a_node2"><a xlink:href="../../d6/d6a/classefd_1_1Node.xhtml#ab813c60af1717cf50e92a28b274c24ef" target="_top" xlink:title="Used by visitor classes. ">
<polygon fill="none" stroke="#000000" points="186.5,-38.5 186.5,-57.5 283.5,-57.5 283.5,-38.5 186.5,-38.5"/>
<text text-anchor="middle" x="235" y="-45.5" font-family="Helvetica,sans-Serif" font-size="10.00" fill="#000000">efd::Node::apply</text>
</a>
</g>
</g>
<!-- Node67&#45;&gt;Node68 -->
<g id="edge1" class="edge">
<title>Node67&#45;&gt;Node68</title>
<path fill="none" stroke="#191970" d="M136.4071,-36.7828C149.6273,-38.2869 163.3696,-39.8504 176.2484,-41.3157"/>
<polygon fill="#191970" stroke="#191970" points="176.0338,-44.8138 186.3654,-42.4667 176.8251,-37.8586 176.0338,-44.8138"/>
</g>
<!-- Node69 -->
<g id="node3" class="node">
<title>Node69</title>
<g id="a_node3"><a xlink:href="../../dc/d9d/classefd_1_1NDIfStmt.xhtml#ae5c408d49862e644f1d299ab5b2f121d" target="_top" xlink:title="Gets the qop. ">
<polygon fill="none" stroke="#000000" points="172,-.5 172,-19.5 298,-19.5 298,-.5 172,-.5"/>
<text text-anchor="middle" x="235" y="-7.5" font-family="Helvetica,sans-Serif" font-size="10.00" fill="#000000">efd::NDIfStmt::getQOp</text>
</a>
</g>
</g>
<!-- Node67&#45;&gt;Node69 -->
<g id="edge2" class="edge">
<title>Node67&#45;&gt;Node69</title>
<path fill="none" stroke="#191970" d="M136.4071,-21.2172C144.7322,-20.27 153.2643,-19.2993 161.6575,-18.3444"/>
<polygon fill="#191970" stroke="#191970" points="162.2629,-21.7982 171.8031,-17.1901 161.4715,-14.843 162.2629,-21.7982"/>
</g>
</g>
</svg>
