<?xml version="1.0" encoding="UTF-8" standalone="no"?>
<!DOCTYPE svg PUBLIC "-//W3C//DTD SVG 1.1//EN"
 "http://www.w3.org/Graphics/SVG/1.1/DTD/svg11.dtd">
<!-- Generated by graphviz version 2.38.0 (20140413.2041)
 -->
<!-- Title: include/enfield/Support/Registry.h Pages: 1 -->
<svg width="654pt" height="229pt"
 viewBox="0.00 0.00 654.14 229.00" xmlns="http://www.w3.org/2000/svg" xmlns:xlink="http://www.w3.org/1999/xlink">
<g id="graph0" class="graph" transform="scale(1 1) rotate(0) translate(4 225)">
<title>include/enfield/Support/Registry.h</title>
<!-- Node14 -->
<g id="node1" class="node"><title>Node14</title>
<polygon fill="#bfbfbf" stroke="black" points="354.421,-190.5 354.421,-220.5 470.421,-220.5 470.421,-190.5 354.421,-190.5"/>
<text text-anchor="start" x="362.421" y="-208.5" font-family="Helvetica,sans-Serif" font-size="10.00">include/enfield/Support</text>
<text text-anchor="middle" x="412.421" y="-197.5" font-family="Helvetica,sans-Serif" font-size="10.00">/Registry.h</text>
</g>
<!-- Node15 -->
<g id="node2" class="node"><title>Node15</title>
<g id="a_node2"><a xlink:href="../../da/d8e/Architectures_8h.xhtml" target="_top" xlink:title="include/enfield/Arch\l/Architectures.h">
<polygon fill="none" stroke="black" points="224.421,-123.5 224.421,-153.5 326.421,-153.5 326.421,-123.5 224.421,-123.5"/>
<text text-anchor="start" x="232.421" y="-141.5" font-family="Helvetica,sans-Serif" font-size="10.00">include/enfield/Arch</text>
<text text-anchor="middle" x="275.421" y="-130.5" font-family="Helvetica,sans-Serif" font-size="10.00">/Architectures.h</text>
</a>
</g>
</g>
<!-- Node14&#45;&gt;Node15 -->
<g id="edge1" class="edge"><title>Node14&#45;&gt;Node15</title>
<path fill="none" stroke="midnightblue" d="M373.412,-185.992C351.697,-175.689 325.094,-163.068 305.09,-153.577"/>
<polygon fill="midnightblue" stroke="midnightblue" points="372.159,-189.272 382.694,-190.396 375.159,-182.947 372.159,-189.272"/>
</g>
<!-- Node21 -->
<g id="node8" class="node"><title>Node21</title>
<g id="a_node8"><a xlink:href="../../db/db1/Allocators_8h.xhtml" target="_top" xlink:title="include/enfield/Transform\l/Allocators/Allocators.h">
<polygon fill="none" stroke="black" points="418.421,-123.5 418.421,-153.5 544.421,-153.5 544.421,-123.5 418.421,-123.5"/>
<text text-anchor="start" x="426.421" y="-141.5" font-family="Helvetica,sans-Serif" font-size="10.00">include/enfield/Transform</text>
<text text-anchor="middle" x="481.421" y="-130.5" font-family="Helvetica,sans-Serif" font-size="10.00">/Allocators/Allocators.h</text>
</a>
</g>
</g>
<!-- Node14&#45;&gt;Node21 -->
<g id="edge9" class="edge"><title>Node14&#45;&gt;Node21</title>
<path fill="none" stroke="midnightblue" d="M434.913,-183.311C445.263,-173.561 457.261,-162.259 466.478,-153.577"/>
<polygon fill="midnightblue" stroke="midnightblue" points="432.272,-180.991 427.393,-190.396 437.072,-186.087 432.272,-180.991"/>
</g>
<!-- Node16 -->
<g id="node3" class="node"><title>Node16</title>
<g id="a_node3"><a xlink:href="../../d5/d6e/Architectures_8cpp.xhtml" target="_top" xlink:title="lib/Arch/Architectures.cpp">
<polygon fill="none" stroke="black" points="141.921,-62 141.921,-81 270.921,-81 270.921,-62 141.921,-62"/>
<text text-anchor="middle" x="206.421" y="-69" font-family="Helvetica,sans-Serif" font-size="10.00">lib/Arch/Architectures.cpp</text>
</a>
</g>
</g>
<!-- Node15&#45;&gt;Node16 -->
<g id="edge2" class="edge"><title>Node15&#45;&gt;Node16</title>
<path fill="none" stroke="midnightblue" d="M252.953,-116.335C240.285,-104.401 225.142,-90.1359 215.65,-81.1945"/>
<polygon fill="midnightblue" stroke="midnightblue" points="250.77,-119.087 260.449,-123.396 255.57,-113.991 250.77,-119.087"/>
</g>
<!-- Node17 -->
<g id="node4" class="node"><title>Node17</title>
<g id="a_node4"><a xlink:href="../../d6/d91/Transform_2Driver_8h.xhtml" target="_top" xlink:title="include/enfield/Transform\l/Driver.h">
<polygon fill="none" stroke="black" points="289.421,-56.5 289.421,-86.5 415.421,-86.5 415.421,-56.5 289.421,-56.5"/>
<text text-anchor="start" x="297.421" y="-74.5" font-family="Helvetica,sans-Serif" font-size="10.00">include/enfield/Transform</text>
<text text-anchor="middle" x="352.421" y="-63.5" font-family="Helvetica,sans-Serif" font-size="10.00">/Driver.h</text>
</a>
</g>
</g>
<!-- Node15&#45;&gt;Node17 -->
<g id="edge3" class="edge"><title>Node15&#45;&gt;Node17</title>
<path fill="none" stroke="midnightblue" d="M299.844,-116.883C311.545,-107.005 325.258,-95.4293 335.746,-86.5765"/>
<polygon fill="midnightblue" stroke="midnightblue" points="297.512,-114.271 292.129,-123.396 302.028,-119.62 297.512,-114.271"/>
</g>
<!-- Node18 -->
<g id="node5" class="node"><title>Node18</title>
<g id="a_node5"><a xlink:href="../../df/dd9/Driver_8cpp.xhtml" target="_top" xlink:title="lib/Transform/Driver.cpp">
<polygon fill="none" stroke="black" points="274.421,-0.5 274.421,-19.5 396.421,-19.5 396.421,-0.5 274.421,-0.5"/>
<text text-anchor="middle" x="335.421" y="-7.5" font-family="Helvetica,sans-Serif" font-size="10.00">lib/Transform/Driver.cpp</text>
</a>
</g>
</g>
<!-- Node15&#45;&gt;Node18 -->
<g id="edge6" class="edge"><title>Node15&#45;&gt;Node18</title>
<path fill="none" stroke="midnightblue" d="M214.049,-137.594C119.288,-135.697 -45.9423,-123.058 12.4208,-56 45.6882,-17.7765 190.35,-11.0053 274.364,-10.3902"/>
<polygon fill="midnightblue" stroke="midnightblue" points="214.056,-141.095 224.113,-137.761 214.172,-134.096 214.056,-141.095"/>
</g>
<!-- Node19 -->
<g id="node6" class="node"><title>Node19</title>
<g id="a_node6"><a xlink:href="../../de/d8e/Enfield_8cpp.xhtml" target="_top" xlink:title="tools/Enfield.cpp">
<polygon fill="none" stroke="black" points="414.921,-0.5 414.921,-19.5 503.921,-19.5 503.921,-0.5 414.921,-0.5"/>
<text text-anchor="middle" x="459.421" y="-7.5" font-family="Helvetica,sans-Serif" font-size="10.00">tools/Enfield.cpp</text>
</a>
</g>
</g>
<!-- Node15&#45;&gt;Node19 -->
<g id="edge7" class="edge"><title>Node15&#45;&gt;Node19</title>
<path fill="none" stroke="midnightblue" d="M336.316,-128.444C365.834,-121.385 400.074,-108.92 424.421,-87 445.04,-68.4355 454.375,-35.2669 457.785,-19.6202"/>
<polygon fill="midnightblue" stroke="midnightblue" points="335.503,-125.039 326.507,-130.636 337.03,-131.87 335.503,-125.039"/>
</g>
<!-- Node20 -->
<g id="node7" class="node"><title>Node20</title>
<g id="a_node7"><a xlink:href="../../d0/dfd/Generator_8cpp.xhtml" target="_top" xlink:title="tools/Generator.cpp">
<polygon fill="none" stroke="black" points="21.4208,-62 21.4208,-81 123.421,-81 123.421,-62 21.4208,-62"/>
<text text-anchor="middle" x="72.4208" y="-69" font-family="Helvetica,sans-Serif" font-size="10.00">tools/Generator.cpp</text>
</a>
</g>
</g>
<!-- Node15&#45;&gt;Node20 -->
<g id="edge8" class="edge"><title>Node15&#45;&gt;Node20</title>
<path fill="none" stroke="midnightblue" d="M221.606,-120.269C182.051,-107.603 129.993,-90.9344 98.9888,-81.007"/>
<polygon fill="midnightblue" stroke="midnightblue" points="220.782,-123.68 231.373,-123.396 222.916,-117.013 220.782,-123.68"/>
</g>
<!-- Node17&#45;&gt;Node18 -->
<g id="edge4" class="edge"><title>Node17&#45;&gt;Node18</title>
<path fill="none" stroke="midnightblue" d="M345.59,-46.5932C342.871,-37.0768 339.915,-26.73 337.894,-19.6578"/>
<polygon fill="midnightblue" stroke="midnightblue" points="342.279,-47.7456 348.392,-56.3993 349.01,-45.8225 342.279,-47.7456"/>
</g>
<!-- Node17&#45;&gt;Node19 -->
<g id="edge5" class="edge"><title>Node17&#45;&gt;Node19</title>
<path fill="none" stroke="midnightblue" d="M386.579,-51.5055C405.813,-40.8101 428.901,-27.9715 443.851,-19.6578"/>
<polygon fill="midnightblue" stroke="midnightblue" points="384.817,-48.4805 377.778,-56.3993 388.219,-54.5983 384.817,-48.4805"/>
</g>
<!-- Node21&#45;&gt;Node17 -->
<g id="edge11" class="edge"><title>Node21&#45;&gt;Node17</title>
<path fill="none" stroke="midnightblue" d="M444.414,-118.853C424.018,-108.576 399.109,-96.0252 380.357,-86.5765"/>
<polygon fill="midnightblue" stroke="midnightblue" points="442.924,-122.022 453.43,-123.396 446.074,-115.77 442.924,-122.022"/>
</g>
<!-- Node21&#45;&gt;Node18 -->
<g id="edge12" class="edge"><title>Node21&#45;&gt;Node18</title>
<path fill="none" stroke="midnightblue" d="M469.26,-114.117C459.138,-96.4107 443.353,-72.4153 424.421,-56 405.322,-39.4401 379.06,-27.1323 360.017,-19.6128"/>
<polygon fill="midnightblue" stroke="midnightblue" points="466.388,-116.155 474.285,-123.218 472.516,-112.772 466.388,-116.155"/>
</g>
<!-- Node21&#45;&gt;Node19 -->
<g id="edge13" class="edge"><title>Node21&#45;&gt;Node19</title>
<path fill="none" stroke="midnightblue" d="M554.538,-125.818C608.04,-114.041 666.731,-92.3084 638.421,-56 622.067,-35.0261 551.658,-22.3316 504.172,-15.998"/>
<polygon fill="midnightblue" stroke="midnightblue" points="553.695,-122.419 544.63,-127.903 555.137,-129.269 553.695,-122.419"/>
</g>
<!-- Node22 -->
<g id="node9" class="node"><title>Node22</title>
<g id="a_node9"><a xlink:href="../../dc/dea/Allocators_8cpp.xhtml" target="_top" xlink:title="lib/Transform/Allocators\l/Allocators.cpp">
<polygon fill="none" stroke="black" points="509.421,-56.5 509.421,-86.5 629.421,-86.5 629.421,-56.5 509.421,-56.5"/>
<text text-anchor="start" x="517.421" y="-74.5" font-family="Helvetica,sans-Serif" font-size="10.00">lib/Transform/Allocators</text>
<text text-anchor="middle" x="569.421" y="-63.5" font-family="Helvetica,sans-Serif" font-size="10.00">/Allocators.cpp</text>
</a>
</g>
</g>
<!-- Node21&#45;&gt;Node22 -->
<g id="edge10" class="edge"><title>Node21&#45;&gt;Node22</title>
<path fill="none" stroke="midnightblue" d="M508.564,-117.451C522.102,-107.452 538.148,-95.5995 550.363,-86.5765"/>
<polygon fill="midnightblue" stroke="midnightblue" points="506.48,-114.639 500.515,-123.396 510.639,-120.27 506.48,-114.639"/>
</g>
</g>
</svg>
