<?xml version="1.0" encoding="UTF-8" standalone="no"?>
<!DOCTYPE svg PUBLIC "-//W3C//DTD SVG 1.1//EN"
 "http://www.w3.org/Graphics/SVG/1.1/DTD/svg11.dtd">
<!-- Generated by graphviz version 2.40.1 (20161225.0304)
 -->
<!-- Title: lib/Transform/Allocators/Simple/RandomMappingFinder.cpp Pages: 1 -->
<!--zoomable 665 -->
<svg id="main" version="1.1" xmlns="http://www.w3.org/2000/svg" xmlns:xlink="http://www.w3.org/1999/xlink" xml:space="preserve" onload="init(evt)">
<style type="text/css"><![CDATA[
.edge:hover path { stroke: red; }
.edge:hover polygon { stroke: red; fill: red; }
]]></style>
<script type="text/javascript"><![CDATA[
var edges = document.getElementsByTagName('g');
if (edges && edges.length) {
  for (var i=0;i<edges.length;i++) {
    if (edges[i].id.substr(0,4)=='edge') {
      edges[i].setAttribute('class','edge');
    }
  }
}
]]></script>
        <defs>
                <circle id="rim" cx="0" cy="0" r="7"/>
                <circle id="rim2" cx="0" cy="0" r="3.5"/>
                <g id="zoomPlus">
                        <use xlink:href="#rim" fill="#404040">
                                <set attributeName="fill" to="#808080" begin="zoomplus.mouseover" end="zoomplus.mouseout"/>
                        </use>
                        <path d="M-4,0h8M0,-4v8" fill="none" stroke="white" stroke-width="1.5" pointer-events="none"/>
                </g>
                <g id="zoomMin">
                        <use xlink:href="#rim" fill="#404040">
                                <set attributeName="fill" to="#808080" begin="zoomminus.mouseover" end="zoomminus.mouseout"/>
                        </use>
                        <path d="M-4,0h8" fill="none" stroke="white" stroke-width="1.5" pointer-events="none"/>
                </g>
                <g id="dirArrow">
                        <path fill="none" stroke="white" stroke-width="1.5" d="M0,-3.0v7 M-2.5,-0.5L0,-3.0L2.5,-0.5"/>
                </g>
               <g id="resetDef">
                       <use xlink:href="#rim2" fill="#404040">
                               <set attributeName="fill" to="#808080" begin="reset.mouseover" end="reset.mouseout"/>
                       </use>
               </g>
        </defs>

<script type="text/javascript">
var viewWidth = 1638;
var viewHeight = 665;
var sectionId = 'dynsection-0';
</script>
<script xlink:href="../../svgpan.js"/>
<svg id="graph" class="graph">
<g id="viewport">
<title>lib/Transform/Allocators/Simple/RandomMappingFinder.cpp</title>
<!-- Node0 -->
<g id="node1" class="node">
<title>Node0</title>
<polygon fill="#bfbfbf" stroke="#000000" points="1374,-626.5 1374,-656.5 1562,-656.5 1562,-626.5 1374,-626.5"/>
<text text-anchor="start" x="1382" y="-644.5" font-family="Helvetica,sans-Serif" font-size="10.00" fill="#000000">lib/Transform/Allocators</text>
<text text-anchor="middle" x="1468" y="-633.5" font-family="Helvetica,sans-Serif" font-size="10.00" fill="#000000">/Simple/RandomMappingFinder.cpp</text>
</g>
<!-- Node1 -->
<g id="node2" class="node">
<title>Node1</title>
<g id="a_node2"><a xlink:href="../../da/d43/RandomMappingFinder_8h.xhtml" target="_top" xlink:title="enfield/Transform/Allocators\l/Simple/RandomMappingFinder.h">
<polygon fill="none" stroke="#000000" points="1203.5,-559.5 1203.5,-589.5 1380.5,-589.5 1380.5,-559.5 1203.5,-559.5"/>
<text text-anchor="start" x="1211.5" y="-577.5" font-family="Helvetica,sans-Serif" font-size="10.00" fill="#000000">enfield/Transform/Allocators</text>
<text text-anchor="middle" x="1292" y="-566.5" font-family="Helvetica,sans-Serif" font-size="10.00" fill="#000000">/Simple/RandomMappingFinder.h</text>
</a>
</g>
</g>
<!-- Node0&#45;&gt;Node1 -->
<g id="edge1" class="edge">
<title>Node0&#45;&gt;Node1</title>
<path fill="none" stroke="#191970" d="M1428.5022,-626.4639C1402.6641,-616.6278 1368.7134,-603.7034 1341.1353,-593.2049"/>
<polygon fill="#191970" stroke="#191970" points="1342.2611,-589.8885 1331.6701,-589.6017 1339.7706,-596.4305 1342.2611,-589.8885"/>
</g>
<!-- Node29 -->
<g id="node30" class="node">
<title>Node29</title>
<polygon fill="none" stroke="#bfbfbf" points="1330,-112.5 1330,-131.5 1394,-131.5 1394,-112.5 1330,-112.5"/>
<text text-anchor="middle" x="1362" y="-119.5" font-family="Helvetica,sans-Serif" font-size="10.00" fill="#000000">algorithm</text>
</g>
<!-- Node0&#45;&gt;Node29 -->
<g id="edge66" class="edge">
<title>Node0&#45;&gt;Node29</title>
<path fill="none" stroke="#191970" d="M1457.1594,-626.3928C1450.4881,-616.4676 1442.2402,-602.9651 1437,-590 1422.9004,-555.1151 1418,-545.1265 1418,-507.5 1418,-507.5 1418,-507.5 1418,-239.5 1418,-200.9693 1393.1574,-161.64 1376.5649,-139.6688"/>
<polygon fill="#191970" stroke="#191970" points="1379.1848,-137.3376 1370.263,-131.6234 1373.6741,-141.6541 1379.1848,-137.3376"/>
</g>
<!-- Node37 -->
<g id="node38" class="node">
<title>Node37</title>
<polygon fill="none" stroke="#bfbfbf" points="1446,-565 1446,-584 1490,-584 1490,-565 1446,-565"/>
<text text-anchor="middle" x="1468" y="-572" font-family="Helvetica,sans-Serif" font-size="10.00" fill="#000000">ctime</text>
</g>
<!-- Node0&#45;&gt;Node37 -->
<g id="edge65" class="edge">
<title>Node0&#45;&gt;Node37</title>
<path fill="none" stroke="#191970" d="M1468,-626.2967C1468,-616.7699 1468,-604.3954 1468,-594.1306"/>
<polygon fill="#191970" stroke="#191970" points="1471.5001,-594.0549 1468,-584.055 1464.5001,-594.055 1471.5001,-594.0549"/>
</g>
<!-- Node38 -->
<g id="node39" class="node">
<title>Node38</title>
<polygon fill="none" stroke="#bfbfbf" points="1508,-565 1508,-584 1558,-584 1558,-565 1508,-565"/>
<text text-anchor="middle" x="1533" y="-572" font-family="Helvetica,sans-Serif" font-size="10.00" fill="#000000">chrono</text>
</g>
<!-- Node0&#45;&gt;Node38 -->
<g id="edge67" class="edge">
<title>Node0&#45;&gt;Node38</title>
<path fill="none" stroke="#191970" d="M1482.7495,-626.2967C1492.8768,-615.8578 1506.3212,-601.9997 1516.7552,-591.2446"/>
<polygon fill="#191970" stroke="#191970" points="1519.2792,-593.6695 1523.7303,-584.055 1514.255,-588.7953 1519.2792,-593.6695"/>
</g>
<!-- Node39 -->
<g id="node40" class="node">
<title>Node39</title>
<polygon fill="none" stroke="#bfbfbf" points="1576,-565 1576,-584 1630,-584 1630,-565 1576,-565"/>
<text text-anchor="middle" x="1603" y="-572" font-family="Helvetica,sans-Serif" font-size="10.00" fill="#000000">random</text>
</g>
<!-- Node0&#45;&gt;Node39 -->
<g id="edge68" class="edge">
<title>Node0&#45;&gt;Node39</title>
<path fill="none" stroke="#191970" d="M1498.2966,-626.4639C1521.152,-615.1209 1552.2829,-599.6707 1574.6494,-588.5703"/>
<polygon fill="#191970" stroke="#191970" points="1576.2473,-591.6847 1583.6488,-584.1039 1573.1353,-585.4144 1576.2473,-591.6847"/>
</g>
<!-- Node2 -->
<g id="node3" class="node">
<title>Node2</title>
<g id="a_node3"><a xlink:href="../../d1/d5d/SimpleQAllocator_8h.xhtml" target="_top" xlink:title="enfield/Transform/Allocators\l/SimpleQAllocator.h">
<polygon fill="none" stroke="#000000" points="1085.5,-492.5 1085.5,-522.5 1240.5,-522.5 1240.5,-492.5 1085.5,-492.5"/>
<text text-anchor="start" x="1093.5" y="-510.5" font-family="Helvetica,sans-Serif" font-size="10.00" fill="#000000">enfield/Transform/Allocators</text>
<text text-anchor="middle" x="1163" y="-499.5" font-family="Helvetica,sans-Serif" font-size="10.00" fill="#000000">/SimpleQAllocator.h</text>
</a>
</g>
</g>
<!-- Node1&#45;&gt;Node2 -->
<g id="edge2" class="edge">
<title>Node1&#45;&gt;Node2</title>
<path fill="none" stroke="#191970" d="M1263.0499,-559.4639C1244.8375,-550.0047 1221.1259,-537.6894 1201.3577,-527.4222"/>
<polygon fill="#191970" stroke="#191970" points="1202.7875,-524.2209 1192.2998,-522.7177 1199.561,-530.433 1202.7875,-524.2209"/>
</g>
<!-- Node34 -->
<g id="node35" class="node">
<title>Node34</title>
<g id="a_node35"><a xlink:href="../../d6/df7/WeightedGraph_8h.xhtml" target="_top" xlink:title="enfield/Support/Weighted\lGraph.h">
<polygon fill="none" stroke="#000000" points="1222,-224.5 1222,-254.5 1362,-254.5 1362,-224.5 1222,-224.5"/>
<text text-anchor="start" x="1230" y="-242.5" font-family="Helvetica,sans-Serif" font-size="10.00" fill="#000000">enfield/Support/Weighted</text>
<text text-anchor="middle" x="1292" y="-231.5" font-family="Helvetica,sans-Serif" font-size="10.00" fill="#000000">Graph.h</text>
</a>
</g>
</g>
<!-- Node1&#45;&gt;Node34 -->
<g id="edge59" class="edge">
<title>Node1&#45;&gt;Node34</title>
<path fill="none" stroke="#191970" d="M1292,-559.2271C1292,-534.3518 1292,-483.5382 1292,-440.5 1292,-440.5 1292,-440.5 1292,-373.5 1292,-335.6735 1292,-291.8406 1292,-264.8908"/>
<polygon fill="#191970" stroke="#191970" points="1295.5001,-264.7729 1292,-254.7729 1288.5001,-264.773 1295.5001,-264.7729"/>
</g>
<!-- Node3 -->
<g id="node4" class="node">
<title>Node3</title>
<g id="a_node4"><a xlink:href="../../d2/dc7/StdSolutionQAllocator_8h.xhtml" target="_top" xlink:title="enfield/Transform/Allocators\l/StdSolutionQAllocator.h">
<polygon fill="none" stroke="#000000" points="643.5,-425.5 643.5,-455.5 798.5,-455.5 798.5,-425.5 643.5,-425.5"/>
<text text-anchor="start" x="651.5" y="-443.5" font-family="Helvetica,sans-Serif" font-size="10.00" fill="#000000">enfield/Transform/Allocators</text>
<text text-anchor="middle" x="721" y="-432.5" font-family="Helvetica,sans-Serif" font-size="10.00" fill="#000000">/StdSolutionQAllocator.h</text>
</a>
</g>
</g>
<!-- Node2&#45;&gt;Node3 -->
<g id="edge3" class="edge">
<title>Node2&#45;&gt;Node3</title>
<path fill="none" stroke="#191970" d="M1085.2503,-495.7144C1007.9282,-483.9936 889.498,-466.0416 808.8244,-453.8127"/>
<polygon fill="#191970" stroke="#191970" points="809.0982,-450.3143 798.6865,-452.276 808.049,-457.2353 809.0982,-450.3143"/>
</g>
<!-- Node32 -->
<g id="node33" class="node">
<title>Node32</title>
<g id="a_node33"><a xlink:href="../../d0/d86/BitOptions_8h.xhtml" target="_top" xlink:title="enfield/Support/BitOptions.h">
<polygon fill="none" stroke="#000000" points="1086,-431 1086,-450 1240,-450 1240,-431 1086,-431"/>
<text text-anchor="middle" x="1163" y="-438" font-family="Helvetica,sans-Serif" font-size="10.00" fill="#000000">enfield/Support/BitOptions.h</text>
</a>
</g>
</g>
<!-- Node2&#45;&gt;Node32 -->
<g id="edge56" class="edge">
<title>Node2&#45;&gt;Node32</title>
<path fill="none" stroke="#191970" d="M1163,-492.2967C1163,-482.7699 1163,-470.3954 1163,-460.1306"/>
<polygon fill="#191970" stroke="#191970" points="1166.5001,-460.0549 1163,-450.055 1159.5001,-460.055 1166.5001,-460.0549"/>
</g>
<!-- Node4 -->
<g id="node5" class="node">
<title>Node4</title>
<g id="a_node5"><a xlink:href="../../dd/d3b/QbitAllocator_8h.xhtml" target="_top" xlink:title="enfield/Transform/Allocators\l/QbitAllocator.h">
<polygon fill="none" stroke="#000000" points="400.5,-358.5 400.5,-388.5 555.5,-388.5 555.5,-358.5 400.5,-358.5"/>
<text text-anchor="start" x="408.5" y="-376.5" font-family="Helvetica,sans-Serif" font-size="10.00" fill="#000000">enfield/Transform/Allocators</text>
<text text-anchor="middle" x="478" y="-365.5" font-family="Helvetica,sans-Serif" font-size="10.00" fill="#000000">/QbitAllocator.h</text>
</a>
</g>
</g>
<!-- Node3&#45;&gt;Node4 -->
<g id="edge4" class="edge">
<title>Node3&#45;&gt;Node4</title>
<path fill="none" stroke="#191970" d="M666.4661,-425.4639C629.8573,-415.3701 581.4527,-402.024 542.8658,-391.3848"/>
<polygon fill="#191970" stroke="#191970" points="543.3424,-387.8857 532.7718,-388.6017 541.4817,-394.6339 543.3424,-387.8857"/>
</g>
<!-- Node5 -->
<g id="node6" class="node">
<title>Node5</title>
<g id="a_node6"><a xlink:href="../../d7/d9d/ArchGraph_8h.xhtml" target="_top" xlink:title="enfield/Arch/ArchGraph.h">
<polygon fill="none" stroke="#000000" points="129,-230 129,-249 267,-249 267,-230 129,-230"/>
<text text-anchor="middle" x="198" y="-237" font-family="Helvetica,sans-Serif" font-size="10.00" fill="#000000">enfield/Arch/ArchGraph.h</text>
</a>
</g>
</g>
<!-- Node4&#45;&gt;Node5 -->
<g id="edge5" class="edge">
<title>Node4&#45;&gt;Node5</title>
<path fill="none" stroke="#191970" d="M446.4247,-358.389C391.7603,-332.2281 280.2706,-278.8724 227.2594,-253.5027"/>
<polygon fill="#191970" stroke="#191970" points="228.5996,-250.264 218.0684,-249.1042 225.5778,-256.5781 228.5996,-250.264"/>
</g>
<!-- Node17 -->
<g id="node18" class="node">
<title>Node17</title>
<g id="a_node18"><a xlink:href="../../d9/dcf/DependencyBuilderPass_8h.xhtml" target="_top" xlink:title="enfield/Transform/Dependency\lBuilderPass.h">
<polygon fill="none" stroke="#000000" points="394.5,-291.5 394.5,-321.5 561.5,-321.5 561.5,-291.5 394.5,-291.5"/>
<text text-anchor="start" x="402.5" y="-309.5" font-family="Helvetica,sans-Serif" font-size="10.00" fill="#000000">enfield/Transform/Dependency</text>
<text text-anchor="middle" x="478" y="-298.5" font-family="Helvetica,sans-Serif" font-size="10.00" fill="#000000">BuilderPass.h</text>
</a>
</g>
</g>
<!-- Node4&#45;&gt;Node17 -->
<g id="edge19" class="edge">
<title>Node4&#45;&gt;Node17</title>
<path fill="none" stroke="#191970" d="M478,-358.2967C478,-350.5013 478,-340.7991 478,-331.9064"/>
<polygon fill="#191970" stroke="#191970" points="481.5001,-331.6431 478,-321.6432 474.5001,-331.6432 481.5001,-331.6431"/>
</g>
<!-- Node22 -->
<g id="node23" class="node">
<title>Node22</title>
<g id="a_node23"><a xlink:href="../../d9/d41/CommandLine_8h.xhtml" target="_top" xlink:title="enfield/Support/CommandLine.h">
<polygon fill="none" stroke="#000000" points="853.5,-297 853.5,-316 1026.5,-316 1026.5,-297 853.5,-297"/>
<text text-anchor="middle" x="940" y="-304" font-family="Helvetica,sans-Serif" font-size="10.00" fill="#000000">enfield/Support/CommandLine.h</text>
</a>
</g>
</g>
<!-- Node4&#45;&gt;Node22 -->
<g id="edge39" class="edge">
<title>Node4&#45;&gt;Node22</title>
<path fill="none" stroke="#191970" d="M555.5888,-362.2479C641.5375,-349.7835 779.1989,-329.8196 864.3573,-317.4698"/>
<polygon fill="#191970" stroke="#191970" points="865.0811,-320.9016 874.4752,-316.0025 864.0764,-313.974 865.0811,-320.9016"/>
</g>
<!-- Node31 -->
<g id="node32" class="node">
<title>Node31</title>
<g id="a_node32"><a xlink:href="../../dc/d09/Stats_8h.xhtml" target="_top" xlink:title="enfield/Support/Stats.h">
<polygon fill="none" stroke="#000000" points="0,-112.5 0,-131.5 128,-131.5 128,-112.5 0,-112.5"/>
<text text-anchor="middle" x="64" y="-119.5" font-family="Helvetica,sans-Serif" font-size="10.00" fill="#000000">enfield/Support/Stats.h</text>
</a>
</g>
</g>
<!-- Node4&#45;&gt;Node31 -->
<g id="edge53" class="edge">
<title>Node4&#45;&gt;Node31</title>
<path fill="none" stroke="#191970" d="M403.988,-358.461C307.9984,-337.5593 147.8725,-297.4792 106,-255 75.2368,-223.791 66.979,-170.2392 64.781,-141.5317"/>
<polygon fill="#191970" stroke="#191970" points="68.2734,-141.2985 64.1875,-131.5233 61.2857,-141.7129 68.2734,-141.2985"/>
</g>
<!-- Node6 -->
<g id="node7" class="node">
<title>Node6</title>
<g id="a_node7"><a xlink:href="../../d7/d16/Graph_8h.xhtml" target="_top" xlink:title="enfield/Support/Graph.h">
<polygon fill="none" stroke="#000000" points="534,-168.5 534,-187.5 666,-187.5 666,-168.5 534,-168.5"/>
<text text-anchor="middle" x="600" y="-175.5" font-family="Helvetica,sans-Serif" font-size="10.00" fill="#000000">enfield/Support/Graph.h</text>
</a>
</g>
</g>
<!-- Node5&#45;&gt;Node6 -->
<g id="edge6" class="edge">
<title>Node5&#45;&gt;Node6</title>
<path fill="none" stroke="#191970" d="M260.3714,-229.9581C332.6594,-218.8991 451.5891,-200.7047 527.8125,-189.0436"/>
<polygon fill="#191970" stroke="#191970" points="528.4573,-192.4858 537.813,-187.5137 527.3987,-185.5663 528.4573,-192.4858"/>
</g>
<!-- Node11 -->
<g id="node12" class="node">
<title>Node11</title>
<g id="a_node12"><a xlink:href="../../d4/daf/Nodes_8h.xhtml" target="_top" xlink:title="enfield/Analysis/Nodes.h">
<polygon fill="none" stroke="#000000" points="151.5,-112.5 151.5,-131.5 288.5,-131.5 288.5,-112.5 151.5,-112.5"/>
<text text-anchor="middle" x="220" y="-119.5" font-family="Helvetica,sans-Serif" font-size="10.00" fill="#000000">enfield/Analysis/Nodes.h</text>
</a>
</g>
</g>
<!-- Node5&#45;&gt;Node11 -->
<g id="edge11" class="edge">
<title>Node5&#45;&gt;Node11</title>
<path fill="none" stroke="#191970" d="M187.5423,-229.7923C174.0661,-216.0466 153.5442,-190.1197 164,-168 170.0246,-155.2547 181.5032,-144.8542 192.5074,-137.1874"/>
<polygon fill="#191970" stroke="#191970" points="194.6121,-139.9948 201.1176,-131.6324 190.8172,-134.1127 194.6121,-139.9948"/>
</g>
<!-- Node7 -->
<g id="node8" class="node">
<title>Node7</title>
<polygon fill="none" stroke="#bfbfbf" points="672,-112.5 672,-131.5 704,-131.5 704,-112.5 672,-112.5"/>
<text text-anchor="middle" x="688" y="-119.5" font-family="Helvetica,sans-Serif" font-size="10.00" fill="#000000">set</text>
</g>
<!-- Node6&#45;&gt;Node7 -->
<g id="edge7" class="edge">
<title>Node6&#45;&gt;Node7</title>
<path fill="none" stroke="#191970" d="M615.3284,-168.2455C628.8303,-159.6534 648.7122,-147.0014 664.2686,-137.1018"/>
<polygon fill="#191970" stroke="#191970" points="666.2897,-139.9643 672.8472,-131.6427 662.5315,-134.0587 666.2897,-139.9643"/>
</g>
<!-- Node8 -->
<g id="node9" class="node">
<title>Node8</title>
<polygon fill="none" stroke="#bfbfbf" points="878.5,-56.5 878.5,-75.5 925.5,-75.5 925.5,-56.5 878.5,-56.5"/>
<text text-anchor="middle" x="902" y="-63.5" font-family="Helvetica,sans-Serif" font-size="10.00" fill="#000000">vector</text>
</g>
<!-- Node6&#45;&gt;Node8 -->
<g id="edge8" class="edge">
<title>Node6&#45;&gt;Node8</title>
<path fill="none" stroke="#191970" d="M606.4048,-168.1048C616.5261,-153.3404 637.6912,-125.8065 663,-112 698.0079,-92.9025 811.3197,-76.9597 868.4353,-69.9015"/>
<polygon fill="#191970" stroke="#191970" points="868.91,-73.3697 878.4145,-68.6883 868.0651,-66.4209 868.91,-73.3697"/>
</g>
<!-- Node9 -->
<g id="node10" class="node">
<title>Node9</title>
<polygon fill="none" stroke="#bfbfbf" points="309.5,-112.5 309.5,-131.5 402.5,-131.5 402.5,-112.5 309.5,-112.5"/>
<text text-anchor="middle" x="356" y="-119.5" font-family="Helvetica,sans-Serif" font-size="10.00" fill="#000000">unordered_map</text>
</g>
<!-- Node6&#45;&gt;Node9 -->
<g id="edge9" class="edge">
<title>Node6&#45;&gt;Node9</title>
<path fill="none" stroke="#191970" d="M558.3321,-168.4369C516.5734,-158.8529 452.2109,-144.0812 407.3272,-133.78"/>
<polygon fill="#191970" stroke="#191970" points="408.0255,-130.3494 397.496,-131.5237 406.4596,-137.172 408.0255,-130.3494"/>
</g>
<!-- Node10 -->
<g id="node11" class="node">
<title>Node10</title>
<polygon fill="none" stroke="#bfbfbf" points="536,-56.5 536,-75.5 594,-75.5 594,-56.5 536,-56.5"/>
<text text-anchor="middle" x="565" y="-63.5" font-family="Helvetica,sans-Serif" font-size="10.00" fill="#000000">memory</text>
</g>
<!-- Node6&#45;&gt;Node10 -->
<g id="edge10" class="edge">
<title>Node6&#45;&gt;Node10</title>
<path fill="none" stroke="#191970" d="M597.0159,-168.4509C591.2817,-150.1013 578.6221,-109.5908 571.0529,-85.3693"/>
<polygon fill="#191970" stroke="#191970" points="574.3,-84.0257 567.9765,-75.5249 567.6187,-86.1137 574.3,-84.0257"/>
</g>
<!-- Node11&#45;&gt;Node8 -->
<g id="edge17" class="edge">
<title>Node11&#45;&gt;Node8</title>
<path fill="none" stroke="#191970" d="M288.9108,-113.2716C292.9991,-112.8224 297.0523,-112.3945 301,-112 516.8468,-90.4275 777.195,-73.6301 868.4509,-68.0192"/>
<polygon fill="#191970" stroke="#191970" points="868.7143,-71.5097 878.482,-67.4057 868.2869,-64.5228 868.7143,-71.5097"/>
</g>
<!-- Node11&#45;&gt;Node10 -->
<g id="edge18" class="edge">
<title>Node11&#45;&gt;Node10</title>
<path fill="none" stroke="#191970" d="M288.5108,-112.6189C360.1924,-102.6558 469.0327,-87.0758 525.669,-76.0693"/>
<polygon fill="#191970" stroke="#191970" points="526.5019,-79.4719 535.616,-74.0697 525.1223,-72.6092 526.5019,-79.4719"/>
</g>
<!-- Node12 -->
<g id="node13" class="node">
<title>Node12</title>
<g id="a_node13"><a xlink:href="../../d1/d2e/WrapperVal_8h.xhtml" target="_top" xlink:title="enfield/Support/WrapperVal.h">
<polygon fill="none" stroke="#000000" points="214,-56.5 214,-75.5 374,-75.5 374,-56.5 214,-56.5"/>
<text text-anchor="middle" x="294" y="-63.5" font-family="Helvetica,sans-Serif" font-size="10.00" fill="#000000">enfield/Support/WrapperVal.h</text>
</a>
</g>
</g>
<!-- Node11&#45;&gt;Node12 -->
<g id="edge12" class="edge">
<title>Node11&#45;&gt;Node12</title>
<path fill="none" stroke="#191970" d="M232.8898,-112.2455C243.9254,-103.8943 260.0292,-91.7076 272.9353,-81.9408"/>
<polygon fill="#191970" stroke="#191970" points="275.3959,-84.4681 281.2579,-75.6427 271.1717,-78.8862 275.3959,-84.4681"/>
</g>
<!-- Node14 -->
<g id="node15" class="node">
<title>Node14</title>
<g id="a_node15"><a xlink:href="../../d5/dfc/RTTI_8h.xhtml" target="_top" xlink:title="enfield/Support/RTTI.h">
<polygon fill="none" stroke="#000000" points="392.5,-56.5 392.5,-75.5 517.5,-75.5 517.5,-56.5 392.5,-56.5"/>
<text text-anchor="middle" x="455" y="-63.5" font-family="Helvetica,sans-Serif" font-size="10.00" fill="#000000">enfield/Support/RTTI.h</text>
</a>
</g>
</g>
<!-- Node11&#45;&gt;Node14 -->
<g id="edge14" class="edge">
<title>Node11&#45;&gt;Node14</title>
<path fill="none" stroke="#191970" d="M260.1309,-112.4369C300.2649,-102.8731 362.0775,-88.1432 405.2933,-77.845"/>
<polygon fill="#191970" stroke="#191970" points="406.1183,-81.2465 415.0346,-75.5237 404.4956,-74.4372 406.1183,-81.2465"/>
</g>
<!-- Node15 -->
<g id="node16" class="node">
<title>Node15</title>
<polygon fill="none" stroke="#bfbfbf" points="112.5,-56.5 112.5,-75.5 195.5,-75.5 195.5,-56.5 112.5,-56.5"/>
<text text-anchor="middle" x="154" y="-63.5" font-family="Helvetica,sans-Serif" font-size="10.00" fill="#000000">initializer_list</text>
</g>
<!-- Node11&#45;&gt;Node15 -->
<g id="edge15" class="edge">
<title>Node11&#45;&gt;Node15</title>
<path fill="none" stroke="#191970" d="M208.5037,-112.2455C198.7558,-103.9746 184.5741,-91.9416 173.1202,-82.2232"/>
<polygon fill="#191970" stroke="#191970" points="175.2541,-79.4437 165.3646,-75.6427 170.7253,-84.7813 175.2541,-79.4437"/>
</g>
<!-- Node16 -->
<g id="node17" class="node">
<title>Node16</title>
<polygon fill="none" stroke="#bfbfbf" points="34,-56.5 34,-75.5 94,-75.5 94,-56.5 34,-56.5"/>
<text text-anchor="middle" x="64" y="-63.5" font-family="Helvetica,sans-Serif" font-size="10.00" fill="#000000">iostream</text>
</g>
<!-- Node11&#45;&gt;Node16 -->
<g id="edge16" class="edge">
<title>Node11&#45;&gt;Node16</title>
<path fill="none" stroke="#191970" d="M193.1826,-112.3733C167.4668,-103.1419 128.462,-89.1402 100.0401,-78.9375"/>
<polygon fill="#191970" stroke="#191970" points="101.0619,-75.5857 90.4674,-75.5011 98.6968,-82.174 101.0619,-75.5857"/>
</g>
<!-- Node13 -->
<g id="node14" class="node">
<title>Node13</title>
<polygon fill="none" stroke="#bfbfbf" points="633,-.5 633,-19.5 677,-19.5 677,-.5 633,-.5"/>
<text text-anchor="middle" x="655" y="-7.5" font-family="Helvetica,sans-Serif" font-size="10.00" fill="#000000">string</text>
</g>
<!-- Node12&#45;&gt;Node13 -->
<g id="edge13" class="edge">
<title>Node12&#45;&gt;Node13</title>
<path fill="none" stroke="#191970" d="M355.6479,-56.4369C432.9667,-44.4428 562.6626,-24.3238 622.7008,-15.0104"/>
<polygon fill="#191970" stroke="#191970" points="623.3901,-18.4454 632.7354,-13.4538 622.317,-11.5282 623.3901,-18.4454"/>
</g>
<!-- Node17&#45;&gt;Node7 -->
<g id="edge38" class="edge">
<title>Node17&#45;&gt;Node7</title>
<path fill="none" stroke="#191970" d="M548.2435,-291.4274C635.8282,-271.0054 777.6502,-232.0037 807,-188 831.6006,-151.1167 756.1853,-132.8418 714.1701,-125.7134"/>
<polygon fill="#191970" stroke="#191970" points="714.4714,-122.2174 704.0452,-124.1004 713.37,-129.1302 714.4714,-122.2174"/>
</g>
<!-- Node17&#45;&gt;Node8 -->
<g id="edge37" class="edge">
<title>Node17&#45;&gt;Node8</title>
<path fill="none" stroke="#191970" d="M561.5753,-299.205C613.0492,-292.432 679.4056,-279.5055 734,-255 779.1695,-234.725 789.2486,-224.2243 823,-188 853.2368,-155.5477 879.1968,-110.141 892.4971,-84.8708"/>
<polygon fill="#191970" stroke="#191970" points="895.7753,-86.1505 897.2517,-75.6591 889.555,-82.9399 895.7753,-86.1505"/>
</g>
<!-- Node17&#45;&gt;Node9 -->
<g id="edge35" class="edge">
<title>Node17&#45;&gt;Node9</title>
<path fill="none" stroke="#191970" d="M422.3066,-291.4092C393.621,-282.6127 358.5572,-270.2383 329,-255 317.5999,-249.1226 240.8747,-199.4015 235,-188 230.9286,-180.0983 229.9535,-175.3174 235,-168 243.7408,-155.326 277.7848,-143.042 307.5436,-134.3609"/>
<polygon fill="#191970" stroke="#191970" points="308.7618,-137.6536 317.4287,-131.5596 306.8533,-130.9188 308.7618,-137.6536"/>
</g>
<!-- Node17&#45;&gt;Node11 -->
<g id="edge20" class="edge">
<title>Node17&#45;&gt;Node11</title>
<path fill="none" stroke="#191970" d="M394.2445,-300.1692C294.1155,-291.734 137.7324,-275.4658 120,-255 84.6361,-214.1848 154.243,-162.0584 194.3726,-136.9043"/>
<polygon fill="#191970" stroke="#191970" points="196.4458,-139.7391 203.1501,-131.5353 192.7931,-133.7676 196.4458,-139.7391"/>
</g>
<!-- Node18 -->
<g id="node19" class="node">
<title>Node18</title>
<g id="a_node19"><a xlink:href="../../df/d29/Pass_8h.xhtml" target="_top" xlink:title="enfield/Transform/Pass.h">
<polygon fill="none" stroke="#000000" points="422,-112.5 422,-131.5 560,-131.5 560,-112.5 422,-112.5"/>
<text text-anchor="middle" x="491" y="-119.5" font-family="Helvetica,sans-Serif" font-size="10.00" fill="#000000">enfield/Transform/Pass.h</text>
</a>
</g>
</g>
<!-- Node17&#45;&gt;Node18 -->
<g id="edge21" class="edge">
<title>Node17&#45;&gt;Node18</title>
<path fill="none" stroke="#191970" d="M489.7909,-291.2379C496.5746,-281.4664 504.4394,-268.1862 508,-255 518.6727,-215.4752 506.6571,-167.4844 498.0901,-141.3152"/>
<polygon fill="#191970" stroke="#191970" points="501.2807,-139.8321 494.7059,-131.5241 494.6648,-142.1189 501.2807,-139.8321"/>
</g>
<!-- Node19 -->
<g id="node20" class="node">
<title>Node19</title>
<g id="a_node20"><a xlink:href="../../d4/d73/QModule_8h.xhtml" target="_top" xlink:title="enfield/Transform/QModule.h">
<polygon fill="none" stroke="#000000" points="244,-168.5 244,-187.5 402,-187.5 402,-168.5 244,-168.5"/>
<text text-anchor="middle" x="323" y="-175.5" font-family="Helvetica,sans-Serif" font-size="10.00" fill="#000000">enfield/Transform/QModule.h</text>
</a>
</g>
</g>
<!-- Node17&#45;&gt;Node19 -->
<g id="edge23" class="edge">
<title>Node17&#45;&gt;Node19</title>
<path fill="none" stroke="#191970" d="M413.338,-291.4247C391.5348,-283.6205 368.5585,-272.0256 352,-255 336.7225,-239.2915 329.3413,-214.7612 325.8788,-197.6215"/>
<polygon fill="#191970" stroke="#191970" points="329.2954,-196.8405 324.1257,-187.5926 322.4,-198.0459 329.2954,-196.8405"/>
</g>
<!-- Node20 -->
<g id="node21" class="node">
<title>Node20</title>
<g id="a_node21"><a xlink:href="../../d6/d94/XbitToNumberPass_8h.xhtml" target="_top" xlink:title="enfield/Transform/XbitTo\lNumberPass.h">
<polygon fill="none" stroke="#000000" points="361,-224.5 361,-254.5 499,-254.5 499,-224.5 361,-224.5"/>
<text text-anchor="start" x="369" y="-242.5" font-family="Helvetica,sans-Serif" font-size="10.00" fill="#000000">enfield/Transform/XbitTo</text>
<text text-anchor="middle" x="430" y="-231.5" font-family="Helvetica,sans-Serif" font-size="10.00" fill="#000000">NumberPass.h</text>
</a>
</g>
</g>
<!-- Node17&#45;&gt;Node20 -->
<g id="edge27" class="edge">
<title>Node17&#45;&gt;Node20</title>
<path fill="none" stroke="#191970" d="M467.1081,-291.2967C461.0937,-282.9016 453.4951,-272.2952 446.7426,-262.8698"/>
<polygon fill="#191970" stroke="#191970" points="449.5179,-260.734 440.8488,-254.6432 443.8275,-264.8107 449.5179,-260.734"/>
</g>
<!-- Node21 -->
<g id="node22" class="node">
<title>Node21</title>
<polygon fill="none" stroke="#bfbfbf" points="760,-168.5 760,-187.5 798,-187.5 798,-168.5 760,-168.5"/>
<text text-anchor="middle" x="779" y="-175.5" font-family="Helvetica,sans-Serif" font-size="10.00" fill="#000000">map</text>
</g>
<!-- Node17&#45;&gt;Node21 -->
<g id="edge36" class="edge">
<title>Node17&#45;&gt;Node21</title>
<path fill="none" stroke="#191970" d="M513.4136,-291.3816C573.6886,-265.6496 695.0528,-213.8379 750.3618,-190.226"/>
<polygon fill="#191970" stroke="#191970" points="752.0681,-193.3032 759.8909,-186.1579 749.3197,-186.8653 752.0681,-193.3032"/>
</g>
<!-- Node18&#45;&gt;Node10 -->
<g id="edge22" class="edge">
<title>Node18&#45;&gt;Node10</title>
<path fill="none" stroke="#191970" d="M503.8898,-112.2455C514.9254,-103.8943 531.0292,-91.7076 543.9353,-81.9408"/>
<polygon fill="#191970" stroke="#191970" points="546.3959,-84.4681 552.2579,-75.6427 542.1717,-78.8862 546.3959,-84.4681"/>
</g>
<!-- Node19&#45;&gt;Node9 -->
<g id="edge26" class="edge">
<title>Node19&#45;&gt;Node9</title>
<path fill="none" stroke="#191970" d="M328.7482,-168.2455C333.2435,-160.617 339.6248,-149.7881 345.0825,-140.5267"/>
<polygon fill="#191970" stroke="#191970" points="348.2561,-142.035 350.3177,-131.6427 342.2253,-138.4811 348.2561,-142.035"/>
</g>
<!-- Node19&#45;&gt;Node11 -->
<g id="edge24" class="edge">
<title>Node19&#45;&gt;Node11</title>
<path fill="none" stroke="#191970" d="M305.0588,-168.2455C288.96,-159.4928 265.1121,-146.527 246.7609,-136.5496"/>
<polygon fill="#191970" stroke="#191970" points="248.1929,-133.3444 237.7356,-131.6427 244.8493,-139.4942 248.1929,-133.3444"/>
</g>
<!-- Node19&#45;&gt;Node18 -->
<g id="edge25" class="edge">
<title>Node19&#45;&gt;Node18</title>
<path fill="none" stroke="#191970" d="M351.8802,-168.3733C379.8161,-159.0613 422.3142,-144.8953 452.9869,-134.671"/>
<polygon fill="#191970" stroke="#191970" points="454.1166,-137.9839 462.4966,-131.5011 451.903,-131.3431 454.1166,-137.9839"/>
</g>
<!-- Node20&#45;&gt;Node7 -->
<g id="edge33" class="edge">
<title>Node20&#45;&gt;Node7</title>
<path fill="none" stroke="#191970" d="M499.013,-233.4456C562.6483,-226.4121 650.7986,-212.5109 675,-188 686.9003,-175.9475 689.4893,-156.3682 689.4977,-141.6587"/>
<polygon fill="#191970" stroke="#191970" points="692.9914,-141.4241 689.1127,-131.5648 685.9965,-141.6909 692.9914,-141.4241"/>
</g>
<!-- Node20&#45;&gt;Node8 -->
<g id="edge32" class="edge">
<title>Node20&#45;&gt;Node8</title>
<path fill="none" stroke="#191970" d="M499.0179,-232.504C553.3299,-225.4761 630.2299,-212.1168 694,-188 767.28,-160.2867 844.5746,-107.896 880.8544,-81.7168"/>
<polygon fill="#191970" stroke="#191970" points="883.1481,-84.3759 889.1669,-75.6567 879.0244,-78.7195 883.1481,-84.3759"/>
</g>
<!-- Node20&#45;&gt;Node9 -->
<g id="edge31" class="edge">
<title>Node20&#45;&gt;Node9</title>
<path fill="none" stroke="#191970" d="M428.681,-224.4751C426.7582,-209.2258 422.1067,-185.4429 411,-168 403.2449,-155.8207 391.2261,-145.2346 380.3995,-137.2983"/>
<polygon fill="#191970" stroke="#191970" points="382.2875,-134.3483 372.0766,-131.5218 378.2962,-140.0989 382.2875,-134.3483"/>
</g>
<!-- Node20&#45;&gt;Node11 -->
<g id="edge30" class="edge">
<title>Node20&#45;&gt;Node11</title>
<path fill="none" stroke="#191970" d="M360.9968,-229.0114C312.2311,-220.2105 252.5449,-206.165 235,-188 223.1606,-175.7421 219.9216,-156.1901 219.3382,-141.5429"/>
<polygon fill="#191970" stroke="#191970" points="222.8381,-141.4907 219.3112,-131.5001 215.8381,-141.5095 222.8381,-141.4907"/>
</g>
<!-- Node20&#45;&gt;Node18 -->
<g id="edge28" class="edge">
<title>Node20&#45;&gt;Node18</title>
<path fill="none" stroke="#191970" d="M437.9747,-224.1389C449.1148,-202.6806 469.3132,-163.7738 481.3074,-140.6702"/>
<polygon fill="#191970" stroke="#191970" points="484.5359,-142.0474 486.0372,-131.5595 478.3232,-138.8221 484.5359,-142.0474"/>
</g>
<!-- Node20&#45;&gt;Node19 -->
<g id="edge29" class="edge">
<title>Node20&#45;&gt;Node19</title>
<path fill="none" stroke="#191970" d="M403.8249,-224.4554C386.9113,-214.734 365.0171,-202.15 348.2828,-192.5317"/>
<polygon fill="#191970" stroke="#191970" points="349.9953,-189.4791 339.5812,-187.5303 346.507,-195.548 349.9953,-189.4791"/>
</g>
<!-- Node20&#45;&gt;Node21 -->
<g id="edge34" class="edge">
<title>Node20&#45;&gt;Node21</title>
<path fill="none" stroke="#191970" d="M499.2462,-230.9078C563.615,-222.2863 661.9357,-207.4965 746,-188 747.2793,-187.7033 748.5817,-187.384 749.8938,-187.0482"/>
<polygon fill="#191970" stroke="#191970" points="751.2295,-190.3093 759.9211,-184.2506 749.3483,-183.5668 751.2295,-190.3093"/>
</g>
<!-- Node22&#45;&gt;Node8 -->
<g id="edge51" class="edge">
<title>Node22&#45;&gt;Node8</title>
<path fill="none" stroke="#191970" d="M939.3904,-296.6871C937.4801,-267.9992 930.8319,-181.8929 916,-112 914.1204,-103.1425 911.3202,-93.5327 908.717,-85.3983"/>
<polygon fill="#191970" stroke="#191970" points="911.9819,-84.1246 905.5023,-75.7421 905.3402,-86.3357 911.9819,-84.1246"/>
</g>
<!-- Node22&#45;&gt;Node10 -->
<g id="edge52" class="edge">
<title>Node22&#45;&gt;Node10</title>
<path fill="none" stroke="#191970" d="M933.941,-296.9714C918.1763,-272.7811 873.5726,-208.0763 823,-168 755.9737,-114.8849 657.8118,-86.3815 603.9476,-73.9006"/>
<polygon fill="#191970" stroke="#191970" points="604.6298,-70.4667 594.1053,-71.6848 603.0924,-77.2958 604.6298,-70.4667"/>
</g>
<!-- Node22&#45;&gt;Node13 -->
<g id="edge50" class="edge">
<title>Node22&#45;&gt;Node13</title>
<path fill="none" stroke="#191970" d="M943.6615,-296.965C957.0864,-260.2187 999.5629,-126.3406 935,-56 918.3653,-37.8767 757.2245,-20.0302 687.209,-13.062"/>
<polygon fill="#191970" stroke="#191970" points="687.473,-9.5712 677.1786,-12.0763 686.7884,-16.5376 687.473,-9.5712"/>
</g>
<!-- Node23 -->
<g id="node24" class="node">
<title>Node23</title>
<g id="a_node24"><a xlink:href="../../d1/d5e/PossibleValuesListTrait_8h.xhtml" target="_top" xlink:title="enfield/Support/Possible\lValuesListTrait.h">
<polygon fill="none" stroke="#000000" points="1013,-224.5 1013,-254.5 1147,-254.5 1147,-224.5 1013,-224.5"/>
<text text-anchor="start" x="1021" y="-242.5" font-family="Helvetica,sans-Serif" font-size="10.00" fill="#000000">enfield/Support/Possible</text>
<text text-anchor="middle" x="1080" y="-231.5" font-family="Helvetica,sans-Serif" font-size="10.00" fill="#000000">ValuesListTrait.h</text>
</a>
</g>
</g>
<!-- Node22&#45;&gt;Node23 -->
<g id="edge40" class="edge">
<title>Node22&#45;&gt;Node23</title>
<path fill="none" stroke="#191970" d="M960.0586,-296.9005C980.6641,-287.0393 1013.3165,-271.4128 1039.3528,-258.9526"/>
<polygon fill="#191970" stroke="#191970" points="1041.1019,-261.9957 1048.6112,-254.5218 1038.0801,-255.6816 1041.1019,-261.9957"/>
</g>
<!-- Node24 -->
<g id="node25" class="node">
<title>Node24</title>
<g id="a_node25"><a xlink:href="../../dd/d62/EnumString_8h.xhtml" target="_top" xlink:title="enfield/Support/EnumString.h">
<polygon fill="none" stroke="#000000" points="1006.5,-168.5 1006.5,-187.5 1165.5,-187.5 1165.5,-168.5 1006.5,-168.5"/>
<text text-anchor="middle" x="1086" y="-175.5" font-family="Helvetica,sans-Serif" font-size="10.00" fill="#000000">enfield/Support/EnumString.h</text>
</a>
</g>
</g>
<!-- Node23&#45;&gt;Node24 -->
<g id="edge41" class="edge">
<title>Node23&#45;&gt;Node24</title>
<path fill="none" stroke="#191970" d="M1081.4831,-224.2977C1082.2553,-216.3834 1083.2093,-206.6043 1084.0414,-198.0759"/>
<polygon fill="#191970" stroke="#191970" points="1087.5517,-198.1396 1085.0393,-187.8469 1080.5848,-197.4598 1087.5517,-198.1396"/>
</g>
<!-- Node24&#45;&gt;Node8 -->
<g id="edge47" class="edge">
<title>Node24&#45;&gt;Node8</title>
<path fill="none" stroke="#191970" d="M1070.3123,-168.4509C1038.2653,-148.9441 965.0746,-104.3932 926.6279,-80.9909"/>
<polygon fill="#191970" stroke="#191970" points="928.0099,-77.7347 917.648,-75.5249 924.3702,-83.7141 928.0099,-77.7347"/>
</g>
<!-- Node25 -->
<g id="node26" class="node">
<title>Node25</title>
<g id="a_node26"><a xlink:href="../../d1/d73/Defs_8h.xhtml" target="_top" xlink:title="enfield/Support/Defs.h">
<polygon fill="none" stroke="#000000" points="1131.5,-112.5 1131.5,-131.5 1256.5,-131.5 1256.5,-112.5 1131.5,-112.5"/>
<text text-anchor="middle" x="1194" y="-119.5" font-family="Helvetica,sans-Serif" font-size="10.00" fill="#000000">enfield/Support/Defs.h</text>
</a>
</g>
</g>
<!-- Node24&#45;&gt;Node25 -->
<g id="edge42" class="edge">
<title>Node24&#45;&gt;Node25</title>
<path fill="none" stroke="#191970" d="M1104.8122,-168.2455C1121.8473,-159.4125 1147.1575,-146.2887 1166.4681,-136.2758"/>
<polygon fill="#191970" stroke="#191970" points="1168.137,-139.353 1175.4034,-131.6427 1164.9147,-133.1388 1168.137,-139.353"/>
</g>
<!-- Node24&#45;&gt;Node29 -->
<g id="edge48" class="edge">
<title>Node24&#45;&gt;Node29</title>
<path fill="none" stroke="#191970" d="M1133.1325,-168.4369C1185.5628,-157.7989 1269.4947,-140.7692 1319.8299,-130.5563"/>
<polygon fill="#191970" stroke="#191970" points="1320.6292,-133.9655 1329.7335,-128.5468 1319.2372,-127.1053 1320.6292,-133.9655"/>
</g>
<!-- Node30 -->
<g id="node31" class="node">
<title>Node30</title>
<polygon fill="none" stroke="#bfbfbf" points="1056.5,-112.5 1056.5,-131.5 1113.5,-131.5 1113.5,-112.5 1056.5,-112.5"/>
<text text-anchor="middle" x="1085" y="-119.5" font-family="Helvetica,sans-Serif" font-size="10.00" fill="#000000">typeinfo</text>
</g>
<!-- Node24&#45;&gt;Node30 -->
<g id="edge49" class="edge">
<title>Node24&#45;&gt;Node30</title>
<path fill="none" stroke="#191970" d="M1085.8258,-168.2455C1085.6953,-160.9382 1085.5124,-150.6944 1085.3519,-141.7046"/>
<polygon fill="#191970" stroke="#191970" points="1088.8503,-141.5786 1085.1722,-131.6427 1081.8514,-141.7036 1088.8503,-141.5786"/>
</g>
<!-- Node25&#45;&gt;Node8 -->
<g id="edge43" class="edge">
<title>Node25&#45;&gt;Node8</title>
<path fill="none" stroke="#191970" d="M1144.1352,-112.4369C1084.5509,-101.0098 986.5112,-82.2076 935.3793,-72.4015"/>
<polygon fill="#191970" stroke="#191970" points="935.9875,-68.9544 925.5072,-70.5082 934.669,-75.8292 935.9875,-68.9544"/>
</g>
<!-- Node26 -->
<g id="node27" class="node">
<title>Node26</title>
<polygon fill="none" stroke="#bfbfbf" points="1241,-56.5 1241,-75.5 1291,-75.5 1291,-56.5 1241,-56.5"/>
<text text-anchor="middle" x="1266" y="-63.5" font-family="Helvetica,sans-Serif" font-size="10.00" fill="#000000">cstdint</text>
</g>
<!-- Node25&#45;&gt;Node26 -->
<g id="edge44" class="edge">
<title>Node25&#45;&gt;Node26</title>
<path fill="none" stroke="#191970" d="M1206.5414,-112.2455C1217.2787,-103.8943 1232.9473,-91.7076 1245.5047,-81.9408"/>
<polygon fill="#191970" stroke="#191970" points="1247.8575,-84.5449 1253.6023,-75.6427 1243.5599,-79.0194 1247.8575,-84.5449"/>
</g>
<!-- Node27 -->
<g id="node28" class="node">
<title>Node27</title>
<polygon fill="none" stroke="#bfbfbf" points="1103,-56.5 1103,-75.5 1147,-75.5 1147,-56.5 1103,-56.5"/>
<text text-anchor="middle" x="1125" y="-63.5" font-family="Helvetica,sans-Serif" font-size="10.00" fill="#000000">limits</text>
</g>
<!-- Node25&#45;&gt;Node27 -->
<g id="edge45" class="edge">
<title>Node25&#45;&gt;Node27</title>
<path fill="none" stroke="#191970" d="M1181.9811,-112.2455C1171.7902,-103.9746 1156.9638,-91.9416 1144.9893,-82.2232"/>
<polygon fill="#191970" stroke="#191970" points="1146.8514,-79.2268 1136.8812,-75.6427 1142.4402,-84.662 1146.8514,-79.2268"/>
</g>
<!-- Node28 -->
<g id="node29" class="node">
<title>Node28</title>
<polygon fill="none" stroke="#bfbfbf" points="1165.5,-56.5 1165.5,-75.5 1222.5,-75.5 1222.5,-56.5 1165.5,-56.5"/>
<text text-anchor="middle" x="1194" y="-63.5" font-family="Helvetica,sans-Serif" font-size="10.00" fill="#000000">ostream</text>
</g>
<!-- Node25&#45;&gt;Node28 -->
<g id="edge46" class="edge">
<title>Node25&#45;&gt;Node28</title>
<path fill="none" stroke="#191970" d="M1194,-112.2455C1194,-104.9382 1194,-94.6944 1194,-85.7046"/>
<polygon fill="#191970" stroke="#191970" points="1197.5001,-85.6426 1194,-75.6427 1190.5001,-85.6427 1197.5001,-85.6426"/>
</g>
<!-- Node31&#45;&gt;Node10 -->
<g id="edge55" class="edge">
<title>Node31&#45;&gt;Node10</title>
<path fill="none" stroke="#191970" d="M128.2207,-113.694C133.2193,-113.1015 138.1904,-112.5297 143,-112 310.1401,-93.5917 356.4621,-105.4409 525.6531,-75.9948"/>
<polygon fill="#191970" stroke="#191970" points="526.4068,-79.416 535.6472,-74.2327 525.1913,-72.5223 526.4068,-79.416"/>
</g>
<!-- Node31&#45;&gt;Node16 -->
<g id="edge54" class="edge">
<title>Node31&#45;&gt;Node16</title>
<path fill="none" stroke="#191970" d="M64,-112.2455C64,-104.9382 64,-94.6944 64,-85.7046"/>
<polygon fill="#191970" stroke="#191970" points="67.5001,-85.6426 64,-75.6427 60.5001,-85.6427 67.5001,-85.6426"/>
</g>
<!-- Node32&#45;&gt;Node25 -->
<g id="edge57" class="edge">
<title>Node32&#45;&gt;Node25</title>
<path fill="none" stroke="#191970" d="M1166.8012,-430.9247C1175.0791,-409.1806 1194,-354.2566 1194,-306.5 1194,-306.5 1194,-306.5 1194,-239.5 1194,-205.1399 1194,-165.128 1194,-141.7764"/>
<polygon fill="#191970" stroke="#191970" points="1197.5001,-141.7489 1194,-131.7489 1190.5001,-141.749 1197.5001,-141.7489"/>
</g>
<!-- Node33 -->
<g id="node34" class="node">
<title>Node33</title>
<polygon fill="none" stroke="#bfbfbf" points="1116,-364 1116,-383 1166,-383 1166,-364 1116,-364"/>
<text text-anchor="middle" x="1141" y="-371" font-family="Helvetica,sans-Serif" font-size="10.00" fill="#000000">cstring</text>
</g>
<!-- Node32&#45;&gt;Node33 -->
<g id="edge58" class="edge">
<title>Node32&#45;&gt;Node33</title>
<path fill="none" stroke="#191970" d="M1159.8479,-430.9005C1156.5806,-420.95 1151.3857,-405.1292 1147.2765,-392.6147"/>
<polygon fill="#191970" stroke="#191970" points="1150.5913,-391.4907 1144.1462,-383.0817 1143.9407,-393.6745 1150.5913,-391.4907"/>
</g>
<!-- Node34&#45;&gt;Node6 -->
<g id="edge60" class="edge">
<title>Node34&#45;&gt;Node6</title>
<path fill="none" stroke="#191970" d="M1221.808,-231.0804C1200.67,-228.6582 1177.4032,-226.1045 1156,-224 984.8803,-207.1741 783.7208,-191.5638 676.4708,-183.5744"/>
<polygon fill="#191970" stroke="#191970" points="676.621,-180.076 666.3891,-182.8252 676.1022,-187.0568 676.621,-180.076"/>
</g>
<!-- Node34&#45;&gt;Node21 -->
<g id="edge62" class="edge">
<title>Node34&#45;&gt;Node21</title>
<path fill="none" stroke="#191970" d="M1221.7452,-231.0776C1108.0013,-217.4417 888.244,-191.0965 808.6752,-181.5575"/>
<polygon fill="#191970" stroke="#191970" points="808.7492,-178.0414 798.4037,-180.3262 807.916,-184.9917 808.7492,-178.0414"/>
</g>
<!-- Node34&#45;&gt;Node25 -->
<g id="edge61" class="edge">
<title>Node34&#45;&gt;Node25</title>
<path fill="none" stroke="#191970" d="M1324.2885,-224.2867C1349.224,-210.4341 1376.9942,-188.9955 1361,-168 1353.9966,-158.8067 1295.1893,-144.068 1249.3169,-133.7584"/>
<polygon fill="#191970" stroke="#191970" points="1249.9751,-130.3193 1239.4537,-131.5644 1248.4552,-137.1523 1249.9751,-130.3193"/>
</g>
<!-- Node35 -->
<g id="node36" class="node">
<title>Node35</title>
<polygon fill="none" stroke="#bfbfbf" points="1222.5,-168.5 1222.5,-187.5 1277.5,-187.5 1277.5,-168.5 1222.5,-168.5"/>
<text text-anchor="middle" x="1250" y="-175.5" font-family="Helvetica,sans-Serif" font-size="10.00" fill="#000000">fstream</text>
</g>
<!-- Node34&#45;&gt;Node35 -->
<g id="edge63" class="edge">
<title>Node34&#45;&gt;Node35</title>
<path fill="none" stroke="#191970" d="M1281.618,-224.2977C1275.8487,-215.8498 1268.6284,-205.2773 1262.5447,-196.369"/>
<polygon fill="#191970" stroke="#191970" points="1265.2547,-194.1311 1256.7247,-187.8469 1259.4741,-198.0788 1265.2547,-194.1311"/>
</g>
<!-- Node36 -->
<g id="node37" class="node">
<title>Node36</title>
<polygon fill="none" stroke="#bfbfbf" points="1296,-168.5 1296,-187.5 1352,-187.5 1352,-168.5 1296,-168.5"/>
<text text-anchor="middle" x="1324" y="-175.5" font-family="Helvetica,sans-Serif" font-size="10.00" fill="#000000">sstream</text>
</g>
<!-- Node34&#45;&gt;Node36 -->
<g id="edge64" class="edge">
<title>Node34&#45;&gt;Node36</title>
<path fill="none" stroke="#191970" d="M1299.9101,-224.2977C1304.2132,-216.0277 1309.5758,-205.7215 1314.1482,-196.9339"/>
<polygon fill="#191970" stroke="#191970" points="1317.3654,-198.3335 1318.8764,-187.8469 1311.1557,-195.1024 1317.3654,-198.3335"/>
</g>
</g>
</svg>
        <g id="navigator" transform="translate(0 0)" fill="#404254">
                <rect fill="#f2f5e9" fill-opacity="0.5" stroke="#606060" stroke-width=".5" x="0" y="0" width="60" height="60"/>
                <use id="zoomplus" xlink:href="#zoomPlus" x="17" y="9" onmousedown="handleZoom(evt,'in')"/>
                <use id="zoomminus" xlink:href="#zoomMin" x="42" y="9" onmousedown="handleZoom(evt,'out')"/>
                <use id="reset" xlink:href="#resetDef" x="30" y="36" onmousedown="handleReset()"/>
                <g id="arrowUp" xlink:href="#dirArrow" transform="translate(30 24)" onmousedown="handlePan(0,-1)">
                  <use xlink:href="#rim" fill="#404040">
                        <set attributeName="fill" to="#808080" begin="arrowUp.mouseover" end="arrowUp.mouseout"/>
                  </use>
                  <path fill="none" stroke="white" stroke-width="1.5" d="M0,-3.0v7 M-2.5,-0.5L0,-3.0L2.5,-0.5"/>
                </g>
                <g id="arrowRight" xlink:href="#dirArrow" transform="rotate(90) translate(36 -43)" onmousedown="handlePan(1,0)">
                  <use xlink:href="#rim" fill="#404040">
                        <set attributeName="fill" to="#808080" begin="arrowRight.mouseover" end="arrowRight.mouseout"/>
                  </use>
                  <path fill="none" stroke="white" stroke-width="1.5" d="M0,-3.0v7 M-2.5,-0.5L0,-3.0L2.5,-0.5"/>
                </g>
                <g id="arrowDown" xlink:href="#dirArrow" transform="rotate(180) translate(-30 -48)" onmousedown="handlePan(0,1)">
                  <use xlink:href="#rim" fill="#404040">
                        <set attributeName="fill" to="#808080" begin="arrowDown.mouseover" end="arrowDown.mouseout"/>
                  </use>
                  <path fill="none" stroke="white" stroke-width="1.5" d="M0,-3.0v7 M-2.5,-0.5L0,-3.0L2.5,-0.5"/>
                </g>
                <g id="arrowLeft" xlink:href="#dirArrow" transform="rotate(270) translate(-36 17)" onmousedown="handlePan(-1,0)">
                  <use xlink:href="#rim" fill="#404040">
                        <set attributeName="fill" to="#808080" begin="arrowLeft.mouseover" end="arrowLeft.mouseout"/>
                  </use>
                  <path fill="none" stroke="white" stroke-width="1.5" d="M0,-3.0v7 M-2.5,-0.5L0,-3.0L2.5,-0.5"/>
                </g>
        </g>
        <svg viewBox="0 0 15 15" width="100%" height="30px" preserveAspectRatio="xMaxYMin meet">
         <g id="arrow_out" transform="scale(0.3 0.3)">
          <a xlink:href="RandomMappingFinder_8cpp__incl_org.svg" target="_base">
           <rect id="button" ry="5" rx="5" y="6" x="6" height="38" width="38"
                fill="#f2f5e9" fill-opacity="0.5" stroke="#606060" stroke-width="1.0"/>
           <path id="arrow"
             d="M 11.500037,31.436501 C 11.940474,20.09759 22.043105,11.32322 32.158766,21.979434 L 37.068811,17.246167 C 37.068811,17.246167 37.088388,32 37.088388,32 L 22.160133,31.978069 C 22.160133,31.978069 26.997745,27.140456 26.997745,27.140456 C 18.528582,18.264221 13.291696,25.230495 11.500037,31.436501 z"
             style="fill:#404040;"/>
          </a>
         </g>
        </svg>
</svg>
