<?xml version="1.0" encoding="UTF-8" standalone="no"?>
<!DOCTYPE svg PUBLIC "-//W3C//DTD SVG 1.1//EN"
 "http://www.w3.org/Graphics/SVG/1.1/DTD/svg11.dtd">
<!-- Generated by graphviz version 2.38.0 (20140413.2041)
 -->
<!-- Title: include/enfield/Analysis/NodeVisitor.h Pages: 1 -->
<svg width="1981pt" height="106pt"
 viewBox="0.00 0.00 1980.50 106.00" xmlns="http://www.w3.org/2000/svg" xmlns:xlink="http://www.w3.org/1999/xlink">
<g id="graph0" class="graph" transform="scale(1 1) rotate(0) translate(4 102)">
<title>include/enfield/Analysis/NodeVisitor.h</title>
<!-- Node9 -->
<g id="node1" class="node"><title>Node9</title>
<polygon fill="#bfbfbf" stroke="black" points="910,-67.5 910,-97.5 1029,-97.5 1029,-67.5 910,-67.5"/>
<text text-anchor="start" x="918" y="-85.5" font-family="Helvetica,sans-Serif" font-size="10.00">include/enfield/Analysis</text>
<text text-anchor="middle" x="969.5" y="-74.5" font-family="Helvetica,sans-Serif" font-size="10.00">/NodeVisitor.h</text>
</g>
<!-- Node10 -->
<g id="node2" class="node"><title>Node10</title>
<g id="a_node2"><a xlink:href="../../d1/d89/Nodes_8cpp.xhtml" target="_top" xlink:title="lib/Analysis/Nodes.cpp">
<polygon fill="none" stroke="black" points="0,-6 0,-25 117,-25 117,-6 0,-6"/>
<text text-anchor="middle" x="58.5" y="-13" font-family="Helvetica,sans-Serif" font-size="10.00">lib/Analysis/Nodes.cpp</text>
</a>
</g>
</g>
<!-- Node9&#45;&gt;Node10 -->
<g id="edge1" class="edge"><title>Node9&#45;&gt;Node10</title>
<path fill="none" stroke="midnightblue" d="M899.851,-80.8595C755.142,-78.7535 411.675,-69.723 126.5,-31 115.735,-29.5382 104.134,-27.3121 93.6166,-25.0398"/>
<polygon fill="midnightblue" stroke="midnightblue" points="899.876,-84.3601 909.923,-80.9995 899.973,-77.3607 899.876,-84.3601"/>
</g>
<!-- Node11 -->
<g id="node3" class="node"><title>Node11</title>
<g id="a_node3"><a xlink:href="../../d7/df0/NodeVisitor_8cpp.xhtml" target="_top" xlink:title="lib/Analysis/NodeVisitor.cpp">
<polygon fill="none" stroke="black" points="135.5,-6 135.5,-25 275.5,-25 275.5,-6 135.5,-6"/>
<text text-anchor="middle" x="205.5" y="-13" font-family="Helvetica,sans-Serif" font-size="10.00">lib/Analysis/NodeVisitor.cpp</text>
</a>
</g>
</g>
<!-- Node9&#45;&gt;Node11 -->
<g id="edge2" class="edge"><title>Node9&#45;&gt;Node11</title>
<path fill="none" stroke="midnightblue" d="M899.593,-78.8401C775.39,-73.5592 508.259,-59.6978 284.5,-31 272.329,-29.439 259.19,-27.2378 247.188,-25.021"/>
<polygon fill="midnightblue" stroke="midnightblue" points="899.587,-82.3428 909.725,-79.2652 899.881,-75.3489 899.587,-82.3428"/>
</g>
<!-- Node12 -->
<g id="node4" class="node"><title>Node12</title>
<g id="a_node4"><a xlink:href="../../d0/d91/QbitAllocator_8cpp.xhtml" target="_top" xlink:title="lib/Transform/Allocators\l/QbitAllocator.cpp">
<polygon fill="none" stroke="black" points="293.5,-0.5 293.5,-30.5 413.5,-30.5 413.5,-0.5 293.5,-0.5"/>
<text text-anchor="start" x="301.5" y="-18.5" font-family="Helvetica,sans-Serif" font-size="10.00">lib/Transform/Allocators</text>
<text text-anchor="middle" x="353.5" y="-7.5" font-family="Helvetica,sans-Serif" font-size="10.00">/QbitAllocator.cpp</text>
</a>
</g>
</g>
<!-- Node9&#45;&gt;Node12 -->
<g id="edge3" class="edge"><title>Node9&#45;&gt;Node12</title>
<path fill="none" stroke="midnightblue" d="M899.649,-77.6325C795.354,-71.2756 592.937,-56.6886 422.5,-31 419.595,-30.5622 416.628,-30.079 413.637,-29.5628"/>
<polygon fill="midnightblue" stroke="midnightblue" points="899.544,-81.1325 909.736,-78.2403 899.965,-74.1452 899.544,-81.1325"/>
</g>
<!-- Node13 -->
<g id="node5" class="node"><title>Node13</title>
<g id="a_node5"><a xlink:href="../../de/d6e/ArchVerifierPass_8cpp.xhtml" target="_top" xlink:title="lib/Transform/ArchVerifier\lPass.cpp">
<polygon fill="none" stroke="black" points="431.5,-0.5 431.5,-30.5 559.5,-30.5 559.5,-0.5 431.5,-0.5"/>
<text text-anchor="start" x="439.5" y="-18.5" font-family="Helvetica,sans-Serif" font-size="10.00">lib/Transform/ArchVerifier</text>
<text text-anchor="middle" x="495.5" y="-7.5" font-family="Helvetica,sans-Serif" font-size="10.00">Pass.cpp</text>
</a>
</g>
</g>
<!-- Node9&#45;&gt;Node13 -->
<g id="edge4" class="edge"><title>Node9&#45;&gt;Node13</title>
<path fill="none" stroke="midnightblue" d="M899.889,-74.2467C819.741,-65.5451 684.242,-49.7588 568.5,-31 565.566,-30.5245 562.571,-30.0175 559.548,-29.4883"/>
<polygon fill="midnightblue" stroke="midnightblue" points="899.545,-77.7298 909.863,-75.324 900.297,-70.7703 899.545,-77.7298"/>
</g>
<!-- Node14 -->
<g id="node6" class="node"><title>Node14</title>
<g id="a_node6"><a xlink:href="../../da/dcd/DependencyBuilderPass_8cpp.xhtml" target="_top" xlink:title="lib/Transform/Dependency\lBuilderPass.cpp">
<polygon fill="none" stroke="black" points="578,-0.5 578,-30.5 709,-30.5 709,-0.5 578,-0.5"/>
<text text-anchor="start" x="586" y="-18.5" font-family="Helvetica,sans-Serif" font-size="10.00">lib/Transform/Dependency</text>
<text text-anchor="middle" x="643.5" y="-7.5" font-family="Helvetica,sans-Serif" font-size="10.00">BuilderPass.cpp</text>
</a>
</g>
</g>
<!-- Node9&#45;&gt;Node14 -->
<g id="edge5" class="edge"><title>Node9&#45;&gt;Node14</title>
<path fill="none" stroke="midnightblue" d="M899.792,-67.6011C843.341,-56.3456 764.385,-40.6028 709.073,-29.5743"/>
<polygon fill="midnightblue" stroke="midnightblue" points="899.215,-71.055 909.707,-69.578 900.584,-64.1901 899.215,-71.055"/>
</g>
<!-- Node15 -->
<g id="node7" class="node"><title>Node15</title>
<g id="a_node7"><a xlink:href="../../de/d1f/FlattenPass_8cpp.xhtml" target="_top" xlink:title="lib/Transform/FlattenPass.cpp">
<polygon fill="none" stroke="black" points="727.5,-6 727.5,-25 875.5,-25 875.5,-6 727.5,-6"/>
<text text-anchor="middle" x="801.5" y="-13" font-family="Helvetica,sans-Serif" font-size="10.00">lib/Transform/FlattenPass.cpp</text>
</a>
</g>
</g>
<!-- Node9&#45;&gt;Node15 -->
<g id="edge6" class="edge"><title>Node9&#45;&gt;Node15</title>
<path fill="none" stroke="midnightblue" d="M923.711,-63.7838C891.136,-51.1807 848.82,-34.8082 823.487,-25.007"/>
<polygon fill="midnightblue" stroke="midnightblue" points="922.457,-67.0517 933.047,-67.396 924.983,-60.5233 922.457,-67.0517"/>
</g>
<!-- Node16 -->
<g id="node8" class="node"><title>Node16</title>
<g id="a_node8"><a xlink:href="../../dd/d93/InlineAllPass_8cpp.xhtml" target="_top" xlink:title="lib/Transform/InlineAllPass.cpp">
<polygon fill="none" stroke="black" points="893.5,-6 893.5,-25 1045.5,-25 1045.5,-6 893.5,-6"/>
<text text-anchor="middle" x="969.5" y="-13" font-family="Helvetica,sans-Serif" font-size="10.00">lib/Transform/InlineAllPass.cpp</text>
</a>
</g>
</g>
<!-- Node9&#45;&gt;Node16 -->
<g id="edge7" class="edge"><title>Node9&#45;&gt;Node16</title>
<path fill="none" stroke="midnightblue" d="M969.5,-57.2495C969.5,-46.017 969.5,-33.3767 969.5,-25.1945"/>
<polygon fill="midnightblue" stroke="midnightblue" points="966,-57.3959 969.5,-67.396 973,-57.396 966,-57.3959"/>
</g>
<!-- Node17 -->
<g id="node9" class="node"><title>Node17</title>
<g id="a_node9"><a xlink:href="../../d8/d9d/LayersBuilderPass_8cpp.xhtml" target="_top" xlink:title="lib/Transform/LayersBuilder\lPass.cpp">
<polygon fill="none" stroke="black" points="1063.5,-0.5 1063.5,-30.5 1199.5,-30.5 1199.5,-0.5 1063.5,-0.5"/>
<text text-anchor="start" x="1071.5" y="-18.5" font-family="Helvetica,sans-Serif" font-size="10.00">lib/Transform/LayersBuilder</text>
<text text-anchor="middle" x="1131.5" y="-7.5" font-family="Helvetica,sans-Serif" font-size="10.00">Pass.cpp</text>
</a>
</g>
</g>
<!-- Node9&#45;&gt;Node17 -->
<g id="edge8" class="edge"><title>Node9&#45;&gt;Node17</title>
<path fill="none" stroke="midnightblue" d="M1014.25,-63.5442C1040.17,-53.143 1072.34,-40.238 1096.42,-30.5765"/>
<polygon fill="midnightblue" stroke="midnightblue" points="1012.63,-60.4238 1004.65,-67.396 1015.24,-66.9204 1012.63,-60.4238"/>
</g>
<!-- Node18 -->
<g id="node10" class="node"><title>Node18</title>
<g id="a_node10"><a xlink:href="../../d4/d2f/RenameQbitsPass_8cpp.xhtml" target="_top" xlink:title="lib/Transform/RenameQbits\lPass.cpp">
<polygon fill="none" stroke="black" points="1218,-0.5 1218,-30.5 1355,-30.5 1355,-0.5 1218,-0.5"/>
<text text-anchor="start" x="1226" y="-18.5" font-family="Helvetica,sans-Serif" font-size="10.00">lib/Transform/RenameQbits</text>
<text text-anchor="middle" x="1286.5" y="-7.5" font-family="Helvetica,sans-Serif" font-size="10.00">Pass.cpp</text>
</a>
</g>
</g>
<!-- Node9&#45;&gt;Node18 -->
<g id="edge9" class="edge"><title>Node9&#45;&gt;Node18</title>
<path fill="none" stroke="midnightblue" d="M1039.15,-67.2187C1092.32,-56.3168 1165.19,-41.3746 1218.06,-30.5343"/>
<polygon fill="midnightblue" stroke="midnightblue" points="1038.22,-63.8366 1029.13,-69.274 1039.62,-70.6939 1038.22,-63.8366"/>
</g>
<!-- Node19 -->
<g id="node11" class="node"><title>Node19</title>
<g id="a_node11"><a xlink:href="../../db/d17/ReverseEdgesPass_8cpp.xhtml" target="_top" xlink:title="lib/Transform/ReverseEdges\lPass.cpp">
<polygon fill="none" stroke="black" points="1373,-0.5 1373,-30.5 1514,-30.5 1514,-0.5 1373,-0.5"/>
<text text-anchor="start" x="1381" y="-18.5" font-family="Helvetica,sans-Serif" font-size="10.00">lib/Transform/ReverseEdges</text>
<text text-anchor="middle" x="1443.5" y="-7.5" font-family="Helvetica,sans-Serif" font-size="10.00">Pass.cpp</text>
</a>
</g>
</g>
<!-- Node9&#45;&gt;Node19 -->
<g id="edge10" class="edge"><title>Node9&#45;&gt;Node19</title>
<path fill="none" stroke="midnightblue" d="M1039.52,-73.7128C1118.61,-64.6473 1251.07,-48.6472 1364.5,-31 1367.26,-30.5713 1370.06,-30.121 1372.9,-29.6552"/>
<polygon fill="midnightblue" stroke="midnightblue" points="1038.74,-70.2795 1029.2,-74.8914 1039.53,-77.2344 1038.74,-70.2795"/>
</g>
<!-- Node20 -->
<g id="node12" class="node"><title>Node20</title>
<g id="a_node12"><a xlink:href="../../dd/d49/SemanticVerifierPass_8cpp.xhtml" target="_top" xlink:title="lib/Transform/SemanticVerifier\lPass.cpp">
<polygon fill="none" stroke="black" points="1532,-0.5 1532,-30.5 1681,-30.5 1681,-0.5 1532,-0.5"/>
<text text-anchor="start" x="1540" y="-18.5" font-family="Helvetica,sans-Serif" font-size="10.00">lib/Transform/SemanticVerifier</text>
<text text-anchor="middle" x="1606.5" y="-7.5" font-family="Helvetica,sans-Serif" font-size="10.00">Pass.cpp</text>
</a>
</g>
</g>
<!-- Node9&#45;&gt;Node20 -->
<g id="edge11" class="edge"><title>Node9&#45;&gt;Node20</title>
<path fill="none" stroke="midnightblue" d="M1039.29,-76.9833C1144.53,-69.7559 1350,-54.0228 1523.5,-31 1526.26,-30.6344 1529.06,-30.2432 1531.89,-29.8322"/>
<polygon fill="midnightblue" stroke="midnightblue" points="1038.86,-73.5049 1029.12,-77.677 1039.33,-80.4887 1038.86,-73.5049"/>
</g>
<!-- Node21 -->
<g id="node13" class="node"><title>Node21</title>
<g id="a_node13"><a xlink:href="../../df/d0c/Utils_8cpp.xhtml" target="_top" xlink:title="lib/Transform/Utils.cpp">
<polygon fill="none" stroke="black" points="1698.5,-6 1698.5,-25 1814.5,-25 1814.5,-6 1698.5,-6"/>
<text text-anchor="middle" x="1756.5" y="-13" font-family="Helvetica,sans-Serif" font-size="10.00">lib/Transform/Utils.cpp</text>
</a>
</g>
</g>
<!-- Node9&#45;&gt;Node21 -->
<g id="edge12" class="edge"><title>Node9&#45;&gt;Node21</title>
<path fill="none" stroke="midnightblue" d="M1039.31,-80.0007C1168.46,-76.4761 1453.19,-65.1916 1690.5,-31 1700.83,-29.511 1711.96,-27.3048 1722.08,-25.06"/>
<polygon fill="midnightblue" stroke="midnightblue" points="1039.07,-76.5058 1029.16,-80.2703 1039.25,-83.5034 1039.07,-76.5058"/>
</g>
<!-- Node22 -->
<g id="node14" class="node"><title>Node22</title>
<g id="a_node14"><a xlink:href="../../de/de8/XbitToNumberPass_8cpp.xhtml" target="_top" xlink:title="lib/Transform/XbitToNumber\lPass.cpp">
<polygon fill="none" stroke="black" points="1832.5,-0.5 1832.5,-30.5 1972.5,-30.5 1972.5,-0.5 1832.5,-0.5"/>
<text text-anchor="start" x="1840.5" y="-18.5" font-family="Helvetica,sans-Serif" font-size="10.00">lib/Transform/XbitToNumber</text>
<text text-anchor="middle" x="1902.5" y="-7.5" font-family="Helvetica,sans-Serif" font-size="10.00">Pass.cpp</text>
</a>
</g>
</g>
<!-- Node9&#45;&gt;Node22 -->
<g id="edge13" class="edge"><title>Node9&#45;&gt;Node22</title>
<path fill="none" stroke="midnightblue" d="M1039.43,-80.2615C1185.54,-77.0373 1533.71,-66.0289 1823.5,-31 1826.41,-30.6486 1829.37,-30.2573 1832.36,-29.8349"/>
<polygon fill="midnightblue" stroke="midnightblue" points="1039.18,-76.7659 1029.26,-80.4804 1039.33,-83.7643 1039.18,-76.7659"/>
</g>
</g>
</svg>
