<?xml version="1.0" encoding="UTF-8" standalone="no"?>
<!DOCTYPE svg PUBLIC "-//W3C//DTD SVG 1.1//EN"
 "http://www.w3.org/Graphics/SVG/1.1/DTD/svg11.dtd">
<!-- Generated by graphviz version 2.38.0 (20140413.2041)
 -->
<!-- Title: efd::NDStmtList::cloneImpl Pages: 1 -->
<svg width="765pt" height="104pt"
 viewBox="0.00 0.00 765.00 104.00" xmlns="http://www.w3.org/2000/svg" xmlns:xlink="http://www.w3.org/1999/xlink">
<g id="graph0" class="graph" transform="scale(1 1) rotate(0) translate(4 100)">
<title>efd::NDStmtList::cloneImpl</title>
<!-- Node7 -->
<g id="node1" class="node"><title>Node7</title>
<polygon fill="#bfbfbf" stroke="black" points="0,-19.5 0,-38.5 136,-38.5 136,-19.5 0,-19.5"/>
<text text-anchor="middle" x="68" y="-26.5" font-family="Helvetica,sans-Serif" font-size="10.00">efd::NDStmtList::cloneImpl</text>
</g>
<!-- Node8 -->
<g id="node2" class="node"><title>Node8</title>
<g id="a_node2"><a xlink:href="../../da/ddd/classefd_1_1NDList.xhtml#aed2ba2ed453bc5ec3f84b45b836f041e" target="_top" xlink:title="Deep&#45;copies the childrem of list. ">
<polygon fill="none" stroke="black" points="172,-38.5 172,-57.5 307,-57.5 307,-38.5 172,-38.5"/>
<text text-anchor="middle" x="239.5" y="-45.5" font-family="Helvetica,sans-Serif" font-size="10.00">efd::NDList::cloneChildrem</text>
</a>
</g>
</g>
<!-- Node7&#45;&gt;Node8 -->
<g id="edge1" class="edge"><title>Node7&#45;&gt;Node8</title>
<path fill="none" stroke="midnightblue" d="M136.478,-36.5639C144.748,-37.4909 153.247,-38.4436 161.642,-39.3846"/>
<polygon fill="midnightblue" stroke="midnightblue" points="161.48,-42.8883 171.808,-40.5241 162.26,-35.9319 161.48,-42.8883"/>
</g>
<!-- Node13 -->
<g id="node7" class="node"><title>Node13</title>
<g id="a_node7"><a xlink:href="../../da/d7f/classefd_1_1NDStmtList.xhtml#a015cefabf53b2666c442b01b86c2b7cd" target="_top" xlink:title="Creates a new instance of this node. ">
<polygon fill="none" stroke="black" points="178,-0.5 178,-19.5 301,-19.5 301,-0.5 178,-0.5"/>
<text text-anchor="middle" x="239.5" y="-7.5" font-family="Helvetica,sans-Serif" font-size="10.00">efd::NDStmtList::Create</text>
</a>
</g>
</g>
<!-- Node7&#45;&gt;Node13 -->
<g id="edge6" class="edge"><title>Node7&#45;&gt;Node13</title>
<path fill="none" stroke="midnightblue" d="M136.478,-21.4361C146.725,-20.2874 157.325,-19.0993 167.642,-17.9428"/>
<polygon fill="midnightblue" stroke="midnightblue" points="168.294,-21.3918 177.841,-16.7995 167.514,-14.4353 168.294,-21.3918"/>
</g>
<!-- Node9 -->
<g id="node3" class="node"><title>Node9</title>
<g id="a_node3"><a xlink:href="../../da/ddd/classefd_1_1NDList.xhtml#a664c2f4a60746612062d7b112ff9842e" target="_top" xlink:title="Appends a child to the end of the list. ">
<polygon fill="none" stroke="black" points="360.5,-76.5 360.5,-95.5 471.5,-95.5 471.5,-76.5 360.5,-76.5"/>
<text text-anchor="middle" x="416" y="-83.5" font-family="Helvetica,sans-Serif" font-size="10.00">efd::NDList::addChild</text>
</a>
</g>
</g>
<!-- Node8&#45;&gt;Node9 -->
<g id="edge2" class="edge"><title>Node8&#45;&gt;Node9</title>
<path fill="none" stroke="midnightblue" d="M284.534,-57.589C307.872,-62.6713 336.73,-68.9554 361.366,-74.3203"/>
<polygon fill="midnightblue" stroke="midnightblue" points="360.767,-77.7719 371.283,-76.4799 362.257,-70.9322 360.767,-77.7719"/>
</g>
<!-- Node11 -->
<g id="node5" class="node"><title>Node11</title>
<g id="a_node5"><a xlink:href="../../d6/d6a/classefd_1_1Node.xhtml#a6c85c9bd21014b73497de741cc75f706" target="_top" xlink:title="Clones the current node (deep copy). ">
<polygon fill="none" stroke="black" points="371.5,-38.5 371.5,-57.5 460.5,-57.5 460.5,-38.5 371.5,-38.5"/>
<text text-anchor="middle" x="416" y="-45.5" font-family="Helvetica,sans-Serif" font-size="10.00">efd::Node::clone</text>
</a>
</g>
</g>
<!-- Node8&#45;&gt;Node11 -->
<g id="edge4" class="edge"><title>Node8&#45;&gt;Node11</title>
<path fill="none" stroke="midnightblue" d="M307.467,-48C325.217,-48 344.152,-48 361.108,-48"/>
<polygon fill="midnightblue" stroke="midnightblue" points="361.381,-51.5001 371.381,-48 361.381,-44.5001 361.381,-51.5001"/>
</g>
<!-- Node10 -->
<g id="node4" class="node"><title>Node10</title>
<g id="a_node4"><a xlink:href="../../d6/d6a/classefd_1_1Node.xhtml#a48e9d49d994b9023b8400316e2782e2b" target="_top" xlink:title="Sets the parent node of the current node. ">
<polygon fill="none" stroke="black" points="525,-76.5 525,-95.5 632,-95.5 632,-76.5 525,-76.5"/>
<text text-anchor="middle" x="578.5" y="-83.5" font-family="Helvetica,sans-Serif" font-size="10.00">efd::Node::setParent</text>
</a>
</g>
</g>
<!-- Node9&#45;&gt;Node10 -->
<g id="edge3" class="edge"><title>Node9&#45;&gt;Node10</title>
<path fill="none" stroke="midnightblue" d="M471.786,-86C485.597,-86 500.531,-86 514.702,-86"/>
<polygon fill="midnightblue" stroke="midnightblue" points="514.859,-89.5001 524.859,-86 514.859,-82.5001 514.859,-89.5001"/>
</g>
<!-- Node12 -->
<g id="node6" class="node"><title>Node12</title>
<g id="a_node6"><a xlink:href="../../d6/d6a/classefd_1_1Node.xhtml#ac078ce64eb404cfdc24b9288908536e4" target="_top" xlink:title="Clones the current node (deep copy). ">
<polygon fill="none" stroke="black" points="525,-38.5 525,-57.5 632,-57.5 632,-38.5 525,-38.5"/>
<text text-anchor="middle" x="578.5" y="-45.5" font-family="Helvetica,sans-Serif" font-size="10.00">efd::Node::cloneImpl</text>
</a>
</g>
</g>
<!-- Node11&#45;&gt;Node12 -->
<g id="edge5" class="edge"><title>Node11&#45;&gt;Node12</title>
<path fill="none" stroke="midnightblue" d="M460.857,-48C477.461,-48 496.701,-48 514.708,-48"/>
<polygon fill="midnightblue" stroke="midnightblue" points="514.849,-51.5001 524.849,-48 514.849,-44.5001 514.849,-51.5001"/>
</g>
<!-- Node14 -->
<g id="node8" class="node"><title>Node14</title>
<g id="a_node8"><a xlink:href="../../da/d7f/classefd_1_1NDStmtList.xhtml#a7d05021fdea4c254514856a9f126ce7a" target="_top" xlink:title="efd::NDStmtList::NDStmtList">
<polygon fill="none" stroke="black" points="343,-0.5 343,-19.5 489,-19.5 489,-0.5 343,-0.5"/>
<text text-anchor="middle" x="416" y="-7.5" font-family="Helvetica,sans-Serif" font-size="10.00">efd::NDStmtList::NDStmtList</text>
</a>
</g>
</g>
<!-- Node13&#45;&gt;Node14 -->
<g id="edge7" class="edge"><title>Node13&#45;&gt;Node14</title>
<path fill="none" stroke="midnightblue" d="M301.042,-10C311.262,-10 322.022,-10 332.685,-10"/>
<polygon fill="midnightblue" stroke="midnightblue" points="332.856,-13.5001 342.856,-10 332.856,-6.5001 332.856,-13.5001"/>
</g>
<!-- Node15 -->
<g id="node9" class="node"><title>Node15</title>
<g id="a_node9"><a xlink:href="../../da/ddd/classefd_1_1NDList.xhtml#a2642c91fda9d33512d1aa1aa7851b6bd" target="_top" xlink:title="efd::NDList::NDList">
<polygon fill="none" stroke="black" points="526.5,-0.5 526.5,-19.5 630.5,-19.5 630.5,-0.5 526.5,-0.5"/>
<text text-anchor="middle" x="578.5" y="-7.5" font-family="Helvetica,sans-Serif" font-size="10.00">efd::NDList::NDList</text>
</a>
</g>
</g>
<!-- Node14&#45;&gt;Node15 -->
<g id="edge8" class="edge"><title>Node14&#45;&gt;Node15</title>
<path fill="none" stroke="midnightblue" d="M489.268,-10C498.239,-10 507.343,-10 516.128,-10"/>
<polygon fill="midnightblue" stroke="midnightblue" points="516.267,-13.5001 526.267,-10 516.267,-6.5001 516.267,-13.5001"/>
</g>
<!-- Node16 -->
<g id="node10" class="node"><title>Node16</title>
<g id="a_node10"><a xlink:href="../../d6/d6a/classefd_1_1Node.xhtml#a09ac8cdf7898a3d17293d92ae956eece" target="_top" xlink:title="Constructs the node, initially empty (with no information). ">
<polygon fill="none" stroke="black" points="668,-0.5 668,-19.5 757,-19.5 757,-0.5 668,-0.5"/>
<text text-anchor="middle" x="712.5" y="-7.5" font-family="Helvetica,sans-Serif" font-size="10.00">efd::Node::Node</text>
</a>
</g>
</g>
<!-- Node15&#45;&gt;Node16 -->
<g id="edge9" class="edge"><title>Node15&#45;&gt;Node16</title>
<path fill="none" stroke="midnightblue" d="M630.535,-10C639.496,-10 648.845,-10 657.874,-10"/>
<polygon fill="midnightblue" stroke="midnightblue" points="657.894,-13.5001 667.894,-10 657.894,-6.5001 657.894,-13.5001"/>
</g>
</g>
</svg>
