<?xml version="1.0" encoding="UTF-8" standalone="no"?>
<!DOCTYPE svg PUBLIC "-//W3C//DTD SVG 1.1//EN"
 "http://www.w3.org/Graphics/SVG/1.1/DTD/svg11.dtd">
<!-- Generated by graphviz version 2.38.0 (20140413.2041)
 -->
<!-- Title: efd::NDStmtList::Create Pages: 1 -->
<!--zoomable 28 -->
<svg id="main" version="1.1" xmlns="http://www.w3.org/2000/svg" xmlns:xlink="http://www.w3.org/1999/xlink" xml:space="preserve" onload="init(evt)">
<style type="text/css"><![CDATA[
.edge:hover path { stroke: red; }
.edge:hover polygon { stroke: red; fill: red; }
]]></style>
<script type="text/javascript"><![CDATA[
var edges = document.getElementsByTagName('g');
if (edges && edges.length) {
  for (var i=0;i<edges.length;i++) {
    if (edges[i].id.substr(0,4)=='edge') {
      edges[i].setAttribute('class','edge');
    }
  }
}
]]></script>
        <defs>
                <circle id="rim" cx="0" cy="0" r="7"/>
                <circle id="rim2" cx="0" cy="0" r="3.5"/>
                <g id="zoomPlus">
                        <use xlink:href="#rim" fill="#404040">
                                <set attributeName="fill" to="#808080" begin="zoomplus.mouseover" end="zoomplus.mouseout"/>
                        </use>
                        <path d="M-4,0h8M0,-4v8" fill="none" stroke="white" stroke-width="1.5" pointer-events="none"/>
                </g>
                <g id="zoomMin">
                        <use xlink:href="#rim" fill="#404040">
                                <set attributeName="fill" to="#808080" begin="zoomminus.mouseover" end="zoomminus.mouseout"/>
                        </use>
                        <path d="M-4,0h8" fill="none" stroke="white" stroke-width="1.5" pointer-events="none"/>
                </g>
                <g id="dirArrow">
                        <path fill="none" stroke="white" stroke-width="1.5" d="M0,-3.0v7 M-2.5,-0.5L0,-3.0L2.5,-0.5"/>
                </g>
               <g id="resetDef">
                       <use xlink:href="#rim2" fill="#404040">
                               <set attributeName="fill" to="#808080" begin="reset.mouseover" end="reset.mouseout"/>
                       </use>
               </g>
        </defs>

<script type="text/javascript">
var viewWidth = 578;
var viewHeight = 28;
var sectionId = 'dynsection-6';
</script>
<script xlink:href="../../svgpan.js"/>
<svg id="graph" class="graph">
<g id="viewport">
<title>efd::NDStmtList::Create</title>
<!-- Node17 -->
<g id="node1" class="node"><title>Node17</title>
<polygon fill="#bfbfbf" stroke="black" points="0,-0.5 0,-19.5 123,-19.5 123,-0.5 0,-0.5"/>
<text text-anchor="middle" x="61.5" y="-7.5" font-family="Helvetica,sans-Serif" font-size="10.00">efd::NDStmtList::Create</text>
</g>
<!-- Node18 -->
<g id="node2" class="node"><title>Node18</title>
<g id="a_node2"><a xlink:href="../../da/d7f/classefd_1_1NDStmtList.xhtml#a7d05021fdea4c254514856a9f126ce7a" target="_top" xlink:title="efd::NDStmtList::NDStmtList">
<polygon fill="none" stroke="black" points="159,-0.5 159,-19.5 305,-19.5 305,-0.5 159,-0.5"/>
<text text-anchor="middle" x="232" y="-7.5" font-family="Helvetica,sans-Serif" font-size="10.00">efd::NDStmtList::NDStmtList</text>
</a>
</g>
</g>
<!-- Node17&#45;&gt;Node18 -->
<g id="edge1" class="edge"><title>Node17&#45;&gt;Node18</title>
<path fill="none" stroke="midnightblue" d="M123.332,-10C131.598,-10 140.191,-10 148.756,-10"/>
<polygon fill="midnightblue" stroke="midnightblue" points="148.777,-13.5001 158.777,-10 148.777,-6.5001 148.777,-13.5001"/>
</g>
<!-- Node19 -->
<g id="node3" class="node"><title>Node19</title>
<g id="a_node3"><a xlink:href="../../da/ddd/classefd_1_1NDList.xhtml#a2642c91fda9d33512d1aa1aa7851b6bd" target="_top" xlink:title="efd::NDList::NDList">
<polygon fill="none" stroke="black" points="341,-0.5 341,-19.5 445,-19.5 445,-0.5 341,-0.5"/>
<text text-anchor="middle" x="393" y="-7.5" font-family="Helvetica,sans-Serif" font-size="10.00">efd::NDList::NDList</text>
</a>
</g>
</g>
<!-- Node18&#45;&gt;Node19 -->
<g id="edge2" class="edge"><title>Node18&#45;&gt;Node19</title>
<path fill="none" stroke="midnightblue" d="M305.057,-10C313.585,-10 322.229,-10 330.591,-10"/>
<polygon fill="midnightblue" stroke="midnightblue" points="330.624,-13.5001 340.624,-10 330.624,-6.5001 330.624,-13.5001"/>
</g>
<!-- Node20 -->
<g id="node4" class="node"><title>Node20</title>
<g id="a_node4"><a xlink:href="../../d6/d6a/classefd_1_1Node.xhtml#a09ac8cdf7898a3d17293d92ae956eece" target="_top" xlink:title="Constructs the node, initially empty (with no information). ">
<polygon fill="none" stroke="black" points="481,-0.5 481,-19.5 570,-19.5 570,-0.5 481,-0.5"/>
<text text-anchor="middle" x="525.5" y="-7.5" font-family="Helvetica,sans-Serif" font-size="10.00">efd::Node::Node</text>
</a>
</g>
</g>
<!-- Node19&#45;&gt;Node20 -->
<g id="edge3" class="edge"><title>Node19&#45;&gt;Node20</title>
<path fill="none" stroke="midnightblue" d="M445.203,-10C453.528,-10 462.174,-10 470.563,-10"/>
<polygon fill="midnightblue" stroke="midnightblue" points="470.628,-13.5001 480.628,-10 470.628,-6.5001 470.628,-13.5001"/>
</g>
</g>
</svg>
        <g id="navigator" transform="translate(0 0)" fill="#404254">
                <rect fill="#f2f5e9" fill-opacity="0.5" stroke="#606060" stroke-width=".5" x="0" y="0" width="60" height="60"/>
                <use id="zoomplus" xlink:href="#zoomPlus" x="17" y="9" onmousedown="handleZoom(evt,'in')"/>
                <use id="zoomminus" xlink:href="#zoomMin" x="42" y="9" onmousedown="handleZoom(evt,'out')"/>
                <use id="reset" xlink:href="#resetDef" x="30" y="36" onmousedown="handleReset()"/>
                <g id="arrowUp" xlink:href="#dirArrow" transform="translate(30 24)" onmousedown="handlePan(0,-1)">
                  <use xlink:href="#rim" fill="#404040">
                        <set attributeName="fill" to="#808080" begin="arrowUp.mouseover" end="arrowUp.mouseout"/>
                  </use>
                  <path fill="none" stroke="white" stroke-width="1.5" d="M0,-3.0v7 M-2.5,-0.5L0,-3.0L2.5,-0.5"/>
                </g>
                <g id="arrowRight" xlink:href="#dirArrow" transform="rotate(90) translate(36 -43)" onmousedown="handlePan(1,0)">
                  <use xlink:href="#rim" fill="#404040">
                        <set attributeName="fill" to="#808080" begin="arrowRight.mouseover" end="arrowRight.mouseout"/>
                  </use>
                  <path fill="none" stroke="white" stroke-width="1.5" d="M0,-3.0v7 M-2.5,-0.5L0,-3.0L2.5,-0.5"/>
                </g>
                <g id="arrowDown" xlink:href="#dirArrow" transform="rotate(180) translate(-30 -48)" onmousedown="handlePan(0,1)">
                  <use xlink:href="#rim" fill="#404040">
                        <set attributeName="fill" to="#808080" begin="arrowDown.mouseover" end="arrowDown.mouseout"/>
                  </use>
                  <path fill="none" stroke="white" stroke-width="1.5" d="M0,-3.0v7 M-2.5,-0.5L0,-3.0L2.5,-0.5"/>
                </g>
                <g id="arrowLeft" xlink:href="#dirArrow" transform="rotate(270) translate(-36 17)" onmousedown="handlePan(-1,0)">
                  <use xlink:href="#rim" fill="#404040">
                        <set attributeName="fill" to="#808080" begin="arrowLeft.mouseover" end="arrowLeft.mouseout"/>
                  </use>
                  <path fill="none" stroke="white" stroke-width="1.5" d="M0,-3.0v7 M-2.5,-0.5L0,-3.0L2.5,-0.5"/>
                </g>
        </g>
        <svg viewBox="0 0 15 15" width="100%" height="30px" preserveAspectRatio="xMaxYMin meet">
         <g id="arrow_out" transform="scale(0.3 0.3)">
          <a xlink:href="classefd_1_1NDStmtList_a015cefabf53b2666c442b01b86c2b7cd_cgraph_org.svg" target="_base">
           <rect id="button" ry="5" rx="5" y="6" x="6" height="38" width="38"
                fill="#f2f5e9" fill-opacity="0.5" stroke="#606060" stroke-width="1.0"/>
           <path id="arrow"
             d="M 11.500037,31.436501 C 11.940474,20.09759 22.043105,11.32322 32.158766,21.979434 L 37.068811,17.246167 C 37.068811,17.246167 37.088388,32 37.088388,32 L 22.160133,31.978069 C 22.160133,31.978069 26.997745,27.140456 26.997745,27.140456 C 18.528582,18.264221 13.291696,25.230495 11.500037,31.436501 z"
             style="fill:#404040;"/>
          </a>
         </g>
        </svg>
</svg>
