<?xml version="1.0" encoding="UTF-8" standalone="no"?>
<!DOCTYPE svg PUBLIC "-//W3C//DTD SVG 1.1//EN"
 "http://www.w3.org/Graphics/SVG/1.1/DTD/svg11.dtd">
<!-- Generated by graphviz version 2.38.0 (20140413.2041)
 -->
<!-- Title: include/enfield/Transform/Allocators/SolutionBuilder.h Pages: 1 -->
<svg width="556pt" height="173pt"
 viewBox="0.00 0.00 556.00 173.00" xmlns="http://www.w3.org/2000/svg" xmlns:xlink="http://www.w3.org/1999/xlink">
<g id="graph0" class="graph" transform="scale(1 1) rotate(0) translate(4 169)">
<title>include/enfield/Transform/Allocators/SolutionBuilder.h</title>
<!-- Node32 -->
<g id="node1" class="node"><title>Node32</title>
<polygon fill="#bfbfbf" stroke="black" points="212,-134.5 212,-164.5 352,-164.5 352,-134.5 212,-134.5"/>
<text text-anchor="start" x="220" y="-152.5" font-family="Helvetica,sans-Serif" font-size="10.00">include/enfield/Transform</text>
<text text-anchor="middle" x="282" y="-141.5" font-family="Helvetica,sans-Serif" font-size="10.00">/Allocators/SolutionBuilder.h</text>
</g>
<!-- Node33 -->
<g id="node2" class="node"><title>Node33</title>
<g id="a_node2"><a xlink:href="../../dd/d3e/SimpleDepSolver_8h.xhtml" target="_top" xlink:title="include/enfield/Transform\l/Allocators/SimpleDepSolver.h">
<polygon fill="none" stroke="black" points="374,-67.5 374,-97.5 524,-97.5 524,-67.5 374,-67.5"/>
<text text-anchor="start" x="382" y="-85.5" font-family="Helvetica,sans-Serif" font-size="10.00">include/enfield/Transform</text>
<text text-anchor="middle" x="449" y="-74.5" font-family="Helvetica,sans-Serif" font-size="10.00">/Allocators/SimpleDepSolver.h</text>
</a>
</g>
</g>
<!-- Node32&#45;&gt;Node33 -->
<g id="edge1" class="edge"><title>Node32&#45;&gt;Node33</title>
<path fill="none" stroke="midnightblue" d="M327.78,-130.682C354.563,-120.257 387.902,-107.281 412.834,-97.5765"/>
<polygon fill="midnightblue" stroke="midnightblue" points="326.286,-127.507 318.237,-134.396 328.825,-134.03 326.286,-127.507"/>
</g>
<!-- Node36 -->
<g id="node5" class="node"><title>Node36</title>
<g id="a_node5"><a xlink:href="../../dd/de8/PathGuidedSolBuilder_8h.xhtml" target="_top" xlink:title="include/enfield/Transform\l/Allocators/PathGuidedSolBuilder.h">
<polygon fill="none" stroke="black" points="20,-67.5 20,-97.5 190,-97.5 190,-67.5 20,-67.5"/>
<text text-anchor="start" x="28" y="-85.5" font-family="Helvetica,sans-Serif" font-size="10.00">include/enfield/Transform</text>
<text text-anchor="middle" x="105" y="-74.5" font-family="Helvetica,sans-Serif" font-size="10.00">/Allocators/PathGuidedSolBuilder.h</text>
</a>
</g>
</g>
<!-- Node32&#45;&gt;Node36 -->
<g id="edge4" class="edge"><title>Node32&#45;&gt;Node36</title>
<path fill="none" stroke="midnightblue" d="M233.852,-130.819C205.402,-120.371 169.872,-107.323 143.331,-97.5765"/>
<polygon fill="midnightblue" stroke="midnightblue" points="233,-134.234 243.594,-134.396 235.413,-127.663 233,-134.234"/>
</g>
<!-- Node38 -->
<g id="node7" class="node"><title>Node38</title>
<g id="a_node7"><a xlink:href="../../de/d8c/QbitterSolBuilder_8h.xhtml" target="_top" xlink:title="include/enfield/Transform\l/Allocators/QbitterSolBuilder.h">
<polygon fill="none" stroke="black" points="208,-67.5 208,-97.5 356,-97.5 356,-67.5 208,-67.5"/>
<text text-anchor="start" x="216" y="-85.5" font-family="Helvetica,sans-Serif" font-size="10.00">include/enfield/Transform</text>
<text text-anchor="middle" x="282" y="-74.5" font-family="Helvetica,sans-Serif" font-size="10.00">/Allocators/QbitterSolBuilder.h</text>
</a>
</g>
</g>
<!-- Node32&#45;&gt;Node38 -->
<g id="edge7" class="edge"><title>Node32&#45;&gt;Node38</title>
<path fill="none" stroke="midnightblue" d="M282,-124.108C282,-115.154 282,-105.323 282,-97.5765"/>
<polygon fill="midnightblue" stroke="midnightblue" points="278.5,-124.396 282,-134.396 285.5,-124.396 278.5,-124.396"/>
</g>
<!-- Node34 -->
<g id="node3" class="node"><title>Node34</title>
<g id="a_node3"><a xlink:href="../../dc/dea/Allocators_8cpp.xhtml" target="_top" xlink:title="lib/Transform/Allocators\l/Allocators.cpp">
<polygon fill="none" stroke="black" points="152,-0.5 152,-30.5 272,-30.5 272,-0.5 152,-0.5"/>
<text text-anchor="start" x="160" y="-18.5" font-family="Helvetica,sans-Serif" font-size="10.00">lib/Transform/Allocators</text>
<text text-anchor="middle" x="212" y="-7.5" font-family="Helvetica,sans-Serif" font-size="10.00">/Allocators.cpp</text>
</a>
</g>
</g>
<!-- Node33&#45;&gt;Node34 -->
<g id="edge2" class="edge"><title>Node33&#45;&gt;Node34</title>
<path fill="none" stroke="midnightblue" d="M387.799,-64.7149C349.232,-54.1373 299.999,-40.6348 263.451,-30.6109"/>
<polygon fill="midnightblue" stroke="midnightblue" points="387.297,-68.2063 397.866,-67.476 389.148,-61.4556 387.297,-68.2063"/>
</g>
<!-- Node35 -->
<g id="node4" class="node"><title>Node35</title>
<g id="a_node4"><a xlink:href="../../d9/dcf/SimpleDepSolver_8cpp.xhtml" target="_top" xlink:title="lib/Transform/Allocators\l/SimpleDepSolver.cpp">
<polygon fill="none" stroke="black" points="428,-0.5 428,-30.5 548,-30.5 548,-0.5 428,-0.5"/>
<text text-anchor="start" x="436" y="-18.5" font-family="Helvetica,sans-Serif" font-size="10.00">lib/Transform/Allocators</text>
<text text-anchor="middle" x="488" y="-7.5" font-family="Helvetica,sans-Serif" font-size="10.00">/SimpleDepSolver.cpp</text>
</a>
</g>
</g>
<!-- Node33&#45;&gt;Node35 -->
<g id="edge3" class="edge"><title>Node33&#45;&gt;Node35</title>
<path fill="none" stroke="midnightblue" d="M462.755,-58.5756C468.356,-49.2406 474.651,-38.7483 479.554,-30.5765"/>
<polygon fill="midnightblue" stroke="midnightblue" points="459.606,-57.0203 457.462,-67.396 465.609,-60.6218 459.606,-57.0203"/>
</g>
<!-- Node36&#45;&gt;Node34 -->
<g id="edge5" class="edge"><title>Node36&#45;&gt;Node34</title>
<path fill="none" stroke="midnightblue" d="M137.075,-62.0151C153.726,-51.8999 173.694,-39.7698 188.828,-30.5765"/>
<polygon fill="midnightblue" stroke="midnightblue" points="134.947,-59.2127 128.217,-67.396 138.581,-65.1954 134.947,-59.2127"/>
</g>
<!-- Node37 -->
<g id="node6" class="node"><title>Node37</title>
<g id="a_node6"><a xlink:href="../../d3/d84/PathGuidedSolBuilder_8cpp.xhtml" target="_top" xlink:title="lib/Transform/Allocators\l/PathGuidedSolBuilder.cpp">
<polygon fill="none" stroke="black" points="0,-0.5 0,-30.5 134,-30.5 134,-0.5 0,-0.5"/>
<text text-anchor="start" x="8" y="-18.5" font-family="Helvetica,sans-Serif" font-size="10.00">lib/Transform/Allocators</text>
<text text-anchor="middle" x="67" y="-7.5" font-family="Helvetica,sans-Serif" font-size="10.00">/PathGuidedSolBuilder.cpp</text>
</a>
</g>
</g>
<!-- Node36&#45;&gt;Node37 -->
<g id="edge6" class="edge"><title>Node36&#45;&gt;Node37</title>
<path fill="none" stroke="midnightblue" d="M91.598,-58.5756C86.1407,-49.2406 80.0067,-38.7483 75.2293,-30.5765"/>
<polygon fill="midnightblue" stroke="midnightblue" points="88.686,-60.5294 96.7546,-67.396 94.7291,-56.9965 88.686,-60.5294"/>
</g>
<!-- Node38&#45;&gt;Node34 -->
<g id="edge8" class="edge"><title>Node38&#45;&gt;Node34</title>
<path fill="none" stroke="midnightblue" d="M259.182,-60.3115C248.681,-50.5612 236.51,-39.259 227.159,-30.5765"/>
<polygon fill="midnightblue" stroke="midnightblue" points="257.101,-63.1562 266.811,-67.396 261.865,-58.0266 257.101,-63.1562"/>
</g>
<!-- Node39 -->
<g id="node8" class="node"><title>Node39</title>
<g id="a_node8"><a xlink:href="../../db/de4/QbitterSolBuilder_8cpp.xhtml" target="_top" xlink:title="lib/Transform/Allocators\l/QbitterSolBuilder.cpp">
<polygon fill="none" stroke="black" points="290,-0.5 290,-30.5 410,-30.5 410,-0.5 290,-0.5"/>
<text text-anchor="start" x="298" y="-18.5" font-family="Helvetica,sans-Serif" font-size="10.00">lib/Transform/Allocators</text>
<text text-anchor="middle" x="350" y="-7.5" font-family="Helvetica,sans-Serif" font-size="10.00">/QbitterSolBuilder.cpp</text>
</a>
</g>
</g>
<!-- Node38&#45;&gt;Node39 -->
<g id="edge9" class="edge"><title>Node38&#45;&gt;Node39</title>
<path fill="none" stroke="midnightblue" d="M304.166,-60.3115C314.367,-50.5612 326.191,-39.259 335.274,-30.5765"/>
<polygon fill="midnightblue" stroke="midnightblue" points="301.565,-57.9561 296.755,-67.396 306.402,-63.0162 301.565,-57.9561"/>
</g>
</g>
</svg>
