<?xml version="1.0" encoding="UTF-8" standalone="no"?>
<!DOCTYPE svg PUBLIC "-//W3C//DTD SVG 1.1//EN"
 "http://www.w3.org/Graphics/SVG/1.1/DTD/svg11.dtd">
<!-- Generated by graphviz version 2.40.1 (20161225.0304)
 -->
<!-- Title: efd::PassT&lt; T &gt; Pages: 1 -->
<svg width="1198pt" height="504pt"
 viewBox="0.00 0.00 1198.00 504.00" xmlns="http://www.w3.org/2000/svg" xmlns:xlink="http://www.w3.org/1999/xlink">
<g id="graph0" class="graph" transform="scale(1 1) rotate(0) translate(4 500)">
<title>efd::PassT&lt; T &gt;</title>
<!-- Node0 -->
<g id="node1" class="node">
<title>Node0</title>
<polygon fill="#bfbfbf" stroke="#000000" points="98,-290.5 98,-309.5 193,-309.5 193,-290.5 98,-290.5"/>
<text text-anchor="middle" x="145.5" y="-297.5" font-family="Helvetica,sans-Serif" font-size="10.00" fill="#000000">efd::PassT&lt; T &gt;</text>
</g>
<!-- Node2 -->
<g id="node3" class="node">
<title>Node2</title>
<g id="a_node3"><a xlink:href="../../db/d56/classefd_1_1PassT.xhtml" target="_top" xlink:title="efd::PassT\&lt; DependencyBuilder \&gt;">
<polygon fill="none" stroke="#000000" points="355.5,-465.5 355.5,-484.5 540.5,-484.5 540.5,-465.5 355.5,-465.5"/>
<text text-anchor="middle" x="448" y="-472.5" font-family="Helvetica,sans-Serif" font-size="10.00" fill="#000000">efd::PassT&lt; DependencyBuilder &gt;</text>
</a>
</g>
</g>
<!-- Node0&#45;&gt;Node2 -->
<g id="edge2" class="edge">
<title>Node0&#45;&gt;Node2</title>
<path fill="none" stroke="#ffa500" stroke-dasharray="5,2" d="M147.9283,-319.8487C153.0905,-352.6765 168.4048,-417.7505 211,-449 259.8101,-484.809 330.2008,-488.189 381.5844,-484.5057"/>
<polygon fill="#ffa500" stroke="#ffa500" points="151.3581,-319.1044 146.4976,-309.6902 144.4265,-320.0806 151.3581,-319.1044"/>
<text text-anchor="middle" x="273.5" y="-488" font-family="Helvetica,sans-Serif" font-size="10.00" fill="#000000"> &lt; DependencyBuilder &gt;</text>
</g>
<!-- Node4 -->
<g id="node5" class="node">
<title>Node4</title>
<g id="a_node5"><a xlink:href="../../db/d56/classefd_1_1PassT.xhtml" target="_top" xlink:title="efd::PassT\&lt; uint32_t \&gt;">
<polygon fill="none" stroke="#000000" points="383.5,-427.5 383.5,-446.5 512.5,-446.5 512.5,-427.5 383.5,-427.5"/>
<text text-anchor="middle" x="448" y="-434.5" font-family="Helvetica,sans-Serif" font-size="10.00" fill="#000000">efd::PassT&lt; uint32_t &gt;</text>
</a>
</g>
</g>
<!-- Node0&#45;&gt;Node4 -->
<g id="edge4" class="edge">
<title>Node0&#45;&gt;Node4</title>
<path fill="none" stroke="#ffa500" stroke-dasharray="5,2" d="M151.0178,-319.5396C159.3917,-345.2441 177.9424,-389.6484 211,-411 238.5991,-428.826 323.1061,-434.5418 383.3288,-436.3119"/>
<polygon fill="#ffa500" stroke="#ffa500" points="154.3084,-318.3312 148.0394,-309.79 147.6138,-320.3763 154.3084,-318.3312"/>
<text text-anchor="middle" x="273.5" y="-437" font-family="Helvetica,sans-Serif" font-size="10.00" fill="#000000"> &lt; uint32_t &gt;</text>
</g>
<!-- Node6 -->
<g id="node7" class="node">
<title>Node6</title>
<g id="a_node7"><a xlink:href="../../db/d56/classefd_1_1PassT.xhtml" target="_top" xlink:title="efd::PassT\&lt; XbitToNumber \&gt;">
<polygon fill="none" stroke="#000000" points="368,-389.5 368,-408.5 528,-408.5 528,-389.5 368,-389.5"/>
<text text-anchor="middle" x="448" y="-396.5" font-family="Helvetica,sans-Serif" font-size="10.00" fill="#000000">efd::PassT&lt; XbitToNumber &gt;</text>
</a>
</g>
</g>
<!-- Node0&#45;&gt;Node6 -->
<g id="edge6" class="edge">
<title>Node0&#45;&gt;Node6</title>
<path fill="none" stroke="#ffa500" stroke-dasharray="5,2" d="M157.79,-318.1358C169.5048,-333.8477 188.6412,-355.7698 211,-367 259.4183,-391.3192 320.0596,-399.1597 367.8803,-401.0025"/>
<polygon fill="#ffa500" stroke="#ffa500" points="160.4444,-315.8304 151.7819,-309.7303 154.7496,-319.901 160.4444,-315.8304"/>
<text text-anchor="middle" x="273.5" y="-401" font-family="Helvetica,sans-Serif" font-size="10.00" fill="#000000"> &lt; XbitToNumber &gt;</text>
</g>
<!-- Node8 -->
<g id="node9" class="node">
<title>Node8</title>
<g id="a_node9"><a xlink:href="../../db/d56/classefd_1_1PassT.xhtml" target="_top" xlink:title="efd::PassT\&lt; QModuleQuality \&gt;">
<polygon fill="none" stroke="#000000" points="364.5,-351.5 364.5,-370.5 531.5,-370.5 531.5,-351.5 364.5,-351.5"/>
<text text-anchor="middle" x="448" y="-358.5" font-family="Helvetica,sans-Serif" font-size="10.00" fill="#000000">efd::PassT&lt; QModuleQuality &gt;</text>
</a>
</g>
</g>
<!-- Node0&#45;&gt;Node8 -->
<g id="edge8" class="edge">
<title>Node0&#45;&gt;Node8</title>
<path fill="none" stroke="#ffa500" stroke-dasharray="5,2" d="M171.9133,-314.2905C183.5859,-320.0238 197.664,-326.1683 211,-330 260.8535,-344.3238 318.5271,-352.0505 364.498,-356.2075"/>
<polygon fill="#ffa500" stroke="#ffa500" points="173.2439,-311.0407 162.7432,-309.6311 170.0729,-317.2814 173.2439,-311.0407"/>
<text text-anchor="middle" x="273.5" y="-355" font-family="Helvetica,sans-Serif" font-size="10.00" fill="#000000"> &lt; QModuleQuality &gt;</text>
</g>
<!-- Node10 -->
<g id="node11" class="node">
<title>Node10</title>
<g id="a_node11"><a xlink:href="../../db/d56/classefd_1_1PassT.xhtml" target="_top" xlink:title="efd::PassT\&lt; LayerBasedOrdering \&gt;">
<polygon fill="none" stroke="#000000" points="354,-313.5 354,-332.5 542,-332.5 542,-313.5 354,-313.5"/>
<text text-anchor="middle" x="448" y="-320.5" font-family="Helvetica,sans-Serif" font-size="10.00" fill="#000000">efd::PassT&lt; LayerBasedOrdering &gt;</text>
</a>
</g>
</g>
<!-- Node0&#45;&gt;Node10 -->
<g id="edge10" class="edge">
<title>Node0&#45;&gt;Node10</title>
<path fill="none" stroke="#ffa500" stroke-dasharray="5,2" d="M203.2671,-304.3922C245.7704,-307.6239 304.4765,-312.0875 353.7368,-315.8329"/>
<polygon fill="#ffa500" stroke="#ffa500" points="203.335,-300.8874 193.0984,-303.6191 202.8042,-307.8672 203.335,-300.8874"/>
<text text-anchor="middle" x="273.5" y="-318" font-family="Helvetica,sans-Serif" font-size="10.00" fill="#000000"> &lt; LayerBasedOrdering &gt;</text>
</g>
<!-- Node13 -->
<g id="node14" class="node">
<title>Node13</title>
<g id="a_node14"><a xlink:href="../../db/d56/classefd_1_1PassT.xhtml" target="_top" xlink:title="efd::PassT\&lt; DependencyGraph\l::sRef \&gt;">
<polygon fill="none" stroke="#000000" points="364,-264 364,-294 532,-294 532,-264 364,-264"/>
<text text-anchor="start" x="372" y="-282" font-family="Helvetica,sans-Serif" font-size="10.00" fill="#000000">efd::PassT&lt; DependencyGraph</text>
<text text-anchor="middle" x="448" y="-271" font-family="Helvetica,sans-Serif" font-size="10.00" fill="#000000">::sRef &gt;</text>
</a>
</g>
</g>
<!-- Node0&#45;&gt;Node13 -->
<g id="edge13" class="edge">
<title>Node0&#45;&gt;Node13</title>
<path fill="none" stroke="#ffa500" stroke-dasharray="5,2" d="M179.0113,-287.0562C189.1336,-283.7491 200.3815,-280.6606 211,-279 261.3065,-271.1328 318.3576,-270.8716 363.8773,-272.7013"/>
<polygon fill="#ffa500" stroke="#ffa500" points="177.6439,-283.8254 169.3291,-290.3915 179.9238,-290.4437 177.6439,-283.8254"/>
<text text-anchor="start" x="218" y="-293" font-family="Helvetica,sans-Serif" font-size="10.00" fill="#000000"> &lt; DependencyGraph::</text>
<text text-anchor="middle" x="273.5" y="-282" font-family="Helvetica,sans-Serif" font-size="10.00" fill="#000000">sRef &gt;</text>
</g>
<!-- Node15 -->
<g id="node16" class="node">
<title>Node15</title>
<g id="a_node16"><a xlink:href="../../db/d56/classefd_1_1PassT.xhtml" target="_top" xlink:title="efd::PassT\&lt; CircuitGraph \&gt;">
<polygon fill="none" stroke="#000000" points="373,-225.5 373,-244.5 523,-244.5 523,-225.5 373,-225.5"/>
<text text-anchor="middle" x="448" y="-232.5" font-family="Helvetica,sans-Serif" font-size="10.00" fill="#000000">efd::PassT&lt; CircuitGraph &gt;</text>
</a>
</g>
</g>
<!-- Node0&#45;&gt;Node15 -->
<g id="edge15" class="edge">
<title>Node0&#45;&gt;Node15</title>
<path fill="none" stroke="#ffa500" stroke-dasharray="5,2" d="M164.7955,-283.6767C177.1757,-274.1746 194.0565,-262.9315 211,-257 263.0675,-238.7724 325.2814,-233.5728 372.8998,-232.7704"/>
<polygon fill="#ffa500" stroke="#ffa500" points="162.2715,-281.2131 156.6397,-290.1871 166.6386,-286.6838 162.2715,-281.2131"/>
<text text-anchor="middle" x="273.5" y="-260" font-family="Helvetica,sans-Serif" font-size="10.00" fill="#000000"> &lt; CircuitGraph &gt;</text>
</g>
<!-- Node17 -->
<g id="node18" class="node">
<title>Node17</title>
<g id="a_node18"><a xlink:href="../../db/d56/classefd_1_1PassT.xhtml" target="_top" xlink:title="efd::PassT\&lt; bool \&gt;">
<polygon fill="none" stroke="#000000" points="393,-187.5 393,-206.5 503,-206.5 503,-187.5 393,-187.5"/>
<text text-anchor="middle" x="448" y="-194.5" font-family="Helvetica,sans-Serif" font-size="10.00" fill="#000000">efd::PassT&lt; bool &gt;</text>
</a>
</g>
</g>
<!-- Node0&#45;&gt;Node17 -->
<g id="edge17" class="edge">
<title>Node0&#45;&gt;Node17</title>
<path fill="none" stroke="#ffa500" stroke-dasharray="5,2" d="M155.0048,-281.3336C165.78,-262.3279 185.2496,-233.7593 211,-220 267.5139,-189.8028 342.4754,-187.7409 392.828,-190.8143"/>
<polygon fill="#ffa500" stroke="#ffa500" points="151.8499,-279.8099 150.1753,-290.2716 158.0084,-283.1376 151.8499,-279.8099"/>
<text text-anchor="middle" x="273.5" y="-223" font-family="Helvetica,sans-Serif" font-size="10.00" fill="#000000"> &lt; bool &gt;</text>
</g>
<!-- Node20 -->
<g id="node21" class="node">
<title>Node20</title>
<g id="a_node21"><a xlink:href="../../db/d56/classefd_1_1PassT.xhtml" target="_top" xlink:title="efd::PassT\&lt; Layers \&gt;">
<polygon fill="none" stroke="#000000" points="387,-143.5 387,-162.5 509,-162.5 509,-143.5 387,-143.5"/>
<text text-anchor="middle" x="448" y="-150.5" font-family="Helvetica,sans-Serif" font-size="10.00" fill="#000000">efd::PassT&lt; Layers &gt;</text>
</a>
</g>
</g>
<!-- Node0&#45;&gt;Node20 -->
<g id="edge20" class="edge">
<title>Node0&#45;&gt;Node20</title>
<path fill="none" stroke="#ffa500" stroke-dasharray="5,2" d="M149.7563,-280.2013C156.9894,-251.8509 174.5851,-200.4231 211,-176 262.6702,-141.3453 335.4984,-139.4878 386.7494,-143.8423"/>
<polygon fill="#ffa500" stroke="#ffa500" points="146.298,-279.6172 147.4039,-290.1542 153.1103,-281.2274 146.298,-279.6172"/>
<text text-anchor="middle" x="273.5" y="-179" font-family="Helvetica,sans-Serif" font-size="10.00" fill="#000000"> &lt; Layers &gt;</text>
</g>
<!-- Node22 -->
<g id="node23" class="node">
<title>Node22</title>
<g id="a_node23"><a xlink:href="../../db/d56/classefd_1_1PassT.xhtml" target="_top" xlink:title="efd::PassT\&lt; Mapping \&gt;">
<polygon fill="none" stroke="#000000" points="382.5,-94.5 382.5,-113.5 513.5,-113.5 513.5,-94.5 382.5,-94.5"/>
<text text-anchor="middle" x="448" y="-101.5" font-family="Helvetica,sans-Serif" font-size="10.00" fill="#000000">efd::PassT&lt; Mapping &gt;</text>
</a>
</g>
</g>
<!-- Node0&#45;&gt;Node22 -->
<g id="edge22" class="edge">
<title>Node0&#45;&gt;Node22</title>
<path fill="none" stroke="#ffa500" stroke-dasharray="5,2" d="M146.64,-279.7175C149.9016,-242.8385 162.485,-165.1831 211,-128 263.1909,-87.9997 341.9754,-88.4291 394.1863,-94.4973"/>
<polygon fill="#ffa500" stroke="#ffa500" points="143.1154,-279.9262 145.8748,-290.1554 150.0966,-280.438 143.1154,-279.9262"/>
<text text-anchor="middle" x="273.5" y="-131" font-family="Helvetica,sans-Serif" font-size="10.00" fill="#000000"> &lt; Mapping &gt;</text>
</g>
<!-- Node1 -->
<g id="node2" class="node">
<title>Node1</title>
<g id="a_node2"><a xlink:href="../../d0/d98/classefd_1_1Pass.xhtml" target="_top" xlink:title="Base class for implementation of QModule passes. This information will be used when the QModule&#39;s fun...">
<polygon fill="none" stroke="#000000" points="0,-290.5 0,-309.5 61,-309.5 61,-290.5 0,-290.5"/>
<text text-anchor="middle" x="30.5" y="-297.5" font-family="Helvetica,sans-Serif" font-size="10.00" fill="#000000">efd::Pass</text>
</a>
</g>
</g>
<!-- Node1&#45;&gt;Node0 -->
<g id="edge1" class="edge">
<title>Node1&#45;&gt;Node0</title>
<path fill="none" stroke="#191970" d="M71.2183,-300C79.856,-300 89.0474,-300 97.9145,-300"/>
<polygon fill="#191970" stroke="#191970" points="71.016,-296.5001 61.016,-300 71.0159,-303.5001 71.016,-296.5001"/>
</g>
<!-- Node3 -->
<g id="node4" class="node">
<title>Node3</title>
<g id="a_node4"><a xlink:href="../../d1/d06/classefd_1_1DependencyBuilderWrapperPass.xhtml" target="_top" xlink:title="WrapperPass that yields a DependencyBuilder structure. ">
<polygon fill="none" stroke="#000000" points="581,-465.5 581,-484.5 778,-484.5 778,-465.5 581,-465.5"/>
<text text-anchor="middle" x="679.5" y="-472.5" font-family="Helvetica,sans-Serif" font-size="10.00" fill="#000000">efd::DependencyBuilderWrapperPass</text>
</a>
</g>
</g>
<!-- Node2&#45;&gt;Node3 -->
<g id="edge3" class="edge">
<title>Node2&#45;&gt;Node3</title>
<path fill="none" stroke="#191970" d="M551.1119,-475C561.0377,-475 571.089,-475 580.9691,-475"/>
<polygon fill="#191970" stroke="#191970" points="550.826,-471.5001 540.826,-475 550.826,-478.5001 550.826,-471.5001"/>
</g>
<!-- Node5 -->
<g id="node6" class="node">
<title>Node5</title>
<g id="a_node6"><a xlink:href="../../df/d16/classefd_1_1IntrinsicGateCostPass.xhtml" target="_top" xlink:title="efd::IntrinsicGateCostPass">
<polygon fill="none" stroke="#000000" points="607,-427.5 607,-446.5 752,-446.5 752,-427.5 607,-427.5"/>
<text text-anchor="middle" x="679.5" y="-434.5" font-family="Helvetica,sans-Serif" font-size="10.00" fill="#000000">efd::IntrinsicGateCostPass</text>
</a>
</g>
</g>
<!-- Node4&#45;&gt;Node5 -->
<g id="edge5" class="edge">
<title>Node4&#45;&gt;Node5</title>
<path fill="none" stroke="#191970" d="M522.9437,-437C549.898,-437 580.2378,-437 606.9819,-437"/>
<polygon fill="#191970" stroke="#191970" points="522.7935,-433.5001 512.7935,-437 522.7935,-440.5001 522.7935,-433.5001"/>
</g>
<!-- Node7 -->
<g id="node8" class="node">
<title>Node7</title>
<g id="a_node8"><a xlink:href="../../de/d2b/classefd_1_1XbitToNumberWrapperPass.xhtml" target="_top" xlink:title="WrapperPass that yields a XbitToNumber structure. ">
<polygon fill="none" stroke="#000000" points="593,-389.5 593,-408.5 766,-408.5 766,-389.5 593,-389.5"/>
<text text-anchor="middle" x="679.5" y="-396.5" font-family="Helvetica,sans-Serif" font-size="10.00" fill="#000000">efd::XbitToNumberWrapperPass</text>
</a>
</g>
</g>
<!-- Node6&#45;&gt;Node7 -->
<g id="edge7" class="edge">
<title>Node6&#45;&gt;Node7</title>
<path fill="none" stroke="#191970" d="M538.66,-399C556.4106,-399 574.9882,-399 592.6123,-399"/>
<polygon fill="#191970" stroke="#191970" points="538.3178,-395.5001 528.3178,-399 538.3177,-402.5001 538.3178,-395.5001"/>
</g>
<!-- Node9 -->
<g id="node10" class="node">
<title>Node9</title>
<g id="a_node10"><a xlink:href="../../dd/d79/classefd_1_1QModuleQualityEvalPass.xhtml" target="_top" xlink:title="Evaluates a QModule. ">
<polygon fill="none" stroke="#000000" points="599.5,-351.5 599.5,-370.5 759.5,-370.5 759.5,-351.5 599.5,-351.5"/>
<text text-anchor="middle" x="679.5" y="-358.5" font-family="Helvetica,sans-Serif" font-size="10.00" fill="#000000">efd::QModuleQualityEvalPass</text>
</a>
</g>
</g>
<!-- Node8&#45;&gt;Node9 -->
<g id="edge9" class="edge">
<title>Node8&#45;&gt;Node9</title>
<path fill="none" stroke="#191970" d="M541.7442,-361C560.7731,-361 580.6258,-361 599.1417,-361"/>
<polygon fill="#191970" stroke="#191970" points="541.5768,-357.5001 531.5768,-361 541.5768,-364.5001 541.5768,-357.5001"/>
</g>
<!-- Node11 -->
<g id="node12" class="node">
<title>Node11</title>
<g id="a_node12"><a xlink:href="../../d6/de0/classefd_1_1LayerBasedOrderingWrapperPass.xhtml" target="_top" xlink:title="Interface for ordering the program by a specific layer&#45;based ordering. ">
<polygon fill="none" stroke="#000000" points="579,-313.5 579,-332.5 780,-332.5 780,-313.5 579,-313.5"/>
<text text-anchor="middle" x="679.5" y="-320.5" font-family="Helvetica,sans-Serif" font-size="10.00" fill="#000000">efd::LayerBasedOrderingWrapperPass</text>
</a>
</g>
</g>
<!-- Node10&#45;&gt;Node11 -->
<g id="edge11" class="edge">
<title>Node10&#45;&gt;Node11</title>
<path fill="none" stroke="#191970" d="M552.3638,-323C561.1004,-323 569.9245,-323 578.6342,-323"/>
<polygon fill="#191970" stroke="#191970" points="552.1599,-319.5001 542.1599,-323 552.1599,-326.5001 552.1599,-319.5001"/>
</g>
<!-- Node12 -->
<g id="node13" class="node">
<title>Node12</title>
<g id="a_node13"><a xlink:href="../../dd/db9/classefd_1_1CNOTLBOWrapperPass.xhtml" target="_top" xlink:title="Layer&#45;based Ordering with CNOT priority. ">
<polygon fill="none" stroke="#000000" points="840,-313.5 840,-332.5 989,-332.5 989,-313.5 840,-313.5"/>
<text text-anchor="middle" x="914.5" y="-320.5" font-family="Helvetica,sans-Serif" font-size="10.00" fill="#000000">efd::CNOTLBOWrapperPass</text>
</a>
</g>
</g>
<!-- Node11&#45;&gt;Node12 -->
<g id="edge12" class="edge">
<title>Node11&#45;&gt;Node12</title>
<path fill="none" stroke="#191970" d="M790.5725,-323C807.3133,-323 824.2285,-323 839.9535,-323"/>
<polygon fill="#191970" stroke="#191970" points="790.1839,-319.5001 780.1838,-323 790.1838,-326.5001 790.1839,-319.5001"/>
</g>
<!-- Node14 -->
<g id="node15" class="node">
<title>Node14</title>
<g id="a_node15"><a xlink:href="../../d6/d27/classefd_1_1DependencyGraphBuilderPass.xhtml" target="_top" xlink:title="Constructs the dependency graph for a QModule. ">
<polygon fill="none" stroke="#000000" points="587,-272.5 587,-291.5 772,-291.5 772,-272.5 587,-272.5"/>
<text text-anchor="middle" x="679.5" y="-279.5" font-family="Helvetica,sans-Serif" font-size="10.00" fill="#000000">efd::DependencyGraphBuilderPass</text>
</a>
</g>
</g>
<!-- Node13&#45;&gt;Node14 -->
<g id="edge14" class="edge">
<title>Node13&#45;&gt;Node14</title>
<path fill="none" stroke="#191970" d="M542.2946,-280.222C556.9574,-280.412 572.0961,-280.6082 586.7247,-280.7977"/>
<polygon fill="#191970" stroke="#191970" points="542.2762,-276.7215 532.2317,-280.0916 542.1855,-283.7209 542.2762,-276.7215"/>
</g>
<!-- Node16 -->
<g id="node17" class="node">
<title>Node16</title>
<g id="a_node17"><a xlink:href="../../de/dd0/classefd_1_1CircuitGraphBuilderPass.xhtml" target="_top" xlink:title="Builds the circuit graph corresponding to the QModule given. ">
<polygon fill="none" stroke="#000000" points="601.5,-234.5 601.5,-253.5 757.5,-253.5 757.5,-234.5 601.5,-234.5"/>
<text text-anchor="middle" x="679.5" y="-241.5" font-family="Helvetica,sans-Serif" font-size="10.00" fill="#000000">efd::CircuitGraphBuilderPass</text>
</a>
</g>
</g>
<!-- Node15&#45;&gt;Node16 -->
<g id="edge16" class="edge">
<title>Node15&#45;&gt;Node16</title>
<path fill="none" stroke="#191970" d="M533.243,-238.314C555.4608,-239.1777 579.2933,-240.1043 601.136,-240.9535"/>
<polygon fill="#191970" stroke="#191970" points="533.2899,-234.8133 523.1614,-237.922 533.0179,-241.808 533.2899,-234.8133"/>
</g>
<!-- Node18 -->
<g id="node19" class="node">
<title>Node18</title>
<g id="a_node19"><a xlink:href="../../d0/de6/classefd_1_1ArchVerifierPass.xhtml" target="_top" xlink:title="Verifies if the CNOT relations between every qubit respects the architecture constraints. ">
<polygon fill="none" stroke="#000000" points="620,-196.5 620,-215.5 739,-215.5 739,-196.5 620,-196.5"/>
<text text-anchor="middle" x="679.5" y="-203.5" font-family="Helvetica,sans-Serif" font-size="10.00" fill="#000000">efd::ArchVerifierPass</text>
</a>
</g>
</g>
<!-- Node17&#45;&gt;Node18 -->
<g id="edge18" class="edge">
<title>Node17&#45;&gt;Node18</title>
<path fill="none" stroke="#191970" d="M513.3059,-199.5389C546.7885,-200.8406 587.272,-202.4145 619.9,-203.6829"/>
<polygon fill="#191970" stroke="#191970" points="513.2844,-196.0355 503.1559,-199.1443 513.0124,-203.0302 513.2844,-196.0355"/>
</g>
<!-- Node19 -->
<g id="node20" class="node">
<title>Node19</title>
<g id="a_node20"><a xlink:href="../../d6/dd7/classefd_1_1SemanticVerifierPass.xhtml" target="_top" xlink:title="Verifies the CNOT relations between every qubit. ">
<polygon fill="none" stroke="#000000" points="608,-158.5 608,-177.5 751,-177.5 751,-158.5 608,-158.5"/>
<text text-anchor="middle" x="679.5" y="-165.5" font-family="Helvetica,sans-Serif" font-size="10.00" fill="#000000">efd::SemanticVerifierPass</text>
</a>
</g>
</g>
<!-- Node17&#45;&gt;Node19 -->
<g id="edge19" class="edge">
<title>Node17&#45;&gt;Node19</title>
<path fill="none" stroke="#191970" d="M513.3157,-188.8179C542.7223,-185.1341 577.5275,-180.7741 607.6681,-176.9984"/>
<polygon fill="#191970" stroke="#191970" points="512.6433,-185.3747 503.1559,-190.0906 513.5134,-192.3204 512.6433,-185.3747"/>
</g>
<!-- Node21 -->
<g id="node22" class="node">
<title>Node21</title>
<g id="a_node22"><a xlink:href="../../d4/d1b/classefd_1_1LayersBuilderPass.xhtml" target="_top" xlink:title="Create the layers of the &#39;QModule&#39;. ">
<polygon fill="none" stroke="#000000" points="615.5,-120.5 615.5,-139.5 743.5,-139.5 743.5,-120.5 615.5,-120.5"/>
<text text-anchor="middle" x="679.5" y="-127.5" font-family="Helvetica,sans-Serif" font-size="10.00" fill="#000000">efd::LayersBuilderPass</text>
</a>
</g>
</g>
<!-- Node20&#45;&gt;Node21 -->
<g id="edge21" class="edge">
<title>Node20&#45;&gt;Node21</title>
<path fill="none" stroke="#191970" d="M519.3037,-145.9158C549.9105,-142.875 585.4059,-139.3484 615.1945,-136.3889"/>
<polygon fill="#191970" stroke="#191970" points="518.7317,-142.4553 509.1267,-146.9269 519.4238,-149.421 518.7317,-142.4553"/>
</g>
<!-- Node23 -->
<g id="node24" class="node">
<title>Node23</title>
<g id="a_node24"><a xlink:href="../../de/d5a/classefd_1_1QbitAllocator.xhtml" target="_top" xlink:title="Base abstract class that allocates the qbits used in the program to the qbits that are in the physica...">
<polygon fill="none" stroke="#000000" points="628.5,-82.5 628.5,-101.5 730.5,-101.5 730.5,-82.5 628.5,-82.5"/>
<text text-anchor="middle" x="679.5" y="-89.5" font-family="Helvetica,sans-Serif" font-size="10.00" fill="#000000">efd::QbitAllocator</text>
</a>
</g>
</g>
<!-- Node22&#45;&gt;Node23 -->
<g id="edge23" class="edge">
<title>Node22&#45;&gt;Node23</title>
<path fill="none" stroke="#191970" d="M524.145,-100.053C558.3309,-98.2809 597.7577,-96.2372 628.338,-94.652"/>
<polygon fill="#191970" stroke="#191970" points="523.5248,-96.5803 513.7194,-100.5934 523.8872,-103.5709 523.5248,-96.5803"/>
</g>
<!-- Node24 -->
<g id="node25" class="node">
<title>Node24</title>
<g id="a_node25"><a xlink:href="../../d1/dd6/classefd_1_1BoundedMappingTreeQAllocator.xhtml" target="_top" xlink:title="Subgraph Isomorphism based Qubit Allocator. ">
<polygon fill="none" stroke="#000000" points="817,-95.5 817,-114.5 1012,-114.5 1012,-95.5 817,-95.5"/>
<text text-anchor="middle" x="914.5" y="-102.5" font-family="Helvetica,sans-Serif" font-size="10.00" fill="#000000">efd::BoundedMappingTreeQAllocator</text>
</a>
</g>
</g>
<!-- Node23&#45;&gt;Node24 -->
<g id="edge24" class="edge">
<title>Node23&#45;&gt;Node24</title>
<path fill="none" stroke="#191970" d="M740.8332,-95.3929C764.0803,-96.6789 791.1631,-98.1771 816.9289,-99.6024"/>
<polygon fill="#191970" stroke="#191970" points="740.9594,-91.8946 730.7814,-94.8368 740.5727,-98.8839 740.9594,-91.8946"/>
</g>
<!-- Node25 -->
<g id="node26" class="node">
<title>Node25</title>
<g id="a_node26"><a xlink:href="../../d6/d8e/classefd_1_1StdSolutionQAllocator.xhtml" target="_top" xlink:title="An abstract allocator that builds the solution based on a StdSolution. ">
<polygon fill="none" stroke="#000000" points="842,-57.5 842,-76.5 987,-76.5 987,-57.5 842,-57.5"/>
<text text-anchor="middle" x="914.5" y="-64.5" font-family="Helvetica,sans-Serif" font-size="10.00" fill="#000000">efd::StdSolutionQAllocator</text>
</a>
</g>
</g>
<!-- Node23&#45;&gt;Node25 -->
<g id="edge25" class="edge">
<title>Node23&#45;&gt;Node25</title>
<path fill="none" stroke="#191970" d="M740.9921,-85.4583C771.916,-82.1685 809.596,-78.16 841.9313,-74.7201"/>
<polygon fill="#191970" stroke="#191970" points="740.355,-82.0062 730.7814,-86.5445 741.0955,-88.967 740.355,-82.0062"/>
</g>
<!-- Node26 -->
<g id="node27" class="node">
<title>Node26</title>
<g id="a_node27"><a xlink:href="../../d1/d93/classefd_1_1DynprogQAllocator.xhtml" target="_top" xlink:title="Implementation of DepSolverQAllocator that uses dynamic programming to obtain an optimal solution...">
<polygon fill="none" stroke="#000000" points="1054,-114.5 1054,-133.5 1185,-133.5 1185,-114.5 1054,-114.5"/>
<text text-anchor="middle" x="1119.5" y="-121.5" font-family="Helvetica,sans-Serif" font-size="10.00" fill="#000000">efd::DynprogQAllocator</text>
</a>
</g>
</g>
<!-- Node25&#45;&gt;Node26 -->
<g id="edge26" class="edge">
<title>Node25&#45;&gt;Node26</title>
<path fill="none" stroke="#191970" d="M987.242,-78.8152C995.6829,-80.8789 1004.094,-83.2617 1012,-86 1029.4678,-92.0502 1031.7572,-98.3355 1049,-105 1058.3408,-108.6103 1068.6303,-111.8018 1078.3935,-114.4891"/>
<polygon fill="#191970" stroke="#191970" points="987.8783,-75.3701 977.3479,-76.5369 986.3075,-82.1916 987.8783,-75.3701"/>
</g>
<!-- Node27 -->
<g id="node28" class="node">
<title>Node27</title>
<g id="a_node28"><a xlink:href="../../d4/d23/classefd_1_1GreedyCktQAllocator.xhtml" target="_top" xlink:title="efd::GreedyCktQAllocator">
<polygon fill="none" stroke="#000000" points="1049,-76.5 1049,-95.5 1190,-95.5 1190,-76.5 1049,-76.5"/>
<text text-anchor="middle" x="1119.5" y="-83.5" font-family="Helvetica,sans-Serif" font-size="10.00" fill="#000000">efd::GreedyCktQAllocator</text>
</a>
</g>
</g>
<!-- Node25&#45;&gt;Node27 -->
<g id="edge27" class="edge">
<title>Node25&#45;&gt;Node27</title>
<path fill="none" stroke="#191970" d="M997.0478,-74.6508C1014.1825,-76.2389 1032.091,-77.8987 1048.7567,-79.4433"/>
<polygon fill="#191970" stroke="#191970" points="997.3442,-71.1633 987.0638,-73.7254 996.6981,-78.1335 997.3442,-71.1633"/>
</g>
<!-- Node28 -->
<g id="node29" class="node">
<title>Node28</title>
<g id="a_node29"><a xlink:href="../../d3/d6c/classefd_1_1IBMQAllocator.xhtml" target="_top" xlink:title="Port of IBM&#39;s allocator. ">
<polygon fill="none" stroke="#000000" points="1066,-38.5 1066,-57.5 1173,-57.5 1173,-38.5 1066,-38.5"/>
<text text-anchor="middle" x="1119.5" y="-45.5" font-family="Helvetica,sans-Serif" font-size="10.00" fill="#000000">efd::IBMQAllocator</text>
</a>
</g>
</g>
<!-- Node25&#45;&gt;Node28 -->
<g id="edge28" class="edge">
<title>Node25&#45;&gt;Node28</title>
<path fill="none" stroke="#191970" d="M997.2094,-59.3343C1020.3046,-57.1937 1044.7934,-54.924 1065.7417,-52.9825"/>
<polygon fill="#191970" stroke="#191970" points="996.6981,-55.8665 987.0638,-60.2746 997.3442,-62.8367 996.6981,-55.8665"/>
</g>
<!-- Node29 -->
<g id="node30" class="node">
<title>Node29</title>
<g id="a_node30"><a xlink:href="../../da/d39/classefd_1_1SimpleQAllocator.xhtml" target="_top" xlink:title="DependencySolver that allocates the logical qubits from an initial mapping. ">
<polygon fill="none" stroke="#000000" points="1058,-.5 1058,-19.5 1181,-19.5 1181,-.5 1058,-.5"/>
<text text-anchor="middle" x="1119.5" y="-7.5" font-family="Helvetica,sans-Serif" font-size="10.00" fill="#000000">efd::SimpleQAllocator</text>
</a>
</g>
</g>
<!-- Node25&#45;&gt;Node29 -->
<g id="edge29" class="edge">
<title>Node25&#45;&gt;Node29</title>
<path fill="none" stroke="#191970" d="M957.5963,-54.6809C983.9674,-47.1783 1018.4077,-37.4436 1049,-29 1060.2418,-25.8972 1072.5087,-22.5707 1083.612,-19.582"/>
<polygon fill="#191970" stroke="#191970" points="956.5681,-51.3345 947.9092,-57.4397 958.4855,-58.0668 956.5681,-51.3345"/>
</g>
</g>
</svg>
