<?xml version="1.0" encoding="UTF-8" standalone="no"?>
<!DOCTYPE svg PUBLIC "-//W3C//DTD SVG 1.1//EN"
 "http://www.w3.org/Graphics/SVG/1.1/DTD/svg11.dtd">
<!-- Generated by graphviz version 2.38.0 (20140413.2041)
 -->
<!-- Title: efd::ArchGraph::vertexToString Pages: 1 -->
<svg width="296pt" height="66pt"
 viewBox="0.00 0.00 296.00 66.00" xmlns="http://www.w3.org/2000/svg" xmlns:xlink="http://www.w3.org/1999/xlink">
<g id="graph0" class="graph" transform="scale(1 1) rotate(0) translate(4 62)">
<title>efd::ArchGraph::vertexToString</title>
<!-- Node23 -->
<g id="node1" class="node"><title>Node23</title>
<polygon fill="#bfbfbf" stroke="black" points="0,-14 0,-44 127,-44 127,-14 0,-14"/>
<text text-anchor="start" x="8" y="-32" font-family="Helvetica,sans-Serif" font-size="10.00">efd::ArchGraph::vertexTo</text>
<text text-anchor="middle" x="63.5" y="-21" font-family="Helvetica,sans-Serif" font-size="10.00">String</text>
</g>
<!-- Node24 -->
<g id="node2" class="node"><title>Node24</title>
<g id="a_node2"><a xlink:href="../../d5/dae/classefd_1_1ArchGraph.xhtml#a1388225779727295176780b9a68aedf2" target="_top" xlink:title="Gets the node corresponding to the uid. ">
<polygon fill="none" stroke="black" points="163,-38.5 163,-57.5 288,-57.5 288,-38.5 163,-38.5"/>
<text text-anchor="middle" x="225.5" y="-45.5" font-family="Helvetica,sans-Serif" font-size="10.00">efd::ArchGraph::getNode</text>
</a>
</g>
</g>
<!-- Node23&#45;&gt;Node24 -->
<g id="edge1" class="edge"><title>Node23&#45;&gt;Node24</title>
<path fill="none" stroke="midnightblue" d="M127.277,-36.4548C135.709,-37.4561 144.409,-38.4892 152.978,-39.5067"/>
<polygon fill="midnightblue" stroke="midnightblue" points="152.61,-42.9875 162.953,-40.6913 153.435,-36.0364 152.61,-42.9875"/>
</g>
<!-- Node25 -->
<g id="node3" class="node"><title>Node25</title>
<g id="a_node3"><a xlink:href="../../d6/d6a/classefd_1_1Node.xhtml#a96ca13a5c2b971b68619ce4a34be0f66" target="_top" xlink:title="Returns a std::string representation of this Node and its childrem. ">
<polygon fill="none" stroke="black" points="176,-0.5 176,-19.5 275,-19.5 275,-0.5 176,-0.5"/>
<text text-anchor="middle" x="225.5" y="-7.5" font-family="Helvetica,sans-Serif" font-size="10.00">efd::Node::toString</text>
</a>
</g>
</g>
<!-- Node23&#45;&gt;Node25 -->
<g id="edge2" class="edge"><title>Node23&#45;&gt;Node25</title>
<path fill="none" stroke="midnightblue" d="M127.277,-21.5452C139.862,-20.0507 153.044,-18.4854 165.496,-17.0067"/>
<polygon fill="midnightblue" stroke="midnightblue" points="166.237,-20.4434 175.755,-15.7885 165.412,-13.4922 166.237,-20.4434"/>
</g>
</g>
</svg>
