<?xml version="1.0" encoding="UTF-8" standalone="no"?>
<!DOCTYPE svg PUBLIC "-//W3C//DTD SVG 1.1//EN"
 "http://www.w3.org/Graphics/SVG/1.1/DTD/svg11.dtd">
<!-- Generated by graphviz version 2.38.0 (20140413.2041)
 -->
<!-- Title: efd::ArchGraph::putVertex Pages: 1 -->
<svg width="306pt" height="66pt"
 viewBox="0.00 0.00 306.00 66.00" xmlns="http://www.w3.org/2000/svg" xmlns:xlink="http://www.w3.org/1999/xlink">
<g id="graph0" class="graph" transform="scale(1 1) rotate(0) translate(4 62)">
<title>efd::ArchGraph::putVertex</title>
<!-- Node16 -->
<g id="node1" class="node"><title>Node16</title>
<polygon fill="#bfbfbf" stroke="black" points="0,-19.5 0,-38.5 131,-38.5 131,-19.5 0,-19.5"/>
<text text-anchor="middle" x="65.5" y="-26.5" font-family="Helvetica,sans-Serif" font-size="10.00">efd::ArchGraph::putVertex</text>
</g>
<!-- Node17 -->
<g id="node2" class="node"><title>Node17</title>
<g id="a_node2"><a xlink:href="../../d5/dae/classefd_1_1ArchGraph.xhtml#a6307f3a9c6645e1fc1c0b5d5088fac48" target="_top" xlink:title="Creates a string vertex and puts it in the vector. ">
<polygon fill="none" stroke="black" points="167,-38.5 167,-57.5 298,-57.5 298,-38.5 167,-38.5"/>
<text text-anchor="middle" x="232.5" y="-45.5" font-family="Helvetica,sans-Serif" font-size="10.00">efd::ArchGraph::putVertex</text>
</a>
</g>
</g>
<!-- Node16&#45;&gt;Node17 -->
<g id="edge1" class="edge"><title>Node16&#45;&gt;Node17</title>
<path fill="none" stroke="midnightblue" d="M131.239,-36.4548C139.675,-37.4262 148.371,-38.4275 156.951,-39.4156"/>
<polygon fill="midnightblue" stroke="midnightblue" points="156.613,-42.8997 166.948,-40.5667 157.414,-35.9457 156.613,-42.8997"/>
</g>
<!-- Node18 -->
<g id="node3" class="node"><title>Node18</title>
<g id="a_node3"><a xlink:href="../../d6/d6a/classefd_1_1Node.xhtml#a96ca13a5c2b971b68619ce4a34be0f66" target="_top" xlink:title="Returns a std::string representation of this Node and its childrem. ">
<polygon fill="none" stroke="black" points="183,-0.5 183,-19.5 282,-19.5 282,-0.5 183,-0.5"/>
<text text-anchor="middle" x="232.5" y="-7.5" font-family="Helvetica,sans-Serif" font-size="10.00">efd::Node::toString</text>
</a>
</g>
</g>
<!-- Node16&#45;&gt;Node18 -->
<g id="edge2" class="edge"><title>Node16&#45;&gt;Node18</title>
<path fill="none" stroke="midnightblue" d="M131.239,-21.5452C144.908,-19.9711 159.261,-18.3184 172.697,-16.7712"/>
<polygon fill="midnightblue" stroke="midnightblue" points="173.233,-20.2327 182.767,-15.6117 172.432,-13.2787 173.233,-20.2327"/>
</g>
</g>
</svg>
