<?xml version="1.0" encoding="UTF-8" standalone="no"?>
<!DOCTYPE svg PUBLIC "-//W3C//DTD SVG 1.1//EN"
 "http://www.w3.org/Graphics/SVG/1.1/DTD/svg11.dtd">
<!-- Generated by graphviz version 2.38.0 (20140413.2041)
 -->
<!-- Title: efd::ArchGraph::Create Pages: 1 -->
<svg width="428pt" height="28pt"
 viewBox="0.00 0.00 428.00 28.00" xmlns="http://www.w3.org/2000/svg" xmlns:xlink="http://www.w3.org/1999/xlink">
<g id="graph0" class="graph" transform="scale(1 1) rotate(0) translate(4 24)">
<title>efd::ArchGraph::Create</title>
<!-- Node4 -->
<g id="node1" class="node"><title>Node4</title>
<polygon fill="#bfbfbf" stroke="black" points="0,-0.5 0,-19.5 118,-19.5 118,-0.5 0,-0.5"/>
<text text-anchor="middle" x="59" y="-7.5" font-family="Helvetica,sans-Serif" font-size="10.00">efd::ArchGraph::Create</text>
</g>
<!-- Node5 -->
<g id="node2" class="node"><title>Node5</title>
<g id="a_node2"><a xlink:href="../../d5/dae/classefd_1_1ArchGraph.xhtml#ad8d5dcc8e2d83251b4263f6e8eea5893" target="_top" xlink:title="efd::ArchGraph::ArchGraph">
<polygon fill="none" stroke="black" points="154,-0.5 154,-19.5 289,-19.5 289,-0.5 154,-0.5"/>
<text text-anchor="middle" x="221.5" y="-7.5" font-family="Helvetica,sans-Serif" font-size="10.00">efd::ArchGraph::ArchGraph</text>
</a>
</g>
</g>
<!-- Node4&#45;&gt;Node5 -->
<g id="edge1" class="edge"><title>Node4&#45;&gt;Node5</title>
<path fill="none" stroke="midnightblue" d="M118.398,-10C126.709,-10 135.358,-10 143.95,-10"/>
<polygon fill="midnightblue" stroke="midnightblue" points="143.987,-13.5001 153.987,-10 143.986,-6.5001 143.987,-13.5001"/>
</g>
<!-- Node6 -->
<g id="node3" class="node"><title>Node6</title>
<g id="a_node3"><a xlink:href="../../db/db3/classefd_1_1Graph.xhtml#a27001651c245166a96a452540681ddf7" target="_top" xlink:title="efd::Graph::Graph">
<polygon fill="none" stroke="black" points="325,-0.5 325,-19.5 420,-19.5 420,-0.5 325,-0.5"/>
<text text-anchor="middle" x="372.5" y="-7.5" font-family="Helvetica,sans-Serif" font-size="10.00">efd::Graph::Graph</text>
</a>
</g>
</g>
<!-- Node5&#45;&gt;Node6 -->
<g id="edge2" class="edge"><title>Node5&#45;&gt;Node6</title>
<path fill="none" stroke="midnightblue" d="M289.156,-10C297.749,-10 306.483,-10 314.894,-10"/>
<polygon fill="midnightblue" stroke="midnightblue" points="314.962,-13.5001 324.962,-10 314.962,-6.5001 314.962,-13.5001"/>
</g>
</g>
</svg>
