<?xml version="1.0" encoding="UTF-8" standalone="no"?>
<!DOCTYPE svg PUBLIC "-//W3C//DTD SVG 1.1//EN"
 "http://www.w3.org/Graphics/SVG/1.1/DTD/svg11.dtd">
<!-- Generated by graphviz version 2.38.0 (20140413.2041)
 -->
<!-- Title: efd::DependencyGraphBuilderPass Pages: 1 -->
<svg width="229pt" height="231pt"
 viewBox="0.00 0.00 229.00 231.00" xmlns="http://www.w3.org/2000/svg" xmlns:xlink="http://www.w3.org/1999/xlink">
<g id="graph0" class="graph" transform="scale(1 1) rotate(0) translate(4 227)">
<title>efd::DependencyGraphBuilderPass</title>
<!-- Node0 -->
<g id="node1" class="node"><title>Node0</title>
<polygon fill="#bfbfbf" stroke="black" points="0,-0.5 0,-19.5 170,-19.5 170,-0.5 0,-0.5"/>
<text text-anchor="middle" x="85" y="-7.5" font-family="Helvetica,sans-Serif" font-size="10.00">efd::DependencyGraphBuilderPass</text>
</g>
<!-- Node1 -->
<g id="node2" class="node"><title>Node1</title>
<g id="a_node2"><a xlink:href="../../db/d56/classefd_1_1PassT.xhtml" target="_top" xlink:title="efd::PassT\&lt; DependencyGraph\l::sRef \&gt;">
<polygon fill="none" stroke="black" points="7.5,-57.5 7.5,-87.5 162.5,-87.5 162.5,-57.5 7.5,-57.5"/>
<text text-anchor="start" x="15.5" y="-75.5" font-family="Helvetica,sans-Serif" font-size="10.00">efd::PassT&lt; DependencyGraph</text>
<text text-anchor="middle" x="85" y="-64.5" font-family="Helvetica,sans-Serif" font-size="10.00">::sRef &gt;</text>
</a>
</g>
</g>
<!-- Node1&#45;&gt;Node0 -->
<g id="edge1" class="edge"><title>Node1&#45;&gt;Node0</title>
<path fill="none" stroke="midnightblue" d="M85,-47.3524C85,-37.5132 85,-26.7753 85,-19.5399"/>
<polygon fill="midnightblue" stroke="midnightblue" points="81.5001,-47.468 85,-57.468 88.5001,-47.4681 81.5001,-47.468"/>
</g>
<!-- Node2 -->
<g id="node3" class="node"><title>Node2</title>
<g id="a_node3"><a xlink:href="../../d0/d98/classefd_1_1Pass.xhtml" target="_top" xlink:title="Base class for implementation of QModule passes. This information will be used when the QModule&#39;s fun...">
<polygon fill="none" stroke="black" points="63.5,-203.5 63.5,-222.5 122.5,-222.5 122.5,-203.5 63.5,-203.5"/>
<text text-anchor="middle" x="93" y="-210.5" font-family="Helvetica,sans-Serif" font-size="10.00">efd::Pass</text>
</a>
</g>
</g>
<!-- Node2&#45;&gt;Node1 -->
<g id="edge2" class="edge"><title>Node2&#45;&gt;Node1</title>
<path fill="none" stroke="midnightblue" d="M91.1676,-193.075C90.4121,-184.773 89.5797,-174.909 89,-166 87.1944,-138.251 86.0024,-105.763 85.4194,-87.6143"/>
<polygon fill="midnightblue" stroke="midnightblue" points="87.6979,-193.562 92.1192,-203.19 94.6671,-192.906 87.6979,-193.562"/>
</g>
<!-- Node3 -->
<g id="node4" class="node"><title>Node3</title>
<g id="a_node4"><a xlink:href="../../db/d56/classefd_1_1PassT.xhtml" target="_top" xlink:title="Should serve as base class for classes that produces some data of type T. ">
<polygon fill="none" stroke="black" points="97.5,-146.5 97.5,-165.5 186.5,-165.5 186.5,-146.5 97.5,-146.5"/>
<text text-anchor="middle" x="142" y="-153.5" font-family="Helvetica,sans-Serif" font-size="10.00">efd::PassT&lt; T &gt;</text>
</a>
</g>
</g>
<!-- Node2&#45;&gt;Node3 -->
<g id="edge4" class="edge"><title>Node2&#45;&gt;Node3</title>
<path fill="none" stroke="midnightblue" d="M107.408,-195.828C116.182,-185.979 127.049,-173.782 134.236,-165.715"/>
<polygon fill="midnightblue" stroke="midnightblue" points="104.695,-193.611 100.656,-203.406 109.922,-198.268 104.695,-193.611"/>
</g>
<!-- Node3&#45;&gt;Node1 -->
<g id="edge3" class="edge"><title>Node3&#45;&gt;Node1</title>
<path fill="none" stroke="orange" stroke-dasharray="5,2" d="M130.073,-137.946C119.63,-123.015 104.637,-101.578 94.8595,-87.5974"/>
<polygon fill="orange" stroke="orange" points="127.301,-140.089 135.9,-146.278 133.037,-136.077 127.301,-140.089"/>
<text text-anchor="start" x="121" y="-120" font-family="Helvetica,sans-Serif" font-size="10.00"> &lt; DependencyGraph::</text>
<text text-anchor="middle" x="171" y="-109" font-family="Helvetica,sans-Serif" font-size="10.00">sRef &gt;</text>
</g>
</g>
</svg>
